<?xml version='1.0'?>
<svg xmlns="http://www.w3.org/2000/svg" xmlns:xlink="http://www.w3.org/1999/xlink" width="1206.269663" height="237.200000">
<defs>
  <filter id="ds" x="0" y="0">
    <feOffset in="SourceAlpha" dx="2" dy="2" />
    <feComponentTransfer><feFuncA type="linear" slope="0.2"/></feComponentTransfer>
    <feGaussianBlur result="blurOut" stdDeviation="1" />
    <feBlend in="SourceGraphic" in2="blurOut" mode="normal" />
  </filter>
  <pattern id="disordered-hatch" patternUnits="userSpaceOnUse" width="4" height="4">
    <path d="M-1,1 l2,-2 M0,4 l4,-4 M3,5 l2,-2" stroke="#000000" opacity="0.3" />
  </pattern>
</defs>
<line x1="65.157303" x2="65.157303" y1="59.000000" y2="87.000000" stroke="#BABDB6" stroke-width="2"/><a xlink:title="T62T"><circle cx="65.157303" cy="59.000000" r="4.000000" fill="#0000ff" /></a><g transform="translate(65.157303,59.000000) rotate(-30)"><text style="font-size:10px;font-family:OpenSans;fill:#555;" text-anchor="middle" x="0" y="-6.000000">T62T</text></g><line x1="84.573034" x2="84.573034" y1="59.000000" y2="87.000000" stroke="#BABDB6" stroke-width="2"/><a xlink:title="P86S"><circle cx="84.573034" cy="59.000000" r="4.000000" fill="#ff0000" /></a><g transform="translate(84.573034,59.000000) rotate(-30)"><text style="font-size:10px;font-family:OpenSans;fill:#555;" text-anchor="middle" x="0" y="-6.000000">P86S</text></g><line x1="96.707865" x2="96.707865" y1="59.000000" y2="87.000000" stroke="#BABDB6" stroke-width="2"/><a xlink:title="R101W"><circle cx="96.707865" cy="59.000000" r="4.000000" fill="#ff0000" /></a><g transform="translate(96.707865,59.000000) rotate(-30)"><text style="font-size:10px;font-family:OpenSans;fill:#555;" text-anchor="middle" x="0" y="-6.000000">R101W</text></g><line x1="222.910112" x2="222.910112" y1="59.000000" y2="87.000000" stroke="#BABDB6" stroke-width="2"/><a xlink:title="G257E"><circle cx="222.910112" cy="59.000000" r="4.000000" fill="#ff0000" /></a><g transform="translate(222.910112,59.000000) rotate(-30)"><text style="font-size:10px;font-family:OpenSans;fill:#555;" text-anchor="middle" x="0" y="-6.000000">G257E</text></g><line x1="256.078652" x2="256.078652" y1="59.000000" y2="87.000000" stroke="#BABDB6" stroke-width="2"/><a xlink:title="P298P"><circle cx="256.078652" cy="59.000000" r="4.000000" fill="#0000ff" /></a><g transform="translate(256.078652,59.000000) rotate(-30)"><text style="font-size:10px;font-family:OpenSans;fill:#555;" text-anchor="middle" x="0" y="-6.000000">P298P</text></g><line x1="305.426966" x2="305.426966" y1="59.000000" y2="87.000000" stroke="#BABDB6" stroke-width="2"/><a xlink:title="D359E"><circle cx="305.426966" cy="59.000000" r="4.000000" fill="#ff0000" /></a><g transform="translate(305.426966,59.000000) rotate(-30)"><text style="font-size:10px;font-family:OpenSans;fill:#555;" text-anchor="middle" x="0" y="-6.000000">D359E</text></g><line x1="347.494382" x2="347.494382" y1="59.000000" y2="87.000000" stroke="#BABDB6" stroke-width="2"/><a xlink:title="T411P"><circle cx="347.494382" cy="59.000000" r="4.000000" fill="#ff0000" /></a><g transform="translate(347.494382,59.000000) rotate(-30)"><text style="font-size:10px;font-family:OpenSans;fill:#555;" text-anchor="middle" x="0" y="-6.000000">T411P</text></g><line x1="402.505618" x2="402.505618" y1="59.000000" y2="87.000000" stroke="#BABDB6" stroke-width="2"/><a xlink:title="C479Y"><circle cx="402.505618" cy="59.000000" r="4.000000" fill="#ff0000" /></a><g transform="translate(402.505618,59.000000) rotate(-30)"><text style="font-size:10px;font-family:OpenSans;fill:#555;" text-anchor="middle" x="0" y="-6.000000">C479Y</text></g><line x1="490.685393" x2="490.685393" y1="46.500000" y2="87.000000" stroke="#BABDB6" stroke-width="2"/><a xlink:title="V588V"><circle cx="490.685393" cy="46.500000" r="4.000000" fill="#0000ff" /></a><g transform="translate(490.685393,46.500000) rotate(-30)"><text style="font-size:10px;font-family:OpenSans;fill:#555;" text-anchor="middle" x="0" y="-6.000000">V588V</text></g><line x1="493.921348" x2="493.921348" y1="59.000000" y2="87.000000" stroke="#BABDB6" stroke-width="2"/><a xlink:title="R592W"><circle cx="493.921348" cy="59.000000" r="4.000000" fill="#ff0000" /></a><g transform="translate(493.921348,59.000000) rotate(-30)"><text style="font-size:10px;font-family:OpenSans;fill:#555;" text-anchor="middle" x="0" y="-6.000000">R592W</text></g><line x1="504.438202" x2="504.438202" y1="59.000000" y2="87.000000" stroke="#BABDB6" stroke-width="2"/><a xlink:title="R605W"><circle cx="504.438202" cy="59.000000" r="4.000000" fill="#ff0000" /></a><g transform="translate(504.438202,59.000000) rotate(-30)"><text style="font-size:10px;font-family:OpenSans;fill:#555;" text-anchor="middle" x="0" y="-6.000000">R605W</text></g><line x1="525.471910" x2="525.471910" y1="59.000000" y2="87.000000" stroke="#BABDB6" stroke-width="2"/><a xlink:title="R631W"><circle cx="525.471910" cy="59.000000" r="4.000000" fill="#ff0000" /></a><g transform="translate(525.471910,59.000000) rotate(-30)"><text style="font-size:10px;font-family:OpenSans;fill:#555;" text-anchor="middle" x="0" y="-6.000000">R631W</text></g><line x1="612.033708" x2="612.033708" y1="59.000000" y2="87.000000" stroke="#BABDB6" stroke-width="2"/><a xlink:title="H738R"><circle cx="612.033708" cy="59.000000" r="4.000000" fill="#ff0000" /></a><g transform="translate(612.033708,59.000000) rotate(-30)"><text style="font-size:10px;font-family:OpenSans;fill:#555;" text-anchor="middle" x="0" y="-6.000000">H738R</text></g><line x1="619.314607" x2="619.314607" y1="46.500000" y2="87.000000" stroke="#BABDB6" stroke-width="2"/><a xlink:title="G747E"><circle cx="619.314607" cy="46.500000" r="4.000000" fill="#ff0000" /></a><g transform="translate(619.314607,46.500000) rotate(-30)"><text style="font-size:10px;font-family:OpenSans;fill:#555;" text-anchor="middle" x="0" y="-6.000000">G747E</text></g><line x1="620.123596" x2="620.123596" y1="59.000000" y2="87.000000" stroke="#BABDB6" stroke-width="2"/><a xlink:title="G748E"><circle cx="620.123596" cy="59.000000" r="4.000000" fill="#ff0000" /></a><g transform="translate(620.123596,59.000000) rotate(-30)"><text style="font-size:10px;font-family:OpenSans;fill:#555;" text-anchor="middle" x="0" y="-6.000000">G748E</text></g><line x1="629.831461" x2="629.831461" y1="34.000000" y2="87.000000" stroke="#BABDB6" stroke-width="2"/><a xlink:title="G760E"><circle cx="629.831461" cy="34.000000" r="4.000000" fill="#ff0000" /></a><g transform="translate(629.831461,34.000000) rotate(-30)"><text style="font-size:10px;font-family:OpenSans;fill:#555;" text-anchor="middle" x="0" y="-6.000000">G760E</text></g><line x1="630.640449" x2="630.640449" y1="46.500000" y2="87.000000" stroke="#BABDB6" stroke-width="2"/><a xlink:title="G761E"><circle cx="630.640449" cy="46.500000" r="4.000000" fill="#ff0000" /></a><g transform="translate(630.640449,46.500000) rotate(-30)"><text style="font-size:10px;font-family:OpenSans;fill:#555;" text-anchor="middle" x="0" y="-6.000000">G761E</text></g><line x1="634.685393" x2="634.685393" y1="59.000000" y2="87.000000" stroke="#BABDB6" stroke-width="2"/><a xlink:title="M766V"><circle cx="634.685393" cy="59.000000" r="4.000000" fill="#ff0000" /></a><g transform="translate(634.685393,59.000000) rotate(-30)"><text style="font-size:10px;font-family:OpenSans;fill:#555;" text-anchor="middle" x="0" y="-6.000000">M766V</text></g><line x1="652.483146" x2="652.483146" y1="46.500000" y2="87.000000" stroke="#BABDB6" stroke-width="2"/><a xlink:title="P788P"><circle cx="652.483146" cy="46.500000" r="4.000000" fill="#0000ff" /></a><g transform="translate(652.483146,46.500000) rotate(-30)"><text style="font-size:10px;font-family:OpenSans;fill:#555;" text-anchor="middle" x="0" y="-6.000000">P788P</text></g><line x1="653.292135" x2="653.292135" y1="59.000000" y2="87.000000" stroke="#BABDB6" stroke-width="2"/><a xlink:title="P789P"><circle cx="653.292135" cy="59.000000" r="4.000000" fill="#0000ff" /></a><g transform="translate(653.292135,59.000000) rotate(-30)"><text style="font-size:10px;font-family:OpenSans;fill:#555;" text-anchor="middle" x="0" y="-6.000000">P789P</text></g><line x1="663.000000" x2="663.000000" y1="46.500000" y2="87.000000" stroke="#BABDB6" stroke-width="2"/><a xlink:title="P801P"><circle cx="663.000000" cy="46.500000" r="4.000000" fill="#0000ff" /></a><g transform="translate(663.000000,46.500000) rotate(-30)"><text style="font-size:10px;font-family:OpenSans;fill:#555;" text-anchor="middle" x="0" y="-6.000000">P801P</text></g><line x1="663.808989" x2="663.808989" y1="59.000000" y2="87.000000" stroke="#BABDB6" stroke-width="2"/><a xlink:title="P802P"><circle cx="663.808989" cy="59.000000" r="4.000000" fill="#0000ff" /></a><g transform="translate(663.808989,59.000000) rotate(-30)"><text style="font-size:10px;font-family:OpenSans;fill:#555;" text-anchor="middle" x="0" y="-6.000000">P802P</text></g><line x1="701.831461" x2="701.831461" y1="34.000000" y2="87.000000" stroke="#BABDB6" stroke-width="2"/><a xlink:title="D849E"><circle cx="701.831461" cy="34.000000" r="4.000000" fill="#ff0000" /></a><g transform="translate(701.831461,34.000000) rotate(-30)"><text style="font-size:10px;font-family:OpenSans;fill:#555;" text-anchor="middle" x="0" y="-6.000000">D849E</text></g><line x1="701.831461" x2="701.831461" y1="46.500000" y2="87.000000" stroke="#BABDB6" stroke-width="2"/><a xlink:title="Q849Q"><circle cx="701.831461" cy="46.500000" r="4.000000" fill="#0000ff" /></a><g transform="translate(701.831461,46.500000) rotate(-30)"><text style="font-size:10px;font-family:OpenSans;fill:#555;" text-anchor="middle" x="0" y="-6.000000">Q849Q</text></g><line x1="702.640449" x2="702.640449" y1="59.000000" y2="87.000000" stroke="#BABDB6" stroke-width="2"/><a xlink:title="D850E"><circle cx="702.640449" cy="59.000000" r="4.000000" fill="#ff0000" /></a><g transform="translate(702.640449,59.000000) rotate(-30)"><text style="font-size:10px;font-family:OpenSans;fill:#555;" text-anchor="middle" x="0" y="-6.000000">D850E</text></g><line x1="712.348315" x2="712.348315" y1="46.500000" y2="87.000000" stroke="#BABDB6" stroke-width="2"/><a xlink:title="D862E"><circle cx="712.348315" cy="46.500000" r="4.000000" fill="#ff0000" /></a><g transform="translate(712.348315,46.500000) rotate(-30)"><text style="font-size:10px;font-family:OpenSans;fill:#555;" text-anchor="middle" x="0" y="-6.000000">D862E</text></g><line x1="713.157303" x2="713.157303" y1="59.000000" y2="87.000000" stroke="#BABDB6" stroke-width="2"/><a xlink:title="D863E"><circle cx="713.157303" cy="59.000000" r="4.000000" fill="#ff0000" /></a><g transform="translate(713.157303,59.000000) rotate(-30)"><text style="font-size:10px;font-family:OpenSans;fill:#555;" text-anchor="middle" x="0" y="-6.000000">D863E</text></g><line x1="767.359551" x2="767.359551" y1="59.000000" y2="87.000000" stroke="#BABDB6" stroke-width="2"/><a xlink:title="Q930*"><circle cx="767.359551" cy="59.000000" r="4.000000" fill="#0000ff" /></a><g transform="translate(767.359551,59.000000) rotate(-30)"><text style="font-size:10px;font-family:OpenSans;fill:#555;" text-anchor="middle" x="0" y="-6.000000">Q930*</text></g><line x1="798.910112" x2="798.910112" y1="46.500000" y2="87.000000" stroke="#BABDB6" stroke-width="2"/><a xlink:title="C969Y"><circle cx="798.910112" cy="46.500000" r="4.000000" fill="#ff0000" /></a><g transform="translate(798.910112,46.500000) rotate(-30)"><text style="font-size:10px;font-family:OpenSans;fill:#555;" text-anchor="middle" x="0" y="-6.000000">C969Y</text></g><line x1="799.719101" x2="799.719101" y1="59.000000" y2="87.000000" stroke="#BABDB6" stroke-width="2"/><a xlink:title="C970Y"><circle cx="799.719101" cy="59.000000" r="4.000000" fill="#ff0000" /></a><g transform="translate(799.719101,59.000000) rotate(-30)"><text style="font-size:10px;font-family:OpenSans;fill:#555;" text-anchor="middle" x="0" y="-6.000000">C970Y</text></g><line x1="809.426966" x2="809.426966" y1="46.500000" y2="87.000000" stroke="#BABDB6" stroke-width="2"/><a xlink:title="C982Y"><circle cx="809.426966" cy="46.500000" r="4.000000" fill="#ff0000" /></a><g transform="translate(809.426966,46.500000) rotate(-30)"><text style="font-size:10px;font-family:OpenSans;fill:#555;" text-anchor="middle" x="0" y="-6.000000">C982Y</text></g><line x1="810.235955" x2="810.235955" y1="59.000000" y2="87.000000" stroke="#BABDB6" stroke-width="2"/><a xlink:title="C983Y"><circle cx="810.235955" cy="59.000000" r="4.000000" fill="#ff0000" /></a><g transform="translate(810.235955,59.000000) rotate(-30)"><text style="font-size:10px;font-family:OpenSans;fill:#555;" text-anchor="middle" x="0" y="-6.000000">C983Y</text></g><line x1="887.089888" x2="887.089888" y1="46.500000" y2="87.000000" stroke="#BABDB6" stroke-width="2"/><a xlink:title="V1078V"><circle cx="887.089888" cy="46.500000" r="4.000000" fill="#0000ff" /></a><g transform="translate(887.089888,46.500000) rotate(-30)"><text style="font-size:10px;font-family:OpenSans;fill:#555;" text-anchor="middle" x="0" y="-6.000000">V1078V</text></g><line x1="887.898876" x2="887.898876" y1="59.000000" y2="87.000000" stroke="#BABDB6" stroke-width="2"/><a xlink:title="V1079V"><circle cx="887.898876" cy="59.000000" r="4.000000" fill="#0000ff" /></a><g transform="translate(887.898876,59.000000) rotate(-30)"><text style="font-size:10px;font-family:OpenSans;fill:#555;" text-anchor="middle" x="0" y="-6.000000">V1079V</text></g><line x1="897.606742" x2="897.606742" y1="46.500000" y2="87.000000" stroke="#BABDB6" stroke-width="2"/><a xlink:title="V1091V"><circle cx="897.606742" cy="46.500000" r="4.000000" fill="#0000ff" /></a><g transform="translate(897.606742,46.500000) rotate(-30)"><text style="font-size:10px;font-family:OpenSans;fill:#555;" text-anchor="middle" x="0" y="-6.000000">V1091V</text></g><line x1="898.415730" x2="898.415730" y1="59.000000" y2="87.000000" stroke="#BABDB6" stroke-width="2"/><a xlink:title="V1092V"><circle cx="898.415730" cy="59.000000" r="4.000000" fill="#0000ff" /></a><g transform="translate(898.415730,59.000000) rotate(-30)"><text style="font-size:10px;font-family:OpenSans;fill:#555;" text-anchor="middle" x="0" y="-6.000000">V1092V</text></g><line x1="921.876404" x2="921.876404" y1="46.500000" y2="87.000000" stroke="#BABDB6" stroke-width="2"/><a xlink:title="R1121W"><circle cx="921.876404" cy="46.500000" r="4.000000" fill="#ff0000" /></a><g transform="translate(921.876404,46.500000) rotate(-30)"><text style="font-size:10px;font-family:OpenSans;fill:#555;" text-anchor="middle" x="0" y="-6.000000">R1121W</text></g><line x1="922.685393" x2="922.685393" y1="59.000000" y2="87.000000" stroke="#BABDB6" stroke-width="2"/><a xlink:title="R1122W"><circle cx="922.685393" cy="59.000000" r="4.000000" fill="#ff0000" /></a><g transform="translate(922.685393,59.000000) rotate(-30)"><text style="font-size:10px;font-family:OpenSans;fill:#555;" text-anchor="middle" x="0" y="-6.000000">R1122W</text></g><line x1="932.393258" x2="932.393258" y1="46.500000" y2="87.000000" stroke="#BABDB6" stroke-width="2"/><a xlink:title="R1134W"><circle cx="932.393258" cy="46.500000" r="4.000000" fill="#ff0000" /></a><g transform="translate(932.393258,46.500000) rotate(-30)"><text style="font-size:10px;font-family:OpenSans;fill:#555;" text-anchor="middle" x="0" y="-6.000000">R1134W</text></g><line x1="933.202247" x2="933.202247" y1="59.000000" y2="87.000000" stroke="#BABDB6" stroke-width="2"/><a xlink:title="R1135W"><circle cx="933.202247" cy="59.000000" r="4.000000" fill="#ff0000" /></a><g transform="translate(933.202247,59.000000) rotate(-30)"><text style="font-size:10px;font-family:OpenSans;fill:#555;" text-anchor="middle" x="0" y="-6.000000">R1135W</text></g><line x1="1008.438202" x2="1008.438202" y1="46.500000" y2="87.000000" stroke="#BABDB6" stroke-width="2"/><a xlink:title="H1228R"><circle cx="1008.438202" cy="46.500000" r="4.000000" fill="#ff0000" /></a><g transform="translate(1008.438202,46.500000) rotate(-30)"><text style="font-size:10px;font-family:OpenSans;fill:#555;" text-anchor="middle" x="0" y="-6.000000">H1228R</text></g><line x1="1009.247191" x2="1009.247191" y1="59.000000" y2="87.000000" stroke="#BABDB6" stroke-width="2"/><a xlink:title="H1229R"><circle cx="1009.247191" cy="59.000000" r="4.000000" fill="#ff0000" /></a><g transform="translate(1009.247191,59.000000) rotate(-30)"><text style="font-size:10px;font-family:OpenSans;fill:#555;" text-anchor="middle" x="0" y="-6.000000">H1229R</text></g><line x1="1018.955056" x2="1018.955056" y1="46.500000" y2="87.000000" stroke="#BABDB6" stroke-width="2"/><a xlink:title="H1241R"><circle cx="1018.955056" cy="46.500000" r="4.000000" fill="#ff0000" /></a><g transform="translate(1018.955056,46.500000) rotate(-30)"><text style="font-size:10px;font-family:OpenSans;fill:#555;" text-anchor="middle" x="0" y="-6.000000">H1241R</text></g><line x1="1019.764045" x2="1019.764045" y1="59.000000" y2="87.000000" stroke="#BABDB6" stroke-width="2"/><a xlink:title="H1242R"><circle cx="1019.764045" cy="59.000000" r="4.000000" fill="#ff0000" /></a><g transform="translate(1019.764045,59.000000) rotate(-30)"><text style="font-size:10px;font-family:OpenSans;fill:#555;" text-anchor="middle" x="0" y="-6.000000">H1242R</text></g><line x1="1031.089888" x2="1031.089888" y1="46.500000" y2="87.000000" stroke="#BABDB6" stroke-width="2"/><a xlink:title="M1256V"><circle cx="1031.089888" cy="46.500000" r="4.000000" fill="#ff0000" /></a><g transform="translate(1031.089888,46.500000) rotate(-30)"><text style="font-size:10px;font-family:OpenSans;fill:#555;" text-anchor="middle" x="0" y="-6.000000">M1256V</text></g><line x1="1031.898876" x2="1031.898876" y1="59.000000" y2="87.000000" stroke="#BABDB6" stroke-width="2"/><a xlink:title="M1257V"><circle cx="1031.898876" cy="59.000000" r="4.000000" fill="#ff0000" /></a><g transform="translate(1031.898876,59.000000) rotate(-30)"><text style="font-size:10px;font-family:OpenSans;fill:#555;" text-anchor="middle" x="0" y="-6.000000">M1257V</text></g><line x1="1041.606742" x2="1041.606742" y1="46.500000" y2="87.000000" stroke="#BABDB6" stroke-width="2"/><a xlink:title="M1269V"><circle cx="1041.606742" cy="46.500000" r="4.000000" fill="#ff0000" /></a><g transform="translate(1041.606742,46.500000) rotate(-30)"><text style="font-size:10px;font-family:OpenSans;fill:#555;" text-anchor="middle" x="0" y="-6.000000">M1269V</text></g><line x1="1042.415730" x2="1042.415730" y1="59.000000" y2="87.000000" stroke="#BABDB6" stroke-width="2"/><a xlink:title="M1270V"><circle cx="1042.415730" cy="59.000000" r="4.000000" fill="#ff0000" /></a><g transform="translate(1042.415730,59.000000) rotate(-30)"><text style="font-size:10px;font-family:OpenSans;fill:#555;" text-anchor="middle" x="0" y="-6.000000">M1270V</text></g><line x1="1098.235955" x2="1098.235955" y1="46.500000" y2="87.000000" stroke="#BABDB6" stroke-width="2"/><a xlink:title="Q1339Q"><circle cx="1098.235955" cy="46.500000" r="4.000000" fill="#0000ff" /></a><g transform="translate(1098.235955,46.500000) rotate(-30)"><text style="font-size:10px;font-family:OpenSans;fill:#555;" text-anchor="middle" x="0" y="-6.000000">Q1339Q</text></g><line x1="1099.044944" x2="1099.044944" y1="59.000000" y2="87.000000" stroke="#BABDB6" stroke-width="2"/><a xlink:title="Q1340Q"><circle cx="1099.044944" cy="59.000000" r="4.000000" fill="#0000ff" /></a><g transform="translate(1099.044944,59.000000) rotate(-30)"><text style="font-size:10px;font-family:OpenSans;fill:#555;" text-anchor="middle" x="0" y="-6.000000">Q1340Q</text></g><line x1="1108.752809" x2="1108.752809" y1="46.500000" y2="87.000000" stroke="#BABDB6" stroke-width="2"/><a xlink:title="Q1352Q"><circle cx="1108.752809" cy="46.500000" r="4.000000" fill="#0000ff" /></a><g transform="translate(1108.752809,46.500000) rotate(-30)"><text style="font-size:10px;font-family:OpenSans;fill:#555;" text-anchor="middle" x="0" y="-6.000000">Q1352Q</text></g><line x1="1109.561798" x2="1109.561798" y1="59.000000" y2="87.000000" stroke="#BABDB6" stroke-width="2"/><a xlink:title="Q1353Q"><circle cx="1109.561798" cy="59.000000" r="4.000000" fill="#0000ff" /></a><g transform="translate(1109.561798,59.000000) rotate(-30)"><text style="font-size:10px;font-family:OpenSans;fill:#555;" text-anchor="middle" x="0" y="-6.000000">Q1353Q</text></g><line x1="1163.764045" x2="1163.764045" y1="46.500000" y2="87.000000" stroke="#BABDB6" stroke-width="2"/><a xlink:title="Q1420*"><circle cx="1163.764045" cy="46.500000" r="4.000000" fill="#0000ff" /></a><g transform="translate(1163.764045,46.500000) rotate(-30)"><text style="font-size:10px;font-family:OpenSans;fill:#555;" text-anchor="middle" x="0" y="-6.000000">Q1420*</text></g><line x1="1164.573034" x2="1164.573034" y1="59.000000" y2="87.000000" stroke="#BABDB6" stroke-width="2"/><a xlink:title="Q1421*"><circle cx="1164.573034" cy="59.000000" r="4.000000" fill="#0000ff" /></a><g transform="translate(1164.573034,59.000000) rotate(-30)"><text style="font-size:10px;font-family:OpenSans;fill:#555;" text-anchor="middle" x="0" y="-6.000000">Q1421*</text></g><line x1="1174.280899" x2="1174.280899" y1="46.500000" y2="87.000000" stroke="#BABDB6" stroke-width="2"/><a xlink:title="Q1433*"><circle cx="1174.280899" cy="46.500000" r="4.000000" fill="#0000ff" /></a><g transform="translate(1174.280899,46.500000) rotate(-30)"><text style="font-size:10px;font-family:OpenSans;fill:#555;" text-anchor="middle" x="0" y="-6.000000">Q1433*</text></g><line x1="1175.089888" x2="1175.089888" y1="59.000000" y2="87.000000" stroke="#BABDB6" stroke-width="2"/><a xlink:title="Q1434*"><circle cx="1175.089888" cy="59.000000" r="4.000000" fill="#0000ff" /></a><g transform="translate(1175.089888,59.000000) rotate(-30)"><text style="font-size:10px;font-family:OpenSans;fill:#555;" text-anchor="middle" x="0" y="-6.000000">Q1434*</text></g><a xlink:title=",  (1454aa)"><rect fill="#BABDB6" x="15.000000" y="87.000000" width="1176.269663" height="14.000000"/></a><g transform="translate(113.696629,82.000000)"><a xlink:href="https://www.ebi.ac.uk/interpro/entry/pfam/PF01835" xlink:title="MG2 domain"><rect fill="#2DCF00" x="0" y="0" width="63.910112" height="24.000000" filter="url(#ds)"/><text style="font-size:12px;font-family:OpenSans;fill:#ffffff;" text-anchor="middle" x="31.955056" y="16.000000">MG2</text></a></g>
<g transform="translate(187.314607,82.000000)"><a xlink:href="https://www.ebi.ac.uk/interpro/entry/pfam/PF17791" xlink:title="Macroglobulin domain MG3"><rect fill="#FF5353" x="0" y="0" width="72.808989" height="24.000000" filter="url(#ds)"/><text style="font-size:12px;font-family:OpenSans;fill:#ffffff;" text-anchor="middle" x="36.404494" y="16.000000">MG3</text></a></g>
<g transform="translate(291.674157,82.000000)"><a xlink:href="https://www.ebi.ac.uk/interpro/entry/pfam/PF17789" xlink:title="Macroglobulin domain MG4"><rect fill="#5B5BFF" x="0" y="0" width="78.471910" height="24.000000" filter="url(#ds)"/><text style="font-size:12px;font-family:OpenSans;fill:#ffffff;" text-anchor="middle" x="39.235955" y="16.000000">MG4</text></a></g>
<g transform="translate(386.325843,82.000000)"><a xlink:href="https://www.ebi.ac.uk/interpro/entry/pfam/PF07703" xlink:title="Alpha-2-macroglobulin bait region domain"><rect fill="#EBD61D" x="0" y="0" width="114.876404" height="24.000000" filter="url(#ds)"/><text style="font-size:12px;font-family:OpenSans;fill:#ffffff;" text-anchor="middle" x="57.438202" y="16.000000">A2M_BRD</text></a></g>
<g transform="translate(610.415730,82.000000)"><a xlink:href="https://www.ebi.ac.uk/interpro/entry/pfam/PF00207" xlink:title="Alpha-2-macroglobulin family"><rect fill="#BA21E0" x="0" y="0" width="72.000000" height="24.000000" filter="url(#ds)"/><text style="font-size:12px;font-family:OpenSans;fill:#ffffff;" text-anchor="middle" x="36.000000" y="16.000000">A2M</text></a></g>
<g transform="translate(780.303371,82.000000)"><a xlink:href="https://www.ebi.ac.uk/interpro/entry/pfam/PF07678" xlink:title="A-macroglobulin TED domain"><rect fill="#FF9C42" x="0" y="0" width="246.741573" height="24.000000" filter="url(#ds)"/><text style="font-size:12px;font-family:OpenSans;fill:#ffffff;" text-anchor="middle" x="123.370787" y="16.000000">A-macroglobulin TED domain</text></a></g>
<g transform="translate(1116.033708,82.000000)"><a xlink:href="https://www.ebi.ac.uk/interpro/entry/pfam/PF07677" xlink:title="A-macroglobulin receptor binding domain"><rect fill="#FF7DFF" x="0" y="0" width="72.000000" height="24.000000" filter="url(#ds)"/><text style="font-size:12px;font-family:OpenSans;fill:#ffffff;" text-anchor="middle" x="36.000000" y="16.000000">A2M_recep</text></a></g>
<g class="axis">
<line x1="15.000000" x2="1191.269663" y1="116.000000" y2="116.000000" stroke="#AAAAAA" /><line x1="15.000000" x2="15.000000" y1="116.000000" y2="121.000000" stroke="#AAAAAA" /><line x1="15.000000" x2="15.000000" y1="116.000000" y2="121.000000" stroke="#AAAAAA" /><text style="font-size:10px;font-family:OpenSans;fill:#000000;" text-anchor="middle" x="15.000000" y="131.000000">0</text><line x1="65.157303" x2="65.157303" y1="116.000000" y2="121.000000" stroke="#AAAAAA" /><text style="font-size:10px;font-family:OpenSans;fill:#000000;" text-anchor="middle" x="65.157303" y="131.000000">62</text><line x1="84.573034" x2="84.573034" y1="116.000000" y2="121.000000" stroke="#AAAAAA" /><text style="font-size:10px;font-family:OpenSans;fill:#000000;" text-anchor="middle" x="84.573034" y="131.000000">86</text><line x1="113.696629" x2="113.696629" y1="116.000000" y2="121.000000" stroke="#AAAAAA" /><text style="font-size:10px;font-family:OpenSans;fill:#000000;" text-anchor="middle" x="113.696629" y="131.000000">122</text><line x1="177.606742" x2="177.606742" y1="116.000000" y2="121.000000" stroke="#AAAAAA" /><text style="font-size:10px;font-family:OpenSans;fill:#000000;" text-anchor="middle" x="177.606742" y="131.000000">201</text><line x1="222.910112" x2="222.910112" y1="116.000000" y2="121.000000" stroke="#AAAAAA" /><text style="font-size:10px;font-family:OpenSans;fill:#000000;" text-anchor="middle" x="222.910112" y="131.000000">257</text><line x1="256.078652" x2="256.078652" y1="116.000000" y2="121.000000" stroke="#AAAAAA" /><text style="font-size:10px;font-family:OpenSans;fill:#000000;" text-anchor="middle" x="256.078652" y="131.000000">298</text><line x1="305.426966" x2="305.426966" y1="116.000000" y2="121.000000" stroke="#AAAAAA" /><text style="font-size:10px;font-family:OpenSans;fill:#000000;" text-anchor="middle" x="305.426966" y="131.000000">359</text><line x1="347.494382" x2="347.494382" y1="116.000000" y2="121.000000" stroke="#AAAAAA" /><text style="font-size:10px;font-family:OpenSans;fill:#000000;" text-anchor="middle" x="347.494382" y="131.000000">411</text><line x1="370.146067" x2="370.146067" y1="116.000000" y2="121.000000" stroke="#AAAAAA" /><text style="font-size:10px;font-family:OpenSans;fill:#000000;" text-anchor="middle" x="370.146067" y="131.000000">439</text><line x1="402.505618" x2="402.505618" y1="116.000000" y2="121.000000" stroke="#AAAAAA" /><text style="font-size:10px;font-family:OpenSans;fill:#000000;" text-anchor="middle" x="402.505618" y="131.000000">479</text><line x1="490.685393" x2="490.685393" y1="116.000000" y2="121.000000" stroke="#AAAAAA" /><text style="font-size:10px;font-family:OpenSans;fill:#000000;" text-anchor="middle" x="490.685393" y="131.000000">588</text><line x1="525.471910" x2="525.471910" y1="116.000000" y2="121.000000" stroke="#AAAAAA" /><text style="font-size:10px;font-family:OpenSans;fill:#000000;" text-anchor="middle" x="525.471910" y="131.000000">631</text><line x1="612.033708" x2="612.033708" y1="116.000000" y2="121.000000" stroke="#AAAAAA" /><text style="font-size:10px;font-family:OpenSans;fill:#000000;" text-anchor="middle" x="612.033708" y="131.000000">738</text><line x1="634.685393" x2="634.685393" y1="116.000000" y2="121.000000" stroke="#AAAAAA" /><text style="font-size:10px;font-family:OpenSans;fill:#000000;" text-anchor="middle" x="634.685393" y="131.000000">766</text><line x1="663.000000" x2="663.000000" y1="116.000000" y2="121.000000" stroke="#AAAAAA" /><text style="font-size:10px;font-family:OpenSans;fill:#000000;" text-anchor="middle" x="663.000000" y="131.000000">801</text><line x1="701.831461" x2="701.831461" y1="116.000000" y2="121.000000" stroke="#AAAAAA" /><text style="font-size:10px;font-family:OpenSans;fill:#000000;" text-anchor="middle" x="701.831461" y="131.000000">849</text><line x1="767.359551" x2="767.359551" y1="116.000000" y2="121.000000" stroke="#AAAAAA" /><text style="font-size:10px;font-family:OpenSans;fill:#000000;" text-anchor="middle" x="767.359551" y="131.000000">930</text><line x1="798.910112" x2="798.910112" y1="116.000000" y2="121.000000" stroke="#AAAAAA" /><text style="font-size:10px;font-family:OpenSans;fill:#000000;" text-anchor="middle" x="798.910112" y="131.000000">969</text><line x1="887.089888" x2="887.089888" y1="116.000000" y2="121.000000" stroke="#AAAAAA" /><text style="font-size:10px;font-family:OpenSans;fill:#000000;" text-anchor="middle" x="887.089888" y="131.000000">1078</text><line x1="921.876404" x2="921.876404" y1="116.000000" y2="121.000000" stroke="#AAAAAA" /><text style="font-size:10px;font-family:OpenSans;fill:#000000;" text-anchor="middle" x="921.876404" y="131.000000">1121</text><line x1="1008.438202" x2="1008.438202" y1="116.000000" y2="121.000000" stroke="#AAAAAA" /><text style="font-size:10px;font-family:OpenSans;fill:#000000;" text-anchor="middle" x="1008.438202" y="131.000000">1228</text><line x1="1031.089888" x2="1031.089888" y1="116.000000" y2="121.000000" stroke="#AAAAAA" /><text style="font-size:10px;font-family:OpenSans;fill:#000000;" text-anchor="middle" x="1031.089888" y="131.000000">1256</text><line x1="1098.235955" x2="1098.235955" y1="116.000000" y2="121.000000" stroke="#AAAAAA" /><text style="font-size:10px;font-family:OpenSans;fill:#000000;" text-anchor="middle" x="1098.235955" y="131.000000">1339</text><line x1="1163.764045" x2="1163.764045" y1="116.000000" y2="121.000000" stroke="#AAAAAA" /><text style="font-size:10px;font-family:OpenSans;fill:#000000;" text-anchor="middle" x="1163.764045" y="131.000000">1420</text><line x1="1191.269663" x2="1191.269663" y1="116.000000" y2="121.000000" stroke="#AAAAAA" /><text style="font-size:10px;font-family:OpenSans;fill:#000000;" text-anchor="middle" x="1191.269663" y="131.000000">1454</text></g>
<rect fill="#2DCF00" x="4" y="145.000000" width="12" height="12" filter="url(#ds)"/><text style="font-size:12px;font-family:OpenSans;fill:#000000;" text-anchor="start" x="20" y="157.000000">MG2 domain</text><rect fill="#FF5353" x="4" y="159.000000" width="12" height="12" filter="url(#ds)"/><text style="font-size:12px;font-family:OpenSans;fill:#000000;" text-anchor="start" x="20" y="171.000000">Macroglobulin domain MG3</text><rect fill="#5B5BFF" x="4" y="173.000000" width="12" height="12" filter="url(#ds)"/><text style="font-size:12px;font-family:OpenSans;fill:#000000;" text-anchor="start" x="20" y="185.000000">Macroglobulin domain MG4</text><rect fill="#EBD61D" x="4" y="187.000000" width="12" height="12" filter="url(#ds)"/><text style="font-size:12px;font-family:OpenSans;fill:#000000;" text-anchor="start" x="20" y="199.000000">Alpha-2-macroglobulin bait region domain</text><rect fill="#BA21E0" x="4" y="201.000000" width="12" height="12" filter="url(#ds)"/><text style="font-size:12px;font-family:OpenSans;fill:#000000;" text-anchor="start" x="20" y="213.000000">Alpha-2-macroglobulin family</text><rect fill="#FF7DFF" x="4" y="215.000000" width="12" height="12" filter="url(#ds)"/><text style="font-size:12px;font-family:OpenSans;fill:#000000;" text-anchor="start" x="20" y="227.000000">A-macroglobulin receptor binding domain</text></svg>
