<?xml version='1.0'?>
<svg xmlns="http://www.w3.org/2000/svg" xmlns:xlink="http://www.w3.org/1999/xlink" width="430.000000" height="145.500000">
<defs>
  <filter id="ds" x="0" y="0">
    <feOffset in="SourceAlpha" dx="2" dy="2" />
    <feComponentTransfer><feFuncA type="linear" slope="0.2"/></feComponentTransfer>
    <feGaussianBlur result="blurOut" stdDeviation="1" />
    <feBlend in="SourceGraphic" in2="blurOut" mode="normal" />
  </filter>
  <pattern id="disordered-hatch" patternUnits="userSpaceOnUse" width="4" height="4">
    <path d="M-1,1 l2,-2 M0,4 l4,-4 M3,5 l2,-2" stroke="#000000" opacity="0.3" />
  </pattern>
</defs>
<line x1="42.200000" x2="42.200000" y1="46.500000" y2="74.500000" stroke="#BABDB6" stroke-width="2"/><a xlink:title="K34N"><circle cx="42.200000" cy="46.500000" r="4.000000" fill="#ff0000" /></a><g transform="translate(42.200000,46.500000) rotate(-30)"><text style="font-size:10px;font-family:OpenSans;fill:#555;" text-anchor="middle" x="0" y="-6.000000">K34N</text></g><line x1="50.200000" x2="50.200000" y1="46.500000" y2="74.500000" stroke="#BABDB6" stroke-width="2"/><a xlink:title="D44D"><circle cx="50.200000" cy="46.500000" r="4.000000" fill="#0000ff" /></a><g transform="translate(50.200000,46.500000) rotate(-30)"><text style="font-size:10px;font-family:OpenSans;fill:#555;" text-anchor="middle" x="0" y="-6.000000">D44D</text></g><line x1="86.200000" x2="86.200000" y1="46.500000" y2="74.500000" stroke="#BABDB6" stroke-width="2"/><a xlink:title="D89D"><circle cx="86.200000" cy="46.500000" r="4.000000" fill="#0000ff" /></a><g transform="translate(86.200000,46.500000) rotate(-30)"><text style="font-size:10px;font-family:OpenSans;fill:#555;" text-anchor="middle" x="0" y="-6.000000">D89D</text></g><line x1="131.800000" x2="131.800000" y1="46.500000" y2="74.500000" stroke="#BABDB6" stroke-width="2"/><a xlink:title="T146T"><circle cx="131.800000" cy="46.500000" r="4.000000" fill="#0000ff" /></a><g transform="translate(131.800000,46.500000) rotate(-30)"><text style="font-size:10px;font-family:OpenSans;fill:#555;" text-anchor="middle" x="0" y="-6.000000">T146T</text></g><line x1="144.600000" x2="144.600000" y1="34.000000" y2="74.500000" stroke="#BABDB6" stroke-width="2"/><a xlink:title="T162T"><circle cx="144.600000" cy="34.000000" r="4.000000" fill="#0000ff" /></a><g transform="translate(144.600000,34.000000) rotate(-30)"><text style="font-size:10px;font-family:OpenSans;fill:#555;" text-anchor="middle" x="0" y="-6.000000">T162T</text></g><line x1="149.400000" x2="149.400000" y1="46.500000" y2="74.500000" stroke="#BABDB6" stroke-width="2"/><a xlink:title="R168W"><circle cx="149.400000" cy="46.500000" r="4.000000" fill="#ff0000" /></a><g transform="translate(149.400000,46.500000) rotate(-30)"><text style="font-size:10px;font-family:OpenSans;fill:#555;" text-anchor="middle" x="0" y="-6.000000">R168W</text></g><line x1="161.400000" x2="161.400000" y1="34.000000" y2="74.500000" stroke="#BABDB6" stroke-width="2"/><a xlink:title="T183T"><circle cx="161.400000" cy="34.000000" r="4.000000" fill="#0000ff" /></a><g transform="translate(161.400000,34.000000) rotate(-30)"><text style="font-size:10px;font-family:OpenSans;fill:#555;" text-anchor="middle" x="0" y="-6.000000">T183T</text></g><line x1="162.200000" x2="162.200000" y1="46.500000" y2="74.500000" stroke="#BABDB6" stroke-width="2"/><a xlink:title="R184W"><circle cx="162.200000" cy="46.500000" r="4.000000" fill="#ff0000" /></a><g transform="translate(162.200000,46.500000) rotate(-30)"><text style="font-size:10px;font-family:OpenSans;fill:#555;" text-anchor="middle" x="0" y="-6.000000">R184W</text></g><line x1="172.600000" x2="172.600000" y1="46.500000" y2="74.500000" stroke="#BABDB6" stroke-width="2"/><a xlink:title="T197T"><circle cx="172.600000" cy="46.500000" r="4.000000" fill="#0000ff" /></a><g transform="translate(172.600000,46.500000) rotate(-30)"><text style="font-size:10px;font-family:OpenSans;fill:#555;" text-anchor="middle" x="0" y="-6.000000">T197T</text></g><line x1="179.000000" x2="179.000000" y1="34.000000" y2="74.500000" stroke="#BABDB6" stroke-width="2"/><a xlink:title="R205W"><circle cx="179.000000" cy="34.000000" r="4.000000" fill="#ff0000" /></a><g transform="translate(179.000000,34.000000) rotate(-30)"><text style="font-size:10px;font-family:OpenSans;fill:#555;" text-anchor="middle" x="0" y="-6.000000">R205W</text></g><line x1="180.600000" x2="180.600000" y1="46.500000" y2="74.500000" stroke="#BABDB6" stroke-width="2"/><a xlink:title="T207T"><circle cx="180.600000" cy="46.500000" r="4.000000" fill="#0000ff" /></a><g transform="translate(180.600000,46.500000) rotate(-30)"><text style="font-size:10px;font-family:OpenSans;fill:#555;" text-anchor="middle" x="0" y="-6.000000">T207T</text></g><line x1="190.200000" x2="190.200000" y1="46.500000" y2="74.500000" stroke="#BABDB6" stroke-width="2"/><a xlink:title="R219W"><circle cx="190.200000" cy="46.500000" r="4.000000" fill="#ff0000" /></a><g transform="translate(190.200000,46.500000) rotate(-30)"><text style="font-size:10px;font-family:OpenSans;fill:#555;" text-anchor="middle" x="0" y="-6.000000">R219W</text></g><line x1="197.400000" x2="197.400000" y1="34.000000" y2="74.500000" stroke="#BABDB6" stroke-width="2"/><a xlink:title="T228T"><circle cx="197.400000" cy="34.000000" r="4.000000" fill="#0000ff" /></a><g transform="translate(197.400000,34.000000) rotate(-30)"><text style="font-size:10px;font-family:OpenSans;fill:#555;" text-anchor="middle" x="0" y="-6.000000">T228T</text></g><line x1="198.200000" x2="198.200000" y1="46.500000" y2="74.500000" stroke="#BABDB6" stroke-width="2"/><a xlink:title="R229W"><circle cx="198.200000" cy="46.500000" r="4.000000" fill="#ff0000" /></a><g transform="translate(198.200000,46.500000) rotate(-30)"><text style="font-size:10px;font-family:OpenSans;fill:#555;" text-anchor="middle" x="0" y="-6.000000">R229W</text></g><line x1="215.000000" x2="215.000000" y1="46.500000" y2="74.500000" stroke="#BABDB6" stroke-width="2"/><a xlink:title="R250W"><circle cx="215.000000" cy="46.500000" r="4.000000" fill="#ff0000" /></a><g transform="translate(215.000000,46.500000) rotate(-30)"><text style="font-size:10px;font-family:OpenSans;fill:#555;" text-anchor="middle" x="0" y="-6.000000">R250W</text></g><line x1="223.000000" x2="223.000000" y1="46.500000" y2="74.500000" stroke="#BABDB6" stroke-width="2"/><a xlink:title="T260T"><circle cx="223.000000" cy="46.500000" r="4.000000" fill="#0000ff" /></a><g transform="translate(223.000000,46.500000) rotate(-30)"><text style="font-size:10px;font-family:OpenSans;fill:#555;" text-anchor="middle" x="0" y="-6.000000">T260T</text></g><line x1="240.600000" x2="240.600000" y1="46.500000" y2="74.500000" stroke="#BABDB6" stroke-width="2"/><a xlink:title="R282W"><circle cx="240.600000" cy="46.500000" r="4.000000" fill="#ff0000" /></a><g transform="translate(240.600000,46.500000) rotate(-30)"><text style="font-size:10px;font-family:OpenSans;fill:#555;" text-anchor="middle" x="0" y="-6.000000">R282W</text></g><a xlink:title=",  (500aa)"><rect fill="#BABDB6" x="15.000000" y="74.500000" width="400.000000" height="14.000000"/></a><g transform="translate(68.600000,69.500000)"><a xlink:href="https://www.ebi.ac.uk/interpro/entry/pfam/PF00202" xlink:title="Aminotransferase class-III"><rect fill="#2DCF00" x="0" y="0" width="343.200000" height="24.000000" filter="url(#ds)"/><text style="font-size:12px;font-family:OpenSans;fill:#ffffff;" text-anchor="middle" x="171.600000" y="16.000000">Aminotransferase class-III</text></a></g>
<g class="axis">
<line x1="15.000000" x2="415.000000" y1="103.500000" y2="103.500000" stroke="#AAAAAA" /><line x1="15.000000" x2="15.000000" y1="103.500000" y2="108.500000" stroke="#AAAAAA" /><line x1="15.000000" x2="15.000000" y1="103.500000" y2="108.500000" stroke="#AAAAAA" /><text style="font-size:10px;font-family:OpenSans;fill:#000000;" text-anchor="middle" x="15.000000" y="118.500000">0</text><line x1="42.200000" x2="42.200000" y1="103.500000" y2="108.500000" stroke="#AAAAAA" /><text style="font-size:10px;font-family:OpenSans;fill:#000000;" text-anchor="middle" x="42.200000" y="118.500000">34</text><line x1="86.200000" x2="86.200000" y1="103.500000" y2="108.500000" stroke="#AAAAAA" /><text style="font-size:10px;font-family:OpenSans;fill:#000000;" text-anchor="middle" x="86.200000" y="118.500000">89</text><line x1="131.800000" x2="131.800000" y1="103.500000" y2="108.500000" stroke="#AAAAAA" /><text style="font-size:10px;font-family:OpenSans;fill:#000000;" text-anchor="middle" x="131.800000" y="118.500000">146</text><line x1="161.400000" x2="161.400000" y1="103.500000" y2="108.500000" stroke="#AAAAAA" /><text style="font-size:10px;font-family:OpenSans;fill:#000000;" text-anchor="middle" x="161.400000" y="118.500000">183</text><line x1="190.200000" x2="190.200000" y1="103.500000" y2="108.500000" stroke="#AAAAAA" /><text style="font-size:10px;font-family:OpenSans;fill:#000000;" text-anchor="middle" x="190.200000" y="118.500000">219</text><line x1="215.000000" x2="215.000000" y1="103.500000" y2="108.500000" stroke="#AAAAAA" /><text style="font-size:10px;font-family:OpenSans;fill:#000000;" text-anchor="middle" x="215.000000" y="118.500000">250</text><line x1="240.600000" x2="240.600000" y1="103.500000" y2="108.500000" stroke="#AAAAAA" /><text style="font-size:10px;font-family:OpenSans;fill:#000000;" text-anchor="middle" x="240.600000" y="118.500000">282</text><line x1="415.000000" x2="415.000000" y1="103.500000" y2="108.500000" stroke="#AAAAAA" /><text style="font-size:10px;font-family:OpenSans;fill:#000000;" text-anchor="middle" x="415.000000" y="118.500000">500</text></g>
</svg>
