<?xml version='1.0'?>
<svg xmlns="http://www.w3.org/2000/svg" xmlns:xlink="http://www.w3.org/1999/xlink" width="725.417910" height="184.400000">
<defs>
  <filter id="ds" x="0" y="0">
    <feOffset in="SourceAlpha" dx="2" dy="2" />
    <feComponentTransfer><feFuncA type="linear" slope="0.2"/></feComponentTransfer>
    <feGaussianBlur result="blurOut" stdDeviation="1" />
    <feBlend in="SourceGraphic" in2="blurOut" mode="normal" />
  </filter>
  <pattern id="disordered-hatch" patternUnits="userSpaceOnUse" width="4" height="4">
    <path d="M-1,1 l2,-2 M0,4 l4,-4 M3,5 l2,-2" stroke="#000000" opacity="0.3" />
  </pattern>
</defs>
<line x1="152.417910" x2="152.417910" y1="46.500000" y2="87.000000" stroke="#BABDB6" stroke-width="2"/><a xlink:title="N297N"><circle cx="152.417910" cy="46.500000" r="4.000000" fill="#0000ff" /></a><g transform="translate(152.417910,46.500000) rotate(-30)"><text style="font-size:10px;font-family:OpenSans;fill:#555;" text-anchor="middle" x="0" y="-6.000000">N297N</text></g><line x1="154.268657" x2="154.268657" y1="59.000000" y2="87.000000" stroke="#BABDB6" stroke-width="2"/><a xlink:title="V301V"><circle cx="154.268657" cy="59.000000" r="4.000000" fill="#0000ff" /></a><g transform="translate(154.268657,59.000000) rotate(-30)"><text style="font-size:10px;font-family:OpenSans;fill:#555;" text-anchor="middle" x="0" y="-6.000000">V301V</text></g><line x1="164.910448" x2="164.910448" y1="59.000000" y2="87.000000" stroke="#BABDB6" stroke-width="2"/><a xlink:title="V324M"><circle cx="164.910448" cy="59.000000" r="4.000000" fill="#ff0000" /></a><g transform="translate(164.910448,59.000000) rotate(-30)"><text style="font-size:10px;font-family:OpenSans;fill:#555;" text-anchor="middle" x="0" y="-6.000000">V324M</text></g><line x1="205.164179" x2="205.164179" y1="46.500000" y2="87.000000" stroke="#BABDB6" stroke-width="2"/><a xlink:title="N411N"><circle cx="205.164179" cy="46.500000" r="4.000000" fill="#0000ff" /></a><g transform="translate(205.164179,46.500000) rotate(-30)"><text style="font-size:10px;font-family:OpenSans;fill:#555;" text-anchor="middle" x="0" y="-6.000000">N411N</text></g><line x1="207.014925" x2="207.014925" y1="59.000000" y2="87.000000" stroke="#BABDB6" stroke-width="2"/><a xlink:title="V415V"><circle cx="207.014925" cy="59.000000" r="4.000000" fill="#0000ff" /></a><g transform="translate(207.014925,59.000000) rotate(-30)"><text style="font-size:10px;font-family:OpenSans;fill:#555;" text-anchor="middle" x="0" y="-6.000000">V415V</text></g><line x1="215.343284" x2="215.343284" y1="46.500000" y2="87.000000" stroke="#BABDB6" stroke-width="2"/><a xlink:title="A433T"><circle cx="215.343284" cy="46.500000" r="4.000000" fill="#ff0000" /></a><g transform="translate(215.343284,46.500000) rotate(-30)"><text style="font-size:10px;font-family:OpenSans;fill:#555;" text-anchor="middle" x="0" y="-6.000000">A433T</text></g><line x1="217.656716" x2="217.656716" y1="59.000000" y2="87.000000" stroke="#BABDB6" stroke-width="2"/><a xlink:title="V438M"><circle cx="217.656716" cy="59.000000" r="4.000000" fill="#ff0000" /></a><g transform="translate(217.656716,59.000000) rotate(-30)"><text style="font-size:10px;font-family:OpenSans;fill:#555;" text-anchor="middle" x="0" y="-6.000000">V438M</text></g><line x1="246.343284" x2="246.343284" y1="59.000000" y2="87.000000" stroke="#BABDB6" stroke-width="2"/><a xlink:title="V500A"><circle cx="246.343284" cy="59.000000" r="4.000000" fill="#ff0000" /></a><g transform="translate(246.343284,59.000000) rotate(-30)"><text style="font-size:10px;font-family:OpenSans;fill:#555;" text-anchor="middle" x="0" y="-6.000000">V500A</text></g><line x1="253.746269" x2="253.746269" y1="46.500000" y2="87.000000" stroke="#BABDB6" stroke-width="2"/><a xlink:title="T516T"><circle cx="253.746269" cy="46.500000" r="4.000000" fill="#0000ff" /></a><g transform="translate(253.746269,46.500000) rotate(-30)"><text style="font-size:10px;font-family:OpenSans;fill:#555;" text-anchor="middle" x="0" y="-6.000000">T516T</text></g><line x1="254.671642" x2="254.671642" y1="59.000000" y2="87.000000" stroke="#BABDB6" stroke-width="2"/><a xlink:title="H518Q"><circle cx="254.671642" cy="59.000000" r="4.000000" fill="#ff0000" /></a><g transform="translate(254.671642,59.000000) rotate(-30)"><text style="font-size:10px;font-family:OpenSans;fill:#555;" text-anchor="middle" x="0" y="-6.000000">H518Q</text></g><line x1="268.089552" x2="268.089552" y1="59.000000" y2="87.000000" stroke="#BABDB6" stroke-width="2"/><a xlink:title="A547T"><circle cx="268.089552" cy="59.000000" r="4.000000" fill="#ff0000" /></a><g transform="translate(268.089552,59.000000) rotate(-30)"><text style="font-size:10px;font-family:OpenSans;fill:#555;" text-anchor="middle" x="0" y="-6.000000">A547T</text></g><line x1="299.089552" x2="299.089552" y1="59.000000" y2="87.000000" stroke="#BABDB6" stroke-width="2"/><a xlink:title="V614A"><circle cx="299.089552" cy="59.000000" r="4.000000" fill="#ff0000" /></a><g transform="translate(299.089552,59.000000) rotate(-30)"><text style="font-size:10px;font-family:OpenSans;fill:#555;" text-anchor="middle" x="0" y="-6.000000">V614A</text></g><line x1="306.492537" x2="306.492537" y1="46.500000" y2="87.000000" stroke="#BABDB6" stroke-width="2"/><a xlink:title="T630T"><circle cx="306.492537" cy="46.500000" r="4.000000" fill="#0000ff" /></a><g transform="translate(306.492537,46.500000) rotate(-30)"><text style="font-size:10px;font-family:OpenSans;fill:#555;" text-anchor="middle" x="0" y="-6.000000">T630T</text></g><line x1="307.417910" x2="307.417910" y1="59.000000" y2="87.000000" stroke="#BABDB6" stroke-width="2"/><a xlink:title="H632Q"><circle cx="307.417910" cy="59.000000" r="4.000000" fill="#ff0000" /></a><g transform="translate(307.417910,59.000000) rotate(-30)"><text style="font-size:10px;font-family:OpenSans;fill:#555;" text-anchor="middle" x="0" y="-6.000000">H632Q</text></g><line x1="332.402985" x2="332.402985" y1="59.000000" y2="87.000000" stroke="#BABDB6" stroke-width="2"/><a xlink:title="G686G"><circle cx="332.402985" cy="59.000000" r="4.000000" fill="#0000ff" /></a><g transform="translate(332.402985,59.000000) rotate(-30)"><text style="font-size:10px;font-family:OpenSans;fill:#555;" text-anchor="middle" x="0" y="-6.000000">G686G</text></g><line x1="346.283582" x2="346.283582" y1="59.000000" y2="87.000000" stroke="#BABDB6" stroke-width="2"/><a xlink:title="A716A"><circle cx="346.283582" cy="59.000000" r="4.000000" fill="#0000ff" /></a><g transform="translate(346.283582,59.000000) rotate(-30)"><text style="font-size:10px;font-family:OpenSans;fill:#555;" text-anchor="middle" x="0" y="-6.000000">A716A</text></g><line x1="354.611940" x2="354.611940" y1="46.500000" y2="87.000000" stroke="#BABDB6" stroke-width="2"/><a xlink:title="V734V"><circle cx="354.611940" cy="46.500000" r="4.000000" fill="#0000ff" /></a><g transform="translate(354.611940,46.500000) rotate(-30)"><text style="font-size:10px;font-family:OpenSans;fill:#555;" text-anchor="middle" x="0" y="-6.000000">V734V</text></g><line x1="354.611940" x2="354.611940" y1="59.000000" y2="87.000000" stroke="#BABDB6" stroke-width="2"/><a xlink:title="M734V"><circle cx="354.611940" cy="59.000000" r="4.000000" fill="#ff0000" /></a><g transform="translate(354.611940,59.000000) rotate(-30)"><text style="font-size:10px;font-family:OpenSans;fill:#555;" text-anchor="middle" x="0" y="-6.000000">M734V</text></g><line x1="373.119403" x2="373.119403" y1="59.000000" y2="87.000000" stroke="#BABDB6" stroke-width="2"/><a xlink:title="A774A"><circle cx="373.119403" cy="59.000000" r="4.000000" fill="#0000ff" /></a><g transform="translate(373.119403,59.000000) rotate(-30)"><text style="font-size:10px;font-family:OpenSans;fill:#555;" text-anchor="middle" x="0" y="-6.000000">A774A</text></g><line x1="381.447761" x2="381.447761" y1="46.500000" y2="87.000000" stroke="#BABDB6" stroke-width="2"/><a xlink:title="M792V"><circle cx="381.447761" cy="46.500000" r="4.000000" fill="#ff0000" /></a><g transform="translate(381.447761,46.500000) rotate(-30)"><text style="font-size:10px;font-family:OpenSans;fill:#555;" text-anchor="middle" x="0" y="-6.000000">M792V</text></g><line x1="385.149254" x2="385.149254" y1="59.000000" y2="87.000000" stroke="#BABDB6" stroke-width="2"/><a xlink:title="G800G"><circle cx="385.149254" cy="59.000000" r="4.000000" fill="#0000ff" /></a><g transform="translate(385.149254,59.000000) rotate(-30)"><text style="font-size:10px;font-family:OpenSans;fill:#555;" text-anchor="middle" x="0" y="-6.000000">G800G</text></g><line x1="393.940299" x2="393.940299" y1="34.000000" y2="87.000000" stroke="#BABDB6" stroke-width="2"/><a xlink:title="A819A"><circle cx="393.940299" cy="34.000000" r="4.000000" fill="#0000ff" /></a><g transform="translate(393.940299,34.000000) rotate(-30)"><text style="font-size:10px;font-family:OpenSans;fill:#555;" text-anchor="middle" x="0" y="-6.000000">A819A</text></g><line x1="399.029851" x2="399.029851" y1="34.000000" y2="87.000000" stroke="#BABDB6" stroke-width="2"/><a xlink:title="A830A"><circle cx="399.029851" cy="34.000000" r="4.000000" fill="#0000ff" /></a><g transform="translate(399.029851,34.000000) rotate(-30)"><text style="font-size:10px;font-family:OpenSans;fill:#555;" text-anchor="middle" x="0" y="-6.000000">A830A</text></g><line x1="399.492537" x2="399.492537" y1="46.500000" y2="87.000000" stroke="#BABDB6" stroke-width="2"/><a xlink:title="P831P"><circle cx="399.492537" cy="46.500000" r="4.000000" fill="#0000ff" /></a><g transform="translate(399.492537,46.500000) rotate(-30)"><text style="font-size:10px;font-family:OpenSans;fill:#555;" text-anchor="middle" x="0" y="-6.000000">P831P</text></g><line x1="402.268657" x2="402.268657" y1="46.500000" y2="87.000000" stroke="#BABDB6" stroke-width="2"/><a xlink:title="M837V"><circle cx="402.268657" cy="46.500000" r="4.000000" fill="#ff0000" /></a><g transform="translate(402.268657,46.500000) rotate(-30)"><text style="font-size:10px;font-family:OpenSans;fill:#555;" text-anchor="middle" x="0" y="-6.000000">M837V</text></g><line x1="407.358209" x2="407.358209" y1="59.000000" y2="87.000000" stroke="#BABDB6" stroke-width="2"/><a xlink:title="M848V"><circle cx="407.358209" cy="59.000000" r="4.000000" fill="#ff0000" /></a><g transform="translate(407.358209,59.000000) rotate(-30)"><text style="font-size:10px;font-family:OpenSans;fill:#555;" text-anchor="middle" x="0" y="-6.000000">M848V</text></g><line x1="415.223881" x2="415.223881" y1="59.000000" y2="87.000000" stroke="#BABDB6" stroke-width="2"/><a xlink:title="G865R"><circle cx="415.223881" cy="59.000000" r="4.000000" fill="#ff0000" /></a><g transform="translate(415.223881,59.000000) rotate(-30)"><text style="font-size:10px;font-family:OpenSans;fill:#555;" text-anchor="middle" x="0" y="-6.000000">G865R</text></g><line x1="426.328358" x2="426.328358" y1="59.000000" y2="87.000000" stroke="#BABDB6" stroke-width="2"/><a xlink:title="P889P"><circle cx="426.328358" cy="59.000000" r="4.000000" fill="#0000ff" /></a><g transform="translate(426.328358,59.000000) rotate(-30)"><text style="font-size:10px;font-family:OpenSans;fill:#555;" text-anchor="middle" x="0" y="-6.000000">P889P</text></g><line x1="442.059701" x2="442.059701" y1="46.500000" y2="87.000000" stroke="#BABDB6" stroke-width="2"/><a xlink:title="G923R"><circle cx="442.059701" cy="46.500000" r="4.000000" fill="#ff0000" /></a><g transform="translate(442.059701,46.500000) rotate(-30)"><text style="font-size:10px;font-family:OpenSans;fill:#555;" text-anchor="middle" x="0" y="-6.000000">G923R</text></g><line x1="447.149254" x2="447.149254" y1="46.500000" y2="87.000000" stroke="#BABDB6" stroke-width="2"/><a xlink:title="P934P"><circle cx="447.149254" cy="46.500000" r="4.000000" fill="#0000ff" /></a><g transform="translate(447.149254,46.500000) rotate(-30)"><text style="font-size:10px;font-family:OpenSans;fill:#555;" text-anchor="middle" x="0" y="-6.000000">P934P</text></g><line x1="452.238806" x2="452.238806" y1="59.000000" y2="87.000000" stroke="#BABDB6" stroke-width="2"/><a xlink:title="P945P"><circle cx="452.238806" cy="59.000000" r="4.000000" fill="#0000ff" /></a><g transform="translate(452.238806,59.000000) rotate(-30)"><text style="font-size:10px;font-family:OpenSans;fill:#555;" text-anchor="middle" x="0" y="-6.000000">P945P</text></g><line x1="462.880597" x2="462.880597" y1="46.500000" y2="87.000000" stroke="#BABDB6" stroke-width="2"/><a xlink:title="G968R"><circle cx="462.880597" cy="46.500000" r="4.000000" fill="#ff0000" /></a><g transform="translate(462.880597,46.500000) rotate(-30)"><text style="font-size:10px;font-family:OpenSans;fill:#555;" text-anchor="middle" x="0" y="-6.000000">G968R</text></g><line x1="467.970149" x2="467.970149" y1="59.000000" y2="87.000000" stroke="#BABDB6" stroke-width="2"/><a xlink:title="G979R"><circle cx="467.970149" cy="59.000000" r="4.000000" fill="#ff0000" /></a><g transform="translate(467.970149,59.000000) rotate(-30)"><text style="font-size:10px;font-family:OpenSans;fill:#555;" text-anchor="middle" x="0" y="-6.000000">G979R</text></g><line x1="527.194030" x2="527.194030" y1="59.000000" y2="87.000000" stroke="#BABDB6" stroke-width="2"/><a xlink:title="S1107L"><circle cx="527.194030" cy="59.000000" r="4.000000" fill="#ff0000" /></a><g transform="translate(527.194030,59.000000) rotate(-30)"><text style="font-size:10px;font-family:OpenSans;fill:#555;" text-anchor="middle" x="0" y="-6.000000">S1107L</text></g><line x1="533.671642" x2="533.671642" y1="59.000000" y2="87.000000" stroke="#BABDB6" stroke-width="2"/><a xlink:title="R1121W"><circle cx="533.671642" cy="59.000000" r="4.000000" fill="#ff0000" /></a><g transform="translate(533.671642,59.000000) rotate(-30)"><text style="font-size:10px;font-family:OpenSans;fill:#555;" text-anchor="middle" x="0" y="-6.000000">R1121W</text></g><line x1="548.940299" x2="548.940299" y1="46.500000" y2="87.000000" stroke="#BABDB6" stroke-width="2"/><a xlink:title="R1154Q"><circle cx="548.940299" cy="46.500000" r="4.000000" fill="#ff0000" /></a><g transform="translate(548.940299,46.500000) rotate(-30)"><text style="font-size:10px;font-family:OpenSans;fill:#555;" text-anchor="middle" x="0" y="-6.000000">R1154Q</text></g><line x1="553.104478" x2="553.104478" y1="59.000000" y2="87.000000" stroke="#BABDB6" stroke-width="2"/><a xlink:title="S1163L"><circle cx="553.104478" cy="59.000000" r="4.000000" fill="#ff0000" /></a><g transform="translate(553.104478,59.000000) rotate(-30)"><text style="font-size:10px;font-family:OpenSans;fill:#555;" text-anchor="middle" x="0" y="-6.000000">S1163L</text></g><line x1="560.507463" x2="560.507463" y1="59.000000" y2="87.000000" stroke="#BABDB6" stroke-width="2"/><a xlink:title="R1179W"><circle cx="560.507463" cy="59.000000" r="4.000000" fill="#ff0000" /></a><g transform="translate(560.507463,59.000000) rotate(-30)"><text style="font-size:10px;font-family:OpenSans;fill:#555;" text-anchor="middle" x="0" y="-6.000000">R1179W</text></g><line x1="575.776119" x2="575.776119" y1="46.500000" y2="87.000000" stroke="#BABDB6" stroke-width="2"/><a xlink:title="R1212Q"><circle cx="575.776119" cy="46.500000" r="4.000000" fill="#ff0000" /></a><g transform="translate(575.776119,46.500000) rotate(-30)"><text style="font-size:10px;font-family:OpenSans;fill:#555;" text-anchor="middle" x="0" y="-6.000000">R1212Q</text></g><line x1="581.328358" x2="581.328358" y1="46.500000" y2="87.000000" stroke="#BABDB6" stroke-width="2"/><a xlink:title="R1224W"><circle cx="581.328358" cy="46.500000" r="4.000000" fill="#ff0000" /></a><g transform="translate(581.328358,46.500000) rotate(-30)"><text style="font-size:10px;font-family:OpenSans;fill:#555;" text-anchor="middle" x="0" y="-6.000000">R1224W</text></g><line x1="586.417910" x2="586.417910" y1="59.000000" y2="87.000000" stroke="#BABDB6" stroke-width="2"/><a xlink:title="R1235W"><circle cx="586.417910" cy="59.000000" r="4.000000" fill="#ff0000" /></a><g transform="translate(586.417910,59.000000) rotate(-30)"><text style="font-size:10px;font-family:OpenSans;fill:#555;" text-anchor="middle" x="0" y="-6.000000">R1235W</text></g><line x1="596.597015" x2="596.597015" y1="46.500000" y2="87.000000" stroke="#BABDB6" stroke-width="2"/><a xlink:title="R1257Q"><circle cx="596.597015" cy="46.500000" r="4.000000" fill="#ff0000" /></a><g transform="translate(596.597015,46.500000) rotate(-30)"><text style="font-size:10px;font-family:OpenSans;fill:#555;" text-anchor="middle" x="0" y="-6.000000">R1257Q</text></g><line x1="601.686567" x2="601.686567" y1="59.000000" y2="87.000000" stroke="#BABDB6" stroke-width="2"/><a xlink:title="R1268Q"><circle cx="601.686567" cy="59.000000" r="4.000000" fill="#ff0000" /></a><g transform="translate(601.686567,59.000000) rotate(-30)"><text style="font-size:10px;font-family:OpenSans;fill:#555;" text-anchor="middle" x="0" y="-6.000000">R1268Q</text></g><line x1="652.119403" x2="652.119403" y1="59.000000" y2="87.000000" stroke="#BABDB6" stroke-width="2"/><a xlink:title="G1377G"><circle cx="652.119403" cy="59.000000" r="4.000000" fill="#0000ff" /></a><g transform="translate(652.119403,59.000000) rotate(-30)"><text style="font-size:10px;font-family:OpenSans;fill:#555;" text-anchor="middle" x="0" y="-6.000000">G1377G</text></g><line x1="678.955224" x2="678.955224" y1="59.000000" y2="87.000000" stroke="#BABDB6" stroke-width="2"/><a xlink:title="G1435G"><circle cx="678.955224" cy="59.000000" r="4.000000" fill="#0000ff" /></a><g transform="translate(678.955224,59.000000) rotate(-30)"><text style="font-size:10px;font-family:OpenSans;fill:#555;" text-anchor="middle" x="0" y="-6.000000">G1435G</text></g><line x1="699.776119" x2="699.776119" y1="46.500000" y2="87.000000" stroke="#BABDB6" stroke-width="2"/><a xlink:title="G1480G"><circle cx="699.776119" cy="46.500000" r="4.000000" fill="#0000ff" /></a><g transform="translate(699.776119,46.500000) rotate(-30)"><text style="font-size:10px;font-family:OpenSans;fill:#555;" text-anchor="middle" x="0" y="-6.000000">G1480G</text></g><line x1="704.865672" x2="704.865672" y1="59.000000" y2="87.000000" stroke="#BABDB6" stroke-width="2"/><a xlink:title="G1491G"><circle cx="704.865672" cy="59.000000" r="4.000000" fill="#0000ff" /></a><g transform="translate(704.865672,59.000000) rotate(-30)"><text style="font-size:10px;font-family:OpenSans;fill:#555;" text-anchor="middle" x="0" y="-6.000000">G1491G</text></g><a xlink:title=",  (1503aa)"><rect fill="#BABDB6" x="15.000000" y="87.000000" width="695.417910" height="14.000000"/></a><g transform="translate(159.358209,82.000000)"><a xlink:href="https://www.ebi.ac.uk/interpro/entry/pfam/PF00664" xlink:title="ABC transporter transmembrane region"><rect fill="#2DCF00" x="0" y="0" width="123.074627" height="24.000000" filter="url(#ds)"/><text style="font-size:12px;font-family:OpenSans;fill:#ffffff;" text-anchor="middle" x="61.537313" y="16.000000">ABC_membrane</text></a></g>
<g transform="translate(313.895522,82.000000)"><a xlink:href="https://www.ebi.ac.uk/interpro/entry/pfam/PF00005" xlink:title="ABC transporter"><rect fill="#FF5353" x="0" y="0" width="62.000000" height="24.000000" filter="url(#ds)"/><text style="font-size:12px;font-family:OpenSans;fill:#ffffff;" text-anchor="middle" x="31.000000" y="16.000000">ABC_tran</text></a></g>
<g transform="translate(453.626866,82.000000)"><a xlink:href="https://www.ebi.ac.uk/interpro/entry/pfam/PF00664" xlink:title="ABC transporter transmembrane region"><rect fill="#5B5BFF" x="0" y="0" width="123.537313" height="24.000000" filter="url(#ds)"/><text style="font-size:12px;font-family:OpenSans;fill:#ffffff;" text-anchor="middle" x="61.768657" y="16.000000">ABC_membrane</text></a></g>
<g transform="translate(608.626866,82.000000)"><a xlink:href="https://www.ebi.ac.uk/interpro/entry/pfam/PF00005" xlink:title="ABC transporter"><rect fill="#EBD61D" x="0" y="0" width="68.014925" height="24.000000" filter="url(#ds)"/><text style="font-size:12px;font-family:OpenSans;fill:#ffffff;" text-anchor="middle" x="34.007463" y="16.000000">ABC_tran</text></a></g>
<g class="axis">
<line x1="15.000000" x2="710.417910" y1="116.000000" y2="116.000000" stroke="#AAAAAA" /><line x1="15.000000" x2="15.000000" y1="116.000000" y2="121.000000" stroke="#AAAAAA" /><line x1="15.000000" x2="15.000000" y1="116.000000" y2="121.000000" stroke="#AAAAAA" /><text style="font-size:10px;font-family:OpenSans;fill:#000000;" text-anchor="middle" x="15.000000" y="131.000000">0</text><line x1="152.417910" x2="152.417910" y1="116.000000" y2="121.000000" stroke="#AAAAAA" /><text style="font-size:10px;font-family:OpenSans;fill:#000000;" text-anchor="middle" x="152.417910" y="131.000000">297</text><line x1="205.164179" x2="205.164179" y1="116.000000" y2="121.000000" stroke="#AAAAAA" /><text style="font-size:10px;font-family:OpenSans;fill:#000000;" text-anchor="middle" x="205.164179" y="131.000000">411</text><line x1="246.343284" x2="246.343284" y1="116.000000" y2="121.000000" stroke="#AAAAAA" /><text style="font-size:10px;font-family:OpenSans;fill:#000000;" text-anchor="middle" x="246.343284" y="131.000000">500</text><line x1="268.089552" x2="268.089552" y1="116.000000" y2="121.000000" stroke="#AAAAAA" /><text style="font-size:10px;font-family:OpenSans;fill:#000000;" text-anchor="middle" x="268.089552" y="131.000000">547</text><line x1="299.089552" x2="299.089552" y1="116.000000" y2="121.000000" stroke="#AAAAAA" /><text style="font-size:10px;font-family:OpenSans;fill:#000000;" text-anchor="middle" x="299.089552" y="131.000000">614</text><line x1="332.402985" x2="332.402985" y1="116.000000" y2="121.000000" stroke="#AAAAAA" /><text style="font-size:10px;font-family:OpenSans;fill:#000000;" text-anchor="middle" x="332.402985" y="131.000000">686</text><line x1="354.611940" x2="354.611940" y1="116.000000" y2="121.000000" stroke="#AAAAAA" /><text style="font-size:10px;font-family:OpenSans;fill:#000000;" text-anchor="middle" x="354.611940" y="131.000000">734</text><line x1="381.447761" x2="381.447761" y1="116.000000" y2="121.000000" stroke="#AAAAAA" /><text style="font-size:10px;font-family:OpenSans;fill:#000000;" text-anchor="middle" x="381.447761" y="131.000000">792</text><line x1="402.268657" x2="402.268657" y1="116.000000" y2="121.000000" stroke="#AAAAAA" /><text style="font-size:10px;font-family:OpenSans;fill:#000000;" text-anchor="middle" x="402.268657" y="131.000000">837</text><line x1="426.328358" x2="426.328358" y1="116.000000" y2="121.000000" stroke="#AAAAAA" /><text style="font-size:10px;font-family:OpenSans;fill:#000000;" text-anchor="middle" x="426.328358" y="131.000000">889</text><line x1="447.149254" x2="447.149254" y1="116.000000" y2="121.000000" stroke="#AAAAAA" /><text style="font-size:10px;font-family:OpenSans;fill:#000000;" text-anchor="middle" x="447.149254" y="131.000000">934</text><line x1="467.970149" x2="467.970149" y1="116.000000" y2="121.000000" stroke="#AAAAAA" /><text style="font-size:10px;font-family:OpenSans;fill:#000000;" text-anchor="middle" x="467.970149" y="131.000000">979</text><line x1="527.194030" x2="527.194030" y1="116.000000" y2="121.000000" stroke="#AAAAAA" /><text style="font-size:10px;font-family:OpenSans;fill:#000000;" text-anchor="middle" x="527.194030" y="131.000000">1107</text><line x1="548.940299" x2="548.940299" y1="116.000000" y2="121.000000" stroke="#AAAAAA" /><text style="font-size:10px;font-family:OpenSans;fill:#000000;" text-anchor="middle" x="548.940299" y="131.000000">1154</text><line x1="575.776119" x2="575.776119" y1="116.000000" y2="121.000000" stroke="#AAAAAA" /><text style="font-size:10px;font-family:OpenSans;fill:#000000;" text-anchor="middle" x="575.776119" y="131.000000">1212</text><line x1="596.597015" x2="596.597015" y1="116.000000" y2="121.000000" stroke="#AAAAAA" /><text style="font-size:10px;font-family:OpenSans;fill:#000000;" text-anchor="middle" x="596.597015" y="131.000000">1257</text><line x1="652.119403" x2="652.119403" y1="116.000000" y2="121.000000" stroke="#AAAAAA" /><text style="font-size:10px;font-family:OpenSans;fill:#000000;" text-anchor="middle" x="652.119403" y="131.000000">1377</text><line x1="678.955224" x2="678.955224" y1="116.000000" y2="121.000000" stroke="#AAAAAA" /><text style="font-size:10px;font-family:OpenSans;fill:#000000;" text-anchor="middle" x="678.955224" y="131.000000">1435</text><line x1="710.417910" x2="710.417910" y1="116.000000" y2="121.000000" stroke="#AAAAAA" /><text style="font-size:10px;font-family:OpenSans;fill:#000000;" text-anchor="middle" x="710.417910" y="131.000000">1503</text></g>
<rect fill="#5B5BFF" x="4" y="145.000000" width="12" height="12" filter="url(#ds)"/><text style="font-size:12px;font-family:OpenSans;fill:#000000;" text-anchor="start" x="20" y="157.000000">ABC transporter transmembrane region</text><rect fill="#EBD61D" x="4" y="159.000000" width="12" height="12" filter="url(#ds)"/><text style="font-size:12px;font-family:OpenSans;fill:#000000;" text-anchor="start" x="20" y="171.000000">ABC transporter</text></svg>
