<?xml version='1.0'?>
<svg xmlns="http://www.w3.org/2000/svg" xmlns:xlink="http://www.w3.org/1999/xlink" width="678.905405" height="171.900000">
<defs>
  <filter id="ds" x="0" y="0">
    <feOffset in="SourceAlpha" dx="2" dy="2" />
    <feComponentTransfer><feFuncA type="linear" slope="0.2"/></feComponentTransfer>
    <feGaussianBlur result="blurOut" stdDeviation="1" />
    <feBlend in="SourceGraphic" in2="blurOut" mode="normal" />
  </filter>
  <pattern id="disordered-hatch" patternUnits="userSpaceOnUse" width="4" height="4">
    <path d="M-1,1 l2,-2 M0,4 l4,-4 M3,5 l2,-2" stroke="#000000" opacity="0.3" />
  </pattern>
</defs>
<line x1="261.324324" x2="261.324324" y1="46.500000" y2="74.500000" stroke="#BABDB6" stroke-width="2"/><a xlink:title="T588T"><circle cx="261.324324" cy="46.500000" r="4.000000" fill="#0000ff" /></a><g transform="translate(261.324324,46.500000) rotate(-30)"><text style="font-size:10px;font-family:OpenSans;fill:#555;" text-anchor="middle" x="0" y="-6.000000">T588T</text></g><line x1="362.702703" x2="362.702703" y1="46.500000" y2="74.500000" stroke="#BABDB6" stroke-width="2"/><a xlink:title="T830T"><circle cx="362.702703" cy="46.500000" r="4.000000" fill="#0000ff" /></a><g transform="translate(362.702703,46.500000) rotate(-30)"><text style="font-size:10px;font-family:OpenSans;fill:#555;" text-anchor="middle" x="0" y="-6.000000">T830T</text></g><line x1="376.945946" x2="376.945946" y1="34.000000" y2="74.500000" stroke="#BABDB6" stroke-width="2"/><a xlink:title="T864T"><circle cx="376.945946" cy="34.000000" r="4.000000" fill="#0000ff" /></a><g transform="translate(376.945946,34.000000) rotate(-30)"><text style="font-size:10px;font-family:OpenSans;fill:#555;" text-anchor="middle" x="0" y="-6.000000">T864T</text></g><line x1="382.391892" x2="382.391892" y1="46.500000" y2="74.500000" stroke="#BABDB6" stroke-width="2"/><a xlink:title="T877T"><circle cx="382.391892" cy="46.500000" r="4.000000" fill="#0000ff" /></a><g transform="translate(382.391892,46.500000) rotate(-30)"><text style="font-size:10px;font-family:OpenSans;fill:#555;" text-anchor="middle" x="0" y="-6.000000">T877T</text></g><a xlink:title=",  (1549aa)"><rect fill="#BABDB6" x="15.000000" y="74.500000" width="648.905405" height="14.000000"/></a><g transform="translate(141.513514,69.500000)"><a xlink:href="https://www.ebi.ac.uk/interpro/entry/pfam/PF00664" xlink:title="ABC transporter transmembrane region"><rect fill="#2DCF00" x="0" y="0" width="118.554054" height="24.000000" filter="url(#ds)"/><text style="font-size:12px;font-family:OpenSans;fill:#ffffff;" text-anchor="middle" x="59.277027" y="16.000000">ABC_membrane</text></a></g>
<g transform="translate(303.216216,69.500000)"><a xlink:href="https://www.ebi.ac.uk/interpro/entry/pfam/PF00005" xlink:title="ABC transporter"><rect fill="#FF5353" x="0" y="0" width="63.256757" height="24.000000" filter="url(#ds)"/><text style="font-size:12px;font-family:OpenSans;fill:#ffffff;" text-anchor="middle" x="31.628378" y="16.000000">ABC_tran</text></a></g>
<g transform="translate(431.405405,69.500000)"><a xlink:href="https://www.ebi.ac.uk/interpro/entry/pfam/PF00664" xlink:title="ABC transporter transmembrane region"><rect fill="#5B5BFF" x="0" y="0" width="109.337838" height="24.000000" filter="url(#ds)"/><text style="font-size:12px;font-family:OpenSans;fill:#ffffff;" text-anchor="middle" x="54.668919" y="16.000000">ABC_membrane</text></a></g>
<g transform="translate(571.743243,69.500000)"><a xlink:href="https://www.ebi.ac.uk/interpro/entry/pfam/PF00005" xlink:title="ABC transporter"><rect fill="#EBD61D" x="0" y="0" width="62.000000" height="24.000000" filter="url(#ds)"/><text style="font-size:12px;font-family:OpenSans;fill:#ffffff;" text-anchor="middle" x="31.000000" y="16.000000">ABC_tran</text></a></g>
<g class="axis">
<line x1="15.000000" x2="663.905405" y1="103.500000" y2="103.500000" stroke="#AAAAAA" /><line x1="15.000000" x2="15.000000" y1="103.500000" y2="108.500000" stroke="#AAAAAA" /><line x1="15.000000" x2="15.000000" y1="103.500000" y2="108.500000" stroke="#AAAAAA" /><text style="font-size:10px;font-family:OpenSans;fill:#000000;" text-anchor="middle" x="15.000000" y="118.500000">0</text><line x1="141.513514" x2="141.513514" y1="103.500000" y2="108.500000" stroke="#AAAAAA" /><text style="font-size:10px;font-family:OpenSans;fill:#000000;" text-anchor="middle" x="141.513514" y="118.500000">302</text><line x1="261.324324" x2="261.324324" y1="103.500000" y2="108.500000" stroke="#AAAAAA" /><text style="font-size:10px;font-family:OpenSans;fill:#000000;" text-anchor="middle" x="261.324324" y="118.500000">588</text><line x1="303.216216" x2="303.216216" y1="103.500000" y2="108.500000" stroke="#AAAAAA" /><text style="font-size:10px;font-family:OpenSans;fill:#000000;" text-anchor="middle" x="303.216216" y="118.500000">688</text><line x1="362.702703" x2="362.702703" y1="103.500000" y2="108.500000" stroke="#AAAAAA" /><text style="font-size:10px;font-family:OpenSans;fill:#000000;" text-anchor="middle" x="362.702703" y="118.500000">830</text><line x1="382.391892" x2="382.391892" y1="103.500000" y2="108.500000" stroke="#AAAAAA" /><text style="font-size:10px;font-family:OpenSans;fill:#000000;" text-anchor="middle" x="382.391892" y="118.500000">877</text><line x1="431.405405" x2="431.405405" y1="103.500000" y2="108.500000" stroke="#AAAAAA" /><text style="font-size:10px;font-family:OpenSans;fill:#000000;" text-anchor="middle" x="431.405405" y="118.500000">994</text><line x1="540.743243" x2="540.743243" y1="103.500000" y2="108.500000" stroke="#AAAAAA" /><text style="font-size:10px;font-family:OpenSans;fill:#000000;" text-anchor="middle" x="540.743243" y="118.500000">1255</text><line x1="571.743243" x2="571.743243" y1="103.500000" y2="108.500000" stroke="#AAAAAA" /><text style="font-size:10px;font-family:OpenSans;fill:#000000;" text-anchor="middle" x="571.743243" y="118.500000">1329</text><line x1="633.743243" x2="633.743243" y1="103.500000" y2="108.500000" stroke="#AAAAAA" /><text style="font-size:10px;font-family:OpenSans;fill:#000000;" text-anchor="middle" x="633.743243" y="118.500000">1477</text><line x1="663.905405" x2="663.905405" y1="103.500000" y2="108.500000" stroke="#AAAAAA" /><text style="font-size:10px;font-family:OpenSans;fill:#000000;" text-anchor="middle" x="663.905405" y="118.500000">1549</text></g>
<rect fill="#5B5BFF" x="4" y="132.500000" width="12" height="12" filter="url(#ds)"/><text style="font-size:12px;font-family:OpenSans;fill:#000000;" text-anchor="start" x="20" y="144.500000">ABC transporter transmembrane region</text><rect fill="#EBD61D" x="4" y="146.500000" width="12" height="12" filter="url(#ds)"/><text style="font-size:12px;font-family:OpenSans;fill:#000000;" text-anchor="start" x="20" y="158.500000">ABC transporter</text></svg>
