<?xml version='1.0'?>
<svg xmlns="http://www.w3.org/2000/svg" xmlns:xlink="http://www.w3.org/1999/xlink" width="868.857143" height="172.600000">
<defs>
  <filter id="ds" x="0" y="0">
    <feOffset in="SourceAlpha" dx="2" dy="2" />
    <feComponentTransfer><feFuncA type="linear" slope="0.2"/></feComponentTransfer>
    <feGaussianBlur result="blurOut" stdDeviation="1" />
    <feBlend in="SourceGraphic" in2="blurOut" mode="normal" />
  </filter>
  <pattern id="disordered-hatch" patternUnits="userSpaceOnUse" width="4" height="4">
    <path d="M-1,1 l2,-2 M0,4 l4,-4 M3,5 l2,-2" stroke="#000000" opacity="0.3" />
  </pattern>
</defs>
<line x1="148.333333" x2="148.333333" y1="34.000000" y2="62.000000" stroke="#BABDB6" stroke-width="2"/><a xlink:title="E175D"><circle cx="148.333333" cy="34.000000" r="4.000000" fill="#ff0000" /></a><g transform="translate(148.333333,34.000000) rotate(-30)"><text style="font-size:10px;font-family:OpenSans;fill:#555;" text-anchor="middle" x="0" y="-6.000000">E175D</text></g><line x1="189.476190" x2="189.476190" y1="34.000000" y2="62.000000" stroke="#BABDB6" stroke-width="2"/><a xlink:title="E229D"><circle cx="189.476190" cy="34.000000" r="4.000000" fill="#ff0000" /></a><g transform="translate(189.476190,34.000000) rotate(-30)"><text style="font-size:10px;font-family:OpenSans;fill:#555;" text-anchor="middle" x="0" y="-6.000000">E229D</text></g><line x1="436.333333" x2="436.333333" y1="34.000000" y2="62.000000" stroke="#BABDB6" stroke-width="2"/><a xlink:title="H553H"><circle cx="436.333333" cy="34.000000" r="4.000000" fill="#0000ff" /></a><g transform="translate(436.333333,34.000000) rotate(-30)"><text style="font-size:10px;font-family:OpenSans;fill:#555;" text-anchor="middle" x="0" y="-6.000000">H553H</text></g><line x1="443.952381" x2="443.952381" y1="34.000000" y2="62.000000" stroke="#BABDB6" stroke-width="2"/><a xlink:title="H563H"><circle cx="443.952381" cy="34.000000" r="4.000000" fill="#0000ff" /></a><g transform="translate(443.952381,34.000000) rotate(-30)"><text style="font-size:10px;font-family:OpenSans;fill:#555;" text-anchor="middle" x="0" y="-6.000000">H563H</text></g><line x1="477.476190" x2="477.476190" y1="34.000000" y2="62.000000" stroke="#BABDB6" stroke-width="2"/><a xlink:title="H607H"><circle cx="477.476190" cy="34.000000" r="4.000000" fill="#0000ff" /></a><g transform="translate(477.476190,34.000000) rotate(-30)"><text style="font-size:10px;font-family:OpenSans;fill:#555;" text-anchor="middle" x="0" y="-6.000000">H607H</text></g><line x1="485.095238" x2="485.095238" y1="34.000000" y2="62.000000" stroke="#BABDB6" stroke-width="2"/><a xlink:title="H617H"><circle cx="485.095238" cy="34.000000" r="4.000000" fill="#0000ff" /></a><g transform="translate(485.095238,34.000000) rotate(-30)"><text style="font-size:10px;font-family:OpenSans;fill:#555;" text-anchor="middle" x="0" y="-6.000000">H617H</text></g><line x1="672.523810" x2="672.523810" y1="34.000000" y2="62.000000" stroke="#BABDB6" stroke-width="2"/><a xlink:title="L863L"><circle cx="672.523810" cy="34.000000" r="4.000000" fill="#0000ff" /></a><g transform="translate(672.523810,34.000000) rotate(-30)"><text style="font-size:10px;font-family:OpenSans;fill:#555;" text-anchor="middle" x="0" y="-6.000000">L863L</text></g><line x1="680.142857" x2="680.142857" y1="34.000000" y2="62.000000" stroke="#BABDB6" stroke-width="2"/><a xlink:title="L873L"><circle cx="680.142857" cy="34.000000" r="4.000000" fill="#0000ff" /></a><g transform="translate(680.142857,34.000000) rotate(-30)"><text style="font-size:10px;font-family:OpenSans;fill:#555;" text-anchor="middle" x="0" y="-6.000000">L873L</text></g><line x1="713.666667" x2="713.666667" y1="34.000000" y2="62.000000" stroke="#BABDB6" stroke-width="2"/><a xlink:title="L917L"><circle cx="713.666667" cy="34.000000" r="4.000000" fill="#0000ff" /></a><g transform="translate(713.666667,34.000000) rotate(-30)"><text style="font-size:10px;font-family:OpenSans;fill:#555;" text-anchor="middle" x="0" y="-6.000000">L917L</text></g><line x1="721.285714" x2="721.285714" y1="34.000000" y2="62.000000" stroke="#BABDB6" stroke-width="2"/><a xlink:title="L927L"><circle cx="721.285714" cy="34.000000" r="4.000000" fill="#0000ff" /></a><g transform="translate(721.285714,34.000000) rotate(-30)"><text style="font-size:10px;font-family:OpenSans;fill:#555;" text-anchor="middle" x="0" y="-6.000000">L927L</text></g><a xlink:title=",  (1101aa)"><rect fill="#BABDB6" x="15.000000" y="62.000000" width="838.857143" height="14.000000"/></a><g transform="translate(200.904762,57.000000)"><a xlink:href="https://www.ebi.ac.uk/interpro/entry/pfam/PF16114" xlink:title="ATP citrate lyase citrate-binding"><rect fill="#2DCF00" x="0" y="0" width="134.095238" height="24.000000" filter="url(#ds)"/><text style="font-size:12px;font-family:OpenSans;fill:#ffffff;" text-anchor="middle" x="67.047619" y="16.000000">Citrate_bind</text></a></g>
<g transform="translate(392.142857,57.000000)"><a xlink:href="https://www.ebi.ac.uk/interpro/entry/pfam/PF02629" xlink:title="CoA binding domain"><rect fill="#FF5353" x="0" y="0" width="80.000000" height="24.000000" filter="url(#ds)"/><text style="font-size:12px;font-family:OpenSans;fill:#ffffff;" text-anchor="middle" x="40.000000" y="16.000000">CoA_binding</text></a></g>
<g transform="translate(517.857143,57.000000)"><a xlink:href="https://www.ebi.ac.uk/interpro/entry/pfam/PF00549" xlink:title="CoA-ligase"><rect fill="#5B5BFF" x="0" y="0" width="94.476190" height="24.000000" filter="url(#ds)"/><text style="font-size:12px;font-family:OpenSans;fill:#ffffff;" text-anchor="middle" x="47.238095" y="16.000000">CoA-ligase</text></a></g>
<g transform="translate(691.571429,57.000000)"><a xlink:href="https://www.ebi.ac.uk/interpro/entry/pfam/PF00285" xlink:title="Citrate synthase, C-terminal domain"><rect fill="#EBD61D" x="0" y="0" width="147.047619" height="24.000000" filter="url(#ds)"/><text style="font-size:12px;font-family:OpenSans;fill:#ffffff;" text-anchor="middle" x="73.523810" y="16.000000">Citrate_synt</text></a></g>
<g class="axis">
<line x1="15.000000" x2="853.857143" y1="91.000000" y2="91.000000" stroke="#AAAAAA" /><line x1="15.000000" x2="15.000000" y1="91.000000" y2="96.000000" stroke="#AAAAAA" /><line x1="15.000000" x2="15.000000" y1="91.000000" y2="96.000000" stroke="#AAAAAA" /><text style="font-size:10px;font-family:OpenSans;fill:#000000;" text-anchor="middle" x="15.000000" y="106.000000">0</text><line x1="148.333333" x2="148.333333" y1="91.000000" y2="96.000000" stroke="#AAAAAA" /><text style="font-size:10px;font-family:OpenSans;fill:#000000;" text-anchor="middle" x="148.333333" y="106.000000">175</text><line x1="189.476190" x2="189.476190" y1="91.000000" y2="96.000000" stroke="#AAAAAA" /><text style="font-size:10px;font-family:OpenSans;fill:#000000;" text-anchor="middle" x="189.476190" y="106.000000">229</text><line x1="335.000000" x2="335.000000" y1="91.000000" y2="96.000000" stroke="#AAAAAA" /><text style="font-size:10px;font-family:OpenSans;fill:#000000;" text-anchor="middle" x="335.000000" y="106.000000">420</text><line x1="392.142857" x2="392.142857" y1="91.000000" y2="96.000000" stroke="#AAAAAA" /><text style="font-size:10px;font-family:OpenSans;fill:#000000;" text-anchor="middle" x="392.142857" y="106.000000">495</text><line x1="436.333333" x2="436.333333" y1="91.000000" y2="96.000000" stroke="#AAAAAA" /><text style="font-size:10px;font-family:OpenSans;fill:#000000;" text-anchor="middle" x="436.333333" y="106.000000">553</text><line x1="477.476190" x2="477.476190" y1="91.000000" y2="96.000000" stroke="#AAAAAA" /><text style="font-size:10px;font-family:OpenSans;fill:#000000;" text-anchor="middle" x="477.476190" y="106.000000">607</text><line x1="517.857143" x2="517.857143" y1="91.000000" y2="96.000000" stroke="#AAAAAA" /><text style="font-size:10px;font-family:OpenSans;fill:#000000;" text-anchor="middle" x="517.857143" y="106.000000">660</text><line x1="612.333333" x2="612.333333" y1="91.000000" y2="96.000000" stroke="#AAAAAA" /><text style="font-size:10px;font-family:OpenSans;fill:#000000;" text-anchor="middle" x="612.333333" y="106.000000">784</text><line x1="672.523810" x2="672.523810" y1="91.000000" y2="96.000000" stroke="#AAAAAA" /><text style="font-size:10px;font-family:OpenSans;fill:#000000;" text-anchor="middle" x="672.523810" y="106.000000">863</text><line x1="713.666667" x2="713.666667" y1="91.000000" y2="96.000000" stroke="#AAAAAA" /><text style="font-size:10px;font-family:OpenSans;fill:#000000;" text-anchor="middle" x="713.666667" y="106.000000">917</text><line x1="853.857143" x2="853.857143" y1="91.000000" y2="96.000000" stroke="#AAAAAA" /><text style="font-size:10px;font-family:OpenSans;fill:#000000;" text-anchor="middle" x="853.857143" y="106.000000">1101</text></g>
<rect fill="#FF5353" x="4" y="120.000000" width="12" height="12" filter="url(#ds)"/><text style="font-size:12px;font-family:OpenSans;fill:#000000;" text-anchor="start" x="20" y="132.000000">CoA binding domain</text><rect fill="#EBD61D" x="4" y="134.000000" width="12" height="12" filter="url(#ds)"/><text style="font-size:12px;font-family:OpenSans;fill:#000000;" text-anchor="start" x="20" y="146.000000">Citrate synthase, C-terminal domain</text><rect fill="#2DCF00" x="4" y="148.000000" width="12" height="12" filter="url(#ds)"/><text style="font-size:12px;font-family:OpenSans;fill:#000000;" text-anchor="start" x="20" y="160.000000">ATP citrate lyase citrate-binding</text></svg>
