<?xml version='1.0'?>
<svg xmlns="http://www.w3.org/2000/svg" xmlns:xlink="http://www.w3.org/1999/xlink" width="725.875000" height="146.200000">
<defs>
  <filter id="ds" x="0" y="0">
    <feOffset in="SourceAlpha" dx="2" dy="2" />
    <feComponentTransfer><feFuncA type="linear" slope="0.2"/></feComponentTransfer>
    <feGaussianBlur result="blurOut" stdDeviation="1" />
    <feBlend in="SourceGraphic" in2="blurOut" mode="normal" />
  </filter>
  <pattern id="disordered-hatch" patternUnits="userSpaceOnUse" width="4" height="4">
    <path d="M-1,1 l2,-2 M0,4 l4,-4 M3,5 l2,-2" stroke="#000000" opacity="0.3" />
  </pattern>
</defs>
<line x1="159.875000" x2="159.875000" y1="34.000000" y2="62.000000" stroke="#BABDB6" stroke-width="2"/><a xlink:title="R122Q"><circle cx="159.875000" cy="34.000000" r="4.000000" fill="#ff0000" /></a><g transform="translate(159.875000,34.000000) rotate(-30)"><text style="font-size:10px;font-family:OpenSans;fill:#555;" text-anchor="middle" x="0" y="-6.000000">R122Q</text></g><line x1="333.250000" x2="333.250000" y1="34.000000" y2="62.000000" stroke="#BABDB6" stroke-width="2"/><a xlink:title="P268R"><circle cx="333.250000" cy="34.000000" r="4.000000" fill="#ff0000" /></a><g transform="translate(333.250000,34.000000) rotate(-30)"><text style="font-size:10px;font-family:OpenSans;fill:#555;" text-anchor="middle" x="0" y="-6.000000">P268R</text></g><line x1="377.187500" x2="377.187500" y1="34.000000" y2="62.000000" stroke="#BABDB6" stroke-width="2"/><a xlink:title="P305R"><circle cx="377.187500" cy="34.000000" r="4.000000" fill="#ff0000" /></a><g transform="translate(377.187500,34.000000) rotate(-30)"><text style="font-size:10px;font-family:OpenSans;fill:#555;" text-anchor="middle" x="0" y="-6.000000">P305R</text></g><line x1="444.875000" x2="444.875000" y1="34.000000" y2="62.000000" stroke="#BABDB6" stroke-width="2"/><a xlink:title="E362*"><circle cx="444.875000" cy="34.000000" r="4.000000" fill="#0000ff" /></a><g transform="translate(444.875000,34.000000) rotate(-30)"><text style="font-size:10px;font-family:OpenSans;fill:#555;" text-anchor="middle" x="0" y="-6.000000">E362*</text></g><line x1="452.000000" x2="452.000000" y1="34.000000" y2="62.000000" stroke="#BABDB6" stroke-width="2"/><a xlink:title="T368P"><circle cx="452.000000" cy="34.000000" r="4.000000" fill="#ff0000" /></a><g transform="translate(452.000000,34.000000) rotate(-30)"><text style="font-size:10px;font-family:OpenSans;fill:#555;" text-anchor="middle" x="0" y="-6.000000">T368P</text></g><line x1="488.812500" x2="488.812500" y1="34.000000" y2="62.000000" stroke="#BABDB6" stroke-width="2"/><a xlink:title="E399*"><circle cx="488.812500" cy="34.000000" r="4.000000" fill="#0000ff" /></a><g transform="translate(488.812500,34.000000) rotate(-30)"><text style="font-size:10px;font-family:OpenSans;fill:#555;" text-anchor="middle" x="0" y="-6.000000">E399*</text></g><line x1="495.937500" x2="495.937500" y1="34.000000" y2="62.000000" stroke="#BABDB6" stroke-width="2"/><a xlink:title="T405P"><circle cx="495.937500" cy="34.000000" r="4.000000" fill="#ff0000" /></a><g transform="translate(495.937500,34.000000) rotate(-30)"><text style="font-size:10px;font-family:OpenSans;fill:#555;" text-anchor="middle" x="0" y="-6.000000">T405P</text></g><a xlink:title=",  (586aa)"><rect fill="#BABDB6" x="15.000000" y="62.000000" width="695.875000" height="14.000000"/></a><g transform="translate(100.500000,57.000000)"><a xlink:href="https://www.ebi.ac.uk/interpro/entry/pfam/PF00501" xlink:title="AMP-binding enzyme"><rect fill="#2DCF00" x="0" y="0" width="420.375000" height="24.000000" filter="url(#ds)"/><text style="font-size:12px;font-family:OpenSans;fill:#ffffff;" text-anchor="middle" x="210.187500" y="16.000000">AMP-binding enzyme</text></a></g>
<g transform="translate(599.250000,57.000000)"><a xlink:href="https://www.ebi.ac.uk/interpro/entry/pfam/PF13193" xlink:title="AMP-binding enzyme C-terminal domain"><rect fill="#FF5353" x="0" y="0" width="95.000000" height="24.000000" filter="url(#ds)"/><text style="font-size:12px;font-family:OpenSans;fill:#ffffff;" text-anchor="middle" x="47.500000" y="16.000000">AMP-binding_C</text></a></g>
<g class="axis">
<line x1="15.000000" x2="710.875000" y1="91.000000" y2="91.000000" stroke="#AAAAAA" /><line x1="15.000000" x2="15.000000" y1="91.000000" y2="96.000000" stroke="#AAAAAA" /><line x1="15.000000" x2="15.000000" y1="91.000000" y2="96.000000" stroke="#AAAAAA" /><text style="font-size:10px;font-family:OpenSans;fill:#000000;" text-anchor="middle" x="15.000000" y="106.000000">0</text><line x1="100.500000" x2="100.500000" y1="91.000000" y2="96.000000" stroke="#AAAAAA" /><text style="font-size:10px;font-family:OpenSans;fill:#000000;" text-anchor="middle" x="100.500000" y="106.000000">72</text><line x1="159.875000" x2="159.875000" y1="91.000000" y2="96.000000" stroke="#AAAAAA" /><text style="font-size:10px;font-family:OpenSans;fill:#000000;" text-anchor="middle" x="159.875000" y="106.000000">122</text><line x1="333.250000" x2="333.250000" y1="91.000000" y2="96.000000" stroke="#AAAAAA" /><text style="font-size:10px;font-family:OpenSans;fill:#000000;" text-anchor="middle" x="333.250000" y="106.000000">268</text><line x1="377.187500" x2="377.187500" y1="91.000000" y2="96.000000" stroke="#AAAAAA" /><text style="font-size:10px;font-family:OpenSans;fill:#000000;" text-anchor="middle" x="377.187500" y="106.000000">305</text><line x1="444.875000" x2="444.875000" y1="91.000000" y2="96.000000" stroke="#AAAAAA" /><text style="font-size:10px;font-family:OpenSans;fill:#000000;" text-anchor="middle" x="444.875000" y="106.000000">362</text><line x1="488.812500" x2="488.812500" y1="91.000000" y2="96.000000" stroke="#AAAAAA" /><text style="font-size:10px;font-family:OpenSans;fill:#000000;" text-anchor="middle" x="488.812500" y="106.000000">399</text><line x1="520.875000" x2="520.875000" y1="91.000000" y2="96.000000" stroke="#AAAAAA" /><text style="font-size:10px;font-family:OpenSans;fill:#000000;" text-anchor="middle" x="520.875000" y="106.000000">426</text><line x1="599.250000" x2="599.250000" y1="91.000000" y2="96.000000" stroke="#AAAAAA" /><text style="font-size:10px;font-family:OpenSans;fill:#000000;" text-anchor="middle" x="599.250000" y="106.000000">492</text><line x1="710.875000" x2="710.875000" y1="91.000000" y2="96.000000" stroke="#AAAAAA" /><text style="font-size:10px;font-family:OpenSans;fill:#000000;" text-anchor="middle" x="710.875000" y="106.000000">586</text></g>
<rect fill="#FF5353" x="4" y="120.000000" width="12" height="12" filter="url(#ds)"/><text style="font-size:12px;font-family:OpenSans;fill:#000000;" text-anchor="start" x="20" y="132.000000">AMP-binding enzyme C-terminal domain</text></svg>
