<?xml version='1.0'?>
<svg xmlns="http://www.w3.org/2000/svg" xmlns:xlink="http://www.w3.org/1999/xlink" width="1823.596491" height="185.800000">
<defs>
  <filter id="ds" x="0" y="0">
    <feOffset in="SourceAlpha" dx="2" dy="2" />
    <feComponentTransfer><feFuncA type="linear" slope="0.2"/></feComponentTransfer>
    <feGaussianBlur result="blurOut" stdDeviation="1" />
    <feBlend in="SourceGraphic" in2="blurOut" mode="normal" />
  </filter>
  <pattern id="disordered-hatch" patternUnits="userSpaceOnUse" width="4" height="4">
    <path d="M-1,1 l2,-2 M0,4 l4,-4 M3,5 l2,-2" stroke="#000000" opacity="0.3" />
  </pattern>
</defs>
<line x1="547.631579" x2="547.631579" y1="34.000000" y2="62.000000" stroke="#BABDB6" stroke-width="2"/><a xlink:title="N264S"><circle cx="547.631579" cy="34.000000" r="4.000000" fill="#ff0000" /></a><g transform="translate(547.631579,34.000000) rotate(-30)"><text style="font-size:10px;font-family:OpenSans;fill:#555;" text-anchor="middle" x="0" y="-6.000000">N264S</text></g><a xlink:title=",  (889aa)"><rect fill="#BABDB6" x="15.000000" y="62.000000" width="1793.596491" height="14.000000"/></a><g transform="translate(115.877193,57.000000)"><a xlink:href="https://www.ebi.ac.uk/interpro/entry/pfam/PF01562" xlink:title="Reprolysin family propeptide"><rect fill="#2DCF00" x="0" y="0" width="115.000000" height="24.000000" filter="url(#ds)"/><text style="font-size:12px;font-family:OpenSans;fill:#ffffff;" text-anchor="middle" x="57.500000" y="16.000000">Pep_M12B_propep</text></a></g>
<g transform="translate(456.842105,57.000000)"><a xlink:href="https://www.ebi.ac.uk/interpro/entry/pfam/PF01421" xlink:title="Reprolysin (M12B) family zinc metalloprotease"><rect fill="#FF5353" x="0" y="0" width="423.684211" height="24.000000" filter="url(#ds)"/><text style="font-size:12px;font-family:OpenSans;fill:#ffffff;" text-anchor="middle" x="211.842105" y="16.000000">Reprolysin (M12B) family zinc metalloprotease</text></a></g>
<g transform="translate(912.807018,57.000000)"><a xlink:href="https://www.ebi.ac.uk/interpro/entry/pfam/PF17771" xlink:title="ADAMTS cysteine-rich domain 2"><rect fill="#5B5BFF" x="0" y="0" width="137.192982" height="24.000000" filter="url(#ds)"/><text style="font-size:12px;font-family:OpenSans;fill:#ffffff;" text-anchor="middle" x="68.596491" y="16.000000">ADAMTS_CR_2</text></a></g>
<g transform="translate(1086.315789,57.000000)"><a xlink:href="https://www.ebi.ac.uk/interpro/entry/pfam/PF00090" xlink:title="Thrombospondin type 1 domain"><rect fill="#EBD61D" x="0" y="0" width="98.859649" height="24.000000" filter="url(#ds)"/><text style="font-size:12px;font-family:OpenSans;fill:#ffffff;" text-anchor="middle" x="49.429825" y="16.000000">TSP_1</text></a></g>
<g transform="translate(1243.684211,57.000000)"><a xlink:href="https://www.ebi.ac.uk/interpro/entry/pfam/PF19236" xlink:title="ADAMTS cysteine-rich domain"><rect fill="#BA21E0" x="0" y="0" width="161.403509" height="24.000000" filter="url(#ds)"/><text style="font-size:12px;font-family:OpenSans;fill:#ffffff;" text-anchor="middle" x="80.701754" y="16.000000">ADAMTS_CR_3</text></a></g>
<g transform="translate(1411.140351,57.000000)"><a xlink:href="https://www.ebi.ac.uk/interpro/entry/pfam/PF05986" xlink:title="ADAM-TS Spacer 1"><rect fill="#FF9C42" x="0" y="0" width="236.052632" height="24.000000" filter="url(#ds)"/><text style="font-size:12px;font-family:OpenSans;fill:#ffffff;" text-anchor="middle" x="118.026316" y="16.000000">ADAM-TS Spacer 1</text></a></g>
<g transform="translate(1701.666667,57.000000)"><a xlink:href="https://www.ebi.ac.uk/interpro/entry/pfam/PF19030" xlink:title="Thrombospondin type 1 domain"><rect fill="#FF7DFF" x="0" y="0" width="102.894737" height="24.000000" filter="url(#ds)"/><text style="font-size:12px;font-family:OpenSans;fill:#ffffff;" text-anchor="middle" x="51.447368" y="16.000000">TSP1_ADAMTS</text></a></g>
<g class="axis">
<line x1="15.000000" x2="1808.596491" y1="91.000000" y2="91.000000" stroke="#AAAAAA" /><line x1="15.000000" x2="15.000000" y1="91.000000" y2="96.000000" stroke="#AAAAAA" /><line x1="15.000000" x2="15.000000" y1="91.000000" y2="96.000000" stroke="#AAAAAA" /><text style="font-size:10px;font-family:OpenSans;fill:#000000;" text-anchor="middle" x="15.000000" y="106.000000">0</text><line x1="115.877193" x2="115.877193" y1="91.000000" y2="96.000000" stroke="#AAAAAA" /><text style="font-size:10px;font-family:OpenSans;fill:#000000;" text-anchor="middle" x="115.877193" y="106.000000">50</text><line x1="230.877193" x2="230.877193" y1="91.000000" y2="96.000000" stroke="#AAAAAA" /><text style="font-size:10px;font-family:OpenSans;fill:#000000;" text-anchor="middle" x="230.877193" y="106.000000">107</text><line x1="456.842105" x2="456.842105" y1="91.000000" y2="96.000000" stroke="#AAAAAA" /><text style="font-size:10px;font-family:OpenSans;fill:#000000;" text-anchor="middle" x="456.842105" y="106.000000">219</text><line x1="547.631579" x2="547.631579" y1="91.000000" y2="96.000000" stroke="#AAAAAA" /><text style="font-size:10px;font-family:OpenSans;fill:#000000;" text-anchor="middle" x="547.631579" y="106.000000">264</text><line x1="880.526316" x2="880.526316" y1="91.000000" y2="96.000000" stroke="#AAAAAA" /><text style="font-size:10px;font-family:OpenSans;fill:#000000;" text-anchor="middle" x="880.526316" y="106.000000">429</text><line x1="912.807018" x2="912.807018" y1="91.000000" y2="96.000000" stroke="#AAAAAA" /><text style="font-size:10px;font-family:OpenSans;fill:#000000;" text-anchor="middle" x="912.807018" y="106.000000">445</text><line x1="1050.000000" x2="1050.000000" y1="91.000000" y2="96.000000" stroke="#AAAAAA" /><text style="font-size:10px;font-family:OpenSans;fill:#000000;" text-anchor="middle" x="1050.000000" y="106.000000">513</text><line x1="1086.315789" x2="1086.315789" y1="91.000000" y2="96.000000" stroke="#AAAAAA" /><text style="font-size:10px;font-family:OpenSans;fill:#000000;" text-anchor="middle" x="1086.315789" y="106.000000">531</text><line x1="1185.175439" x2="1185.175439" y1="91.000000" y2="96.000000" stroke="#AAAAAA" /><text style="font-size:10px;font-family:OpenSans;fill:#000000;" text-anchor="middle" x="1185.175439" y="106.000000">580</text><line x1="1243.684211" x2="1243.684211" y1="91.000000" y2="96.000000" stroke="#AAAAAA" /><text style="font-size:10px;font-family:OpenSans;fill:#000000;" text-anchor="middle" x="1243.684211" y="106.000000">609</text><line x1="1405.087719" x2="1405.087719" y1="91.000000" y2="96.000000" stroke="#AAAAAA" /><text style="font-size:10px;font-family:OpenSans;fill:#000000;" text-anchor="middle" x="1405.087719" y="106.000000">689</text><line x1="1647.192982" x2="1647.192982" y1="91.000000" y2="96.000000" stroke="#AAAAAA" /><text style="font-size:10px;font-family:OpenSans;fill:#000000;" text-anchor="middle" x="1647.192982" y="106.000000">809</text><line x1="1701.666667" x2="1701.666667" y1="91.000000" y2="96.000000" stroke="#AAAAAA" /><text style="font-size:10px;font-family:OpenSans;fill:#000000;" text-anchor="middle" x="1701.666667" y="106.000000">836</text><line x1="1808.596491" x2="1808.596491" y1="91.000000" y2="96.000000" stroke="#AAAAAA" /><text style="font-size:10px;font-family:OpenSans;fill:#000000;" text-anchor="middle" x="1808.596491" y="106.000000">889</text></g>
<rect fill="#5B5BFF" x="4" y="120.000000" width="12" height="12" filter="url(#ds)"/><text style="font-size:12px;font-family:OpenSans;fill:#000000;" text-anchor="start" x="20" y="132.000000">ADAMTS cysteine-rich domain 2</text><rect fill="#FF7DFF" x="4" y="134.000000" width="12" height="12" filter="url(#ds)"/><text style="font-size:12px;font-family:OpenSans;fill:#000000;" text-anchor="start" x="20" y="146.000000">Thrombospondin type 1 domain</text><rect fill="#BA21E0" x="4" y="148.000000" width="12" height="12" filter="url(#ds)"/><text style="font-size:12px;font-family:OpenSans;fill:#000000;" text-anchor="start" x="20" y="160.000000">ADAMTS cysteine-rich domain</text><rect fill="#2DCF00" x="4" y="162.000000" width="12" height="12" filter="url(#ds)"/><text style="font-size:12px;font-family:OpenSans;fill:#000000;" text-anchor="start" x="20" y="174.000000">Reprolysin family propeptide</text></svg>
