<?xml version='1.0'?>
<svg xmlns="http://www.w3.org/2000/svg" xmlns:xlink="http://www.w3.org/1999/xlink" width="1137.066667" height="158.700000">
<defs>
  <filter id="ds" x="0" y="0">
    <feOffset in="SourceAlpha" dx="2" dy="2" />
    <feComponentTransfer><feFuncA type="linear" slope="0.2"/></feComponentTransfer>
    <feGaussianBlur result="blurOut" stdDeviation="1" />
    <feBlend in="SourceGraphic" in2="blurOut" mode="normal" />
  </filter>
  <pattern id="disordered-hatch" patternUnits="userSpaceOnUse" width="4" height="4">
    <path d="M-1,1 l2,-2 M0,4 l4,-4 M3,5 l2,-2" stroke="#000000" opacity="0.3" />
  </pattern>
</defs>
<line x1="25.733333" x2="25.733333" y1="46.500000" y2="74.500000" stroke="#BABDB6" stroke-width="2"/><a xlink:title="L7L"><circle cx="25.733333" cy="46.500000" r="4.000000" fill="#0000ff" /></a><g transform="translate(25.733333,46.500000) rotate(-30)"><text style="font-size:10px;font-family:OpenSans;fill:#555;" text-anchor="middle" x="0" y="-6.000000">L7L</text></g><line x1="31.866667" x2="31.866667" y1="46.500000" y2="74.500000" stroke="#BABDB6" stroke-width="2"/><a xlink:title="R11R"><circle cx="31.866667" cy="46.500000" r="4.000000" fill="#0000ff" /></a><g transform="translate(31.866667,46.500000) rotate(-30)"><text style="font-size:10px;font-family:OpenSans;fill:#555;" text-anchor="middle" x="0" y="-6.000000">R11R</text></g><line x1="134.600000" x2="134.600000" y1="46.500000" y2="74.500000" stroke="#BABDB6" stroke-width="2"/><a xlink:title="V78V"><circle cx="134.600000" cy="46.500000" r="4.000000" fill="#0000ff" /></a><g transform="translate(134.600000,46.500000) rotate(-30)"><text style="font-size:10px;font-family:OpenSans;fill:#555;" text-anchor="middle" x="0" y="-6.000000">V78V</text></g><line x1="140.733333" x2="140.733333" y1="46.500000" y2="74.500000" stroke="#BABDB6" stroke-width="2"/><a xlink:title="L82L"><circle cx="140.733333" cy="46.500000" r="4.000000" fill="#0000ff" /></a><g transform="translate(140.733333,46.500000) rotate(-30)"><text style="font-size:10px;font-family:OpenSans;fill:#555;" text-anchor="middle" x="0" y="-6.000000">L82L</text></g><line x1="160.666667" x2="160.666667" y1="34.000000" y2="74.500000" stroke="#BABDB6" stroke-width="2"/><a xlink:title="D95E"><circle cx="160.666667" cy="34.000000" r="4.000000" fill="#ff0000" /></a><g transform="translate(160.666667,34.000000) rotate(-30)"><text style="font-size:10px;font-family:OpenSans;fill:#555;" text-anchor="middle" x="0" y="-6.000000">D95E</text></g><line x1="163.733333" x2="163.733333" y1="46.500000" y2="74.500000" stroke="#BABDB6" stroke-width="2"/><a xlink:title="A97A"><circle cx="163.733333" cy="46.500000" r="4.000000" fill="#0000ff" /></a><g transform="translate(163.733333,46.500000) rotate(-30)"><text style="font-size:10px;font-family:OpenSans;fill:#555;" text-anchor="middle" x="0" y="-6.000000">A97A</text></g><line x1="188.266667" x2="188.266667" y1="46.500000" y2="74.500000" stroke="#BABDB6" stroke-width="2"/><a xlink:title="G113S"><circle cx="188.266667" cy="46.500000" r="4.000000" fill="#ff0000" /></a><g transform="translate(188.266667,46.500000) rotate(-30)"><text style="font-size:10px;font-family:OpenSans;fill:#555;" text-anchor="middle" x="0" y="-6.000000">G113S</text></g><line x1="212.800000" x2="212.800000" y1="46.500000" y2="74.500000" stroke="#BABDB6" stroke-width="2"/><a xlink:title="F129C"><circle cx="212.800000" cy="46.500000" r="4.000000" fill="#ff0000" /></a><g transform="translate(212.800000,46.500000) rotate(-30)"><text style="font-size:10px;font-family:OpenSans;fill:#555;" text-anchor="middle" x="0" y="-6.000000">F129C</text></g><line x1="258.800000" x2="258.800000" y1="46.500000" y2="74.500000" stroke="#BABDB6" stroke-width="2"/><a xlink:title="Y159Y"><circle cx="258.800000" cy="46.500000" r="4.000000" fill="#0000ff" /></a><g transform="translate(258.800000,46.500000) rotate(-30)"><text style="font-size:10px;font-family:OpenSans;fill:#555;" text-anchor="middle" x="0" y="-6.000000">Y159Y</text></g><line x1="340.066667" x2="340.066667" y1="46.500000" y2="74.500000" stroke="#BABDB6" stroke-width="2"/><a xlink:title="L212L"><circle cx="340.066667" cy="46.500000" r="4.000000" fill="#0000ff" /></a><g transform="translate(340.066667,46.500000) rotate(-30)"><text style="font-size:10px;font-family:OpenSans;fill:#555;" text-anchor="middle" x="0" y="-6.000000">L212L</text></g><line x1="393.733333" x2="393.733333" y1="46.500000" y2="74.500000" stroke="#BABDB6" stroke-width="2"/><a xlink:title="K247Q"><circle cx="393.733333" cy="46.500000" r="4.000000" fill="#ff0000" /></a><g transform="translate(393.733333,46.500000) rotate(-30)"><text style="font-size:10px;font-family:OpenSans;fill:#555;" text-anchor="middle" x="0" y="-6.000000">K247Q</text></g><line x1="433.600000" x2="433.600000" y1="46.500000" y2="74.500000" stroke="#BABDB6" stroke-width="2"/><a xlink:title="E273E"><circle cx="433.600000" cy="46.500000" r="4.000000" fill="#0000ff" /></a><g transform="translate(433.600000,46.500000) rotate(-30)"><text style="font-size:10px;font-family:OpenSans;fill:#555;" text-anchor="middle" x="0" y="-6.000000">E273E</text></g><line x1="468.866667" x2="468.866667" y1="46.500000" y2="74.500000" stroke="#BABDB6" stroke-width="2"/><a xlink:title="H296Y"><circle cx="468.866667" cy="46.500000" r="4.000000" fill="#ff0000" /></a><g transform="translate(468.866667,46.500000) rotate(-30)"><text style="font-size:10px;font-family:OpenSans;fill:#555;" text-anchor="middle" x="0" y="-6.000000">H296Y</text></g><line x1="498.000000" x2="498.000000" y1="46.500000" y2="74.500000" stroke="#BABDB6" stroke-width="2"/><a xlink:title="I315M"><circle cx="498.000000" cy="46.500000" r="4.000000" fill="#ff0000" /></a><g transform="translate(498.000000,46.500000) rotate(-30)"><text style="font-size:10px;font-family:OpenSans;fill:#555;" text-anchor="middle" x="0" y="-6.000000">I315M</text></g><line x1="547.066667" x2="547.066667" y1="46.500000" y2="74.500000" stroke="#BABDB6" stroke-width="2"/><a xlink:title="L347L"><circle cx="547.066667" cy="46.500000" r="4.000000" fill="#0000ff" /></a><g transform="translate(547.066667,46.500000) rotate(-30)"><text style="font-size:10px;font-family:OpenSans;fill:#555;" text-anchor="middle" x="0" y="-6.000000">L347L</text></g><line x1="672.800000" x2="672.800000" y1="46.500000" y2="74.500000" stroke="#BABDB6" stroke-width="2"/><a xlink:title="E429Q"><circle cx="672.800000" cy="46.500000" r="4.000000" fill="#ff0000" /></a><g transform="translate(672.800000,46.500000) rotate(-30)"><text style="font-size:10px;font-family:OpenSans;fill:#555;" text-anchor="middle" x="0" y="-6.000000">E429Q</text></g><line x1="755.600000" x2="755.600000" y1="46.500000" y2="74.500000" stroke="#BABDB6" stroke-width="2"/><a xlink:title="Q483Q"><circle cx="755.600000" cy="46.500000" r="4.000000" fill="#0000ff" /></a><g transform="translate(755.600000,46.500000) rotate(-30)"><text style="font-size:10px;font-family:OpenSans;fill:#555;" text-anchor="middle" x="0" y="-6.000000">Q483Q</text></g><line x1="833.800000" x2="833.800000" y1="46.500000" y2="74.500000" stroke="#BABDB6" stroke-width="2"/><a xlink:title="N534N"><circle cx="833.800000" cy="46.500000" r="4.000000" fill="#0000ff" /></a><g transform="translate(833.800000,46.500000) rotate(-30)"><text style="font-size:10px;font-family:OpenSans;fill:#555;" text-anchor="middle" x="0" y="-6.000000">N534N</text></g><a xlink:title=",  (722aa)"><rect fill="#BABDB6" x="15.000000" y="74.500000" width="1107.066667" height="14.000000"/></a><g transform="translate(77.866667,69.500000)"><a xlink:href="https://www.ebi.ac.uk/interpro/entry/pfam/PF01562" xlink:title="Reprolysin family propeptide"><rect fill="#2DCF00" x="0" y="0" width="115.000000" height="24.000000" filter="url(#ds)"/><text style="font-size:12px;font-family:OpenSans;fill:#ffffff;" text-anchor="middle" x="57.500000" y="16.000000">Pep_M12B_propep</text></a></g>
<g transform="translate(335.466667,69.500000)"><a xlink:href="https://www.ebi.ac.uk/interpro/entry/pfam/PF01421" xlink:title="Reprolysin (M12B) family zinc metalloprotease"><rect fill="#FF5353" x="0" y="0" width="289.800000" height="24.000000" filter="url(#ds)"/><text style="font-size:12px;font-family:OpenSans;fill:#ffffff;" text-anchor="middle" x="144.900000" y="16.000000">Reprolysin (M12B) family zinc metalloprotease</text></a></g>
<g transform="translate(651.333333,69.500000)"><a xlink:href="https://www.ebi.ac.uk/interpro/entry/pfam/PF00200" xlink:title="Disintegrin"><rect fill="#5B5BFF" x="0" y="0" width="110.400000" height="24.000000" filter="url(#ds)"/><text style="font-size:12px;font-family:OpenSans;fill:#ffffff;" text-anchor="middle" x="55.200000" y="16.000000">Disintegrin</text></a></g>
<g transform="translate(769.400000,69.500000)"><a xlink:href="https://www.ebi.ac.uk/interpro/entry/pfam/PF08516" xlink:title="ADAM cysteine-rich"><rect fill="#EBD61D" x="0" y="0" width="171.733333" height="24.000000" filter="url(#ds)"/><text style="font-size:12px;font-family:OpenSans;fill:#ffffff;" text-anchor="middle" x="85.866667" y="16.000000">ADAM cysteine-rich</text></a></g>
<g class="axis">
<line x1="15.000000" x2="1122.066667" y1="103.500000" y2="103.500000" stroke="#AAAAAA" /><line x1="15.000000" x2="15.000000" y1="103.500000" y2="108.500000" stroke="#AAAAAA" /><line x1="25.733333" x2="25.733333" y1="103.500000" y2="108.500000" stroke="#AAAAAA" /><text style="font-size:10px;font-family:OpenSans;fill:#000000;" text-anchor="middle" x="25.733333" y="118.500000">7</text><line x1="77.866667" x2="77.866667" y1="103.500000" y2="108.500000" stroke="#AAAAAA" /><text style="font-size:10px;font-family:OpenSans;fill:#000000;" text-anchor="middle" x="77.866667" y="118.500000">41</text><line x1="134.600000" x2="134.600000" y1="103.500000" y2="108.500000" stroke="#AAAAAA" /><text style="font-size:10px;font-family:OpenSans;fill:#000000;" text-anchor="middle" x="134.600000" y="118.500000">78</text><line x1="160.666667" x2="160.666667" y1="103.500000" y2="108.500000" stroke="#AAAAAA" /><text style="font-size:10px;font-family:OpenSans;fill:#000000;" text-anchor="middle" x="160.666667" y="118.500000">95</text><line x1="188.266667" x2="188.266667" y1="103.500000" y2="108.500000" stroke="#AAAAAA" /><text style="font-size:10px;font-family:OpenSans;fill:#000000;" text-anchor="middle" x="188.266667" y="118.500000">113</text><line x1="212.800000" x2="212.800000" y1="103.500000" y2="108.500000" stroke="#AAAAAA" /><text style="font-size:10px;font-family:OpenSans;fill:#000000;" text-anchor="middle" x="212.800000" y="118.500000">129</text><line x1="258.800000" x2="258.800000" y1="103.500000" y2="108.500000" stroke="#AAAAAA" /><text style="font-size:10px;font-family:OpenSans;fill:#000000;" text-anchor="middle" x="258.800000" y="118.500000">159</text><line x1="340.066667" x2="340.066667" y1="103.500000" y2="108.500000" stroke="#AAAAAA" /><text style="font-size:10px;font-family:OpenSans;fill:#000000;" text-anchor="middle" x="340.066667" y="118.500000">212</text><line x1="393.733333" x2="393.733333" y1="103.500000" y2="108.500000" stroke="#AAAAAA" /><text style="font-size:10px;font-family:OpenSans;fill:#000000;" text-anchor="middle" x="393.733333" y="118.500000">247</text><line x1="433.600000" x2="433.600000" y1="103.500000" y2="108.500000" stroke="#AAAAAA" /><text style="font-size:10px;font-family:OpenSans;fill:#000000;" text-anchor="middle" x="433.600000" y="118.500000">273</text><line x1="468.866667" x2="468.866667" y1="103.500000" y2="108.500000" stroke="#AAAAAA" /><text style="font-size:10px;font-family:OpenSans;fill:#000000;" text-anchor="middle" x="468.866667" y="118.500000">296</text><line x1="498.000000" x2="498.000000" y1="103.500000" y2="108.500000" stroke="#AAAAAA" /><text style="font-size:10px;font-family:OpenSans;fill:#000000;" text-anchor="middle" x="498.000000" y="118.500000">315</text><line x1="547.066667" x2="547.066667" y1="103.500000" y2="108.500000" stroke="#AAAAAA" /><text style="font-size:10px;font-family:OpenSans;fill:#000000;" text-anchor="middle" x="547.066667" y="118.500000">347</text><line x1="625.266667" x2="625.266667" y1="103.500000" y2="108.500000" stroke="#AAAAAA" /><text style="font-size:10px;font-family:OpenSans;fill:#000000;" text-anchor="middle" x="625.266667" y="118.500000">398</text><line x1="651.333333" x2="651.333333" y1="103.500000" y2="108.500000" stroke="#AAAAAA" /><text style="font-size:10px;font-family:OpenSans;fill:#000000;" text-anchor="middle" x="651.333333" y="118.500000">415</text><line x1="672.800000" x2="672.800000" y1="103.500000" y2="108.500000" stroke="#AAAAAA" /><text style="font-size:10px;font-family:OpenSans;fill:#000000;" text-anchor="middle" x="672.800000" y="118.500000">429</text><line x1="755.600000" x2="755.600000" y1="103.500000" y2="108.500000" stroke="#AAAAAA" /><text style="font-size:10px;font-family:OpenSans;fill:#000000;" text-anchor="middle" x="755.600000" y="118.500000">483</text><line x1="833.800000" x2="833.800000" y1="103.500000" y2="108.500000" stroke="#AAAAAA" /><text style="font-size:10px;font-family:OpenSans;fill:#000000;" text-anchor="middle" x="833.800000" y="118.500000">534</text><line x1="941.133333" x2="941.133333" y1="103.500000" y2="108.500000" stroke="#AAAAAA" /><text style="font-size:10px;font-family:OpenSans;fill:#000000;" text-anchor="middle" x="941.133333" y="118.500000">604</text><line x1="1122.066667" x2="1122.066667" y1="103.500000" y2="108.500000" stroke="#AAAAAA" /><text style="font-size:10px;font-family:OpenSans;fill:#000000;" text-anchor="middle" x="1122.066667" y="118.500000">722</text></g>
<rect fill="#2DCF00" x="4" y="132.500000" width="12" height="12" filter="url(#ds)"/><text style="font-size:12px;font-family:OpenSans;fill:#000000;" text-anchor="start" x="20" y="144.500000">Reprolysin family propeptide</text></svg>
