<?xml version='1.0'?>
<svg xmlns="http://www.w3.org/2000/svg" xmlns:xlink="http://www.w3.org/1999/xlink" width="1689.411765" height="159.400000">
<defs>
  <filter id="ds" x="0" y="0">
    <feOffset in="SourceAlpha" dx="2" dy="2" />
    <feComponentTransfer><feFuncA type="linear" slope="0.2"/></feComponentTransfer>
    <feGaussianBlur result="blurOut" stdDeviation="1" />
    <feBlend in="SourceGraphic" in2="blurOut" mode="normal" />
  </filter>
  <pattern id="disordered-hatch" patternUnits="userSpaceOnUse" width="4" height="4">
    <path d="M-1,1 l2,-2 M0,4 l4,-4 M3,5 l2,-2" stroke="#000000" opacity="0.3" />
  </pattern>
</defs>
<line x1="93.509804" x2="93.509804" y1="34.000000" y2="62.000000" stroke="#BABDB6" stroke-width="2"/><a xlink:title="R44S"><circle cx="93.509804" cy="34.000000" r="4.000000" fill="#ff0000" /></a><g transform="translate(93.509804,34.000000) rotate(-30)"><text style="font-size:10px;font-family:OpenSans;fill:#555;" text-anchor="middle" x="0" y="-6.000000">R44S</text></g><line x1="107.784314" x2="107.784314" y1="34.000000" y2="62.000000" stroke="#BABDB6" stroke-width="2"/><a xlink:title="Q52R"><circle cx="107.784314" cy="34.000000" r="4.000000" fill="#ff0000" /></a><g transform="translate(107.784314,34.000000) rotate(-30)"><text style="font-size:10px;font-family:OpenSans;fill:#555;" text-anchor="middle" x="0" y="-6.000000">Q52R</text></g><line x1="186.294118" x2="186.294118" y1="34.000000" y2="62.000000" stroke="#BABDB6" stroke-width="2"/><a xlink:title="R96R"><circle cx="186.294118" cy="34.000000" r="4.000000" fill="#0000ff" /></a><g transform="translate(186.294118,34.000000) rotate(-30)"><text style="font-size:10px;font-family:OpenSans;fill:#555;" text-anchor="middle" x="0" y="-6.000000">R96R</text></g><line x1="230.901961" x2="230.901961" y1="34.000000" y2="62.000000" stroke="#BABDB6" stroke-width="2"/><a xlink:title="S121R"><circle cx="230.901961" cy="34.000000" r="4.000000" fill="#ff0000" /></a><g transform="translate(230.901961,34.000000) rotate(-30)"><text style="font-size:10px;font-family:OpenSans;fill:#555;" text-anchor="middle" x="0" y="-6.000000">S121R</text></g><line x1="261.235294" x2="261.235294" y1="34.000000" y2="62.000000" stroke="#BABDB6" stroke-width="2"/><a xlink:title="G138A"><circle cx="261.235294" cy="34.000000" r="4.000000" fill="#ff0000" /></a><g transform="translate(261.235294,34.000000) rotate(-30)"><text style="font-size:10px;font-family:OpenSans;fill:#555;" text-anchor="middle" x="0" y="-6.000000">G138A</text></g><line x1="370.078431" x2="370.078431" y1="34.000000" y2="62.000000" stroke="#BABDB6" stroke-width="2"/><a xlink:title="S199G"><circle cx="370.078431" cy="34.000000" r="4.000000" fill="#ff0000" /></a><g transform="translate(370.078431,34.000000) rotate(-30)"><text style="font-size:10px;font-family:OpenSans;fill:#555;" text-anchor="middle" x="0" y="-6.000000">S199G</text></g><line x1="541.372549" x2="541.372549" y1="34.000000" y2="62.000000" stroke="#BABDB6" stroke-width="2"/><a xlink:title="A295T"><circle cx="541.372549" cy="34.000000" r="4.000000" fill="#ff0000" /></a><g transform="translate(541.372549,34.000000) rotate(-30)"><text style="font-size:10px;font-family:OpenSans;fill:#555;" text-anchor="middle" x="0" y="-6.000000">A295T</text></g><line x1="571.705882" x2="571.705882" y1="34.000000" y2="62.000000" stroke="#BABDB6" stroke-width="2"/><a xlink:title="R312L"><circle cx="571.705882" cy="34.000000" r="4.000000" fill="#ff0000" /></a><g transform="translate(571.705882,34.000000) rotate(-30)"><text style="font-size:10px;font-family:OpenSans;fill:#555;" text-anchor="middle" x="0" y="-6.000000">R312L</text></g><line x1="1010.647059" x2="1010.647059" y1="34.000000" y2="62.000000" stroke="#BABDB6" stroke-width="2"/><a xlink:title="R558H"><circle cx="1010.647059" cy="34.000000" r="4.000000" fill="#ff0000" /></a><g transform="translate(1010.647059,34.000000) rotate(-30)"><text style="font-size:10px;font-family:OpenSans;fill:#555;" text-anchor="middle" x="0" y="-6.000000">R558H</text></g><line x1="1110.568627" x2="1110.568627" y1="34.000000" y2="62.000000" stroke="#BABDB6" stroke-width="2"/><a xlink:title="R614H"><circle cx="1110.568627" cy="34.000000" r="4.000000" fill="#ff0000" /></a><g transform="translate(1110.568627,34.000000) rotate(-30)"><text style="font-size:10px;font-family:OpenSans;fill:#555;" text-anchor="middle" x="0" y="-6.000000">R614H</text></g><line x1="1149.823529" x2="1149.823529" y1="34.000000" y2="62.000000" stroke="#BABDB6" stroke-width="2"/><a xlink:title="L636P"><circle cx="1149.823529" cy="34.000000" r="4.000000" fill="#ff0000" /></a><g transform="translate(1149.823529,34.000000) rotate(-30)"><text style="font-size:10px;font-family:OpenSans;fill:#555;" text-anchor="middle" x="0" y="-6.000000">L636P</text></g><line x1="1249.745098" x2="1249.745098" y1="34.000000" y2="62.000000" stroke="#BABDB6" stroke-width="2"/><a xlink:title="L692P"><circle cx="1249.745098" cy="34.000000" r="4.000000" fill="#ff0000" /></a><g transform="translate(1249.745098,34.000000) rotate(-30)"><text style="font-size:10px;font-family:OpenSans;fill:#555;" text-anchor="middle" x="0" y="-6.000000">L692P</text></g><line x1="1458.509804" x2="1458.509804" y1="34.000000" y2="62.000000" stroke="#BABDB6" stroke-width="2"/><a xlink:title="H809H"><circle cx="1458.509804" cy="34.000000" r="4.000000" fill="#0000ff" /></a><g transform="translate(1458.509804,34.000000) rotate(-30)"><text style="font-size:10px;font-family:OpenSans;fill:#555;" text-anchor="middle" x="0" y="-6.000000">H809H</text></g><line x1="1558.431373" x2="1558.431373" y1="34.000000" y2="62.000000" stroke="#BABDB6" stroke-width="2"/><a xlink:title="H865H"><circle cx="1558.431373" cy="34.000000" r="4.000000" fill="#0000ff" /></a><g transform="translate(1558.431373,34.000000) rotate(-30)"><text style="font-size:10px;font-family:OpenSans;fill:#555;" text-anchor="middle" x="0" y="-6.000000">H865H</text></g><line x1="1567.352941" x2="1567.352941" y1="34.000000" y2="62.000000" stroke="#BABDB6" stroke-width="2"/><a xlink:title="L870L"><circle cx="1567.352941" cy="34.000000" r="4.000000" fill="#0000ff" /></a><g transform="translate(1567.352941,34.000000) rotate(-30)"><text style="font-size:10px;font-family:OpenSans;fill:#555;" text-anchor="middle" x="0" y="-6.000000">L870L</text></g><line x1="1667.274510" x2="1667.274510" y1="34.000000" y2="62.000000" stroke="#BABDB6" stroke-width="2"/><a xlink:title="L926L"><circle cx="1667.274510" cy="34.000000" r="4.000000" fill="#0000ff" /></a><g transform="translate(1667.274510,34.000000) rotate(-30)"><text style="font-size:10px;font-family:OpenSans;fill:#555;" text-anchor="middle" x="0" y="-6.000000">L926L</text></g><a xlink:title=",  (930aa)"><rect fill="#BABDB6" x="15.000000" y="62.000000" width="1659.411765" height="14.000000"/></a><g transform="translate(494.980392,57.000000)"><a xlink:href="https://www.ebi.ac.uk/interpro/entry/pfam/PF01421" xlink:title="Reprolysin (M12B) family zinc metalloprotease"><rect fill="#2DCF00" x="0" y="0" width="369.352941" height="24.000000" filter="url(#ds)"/><text style="font-size:12px;font-family:OpenSans;fill:#ffffff;" text-anchor="middle" x="184.676471" y="16.000000">Reprolysin (M12B) family zinc metalloprotease</text></a></g>
<g transform="translate(883.960784,57.000000)"><a xlink:href="https://www.ebi.ac.uk/interpro/entry/pfam/PF17771" xlink:title="ADAMTS cysteine-rich domain 2"><rect fill="#FF5353" x="0" y="0" width="119.549020" height="24.000000" filter="url(#ds)"/><text style="font-size:12px;font-family:OpenSans;fill:#ffffff;" text-anchor="middle" x="59.774510" y="16.000000">ADAMTS_CR_2</text></a></g>
<g transform="translate(1035.627451,57.000000)"><a xlink:href="https://www.ebi.ac.uk/interpro/entry/pfam/PF00090" xlink:title="Thrombospondin type 1 domain"><rect fill="#5B5BFF" x="0" y="0" width="87.431373" height="24.000000" filter="url(#ds)"/><text style="font-size:12px;font-family:OpenSans;fill:#ffffff;" text-anchor="middle" x="43.715686" y="16.000000">TSP_1</text></a></g>
<g transform="translate(1135.549020,57.000000)"><a xlink:href="https://www.ebi.ac.uk/interpro/entry/pfam/PF19236" xlink:title="ADAMTS cysteine-rich domain"><rect fill="#EBD61D" x="0" y="0" width="183.784314" height="24.000000" filter="url(#ds)"/><text style="font-size:12px;font-family:OpenSans;fill:#ffffff;" text-anchor="middle" x="91.892157" y="16.000000">ADAMTS cysteine-rich domain</text></a></g>
<g transform="translate(1324.686275,57.000000)"><a xlink:href="https://www.ebi.ac.uk/interpro/entry/pfam/PF05986" xlink:title="ADAM-TS Spacer 1"><rect fill="#BA21E0" x="0" y="0" width="210.549020" height="24.000000" filter="url(#ds)"/><text style="font-size:12px;font-family:OpenSans;fill:#ffffff;" text-anchor="middle" x="105.274510" y="16.000000">ADAM-TS Spacer 1</text></a></g>
<g transform="translate(1583.411765,57.000000)"><a xlink:href="https://www.ebi.ac.uk/interpro/entry/pfam/PF19030" xlink:title="Thrombospondin type 1 domain"><rect fill="#FF9C42" x="0" y="0" width="91.000000" height="24.000000" filter="url(#ds)"/><text style="font-size:12px;font-family:OpenSans;fill:#ffffff;" text-anchor="middle" x="45.500000" y="16.000000">TSP1_ADAMTS</text></a></g>
<g class="axis">
<line x1="15.000000" x2="1674.411765" y1="91.000000" y2="91.000000" stroke="#AAAAAA" /><line x1="15.000000" x2="15.000000" y1="91.000000" y2="96.000000" stroke="#AAAAAA" /><line x1="15.000000" x2="15.000000" y1="91.000000" y2="96.000000" stroke="#AAAAAA" /><text style="font-size:10px;font-family:OpenSans;fill:#000000;" text-anchor="middle" x="15.000000" y="106.000000">0</text><line x1="93.509804" x2="93.509804" y1="91.000000" y2="96.000000" stroke="#AAAAAA" /><text style="font-size:10px;font-family:OpenSans;fill:#000000;" text-anchor="middle" x="93.509804" y="106.000000">44</text><line x1="186.294118" x2="186.294118" y1="91.000000" y2="96.000000" stroke="#AAAAAA" /><text style="font-size:10px;font-family:OpenSans;fill:#000000;" text-anchor="middle" x="186.294118" y="106.000000">96</text><line x1="230.901961" x2="230.901961" y1="91.000000" y2="96.000000" stroke="#AAAAAA" /><text style="font-size:10px;font-family:OpenSans;fill:#000000;" text-anchor="middle" x="230.901961" y="106.000000">121</text><line x1="261.235294" x2="261.235294" y1="91.000000" y2="96.000000" stroke="#AAAAAA" /><text style="font-size:10px;font-family:OpenSans;fill:#000000;" text-anchor="middle" x="261.235294" y="106.000000">138</text><line x1="370.078431" x2="370.078431" y1="91.000000" y2="96.000000" stroke="#AAAAAA" /><text style="font-size:10px;font-family:OpenSans;fill:#000000;" text-anchor="middle" x="370.078431" y="106.000000">199</text><line x1="494.980392" x2="494.980392" y1="91.000000" y2="96.000000" stroke="#AAAAAA" /><text style="font-size:10px;font-family:OpenSans;fill:#000000;" text-anchor="middle" x="494.980392" y="106.000000">269</text><line x1="541.372549" x2="541.372549" y1="91.000000" y2="96.000000" stroke="#AAAAAA" /><text style="font-size:10px;font-family:OpenSans;fill:#000000;" text-anchor="middle" x="541.372549" y="106.000000">295</text><line x1="571.705882" x2="571.705882" y1="91.000000" y2="96.000000" stroke="#AAAAAA" /><text style="font-size:10px;font-family:OpenSans;fill:#000000;" text-anchor="middle" x="571.705882" y="106.000000">312</text><line x1="864.333333" x2="864.333333" y1="91.000000" y2="96.000000" stroke="#AAAAAA" /><text style="font-size:10px;font-family:OpenSans;fill:#000000;" text-anchor="middle" x="864.333333" y="106.000000">476</text><line x1="883.960784" x2="883.960784" y1="91.000000" y2="96.000000" stroke="#AAAAAA" /><text style="font-size:10px;font-family:OpenSans;fill:#000000;" text-anchor="middle" x="883.960784" y="106.000000">487</text><line x1="1010.647059" x2="1010.647059" y1="91.000000" y2="96.000000" stroke="#AAAAAA" /><text style="font-size:10px;font-family:OpenSans;fill:#000000;" text-anchor="middle" x="1010.647059" y="106.000000">558</text><line x1="1035.627451" x2="1035.627451" y1="91.000000" y2="96.000000" stroke="#AAAAAA" /><text style="font-size:10px;font-family:OpenSans;fill:#000000;" text-anchor="middle" x="1035.627451" y="106.000000">572</text><line x1="1110.568627" x2="1110.568627" y1="91.000000" y2="96.000000" stroke="#AAAAAA" /><text style="font-size:10px;font-family:OpenSans;fill:#000000;" text-anchor="middle" x="1110.568627" y="106.000000">614</text><line x1="1149.823529" x2="1149.823529" y1="91.000000" y2="96.000000" stroke="#AAAAAA" /><text style="font-size:10px;font-family:OpenSans;fill:#000000;" text-anchor="middle" x="1149.823529" y="106.000000">636</text><line x1="1249.745098" x2="1249.745098" y1="91.000000" y2="96.000000" stroke="#AAAAAA" /><text style="font-size:10px;font-family:OpenSans;fill:#000000;" text-anchor="middle" x="1249.745098" y="106.000000">692</text><line x1="1319.333333" x2="1319.333333" y1="91.000000" y2="96.000000" stroke="#AAAAAA" /><text style="font-size:10px;font-family:OpenSans;fill:#000000;" text-anchor="middle" x="1319.333333" y="106.000000">731</text><line x1="1458.509804" x2="1458.509804" y1="91.000000" y2="96.000000" stroke="#AAAAAA" /><text style="font-size:10px;font-family:OpenSans;fill:#000000;" text-anchor="middle" x="1458.509804" y="106.000000">809</text><line x1="1535.235294" x2="1535.235294" y1="91.000000" y2="96.000000" stroke="#AAAAAA" /><text style="font-size:10px;font-family:OpenSans;fill:#000000;" text-anchor="middle" x="1535.235294" y="106.000000">852</text><line x1="1558.431373" x2="1558.431373" y1="91.000000" y2="96.000000" stroke="#AAAAAA" /><text style="font-size:10px;font-family:OpenSans;fill:#000000;" text-anchor="middle" x="1558.431373" y="106.000000">865</text><line x1="1583.411765" x2="1583.411765" y1="91.000000" y2="96.000000" stroke="#AAAAAA" /><text style="font-size:10px;font-family:OpenSans;fill:#000000;" text-anchor="middle" x="1583.411765" y="106.000000">879</text><line x1="1674.411765" x2="1674.411765" y1="91.000000" y2="96.000000" stroke="#AAAAAA" /><text style="font-size:10px;font-family:OpenSans;fill:#000000;" text-anchor="middle" x="1674.411765" y="106.000000">930</text></g>
<rect fill="#FF5353" x="4" y="120.000000" width="12" height="12" filter="url(#ds)"/><text style="font-size:12px;font-family:OpenSans;fill:#000000;" text-anchor="start" x="20" y="132.000000">ADAMTS cysteine-rich domain 2</text><rect fill="#FF9C42" x="4" y="134.000000" width="12" height="12" filter="url(#ds)"/><text style="font-size:12px;font-family:OpenSans;fill:#000000;" text-anchor="start" x="20" y="146.000000">Thrombospondin type 1 domain</text></svg>
