<?xml version='1.0'?>
<svg xmlns="http://www.w3.org/2000/svg" xmlns:xlink="http://www.w3.org/1999/xlink" width="2466.777778" height="172.600000">
<defs>
  <filter id="ds" x="0" y="0">
    <feOffset in="SourceAlpha" dx="2" dy="2" />
    <feComponentTransfer><feFuncA type="linear" slope="0.2"/></feComponentTransfer>
    <feGaussianBlur result="blurOut" stdDeviation="1" />
    <feBlend in="SourceGraphic" in2="blurOut" mode="normal" />
  </filter>
  <pattern id="disordered-hatch" patternUnits="userSpaceOnUse" width="4" height="4">
    <path d="M-1,1 l2,-2 M0,4 l4,-4 M3,5 l2,-2" stroke="#000000" opacity="0.3" />
  </pattern>
</defs>
<line x1="795.577778" x2="795.577778" y1="34.000000" y2="62.000000" stroke="#BABDB6" stroke-width="2"/><a xlink:title="R386R"><circle cx="795.577778" cy="34.000000" r="4.000000" fill="#0000ff" /></a><g transform="translate(795.577778,34.000000) rotate(-30)"><text style="font-size:10px;font-family:OpenSans;fill:#555;" text-anchor="middle" x="0" y="-6.000000">R386R</text></g><line x1="813.777778" x2="813.777778" y1="34.000000" y2="62.000000" stroke="#BABDB6" stroke-width="2"/><a xlink:title="R395R"><circle cx="813.777778" cy="34.000000" r="4.000000" fill="#0000ff" /></a><g transform="translate(813.777778,34.000000) rotate(-30)"><text style="font-size:10px;font-family:OpenSans;fill:#555;" text-anchor="middle" x="0" y="-6.000000">R395R</text></g><line x1="852.200000" x2="852.200000" y1="34.000000" y2="62.000000" stroke="#BABDB6" stroke-width="2"/><a xlink:title="R414R"><circle cx="852.200000" cy="34.000000" r="4.000000" fill="#0000ff" /></a><g transform="translate(852.200000,34.000000) rotate(-30)"><text style="font-size:10px;font-family:OpenSans;fill:#555;" text-anchor="middle" x="0" y="-6.000000">R414R</text></g><a xlink:title=",  (1205aa)"><rect fill="#BABDB6" x="15.000000" y="62.000000" width="2436.777778" height="14.000000"/></a><g transform="translate(101.955556,57.000000)"><a xlink:href="https://www.ebi.ac.uk/interpro/entry/pfam/PF01562" xlink:title="Reprolysin family propeptide"><rect fill="#2DCF00" x="0" y="0" width="220.422222" height="24.000000" filter="url(#ds)"/><text style="font-size:12px;font-family:OpenSans;fill:#ffffff;" text-anchor="middle" x="110.211111" y="16.000000">Reprolysin family propeptide</text></a></g>
<g transform="translate(548.866667,57.000000)"><a xlink:href="https://www.ebi.ac.uk/interpro/entry/pfam/PF01421" xlink:title="Reprolysin (M12B) family zinc metalloprotease"><rect fill="#FF5353" x="0" y="0" width="396.355556" height="24.000000" filter="url(#ds)"/><text style="font-size:12px;font-family:OpenSans;fill:#ffffff;" text-anchor="middle" x="198.177778" y="16.000000">Reprolysin (M12B) family zinc metalloprotease</text></a></g>
<g transform="translate(969.488889,57.000000)"><a xlink:href="https://www.ebi.ac.uk/interpro/entry/pfam/PF17771" xlink:title="ADAMTS cysteine-rich domain 2"><rect fill="#5B5BFF" x="0" y="0" width="139.533333" height="24.000000" filter="url(#ds)"/><text style="font-size:12px;font-family:OpenSans;fill:#ffffff;" text-anchor="middle" x="69.766667" y="16.000000">ADAMTS_CR_2</text></a></g>
<g transform="translate(1139.355556,57.000000)"><a xlink:href="https://www.ebi.ac.uk/interpro/entry/pfam/PF00090" xlink:title="Thrombospondin type 1 domain"><rect fill="#EBD61D" x="0" y="0" width="99.088889" height="24.000000" filter="url(#ds)"/><text style="font-size:12px;font-family:OpenSans;fill:#ffffff;" text-anchor="middle" x="49.544444" y="16.000000">TSP_1</text></a></g>
<g transform="translate(1305.177778,57.000000)"><a xlink:href="https://www.ebi.ac.uk/interpro/entry/pfam/PF19236" xlink:title="ADAMTS cysteine-rich domain"><rect fill="#BA21E0" x="0" y="0" width="149.644444" height="24.000000" filter="url(#ds)"/><text style="font-size:12px;font-family:OpenSans;fill:#ffffff;" text-anchor="middle" x="74.822222" y="16.000000">ADAMTS_CR_3</text></a></g>
<g transform="translate(1458.866667,57.000000)"><a xlink:href="https://www.ebi.ac.uk/interpro/entry/pfam/PF05986" xlink:title="ADAM-TS Spacer 1"><rect fill="#FF9C42" x="0" y="0" width="228.511111" height="24.000000" filter="url(#ds)"/><text style="font-size:12px;font-family:OpenSans;fill:#ffffff;" text-anchor="middle" x="114.255556" y="16.000000">ADAM-TS Spacer 1</text></a></g>
<g transform="translate(1731.866667,57.000000)"><a xlink:href="https://www.ebi.ac.uk/interpro/entry/pfam/PF19030" xlink:title="Thrombospondin type 1 domain"><rect fill="#FF7DFF" x="0" y="0" width="111.222222" height="24.000000" filter="url(#ds)"/><text style="font-size:12px;font-family:OpenSans;fill:#ffffff;" text-anchor="middle" x="55.611111" y="16.000000">TSP1_ADAMTS</text></a></g>
<g transform="translate(1853.200000,57.000000)"><a xlink:href="https://www.ebi.ac.uk/interpro/entry/pfam/PF19030" xlink:title="Thrombospondin type 1 domain"><rect fill="#B9264F" x="0" y="0" width="115.266667" height="24.000000" filter="url(#ds)"/><text style="font-size:12px;font-family:OpenSans;fill:#ffffff;" text-anchor="middle" x="57.633333" y="16.000000">TSP1_ADAMTS</text></a></g>
<g transform="translate(1976.555556,57.000000)"><a xlink:href="https://www.ebi.ac.uk/interpro/entry/pfam/PF19030" xlink:title="Thrombospondin type 1 domain"><rect fill="#BABA21" x="0" y="0" width="91.000000" height="24.000000" filter="url(#ds)"/><text style="font-size:12px;font-family:OpenSans;fill:#ffffff;" text-anchor="middle" x="45.500000" y="16.000000">TSP1_ADAMTS</text></a></g>
<g class="axis">
<line x1="15.000000" x2="2451.777778" y1="91.000000" y2="91.000000" stroke="#AAAAAA" /><line x1="15.000000" x2="15.000000" y1="91.000000" y2="96.000000" stroke="#AAAAAA" /><line x1="15.000000" x2="15.000000" y1="91.000000" y2="96.000000" stroke="#AAAAAA" /><text style="font-size:10px;font-family:OpenSans;fill:#000000;" text-anchor="middle" x="15.000000" y="106.000000">0</text><line x1="101.955556" x2="101.955556" y1="91.000000" y2="96.000000" stroke="#AAAAAA" /><text style="font-size:10px;font-family:OpenSans;fill:#000000;" text-anchor="middle" x="101.955556" y="106.000000">43</text><line x1="322.377778" x2="322.377778" y1="91.000000" y2="96.000000" stroke="#AAAAAA" /><text style="font-size:10px;font-family:OpenSans;fill:#000000;" text-anchor="middle" x="322.377778" y="106.000000">152</text><line x1="548.866667" x2="548.866667" y1="91.000000" y2="96.000000" stroke="#AAAAAA" /><text style="font-size:10px;font-family:OpenSans;fill:#000000;" text-anchor="middle" x="548.866667" y="106.000000">264</text><line x1="795.577778" x2="795.577778" y1="91.000000" y2="96.000000" stroke="#AAAAAA" /><text style="font-size:10px;font-family:OpenSans;fill:#000000;" text-anchor="middle" x="795.577778" y="106.000000">386</text><line x1="813.777778" x2="813.777778" y1="91.000000" y2="96.000000" stroke="#AAAAAA" /><text style="font-size:10px;font-family:OpenSans;fill:#000000;" text-anchor="middle" x="813.777778" y="106.000000">395</text><line x1="852.200000" x2="852.200000" y1="91.000000" y2="96.000000" stroke="#AAAAAA" /><text style="font-size:10px;font-family:OpenSans;fill:#000000;" text-anchor="middle" x="852.200000" y="106.000000">414</text><line x1="945.222222" x2="945.222222" y1="91.000000" y2="96.000000" stroke="#AAAAAA" /><text style="font-size:10px;font-family:OpenSans;fill:#000000;" text-anchor="middle" x="945.222222" y="106.000000">460</text><line x1="969.488889" x2="969.488889" y1="91.000000" y2="96.000000" stroke="#AAAAAA" /><text style="font-size:10px;font-family:OpenSans;fill:#000000;" text-anchor="middle" x="969.488889" y="106.000000">472</text><line x1="1109.022222" x2="1109.022222" y1="91.000000" y2="96.000000" stroke="#AAAAAA" /><text style="font-size:10px;font-family:OpenSans;fill:#000000;" text-anchor="middle" x="1109.022222" y="106.000000">541</text><line x1="1139.355556" x2="1139.355556" y1="91.000000" y2="96.000000" stroke="#AAAAAA" /><text style="font-size:10px;font-family:OpenSans;fill:#000000;" text-anchor="middle" x="1139.355556" y="106.000000">556</text><line x1="1238.444444" x2="1238.444444" y1="91.000000" y2="96.000000" stroke="#AAAAAA" /><text style="font-size:10px;font-family:OpenSans;fill:#000000;" text-anchor="middle" x="1238.444444" y="106.000000">605</text><line x1="1305.177778" x2="1305.177778" y1="91.000000" y2="96.000000" stroke="#AAAAAA" /><text style="font-size:10px;font-family:OpenSans;fill:#000000;" text-anchor="middle" x="1305.177778" y="106.000000">638</text><line x1="1454.822222" x2="1454.822222" y1="91.000000" y2="96.000000" stroke="#AAAAAA" /><text style="font-size:10px;font-family:OpenSans;fill:#000000;" text-anchor="middle" x="1454.822222" y="106.000000">712</text><line x1="1687.377778" x2="1687.377778" y1="91.000000" y2="96.000000" stroke="#AAAAAA" /><text style="font-size:10px;font-family:OpenSans;fill:#000000;" text-anchor="middle" x="1687.377778" y="106.000000">827</text><line x1="1731.866667" x2="1731.866667" y1="91.000000" y2="96.000000" stroke="#AAAAAA" /><text style="font-size:10px;font-family:OpenSans;fill:#000000;" text-anchor="middle" x="1731.866667" y="106.000000">849</text><line x1="1843.088889" x2="1843.088889" y1="91.000000" y2="96.000000" stroke="#AAAAAA" /><text style="font-size:10px;font-family:OpenSans;fill:#000000;" text-anchor="middle" x="1843.088889" y="106.000000">904</text><line x1="1968.466667" x2="1968.466667" y1="91.000000" y2="96.000000" stroke="#AAAAAA" /><text style="font-size:10px;font-family:OpenSans;fill:#000000;" text-anchor="middle" x="1968.466667" y="106.000000">966</text><line x1="2067.555556" x2="2067.555556" y1="91.000000" y2="96.000000" stroke="#AAAAAA" /><text style="font-size:10px;font-family:OpenSans;fill:#000000;" text-anchor="middle" x="2067.555556" y="106.000000">1015</text><line x1="2451.777778" x2="2451.777778" y1="91.000000" y2="96.000000" stroke="#AAAAAA" /><text style="font-size:10px;font-family:OpenSans;fill:#000000;" text-anchor="middle" x="2451.777778" y="106.000000">1205</text></g>
<rect fill="#5B5BFF" x="4" y="120.000000" width="12" height="12" filter="url(#ds)"/><text style="font-size:12px;font-family:OpenSans;fill:#000000;" text-anchor="start" x="20" y="132.000000">ADAMTS cysteine-rich domain 2</text><rect fill="#BABA21" x="4" y="134.000000" width="12" height="12" filter="url(#ds)"/><text style="font-size:12px;font-family:OpenSans;fill:#000000;" text-anchor="start" x="20" y="146.000000">Thrombospondin type 1 domain</text><rect fill="#BA21E0" x="4" y="148.000000" width="12" height="12" filter="url(#ds)"/><text style="font-size:12px;font-family:OpenSans;fill:#000000;" text-anchor="start" x="20" y="160.000000">ADAMTS cysteine-rich domain</text></svg>
