<?xml version='1.0'?>
<svg xmlns="http://www.w3.org/2000/svg" xmlns:xlink="http://www.w3.org/1999/xlink" width="633.265306" height="158.700000">
<defs>
  <filter id="ds" x="0" y="0">
    <feOffset in="SourceAlpha" dx="2" dy="2" />
    <feComponentTransfer><feFuncA type="linear" slope="0.2"/></feComponentTransfer>
    <feGaussianBlur result="blurOut" stdDeviation="1" />
    <feBlend in="SourceGraphic" in2="blurOut" mode="normal" />
  </filter>
  <pattern id="disordered-hatch" patternUnits="userSpaceOnUse" width="4" height="4">
    <path d="M-1,1 l2,-2 M0,4 l4,-4 M3,5 l2,-2" stroke="#000000" opacity="0.3" />
  </pattern>
</defs>
<line x1="50.918367" x2="50.918367" y1="46.500000" y2="74.500000" stroke="#BABDB6" stroke-width="2"/><a xlink:title="A44T"><circle cx="50.918367" cy="46.500000" r="4.000000" fill="#ff0000" /></a><g transform="translate(50.918367,46.500000) rotate(-30)"><text style="font-size:10px;font-family:OpenSans;fill:#555;" text-anchor="middle" x="0" y="-6.000000">A44T</text></g><line x1="81.122449" x2="81.122449" y1="46.500000" y2="74.500000" stroke="#BABDB6" stroke-width="2"/><a xlink:title="R81R"><circle cx="81.122449" cy="46.500000" r="4.000000" fill="#0000ff" /></a><g transform="translate(81.122449,46.500000) rotate(-30)"><text style="font-size:10px;font-family:OpenSans;fill:#555;" text-anchor="middle" x="0" y="-6.000000">R81R</text></g><line x1="89.285714" x2="89.285714" y1="46.500000" y2="74.500000" stroke="#BABDB6" stroke-width="2"/><a xlink:title="G91S"><circle cx="89.285714" cy="46.500000" r="4.000000" fill="#ff0000" /></a><g transform="translate(89.285714,46.500000) rotate(-30)"><text style="font-size:10px;font-family:OpenSans;fill:#555;" text-anchor="middle" x="0" y="-6.000000">G91S</text></g><line x1="185.612245" x2="185.612245" y1="46.500000" y2="74.500000" stroke="#BABDB6" stroke-width="2"/><a xlink:title="G209G"><circle cx="185.612245" cy="46.500000" r="4.000000" fill="#0000ff" /></a><g transform="translate(185.612245,46.500000) rotate(-30)"><text style="font-size:10px;font-family:OpenSans;fill:#555;" text-anchor="middle" x="0" y="-6.000000">G209G</text></g><line x1="235.408163" x2="235.408163" y1="46.500000" y2="74.500000" stroke="#BABDB6" stroke-width="2"/><a xlink:title="T270A"><circle cx="235.408163" cy="46.500000" r="4.000000" fill="#ff0000" /></a><g transform="translate(235.408163,46.500000) rotate(-30)"><text style="font-size:10px;font-family:OpenSans;fill:#555;" text-anchor="middle" x="0" y="-6.000000">T270A</text></g><line x1="341.530612" x2="341.530612" y1="46.500000" y2="74.500000" stroke="#BABDB6" stroke-width="2"/><a xlink:title="D400N"><circle cx="341.530612" cy="46.500000" r="4.000000" fill="#ff0000" /></a><g transform="translate(341.530612,46.500000) rotate(-30)"><text style="font-size:10px;font-family:OpenSans;fill:#555;" text-anchor="middle" x="0" y="-6.000000">D400N</text></g><line x1="526.020408" x2="526.020408" y1="46.500000" y2="74.500000" stroke="#BABDB6" stroke-width="2"/><a xlink:title="A626T"><circle cx="526.020408" cy="46.500000" r="4.000000" fill="#ff0000" /></a><g transform="translate(526.020408,46.500000) rotate(-30)"><text style="font-size:10px;font-family:OpenSans;fill:#555;" text-anchor="middle" x="0" y="-6.000000">A626T</text></g><line x1="539.897959" x2="539.897959" y1="34.000000" y2="74.500000" stroke="#BABDB6" stroke-width="2"/><a xlink:title="V643M"><circle cx="539.897959" cy="34.000000" r="4.000000" fill="#ff0000" /></a><g transform="translate(539.897959,34.000000) rotate(-30)"><text style="font-size:10px;font-family:OpenSans;fill:#555;" text-anchor="middle" x="0" y="-6.000000">V643M</text></g><line x1="542.346939" x2="542.346939" y1="46.500000" y2="74.500000" stroke="#BABDB6" stroke-width="2"/><a xlink:title="A646A"><circle cx="542.346939" cy="46.500000" r="4.000000" fill="#0000ff" /></a><g transform="translate(542.346939,46.500000) rotate(-30)"><text style="font-size:10px;font-family:OpenSans;fill:#555;" text-anchor="middle" x="0" y="-6.000000">A646A</text></g><line x1="551.326531" x2="551.326531" y1="46.500000" y2="74.500000" stroke="#BABDB6" stroke-width="2"/><a xlink:title="R657Q"><circle cx="551.326531" cy="46.500000" r="4.000000" fill="#ff0000" /></a><g transform="translate(551.326531,46.500000) rotate(-30)"><text style="font-size:10px;font-family:OpenSans;fill:#555;" text-anchor="middle" x="0" y="-6.000000">R657Q</text></g><line x1="566.836735" x2="566.836735" y1="46.500000" y2="74.500000" stroke="#BABDB6" stroke-width="2"/><a xlink:title="A676A"><circle cx="566.836735" cy="46.500000" r="4.000000" fill="#0000ff" /></a><g transform="translate(566.836735,46.500000) rotate(-30)"><text style="font-size:10px;font-family:OpenSans;fill:#555;" text-anchor="middle" x="0" y="-6.000000">A676A</text></g><a xlink:title=",  (739aa)"><rect fill="#BABDB6" x="15.000000" y="74.500000" width="603.265306" height="14.000000"/></a><g transform="translate(124.387755,69.500000)"><a xlink:href="https://www.ebi.ac.uk/interpro/entry/pfam/PF00035" xlink:title="Double-stranded RNA binding motif"><rect fill="#2DCF00" x="0" y="0" width="43.265306" height="24.000000" filter="url(#ds)"/><text style="font-size:12px;font-family:OpenSans;fill:#ffffff;" text-anchor="middle" x="21.632653" y="16.000000">dsrm</text></a></g>
<g transform="translate(251.734694,69.500000)"><a xlink:href="https://www.ebi.ac.uk/interpro/entry/pfam/PF00035" xlink:title="Double-stranded RNA binding motif"><rect fill="#FF5353" x="0" y="0" width="40.000000" height="24.000000" filter="url(#ds)"/><text style="font-size:12px;font-family:OpenSans;fill:#ffffff;" text-anchor="middle" x="20.000000" y="16.000000">dsrm</text></a></g>
<g transform="translate(348.061224,69.500000)"><a xlink:href="https://www.ebi.ac.uk/interpro/entry/pfam/PF02137" xlink:title="Adenosine-deaminase (editase) domain"><rect fill="#5B5BFF" x="0" y="0" width="262.040816" height="24.000000" filter="url(#ds)"/><text style="font-size:12px;font-family:OpenSans;fill:#ffffff;" text-anchor="middle" x="131.020408" y="16.000000">Adenosine-deaminase (editase) domain</text></a></g>
<g class="axis">
<line x1="15.000000" x2="618.265306" y1="103.500000" y2="103.500000" stroke="#AAAAAA" /><line x1="15.000000" x2="15.000000" y1="103.500000" y2="108.500000" stroke="#AAAAAA" /><line x1="15.000000" x2="15.000000" y1="103.500000" y2="108.500000" stroke="#AAAAAA" /><text style="font-size:10px;font-family:OpenSans;fill:#000000;" text-anchor="middle" x="15.000000" y="118.500000">0</text><line x1="50.918367" x2="50.918367" y1="103.500000" y2="108.500000" stroke="#AAAAAA" /><text style="font-size:10px;font-family:OpenSans;fill:#000000;" text-anchor="middle" x="50.918367" y="118.500000">44</text><line x1="81.122449" x2="81.122449" y1="103.500000" y2="108.500000" stroke="#AAAAAA" /><text style="font-size:10px;font-family:OpenSans;fill:#000000;" text-anchor="middle" x="81.122449" y="118.500000">81</text><line x1="124.387755" x2="124.387755" y1="103.500000" y2="108.500000" stroke="#AAAAAA" /><text style="font-size:10px;font-family:OpenSans;fill:#000000;" text-anchor="middle" x="124.387755" y="118.500000">134</text><line x1="185.612245" x2="185.612245" y1="103.500000" y2="108.500000" stroke="#AAAAAA" /><text style="font-size:10px;font-family:OpenSans;fill:#000000;" text-anchor="middle" x="185.612245" y="118.500000">209</text><line x1="235.408163" x2="235.408163" y1="103.500000" y2="108.500000" stroke="#AAAAAA" /><text style="font-size:10px;font-family:OpenSans;fill:#000000;" text-anchor="middle" x="235.408163" y="118.500000">270</text><line x1="291.734694" x2="291.734694" y1="103.500000" y2="108.500000" stroke="#AAAAAA" /><text style="font-size:10px;font-family:OpenSans;fill:#000000;" text-anchor="middle" x="291.734694" y="118.500000">339</text><line x1="341.530612" x2="341.530612" y1="103.500000" y2="108.500000" stroke="#AAAAAA" /><text style="font-size:10px;font-family:OpenSans;fill:#000000;" text-anchor="middle" x="341.530612" y="118.500000">400</text><line x1="526.020408" x2="526.020408" y1="103.500000" y2="108.500000" stroke="#AAAAAA" /><text style="font-size:10px;font-family:OpenSans;fill:#000000;" text-anchor="middle" x="526.020408" y="118.500000">626</text><line x1="551.326531" x2="551.326531" y1="103.500000" y2="108.500000" stroke="#AAAAAA" /><text style="font-size:10px;font-family:OpenSans;fill:#000000;" text-anchor="middle" x="551.326531" y="118.500000">657</text><line x1="618.265306" x2="618.265306" y1="103.500000" y2="108.500000" stroke="#AAAAAA" /><text style="font-size:10px;font-family:OpenSans;fill:#000000;" text-anchor="middle" x="618.265306" y="118.500000">739</text></g>
<rect fill="#FF5353" x="4" y="132.500000" width="12" height="12" filter="url(#ds)"/><text style="font-size:12px;font-family:OpenSans;fill:#000000;" text-anchor="start" x="20" y="144.500000">Double-stranded RNA binding motif</text></svg>
