<?xml version='1.0'?>
<svg xmlns="http://www.w3.org/2000/svg" xmlns:xlink="http://www.w3.org/1999/xlink" width="800.545455" height="185.100000">
<defs>
  <filter id="ds" x="0" y="0">
    <feOffset in="SourceAlpha" dx="2" dy="2" />
    <feComponentTransfer><feFuncA type="linear" slope="0.2"/></feComponentTransfer>
    <feGaussianBlur result="blurOut" stdDeviation="1" />
    <feBlend in="SourceGraphic" in2="blurOut" mode="normal" />
  </filter>
  <pattern id="disordered-hatch" patternUnits="userSpaceOnUse" width="4" height="4">
    <path d="M-1,1 l2,-2 M0,4 l4,-4 M3,5 l2,-2" stroke="#000000" opacity="0.3" />
  </pattern>
</defs>
<line x1="444.000000" x2="444.000000" y1="46.500000" y2="74.500000" stroke="#BABDB6" stroke-width="2"/><a xlink:title="L363F"><circle cx="444.000000" cy="46.500000" r="4.000000" fill="#ff0000" /></a><g transform="translate(444.000000,46.500000) rotate(-30)"><text style="font-size:10px;font-family:OpenSans;fill:#555;" text-anchor="middle" x="0" y="-6.000000">L363F</text></g><line x1="514.909091" x2="514.909091" y1="34.000000" y2="74.500000" stroke="#BABDB6" stroke-width="2"/><a xlink:title="L423F"><circle cx="514.909091" cy="34.000000" r="4.000000" fill="#ff0000" /></a><g transform="translate(514.909091,34.000000) rotate(-30)"><text style="font-size:10px;font-family:OpenSans;fill:#555;" text-anchor="middle" x="0" y="-6.000000">L423F</text></g><line x1="517.272727" x2="517.272727" y1="46.500000" y2="74.500000" stroke="#BABDB6" stroke-width="2"/><a xlink:title="A425V"><circle cx="517.272727" cy="46.500000" r="4.000000" fill="#ff0000" /></a><g transform="translate(517.272727,46.500000) rotate(-30)"><text style="font-size:10px;font-family:OpenSans;fill:#555;" text-anchor="middle" x="0" y="-6.000000">A425V</text></g><line x1="531.454545" x2="531.454545" y1="46.500000" y2="74.500000" stroke="#BABDB6" stroke-width="2"/><a xlink:title="L437F"><circle cx="531.454545" cy="46.500000" r="4.000000" fill="#ff0000" /></a><g transform="translate(531.454545,46.500000) rotate(-30)"><text style="font-size:10px;font-family:OpenSans;fill:#555;" text-anchor="middle" x="0" y="-6.000000">L437F</text></g><line x1="572.818182" x2="572.818182" y1="46.500000" y2="74.500000" stroke="#BABDB6" stroke-width="2"/><a xlink:title="L472F"><circle cx="572.818182" cy="46.500000" r="4.000000" fill="#ff0000" /></a><g transform="translate(572.818182,46.500000) rotate(-30)"><text style="font-size:10px;font-family:OpenSans;fill:#555;" text-anchor="middle" x="0" y="-6.000000">L472F</text></g><line x1="588.181818" x2="588.181818" y1="34.000000" y2="74.500000" stroke="#BABDB6" stroke-width="2"/><a xlink:title="A485V"><circle cx="588.181818" cy="34.000000" r="4.000000" fill="#ff0000" /></a><g transform="translate(588.181818,34.000000) rotate(-30)"><text style="font-size:10px;font-family:OpenSans;fill:#555;" text-anchor="middle" x="0" y="-6.000000">A485V</text></g><line x1="592.909091" x2="592.909091" y1="46.500000" y2="74.500000" stroke="#BABDB6" stroke-width="2"/><a xlink:title="L489F"><circle cx="592.909091" cy="46.500000" r="4.000000" fill="#ff0000" /></a><g transform="translate(592.909091,46.500000) rotate(-30)"><text style="font-size:10px;font-family:OpenSans;fill:#555;" text-anchor="middle" x="0" y="-6.000000">L489F</text></g><line x1="604.727273" x2="604.727273" y1="46.500000" y2="74.500000" stroke="#BABDB6" stroke-width="2"/><a xlink:title="A499V"><circle cx="604.727273" cy="46.500000" r="4.000000" fill="#ff0000" /></a><g transform="translate(604.727273,46.500000) rotate(-30)"><text style="font-size:10px;font-family:OpenSans;fill:#555;" text-anchor="middle" x="0" y="-6.000000">A499V</text></g><line x1="646.090909" x2="646.090909" y1="46.500000" y2="74.500000" stroke="#BABDB6" stroke-width="2"/><a xlink:title="A534V"><circle cx="646.090909" cy="46.500000" r="4.000000" fill="#ff0000" /></a><g transform="translate(646.090909,46.500000) rotate(-30)"><text style="font-size:10px;font-family:OpenSans;fill:#555;" text-anchor="middle" x="0" y="-6.000000">A534V</text></g><line x1="666.181818" x2="666.181818" y1="46.500000" y2="74.500000" stroke="#BABDB6" stroke-width="2"/><a xlink:title="A551V"><circle cx="666.181818" cy="46.500000" r="4.000000" fill="#ff0000" /></a><g transform="translate(666.181818,46.500000) rotate(-30)"><text style="font-size:10px;font-family:OpenSans;fill:#555;" text-anchor="middle" x="0" y="-6.000000">A551V</text></g><a xlink:title=",  (652aa)"><rect fill="#BABDB6" x="15.000000" y="74.500000" width="770.545455" height="14.000000"/></a><g transform="translate(94.181818,69.500000)"><a xlink:href="https://www.ebi.ac.uk/interpro/entry/pfam/PF07645" xlink:title="Calcium-binding EGF domain"><rect fill="#2DCF00" x="0" y="0" width="52.000000" height="24.000000" filter="url(#ds)"/><text style="font-size:12px;font-family:OpenSans;fill:#ffffff;" text-anchor="middle" x="26.000000" y="16.000000">EGF_CA</text></a></g>
<g transform="translate(160.363636,69.500000)"><a xlink:href="https://www.ebi.ac.uk/interpro/entry/pfam/PF16489" xlink:title="GPCR-Autoproteolysis INducing (GAIN) domain"><rect fill="#FF5353" x="0" y="0" width="179.636364" height="24.000000" filter="url(#ds)"/><text style="font-size:12px;font-family:OpenSans;fill:#ffffff;" text-anchor="middle" x="89.818182" y="16.000000">GAIN</text></a></g>
<g transform="translate(374.272727,69.500000)"><a xlink:href="https://www.ebi.ac.uk/interpro/entry/pfam/PF01825" xlink:title="GPCR proteolysis site, GPS, motif"><rect fill="#5B5BFF" x="0" y="0" width="47.272727" height="24.000000" filter="url(#ds)"/><text style="font-size:12px;font-family:OpenSans;fill:#ffffff;" text-anchor="middle" x="23.636364" y="16.000000">GPS</text></a></g>
<g transform="translate(434.545455,69.500000)"><a xlink:href="https://www.ebi.ac.uk/interpro/entry/pfam/PF00002" xlink:title="7 transmembrane receptor (Secretin family)"><rect fill="#EBD61D" x="0" y="0" width="282.454545" height="24.000000" filter="url(#ds)"/><text style="font-size:12px;font-family:OpenSans;fill:#ffffff;" text-anchor="middle" x="141.227273" y="16.000000">7 transmembrane receptor (Secretin family)</text></a></g>
<g class="axis">
<line x1="15.000000" x2="785.545455" y1="103.500000" y2="103.500000" stroke="#AAAAAA" /><line x1="15.000000" x2="15.000000" y1="103.500000" y2="108.500000" stroke="#AAAAAA" /><line x1="15.000000" x2="15.000000" y1="103.500000" y2="108.500000" stroke="#AAAAAA" /><text style="font-size:10px;font-family:OpenSans;fill:#000000;" text-anchor="middle" x="15.000000" y="118.500000">0</text><line x1="94.181818" x2="94.181818" y1="103.500000" y2="108.500000" stroke="#AAAAAA" /><text style="font-size:10px;font-family:OpenSans;fill:#000000;" text-anchor="middle" x="94.181818" y="118.500000">67</text><line x1="146.181818" x2="146.181818" y1="103.500000" y2="108.500000" stroke="#AAAAAA" /><text style="font-size:10px;font-family:OpenSans;fill:#000000;" text-anchor="middle" x="146.181818" y="118.500000">111</text><line x1="340.000000" x2="340.000000" y1="103.500000" y2="108.500000" stroke="#AAAAAA" /><text style="font-size:10px;font-family:OpenSans;fill:#000000;" text-anchor="middle" x="340.000000" y="118.500000">275</text><line x1="374.272727" x2="374.272727" y1="103.500000" y2="108.500000" stroke="#AAAAAA" /><text style="font-size:10px;font-family:OpenSans;fill:#000000;" text-anchor="middle" x="374.272727" y="118.500000">304</text><line x1="421.545455" x2="421.545455" y1="103.500000" y2="108.500000" stroke="#AAAAAA" /><text style="font-size:10px;font-family:OpenSans;fill:#000000;" text-anchor="middle" x="421.545455" y="118.500000">344</text><line x1="444.000000" x2="444.000000" y1="103.500000" y2="108.500000" stroke="#AAAAAA" /><text style="font-size:10px;font-family:OpenSans;fill:#000000;" text-anchor="middle" x="444.000000" y="118.500000">363</text><line x1="514.909091" x2="514.909091" y1="103.500000" y2="108.500000" stroke="#AAAAAA" /><text style="font-size:10px;font-family:OpenSans;fill:#000000;" text-anchor="middle" x="514.909091" y="118.500000">423</text><line x1="572.818182" x2="572.818182" y1="103.500000" y2="108.500000" stroke="#AAAAAA" /><text style="font-size:10px;font-family:OpenSans;fill:#000000;" text-anchor="middle" x="572.818182" y="118.500000">472</text><line x1="592.909091" x2="592.909091" y1="103.500000" y2="108.500000" stroke="#AAAAAA" /><text style="font-size:10px;font-family:OpenSans;fill:#000000;" text-anchor="middle" x="592.909091" y="118.500000">489</text><line x1="646.090909" x2="646.090909" y1="103.500000" y2="108.500000" stroke="#AAAAAA" /><text style="font-size:10px;font-family:OpenSans;fill:#000000;" text-anchor="middle" x="646.090909" y="118.500000">534</text><line x1="666.181818" x2="666.181818" y1="103.500000" y2="108.500000" stroke="#AAAAAA" /><text style="font-size:10px;font-family:OpenSans;fill:#000000;" text-anchor="middle" x="666.181818" y="118.500000">551</text><line x1="717.000000" x2="717.000000" y1="103.500000" y2="108.500000" stroke="#AAAAAA" /><text style="font-size:10px;font-family:OpenSans;fill:#000000;" text-anchor="middle" x="717.000000" y="118.500000">594</text><line x1="785.545455" x2="785.545455" y1="103.500000" y2="108.500000" stroke="#AAAAAA" /><text style="font-size:10px;font-family:OpenSans;fill:#000000;" text-anchor="middle" x="785.545455" y="118.500000">652</text></g>
<rect fill="#2DCF00" x="4" y="132.500000" width="12" height="12" filter="url(#ds)"/><text style="font-size:12px;font-family:OpenSans;fill:#000000;" text-anchor="start" x="20" y="144.500000">Calcium-binding EGF domain</text><rect fill="#FF5353" x="4" y="146.500000" width="12" height="12" filter="url(#ds)"/><text style="font-size:12px;font-family:OpenSans;fill:#000000;" text-anchor="start" x="20" y="158.500000">GPCR-Autoproteolysis INducing (GAIN) domain</text><rect fill="#5B5BFF" x="4" y="160.500000" width="12" height="12" filter="url(#ds)"/><text style="font-size:12px;font-family:OpenSans;fill:#000000;" text-anchor="start" x="20" y="172.500000">GPCR proteolysis site, GPS, motif</text></svg>
