<?xml version='1.0'?>
<svg xmlns="http://www.w3.org/2000/svg" xmlns:xlink="http://www.w3.org/1999/xlink" width="4266.642857" height="146.200000">
<defs>
  <filter id="ds" x="0" y="0">
    <feOffset in="SourceAlpha" dx="2" dy="2" />
    <feComponentTransfer><feFuncA type="linear" slope="0.2"/></feComponentTransfer>
    <feGaussianBlur result="blurOut" stdDeviation="1" />
    <feBlend in="SourceGraphic" in2="blurOut" mode="normal" />
  </filter>
  <pattern id="disordered-hatch" patternUnits="userSpaceOnUse" width="4" height="4">
    <path d="M-1,1 l2,-2 M0,4 l4,-4 M3,5 l2,-2" stroke="#000000" opacity="0.3" />
  </pattern>
</defs>
<line x1="688.928571" x2="688.928571" y1="34.000000" y2="62.000000" stroke="#BABDB6" stroke-width="2"/><a xlink:title="Q185L"><circle cx="688.928571" cy="34.000000" r="4.000000" fill="#ff0000" /></a><g transform="translate(688.928571,34.000000) rotate(-30)"><text style="font-size:10px;font-family:OpenSans;fill:#555;" text-anchor="middle" x="0" y="-6.000000">Q185L</text></g><line x1="1639.714286" x2="1639.714286" y1="34.000000" y2="62.000000" stroke="#BABDB6" stroke-width="2"/><a xlink:title="P446S"><circle cx="1639.714286" cy="34.000000" r="4.000000" fill="#ff0000" /></a><g transform="translate(1639.714286,34.000000) rotate(-30)"><text style="font-size:10px;font-family:OpenSans;fill:#555;" text-anchor="middle" x="0" y="-6.000000">P446S</text></g><line x1="1708.928571" x2="1708.928571" y1="34.000000" y2="62.000000" stroke="#BABDB6" stroke-width="2"/><a xlink:title="S465S"><circle cx="1708.928571" cy="34.000000" r="4.000000" fill="#0000ff" /></a><g transform="translate(1708.928571,34.000000) rotate(-30)"><text style="font-size:10px;font-family:OpenSans;fill:#555;" text-anchor="middle" x="0" y="-6.000000">S465S</text></g><line x1="2911.071429" x2="2911.071429" y1="34.000000" y2="62.000000" stroke="#BABDB6" stroke-width="2"/><a xlink:title="P795S"><circle cx="2911.071429" cy="34.000000" r="4.000000" fill="#ff0000" /></a><g transform="translate(2911.071429,34.000000) rotate(-30)"><text style="font-size:10px;font-family:OpenSans;fill:#555;" text-anchor="middle" x="0" y="-6.000000">P795S</text></g><line x1="2980.285714" x2="2980.285714" y1="34.000000" y2="62.000000" stroke="#BABDB6" stroke-width="2"/><a xlink:title="S814S"><circle cx="2980.285714" cy="34.000000" r="4.000000" fill="#0000ff" /></a><g transform="translate(2980.285714,34.000000) rotate(-30)"><text style="font-size:10px;font-family:OpenSans;fill:#555;" text-anchor="middle" x="0" y="-6.000000">S814S</text></g><line x1="3016.714286" x2="3016.714286" y1="34.000000" y2="62.000000" stroke="#BABDB6" stroke-width="2"/><a xlink:title="P824S"><circle cx="3016.714286" cy="34.000000" r="4.000000" fill="#ff0000" /></a><g transform="translate(3016.714286,34.000000) rotate(-30)"><text style="font-size:10px;font-family:OpenSans;fill:#555;" text-anchor="middle" x="0" y="-6.000000">P824S</text></g><line x1="3085.928571" x2="3085.928571" y1="34.000000" y2="62.000000" stroke="#BABDB6" stroke-width="2"/><a xlink:title="S843S"><circle cx="3085.928571" cy="34.000000" r="4.000000" fill="#0000ff" /></a><g transform="translate(3085.928571,34.000000) rotate(-30)"><text style="font-size:10px;font-family:OpenSans;fill:#555;" text-anchor="middle" x="0" y="-6.000000">S843S</text></g><a xlink:title=",  (1163aa)"><rect fill="#BABDB6" x="15.000000" y="62.000000" width="4236.642857" height="14.000000"/></a><g transform="translate(25.928571,57.000000)"><a xlink:href="https://www.ebi.ac.uk/interpro/entry/pfam/PF05110" xlink:title="AF-4 proto-oncoprotein N-terminal region"><rect fill="#2DCF00" x="0" y="0" width="1734.000000" height="24.000000" filter="url(#ds)"/><text style="font-size:12px;font-family:OpenSans;fill:#ffffff;" text-anchor="middle" x="867.000000" y="16.000000">AF-4 proto-oncoprotein N-terminal region</text></a></g>
<g transform="translate(2616.000000,57.000000)"><a xlink:href="https://www.ebi.ac.uk/interpro/entry/pfam/PF18875" xlink:title="AF4 interaction motif"><rect fill="#FF5353" x="0" y="0" width="51.000000" height="24.000000" filter="url(#ds)"/><text style="font-size:12px;font-family:OpenSans;fill:#ffffff;" text-anchor="middle" x="25.500000" y="16.000000">AF4_int</text></a></g>
<g transform="translate(3286.285714,57.000000)"><a xlink:href="https://www.ebi.ac.uk/interpro/entry/pfam/PF18876" xlink:title="AFF4, C-terminal homology domain"><rect fill="#5B5BFF" x="0" y="0" width="958.071429" height="24.000000" filter="url(#ds)"/><text style="font-size:12px;font-family:OpenSans;fill:#ffffff;" text-anchor="middle" x="479.035714" y="16.000000">AFF4, C-terminal homology domain</text></a></g>
<g class="axis">
<line x1="15.000000" x2="4251.642857" y1="91.000000" y2="91.000000" stroke="#AAAAAA" /><line x1="15.000000" x2="15.000000" y1="91.000000" y2="96.000000" stroke="#AAAAAA" /><line x1="25.928571" x2="25.928571" y1="91.000000" y2="96.000000" stroke="#AAAAAA" /><text style="font-size:10px;font-family:OpenSans;fill:#000000;" text-anchor="middle" x="25.928571" y="106.000000">3</text><line x1="688.928571" x2="688.928571" y1="91.000000" y2="96.000000" stroke="#AAAAAA" /><text style="font-size:10px;font-family:OpenSans;fill:#000000;" text-anchor="middle" x="688.928571" y="106.000000">185</text><line x1="1639.714286" x2="1639.714286" y1="91.000000" y2="96.000000" stroke="#AAAAAA" /><text style="font-size:10px;font-family:OpenSans;fill:#000000;" text-anchor="middle" x="1639.714286" y="106.000000">446</text><line x1="1708.928571" x2="1708.928571" y1="91.000000" y2="96.000000" stroke="#AAAAAA" /><text style="font-size:10px;font-family:OpenSans;fill:#000000;" text-anchor="middle" x="1708.928571" y="106.000000">465</text><line x1="1759.928571" x2="1759.928571" y1="91.000000" y2="96.000000" stroke="#AAAAAA" /><text style="font-size:10px;font-family:OpenSans;fill:#000000;" text-anchor="middle" x="1759.928571" y="106.000000">479</text><line x1="2616.000000" x2="2616.000000" y1="91.000000" y2="96.000000" stroke="#AAAAAA" /><text style="font-size:10px;font-family:OpenSans;fill:#000000;" text-anchor="middle" x="2616.000000" y="106.000000">714</text><line x1="2667.000000" x2="2667.000000" y1="91.000000" y2="96.000000" stroke="#AAAAAA" /><text style="font-size:10px;font-family:OpenSans;fill:#000000;" text-anchor="middle" x="2667.000000" y="106.000000">728</text><line x1="2911.071429" x2="2911.071429" y1="91.000000" y2="96.000000" stroke="#AAAAAA" /><text style="font-size:10px;font-family:OpenSans;fill:#000000;" text-anchor="middle" x="2911.071429" y="106.000000">795</text><line x1="2980.285714" x2="2980.285714" y1="91.000000" y2="96.000000" stroke="#AAAAAA" /><text style="font-size:10px;font-family:OpenSans;fill:#000000;" text-anchor="middle" x="2980.285714" y="106.000000">814</text><line x1="3016.714286" x2="3016.714286" y1="91.000000" y2="96.000000" stroke="#AAAAAA" /><text style="font-size:10px;font-family:OpenSans;fill:#000000;" text-anchor="middle" x="3016.714286" y="106.000000">824</text><line x1="3085.928571" x2="3085.928571" y1="91.000000" y2="96.000000" stroke="#AAAAAA" /><text style="font-size:10px;font-family:OpenSans;fill:#000000;" text-anchor="middle" x="3085.928571" y="106.000000">843</text><line x1="3286.285714" x2="3286.285714" y1="91.000000" y2="96.000000" stroke="#AAAAAA" /><text style="font-size:10px;font-family:OpenSans;fill:#000000;" text-anchor="middle" x="3286.285714" y="106.000000">898</text><line x1="4251.642857" x2="4251.642857" y1="91.000000" y2="96.000000" stroke="#AAAAAA" /><text style="font-size:10px;font-family:OpenSans;fill:#000000;" text-anchor="middle" x="4251.642857" y="106.000000">1163</text></g>
<rect fill="#FF5353" x="4" y="120.000000" width="12" height="12" filter="url(#ds)"/><text style="font-size:12px;font-family:OpenSans;fill:#000000;" text-anchor="start" x="20" y="132.000000">AF4 interaction motif</text></svg>
