<?xml version='1.0'?>
<svg xmlns="http://www.w3.org/2000/svg" xmlns:xlink="http://www.w3.org/1999/xlink" width="462.584270" height="159.400000">
<defs>
  <filter id="ds" x="0" y="0">
    <feOffset in="SourceAlpha" dx="2" dy="2" />
    <feComponentTransfer><feFuncA type="linear" slope="0.2"/></feComponentTransfer>
    <feGaussianBlur result="blurOut" stdDeviation="1" />
    <feBlend in="SourceGraphic" in2="blurOut" mode="normal" />
  </filter>
  <pattern id="disordered-hatch" patternUnits="userSpaceOnUse" width="4" height="4">
    <path d="M-1,1 l2,-2 M0,4 l4,-4 M3,5 l2,-2" stroke="#000000" opacity="0.3" />
  </pattern>
</defs>
<line x1="240.932584" x2="240.932584" y1="34.000000" y2="62.000000" stroke="#BABDB6" stroke-width="2"/><a xlink:title="R457H"><circle cx="240.932584" cy="34.000000" r="4.000000" fill="#ff0000" /></a><g transform="translate(240.932584,34.000000) rotate(-30)"><text style="font-size:10px;font-family:OpenSans;fill:#555;" text-anchor="middle" x="0" y="-6.000000">R457H</text></g><line x1="291.853933" x2="291.853933" y1="34.000000" y2="62.000000" stroke="#BABDB6" stroke-width="2"/><a xlink:title="R560H"><circle cx="291.853933" cy="34.000000" r="4.000000" fill="#ff0000" /></a><g transform="translate(291.853933,34.000000) rotate(-30)"><text style="font-size:10px;font-family:OpenSans;fill:#555;" text-anchor="middle" x="0" y="-6.000000">R560H</text></g><line x1="299.269663" x2="299.269663" y1="34.000000" y2="62.000000" stroke="#BABDB6" stroke-width="2"/><a xlink:title="R575H"><circle cx="299.269663" cy="34.000000" r="4.000000" fill="#ff0000" /></a><g transform="translate(299.269663,34.000000) rotate(-30)"><text style="font-size:10px;font-family:OpenSans;fill:#555;" text-anchor="middle" x="0" y="-6.000000">R575H</text></g><line x1="350.191011" x2="350.191011" y1="34.000000" y2="62.000000" stroke="#BABDB6" stroke-width="2"/><a xlink:title="R678H"><circle cx="350.191011" cy="34.000000" r="4.000000" fill="#ff0000" /></a><g transform="translate(350.191011,34.000000) rotate(-30)"><text style="font-size:10px;font-family:OpenSans;fill:#555;" text-anchor="middle" x="0" y="-6.000000">R678H</text></g><line x1="411.988764" x2="411.988764" y1="34.000000" y2="62.000000" stroke="#BABDB6" stroke-width="2"/><a xlink:title="R803H"><circle cx="411.988764" cy="34.000000" r="4.000000" fill="#ff0000" /></a><g transform="translate(411.988764,34.000000) rotate(-30)"><text style="font-size:10px;font-family:OpenSans;fill:#555;" text-anchor="middle" x="0" y="-6.000000">R803H</text></g><line x1="434.730337" x2="434.730337" y1="34.000000" y2="62.000000" stroke="#BABDB6" stroke-width="2"/><a xlink:title="R849H"><circle cx="434.730337" cy="34.000000" r="4.000000" fill="#ff0000" /></a><g transform="translate(434.730337,34.000000) rotate(-30)"><text style="font-size:10px;font-family:OpenSans;fill:#555;" text-anchor="middle" x="0" y="-6.000000">R849H</text></g><line x1="462.910112" x2="462.910112" y1="34.000000" y2="62.000000" stroke="#BABDB6" stroke-width="2"/><a xlink:title="R906H"><circle cx="462.910112" cy="34.000000" r="4.000000" fill="#ff0000" /></a><g transform="translate(462.910112,34.000000) rotate(-30)"><text style="font-size:10px;font-family:OpenSans;fill:#555;" text-anchor="middle" x="0" y="-6.000000">R906H</text></g><line x1="500.977528" x2="500.977528" y1="34.000000" y2="62.000000" stroke="#BABDB6" stroke-width="2"/><a xlink:title="R983H"><circle cx="500.977528" cy="34.000000" r="4.000000" fill="#ff0000" /></a><g transform="translate(500.977528,34.000000) rotate(-30)"><text style="font-size:10px;font-family:OpenSans;fill:#555;" text-anchor="middle" x="0" y="-6.000000">R983H</text></g><line x1="523.719101" x2="523.719101" y1="34.000000" y2="62.000000" stroke="#BABDB6" stroke-width="2"/><a xlink:title="R1029H"><circle cx="523.719101" cy="34.000000" r="4.000000" fill="#ff0000" /></a><g transform="translate(523.719101,34.000000) rotate(-30)"><text style="font-size:10px;font-family:OpenSans;fill:#555;" text-anchor="middle" x="0" y="-6.000000">R1029H</text></g><line x1="551.898876" x2="551.898876" y1="34.000000" y2="62.000000" stroke="#BABDB6" stroke-width="2"/><a xlink:title="R1086H"><circle cx="551.898876" cy="34.000000" r="4.000000" fill="#ff0000" /></a><g transform="translate(551.898876,34.000000) rotate(-30)"><text style="font-size:10px;font-family:OpenSans;fill:#555;" text-anchor="middle" x="0" y="-6.000000">R1086H</text></g><a xlink:title=",  (875aa)"><rect fill="#BABDB6" x="15.000000" y="62.000000" width="432.584270" height="14.000000"/></a><g transform="translate(60.977528,57.000000)"><a xlink:href="https://www.ebi.ac.uk/interpro/entry/pfam/PF00071" xlink:title="Ras family"><rect fill="#2DCF00" x="0" y="0" width="77.123596" height="24.000000" filter="url(#ds)"/><text style="font-size:12px;font-family:OpenSans;fill:#ffffff;" text-anchor="middle" x="38.561798" y="16.000000">Ras family</text></a></g>
<g transform="translate(325.966292,57.000000)"><a xlink:href="https://www.ebi.ac.uk/interpro/entry/pfam/PF01412" xlink:title="Putative GTPase activating protein for Arf"><rect fill="#FF5353" x="0" y="0" width="54.382022" height="24.000000" filter="url(#ds)"/><text style="font-size:12px;font-family:OpenSans;fill:#ffffff;" text-anchor="middle" x="27.191011" y="16.000000">ArfGap</text></a></g>
<g transform="translate(387.764045,57.000000)"><a xlink:href="https://www.ebi.ac.uk/interpro/entry/pfam/PF12796" xlink:title="Ankyrin repeats (3 copies)"><rect fill="#5B5BFF" x="0" y="0" width="44.000000" height="24.000000" filter="url(#ds)"/><text style="font-size:12px;font-family:OpenSans;fill:#ffffff;" text-anchor="middle" x="22.000000" y="16.000000">Ank_2</text></a></g>
<g class="axis">
<line x1="15.000000" x2="447.584270" y1="91.000000" y2="91.000000" stroke="#AAAAAA" /><line x1="15.000000" x2="15.000000" y1="91.000000" y2="96.000000" stroke="#AAAAAA" /><line x1="15.000000" x2="15.000000" y1="91.000000" y2="96.000000" stroke="#AAAAAA" /><text style="font-size:10px;font-family:OpenSans;fill:#000000;" text-anchor="middle" x="15.000000" y="106.000000">0</text><line x1="60.977528" x2="60.977528" y1="91.000000" y2="96.000000" stroke="#AAAAAA" /><text style="font-size:10px;font-family:OpenSans;fill:#000000;" text-anchor="middle" x="60.977528" y="106.000000">93</text><line x1="138.101124" x2="138.101124" y1="91.000000" y2="96.000000" stroke="#AAAAAA" /><text style="font-size:10px;font-family:OpenSans;fill:#000000;" text-anchor="middle" x="138.101124" y="106.000000">249</text><line x1="240.932584" x2="240.932584" y1="91.000000" y2="96.000000" stroke="#AAAAAA" /><text style="font-size:10px;font-family:OpenSans;fill:#000000;" text-anchor="middle" x="240.932584" y="106.000000">457</text><line x1="291.853933" x2="291.853933" y1="91.000000" y2="96.000000" stroke="#AAAAAA" /><text style="font-size:10px;font-family:OpenSans;fill:#000000;" text-anchor="middle" x="291.853933" y="106.000000">560</text><line x1="325.966292" x2="325.966292" y1="91.000000" y2="96.000000" stroke="#AAAAAA" /><text style="font-size:10px;font-family:OpenSans;fill:#000000;" text-anchor="middle" x="325.966292" y="106.000000">629</text><line x1="350.191011" x2="350.191011" y1="91.000000" y2="96.000000" stroke="#AAAAAA" /><text style="font-size:10px;font-family:OpenSans;fill:#000000;" text-anchor="middle" x="350.191011" y="106.000000">678</text><line x1="380.348315" x2="380.348315" y1="91.000000" y2="96.000000" stroke="#AAAAAA" /><text style="font-size:10px;font-family:OpenSans;fill:#000000;" text-anchor="middle" x="380.348315" y="106.000000">739</text><line x1="411.988764" x2="411.988764" y1="91.000000" y2="96.000000" stroke="#AAAAAA" /><text style="font-size:10px;font-family:OpenSans;fill:#000000;" text-anchor="middle" x="411.988764" y="106.000000">803</text><line x1="447.584270" x2="447.584270" y1="91.000000" y2="96.000000" stroke="#AAAAAA" /><text style="font-size:10px;font-family:OpenSans;fill:#000000;" text-anchor="middle" x="447.584270" y="106.000000">875</text><line x1="500.977528" x2="500.977528" y1="91.000000" y2="96.000000" stroke="#AAAAAA" /><text style="font-size:10px;font-family:OpenSans;fill:#000000;" text-anchor="middle" x="500.977528" y="106.000000">983</text><line x1="523.719101" x2="523.719101" y1="91.000000" y2="96.000000" stroke="#AAAAAA" /><text style="font-size:10px;font-family:OpenSans;fill:#000000;" text-anchor="middle" x="523.719101" y="106.000000">1029</text><line x1="551.898876" x2="551.898876" y1="91.000000" y2="96.000000" stroke="#AAAAAA" /><text style="font-size:10px;font-family:OpenSans;fill:#000000;" text-anchor="middle" x="551.898876" y="106.000000">1086</text></g>
<rect fill="#5B5BFF" x="4" y="120.000000" width="12" height="12" filter="url(#ds)"/><text style="font-size:12px;font-family:OpenSans;fill:#000000;" text-anchor="start" x="20" y="132.000000">Ankyrin repeats (3 copies)</text><rect fill="#FF5353" x="4" y="134.000000" width="12" height="12" filter="url(#ds)"/><text style="font-size:12px;font-family:OpenSans;fill:#000000;" text-anchor="start" x="20" y="146.000000">Putative GTPase activating protein for Arf</text></svg>
