<?xml version='1.0'?>
<svg xmlns="http://www.w3.org/2000/svg" xmlns:xlink="http://www.w3.org/1999/xlink" width="2799.684211" height="158.700000">
<defs>
  <filter id="ds" x="0" y="0">
    <feOffset in="SourceAlpha" dx="2" dy="2" />
    <feComponentTransfer><feFuncA type="linear" slope="0.2"/></feComponentTransfer>
    <feGaussianBlur result="blurOut" stdDeviation="1" />
    <feBlend in="SourceGraphic" in2="blurOut" mode="normal" />
  </filter>
  <pattern id="disordered-hatch" patternUnits="userSpaceOnUse" width="4" height="4">
    <path d="M-1,1 l2,-2 M0,4 l4,-4 M3,5 l2,-2" stroke="#000000" opacity="0.3" />
  </pattern>
</defs>
<line x1="1101.105263" x2="1101.105263" y1="46.500000" y2="74.500000" stroke="#BABDB6" stroke-width="2"/><a xlink:title="C469R"><circle cx="1101.105263" cy="46.500000" r="4.000000" fill="#ff0000" /></a><g transform="translate(1101.105263,46.500000) rotate(-30)"><text style="font-size:10px;font-family:OpenSans;fill:#555;" text-anchor="middle" x="0" y="-6.000000">C469R</text></g><line x1="1311.842105" x2="1311.842105" y1="34.000000" y2="74.500000" stroke="#BABDB6" stroke-width="2"/><a xlink:title="P560P"><circle cx="1311.842105" cy="34.000000" r="4.000000" fill="#0000ff" /></a><g transform="translate(1311.842105,34.000000) rotate(-30)"><text style="font-size:10px;font-family:OpenSans;fill:#555;" text-anchor="middle" x="0" y="-6.000000">P560P</text></g><line x1="1316.473684" x2="1316.473684" y1="46.500000" y2="74.500000" stroke="#BABDB6" stroke-width="2"/><a xlink:title="H562H"><circle cx="1316.473684" cy="46.500000" r="4.000000" fill="#0000ff" /></a><g transform="translate(1316.473684,46.500000) rotate(-30)"><text style="font-size:10px;font-family:OpenSans;fill:#555;" text-anchor="middle" x="0" y="-6.000000">H562H</text></g><line x1="2013.526316" x2="2013.526316" y1="46.500000" y2="74.500000" stroke="#BABDB6" stroke-width="2"/><a xlink:title="E863E"><circle cx="2013.526316" cy="46.500000" r="4.000000" fill="#0000ff" /></a><g transform="translate(2013.526316,46.500000) rotate(-30)"><text style="font-size:10px;font-family:OpenSans;fill:#555;" text-anchor="middle" x="0" y="-6.000000">E863E</text></g><line x1="2173.315789" x2="2173.315789" y1="46.500000" y2="74.500000" stroke="#BABDB6" stroke-width="2"/><a xlink:title="R932C"><circle cx="2173.315789" cy="46.500000" r="4.000000" fill="#ff0000" /></a><g transform="translate(2173.315789,46.500000) rotate(-30)"><text style="font-size:10px;font-family:OpenSans;fill:#555;" text-anchor="middle" x="0" y="-6.000000">R932C</text></g><line x1="2289.105263" x2="2289.105263" y1="46.500000" y2="74.500000" stroke="#BABDB6" stroke-width="2"/><a xlink:title="R982M"><circle cx="2289.105263" cy="46.500000" r="4.000000" fill="#ff0000" /></a><g transform="translate(2289.105263,46.500000) rotate(-30)"><text style="font-size:10px;font-family:OpenSans;fill:#555;" text-anchor="middle" x="0" y="-6.000000">R982M</text></g><line x1="2745.315789" x2="2745.315789" y1="46.500000" y2="74.500000" stroke="#BABDB6" stroke-width="2"/><a xlink:title="D1179Y"><circle cx="2745.315789" cy="46.500000" r="4.000000" fill="#ff0000" /></a><g transform="translate(2745.315789,46.500000) rotate(-30)"><text style="font-size:10px;font-family:OpenSans;fill:#555;" text-anchor="middle" x="0" y="-6.000000">D1179Y</text></g><a xlink:title=",  (1196aa)"><rect fill="#BABDB6" x="15.000000" y="74.500000" width="2769.684211" height="14.000000"/></a><g transform="translate(1508.684211,69.500000)"><a xlink:href="https://www.ebi.ac.uk/interpro/entry/pfam/PF00400" xlink:title="WD domain, G-beta repeat"><rect fill="#2DCF00" x="0" y="0" width="83.368421" height="24.000000" filter="url(#ds)"/><text style="font-size:12px;font-family:OpenSans;fill:#ffffff;" text-anchor="middle" x="41.684211" y="16.000000">WD40</text></a></g>
<g transform="translate(1622.157895,69.500000)"><a xlink:href="https://www.ebi.ac.uk/interpro/entry/pfam/PF00400" xlink:title="WD domain, G-beta repeat"><rect fill="#FF5353" x="0" y="0" width="71.789474" height="24.000000" filter="url(#ds)"/><text style="font-size:12px;font-family:OpenSans;fill:#ffffff;" text-anchor="middle" x="35.894737" y="16.000000">WD40</text></a></g>
<g transform="translate(1721.736842,69.500000)"><a xlink:href="https://www.ebi.ac.uk/interpro/entry/pfam/PF00400" xlink:title="WD domain, G-beta repeat"><rect fill="#5B5BFF" x="0" y="0" width="81.052632" height="24.000000" filter="url(#ds)"/><text style="font-size:12px;font-family:OpenSans;fill:#ffffff;" text-anchor="middle" x="40.526316" y="16.000000">WD40</text></a></g>
<g transform="translate(1988.052632,69.500000)"><a xlink:href="https://www.ebi.ac.uk/interpro/entry/pfam/PF00400" xlink:title="WD domain, G-beta repeat"><rect fill="#EBD61D" x="0" y="0" width="44.000000" height="24.000000" filter="url(#ds)"/><text style="font-size:12px;font-family:OpenSans;fill:#ffffff;" text-anchor="middle" x="22.000000" y="16.000000">WD40</text></a></g>
<g transform="translate(2462.789474,69.500000)"><a xlink:href="https://www.ebi.ac.uk/interpro/entry/pfam/PF00018" xlink:title="SH3 domain"><rect fill="#BA21E0" x="0" y="0" width="106.526316" height="24.000000" filter="url(#ds)"/><text style="font-size:12px;font-family:OpenSans;fill:#ffffff;" text-anchor="middle" x="53.263158" y="16.000000">SH3 domain</text></a></g>
<g class="axis">
<line x1="15.000000" x2="2784.684211" y1="103.500000" y2="103.500000" stroke="#AAAAAA" /><line x1="15.000000" x2="15.000000" y1="103.500000" y2="108.500000" stroke="#AAAAAA" /><line x1="15.000000" x2="15.000000" y1="103.500000" y2="108.500000" stroke="#AAAAAA" /><text style="font-size:10px;font-family:OpenSans;fill:#000000;" text-anchor="middle" x="15.000000" y="118.500000">0</text><line x1="1101.105263" x2="1101.105263" y1="103.500000" y2="108.500000" stroke="#AAAAAA" /><text style="font-size:10px;font-family:OpenSans;fill:#000000;" text-anchor="middle" x="1101.105263" y="118.500000">469</text><line x1="1311.842105" x2="1311.842105" y1="103.500000" y2="108.500000" stroke="#AAAAAA" /><text style="font-size:10px;font-family:OpenSans;fill:#000000;" text-anchor="middle" x="1311.842105" y="118.500000">560</text><line x1="1508.684211" x2="1508.684211" y1="103.500000" y2="108.500000" stroke="#AAAAAA" /><text style="font-size:10px;font-family:OpenSans;fill:#000000;" text-anchor="middle" x="1508.684211" y="118.500000">645</text><line x1="1592.052632" x2="1592.052632" y1="103.500000" y2="108.500000" stroke="#AAAAAA" /><text style="font-size:10px;font-family:OpenSans;fill:#000000;" text-anchor="middle" x="1592.052632" y="118.500000">681</text><line x1="1622.157895" x2="1622.157895" y1="103.500000" y2="108.500000" stroke="#AAAAAA" /><text style="font-size:10px;font-family:OpenSans;fill:#000000;" text-anchor="middle" x="1622.157895" y="118.500000">694</text><line x1="1693.947368" x2="1693.947368" y1="103.500000" y2="108.500000" stroke="#AAAAAA" /><text style="font-size:10px;font-family:OpenSans;fill:#000000;" text-anchor="middle" x="1693.947368" y="118.500000">725</text><line x1="1721.736842" x2="1721.736842" y1="103.500000" y2="108.500000" stroke="#AAAAAA" /><text style="font-size:10px;font-family:OpenSans;fill:#000000;" text-anchor="middle" x="1721.736842" y="118.500000">737</text><line x1="1802.789474" x2="1802.789474" y1="103.500000" y2="108.500000" stroke="#AAAAAA" /><text style="font-size:10px;font-family:OpenSans;fill:#000000;" text-anchor="middle" x="1802.789474" y="118.500000">772</text><line x1="1988.052632" x2="1988.052632" y1="103.500000" y2="108.500000" stroke="#AAAAAA" /><text style="font-size:10px;font-family:OpenSans;fill:#000000;" text-anchor="middle" x="1988.052632" y="118.500000">852</text><line x1="2013.526316" x2="2013.526316" y1="103.500000" y2="108.500000" stroke="#AAAAAA" /><text style="font-size:10px;font-family:OpenSans;fill:#000000;" text-anchor="middle" x="2013.526316" y="118.500000">863</text><line x1="2032.052632" x2="2032.052632" y1="103.500000" y2="108.500000" stroke="#AAAAAA" /><text style="font-size:10px;font-family:OpenSans;fill:#000000;" text-anchor="middle" x="2032.052632" y="118.500000">871</text><line x1="2173.315789" x2="2173.315789" y1="103.500000" y2="108.500000" stroke="#AAAAAA" /><text style="font-size:10px;font-family:OpenSans;fill:#000000;" text-anchor="middle" x="2173.315789" y="118.500000">932</text><line x1="2289.105263" x2="2289.105263" y1="103.500000" y2="108.500000" stroke="#AAAAAA" /><text style="font-size:10px;font-family:OpenSans;fill:#000000;" text-anchor="middle" x="2289.105263" y="118.500000">982</text><line x1="2462.789474" x2="2462.789474" y1="103.500000" y2="108.500000" stroke="#AAAAAA" /><text style="font-size:10px;font-family:OpenSans;fill:#000000;" text-anchor="middle" x="2462.789474" y="118.500000">1057</text><line x1="2569.315789" x2="2569.315789" y1="103.500000" y2="108.500000" stroke="#AAAAAA" /><text style="font-size:10px;font-family:OpenSans;fill:#000000;" text-anchor="middle" x="2569.315789" y="118.500000">1103</text><line x1="2745.315789" x2="2745.315789" y1="103.500000" y2="108.500000" stroke="#AAAAAA" /><text style="font-size:10px;font-family:OpenSans;fill:#000000;" text-anchor="middle" x="2745.315789" y="118.500000">1179</text><line x1="2784.684211" x2="2784.684211" y1="103.500000" y2="108.500000" stroke="#AAAAAA" /><text style="font-size:10px;font-family:OpenSans;fill:#000000;" text-anchor="middle" x="2784.684211" y="118.500000">1196</text></g>
<rect fill="#EBD61D" x="4" y="132.500000" width="12" height="12" filter="url(#ds)"/><text style="font-size:12px;font-family:OpenSans;fill:#000000;" text-anchor="start" x="20" y="144.500000">WD domain, G-beta repeat</text></svg>
