<?xml version='1.0'?>
<svg xmlns="http://www.w3.org/2000/svg" xmlns:xlink="http://www.w3.org/1999/xlink" width="803.953488" height="171.900000">
<defs>
  <filter id="ds" x="0" y="0">
    <feOffset in="SourceAlpha" dx="2" dy="2" />
    <feComponentTransfer><feFuncA type="linear" slope="0.2"/></feComponentTransfer>
    <feGaussianBlur result="blurOut" stdDeviation="1" />
    <feBlend in="SourceGraphic" in2="blurOut" mode="normal" />
  </filter>
  <pattern id="disordered-hatch" patternUnits="userSpaceOnUse" width="4" height="4">
    <path d="M-1,1 l2,-2 M0,4 l4,-4 M3,5 l2,-2" stroke="#000000" opacity="0.3" />
  </pattern>
</defs>
<line x1="44.023256" x2="44.023256" y1="46.500000" y2="74.500000" stroke="#BABDB6" stroke-width="2"/><a xlink:title="R12S"><circle cx="44.023256" cy="46.500000" r="4.000000" fill="#ff0000" /></a><g transform="translate(44.023256,46.500000) rotate(-30)"><text style="font-size:10px;font-family:OpenSans;fill:#555;" text-anchor="middle" x="0" y="-6.000000">R12S</text></g><line x1="60.953488" x2="60.953488" y1="46.500000" y2="74.500000" stroke="#BABDB6" stroke-width="2"/><a xlink:title="G19V"><circle cx="60.953488" cy="46.500000" r="4.000000" fill="#ff0000" /></a><g transform="translate(60.953488,46.500000) rotate(-30)"><text style="font-size:10px;font-family:OpenSans;fill:#555;" text-anchor="middle" x="0" y="-6.000000">G19V</text></g><line x1="203.651163" x2="203.651163" y1="46.500000" y2="74.500000" stroke="#BABDB6" stroke-width="2"/><a xlink:title="S78S"><circle cx="203.651163" cy="46.500000" r="4.000000" fill="#0000ff" /></a><g transform="translate(203.651163,46.500000) rotate(-30)"><text style="font-size:10px;font-family:OpenSans;fill:#555;" text-anchor="middle" x="0" y="-6.000000">S78S</text></g><line x1="225.418605" x2="225.418605" y1="46.500000" y2="74.500000" stroke="#BABDB6" stroke-width="2"/><a xlink:title="S87S"><circle cx="225.418605" cy="46.500000" r="4.000000" fill="#0000ff" /></a><g transform="translate(225.418605,46.500000) rotate(-30)"><text style="font-size:10px;font-family:OpenSans;fill:#555;" text-anchor="middle" x="0" y="-6.000000">S87S</text></g><line x1="285.883721" x2="285.883721" y1="46.500000" y2="74.500000" stroke="#BABDB6" stroke-width="2"/><a xlink:title="S112S"><circle cx="285.883721" cy="46.500000" r="4.000000" fill="#0000ff" /></a><g transform="translate(285.883721,46.500000) rotate(-30)"><text style="font-size:10px;font-family:OpenSans;fill:#555;" text-anchor="middle" x="0" y="-6.000000">S112S</text></g><line x1="295.558140" x2="295.558140" y1="46.500000" y2="74.500000" stroke="#BABDB6" stroke-width="2"/><a xlink:title="S116S"><circle cx="295.558140" cy="46.500000" r="4.000000" fill="#0000ff" /></a><g transform="translate(295.558140,46.500000) rotate(-30)"><text style="font-size:10px;font-family:OpenSans;fill:#555;" text-anchor="middle" x="0" y="-6.000000">S116S</text></g><line x1="322.162791" x2="322.162791" y1="46.500000" y2="74.500000" stroke="#BABDB6" stroke-width="2"/><a xlink:title="S127S"><circle cx="322.162791" cy="46.500000" r="4.000000" fill="#0000ff" /></a><g transform="translate(322.162791,46.500000) rotate(-30)"><text style="font-size:10px;font-family:OpenSans;fill:#555;" text-anchor="middle" x="0" y="-6.000000">S127S</text></g><line x1="375.372093" x2="375.372093" y1="46.500000" y2="74.500000" stroke="#BABDB6" stroke-width="2"/><a xlink:title="S149S"><circle cx="375.372093" cy="46.500000" r="4.000000" fill="#0000ff" /></a><g transform="translate(375.372093,46.500000) rotate(-30)"><text style="font-size:10px;font-family:OpenSans;fill:#555;" text-anchor="middle" x="0" y="-6.000000">S149S</text></g><line x1="392.302326" x2="392.302326" y1="46.500000" y2="74.500000" stroke="#BABDB6" stroke-width="2"/><a xlink:title="S156S"><circle cx="392.302326" cy="46.500000" r="4.000000" fill="#0000ff" /></a><g transform="translate(392.302326,46.500000) rotate(-30)"><text style="font-size:10px;font-family:OpenSans;fill:#555;" text-anchor="middle" x="0" y="-6.000000">S156S</text></g><line x1="450.348837" x2="450.348837" y1="46.500000" y2="74.500000" stroke="#BABDB6" stroke-width="2"/><a xlink:title="S180S"><circle cx="450.348837" cy="46.500000" r="4.000000" fill="#0000ff" /></a><g transform="translate(450.348837,46.500000) rotate(-30)"><text style="font-size:10px;font-family:OpenSans;fill:#555;" text-anchor="middle" x="0" y="-6.000000">S180S</text></g><line x1="472.116279" x2="472.116279" y1="46.500000" y2="74.500000" stroke="#BABDB6" stroke-width="2"/><a xlink:title="S189S"><circle cx="472.116279" cy="46.500000" r="4.000000" fill="#0000ff" /></a><g transform="translate(472.116279,46.500000) rotate(-30)"><text style="font-size:10px;font-family:OpenSans;fill:#555;" text-anchor="middle" x="0" y="-6.000000">S189S</text></g><line x1="532.581395" x2="532.581395" y1="46.500000" y2="74.500000" stroke="#BABDB6" stroke-width="2"/><a xlink:title="S214S"><circle cx="532.581395" cy="46.500000" r="4.000000" fill="#0000ff" /></a><g transform="translate(532.581395,46.500000) rotate(-30)"><text style="font-size:10px;font-family:OpenSans;fill:#555;" text-anchor="middle" x="0" y="-6.000000">S214S</text></g><line x1="542.255814" x2="542.255814" y1="46.500000" y2="74.500000" stroke="#BABDB6" stroke-width="2"/><a xlink:title="S218S"><circle cx="542.255814" cy="46.500000" r="4.000000" fill="#0000ff" /></a><g transform="translate(542.255814,46.500000) rotate(-30)"><text style="font-size:10px;font-family:OpenSans;fill:#555;" text-anchor="middle" x="0" y="-6.000000">S218S</text></g><line x1="568.860465" x2="568.860465" y1="34.000000" y2="74.500000" stroke="#BABDB6" stroke-width="2"/><a xlink:title="S229S"><circle cx="568.860465" cy="34.000000" r="4.000000" fill="#0000ff" /></a><g transform="translate(568.860465,34.000000) rotate(-30)"><text style="font-size:10px;font-family:OpenSans;fill:#555;" text-anchor="middle" x="0" y="-6.000000">S229S</text></g><line x1="571.279070" x2="571.279070" y1="46.500000" y2="74.500000" stroke="#BABDB6" stroke-width="2"/><a xlink:title="N230N"><circle cx="571.279070" cy="46.500000" r="4.000000" fill="#0000ff" /></a><g transform="translate(571.279070,46.500000) rotate(-30)"><text style="font-size:10px;font-family:OpenSans;fill:#555;" text-anchor="middle" x="0" y="-6.000000">N230N</text></g><line x1="593.046512" x2="593.046512" y1="46.500000" y2="74.500000" stroke="#BABDB6" stroke-width="2"/><a xlink:title="N239N"><circle cx="593.046512" cy="46.500000" r="4.000000" fill="#0000ff" /></a><g transform="translate(593.046512,46.500000) rotate(-30)"><text style="font-size:10px;font-family:OpenSans;fill:#555;" text-anchor="middle" x="0" y="-6.000000">N239N</text></g><line x1="622.069767" x2="622.069767" y1="46.500000" y2="74.500000" stroke="#BABDB6" stroke-width="2"/><a xlink:title="S251S"><circle cx="622.069767" cy="46.500000" r="4.000000" fill="#0000ff" /></a><g transform="translate(622.069767,46.500000) rotate(-30)"><text style="font-size:10px;font-family:OpenSans;fill:#555;" text-anchor="middle" x="0" y="-6.000000">S251S</text></g><line x1="639.000000" x2="639.000000" y1="46.500000" y2="74.500000" stroke="#BABDB6" stroke-width="2"/><a xlink:title="S258S"><circle cx="639.000000" cy="46.500000" r="4.000000" fill="#0000ff" /></a><g transform="translate(639.000000,46.500000) rotate(-30)"><text style="font-size:10px;font-family:OpenSans;fill:#555;" text-anchor="middle" x="0" y="-6.000000">S258S</text></g><line x1="653.511628" x2="653.511628" y1="46.500000" y2="74.500000" stroke="#BABDB6" stroke-width="2"/><a xlink:title="N264N"><circle cx="653.511628" cy="46.500000" r="4.000000" fill="#0000ff" /></a><g transform="translate(653.511628,46.500000) rotate(-30)"><text style="font-size:10px;font-family:OpenSans;fill:#555;" text-anchor="middle" x="0" y="-6.000000">N264N</text></g><line x1="663.186047" x2="663.186047" y1="46.500000" y2="74.500000" stroke="#BABDB6" stroke-width="2"/><a xlink:title="N268N"><circle cx="663.186047" cy="46.500000" r="4.000000" fill="#0000ff" /></a><g transform="translate(663.186047,46.500000) rotate(-30)"><text style="font-size:10px;font-family:OpenSans;fill:#555;" text-anchor="middle" x="0" y="-6.000000">N268N</text></g><line x1="689.790698" x2="689.790698" y1="46.500000" y2="74.500000" stroke="#BABDB6" stroke-width="2"/><a xlink:title="N279N"><circle cx="689.790698" cy="46.500000" r="4.000000" fill="#0000ff" /></a><g transform="translate(689.790698,46.500000) rotate(-30)"><text style="font-size:10px;font-family:OpenSans;fill:#555;" text-anchor="middle" x="0" y="-6.000000">N279N</text></g><line x1="743.000000" x2="743.000000" y1="46.500000" y2="74.500000" stroke="#BABDB6" stroke-width="2"/><a xlink:title="N301N"><circle cx="743.000000" cy="46.500000" r="4.000000" fill="#0000ff" /></a><g transform="translate(743.000000,46.500000) rotate(-30)"><text style="font-size:10px;font-family:OpenSans;fill:#555;" text-anchor="middle" x="0" y="-6.000000">N301N</text></g><line x1="759.930233" x2="759.930233" y1="46.500000" y2="74.500000" stroke="#BABDB6" stroke-width="2"/><a xlink:title="N308N"><circle cx="759.930233" cy="46.500000" r="4.000000" fill="#0000ff" /></a><g transform="translate(759.930233,46.500000) rotate(-30)"><text style="font-size:10px;font-family:OpenSans;fill:#555;" text-anchor="middle" x="0" y="-6.000000">N308N</text></g><a xlink:title=",  (320aa)"><rect fill="#BABDB6" x="15.000000" y="74.500000" width="773.953488" height="14.000000"/></a><g transform="translate(17.418605,69.500000)"><a xlink:href="https://www.ebi.ac.uk/interpro/entry/pfam/PF16780" xlink:title="AIMP2 lysyl-tRNA synthetase binding domain"><rect fill="#2DCF00" x="0" y="0" width="104.000000" height="24.000000" filter="url(#ds)"/><text style="font-size:12px;font-family:OpenSans;fill:#ffffff;" text-anchor="middle" x="52.000000" y="16.000000">AIMP2_LysRS_bd</text></a></g>
<g transform="translate(300.395349,69.500000)"><a xlink:href="https://www.ebi.ac.uk/interpro/entry/pfam/PF18569" xlink:title="Thioredoxin-like domain"><rect fill="#FF5353" x="0" y="0" width="217.674419" height="24.000000" filter="url(#ds)"/><text style="font-size:12px;font-family:OpenSans;fill:#ffffff;" text-anchor="middle" x="108.837209" y="16.000000">Thioredoxin-like domain</text></a></g>
<g transform="translate(607.558140,69.500000)"><a xlink:href="https://www.ebi.ac.uk/interpro/entry/pfam/PF00043" xlink:title="Glutathione S-transferase, C-terminal domain"><rect fill="#5B5BFF" x="0" y="0" width="152.372093" height="24.000000" filter="url(#ds)"/><text style="font-size:12px;font-family:OpenSans;fill:#ffffff;" text-anchor="middle" x="76.186047" y="16.000000">GST_C</text></a></g>
<g class="axis">
<line x1="15.000000" x2="788.953488" y1="103.500000" y2="103.500000" stroke="#AAAAAA" /><line x1="15.000000" x2="15.000000" y1="103.500000" y2="108.500000" stroke="#AAAAAA" /><line x1="17.418605" x2="17.418605" y1="103.500000" y2="108.500000" stroke="#AAAAAA" /><text style="font-size:10px;font-family:OpenSans;fill:#000000;" text-anchor="middle" x="17.418605" y="118.500000">1</text><line x1="44.023256" x2="44.023256" y1="103.500000" y2="108.500000" stroke="#AAAAAA" /><text style="font-size:10px;font-family:OpenSans;fill:#000000;" text-anchor="middle" x="44.023256" y="118.500000">12</text><line x1="121.418605" x2="121.418605" y1="103.500000" y2="108.500000" stroke="#AAAAAA" /><text style="font-size:10px;font-family:OpenSans;fill:#000000;" text-anchor="middle" x="121.418605" y="118.500000">44</text><line x1="203.651163" x2="203.651163" y1="103.500000" y2="108.500000" stroke="#AAAAAA" /><text style="font-size:10px;font-family:OpenSans;fill:#000000;" text-anchor="middle" x="203.651163" y="118.500000">78</text><line x1="225.418605" x2="225.418605" y1="103.500000" y2="108.500000" stroke="#AAAAAA" /><text style="font-size:10px;font-family:OpenSans;fill:#000000;" text-anchor="middle" x="225.418605" y="118.500000">87</text><line x1="285.883721" x2="285.883721" y1="103.500000" y2="108.500000" stroke="#AAAAAA" /><text style="font-size:10px;font-family:OpenSans;fill:#000000;" text-anchor="middle" x="285.883721" y="118.500000">112</text><line x1="322.162791" x2="322.162791" y1="103.500000" y2="108.500000" stroke="#AAAAAA" /><text style="font-size:10px;font-family:OpenSans;fill:#000000;" text-anchor="middle" x="322.162791" y="118.500000">127</text><line x1="375.372093" x2="375.372093" y1="103.500000" y2="108.500000" stroke="#AAAAAA" /><text style="font-size:10px;font-family:OpenSans;fill:#000000;" text-anchor="middle" x="375.372093" y="118.500000">149</text><line x1="450.348837" x2="450.348837" y1="103.500000" y2="108.500000" stroke="#AAAAAA" /><text style="font-size:10px;font-family:OpenSans;fill:#000000;" text-anchor="middle" x="450.348837" y="118.500000">180</text><line x1="472.116279" x2="472.116279" y1="103.500000" y2="108.500000" stroke="#AAAAAA" /><text style="font-size:10px;font-family:OpenSans;fill:#000000;" text-anchor="middle" x="472.116279" y="118.500000">189</text><line x1="532.581395" x2="532.581395" y1="103.500000" y2="108.500000" stroke="#AAAAAA" /><text style="font-size:10px;font-family:OpenSans;fill:#000000;" text-anchor="middle" x="532.581395" y="118.500000">214</text><line x1="568.860465" x2="568.860465" y1="103.500000" y2="108.500000" stroke="#AAAAAA" /><text style="font-size:10px;font-family:OpenSans;fill:#000000;" text-anchor="middle" x="568.860465" y="118.500000">229</text><line x1="593.046512" x2="593.046512" y1="103.500000" y2="108.500000" stroke="#AAAAAA" /><text style="font-size:10px;font-family:OpenSans;fill:#000000;" text-anchor="middle" x="593.046512" y="118.500000">239</text><line x1="622.069767" x2="622.069767" y1="103.500000" y2="108.500000" stroke="#AAAAAA" /><text style="font-size:10px;font-family:OpenSans;fill:#000000;" text-anchor="middle" x="622.069767" y="118.500000">251</text><line x1="653.511628" x2="653.511628" y1="103.500000" y2="108.500000" stroke="#AAAAAA" /><text style="font-size:10px;font-family:OpenSans;fill:#000000;" text-anchor="middle" x="653.511628" y="118.500000">264</text><line x1="689.790698" x2="689.790698" y1="103.500000" y2="108.500000" stroke="#AAAAAA" /><text style="font-size:10px;font-family:OpenSans;fill:#000000;" text-anchor="middle" x="689.790698" y="118.500000">279</text><line x1="743.000000" x2="743.000000" y1="103.500000" y2="108.500000" stroke="#AAAAAA" /><text style="font-size:10px;font-family:OpenSans;fill:#000000;" text-anchor="middle" x="743.000000" y="118.500000">301</text><line x1="788.953488" x2="788.953488" y1="103.500000" y2="108.500000" stroke="#AAAAAA" /><text style="font-size:10px;font-family:OpenSans;fill:#000000;" text-anchor="middle" x="788.953488" y="118.500000">320</text></g>
<rect fill="#2DCF00" x="4" y="132.500000" width="12" height="12" filter="url(#ds)"/><text style="font-size:12px;font-family:OpenSans;fill:#000000;" text-anchor="start" x="20" y="144.500000">AIMP2 lysyl-tRNA synthetase binding domain</text><rect fill="#5B5BFF" x="4" y="146.500000" width="12" height="12" filter="url(#ds)"/><text style="font-size:12px;font-family:OpenSans;fill:#000000;" text-anchor="start" x="20" y="158.500000">Glutathione S-transferase, C-terminal domain</text></svg>
