<?xml version='1.0'?>
<svg xmlns="http://www.w3.org/2000/svg" xmlns:xlink="http://www.w3.org/1999/xlink" width="5592.785714" height="171.900000">
<defs>
  <filter id="ds" x="0" y="0">
    <feOffset in="SourceAlpha" dx="2" dy="2" />
    <feComponentTransfer><feFuncA type="linear" slope="0.2"/></feComponentTransfer>
    <feGaussianBlur result="blurOut" stdDeviation="1" />
    <feBlend in="SourceGraphic" in2="blurOut" mode="normal" />
  </filter>
  <pattern id="disordered-hatch" patternUnits="userSpaceOnUse" width="4" height="4">
    <path d="M-1,1 l2,-2 M0,4 l4,-4 M3,5 l2,-2" stroke="#000000" opacity="0.3" />
  </pattern>
</defs>
<line x1="109.000000" x2="109.000000" y1="46.500000" y2="74.500000" stroke="#BABDB6" stroke-width="2"/><a xlink:title="V28V"><circle cx="109.000000" cy="46.500000" r="4.000000" fill="#0000ff" /></a><g transform="translate(109.000000,46.500000) rotate(-30)"><text style="font-size:10px;font-family:OpenSans;fill:#555;" text-anchor="middle" x="0" y="-6.000000">V28V</text></g><line x1="464.857143" x2="464.857143" y1="46.500000" y2="74.500000" stroke="#BABDB6" stroke-width="2"/><a xlink:title="V134V"><circle cx="464.857143" cy="46.500000" r="4.000000" fill="#0000ff" /></a><g transform="translate(464.857143,46.500000) rotate(-30)"><text style="font-size:10px;font-family:OpenSans;fill:#555;" text-anchor="middle" x="0" y="-6.000000">V134V</text></g><line x1="478.285714" x2="478.285714" y1="46.500000" y2="74.500000" stroke="#BABDB6" stroke-width="2"/><a xlink:title="S138S"><circle cx="478.285714" cy="46.500000" r="4.000000" fill="#0000ff" /></a><g transform="translate(478.285714,46.500000) rotate(-30)"><text style="font-size:10px;font-family:OpenSans;fill:#555;" text-anchor="middle" x="0" y="-6.000000">S138S</text></g><line x1="834.142857" x2="834.142857" y1="46.500000" y2="74.500000" stroke="#BABDB6" stroke-width="2"/><a xlink:title="S244S"><circle cx="834.142857" cy="46.500000" r="4.000000" fill="#0000ff" /></a><g transform="translate(834.142857,46.500000) rotate(-30)"><text style="font-size:10px;font-family:OpenSans;fill:#555;" text-anchor="middle" x="0" y="-6.000000">S244S</text></g><line x1="871.071429" x2="871.071429" y1="46.500000" y2="74.500000" stroke="#BABDB6" stroke-width="2"/><a xlink:title="V255M"><circle cx="871.071429" cy="46.500000" r="4.000000" fill="#ff0000" /></a><g transform="translate(871.071429,46.500000) rotate(-30)"><text style="font-size:10px;font-family:OpenSans;fill:#555;" text-anchor="middle" x="0" y="-6.000000">V255M</text></g><line x1="1223.571429" x2="1223.571429" y1="46.500000" y2="74.500000" stroke="#BABDB6" stroke-width="2"/><a xlink:title="Q360Q"><circle cx="1223.571429" cy="46.500000" r="4.000000" fill="#0000ff" /></a><g transform="translate(1223.571429,46.500000) rotate(-30)"><text style="font-size:10px;font-family:OpenSans;fill:#555;" text-anchor="middle" x="0" y="-6.000000">Q360Q</text></g><line x1="1250.428571" x2="1250.428571" y1="46.500000" y2="74.500000" stroke="#BABDB6" stroke-width="2"/><a xlink:title="V368M"><circle cx="1250.428571" cy="46.500000" r="4.000000" fill="#ff0000" /></a><g transform="translate(1250.428571,46.500000) rotate(-30)"><text style="font-size:10px;font-family:OpenSans;fill:#555;" text-anchor="middle" x="0" y="-6.000000">V368M</text></g><line x1="1287.357143" x2="1287.357143" y1="46.500000" y2="74.500000" stroke="#BABDB6" stroke-width="2"/><a xlink:title="E379K"><circle cx="1287.357143" cy="46.500000" r="4.000000" fill="#ff0000" /></a><g transform="translate(1287.357143,46.500000) rotate(-30)"><text style="font-size:10px;font-family:OpenSans;fill:#555;" text-anchor="middle" x="0" y="-6.000000">E379K</text></g><line x1="1381.357143" x2="1381.357143" y1="46.500000" y2="74.500000" stroke="#BABDB6" stroke-width="2"/><a xlink:title="L407F"><circle cx="1381.357143" cy="46.500000" r="4.000000" fill="#ff0000" /></a><g transform="translate(1381.357143,46.500000) rotate(-30)"><text style="font-size:10px;font-family:OpenSans;fill:#555;" text-anchor="middle" x="0" y="-6.000000">L407F</text></g><line x1="1579.428571" x2="1579.428571" y1="46.500000" y2="74.500000" stroke="#BABDB6" stroke-width="2"/><a xlink:title="Q466Q"><circle cx="1579.428571" cy="46.500000" r="4.000000" fill="#0000ff" /></a><g transform="translate(1579.428571,46.500000) rotate(-30)"><text style="font-size:10px;font-family:OpenSans;fill:#555;" text-anchor="middle" x="0" y="-6.000000">Q466Q</text></g><line x1="1643.214286" x2="1643.214286" y1="46.500000" y2="74.500000" stroke="#BABDB6" stroke-width="2"/><a xlink:title="E485K"><circle cx="1643.214286" cy="46.500000" r="4.000000" fill="#ff0000" /></a><g transform="translate(1643.214286,46.500000) rotate(-30)"><text style="font-size:10px;font-family:OpenSans;fill:#555;" text-anchor="middle" x="0" y="-6.000000">E485K</text></g><line x1="1760.714286" x2="1760.714286" y1="46.500000" y2="74.500000" stroke="#BABDB6" stroke-width="2"/><a xlink:title="L520F"><circle cx="1760.714286" cy="46.500000" r="4.000000" fill="#ff0000" /></a><g transform="translate(1760.714286,46.500000) rotate(-30)"><text style="font-size:10px;font-family:OpenSans;fill:#555;" text-anchor="middle" x="0" y="-6.000000">L520F</text></g><line x1="1844.642857" x2="1844.642857" y1="46.500000" y2="74.500000" stroke="#BABDB6" stroke-width="2"/><a xlink:title="L545L"><circle cx="1844.642857" cy="46.500000" r="4.000000" fill="#0000ff" /></a><g transform="translate(1844.642857,46.500000) rotate(-30)"><text style="font-size:10px;font-family:OpenSans;fill:#555;" text-anchor="middle" x="0" y="-6.000000">L545L</text></g><line x1="2200.500000" x2="2200.500000" y1="46.500000" y2="74.500000" stroke="#BABDB6" stroke-width="2"/><a xlink:title="L651L"><circle cx="2200.500000" cy="46.500000" r="4.000000" fill="#0000ff" /></a><g transform="translate(2200.500000,46.500000) rotate(-30)"><text style="font-size:10px;font-family:OpenSans;fill:#555;" text-anchor="middle" x="0" y="-6.000000">L651L</text></g><line x1="2395.214286" x2="2395.214286" y1="46.500000" y2="74.500000" stroke="#BABDB6" stroke-width="2"/><a xlink:title="V709V"><circle cx="2395.214286" cy="46.500000" r="4.000000" fill="#0000ff" /></a><g transform="translate(2395.214286,46.500000) rotate(-30)"><text style="font-size:10px;font-family:OpenSans;fill:#555;" text-anchor="middle" x="0" y="-6.000000">V709V</text></g><line x1="2764.500000" x2="2764.500000" y1="46.500000" y2="74.500000" stroke="#BABDB6" stroke-width="2"/><a xlink:title="S819S"><circle cx="2764.500000" cy="46.500000" r="4.000000" fill="#0000ff" /></a><g transform="translate(2764.500000,46.500000) rotate(-30)"><text style="font-size:10px;font-family:OpenSans;fill:#555;" text-anchor="middle" x="0" y="-6.000000">S819S</text></g><line x1="2774.571429" x2="2774.571429" y1="46.500000" y2="74.500000" stroke="#BABDB6" stroke-width="2"/><a xlink:title="V822V"><circle cx="2774.571429" cy="46.500000" r="4.000000" fill="#0000ff" /></a><g transform="translate(2774.571429,46.500000) rotate(-30)"><text style="font-size:10px;font-family:OpenSans;fill:#555;" text-anchor="middle" x="0" y="-6.000000">V822V</text></g><line x1="3143.857143" x2="3143.857143" y1="46.500000" y2="74.500000" stroke="#BABDB6" stroke-width="2"/><a xlink:title="S932S"><circle cx="3143.857143" cy="46.500000" r="4.000000" fill="#0000ff" /></a><g transform="translate(3143.857143,46.500000) rotate(-30)"><text style="font-size:10px;font-family:OpenSans;fill:#555;" text-anchor="middle" x="0" y="-6.000000">S932S</text></g><line x1="3509.785714" x2="3509.785714" y1="46.500000" y2="74.500000" stroke="#BABDB6" stroke-width="2"/><a xlink:title="Q1041Q"><circle cx="3509.785714" cy="46.500000" r="4.000000" fill="#0000ff" /></a><g transform="translate(3509.785714,46.500000) rotate(-30)"><text style="font-size:10px;font-family:OpenSans;fill:#555;" text-anchor="middle" x="0" y="-6.000000">Q1041Q</text></g><line x1="3573.571429" x2="3573.571429" y1="46.500000" y2="74.500000" stroke="#BABDB6" stroke-width="2"/><a xlink:title="E1060K"><circle cx="3573.571429" cy="46.500000" r="4.000000" fill="#ff0000" /></a><g transform="translate(3573.571429,46.500000) rotate(-30)"><text style="font-size:10px;font-family:OpenSans;fill:#555;" text-anchor="middle" x="0" y="-6.000000">E1060K</text></g><line x1="3889.142857" x2="3889.142857" y1="46.500000" y2="74.500000" stroke="#BABDB6" stroke-width="2"/><a xlink:title="Q1154Q"><circle cx="3889.142857" cy="46.500000" r="4.000000" fill="#0000ff" /></a><g transform="translate(3889.142857,46.500000) rotate(-30)"><text style="font-size:10px;font-family:OpenSans;fill:#555;" text-anchor="middle" x="0" y="-6.000000">Q1154Q</text></g><line x1="3952.928571" x2="3952.928571" y1="46.500000" y2="74.500000" stroke="#BABDB6" stroke-width="2"/><a xlink:title="E1173K"><circle cx="3952.928571" cy="46.500000" r="4.000000" fill="#ff0000" /></a><g transform="translate(3952.928571,46.500000) rotate(-30)"><text style="font-size:10px;font-family:OpenSans;fill:#555;" text-anchor="middle" x="0" y="-6.000000">E1173K</text></g><line x1="4130.857143" x2="4130.857143" y1="46.500000" y2="74.500000" stroke="#BABDB6" stroke-width="2"/><a xlink:title="L1226L"><circle cx="4130.857143" cy="46.500000" r="4.000000" fill="#0000ff" /></a><g transform="translate(4130.857143,46.500000) rotate(-30)"><text style="font-size:10px;font-family:OpenSans;fill:#555;" text-anchor="middle" x="0" y="-6.000000">L1226L</text></g><line x1="4506.857143" x2="4506.857143" y1="34.000000" y2="74.500000" stroke="#BABDB6" stroke-width="2"/><a xlink:title="L1338L"><circle cx="4506.857143" cy="34.000000" r="4.000000" fill="#0000ff" /></a><g transform="translate(4506.857143,34.000000) rotate(-30)"><text style="font-size:10px;font-family:OpenSans;fill:#555;" text-anchor="middle" x="0" y="-6.000000">L1338L</text></g><line x1="4510.214286" x2="4510.214286" y1="46.500000" y2="74.500000" stroke="#BABDB6" stroke-width="2"/><a xlink:title="L1339L"><circle cx="4510.214286" cy="46.500000" r="4.000000" fill="#0000ff" /></a><g transform="translate(4510.214286,46.500000) rotate(-30)"><text style="font-size:10px;font-family:OpenSans;fill:#555;" text-anchor="middle" x="0" y="-6.000000">L1339L</text></g><a xlink:title=",  (1657aa)"><rect fill="#BABDB6" x="15.000000" y="74.500000" width="5562.785714" height="14.000000"/></a><g transform="translate(380.928571,69.500000)"><a xlink:href="https://www.ebi.ac.uk/interpro/entry/pfam/PF00415" xlink:title="Regulator of chromosome condensation (RCC1) repeat"><rect fill="#2DCF00" x="0" y="0" width="188.000000" height="24.000000" filter="url(#ds)"/><text style="font-size:12px;font-family:OpenSans;fill:#ffffff;" text-anchor="middle" x="94.000000" y="16.000000">RCC1</text></a></g>
<g transform="translate(589.071429,69.500000)"><a xlink:href="https://www.ebi.ac.uk/interpro/entry/pfam/PF00415" xlink:title="Regulator of chromosome condensation (RCC1) repeat"><rect fill="#FF5353" x="0" y="0" width="151.071429" height="24.000000" filter="url(#ds)"/><text style="font-size:12px;font-family:OpenSans;fill:#ffffff;" text-anchor="middle" x="75.535714" y="16.000000">RCC1</text></a></g>
<g transform="translate(1784.214286,69.500000)"><a xlink:href="https://www.ebi.ac.uk/interpro/entry/pfam/PF00415" xlink:title="Regulator of chromosome condensation (RCC1) repeat"><rect fill="#5B5BFF" x="0" y="0" width="157.785714" height="24.000000" filter="url(#ds)"/><text style="font-size:12px;font-family:OpenSans;fill:#ffffff;" text-anchor="middle" x="78.892857" y="16.000000">RCC1</text></a></g>
<g transform="translate(1958.785714,69.500000)"><a xlink:href="https://www.ebi.ac.uk/interpro/entry/pfam/PF00415" xlink:title="Regulator of chromosome condensation (RCC1) repeat"><rect fill="#EBD61D" x="0" y="0" width="154.428571" height="24.000000" filter="url(#ds)"/><text style="font-size:12px;font-family:OpenSans;fill:#ffffff;" text-anchor="middle" x="77.214286" y="16.000000">RCC1</text></a></g>
<g transform="translate(2348.214286,69.500000)"><a xlink:href="https://www.ebi.ac.uk/interpro/entry/pfam/PF00621" xlink:title="RhoGEF domain"><rect fill="#BA21E0" x="0" y="0" width="614.357143" height="24.000000" filter="url(#ds)"/><text style="font-size:12px;font-family:OpenSans;fill:#ffffff;" text-anchor="middle" x="307.178571" y="16.000000">RhoGEF domain</text></a></g>
<g transform="translate(3536.642857,69.500000)"><a xlink:href="https://www.ebi.ac.uk/interpro/entry/pfam/PF02493" xlink:title="MORN repeat"><rect fill="#FF9C42" x="0" y="0" width="70.500000" height="24.000000" filter="url(#ds)"/><text style="font-size:12px;font-family:OpenSans;fill:#ffffff;" text-anchor="middle" x="35.250000" y="16.000000">MORN</text></a></g>
<g transform="translate(3613.857143,69.500000)"><a xlink:href="https://www.ebi.ac.uk/interpro/entry/pfam/PF02493" xlink:title="MORN repeat"><rect fill="#FF7DFF" x="0" y="0" width="63.785714" height="24.000000" filter="url(#ds)"/><text style="font-size:12px;font-family:OpenSans;fill:#ffffff;" text-anchor="middle" x="31.892857" y="16.000000">MORN</text></a></g>
<g transform="translate(3707.857143,69.500000)"><a xlink:href="https://www.ebi.ac.uk/interpro/entry/pfam/PF02493" xlink:title="MORN repeat"><rect fill="#B9264F" x="0" y="0" width="70.500000" height="24.000000" filter="url(#ds)"/><text style="font-size:12px;font-family:OpenSans;fill:#ffffff;" text-anchor="middle" x="35.250000" y="16.000000">MORN</text></a></g>
<g transform="translate(3785.071429,69.500000)"><a xlink:href="https://www.ebi.ac.uk/interpro/entry/pfam/PF02493" xlink:title="MORN repeat"><rect fill="#BABA21" x="0" y="0" width="53.714286" height="24.000000" filter="url(#ds)"/><text style="font-size:12px;font-family:OpenSans;fill:#ffffff;" text-anchor="middle" x="26.857143" y="16.000000">MORN</text></a></g>
<g transform="translate(3879.071429,69.500000)"><a xlink:href="https://www.ebi.ac.uk/interpro/entry/pfam/PF02493" xlink:title="MORN repeat"><rect fill="#C48484" x="0" y="0" width="50.357143" height="24.000000" filter="url(#ds)"/><text style="font-size:12px;font-family:OpenSans;fill:#ffffff;" text-anchor="middle" x="25.178571" y="16.000000">MORN</text></a></g>
<g transform="translate(3959.642857,69.500000)"><a xlink:href="https://www.ebi.ac.uk/interpro/entry/pfam/PF02493" xlink:title="MORN repeat"><rect fill="#1F88A7" x="0" y="0" width="47.000000" height="24.000000" filter="url(#ds)"/><text style="font-size:12px;font-family:OpenSans;fill:#ffffff;" text-anchor="middle" x="23.500000" y="16.000000">MORN</text></a></g>
<g transform="translate(4036.857143,69.500000)"><a xlink:href="https://www.ebi.ac.uk/interpro/entry/pfam/PF02493" xlink:title="MORN repeat"><rect fill="#CAFEB8" x="0" y="0" width="63.785714" height="24.000000" filter="url(#ds)"/><text style="font-size:12px;font-family:OpenSans;fill:#ffffff;" text-anchor="middle" x="31.892857" y="16.000000">MORN</text></a></g>
<g transform="translate(4114.071429,69.500000)"><a xlink:href="https://www.ebi.ac.uk/interpro/entry/pfam/PF02493" xlink:title="MORN repeat"><rect fill="#4A9586" x="0" y="0" width="73.857143" height="24.000000" filter="url(#ds)"/><text style="font-size:12px;font-family:OpenSans;fill:#ffffff;" text-anchor="middle" x="36.928571" y="16.000000">MORN</text></a></g>
<g transform="translate(5232.000000,69.500000)"><a xlink:href="https://www.ebi.ac.uk/interpro/entry/pfam/PF02204" xlink:title="Vacuolar sorting protein 9 (VPS9) domain"><rect fill="#CEB86C" x="0" y="0" width="332.357143" height="24.000000" filter="url(#ds)"/><text style="font-size:12px;font-family:OpenSans;fill:#ffffff;" text-anchor="middle" x="166.178571" y="16.000000">Vacuolar sorting protein 9 (VPS9) domain</text></a></g>
<g class="axis">
<line x1="15.000000" x2="5577.785714" y1="103.500000" y2="103.500000" stroke="#AAAAAA" /><line x1="15.000000" x2="15.000000" y1="103.500000" y2="108.500000" stroke="#AAAAAA" /><line x1="15.000000" x2="15.000000" y1="103.500000" y2="108.500000" stroke="#AAAAAA" /><text style="font-size:10px;font-family:OpenSans;fill:#000000;" text-anchor="middle" x="15.000000" y="118.500000">0</text><line x1="109.000000" x2="109.000000" y1="103.500000" y2="108.500000" stroke="#AAAAAA" /><text style="font-size:10px;font-family:OpenSans;fill:#000000;" text-anchor="middle" x="109.000000" y="118.500000">28</text><line x1="380.928571" x2="380.928571" y1="103.500000" y2="108.500000" stroke="#AAAAAA" /><text style="font-size:10px;font-family:OpenSans;fill:#000000;" text-anchor="middle" x="380.928571" y="118.500000">109</text><line x1="464.857143" x2="464.857143" y1="103.500000" y2="108.500000" stroke="#AAAAAA" /><text style="font-size:10px;font-family:OpenSans;fill:#000000;" text-anchor="middle" x="464.857143" y="118.500000">134</text><line x1="568.928571" x2="568.928571" y1="103.500000" y2="108.500000" stroke="#AAAAAA" /><text style="font-size:10px;font-family:OpenSans;fill:#000000;" text-anchor="middle" x="568.928571" y="118.500000">165</text><line x1="589.071429" x2="589.071429" y1="103.500000" y2="108.500000" stroke="#AAAAAA" /><text style="font-size:10px;font-family:OpenSans;fill:#000000;" text-anchor="middle" x="589.071429" y="118.500000">171</text><line x1="740.142857" x2="740.142857" y1="103.500000" y2="108.500000" stroke="#AAAAAA" /><text style="font-size:10px;font-family:OpenSans;fill:#000000;" text-anchor="middle" x="740.142857" y="118.500000">216</text><line x1="834.142857" x2="834.142857" y1="103.500000" y2="108.500000" stroke="#AAAAAA" /><text style="font-size:10px;font-family:OpenSans;fill:#000000;" text-anchor="middle" x="834.142857" y="118.500000">244</text><line x1="871.071429" x2="871.071429" y1="103.500000" y2="108.500000" stroke="#AAAAAA" /><text style="font-size:10px;font-family:OpenSans;fill:#000000;" text-anchor="middle" x="871.071429" y="118.500000">255</text><line x1="1223.571429" x2="1223.571429" y1="103.500000" y2="108.500000" stroke="#AAAAAA" /><text style="font-size:10px;font-family:OpenSans;fill:#000000;" text-anchor="middle" x="1223.571429" y="118.500000">360</text><line x1="1250.428571" x2="1250.428571" y1="103.500000" y2="108.500000" stroke="#AAAAAA" /><text style="font-size:10px;font-family:OpenSans;fill:#000000;" text-anchor="middle" x="1250.428571" y="118.500000">368</text><line x1="1287.357143" x2="1287.357143" y1="103.500000" y2="108.500000" stroke="#AAAAAA" /><text style="font-size:10px;font-family:OpenSans;fill:#000000;" text-anchor="middle" x="1287.357143" y="118.500000">379</text><line x1="1381.357143" x2="1381.357143" y1="103.500000" y2="108.500000" stroke="#AAAAAA" /><text style="font-size:10px;font-family:OpenSans;fill:#000000;" text-anchor="middle" x="1381.357143" y="118.500000">407</text><line x1="1579.428571" x2="1579.428571" y1="103.500000" y2="108.500000" stroke="#AAAAAA" /><text style="font-size:10px;font-family:OpenSans;fill:#000000;" text-anchor="middle" x="1579.428571" y="118.500000">466</text><line x1="1643.214286" x2="1643.214286" y1="103.500000" y2="108.500000" stroke="#AAAAAA" /><text style="font-size:10px;font-family:OpenSans;fill:#000000;" text-anchor="middle" x="1643.214286" y="118.500000">485</text><line x1="1760.714286" x2="1760.714286" y1="103.500000" y2="108.500000" stroke="#AAAAAA" /><text style="font-size:10px;font-family:OpenSans;fill:#000000;" text-anchor="middle" x="1760.714286" y="118.500000">520</text><line x1="1784.214286" x2="1784.214286" y1="103.500000" y2="108.500000" stroke="#AAAAAA" /><text style="font-size:10px;font-family:OpenSans;fill:#000000;" text-anchor="middle" x="1784.214286" y="118.500000">527</text><line x1="1844.642857" x2="1844.642857" y1="103.500000" y2="108.500000" stroke="#AAAAAA" /><text style="font-size:10px;font-family:OpenSans;fill:#000000;" text-anchor="middle" x="1844.642857" y="118.500000">545</text><line x1="1942.000000" x2="1942.000000" y1="103.500000" y2="108.500000" stroke="#AAAAAA" /><text style="font-size:10px;font-family:OpenSans;fill:#000000;" text-anchor="middle" x="1942.000000" y="118.500000">574</text><line x1="1958.785714" x2="1958.785714" y1="103.500000" y2="108.500000" stroke="#AAAAAA" /><text style="font-size:10px;font-family:OpenSans;fill:#000000;" text-anchor="middle" x="1958.785714" y="118.500000">579</text><line x1="2113.214286" x2="2113.214286" y1="103.500000" y2="108.500000" stroke="#AAAAAA" /><text style="font-size:10px;font-family:OpenSans;fill:#000000;" text-anchor="middle" x="2113.214286" y="118.500000">625</text><line x1="2200.500000" x2="2200.500000" y1="103.500000" y2="108.500000" stroke="#AAAAAA" /><text style="font-size:10px;font-family:OpenSans;fill:#000000;" text-anchor="middle" x="2200.500000" y="118.500000">651</text><line x1="2348.214286" x2="2348.214286" y1="103.500000" y2="108.500000" stroke="#AAAAAA" /><text style="font-size:10px;font-family:OpenSans;fill:#000000;" text-anchor="middle" x="2348.214286" y="118.500000">695</text><line x1="2395.214286" x2="2395.214286" y1="103.500000" y2="108.500000" stroke="#AAAAAA" /><text style="font-size:10px;font-family:OpenSans;fill:#000000;" text-anchor="middle" x="2395.214286" y="118.500000">709</text><line x1="2764.500000" x2="2764.500000" y1="103.500000" y2="108.500000" stroke="#AAAAAA" /><text style="font-size:10px;font-family:OpenSans;fill:#000000;" text-anchor="middle" x="2764.500000" y="118.500000">819</text><line x1="2962.571429" x2="2962.571429" y1="103.500000" y2="108.500000" stroke="#AAAAAA" /><text style="font-size:10px;font-family:OpenSans;fill:#000000;" text-anchor="middle" x="2962.571429" y="118.500000">878</text><line x1="3143.857143" x2="3143.857143" y1="103.500000" y2="108.500000" stroke="#AAAAAA" /><text style="font-size:10px;font-family:OpenSans;fill:#000000;" text-anchor="middle" x="3143.857143" y="118.500000">932</text><line x1="3509.785714" x2="3509.785714" y1="103.500000" y2="108.500000" stroke="#AAAAAA" /><text style="font-size:10px;font-family:OpenSans;fill:#000000;" text-anchor="middle" x="3509.785714" y="118.500000">1041</text><line x1="3536.642857" x2="3536.642857" y1="103.500000" y2="108.500000" stroke="#AAAAAA" /><text style="font-size:10px;font-family:OpenSans;fill:#000000;" text-anchor="middle" x="3536.642857" y="118.500000">1049</text><line x1="3573.571429" x2="3573.571429" y1="103.500000" y2="108.500000" stroke="#AAAAAA" /><text style="font-size:10px;font-family:OpenSans;fill:#000000;" text-anchor="middle" x="3573.571429" y="118.500000">1060</text><line x1="3607.142857" x2="3607.142857" y1="103.500000" y2="108.500000" stroke="#AAAAAA" /><text style="font-size:10px;font-family:OpenSans;fill:#000000;" text-anchor="middle" x="3607.142857" y="118.500000">1070</text><line x1="3677.642857" x2="3677.642857" y1="103.500000" y2="108.500000" stroke="#AAAAAA" /><text style="font-size:10px;font-family:OpenSans;fill:#000000;" text-anchor="middle" x="3677.642857" y="118.500000">1091</text><line x1="3707.857143" x2="3707.857143" y1="103.500000" y2="108.500000" stroke="#AAAAAA" /><text style="font-size:10px;font-family:OpenSans;fill:#000000;" text-anchor="middle" x="3707.857143" y="118.500000">1100</text><line x1="3778.357143" x2="3778.357143" y1="103.500000" y2="108.500000" stroke="#AAAAAA" /><text style="font-size:10px;font-family:OpenSans;fill:#000000;" text-anchor="middle" x="3778.357143" y="118.500000">1121</text><line x1="3838.785714" x2="3838.785714" y1="103.500000" y2="108.500000" stroke="#AAAAAA" /><text style="font-size:10px;font-family:OpenSans;fill:#000000;" text-anchor="middle" x="3838.785714" y="118.500000">1139</text><line x1="3889.142857" x2="3889.142857" y1="103.500000" y2="108.500000" stroke="#AAAAAA" /><text style="font-size:10px;font-family:OpenSans;fill:#000000;" text-anchor="middle" x="3889.142857" y="118.500000">1154</text><line x1="3929.428571" x2="3929.428571" y1="103.500000" y2="108.500000" stroke="#AAAAAA" /><text style="font-size:10px;font-family:OpenSans;fill:#000000;" text-anchor="middle" x="3929.428571" y="118.500000">1166</text><line x1="3952.928571" x2="3952.928571" y1="103.500000" y2="108.500000" stroke="#AAAAAA" /><text style="font-size:10px;font-family:OpenSans;fill:#000000;" text-anchor="middle" x="3952.928571" y="118.500000">1173</text><line x1="4006.642857" x2="4006.642857" y1="103.500000" y2="108.500000" stroke="#AAAAAA" /><text style="font-size:10px;font-family:OpenSans;fill:#000000;" text-anchor="middle" x="4006.642857" y="118.500000">1189</text><line x1="4036.857143" x2="4036.857143" y1="103.500000" y2="108.500000" stroke="#AAAAAA" /><text style="font-size:10px;font-family:OpenSans;fill:#000000;" text-anchor="middle" x="4036.857143" y="118.500000">1198</text><line x1="4100.642857" x2="4100.642857" y1="103.500000" y2="108.500000" stroke="#AAAAAA" /><text style="font-size:10px;font-family:OpenSans;fill:#000000;" text-anchor="middle" x="4100.642857" y="118.500000">1217</text><line x1="4130.857143" x2="4130.857143" y1="103.500000" y2="108.500000" stroke="#AAAAAA" /><text style="font-size:10px;font-family:OpenSans;fill:#000000;" text-anchor="middle" x="4130.857143" y="118.500000">1226</text><line x1="4187.928571" x2="4187.928571" y1="103.500000" y2="108.500000" stroke="#AAAAAA" /><text style="font-size:10px;font-family:OpenSans;fill:#000000;" text-anchor="middle" x="4187.928571" y="118.500000">1243</text><line x1="4506.857143" x2="4506.857143" y1="103.500000" y2="108.500000" stroke="#AAAAAA" /><text style="font-size:10px;font-family:OpenSans;fill:#000000;" text-anchor="middle" x="4506.857143" y="118.500000">1338</text><line x1="5232.000000" x2="5232.000000" y1="103.500000" y2="108.500000" stroke="#AAAAAA" /><text style="font-size:10px;font-family:OpenSans;fill:#000000;" text-anchor="middle" x="5232.000000" y="118.500000">1554</text><line x1="5577.785714" x2="5577.785714" y1="103.500000" y2="108.500000" stroke="#AAAAAA" /><text style="font-size:10px;font-family:OpenSans;fill:#000000;" text-anchor="middle" x="5577.785714" y="118.500000">1657</text></g>
<rect fill="#EBD61D" x="4" y="132.500000" width="12" height="12" filter="url(#ds)"/><text style="font-size:12px;font-family:OpenSans;fill:#000000;" text-anchor="start" x="20" y="144.500000">Regulator of chromosome condensation (RCC1) repeat</text><rect fill="#4A9586" x="4" y="146.500000" width="12" height="12" filter="url(#ds)"/><text style="font-size:12px;font-family:OpenSans;fill:#000000;" text-anchor="start" x="20" y="158.500000">MORN repeat</text></svg>
