<?xml version='1.0'?>
<svg xmlns="http://www.w3.org/2000/svg" xmlns:xlink="http://www.w3.org/1999/xlink" width="430.000000" height="158.000000">
<defs>
  <filter id="ds" x="0" y="0">
    <feOffset in="SourceAlpha" dx="2" dy="2" />
    <feComponentTransfer><feFuncA type="linear" slope="0.2"/></feComponentTransfer>
    <feGaussianBlur result="blurOut" stdDeviation="1" />
    <feBlend in="SourceGraphic" in2="blurOut" mode="normal" />
  </filter>
  <pattern id="disordered-hatch" patternUnits="userSpaceOnUse" width="4" height="4">
    <path d="M-1,1 l2,-2 M0,4 l4,-4 M3,5 l2,-2" stroke="#000000" opacity="0.3" />
  </pattern>
</defs>
<line x1="18.129074" x2="18.129074" y1="46.500000" y2="87.000000" stroke="#BABDB6" stroke-width="2"/><a xlink:title="E6E"><circle cx="18.129074" cy="46.500000" r="4.000000" fill="#0000ff" /></a><g transform="translate(18.129074,46.500000) rotate(-30)"><text style="font-size:10px;font-family:OpenSans;fill:#555;" text-anchor="middle" x="0" y="-6.000000">E6E</text></g><line x1="19.172099" x2="19.172099" y1="59.000000" y2="87.000000" stroke="#BABDB6" stroke-width="2"/><a xlink:title="R8L"><circle cx="19.172099" cy="59.000000" r="4.000000" fill="#ff0000" /></a><g transform="translate(19.172099,59.000000) rotate(-30)"><text style="font-size:10px;font-family:OpenSans;fill:#555;" text-anchor="middle" x="0" y="-6.000000">R8L</text></g><line x1="31.688396" x2="31.688396" y1="59.000000" y2="87.000000" stroke="#BABDB6" stroke-width="2"/><a xlink:title="P32P"><circle cx="31.688396" cy="59.000000" r="4.000000" fill="#0000ff" /></a><g transform="translate(31.688396,59.000000) rotate(-30)"><text style="font-size:10px;font-family:OpenSans;fill:#555;" text-anchor="middle" x="0" y="-6.000000">P32P</text></g><line x1="88.533246" x2="88.533246" y1="34.000000" y2="87.000000" stroke="#BABDB6" stroke-width="2"/><a xlink:title="A141A"><circle cx="88.533246" cy="34.000000" r="4.000000" fill="#0000ff" /></a><g transform="translate(88.533246,34.000000) rotate(-30)"><text style="font-size:10px;font-family:OpenSans;fill:#555;" text-anchor="middle" x="0" y="-6.000000">A141A</text></g><line x1="92.183833" x2="92.183833" y1="46.500000" y2="87.000000" stroke="#BABDB6" stroke-width="2"/><a xlink:title="A148A"><circle cx="92.183833" cy="46.500000" r="4.000000" fill="#0000ff" /></a><g transform="translate(92.183833,46.500000) rotate(-30)"><text style="font-size:10px;font-family:OpenSans;fill:#555;" text-anchor="middle" x="0" y="-6.000000">A148A</text></g><line x1="93.226858" x2="93.226858" y1="59.000000" y2="87.000000" stroke="#BABDB6" stroke-width="2"/><a xlink:title="A150A"><circle cx="93.226858" cy="59.000000" r="4.000000" fill="#0000ff" /></a><g transform="translate(93.226858,59.000000) rotate(-30)"><text style="font-size:10px;font-family:OpenSans;fill:#555;" text-anchor="middle" x="0" y="-6.000000">A150A</text></g><line x1="102.092568" x2="102.092568" y1="34.000000" y2="87.000000" stroke="#BABDB6" stroke-width="2"/><a xlink:title="R167L"><circle cx="102.092568" cy="34.000000" r="4.000000" fill="#ff0000" /></a><g transform="translate(102.092568,34.000000) rotate(-30)"><text style="font-size:10px;font-family:OpenSans;fill:#555;" text-anchor="middle" x="0" y="-6.000000">R167L</text></g><line x1="105.743155" x2="105.743155" y1="34.000000" y2="87.000000" stroke="#BABDB6" stroke-width="2"/><a xlink:title="R174L"><circle cx="105.743155" cy="34.000000" r="4.000000" fill="#ff0000" /></a><g transform="translate(105.743155,34.000000) rotate(-30)"><text style="font-size:10px;font-family:OpenSans;fill:#555;" text-anchor="middle" x="0" y="-6.000000">R174L</text></g><line x1="106.786180" x2="106.786180" y1="46.500000" y2="87.000000" stroke="#BABDB6" stroke-width="2"/><a xlink:title="R176L"><circle cx="106.786180" cy="46.500000" r="4.000000" fill="#ff0000" /></a><g transform="translate(106.786180,46.500000) rotate(-30)"><text style="font-size:10px;font-family:OpenSans;fill:#555;" text-anchor="middle" x="0" y="-6.000000">R176L</text></g><line x1="108.872229" x2="108.872229" y1="46.500000" y2="87.000000" stroke="#BABDB6" stroke-width="2"/><a xlink:title="T180T"><circle cx="108.872229" cy="46.500000" r="4.000000" fill="#0000ff" /></a><g transform="translate(108.872229,46.500000) rotate(-30)"><text style="font-size:10px;font-family:OpenSans;fill:#555;" text-anchor="middle" x="0" y="-6.000000">T180T</text></g><line x1="114.608866" x2="114.608866" y1="34.000000" y2="87.000000" stroke="#BABDB6" stroke-width="2"/><a xlink:title="P191P"><circle cx="114.608866" cy="34.000000" r="4.000000" fill="#0000ff" /></a><g transform="translate(114.608866,34.000000) rotate(-30)"><text style="font-size:10px;font-family:OpenSans;fill:#555;" text-anchor="middle" x="0" y="-6.000000">P191P</text></g><line x1="118.259452" x2="118.259452" y1="46.500000" y2="87.000000" stroke="#BABDB6" stroke-width="2"/><a xlink:title="P198P"><circle cx="118.259452" cy="46.500000" r="4.000000" fill="#0000ff" /></a><g transform="translate(118.259452,46.500000) rotate(-30)"><text style="font-size:10px;font-family:OpenSans;fill:#555;" text-anchor="middle" x="0" y="-6.000000">P198P</text></g><line x1="119.302477" x2="119.302477" y1="59.000000" y2="87.000000" stroke="#BABDB6" stroke-width="2"/><a xlink:title="P200P"><circle cx="119.302477" cy="59.000000" r="4.000000" fill="#0000ff" /></a><g transform="translate(119.302477,59.000000) rotate(-30)"><text style="font-size:10px;font-family:OpenSans;fill:#555;" text-anchor="middle" x="0" y="-6.000000">P200P</text></g><line x1="191.792699" x2="191.792699" y1="34.000000" y2="87.000000" stroke="#BABDB6" stroke-width="2"/><a xlink:title="T339T"><circle cx="191.792699" cy="34.000000" r="4.000000" fill="#0000ff" /></a><g transform="translate(191.792699,34.000000) rotate(-30)"><text style="font-size:10px;font-family:OpenSans;fill:#555;" text-anchor="middle" x="0" y="-6.000000">T339T</text></g><line x1="195.443286" x2="195.443286" y1="46.500000" y2="87.000000" stroke="#BABDB6" stroke-width="2"/><a xlink:title="T346T"><circle cx="195.443286" cy="46.500000" r="4.000000" fill="#0000ff" /></a><g transform="translate(195.443286,46.500000) rotate(-30)"><text style="font-size:10px;font-family:OpenSans;fill:#555;" text-anchor="middle" x="0" y="-6.000000">T346T</text></g><line x1="196.486310" x2="196.486310" y1="59.000000" y2="87.000000" stroke="#BABDB6" stroke-width="2"/><a xlink:title="T348T"><circle cx="196.486310" cy="59.000000" r="4.000000" fill="#0000ff" /></a><g transform="translate(196.486310,59.000000) rotate(-30)"><text style="font-size:10px;font-family:OpenSans;fill:#555;" text-anchor="middle" x="0" y="-6.000000">T348T</text></g><a xlink:title=",  (767aa)"><rect fill="#BABDB6" x="15.000000" y="87.000000" width="400.000000" height="14.000000"/></a><g transform="translate(81.753585,82.000000)"><a xlink:href="https://www.ebi.ac.uk/interpro/entry/pfam/PF19326" xlink:title="AMP deaminase"><rect fill="#2DCF00" x="0" y="0" width="329.074316" height="24.000000" filter="url(#ds)"/><text style="font-size:12px;font-family:OpenSans;fill:#ffffff;" text-anchor="middle" x="164.537158" y="16.000000">AMP deaminase</text></a></g>
<g class="axis">
<line x1="15.000000" x2="415.000000" y1="116.000000" y2="116.000000" stroke="#AAAAAA" /><line x1="15.000000" x2="15.000000" y1="116.000000" y2="121.000000" stroke="#AAAAAA" /><line x1="18.129074" x2="18.129074" y1="116.000000" y2="121.000000" stroke="#AAAAAA" /><text style="font-size:10px;font-family:OpenSans;fill:#000000;" text-anchor="middle" x="18.129074" y="131.000000">6</text><line x1="88.533246" x2="88.533246" y1="116.000000" y2="121.000000" stroke="#AAAAAA" /><text style="font-size:10px;font-family:OpenSans;fill:#000000;" text-anchor="middle" x="88.533246" y="131.000000">141</text><line x1="108.872229" x2="108.872229" y1="116.000000" y2="121.000000" stroke="#AAAAAA" /><text style="font-size:10px;font-family:OpenSans;fill:#000000;" text-anchor="middle" x="108.872229" y="131.000000">180</text><line x1="191.792699" x2="191.792699" y1="116.000000" y2="121.000000" stroke="#AAAAAA" /><text style="font-size:10px;font-family:OpenSans;fill:#000000;" text-anchor="middle" x="191.792699" y="131.000000">339</text><line x1="415.000000" x2="415.000000" y1="116.000000" y2="121.000000" stroke="#AAAAAA" /><text style="font-size:10px;font-family:OpenSans;fill:#000000;" text-anchor="middle" x="415.000000" y="131.000000">767</text></g>
</svg>
