<?xml version='1.0'?>
<svg xmlns="http://www.w3.org/2000/svg" xmlns:xlink="http://www.w3.org/1999/xlink" width="1212.967742" height="171.900000">
<defs>
  <filter id="ds" x="0" y="0">
    <feOffset in="SourceAlpha" dx="2" dy="2" />
    <feComponentTransfer><feFuncA type="linear" slope="0.2"/></feComponentTransfer>
    <feGaussianBlur result="blurOut" stdDeviation="1" />
    <feBlend in="SourceGraphic" in2="blurOut" mode="normal" />
  </filter>
  <pattern id="disordered-hatch" patternUnits="userSpaceOnUse" width="4" height="4">
    <path d="M-1,1 l2,-2 M0,4 l4,-4 M3,5 l2,-2" stroke="#000000" opacity="0.3" />
  </pattern>
</defs>
<line x1="198.741935" x2="198.741935" y1="46.500000" y2="74.500000" stroke="#BABDB6" stroke-width="2"/><a xlink:title="G178G"><circle cx="198.741935" cy="46.500000" r="4.000000" fill="#0000ff" /></a><g transform="translate(198.741935,46.500000) rotate(-30)"><text style="font-size:10px;font-family:OpenSans;fill:#555;" text-anchor="middle" x="0" y="-6.000000">G178G</text></g><line x1="320.548387" x2="320.548387" y1="46.500000" y2="74.500000" stroke="#BABDB6" stroke-width="2"/><a xlink:title="G296G"><circle cx="320.548387" cy="46.500000" r="4.000000" fill="#0000ff" /></a><g transform="translate(320.548387,46.500000) rotate(-30)"><text style="font-size:10px;font-family:OpenSans;fill:#555;" text-anchor="middle" x="0" y="-6.000000">G296G</text></g><line x1="524.935484" x2="524.935484" y1="34.000000" y2="74.500000" stroke="#BABDB6" stroke-width="2"/><a xlink:title="G494G"><circle cx="524.935484" cy="34.000000" r="4.000000" fill="#0000ff" /></a><g transform="translate(524.935484,34.000000) rotate(-30)"><text style="font-size:10px;font-family:OpenSans;fill:#555;" text-anchor="middle" x="0" y="-6.000000">G494G</text></g><line x1="525.967742" x2="525.967742" y1="46.500000" y2="74.500000" stroke="#BABDB6" stroke-width="2"/><a xlink:title="G495G"><circle cx="525.967742" cy="46.500000" r="4.000000" fill="#0000ff" /></a><g transform="translate(525.967742,46.500000) rotate(-30)"><text style="font-size:10px;font-family:OpenSans;fill:#555;" text-anchor="middle" x="0" y="-6.000000">G495G</text></g><line x1="538.354839" x2="538.354839" y1="46.500000" y2="74.500000" stroke="#BABDB6" stroke-width="2"/><a xlink:title="G507G"><circle cx="538.354839" cy="46.500000" r="4.000000" fill="#0000ff" /></a><g transform="translate(538.354839,46.500000) rotate(-30)"><text style="font-size:10px;font-family:OpenSans;fill:#555;" text-anchor="middle" x="0" y="-6.000000">G507G</text></g><line x1="554.870968" x2="554.870968" y1="46.500000" y2="74.500000" stroke="#BABDB6" stroke-width="2"/><a xlink:title="G523G"><circle cx="554.870968" cy="46.500000" r="4.000000" fill="#0000ff" /></a><g transform="translate(554.870968,46.500000) rotate(-30)"><text style="font-size:10px;font-family:OpenSans;fill:#555;" text-anchor="middle" x="0" y="-6.000000">G523G</text></g><line x1="564.161290" x2="564.161290" y1="46.500000" y2="74.500000" stroke="#BABDB6" stroke-width="2"/><a xlink:title="G532G"><circle cx="564.161290" cy="46.500000" r="4.000000" fill="#0000ff" /></a><g transform="translate(564.161290,46.500000) rotate(-30)"><text style="font-size:10px;font-family:OpenSans;fill:#555;" text-anchor="middle" x="0" y="-6.000000">G532G</text></g><line x1="593.064516" x2="593.064516" y1="46.500000" y2="74.500000" stroke="#BABDB6" stroke-width="2"/><a xlink:title="G560G"><circle cx="593.064516" cy="46.500000" r="4.000000" fill="#0000ff" /></a><g transform="translate(593.064516,46.500000) rotate(-30)"><text style="font-size:10px;font-family:OpenSans;fill:#555;" text-anchor="middle" x="0" y="-6.000000">G560G</text></g><line x1="602.354839" x2="602.354839" y1="46.500000" y2="74.500000" stroke="#BABDB6" stroke-width="2"/><a xlink:title="G569G"><circle cx="602.354839" cy="46.500000" r="4.000000" fill="#0000ff" /></a><g transform="translate(602.354839,46.500000) rotate(-30)"><text style="font-size:10px;font-family:OpenSans;fill:#555;" text-anchor="middle" x="0" y="-6.000000">G569G</text></g><line x1="615.774194" x2="615.774194" y1="46.500000" y2="74.500000" stroke="#BABDB6" stroke-width="2"/><a xlink:title="G582G"><circle cx="615.774194" cy="46.500000" r="4.000000" fill="#0000ff" /></a><g transform="translate(615.774194,46.500000) rotate(-30)"><text style="font-size:10px;font-family:OpenSans;fill:#555;" text-anchor="middle" x="0" y="-6.000000">G582G</text></g><line x1="621.967742" x2="621.967742" y1="46.500000" y2="74.500000" stroke="#BABDB6" stroke-width="2"/><a xlink:title="G588G"><circle cx="621.967742" cy="46.500000" r="4.000000" fill="#0000ff" /></a><g transform="translate(621.967742,46.500000) rotate(-30)"><text style="font-size:10px;font-family:OpenSans;fill:#555;" text-anchor="middle" x="0" y="-6.000000">G588G</text></g><line x1="631.258065" x2="631.258065" y1="46.500000" y2="74.500000" stroke="#BABDB6" stroke-width="2"/><a xlink:title="G597G"><circle cx="631.258065" cy="46.500000" r="4.000000" fill="#0000ff" /></a><g transform="translate(631.258065,46.500000) rotate(-30)"><text style="font-size:10px;font-family:OpenSans;fill:#555;" text-anchor="middle" x="0" y="-6.000000">G597G</text></g><line x1="645.709677" x2="645.709677" y1="46.500000" y2="74.500000" stroke="#BABDB6" stroke-width="2"/><a xlink:title="G611G"><circle cx="645.709677" cy="46.500000" r="4.000000" fill="#0000ff" /></a><g transform="translate(645.709677,46.500000) rotate(-30)"><text style="font-size:10px;font-family:OpenSans;fill:#555;" text-anchor="middle" x="0" y="-6.000000">G611G</text></g><a xlink:title=",  (1146aa)"><rect fill="#BABDB6" x="15.000000" y="74.500000" width="1182.967742" height="14.000000"/></a><g transform="translate(149.193548,69.500000)"><a xlink:href="https://www.ebi.ac.uk/interpro/entry/pfam/PF12796" xlink:title="Ankyrin repeats (3 copies)"><rect fill="#2DCF00" x="0" y="0" width="83.612903" height="24.000000" filter="url(#ds)"/><text style="font-size:12px;font-family:OpenSans;fill:#ffffff;" text-anchor="middle" x="41.806452" y="16.000000">Ank_2</text></a></g>
<g transform="translate(234.870968,69.500000)"><a xlink:href="https://www.ebi.ac.uk/interpro/entry/pfam/PF00023" xlink:title="Ankyrin repeat"><rect fill="#FF5353" x="0" y="0" width="32.000000" height="24.000000" filter="url(#ds)"/><text style="font-size:12px;font-family:OpenSans;fill:#ffffff;" text-anchor="middle" x="16.000000" y="16.000000">Ank</text></a></g>
<g class="axis">
<line x1="15.000000" x2="1197.967742" y1="103.500000" y2="103.500000" stroke="#AAAAAA" /><line x1="15.000000" x2="15.000000" y1="103.500000" y2="108.500000" stroke="#AAAAAA" /><line x1="15.000000" x2="15.000000" y1="103.500000" y2="108.500000" stroke="#AAAAAA" /><text style="font-size:10px;font-family:OpenSans;fill:#000000;" text-anchor="middle" x="15.000000" y="118.500000">0</text><line x1="149.193548" x2="149.193548" y1="103.500000" y2="108.500000" stroke="#AAAAAA" /><text style="font-size:10px;font-family:OpenSans;fill:#000000;" text-anchor="middle" x="149.193548" y="118.500000">130</text><line x1="198.741935" x2="198.741935" y1="103.500000" y2="108.500000" stroke="#AAAAAA" /><text style="font-size:10px;font-family:OpenSans;fill:#000000;" text-anchor="middle" x="198.741935" y="118.500000">178</text><line x1="232.806452" x2="232.806452" y1="103.500000" y2="108.500000" stroke="#AAAAAA" /><text style="font-size:10px;font-family:OpenSans;fill:#000000;" text-anchor="middle" x="232.806452" y="118.500000">211</text><line x1="266.870968" x2="266.870968" y1="103.500000" y2="108.500000" stroke="#AAAAAA" /><text style="font-size:10px;font-family:OpenSans;fill:#000000;" text-anchor="middle" x="266.870968" y="118.500000">244</text><line x1="320.548387" x2="320.548387" y1="103.500000" y2="108.500000" stroke="#AAAAAA" /><text style="font-size:10px;font-family:OpenSans;fill:#000000;" text-anchor="middle" x="320.548387" y="118.500000">296</text><line x1="524.935484" x2="524.935484" y1="103.500000" y2="108.500000" stroke="#AAAAAA" /><text style="font-size:10px;font-family:OpenSans;fill:#000000;" text-anchor="middle" x="524.935484" y="118.500000">494</text><line x1="554.870968" x2="554.870968" y1="103.500000" y2="108.500000" stroke="#AAAAAA" /><text style="font-size:10px;font-family:OpenSans;fill:#000000;" text-anchor="middle" x="554.870968" y="118.500000">523</text><line x1="593.064516" x2="593.064516" y1="103.500000" y2="108.500000" stroke="#AAAAAA" /><text style="font-size:10px;font-family:OpenSans;fill:#000000;" text-anchor="middle" x="593.064516" y="118.500000">560</text><line x1="615.774194" x2="615.774194" y1="103.500000" y2="108.500000" stroke="#AAAAAA" /><text style="font-size:10px;font-family:OpenSans;fill:#000000;" text-anchor="middle" x="615.774194" y="118.500000">582</text><line x1="645.709677" x2="645.709677" y1="103.500000" y2="108.500000" stroke="#AAAAAA" /><text style="font-size:10px;font-family:OpenSans;fill:#000000;" text-anchor="middle" x="645.709677" y="118.500000">611</text><line x1="1197.967742" x2="1197.967742" y1="103.500000" y2="108.500000" stroke="#AAAAAA" /><text style="font-size:10px;font-family:OpenSans;fill:#000000;" text-anchor="middle" x="1197.967742" y="118.500000">1146</text></g>
<rect fill="#2DCF00" x="4" y="132.500000" width="12" height="12" filter="url(#ds)"/><text style="font-size:12px;font-family:OpenSans;fill:#000000;" text-anchor="start" x="20" y="144.500000">Ankyrin repeats (3 copies)</text><rect fill="#FF5353" x="4" y="146.500000" width="12" height="12" filter="url(#ds)"/><text style="font-size:12px;font-family:OpenSans;fill:#000000;" text-anchor="start" x="20" y="158.500000">Ankyrin repeat</text></svg>
