<?xml version='1.0'?>
<svg xmlns="http://www.w3.org/2000/svg" xmlns:xlink="http://www.w3.org/1999/xlink" width="430.000000" height="158.000000">
<defs>
  <filter id="ds" x="0" y="0">
    <feOffset in="SourceAlpha" dx="2" dy="2" />
    <feComponentTransfer><feFuncA type="linear" slope="0.2"/></feComponentTransfer>
    <feGaussianBlur result="blurOut" stdDeviation="1" />
    <feBlend in="SourceGraphic" in2="blurOut" mode="normal" />
  </filter>
  <pattern id="disordered-hatch" patternUnits="userSpaceOnUse" width="4" height="4">
    <path d="M-1,1 l2,-2 M0,4 l4,-4 M3,5 l2,-2" stroke="#000000" opacity="0.3" />
  </pattern>
</defs>
<line x1="97.716049" x2="97.716049" y1="46.500000" y2="87.000000" stroke="#BABDB6" stroke-width="2"/><a xlink:title="L67P"><circle cx="97.716049" cy="46.500000" r="4.000000" fill="#ff0000" /></a><g transform="translate(97.716049,46.500000) rotate(-30)"><text style="font-size:10px;font-family:OpenSans;fill:#555;" text-anchor="middle" x="0" y="-6.000000">L67P</text></g><line x1="102.654321" x2="102.654321" y1="59.000000" y2="87.000000" stroke="#BABDB6" stroke-width="2"/><a xlink:title="M71L"><circle cx="102.654321" cy="59.000000" r="4.000000" fill="#ff0000" /></a><g transform="translate(102.654321,59.000000) rotate(-30)"><text style="font-size:10px;font-family:OpenSans;fill:#555;" text-anchor="middle" x="0" y="-6.000000">M71L</text></g><line x1="122.407407" x2="122.407407" y1="46.500000" y2="87.000000" stroke="#BABDB6" stroke-width="2"/><a xlink:title="L87P"><circle cx="122.407407" cy="46.500000" r="4.000000" fill="#ff0000" /></a><g transform="translate(122.407407,46.500000) rotate(-30)"><text style="font-size:10px;font-family:OpenSans;fill:#555;" text-anchor="middle" x="0" y="-6.000000">L87P</text></g><line x1="127.345679" x2="127.345679" y1="59.000000" y2="87.000000" stroke="#BABDB6" stroke-width="2"/><a xlink:title="M91L"><circle cx="127.345679" cy="59.000000" r="4.000000" fill="#ff0000" /></a><g transform="translate(127.345679,59.000000) rotate(-30)"><text style="font-size:10px;font-family:OpenSans;fill:#555;" text-anchor="middle" x="0" y="-6.000000">M91L</text></g><line x1="197.716049" x2="197.716049" y1="59.000000" y2="87.000000" stroke="#BABDB6" stroke-width="2"/><a xlink:title="S148S"><circle cx="197.716049" cy="59.000000" r="4.000000" fill="#0000ff" /></a><g transform="translate(197.716049,59.000000) rotate(-30)"><text style="font-size:10px;font-family:OpenSans;fill:#555;" text-anchor="middle" x="0" y="-6.000000">S148S</text></g><line x1="217.469136" x2="217.469136" y1="34.000000" y2="87.000000" stroke="#BABDB6" stroke-width="2"/><a xlink:title="E164K"><circle cx="217.469136" cy="34.000000" r="4.000000" fill="#ff0000" /></a><g transform="translate(217.469136,34.000000) rotate(-30)"><text style="font-size:10px;font-family:OpenSans;fill:#555;" text-anchor="middle" x="0" y="-6.000000">E164K</text></g><line x1="222.407407" x2="222.407407" y1="46.500000" y2="87.000000" stroke="#BABDB6" stroke-width="2"/><a xlink:title="S168S"><circle cx="222.407407" cy="46.500000" r="4.000000" fill="#0000ff" /></a><g transform="translate(222.407407,46.500000) rotate(-30)"><text style="font-size:10px;font-family:OpenSans;fill:#555;" text-anchor="middle" x="0" y="-6.000000">S168S</text></g><line x1="222.407407" x2="222.407407" y1="59.000000" y2="87.000000" stroke="#BABDB6" stroke-width="2"/><a xlink:title="T168T"><circle cx="222.407407" cy="59.000000" r="4.000000" fill="#0000ff" /></a><g transform="translate(222.407407,59.000000) rotate(-30)"><text style="font-size:10px;font-family:OpenSans;fill:#555;" text-anchor="middle" x="0" y="-6.000000">T168T</text></g><line x1="242.160494" x2="242.160494" y1="46.500000" y2="87.000000" stroke="#BABDB6" stroke-width="2"/><a xlink:title="E184K"><circle cx="242.160494" cy="46.500000" r="4.000000" fill="#ff0000" /></a><g transform="translate(242.160494,46.500000) rotate(-30)"><text style="font-size:10px;font-family:OpenSans;fill:#555;" text-anchor="middle" x="0" y="-6.000000">E184K</text></g><line x1="247.098765" x2="247.098765" y1="59.000000" y2="87.000000" stroke="#BABDB6" stroke-width="2"/><a xlink:title="T188T"><circle cx="247.098765" cy="59.000000" r="4.000000" fill="#0000ff" /></a><g transform="translate(247.098765,59.000000) rotate(-30)"><text style="font-size:10px;font-family:OpenSans;fill:#555;" text-anchor="middle" x="0" y="-6.000000">T188T</text></g><line x1="270.555556" x2="270.555556" y1="59.000000" y2="87.000000" stroke="#BABDB6" stroke-width="2"/><a xlink:title="L207L"><circle cx="270.555556" cy="59.000000" r="4.000000" fill="#0000ff" /></a><g transform="translate(270.555556,59.000000) rotate(-30)"><text style="font-size:10px;font-family:OpenSans;fill:#555;" text-anchor="middle" x="0" y="-6.000000">L207L</text></g><line x1="295.246914" x2="295.246914" y1="59.000000" y2="87.000000" stroke="#BABDB6" stroke-width="2"/><a xlink:title="L227L"><circle cx="295.246914" cy="59.000000" r="4.000000" fill="#0000ff" /></a><g transform="translate(295.246914,59.000000) rotate(-30)"><text style="font-size:10px;font-family:OpenSans;fill:#555;" text-anchor="middle" x="0" y="-6.000000">L227L</text></g><a xlink:title=",  (324aa)"><rect fill="#BABDB6" x="15.000000" y="87.000000" width="400.000000" height="14.000000"/></a><g transform="translate(42.160494,82.000000)"><a xlink:href="https://www.ebi.ac.uk/interpro/entry/pfam/PF00191" xlink:title="Annexin"><rect fill="#2DCF00" x="0" y="0" width="76.543210" height="24.000000" filter="url(#ds)"/><text style="font-size:12px;font-family:OpenSans;fill:#ffffff;" text-anchor="middle" x="38.271605" y="16.000000">Annexin</text></a></g>
<g transform="translate(129.814815,82.000000)"><a xlink:href="https://www.ebi.ac.uk/interpro/entry/pfam/PF00191" xlink:title="Annexin"><rect fill="#FF5353" x="0" y="0" width="80.246914" height="24.000000" filter="url(#ds)"/><text style="font-size:12px;font-family:OpenSans;fill:#ffffff;" text-anchor="middle" x="40.123457" y="16.000000">Annexin</text></a></g>
<g transform="translate(231.049383,82.000000)"><a xlink:href="https://www.ebi.ac.uk/interpro/entry/pfam/PF00191" xlink:title="Annexin"><rect fill="#5B5BFF" x="0" y="0" width="81.481481" height="24.000000" filter="url(#ds)"/><text style="font-size:12px;font-family:OpenSans;fill:#ffffff;" text-anchor="middle" x="40.740741" y="16.000000">Annexin</text></a></g>
<g transform="translate(324.876543,82.000000)"><a xlink:href="https://www.ebi.ac.uk/interpro/entry/pfam/PF00191" xlink:title="Annexin"><rect fill="#EBD61D" x="0" y="0" width="80.246914" height="24.000000" filter="url(#ds)"/><text style="font-size:12px;font-family:OpenSans;fill:#ffffff;" text-anchor="middle" x="40.123457" y="16.000000">Annexin</text></a></g>
<g class="axis">
<line x1="15.000000" x2="415.000000" y1="116.000000" y2="116.000000" stroke="#AAAAAA" /><line x1="15.000000" x2="15.000000" y1="116.000000" y2="121.000000" stroke="#AAAAAA" /><line x1="15.000000" x2="15.000000" y1="116.000000" y2="121.000000" stroke="#AAAAAA" /><text style="font-size:10px;font-family:OpenSans;fill:#000000;" text-anchor="middle" x="15.000000" y="131.000000">0</text><line x1="42.160494" x2="42.160494" y1="116.000000" y2="121.000000" stroke="#AAAAAA" /><text style="font-size:10px;font-family:OpenSans;fill:#000000;" text-anchor="middle" x="42.160494" y="131.000000">22</text><line x1="97.716049" x2="97.716049" y1="116.000000" y2="121.000000" stroke="#AAAAAA" /><text style="font-size:10px;font-family:OpenSans;fill:#000000;" text-anchor="middle" x="97.716049" y="131.000000">67</text><line x1="122.407407" x2="122.407407" y1="116.000000" y2="121.000000" stroke="#AAAAAA" /><text style="font-size:10px;font-family:OpenSans;fill:#000000;" text-anchor="middle" x="122.407407" y="131.000000">87</text><line x1="197.716049" x2="197.716049" y1="116.000000" y2="121.000000" stroke="#AAAAAA" /><text style="font-size:10px;font-family:OpenSans;fill:#000000;" text-anchor="middle" x="197.716049" y="131.000000">148</text><line x1="217.469136" x2="217.469136" y1="116.000000" y2="121.000000" stroke="#AAAAAA" /><text style="font-size:10px;font-family:OpenSans;fill:#000000;" text-anchor="middle" x="217.469136" y="131.000000">164</text><line x1="242.160494" x2="242.160494" y1="116.000000" y2="121.000000" stroke="#AAAAAA" /><text style="font-size:10px;font-family:OpenSans;fill:#000000;" text-anchor="middle" x="242.160494" y="131.000000">184</text><line x1="270.555556" x2="270.555556" y1="116.000000" y2="121.000000" stroke="#AAAAAA" /><text style="font-size:10px;font-family:OpenSans;fill:#000000;" text-anchor="middle" x="270.555556" y="131.000000">207</text><line x1="295.246914" x2="295.246914" y1="116.000000" y2="121.000000" stroke="#AAAAAA" /><text style="font-size:10px;font-family:OpenSans;fill:#000000;" text-anchor="middle" x="295.246914" y="131.000000">227</text><line x1="324.876543" x2="324.876543" y1="116.000000" y2="121.000000" stroke="#AAAAAA" /><text style="font-size:10px;font-family:OpenSans;fill:#000000;" text-anchor="middle" x="324.876543" y="131.000000">251</text><line x1="415.000000" x2="415.000000" y1="116.000000" y2="121.000000" stroke="#AAAAAA" /><text style="font-size:10px;font-family:OpenSans;fill:#000000;" text-anchor="middle" x="415.000000" y="131.000000">324</text></g>
</svg>
