<?xml version='1.0'?>
<svg xmlns="http://www.w3.org/2000/svg" xmlns:xlink="http://www.w3.org/1999/xlink" width="430.000000" height="158.700000">
<defs>
  <filter id="ds" x="0" y="0">
    <feOffset in="SourceAlpha" dx="2" dy="2" />
    <feComponentTransfer><feFuncA type="linear" slope="0.2"/></feComponentTransfer>
    <feGaussianBlur result="blurOut" stdDeviation="1" />
    <feBlend in="SourceGraphic" in2="blurOut" mode="normal" />
  </filter>
  <pattern id="disordered-hatch" patternUnits="userSpaceOnUse" width="4" height="4">
    <path d="M-1,1 l2,-2 M0,4 l4,-4 M3,5 l2,-2" stroke="#000000" opacity="0.3" />
  </pattern>
</defs>
<line x1="53.956522" x2="53.956522" y1="46.500000" y2="74.500000" stroke="#BABDB6" stroke-width="2"/><a xlink:title="D56D"><circle cx="53.956522" cy="46.500000" r="4.000000" fill="#0000ff" /></a><g transform="translate(53.956522,46.500000) rotate(-30)"><text style="font-size:10px;font-family:OpenSans;fill:#555;" text-anchor="middle" x="0" y="-6.000000">D56D</text></g><line x1="85.956522" x2="85.956522" y1="46.500000" y2="74.500000" stroke="#BABDB6" stroke-width="2"/><a xlink:title="D102D"><circle cx="85.956522" cy="46.500000" r="4.000000" fill="#0000ff" /></a><g transform="translate(85.956522,46.500000) rotate(-30)"><text style="font-size:10px;font-family:OpenSans;fill:#555;" text-anchor="middle" x="0" y="-6.000000">D102D</text></g><line x1="218.130435" x2="218.130435" y1="46.500000" y2="74.500000" stroke="#BABDB6" stroke-width="2"/><a xlink:title="D292D"><circle cx="218.130435" cy="46.500000" r="4.000000" fill="#0000ff" /></a><g transform="translate(218.130435,46.500000) rotate(-30)"><text style="font-size:10px;font-family:OpenSans;fill:#555;" text-anchor="middle" x="0" y="-6.000000">D292D</text></g><line x1="224.391304" x2="224.391304" y1="34.000000" y2="74.500000" stroke="#BABDB6" stroke-width="2"/><a xlink:title="D301D"><circle cx="224.391304" cy="34.000000" r="4.000000" fill="#0000ff" /></a><g transform="translate(224.391304,34.000000) rotate(-30)"><text style="font-size:10px;font-family:OpenSans;fill:#555;" text-anchor="middle" x="0" y="-6.000000">D301D</text></g><line x1="225.782609" x2="225.782609" y1="46.500000" y2="74.500000" stroke="#BABDB6" stroke-width="2"/><a xlink:title="R303Q"><circle cx="225.782609" cy="46.500000" r="4.000000" fill="#ff0000" /></a><g transform="translate(225.782609,46.500000) rotate(-30)"><text style="font-size:10px;font-family:OpenSans;fill:#555;" text-anchor="middle" x="0" y="-6.000000">R303Q</text></g><line x1="246.652174" x2="246.652174" y1="46.500000" y2="74.500000" stroke="#BABDB6" stroke-width="2"/><a xlink:title="D333D"><circle cx="246.652174" cy="46.500000" r="4.000000" fill="#0000ff" /></a><g transform="translate(246.652174,46.500000) rotate(-30)"><text style="font-size:10px;font-family:OpenSans;fill:#555;" text-anchor="middle" x="0" y="-6.000000">D333D</text></g><line x1="257.782609" x2="257.782609" y1="46.500000" y2="74.500000" stroke="#BABDB6" stroke-width="2"/><a xlink:title="R349Q"><circle cx="257.782609" cy="46.500000" r="4.000000" fill="#ff0000" /></a><g transform="translate(257.782609,46.500000) rotate(-30)"><text style="font-size:10px;font-family:OpenSans;fill:#555;" text-anchor="middle" x="0" y="-6.000000">R349Q</text></g><line x1="368.391304" x2="368.391304" y1="34.000000" y2="74.500000" stroke="#BABDB6" stroke-width="2"/><a xlink:title="A508A"><circle cx="368.391304" cy="34.000000" r="4.000000" fill="#0000ff" /></a><g transform="translate(368.391304,34.000000) rotate(-30)"><text style="font-size:10px;font-family:OpenSans;fill:#555;" text-anchor="middle" x="0" y="-6.000000">A508A</text></g><line x1="373.260870" x2="373.260870" y1="46.500000" y2="74.500000" stroke="#BABDB6" stroke-width="2"/><a xlink:title="A515A"><circle cx="373.260870" cy="46.500000" r="4.000000" fill="#0000ff" /></a><g transform="translate(373.260870,46.500000) rotate(-30)"><text style="font-size:10px;font-family:OpenSans;fill:#555;" text-anchor="middle" x="0" y="-6.000000">A515A</text></g><line x1="389.956522" x2="389.956522" y1="34.000000" y2="74.500000" stroke="#BABDB6" stroke-width="2"/><a xlink:title="R539Q"><circle cx="389.956522" cy="34.000000" r="4.000000" fill="#ff0000" /></a><g transform="translate(389.956522,34.000000) rotate(-30)"><text style="font-size:10px;font-family:OpenSans;fill:#555;" text-anchor="middle" x="0" y="-6.000000">R539Q</text></g><line x1="390.652174" x2="390.652174" y1="34.000000" y2="74.500000" stroke="#BABDB6" stroke-width="2"/><a xlink:title="A540A"><circle cx="390.652174" cy="34.000000" r="4.000000" fill="#0000ff" /></a><g transform="translate(390.652174,34.000000) rotate(-30)"><text style="font-size:10px;font-family:OpenSans;fill:#555;" text-anchor="middle" x="0" y="-6.000000">A540A</text></g><line x1="396.217391" x2="396.217391" y1="34.000000" y2="74.500000" stroke="#BABDB6" stroke-width="2"/><a xlink:title="R548Q"><circle cx="396.217391" cy="34.000000" r="4.000000" fill="#ff0000" /></a><g transform="translate(396.217391,34.000000) rotate(-30)"><text style="font-size:10px;font-family:OpenSans;fill:#555;" text-anchor="middle" x="0" y="-6.000000">R548Q</text></g><line x1="401.086957" x2="401.086957" y1="46.500000" y2="74.500000" stroke="#BABDB6" stroke-width="2"/><a xlink:title="R555Q"><circle cx="401.086957" cy="46.500000" r="4.000000" fill="#ff0000" /></a><g transform="translate(401.086957,46.500000) rotate(-30)"><text style="font-size:10px;font-family:OpenSans;fill:#555;" text-anchor="middle" x="0" y="-6.000000">R555Q</text></g><line x1="418.478261" x2="418.478261" y1="46.500000" y2="74.500000" stroke="#BABDB6" stroke-width="2"/><a xlink:title="R580Q"><circle cx="418.478261" cy="46.500000" r="4.000000" fill="#ff0000" /></a><g transform="translate(418.478261,46.500000) rotate(-30)"><text style="font-size:10px;font-family:OpenSans;fill:#555;" text-anchor="middle" x="0" y="-6.000000">R580Q</text></g><a xlink:title=",  (575aa)"><rect fill="#BABDB6" x="15.000000" y="74.500000" width="400.000000" height="14.000000"/></a><g transform="translate(42.826087,69.500000)"><a xlink:href="https://www.ebi.ac.uk/interpro/entry/pfam/PF20825" xlink:title="Saposin-like domain"><rect fill="#2DCF00" x="0" y="0" width="90.434783" height="24.000000" filter="url(#ds)"/><text style="font-size:12px;font-family:OpenSans;fill:#ffffff;" text-anchor="middle" x="45.217391" y="16.000000">Saposin</text></a></g>
<g transform="translate(193.782609,69.500000)"><a xlink:href="https://www.ebi.ac.uk/interpro/entry/pfam/PF00657" xlink:title="GDSL-like Lipase/Acylhydrolase"><rect fill="#FF5353" x="0" y="0" width="198.260870" height="24.000000" filter="url(#ds)"/><text style="font-size:12px;font-family:OpenSans;fill:#ffffff;" text-anchor="middle" x="99.130435" y="16.000000">GDSL-like Lipase/Acylhydrolase</text></a></g>
<g class="axis">
<line x1="15.000000" x2="415.000000" y1="103.500000" y2="103.500000" stroke="#AAAAAA" /><line x1="15.000000" x2="15.000000" y1="103.500000" y2="108.500000" stroke="#AAAAAA" /><line x1="15.000000" x2="15.000000" y1="103.500000" y2="108.500000" stroke="#AAAAAA" /><text style="font-size:10px;font-family:OpenSans;fill:#000000;" text-anchor="middle" x="15.000000" y="118.500000">0</text><line x1="53.956522" x2="53.956522" y1="103.500000" y2="108.500000" stroke="#AAAAAA" /><text style="font-size:10px;font-family:OpenSans;fill:#000000;" text-anchor="middle" x="53.956522" y="118.500000">56</text><line x1="85.956522" x2="85.956522" y1="103.500000" y2="108.500000" stroke="#AAAAAA" /><text style="font-size:10px;font-family:OpenSans;fill:#000000;" text-anchor="middle" x="85.956522" y="118.500000">102</text><line x1="133.260870" x2="133.260870" y1="103.500000" y2="108.500000" stroke="#AAAAAA" /><text style="font-size:10px;font-family:OpenSans;fill:#000000;" text-anchor="middle" x="133.260870" y="118.500000">170</text><line x1="193.782609" x2="193.782609" y1="103.500000" y2="108.500000" stroke="#AAAAAA" /><text style="font-size:10px;font-family:OpenSans;fill:#000000;" text-anchor="middle" x="193.782609" y="118.500000">257</text><line x1="218.130435" x2="218.130435" y1="103.500000" y2="108.500000" stroke="#AAAAAA" /><text style="font-size:10px;font-family:OpenSans;fill:#000000;" text-anchor="middle" x="218.130435" y="118.500000">292</text><line x1="246.652174" x2="246.652174" y1="103.500000" y2="108.500000" stroke="#AAAAAA" /><text style="font-size:10px;font-family:OpenSans;fill:#000000;" text-anchor="middle" x="246.652174" y="118.500000">333</text><line x1="368.391304" x2="368.391304" y1="103.500000" y2="108.500000" stroke="#AAAAAA" /><text style="font-size:10px;font-family:OpenSans;fill:#000000;" text-anchor="middle" x="368.391304" y="118.500000">508</text><line x1="389.956522" x2="389.956522" y1="103.500000" y2="108.500000" stroke="#AAAAAA" /><text style="font-size:10px;font-family:OpenSans;fill:#000000;" text-anchor="middle" x="389.956522" y="118.500000">539</text><line x1="415.000000" x2="415.000000" y1="103.500000" y2="108.500000" stroke="#AAAAAA" /><text style="font-size:10px;font-family:OpenSans;fill:#000000;" text-anchor="middle" x="415.000000" y="118.500000">575</text></g>
<rect fill="#2DCF00" x="4" y="132.500000" width="12" height="12" filter="url(#ds)"/><text style="font-size:12px;font-family:OpenSans;fill:#000000;" text-anchor="start" x="20" y="144.500000">Saposin-like domain</text></svg>
