<?xml version='1.0'?>
<svg xmlns="http://www.w3.org/2000/svg" xmlns:xlink="http://www.w3.org/1999/xlink" width="602.785714" height="171.900000">
<defs>
  <filter id="ds" x="0" y="0">
    <feOffset in="SourceAlpha" dx="2" dy="2" />
    <feComponentTransfer><feFuncA type="linear" slope="0.2"/></feComponentTransfer>
    <feGaussianBlur result="blurOut" stdDeviation="1" />
    <feBlend in="SourceGraphic" in2="blurOut" mode="normal" />
  </filter>
  <pattern id="disordered-hatch" patternUnits="userSpaceOnUse" width="4" height="4">
    <path d="M-1,1 l2,-2 M0,4 l4,-4 M3,5 l2,-2" stroke="#000000" opacity="0.3" />
  </pattern>
</defs>
<line x1="508.821429" x2="508.821429" y1="34.000000" y2="74.500000" stroke="#BABDB6" stroke-width="2"/><a xlink:title="R419Q"><circle cx="508.821429" cy="34.000000" r="4.000000" fill="#ff0000" /></a><g transform="translate(508.821429,34.000000) rotate(-30)"><text style="font-size:10px;font-family:OpenSans;fill:#555;" text-anchor="middle" x="0" y="-6.000000">R419Q</text></g><line x1="511.178571" x2="511.178571" y1="34.000000" y2="74.500000" stroke="#BABDB6" stroke-width="2"/><a xlink:title="R421Q"><circle cx="511.178571" cy="34.000000" r="4.000000" fill="#ff0000" /></a><g transform="translate(511.178571,34.000000) rotate(-30)"><text style="font-size:10px;font-family:OpenSans;fill:#555;" text-anchor="middle" x="0" y="-6.000000">R421Q</text></g><line x1="517.071429" x2="517.071429" y1="34.000000" y2="74.500000" stroke="#BABDB6" stroke-width="2"/><a xlink:title="R426Q"><circle cx="517.071429" cy="34.000000" r="4.000000" fill="#ff0000" /></a><g transform="translate(517.071429,34.000000) rotate(-30)"><text style="font-size:10px;font-family:OpenSans;fill:#555;" text-anchor="middle" x="0" y="-6.000000">R426Q</text></g><line x1="519.428571" x2="519.428571" y1="46.500000" y2="74.500000" stroke="#BABDB6" stroke-width="2"/><a xlink:title="R428Q"><circle cx="519.428571" cy="46.500000" r="4.000000" fill="#ff0000" /></a><g transform="translate(519.428571,46.500000) rotate(-30)"><text style="font-size:10px;font-family:OpenSans;fill:#555;" text-anchor="middle" x="0" y="-6.000000">R428Q</text></g><line x1="527.678571" x2="527.678571" y1="34.000000" y2="74.500000" stroke="#BABDB6" stroke-width="2"/><a xlink:title="R435Q"><circle cx="527.678571" cy="34.000000" r="4.000000" fill="#ff0000" /></a><g transform="translate(527.678571,34.000000) rotate(-30)"><text style="font-size:10px;font-family:OpenSans;fill:#555;" text-anchor="middle" x="0" y="-6.000000">R435Q</text></g><line x1="530.035714" x2="530.035714" y1="34.000000" y2="74.500000" stroke="#BABDB6" stroke-width="2"/><a xlink:title="R437Q"><circle cx="530.035714" cy="34.000000" r="4.000000" fill="#ff0000" /></a><g transform="translate(530.035714,34.000000) rotate(-30)"><text style="font-size:10px;font-family:OpenSans;fill:#555;" text-anchor="middle" x="0" y="-6.000000">R437Q</text></g><line x1="535.928571" x2="535.928571" y1="34.000000" y2="74.500000" stroke="#BABDB6" stroke-width="2"/><a xlink:title="R442Q"><circle cx="535.928571" cy="34.000000" r="4.000000" fill="#ff0000" /></a><g transform="translate(535.928571,34.000000) rotate(-30)"><text style="font-size:10px;font-family:OpenSans;fill:#555;" text-anchor="middle" x="0" y="-6.000000">R442Q</text></g><line x1="538.285714" x2="538.285714" y1="46.500000" y2="74.500000" stroke="#BABDB6" stroke-width="2"/><a xlink:title="R444Q"><circle cx="538.285714" cy="46.500000" r="4.000000" fill="#ff0000" /></a><g transform="translate(538.285714,46.500000) rotate(-30)"><text style="font-size:10px;font-family:OpenSans;fill:#555;" text-anchor="middle" x="0" y="-6.000000">R444Q</text></g><a xlink:title=",  (486aa)"><rect fill="#BABDB6" x="15.000000" y="74.500000" width="572.785714" height="14.000000"/></a><g transform="translate(51.535714,69.500000)"><a xlink:href="https://www.ebi.ac.uk/interpro/entry/pfam/PF00397" xlink:title="WW domain"><rect fill="#2DCF00" x="0" y="0" width="33.000000" height="24.000000" filter="url(#ds)"/><text style="font-size:12px;font-family:OpenSans;fill:#ffffff;" text-anchor="middle" x="16.500000" y="16.000000">WW</text></a></g>
<g transform="translate(155.250000,69.500000)"><a xlink:href="https://www.ebi.ac.uk/interpro/entry/pfam/PF00640" xlink:title="Phosphotyrosine interaction domain (PTB/PID)"><rect fill="#FF5353" x="0" y="0" width="160.285714" height="24.000000" filter="url(#ds)"/><text style="font-size:12px;font-family:OpenSans;fill:#ffffff;" text-anchor="middle" x="80.142857" y="16.000000">PID</text></a></g>
<g class="axis">
<line x1="15.000000" x2="587.785714" y1="103.500000" y2="103.500000" stroke="#AAAAAA" /><line x1="15.000000" x2="15.000000" y1="103.500000" y2="108.500000" stroke="#AAAAAA" /><line x1="15.000000" x2="15.000000" y1="103.500000" y2="108.500000" stroke="#AAAAAA" /><text style="font-size:10px;font-family:OpenSans;fill:#000000;" text-anchor="middle" x="15.000000" y="118.500000">0</text><line x1="51.535714" x2="51.535714" y1="103.500000" y2="108.500000" stroke="#AAAAAA" /><text style="font-size:10px;font-family:OpenSans;fill:#000000;" text-anchor="middle" x="51.535714" y="118.500000">31</text><line x1="84.535714" x2="84.535714" y1="103.500000" y2="108.500000" stroke="#AAAAAA" /><text style="font-size:10px;font-family:OpenSans;fill:#000000;" text-anchor="middle" x="84.535714" y="118.500000">59</text><line x1="155.250000" x2="155.250000" y1="103.500000" y2="108.500000" stroke="#AAAAAA" /><text style="font-size:10px;font-family:OpenSans;fill:#000000;" text-anchor="middle" x="155.250000" y="118.500000">119</text><line x1="315.535714" x2="315.535714" y1="103.500000" y2="108.500000" stroke="#AAAAAA" /><text style="font-size:10px;font-family:OpenSans;fill:#000000;" text-anchor="middle" x="315.535714" y="118.500000">255</text><line x1="508.821429" x2="508.821429" y1="103.500000" y2="108.500000" stroke="#AAAAAA" /><text style="font-size:10px;font-family:OpenSans;fill:#000000;" text-anchor="middle" x="508.821429" y="118.500000">419</text><line x1="527.678571" x2="527.678571" y1="103.500000" y2="108.500000" stroke="#AAAAAA" /><text style="font-size:10px;font-family:OpenSans;fill:#000000;" text-anchor="middle" x="527.678571" y="118.500000">435</text><line x1="587.785714" x2="587.785714" y1="103.500000" y2="108.500000" stroke="#AAAAAA" /><text style="font-size:10px;font-family:OpenSans;fill:#000000;" text-anchor="middle" x="587.785714" y="118.500000">486</text></g>
<rect fill="#2DCF00" x="4" y="132.500000" width="12" height="12" filter="url(#ds)"/><text style="font-size:12px;font-family:OpenSans;fill:#000000;" text-anchor="start" x="20" y="144.500000">WW domain</text><rect fill="#FF5353" x="4" y="146.500000" width="12" height="12" filter="url(#ds)"/><text style="font-size:12px;font-family:OpenSans;fill:#000000;" text-anchor="start" x="20" y="158.500000">Phosphotyrosine interaction domain (PTB/PID)</text></svg>
