<?xml version='1.0'?>
<svg xmlns="http://www.w3.org/2000/svg" xmlns:xlink="http://www.w3.org/1999/xlink" width="526.416667" height="146.200000">
<defs>
  <filter id="ds" x="0" y="0">
    <feOffset in="SourceAlpha" dx="2" dy="2" />
    <feComponentTransfer><feFuncA type="linear" slope="0.2"/></feComponentTransfer>
    <feGaussianBlur result="blurOut" stdDeviation="1" />
    <feBlend in="SourceGraphic" in2="blurOut" mode="normal" />
  </filter>
  <pattern id="disordered-hatch" patternUnits="userSpaceOnUse" width="4" height="4">
    <path d="M-1,1 l2,-2 M0,4 l4,-4 M3,5 l2,-2" stroke="#000000" opacity="0.3" />
  </pattern>
</defs>
<line x1="50.458333" x2="50.458333" y1="34.000000" y2="62.000000" stroke="#BABDB6" stroke-width="2"/><a xlink:title="D37D"><circle cx="50.458333" cy="34.000000" r="4.000000" fill="#0000ff" /></a><g transform="translate(50.458333,34.000000) rotate(-30)"><text style="font-size:10px;font-family:OpenSans;fill:#555;" text-anchor="middle" x="0" y="-6.000000">D37D</text></g><line x1="63.875000" x2="63.875000" y1="34.000000" y2="62.000000" stroke="#BABDB6" stroke-width="2"/><a xlink:title="R51C"><circle cx="63.875000" cy="34.000000" r="4.000000" fill="#ff0000" /></a><g transform="translate(63.875000,34.000000) rotate(-30)"><text style="font-size:10px;font-family:OpenSans;fill:#555;" text-anchor="middle" x="0" y="-6.000000">R51C</text></g><line x1="164.500000" x2="164.500000" y1="34.000000" y2="62.000000" stroke="#BABDB6" stroke-width="2"/><a xlink:title="R156C"><circle cx="164.500000" cy="34.000000" r="4.000000" fill="#ff0000" /></a><g transform="translate(164.500000,34.000000) rotate(-30)"><text style="font-size:10px;font-family:OpenSans;fill:#555;" text-anchor="middle" x="0" y="-6.000000">R156C</text></g><line x1="227.750000" x2="227.750000" y1="34.000000" y2="62.000000" stroke="#BABDB6" stroke-width="2"/><a xlink:title="R222C"><circle cx="227.750000" cy="34.000000" r="4.000000" fill="#ff0000" /></a><g transform="translate(227.750000,34.000000) rotate(-30)"><text style="font-size:10px;font-family:OpenSans;fill:#555;" text-anchor="middle" x="0" y="-6.000000">R222C</text></g><line x1="328.375000" x2="328.375000" y1="34.000000" y2="62.000000" stroke="#BABDB6" stroke-width="2"/><a xlink:title="R327C"><circle cx="328.375000" cy="34.000000" r="4.000000" fill="#ff0000" /></a><g transform="translate(328.375000,34.000000) rotate(-30)"><text style="font-size:10px;font-family:OpenSans;fill:#555;" text-anchor="middle" x="0" y="-6.000000">R327C</text></g><a xlink:title=",  (518aa)"><rect fill="#BABDB6" x="15.000000" y="62.000000" width="496.416667" height="14.000000"/></a><g transform="translate(19.791667,57.000000)"><a xlink:href="https://www.ebi.ac.uk/interpro/entry/pfam/PF03372" xlink:title="Endonuclease/Exonuclease/phosphatase family"><rect fill="#2DCF00" x="0" y="0" width="286.541667" height="24.000000" filter="url(#ds)"/><text style="font-size:12px;font-family:OpenSans;fill:#ffffff;" text-anchor="middle" x="143.270833" y="16.000000">Endonuclease/Exonuclease/phosphatase family</text></a></g>
<g transform="translate(462.541667,57.000000)"><a xlink:href="https://www.ebi.ac.uk/interpro/entry/pfam/PF06839" xlink:title="GRF zinc finger"><rect fill="#FF5353" x="0" y="0" width="46.000000" height="24.000000" filter="url(#ds)"/><text style="font-size:12px;font-family:OpenSans;fill:#ffffff;" text-anchor="middle" x="23.000000" y="16.000000">zf-GRF</text></a></g>
<g class="axis">
<line x1="15.000000" x2="511.416667" y1="91.000000" y2="91.000000" stroke="#AAAAAA" /><line x1="15.000000" x2="15.000000" y1="91.000000" y2="96.000000" stroke="#AAAAAA" /><line x1="19.791667" x2="19.791667" y1="91.000000" y2="96.000000" stroke="#AAAAAA" /><text style="font-size:10px;font-family:OpenSans;fill:#000000;" text-anchor="middle" x="19.791667" y="106.000000">5</text><line x1="50.458333" x2="50.458333" y1="91.000000" y2="96.000000" stroke="#AAAAAA" /><text style="font-size:10px;font-family:OpenSans;fill:#000000;" text-anchor="middle" x="50.458333" y="106.000000">37</text><line x1="164.500000" x2="164.500000" y1="91.000000" y2="96.000000" stroke="#AAAAAA" /><text style="font-size:10px;font-family:OpenSans;fill:#000000;" text-anchor="middle" x="164.500000" y="106.000000">156</text><line x1="227.750000" x2="227.750000" y1="91.000000" y2="96.000000" stroke="#AAAAAA" /><text style="font-size:10px;font-family:OpenSans;fill:#000000;" text-anchor="middle" x="227.750000" y="106.000000">222</text><line x1="306.333333" x2="306.333333" y1="91.000000" y2="96.000000" stroke="#AAAAAA" /><text style="font-size:10px;font-family:OpenSans;fill:#000000;" text-anchor="middle" x="306.333333" y="106.000000">304</text><line x1="328.375000" x2="328.375000" y1="91.000000" y2="96.000000" stroke="#AAAAAA" /><text style="font-size:10px;font-family:OpenSans;fill:#000000;" text-anchor="middle" x="328.375000" y="106.000000">327</text><line x1="462.541667" x2="462.541667" y1="91.000000" y2="96.000000" stroke="#AAAAAA" /><text style="font-size:10px;font-family:OpenSans;fill:#000000;" text-anchor="middle" x="462.541667" y="106.000000">467</text><line x1="511.416667" x2="511.416667" y1="91.000000" y2="96.000000" stroke="#AAAAAA" /><text style="font-size:10px;font-family:OpenSans;fill:#000000;" text-anchor="middle" x="511.416667" y="106.000000">518</text></g>
<rect fill="#FF5353" x="4" y="120.000000" width="12" height="12" filter="url(#ds)"/><text style="font-size:12px;font-family:OpenSans;fill:#000000;" text-anchor="start" x="20" y="132.000000">GRF zinc finger</text></svg>
