<?xml version='1.0'?>
<svg xmlns="http://www.w3.org/2000/svg" xmlns:xlink="http://www.w3.org/1999/xlink" width="430.000000" height="234.400000">
<defs>
  <filter id="ds" x="0" y="0">
    <feOffset in="SourceAlpha" dx="2" dy="2" />
    <feComponentTransfer><feFuncA type="linear" slope="0.2"/></feComponentTransfer>
    <feGaussianBlur result="blurOut" stdDeviation="1" />
    <feBlend in="SourceGraphic" in2="blurOut" mode="normal" />
  </filter>
  <pattern id="disordered-hatch" patternUnits="userSpaceOnUse" width="4" height="4">
    <path d="M-1,1 l2,-2 M0,4 l4,-4 M3,5 l2,-2" stroke="#000000" opacity="0.3" />
  </pattern>
</defs>
<line x1="18.169014" x2="18.169014" y1="84.000000" y2="137.000000" stroke="#BABDB6" stroke-width="2"/><a xlink:title="P9S"><circle cx="18.169014" cy="84.000000" r="4.000000" fill="#ff0000" /></a><g transform="translate(18.169014,84.000000) rotate(-30)"><text style="font-size:10px;font-family:OpenSans;fill:#555;" text-anchor="middle" x="0" y="-6.000000">P9S</text></g><line x1="19.225352" x2="19.225352" y1="96.500000" y2="137.000000" stroke="#BABDB6" stroke-width="2"/><a xlink:title="N12H"><circle cx="19.225352" cy="96.500000" r="4.000000" fill="#ff0000" /></a><g transform="translate(19.225352,96.500000) rotate(-30)"><text style="font-size:10px;font-family:OpenSans;fill:#555;" text-anchor="middle" x="0" y="-6.000000">N12H</text></g><line x1="19.225352" x2="19.225352" y1="109.000000" y2="137.000000" stroke="#BABDB6" stroke-width="2"/><a xlink:title="N12T"><circle cx="19.225352" cy="109.000000" r="4.000000" fill="#ff0000" /></a><g transform="translate(19.225352,109.000000) rotate(-30)"><text style="font-size:10px;font-family:OpenSans;fill:#555;" text-anchor="middle" x="0" y="-6.000000">N12T</text></g><line x1="26.971831" x2="26.971831" y1="109.000000" y2="137.000000" stroke="#BABDB6" stroke-width="2"/><a xlink:title="A34T"><circle cx="26.971831" cy="109.000000" r="4.000000" fill="#ff0000" /></a><g transform="translate(26.971831,109.000000) rotate(-30)"><text style="font-size:10px;font-family:OpenSans;fill:#555;" text-anchor="middle" x="0" y="-6.000000">A34T</text></g><line x1="41.056338" x2="41.056338" y1="109.000000" y2="137.000000" stroke="#BABDB6" stroke-width="2"/><a xlink:title="S74G"><circle cx="41.056338" cy="109.000000" r="4.000000" fill="#ff0000" /></a><g transform="translate(41.056338,109.000000) rotate(-30)"><text style="font-size:10px;font-family:OpenSans;fill:#555;" text-anchor="middle" x="0" y="-6.000000">S74G</text></g><line x1="48.802817" x2="48.802817" y1="109.000000" y2="137.000000" stroke="#BABDB6" stroke-width="2"/><a xlink:title="S96G"><circle cx="48.802817" cy="109.000000" r="4.000000" fill="#ff0000" /></a><g transform="translate(48.802817,109.000000) rotate(-30)"><text style="font-size:10px;font-family:OpenSans;fill:#555;" text-anchor="middle" x="0" y="-6.000000">S96G</text></g><line x1="63.591549" x2="63.591549" y1="34.000000" y2="137.000000" stroke="#BABDB6" stroke-width="2"/><a xlink:title="L138L"><circle cx="63.591549" cy="34.000000" r="4.000000" fill="#0000ff" /></a><g transform="translate(63.591549,34.000000) rotate(-30)"><text style="font-size:10px;font-family:OpenSans;fill:#555;" text-anchor="middle" x="0" y="-6.000000">L138L</text></g><line x1="63.943662" x2="63.943662" y1="46.500000" y2="137.000000" stroke="#BABDB6" stroke-width="2"/><a xlink:title="R139H"><circle cx="63.943662" cy="46.500000" r="4.000000" fill="#ff0000" /></a><g transform="translate(63.943662,46.500000) rotate(-30)"><text style="font-size:10px;font-family:OpenSans;fill:#555;" text-anchor="middle" x="0" y="-6.000000">R139H</text></g><line x1="65.000000" x2="65.000000" y1="59.000000" y2="137.000000" stroke="#BABDB6" stroke-width="2"/><a xlink:title="L142L"><circle cx="65.000000" cy="59.000000" r="4.000000" fill="#0000ff" /></a><g transform="translate(65.000000,59.000000) rotate(-30)"><text style="font-size:10px;font-family:OpenSans;fill:#555;" text-anchor="middle" x="0" y="-6.000000">L142L</text></g><line x1="65.000000" x2="65.000000" y1="71.500000" y2="137.000000" stroke="#BABDB6" stroke-width="2"/><a xlink:title="E142D"><circle cx="65.000000" cy="71.500000" r="4.000000" fill="#ff0000" /></a><g transform="translate(65.000000,71.500000) rotate(-30)"><text style="font-size:10px;font-family:OpenSans;fill:#555;" text-anchor="middle" x="0" y="-6.000000">E142D</text></g><line x1="65.352113" x2="65.352113" y1="84.000000" y2="137.000000" stroke="#BABDB6" stroke-width="2"/><a xlink:title="R143H"><circle cx="65.352113" cy="84.000000" r="4.000000" fill="#ff0000" /></a><g transform="translate(65.352113,84.000000) rotate(-30)"><text style="font-size:10px;font-family:OpenSans;fill:#555;" text-anchor="middle" x="0" y="-6.000000">R143H</text></g><line x1="69.225352" x2="69.225352" y1="96.500000" y2="137.000000" stroke="#BABDB6" stroke-width="2"/><a xlink:title="L154L"><circle cx="69.225352" cy="96.500000" r="4.000000" fill="#0000ff" /></a><g transform="translate(69.225352,96.500000) rotate(-30)"><text style="font-size:10px;font-family:OpenSans;fill:#555;" text-anchor="middle" x="0" y="-6.000000">L154L</text></g><line x1="69.577465" x2="69.577465" y1="109.000000" y2="137.000000" stroke="#BABDB6" stroke-width="2"/><a xlink:title="R155H"><circle cx="69.577465" cy="109.000000" r="4.000000" fill="#ff0000" /></a><g transform="translate(69.577465,109.000000) rotate(-30)"><text style="font-size:10px;font-family:OpenSans;fill:#555;" text-anchor="middle" x="0" y="-6.000000">R155H</text></g><line x1="93.169014" x2="93.169014" y1="109.000000" y2="137.000000" stroke="#BABDB6" stroke-width="2"/><a xlink:title="P222P"><circle cx="93.169014" cy="109.000000" r="4.000000" fill="#0000ff" /></a><g transform="translate(93.169014,109.000000) rotate(-30)"><text style="font-size:10px;font-family:OpenSans;fill:#555;" text-anchor="middle" x="0" y="-6.000000">P222P</text></g><line x1="100.915493" x2="100.915493" y1="96.500000" y2="137.000000" stroke="#BABDB6" stroke-width="2"/><a xlink:title="P244P"><circle cx="100.915493" cy="96.500000" r="4.000000" fill="#0000ff" /></a><g transform="translate(100.915493,96.500000) rotate(-30)"><text style="font-size:10px;font-family:OpenSans;fill:#555;" text-anchor="middle" x="0" y="-6.000000">P244P</text></g><line x1="106.197183" x2="106.197183" y1="84.000000" y2="137.000000" stroke="#BABDB6" stroke-width="2"/><a xlink:title="E259D"><circle cx="106.197183" cy="84.000000" r="4.000000" fill="#ff0000" /></a><g transform="translate(106.197183,84.000000) rotate(-30)"><text style="font-size:10px;font-family:OpenSans;fill:#555;" text-anchor="middle" x="0" y="-6.000000">E259D</text></g><line x1="107.605634" x2="107.605634" y1="96.500000" y2="137.000000" stroke="#BABDB6" stroke-width="2"/><a xlink:title="E263D"><circle cx="107.605634" cy="96.500000" r="4.000000" fill="#ff0000" /></a><g transform="translate(107.605634,96.500000) rotate(-30)"><text style="font-size:10px;font-family:OpenSans;fill:#555;" text-anchor="middle" x="0" y="-6.000000">E263D</text></g><line x1="111.830986" x2="111.830986" y1="109.000000" y2="137.000000" stroke="#BABDB6" stroke-width="2"/><a xlink:title="E275D"><circle cx="111.830986" cy="109.000000" r="4.000000" fill="#ff0000" /></a><g transform="translate(111.830986,109.000000) rotate(-30)"><text style="font-size:10px;font-family:OpenSans;fill:#555;" text-anchor="middle" x="0" y="-6.000000">E275D</text></g><line x1="128.380282" x2="128.380282" y1="109.000000" y2="137.000000" stroke="#BABDB6" stroke-width="2"/><a xlink:title="S322G"><circle cx="128.380282" cy="109.000000" r="4.000000" fill="#ff0000" /></a><g transform="translate(128.380282,109.000000) rotate(-30)"><text style="font-size:10px;font-family:OpenSans;fill:#555;" text-anchor="middle" x="0" y="-6.000000">S322G</text></g><line x1="151.619718" x2="151.619718" y1="109.000000" y2="137.000000" stroke="#BABDB6" stroke-width="2"/><a xlink:title="Q388Q"><circle cx="151.619718" cy="109.000000" r="4.000000" fill="#0000ff" /></a><g transform="translate(151.619718,109.000000) rotate(-30)"><text style="font-size:10px;font-family:OpenSans;fill:#555;" text-anchor="middle" x="0" y="-6.000000">Q388Q</text></g><line x1="159.366197" x2="159.366197" y1="109.000000" y2="137.000000" stroke="#BABDB6" stroke-width="2"/><a xlink:title="Q410Q"><circle cx="159.366197" cy="109.000000" r="4.000000" fill="#0000ff" /></a><g transform="translate(159.366197,109.000000) rotate(-30)"><text style="font-size:10px;font-family:OpenSans;fill:#555;" text-anchor="middle" x="0" y="-6.000000">Q410Q</text></g><line x1="169.577465" x2="169.577465" y1="84.000000" y2="137.000000" stroke="#BABDB6" stroke-width="2"/><a xlink:title="S439G"><circle cx="169.577465" cy="84.000000" r="4.000000" fill="#ff0000" /></a><g transform="translate(169.577465,84.000000) rotate(-30)"><text style="font-size:10px;font-family:OpenSans;fill:#555;" text-anchor="middle" x="0" y="-6.000000">S439G</text></g><line x1="170.985915" x2="170.985915" y1="96.500000" y2="137.000000" stroke="#BABDB6" stroke-width="2"/><a xlink:title="S443G"><circle cx="170.985915" cy="96.500000" r="4.000000" fill="#ff0000" /></a><g transform="translate(170.985915,96.500000) rotate(-30)"><text style="font-size:10px;font-family:OpenSans;fill:#555;" text-anchor="middle" x="0" y="-6.000000">S443G</text></g><line x1="175.211268" x2="175.211268" y1="96.500000" y2="137.000000" stroke="#BABDB6" stroke-width="2"/><a xlink:title="S455G"><circle cx="175.211268" cy="96.500000" r="4.000000" fill="#ff0000" /></a><g transform="translate(175.211268,96.500000) rotate(-30)"><text style="font-size:10px;font-family:OpenSans;fill:#555;" text-anchor="middle" x="0" y="-6.000000">S455G</text></g><line x1="180.492958" x2="180.492958" y1="109.000000" y2="137.000000" stroke="#BABDB6" stroke-width="2"/><a xlink:title="P470P"><circle cx="180.492958" cy="109.000000" r="4.000000" fill="#0000ff" /></a><g transform="translate(180.492958,109.000000) rotate(-30)"><text style="font-size:10px;font-family:OpenSans;fill:#555;" text-anchor="middle" x="0" y="-6.000000">P470P</text></g><line x1="221.690141" x2="221.690141" y1="84.000000" y2="137.000000" stroke="#BABDB6" stroke-width="2"/><a xlink:title="P587P"><circle cx="221.690141" cy="84.000000" r="4.000000" fill="#0000ff" /></a><g transform="translate(221.690141,84.000000) rotate(-30)"><text style="font-size:10px;font-family:OpenSans;fill:#555;" text-anchor="middle" x="0" y="-6.000000">P587P</text></g><line x1="223.098592" x2="223.098592" y1="96.500000" y2="137.000000" stroke="#BABDB6" stroke-width="2"/><a xlink:title="P591P"><circle cx="223.098592" cy="96.500000" r="4.000000" fill="#0000ff" /></a><g transform="translate(223.098592,96.500000) rotate(-30)"><text style="font-size:10px;font-family:OpenSans;fill:#555;" text-anchor="middle" x="0" y="-6.000000">P591P</text></g><line x1="227.323944" x2="227.323944" y1="109.000000" y2="137.000000" stroke="#BABDB6" stroke-width="2"/><a xlink:title="P603P"><circle cx="227.323944" cy="109.000000" r="4.000000" fill="#0000ff" /></a><g transform="translate(227.323944,109.000000) rotate(-30)"><text style="font-size:10px;font-family:OpenSans;fill:#555;" text-anchor="middle" x="0" y="-6.000000">P603P</text></g><line x1="238.943662" x2="238.943662" y1="109.000000" y2="137.000000" stroke="#BABDB6" stroke-width="2"/><a xlink:title="Q636Q"><circle cx="238.943662" cy="109.000000" r="4.000000" fill="#0000ff" /></a><g transform="translate(238.943662,109.000000) rotate(-30)"><text style="font-size:10px;font-family:OpenSans;fill:#555;" text-anchor="middle" x="0" y="-6.000000">Q636Q</text></g><line x1="247.042254" x2="247.042254" y1="109.000000" y2="137.000000" stroke="#BABDB6" stroke-width="2"/><a xlink:title="R659Q"><circle cx="247.042254" cy="109.000000" r="4.000000" fill="#ff0000" /></a><g transform="translate(247.042254,109.000000) rotate(-30)"><text style="font-size:10px;font-family:OpenSans;fill:#555;" text-anchor="middle" x="0" y="-6.000000">R659Q</text></g><line x1="254.788732" x2="254.788732" y1="109.000000" y2="137.000000" stroke="#BABDB6" stroke-width="2"/><a xlink:title="R681Q"><circle cx="254.788732" cy="109.000000" r="4.000000" fill="#ff0000" /></a><g transform="translate(254.788732,109.000000) rotate(-30)"><text style="font-size:10px;font-family:OpenSans;fill:#555;" text-anchor="middle" x="0" y="-6.000000">R681Q</text></g><line x1="269.577465" x2="269.577465" y1="96.500000" y2="137.000000" stroke="#BABDB6" stroke-width="2"/><a xlink:title="G723E"><circle cx="269.577465" cy="96.500000" r="4.000000" fill="#ff0000" /></a><g transform="translate(269.577465,96.500000) rotate(-30)"><text style="font-size:10px;font-family:OpenSans;fill:#555;" text-anchor="middle" x="0" y="-6.000000">G723E</text></g><line x1="271.338028" x2="271.338028" y1="96.500000" y2="137.000000" stroke="#BABDB6" stroke-width="2"/><a xlink:title="P728P"><circle cx="271.338028" cy="96.500000" r="4.000000" fill="#0000ff" /></a><g transform="translate(271.338028,96.500000) rotate(-30)"><text style="font-size:10px;font-family:OpenSans;fill:#555;" text-anchor="middle" x="0" y="-6.000000">P728P</text></g><line x1="277.323944" x2="277.323944" y1="59.000000" y2="137.000000" stroke="#BABDB6" stroke-width="2"/><a xlink:title="G745E"><circle cx="277.323944" cy="59.000000" r="4.000000" fill="#ff0000" /></a><g transform="translate(277.323944,59.000000) rotate(-30)"><text style="font-size:10px;font-family:OpenSans;fill:#555;" text-anchor="middle" x="0" y="-6.000000">G745E</text></g><line x1="279.084507" x2="279.084507" y1="71.500000" y2="137.000000" stroke="#BABDB6" stroke-width="2"/><a xlink:title="P750P"><circle cx="279.084507" cy="71.500000" r="4.000000" fill="#0000ff" /></a><g transform="translate(279.084507,71.500000) rotate(-30)"><text style="font-size:10px;font-family:OpenSans;fill:#555;" text-anchor="middle" x="0" y="-6.000000">P750P</text></g><line x1="280.140845" x2="280.140845" y1="71.500000" y2="137.000000" stroke="#BABDB6" stroke-width="2"/><a xlink:title="Q753Q"><circle cx="280.140845" cy="71.500000" r="4.000000" fill="#0000ff" /></a><g transform="translate(280.140845,71.500000) rotate(-30)"><text style="font-size:10px;font-family:OpenSans;fill:#555;" text-anchor="middle" x="0" y="-6.000000">Q753Q</text></g><line x1="281.549296" x2="281.549296" y1="84.000000" y2="137.000000" stroke="#BABDB6" stroke-width="2"/><a xlink:title="Q757Q"><circle cx="281.549296" cy="84.000000" r="4.000000" fill="#0000ff" /></a><g transform="translate(281.549296,84.000000) rotate(-30)"><text style="font-size:10px;font-family:OpenSans;fill:#555;" text-anchor="middle" x="0" y="-6.000000">Q757Q</text></g><line x1="282.253521" x2="282.253521" y1="96.500000" y2="137.000000" stroke="#BABDB6" stroke-width="2"/><a xlink:title="T759T"><circle cx="282.253521" cy="96.500000" r="4.000000" fill="#0000ff" /></a><g transform="translate(282.253521,96.500000) rotate(-30)"><text style="font-size:10px;font-family:OpenSans;fill:#555;" text-anchor="middle" x="0" y="-6.000000">T759T</text></g><line x1="285.774648" x2="285.774648" y1="71.500000" y2="137.000000" stroke="#BABDB6" stroke-width="2"/><a xlink:title="Q769Q"><circle cx="285.774648" cy="71.500000" r="4.000000" fill="#0000ff" /></a><g transform="translate(285.774648,71.500000) rotate(-30)"><text style="font-size:10px;font-family:OpenSans;fill:#555;" text-anchor="middle" x="0" y="-6.000000">Q769Q</text></g><line x1="290.000000" x2="290.000000" y1="71.500000" y2="137.000000" stroke="#BABDB6" stroke-width="2"/><a xlink:title="Q781Q"><circle cx="290.000000" cy="71.500000" r="4.000000" fill="#0000ff" /></a><g transform="translate(290.000000,71.500000) rotate(-30)"><text style="font-size:10px;font-family:OpenSans;fill:#555;" text-anchor="middle" x="0" y="-6.000000">Q781Q</text></g><line x1="290.000000" x2="290.000000" y1="84.000000" y2="137.000000" stroke="#BABDB6" stroke-width="2"/><a xlink:title="T781T"><circle cx="290.000000" cy="84.000000" r="4.000000" fill="#0000ff" /></a><g transform="translate(290.000000,84.000000) rotate(-30)"><text style="font-size:10px;font-family:OpenSans;fill:#555;" text-anchor="middle" x="0" y="-6.000000">T781T</text></g><line x1="291.408451" x2="291.408451" y1="96.500000" y2="137.000000" stroke="#BABDB6" stroke-width="2"/><a xlink:title="Q785Q"><circle cx="291.408451" cy="96.500000" r="4.000000" fill="#0000ff" /></a><g transform="translate(291.408451,96.500000) rotate(-30)"><text style="font-size:10px;font-family:OpenSans;fill:#555;" text-anchor="middle" x="0" y="-6.000000">Q785Q</text></g><line x1="295.633803" x2="295.633803" y1="109.000000" y2="137.000000" stroke="#BABDB6" stroke-width="2"/><a xlink:title="Q797Q"><circle cx="295.633803" cy="109.000000" r="4.000000" fill="#0000ff" /></a><g transform="translate(295.633803,109.000000) rotate(-30)"><text style="font-size:10px;font-family:OpenSans;fill:#555;" text-anchor="middle" x="0" y="-6.000000">Q797Q</text></g><line x1="334.366197" x2="334.366197" y1="109.000000" y2="137.000000" stroke="#BABDB6" stroke-width="2"/><a xlink:title="R907Q"><circle cx="334.366197" cy="109.000000" r="4.000000" fill="#ff0000" /></a><g transform="translate(334.366197,109.000000) rotate(-30)"><text style="font-size:10px;font-family:OpenSans;fill:#555;" text-anchor="middle" x="0" y="-6.000000">R907Q</text></g><line x1="356.901408" x2="356.901408" y1="96.500000" y2="137.000000" stroke="#BABDB6" stroke-width="2"/><a xlink:title="G971E"><circle cx="356.901408" cy="96.500000" r="4.000000" fill="#ff0000" /></a><g transform="translate(356.901408,96.500000) rotate(-30)"><text style="font-size:10px;font-family:OpenSans;fill:#555;" text-anchor="middle" x="0" y="-6.000000">G971E</text></g><line x1="358.661972" x2="358.661972" y1="109.000000" y2="137.000000" stroke="#BABDB6" stroke-width="2"/><a xlink:title="P976P"><circle cx="358.661972" cy="109.000000" r="4.000000" fill="#0000ff" /></a><g transform="translate(358.661972,109.000000) rotate(-30)"><text style="font-size:10px;font-family:OpenSans;fill:#555;" text-anchor="middle" x="0" y="-6.000000">P976P</text></g><line x1="369.577465" x2="369.577465" y1="96.500000" y2="137.000000" stroke="#BABDB6" stroke-width="2"/><a xlink:title="T1007T"><circle cx="369.577465" cy="96.500000" r="4.000000" fill="#0000ff" /></a><g transform="translate(369.577465,96.500000) rotate(-30)"><text style="font-size:10px;font-family:OpenSans;fill:#555;" text-anchor="middle" x="0" y="-6.000000">T1007T</text></g><line x1="375.563380" x2="375.563380" y1="84.000000" y2="137.000000" stroke="#BABDB6" stroke-width="2"/><a xlink:title="R1024Q"><circle cx="375.563380" cy="84.000000" r="4.000000" fill="#ff0000" /></a><g transform="translate(375.563380,84.000000) rotate(-30)"><text style="font-size:10px;font-family:OpenSans;fill:#555;" text-anchor="middle" x="0" y="-6.000000">R1024Q</text></g><line x1="376.971831" x2="376.971831" y1="96.500000" y2="137.000000" stroke="#BABDB6" stroke-width="2"/><a xlink:title="R1028Q"><circle cx="376.971831" cy="96.500000" r="4.000000" fill="#ff0000" /></a><g transform="translate(376.971831,96.500000) rotate(-30)"><text style="font-size:10px;font-family:OpenSans;fill:#555;" text-anchor="middle" x="0" y="-6.000000">R1028Q</text></g><line x1="381.197183" x2="381.197183" y1="84.000000" y2="137.000000" stroke="#BABDB6" stroke-width="2"/><a xlink:title="R1040Q"><circle cx="381.197183" cy="84.000000" r="4.000000" fill="#ff0000" /></a><g transform="translate(381.197183,84.000000) rotate(-30)"><text style="font-size:10px;font-family:OpenSans;fill:#555;" text-anchor="middle" x="0" y="-6.000000">R1040Q</text></g><line x1="385.422535" x2="385.422535" y1="84.000000" y2="137.000000" stroke="#BABDB6" stroke-width="2"/><a xlink:title="R1052Q"><circle cx="385.422535" cy="84.000000" r="4.000000" fill="#ff0000" /></a><g transform="translate(385.422535,84.000000) rotate(-30)"><text style="font-size:10px;font-family:OpenSans;fill:#555;" text-anchor="middle" x="0" y="-6.000000">R1052Q</text></g><line x1="386.830986" x2="386.830986" y1="96.500000" y2="137.000000" stroke="#BABDB6" stroke-width="2"/><a xlink:title="R1056Q"><circle cx="386.830986" cy="96.500000" r="4.000000" fill="#ff0000" /></a><g transform="translate(386.830986,96.500000) rotate(-30)"><text style="font-size:10px;font-family:OpenSans;fill:#555;" text-anchor="middle" x="0" y="-6.000000">R1056Q</text></g><line x1="391.056338" x2="391.056338" y1="109.000000" y2="137.000000" stroke="#BABDB6" stroke-width="2"/><a xlink:title="R1068Q"><circle cx="391.056338" cy="109.000000" r="4.000000" fill="#ff0000" /></a><g transform="translate(391.056338,109.000000) rotate(-30)"><text style="font-size:10px;font-family:OpenSans;fill:#555;" text-anchor="middle" x="0" y="-6.000000">R1068Q</text></g><line x1="398.098592" x2="398.098592" y1="59.000000" y2="137.000000" stroke="#BABDB6" stroke-width="2"/><a xlink:title="G1088E"><circle cx="398.098592" cy="59.000000" r="4.000000" fill="#ff0000" /></a><g transform="translate(398.098592,59.000000) rotate(-30)"><text style="font-size:10px;font-family:OpenSans;fill:#555;" text-anchor="middle" x="0" y="-6.000000">G1088E</text></g><line x1="399.507042" x2="399.507042" y1="59.000000" y2="137.000000" stroke="#BABDB6" stroke-width="2"/><a xlink:title="G1092E"><circle cx="399.507042" cy="59.000000" r="4.000000" fill="#ff0000" /></a><g transform="translate(399.507042,59.000000) rotate(-30)"><text style="font-size:10px;font-family:OpenSans;fill:#555;" text-anchor="middle" x="0" y="-6.000000">G1092E</text></g><line x1="399.859155" x2="399.859155" y1="71.500000" y2="137.000000" stroke="#BABDB6" stroke-width="2"/><a xlink:title="P1093P"><circle cx="399.859155" cy="71.500000" r="4.000000" fill="#0000ff" /></a><g transform="translate(399.859155,71.500000) rotate(-30)"><text style="font-size:10px;font-family:OpenSans;fill:#555;" text-anchor="middle" x="0" y="-6.000000">P1093P</text></g><line x1="401.267606" x2="401.267606" y1="84.000000" y2="137.000000" stroke="#BABDB6" stroke-width="2"/><a xlink:title="P1097P"><circle cx="401.267606" cy="84.000000" r="4.000000" fill="#0000ff" /></a><g transform="translate(401.267606,84.000000) rotate(-30)"><text style="font-size:10px;font-family:OpenSans;fill:#555;" text-anchor="middle" x="0" y="-6.000000">P1097P</text></g><line x1="403.732394" x2="403.732394" y1="59.000000" y2="137.000000" stroke="#BABDB6" stroke-width="2"/><a xlink:title="G1104E"><circle cx="403.732394" cy="59.000000" r="4.000000" fill="#ff0000" /></a><g transform="translate(403.732394,59.000000) rotate(-30)"><text style="font-size:10px;font-family:OpenSans;fill:#555;" text-anchor="middle" x="0" y="-6.000000">G1104E</text></g><line x1="405.492958" x2="405.492958" y1="46.500000" y2="137.000000" stroke="#BABDB6" stroke-width="2"/><a xlink:title="P1109P"><circle cx="405.492958" cy="46.500000" r="4.000000" fill="#0000ff" /></a><g transform="translate(405.492958,46.500000) rotate(-30)"><text style="font-size:10px;font-family:OpenSans;fill:#555;" text-anchor="middle" x="0" y="-6.000000">P1109P</text></g><line x1="407.957746" x2="407.957746" y1="34.000000" y2="137.000000" stroke="#BABDB6" stroke-width="2"/><a xlink:title="G1116E"><circle cx="407.957746" cy="34.000000" r="4.000000" fill="#ff0000" /></a><g transform="translate(407.957746,34.000000) rotate(-30)"><text style="font-size:10px;font-family:OpenSans;fill:#555;" text-anchor="middle" x="0" y="-6.000000">G1116E</text></g><line x1="409.366197" x2="409.366197" y1="34.000000" y2="137.000000" stroke="#BABDB6" stroke-width="2"/><a xlink:title="G1120E"><circle cx="409.366197" cy="34.000000" r="4.000000" fill="#ff0000" /></a><g transform="translate(409.366197,34.000000) rotate(-30)"><text style="font-size:10px;font-family:OpenSans;fill:#555;" text-anchor="middle" x="0" y="-6.000000">G1120E</text></g><line x1="409.718310" x2="409.718310" y1="46.500000" y2="137.000000" stroke="#BABDB6" stroke-width="2"/><a xlink:title="P1121P"><circle cx="409.718310" cy="46.500000" r="4.000000" fill="#0000ff" /></a><g transform="translate(409.718310,46.500000) rotate(-30)"><text style="font-size:10px;font-family:OpenSans;fill:#555;" text-anchor="middle" x="0" y="-6.000000">P1121P</text></g><line x1="410.774648" x2="410.774648" y1="46.500000" y2="137.000000" stroke="#BABDB6" stroke-width="2"/><a xlink:title="T1124T"><circle cx="410.774648" cy="46.500000" r="4.000000" fill="#0000ff" /></a><g transform="translate(410.774648,46.500000) rotate(-30)"><text style="font-size:10px;font-family:OpenSans;fill:#555;" text-anchor="middle" x="0" y="-6.000000">T1124T</text></g><line x1="411.126761" x2="411.126761" y1="59.000000" y2="137.000000" stroke="#BABDB6" stroke-width="2"/><a xlink:title="P1125P"><circle cx="411.126761" cy="59.000000" r="4.000000" fill="#0000ff" /></a><g transform="translate(411.126761,59.000000) rotate(-30)"><text style="font-size:10px;font-family:OpenSans;fill:#555;" text-anchor="middle" x="0" y="-6.000000">P1125P</text></g><line x1="412.183099" x2="412.183099" y1="71.500000" y2="137.000000" stroke="#BABDB6" stroke-width="2"/><a xlink:title="T1128T"><circle cx="412.183099" cy="71.500000" r="4.000000" fill="#0000ff" /></a><g transform="translate(412.183099,71.500000) rotate(-30)"><text style="font-size:10px;font-family:OpenSans;fill:#555;" text-anchor="middle" x="0" y="-6.000000">T1128T</text></g><line x1="413.591549" x2="413.591549" y1="84.000000" y2="137.000000" stroke="#BABDB6" stroke-width="2"/><a xlink:title="G1132E"><circle cx="413.591549" cy="84.000000" r="4.000000" fill="#ff0000" /></a><g transform="translate(413.591549,84.000000) rotate(-30)"><text style="font-size:10px;font-family:OpenSans;fill:#555;" text-anchor="middle" x="0" y="-6.000000">G1132E</text></g><line x1="415.352113" x2="415.352113" y1="84.000000" y2="137.000000" stroke="#BABDB6" stroke-width="2"/><a xlink:title="P1137P"><circle cx="415.352113" cy="84.000000" r="4.000000" fill="#0000ff" /></a><g transform="translate(415.352113,84.000000) rotate(-30)"><text style="font-size:10px;font-family:OpenSans;fill:#555;" text-anchor="middle" x="0" y="-6.000000">P1137P</text></g><line x1="416.408451" x2="416.408451" y1="84.000000" y2="137.000000" stroke="#BABDB6" stroke-width="2"/><a xlink:title="T1140T"><circle cx="416.408451" cy="84.000000" r="4.000000" fill="#0000ff" /></a><g transform="translate(416.408451,84.000000) rotate(-30)"><text style="font-size:10px;font-family:OpenSans;fill:#555;" text-anchor="middle" x="0" y="-6.000000">T1140T</text></g><line x1="420.633803" x2="420.633803" y1="84.000000" y2="137.000000" stroke="#BABDB6" stroke-width="2"/><a xlink:title="T1152T"><circle cx="420.633803" cy="84.000000" r="4.000000" fill="#0000ff" /></a><g transform="translate(420.633803,84.000000) rotate(-30)"><text style="font-size:10px;font-family:OpenSans;fill:#555;" text-anchor="middle" x="0" y="-6.000000">T1152T</text></g><line x1="422.042254" x2="422.042254" y1="96.500000" y2="137.000000" stroke="#BABDB6" stroke-width="2"/><a xlink:title="T1156T"><circle cx="422.042254" cy="96.500000" r="4.000000" fill="#0000ff" /></a><g transform="translate(422.042254,96.500000) rotate(-30)"><text style="font-size:10px;font-family:OpenSans;fill:#555;" text-anchor="middle" x="0" y="-6.000000">T1156T</text></g><line x1="426.267606" x2="426.267606" y1="109.000000" y2="137.000000" stroke="#BABDB6" stroke-width="2"/><a xlink:title="T1168T"><circle cx="426.267606" cy="109.000000" r="4.000000" fill="#0000ff" /></a><g transform="translate(426.267606,109.000000) rotate(-30)"><text style="font-size:10px;font-family:OpenSans;fill:#555;" text-anchor="middle" x="0" y="-6.000000">T1168T</text></g><a xlink:title=",  (1136aa)"><rect fill="#BABDB6" x="15.000000" y="137.000000" width="400.000000" height="14.000000"/></a><g transform="translate(113.591549,132.000000)"><a xlink:href="https://www.ebi.ac.uk/interpro/entry/pfam/PF22699" xlink:title="GEM-interacting protein-like, FCH domain"><rect fill="#2DCF00" x="0" y="0" width="94.366197" height="24.000000" filter="url(#ds)"/><text style="font-size:12px;font-family:OpenSans;fill:#ffffff;" text-anchor="middle" x="47.183099" y="16.000000">GMIP-like_FCH</text></a></g>
<g transform="translate(287.887324,132.000000)"><a xlink:href="https://www.ebi.ac.uk/interpro/entry/pfam/PF00620" xlink:title="RhoGAP domain"><rect fill="#FF5353" x="0" y="0" width="58.802817" height="24.000000" filter="url(#ds)"/><text style="font-size:12px;font-family:OpenSans;fill:#ffffff;" text-anchor="middle" x="29.401408" y="16.000000">RhoGAP</text></a></g>
<g class="axis">
<line x1="15.000000" x2="415.000000" y1="166.000000" y2="166.000000" stroke="#AAAAAA" /><line x1="15.000000" x2="15.000000" y1="166.000000" y2="171.000000" stroke="#AAAAAA" /><line x1="18.169014" x2="18.169014" y1="166.000000" y2="171.000000" stroke="#AAAAAA" /><text style="font-size:10px;font-family:OpenSans;fill:#000000;" text-anchor="middle" x="18.169014" y="181.000000">9</text><line x1="41.056338" x2="41.056338" y1="166.000000" y2="171.000000" stroke="#AAAAAA" /><text style="font-size:10px;font-family:OpenSans;fill:#000000;" text-anchor="middle" x="41.056338" y="181.000000">74</text><line x1="63.591549" x2="63.591549" y1="166.000000" y2="171.000000" stroke="#AAAAAA" /><text style="font-size:10px;font-family:OpenSans;fill:#000000;" text-anchor="middle" x="63.591549" y="181.000000">138</text><line x1="93.169014" x2="93.169014" y1="166.000000" y2="171.000000" stroke="#AAAAAA" /><text style="font-size:10px;font-family:OpenSans;fill:#000000;" text-anchor="middle" x="93.169014" y="181.000000">222</text><line x1="128.380282" x2="128.380282" y1="166.000000" y2="171.000000" stroke="#AAAAAA" /><text style="font-size:10px;font-family:OpenSans;fill:#000000;" text-anchor="middle" x="128.380282" y="181.000000">322</text><line x1="151.619718" x2="151.619718" y1="166.000000" y2="171.000000" stroke="#AAAAAA" /><text style="font-size:10px;font-family:OpenSans;fill:#000000;" text-anchor="middle" x="151.619718" y="181.000000">388</text><line x1="175.211268" x2="175.211268" y1="166.000000" y2="171.000000" stroke="#AAAAAA" /><text style="font-size:10px;font-family:OpenSans;fill:#000000;" text-anchor="middle" x="175.211268" y="181.000000">455</text><line x1="221.690141" x2="221.690141" y1="166.000000" y2="171.000000" stroke="#AAAAAA" /><text style="font-size:10px;font-family:OpenSans;fill:#000000;" text-anchor="middle" x="221.690141" y="181.000000">587</text><line x1="247.042254" x2="247.042254" y1="166.000000" y2="171.000000" stroke="#AAAAAA" /><text style="font-size:10px;font-family:OpenSans;fill:#000000;" text-anchor="middle" x="247.042254" y="181.000000">659</text><line x1="269.577465" x2="269.577465" y1="166.000000" y2="171.000000" stroke="#AAAAAA" /><text style="font-size:10px;font-family:OpenSans;fill:#000000;" text-anchor="middle" x="269.577465" y="181.000000">723</text><line x1="290.000000" x2="290.000000" y1="166.000000" y2="171.000000" stroke="#AAAAAA" /><text style="font-size:10px;font-family:OpenSans;fill:#000000;" text-anchor="middle" x="290.000000" y="181.000000">781</text><line x1="334.366197" x2="334.366197" y1="166.000000" y2="171.000000" stroke="#AAAAAA" /><text style="font-size:10px;font-family:OpenSans;fill:#000000;" text-anchor="middle" x="334.366197" y="181.000000">907</text><line x1="356.901408" x2="356.901408" y1="166.000000" y2="171.000000" stroke="#AAAAAA" /><text style="font-size:10px;font-family:OpenSans;fill:#000000;" text-anchor="middle" x="356.901408" y="181.000000">971</text><line x1="376.971831" x2="376.971831" y1="166.000000" y2="171.000000" stroke="#AAAAAA" /><text style="font-size:10px;font-family:OpenSans;fill:#000000;" text-anchor="middle" x="376.971831" y="181.000000">1028</text><line x1="415.000000" x2="415.000000" y1="166.000000" y2="171.000000" stroke="#AAAAAA" /><text style="font-size:10px;font-family:OpenSans;fill:#000000;" text-anchor="middle" x="415.000000" y="181.000000">1136</text></g>
<rect fill="#2DCF00" x="4" y="195.000000" width="12" height="12" filter="url(#ds)"/><text style="font-size:12px;font-family:OpenSans;fill:#000000;" text-anchor="start" x="20" y="207.000000">GEM-interacting protein-like, FCH domain</text><rect fill="#FF5353" x="4" y="209.000000" width="12" height="12" filter="url(#ds)"/><text style="font-size:12px;font-family:OpenSans;fill:#000000;" text-anchor="start" x="20" y="221.000000">RhoGAP domain</text></svg>
