<?xml version='1.0'?>
<svg xmlns="http://www.w3.org/2000/svg" xmlns:xlink="http://www.w3.org/1999/xlink" width="430.000000" height="146.200000">
<defs>
  <filter id="ds" x="0" y="0">
    <feOffset in="SourceAlpha" dx="2" dy="2" />
    <feComponentTransfer><feFuncA type="linear" slope="0.2"/></feComponentTransfer>
    <feGaussianBlur result="blurOut" stdDeviation="1" />
    <feBlend in="SourceGraphic" in2="blurOut" mode="normal" />
  </filter>
  <pattern id="disordered-hatch" patternUnits="userSpaceOnUse" width="4" height="4">
    <path d="M-1,1 l2,-2 M0,4 l4,-4 M3,5 l2,-2" stroke="#000000" opacity="0.3" />
  </pattern>
</defs>
<line x1="334.827586" x2="334.827586" y1="34.000000" y2="62.000000" stroke="#BABDB6" stroke-width="2"/><a xlink:title="E371K"><circle cx="334.827586" cy="34.000000" r="4.000000" fill="#ff0000" /></a><g transform="translate(334.827586,34.000000) rotate(-30)"><text style="font-size:10px;font-family:OpenSans;fill:#555;" text-anchor="middle" x="0" y="-6.000000">E371K</text></g><line x1="352.068966" x2="352.068966" y1="34.000000" y2="62.000000" stroke="#BABDB6" stroke-width="2"/><a xlink:title="G391S"><circle cx="352.068966" cy="34.000000" r="4.000000" fill="#ff0000" /></a><g transform="translate(352.068966,34.000000) rotate(-30)"><text style="font-size:10px;font-family:OpenSans;fill:#555;" text-anchor="middle" x="0" y="-6.000000">G391S</text></g><line x1="361.551724" x2="361.551724" y1="34.000000" y2="62.000000" stroke="#BABDB6" stroke-width="2"/><a xlink:title="E402K"><circle cx="361.551724" cy="34.000000" r="4.000000" fill="#ff0000" /></a><g transform="translate(361.551724,34.000000) rotate(-30)"><text style="font-size:10px;font-family:OpenSans;fill:#555;" text-anchor="middle" x="0" y="-6.000000">E402K</text></g><line x1="378.793103" x2="378.793103" y1="34.000000" y2="62.000000" stroke="#BABDB6" stroke-width="2"/><a xlink:title="G422S"><circle cx="378.793103" cy="34.000000" r="4.000000" fill="#ff0000" /></a><g transform="translate(378.793103,34.000000) rotate(-30)"><text style="font-size:10px;font-family:OpenSans;fill:#555;" text-anchor="middle" x="0" y="-6.000000">G422S</text></g><line x1="388.275862" x2="388.275862" y1="34.000000" y2="62.000000" stroke="#BABDB6" stroke-width="2"/><a xlink:title="L433L"><circle cx="388.275862" cy="34.000000" r="4.000000" fill="#0000ff" /></a><g transform="translate(388.275862,34.000000) rotate(-30)"><text style="font-size:10px;font-family:OpenSans;fill:#555;" text-anchor="middle" x="0" y="-6.000000">L433L</text></g><line x1="415.000000" x2="415.000000" y1="34.000000" y2="62.000000" stroke="#BABDB6" stroke-width="2"/><a xlink:title="L464L"><circle cx="415.000000" cy="34.000000" r="4.000000" fill="#0000ff" /></a><g transform="translate(415.000000,34.000000) rotate(-30)"><text style="font-size:10px;font-family:OpenSans;fill:#555;" text-anchor="middle" x="0" y="-6.000000">L464L</text></g><a xlink:title=",  (464aa)"><rect fill="#BABDB6" x="15.000000" y="62.000000" width="400.000000" height="14.000000"/></a><g transform="translate(42.586207,57.000000)"><a xlink:href="https://www.ebi.ac.uk/interpro/entry/pfam/PF13716" xlink:title="Divergent CRAL/TRIO domain"><rect fill="#2DCF00" x="0" y="0" width="141.379310" height="24.000000" filter="url(#ds)"/><text style="font-size:12px;font-family:OpenSans;fill:#ffffff;" text-anchor="middle" x="70.689655" y="16.000000">CRAL_TRIO_2</text></a></g>
<g transform="translate(222.758621,57.000000)"><a xlink:href="https://www.ebi.ac.uk/interpro/entry/pfam/PF00620" xlink:title="RhoGAP domain"><rect fill="#FF5353" x="0" y="0" width="124.137931" height="24.000000" filter="url(#ds)"/><text style="font-size:12px;font-family:OpenSans;fill:#ffffff;" text-anchor="middle" x="62.068966" y="16.000000">RhoGAP domain</text></a></g>
<g class="axis">
<line x1="15.000000" x2="415.000000" y1="91.000000" y2="91.000000" stroke="#AAAAAA" /><line x1="15.000000" x2="15.000000" y1="91.000000" y2="96.000000" stroke="#AAAAAA" /><line x1="15.000000" x2="15.000000" y1="91.000000" y2="96.000000" stroke="#AAAAAA" /><text style="font-size:10px;font-family:OpenSans;fill:#000000;" text-anchor="middle" x="15.000000" y="106.000000">0</text><line x1="42.586207" x2="42.586207" y1="91.000000" y2="96.000000" stroke="#AAAAAA" /><text style="font-size:10px;font-family:OpenSans;fill:#000000;" text-anchor="middle" x="42.586207" y="106.000000">32</text><line x1="183.965517" x2="183.965517" y1="91.000000" y2="96.000000" stroke="#AAAAAA" /><text style="font-size:10px;font-family:OpenSans;fill:#000000;" text-anchor="middle" x="183.965517" y="106.000000">196</text><line x1="222.758621" x2="222.758621" y1="91.000000" y2="96.000000" stroke="#AAAAAA" /><text style="font-size:10px;font-family:OpenSans;fill:#000000;" text-anchor="middle" x="222.758621" y="106.000000">241</text><line x1="334.827586" x2="334.827586" y1="91.000000" y2="96.000000" stroke="#AAAAAA" /><text style="font-size:10px;font-family:OpenSans;fill:#000000;" text-anchor="middle" x="334.827586" y="106.000000">371</text><line x1="361.551724" x2="361.551724" y1="91.000000" y2="96.000000" stroke="#AAAAAA" /><text style="font-size:10px;font-family:OpenSans;fill:#000000;" text-anchor="middle" x="361.551724" y="106.000000">402</text><line x1="388.275862" x2="388.275862" y1="91.000000" y2="96.000000" stroke="#AAAAAA" /><text style="font-size:10px;font-family:OpenSans;fill:#000000;" text-anchor="middle" x="388.275862" y="106.000000">433</text><line x1="415.000000" x2="415.000000" y1="91.000000" y2="96.000000" stroke="#AAAAAA" /><text style="font-size:10px;font-family:OpenSans;fill:#000000;" text-anchor="middle" x="415.000000" y="106.000000">464</text></g>
<rect fill="#2DCF00" x="4" y="120.000000" width="12" height="12" filter="url(#ds)"/><text style="font-size:12px;font-family:OpenSans;fill:#000000;" text-anchor="start" x="20" y="132.000000">Divergent CRAL/TRIO domain</text></svg>
