<?xml version='1.0'?>
<svg xmlns="http://www.w3.org/2000/svg" xmlns:xlink="http://www.w3.org/1999/xlink" width="430.000000" height="171.200000">
<defs>
  <filter id="ds" x="0" y="0">
    <feOffset in="SourceAlpha" dx="2" dy="2" />
    <feComponentTransfer><feFuncA type="linear" slope="0.2"/></feComponentTransfer>
    <feGaussianBlur result="blurOut" stdDeviation="1" />
    <feBlend in="SourceGraphic" in2="blurOut" mode="normal" />
  </filter>
  <pattern id="disordered-hatch" patternUnits="userSpaceOnUse" width="4" height="4">
    <path d="M-1,1 l2,-2 M0,4 l4,-4 M3,5 l2,-2" stroke="#000000" opacity="0.3" />
  </pattern>
</defs>
<line x1="21.734007" x2="21.734007" y1="59.000000" y2="87.000000" stroke="#BABDB6" stroke-width="2"/><a xlink:title="C10Y"><circle cx="21.734007" cy="59.000000" r="4.000000" fill="#ff0000" /></a><g transform="translate(21.734007,59.000000) rotate(-30)"><text style="font-size:10px;font-family:OpenSans;fill:#555;" text-anchor="middle" x="0" y="-6.000000">C10Y</text></g><line x1="36.548822" x2="36.548822" y1="59.000000" y2="87.000000" stroke="#BABDB6" stroke-width="2"/><a xlink:title="G32V"><circle cx="36.548822" cy="59.000000" r="4.000000" fill="#ff0000" /></a><g transform="translate(36.548822,59.000000) rotate(-30)"><text style="font-size:10px;font-family:OpenSans;fill:#555;" text-anchor="middle" x="0" y="-6.000000">G32V</text></g><line x1="43.282828" x2="43.282828" y1="59.000000" y2="87.000000" stroke="#BABDB6" stroke-width="2"/><a xlink:title="G42V"><circle cx="43.282828" cy="59.000000" r="4.000000" fill="#ff0000" /></a><g transform="translate(43.282828,59.000000) rotate(-30)"><text style="font-size:10px;font-family:OpenSans;fill:#555;" text-anchor="middle" x="0" y="-6.000000">G42V</text></g><line x1="54.057239" x2="54.057239" y1="34.000000" y2="87.000000" stroke="#BABDB6" stroke-width="2"/><a xlink:title="E58E"><circle cx="54.057239" cy="34.000000" r="4.000000" fill="#0000ff" /></a><g transform="translate(54.057239,34.000000) rotate(-30)"><text style="font-size:10px;font-family:OpenSans;fill:#555;" text-anchor="middle" x="0" y="-6.000000">E58E</text></g><line x1="56.750842" x2="56.750842" y1="34.000000" y2="87.000000" stroke="#BABDB6" stroke-width="2"/><a xlink:title="V62I"><circle cx="56.750842" cy="34.000000" r="4.000000" fill="#ff0000" /></a><g transform="translate(56.750842,34.000000) rotate(-30)"><text style="font-size:10px;font-family:OpenSans;fill:#555;" text-anchor="middle" x="0" y="-6.000000">V62I</text></g><line x1="59.444444" x2="59.444444" y1="46.500000" y2="87.000000" stroke="#BABDB6" stroke-width="2"/><a xlink:title="V66L"><circle cx="59.444444" cy="46.500000" r="4.000000" fill="#ff0000" /></a><g transform="translate(59.444444,46.500000) rotate(-30)"><text style="font-size:10px;font-family:OpenSans;fill:#555;" text-anchor="middle" x="0" y="-6.000000">V66L</text></g><line x1="60.791246" x2="60.791246" y1="59.000000" y2="87.000000" stroke="#BABDB6" stroke-width="2"/><a xlink:title="E68E"><circle cx="60.791246" cy="59.000000" r="4.000000" fill="#0000ff" /></a><g transform="translate(60.791246,59.000000) rotate(-30)"><text style="font-size:10px;font-family:OpenSans;fill:#555;" text-anchor="middle" x="0" y="-6.000000">E68E</text></g><line x1="102.542088" x2="102.542088" y1="46.500000" y2="87.000000" stroke="#BABDB6" stroke-width="2"/><a xlink:title="V130I"><circle cx="102.542088" cy="46.500000" r="4.000000" fill="#ff0000" /></a><g transform="translate(102.542088,46.500000) rotate(-30)"><text style="font-size:10px;font-family:OpenSans;fill:#555;" text-anchor="middle" x="0" y="-6.000000">V130I</text></g><line x1="103.215488" x2="103.215488" y1="59.000000" y2="87.000000" stroke="#BABDB6" stroke-width="2"/><a xlink:title="V131I"><circle cx="103.215488" cy="59.000000" r="4.000000" fill="#ff0000" /></a><g transform="translate(103.215488,59.000000) rotate(-30)"><text style="font-size:10px;font-family:OpenSans;fill:#555;" text-anchor="middle" x="0" y="-6.000000">V131I</text></g><line x1="109.276094" x2="109.276094" y1="59.000000" y2="87.000000" stroke="#BABDB6" stroke-width="2"/><a xlink:title="V140I"><circle cx="109.276094" cy="59.000000" r="4.000000" fill="#ff0000" /></a><g transform="translate(109.276094,59.000000) rotate(-30)"><text style="font-size:10px;font-family:OpenSans;fill:#555;" text-anchor="middle" x="0" y="-6.000000">V140I</text></g><line x1="124.090909" x2="124.090909" y1="59.000000" y2="87.000000" stroke="#BABDB6" stroke-width="2"/><a xlink:title="V162L"><circle cx="124.090909" cy="59.000000" r="4.000000" fill="#ff0000" /></a><g transform="translate(124.090909,59.000000) rotate(-30)"><text style="font-size:10px;font-family:OpenSans;fill:#555;" text-anchor="middle" x="0" y="-6.000000">V162L</text></g><line x1="159.781145" x2="159.781145" y1="59.000000" y2="87.000000" stroke="#BABDB6" stroke-width="2"/><a xlink:title="V215L"><circle cx="159.781145" cy="59.000000" r="4.000000" fill="#ff0000" /></a><g transform="translate(159.781145,59.000000) rotate(-30)"><text style="font-size:10px;font-family:OpenSans;fill:#555;" text-anchor="middle" x="0" y="-6.000000">V215L</text></g><line x1="169.882155" x2="169.882155" y1="59.000000" y2="87.000000" stroke="#BABDB6" stroke-width="2"/><a xlink:title="V230L"><circle cx="169.882155" cy="59.000000" r="4.000000" fill="#ff0000" /></a><g transform="translate(169.882155,59.000000) rotate(-30)"><text style="font-size:10px;font-family:OpenSans;fill:#555;" text-anchor="middle" x="0" y="-6.000000">V230L</text></g><line x1="176.616162" x2="176.616162" y1="59.000000" y2="87.000000" stroke="#BABDB6" stroke-width="2"/><a xlink:title="V240L"><circle cx="176.616162" cy="59.000000" r="4.000000" fill="#ff0000" /></a><g transform="translate(176.616162,59.000000) rotate(-30)"><text style="font-size:10px;font-family:OpenSans;fill:#555;" text-anchor="middle" x="0" y="-6.000000">V240L</text></g><line x1="205.572391" x2="205.572391" y1="46.500000" y2="87.000000" stroke="#BABDB6" stroke-width="2"/><a xlink:title="V283L"><circle cx="205.572391" cy="46.500000" r="4.000000" fill="#ff0000" /></a><g transform="translate(205.572391,46.500000) rotate(-30)"><text style="font-size:10px;font-family:OpenSans;fill:#555;" text-anchor="middle" x="0" y="-6.000000">V283L</text></g><line x1="206.245791" x2="206.245791" y1="59.000000" y2="87.000000" stroke="#BABDB6" stroke-width="2"/><a xlink:title="V284L"><circle cx="206.245791" cy="59.000000" r="4.000000" fill="#ff0000" /></a><g transform="translate(206.245791,59.000000) rotate(-30)"><text style="font-size:10px;font-family:OpenSans;fill:#555;" text-anchor="middle" x="0" y="-6.000000">V284L</text></g><line x1="212.306397" x2="212.306397" y1="59.000000" y2="87.000000" stroke="#BABDB6" stroke-width="2"/><a xlink:title="V293L"><circle cx="212.306397" cy="59.000000" r="4.000000" fill="#ff0000" /></a><g transform="translate(212.306397,59.000000) rotate(-30)"><text style="font-size:10px;font-family:OpenSans;fill:#555;" text-anchor="middle" x="0" y="-6.000000">V293L</text></g><line x1="287.727273" x2="287.727273" y1="59.000000" y2="87.000000" stroke="#BABDB6" stroke-width="2"/><a xlink:title="P405P"><circle cx="287.727273" cy="59.000000" r="4.000000" fill="#0000ff" /></a><g transform="translate(287.727273,59.000000) rotate(-30)"><text style="font-size:10px;font-family:OpenSans;fill:#555;" text-anchor="middle" x="0" y="-6.000000">P405P</text></g><line x1="352.373737" x2="352.373737" y1="59.000000" y2="87.000000" stroke="#BABDB6" stroke-width="2"/><a xlink:title="P501P"><circle cx="352.373737" cy="59.000000" r="4.000000" fill="#0000ff" /></a><g transform="translate(352.373737,59.000000) rotate(-30)"><text style="font-size:10px;font-family:OpenSans;fill:#555;" text-anchor="middle" x="0" y="-6.000000">P501P</text></g><line x1="388.063973" x2="388.063973" y1="59.000000" y2="87.000000" stroke="#BABDB6" stroke-width="2"/><a xlink:title="P554P"><circle cx="388.063973" cy="59.000000" r="4.000000" fill="#0000ff" /></a><g transform="translate(388.063973,59.000000) rotate(-30)"><text style="font-size:10px;font-family:OpenSans;fill:#555;" text-anchor="middle" x="0" y="-6.000000">P554P</text></g><line x1="398.164983" x2="398.164983" y1="59.000000" y2="87.000000" stroke="#BABDB6" stroke-width="2"/><a xlink:title="P569P"><circle cx="398.164983" cy="59.000000" r="4.000000" fill="#0000ff" /></a><g transform="translate(398.164983,59.000000) rotate(-30)"><text style="font-size:10px;font-family:OpenSans;fill:#555;" text-anchor="middle" x="0" y="-6.000000">P569P</text></g><line x1="404.898990" x2="404.898990" y1="59.000000" y2="87.000000" stroke="#BABDB6" stroke-width="2"/><a xlink:title="P579P"><circle cx="404.898990" cy="59.000000" r="4.000000" fill="#0000ff" /></a><g transform="translate(404.898990,59.000000) rotate(-30)"><text style="font-size:10px;font-family:OpenSans;fill:#555;" text-anchor="middle" x="0" y="-6.000000">P579P</text></g><line x1="433.855219" x2="433.855219" y1="46.500000" y2="87.000000" stroke="#BABDB6" stroke-width="2"/><a xlink:title="P622P"><circle cx="433.855219" cy="46.500000" r="4.000000" fill="#0000ff" /></a><g transform="translate(433.855219,46.500000) rotate(-30)"><text style="font-size:10px;font-family:OpenSans;fill:#555;" text-anchor="middle" x="0" y="-6.000000">P622P</text></g><line x1="434.528620" x2="434.528620" y1="59.000000" y2="87.000000" stroke="#BABDB6" stroke-width="2"/><a xlink:title="P623P"><circle cx="434.528620" cy="59.000000" r="4.000000" fill="#0000ff" /></a><g transform="translate(434.528620,59.000000) rotate(-30)"><text style="font-size:10px;font-family:OpenSans;fill:#555;" text-anchor="middle" x="0" y="-6.000000">P623P</text></g><line x1="440.589226" x2="440.589226" y1="59.000000" y2="87.000000" stroke="#BABDB6" stroke-width="2"/><a xlink:title="P632P"><circle cx="440.589226" cy="59.000000" r="4.000000" fill="#0000ff" /></a><g transform="translate(440.589226,59.000000) rotate(-30)"><text style="font-size:10px;font-family:OpenSans;fill:#555;" text-anchor="middle" x="0" y="-6.000000">P632P</text></g><a xlink:title=",  (594aa)"><rect fill="#BABDB6" x="15.000000" y="87.000000" width="400.000000" height="14.000000"/></a><g transform="translate(54.057239,82.000000)"><a xlink:href="https://www.ebi.ac.uk/interpro/entry/pfam/PF01388" xlink:title="ARID/BRIGHT DNA binding domain"><rect fill="#2DCF00" x="0" y="0" width="56.565657" height="24.000000" filter="url(#ds)"/><text style="font-size:12px;font-family:OpenSans;fill:#ffffff;" text-anchor="middle" x="28.282828" y="16.000000">ARID</text></a></g>
<g class="axis">
<line x1="15.000000" x2="415.000000" y1="116.000000" y2="116.000000" stroke="#AAAAAA" /><line x1="15.000000" x2="15.000000" y1="116.000000" y2="121.000000" stroke="#AAAAAA" /><line x1="21.734007" x2="21.734007" y1="116.000000" y2="121.000000" stroke="#AAAAAA" /><text style="font-size:10px;font-family:OpenSans;fill:#000000;" text-anchor="middle" x="21.734007" y="131.000000">10</text><line x1="43.282828" x2="43.282828" y1="116.000000" y2="121.000000" stroke="#AAAAAA" /><text style="font-size:10px;font-family:OpenSans;fill:#000000;" text-anchor="middle" x="43.282828" y="131.000000">42</text><line x1="102.542088" x2="102.542088" y1="116.000000" y2="121.000000" stroke="#AAAAAA" /><text style="font-size:10px;font-family:OpenSans;fill:#000000;" text-anchor="middle" x="102.542088" y="131.000000">130</text><line x1="124.090909" x2="124.090909" y1="116.000000" y2="121.000000" stroke="#AAAAAA" /><text style="font-size:10px;font-family:OpenSans;fill:#000000;" text-anchor="middle" x="124.090909" y="131.000000">162</text><line x1="159.781145" x2="159.781145" y1="116.000000" y2="121.000000" stroke="#AAAAAA" /><text style="font-size:10px;font-family:OpenSans;fill:#000000;" text-anchor="middle" x="159.781145" y="131.000000">215</text><line x1="205.572391" x2="205.572391" y1="116.000000" y2="121.000000" stroke="#AAAAAA" /><text style="font-size:10px;font-family:OpenSans;fill:#000000;" text-anchor="middle" x="205.572391" y="131.000000">283</text><line x1="287.727273" x2="287.727273" y1="116.000000" y2="121.000000" stroke="#AAAAAA" /><text style="font-size:10px;font-family:OpenSans;fill:#000000;" text-anchor="middle" x="287.727273" y="131.000000">405</text><line x1="352.373737" x2="352.373737" y1="116.000000" y2="121.000000" stroke="#AAAAAA" /><text style="font-size:10px;font-family:OpenSans;fill:#000000;" text-anchor="middle" x="352.373737" y="131.000000">501</text><line x1="388.063973" x2="388.063973" y1="116.000000" y2="121.000000" stroke="#AAAAAA" /><text style="font-size:10px;font-family:OpenSans;fill:#000000;" text-anchor="middle" x="388.063973" y="131.000000">554</text><line x1="415.000000" x2="415.000000" y1="116.000000" y2="121.000000" stroke="#AAAAAA" /><text style="font-size:10px;font-family:OpenSans;fill:#000000;" text-anchor="middle" x="415.000000" y="131.000000">594</text><line x1="434.528620" x2="434.528620" y1="116.000000" y2="121.000000" stroke="#AAAAAA" /><text style="font-size:10px;font-family:OpenSans;fill:#000000;" text-anchor="middle" x="434.528620" y="131.000000">623</text></g>
<rect fill="#2DCF00" x="4" y="145.000000" width="12" height="12" filter="url(#ds)"/><text style="font-size:12px;font-family:OpenSans;fill:#000000;" text-anchor="start" x="20" y="157.000000">ARID/BRIGHT DNA binding domain</text></svg>
