<?xml version='1.0'?>
<svg xmlns="http://www.w3.org/2000/svg" xmlns:xlink="http://www.w3.org/1999/xlink" width="1088.857143" height="171.900000">
<defs>
  <filter id="ds" x="0" y="0">
    <feOffset in="SourceAlpha" dx="2" dy="2" />
    <feComponentTransfer><feFuncA type="linear" slope="0.2"/></feComponentTransfer>
    <feGaussianBlur result="blurOut" stdDeviation="1" />
    <feBlend in="SourceGraphic" in2="blurOut" mode="normal" />
  </filter>
  <pattern id="disordered-hatch" patternUnits="userSpaceOnUse" width="4" height="4">
    <path d="M-1,1 l2,-2 M0,4 l4,-4 M3,5 l2,-2" stroke="#000000" opacity="0.3" />
  </pattern>
</defs>
<line x1="33.214286" x2="33.214286" y1="46.500000" y2="74.500000" stroke="#BABDB6" stroke-width="2"/><a xlink:title="D15N"><circle cx="33.214286" cy="46.500000" r="4.000000" fill="#ff0000" /></a><g transform="translate(33.214286,46.500000) rotate(-30)"><text style="font-size:10px;font-family:OpenSans;fill:#555;" text-anchor="middle" x="0" y="-6.000000">D15N</text></g><line x1="119.428571" x2="119.428571" y1="46.500000" y2="74.500000" stroke="#BABDB6" stroke-width="2"/><a xlink:title="D86D"><circle cx="119.428571" cy="46.500000" r="4.000000" fill="#0000ff" /></a><g transform="translate(119.428571,46.500000) rotate(-30)"><text style="font-size:10px;font-family:OpenSans;fill:#555;" text-anchor="middle" x="0" y="-6.000000">D86D</text></g><line x1="160.714286" x2="160.714286" y1="46.500000" y2="74.500000" stroke="#BABDB6" stroke-width="2"/><a xlink:title="L120Q"><circle cx="160.714286" cy="46.500000" r="4.000000" fill="#ff0000" /></a><g transform="translate(160.714286,46.500000) rotate(-30)"><text style="font-size:10px;font-family:OpenSans;fill:#555;" text-anchor="middle" x="0" y="-6.000000">L120Q</text></g><line x1="228.714286" x2="228.714286" y1="46.500000" y2="74.500000" stroke="#BABDB6" stroke-width="2"/><a xlink:title="D176N"><circle cx="228.714286" cy="46.500000" r="4.000000" fill="#ff0000" /></a><g transform="translate(228.714286,46.500000) rotate(-30)"><text style="font-size:10px;font-family:OpenSans;fill:#555;" text-anchor="middle" x="0" y="-6.000000">D176N</text></g><line x1="260.285714" x2="260.285714" y1="46.500000" y2="74.500000" stroke="#BABDB6" stroke-width="2"/><a xlink:title="R202Q"><circle cx="260.285714" cy="46.500000" r="4.000000" fill="#ff0000" /></a><g transform="translate(260.285714,46.500000) rotate(-30)"><text style="font-size:10px;font-family:OpenSans;fill:#555;" text-anchor="middle" x="0" y="-6.000000">R202Q</text></g><line x1="279.714286" x2="279.714286" y1="46.500000" y2="74.500000" stroke="#BABDB6" stroke-width="2"/><a xlink:title="N218N"><circle cx="279.714286" cy="46.500000" r="4.000000" fill="#0000ff" /></a><g transform="translate(279.714286,46.500000) rotate(-30)"><text style="font-size:10px;font-family:OpenSans;fill:#555;" text-anchor="middle" x="0" y="-6.000000">N218N</text></g><line x1="314.928571" x2="314.928571" y1="46.500000" y2="74.500000" stroke="#BABDB6" stroke-width="2"/><a xlink:title="D247D"><circle cx="314.928571" cy="46.500000" r="4.000000" fill="#0000ff" /></a><g transform="translate(314.928571,46.500000) rotate(-30)"><text style="font-size:10px;font-family:OpenSans;fill:#555;" text-anchor="middle" x="0" y="-6.000000">D247D</text></g><line x1="373.214286" x2="373.214286" y1="46.500000" y2="74.500000" stroke="#BABDB6" stroke-width="2"/><a xlink:title="L295Q"><circle cx="373.214286" cy="46.500000" r="4.000000" fill="#ff0000" /></a><g transform="translate(373.214286,46.500000) rotate(-30)"><text style="font-size:10px;font-family:OpenSans;fill:#555;" text-anchor="middle" x="0" y="-6.000000">L295Q</text></g><line x1="401.142857" x2="401.142857" y1="46.500000" y2="74.500000" stroke="#BABDB6" stroke-width="2"/><a xlink:title="L318Q"><circle cx="401.142857" cy="46.500000" r="4.000000" fill="#ff0000" /></a><g transform="translate(401.142857,46.500000) rotate(-30)"><text style="font-size:10px;font-family:OpenSans;fill:#555;" text-anchor="middle" x="0" y="-6.000000">L318Q</text></g><line x1="441.214286" x2="441.214286" y1="46.500000" y2="74.500000" stroke="#BABDB6" stroke-width="2"/><a xlink:title="D351N"><circle cx="441.214286" cy="46.500000" r="4.000000" fill="#ff0000" /></a><g transform="translate(441.214286,46.500000) rotate(-30)"><text style="font-size:10px;font-family:OpenSans;fill:#555;" text-anchor="middle" x="0" y="-6.000000">D351N</text></g><line x1="455.785714" x2="455.785714" y1="46.500000" y2="74.500000" stroke="#BABDB6" stroke-width="2"/><a xlink:title="R363Q"><circle cx="455.785714" cy="46.500000" r="4.000000" fill="#ff0000" /></a><g transform="translate(455.785714,46.500000) rotate(-30)"><text style="font-size:10px;font-family:OpenSans;fill:#555;" text-anchor="middle" x="0" y="-6.000000">R363Q</text></g><line x1="469.142857" x2="469.142857" y1="46.500000" y2="74.500000" stroke="#BABDB6" stroke-width="2"/><a xlink:title="D374N"><circle cx="469.142857" cy="46.500000" r="4.000000" fill="#ff0000" /></a><g transform="translate(469.142857,46.500000) rotate(-30)"><text style="font-size:10px;font-family:OpenSans;fill:#555;" text-anchor="middle" x="0" y="-6.000000">D374N</text></g><line x1="475.214286" x2="475.214286" y1="34.000000" y2="74.500000" stroke="#BABDB6" stroke-width="2"/><a xlink:title="N379N"><circle cx="475.214286" cy="34.000000" r="4.000000" fill="#0000ff" /></a><g transform="translate(475.214286,34.000000) rotate(-30)"><text style="font-size:10px;font-family:OpenSans;fill:#555;" text-anchor="middle" x="0" y="-6.000000">N379N</text></g><line x1="480.071429" x2="480.071429" y1="46.500000" y2="74.500000" stroke="#BABDB6" stroke-width="2"/><a xlink:title="L383Q"><circle cx="480.071429" cy="46.500000" r="4.000000" fill="#ff0000" /></a><g transform="translate(480.071429,46.500000) rotate(-30)"><text style="font-size:10px;font-family:OpenSans;fill:#555;" text-anchor="middle" x="0" y="-6.000000">L383Q</text></g><line x1="527.428571" x2="527.428571" y1="46.500000" y2="74.500000" stroke="#BABDB6" stroke-width="2"/><a xlink:title="D422D"><circle cx="527.428571" cy="46.500000" r="4.000000" fill="#0000ff" /></a><g transform="translate(527.428571,46.500000) rotate(-30)"><text style="font-size:10px;font-family:OpenSans;fill:#555;" text-anchor="middle" x="0" y="-6.000000">D422D</text></g><line x1="548.071429" x2="548.071429" y1="46.500000" y2="74.500000" stroke="#BABDB6" stroke-width="2"/><a xlink:title="D439N"><circle cx="548.071429" cy="46.500000" r="4.000000" fill="#ff0000" /></a><g transform="translate(548.071429,46.500000) rotate(-30)"><text style="font-size:10px;font-family:OpenSans;fill:#555;" text-anchor="middle" x="0" y="-6.000000">D439N</text></g><line x1="555.357143" x2="555.357143" y1="46.500000" y2="74.500000" stroke="#BABDB6" stroke-width="2"/><a xlink:title="D445D"><circle cx="555.357143" cy="46.500000" r="4.000000" fill="#0000ff" /></a><g transform="translate(555.357143,46.500000) rotate(-30)"><text style="font-size:10px;font-family:OpenSans;fill:#555;" text-anchor="middle" x="0" y="-6.000000">D445D</text></g><line x1="634.285714" x2="634.285714" y1="46.500000" y2="74.500000" stroke="#BABDB6" stroke-width="2"/><a xlink:title="D510D"><circle cx="634.285714" cy="46.500000" r="4.000000" fill="#0000ff" /></a><g transform="translate(634.285714,46.500000) rotate(-30)"><text style="font-size:10px;font-family:OpenSans;fill:#555;" text-anchor="middle" x="0" y="-6.000000">D510D</text></g><line x1="668.285714" x2="668.285714" y1="46.500000" y2="74.500000" stroke="#BABDB6" stroke-width="2"/><a xlink:title="R538Q"><circle cx="668.285714" cy="46.500000" r="4.000000" fill="#ff0000" /></a><g transform="translate(668.285714,46.500000) rotate(-30)"><text style="font-size:10px;font-family:OpenSans;fill:#555;" text-anchor="middle" x="0" y="-6.000000">R538Q</text></g><line x1="687.714286" x2="687.714286" y1="46.500000" y2="74.500000" stroke="#BABDB6" stroke-width="2"/><a xlink:title="N554N"><circle cx="687.714286" cy="46.500000" r="4.000000" fill="#0000ff" /></a><g transform="translate(687.714286,46.500000) rotate(-30)"><text style="font-size:10px;font-family:OpenSans;fill:#555;" text-anchor="middle" x="0" y="-6.000000">N554N</text></g><line x1="696.214286" x2="696.214286" y1="46.500000" y2="74.500000" stroke="#BABDB6" stroke-width="2"/><a xlink:title="R561Q"><circle cx="696.214286" cy="46.500000" r="4.000000" fill="#ff0000" /></a><g transform="translate(696.214286,46.500000) rotate(-30)"><text style="font-size:10px;font-family:OpenSans;fill:#555;" text-anchor="middle" x="0" y="-6.000000">R561Q</text></g><line x1="715.642857" x2="715.642857" y1="46.500000" y2="74.500000" stroke="#BABDB6" stroke-width="2"/><a xlink:title="N577N"><circle cx="715.642857" cy="46.500000" r="4.000000" fill="#0000ff" /></a><g transform="translate(715.642857,46.500000) rotate(-30)"><text style="font-size:10px;font-family:OpenSans;fill:#555;" text-anchor="middle" x="0" y="-6.000000">N577N</text></g><line x1="775.142857" x2="775.142857" y1="46.500000" y2="74.500000" stroke="#BABDB6" stroke-width="2"/><a xlink:title="R626Q"><circle cx="775.142857" cy="46.500000" r="4.000000" fill="#ff0000" /></a><g transform="translate(775.142857,46.500000) rotate(-30)"><text style="font-size:10px;font-family:OpenSans;fill:#555;" text-anchor="middle" x="0" y="-6.000000">R626Q</text></g><line x1="794.571429" x2="794.571429" y1="46.500000" y2="74.500000" stroke="#BABDB6" stroke-width="2"/><a xlink:title="N642N"><circle cx="794.571429" cy="46.500000" r="4.000000" fill="#0000ff" /></a><g transform="translate(794.571429,46.500000) rotate(-30)"><text style="font-size:10px;font-family:OpenSans;fill:#555;" text-anchor="middle" x="0" y="-6.000000">N642N</text></g><a xlink:title=",  (872aa)"><rect fill="#BABDB6" x="15.000000" y="74.500000" width="1058.857143" height="14.000000"/></a><g transform="translate(189.857143,69.500000)"><a xlink:href="https://www.ebi.ac.uk/interpro/entry/pfam/PF00514" xlink:title="Armadillo/beta-catenin-like repeat"><rect fill="#2DCF00" x="0" y="0" width="40.071429" height="24.000000" filter="url(#ds)"/><text style="font-size:12px;font-family:OpenSans;fill:#ffffff;" text-anchor="middle" x="20.035714" y="16.000000">Arm</text></a></g>
<g transform="translate(447.285714,69.500000)"><a xlink:href="https://www.ebi.ac.uk/interpro/entry/pfam/PF00514" xlink:title="Armadillo/beta-catenin-like repeat"><rect fill="#FF5353" x="0" y="0" width="34.000000" height="24.000000" filter="url(#ds)"/><text style="font-size:12px;font-family:OpenSans;fill:#ffffff;" text-anchor="middle" x="17.000000" y="16.000000">Arm</text></a></g>
<g transform="translate(484.928571,69.500000)"><a xlink:href="https://www.ebi.ac.uk/interpro/entry/pfam/PF00514" xlink:title="Armadillo/beta-catenin-like repeat"><rect fill="#5B5BFF" x="0" y="0" width="47.357143" height="24.000000" filter="url(#ds)"/><text style="font-size:12px;font-family:OpenSans;fill:#ffffff;" text-anchor="middle" x="23.678571" y="16.000000">Arm</text></a></g>
<g transform="translate(586.928571,69.500000)"><a xlink:href="https://www.ebi.ac.uk/interpro/entry/pfam/PF00514" xlink:title="Armadillo/beta-catenin-like repeat"><rect fill="#EBD61D" x="0" y="0" width="40.071429" height="24.000000" filter="url(#ds)"/><text style="font-size:12px;font-family:OpenSans;fill:#ffffff;" text-anchor="middle" x="20.035714" y="16.000000">Arm</text></a></g>
<g transform="translate(889.285714,69.500000)"><a xlink:href="https://www.ebi.ac.uk/interpro/entry/pfam/PF14381" xlink:title="Ethylene-responsive protein kinase Le-CTR1"><rect fill="#BA21E0" x="0" y="0" width="167.571429" height="24.000000" filter="url(#ds)"/><text style="font-size:12px;font-family:OpenSans;fill:#ffffff;" text-anchor="middle" x="83.785714" y="16.000000">EDR1</text></a></g>
<g class="axis">
<line x1="15.000000" x2="1073.857143" y1="103.500000" y2="103.500000" stroke="#AAAAAA" /><line x1="15.000000" x2="15.000000" y1="103.500000" y2="108.500000" stroke="#AAAAAA" /><line x1="33.214286" x2="33.214286" y1="103.500000" y2="108.500000" stroke="#AAAAAA" /><text style="font-size:10px;font-family:OpenSans;fill:#000000;" text-anchor="middle" x="33.214286" y="118.500000">15</text><line x1="119.428571" x2="119.428571" y1="103.500000" y2="108.500000" stroke="#AAAAAA" /><text style="font-size:10px;font-family:OpenSans;fill:#000000;" text-anchor="middle" x="119.428571" y="118.500000">86</text><line x1="160.714286" x2="160.714286" y1="103.500000" y2="108.500000" stroke="#AAAAAA" /><text style="font-size:10px;font-family:OpenSans;fill:#000000;" text-anchor="middle" x="160.714286" y="118.500000">120</text><line x1="189.857143" x2="189.857143" y1="103.500000" y2="108.500000" stroke="#AAAAAA" /><text style="font-size:10px;font-family:OpenSans;fill:#000000;" text-anchor="middle" x="189.857143" y="118.500000">144</text><line x1="228.714286" x2="228.714286" y1="103.500000" y2="108.500000" stroke="#AAAAAA" /><text style="font-size:10px;font-family:OpenSans;fill:#000000;" text-anchor="middle" x="228.714286" y="118.500000">176</text><line x1="260.285714" x2="260.285714" y1="103.500000" y2="108.500000" stroke="#AAAAAA" /><text style="font-size:10px;font-family:OpenSans;fill:#000000;" text-anchor="middle" x="260.285714" y="118.500000">202</text><line x1="279.714286" x2="279.714286" y1="103.500000" y2="108.500000" stroke="#AAAAAA" /><text style="font-size:10px;font-family:OpenSans;fill:#000000;" text-anchor="middle" x="279.714286" y="118.500000">218</text><line x1="314.928571" x2="314.928571" y1="103.500000" y2="108.500000" stroke="#AAAAAA" /><text style="font-size:10px;font-family:OpenSans;fill:#000000;" text-anchor="middle" x="314.928571" y="118.500000">247</text><line x1="373.214286" x2="373.214286" y1="103.500000" y2="108.500000" stroke="#AAAAAA" /><text style="font-size:10px;font-family:OpenSans;fill:#000000;" text-anchor="middle" x="373.214286" y="118.500000">295</text><line x1="401.142857" x2="401.142857" y1="103.500000" y2="108.500000" stroke="#AAAAAA" /><text style="font-size:10px;font-family:OpenSans;fill:#000000;" text-anchor="middle" x="401.142857" y="118.500000">318</text><line x1="441.214286" x2="441.214286" y1="103.500000" y2="108.500000" stroke="#AAAAAA" /><text style="font-size:10px;font-family:OpenSans;fill:#000000;" text-anchor="middle" x="441.214286" y="118.500000">351</text><line x1="469.142857" x2="469.142857" y1="103.500000" y2="108.500000" stroke="#AAAAAA" /><text style="font-size:10px;font-family:OpenSans;fill:#000000;" text-anchor="middle" x="469.142857" y="118.500000">374</text><line x1="527.428571" x2="527.428571" y1="103.500000" y2="108.500000" stroke="#AAAAAA" /><text style="font-size:10px;font-family:OpenSans;fill:#000000;" text-anchor="middle" x="527.428571" y="118.500000">422</text><line x1="548.071429" x2="548.071429" y1="103.500000" y2="108.500000" stroke="#AAAAAA" /><text style="font-size:10px;font-family:OpenSans;fill:#000000;" text-anchor="middle" x="548.071429" y="118.500000">439</text><line x1="586.928571" x2="586.928571" y1="103.500000" y2="108.500000" stroke="#AAAAAA" /><text style="font-size:10px;font-family:OpenSans;fill:#000000;" text-anchor="middle" x="586.928571" y="118.500000">471</text><line x1="634.285714" x2="634.285714" y1="103.500000" y2="108.500000" stroke="#AAAAAA" /><text style="font-size:10px;font-family:OpenSans;fill:#000000;" text-anchor="middle" x="634.285714" y="118.500000">510</text><line x1="668.285714" x2="668.285714" y1="103.500000" y2="108.500000" stroke="#AAAAAA" /><text style="font-size:10px;font-family:OpenSans;fill:#000000;" text-anchor="middle" x="668.285714" y="118.500000">538</text><line x1="687.714286" x2="687.714286" y1="103.500000" y2="108.500000" stroke="#AAAAAA" /><text style="font-size:10px;font-family:OpenSans;fill:#000000;" text-anchor="middle" x="687.714286" y="118.500000">554</text><line x1="715.642857" x2="715.642857" y1="103.500000" y2="108.500000" stroke="#AAAAAA" /><text style="font-size:10px;font-family:OpenSans;fill:#000000;" text-anchor="middle" x="715.642857" y="118.500000">577</text><line x1="775.142857" x2="775.142857" y1="103.500000" y2="108.500000" stroke="#AAAAAA" /><text style="font-size:10px;font-family:OpenSans;fill:#000000;" text-anchor="middle" x="775.142857" y="118.500000">626</text><line x1="794.571429" x2="794.571429" y1="103.500000" y2="108.500000" stroke="#AAAAAA" /><text style="font-size:10px;font-family:OpenSans;fill:#000000;" text-anchor="middle" x="794.571429" y="118.500000">642</text><line x1="889.285714" x2="889.285714" y1="103.500000" y2="108.500000" stroke="#AAAAAA" /><text style="font-size:10px;font-family:OpenSans;fill:#000000;" text-anchor="middle" x="889.285714" y="118.500000">720</text><line x1="1073.857143" x2="1073.857143" y1="103.500000" y2="108.500000" stroke="#AAAAAA" /><text style="font-size:10px;font-family:OpenSans;fill:#000000;" text-anchor="middle" x="1073.857143" y="118.500000">872</text></g>
<rect fill="#BA21E0" x="4" y="132.500000" width="12" height="12" filter="url(#ds)"/><text style="font-size:12px;font-family:OpenSans;fill:#000000;" text-anchor="start" x="20" y="144.500000">Ethylene-responsive protein kinase Le-CTR1</text><rect fill="#EBD61D" x="4" y="146.500000" width="12" height="12" filter="url(#ds)"/><text style="font-size:12px;font-family:OpenSans;fill:#000000;" text-anchor="start" x="20" y="158.500000">Armadillo/beta-catenin-like repeat</text></svg>
