<?xml version='1.0'?>
<svg xmlns="http://www.w3.org/2000/svg" xmlns:xlink="http://www.w3.org/1999/xlink" width="430.000000" height="171.900000">
<defs>
  <filter id="ds" x="0" y="0">
    <feOffset in="SourceAlpha" dx="2" dy="2" />
    <feComponentTransfer><feFuncA type="linear" slope="0.2"/></feComponentTransfer>
    <feGaussianBlur result="blurOut" stdDeviation="1" />
    <feBlend in="SourceGraphic" in2="blurOut" mode="normal" />
  </filter>
  <pattern id="disordered-hatch" patternUnits="userSpaceOnUse" width="4" height="4">
    <path d="M-1,1 l2,-2 M0,4 l4,-4 M3,5 l2,-2" stroke="#000000" opacity="0.3" />
  </pattern>
</defs>
<line x1="17.870813" x2="17.870813" y1="46.500000" y2="74.500000" stroke="#BABDB6" stroke-width="2"/><a xlink:title="G3G"><circle cx="17.870813" cy="46.500000" r="4.000000" fill="#0000ff" /></a><g transform="translate(17.870813,46.500000) rotate(-30)"><text style="font-size:10px;font-family:OpenSans;fill:#555;" text-anchor="middle" x="0" y="-6.000000">G3G</text></g><line x1="38.923445" x2="38.923445" y1="46.500000" y2="74.500000" stroke="#BABDB6" stroke-width="2"/><a xlink:title="E25Q"><circle cx="38.923445" cy="46.500000" r="4.000000" fill="#ff0000" /></a><g transform="translate(38.923445,46.500000) rotate(-30)"><text style="font-size:10px;font-family:OpenSans;fill:#555;" text-anchor="middle" x="0" y="-6.000000">E25Q</text></g><line x1="61.889952" x2="61.889952" y1="46.500000" y2="74.500000" stroke="#BABDB6" stroke-width="2"/><a xlink:title="P49S"><circle cx="61.889952" cy="46.500000" r="4.000000" fill="#ff0000" /></a><g transform="translate(61.889952,46.500000) rotate(-30)"><text style="font-size:10px;font-family:OpenSans;fill:#555;" text-anchor="middle" x="0" y="-6.000000">P49S</text></g><line x1="88.684211" x2="88.684211" y1="34.000000" y2="74.500000" stroke="#BABDB6" stroke-width="2"/><a xlink:title="A77A"><circle cx="88.684211" cy="34.000000" r="4.000000" fill="#0000ff" /></a><g transform="translate(88.684211,34.000000) rotate(-30)"><text style="font-size:10px;font-family:OpenSans;fill:#555;" text-anchor="middle" x="0" y="-6.000000">A77A</text></g><line x1="90.598086" x2="90.598086" y1="46.500000" y2="74.500000" stroke="#BABDB6" stroke-width="2"/><a xlink:title="T79A"><circle cx="90.598086" cy="46.500000" r="4.000000" fill="#ff0000" /></a><g transform="translate(90.598086,46.500000) rotate(-30)"><text style="font-size:10px;font-family:OpenSans;fill:#555;" text-anchor="middle" x="0" y="-6.000000">T79A</text></g><line x1="357.583732" x2="357.583732" y1="46.500000" y2="74.500000" stroke="#BABDB6" stroke-width="2"/><a xlink:title="S358P"><circle cx="357.583732" cy="46.500000" r="4.000000" fill="#ff0000" /></a><g transform="translate(357.583732,46.500000) rotate(-30)"><text style="font-size:10px;font-family:OpenSans;fill:#555;" text-anchor="middle" x="0" y="-6.000000">S358P</text></g><a xlink:title=",  (418aa)"><rect fill="#BABDB6" x="15.000000" y="74.500000" width="400.000000" height="14.000000"/></a><g transform="translate(37.966507,69.500000)"><a xlink:href="https://www.ebi.ac.uk/interpro/entry/pfam/PF00339" xlink:title="Arrestin (or S-antigen), N-terminal domain"><rect fill="#2DCF00" x="0" y="0" width="138.755981" height="24.000000" filter="url(#ds)"/><text style="font-size:12px;font-family:OpenSans;fill:#ffffff;" text-anchor="middle" x="69.377990" y="16.000000">Arrestin_N</text></a></g>
<g transform="translate(198.732057,69.500000)"><a xlink:href="https://www.ebi.ac.uk/interpro/entry/pfam/PF02752" xlink:title="Arrestin (or S-antigen), C-terminal domain"><rect fill="#FF5353" x="0" y="0" width="120.574163" height="24.000000" filter="url(#ds)"/><text style="font-size:12px;font-family:OpenSans;fill:#ffffff;" text-anchor="middle" x="60.287081" y="16.000000">Arrestin_C</text></a></g>
<g class="axis">
<line x1="15.000000" x2="415.000000" y1="103.500000" y2="103.500000" stroke="#AAAAAA" /><line x1="15.000000" x2="15.000000" y1="103.500000" y2="108.500000" stroke="#AAAAAA" /><line x1="17.870813" x2="17.870813" y1="103.500000" y2="108.500000" stroke="#AAAAAA" /><text style="font-size:10px;font-family:OpenSans;fill:#000000;" text-anchor="middle" x="17.870813" y="118.500000">3</text><line x1="38.923445" x2="38.923445" y1="103.500000" y2="108.500000" stroke="#AAAAAA" /><text style="font-size:10px;font-family:OpenSans;fill:#000000;" text-anchor="middle" x="38.923445" y="118.500000">25</text><line x1="61.889952" x2="61.889952" y1="103.500000" y2="108.500000" stroke="#AAAAAA" /><text style="font-size:10px;font-family:OpenSans;fill:#000000;" text-anchor="middle" x="61.889952" y="118.500000">49</text><line x1="88.684211" x2="88.684211" y1="103.500000" y2="108.500000" stroke="#AAAAAA" /><text style="font-size:10px;font-family:OpenSans;fill:#000000;" text-anchor="middle" x="88.684211" y="118.500000">77</text><line x1="176.722488" x2="176.722488" y1="103.500000" y2="108.500000" stroke="#AAAAAA" /><text style="font-size:10px;font-family:OpenSans;fill:#000000;" text-anchor="middle" x="176.722488" y="118.500000">169</text><line x1="198.732057" x2="198.732057" y1="103.500000" y2="108.500000" stroke="#AAAAAA" /><text style="font-size:10px;font-family:OpenSans;fill:#000000;" text-anchor="middle" x="198.732057" y="118.500000">192</text><line x1="319.306220" x2="319.306220" y1="103.500000" y2="108.500000" stroke="#AAAAAA" /><text style="font-size:10px;font-family:OpenSans;fill:#000000;" text-anchor="middle" x="319.306220" y="118.500000">318</text><line x1="357.583732" x2="357.583732" y1="103.500000" y2="108.500000" stroke="#AAAAAA" /><text style="font-size:10px;font-family:OpenSans;fill:#000000;" text-anchor="middle" x="357.583732" y="118.500000">358</text><line x1="415.000000" x2="415.000000" y1="103.500000" y2="108.500000" stroke="#AAAAAA" /><text style="font-size:10px;font-family:OpenSans;fill:#000000;" text-anchor="middle" x="415.000000" y="118.500000">418</text></g>
<rect fill="#2DCF00" x="4" y="132.500000" width="12" height="12" filter="url(#ds)"/><text style="font-size:12px;font-family:OpenSans;fill:#000000;" text-anchor="start" x="20" y="144.500000">Arrestin (or S-antigen), N-terminal domain</text><rect fill="#FF5353" x="4" y="146.500000" width="12" height="12" filter="url(#ds)"/><text style="font-size:12px;font-family:OpenSans;fill:#000000;" text-anchor="start" x="20" y="158.500000">Arrestin (or S-antigen), C-terminal domain</text></svg>
