<?xml version='1.0'?>
<svg xmlns="http://www.w3.org/2000/svg" xmlns:xlink="http://www.w3.org/1999/xlink" width="964.514286" height="171.200000">
<defs>
  <filter id="ds" x="0" y="0">
    <feOffset in="SourceAlpha" dx="2" dy="2" />
    <feComponentTransfer><feFuncA type="linear" slope="0.2"/></feComponentTransfer>
    <feGaussianBlur result="blurOut" stdDeviation="1" />
    <feBlend in="SourceGraphic" in2="blurOut" mode="normal" />
  </filter>
  <pattern id="disordered-hatch" patternUnits="userSpaceOnUse" width="4" height="4">
    <path d="M-1,1 l2,-2 M0,4 l4,-4 M3,5 l2,-2" stroke="#000000" opacity="0.3" />
  </pattern>
</defs>
<line x1="105.342857" x2="105.342857" y1="59.000000" y2="87.000000" stroke="#BABDB6" stroke-width="2"/><a xlink:title="V93A"><circle cx="105.342857" cy="59.000000" r="4.000000" fill="#ff0000" /></a><g transform="translate(105.342857,59.000000) rotate(-30)"><text style="font-size:10px;font-family:OpenSans;fill:#555;" text-anchor="middle" x="0" y="-6.000000">V93A</text></g><line x1="115.057143" x2="115.057143" y1="46.500000" y2="87.000000" stroke="#BABDB6" stroke-width="2"/><a xlink:title="S103S"><circle cx="115.057143" cy="46.500000" r="4.000000" fill="#0000ff" /></a><g transform="translate(115.057143,46.500000) rotate(-30)"><text style="font-size:10px;font-family:OpenSans;fill:#555;" text-anchor="middle" x="0" y="-6.000000">S103S</text></g><line x1="120.885714" x2="120.885714" y1="34.000000" y2="87.000000" stroke="#BABDB6" stroke-width="2"/><a xlink:title="P109P"><circle cx="120.885714" cy="34.000000" r="4.000000" fill="#0000ff" /></a><g transform="translate(120.885714,34.000000) rotate(-30)"><text style="font-size:10px;font-family:OpenSans;fill:#555;" text-anchor="middle" x="0" y="-6.000000">P109P</text></g><line x1="123.800000" x2="123.800000" y1="46.500000" y2="87.000000" stroke="#BABDB6" stroke-width="2"/><a xlink:title="V112A"><circle cx="123.800000" cy="46.500000" r="4.000000" fill="#ff0000" /></a><g transform="translate(123.800000,46.500000) rotate(-30)"><text style="font-size:10px;font-family:OpenSans;fill:#555;" text-anchor="middle" x="0" y="-6.000000">V112A</text></g><line x1="125.742857" x2="125.742857" y1="59.000000" y2="87.000000" stroke="#BABDB6" stroke-width="2"/><a xlink:title="R114Q"><circle cx="125.742857" cy="59.000000" r="4.000000" fill="#ff0000" /></a><g transform="translate(125.742857,59.000000) rotate(-30)"><text style="font-size:10px;font-family:OpenSans;fill:#555;" text-anchor="middle" x="0" y="-6.000000">R114Q</text></g><line x1="133.514286" x2="133.514286" y1="59.000000" y2="87.000000" stroke="#BABDB6" stroke-width="2"/><a xlink:title="S122S"><circle cx="133.514286" cy="59.000000" r="4.000000" fill="#0000ff" /></a><g transform="translate(133.514286,59.000000) rotate(-30)"><text style="font-size:10px;font-family:OpenSans;fill:#555;" text-anchor="middle" x="0" y="-6.000000">S122S</text></g><line x1="144.200000" x2="144.200000" y1="46.500000" y2="87.000000" stroke="#BABDB6" stroke-width="2"/><a xlink:title="R133Q"><circle cx="144.200000" cy="46.500000" r="4.000000" fill="#ff0000" /></a><g transform="translate(144.200000,46.500000) rotate(-30)"><text style="font-size:10px;font-family:OpenSans;fill:#555;" text-anchor="middle" x="0" y="-6.000000">R133Q</text></g><line x1="149.057143" x2="149.057143" y1="59.000000" y2="87.000000" stroke="#BABDB6" stroke-width="2"/><a xlink:title="P138L"><circle cx="149.057143" cy="59.000000" r="4.000000" fill="#ff0000" /></a><g transform="translate(149.057143,59.000000) rotate(-30)"><text style="font-size:10px;font-family:OpenSans;fill:#555;" text-anchor="middle" x="0" y="-6.000000">P138L</text></g><line x1="167.514286" x2="167.514286" y1="59.000000" y2="87.000000" stroke="#BABDB6" stroke-width="2"/><a xlink:title="P157L"><circle cx="167.514286" cy="59.000000" r="4.000000" fill="#ff0000" /></a><g transform="translate(167.514286,59.000000) rotate(-30)"><text style="font-size:10px;font-family:OpenSans;fill:#555;" text-anchor="middle" x="0" y="-6.000000">P157L</text></g><line x1="185.000000" x2="185.000000" y1="59.000000" y2="87.000000" stroke="#BABDB6" stroke-width="2"/><a xlink:title="V175A"><circle cx="185.000000" cy="59.000000" r="4.000000" fill="#ff0000" /></a><g transform="translate(185.000000,59.000000) rotate(-30)"><text style="font-size:10px;font-family:OpenSans;fill:#555;" text-anchor="middle" x="0" y="-6.000000">V175A</text></g><line x1="192.771429" x2="192.771429" y1="46.500000" y2="87.000000" stroke="#BABDB6" stroke-width="2"/><a xlink:title="P183P"><circle cx="192.771429" cy="46.500000" r="4.000000" fill="#0000ff" /></a><g transform="translate(192.771429,46.500000) rotate(-30)"><text style="font-size:10px;font-family:OpenSans;fill:#555;" text-anchor="middle" x="0" y="-6.000000">P183P</text></g><line x1="194.714286" x2="194.714286" y1="59.000000" y2="87.000000" stroke="#BABDB6" stroke-width="2"/><a xlink:title="S185S"><circle cx="194.714286" cy="59.000000" r="4.000000" fill="#0000ff" /></a><g transform="translate(194.714286,59.000000) rotate(-30)"><text style="font-size:10px;font-family:OpenSans;fill:#555;" text-anchor="middle" x="0" y="-6.000000">S185S</text></g><line x1="205.400000" x2="205.400000" y1="59.000000" y2="87.000000" stroke="#BABDB6" stroke-width="2"/><a xlink:title="R196Q"><circle cx="205.400000" cy="59.000000" r="4.000000" fill="#ff0000" /></a><g transform="translate(205.400000,59.000000) rotate(-30)"><text style="font-size:10px;font-family:OpenSans;fill:#555;" text-anchor="middle" x="0" y="-6.000000">R196Q</text></g><line x1="228.714286" x2="228.714286" y1="59.000000" y2="87.000000" stroke="#BABDB6" stroke-width="2"/><a xlink:title="P220L"><circle cx="228.714286" cy="59.000000" r="4.000000" fill="#ff0000" /></a><g transform="translate(228.714286,59.000000) rotate(-30)"><text style="font-size:10px;font-family:OpenSans;fill:#555;" text-anchor="middle" x="0" y="-6.000000">P220L</text></g><line x1="268.542857" x2="268.542857" y1="59.000000" y2="87.000000" stroke="#BABDB6" stroke-width="2"/><a xlink:title="S261S"><circle cx="268.542857" cy="59.000000" r="4.000000" fill="#0000ff" /></a><g transform="translate(268.542857,59.000000) rotate(-30)"><text style="font-size:10px;font-family:OpenSans;fill:#555;" text-anchor="middle" x="0" y="-6.000000">S261S</text></g><line x1="287.000000" x2="287.000000" y1="59.000000" y2="87.000000" stroke="#BABDB6" stroke-width="2"/><a xlink:title="S280S"><circle cx="287.000000" cy="59.000000" r="4.000000" fill="#0000ff" /></a><g transform="translate(287.000000,59.000000) rotate(-30)"><text style="font-size:10px;font-family:OpenSans;fill:#555;" text-anchor="middle" x="0" y="-6.000000">S280S</text></g><line x1="314.200000" x2="314.200000" y1="46.500000" y2="87.000000" stroke="#BABDB6" stroke-width="2"/><a xlink:title="I308I"><circle cx="314.200000" cy="46.500000" r="4.000000" fill="#0000ff" /></a><g transform="translate(314.200000,46.500000) rotate(-30)"><text style="font-size:10px;font-family:OpenSans;fill:#555;" text-anchor="middle" x="0" y="-6.000000">I308I</text></g><line x1="318.085714" x2="318.085714" y1="59.000000" y2="87.000000" stroke="#BABDB6" stroke-width="2"/><a xlink:title="R312R"><circle cx="318.085714" cy="59.000000" r="4.000000" fill="#0000ff" /></a><g transform="translate(318.085714,59.000000) rotate(-30)"><text style="font-size:10px;font-family:OpenSans;fill:#555;" text-anchor="middle" x="0" y="-6.000000">R312R</text></g><line x1="336.542857" x2="336.542857" y1="59.000000" y2="87.000000" stroke="#BABDB6" stroke-width="2"/><a xlink:title="R331R"><circle cx="336.542857" cy="59.000000" r="4.000000" fill="#0000ff" /></a><g transform="translate(336.542857,59.000000) rotate(-30)"><text style="font-size:10px;font-family:OpenSans;fill:#555;" text-anchor="middle" x="0" y="-6.000000">R331R</text></g><line x1="348.200000" x2="348.200000" y1="46.500000" y2="87.000000" stroke="#BABDB6" stroke-width="2"/><a xlink:title="A343V"><circle cx="348.200000" cy="46.500000" r="4.000000" fill="#ff0000" /></a><g transform="translate(348.200000,46.500000) rotate(-30)"><text style="font-size:10px;font-family:OpenSans;fill:#555;" text-anchor="middle" x="0" y="-6.000000">A343V</text></g><line x1="348.200000" x2="348.200000" y1="59.000000" y2="87.000000" stroke="#BABDB6" stroke-width="2"/><a xlink:title="S343S"><circle cx="348.200000" cy="59.000000" r="4.000000" fill="#0000ff" /></a><g transform="translate(348.200000,59.000000) rotate(-30)"><text style="font-size:10px;font-family:OpenSans;fill:#555;" text-anchor="middle" x="0" y="-6.000000">S343S</text></g><line x1="397.742857" x2="397.742857" y1="59.000000" y2="87.000000" stroke="#BABDB6" stroke-width="2"/><a xlink:title="R394R"><circle cx="397.742857" cy="59.000000" r="4.000000" fill="#0000ff" /></a><g transform="translate(397.742857,59.000000) rotate(-30)"><text style="font-size:10px;font-family:OpenSans;fill:#555;" text-anchor="middle" x="0" y="-6.000000">R394R</text></g><line x1="430.771429" x2="430.771429" y1="59.000000" y2="87.000000" stroke="#BABDB6" stroke-width="2"/><a xlink:title="R428Q"><circle cx="430.771429" cy="59.000000" r="4.000000" fill="#ff0000" /></a><g transform="translate(430.771429,59.000000) rotate(-30)"><text style="font-size:10px;font-family:OpenSans;fill:#555;" text-anchor="middle" x="0" y="-6.000000">R428Q</text></g><line x1="505.571429" x2="505.571429" y1="59.000000" y2="87.000000" stroke="#BABDB6" stroke-width="2"/><a xlink:title="P505P"><circle cx="505.571429" cy="59.000000" r="4.000000" fill="#0000ff" /></a><g transform="translate(505.571429,59.000000) rotate(-30)"><text style="font-size:10px;font-family:OpenSans;fill:#555;" text-anchor="middle" x="0" y="-6.000000">P505P</text></g><line x1="524.028571" x2="524.028571" y1="59.000000" y2="87.000000" stroke="#BABDB6" stroke-width="2"/><a xlink:title="P524P"><circle cx="524.028571" cy="59.000000" r="4.000000" fill="#0000ff" /></a><g transform="translate(524.028571,59.000000) rotate(-30)"><text style="font-size:10px;font-family:OpenSans;fill:#555;" text-anchor="middle" x="0" y="-6.000000">P524P</text></g><line x1="577.457143" x2="577.457143" y1="59.000000" y2="87.000000" stroke="#BABDB6" stroke-width="2"/><a xlink:title="P579P"><circle cx="577.457143" cy="59.000000" r="4.000000" fill="#0000ff" /></a><g transform="translate(577.457143,59.000000) rotate(-30)"><text style="font-size:10px;font-family:OpenSans;fill:#555;" text-anchor="middle" x="0" y="-6.000000">P579P</text></g><line x1="585.228571" x2="585.228571" y1="46.500000" y2="87.000000" stroke="#BABDB6" stroke-width="2"/><a xlink:title="P587P"><circle cx="585.228571" cy="46.500000" r="4.000000" fill="#0000ff" /></a><g transform="translate(585.228571,46.500000) rotate(-30)"><text style="font-size:10px;font-family:OpenSans;fill:#555;" text-anchor="middle" x="0" y="-6.000000">P587P</text></g><line x1="590.085714" x2="590.085714" y1="46.500000" y2="87.000000" stroke="#BABDB6" stroke-width="2"/><a xlink:title="P592P"><circle cx="590.085714" cy="46.500000" r="4.000000" fill="#0000ff" /></a><g transform="translate(590.085714,46.500000) rotate(-30)"><text style="font-size:10px;font-family:OpenSans;fill:#555;" text-anchor="middle" x="0" y="-6.000000">P592P</text></g><line x1="595.914286" x2="595.914286" y1="59.000000" y2="87.000000" stroke="#BABDB6" stroke-width="2"/><a xlink:title="P598P"><circle cx="595.914286" cy="59.000000" r="4.000000" fill="#0000ff" /></a><g transform="translate(595.914286,59.000000) rotate(-30)"><text style="font-size:10px;font-family:OpenSans;fill:#555;" text-anchor="middle" x="0" y="-6.000000">P598P</text></g><line x1="636.714286" x2="636.714286" y1="59.000000" y2="87.000000" stroke="#BABDB6" stroke-width="2"/><a xlink:title="P640P"><circle cx="636.714286" cy="59.000000" r="4.000000" fill="#0000ff" /></a><g transform="translate(636.714286,59.000000) rotate(-30)"><text style="font-size:10px;font-family:OpenSans;fill:#555;" text-anchor="middle" x="0" y="-6.000000">P640P</text></g><line x1="646.428571" x2="646.428571" y1="46.500000" y2="87.000000" stroke="#BABDB6" stroke-width="2"/><a xlink:title="P650P"><circle cx="646.428571" cy="46.500000" r="4.000000" fill="#0000ff" /></a><g transform="translate(646.428571,46.500000) rotate(-30)"><text style="font-size:10px;font-family:OpenSans;fill:#555;" text-anchor="middle" x="0" y="-6.000000">P650P</text></g><line x1="651.285714" x2="651.285714" y1="46.500000" y2="87.000000" stroke="#BABDB6" stroke-width="2"/><a xlink:title="P655P"><circle cx="651.285714" cy="46.500000" r="4.000000" fill="#0000ff" /></a><g transform="translate(651.285714,46.500000) rotate(-30)"><text style="font-size:10px;font-family:OpenSans;fill:#555;" text-anchor="middle" x="0" y="-6.000000">P655P</text></g><line x1="657.114286" x2="657.114286" y1="59.000000" y2="87.000000" stroke="#BABDB6" stroke-width="2"/><a xlink:title="P661P"><circle cx="657.114286" cy="59.000000" r="4.000000" fill="#0000ff" /></a><g transform="translate(657.114286,59.000000) rotate(-30)"><text style="font-size:10px;font-family:OpenSans;fill:#555;" text-anchor="middle" x="0" y="-6.000000">P661P</text></g><line x1="698.885714" x2="698.885714" y1="59.000000" y2="87.000000" stroke="#BABDB6" stroke-width="2"/><a xlink:title="I704I"><circle cx="698.885714" cy="59.000000" r="4.000000" fill="#0000ff" /></a><g transform="translate(698.885714,59.000000) rotate(-30)"><text style="font-size:10px;font-family:OpenSans;fill:#555;" text-anchor="middle" x="0" y="-6.000000">I704I</text></g><line x1="711.514286" x2="711.514286" y1="46.500000" y2="87.000000" stroke="#BABDB6" stroke-width="2"/><a xlink:title="I717I"><circle cx="711.514286" cy="46.500000" r="4.000000" fill="#0000ff" /></a><g transform="translate(711.514286,46.500000) rotate(-30)"><text style="font-size:10px;font-family:OpenSans;fill:#555;" text-anchor="middle" x="0" y="-6.000000">I717I</text></g><line x1="717.342857" x2="717.342857" y1="59.000000" y2="87.000000" stroke="#BABDB6" stroke-width="2"/><a xlink:title="I723I"><circle cx="717.342857" cy="59.000000" r="4.000000" fill="#0000ff" /></a><g transform="translate(717.342857,59.000000) rotate(-30)"><text style="font-size:10px;font-family:OpenSans;fill:#555;" text-anchor="middle" x="0" y="-6.000000">I723I</text></g><line x1="732.885714" x2="732.885714" y1="59.000000" y2="87.000000" stroke="#BABDB6" stroke-width="2"/><a xlink:title="A739V"><circle cx="732.885714" cy="59.000000" r="4.000000" fill="#ff0000" /></a><g transform="translate(732.885714,59.000000) rotate(-30)"><text style="font-size:10px;font-family:OpenSans;fill:#555;" text-anchor="middle" x="0" y="-6.000000">A739V</text></g><line x1="745.514286" x2="745.514286" y1="46.500000" y2="87.000000" stroke="#BABDB6" stroke-width="2"/><a xlink:title="A752V"><circle cx="745.514286" cy="46.500000" r="4.000000" fill="#ff0000" /></a><g transform="translate(745.514286,46.500000) rotate(-30)"><text style="font-size:10px;font-family:OpenSans;fill:#555;" text-anchor="middle" x="0" y="-6.000000">A752V</text></g><line x1="751.342857" x2="751.342857" y1="59.000000" y2="87.000000" stroke="#BABDB6" stroke-width="2"/><a xlink:title="A758V"><circle cx="751.342857" cy="59.000000" r="4.000000" fill="#ff0000" /></a><g transform="translate(751.342857,59.000000) rotate(-30)"><text style="font-size:10px;font-family:OpenSans;fill:#555;" text-anchor="middle" x="0" y="-6.000000">A758V</text></g><line x1="767.857143" x2="767.857143" y1="46.500000" y2="87.000000" stroke="#BABDB6" stroke-width="2"/><a xlink:title="I775I"><circle cx="767.857143" cy="46.500000" r="4.000000" fill="#0000ff" /></a><g transform="translate(767.857143,46.500000) rotate(-30)"><text style="font-size:10px;font-family:OpenSans;fill:#555;" text-anchor="middle" x="0" y="-6.000000">I775I</text></g><line x1="772.714286" x2="772.714286" y1="46.500000" y2="87.000000" stroke="#BABDB6" stroke-width="2"/><a xlink:title="I780I"><circle cx="772.714286" cy="46.500000" r="4.000000" fill="#0000ff" /></a><g transform="translate(772.714286,46.500000) rotate(-30)"><text style="font-size:10px;font-family:OpenSans;fill:#555;" text-anchor="middle" x="0" y="-6.000000">I780I</text></g><line x1="778.542857" x2="778.542857" y1="59.000000" y2="87.000000" stroke="#BABDB6" stroke-width="2"/><a xlink:title="I786I"><circle cx="778.542857" cy="59.000000" r="4.000000" fill="#0000ff" /></a><g transform="translate(778.542857,59.000000) rotate(-30)"><text style="font-size:10px;font-family:OpenSans;fill:#555;" text-anchor="middle" x="0" y="-6.000000">I786I</text></g><line x1="801.857143" x2="801.857143" y1="46.500000" y2="87.000000" stroke="#BABDB6" stroke-width="2"/><a xlink:title="A810V"><circle cx="801.857143" cy="46.500000" r="4.000000" fill="#ff0000" /></a><g transform="translate(801.857143,46.500000) rotate(-30)"><text style="font-size:10px;font-family:OpenSans;fill:#555;" text-anchor="middle" x="0" y="-6.000000">A810V</text></g><line x1="806.714286" x2="806.714286" y1="46.500000" y2="87.000000" stroke="#BABDB6" stroke-width="2"/><a xlink:title="A815V"><circle cx="806.714286" cy="46.500000" r="4.000000" fill="#ff0000" /></a><g transform="translate(806.714286,46.500000) rotate(-30)"><text style="font-size:10px;font-family:OpenSans;fill:#555;" text-anchor="middle" x="0" y="-6.000000">A815V</text></g><line x1="812.542857" x2="812.542857" y1="46.500000" y2="87.000000" stroke="#BABDB6" stroke-width="2"/><a xlink:title="A821V"><circle cx="812.542857" cy="46.500000" r="4.000000" fill="#ff0000" /></a><g transform="translate(812.542857,46.500000) rotate(-30)"><text style="font-size:10px;font-family:OpenSans;fill:#555;" text-anchor="middle" x="0" y="-6.000000">A821V</text></g><line x1="815.457143" x2="815.457143" y1="59.000000" y2="87.000000" stroke="#BABDB6" stroke-width="2"/><a xlink:title="R824Q"><circle cx="815.457143" cy="59.000000" r="4.000000" fill="#ff0000" /></a><g transform="translate(815.457143,59.000000) rotate(-30)"><text style="font-size:10px;font-family:OpenSans;fill:#555;" text-anchor="middle" x="0" y="-6.000000">R824Q</text></g><line x1="828.085714" x2="828.085714" y1="46.500000" y2="87.000000" stroke="#BABDB6" stroke-width="2"/><a xlink:title="R837Q"><circle cx="828.085714" cy="46.500000" r="4.000000" fill="#ff0000" /></a><g transform="translate(828.085714,46.500000) rotate(-30)"><text style="font-size:10px;font-family:OpenSans;fill:#555;" text-anchor="middle" x="0" y="-6.000000">R837Q</text></g><line x1="833.914286" x2="833.914286" y1="59.000000" y2="87.000000" stroke="#BABDB6" stroke-width="2"/><a xlink:title="R843Q"><circle cx="833.914286" cy="59.000000" r="4.000000" fill="#ff0000" /></a><g transform="translate(833.914286,59.000000) rotate(-30)"><text style="font-size:10px;font-family:OpenSans;fill:#555;" text-anchor="middle" x="0" y="-6.000000">R843Q</text></g><line x1="858.200000" x2="858.200000" y1="46.500000" y2="87.000000" stroke="#BABDB6" stroke-width="2"/><a xlink:title="P868P"><circle cx="858.200000" cy="46.500000" r="4.000000" fill="#0000ff" /></a><g transform="translate(858.200000,46.500000) rotate(-30)"><text style="font-size:10px;font-family:OpenSans;fill:#555;" text-anchor="middle" x="0" y="-6.000000">P868P</text></g><line x1="864.028571" x2="864.028571" y1="59.000000" y2="87.000000" stroke="#BABDB6" stroke-width="2"/><a xlink:title="P874P"><circle cx="864.028571" cy="59.000000" r="4.000000" fill="#0000ff" /></a><g transform="translate(864.028571,59.000000) rotate(-30)"><text style="font-size:10px;font-family:OpenSans;fill:#555;" text-anchor="middle" x="0" y="-6.000000">P874P</text></g><line x1="884.428571" x2="884.428571" y1="46.500000" y2="87.000000" stroke="#BABDB6" stroke-width="2"/><a xlink:title="R895Q"><circle cx="884.428571" cy="46.500000" r="4.000000" fill="#ff0000" /></a><g transform="translate(884.428571,46.500000) rotate(-30)"><text style="font-size:10px;font-family:OpenSans;fill:#555;" text-anchor="middle" x="0" y="-6.000000">R895Q</text></g><line x1="889.285714" x2="889.285714" y1="46.500000" y2="87.000000" stroke="#BABDB6" stroke-width="2"/><a xlink:title="R900Q"><circle cx="889.285714" cy="46.500000" r="4.000000" fill="#ff0000" /></a><g transform="translate(889.285714,46.500000) rotate(-30)"><text style="font-size:10px;font-family:OpenSans;fill:#555;" text-anchor="middle" x="0" y="-6.000000">R900Q</text></g><line x1="895.114286" x2="895.114286" y1="59.000000" y2="87.000000" stroke="#BABDB6" stroke-width="2"/><a xlink:title="R906Q"><circle cx="895.114286" cy="59.000000" r="4.000000" fill="#ff0000" /></a><g transform="translate(895.114286,59.000000) rotate(-30)"><text style="font-size:10px;font-family:OpenSans;fill:#555;" text-anchor="middle" x="0" y="-6.000000">R906Q</text></g><line x1="914.542857" x2="914.542857" y1="46.500000" y2="87.000000" stroke="#BABDB6" stroke-width="2"/><a xlink:title="P926P"><circle cx="914.542857" cy="46.500000" r="4.000000" fill="#0000ff" /></a><g transform="translate(914.542857,46.500000) rotate(-30)"><text style="font-size:10px;font-family:OpenSans;fill:#555;" text-anchor="middle" x="0" y="-6.000000">P926P</text></g><line x1="919.400000" x2="919.400000" y1="46.500000" y2="87.000000" stroke="#BABDB6" stroke-width="2"/><a xlink:title="P931P"><circle cx="919.400000" cy="46.500000" r="4.000000" fill="#0000ff" /></a><g transform="translate(919.400000,46.500000) rotate(-30)"><text style="font-size:10px;font-family:OpenSans;fill:#555;" text-anchor="middle" x="0" y="-6.000000">P931P</text></g><line x1="925.228571" x2="925.228571" y1="59.000000" y2="87.000000" stroke="#BABDB6" stroke-width="2"/><a xlink:title="P937P"><circle cx="925.228571" cy="59.000000" r="4.000000" fill="#0000ff" /></a><g transform="translate(925.228571,59.000000) rotate(-30)"><text style="font-size:10px;font-family:OpenSans;fill:#555;" text-anchor="middle" x="0" y="-6.000000">P937P</text></g><a xlink:title=",  (962aa)"><rect fill="#BABDB6" x="15.000000" y="87.000000" width="934.514286" height="14.000000"/></a><g transform="translate(394.828571,82.000000)"><a xlink:href="https://www.ebi.ac.uk/interpro/entry/pfam/PF00514" xlink:title="Armadillo/beta-catenin-like repeat"><rect fill="#2DCF00" x="0" y="0" width="35.942857" height="24.000000" filter="url(#ds)"/><text style="font-size:12px;font-family:OpenSans;fill:#ffffff;" text-anchor="middle" x="17.971429" y="16.000000">Arm</text></a></g>
<g transform="translate(435.628571,82.000000)"><a xlink:href="https://www.ebi.ac.uk/interpro/entry/pfam/PF00514" xlink:title="Armadillo/beta-catenin-like repeat"><rect fill="#FF5353" x="0" y="0" width="38.857143" height="24.000000" filter="url(#ds)"/><text style="font-size:12px;font-family:OpenSans;fill:#ffffff;" text-anchor="middle" x="19.428571" y="16.000000">Arm</text></a></g>
<g transform="translate(653.228571,82.000000)"><a xlink:href="https://www.ebi.ac.uk/interpro/entry/pfam/PF00514" xlink:title="Armadillo/beta-catenin-like repeat"><rect fill="#5B5BFF" x="0" y="0" width="34.000000" height="24.000000" filter="url(#ds)"/><text style="font-size:12px;font-family:OpenSans;fill:#ffffff;" text-anchor="middle" x="17.000000" y="16.000000">Arm</text></a></g>
<g transform="translate(696.942857,82.000000)"><a xlink:href="https://www.ebi.ac.uk/interpro/entry/pfam/PF00514" xlink:title="Armadillo/beta-catenin-like repeat"><rect fill="#EBD61D" x="0" y="0" width="34.000000" height="24.000000" filter="url(#ds)"/><text style="font-size:12px;font-family:OpenSans;fill:#ffffff;" text-anchor="middle" x="17.000000" y="16.000000">Arm</text></a></g>
<g class="axis">
<line x1="15.000000" x2="949.514286" y1="116.000000" y2="116.000000" stroke="#AAAAAA" /><line x1="15.000000" x2="15.000000" y1="116.000000" y2="121.000000" stroke="#AAAAAA" /><line x1="15.000000" x2="15.000000" y1="116.000000" y2="121.000000" stroke="#AAAAAA" /><text style="font-size:10px;font-family:OpenSans;fill:#000000;" text-anchor="middle" x="15.000000" y="131.000000">0</text><line x1="105.342857" x2="105.342857" y1="116.000000" y2="121.000000" stroke="#AAAAAA" /><text style="font-size:10px;font-family:OpenSans;fill:#000000;" text-anchor="middle" x="105.342857" y="131.000000">93</text><line x1="125.742857" x2="125.742857" y1="116.000000" y2="121.000000" stroke="#AAAAAA" /><text style="font-size:10px;font-family:OpenSans;fill:#000000;" text-anchor="middle" x="125.742857" y="131.000000">114</text><line x1="149.057143" x2="149.057143" y1="116.000000" y2="121.000000" stroke="#AAAAAA" /><text style="font-size:10px;font-family:OpenSans;fill:#000000;" text-anchor="middle" x="149.057143" y="131.000000">138</text><line x1="185.000000" x2="185.000000" y1="116.000000" y2="121.000000" stroke="#AAAAAA" /><text style="font-size:10px;font-family:OpenSans;fill:#000000;" text-anchor="middle" x="185.000000" y="131.000000">175</text><line x1="205.400000" x2="205.400000" y1="116.000000" y2="121.000000" stroke="#AAAAAA" /><text style="font-size:10px;font-family:OpenSans;fill:#000000;" text-anchor="middle" x="205.400000" y="131.000000">196</text><line x1="228.714286" x2="228.714286" y1="116.000000" y2="121.000000" stroke="#AAAAAA" /><text style="font-size:10px;font-family:OpenSans;fill:#000000;" text-anchor="middle" x="228.714286" y="131.000000">220</text><line x1="268.542857" x2="268.542857" y1="116.000000" y2="121.000000" stroke="#AAAAAA" /><text style="font-size:10px;font-family:OpenSans;fill:#000000;" text-anchor="middle" x="268.542857" y="131.000000">261</text><line x1="314.200000" x2="314.200000" y1="116.000000" y2="121.000000" stroke="#AAAAAA" /><text style="font-size:10px;font-family:OpenSans;fill:#000000;" text-anchor="middle" x="314.200000" y="131.000000">308</text><line x1="336.542857" x2="336.542857" y1="116.000000" y2="121.000000" stroke="#AAAAAA" /><text style="font-size:10px;font-family:OpenSans;fill:#000000;" text-anchor="middle" x="336.542857" y="131.000000">331</text><line x1="397.742857" x2="397.742857" y1="116.000000" y2="121.000000" stroke="#AAAAAA" /><text style="font-size:10px;font-family:OpenSans;fill:#000000;" text-anchor="middle" x="397.742857" y="131.000000">394</text><line x1="430.771429" x2="430.771429" y1="116.000000" y2="121.000000" stroke="#AAAAAA" /><text style="font-size:10px;font-family:OpenSans;fill:#000000;" text-anchor="middle" x="430.771429" y="131.000000">428</text><line x1="474.485714" x2="474.485714" y1="116.000000" y2="121.000000" stroke="#AAAAAA" /><text style="font-size:10px;font-family:OpenSans;fill:#000000;" text-anchor="middle" x="474.485714" y="131.000000">473</text><line x1="505.571429" x2="505.571429" y1="116.000000" y2="121.000000" stroke="#AAAAAA" /><text style="font-size:10px;font-family:OpenSans;fill:#000000;" text-anchor="middle" x="505.571429" y="131.000000">505</text><line x1="577.457143" x2="577.457143" y1="116.000000" y2="121.000000" stroke="#AAAAAA" /><text style="font-size:10px;font-family:OpenSans;fill:#000000;" text-anchor="middle" x="577.457143" y="131.000000">579</text><line x1="636.714286" x2="636.714286" y1="116.000000" y2="121.000000" stroke="#AAAAAA" /><text style="font-size:10px;font-family:OpenSans;fill:#000000;" text-anchor="middle" x="636.714286" y="131.000000">640</text><line x1="657.114286" x2="657.114286" y1="116.000000" y2="121.000000" stroke="#AAAAAA" /><text style="font-size:10px;font-family:OpenSans;fill:#000000;" text-anchor="middle" x="657.114286" y="131.000000">661</text><line x1="698.885714" x2="698.885714" y1="116.000000" y2="121.000000" stroke="#AAAAAA" /><text style="font-size:10px;font-family:OpenSans;fill:#000000;" text-anchor="middle" x="698.885714" y="131.000000">704</text><line x1="732.885714" x2="732.885714" y1="116.000000" y2="121.000000" stroke="#AAAAAA" /><text style="font-size:10px;font-family:OpenSans;fill:#000000;" text-anchor="middle" x="732.885714" y="131.000000">739</text><line x1="767.857143" x2="767.857143" y1="116.000000" y2="121.000000" stroke="#AAAAAA" /><text style="font-size:10px;font-family:OpenSans;fill:#000000;" text-anchor="middle" x="767.857143" y="131.000000">775</text><line x1="801.857143" x2="801.857143" y1="116.000000" y2="121.000000" stroke="#AAAAAA" /><text style="font-size:10px;font-family:OpenSans;fill:#000000;" text-anchor="middle" x="801.857143" y="131.000000">810</text><line x1="828.085714" x2="828.085714" y1="116.000000" y2="121.000000" stroke="#AAAAAA" /><text style="font-size:10px;font-family:OpenSans;fill:#000000;" text-anchor="middle" x="828.085714" y="131.000000">837</text><line x1="858.200000" x2="858.200000" y1="116.000000" y2="121.000000" stroke="#AAAAAA" /><text style="font-size:10px;font-family:OpenSans;fill:#000000;" text-anchor="middle" x="858.200000" y="131.000000">868</text><line x1="884.428571" x2="884.428571" y1="116.000000" y2="121.000000" stroke="#AAAAAA" /><text style="font-size:10px;font-family:OpenSans;fill:#000000;" text-anchor="middle" x="884.428571" y="131.000000">895</text><line x1="914.542857" x2="914.542857" y1="116.000000" y2="121.000000" stroke="#AAAAAA" /><text style="font-size:10px;font-family:OpenSans;fill:#000000;" text-anchor="middle" x="914.542857" y="131.000000">926</text><line x1="949.514286" x2="949.514286" y1="116.000000" y2="121.000000" stroke="#AAAAAA" /><text style="font-size:10px;font-family:OpenSans;fill:#000000;" text-anchor="middle" x="949.514286" y="131.000000">962</text></g>
<rect fill="#EBD61D" x="4" y="145.000000" width="12" height="12" filter="url(#ds)"/><text style="font-size:12px;font-family:OpenSans;fill:#000000;" text-anchor="start" x="20" y="157.000000">Armadillo/beta-catenin-like repeat</text></svg>
