<?xml version='1.0'?>
<svg xmlns="http://www.w3.org/2000/svg" xmlns:xlink="http://www.w3.org/1999/xlink" width="2085.655914" height="159.400000">
<defs>
  <filter id="ds" x="0" y="0">
    <feOffset in="SourceAlpha" dx="2" dy="2" />
    <feComponentTransfer><feFuncA type="linear" slope="0.2"/></feComponentTransfer>
    <feGaussianBlur result="blurOut" stdDeviation="1" />
    <feBlend in="SourceGraphic" in2="blurOut" mode="normal" />
  </filter>
  <pattern id="disordered-hatch" patternUnits="userSpaceOnUse" width="4" height="4">
    <path d="M-1,1 l2,-2 M0,4 l4,-4 M3,5 l2,-2" stroke="#000000" opacity="0.3" />
  </pattern>
</defs>
<line x1="120.849462" x2="120.849462" y1="34.000000" y2="62.000000" stroke="#BABDB6" stroke-width="2"/><a xlink:title="R107H"><circle cx="120.849462" cy="34.000000" r="4.000000" fill="#ff0000" /></a><g transform="translate(120.849462,34.000000) rotate(-30)"><text style="font-size:10px;font-family:OpenSans;fill:#555;" text-anchor="middle" x="0" y="-6.000000">R107H</text></g><line x1="538.311828" x2="538.311828" y1="34.000000" y2="62.000000" stroke="#BABDB6" stroke-width="2"/><a xlink:title="T529M"><circle cx="538.311828" cy="34.000000" r="4.000000" fill="#ff0000" /></a><g transform="translate(538.311828,34.000000) rotate(-30)"><text style="font-size:10px;font-family:OpenSans;fill:#555;" text-anchor="middle" x="0" y="-6.000000">T529M</text></g><line x1="1341.580645" x2="1341.580645" y1="34.000000" y2="62.000000" stroke="#BABDB6" stroke-width="2"/><a xlink:title="S1341S"><circle cx="1341.580645" cy="34.000000" r="4.000000" fill="#0000ff" /></a><g transform="translate(1341.580645,34.000000) rotate(-30)"><text style="font-size:10px;font-family:OpenSans;fill:#555;" text-anchor="middle" x="0" y="-6.000000">S1341S</text></g><line x1="1579.989247" x2="1579.989247" y1="34.000000" y2="62.000000" stroke="#BABDB6" stroke-width="2"/><a xlink:title="S1582G"><circle cx="1579.989247" cy="34.000000" r="4.000000" fill="#ff0000" /></a><g transform="translate(1579.989247,34.000000) rotate(-30)"><text style="font-size:10px;font-family:OpenSans;fill:#555;" text-anchor="middle" x="0" y="-6.000000">S1582G</text></g><a xlink:title=",  (2078aa)"><rect fill="#BABDB6" x="15.000000" y="62.000000" width="2055.655914" height="14.000000"/></a><g transform="translate(26.870968,57.000000)"><a xlink:href="https://www.ebi.ac.uk/interpro/entry/pfam/PF12624" xlink:title="VPS13-like, N-terminal"><rect fill="#2DCF00" x="0" y="0" width="94.967742" height="24.000000" filter="url(#ds)"/><text style="font-size:12px;font-family:OpenSans;fill:#ffffff;" text-anchor="middle" x="47.483871" y="16.000000">Chorein_N</text></a></g>
<g transform="translate(1233.752688,57.000000)"><a xlink:href="https://www.ebi.ac.uk/interpro/entry/pfam/PF13329" xlink:title="Autophagy-related protein 2, middle RBG modules"><rect fill="#FF5353" x="0" y="0" width="328.430108" height="24.000000" filter="url(#ds)"/><text style="font-size:12px;font-family:OpenSans;fill:#ffffff;" text-anchor="middle" x="164.215054" y="16.000000">Autophagy-related protein 2, middle RBG modules</text></a></g>
<g transform="translate(1974.698925,57.000000)"><a xlink:href="https://www.ebi.ac.uk/interpro/entry/pfam/PF09333" xlink:title="ATG2/VPS13, C terminal domain"><rect fill="#5B5BFF" x="0" y="0" width="92.000000" height="24.000000" filter="url(#ds)"/><text style="font-size:12px;font-family:OpenSans;fill:#ffffff;" text-anchor="middle" x="46.000000" y="16.000000">ATG2-VPS13_C</text></a></g>
<g class="axis">
<line x1="15.000000" x2="2070.655914" y1="91.000000" y2="91.000000" stroke="#AAAAAA" /><line x1="15.000000" x2="15.000000" y1="91.000000" y2="96.000000" stroke="#AAAAAA" /><line x1="26.870968" x2="26.870968" y1="91.000000" y2="96.000000" stroke="#AAAAAA" /><text style="font-size:10px;font-family:OpenSans;fill:#000000;" text-anchor="middle" x="26.870968" y="106.000000">12</text><line x1="120.849462" x2="120.849462" y1="91.000000" y2="96.000000" stroke="#AAAAAA" /><text style="font-size:10px;font-family:OpenSans;fill:#000000;" text-anchor="middle" x="120.849462" y="106.000000">107</text><line x1="538.311828" x2="538.311828" y1="91.000000" y2="96.000000" stroke="#AAAAAA" /><text style="font-size:10px;font-family:OpenSans;fill:#000000;" text-anchor="middle" x="538.311828" y="106.000000">529</text><line x1="1233.752688" x2="1233.752688" y1="91.000000" y2="96.000000" stroke="#AAAAAA" /><text style="font-size:10px;font-family:OpenSans;fill:#000000;" text-anchor="middle" x="1233.752688" y="106.000000">1232</text><line x1="1341.580645" x2="1341.580645" y1="91.000000" y2="96.000000" stroke="#AAAAAA" /><text style="font-size:10px;font-family:OpenSans;fill:#000000;" text-anchor="middle" x="1341.580645" y="106.000000">1341</text><line x1="1579.989247" x2="1579.989247" y1="91.000000" y2="96.000000" stroke="#AAAAAA" /><text style="font-size:10px;font-family:OpenSans;fill:#000000;" text-anchor="middle" x="1579.989247" y="106.000000">1582</text><line x1="1974.698925" x2="1974.698925" y1="91.000000" y2="96.000000" stroke="#AAAAAA" /><text style="font-size:10px;font-family:OpenSans;fill:#000000;" text-anchor="middle" x="1974.698925" y="106.000000">1981</text><line x1="2070.655914" x2="2070.655914" y1="91.000000" y2="96.000000" stroke="#AAAAAA" /><text style="font-size:10px;font-family:OpenSans;fill:#000000;" text-anchor="middle" x="2070.655914" y="106.000000">2078</text></g>
<rect fill="#2DCF00" x="4" y="120.000000" width="12" height="12" filter="url(#ds)"/><text style="font-size:12px;font-family:OpenSans;fill:#000000;" text-anchor="start" x="20" y="132.000000">VPS13-like, N-terminal</text><rect fill="#5B5BFF" x="4" y="134.000000" width="12" height="12" filter="url(#ds)"/><text style="font-size:12px;font-family:OpenSans;fill:#000000;" text-anchor="start" x="20" y="146.000000">ATG2/VPS13, C terminal domain</text></svg>
