<?xml version='1.0'?>
<svg xmlns="http://www.w3.org/2000/svg" xmlns:xlink="http://www.w3.org/1999/xlink" width="430.000000" height="172.600000">
<defs>
  <filter id="ds" x="0" y="0">
    <feOffset in="SourceAlpha" dx="2" dy="2" />
    <feComponentTransfer><feFuncA type="linear" slope="0.2"/></feComponentTransfer>
    <feGaussianBlur result="blurOut" stdDeviation="1" />
    <feBlend in="SourceGraphic" in2="blurOut" mode="normal" />
  </filter>
  <pattern id="disordered-hatch" patternUnits="userSpaceOnUse" width="4" height="4">
    <path d="M-1,1 l2,-2 M0,4 l4,-4 M3,5 l2,-2" stroke="#000000" opacity="0.3" />
  </pattern>
</defs>
<line x1="109.545455" x2="109.545455" y1="34.000000" y2="62.000000" stroke="#BABDB6" stroke-width="2"/><a xlink:title="I65V"><circle cx="109.545455" cy="34.000000" r="4.000000" fill="#ff0000" /></a><g transform="translate(109.545455,34.000000) rotate(-30)"><text style="font-size:10px;font-family:OpenSans;fill:#555;" text-anchor="middle" x="0" y="-6.000000">I65V</text></g><line x1="116.818182" x2="116.818182" y1="34.000000" y2="62.000000" stroke="#BABDB6" stroke-width="2"/><a xlink:title="K70K"><circle cx="116.818182" cy="34.000000" r="4.000000" fill="#0000ff" /></a><g transform="translate(116.818182,34.000000) rotate(-30)"><text style="font-size:10px;font-family:OpenSans;fill:#555;" text-anchor="middle" x="0" y="-6.000000">K70K</text></g><line x1="128.454545" x2="128.454545" y1="34.000000" y2="62.000000" stroke="#BABDB6" stroke-width="2"/><a xlink:title="K78K"><circle cx="128.454545" cy="34.000000" r="4.000000" fill="#0000ff" /></a><g transform="translate(128.454545,34.000000) rotate(-30)"><text style="font-size:10px;font-family:OpenSans;fill:#555;" text-anchor="middle" x="0" y="-6.000000">K78K</text></g><line x1="230.272727" x2="230.272727" y1="34.000000" y2="62.000000" stroke="#BABDB6" stroke-width="2"/><a xlink:title="K148K"><circle cx="230.272727" cy="34.000000" r="4.000000" fill="#0000ff" /></a><g transform="translate(230.272727,34.000000) rotate(-30)"><text style="font-size:10px;font-family:OpenSans;fill:#555;" text-anchor="middle" x="0" y="-6.000000">K148K</text></g><a xlink:title=",  (275aa)"><rect fill="#BABDB6" x="15.000000" y="62.000000" width="400.000000" height="14.000000"/></a><g transform="translate(31.000000,57.000000)"><a xlink:href="https://www.ebi.ac.uk/interpro/entry/pfam/PF20638" xlink:title="Autophagy protein ATG5, UblA domain"><rect fill="#2DCF00" x="0" y="0" width="135.272727" height="24.000000" filter="url(#ds)"/><text style="font-size:12px;font-family:OpenSans;fill:#ffffff;" text-anchor="middle" x="67.636364" y="16.000000">ATG5_UblA</text></a></g>
<g transform="translate(188.090909,57.000000)"><a xlink:href="https://www.ebi.ac.uk/interpro/entry/pfam/PF20637" xlink:title="Autophagy protein ATG5, alpha-helical bundle region"><rect fill="#FF5353" x="0" y="0" width="80.000000" height="24.000000" filter="url(#ds)"/><text style="font-size:12px;font-family:OpenSans;fill:#ffffff;" text-anchor="middle" x="40.000000" y="16.000000">ATG5_HBR</text></a></g>
<g transform="translate(282.636364,57.000000)"><a xlink:href="https://www.ebi.ac.uk/interpro/entry/pfam/PF04106" xlink:title="Autophagy protein ATG5, UblB domain"><rect fill="#5B5BFF" x="0" y="0" width="123.636364" height="24.000000" filter="url(#ds)"/><text style="font-size:12px;font-family:OpenSans;fill:#ffffff;" text-anchor="middle" x="61.818182" y="16.000000">ATG5_UblB</text></a></g>
<g class="axis">
<line x1="15.000000" x2="415.000000" y1="91.000000" y2="91.000000" stroke="#AAAAAA" /><line x1="15.000000" x2="15.000000" y1="91.000000" y2="96.000000" stroke="#AAAAAA" /><line x1="31.000000" x2="31.000000" y1="91.000000" y2="96.000000" stroke="#AAAAAA" /><text style="font-size:10px;font-family:OpenSans;fill:#000000;" text-anchor="middle" x="31.000000" y="106.000000">11</text><line x1="109.545455" x2="109.545455" y1="91.000000" y2="96.000000" stroke="#AAAAAA" /><text style="font-size:10px;font-family:OpenSans;fill:#000000;" text-anchor="middle" x="109.545455" y="106.000000">65</text><line x1="128.454545" x2="128.454545" y1="91.000000" y2="96.000000" stroke="#AAAAAA" /><text style="font-size:10px;font-family:OpenSans;fill:#000000;" text-anchor="middle" x="128.454545" y="106.000000">78</text><line x1="166.272727" x2="166.272727" y1="91.000000" y2="96.000000" stroke="#AAAAAA" /><text style="font-size:10px;font-family:OpenSans;fill:#000000;" text-anchor="middle" x="166.272727" y="106.000000">104</text><line x1="188.090909" x2="188.090909" y1="91.000000" y2="96.000000" stroke="#AAAAAA" /><text style="font-size:10px;font-family:OpenSans;fill:#000000;" text-anchor="middle" x="188.090909" y="106.000000">119</text><line x1="230.272727" x2="230.272727" y1="91.000000" y2="96.000000" stroke="#AAAAAA" /><text style="font-size:10px;font-family:OpenSans;fill:#000000;" text-anchor="middle" x="230.272727" y="106.000000">148</text><line x1="268.090909" x2="268.090909" y1="91.000000" y2="96.000000" stroke="#AAAAAA" /><text style="font-size:10px;font-family:OpenSans;fill:#000000;" text-anchor="middle" x="268.090909" y="106.000000">174</text><line x1="415.000000" x2="415.000000" y1="91.000000" y2="96.000000" stroke="#AAAAAA" /><text style="font-size:10px;font-family:OpenSans;fill:#000000;" text-anchor="middle" x="415.000000" y="106.000000">275</text></g>
<rect fill="#FF5353" x="4" y="120.000000" width="12" height="12" filter="url(#ds)"/><text style="font-size:12px;font-family:OpenSans;fill:#000000;" text-anchor="start" x="20" y="132.000000">Autophagy protein ATG5, alpha-helical bundle region</text><rect fill="#5B5BFF" x="4" y="134.000000" width="12" height="12" filter="url(#ds)"/><text style="font-size:12px;font-family:OpenSans;fill:#000000;" text-anchor="start" x="20" y="146.000000">Autophagy protein ATG5, UblB domain</text><rect fill="#2DCF00" x="4" y="148.000000" width="12" height="12" filter="url(#ds)"/><text style="font-size:12px;font-family:OpenSans;fill:#000000;" text-anchor="start" x="20" y="160.000000">Autophagy protein ATG5, UblA domain</text></svg>
