<?xml version='1.0'?>
<svg xmlns="http://www.w3.org/2000/svg" xmlns:xlink="http://www.w3.org/1999/xlink" width="1497.656716" height="159.400000">
<defs>
  <filter id="ds" x="0" y="0">
    <feOffset in="SourceAlpha" dx="2" dy="2" />
    <feComponentTransfer><feFuncA type="linear" slope="0.2"/></feComponentTransfer>
    <feGaussianBlur result="blurOut" stdDeviation="1" />
    <feBlend in="SourceGraphic" in2="blurOut" mode="normal" />
  </filter>
  <pattern id="disordered-hatch" patternUnits="userSpaceOnUse" width="4" height="4">
    <path d="M-1,1 l2,-2 M0,4 l4,-4 M3,5 l2,-2" stroke="#000000" opacity="0.3" />
  </pattern>
</defs>
<line x1="954.044776" x2="954.044776" y1="34.000000" y2="62.000000" stroke="#BABDB6" stroke-width="2"/><a xlink:title="K588K"><circle cx="954.044776" cy="34.000000" r="4.000000" fill="#0000ff" /></a><g transform="translate(954.044776,34.000000) rotate(-30)"><text style="font-size:10px;font-family:OpenSans;fill:#555;" text-anchor="middle" x="0" y="-6.000000">K588K</text></g><line x1="1306.985075" x2="1306.985075" y1="34.000000" y2="62.000000" stroke="#BABDB6" stroke-width="2"/><a xlink:title="K809K"><circle cx="1306.985075" cy="34.000000" r="4.000000" fill="#0000ff" /></a><g transform="translate(1306.985075,34.000000) rotate(-30)"><text style="font-size:10px;font-family:OpenSans;fill:#555;" text-anchor="middle" x="0" y="-6.000000">K809K</text></g><line x1="1361.283582" x2="1361.283582" y1="34.000000" y2="62.000000" stroke="#BABDB6" stroke-width="2"/><a xlink:title="K843K"><circle cx="1361.283582" cy="34.000000" r="4.000000" fill="#0000ff" /></a><g transform="translate(1361.283582,34.000000) rotate(-30)"><text style="font-size:10px;font-family:OpenSans;fill:#555;" text-anchor="middle" x="0" y="-6.000000">K843K</text></g><line x1="1372.462687" x2="1372.462687" y1="34.000000" y2="62.000000" stroke="#BABDB6" stroke-width="2"/><a xlink:title="K850K"><circle cx="1372.462687" cy="34.000000" r="4.000000" fill="#0000ff" /></a><g transform="translate(1372.462687,34.000000) rotate(-30)"><text style="font-size:10px;font-family:OpenSans;fill:#555;" text-anchor="middle" x="0" y="-6.000000">K850K</text></g><line x1="1390.029851" x2="1390.029851" y1="34.000000" y2="62.000000" stroke="#BABDB6" stroke-width="2"/><a xlink:title="K861K"><circle cx="1390.029851" cy="34.000000" r="4.000000" fill="#0000ff" /></a><g transform="translate(1390.029851,34.000000) rotate(-30)"><text style="font-size:10px;font-family:OpenSans;fill:#555;" text-anchor="middle" x="0" y="-6.000000">K861K</text></g><line x1="1398.014925" x2="1398.014925" y1="34.000000" y2="62.000000" stroke="#BABDB6" stroke-width="2"/><a xlink:title="K866K"><circle cx="1398.014925" cy="34.000000" r="4.000000" fill="#0000ff" /></a><g transform="translate(1398.014925,34.000000) rotate(-30)"><text style="font-size:10px;font-family:OpenSans;fill:#555;" text-anchor="middle" x="0" y="-6.000000">K866K</text></g><line x1="1452.313433" x2="1452.313433" y1="34.000000" y2="62.000000" stroke="#BABDB6" stroke-width="2"/><a xlink:title="K900K"><circle cx="1452.313433" cy="34.000000" r="4.000000" fill="#0000ff" /></a><g transform="translate(1452.313433,34.000000) rotate(-30)"><text style="font-size:10px;font-family:OpenSans;fill:#555;" text-anchor="middle" x="0" y="-6.000000">K900K</text></g><a xlink:title=",  (919aa)"><rect fill="#BABDB6" x="15.000000" y="62.000000" width="1467.656716" height="14.000000"/></a><g transform="translate(58.119403,57.000000)"><a xlink:href="https://www.ebi.ac.uk/interpro/entry/pfam/PF00690" xlink:title="Cation transporter/ATPase, N-terminus"><rect fill="#2DCF00" x="0" y="0" width="107.000000" height="24.000000" filter="url(#ds)"/><text style="font-size:12px;font-family:OpenSans;fill:#ffffff;" text-anchor="middle" x="53.500000" y="16.000000">Cation_ATPase_N</text></a></g>
<g transform="translate(227.402985,57.000000)"><a xlink:href="https://www.ebi.ac.uk/interpro/entry/pfam/PF00122" xlink:title="E1-E2 ATPase"><rect fill="#FF5353" x="0" y="0" width="311.417910" height="24.000000" filter="url(#ds)"/><text style="font-size:12px;font-family:OpenSans;fill:#ffffff;" text-anchor="middle" x="155.708955" y="16.000000">E1-E2 ATPase</text></a></g>
<g transform="translate(668.179104,57.000000)"><a xlink:href="https://www.ebi.ac.uk/interpro/entry/pfam/PF13246" xlink:title="Cation transport ATPase (P-type)"><rect fill="#5B5BFF" x="0" y="0" width="134.149254" height="24.000000" filter="url(#ds)"/><text style="font-size:12px;font-family:OpenSans;fill:#ffffff;" text-anchor="middle" x="67.074627" y="16.000000">Cation_ATPase</text></a></g>
<g transform="translate(1174.432836,57.000000)"><a xlink:href="https://www.ebi.ac.uk/interpro/entry/pfam/PF00689" xlink:title="Cation transporting ATPase, C-terminus"><rect fill="#EBD61D" x="0" y="0" width="273.089552" height="24.000000" filter="url(#ds)"/><text style="font-size:12px;font-family:OpenSans;fill:#ffffff;" text-anchor="middle" x="136.544776" y="16.000000">Cation transporting ATPase, C-terminus</text></a></g>
<g class="axis">
<line x1="15.000000" x2="1482.656716" y1="91.000000" y2="91.000000" stroke="#AAAAAA" /><line x1="15.000000" x2="15.000000" y1="91.000000" y2="96.000000" stroke="#AAAAAA" /><line x1="15.000000" x2="15.000000" y1="91.000000" y2="96.000000" stroke="#AAAAAA" /><text style="font-size:10px;font-family:OpenSans;fill:#000000;" text-anchor="middle" x="15.000000" y="106.000000">0</text><line x1="58.119403" x2="58.119403" y1="91.000000" y2="96.000000" stroke="#AAAAAA" /><text style="font-size:10px;font-family:OpenSans;fill:#000000;" text-anchor="middle" x="58.119403" y="106.000000">27</text><line x1="165.119403" x2="165.119403" y1="91.000000" y2="96.000000" stroke="#AAAAAA" /><text style="font-size:10px;font-family:OpenSans;fill:#000000;" text-anchor="middle" x="165.119403" y="106.000000">94</text><line x1="227.402985" x2="227.402985" y1="91.000000" y2="96.000000" stroke="#AAAAAA" /><text style="font-size:10px;font-family:OpenSans;fill:#000000;" text-anchor="middle" x="227.402985" y="106.000000">133</text><line x1="538.820896" x2="538.820896" y1="91.000000" y2="96.000000" stroke="#AAAAAA" /><text style="font-size:10px;font-family:OpenSans;fill:#000000;" text-anchor="middle" x="538.820896" y="106.000000">328</text><line x1="668.179104" x2="668.179104" y1="91.000000" y2="96.000000" stroke="#AAAAAA" /><text style="font-size:10px;font-family:OpenSans;fill:#000000;" text-anchor="middle" x="668.179104" y="106.000000">409</text><line x1="802.328358" x2="802.328358" y1="91.000000" y2="96.000000" stroke="#AAAAAA" /><text style="font-size:10px;font-family:OpenSans;fill:#000000;" text-anchor="middle" x="802.328358" y="106.000000">493</text><line x1="954.044776" x2="954.044776" y1="91.000000" y2="96.000000" stroke="#AAAAAA" /><text style="font-size:10px;font-family:OpenSans;fill:#000000;" text-anchor="middle" x="954.044776" y="106.000000">588</text><line x1="1174.432836" x2="1174.432836" y1="91.000000" y2="96.000000" stroke="#AAAAAA" /><text style="font-size:10px;font-family:OpenSans;fill:#000000;" text-anchor="middle" x="1174.432836" y="106.000000">726</text><line x1="1306.985075" x2="1306.985075" y1="91.000000" y2="96.000000" stroke="#AAAAAA" /><text style="font-size:10px;font-family:OpenSans;fill:#000000;" text-anchor="middle" x="1306.985075" y="106.000000">809</text><line x1="1361.283582" x2="1361.283582" y1="91.000000" y2="96.000000" stroke="#AAAAAA" /><text style="font-size:10px;font-family:OpenSans;fill:#000000;" text-anchor="middle" x="1361.283582" y="106.000000">843</text><line x1="1390.029851" x2="1390.029851" y1="91.000000" y2="96.000000" stroke="#AAAAAA" /><text style="font-size:10px;font-family:OpenSans;fill:#000000;" text-anchor="middle" x="1390.029851" y="106.000000">861</text><line x1="1452.313433" x2="1452.313433" y1="91.000000" y2="96.000000" stroke="#AAAAAA" /><text style="font-size:10px;font-family:OpenSans;fill:#000000;" text-anchor="middle" x="1452.313433" y="106.000000">900</text><line x1="1482.656716" x2="1482.656716" y1="91.000000" y2="96.000000" stroke="#AAAAAA" /><text style="font-size:10px;font-family:OpenSans;fill:#000000;" text-anchor="middle" x="1482.656716" y="106.000000">919</text></g>
<rect fill="#2DCF00" x="4" y="120.000000" width="12" height="12" filter="url(#ds)"/><text style="font-size:12px;font-family:OpenSans;fill:#000000;" text-anchor="start" x="20" y="132.000000">Cation transporter/ATPase, N-terminus</text><rect fill="#5B5BFF" x="4" y="134.000000" width="12" height="12" filter="url(#ds)"/><text style="font-size:12px;font-family:OpenSans;fill:#000000;" text-anchor="start" x="20" y="146.000000">Cation transport ATPase (P-type)</text></svg>
