<?xml version='1.0'?>
<svg xmlns="http://www.w3.org/2000/svg" xmlns:xlink="http://www.w3.org/1999/xlink" width="3111.666667" height="221.200000">
<defs>
  <filter id="ds" x="0" y="0">
    <feOffset in="SourceAlpha" dx="2" dy="2" />
    <feComponentTransfer><feFuncA type="linear" slope="0.2"/></feComponentTransfer>
    <feGaussianBlur result="blurOut" stdDeviation="1" />
    <feBlend in="SourceGraphic" in2="blurOut" mode="normal" />
  </filter>
  <pattern id="disordered-hatch" patternUnits="userSpaceOnUse" width="4" height="4">
    <path d="M-1,1 l2,-2 M0,4 l4,-4 M3,5 l2,-2" stroke="#000000" opacity="0.3" />
  </pattern>
</defs>
<line x1="1018.333333" x2="1018.333333" y1="109.000000" y2="137.000000" stroke="#BABDB6" stroke-width="2"/><a xlink:title="Q350Q"><circle cx="1018.333333" cy="109.000000" r="4.000000" fill="#0000ff" /></a><g transform="translate(1018.333333,109.000000) rotate(-30)"><text style="font-size:10px;font-family:OpenSans;fill:#555;" text-anchor="middle" x="0" y="-6.000000">Q350Q</text></g><line x1="1026.933333" x2="1026.933333" y1="109.000000" y2="137.000000" stroke="#BABDB6" stroke-width="2"/><a xlink:title="Q353Q"><circle cx="1026.933333" cy="109.000000" r="4.000000" fill="#0000ff" /></a><g transform="translate(1026.933333,109.000000) rotate(-30)"><text style="font-size:10px;font-family:OpenSans;fill:#555;" text-anchor="middle" x="0" y="-6.000000">Q353Q</text></g><line x1="1198.933333" x2="1198.933333" y1="109.000000" y2="137.000000" stroke="#BABDB6" stroke-width="2"/><a xlink:title="Q413Q"><circle cx="1198.933333" cy="109.000000" r="4.000000" fill="#0000ff" /></a><g transform="translate(1198.933333,109.000000) rotate(-30)"><text style="font-size:10px;font-family:OpenSans;fill:#555;" text-anchor="middle" x="0" y="-6.000000">Q413Q</text></g><line x1="1425.400000" x2="1425.400000" y1="109.000000" y2="137.000000" stroke="#BABDB6" stroke-width="2"/><a xlink:title="P492P"><circle cx="1425.400000" cy="109.000000" r="4.000000" fill="#0000ff" /></a><g transform="translate(1425.400000,109.000000) rotate(-30)"><text style="font-size:10px;font-family:OpenSans;fill:#555;" text-anchor="middle" x="0" y="-6.000000">P492P</text></g><line x1="1485.600000" x2="1485.600000" y1="109.000000" y2="137.000000" stroke="#BABDB6" stroke-width="2"/><a xlink:title="P513P"><circle cx="1485.600000" cy="109.000000" r="4.000000" fill="#0000ff" /></a><g transform="translate(1485.600000,109.000000) rotate(-30)"><text style="font-size:10px;font-family:OpenSans;fill:#555;" text-anchor="middle" x="0" y="-6.000000">P513P</text></g><line x1="1494.200000" x2="1494.200000" y1="109.000000" y2="137.000000" stroke="#BABDB6" stroke-width="2"/><a xlink:title="P516P"><circle cx="1494.200000" cy="109.000000" r="4.000000" fill="#0000ff" /></a><g transform="translate(1494.200000,109.000000) rotate(-30)"><text style="font-size:10px;font-family:OpenSans;fill:#555;" text-anchor="middle" x="0" y="-6.000000">P516P</text></g><line x1="1511.400000" x2="1511.400000" y1="109.000000" y2="137.000000" stroke="#BABDB6" stroke-width="2"/><a xlink:title="P522P"><circle cx="1511.400000" cy="109.000000" r="4.000000" fill="#0000ff" /></a><g transform="translate(1511.400000,109.000000) rotate(-30)"><text style="font-size:10px;font-family:OpenSans;fill:#555;" text-anchor="middle" x="0" y="-6.000000">P522P</text></g><line x1="1597.400000" x2="1597.400000" y1="96.500000" y2="137.000000" stroke="#BABDB6" stroke-width="2"/><a xlink:title="P552P"><circle cx="1597.400000" cy="96.500000" r="4.000000" fill="#0000ff" /></a><g transform="translate(1597.400000,96.500000) rotate(-30)"><text style="font-size:10px;font-family:OpenSans;fill:#555;" text-anchor="middle" x="0" y="-6.000000">P552P</text></g><line x1="1600.266667" x2="1600.266667" y1="109.000000" y2="137.000000" stroke="#BABDB6" stroke-width="2"/><a xlink:title="P553P"><circle cx="1600.266667" cy="109.000000" r="4.000000" fill="#0000ff" /></a><g transform="translate(1600.266667,109.000000) rotate(-30)"><text style="font-size:10px;font-family:OpenSans;fill:#555;" text-anchor="middle" x="0" y="-6.000000">P553P</text></g><line x1="1614.600000" x2="1614.600000" y1="109.000000" y2="137.000000" stroke="#BABDB6" stroke-width="2"/><a xlink:title="P558P"><circle cx="1614.600000" cy="109.000000" r="4.000000" fill="#0000ff" /></a><g transform="translate(1614.600000,109.000000) rotate(-30)"><text style="font-size:10px;font-family:OpenSans;fill:#555;" text-anchor="middle" x="0" y="-6.000000">P558P</text></g><line x1="1666.200000" x2="1666.200000" y1="109.000000" y2="137.000000" stroke="#BABDB6" stroke-width="2"/><a xlink:title="P576P"><circle cx="1666.200000" cy="109.000000" r="4.000000" fill="#0000ff" /></a><g transform="translate(1666.200000,109.000000) rotate(-30)"><text style="font-size:10px;font-family:OpenSans;fill:#555;" text-anchor="middle" x="0" y="-6.000000">P576P</text></g><line x1="1683.400000" x2="1683.400000" y1="109.000000" y2="137.000000" stroke="#BABDB6" stroke-width="2"/><a xlink:title="P582P"><circle cx="1683.400000" cy="109.000000" r="4.000000" fill="#0000ff" /></a><g transform="translate(1683.400000,109.000000) rotate(-30)"><text style="font-size:10px;font-family:OpenSans;fill:#555;" text-anchor="middle" x="0" y="-6.000000">P582P</text></g><line x1="2308.333333" x2="2308.333333" y1="109.000000" y2="137.000000" stroke="#BABDB6" stroke-width="2"/><a xlink:title="P800P"><circle cx="2308.333333" cy="109.000000" r="4.000000" fill="#0000ff" /></a><g transform="translate(2308.333333,109.000000) rotate(-30)"><text style="font-size:10px;font-family:OpenSans;fill:#555;" text-anchor="middle" x="0" y="-6.000000">P800P</text></g><line x1="2368.533333" x2="2368.533333" y1="109.000000" y2="137.000000" stroke="#BABDB6" stroke-width="2"/><a xlink:title="P821P"><circle cx="2368.533333" cy="109.000000" r="4.000000" fill="#0000ff" /></a><g transform="translate(2368.533333,109.000000) rotate(-30)"><text style="font-size:10px;font-family:OpenSans;fill:#555;" text-anchor="middle" x="0" y="-6.000000">P821P</text></g><line x1="2377.133333" x2="2377.133333" y1="109.000000" y2="137.000000" stroke="#BABDB6" stroke-width="2"/><a xlink:title="P824P"><circle cx="2377.133333" cy="109.000000" r="4.000000" fill="#0000ff" /></a><g transform="translate(2377.133333,109.000000) rotate(-30)"><text style="font-size:10px;font-family:OpenSans;fill:#555;" text-anchor="middle" x="0" y="-6.000000">P824P</text></g><line x1="2394.333333" x2="2394.333333" y1="109.000000" y2="137.000000" stroke="#BABDB6" stroke-width="2"/><a xlink:title="P830P"><circle cx="2394.333333" cy="109.000000" r="4.000000" fill="#0000ff" /></a><g transform="translate(2394.333333,109.000000) rotate(-30)"><text style="font-size:10px;font-family:OpenSans;fill:#555;" text-anchor="middle" x="0" y="-6.000000">P830P</text></g><line x1="2480.333333" x2="2480.333333" y1="96.500000" y2="137.000000" stroke="#BABDB6" stroke-width="2"/><a xlink:title="P860P"><circle cx="2480.333333" cy="96.500000" r="4.000000" fill="#0000ff" /></a><g transform="translate(2480.333333,96.500000) rotate(-30)"><text style="font-size:10px;font-family:OpenSans;fill:#555;" text-anchor="middle" x="0" y="-6.000000">P860P</text></g><line x1="2483.200000" x2="2483.200000" y1="109.000000" y2="137.000000" stroke="#BABDB6" stroke-width="2"/><a xlink:title="P861P"><circle cx="2483.200000" cy="109.000000" r="4.000000" fill="#0000ff" /></a><g transform="translate(2483.200000,109.000000) rotate(-30)"><text style="font-size:10px;font-family:OpenSans;fill:#555;" text-anchor="middle" x="0" y="-6.000000">P861P</text></g><line x1="2497.533333" x2="2497.533333" y1="109.000000" y2="137.000000" stroke="#BABDB6" stroke-width="2"/><a xlink:title="P866P"><circle cx="2497.533333" cy="109.000000" r="4.000000" fill="#0000ff" /></a><g transform="translate(2497.533333,109.000000) rotate(-30)"><text style="font-size:10px;font-family:OpenSans;fill:#555;" text-anchor="middle" x="0" y="-6.000000">P866P</text></g><line x1="2549.133333" x2="2549.133333" y1="109.000000" y2="137.000000" stroke="#BABDB6" stroke-width="2"/><a xlink:title="P884P"><circle cx="2549.133333" cy="109.000000" r="4.000000" fill="#0000ff" /></a><g transform="translate(2549.133333,109.000000) rotate(-30)"><text style="font-size:10px;font-family:OpenSans;fill:#555;" text-anchor="middle" x="0" y="-6.000000">P884P</text></g><line x1="2566.333333" x2="2566.333333" y1="109.000000" y2="137.000000" stroke="#BABDB6" stroke-width="2"/><a xlink:title="P890P"><circle cx="2566.333333" cy="109.000000" r="4.000000" fill="#0000ff" /></a><g transform="translate(2566.333333,109.000000) rotate(-30)"><text style="font-size:10px;font-family:OpenSans;fill:#555;" text-anchor="middle" x="0" y="-6.000000">P890P</text></g><line x1="2595.000000" x2="2595.000000" y1="71.500000" y2="137.000000" stroke="#BABDB6" stroke-width="2"/><a xlink:title="H900P"><circle cx="2595.000000" cy="71.500000" r="4.000000" fill="#ff0000" /></a><g transform="translate(2595.000000,71.500000) rotate(-30)"><text style="font-size:10px;font-family:OpenSans;fill:#555;" text-anchor="middle" x="0" y="-6.000000">H900P</text></g><line x1="2597.866667" x2="2597.866667" y1="71.500000" y2="137.000000" stroke="#BABDB6" stroke-width="2"/><a xlink:title="H901P"><circle cx="2597.866667" cy="71.500000" r="4.000000" fill="#ff0000" /></a><g transform="translate(2597.866667,71.500000) rotate(-30)"><text style="font-size:10px;font-family:OpenSans;fill:#555;" text-anchor="middle" x="0" y="-6.000000">H901P</text></g><line x1="2597.866667" x2="2597.866667" y1="84.000000" y2="137.000000" stroke="#BABDB6" stroke-width="2"/><a xlink:title="P901P"><circle cx="2597.866667" cy="84.000000" r="4.000000" fill="#0000ff" /></a><g transform="translate(2597.866667,84.000000) rotate(-30)"><text style="font-size:10px;font-family:OpenSans;fill:#555;" text-anchor="middle" x="0" y="-6.000000">P901P</text></g><line x1="2600.733333" x2="2600.733333" y1="84.000000" y2="137.000000" stroke="#BABDB6" stroke-width="2"/><a xlink:title="P902P"><circle cx="2600.733333" cy="84.000000" r="4.000000" fill="#0000ff" /></a><g transform="translate(2600.733333,84.000000) rotate(-30)"><text style="font-size:10px;font-family:OpenSans;fill:#555;" text-anchor="middle" x="0" y="-6.000000">P902P</text></g><line x1="2603.600000" x2="2603.600000" y1="96.500000" y2="137.000000" stroke="#BABDB6" stroke-width="2"/><a xlink:title="Q903P"><circle cx="2603.600000" cy="96.500000" r="4.000000" fill="#ff0000" /></a><g transform="translate(2603.600000,96.500000) rotate(-30)"><text style="font-size:10px;font-family:OpenSans;fill:#555;" text-anchor="middle" x="0" y="-6.000000">Q903P</text></g><line x1="2606.466667" x2="2606.466667" y1="109.000000" y2="137.000000" stroke="#BABDB6" stroke-width="2"/><a xlink:title="Q904P"><circle cx="2606.466667" cy="109.000000" r="4.000000" fill="#ff0000" /></a><g transform="translate(2606.466667,109.000000) rotate(-30)"><text style="font-size:10px;font-family:OpenSans;fill:#555;" text-anchor="middle" x="0" y="-6.000000">Q904P</text></g><line x1="2655.200000" x2="2655.200000" y1="96.500000" y2="137.000000" stroke="#BABDB6" stroke-width="2"/><a xlink:title="H921P"><circle cx="2655.200000" cy="96.500000" r="4.000000" fill="#ff0000" /></a><g transform="translate(2655.200000,96.500000) rotate(-30)"><text style="font-size:10px;font-family:OpenSans;fill:#555;" text-anchor="middle" x="0" y="-6.000000">H921P</text></g><line x1="2658.066667" x2="2658.066667" y1="84.000000" y2="137.000000" stroke="#BABDB6" stroke-width="2"/><a xlink:title="P922P"><circle cx="2658.066667" cy="84.000000" r="4.000000" fill="#0000ff" /></a><g transform="translate(2658.066667,84.000000) rotate(-30)"><text style="font-size:10px;font-family:OpenSans;fill:#555;" text-anchor="middle" x="0" y="-6.000000">P922P</text></g><line x1="2663.800000" x2="2663.800000" y1="71.500000" y2="137.000000" stroke="#BABDB6" stroke-width="2"/><a xlink:title="Q924P"><circle cx="2663.800000" cy="71.500000" r="4.000000" fill="#ff0000" /></a><g transform="translate(2663.800000,71.500000) rotate(-30)"><text style="font-size:10px;font-family:OpenSans;fill:#555;" text-anchor="middle" x="0" y="-6.000000">Q924P</text></g><line x1="2663.800000" x2="2663.800000" y1="59.000000" y2="137.000000" stroke="#BABDB6" stroke-width="2"/><a xlink:title="H924P"><circle cx="2663.800000" cy="59.000000" r="4.000000" fill="#ff0000" /></a><g transform="translate(2663.800000,59.000000) rotate(-30)"><text style="font-size:10px;font-family:OpenSans;fill:#555;" text-anchor="middle" x="0" y="-6.000000">H924P</text></g><line x1="2666.666667" x2="2666.666667" y1="71.500000" y2="137.000000" stroke="#BABDB6" stroke-width="2"/><a xlink:title="H925P"><circle cx="2666.666667" cy="71.500000" r="4.000000" fill="#ff0000" /></a><g transform="translate(2666.666667,71.500000) rotate(-30)"><text style="font-size:10px;font-family:OpenSans;fill:#555;" text-anchor="middle" x="0" y="-6.000000">H925P</text></g><line x1="2666.666667" x2="2666.666667" y1="84.000000" y2="137.000000" stroke="#BABDB6" stroke-width="2"/><a xlink:title="P925P"><circle cx="2666.666667" cy="84.000000" r="4.000000" fill="#0000ff" /></a><g transform="translate(2666.666667,84.000000) rotate(-30)"><text style="font-size:10px;font-family:OpenSans;fill:#555;" text-anchor="middle" x="0" y="-6.000000">P925P</text></g><line x1="2669.533333" x2="2669.533333" y1="84.000000" y2="137.000000" stroke="#BABDB6" stroke-width="2"/><a xlink:title="P926P"><circle cx="2669.533333" cy="84.000000" r="4.000000" fill="#0000ff" /></a><g transform="translate(2669.533333,84.000000) rotate(-30)"><text style="font-size:10px;font-family:OpenSans;fill:#555;" text-anchor="middle" x="0" y="-6.000000">P926P</text></g><line x1="2672.400000" x2="2672.400000" y1="96.500000" y2="137.000000" stroke="#BABDB6" stroke-width="2"/><a xlink:title="Q927P"><circle cx="2672.400000" cy="96.500000" r="4.000000" fill="#ff0000" /></a><g transform="translate(2672.400000,96.500000) rotate(-30)"><text style="font-size:10px;font-family:OpenSans;fill:#555;" text-anchor="middle" x="0" y="-6.000000">Q927P</text></g><line x1="2675.266667" x2="2675.266667" y1="96.500000" y2="137.000000" stroke="#BABDB6" stroke-width="2"/><a xlink:title="Q928P"><circle cx="2675.266667" cy="96.500000" r="4.000000" fill="#ff0000" /></a><g transform="translate(2675.266667,96.500000) rotate(-30)"><text style="font-size:10px;font-family:OpenSans;fill:#555;" text-anchor="middle" x="0" y="-6.000000">Q928P</text></g><line x1="2681.000000" x2="2681.000000" y1="71.500000" y2="137.000000" stroke="#BABDB6" stroke-width="2"/><a xlink:title="H930P"><circle cx="2681.000000" cy="71.500000" r="4.000000" fill="#ff0000" /></a><g transform="translate(2681.000000,71.500000) rotate(-30)"><text style="font-size:10px;font-family:OpenSans;fill:#555;" text-anchor="middle" x="0" y="-6.000000">H930P</text></g><line x1="2683.866667" x2="2683.866667" y1="71.500000" y2="137.000000" stroke="#BABDB6" stroke-width="2"/><a xlink:title="H931P"><circle cx="2683.866667" cy="71.500000" r="4.000000" fill="#ff0000" /></a><g transform="translate(2683.866667,71.500000) rotate(-30)"><text style="font-size:10px;font-family:OpenSans;fill:#555;" text-anchor="middle" x="0" y="-6.000000">H931P</text></g><line x1="2683.866667" x2="2683.866667" y1="84.000000" y2="137.000000" stroke="#BABDB6" stroke-width="2"/><a xlink:title="P931P"><circle cx="2683.866667" cy="84.000000" r="4.000000" fill="#0000ff" /></a><g transform="translate(2683.866667,84.000000) rotate(-30)"><text style="font-size:10px;font-family:OpenSans;fill:#555;" text-anchor="middle" x="0" y="-6.000000">P931P</text></g><line x1="2686.733333" x2="2686.733333" y1="84.000000" y2="137.000000" stroke="#BABDB6" stroke-width="2"/><a xlink:title="P932P"><circle cx="2686.733333" cy="84.000000" r="4.000000" fill="#0000ff" /></a><g transform="translate(2686.733333,84.000000) rotate(-30)"><text style="font-size:10px;font-family:OpenSans;fill:#555;" text-anchor="middle" x="0" y="-6.000000">P932P</text></g><line x1="2689.600000" x2="2689.600000" y1="96.500000" y2="137.000000" stroke="#BABDB6" stroke-width="2"/><a xlink:title="Q933P"><circle cx="2689.600000" cy="96.500000" r="4.000000" fill="#ff0000" /></a><g transform="translate(2689.600000,96.500000) rotate(-30)"><text style="font-size:10px;font-family:OpenSans;fill:#555;" text-anchor="middle" x="0" y="-6.000000">Q933P</text></g><line x1="2692.466667" x2="2692.466667" y1="109.000000" y2="137.000000" stroke="#BABDB6" stroke-width="2"/><a xlink:title="Q934P"><circle cx="2692.466667" cy="109.000000" r="4.000000" fill="#ff0000" /></a><g transform="translate(2692.466667,109.000000) rotate(-30)"><text style="font-size:10px;font-family:OpenSans;fill:#555;" text-anchor="middle" x="0" y="-6.000000">Q934P</text></g><line x1="2767.000000" x2="2767.000000" y1="71.500000" y2="137.000000" stroke="#BABDB6" stroke-width="2"/><a xlink:title="H960P"><circle cx="2767.000000" cy="71.500000" r="4.000000" fill="#ff0000" /></a><g transform="translate(2767.000000,71.500000) rotate(-30)"><text style="font-size:10px;font-family:OpenSans;fill:#555;" text-anchor="middle" x="0" y="-6.000000">H960P</text></g><line x1="2769.866667" x2="2769.866667" y1="71.500000" y2="137.000000" stroke="#BABDB6" stroke-width="2"/><a xlink:title="H961P"><circle cx="2769.866667" cy="71.500000" r="4.000000" fill="#ff0000" /></a><g transform="translate(2769.866667,71.500000) rotate(-30)"><text style="font-size:10px;font-family:OpenSans;fill:#555;" text-anchor="middle" x="0" y="-6.000000">H961P</text></g><line x1="2769.866667" x2="2769.866667" y1="84.000000" y2="137.000000" stroke="#BABDB6" stroke-width="2"/><a xlink:title="P961P"><circle cx="2769.866667" cy="84.000000" r="4.000000" fill="#0000ff" /></a><g transform="translate(2769.866667,84.000000) rotate(-30)"><text style="font-size:10px;font-family:OpenSans;fill:#555;" text-anchor="middle" x="0" y="-6.000000">P961P</text></g><line x1="2772.733333" x2="2772.733333" y1="84.000000" y2="137.000000" stroke="#BABDB6" stroke-width="2"/><a xlink:title="P962P"><circle cx="2772.733333" cy="84.000000" r="4.000000" fill="#0000ff" /></a><g transform="translate(2772.733333,84.000000) rotate(-30)"><text style="font-size:10px;font-family:OpenSans;fill:#555;" text-anchor="middle" x="0" y="-6.000000">P962P</text></g><line x1="2775.600000" x2="2775.600000" y1="96.500000" y2="137.000000" stroke="#BABDB6" stroke-width="2"/><a xlink:title="Q963P"><circle cx="2775.600000" cy="96.500000" r="4.000000" fill="#ff0000" /></a><g transform="translate(2775.600000,96.500000) rotate(-30)"><text style="font-size:10px;font-family:OpenSans;fill:#555;" text-anchor="middle" x="0" y="-6.000000">Q963P</text></g><line x1="2778.466667" x2="2778.466667" y1="96.500000" y2="137.000000" stroke="#BABDB6" stroke-width="2"/><a xlink:title="Q964P"><circle cx="2778.466667" cy="96.500000" r="4.000000" fill="#ff0000" /></a><g transform="translate(2778.466667,96.500000) rotate(-30)"><text style="font-size:10px;font-family:OpenSans;fill:#555;" text-anchor="middle" x="0" y="-6.000000">Q964P</text></g><line x1="2784.200000" x2="2784.200000" y1="96.500000" y2="137.000000" stroke="#BABDB6" stroke-width="2"/><a xlink:title="H966P"><circle cx="2784.200000" cy="96.500000" r="4.000000" fill="#ff0000" /></a><g transform="translate(2784.200000,96.500000) rotate(-30)"><text style="font-size:10px;font-family:OpenSans;fill:#555;" text-anchor="middle" x="0" y="-6.000000">H966P</text></g><line x1="2787.066667" x2="2787.066667" y1="96.500000" y2="137.000000" stroke="#BABDB6" stroke-width="2"/><a xlink:title="P967P"><circle cx="2787.066667" cy="96.500000" r="4.000000" fill="#0000ff" /></a><g transform="translate(2787.066667,96.500000) rotate(-30)"><text style="font-size:10px;font-family:OpenSans;fill:#555;" text-anchor="middle" x="0" y="-6.000000">P967P</text></g><line x1="2792.800000" x2="2792.800000" y1="109.000000" y2="137.000000" stroke="#BABDB6" stroke-width="2"/><a xlink:title="Q969P"><circle cx="2792.800000" cy="109.000000" r="4.000000" fill="#ff0000" /></a><g transform="translate(2792.800000,109.000000) rotate(-30)"><text style="font-size:10px;font-family:OpenSans;fill:#555;" text-anchor="middle" x="0" y="-6.000000">Q969P</text></g><line x1="2830.066667" x2="2830.066667" y1="84.000000" y2="137.000000" stroke="#BABDB6" stroke-width="2"/><a xlink:title="H982P"><circle cx="2830.066667" cy="84.000000" r="4.000000" fill="#ff0000" /></a><g transform="translate(2830.066667,84.000000) rotate(-30)"><text style="font-size:10px;font-family:OpenSans;fill:#555;" text-anchor="middle" x="0" y="-6.000000">H982P</text></g><line x1="2832.933333" x2="2832.933333" y1="59.000000" y2="137.000000" stroke="#BABDB6" stroke-width="2"/><a xlink:title="P983P"><circle cx="2832.933333" cy="59.000000" r="4.000000" fill="#0000ff" /></a><g transform="translate(2832.933333,59.000000) rotate(-30)"><text style="font-size:10px;font-family:OpenSans;fill:#555;" text-anchor="middle" x="0" y="-6.000000">P983P</text></g><line x1="2835.800000" x2="2835.800000" y1="46.500000" y2="137.000000" stroke="#BABDB6" stroke-width="2"/><a xlink:title="H984P"><circle cx="2835.800000" cy="46.500000" r="4.000000" fill="#ff0000" /></a><g transform="translate(2835.800000,46.500000) rotate(-30)"><text style="font-size:10px;font-family:OpenSans;fill:#555;" text-anchor="middle" x="0" y="-6.000000">H984P</text></g><line x1="2838.666667" x2="2838.666667" y1="34.000000" y2="137.000000" stroke="#BABDB6" stroke-width="2"/><a xlink:title="H985P"><circle cx="2838.666667" cy="34.000000" r="4.000000" fill="#ff0000" /></a><g transform="translate(2838.666667,34.000000) rotate(-30)"><text style="font-size:10px;font-family:OpenSans;fill:#555;" text-anchor="middle" x="0" y="-6.000000">H985P</text></g><line x1="2838.666667" x2="2838.666667" y1="46.500000" y2="137.000000" stroke="#BABDB6" stroke-width="2"/><a xlink:title="P985P"><circle cx="2838.666667" cy="46.500000" r="4.000000" fill="#0000ff" /></a><g transform="translate(2838.666667,46.500000) rotate(-30)"><text style="font-size:10px;font-family:OpenSans;fill:#555;" text-anchor="middle" x="0" y="-6.000000">P985P</text></g><line x1="2838.666667" x2="2838.666667" y1="59.000000" y2="137.000000" stroke="#BABDB6" stroke-width="2"/><a xlink:title="Q985P"><circle cx="2838.666667" cy="59.000000" r="4.000000" fill="#ff0000" /></a><g transform="translate(2838.666667,59.000000) rotate(-30)"><text style="font-size:10px;font-family:OpenSans;fill:#555;" text-anchor="middle" x="0" y="-6.000000">Q985P</text></g><line x1="2841.533333" x2="2841.533333" y1="59.000000" y2="137.000000" stroke="#BABDB6" stroke-width="2"/><a xlink:title="P986P"><circle cx="2841.533333" cy="59.000000" r="4.000000" fill="#0000ff" /></a><g transform="translate(2841.533333,59.000000) rotate(-30)"><text style="font-size:10px;font-family:OpenSans;fill:#555;" text-anchor="middle" x="0" y="-6.000000">P986P</text></g><line x1="2841.533333" x2="2841.533333" y1="71.500000" y2="137.000000" stroke="#BABDB6" stroke-width="2"/><a xlink:title="R986R"><circle cx="2841.533333" cy="71.500000" r="4.000000" fill="#0000ff" /></a><g transform="translate(2841.533333,71.500000) rotate(-30)"><text style="font-size:10px;font-family:OpenSans;fill:#555;" text-anchor="middle" x="0" y="-6.000000">R986R</text></g><line x1="2844.400000" x2="2844.400000" y1="96.500000" y2="137.000000" stroke="#BABDB6" stroke-width="2"/><a xlink:title="R987R"><circle cx="2844.400000" cy="96.500000" r="4.000000" fill="#0000ff" /></a><g transform="translate(2844.400000,96.500000) rotate(-30)"><text style="font-size:10px;font-family:OpenSans;fill:#555;" text-anchor="middle" x="0" y="-6.000000">R987R</text></g><line x1="2844.400000" x2="2844.400000" y1="84.000000" y2="137.000000" stroke="#BABDB6" stroke-width="2"/><a xlink:title="Q987P"><circle cx="2844.400000" cy="84.000000" r="4.000000" fill="#ff0000" /></a><g transform="translate(2844.400000,84.000000) rotate(-30)"><text style="font-size:10px;font-family:OpenSans;fill:#555;" text-anchor="middle" x="0" y="-6.000000">Q987P</text></g><line x1="2847.266667" x2="2847.266667" y1="96.500000" y2="137.000000" stroke="#BABDB6" stroke-width="2"/><a xlink:title="Q988P"><circle cx="2847.266667" cy="96.500000" r="4.000000" fill="#ff0000" /></a><g transform="translate(2847.266667,96.500000) rotate(-30)"><text style="font-size:10px;font-family:OpenSans;fill:#555;" text-anchor="middle" x="0" y="-6.000000">Q988P</text></g><line x1="2853.000000" x2="2853.000000" y1="71.500000" y2="137.000000" stroke="#BABDB6" stroke-width="2"/><a xlink:title="H990P"><circle cx="2853.000000" cy="71.500000" r="4.000000" fill="#ff0000" /></a><g transform="translate(2853.000000,71.500000) rotate(-30)"><text style="font-size:10px;font-family:OpenSans;fill:#555;" text-anchor="middle" x="0" y="-6.000000">H990P</text></g><line x1="2855.866667" x2="2855.866667" y1="71.500000" y2="137.000000" stroke="#BABDB6" stroke-width="2"/><a xlink:title="H991P"><circle cx="2855.866667" cy="71.500000" r="4.000000" fill="#ff0000" /></a><g transform="translate(2855.866667,71.500000) rotate(-30)"><text style="font-size:10px;font-family:OpenSans;fill:#555;" text-anchor="middle" x="0" y="-6.000000">H991P</text></g><line x1="2855.866667" x2="2855.866667" y1="84.000000" y2="137.000000" stroke="#BABDB6" stroke-width="2"/><a xlink:title="P991P"><circle cx="2855.866667" cy="84.000000" r="4.000000" fill="#0000ff" /></a><g transform="translate(2855.866667,84.000000) rotate(-30)"><text style="font-size:10px;font-family:OpenSans;fill:#555;" text-anchor="middle" x="0" y="-6.000000">P991P</text></g><line x1="2858.733333" x2="2858.733333" y1="84.000000" y2="137.000000" stroke="#BABDB6" stroke-width="2"/><a xlink:title="P992P"><circle cx="2858.733333" cy="84.000000" r="4.000000" fill="#0000ff" /></a><g transform="translate(2858.733333,84.000000) rotate(-30)"><text style="font-size:10px;font-family:OpenSans;fill:#555;" text-anchor="middle" x="0" y="-6.000000">P992P</text></g><line x1="2861.600000" x2="2861.600000" y1="96.500000" y2="137.000000" stroke="#BABDB6" stroke-width="2"/><a xlink:title="Q993P"><circle cx="2861.600000" cy="96.500000" r="4.000000" fill="#ff0000" /></a><g transform="translate(2861.600000,96.500000) rotate(-30)"><text style="font-size:10px;font-family:OpenSans;fill:#555;" text-anchor="middle" x="0" y="-6.000000">Q993P</text></g><line x1="2864.466667" x2="2864.466667" y1="109.000000" y2="137.000000" stroke="#BABDB6" stroke-width="2"/><a xlink:title="Q994P"><circle cx="2864.466667" cy="109.000000" r="4.000000" fill="#ff0000" /></a><g transform="translate(2864.466667,109.000000) rotate(-30)"><text style="font-size:10px;font-family:OpenSans;fill:#555;" text-anchor="middle" x="0" y="-6.000000">Q994P</text></g><line x1="2901.733333" x2="2901.733333" y1="109.000000" y2="137.000000" stroke="#BABDB6" stroke-width="2"/><a xlink:title="R1007R"><circle cx="2901.733333" cy="109.000000" r="4.000000" fill="#0000ff" /></a><g transform="translate(2901.733333,109.000000) rotate(-30)"><text style="font-size:10px;font-family:OpenSans;fill:#555;" text-anchor="middle" x="0" y="-6.000000">R1007R</text></g><line x1="2927.533333" x2="2927.533333" y1="109.000000" y2="137.000000" stroke="#BABDB6" stroke-width="2"/><a xlink:title="R1016R"><circle cx="2927.533333" cy="109.000000" r="4.000000" fill="#0000ff" /></a><g transform="translate(2927.533333,109.000000) rotate(-30)"><text style="font-size:10px;font-family:OpenSans;fill:#555;" text-anchor="middle" x="0" y="-6.000000">R1016R</text></g><line x1="3013.533333" x2="3013.533333" y1="96.500000" y2="137.000000" stroke="#BABDB6" stroke-width="2"/><a xlink:title="R1046R"><circle cx="3013.533333" cy="96.500000" r="4.000000" fill="#0000ff" /></a><g transform="translate(3013.533333,96.500000) rotate(-30)"><text style="font-size:10px;font-family:OpenSans;fill:#555;" text-anchor="middle" x="0" y="-6.000000">R1046R</text></g><line x1="3016.400000" x2="3016.400000" y1="109.000000" y2="137.000000" stroke="#BABDB6" stroke-width="2"/><a xlink:title="R1047R"><circle cx="3016.400000" cy="109.000000" r="4.000000" fill="#0000ff" /></a><g transform="translate(3016.400000,109.000000) rotate(-30)"><text style="font-size:10px;font-family:OpenSans;fill:#555;" text-anchor="middle" x="0" y="-6.000000">R1047R</text></g><line x1="3030.733333" x2="3030.733333" y1="109.000000" y2="137.000000" stroke="#BABDB6" stroke-width="2"/><a xlink:title="R1052R"><circle cx="3030.733333" cy="109.000000" r="4.000000" fill="#0000ff" /></a><g transform="translate(3030.733333,109.000000) rotate(-30)"><text style="font-size:10px;font-family:OpenSans;fill:#555;" text-anchor="middle" x="0" y="-6.000000">R1052R</text></g><line x1="3076.600000" x2="3076.600000" y1="96.500000" y2="137.000000" stroke="#BABDB6" stroke-width="2"/><a xlink:title="R1068R"><circle cx="3076.600000" cy="96.500000" r="4.000000" fill="#0000ff" /></a><g transform="translate(3076.600000,96.500000) rotate(-30)"><text style="font-size:10px;font-family:OpenSans;fill:#555;" text-anchor="middle" x="0" y="-6.000000">R1068R</text></g><line x1="3082.333333" x2="3082.333333" y1="96.500000" y2="137.000000" stroke="#BABDB6" stroke-width="2"/><a xlink:title="R1070R"><circle cx="3082.333333" cy="96.500000" r="4.000000" fill="#0000ff" /></a><g transform="translate(3082.333333,96.500000) rotate(-30)"><text style="font-size:10px;font-family:OpenSans;fill:#555;" text-anchor="middle" x="0" y="-6.000000">R1070R</text></g><line x1="3085.200000" x2="3085.200000" y1="109.000000" y2="137.000000" stroke="#BABDB6" stroke-width="2"/><a xlink:title="R1071R"><circle cx="3085.200000" cy="109.000000" r="4.000000" fill="#0000ff" /></a><g transform="translate(3085.200000,109.000000) rotate(-30)"><text style="font-size:10px;font-family:OpenSans;fill:#555;" text-anchor="middle" x="0" y="-6.000000">R1071R</text></g><line x1="3099.533333" x2="3099.533333" y1="96.500000" y2="137.000000" stroke="#BABDB6" stroke-width="2"/><a xlink:title="R1076R"><circle cx="3099.533333" cy="96.500000" r="4.000000" fill="#0000ff" /></a><g transform="translate(3099.533333,96.500000) rotate(-30)"><text style="font-size:10px;font-family:OpenSans;fill:#555;" text-anchor="middle" x="0" y="-6.000000">R1076R</text></g><line x1="3102.400000" x2="3102.400000" y1="109.000000" y2="137.000000" stroke="#BABDB6" stroke-width="2"/><a xlink:title="R1077R"><circle cx="3102.400000" cy="109.000000" r="4.000000" fill="#0000ff" /></a><g transform="translate(3102.400000,109.000000) rotate(-30)"><text style="font-size:10px;font-family:OpenSans;fill:#555;" text-anchor="middle" x="0" y="-6.000000">R1077R</text></g><a xlink:title=",  (1075aa)"><rect fill="#BABDB6" x="15.000000" y="137.000000" width="3081.666667" height="14.000000"/></a><g transform="translate(359.000000,132.000000)"><a xlink:href="https://www.ebi.ac.uk/interpro/entry/pfam/PF14438" xlink:title="Ataxin 2 SM domain"><rect fill="#2DCF00" x="0" y="0" width="215.000000" height="24.000000" filter="url(#ds)"/><text style="font-size:12px;font-family:OpenSans;fill:#ffffff;" text-anchor="middle" x="107.500000" y="16.000000">Ataxin 2 SM domain</text></a></g>
<g transform="translate(771.800000,132.000000)"><a xlink:href="https://www.ebi.ac.uk/interpro/entry/pfam/PF06741" xlink:title="LsmAD domain"><rect fill="#FF5353" x="0" y="0" width="194.933333" height="24.000000" filter="url(#ds)"/><text style="font-size:12px;font-family:OpenSans;fill:#ffffff;" text-anchor="middle" x="97.466667" y="16.000000">LsmAD domain</text></a></g>
<g transform="translate(1889.800000,132.000000)"><a xlink:href="https://www.ebi.ac.uk/interpro/entry/pfam/PF07145" xlink:title="Ataxin-2 C-terminal region"><rect fill="#5B5BFF" x="0" y="0" width="43.000000" height="24.000000" filter="url(#ds)"/><text style="font-size:12px;font-family:OpenSans;fill:#ffffff;" text-anchor="middle" x="21.500000" y="16.000000">PAM2</text></a></g>
<g class="axis">
<line x1="15.000000" x2="3096.666667" y1="166.000000" y2="166.000000" stroke="#AAAAAA" /><line x1="15.000000" x2="15.000000" y1="166.000000" y2="171.000000" stroke="#AAAAAA" /><line x1="15.000000" x2="15.000000" y1="166.000000" y2="171.000000" stroke="#AAAAAA" /><text style="font-size:10px;font-family:OpenSans;fill:#000000;" text-anchor="middle" x="15.000000" y="181.000000">0</text><line x1="359.000000" x2="359.000000" y1="166.000000" y2="171.000000" stroke="#AAAAAA" /><text style="font-size:10px;font-family:OpenSans;fill:#000000;" text-anchor="middle" x="359.000000" y="181.000000">120</text><line x1="574.000000" x2="574.000000" y1="166.000000" y2="171.000000" stroke="#AAAAAA" /><text style="font-size:10px;font-family:OpenSans;fill:#000000;" text-anchor="middle" x="574.000000" y="181.000000">195</text><line x1="771.800000" x2="771.800000" y1="166.000000" y2="171.000000" stroke="#AAAAAA" /><text style="font-size:10px;font-family:OpenSans;fill:#000000;" text-anchor="middle" x="771.800000" y="181.000000">264</text><line x1="966.733333" x2="966.733333" y1="166.000000" y2="171.000000" stroke="#AAAAAA" /><text style="font-size:10px;font-family:OpenSans;fill:#000000;" text-anchor="middle" x="966.733333" y="181.000000">332</text><line x1="1018.333333" x2="1018.333333" y1="166.000000" y2="171.000000" stroke="#AAAAAA" /><text style="font-size:10px;font-family:OpenSans;fill:#000000;" text-anchor="middle" x="1018.333333" y="181.000000">350</text><line x1="1198.933333" x2="1198.933333" y1="166.000000" y2="171.000000" stroke="#AAAAAA" /><text style="font-size:10px;font-family:OpenSans;fill:#000000;" text-anchor="middle" x="1198.933333" y="181.000000">413</text><line x1="1425.400000" x2="1425.400000" y1="166.000000" y2="171.000000" stroke="#AAAAAA" /><text style="font-size:10px;font-family:OpenSans;fill:#000000;" text-anchor="middle" x="1425.400000" y="181.000000">492</text><line x1="1485.600000" x2="1485.600000" y1="166.000000" y2="171.000000" stroke="#AAAAAA" /><text style="font-size:10px;font-family:OpenSans;fill:#000000;" text-anchor="middle" x="1485.600000" y="181.000000">513</text><line x1="1511.400000" x2="1511.400000" y1="166.000000" y2="171.000000" stroke="#AAAAAA" /><text style="font-size:10px;font-family:OpenSans;fill:#000000;" text-anchor="middle" x="1511.400000" y="181.000000">522</text><line x1="1597.400000" x2="1597.400000" y1="166.000000" y2="171.000000" stroke="#AAAAAA" /><text style="font-size:10px;font-family:OpenSans;fill:#000000;" text-anchor="middle" x="1597.400000" y="181.000000">552</text><line x1="1614.600000" x2="1614.600000" y1="166.000000" y2="171.000000" stroke="#AAAAAA" /><text style="font-size:10px;font-family:OpenSans;fill:#000000;" text-anchor="middle" x="1614.600000" y="181.000000">558</text><line x1="1666.200000" x2="1666.200000" y1="166.000000" y2="171.000000" stroke="#AAAAAA" /><text style="font-size:10px;font-family:OpenSans;fill:#000000;" text-anchor="middle" x="1666.200000" y="181.000000">576</text><line x1="1683.400000" x2="1683.400000" y1="166.000000" y2="171.000000" stroke="#AAAAAA" /><text style="font-size:10px;font-family:OpenSans;fill:#000000;" text-anchor="middle" x="1683.400000" y="181.000000">582</text><line x1="1889.800000" x2="1889.800000" y1="166.000000" y2="171.000000" stroke="#AAAAAA" /><text style="font-size:10px;font-family:OpenSans;fill:#000000;" text-anchor="middle" x="1889.800000" y="181.000000">654</text><line x1="1932.800000" x2="1932.800000" y1="166.000000" y2="171.000000" stroke="#AAAAAA" /><text style="font-size:10px;font-family:OpenSans;fill:#000000;" text-anchor="middle" x="1932.800000" y="181.000000">669</text><line x1="2308.333333" x2="2308.333333" y1="166.000000" y2="171.000000" stroke="#AAAAAA" /><text style="font-size:10px;font-family:OpenSans;fill:#000000;" text-anchor="middle" x="2308.333333" y="181.000000">800</text><line x1="2368.533333" x2="2368.533333" y1="166.000000" y2="171.000000" stroke="#AAAAAA" /><text style="font-size:10px;font-family:OpenSans;fill:#000000;" text-anchor="middle" x="2368.533333" y="181.000000">821</text><line x1="2394.333333" x2="2394.333333" y1="166.000000" y2="171.000000" stroke="#AAAAAA" /><text style="font-size:10px;font-family:OpenSans;fill:#000000;" text-anchor="middle" x="2394.333333" y="181.000000">830</text><line x1="2480.333333" x2="2480.333333" y1="166.000000" y2="171.000000" stroke="#AAAAAA" /><text style="font-size:10px;font-family:OpenSans;fill:#000000;" text-anchor="middle" x="2480.333333" y="181.000000">860</text><line x1="2497.533333" x2="2497.533333" y1="166.000000" y2="171.000000" stroke="#AAAAAA" /><text style="font-size:10px;font-family:OpenSans;fill:#000000;" text-anchor="middle" x="2497.533333" y="181.000000">866</text><line x1="2549.133333" x2="2549.133333" y1="166.000000" y2="171.000000" stroke="#AAAAAA" /><text style="font-size:10px;font-family:OpenSans;fill:#000000;" text-anchor="middle" x="2549.133333" y="181.000000">884</text><line x1="2566.333333" x2="2566.333333" y1="166.000000" y2="171.000000" stroke="#AAAAAA" /><text style="font-size:10px;font-family:OpenSans;fill:#000000;" text-anchor="middle" x="2566.333333" y="181.000000">890</text><line x1="2595.000000" x2="2595.000000" y1="166.000000" y2="171.000000" stroke="#AAAAAA" /><text style="font-size:10px;font-family:OpenSans;fill:#000000;" text-anchor="middle" x="2595.000000" y="181.000000">900</text><line x1="2655.200000" x2="2655.200000" y1="166.000000" y2="171.000000" stroke="#AAAAAA" /><text style="font-size:10px;font-family:OpenSans;fill:#000000;" text-anchor="middle" x="2655.200000" y="181.000000">921</text><line x1="2672.400000" x2="2672.400000" y1="166.000000" y2="171.000000" stroke="#AAAAAA" /><text style="font-size:10px;font-family:OpenSans;fill:#000000;" text-anchor="middle" x="2672.400000" y="181.000000">927</text><line x1="2689.600000" x2="2689.600000" y1="166.000000" y2="171.000000" stroke="#AAAAAA" /><text style="font-size:10px;font-family:OpenSans;fill:#000000;" text-anchor="middle" x="2689.600000" y="181.000000">933</text><line x1="2767.000000" x2="2767.000000" y1="166.000000" y2="171.000000" stroke="#AAAAAA" /><text style="font-size:10px;font-family:OpenSans;fill:#000000;" text-anchor="middle" x="2767.000000" y="181.000000">960</text><line x1="2784.200000" x2="2784.200000" y1="166.000000" y2="171.000000" stroke="#AAAAAA" /><text style="font-size:10px;font-family:OpenSans;fill:#000000;" text-anchor="middle" x="2784.200000" y="181.000000">966</text><line x1="2830.066667" x2="2830.066667" y1="166.000000" y2="171.000000" stroke="#AAAAAA" /><text style="font-size:10px;font-family:OpenSans;fill:#000000;" text-anchor="middle" x="2830.066667" y="181.000000">982</text><line x1="2847.266667" x2="2847.266667" y1="166.000000" y2="171.000000" stroke="#AAAAAA" /><text style="font-size:10px;font-family:OpenSans;fill:#000000;" text-anchor="middle" x="2847.266667" y="181.000000">988</text><line x1="2864.466667" x2="2864.466667" y1="166.000000" y2="171.000000" stroke="#AAAAAA" /><text style="font-size:10px;font-family:OpenSans;fill:#000000;" text-anchor="middle" x="2864.466667" y="181.000000">994</text><line x1="2901.733333" x2="2901.733333" y1="166.000000" y2="171.000000" stroke="#AAAAAA" /><text style="font-size:10px;font-family:OpenSans;fill:#000000;" text-anchor="middle" x="2901.733333" y="181.000000">1007</text><line x1="2927.533333" x2="2927.533333" y1="166.000000" y2="171.000000" stroke="#AAAAAA" /><text style="font-size:10px;font-family:OpenSans;fill:#000000;" text-anchor="middle" x="2927.533333" y="181.000000">1016</text><line x1="3013.533333" x2="3013.533333" y1="166.000000" y2="171.000000" stroke="#AAAAAA" /><text style="font-size:10px;font-family:OpenSans;fill:#000000;" text-anchor="middle" x="3013.533333" y="181.000000">1046</text><line x1="3030.733333" x2="3030.733333" y1="166.000000" y2="171.000000" stroke="#AAAAAA" /><text style="font-size:10px;font-family:OpenSans;fill:#000000;" text-anchor="middle" x="3030.733333" y="181.000000">1052</text><line x1="3076.600000" x2="3076.600000" y1="166.000000" y2="171.000000" stroke="#AAAAAA" /><text style="font-size:10px;font-family:OpenSans;fill:#000000;" text-anchor="middle" x="3076.600000" y="181.000000">1068</text><line x1="3096.666667" x2="3096.666667" y1="166.000000" y2="171.000000" stroke="#AAAAAA" /><text style="font-size:10px;font-family:OpenSans;fill:#000000;" text-anchor="middle" x="3096.666667" y="181.000000">1075</text></g>
<rect fill="#5B5BFF" x="4" y="195.000000" width="12" height="12" filter="url(#ds)"/><text style="font-size:12px;font-family:OpenSans;fill:#000000;" text-anchor="start" x="20" y="207.000000">Ataxin-2 C-terminal region</text></svg>
