<?xml version='1.0'?>
<svg xmlns="http://www.w3.org/2000/svg" xmlns:xlink="http://www.w3.org/1999/xlink" width="547.943396" height="171.200000">
<defs>
  <filter id="ds" x="0" y="0">
    <feOffset in="SourceAlpha" dx="2" dy="2" />
    <feComponentTransfer><feFuncA type="linear" slope="0.2"/></feComponentTransfer>
    <feGaussianBlur result="blurOut" stdDeviation="1" />
    <feBlend in="SourceGraphic" in2="blurOut" mode="normal" />
  </filter>
  <pattern id="disordered-hatch" patternUnits="userSpaceOnUse" width="4" height="4">
    <path d="M-1,1 l2,-2 M0,4 l4,-4 M3,5 l2,-2" stroke="#000000" opacity="0.3" />
  </pattern>
</defs>
<line x1="16.830189" x2="16.830189" y1="34.000000" y2="87.000000" stroke="#BABDB6" stroke-width="2"/><a xlink:title="T2I"><circle cx="16.830189" cy="34.000000" r="4.000000" fill="#ff0000" /></a><g transform="translate(16.830189,34.000000) rotate(-30)"><text style="font-size:10px;font-family:OpenSans;fill:#555;" text-anchor="middle" x="0" y="-6.000000">T2I</text></g><line x1="16.830189" x2="16.830189" y1="46.500000" y2="87.000000" stroke="#BABDB6" stroke-width="2"/><a xlink:title="G2E"><circle cx="16.830189" cy="46.500000" r="4.000000" fill="#ff0000" /></a><g transform="translate(16.830189,46.500000) rotate(-30)"><text style="font-size:10px;font-family:OpenSans;fill:#555;" text-anchor="middle" x="0" y="-6.000000">G2E</text></g><line x1="17.745283" x2="17.745283" y1="59.000000" y2="87.000000" stroke="#BABDB6" stroke-width="2"/><a xlink:title="S3L"><circle cx="17.745283" cy="59.000000" r="4.000000" fill="#ff0000" /></a><g transform="translate(17.745283,59.000000) rotate(-30)"><text style="font-size:10px;font-family:OpenSans;fill:#555;" text-anchor="middle" x="0" y="-6.000000">S3L</text></g><line x1="454.245283" x2="454.245283" y1="59.000000" y2="87.000000" stroke="#BABDB6" stroke-width="2"/><a xlink:title="A480T"><circle cx="454.245283" cy="59.000000" r="4.000000" fill="#ff0000" /></a><g transform="translate(454.245283,59.000000) rotate(-30)"><text style="font-size:10px;font-family:OpenSans;fill:#555;" text-anchor="middle" x="0" y="-6.000000">A480T</text></g><line x1="478.037736" x2="478.037736" y1="59.000000" y2="87.000000" stroke="#BABDB6" stroke-width="2"/><a xlink:title="A506T"><circle cx="478.037736" cy="59.000000" r="4.000000" fill="#ff0000" /></a><g transform="translate(478.037736,59.000000) rotate(-30)"><text style="font-size:10px;font-family:OpenSans;fill:#555;" text-anchor="middle" x="0" y="-6.000000">A506T</text></g><line x1="532.943396" x2="532.943396" y1="59.000000" y2="87.000000" stroke="#BABDB6" stroke-width="2"/><a xlink:title="A566T"><circle cx="532.943396" cy="59.000000" r="4.000000" fill="#ff0000" /></a><g transform="translate(532.943396,59.000000) rotate(-30)"><text style="font-size:10px;font-family:OpenSans;fill:#555;" text-anchor="middle" x="0" y="-6.000000">A566T</text></g><a xlink:title=",  (566aa)"><rect fill="#BABDB6" x="15.000000" y="87.000000" width="517.943396" height="14.000000"/></a><g transform="translate(313.320755,82.000000)"><a xlink:href="https://www.ebi.ac.uk/interpro/entry/pfam/PF00535" xlink:title="Glycosyl transferase family 2"><rect fill="#2DCF00" x="0" y="0" width="97.000000" height="24.000000" filter="url(#ds)"/><text style="font-size:12px;font-family:OpenSans;fill:#ffffff;" text-anchor="middle" x="48.500000" y="16.000000">Glycos_transf_2</text></a></g>
<g class="axis">
<line x1="15.000000" x2="532.943396" y1="116.000000" y2="116.000000" stroke="#AAAAAA" /><line x1="15.000000" x2="15.000000" y1="116.000000" y2="121.000000" stroke="#AAAAAA" /><line x1="16.830189" x2="16.830189" y1="116.000000" y2="121.000000" stroke="#AAAAAA" /><text style="font-size:10px;font-family:OpenSans;fill:#000000;" text-anchor="middle" x="16.830189" y="131.000000">2</text><line x1="313.320755" x2="313.320755" y1="116.000000" y2="121.000000" stroke="#AAAAAA" /><text style="font-size:10px;font-family:OpenSans;fill:#000000;" text-anchor="middle" x="313.320755" y="131.000000">326</text><line x1="410.320755" x2="410.320755" y1="116.000000" y2="121.000000" stroke="#AAAAAA" /><text style="font-size:10px;font-family:OpenSans;fill:#000000;" text-anchor="middle" x="410.320755" y="131.000000">432</text><line x1="454.245283" x2="454.245283" y1="116.000000" y2="121.000000" stroke="#AAAAAA" /><text style="font-size:10px;font-family:OpenSans;fill:#000000;" text-anchor="middle" x="454.245283" y="131.000000">480</text><line x1="478.037736" x2="478.037736" y1="116.000000" y2="121.000000" stroke="#AAAAAA" /><text style="font-size:10px;font-family:OpenSans;fill:#000000;" text-anchor="middle" x="478.037736" y="131.000000">506</text><line x1="532.943396" x2="532.943396" y1="116.000000" y2="121.000000" stroke="#AAAAAA" /><text style="font-size:10px;font-family:OpenSans;fill:#000000;" text-anchor="middle" x="532.943396" y="131.000000">566</text></g>
<rect fill="#2DCF00" x="4" y="145.000000" width="12" height="12" filter="url(#ds)"/><text style="font-size:12px;font-family:OpenSans;fill:#000000;" text-anchor="start" x="20" y="157.000000">Glycosyl transferase family 2</text></svg>
