<?xml version='1.0'?>
<svg xmlns="http://www.w3.org/2000/svg" xmlns:xlink="http://www.w3.org/1999/xlink" width="430.000000" height="133.000000">
<defs>
  <filter id="ds" x="0" y="0">
    <feOffset in="SourceAlpha" dx="2" dy="2" />
    <feComponentTransfer><feFuncA type="linear" slope="0.2"/></feComponentTransfer>
    <feGaussianBlur result="blurOut" stdDeviation="1" />
    <feBlend in="SourceGraphic" in2="blurOut" mode="normal" />
  </filter>
  <pattern id="disordered-hatch" patternUnits="userSpaceOnUse" width="4" height="4">
    <path d="M-1,1 l2,-2 M0,4 l4,-4 M3,5 l2,-2" stroke="#000000" opacity="0.3" />
  </pattern>
</defs>
<line x1="28.333333" x2="28.333333" y1="34.000000" y2="62.000000" stroke="#BABDB6" stroke-width="2"/><a xlink:title="N3D"><circle cx="28.333333" cy="34.000000" r="4.000000" fill="#ff0000" /></a><g transform="translate(28.333333,34.000000) rotate(-30)"><text style="font-size:10px;font-family:OpenSans;fill:#555;" text-anchor="middle" x="0" y="-6.000000">N3D</text></g><line x1="50.555556" x2="50.555556" y1="34.000000" y2="62.000000" stroke="#BABDB6" stroke-width="2"/><a xlink:title="N8D"><circle cx="50.555556" cy="34.000000" r="4.000000" fill="#ff0000" /></a><g transform="translate(50.555556,34.000000) rotate(-30)"><text style="font-size:10px;font-family:OpenSans;fill:#555;" text-anchor="middle" x="0" y="-6.000000">N8D</text></g><line x1="59.444444" x2="59.444444" y1="34.000000" y2="62.000000" stroke="#BABDB6" stroke-width="2"/><a xlink:title="N10D"><circle cx="59.444444" cy="34.000000" r="4.000000" fill="#ff0000" /></a><g transform="translate(59.444444,34.000000) rotate(-30)"><text style="font-size:10px;font-family:OpenSans;fill:#555;" text-anchor="middle" x="0" y="-6.000000">N10D</text></g><line x1="197.222222" x2="197.222222" y1="34.000000" y2="62.000000" stroke="#BABDB6" stroke-width="2"/><a xlink:title="N41N"><circle cx="197.222222" cy="34.000000" r="4.000000" fill="#0000ff" /></a><g transform="translate(197.222222,34.000000) rotate(-30)"><text style="font-size:10px;font-family:OpenSans;fill:#555;" text-anchor="middle" x="0" y="-6.000000">N41N</text></g><line x1="219.444444" x2="219.444444" y1="34.000000" y2="62.000000" stroke="#BABDB6" stroke-width="2"/><a xlink:title="N46N"><circle cx="219.444444" cy="34.000000" r="4.000000" fill="#0000ff" /></a><g transform="translate(219.444444,34.000000) rotate(-30)"><text style="font-size:10px;font-family:OpenSans;fill:#555;" text-anchor="middle" x="0" y="-6.000000">N46N</text></g><line x1="228.333333" x2="228.333333" y1="34.000000" y2="62.000000" stroke="#BABDB6" stroke-width="2"/><a xlink:title="N48N"><circle cx="228.333333" cy="34.000000" r="4.000000" fill="#0000ff" /></a><g transform="translate(228.333333,34.000000) rotate(-30)"><text style="font-size:10px;font-family:OpenSans;fill:#555;" text-anchor="middle" x="0" y="-6.000000">N48N</text></g><line x1="361.666667" x2="361.666667" y1="34.000000" y2="62.000000" stroke="#BABDB6" stroke-width="2"/><a xlink:title="T78S"><circle cx="361.666667" cy="34.000000" r="4.000000" fill="#ff0000" /></a><g transform="translate(361.666667,34.000000) rotate(-30)"><text style="font-size:10px;font-family:OpenSans;fill:#555;" text-anchor="middle" x="0" y="-6.000000">T78S</text></g><line x1="383.888889" x2="383.888889" y1="34.000000" y2="62.000000" stroke="#BABDB6" stroke-width="2"/><a xlink:title="T83S"><circle cx="383.888889" cy="34.000000" r="4.000000" fill="#ff0000" /></a><g transform="translate(383.888889,34.000000) rotate(-30)"><text style="font-size:10px;font-family:OpenSans;fill:#555;" text-anchor="middle" x="0" y="-6.000000">T83S</text></g><line x1="392.777778" x2="392.777778" y1="34.000000" y2="62.000000" stroke="#BABDB6" stroke-width="2"/><a xlink:title="T85S"><circle cx="392.777778" cy="34.000000" r="4.000000" fill="#ff0000" /></a><g transform="translate(392.777778,34.000000) rotate(-30)"><text style="font-size:10px;font-family:OpenSans;fill:#555;" text-anchor="middle" x="0" y="-6.000000">T85S</text></g><a xlink:title=",  (90aa)"><rect fill="#BABDB6" x="15.000000" y="62.000000" width="400.000000" height="14.000000"/></a><g transform="translate(28.333333,57.000000)"><a xlink:href="https://www.ebi.ac.uk/interpro/entry/pfam/PF02961" xlink:title="Barrier to autointegration factor"><rect fill="#2DCF00" x="0" y="0" width="382.222222" height="24.000000" filter="url(#ds)"/><text style="font-size:12px;font-family:OpenSans;fill:#ffffff;" text-anchor="middle" x="191.111111" y="16.000000">Barrier to autointegration factor</text></a></g>
<g class="axis">
<line x1="15.000000" x2="415.000000" y1="91.000000" y2="91.000000" stroke="#AAAAAA" /><line x1="15.000000" x2="15.000000" y1="91.000000" y2="96.000000" stroke="#AAAAAA" /><line x1="28.333333" x2="28.333333" y1="91.000000" y2="96.000000" stroke="#AAAAAA" /><text style="font-size:10px;font-family:OpenSans;fill:#000000;" text-anchor="middle" x="28.333333" y="106.000000">3</text><line x1="50.555556" x2="50.555556" y1="91.000000" y2="96.000000" stroke="#AAAAAA" /><text style="font-size:10px;font-family:OpenSans;fill:#000000;" text-anchor="middle" x="50.555556" y="106.000000">8</text><line x1="197.222222" x2="197.222222" y1="91.000000" y2="96.000000" stroke="#AAAAAA" /><text style="font-size:10px;font-family:OpenSans;fill:#000000;" text-anchor="middle" x="197.222222" y="106.000000">41</text><line x1="219.444444" x2="219.444444" y1="91.000000" y2="96.000000" stroke="#AAAAAA" /><text style="font-size:10px;font-family:OpenSans;fill:#000000;" text-anchor="middle" x="219.444444" y="106.000000">46</text><line x1="361.666667" x2="361.666667" y1="91.000000" y2="96.000000" stroke="#AAAAAA" /><text style="font-size:10px;font-family:OpenSans;fill:#000000;" text-anchor="middle" x="361.666667" y="106.000000">78</text><line x1="383.888889" x2="383.888889" y1="91.000000" y2="96.000000" stroke="#AAAAAA" /><text style="font-size:10px;font-family:OpenSans;fill:#000000;" text-anchor="middle" x="383.888889" y="106.000000">83</text><line x1="415.000000" x2="415.000000" y1="91.000000" y2="96.000000" stroke="#AAAAAA" /><text style="font-size:10px;font-family:OpenSans;fill:#000000;" text-anchor="middle" x="415.000000" y="106.000000">90</text></g>
</svg>
