<?xml version='1.0'?>
<svg xmlns="http://www.w3.org/2000/svg" xmlns:xlink="http://www.w3.org/1999/xlink" width="2042.185714" height="310.100000">
<defs>
  <filter id="ds" x="0" y="0">
    <feOffset in="SourceAlpha" dx="2" dy="2" />
    <feComponentTransfer><feFuncA type="linear" slope="0.2"/></feComponentTransfer>
    <feGaussianBlur result="blurOut" stdDeviation="1" />
    <feBlend in="SourceGraphic" in2="blurOut" mode="normal" />
  </filter>
  <pattern id="disordered-hatch" patternUnits="userSpaceOnUse" width="4" height="4">
    <path d="M-1,1 l2,-2 M0,4 l4,-4 M3,5 l2,-2" stroke="#000000" opacity="0.3" />
  </pattern>
</defs>
<line x1="208.885714" x2="208.885714" y1="171.500000" y2="199.500000" stroke="#BABDB6" stroke-width="2"/><a xlink:title="L468L"><circle cx="208.885714" cy="171.500000" r="4.000000" fill="#0000ff" /></a><g transform="translate(208.885714,171.500000) rotate(-30)"><text style="font-size:10px;font-family:OpenSans;fill:#555;" text-anchor="middle" x="0" y="-6.000000">L468L</text></g><line x1="240.785714" x2="240.785714" y1="171.500000" y2="199.500000" stroke="#BABDB6" stroke-width="2"/><a xlink:title="L545L"><circle cx="240.785714" cy="171.500000" r="4.000000" fill="#0000ff" /></a><g transform="translate(240.785714,171.500000) rotate(-30)"><text style="font-size:10px;font-family:OpenSans;fill:#555;" text-anchor="middle" x="0" y="-6.000000">L545L</text></g><line x1="252.385714" x2="252.385714" y1="171.500000" y2="199.500000" stroke="#BABDB6" stroke-width="2"/><a xlink:title="L573L"><circle cx="252.385714" cy="171.500000" r="4.000000" fill="#0000ff" /></a><g transform="translate(252.385714,171.500000) rotate(-30)"><text style="font-size:10px;font-family:OpenSans;fill:#555;" text-anchor="middle" x="0" y="-6.000000">L573L</text></g><line x1="814.571429" x2="814.571429" y1="159.000000" y2="199.500000" stroke="#BABDB6" stroke-width="2"/><a xlink:title="E1930E"><circle cx="814.571429" cy="159.000000" r="4.000000" fill="#0000ff" /></a><g transform="translate(814.571429,159.000000) rotate(-30)"><text style="font-size:10px;font-family:OpenSans;fill:#555;" text-anchor="middle" x="0" y="-6.000000">E1930E</text></g><line x1="816.228571" x2="816.228571" y1="171.500000" y2="199.500000" stroke="#BABDB6" stroke-width="2"/><a xlink:title="E1934E"><circle cx="816.228571" cy="171.500000" r="4.000000" fill="#0000ff" /></a><g transform="translate(816.228571,171.500000) rotate(-30)"><text style="font-size:10px;font-family:OpenSans;fill:#555;" text-anchor="middle" x="0" y="-6.000000">E1934E</text></g><line x1="826.171429" x2="826.171429" y1="159.000000" y2="199.500000" stroke="#BABDB6" stroke-width="2"/><a xlink:title="E1958E"><circle cx="826.171429" cy="159.000000" r="4.000000" fill="#0000ff" /></a><g transform="translate(826.171429,159.000000) rotate(-30)"><text style="font-size:10px;font-family:OpenSans;fill:#555;" text-anchor="middle" x="0" y="-6.000000">E1958E</text></g><line x1="827.828571" x2="827.828571" y1="171.500000" y2="199.500000" stroke="#BABDB6" stroke-width="2"/><a xlink:title="E1962E"><circle cx="827.828571" cy="171.500000" r="4.000000" fill="#0000ff" /></a><g transform="translate(827.828571,171.500000) rotate(-30)"><text style="font-size:10px;font-family:OpenSans;fill:#555;" text-anchor="middle" x="0" y="-6.000000">E1962E</text></g><line x1="838.600000" x2="838.600000" y1="121.500000" y2="199.500000" stroke="#BABDB6" stroke-width="2"/><a xlink:title="E1988E"><circle cx="838.600000" cy="121.500000" r="4.000000" fill="#0000ff" /></a><g transform="translate(838.600000,121.500000) rotate(-30)"><text style="font-size:10px;font-family:OpenSans;fill:#555;" text-anchor="middle" x="0" y="-6.000000">E1988E</text></g><line x1="839.842857" x2="839.842857" y1="134.000000" y2="199.500000" stroke="#BABDB6" stroke-width="2"/><a xlink:title="E1991E"><circle cx="839.842857" cy="134.000000" r="4.000000" fill="#0000ff" /></a><g transform="translate(839.842857,134.000000) rotate(-30)"><text style="font-size:10px;font-family:OpenSans;fill:#555;" text-anchor="middle" x="0" y="-6.000000">E1991E</text></g><line x1="840.257143" x2="840.257143" y1="134.000000" y2="199.500000" stroke="#BABDB6" stroke-width="2"/><a xlink:title="E1992E"><circle cx="840.257143" cy="134.000000" r="4.000000" fill="#0000ff" /></a><g transform="translate(840.257143,134.000000) rotate(-30)"><text style="font-size:10px;font-family:OpenSans;fill:#555;" text-anchor="middle" x="0" y="-6.000000">E1992E</text></g><line x1="841.500000" x2="841.500000" y1="146.500000" y2="199.500000" stroke="#BABDB6" stroke-width="2"/><a xlink:title="E1995E"><circle cx="841.500000" cy="146.500000" r="4.000000" fill="#0000ff" /></a><g transform="translate(841.500000,146.500000) rotate(-30)"><text style="font-size:10px;font-family:OpenSans;fill:#555;" text-anchor="middle" x="0" y="-6.000000">E1995E</text></g><line x1="844.400000" x2="844.400000" y1="146.500000" y2="199.500000" stroke="#BABDB6" stroke-width="2"/><a xlink:title="E2002E"><circle cx="844.400000" cy="146.500000" r="4.000000" fill="#0000ff" /></a><g transform="translate(844.400000,146.500000) rotate(-30)"><text style="font-size:10px;font-family:OpenSans;fill:#555;" text-anchor="middle" x="0" y="-6.000000">E2002E</text></g><line x1="846.057143" x2="846.057143" y1="159.000000" y2="199.500000" stroke="#BABDB6" stroke-width="2"/><a xlink:title="E2006E"><circle cx="846.057143" cy="159.000000" r="4.000000" fill="#0000ff" /></a><g transform="translate(846.057143,159.000000) rotate(-30)"><text style="font-size:10px;font-family:OpenSans;fill:#555;" text-anchor="middle" x="0" y="-6.000000">E2006E</text></g><line x1="848.128571" x2="848.128571" y1="146.500000" y2="199.500000" stroke="#BABDB6" stroke-width="2"/><a xlink:title="E2011E"><circle cx="848.128571" cy="146.500000" r="4.000000" fill="#0000ff" /></a><g transform="translate(848.128571,146.500000) rotate(-30)"><text style="font-size:10px;font-family:OpenSans;fill:#555;" text-anchor="middle" x="0" y="-6.000000">E2011E</text></g><line x1="852.271429" x2="852.271429" y1="146.500000" y2="199.500000" stroke="#BABDB6" stroke-width="2"/><a xlink:title="E2021E"><circle cx="852.271429" cy="146.500000" r="4.000000" fill="#0000ff" /></a><g transform="translate(852.271429,146.500000) rotate(-30)"><text style="font-size:10px;font-family:OpenSans;fill:#555;" text-anchor="middle" x="0" y="-6.000000">E2021E</text></g><line x1="853.928571" x2="853.928571" y1="146.500000" y2="199.500000" stroke="#BABDB6" stroke-width="2"/><a xlink:title="E2025E"><circle cx="853.928571" cy="146.500000" r="4.000000" fill="#0000ff" /></a><g transform="translate(853.928571,146.500000) rotate(-30)"><text style="font-size:10px;font-family:OpenSans;fill:#555;" text-anchor="middle" x="0" y="-6.000000">E2025E</text></g><line x1="858.071429" x2="858.071429" y1="159.000000" y2="199.500000" stroke="#BABDB6" stroke-width="2"/><a xlink:title="E2035E"><circle cx="858.071429" cy="159.000000" r="4.000000" fill="#0000ff" /></a><g transform="translate(858.071429,159.000000) rotate(-30)"><text style="font-size:10px;font-family:OpenSans;fill:#555;" text-anchor="middle" x="0" y="-6.000000">E2035E</text></g><line x1="859.728571" x2="859.728571" y1="171.500000" y2="199.500000" stroke="#BABDB6" stroke-width="2"/><a xlink:title="E2039E"><circle cx="859.728571" cy="171.500000" r="4.000000" fill="#0000ff" /></a><g transform="translate(859.728571,171.500000) rotate(-30)"><text style="font-size:10px;font-family:OpenSans;fill:#555;" text-anchor="middle" x="0" y="-6.000000">E2039E</text></g><line x1="1636.100000" x2="1636.100000" y1="146.500000" y2="199.500000" stroke="#BABDB6" stroke-width="2"/><a xlink:title="R3913C"><circle cx="1636.100000" cy="146.500000" r="4.000000" fill="#ff0000" /></a><g transform="translate(1636.100000,146.500000) rotate(-30)"><text style="font-size:10px;font-family:OpenSans;fill:#555;" text-anchor="middle" x="0" y="-6.000000">R3913C</text></g><line x1="1638.171429" x2="1638.171429" y1="159.000000" y2="199.500000" stroke="#BABDB6" stroke-width="2"/><a xlink:title="R3918C"><circle cx="1638.171429" cy="159.000000" r="4.000000" fill="#ff0000" /></a><g transform="translate(1638.171429,159.000000) rotate(-30)"><text style="font-size:10px;font-family:OpenSans;fill:#555;" text-anchor="middle" x="0" y="-6.000000">R3918C</text></g><line x1="1639.828571" x2="1639.828571" y1="171.500000" y2="199.500000" stroke="#BABDB6" stroke-width="2"/><a xlink:title="R3922C"><circle cx="1639.828571" cy="171.500000" r="4.000000" fill="#ff0000" /></a><g transform="translate(1639.828571,171.500000) rotate(-30)"><text style="font-size:10px;font-family:OpenSans;fill:#555;" text-anchor="middle" x="0" y="-6.000000">R3922C</text></g><line x1="1646.042857" x2="1646.042857" y1="109.000000" y2="199.500000" stroke="#BABDB6" stroke-width="2"/><a xlink:title="R3937C"><circle cx="1646.042857" cy="109.000000" r="4.000000" fill="#ff0000" /></a><g transform="translate(1646.042857,109.000000) rotate(-30)"><text style="font-size:10px;font-family:OpenSans;fill:#555;" text-anchor="middle" x="0" y="-6.000000">R3937C</text></g><line x1="1647.285714" x2="1647.285714" y1="121.500000" y2="199.500000" stroke="#BABDB6" stroke-width="2"/><a xlink:title="R3940C"><circle cx="1647.285714" cy="121.500000" r="4.000000" fill="#ff0000" /></a><g transform="translate(1647.285714,121.500000) rotate(-30)"><text style="font-size:10px;font-family:OpenSans;fill:#555;" text-anchor="middle" x="0" y="-6.000000">R3940C</text></g><line x1="1647.700000" x2="1647.700000" y1="134.000000" y2="199.500000" stroke="#BABDB6" stroke-width="2"/><a xlink:title="R3941C"><circle cx="1647.700000" cy="134.000000" r="4.000000" fill="#ff0000" /></a><g transform="translate(1647.700000,134.000000) rotate(-30)"><text style="font-size:10px;font-family:OpenSans;fill:#555;" text-anchor="middle" x="0" y="-6.000000">R3941C</text></g><line x1="1648.942857" x2="1648.942857" y1="146.500000" y2="199.500000" stroke="#BABDB6" stroke-width="2"/><a xlink:title="R3944C"><circle cx="1648.942857" cy="146.500000" r="4.000000" fill="#ff0000" /></a><g transform="translate(1648.942857,146.500000) rotate(-30)"><text style="font-size:10px;font-family:OpenSans;fill:#555;" text-anchor="middle" x="0" y="-6.000000">R3944C</text></g><line x1="1649.771429" x2="1649.771429" y1="159.000000" y2="199.500000" stroke="#BABDB6" stroke-width="2"/><a xlink:title="R3946C"><circle cx="1649.771429" cy="159.000000" r="4.000000" fill="#ff0000" /></a><g transform="translate(1649.771429,159.000000) rotate(-30)"><text style="font-size:10px;font-family:OpenSans;fill:#555;" text-anchor="middle" x="0" y="-6.000000">R3946C</text></g><line x1="1651.428571" x2="1651.428571" y1="159.000000" y2="199.500000" stroke="#BABDB6" stroke-width="2"/><a xlink:title="R3950C"><circle cx="1651.428571" cy="159.000000" r="4.000000" fill="#ff0000" /></a><g transform="translate(1651.428571,159.000000) rotate(-30)"><text style="font-size:10px;font-family:OpenSans;fill:#555;" text-anchor="middle" x="0" y="-6.000000">R3950C</text></g><line x1="1657.228571" x2="1657.228571" y1="59.000000" y2="199.500000" stroke="#BABDB6" stroke-width="2"/><a xlink:title="R3964C"><circle cx="1657.228571" cy="59.000000" r="4.000000" fill="#ff0000" /></a><g transform="translate(1657.228571,59.000000) rotate(-30)"><text style="font-size:10px;font-family:OpenSans;fill:#555;" text-anchor="middle" x="0" y="-6.000000">R3964C</text></g><line x1="1657.642857" x2="1657.642857" y1="59.000000" y2="199.500000" stroke="#BABDB6" stroke-width="2"/><a xlink:title="R3965C"><circle cx="1657.642857" cy="59.000000" r="4.000000" fill="#ff0000" /></a><g transform="translate(1657.642857,59.000000) rotate(-30)"><text style="font-size:10px;font-family:OpenSans;fill:#555;" text-anchor="middle" x="0" y="-6.000000">R3965C</text></g><line x1="1658.471429" x2="1658.471429" y1="46.500000" y2="199.500000" stroke="#BABDB6" stroke-width="2"/><a xlink:title="R3967C"><circle cx="1658.471429" cy="46.500000" r="4.000000" fill="#ff0000" /></a><g transform="translate(1658.471429,46.500000) rotate(-30)"><text style="font-size:10px;font-family:OpenSans;fill:#555;" text-anchor="middle" x="0" y="-6.000000">R3967C</text></g><line x1="1659.714286" x2="1659.714286" y1="34.000000" y2="199.500000" stroke="#BABDB6" stroke-width="2"/><a xlink:title="R3970C"><circle cx="1659.714286" cy="34.000000" r="4.000000" fill="#ff0000" /></a><g transform="translate(1659.714286,34.000000) rotate(-30)"><text style="font-size:10px;font-family:OpenSans;fill:#555;" text-anchor="middle" x="0" y="-6.000000">R3970C</text></g><line x1="1660.128571" x2="1660.128571" y1="34.000000" y2="199.500000" stroke="#BABDB6" stroke-width="2"/><a xlink:title="R3971C"><circle cx="1660.128571" cy="34.000000" r="4.000000" fill="#ff0000" /></a><g transform="translate(1660.128571,34.000000) rotate(-30)"><text style="font-size:10px;font-family:OpenSans;fill:#555;" text-anchor="middle" x="0" y="-6.000000">R3971C</text></g><line x1="1660.957143" x2="1660.957143" y1="46.500000" y2="199.500000" stroke="#BABDB6" stroke-width="2"/><a xlink:title="R3973C"><circle cx="1660.957143" cy="46.500000" r="4.000000" fill="#ff0000" /></a><g transform="translate(1660.957143,46.500000) rotate(-30)"><text style="font-size:10px;font-family:OpenSans;fill:#555;" text-anchor="middle" x="0" y="-6.000000">R3973C</text></g><line x1="1661.371429" x2="1661.371429" y1="59.000000" y2="199.500000" stroke="#BABDB6" stroke-width="2"/><a xlink:title="R3974C"><circle cx="1661.371429" cy="59.000000" r="4.000000" fill="#ff0000" /></a><g transform="translate(1661.371429,59.000000) rotate(-30)"><text style="font-size:10px;font-family:OpenSans;fill:#555;" text-anchor="middle" x="0" y="-6.000000">R3974C</text></g><line x1="1661.785714" x2="1661.785714" y1="59.000000" y2="199.500000" stroke="#BABDB6" stroke-width="2"/><a xlink:title="R3975C"><circle cx="1661.785714" cy="59.000000" r="4.000000" fill="#ff0000" /></a><g transform="translate(1661.785714,59.000000) rotate(-30)"><text style="font-size:10px;font-family:OpenSans;fill:#555;" text-anchor="middle" x="0" y="-6.000000">R3975C</text></g><line x1="1662.200000" x2="1662.200000" y1="59.000000" y2="199.500000" stroke="#BABDB6" stroke-width="2"/><a xlink:title="R3976C"><circle cx="1662.200000" cy="59.000000" r="4.000000" fill="#ff0000" /></a><g transform="translate(1662.200000,59.000000) rotate(-30)"><text style="font-size:10px;font-family:OpenSans;fill:#555;" text-anchor="middle" x="0" y="-6.000000">R3976C</text></g><line x1="1662.614286" x2="1662.614286" y1="71.500000" y2="199.500000" stroke="#BABDB6" stroke-width="2"/><a xlink:title="R3977C"><circle cx="1662.614286" cy="71.500000" r="4.000000" fill="#ff0000" /></a><g transform="translate(1662.614286,71.500000) rotate(-30)"><text style="font-size:10px;font-family:OpenSans;fill:#555;" text-anchor="middle" x="0" y="-6.000000">R3977C</text></g><line x1="1663.442857" x2="1663.442857" y1="84.000000" y2="199.500000" stroke="#BABDB6" stroke-width="2"/><a xlink:title="R3979C"><circle cx="1663.442857" cy="84.000000" r="4.000000" fill="#ff0000" /></a><g transform="translate(1663.442857,84.000000) rotate(-30)"><text style="font-size:10px;font-family:OpenSans;fill:#555;" text-anchor="middle" x="0" y="-6.000000">R3979C</text></g><line x1="1663.857143" x2="1663.857143" y1="84.000000" y2="199.500000" stroke="#BABDB6" stroke-width="2"/><a xlink:title="R3980C"><circle cx="1663.857143" cy="84.000000" r="4.000000" fill="#ff0000" /></a><g transform="translate(1663.857143,84.000000) rotate(-30)"><text style="font-size:10px;font-family:OpenSans;fill:#555;" text-anchor="middle" x="0" y="-6.000000">R3980C</text></g><line x1="1664.271429" x2="1664.271429" y1="96.500000" y2="199.500000" stroke="#BABDB6" stroke-width="2"/><a xlink:title="R3981C"><circle cx="1664.271429" cy="96.500000" r="4.000000" fill="#ff0000" /></a><g transform="translate(1664.271429,96.500000) rotate(-30)"><text style="font-size:10px;font-family:OpenSans;fill:#555;" text-anchor="middle" x="0" y="-6.000000">R3981C</text></g><line x1="1665.100000" x2="1665.100000" y1="109.000000" y2="199.500000" stroke="#BABDB6" stroke-width="2"/><a xlink:title="R3983C"><circle cx="1665.100000" cy="109.000000" r="4.000000" fill="#ff0000" /></a><g transform="translate(1665.100000,109.000000) rotate(-30)"><text style="font-size:10px;font-family:OpenSans;fill:#555;" text-anchor="middle" x="0" y="-6.000000">R3983C</text></g><line x1="1665.514286" x2="1665.514286" y1="109.000000" y2="199.500000" stroke="#BABDB6" stroke-width="2"/><a xlink:title="R3984C"><circle cx="1665.514286" cy="109.000000" r="4.000000" fill="#ff0000" /></a><g transform="translate(1665.514286,109.000000) rotate(-30)"><text style="font-size:10px;font-family:OpenSans;fill:#555;" text-anchor="middle" x="0" y="-6.000000">R3984C</text></g><line x1="1665.928571" x2="1665.928571" y1="109.000000" y2="199.500000" stroke="#BABDB6" stroke-width="2"/><a xlink:title="R3985C"><circle cx="1665.928571" cy="109.000000" r="4.000000" fill="#ff0000" /></a><g transform="translate(1665.928571,109.000000) rotate(-30)"><text style="font-size:10px;font-family:OpenSans;fill:#555;" text-anchor="middle" x="0" y="-6.000000">R3985C</text></g><line x1="1667.585714" x2="1667.585714" y1="84.000000" y2="199.500000" stroke="#BABDB6" stroke-width="2"/><a xlink:title="R3989C"><circle cx="1667.585714" cy="84.000000" r="4.000000" fill="#ff0000" /></a><g transform="translate(1667.585714,84.000000) rotate(-30)"><text style="font-size:10px;font-family:OpenSans;fill:#555;" text-anchor="middle" x="0" y="-6.000000">R3989C</text></g><line x1="1668.000000" x2="1668.000000" y1="84.000000" y2="199.500000" stroke="#BABDB6" stroke-width="2"/><a xlink:title="R3990C"><circle cx="1668.000000" cy="84.000000" r="4.000000" fill="#ff0000" /></a><g transform="translate(1668.000000,84.000000) rotate(-30)"><text style="font-size:10px;font-family:OpenSans;fill:#555;" text-anchor="middle" x="0" y="-6.000000">R3990C</text></g><line x1="1669.657143" x2="1669.657143" y1="71.500000" y2="199.500000" stroke="#BABDB6" stroke-width="2"/><a xlink:title="R3994C"><circle cx="1669.657143" cy="71.500000" r="4.000000" fill="#ff0000" /></a><g transform="translate(1669.657143,71.500000) rotate(-30)"><text style="font-size:10px;font-family:OpenSans;fill:#555;" text-anchor="middle" x="0" y="-6.000000">R3994C</text></g><line x1="1671.314286" x2="1671.314286" y1="59.000000" y2="199.500000" stroke="#BABDB6" stroke-width="2"/><a xlink:title="R3998C"><circle cx="1671.314286" cy="59.000000" r="4.000000" fill="#ff0000" /></a><g transform="translate(1671.314286,59.000000) rotate(-30)"><text style="font-size:10px;font-family:OpenSans;fill:#555;" text-anchor="middle" x="0" y="-6.000000">R3998C</text></g><line x1="1671.728571" x2="1671.728571" y1="59.000000" y2="199.500000" stroke="#BABDB6" stroke-width="2"/><a xlink:title="R3999C"><circle cx="1671.728571" cy="59.000000" r="4.000000" fill="#ff0000" /></a><g transform="translate(1671.728571,59.000000) rotate(-30)"><text style="font-size:10px;font-family:OpenSans;fill:#555;" text-anchor="middle" x="0" y="-6.000000">R3999C</text></g><line x1="1672.142857" x2="1672.142857" y1="59.000000" y2="199.500000" stroke="#BABDB6" stroke-width="2"/><a xlink:title="R4000C"><circle cx="1672.142857" cy="59.000000" r="4.000000" fill="#ff0000" /></a><g transform="translate(1672.142857,59.000000) rotate(-30)"><text style="font-size:10px;font-family:OpenSans;fill:#555;" text-anchor="middle" x="0" y="-6.000000">R4000C</text></g><line x1="1672.557143" x2="1672.557143" y1="71.500000" y2="199.500000" stroke="#BABDB6" stroke-width="2"/><a xlink:title="R4001C"><circle cx="1672.557143" cy="71.500000" r="4.000000" fill="#ff0000" /></a><g transform="translate(1672.557143,71.500000) rotate(-30)"><text style="font-size:10px;font-family:OpenSans;fill:#555;" text-anchor="middle" x="0" y="-6.000000">R4001C</text></g><line x1="1673.385714" x2="1673.385714" y1="71.500000" y2="199.500000" stroke="#BABDB6" stroke-width="2"/><a xlink:title="R4003C"><circle cx="1673.385714" cy="71.500000" r="4.000000" fill="#ff0000" /></a><g transform="translate(1673.385714,71.500000) rotate(-30)"><text style="font-size:10px;font-family:OpenSans;fill:#555;" text-anchor="middle" x="0" y="-6.000000">R4003C</text></g><line x1="1673.800000" x2="1673.800000" y1="71.500000" y2="199.500000" stroke="#BABDB6" stroke-width="2"/><a xlink:title="R4004C"><circle cx="1673.800000" cy="71.500000" r="4.000000" fill="#ff0000" /></a><g transform="translate(1673.800000,71.500000) rotate(-30)"><text style="font-size:10px;font-family:OpenSans;fill:#555;" text-anchor="middle" x="0" y="-6.000000">R4004C</text></g><line x1="1675.042857" x2="1675.042857" y1="71.500000" y2="199.500000" stroke="#BABDB6" stroke-width="2"/><a xlink:title="R4007C"><circle cx="1675.042857" cy="71.500000" r="4.000000" fill="#ff0000" /></a><g transform="translate(1675.042857,71.500000) rotate(-30)"><text style="font-size:10px;font-family:OpenSans;fill:#555;" text-anchor="middle" x="0" y="-6.000000">R4007C</text></g><line x1="1675.457143" x2="1675.457143" y1="84.000000" y2="199.500000" stroke="#BABDB6" stroke-width="2"/><a xlink:title="R4008C"><circle cx="1675.457143" cy="84.000000" r="4.000000" fill="#ff0000" /></a><g transform="translate(1675.457143,84.000000) rotate(-30)"><text style="font-size:10px;font-family:OpenSans;fill:#555;" text-anchor="middle" x="0" y="-6.000000">R4008C</text></g><line x1="1675.871429" x2="1675.871429" y1="84.000000" y2="199.500000" stroke="#BABDB6" stroke-width="2"/><a xlink:title="R4009C"><circle cx="1675.871429" cy="84.000000" r="4.000000" fill="#ff0000" /></a><g transform="translate(1675.871429,84.000000) rotate(-30)"><text style="font-size:10px;font-family:OpenSans;fill:#555;" text-anchor="middle" x="0" y="-6.000000">R4009C</text></g><line x1="1677.114286" x2="1677.114286" y1="96.500000" y2="199.500000" stroke="#BABDB6" stroke-width="2"/><a xlink:title="R4012C"><circle cx="1677.114286" cy="96.500000" r="4.000000" fill="#ff0000" /></a><g transform="translate(1677.114286,96.500000) rotate(-30)"><text style="font-size:10px;font-family:OpenSans;fill:#555;" text-anchor="middle" x="0" y="-6.000000">R4012C</text></g><line x1="1677.528571" x2="1677.528571" y1="109.000000" y2="199.500000" stroke="#BABDB6" stroke-width="2"/><a xlink:title="R4013C"><circle cx="1677.528571" cy="109.000000" r="4.000000" fill="#ff0000" /></a><g transform="translate(1677.528571,109.000000) rotate(-30)"><text style="font-size:10px;font-family:OpenSans;fill:#555;" text-anchor="middle" x="0" y="-6.000000">R4013C</text></g><line x1="1677.942857" x2="1677.942857" y1="121.500000" y2="199.500000" stroke="#BABDB6" stroke-width="2"/><a xlink:title="R4014C"><circle cx="1677.942857" cy="121.500000" r="4.000000" fill="#ff0000" /></a><g transform="translate(1677.942857,121.500000) rotate(-30)"><text style="font-size:10px;font-family:OpenSans;fill:#555;" text-anchor="middle" x="0" y="-6.000000">R4014C</text></g><line x1="1679.185714" x2="1679.185714" y1="134.000000" y2="199.500000" stroke="#BABDB6" stroke-width="2"/><a xlink:title="R4017C"><circle cx="1679.185714" cy="134.000000" r="4.000000" fill="#ff0000" /></a><g transform="translate(1679.185714,134.000000) rotate(-30)"><text style="font-size:10px;font-family:OpenSans;fill:#555;" text-anchor="middle" x="0" y="-6.000000">R4017C</text></g><line x1="1679.600000" x2="1679.600000" y1="146.500000" y2="199.500000" stroke="#BABDB6" stroke-width="2"/><a xlink:title="R4018C"><circle cx="1679.600000" cy="146.500000" r="4.000000" fill="#ff0000" /></a><g transform="translate(1679.600000,146.500000) rotate(-30)"><text style="font-size:10px;font-family:OpenSans;fill:#555;" text-anchor="middle" x="0" y="-6.000000">R4018C</text></g><line x1="1680.842857" x2="1680.842857" y1="159.000000" y2="199.500000" stroke="#BABDB6" stroke-width="2"/><a xlink:title="R4021C"><circle cx="1680.842857" cy="159.000000" r="4.000000" fill="#ff0000" /></a><g transform="translate(1680.842857,159.000000) rotate(-30)"><text style="font-size:10px;font-family:OpenSans;fill:#555;" text-anchor="middle" x="0" y="-6.000000">R4021C</text></g><line x1="1681.671429" x2="1681.671429" y1="171.500000" y2="199.500000" stroke="#BABDB6" stroke-width="2"/><a xlink:title="R4023C"><circle cx="1681.671429" cy="171.500000" r="4.000000" fill="#ff0000" /></a><g transform="translate(1681.671429,171.500000) rotate(-30)"><text style="font-size:10px;font-family:OpenSans;fill:#555;" text-anchor="middle" x="0" y="-6.000000">R4023C</text></g><line x1="1870.171429" x2="1870.171429" y1="146.500000" y2="199.500000" stroke="#BABDB6" stroke-width="2"/><a xlink:title="N4478I"><circle cx="1870.171429" cy="146.500000" r="4.000000" fill="#ff0000" /></a><g transform="translate(1870.171429,146.500000) rotate(-30)"><text style="font-size:10px;font-family:OpenSans;fill:#555;" text-anchor="middle" x="0" y="-6.000000">N4478I</text></g><line x1="1872.242857" x2="1872.242857" y1="159.000000" y2="199.500000" stroke="#BABDB6" stroke-width="2"/><a xlink:title="N4483I"><circle cx="1872.242857" cy="159.000000" r="4.000000" fill="#ff0000" /></a><g transform="translate(1872.242857,159.000000) rotate(-30)"><text style="font-size:10px;font-family:OpenSans;fill:#555;" text-anchor="middle" x="0" y="-6.000000">N4483I</text></g><line x1="1873.900000" x2="1873.900000" y1="171.500000" y2="199.500000" stroke="#BABDB6" stroke-width="2"/><a xlink:title="N4487I"><circle cx="1873.900000" cy="171.500000" r="4.000000" fill="#ff0000" /></a><g transform="translate(1873.900000,171.500000) rotate(-30)"><text style="font-size:10px;font-family:OpenSans;fill:#555;" text-anchor="middle" x="0" y="-6.000000">N4487I</text></g><line x1="1880.114286" x2="1880.114286" y1="109.000000" y2="199.500000" stroke="#BABDB6" stroke-width="2"/><a xlink:title="N4502I"><circle cx="1880.114286" cy="109.000000" r="4.000000" fill="#ff0000" /></a><g transform="translate(1880.114286,109.000000) rotate(-30)"><text style="font-size:10px;font-family:OpenSans;fill:#555;" text-anchor="middle" x="0" y="-6.000000">N4502I</text></g><line x1="1881.357143" x2="1881.357143" y1="121.500000" y2="199.500000" stroke="#BABDB6" stroke-width="2"/><a xlink:title="N4505I"><circle cx="1881.357143" cy="121.500000" r="4.000000" fill="#ff0000" /></a><g transform="translate(1881.357143,121.500000) rotate(-30)"><text style="font-size:10px;font-family:OpenSans;fill:#555;" text-anchor="middle" x="0" y="-6.000000">N4505I</text></g><line x1="1881.771429" x2="1881.771429" y1="134.000000" y2="199.500000" stroke="#BABDB6" stroke-width="2"/><a xlink:title="N4506I"><circle cx="1881.771429" cy="134.000000" r="4.000000" fill="#ff0000" /></a><g transform="translate(1881.771429,134.000000) rotate(-30)"><text style="font-size:10px;font-family:OpenSans;fill:#555;" text-anchor="middle" x="0" y="-6.000000">N4506I</text></g><line x1="1883.014286" x2="1883.014286" y1="146.500000" y2="199.500000" stroke="#BABDB6" stroke-width="2"/><a xlink:title="N4509I"><circle cx="1883.014286" cy="146.500000" r="4.000000" fill="#ff0000" /></a><g transform="translate(1883.014286,146.500000) rotate(-30)"><text style="font-size:10px;font-family:OpenSans;fill:#555;" text-anchor="middle" x="0" y="-6.000000">N4509I</text></g><line x1="1883.842857" x2="1883.842857" y1="159.000000" y2="199.500000" stroke="#BABDB6" stroke-width="2"/><a xlink:title="N4511I"><circle cx="1883.842857" cy="159.000000" r="4.000000" fill="#ff0000" /></a><g transform="translate(1883.842857,159.000000) rotate(-30)"><text style="font-size:10px;font-family:OpenSans;fill:#555;" text-anchor="middle" x="0" y="-6.000000">N4511I</text></g><line x1="1885.500000" x2="1885.500000" y1="159.000000" y2="199.500000" stroke="#BABDB6" stroke-width="2"/><a xlink:title="N4515I"><circle cx="1885.500000" cy="159.000000" r="4.000000" fill="#ff0000" /></a><g transform="translate(1885.500000,159.000000) rotate(-30)"><text style="font-size:10px;font-family:OpenSans;fill:#555;" text-anchor="middle" x="0" y="-6.000000">N4515I</text></g><line x1="1891.300000" x2="1891.300000" y1="59.000000" y2="199.500000" stroke="#BABDB6" stroke-width="2"/><a xlink:title="N4529I"><circle cx="1891.300000" cy="59.000000" r="4.000000" fill="#ff0000" /></a><g transform="translate(1891.300000,59.000000) rotate(-30)"><text style="font-size:10px;font-family:OpenSans;fill:#555;" text-anchor="middle" x="0" y="-6.000000">N4529I</text></g><line x1="1891.714286" x2="1891.714286" y1="59.000000" y2="199.500000" stroke="#BABDB6" stroke-width="2"/><a xlink:title="N4530I"><circle cx="1891.714286" cy="59.000000" r="4.000000" fill="#ff0000" /></a><g transform="translate(1891.714286,59.000000) rotate(-30)"><text style="font-size:10px;font-family:OpenSans;fill:#555;" text-anchor="middle" x="0" y="-6.000000">N4530I</text></g><line x1="1892.542857" x2="1892.542857" y1="46.500000" y2="199.500000" stroke="#BABDB6" stroke-width="2"/><a xlink:title="N4532I"><circle cx="1892.542857" cy="46.500000" r="4.000000" fill="#ff0000" /></a><g transform="translate(1892.542857,46.500000) rotate(-30)"><text style="font-size:10px;font-family:OpenSans;fill:#555;" text-anchor="middle" x="0" y="-6.000000">N4532I</text></g><line x1="1893.785714" x2="1893.785714" y1="34.000000" y2="199.500000" stroke="#BABDB6" stroke-width="2"/><a xlink:title="N4535I"><circle cx="1893.785714" cy="34.000000" r="4.000000" fill="#ff0000" /></a><g transform="translate(1893.785714,34.000000) rotate(-30)"><text style="font-size:10px;font-family:OpenSans;fill:#555;" text-anchor="middle" x="0" y="-6.000000">N4535I</text></g><line x1="1894.200000" x2="1894.200000" y1="34.000000" y2="199.500000" stroke="#BABDB6" stroke-width="2"/><a xlink:title="N4536I"><circle cx="1894.200000" cy="34.000000" r="4.000000" fill="#ff0000" /></a><g transform="translate(1894.200000,34.000000) rotate(-30)"><text style="font-size:10px;font-family:OpenSans;fill:#555;" text-anchor="middle" x="0" y="-6.000000">N4536I</text></g><line x1="1895.028571" x2="1895.028571" y1="46.500000" y2="199.500000" stroke="#BABDB6" stroke-width="2"/><a xlink:title="N4538I"><circle cx="1895.028571" cy="46.500000" r="4.000000" fill="#ff0000" /></a><g transform="translate(1895.028571,46.500000) rotate(-30)"><text style="font-size:10px;font-family:OpenSans;fill:#555;" text-anchor="middle" x="0" y="-6.000000">N4538I</text></g><line x1="1895.442857" x2="1895.442857" y1="59.000000" y2="199.500000" stroke="#BABDB6" stroke-width="2"/><a xlink:title="N4539I"><circle cx="1895.442857" cy="59.000000" r="4.000000" fill="#ff0000" /></a><g transform="translate(1895.442857,59.000000) rotate(-30)"><text style="font-size:10px;font-family:OpenSans;fill:#555;" text-anchor="middle" x="0" y="-6.000000">N4539I</text></g><line x1="1895.857143" x2="1895.857143" y1="59.000000" y2="199.500000" stroke="#BABDB6" stroke-width="2"/><a xlink:title="N4540I"><circle cx="1895.857143" cy="59.000000" r="4.000000" fill="#ff0000" /></a><g transform="translate(1895.857143,59.000000) rotate(-30)"><text style="font-size:10px;font-family:OpenSans;fill:#555;" text-anchor="middle" x="0" y="-6.000000">N4540I</text></g><line x1="1896.271429" x2="1896.271429" y1="59.000000" y2="199.500000" stroke="#BABDB6" stroke-width="2"/><a xlink:title="N4541I"><circle cx="1896.271429" cy="59.000000" r="4.000000" fill="#ff0000" /></a><g transform="translate(1896.271429,59.000000) rotate(-30)"><text style="font-size:10px;font-family:OpenSans;fill:#555;" text-anchor="middle" x="0" y="-6.000000">N4541I</text></g><line x1="1896.685714" x2="1896.685714" y1="71.500000" y2="199.500000" stroke="#BABDB6" stroke-width="2"/><a xlink:title="N4542I"><circle cx="1896.685714" cy="71.500000" r="4.000000" fill="#ff0000" /></a><g transform="translate(1896.685714,71.500000) rotate(-30)"><text style="font-size:10px;font-family:OpenSans;fill:#555;" text-anchor="middle" x="0" y="-6.000000">N4542I</text></g><line x1="1897.514286" x2="1897.514286" y1="84.000000" y2="199.500000" stroke="#BABDB6" stroke-width="2"/><a xlink:title="N4544I"><circle cx="1897.514286" cy="84.000000" r="4.000000" fill="#ff0000" /></a><g transform="translate(1897.514286,84.000000) rotate(-30)"><text style="font-size:10px;font-family:OpenSans;fill:#555;" text-anchor="middle" x="0" y="-6.000000">N4544I</text></g><line x1="1897.928571" x2="1897.928571" y1="84.000000" y2="199.500000" stroke="#BABDB6" stroke-width="2"/><a xlink:title="N4545I"><circle cx="1897.928571" cy="84.000000" r="4.000000" fill="#ff0000" /></a><g transform="translate(1897.928571,84.000000) rotate(-30)"><text style="font-size:10px;font-family:OpenSans;fill:#555;" text-anchor="middle" x="0" y="-6.000000">N4545I</text></g><line x1="1898.342857" x2="1898.342857" y1="96.500000" y2="199.500000" stroke="#BABDB6" stroke-width="2"/><a xlink:title="N4546I"><circle cx="1898.342857" cy="96.500000" r="4.000000" fill="#ff0000" /></a><g transform="translate(1898.342857,96.500000) rotate(-30)"><text style="font-size:10px;font-family:OpenSans;fill:#555;" text-anchor="middle" x="0" y="-6.000000">N4546I</text></g><line x1="1899.171429" x2="1899.171429" y1="109.000000" y2="199.500000" stroke="#BABDB6" stroke-width="2"/><a xlink:title="N4548I"><circle cx="1899.171429" cy="109.000000" r="4.000000" fill="#ff0000" /></a><g transform="translate(1899.171429,109.000000) rotate(-30)"><text style="font-size:10px;font-family:OpenSans;fill:#555;" text-anchor="middle" x="0" y="-6.000000">N4548I</text></g><line x1="1899.585714" x2="1899.585714" y1="109.000000" y2="199.500000" stroke="#BABDB6" stroke-width="2"/><a xlink:title="N4549I"><circle cx="1899.585714" cy="109.000000" r="4.000000" fill="#ff0000" /></a><g transform="translate(1899.585714,109.000000) rotate(-30)"><text style="font-size:10px;font-family:OpenSans;fill:#555;" text-anchor="middle" x="0" y="-6.000000">N4549I</text></g><line x1="1900.000000" x2="1900.000000" y1="109.000000" y2="199.500000" stroke="#BABDB6" stroke-width="2"/><a xlink:title="N4550I"><circle cx="1900.000000" cy="109.000000" r="4.000000" fill="#ff0000" /></a><g transform="translate(1900.000000,109.000000) rotate(-30)"><text style="font-size:10px;font-family:OpenSans;fill:#555;" text-anchor="middle" x="0" y="-6.000000">N4550I</text></g><line x1="1901.657143" x2="1901.657143" y1="84.000000" y2="199.500000" stroke="#BABDB6" stroke-width="2"/><a xlink:title="N4554I"><circle cx="1901.657143" cy="84.000000" r="4.000000" fill="#ff0000" /></a><g transform="translate(1901.657143,84.000000) rotate(-30)"><text style="font-size:10px;font-family:OpenSans;fill:#555;" text-anchor="middle" x="0" y="-6.000000">N4554I</text></g><line x1="1902.071429" x2="1902.071429" y1="84.000000" y2="199.500000" stroke="#BABDB6" stroke-width="2"/><a xlink:title="N4555I"><circle cx="1902.071429" cy="84.000000" r="4.000000" fill="#ff0000" /></a><g transform="translate(1902.071429,84.000000) rotate(-30)"><text style="font-size:10px;font-family:OpenSans;fill:#555;" text-anchor="middle" x="0" y="-6.000000">N4555I</text></g><line x1="1903.728571" x2="1903.728571" y1="71.500000" y2="199.500000" stroke="#BABDB6" stroke-width="2"/><a xlink:title="N4559I"><circle cx="1903.728571" cy="71.500000" r="4.000000" fill="#ff0000" /></a><g transform="translate(1903.728571,71.500000) rotate(-30)"><text style="font-size:10px;font-family:OpenSans;fill:#555;" text-anchor="middle" x="0" y="-6.000000">N4559I</text></g><line x1="1905.385714" x2="1905.385714" y1="59.000000" y2="199.500000" stroke="#BABDB6" stroke-width="2"/><a xlink:title="N4563I"><circle cx="1905.385714" cy="59.000000" r="4.000000" fill="#ff0000" /></a><g transform="translate(1905.385714,59.000000) rotate(-30)"><text style="font-size:10px;font-family:OpenSans;fill:#555;" text-anchor="middle" x="0" y="-6.000000">N4563I</text></g><line x1="1905.800000" x2="1905.800000" y1="59.000000" y2="199.500000" stroke="#BABDB6" stroke-width="2"/><a xlink:title="N4564I"><circle cx="1905.800000" cy="59.000000" r="4.000000" fill="#ff0000" /></a><g transform="translate(1905.800000,59.000000) rotate(-30)"><text style="font-size:10px;font-family:OpenSans;fill:#555;" text-anchor="middle" x="0" y="-6.000000">N4564I</text></g><line x1="1906.214286" x2="1906.214286" y1="59.000000" y2="199.500000" stroke="#BABDB6" stroke-width="2"/><a xlink:title="N4565I"><circle cx="1906.214286" cy="59.000000" r="4.000000" fill="#ff0000" /></a><g transform="translate(1906.214286,59.000000) rotate(-30)"><text style="font-size:10px;font-family:OpenSans;fill:#555;" text-anchor="middle" x="0" y="-6.000000">N4565I</text></g><line x1="1906.628571" x2="1906.628571" y1="71.500000" y2="199.500000" stroke="#BABDB6" stroke-width="2"/><a xlink:title="N4566I"><circle cx="1906.628571" cy="71.500000" r="4.000000" fill="#ff0000" /></a><g transform="translate(1906.628571,71.500000) rotate(-30)"><text style="font-size:10px;font-family:OpenSans;fill:#555;" text-anchor="middle" x="0" y="-6.000000">N4566I</text></g><line x1="1907.457143" x2="1907.457143" y1="71.500000" y2="199.500000" stroke="#BABDB6" stroke-width="2"/><a xlink:title="N4568I"><circle cx="1907.457143" cy="71.500000" r="4.000000" fill="#ff0000" /></a><g transform="translate(1907.457143,71.500000) rotate(-30)"><text style="font-size:10px;font-family:OpenSans;fill:#555;" text-anchor="middle" x="0" y="-6.000000">N4568I</text></g><line x1="1907.871429" x2="1907.871429" y1="71.500000" y2="199.500000" stroke="#BABDB6" stroke-width="2"/><a xlink:title="N4569I"><circle cx="1907.871429" cy="71.500000" r="4.000000" fill="#ff0000" /></a><g transform="translate(1907.871429,71.500000) rotate(-30)"><text style="font-size:10px;font-family:OpenSans;fill:#555;" text-anchor="middle" x="0" y="-6.000000">N4569I</text></g><line x1="1909.114286" x2="1909.114286" y1="71.500000" y2="199.500000" stroke="#BABDB6" stroke-width="2"/><a xlink:title="N4572I"><circle cx="1909.114286" cy="71.500000" r="4.000000" fill="#ff0000" /></a><g transform="translate(1909.114286,71.500000) rotate(-30)"><text style="font-size:10px;font-family:OpenSans;fill:#555;" text-anchor="middle" x="0" y="-6.000000">N4572I</text></g><line x1="1909.528571" x2="1909.528571" y1="84.000000" y2="199.500000" stroke="#BABDB6" stroke-width="2"/><a xlink:title="N4573I"><circle cx="1909.528571" cy="84.000000" r="4.000000" fill="#ff0000" /></a><g transform="translate(1909.528571,84.000000) rotate(-30)"><text style="font-size:10px;font-family:OpenSans;fill:#555;" text-anchor="middle" x="0" y="-6.000000">N4573I</text></g><line x1="1909.942857" x2="1909.942857" y1="84.000000" y2="199.500000" stroke="#BABDB6" stroke-width="2"/><a xlink:title="N4574I"><circle cx="1909.942857" cy="84.000000" r="4.000000" fill="#ff0000" /></a><g transform="translate(1909.942857,84.000000) rotate(-30)"><text style="font-size:10px;font-family:OpenSans;fill:#555;" text-anchor="middle" x="0" y="-6.000000">N4574I</text></g><line x1="1911.185714" x2="1911.185714" y1="96.500000" y2="199.500000" stroke="#BABDB6" stroke-width="2"/><a xlink:title="N4577I"><circle cx="1911.185714" cy="96.500000" r="4.000000" fill="#ff0000" /></a><g transform="translate(1911.185714,96.500000) rotate(-30)"><text style="font-size:10px;font-family:OpenSans;fill:#555;" text-anchor="middle" x="0" y="-6.000000">N4577I</text></g><line x1="1911.600000" x2="1911.600000" y1="109.000000" y2="199.500000" stroke="#BABDB6" stroke-width="2"/><a xlink:title="N4578I"><circle cx="1911.600000" cy="109.000000" r="4.000000" fill="#ff0000" /></a><g transform="translate(1911.600000,109.000000) rotate(-30)"><text style="font-size:10px;font-family:OpenSans;fill:#555;" text-anchor="middle" x="0" y="-6.000000">N4578I</text></g><line x1="1912.014286" x2="1912.014286" y1="121.500000" y2="199.500000" stroke="#BABDB6" stroke-width="2"/><a xlink:title="N4579I"><circle cx="1912.014286" cy="121.500000" r="4.000000" fill="#ff0000" /></a><g transform="translate(1912.014286,121.500000) rotate(-30)"><text style="font-size:10px;font-family:OpenSans;fill:#555;" text-anchor="middle" x="0" y="-6.000000">N4579I</text></g><line x1="1913.257143" x2="1913.257143" y1="134.000000" y2="199.500000" stroke="#BABDB6" stroke-width="2"/><a xlink:title="N4582I"><circle cx="1913.257143" cy="134.000000" r="4.000000" fill="#ff0000" /></a><g transform="translate(1913.257143,134.000000) rotate(-30)"><text style="font-size:10px;font-family:OpenSans;fill:#555;" text-anchor="middle" x="0" y="-6.000000">N4582I</text></g><line x1="1913.671429" x2="1913.671429" y1="146.500000" y2="199.500000" stroke="#BABDB6" stroke-width="2"/><a xlink:title="N4583I"><circle cx="1913.671429" cy="146.500000" r="4.000000" fill="#ff0000" /></a><g transform="translate(1913.671429,146.500000) rotate(-30)"><text style="font-size:10px;font-family:OpenSans;fill:#555;" text-anchor="middle" x="0" y="-6.000000">N4583I</text></g><line x1="1914.914286" x2="1914.914286" y1="159.000000" y2="199.500000" stroke="#BABDB6" stroke-width="2"/><a xlink:title="N4586I"><circle cx="1914.914286" cy="159.000000" r="4.000000" fill="#ff0000" /></a><g transform="translate(1914.914286,159.000000) rotate(-30)"><text style="font-size:10px;font-family:OpenSans;fill:#555;" text-anchor="middle" x="0" y="-6.000000">N4586I</text></g><line x1="1915.742857" x2="1915.742857" y1="171.500000" y2="199.500000" stroke="#BABDB6" stroke-width="2"/><a xlink:title="N4588I"><circle cx="1915.742857" cy="171.500000" r="4.000000" fill="#ff0000" /></a><g transform="translate(1915.742857,171.500000) rotate(-30)"><text style="font-size:10px;font-family:OpenSans;fill:#555;" text-anchor="middle" x="0" y="-6.000000">N4588I</text></g><a xlink:title=",  (4857aa)"><rect fill="#BABDB6" x="15.000000" y="199.500000" width="2012.185714" height="14.000000"/></a><g transform="translate(134.728571,194.500000)"><a xlink:href="https://www.ebi.ac.uk/interpro/entry/pfam/PF00653" xlink:title="Inhibitor of Apoptosis domain"><rect fill="#2DCF00" x="0" y="0" width="29.000000" height="24.000000" filter="url(#ds)"/><text style="font-size:12px;font-family:OpenSans;fill:#ffffff;" text-anchor="middle" x="14.500000" y="16.000000">BIR</text></a></g>
<g transform="translate(1449.671429,194.500000)"><a xlink:href="https://www.ebi.ac.uk/interpro/entry/pfam/PF12356" xlink:title="Baculoviral IAP repeat-containing protein 6"><rect fill="#FF5353" x="0" y="0" width="64.214286" height="24.000000" filter="url(#ds)"/><text style="font-size:12px;font-family:OpenSans;fill:#ffffff;" text-anchor="middle" x="32.107143" y="16.000000">BIRC6</text></a></g>
<g transform="translate(1912.842857,194.500000)"><a xlink:href="https://www.ebi.ac.uk/interpro/entry/pfam/PF00179" xlink:title="Ubiquitin-conjugating enzyme"><rect fill="#5B5BFF" x="0" y="0" width="62.142857" height="24.000000" filter="url(#ds)"/><text style="font-size:12px;font-family:OpenSans;fill:#ffffff;" text-anchor="middle" x="31.071429" y="16.000000">UQ_con</text></a></g>
<g class="axis">
<line x1="15.000000" x2="2027.185714" y1="228.500000" y2="228.500000" stroke="#AAAAAA" /><line x1="15.000000" x2="15.000000" y1="228.500000" y2="233.500000" stroke="#AAAAAA" /><line x1="15.000000" x2="15.000000" y1="228.500000" y2="233.500000" stroke="#AAAAAA" /><text style="font-size:10px;font-family:OpenSans;fill:#000000;" text-anchor="middle" x="15.000000" y="243.500000">0</text><line x1="134.728571" x2="134.728571" y1="228.500000" y2="233.500000" stroke="#AAAAAA" /><text style="font-size:10px;font-family:OpenSans;fill:#000000;" text-anchor="middle" x="134.728571" y="243.500000">289</text><line x1="163.728571" x2="163.728571" y1="228.500000" y2="233.500000" stroke="#AAAAAA" /><text style="font-size:10px;font-family:OpenSans;fill:#000000;" text-anchor="middle" x="163.728571" y="243.500000">359</text><line x1="208.885714" x2="208.885714" y1="228.500000" y2="233.500000" stroke="#AAAAAA" /><text style="font-size:10px;font-family:OpenSans;fill:#000000;" text-anchor="middle" x="208.885714" y="243.500000">468</text><line x1="240.785714" x2="240.785714" y1="228.500000" y2="233.500000" stroke="#AAAAAA" /><text style="font-size:10px;font-family:OpenSans;fill:#000000;" text-anchor="middle" x="240.785714" y="243.500000">545</text><line x1="814.571429" x2="814.571429" y1="228.500000" y2="233.500000" stroke="#AAAAAA" /><text style="font-size:10px;font-family:OpenSans;fill:#000000;" text-anchor="middle" x="814.571429" y="243.500000">1930</text><line x1="838.600000" x2="838.600000" y1="228.500000" y2="233.500000" stroke="#AAAAAA" /><text style="font-size:10px;font-family:OpenSans;fill:#000000;" text-anchor="middle" x="838.600000" y="243.500000">1988</text><line x1="859.728571" x2="859.728571" y1="228.500000" y2="233.500000" stroke="#AAAAAA" /><text style="font-size:10px;font-family:OpenSans;fill:#000000;" text-anchor="middle" x="859.728571" y="243.500000">2039</text><line x1="1449.671429" x2="1449.671429" y1="228.500000" y2="233.500000" stroke="#AAAAAA" /><text style="font-size:10px;font-family:OpenSans;fill:#000000;" text-anchor="middle" x="1449.671429" y="243.500000">3463</text><line x1="1513.885714" x2="1513.885714" y1="228.500000" y2="233.500000" stroke="#AAAAAA" /><text style="font-size:10px;font-family:OpenSans;fill:#000000;" text-anchor="middle" x="1513.885714" y="243.500000">3618</text><line x1="1636.100000" x2="1636.100000" y1="228.500000" y2="233.500000" stroke="#AAAAAA" /><text style="font-size:10px;font-family:OpenSans;fill:#000000;" text-anchor="middle" x="1636.100000" y="243.500000">3913</text><line x1="1657.228571" x2="1657.228571" y1="228.500000" y2="233.500000" stroke="#AAAAAA" /><text style="font-size:10px;font-family:OpenSans;fill:#000000;" text-anchor="middle" x="1657.228571" y="243.500000">3964</text><line x1="1677.114286" x2="1677.114286" y1="228.500000" y2="233.500000" stroke="#AAAAAA" /><text style="font-size:10px;font-family:OpenSans;fill:#000000;" text-anchor="middle" x="1677.114286" y="243.500000">4012</text><line x1="1870.171429" x2="1870.171429" y1="228.500000" y2="233.500000" stroke="#AAAAAA" /><text style="font-size:10px;font-family:OpenSans;fill:#000000;" text-anchor="middle" x="1870.171429" y="243.500000">4478</text><line x1="1891.300000" x2="1891.300000" y1="228.500000" y2="233.500000" stroke="#AAAAAA" /><text style="font-size:10px;font-family:OpenSans;fill:#000000;" text-anchor="middle" x="1891.300000" y="243.500000">4529</text><line x1="1911.185714" x2="1911.185714" y1="228.500000" y2="233.500000" stroke="#AAAAAA" /><text style="font-size:10px;font-family:OpenSans;fill:#000000;" text-anchor="middle" x="1911.185714" y="243.500000">4577</text><line x1="1974.985714" x2="1974.985714" y1="228.500000" y2="233.500000" stroke="#AAAAAA" /><text style="font-size:10px;font-family:OpenSans;fill:#000000;" text-anchor="middle" x="1974.985714" y="243.500000">4731</text><line x1="2027.185714" x2="2027.185714" y1="228.500000" y2="233.500000" stroke="#AAAAAA" /><text style="font-size:10px;font-family:OpenSans;fill:#000000;" text-anchor="middle" x="2027.185714" y="243.500000">4857</text></g>
<rect fill="#2DCF00" x="4" y="257.500000" width="12" height="12" filter="url(#ds)"/><text style="font-size:12px;font-family:OpenSans;fill:#000000;" text-anchor="start" x="20" y="269.500000">Inhibitor of Apoptosis domain</text><rect fill="#FF5353" x="4" y="271.500000" width="12" height="12" filter="url(#ds)"/><text style="font-size:12px;font-family:OpenSans;fill:#000000;" text-anchor="start" x="20" y="283.500000">Baculoviral IAP repeat-containing protein 6</text><rect fill="#5B5BFF" x="4" y="285.500000" width="12" height="12" filter="url(#ds)"/><text style="font-size:12px;font-family:OpenSans;fill:#000000;" text-anchor="start" x="20" y="297.500000">Ubiquitin-conjugating enzyme</text></svg>
