<?xml version='1.0'?>
<svg xmlns="http://www.w3.org/2000/svg" xmlns:xlink="http://www.w3.org/1999/xlink" width="430.000000" height="184.400000">
<defs>
  <filter id="ds" x="0" y="0">
    <feOffset in="SourceAlpha" dx="2" dy="2" />
    <feComponentTransfer><feFuncA type="linear" slope="0.2"/></feComponentTransfer>
    <feGaussianBlur result="blurOut" stdDeviation="1" />
    <feBlend in="SourceGraphic" in2="blurOut" mode="normal" />
  </filter>
  <pattern id="disordered-hatch" patternUnits="userSpaceOnUse" width="4" height="4">
    <path d="M-1,1 l2,-2 M0,4 l4,-4 M3,5 l2,-2" stroke="#000000" opacity="0.3" />
  </pattern>
</defs>
<line x1="28.278008" x2="28.278008" y1="59.000000" y2="87.000000" stroke="#BABDB6" stroke-width="2"/><a xlink:title="A16A"><circle cx="28.278008" cy="59.000000" r="4.000000" fill="#0000ff" /></a><g transform="translate(28.278008,59.000000) rotate(-30)"><text style="font-size:10px;font-family:OpenSans;fill:#555;" text-anchor="middle" x="0" y="-6.000000">A16A</text></g><line x1="81.390041" x2="81.390041" y1="34.000000" y2="87.000000" stroke="#BABDB6" stroke-width="2"/><a xlink:title="G80G"><circle cx="81.390041" cy="34.000000" r="4.000000" fill="#0000ff" /></a><g transform="translate(81.390041,34.000000) rotate(-30)"><text style="font-size:10px;font-family:OpenSans;fill:#555;" text-anchor="middle" x="0" y="-6.000000">G80G</text></g><line x1="83.879668" x2="83.879668" y1="46.500000" y2="87.000000" stroke="#BABDB6" stroke-width="2"/><a xlink:title="A83P"><circle cx="83.879668" cy="46.500000" r="4.000000" fill="#ff0000" /></a><g transform="translate(83.879668,46.500000) rotate(-30)"><text style="font-size:10px;font-family:OpenSans;fill:#555;" text-anchor="middle" x="0" y="-6.000000">A83P</text></g><line x1="84.709544" x2="84.709544" y1="59.000000" y2="87.000000" stroke="#BABDB6" stroke-width="2"/><a xlink:title="A84P"><circle cx="84.709544" cy="59.000000" r="4.000000" fill="#ff0000" /></a><g transform="translate(84.709544,59.000000) rotate(-30)"><text style="font-size:10px;font-family:OpenSans;fill:#555;" text-anchor="middle" x="0" y="-6.000000">A84P</text></g><line x1="213.340249" x2="213.340249" y1="59.000000" y2="87.000000" stroke="#BABDB6" stroke-width="2"/><a xlink:title="R239Q"><circle cx="213.340249" cy="59.000000" r="4.000000" fill="#ff0000" /></a><g transform="translate(213.340249,59.000000) rotate(-30)"><text style="font-size:10px;font-family:OpenSans;fill:#555;" text-anchor="middle" x="0" y="-6.000000">R239Q</text></g><a xlink:title=",  (482aa)"><rect fill="#BABDB6" x="15.000000" y="87.000000" width="400.000000" height="14.000000"/></a><g transform="translate(66.452282,82.000000)"><a xlink:href="https://www.ebi.ac.uk/interpro/entry/pfam/PF00651" xlink:title="BTB/POZ domain"><rect fill="#2DCF00" x="0" y="0" width="92.946058" height="24.000000" filter="url(#ds)"/><text style="font-size:12px;font-family:OpenSans;fill:#ffffff;" text-anchor="middle" x="46.473029" y="16.000000">BTB</text></a></g>
<g transform="translate(166.867220,82.000000)"><a xlink:href="https://www.ebi.ac.uk/interpro/entry/pfam/PF07707" xlink:title="BTB And C-terminal Kelch"><rect fill="#FF5353" x="0" y="0" width="82.987552" height="24.000000" filter="url(#ds)"/><text style="font-size:12px;font-family:OpenSans;fill:#ffffff;" text-anchor="middle" x="41.493776" y="16.000000">BACK</text></a></g>
<g transform="translate(291.348548,82.000000)"><a xlink:href="https://www.ebi.ac.uk/interpro/entry/pfam/PF08005" xlink:title="PHR domain"><rect fill="#5B5BFF" x="0" y="0" width="122.821577" height="24.000000" filter="url(#ds)"/><text style="font-size:12px;font-family:OpenSans;fill:#ffffff;" text-anchor="middle" x="61.410788" y="16.000000">PHR domain</text></a></g>
<g class="axis">
<line x1="15.000000" x2="415.000000" y1="116.000000" y2="116.000000" stroke="#AAAAAA" /><line x1="15.000000" x2="15.000000" y1="116.000000" y2="121.000000" stroke="#AAAAAA" /><line x1="28.278008" x2="28.278008" y1="116.000000" y2="121.000000" stroke="#AAAAAA" /><text style="font-size:10px;font-family:OpenSans;fill:#000000;" text-anchor="middle" x="28.278008" y="131.000000">16</text><line x1="81.390041" x2="81.390041" y1="116.000000" y2="121.000000" stroke="#AAAAAA" /><text style="font-size:10px;font-family:OpenSans;fill:#000000;" text-anchor="middle" x="81.390041" y="131.000000">80</text><line x1="159.398340" x2="159.398340" y1="116.000000" y2="121.000000" stroke="#AAAAAA" /><text style="font-size:10px;font-family:OpenSans;fill:#000000;" text-anchor="middle" x="159.398340" y="131.000000">174</text><line x1="213.340249" x2="213.340249" y1="116.000000" y2="121.000000" stroke="#AAAAAA" /><text style="font-size:10px;font-family:OpenSans;fill:#000000;" text-anchor="middle" x="213.340249" y="131.000000">239</text><line x1="249.854772" x2="249.854772" y1="116.000000" y2="121.000000" stroke="#AAAAAA" /><text style="font-size:10px;font-family:OpenSans;fill:#000000;" text-anchor="middle" x="249.854772" y="131.000000">283</text><line x1="291.348548" x2="291.348548" y1="116.000000" y2="121.000000" stroke="#AAAAAA" /><text style="font-size:10px;font-family:OpenSans;fill:#000000;" text-anchor="middle" x="291.348548" y="131.000000">333</text><line x1="415.000000" x2="415.000000" y1="116.000000" y2="121.000000" stroke="#AAAAAA" /><text style="font-size:10px;font-family:OpenSans;fill:#000000;" text-anchor="middle" x="415.000000" y="131.000000">482</text></g>
<rect fill="#2DCF00" x="4" y="145.000000" width="12" height="12" filter="url(#ds)"/><text style="font-size:12px;font-family:OpenSans;fill:#000000;" text-anchor="start" x="20" y="157.000000">BTB/POZ domain</text><rect fill="#FF5353" x="4" y="159.000000" width="12" height="12" filter="url(#ds)"/><text style="font-size:12px;font-family:OpenSans;fill:#000000;" text-anchor="start" x="20" y="171.000000">BTB And C-terminal Kelch</text></svg>
