<?xml version='1.0'?>
<svg xmlns="http://www.w3.org/2000/svg" xmlns:xlink="http://www.w3.org/1999/xlink" width="430.000000" height="208.700000">
<defs>
  <filter id="ds" x="0" y="0">
    <feOffset in="SourceAlpha" dx="2" dy="2" />
    <feComponentTransfer><feFuncA type="linear" slope="0.2"/></feComponentTransfer>
    <feGaussianBlur result="blurOut" stdDeviation="1" />
    <feBlend in="SourceGraphic" in2="blurOut" mode="normal" />
  </filter>
  <pattern id="disordered-hatch" patternUnits="userSpaceOnUse" width="4" height="4">
    <path d="M-1,1 l2,-2 M0,4 l4,-4 M3,5 l2,-2" stroke="#000000" opacity="0.3" />
  </pattern>
</defs>
<line x1="33.902439" x2="33.902439" y1="96.500000" y2="124.500000" stroke="#BABDB6" stroke-width="2"/><a xlink:title="T31M"><circle cx="33.902439" cy="96.500000" r="4.000000" fill="#ff0000" /></a><g transform="translate(33.902439,96.500000) rotate(-30)"><text style="font-size:10px;font-family:OpenSans;fill:#555;" text-anchor="middle" x="0" y="-6.000000">T31M</text></g><line x1="210.731707" x2="210.731707" y1="71.500000" y2="124.500000" stroke="#BABDB6" stroke-width="2"/><a xlink:title="P321A"><circle cx="210.731707" cy="71.500000" r="4.000000" fill="#ff0000" /></a><g transform="translate(210.731707,71.500000) rotate(-30)"><text style="font-size:10px;font-family:OpenSans;fill:#555;" text-anchor="middle" x="0" y="-6.000000">P321A</text></g><line x1="213.780488" x2="213.780488" y1="71.500000" y2="124.500000" stroke="#BABDB6" stroke-width="2"/><a xlink:title="P326A"><circle cx="213.780488" cy="71.500000" r="4.000000" fill="#ff0000" /></a><g transform="translate(213.780488,71.500000) rotate(-30)"><text style="font-size:10px;font-family:OpenSans;fill:#555;" text-anchor="middle" x="0" y="-6.000000">P326A</text></g><line x1="215.000000" x2="215.000000" y1="84.000000" y2="124.500000" stroke="#BABDB6" stroke-width="2"/><a xlink:title="I328F"><circle cx="215.000000" cy="84.000000" r="4.000000" fill="#ff0000" /></a><g transform="translate(215.000000,84.000000) rotate(-30)"><text style="font-size:10px;font-family:OpenSans;fill:#555;" text-anchor="middle" x="0" y="-6.000000">I328F</text></g><line x1="218.048780" x2="218.048780" y1="96.500000" y2="124.500000" stroke="#BABDB6" stroke-width="2"/><a xlink:title="I333F"><circle cx="218.048780" cy="96.500000" r="4.000000" fill="#ff0000" /></a><g transform="translate(218.048780,96.500000) rotate(-30)"><text style="font-size:10px;font-family:OpenSans;fill:#555;" text-anchor="middle" x="0" y="-6.000000">I333F</text></g><line x1="225.975610" x2="225.975610" y1="34.000000" y2="124.500000" stroke="#BABDB6" stroke-width="2"/><a xlink:title="V346V"><circle cx="225.975610" cy="34.000000" r="4.000000" fill="#0000ff" /></a><g transform="translate(225.975610,34.000000) rotate(-30)"><text style="font-size:10px;font-family:OpenSans;fill:#555;" text-anchor="middle" x="0" y="-6.000000">V346V</text></g><line x1="226.585366" x2="226.585366" y1="46.500000" y2="124.500000" stroke="#BABDB6" stroke-width="2"/><a xlink:title="P347A"><circle cx="226.585366" cy="46.500000" r="4.000000" fill="#ff0000" /></a><g transform="translate(226.585366,46.500000) rotate(-30)"><text style="font-size:10px;font-family:OpenSans;fill:#555;" text-anchor="middle" x="0" y="-6.000000">P347A</text></g><line x1="227.195122" x2="227.195122" y1="59.000000" y2="124.500000" stroke="#BABDB6" stroke-width="2"/><a xlink:title="P348A"><circle cx="227.195122" cy="59.000000" r="4.000000" fill="#ff0000" /></a><g transform="translate(227.195122,59.000000) rotate(-30)"><text style="font-size:10px;font-family:OpenSans;fill:#555;" text-anchor="middle" x="0" y="-6.000000">P348A</text></g><line x1="229.024390" x2="229.024390" y1="59.000000" y2="124.500000" stroke="#BABDB6" stroke-width="2"/><a xlink:title="V351V"><circle cx="229.024390" cy="59.000000" r="4.000000" fill="#0000ff" /></a><g transform="translate(229.024390,59.000000) rotate(-30)"><text style="font-size:10px;font-family:OpenSans;fill:#555;" text-anchor="middle" x="0" y="-6.000000">V351V</text></g><line x1="230.853659" x2="230.853659" y1="71.500000" y2="124.500000" stroke="#BABDB6" stroke-width="2"/><a xlink:title="I354F"><circle cx="230.853659" cy="71.500000" r="4.000000" fill="#ff0000" /></a><g transform="translate(230.853659,71.500000) rotate(-30)"><text style="font-size:10px;font-family:OpenSans;fill:#555;" text-anchor="middle" x="0" y="-6.000000">I354F</text></g><line x1="231.463415" x2="231.463415" y1="71.500000" y2="124.500000" stroke="#BABDB6" stroke-width="2"/><a xlink:title="I355F"><circle cx="231.463415" cy="71.500000" r="4.000000" fill="#ff0000" /></a><g transform="translate(231.463415,71.500000) rotate(-30)"><text style="font-size:10px;font-family:OpenSans;fill:#555;" text-anchor="middle" x="0" y="-6.000000">I355F</text></g><line x1="233.902439" x2="233.902439" y1="84.000000" y2="124.500000" stroke="#BABDB6" stroke-width="2"/><a xlink:title="T359A"><circle cx="233.902439" cy="84.000000" r="4.000000" fill="#ff0000" /></a><g transform="translate(233.902439,84.000000) rotate(-30)"><text style="font-size:10px;font-family:OpenSans;fill:#555;" text-anchor="middle" x="0" y="-6.000000">T359A</text></g><line x1="236.951220" x2="236.951220" y1="71.500000" y2="124.500000" stroke="#BABDB6" stroke-width="2"/><a xlink:title="T364A"><circle cx="236.951220" cy="71.500000" r="4.000000" fill="#ff0000" /></a><g transform="translate(236.951220,71.500000) rotate(-30)"><text style="font-size:10px;font-family:OpenSans;fill:#555;" text-anchor="middle" x="0" y="-6.000000">T364A</text></g><line x1="241.829268" x2="241.829268" y1="84.000000" y2="124.500000" stroke="#BABDB6" stroke-width="2"/><a xlink:title="V372V"><circle cx="241.829268" cy="84.000000" r="4.000000" fill="#0000ff" /></a><g transform="translate(241.829268,84.000000) rotate(-30)"><text style="font-size:10px;font-family:OpenSans;fill:#555;" text-anchor="middle" x="0" y="-6.000000">V372V</text></g><line x1="242.439024" x2="242.439024" y1="96.500000" y2="124.500000" stroke="#BABDB6" stroke-width="2"/><a xlink:title="V373V"><circle cx="242.439024" cy="96.500000" r="4.000000" fill="#0000ff" /></a><g transform="translate(242.439024,96.500000) rotate(-30)"><text style="font-size:10px;font-family:OpenSans;fill:#555;" text-anchor="middle" x="0" y="-6.000000">V373V</text></g><line x1="249.756098" x2="249.756098" y1="84.000000" y2="124.500000" stroke="#BABDB6" stroke-width="2"/><a xlink:title="T385A"><circle cx="249.756098" cy="84.000000" r="4.000000" fill="#ff0000" /></a><g transform="translate(249.756098,84.000000) rotate(-30)"><text style="font-size:10px;font-family:OpenSans;fill:#555;" text-anchor="middle" x="0" y="-6.000000">T385A</text></g><line x1="250.365854" x2="250.365854" y1="96.500000" y2="124.500000" stroke="#BABDB6" stroke-width="2"/><a xlink:title="T386A"><circle cx="250.365854" cy="96.500000" r="4.000000" fill="#ff0000" /></a><g transform="translate(250.365854,96.500000) rotate(-30)"><text style="font-size:10px;font-family:OpenSans;fill:#555;" text-anchor="middle" x="0" y="-6.000000">T386A</text></g><line x1="298.536585" x2="298.536585" y1="84.000000" y2="124.500000" stroke="#BABDB6" stroke-width="2"/><a xlink:title="P465A"><circle cx="298.536585" cy="84.000000" r="4.000000" fill="#ff0000" /></a><g transform="translate(298.536585,84.000000) rotate(-30)"><text style="font-size:10px;font-family:OpenSans;fill:#555;" text-anchor="middle" x="0" y="-6.000000">P465A</text></g><line x1="302.804878" x2="302.804878" y1="96.500000" y2="124.500000" stroke="#BABDB6" stroke-width="2"/><a xlink:title="I472F"><circle cx="302.804878" cy="96.500000" r="4.000000" fill="#ff0000" /></a><g transform="translate(302.804878,96.500000) rotate(-30)"><text style="font-size:10px;font-family:OpenSans;fill:#555;" text-anchor="middle" x="0" y="-6.000000">I472F</text></g><line x1="313.780488" x2="313.780488" y1="96.500000" y2="124.500000" stroke="#BABDB6" stroke-width="2"/><a xlink:title="V490V"><circle cx="313.780488" cy="96.500000" r="4.000000" fill="#0000ff" /></a><g transform="translate(313.780488,96.500000) rotate(-30)"><text style="font-size:10px;font-family:OpenSans;fill:#555;" text-anchor="middle" x="0" y="-6.000000">V490V</text></g><line x1="321.707317" x2="321.707317" y1="96.500000" y2="124.500000" stroke="#BABDB6" stroke-width="2"/><a xlink:title="T503A"><circle cx="321.707317" cy="96.500000" r="4.000000" fill="#ff0000" /></a><g transform="translate(321.707317,96.500000) rotate(-30)"><text style="font-size:10px;font-family:OpenSans;fill:#555;" text-anchor="middle" x="0" y="-6.000000">T503A</text></g><line x1="352.195122" x2="352.195122" y1="84.000000" y2="124.500000" stroke="#BABDB6" stroke-width="2"/><a xlink:title="A553V"><circle cx="352.195122" cy="84.000000" r="4.000000" fill="#ff0000" /></a><g transform="translate(352.195122,84.000000) rotate(-30)"><text style="font-size:10px;font-family:OpenSans;fill:#555;" text-anchor="middle" x="0" y="-6.000000">A553V</text></g><line x1="355.243902" x2="355.243902" y1="96.500000" y2="124.500000" stroke="#BABDB6" stroke-width="2"/><a xlink:title="A558V"><circle cx="355.243902" cy="96.500000" r="4.000000" fill="#ff0000" /></a><g transform="translate(355.243902,96.500000) rotate(-30)"><text style="font-size:10px;font-family:OpenSans;fill:#555;" text-anchor="middle" x="0" y="-6.000000">A558V</text></g><line x1="368.048780" x2="368.048780" y1="84.000000" y2="124.500000" stroke="#BABDB6" stroke-width="2"/><a xlink:title="A579V"><circle cx="368.048780" cy="84.000000" r="4.000000" fill="#ff0000" /></a><g transform="translate(368.048780,84.000000) rotate(-30)"><text style="font-size:10px;font-family:OpenSans;fill:#555;" text-anchor="middle" x="0" y="-6.000000">A579V</text></g><line x1="368.658537" x2="368.658537" y1="96.500000" y2="124.500000" stroke="#BABDB6" stroke-width="2"/><a xlink:title="A580V"><circle cx="368.658537" cy="96.500000" r="4.000000" fill="#ff0000" /></a><g transform="translate(368.658537,96.500000) rotate(-30)"><text style="font-size:10px;font-family:OpenSans;fill:#555;" text-anchor="middle" x="0" y="-6.000000">A580V</text></g><line x1="440.000000" x2="440.000000" y1="96.500000" y2="124.500000" stroke="#BABDB6" stroke-width="2"/><a xlink:title="A697V"><circle cx="440.000000" cy="96.500000" r="4.000000" fill="#ff0000" /></a><g transform="translate(440.000000,96.500000) rotate(-30)"><text style="font-size:10px;font-family:OpenSans;fill:#555;" text-anchor="middle" x="0" y="-6.000000">A697V</text></g><a xlink:title=",  (656aa)"><rect fill="#BABDB6" x="15.000000" y="124.500000" width="400.000000" height="14.000000"/></a><g transform="translate(72.317073,119.500000)"><a xlink:href="https://www.ebi.ac.uk/interpro/entry/pfam/PF15094" xlink:title="Domain of unknown function (DUF4556), Ig-like"><rect fill="#2DCF00" x="0" y="0" width="63.414634" height="24.000000" filter="url(#ds)"/><text style="font-size:12px;font-family:OpenSans;fill:#ffffff;" text-anchor="middle" x="31.707317" y="16.000000">DUF4556</text></a></g>
<g class="axis">
<line x1="15.000000" x2="415.000000" y1="153.500000" y2="153.500000" stroke="#AAAAAA" /><line x1="15.000000" x2="15.000000" y1="153.500000" y2="158.500000" stroke="#AAAAAA" /><line x1="33.902439" x2="33.902439" y1="153.500000" y2="158.500000" stroke="#AAAAAA" /><text style="font-size:10px;font-family:OpenSans;fill:#000000;" text-anchor="middle" x="33.902439" y="168.500000">31</text><line x1="72.317073" x2="72.317073" y1="153.500000" y2="158.500000" stroke="#AAAAAA" /><text style="font-size:10px;font-family:OpenSans;fill:#000000;" text-anchor="middle" x="72.317073" y="168.500000">94</text><line x1="135.731707" x2="135.731707" y1="153.500000" y2="158.500000" stroke="#AAAAAA" /><text style="font-size:10px;font-family:OpenSans;fill:#000000;" text-anchor="middle" x="135.731707" y="168.500000">198</text><line x1="210.731707" x2="210.731707" y1="153.500000" y2="158.500000" stroke="#AAAAAA" /><text style="font-size:10px;font-family:OpenSans;fill:#000000;" text-anchor="middle" x="210.731707" y="168.500000">321</text><line x1="230.853659" x2="230.853659" y1="153.500000" y2="158.500000" stroke="#AAAAAA" /><text style="font-size:10px;font-family:OpenSans;fill:#000000;" text-anchor="middle" x="230.853659" y="168.500000">354</text><line x1="250.365854" x2="250.365854" y1="153.500000" y2="158.500000" stroke="#AAAAAA" /><text style="font-size:10px;font-family:OpenSans;fill:#000000;" text-anchor="middle" x="250.365854" y="168.500000">386</text><line x1="298.536585" x2="298.536585" y1="153.500000" y2="158.500000" stroke="#AAAAAA" /><text style="font-size:10px;font-family:OpenSans;fill:#000000;" text-anchor="middle" x="298.536585" y="168.500000">465</text><line x1="321.707317" x2="321.707317" y1="153.500000" y2="158.500000" stroke="#AAAAAA" /><text style="font-size:10px;font-family:OpenSans;fill:#000000;" text-anchor="middle" x="321.707317" y="168.500000">503</text><line x1="352.195122" x2="352.195122" y1="153.500000" y2="158.500000" stroke="#AAAAAA" /><text style="font-size:10px;font-family:OpenSans;fill:#000000;" text-anchor="middle" x="352.195122" y="168.500000">553</text><line x1="415.000000" x2="415.000000" y1="153.500000" y2="158.500000" stroke="#AAAAAA" /><text style="font-size:10px;font-family:OpenSans;fill:#000000;" text-anchor="middle" x="415.000000" y="168.500000">656</text><line x1="440.000000" x2="440.000000" y1="153.500000" y2="158.500000" stroke="#AAAAAA" /><text style="font-size:10px;font-family:OpenSans;fill:#000000;" text-anchor="middle" x="440.000000" y="168.500000">697</text></g>
<rect fill="#2DCF00" x="4" y="182.500000" width="12" height="12" filter="url(#ds)"/><text style="font-size:12px;font-family:OpenSans;fill:#000000;" text-anchor="start" x="20" y="194.500000">Domain of unknown function (DUF4556), Ig-like</text></svg>
