<?xml version='1.0'?>
<svg xmlns="http://www.w3.org/2000/svg" xmlns:xlink="http://www.w3.org/1999/xlink" width="606.760563" height="158.700000">
<defs>
  <filter id="ds" x="0" y="0">
    <feOffset in="SourceAlpha" dx="2" dy="2" />
    <feComponentTransfer><feFuncA type="linear" slope="0.2"/></feComponentTransfer>
    <feGaussianBlur result="blurOut" stdDeviation="1" />
    <feBlend in="SourceGraphic" in2="blurOut" mode="normal" />
  </filter>
  <pattern id="disordered-hatch" patternUnits="userSpaceOnUse" width="4" height="4">
    <path d="M-1,1 l2,-2 M0,4 l4,-4 M3,5 l2,-2" stroke="#000000" opacity="0.3" />
  </pattern>
</defs>
<line x1="51.443662" x2="51.443662" y1="46.500000" y2="74.500000" stroke="#BABDB6" stroke-width="2"/><a xlink:title="K115N"><circle cx="51.443662" cy="46.500000" r="4.000000" fill="#ff0000" /></a><g transform="translate(51.443662,46.500000) rotate(-30)"><text style="font-size:10px;font-family:OpenSans;fill:#555;" text-anchor="middle" x="0" y="-6.000000">K115N</text></g><line x1="110.704225" x2="110.704225" y1="46.500000" y2="74.500000" stroke="#BABDB6" stroke-width="2"/><a xlink:title="S302S"><circle cx="110.704225" cy="46.500000" r="4.000000" fill="#0000ff" /></a><g transform="translate(110.704225,46.500000) rotate(-30)"><text style="font-size:10px;font-family:OpenSans;fill:#555;" text-anchor="middle" x="0" y="-6.000000">S302S</text></g><line x1="233.345070" x2="233.345070" y1="46.500000" y2="74.500000" stroke="#BABDB6" stroke-width="2"/><a xlink:title="S689S"><circle cx="233.345070" cy="46.500000" r="4.000000" fill="#0000ff" /></a><g transform="translate(233.345070,46.500000) rotate(-30)"><text style="font-size:10px;font-family:OpenSans;fill:#555;" text-anchor="middle" x="0" y="-6.000000">S689S</text></g><line x1="240.633803" x2="240.633803" y1="46.500000" y2="74.500000" stroke="#BABDB6" stroke-width="2"/><a xlink:title="S712S"><circle cx="240.633803" cy="46.500000" r="4.000000" fill="#0000ff" /></a><g transform="translate(240.633803,46.500000) rotate(-30)"><text style="font-size:10px;font-family:OpenSans;fill:#555;" text-anchor="middle" x="0" y="-6.000000">S712S</text></g><line x1="253.309859" x2="253.309859" y1="34.000000" y2="74.500000" stroke="#BABDB6" stroke-width="2"/><a xlink:title="S752S"><circle cx="253.309859" cy="34.000000" r="4.000000" fill="#0000ff" /></a><g transform="translate(253.309859,34.000000) rotate(-30)"><text style="font-size:10px;font-family:OpenSans;fill:#555;" text-anchor="middle" x="0" y="-6.000000">S752S</text></g><line x1="253.626761" x2="253.626761" y1="46.500000" y2="74.500000" stroke="#BABDB6" stroke-width="2"/><a xlink:title="S753S"><circle cx="253.626761" cy="46.500000" r="4.000000" fill="#0000ff" /></a><g transform="translate(253.626761,46.500000) rotate(-30)"><text style="font-size:10px;font-family:OpenSans;fill:#555;" text-anchor="middle" x="0" y="-6.000000">S753S</text></g><line x1="276.443662" x2="276.443662" y1="46.500000" y2="74.500000" stroke="#BABDB6" stroke-width="2"/><a xlink:title="S825S"><circle cx="276.443662" cy="46.500000" r="4.000000" fill="#0000ff" /></a><g transform="translate(276.443662,46.500000) rotate(-30)"><text style="font-size:10px;font-family:OpenSans;fill:#555;" text-anchor="middle" x="0" y="-6.000000">S825S</text></g><line x1="283.415493" x2="283.415493" y1="34.000000" y2="74.500000" stroke="#BABDB6" stroke-width="2"/><a xlink:title="S847S"><circle cx="283.415493" cy="34.000000" r="4.000000" fill="#0000ff" /></a><g transform="translate(283.415493,34.000000) rotate(-30)"><text style="font-size:10px;font-family:OpenSans;fill:#555;" text-anchor="middle" x="0" y="-6.000000">S847S</text></g><line x1="283.732394" x2="283.732394" y1="46.500000" y2="74.500000" stroke="#BABDB6" stroke-width="2"/><a xlink:title="S848S"><circle cx="283.732394" cy="46.500000" r="4.000000" fill="#0000ff" /></a><g transform="translate(283.732394,46.500000) rotate(-30)"><text style="font-size:10px;font-family:OpenSans;fill:#555;" text-anchor="middle" x="0" y="-6.000000">S848S</text></g><a xlink:title=",  (1820aa)"><rect fill="#BABDB6" x="15.000000" y="74.500000" width="576.760563" height="14.000000"/></a><g transform="translate(46.690141,69.500000)"><a xlink:href="https://www.ebi.ac.uk/interpro/entry/pfam/PF15729" xlink:title="Cation channel sperm-associated targeting subunit tau"><rect fill="#2DCF00" x="0" y="0" width="45.000000" height="24.000000" filter="url(#ds)"/><text style="font-size:12px;font-family:OpenSans;fill:#ffffff;" text-anchor="middle" x="22.500000" y="16.000000">CTSRT</text></a></g>
<g class="axis">
<line x1="15.000000" x2="591.760563" y1="103.500000" y2="103.500000" stroke="#AAAAAA" /><line x1="15.000000" x2="15.000000" y1="103.500000" y2="108.500000" stroke="#AAAAAA" /><line x1="15.000000" x2="15.000000" y1="103.500000" y2="108.500000" stroke="#AAAAAA" /><text style="font-size:10px;font-family:OpenSans;fill:#000000;" text-anchor="middle" x="15.000000" y="118.500000">0</text><line x1="51.443662" x2="51.443662" y1="103.500000" y2="108.500000" stroke="#AAAAAA" /><text style="font-size:10px;font-family:OpenSans;fill:#000000;" text-anchor="middle" x="51.443662" y="118.500000">115</text><line x1="110.704225" x2="110.704225" y1="103.500000" y2="108.500000" stroke="#AAAAAA" /><text style="font-size:10px;font-family:OpenSans;fill:#000000;" text-anchor="middle" x="110.704225" y="118.500000">302</text><line x1="233.345070" x2="233.345070" y1="103.500000" y2="108.500000" stroke="#AAAAAA" /><text style="font-size:10px;font-family:OpenSans;fill:#000000;" text-anchor="middle" x="233.345070" y="118.500000">689</text><line x1="253.309859" x2="253.309859" y1="103.500000" y2="108.500000" stroke="#AAAAAA" /><text style="font-size:10px;font-family:OpenSans;fill:#000000;" text-anchor="middle" x="253.309859" y="118.500000">752</text><line x1="276.443662" x2="276.443662" y1="103.500000" y2="108.500000" stroke="#AAAAAA" /><text style="font-size:10px;font-family:OpenSans;fill:#000000;" text-anchor="middle" x="276.443662" y="118.500000">825</text><line x1="591.760563" x2="591.760563" y1="103.500000" y2="108.500000" stroke="#AAAAAA" /><text style="font-size:10px;font-family:OpenSans;fill:#000000;" text-anchor="middle" x="591.760563" y="118.500000">1820</text></g>
<rect fill="#2DCF00" x="4" y="132.500000" width="12" height="12" filter="url(#ds)"/><text style="font-size:12px;font-family:OpenSans;fill:#000000;" text-anchor="start" x="20" y="144.500000">Cation channel sperm-associated targeting subunit tau</text></svg>
