<?xml version='1.0'?>
<svg xmlns="http://www.w3.org/2000/svg" xmlns:xlink="http://www.w3.org/1999/xlink" width="2646.000000" height="238.600000">
<defs>
  <filter id="ds" x="0" y="0">
    <feOffset in="SourceAlpha" dx="2" dy="2" />
    <feComponentTransfer><feFuncA type="linear" slope="0.2"/></feComponentTransfer>
    <feGaussianBlur result="blurOut" stdDeviation="1" />
    <feBlend in="SourceGraphic" in2="blurOut" mode="normal" />
  </filter>
  <pattern id="disordered-hatch" patternUnits="userSpaceOnUse" width="4" height="4">
    <path d="M-1,1 l2,-2 M0,4 l4,-4 M3,5 l2,-2" stroke="#000000" opacity="0.3" />
  </pattern>
</defs>
<line x1="226.500000" x2="226.500000" y1="34.000000" y2="62.000000" stroke="#BABDB6" stroke-width="2"/><a xlink:title="L141V"><circle cx="226.500000" cy="34.000000" r="4.000000" fill="#ff0000" /></a><g transform="translate(226.500000,34.000000) rotate(-30)"><text style="font-size:10px;font-family:OpenSans;fill:#555;" text-anchor="middle" x="0" y="-6.000000">L141V</text></g><line x1="1657.500000" x2="1657.500000" y1="34.000000" y2="62.000000" stroke="#BABDB6" stroke-width="2"/><a xlink:title="G1095G"><circle cx="1657.500000" cy="34.000000" r="4.000000" fill="#0000ff" /></a><g transform="translate(1657.500000,34.000000) rotate(-30)"><text style="font-size:10px;font-family:OpenSans;fill:#555;" text-anchor="middle" x="0" y="-6.000000">G1095G</text></g><line x1="1695.000000" x2="1695.000000" y1="34.000000" y2="62.000000" stroke="#BABDB6" stroke-width="2"/><a xlink:title="P1120T"><circle cx="1695.000000" cy="34.000000" r="4.000000" fill="#ff0000" /></a><g transform="translate(1695.000000,34.000000) rotate(-30)"><text style="font-size:10px;font-family:OpenSans;fill:#555;" text-anchor="middle" x="0" y="-6.000000">P1120T</text></g><line x1="1779.000000" x2="1779.000000" y1="34.000000" y2="62.000000" stroke="#BABDB6" stroke-width="2"/><a xlink:title="N1176S"><circle cx="1779.000000" cy="34.000000" r="4.000000" fill="#ff0000" /></a><g transform="translate(1779.000000,34.000000) rotate(-30)"><text style="font-size:10px;font-family:OpenSans;fill:#555;" text-anchor="middle" x="0" y="-6.000000">N1176S</text></g><a xlink:title=",  (1744aa)"><rect fill="#BABDB6" x="15.000000" y="62.000000" width="2616.000000" height="14.000000"/></a><g transform="translate(49.500000,57.000000)"><a xlink:href="https://www.ebi.ac.uk/interpro/entry/pfam/PF21145" xlink:title="Complement C4, MG1 domain"><rect fill="#2DCF00" x="0" y="0" width="166.500000" height="24.000000" filter="url(#ds)"/><text style="font-size:12px;font-family:OpenSans;fill:#ffffff;" text-anchor="middle" x="83.250000" y="16.000000">C4_MG1</text></a></g>
<g transform="translate(226.500000,57.000000)"><a xlink:href="https://www.ebi.ac.uk/interpro/entry/pfam/PF01835" xlink:title="MG2 domain"><rect fill="#FF5353" x="0" y="0" width="138.000000" height="24.000000" filter="url(#ds)"/><text style="font-size:12px;font-family:OpenSans;fill:#ffffff;" text-anchor="middle" x="69.000000" y="16.000000">MG2 domain</text></a></g>
<g transform="translate(367.500000,57.000000)"><a xlink:href="https://www.ebi.ac.uk/interpro/entry/pfam/PF17791" xlink:title="Macroglobulin domain MG3"><rect fill="#5B5BFF" x="0" y="0" width="129.000000" height="24.000000" filter="url(#ds)"/><text style="font-size:12px;font-family:OpenSans;fill:#ffffff;" text-anchor="middle" x="64.500000" y="16.000000">MG3</text></a></g>
<g transform="translate(568.500000,57.000000)"><a xlink:href="https://www.ebi.ac.uk/interpro/entry/pfam/PF17789" xlink:title="Macroglobulin domain MG4"><rect fill="#EBD61D" x="0" y="0" width="127.500000" height="24.000000" filter="url(#ds)"/><text style="font-size:12px;font-family:OpenSans;fill:#ffffff;" text-anchor="middle" x="63.750000" y="16.000000">MG4</text></a></g>
<g transform="translate(730.500000,57.000000)"><a xlink:href="https://www.ebi.ac.uk/interpro/entry/pfam/PF07703" xlink:title="Alpha-2-macroglobulin bait region domain"><rect fill="#BA21E0" x="0" y="0" width="199.500000" height="24.000000" filter="url(#ds)"/><text style="font-size:12px;font-family:OpenSans;fill:#ffffff;" text-anchor="middle" x="99.750000" y="16.000000">A2M_BRD</text></a></g>
<g transform="translate(1068.000000,57.000000)"><a xlink:href="https://www.ebi.ac.uk/interpro/entry/pfam/PF01821" xlink:title="Anaphylotoxin-like domain"><rect fill="#FF9C42" x="0" y="0" width="51.000000" height="24.000000" filter="url(#ds)"/><text style="font-size:12px;font-family:OpenSans;fill:#ffffff;" text-anchor="middle" x="25.500000" y="16.000000">ANATO</text></a></g>
<g transform="translate(1186.500000,57.000000)"><a xlink:href="https://www.ebi.ac.uk/interpro/entry/pfam/PF00207" xlink:title="Alpha-2-macroglobulin family"><rect fill="#FF7DFF" x="0" y="0" width="132.000000" height="24.000000" filter="url(#ds)"/><text style="font-size:12px;font-family:OpenSans;fill:#ffffff;" text-anchor="middle" x="66.000000" y="16.000000">A2M</text></a></g>
<g transform="translate(1491.000000,57.000000)"><a xlink:href="https://www.ebi.ac.uk/interpro/entry/pfam/PF07678" xlink:title="A-macroglobulin TED domain"><rect fill="#B9264F" x="0" y="0" width="496.500000" height="24.000000" filter="url(#ds)"/><text style="font-size:12px;font-family:OpenSans;fill:#ffffff;" text-anchor="middle" x="248.250000" y="16.000000">A-macroglobulin TED domain</text></a></g>
<g transform="translate(1995.000000,57.000000)"><a xlink:href="https://www.ebi.ac.uk/interpro/entry/pfam/PF22661" xlink:title="Complement C4A/B CUB C-terminal domain"><rect fill="#BABA21" x="0" y="0" width="99.000000" height="24.000000" filter="url(#ds)"/><text style="font-size:12px;font-family:OpenSans;fill:#ffffff;" text-anchor="middle" x="49.500000" y="16.000000">CO4A-B_CUB_C</text></a></g>
<g transform="translate(2236.500000,57.000000)"><a xlink:href="https://www.ebi.ac.uk/interpro/entry/pfam/PF07677" xlink:title="A-macroglobulin receptor binding domain"><rect fill="#C48484" x="0" y="0" width="133.500000" height="24.000000" filter="url(#ds)"/><text style="font-size:12px;font-family:OpenSans;fill:#ffffff;" text-anchor="middle" x="66.750000" y="16.000000">A2M_recep</text></a></g>
<g transform="translate(2439.000000,57.000000)"><a xlink:href="https://www.ebi.ac.uk/interpro/entry/pfam/PF01759" xlink:title="UNC-6/NTR/C345C module"><rect fill="#1F88A7" x="0" y="0" width="162.000000" height="24.000000" filter="url(#ds)"/><text style="font-size:12px;font-family:OpenSans;fill:#ffffff;" text-anchor="middle" x="81.000000" y="16.000000">UNC-6/NTR/C345C module</text></a></g>
<g class="axis">
<line x1="15.000000" x2="2631.000000" y1="91.000000" y2="91.000000" stroke="#AAAAAA" /><line x1="15.000000" x2="15.000000" y1="91.000000" y2="96.000000" stroke="#AAAAAA" /><line x1="15.000000" x2="15.000000" y1="91.000000" y2="96.000000" stroke="#AAAAAA" /><text style="font-size:10px;font-family:OpenSans;fill:#000000;" text-anchor="middle" x="15.000000" y="106.000000">0</text><line x1="49.500000" x2="49.500000" y1="91.000000" y2="96.000000" stroke="#AAAAAA" /><text style="font-size:10px;font-family:OpenSans;fill:#000000;" text-anchor="middle" x="49.500000" y="106.000000">23</text><line x1="226.500000" x2="226.500000" y1="91.000000" y2="96.000000" stroke="#AAAAAA" /><text style="font-size:10px;font-family:OpenSans;fill:#000000;" text-anchor="middle" x="226.500000" y="106.000000">141</text><line x1="364.500000" x2="364.500000" y1="91.000000" y2="96.000000" stroke="#AAAAAA" /><text style="font-size:10px;font-family:OpenSans;fill:#000000;" text-anchor="middle" x="364.500000" y="106.000000">233</text><line x1="496.500000" x2="496.500000" y1="91.000000" y2="96.000000" stroke="#AAAAAA" /><text style="font-size:10px;font-family:OpenSans;fill:#000000;" text-anchor="middle" x="496.500000" y="106.000000">321</text><line x1="568.500000" x2="568.500000" y1="91.000000" y2="96.000000" stroke="#AAAAAA" /><text style="font-size:10px;font-family:OpenSans;fill:#000000;" text-anchor="middle" x="568.500000" y="106.000000">369</text><line x1="696.000000" x2="696.000000" y1="91.000000" y2="96.000000" stroke="#AAAAAA" /><text style="font-size:10px;font-family:OpenSans;fill:#000000;" text-anchor="middle" x="696.000000" y="106.000000">454</text><line x1="730.500000" x2="730.500000" y1="91.000000" y2="96.000000" stroke="#AAAAAA" /><text style="font-size:10px;font-family:OpenSans;fill:#000000;" text-anchor="middle" x="730.500000" y="106.000000">477</text><line x1="930.000000" x2="930.000000" y1="91.000000" y2="96.000000" stroke="#AAAAAA" /><text style="font-size:10px;font-family:OpenSans;fill:#000000;" text-anchor="middle" x="930.000000" y="106.000000">610</text><line x1="1068.000000" x2="1068.000000" y1="91.000000" y2="96.000000" stroke="#AAAAAA" /><text style="font-size:10px;font-family:OpenSans;fill:#000000;" text-anchor="middle" x="1068.000000" y="106.000000">702</text><line x1="1119.000000" x2="1119.000000" y1="91.000000" y2="96.000000" stroke="#AAAAAA" /><text style="font-size:10px;font-family:OpenSans;fill:#000000;" text-anchor="middle" x="1119.000000" y="106.000000">736</text><line x1="1186.500000" x2="1186.500000" y1="91.000000" y2="96.000000" stroke="#AAAAAA" /><text style="font-size:10px;font-family:OpenSans;fill:#000000;" text-anchor="middle" x="1186.500000" y="106.000000">781</text><line x1="1318.500000" x2="1318.500000" y1="91.000000" y2="96.000000" stroke="#AAAAAA" /><text style="font-size:10px;font-family:OpenSans;fill:#000000;" text-anchor="middle" x="1318.500000" y="106.000000">869</text><line x1="1491.000000" x2="1491.000000" y1="91.000000" y2="96.000000" stroke="#AAAAAA" /><text style="font-size:10px;font-family:OpenSans;fill:#000000;" text-anchor="middle" x="1491.000000" y="106.000000">984</text><line x1="1657.500000" x2="1657.500000" y1="91.000000" y2="96.000000" stroke="#AAAAAA" /><text style="font-size:10px;font-family:OpenSans;fill:#000000;" text-anchor="middle" x="1657.500000" y="106.000000">1095</text><line x1="1695.000000" x2="1695.000000" y1="91.000000" y2="96.000000" stroke="#AAAAAA" /><text style="font-size:10px;font-family:OpenSans;fill:#000000;" text-anchor="middle" x="1695.000000" y="106.000000">1120</text><line x1="1779.000000" x2="1779.000000" y1="91.000000" y2="96.000000" stroke="#AAAAAA" /><text style="font-size:10px;font-family:OpenSans;fill:#000000;" text-anchor="middle" x="1779.000000" y="106.000000">1176</text><line x1="1987.500000" x2="1987.500000" y1="91.000000" y2="96.000000" stroke="#AAAAAA" /><text style="font-size:10px;font-family:OpenSans;fill:#000000;" text-anchor="middle" x="1987.500000" y="106.000000">1315</text><line x1="2094.000000" x2="2094.000000" y1="91.000000" y2="96.000000" stroke="#AAAAAA" /><text style="font-size:10px;font-family:OpenSans;fill:#000000;" text-anchor="middle" x="2094.000000" y="106.000000">1386</text><line x1="2236.500000" x2="2236.500000" y1="91.000000" y2="96.000000" stroke="#AAAAAA" /><text style="font-size:10px;font-family:OpenSans;fill:#000000;" text-anchor="middle" x="2236.500000" y="106.000000">1481</text><line x1="2370.000000" x2="2370.000000" y1="91.000000" y2="96.000000" stroke="#AAAAAA" /><text style="font-size:10px;font-family:OpenSans;fill:#000000;" text-anchor="middle" x="2370.000000" y="106.000000">1570</text><line x1="2439.000000" x2="2439.000000" y1="91.000000" y2="96.000000" stroke="#AAAAAA" /><text style="font-size:10px;font-family:OpenSans;fill:#000000;" text-anchor="middle" x="2439.000000" y="106.000000">1616</text><line x1="2601.000000" x2="2601.000000" y1="91.000000" y2="96.000000" stroke="#AAAAAA" /><text style="font-size:10px;font-family:OpenSans;fill:#000000;" text-anchor="middle" x="2601.000000" y="106.000000">1724</text><line x1="2631.000000" x2="2631.000000" y1="91.000000" y2="96.000000" stroke="#AAAAAA" /><text style="font-size:10px;font-family:OpenSans;fill:#000000;" text-anchor="middle" x="2631.000000" y="106.000000">1744</text></g>
<rect fill="#C48484" x="4" y="120.000000" width="12" height="12" filter="url(#ds)"/><text style="font-size:12px;font-family:OpenSans;fill:#000000;" text-anchor="start" x="20" y="132.000000">A-macroglobulin receptor binding domain</text><rect fill="#2DCF00" x="4" y="134.000000" width="12" height="12" filter="url(#ds)"/><text style="font-size:12px;font-family:OpenSans;fill:#000000;" text-anchor="start" x="20" y="146.000000">Complement C4, MG1 domain</text><rect fill="#5B5BFF" x="4" y="148.000000" width="12" height="12" filter="url(#ds)"/><text style="font-size:12px;font-family:OpenSans;fill:#000000;" text-anchor="start" x="20" y="160.000000">Macroglobulin domain MG3</text><rect fill="#EBD61D" x="4" y="162.000000" width="12" height="12" filter="url(#ds)"/><text style="font-size:12px;font-family:OpenSans;fill:#000000;" text-anchor="start" x="20" y="174.000000">Macroglobulin domain MG4</text><rect fill="#BA21E0" x="4" y="176.000000" width="12" height="12" filter="url(#ds)"/><text style="font-size:12px;font-family:OpenSans;fill:#000000;" text-anchor="start" x="20" y="188.000000">Alpha-2-macroglobulin bait region domain</text><rect fill="#FF9C42" x="4" y="190.000000" width="12" height="12" filter="url(#ds)"/><text style="font-size:12px;font-family:OpenSans;fill:#000000;" text-anchor="start" x="20" y="202.000000">Anaphylotoxin-like domain</text><rect fill="#FF7DFF" x="4" y="204.000000" width="12" height="12" filter="url(#ds)"/><text style="font-size:12px;font-family:OpenSans;fill:#000000;" text-anchor="start" x="20" y="216.000000">Alpha-2-macroglobulin family</text><rect fill="#BABA21" x="4" y="218.000000" width="12" height="12" filter="url(#ds)"/><text style="font-size:12px;font-family:OpenSans;fill:#000000;" text-anchor="start" x="20" y="230.000000">Complement C4A/B CUB C-terminal domain</text></svg>
