<?xml version='1.0'?>
<svg xmlns="http://www.w3.org/2000/svg" xmlns:xlink="http://www.w3.org/1999/xlink" width="2648.653846" height="159.400000">
<defs>
  <filter id="ds" x="0" y="0">
    <feOffset in="SourceAlpha" dx="2" dy="2" />
    <feComponentTransfer><feFuncA type="linear" slope="0.2"/></feComponentTransfer>
    <feGaussianBlur result="blurOut" stdDeviation="1" />
    <feBlend in="SourceGraphic" in2="blurOut" mode="normal" />
  </filter>
  <pattern id="disordered-hatch" patternUnits="userSpaceOnUse" width="4" height="4">
    <path d="M-1,1 l2,-2 M0,4 l4,-4 M3,5 l2,-2" stroke="#000000" opacity="0.3" />
  </pattern>
</defs>
<line x1="122.884615" x2="122.884615" y1="34.000000" y2="62.000000" stroke="#BABDB6" stroke-width="2"/><a xlink:title="V66I"><circle cx="122.884615" cy="34.000000" r="4.000000" fill="#ff0000" /></a><g transform="translate(122.884615,34.000000) rotate(-30)"><text style="font-size:10px;font-family:OpenSans;fill:#555;" text-anchor="middle" x="0" y="-6.000000">V66I</text></g><line x1="1196.826923" x2="1196.826923" y1="34.000000" y2="62.000000" stroke="#BABDB6" stroke-width="2"/><a xlink:title="V723V"><circle cx="1196.826923" cy="34.000000" r="4.000000" fill="#0000ff" /></a><g transform="translate(1196.826923,34.000000) rotate(-30)"><text style="font-size:10px;font-family:OpenSans;fill:#555;" text-anchor="middle" x="0" y="-6.000000">V723V</text></g><line x1="1296.538462" x2="1296.538462" y1="34.000000" y2="62.000000" stroke="#BABDB6" stroke-width="2"/><a xlink:title="N784S"><circle cx="1296.538462" cy="34.000000" r="4.000000" fill="#ff0000" /></a><g transform="translate(1296.538462,34.000000) rotate(-30)"><text style="font-size:10px;font-family:OpenSans;fill:#555;" text-anchor="middle" x="0" y="-6.000000">N784S</text></g><line x1="1325.961538" x2="1325.961538" y1="34.000000" y2="62.000000" stroke="#BABDB6" stroke-width="2"/><a xlink:title="V802V"><circle cx="1325.961538" cy="34.000000" r="4.000000" fill="#0000ff" /></a><g transform="translate(1325.961538,34.000000) rotate(-30)"><text style="font-size:10px;font-family:OpenSans;fill:#555;" text-anchor="middle" x="0" y="-6.000000">V802V</text></g><line x1="1343.942308" x2="1343.942308" y1="34.000000" y2="62.000000" stroke="#BABDB6" stroke-width="2"/><a xlink:title="V813V"><circle cx="1343.942308" cy="34.000000" r="4.000000" fill="#0000ff" /></a><g transform="translate(1343.942308,34.000000) rotate(-30)"><text style="font-size:10px;font-family:OpenSans;fill:#555;" text-anchor="middle" x="0" y="-6.000000">V813V</text></g><line x1="1415.865385" x2="1415.865385" y1="34.000000" y2="62.000000" stroke="#BABDB6" stroke-width="2"/><a xlink:title="V857V"><circle cx="1415.865385" cy="34.000000" r="4.000000" fill="#0000ff" /></a><g transform="translate(1415.865385,34.000000) rotate(-30)"><text style="font-size:10px;font-family:OpenSans;fill:#555;" text-anchor="middle" x="0" y="-6.000000">V857V</text></g><line x1="1425.673077" x2="1425.673077" y1="34.000000" y2="62.000000" stroke="#BABDB6" stroke-width="2"/><a xlink:title="N863S"><circle cx="1425.673077" cy="34.000000" r="4.000000" fill="#ff0000" /></a><g transform="translate(1425.673077,34.000000) rotate(-30)"><text style="font-size:10px;font-family:OpenSans;fill:#555;" text-anchor="middle" x="0" y="-6.000000">N863S</text></g><line x1="1433.846154" x2="1433.846154" y1="34.000000" y2="62.000000" stroke="#BABDB6" stroke-width="2"/><a xlink:title="V868V"><circle cx="1433.846154" cy="34.000000" r="4.000000" fill="#0000ff" /></a><g transform="translate(1433.846154,34.000000) rotate(-30)"><text style="font-size:10px;font-family:OpenSans;fill:#555;" text-anchor="middle" x="0" y="-6.000000">V868V</text></g><line x1="1443.653846" x2="1443.653846" y1="34.000000" y2="62.000000" stroke="#BABDB6" stroke-width="2"/><a xlink:title="N874S"><circle cx="1443.653846" cy="34.000000" r="4.000000" fill="#ff0000" /></a><g transform="translate(1443.653846,34.000000) rotate(-30)"><text style="font-size:10px;font-family:OpenSans;fill:#555;" text-anchor="middle" x="0" y="-6.000000">N874S</text></g><line x1="1515.576923" x2="1515.576923" y1="34.000000" y2="62.000000" stroke="#BABDB6" stroke-width="2"/><a xlink:title="N918S"><circle cx="1515.576923" cy="34.000000" r="4.000000" fill="#ff0000" /></a><g transform="translate(1515.576923,34.000000) rotate(-30)"><text style="font-size:10px;font-family:OpenSans;fill:#555;" text-anchor="middle" x="0" y="-6.000000">N918S</text></g><line x1="1533.557692" x2="1533.557692" y1="34.000000" y2="62.000000" stroke="#BABDB6" stroke-width="2"/><a xlink:title="N929S"><circle cx="1533.557692" cy="34.000000" r="4.000000" fill="#ff0000" /></a><g transform="translate(1533.557692,34.000000) rotate(-30)"><text style="font-size:10px;font-family:OpenSans;fill:#555;" text-anchor="middle" x="0" y="-6.000000">N929S</text></g><line x1="1651.250000" x2="1651.250000" y1="34.000000" y2="62.000000" stroke="#BABDB6" stroke-width="2"/><a xlink:title="V1001V"><circle cx="1651.250000" cy="34.000000" r="4.000000" fill="#0000ff" /></a><g transform="translate(1651.250000,34.000000) rotate(-30)"><text style="font-size:10px;font-family:OpenSans;fill:#555;" text-anchor="middle" x="0" y="-6.000000">V1001V</text></g><line x1="1669.230769" x2="1669.230769" y1="34.000000" y2="62.000000" stroke="#BABDB6" stroke-width="2"/><a xlink:title="V1012V"><circle cx="1669.230769" cy="34.000000" r="4.000000" fill="#0000ff" /></a><g transform="translate(1669.230769,34.000000) rotate(-30)"><text style="font-size:10px;font-family:OpenSans;fill:#555;" text-anchor="middle" x="0" y="-6.000000">V1012V</text></g><line x1="1750.961538" x2="1750.961538" y1="34.000000" y2="62.000000" stroke="#BABDB6" stroke-width="2"/><a xlink:title="N1062S"><circle cx="1750.961538" cy="34.000000" r="4.000000" fill="#ff0000" /></a><g transform="translate(1750.961538,34.000000) rotate(-30)"><text style="font-size:10px;font-family:OpenSans;fill:#555;" text-anchor="middle" x="0" y="-6.000000">N1062S</text></g><line x1="1768.942308" x2="1768.942308" y1="34.000000" y2="62.000000" stroke="#BABDB6" stroke-width="2"/><a xlink:title="N1073S"><circle cx="1768.942308" cy="34.000000" r="4.000000" fill="#ff0000" /></a><g transform="translate(1768.942308,34.000000) rotate(-30)"><text style="font-size:10px;font-family:OpenSans;fill:#555;" text-anchor="middle" x="0" y="-6.000000">N1073S</text></g><a xlink:title=",  (1602aa)"><rect fill="#BABDB6" x="15.000000" y="62.000000" width="2618.653846" height="14.000000"/></a><g transform="translate(390.961538,57.000000)"><a xlink:href="https://www.ebi.ac.uk/interpro/entry/pfam/PF11971" xlink:title="CAMSAP CH domain"><rect fill="#2DCF00" x="0" y="0" width="132.403846" height="24.000000" filter="url(#ds)"/><text style="font-size:12px;font-family:OpenSans;fill:#ffffff;" text-anchor="middle" x="66.201923" y="16.000000">CAMSAP CH domain</text></a></g>
<g transform="translate(1435.480769,57.000000)"><a xlink:href="https://www.ebi.ac.uk/interpro/entry/pfam/PF17095" xlink:title="Spectrin-binding region of Ca2+-Calmodulin"><rect fill="#FF5353" x="0" y="0" width="85.000000" height="24.000000" filter="url(#ds)"/><text style="font-size:12px;font-family:OpenSans;fill:#ffffff;" text-anchor="middle" x="42.500000" y="16.000000">CAMSAP_CC1</text></a></g>
<g transform="translate(2408.076923,57.000000)"><a xlink:href="https://www.ebi.ac.uk/interpro/entry/pfam/PF08683" xlink:title="Microtubule-binding calmodulin-regulated spectrin-associated"><rect fill="#5B5BFF" x="0" y="0" width="192.884615" height="24.000000" filter="url(#ds)"/><text style="font-size:12px;font-family:OpenSans;fill:#ffffff;" text-anchor="middle" x="96.442308" y="16.000000">CAMSAP_CKK</text></a></g>
<g class="axis">
<line x1="15.000000" x2="2633.653846" y1="91.000000" y2="91.000000" stroke="#AAAAAA" /><line x1="15.000000" x2="15.000000" y1="91.000000" y2="96.000000" stroke="#AAAAAA" /><line x1="15.000000" x2="15.000000" y1="91.000000" y2="96.000000" stroke="#AAAAAA" /><text style="font-size:10px;font-family:OpenSans;fill:#000000;" text-anchor="middle" x="15.000000" y="106.000000">0</text><line x1="122.884615" x2="122.884615" y1="91.000000" y2="96.000000" stroke="#AAAAAA" /><text style="font-size:10px;font-family:OpenSans;fill:#000000;" text-anchor="middle" x="122.884615" y="106.000000">66</text><line x1="390.961538" x2="390.961538" y1="91.000000" y2="96.000000" stroke="#AAAAAA" /><text style="font-size:10px;font-family:OpenSans;fill:#000000;" text-anchor="middle" x="390.961538" y="106.000000">230</text><line x1="523.365385" x2="523.365385" y1="91.000000" y2="96.000000" stroke="#AAAAAA" /><text style="font-size:10px;font-family:OpenSans;fill:#000000;" text-anchor="middle" x="523.365385" y="106.000000">311</text><line x1="1196.826923" x2="1196.826923" y1="91.000000" y2="96.000000" stroke="#AAAAAA" /><text style="font-size:10px;font-family:OpenSans;fill:#000000;" text-anchor="middle" x="1196.826923" y="106.000000">723</text><line x1="1296.538462" x2="1296.538462" y1="91.000000" y2="96.000000" stroke="#AAAAAA" /><text style="font-size:10px;font-family:OpenSans;fill:#000000;" text-anchor="middle" x="1296.538462" y="106.000000">784</text><line x1="1325.961538" x2="1325.961538" y1="91.000000" y2="96.000000" stroke="#AAAAAA" /><text style="font-size:10px;font-family:OpenSans;fill:#000000;" text-anchor="middle" x="1325.961538" y="106.000000">802</text><line x1="1415.865385" x2="1415.865385" y1="91.000000" y2="96.000000" stroke="#AAAAAA" /><text style="font-size:10px;font-family:OpenSans;fill:#000000;" text-anchor="middle" x="1415.865385" y="106.000000">857</text><line x1="1443.653846" x2="1443.653846" y1="91.000000" y2="96.000000" stroke="#AAAAAA" /><text style="font-size:10px;font-family:OpenSans;fill:#000000;" text-anchor="middle" x="1443.653846" y="106.000000">874</text><line x1="1515.576923" x2="1515.576923" y1="91.000000" y2="96.000000" stroke="#AAAAAA" /><text style="font-size:10px;font-family:OpenSans;fill:#000000;" text-anchor="middle" x="1515.576923" y="106.000000">918</text><line x1="1651.250000" x2="1651.250000" y1="91.000000" y2="96.000000" stroke="#AAAAAA" /><text style="font-size:10px;font-family:OpenSans;fill:#000000;" text-anchor="middle" x="1651.250000" y="106.000000">1001</text><line x1="1750.961538" x2="1750.961538" y1="91.000000" y2="96.000000" stroke="#AAAAAA" /><text style="font-size:10px;font-family:OpenSans;fill:#000000;" text-anchor="middle" x="1750.961538" y="106.000000">1062</text><line x1="2408.076923" x2="2408.076923" y1="91.000000" y2="96.000000" stroke="#AAAAAA" /><text style="font-size:10px;font-family:OpenSans;fill:#000000;" text-anchor="middle" x="2408.076923" y="106.000000">1464</text><line x1="2600.961538" x2="2600.961538" y1="91.000000" y2="96.000000" stroke="#AAAAAA" /><text style="font-size:10px;font-family:OpenSans;fill:#000000;" text-anchor="middle" x="2600.961538" y="106.000000">1582</text><line x1="2633.653846" x2="2633.653846" y1="91.000000" y2="96.000000" stroke="#AAAAAA" /><text style="font-size:10px;font-family:OpenSans;fill:#000000;" text-anchor="middle" x="2633.653846" y="106.000000">1602</text></g>
<rect fill="#FF5353" x="4" y="120.000000" width="12" height="12" filter="url(#ds)"/><text style="font-size:12px;font-family:OpenSans;fill:#000000;" text-anchor="start" x="20" y="132.000000">Spectrin-binding region of Ca2+-Calmodulin</text><rect fill="#5B5BFF" x="4" y="134.000000" width="12" height="12" filter="url(#ds)"/><text style="font-size:12px;font-family:OpenSans;fill:#000000;" text-anchor="start" x="20" y="146.000000">Microtubule-binding calmodulin-regulated spectrin-associated</text></svg>
