<?xml version='1.0'?>
<svg xmlns="http://www.w3.org/2000/svg" xmlns:xlink="http://www.w3.org/1999/xlink" width="465.725000" height="246.900000">
<defs>
  <filter id="ds" x="0" y="0">
    <feOffset in="SourceAlpha" dx="2" dy="2" />
    <feComponentTransfer><feFuncA type="linear" slope="0.2"/></feComponentTransfer>
    <feGaussianBlur result="blurOut" stdDeviation="1" />
    <feBlend in="SourceGraphic" in2="blurOut" mode="normal" />
  </filter>
  <pattern id="disordered-hatch" patternUnits="userSpaceOnUse" width="4" height="4">
    <path d="M-1,1 l2,-2 M0,4 l4,-4 M3,5 l2,-2" stroke="#000000" opacity="0.3" />
  </pattern>
</defs>
<line x1="17.900000" x2="17.900000" y1="121.500000" y2="149.500000" stroke="#BABDB6" stroke-width="2"/><a xlink:title="R8H"><circle cx="17.900000" cy="121.500000" r="4.000000" fill="#ff0000" /></a><g transform="translate(17.900000,121.500000) rotate(-30)"><text style="font-size:10px;font-family:OpenSans;fill:#555;" text-anchor="middle" x="0" y="-6.000000">R8H</text></g><line x1="44.000000" x2="44.000000" y1="109.000000" y2="149.500000" stroke="#BABDB6" stroke-width="2"/><a xlink:title="A80P"><circle cx="44.000000" cy="109.000000" r="4.000000" fill="#ff0000" /></a><g transform="translate(44.000000,109.000000) rotate(-30)"><text style="font-size:10px;font-family:OpenSans;fill:#555;" text-anchor="middle" x="0" y="-6.000000">A80P</text></g><line x1="45.087500" x2="45.087500" y1="121.500000" y2="149.500000" stroke="#BABDB6" stroke-width="2"/><a xlink:title="P83P"><circle cx="45.087500" cy="121.500000" r="4.000000" fill="#0000ff" /></a><g transform="translate(45.087500,121.500000) rotate(-30)"><text style="font-size:10px;font-family:OpenSans;fill:#555;" text-anchor="middle" x="0" y="-6.000000">P83P</text></g><line x1="88.225000" x2="88.225000" y1="121.500000" y2="149.500000" stroke="#BABDB6" stroke-width="2"/><a xlink:title="T202T"><circle cx="88.225000" cy="121.500000" r="4.000000" fill="#0000ff" /></a><g transform="translate(88.225000,121.500000) rotate(-30)"><text style="font-size:10px;font-family:OpenSans;fill:#555;" text-anchor="middle" x="0" y="-6.000000">T202T</text></g><line x1="111.425000" x2="111.425000" y1="34.000000" y2="149.500000" stroke="#BABDB6" stroke-width="2"/><a xlink:title="A266P"><circle cx="111.425000" cy="34.000000" r="4.000000" fill="#ff0000" /></a><g transform="translate(111.425000,34.000000) rotate(-30)"><text style="font-size:10px;font-family:OpenSans;fill:#555;" text-anchor="middle" x="0" y="-6.000000">A266P</text></g><line x1="111.787500" x2="111.787500" y1="46.500000" y2="149.500000" stroke="#BABDB6" stroke-width="2"/><a xlink:title="A267P"><circle cx="111.787500" cy="46.500000" r="4.000000" fill="#ff0000" /></a><g transform="translate(111.787500,46.500000) rotate(-30)"><text style="font-size:10px;font-family:OpenSans;fill:#555;" text-anchor="middle" x="0" y="-6.000000">A267P</text></g><line x1="112.512500" x2="112.512500" y1="59.000000" y2="149.500000" stroke="#BABDB6" stroke-width="2"/><a xlink:title="P269P"><circle cx="112.512500" cy="59.000000" r="4.000000" fill="#0000ff" /></a><g transform="translate(112.512500,59.000000) rotate(-30)"><text style="font-size:10px;font-family:OpenSans;fill:#555;" text-anchor="middle" x="0" y="-6.000000">P269P</text></g><line x1="112.512500" x2="112.512500" y1="71.500000" y2="149.500000" stroke="#BABDB6" stroke-width="2"/><a xlink:title="A269P"><circle cx="112.512500" cy="71.500000" r="4.000000" fill="#ff0000" /></a><g transform="translate(112.512500,71.500000) rotate(-30)"><text style="font-size:10px;font-family:OpenSans;fill:#555;" text-anchor="middle" x="0" y="-6.000000">A269P</text></g><line x1="112.875000" x2="112.875000" y1="84.000000" y2="149.500000" stroke="#BABDB6" stroke-width="2"/><a xlink:title="P270P"><circle cx="112.875000" cy="84.000000" r="4.000000" fill="#0000ff" /></a><g transform="translate(112.875000,84.000000) rotate(-30)"><text style="font-size:10px;font-family:OpenSans;fill:#555;" text-anchor="middle" x="0" y="-6.000000">P270P</text></g><line x1="113.600000" x2="113.600000" y1="96.500000" y2="149.500000" stroke="#BABDB6" stroke-width="2"/><a xlink:title="P272P"><circle cx="113.600000" cy="96.500000" r="4.000000" fill="#0000ff" /></a><g transform="translate(113.600000,96.500000) rotate(-30)"><text style="font-size:10px;font-family:OpenSans;fill:#555;" text-anchor="middle" x="0" y="-6.000000">P272P</text></g><line x1="113.600000" x2="113.600000" y1="109.000000" y2="149.500000" stroke="#BABDB6" stroke-width="2"/><a xlink:title="A272P"><circle cx="113.600000" cy="109.000000" r="4.000000" fill="#ff0000" /></a><g transform="translate(113.600000,109.000000) rotate(-30)"><text style="font-size:10px;font-family:OpenSans;fill:#555;" text-anchor="middle" x="0" y="-6.000000">A272P</text></g><line x1="114.687500" x2="114.687500" y1="109.000000" y2="149.500000" stroke="#BABDB6" stroke-width="2"/><a xlink:title="P275P"><circle cx="114.687500" cy="109.000000" r="4.000000" fill="#0000ff" /></a><g transform="translate(114.687500,109.000000) rotate(-30)"><text style="font-size:10px;font-family:OpenSans;fill:#555;" text-anchor="middle" x="0" y="-6.000000">P275P</text></g><line x1="120.125000" x2="120.125000" y1="84.000000" y2="149.500000" stroke="#BABDB6" stroke-width="2"/><a xlink:title="A290P"><circle cx="120.125000" cy="84.000000" r="4.000000" fill="#ff0000" /></a><g transform="translate(120.125000,84.000000) rotate(-30)"><text style="font-size:10px;font-family:OpenSans;fill:#555;" text-anchor="middle" x="0" y="-6.000000">A290P</text></g><line x1="121.212500" x2="121.212500" y1="96.500000" y2="149.500000" stroke="#BABDB6" stroke-width="2"/><a xlink:title="P293P"><circle cx="121.212500" cy="96.500000" r="4.000000" fill="#0000ff" /></a><g transform="translate(121.212500,96.500000) rotate(-30)"><text style="font-size:10px;font-family:OpenSans;fill:#555;" text-anchor="middle" x="0" y="-6.000000">P293P</text></g><line x1="121.937500" x2="121.937500" y1="109.000000" y2="149.500000" stroke="#BABDB6" stroke-width="2"/><a xlink:title="A295P"><circle cx="121.937500" cy="109.000000" r="4.000000" fill="#ff0000" /></a><g transform="translate(121.937500,109.000000) rotate(-30)"><text style="font-size:10px;font-family:OpenSans;fill:#555;" text-anchor="middle" x="0" y="-6.000000">A295P</text></g><line x1="123.025000" x2="123.025000" y1="121.500000" y2="149.500000" stroke="#BABDB6" stroke-width="2"/><a xlink:title="P298P"><circle cx="123.025000" cy="121.500000" r="4.000000" fill="#0000ff" /></a><g transform="translate(123.025000,121.500000) rotate(-30)"><text style="font-size:10px;font-family:OpenSans;fill:#555;" text-anchor="middle" x="0" y="-6.000000">P298P</text></g><line x1="137.162500" x2="137.162500" y1="121.500000" y2="149.500000" stroke="#BABDB6" stroke-width="2"/><a xlink:title="P337P"><circle cx="137.162500" cy="121.500000" r="4.000000" fill="#0000ff" /></a><g transform="translate(137.162500,121.500000) rotate(-30)"><text style="font-size:10px;font-family:OpenSans;fill:#555;" text-anchor="middle" x="0" y="-6.000000">P337P</text></g><line x1="155.650000" x2="155.650000" y1="84.000000" y2="149.500000" stroke="#BABDB6" stroke-width="2"/><a xlink:title="T388T"><circle cx="155.650000" cy="84.000000" r="4.000000" fill="#0000ff" /></a><g transform="translate(155.650000,84.000000) rotate(-30)"><text style="font-size:10px;font-family:OpenSans;fill:#555;" text-anchor="middle" x="0" y="-6.000000">T388T</text></g><line x1="156.012500" x2="156.012500" y1="96.500000" y2="149.500000" stroke="#BABDB6" stroke-width="2"/><a xlink:title="T389T"><circle cx="156.012500" cy="96.500000" r="4.000000" fill="#0000ff" /></a><g transform="translate(156.012500,96.500000) rotate(-30)"><text style="font-size:10px;font-family:OpenSans;fill:#555;" text-anchor="middle" x="0" y="-6.000000">T389T</text></g><line x1="156.737500" x2="156.737500" y1="109.000000" y2="149.500000" stroke="#BABDB6" stroke-width="2"/><a xlink:title="T391T"><circle cx="156.737500" cy="109.000000" r="4.000000" fill="#0000ff" /></a><g transform="translate(156.737500,109.000000) rotate(-30)"><text style="font-size:10px;font-family:OpenSans;fill:#555;" text-anchor="middle" x="0" y="-6.000000">T391T</text></g><line x1="157.825000" x2="157.825000" y1="121.500000" y2="149.500000" stroke="#BABDB6" stroke-width="2"/><a xlink:title="T394T"><circle cx="157.825000" cy="121.500000" r="4.000000" fill="#0000ff" /></a><g transform="translate(157.825000,121.500000) rotate(-30)"><text style="font-size:10px;font-family:OpenSans;fill:#555;" text-anchor="middle" x="0" y="-6.000000">T394T</text></g><line x1="164.350000" x2="164.350000" y1="109.000000" y2="149.500000" stroke="#BABDB6" stroke-width="2"/><a xlink:title="T412T"><circle cx="164.350000" cy="109.000000" r="4.000000" fill="#0000ff" /></a><g transform="translate(164.350000,109.000000) rotate(-30)"><text style="font-size:10px;font-family:OpenSans;fill:#555;" text-anchor="middle" x="0" y="-6.000000">T412T</text></g><line x1="166.162500" x2="166.162500" y1="121.500000" y2="149.500000" stroke="#BABDB6" stroke-width="2"/><a xlink:title="T417T"><circle cx="166.162500" cy="121.500000" r="4.000000" fill="#0000ff" /></a><g transform="translate(166.162500,121.500000) rotate(-30)"><text style="font-size:10px;font-family:OpenSans;fill:#555;" text-anchor="middle" x="0" y="-6.000000">T417T</text></g><line x1="204.587500" x2="204.587500" y1="84.000000" y2="149.500000" stroke="#BABDB6" stroke-width="2"/><a xlink:title="P523P"><circle cx="204.587500" cy="84.000000" r="4.000000" fill="#0000ff" /></a><g transform="translate(204.587500,84.000000) rotate(-30)"><text style="font-size:10px;font-family:OpenSans;fill:#555;" text-anchor="middle" x="0" y="-6.000000">P523P</text></g><line x1="204.950000" x2="204.950000" y1="96.500000" y2="149.500000" stroke="#BABDB6" stroke-width="2"/><a xlink:title="P524P"><circle cx="204.950000" cy="96.500000" r="4.000000" fill="#0000ff" /></a><g transform="translate(204.950000,96.500000) rotate(-30)"><text style="font-size:10px;font-family:OpenSans;fill:#555;" text-anchor="middle" x="0" y="-6.000000">P524P</text></g><line x1="205.675000" x2="205.675000" y1="109.000000" y2="149.500000" stroke="#BABDB6" stroke-width="2"/><a xlink:title="P526P"><circle cx="205.675000" cy="109.000000" r="4.000000" fill="#0000ff" /></a><g transform="translate(205.675000,109.000000) rotate(-30)"><text style="font-size:10px;font-family:OpenSans;fill:#555;" text-anchor="middle" x="0" y="-6.000000">P526P</text></g><line x1="206.762500" x2="206.762500" y1="121.500000" y2="149.500000" stroke="#BABDB6" stroke-width="2"/><a xlink:title="P529P"><circle cx="206.762500" cy="121.500000" r="4.000000" fill="#0000ff" /></a><g transform="translate(206.762500,121.500000) rotate(-30)"><text style="font-size:10px;font-family:OpenSans;fill:#555;" text-anchor="middle" x="0" y="-6.000000">P529P</text></g><line x1="213.287500" x2="213.287500" y1="109.000000" y2="149.500000" stroke="#BABDB6" stroke-width="2"/><a xlink:title="P547P"><circle cx="213.287500" cy="109.000000" r="4.000000" fill="#0000ff" /></a><g transform="translate(213.287500,109.000000) rotate(-30)"><text style="font-size:10px;font-family:OpenSans;fill:#555;" text-anchor="middle" x="0" y="-6.000000">P547P</text></g><line x1="215.100000" x2="215.100000" y1="121.500000" y2="149.500000" stroke="#BABDB6" stroke-width="2"/><a xlink:title="P552P"><circle cx="215.100000" cy="121.500000" r="4.000000" fill="#0000ff" /></a><g transform="translate(215.100000,121.500000) rotate(-30)"><text style="font-size:10px;font-family:OpenSans;fill:#555;" text-anchor="middle" x="0" y="-6.000000">P552P</text></g><line x1="261.137500" x2="261.137500" y1="121.500000" y2="149.500000" stroke="#BABDB6" stroke-width="2"/><a xlink:title="P679A"><circle cx="261.137500" cy="121.500000" r="4.000000" fill="#ff0000" /></a><g transform="translate(261.137500,121.500000) rotate(-30)"><text style="font-size:10px;font-family:OpenSans;fill:#555;" text-anchor="middle" x="0" y="-6.000000">P679A</text></g><line x1="274.550000" x2="274.550000" y1="121.500000" y2="149.500000" stroke="#BABDB6" stroke-width="2"/><a xlink:title="S716P"><circle cx="274.550000" cy="121.500000" r="4.000000" fill="#ff0000" /></a><g transform="translate(274.550000,121.500000) rotate(-30)"><text style="font-size:10px;font-family:OpenSans;fill:#555;" text-anchor="middle" x="0" y="-6.000000">S716P</text></g><line x1="281.800000" x2="281.800000" y1="121.500000" y2="149.500000" stroke="#BABDB6" stroke-width="2"/><a xlink:title="P736P"><circle cx="281.800000" cy="121.500000" r="4.000000" fill="#0000ff" /></a><g transform="translate(281.800000,121.500000) rotate(-30)"><text style="font-size:10px;font-family:OpenSans;fill:#555;" text-anchor="middle" x="0" y="-6.000000">P736P</text></g><line x1="293.762500" x2="293.762500" y1="121.500000" y2="149.500000" stroke="#BABDB6" stroke-width="2"/><a xlink:title="R769Q"><circle cx="293.762500" cy="121.500000" r="4.000000" fill="#ff0000" /></a><g transform="translate(293.762500,121.500000) rotate(-30)"><text style="font-size:10px;font-family:OpenSans;fill:#555;" text-anchor="middle" x="0" y="-6.000000">R769Q</text></g><line x1="328.562500" x2="328.562500" y1="84.000000" y2="149.500000" stroke="#BABDB6" stroke-width="2"/><a xlink:title="P865A"><circle cx="328.562500" cy="84.000000" r="4.000000" fill="#ff0000" /></a><g transform="translate(328.562500,84.000000) rotate(-30)"><text style="font-size:10px;font-family:OpenSans;fill:#555;" text-anchor="middle" x="0" y="-6.000000">P865A</text></g><line x1="328.925000" x2="328.925000" y1="96.500000" y2="149.500000" stroke="#BABDB6" stroke-width="2"/><a xlink:title="P866A"><circle cx="328.925000" cy="96.500000" r="4.000000" fill="#ff0000" /></a><g transform="translate(328.925000,96.500000) rotate(-30)"><text style="font-size:10px;font-family:OpenSans;fill:#555;" text-anchor="middle" x="0" y="-6.000000">P866A</text></g><line x1="329.650000" x2="329.650000" y1="109.000000" y2="149.500000" stroke="#BABDB6" stroke-width="2"/><a xlink:title="P868A"><circle cx="329.650000" cy="109.000000" r="4.000000" fill="#ff0000" /></a><g transform="translate(329.650000,109.000000) rotate(-30)"><text style="font-size:10px;font-family:OpenSans;fill:#555;" text-anchor="middle" x="0" y="-6.000000">P868A</text></g><line x1="330.737500" x2="330.737500" y1="121.500000" y2="149.500000" stroke="#BABDB6" stroke-width="2"/><a xlink:title="P871A"><circle cx="330.737500" cy="121.500000" r="4.000000" fill="#ff0000" /></a><g transform="translate(330.737500,121.500000) rotate(-30)"><text style="font-size:10px;font-family:OpenSans;fill:#555;" text-anchor="middle" x="0" y="-6.000000">P871A</text></g><line x1="337.262500" x2="337.262500" y1="71.500000" y2="149.500000" stroke="#BABDB6" stroke-width="2"/><a xlink:title="P889A"><circle cx="337.262500" cy="71.500000" r="4.000000" fill="#ff0000" /></a><g transform="translate(337.262500,71.500000) rotate(-30)"><text style="font-size:10px;font-family:OpenSans;fill:#555;" text-anchor="middle" x="0" y="-6.000000">P889A</text></g><line x1="339.075000" x2="339.075000" y1="71.500000" y2="149.500000" stroke="#BABDB6" stroke-width="2"/><a xlink:title="P894A"><circle cx="339.075000" cy="71.500000" r="4.000000" fill="#ff0000" /></a><g transform="translate(339.075000,71.500000) rotate(-30)"><text style="font-size:10px;font-family:OpenSans;fill:#555;" text-anchor="middle" x="0" y="-6.000000">P894A</text></g><line x1="341.975000" x2="341.975000" y1="84.000000" y2="149.500000" stroke="#BABDB6" stroke-width="2"/><a xlink:title="S902P"><circle cx="341.975000" cy="84.000000" r="4.000000" fill="#ff0000" /></a><g transform="translate(341.975000,84.000000) rotate(-30)"><text style="font-size:10px;font-family:OpenSans;fill:#555;" text-anchor="middle" x="0" y="-6.000000">S902P</text></g><line x1="342.337500" x2="342.337500" y1="96.500000" y2="149.500000" stroke="#BABDB6" stroke-width="2"/><a xlink:title="S903P"><circle cx="342.337500" cy="96.500000" r="4.000000" fill="#ff0000" /></a><g transform="translate(342.337500,96.500000) rotate(-30)"><text style="font-size:10px;font-family:OpenSans;fill:#555;" text-anchor="middle" x="0" y="-6.000000">S903P</text></g><line x1="343.062500" x2="343.062500" y1="109.000000" y2="149.500000" stroke="#BABDB6" stroke-width="2"/><a xlink:title="S905P"><circle cx="343.062500" cy="109.000000" r="4.000000" fill="#ff0000" /></a><g transform="translate(343.062500,109.000000) rotate(-30)"><text style="font-size:10px;font-family:OpenSans;fill:#555;" text-anchor="middle" x="0" y="-6.000000">S905P</text></g><line x1="344.150000" x2="344.150000" y1="96.500000" y2="149.500000" stroke="#BABDB6" stroke-width="2"/><a xlink:title="S908P"><circle cx="344.150000" cy="96.500000" r="4.000000" fill="#ff0000" /></a><g transform="translate(344.150000,96.500000) rotate(-30)"><text style="font-size:10px;font-family:OpenSans;fill:#555;" text-anchor="middle" x="0" y="-6.000000">S908P</text></g><line x1="349.225000" x2="349.225000" y1="59.000000" y2="149.500000" stroke="#BABDB6" stroke-width="2"/><a xlink:title="P922P"><circle cx="349.225000" cy="59.000000" r="4.000000" fill="#0000ff" /></a><g transform="translate(349.225000,59.000000) rotate(-30)"><text style="font-size:10px;font-family:OpenSans;fill:#555;" text-anchor="middle" x="0" y="-6.000000">P922P</text></g><line x1="349.587500" x2="349.587500" y1="71.500000" y2="149.500000" stroke="#BABDB6" stroke-width="2"/><a xlink:title="P923P"><circle cx="349.587500" cy="71.500000" r="4.000000" fill="#0000ff" /></a><g transform="translate(349.587500,71.500000) rotate(-30)"><text style="font-size:10px;font-family:OpenSans;fill:#555;" text-anchor="middle" x="0" y="-6.000000">P923P</text></g><line x1="350.312500" x2="350.312500" y1="84.000000" y2="149.500000" stroke="#BABDB6" stroke-width="2"/><a xlink:title="P925P"><circle cx="350.312500" cy="84.000000" r="4.000000" fill="#0000ff" /></a><g transform="translate(350.312500,84.000000) rotate(-30)"><text style="font-size:10px;font-family:OpenSans;fill:#555;" text-anchor="middle" x="0" y="-6.000000">P925P</text></g><line x1="350.675000" x2="350.675000" y1="96.500000" y2="149.500000" stroke="#BABDB6" stroke-width="2"/><a xlink:title="S926P"><circle cx="350.675000" cy="96.500000" r="4.000000" fill="#ff0000" /></a><g transform="translate(350.675000,96.500000) rotate(-30)"><text style="font-size:10px;font-family:OpenSans;fill:#555;" text-anchor="middle" x="0" y="-6.000000">S926P</text></g><line x1="351.400000" x2="351.400000" y1="109.000000" y2="149.500000" stroke="#BABDB6" stroke-width="2"/><a xlink:title="P928P"><circle cx="351.400000" cy="109.000000" r="4.000000" fill="#0000ff" /></a><g transform="translate(351.400000,109.000000) rotate(-30)"><text style="font-size:10px;font-family:OpenSans;fill:#555;" text-anchor="middle" x="0" y="-6.000000">P928P</text></g><line x1="352.487500" x2="352.487500" y1="109.000000" y2="149.500000" stroke="#BABDB6" stroke-width="2"/><a xlink:title="S931P"><circle cx="352.487500" cy="109.000000" r="4.000000" fill="#ff0000" /></a><g transform="translate(352.487500,109.000000) rotate(-30)"><text style="font-size:10px;font-family:OpenSans;fill:#555;" text-anchor="middle" x="0" y="-6.000000">S931P</text></g><line x1="357.925000" x2="357.925000" y1="59.000000" y2="149.500000" stroke="#BABDB6" stroke-width="2"/><a xlink:title="P946P"><circle cx="357.925000" cy="59.000000" r="4.000000" fill="#0000ff" /></a><g transform="translate(357.925000,59.000000) rotate(-30)"><text style="font-size:10px;font-family:OpenSans;fill:#555;" text-anchor="middle" x="0" y="-6.000000">P946P</text></g><line x1="359.737500" x2="359.737500" y1="71.500000" y2="149.500000" stroke="#BABDB6" stroke-width="2"/><a xlink:title="P951P"><circle cx="359.737500" cy="71.500000" r="4.000000" fill="#0000ff" /></a><g transform="translate(359.737500,71.500000) rotate(-30)"><text style="font-size:10px;font-family:OpenSans;fill:#555;" text-anchor="middle" x="0" y="-6.000000">P951P</text></g><line x1="361.187500" x2="361.187500" y1="84.000000" y2="149.500000" stroke="#BABDB6" stroke-width="2"/><a xlink:title="R955Q"><circle cx="361.187500" cy="84.000000" r="4.000000" fill="#ff0000" /></a><g transform="translate(361.187500,84.000000) rotate(-30)"><text style="font-size:10px;font-family:OpenSans;fill:#555;" text-anchor="middle" x="0" y="-6.000000">R955Q</text></g><line x1="361.550000" x2="361.550000" y1="96.500000" y2="149.500000" stroke="#BABDB6" stroke-width="2"/><a xlink:title="R956Q"><circle cx="361.550000" cy="96.500000" r="4.000000" fill="#ff0000" /></a><g transform="translate(361.550000,96.500000) rotate(-30)"><text style="font-size:10px;font-family:OpenSans;fill:#555;" text-anchor="middle" x="0" y="-6.000000">R956Q</text></g><line x1="362.275000" x2="362.275000" y1="109.000000" y2="149.500000" stroke="#BABDB6" stroke-width="2"/><a xlink:title="R958Q"><circle cx="362.275000" cy="109.000000" r="4.000000" fill="#ff0000" /></a><g transform="translate(362.275000,109.000000) rotate(-30)"><text style="font-size:10px;font-family:OpenSans;fill:#555;" text-anchor="middle" x="0" y="-6.000000">R958Q</text></g><line x1="363.362500" x2="363.362500" y1="121.500000" y2="149.500000" stroke="#BABDB6" stroke-width="2"/><a xlink:title="R961Q"><circle cx="363.362500" cy="121.500000" r="4.000000" fill="#ff0000" /></a><g transform="translate(363.362500,121.500000) rotate(-30)"><text style="font-size:10px;font-family:OpenSans;fill:#555;" text-anchor="middle" x="0" y="-6.000000">R961Q</text></g><line x1="369.887500" x2="369.887500" y1="109.000000" y2="149.500000" stroke="#BABDB6" stroke-width="2"/><a xlink:title="R979Q"><circle cx="369.887500" cy="109.000000" r="4.000000" fill="#ff0000" /></a><g transform="translate(369.887500,109.000000) rotate(-30)"><text style="font-size:10px;font-family:OpenSans;fill:#555;" text-anchor="middle" x="0" y="-6.000000">R979Q</text></g><line x1="371.700000" x2="371.700000" y1="121.500000" y2="149.500000" stroke="#BABDB6" stroke-width="2"/><a xlink:title="R984Q"><circle cx="371.700000" cy="121.500000" r="4.000000" fill="#ff0000" /></a><g transform="translate(371.700000,121.500000) rotate(-30)"><text style="font-size:10px;font-family:OpenSans;fill:#555;" text-anchor="middle" x="0" y="-6.000000">R984Q</text></g><a xlink:title=",  (1202aa)"><rect fill="#BABDB6" x="15.000000" y="149.500000" width="435.725000" height="14.000000"/></a><g transform="translate(29.137500,144.500000)"><a xlink:href="https://www.ebi.ac.uk/interpro/entry/pfam/PF03859" xlink:title="CG-1 domain"><rect fill="#2DCF00" x="0" y="0" width="39.875000" height="24.000000" filter="url(#ds)"/><text style="font-size:12px;font-family:OpenSans;fill:#ffffff;" text-anchor="middle" x="19.937500" y="16.000000">CG-1</text></a></g>
<g transform="translate(208.575000,144.500000)"><a xlink:href="https://www.ebi.ac.uk/interpro/entry/pfam/PF01833" xlink:title="IPT/TIG domain"><rect fill="#FF5353" x="0" y="0" width="29.000000" height="24.000000" filter="url(#ds)"/><text style="font-size:12px;font-family:OpenSans;fill:#ffffff;" text-anchor="middle" x="14.500000" y="16.000000">TIG</text></a></g>
<g class="axis">
<line x1="15.000000" x2="450.725000" y1="178.500000" y2="178.500000" stroke="#AAAAAA" /><line x1="15.000000" x2="15.000000" y1="178.500000" y2="183.500000" stroke="#AAAAAA" /><line x1="17.900000" x2="17.900000" y1="178.500000" y2="183.500000" stroke="#AAAAAA" /><text style="font-size:10px;font-family:OpenSans;fill:#000000;" text-anchor="middle" x="17.900000" y="193.500000">8</text><line x1="44.000000" x2="44.000000" y1="178.500000" y2="183.500000" stroke="#AAAAAA" /><text style="font-size:10px;font-family:OpenSans;fill:#000000;" text-anchor="middle" x="44.000000" y="193.500000">80</text><line x1="88.225000" x2="88.225000" y1="178.500000" y2="183.500000" stroke="#AAAAAA" /><text style="font-size:10px;font-family:OpenSans;fill:#000000;" text-anchor="middle" x="88.225000" y="193.500000">202</text><line x1="111.425000" x2="111.425000" y1="178.500000" y2="183.500000" stroke="#AAAAAA" /><text style="font-size:10px;font-family:OpenSans;fill:#000000;" text-anchor="middle" x="111.425000" y="193.500000">266</text><line x1="137.162500" x2="137.162500" y1="178.500000" y2="183.500000" stroke="#AAAAAA" /><text style="font-size:10px;font-family:OpenSans;fill:#000000;" text-anchor="middle" x="137.162500" y="193.500000">337</text><line x1="157.825000" x2="157.825000" y1="178.500000" y2="183.500000" stroke="#AAAAAA" /><text style="font-size:10px;font-family:OpenSans;fill:#000000;" text-anchor="middle" x="157.825000" y="193.500000">394</text><line x1="204.587500" x2="204.587500" y1="178.500000" y2="183.500000" stroke="#AAAAAA" /><text style="font-size:10px;font-family:OpenSans;fill:#000000;" text-anchor="middle" x="204.587500" y="193.500000">523</text><line x1="237.575000" x2="237.575000" y1="178.500000" y2="183.500000" stroke="#AAAAAA" /><text style="font-size:10px;font-family:OpenSans;fill:#000000;" text-anchor="middle" x="237.575000" y="193.500000">614</text><line x1="261.137500" x2="261.137500" y1="178.500000" y2="183.500000" stroke="#AAAAAA" /><text style="font-size:10px;font-family:OpenSans;fill:#000000;" text-anchor="middle" x="261.137500" y="193.500000">679</text><line x1="281.800000" x2="281.800000" y1="178.500000" y2="183.500000" stroke="#AAAAAA" /><text style="font-size:10px;font-family:OpenSans;fill:#000000;" text-anchor="middle" x="281.800000" y="193.500000">736</text><line x1="328.562500" x2="328.562500" y1="178.500000" y2="183.500000" stroke="#AAAAAA" /><text style="font-size:10px;font-family:OpenSans;fill:#000000;" text-anchor="middle" x="328.562500" y="193.500000">865</text><line x1="349.225000" x2="349.225000" y1="178.500000" y2="183.500000" stroke="#AAAAAA" /><text style="font-size:10px;font-family:OpenSans;fill:#000000;" text-anchor="middle" x="349.225000" y="193.500000">922</text><line x1="369.887500" x2="369.887500" y1="178.500000" y2="183.500000" stroke="#AAAAAA" /><text style="font-size:10px;font-family:OpenSans;fill:#000000;" text-anchor="middle" x="369.887500" y="193.500000">979</text><line x1="450.725000" x2="450.725000" y1="178.500000" y2="183.500000" stroke="#AAAAAA" /><text style="font-size:10px;font-family:OpenSans;fill:#000000;" text-anchor="middle" x="450.725000" y="193.500000">1202</text></g>
<rect fill="#2DCF00" x="4" y="207.500000" width="12" height="12" filter="url(#ds)"/><text style="font-size:12px;font-family:OpenSans;fill:#000000;" text-anchor="start" x="20" y="219.500000">CG-1 domain</text><rect fill="#FF5353" x="4" y="221.500000" width="12" height="12" filter="url(#ds)"/><text style="font-size:12px;font-family:OpenSans;fill:#000000;" text-anchor="start" x="20" y="233.500000">IPT/TIG domain</text></svg>
