<?xml version='1.0'?>
<svg xmlns="http://www.w3.org/2000/svg" xmlns:xlink="http://www.w3.org/1999/xlink" width="621.860870" height="184.400000">
<defs>
  <filter id="ds" x="0" y="0">
    <feOffset in="SourceAlpha" dx="2" dy="2" />
    <feComponentTransfer><feFuncA type="linear" slope="0.2"/></feComponentTransfer>
    <feGaussianBlur result="blurOut" stdDeviation="1" />
    <feBlend in="SourceGraphic" in2="blurOut" mode="normal" />
  </filter>
  <pattern id="disordered-hatch" patternUnits="userSpaceOnUse" width="4" height="4">
    <path d="M-1,1 l2,-2 M0,4 l4,-4 M3,5 l2,-2" stroke="#000000" opacity="0.3" />
  </pattern>
</defs>
<line x1="41.713043" x2="41.713043" y1="34.000000" y2="87.000000" stroke="#BABDB6" stroke-width="2"/><a xlink:title="A32A"><circle cx="41.713043" cy="34.000000" r="4.000000" fill="#0000ff" /></a><g transform="translate(41.713043,34.000000) rotate(-30)"><text style="font-size:10px;font-family:OpenSans;fill:#555;" text-anchor="middle" x="0" y="-6.000000">A32A</text></g><line x1="43.382609" x2="43.382609" y1="46.500000" y2="87.000000" stroke="#BABDB6" stroke-width="2"/><a xlink:title="A34P"><circle cx="43.382609" cy="46.500000" r="4.000000" fill="#ff0000" /></a><g transform="translate(43.382609,46.500000) rotate(-30)"><text style="font-size:10px;font-family:OpenSans;fill:#555;" text-anchor="middle" x="0" y="-6.000000">A34P</text></g><line x1="44.217391" x2="44.217391" y1="59.000000" y2="87.000000" stroke="#BABDB6" stroke-width="2"/><a xlink:title="A35P"><circle cx="44.217391" cy="59.000000" r="4.000000" fill="#ff0000" /></a><g transform="translate(44.217391,59.000000) rotate(-30)"><text style="font-size:10px;font-family:OpenSans;fill:#555;" text-anchor="middle" x="0" y="-6.000000">A35P</text></g><line x1="214.513043" x2="214.513043" y1="59.000000" y2="87.000000" stroke="#BABDB6" stroke-width="2"/><a xlink:title="R239H"><circle cx="214.513043" cy="59.000000" r="4.000000" fill="#ff0000" /></a><g transform="translate(214.513043,59.000000) rotate(-30)"><text style="font-size:10px;font-family:OpenSans;fill:#555;" text-anchor="middle" x="0" y="-6.000000">R239H</text></g><line x1="520.878261" x2="520.878261" y1="59.000000" y2="87.000000" stroke="#BABDB6" stroke-width="2"/><a xlink:title="N606S"><circle cx="520.878261" cy="59.000000" r="4.000000" fill="#ff0000" /></a><g transform="translate(520.878261,59.000000) rotate(-30)"><text style="font-size:10px;font-family:OpenSans;fill:#555;" text-anchor="middle" x="0" y="-6.000000">N606S</text></g><a xlink:title=",  (709aa)"><rect fill="#BABDB6" x="15.000000" y="87.000000" width="591.860870" height="14.000000"/></a><g transform="translate(125.191304,82.000000)"><a xlink:href="https://www.ebi.ac.uk/interpro/entry/pfam/PF18293" xlink:title="Caprin-1 dimerization domain"><rect fill="#2DCF00" x="0" y="0" width="96.000000" height="24.000000" filter="url(#ds)"/><text style="font-size:12px;font-family:OpenSans;fill:#ffffff;" text-anchor="middle" x="48.000000" y="16.000000">Caprin-1_dimer</text></a></g>
<g transform="translate(314.686957,82.000000)"><a xlink:href="https://www.ebi.ac.uk/interpro/entry/pfam/PF12287" xlink:title="Cytoplasmic activation/proliferation-associated protein-1 C term"><rect fill="#FF5353" x="0" y="0" width="272.139130" height="24.000000" filter="url(#ds)"/><text style="font-size:12px;font-family:OpenSans;fill:#ffffff;" text-anchor="middle" x="136.069565" y="16.000000">Caprin-1_C</text></a></g>
<g class="axis">
<line x1="15.000000" x2="606.860870" y1="116.000000" y2="116.000000" stroke="#AAAAAA" /><line x1="15.000000" x2="15.000000" y1="116.000000" y2="121.000000" stroke="#AAAAAA" /><line x1="15.000000" x2="15.000000" y1="116.000000" y2="121.000000" stroke="#AAAAAA" /><text style="font-size:10px;font-family:OpenSans;fill:#000000;" text-anchor="middle" x="15.000000" y="131.000000">0</text><line x1="41.713043" x2="41.713043" y1="116.000000" y2="121.000000" stroke="#AAAAAA" /><text style="font-size:10px;font-family:OpenSans;fill:#000000;" text-anchor="middle" x="41.713043" y="131.000000">32</text><line x1="125.191304" x2="125.191304" y1="116.000000" y2="121.000000" stroke="#AAAAAA" /><text style="font-size:10px;font-family:OpenSans;fill:#000000;" text-anchor="middle" x="125.191304" y="131.000000">132</text><line x1="214.513043" x2="214.513043" y1="116.000000" y2="121.000000" stroke="#AAAAAA" /><text style="font-size:10px;font-family:OpenSans;fill:#000000;" text-anchor="middle" x="214.513043" y="131.000000">239</text><line x1="314.686957" x2="314.686957" y1="116.000000" y2="121.000000" stroke="#AAAAAA" /><text style="font-size:10px;font-family:OpenSans;fill:#000000;" text-anchor="middle" x="314.686957" y="131.000000">359</text><line x1="520.878261" x2="520.878261" y1="116.000000" y2="121.000000" stroke="#AAAAAA" /><text style="font-size:10px;font-family:OpenSans;fill:#000000;" text-anchor="middle" x="520.878261" y="131.000000">606</text><line x1="586.826087" x2="586.826087" y1="116.000000" y2="121.000000" stroke="#AAAAAA" /><text style="font-size:10px;font-family:OpenSans;fill:#000000;" text-anchor="middle" x="586.826087" y="131.000000">685</text><line x1="606.860870" x2="606.860870" y1="116.000000" y2="121.000000" stroke="#AAAAAA" /><text style="font-size:10px;font-family:OpenSans;fill:#000000;" text-anchor="middle" x="606.860870" y="131.000000">709</text></g>
<rect fill="#2DCF00" x="4" y="145.000000" width="12" height="12" filter="url(#ds)"/><text style="font-size:12px;font-family:OpenSans;fill:#000000;" text-anchor="start" x="20" y="157.000000">Caprin-1 dimerization domain</text><rect fill="#FF5353" x="4" y="159.000000" width="12" height="12" filter="url(#ds)"/><text style="font-size:12px;font-family:OpenSans;fill:#000000;" text-anchor="start" x="20" y="171.000000">Cytoplasmic activation/proliferation-associated protein-1 C term</text></svg>
