<?xml version='1.0'?>
<svg xmlns="http://www.w3.org/2000/svg" xmlns:xlink="http://www.w3.org/1999/xlink" width="430.000000" height="146.200000">
<defs>
  <filter id="ds" x="0" y="0">
    <feOffset in="SourceAlpha" dx="2" dy="2" />
    <feComponentTransfer><feFuncA type="linear" slope="0.2"/></feComponentTransfer>
    <feGaussianBlur result="blurOut" stdDeviation="1" />
    <feBlend in="SourceGraphic" in2="blurOut" mode="normal" />
  </filter>
  <pattern id="disordered-hatch" patternUnits="userSpaceOnUse" width="4" height="4">
    <path d="M-1,1 l2,-2 M0,4 l4,-4 M3,5 l2,-2" stroke="#000000" opacity="0.3" />
  </pattern>
</defs>
<line x1="24.230769" x2="24.230769" y1="34.000000" y2="62.000000" stroke="#BABDB6" stroke-width="2"/><a xlink:title="N18N"><circle cx="24.230769" cy="34.000000" r="4.000000" fill="#0000ff" /></a><g transform="translate(24.230769,34.000000) rotate(-30)"><text style="font-size:10px;font-family:OpenSans;fill:#555;" text-anchor="middle" x="0" y="-6.000000">N18N</text></g><line x1="83.205128" x2="83.205128" y1="34.000000" y2="62.000000" stroke="#BABDB6" stroke-width="2"/><a xlink:title="G133S"><circle cx="83.205128" cy="34.000000" r="4.000000" fill="#ff0000" /></a><g transform="translate(83.205128,34.000000) rotate(-30)"><text style="font-size:10px;font-family:OpenSans;fill:#555;" text-anchor="middle" x="0" y="-6.000000">G133S</text></g><line x1="140.128205" x2="140.128205" y1="34.000000" y2="62.000000" stroke="#BABDB6" stroke-width="2"/><a xlink:title="G244R"><circle cx="140.128205" cy="34.000000" r="4.000000" fill="#ff0000" /></a><g transform="translate(140.128205,34.000000) rotate(-30)"><text style="font-size:10px;font-family:OpenSans;fill:#555;" text-anchor="middle" x="0" y="-6.000000">G244R</text></g><line x1="166.282051" x2="166.282051" y1="34.000000" y2="62.000000" stroke="#BABDB6" stroke-width="2"/><a xlink:title="R295W"><circle cx="166.282051" cy="34.000000" r="4.000000" fill="#ff0000" /></a><g transform="translate(166.282051,34.000000) rotate(-30)"><text style="font-size:10px;font-family:OpenSans;fill:#555;" text-anchor="middle" x="0" y="-6.000000">R295W</text></g><line x1="177.051282" x2="177.051282" y1="34.000000" y2="62.000000" stroke="#BABDB6" stroke-width="2"/><a xlink:title="G316D"><circle cx="177.051282" cy="34.000000" r="4.000000" fill="#ff0000" /></a><g transform="translate(177.051282,34.000000) rotate(-30)"><text style="font-size:10px;font-family:OpenSans;fill:#555;" text-anchor="middle" x="0" y="-6.000000">G316D</text></g><line x1="224.230769" x2="224.230769" y1="34.000000" y2="62.000000" stroke="#BABDB6" stroke-width="2"/><a xlink:title="R408R"><circle cx="224.230769" cy="34.000000" r="4.000000" fill="#0000ff" /></a><g transform="translate(224.230769,34.000000) rotate(-30)"><text style="font-size:10px;font-family:OpenSans;fill:#555;" text-anchor="middle" x="0" y="-6.000000">R408R</text></g><line x1="273.974359" x2="273.974359" y1="34.000000" y2="62.000000" stroke="#BABDB6" stroke-width="2"/><a xlink:title="S505L"><circle cx="273.974359" cy="34.000000" r="4.000000" fill="#ff0000" /></a><g transform="translate(273.974359,34.000000) rotate(-30)"><text style="font-size:10px;font-family:OpenSans;fill:#555;" text-anchor="middle" x="0" y="-6.000000">S505L</text></g><line x1="349.358974" x2="349.358974" y1="34.000000" y2="62.000000" stroke="#BABDB6" stroke-width="2"/><a xlink:title="V652I"><circle cx="349.358974" cy="34.000000" r="4.000000" fill="#ff0000" /></a><g transform="translate(349.358974,34.000000) rotate(-30)"><text style="font-size:10px;font-family:OpenSans;fill:#555;" text-anchor="middle" x="0" y="-6.000000">V652I</text></g><line x1="368.846154" x2="368.846154" y1="34.000000" y2="62.000000" stroke="#BABDB6" stroke-width="2"/><a xlink:title="A690A"><circle cx="368.846154" cy="34.000000" r="4.000000" fill="#0000ff" /></a><g transform="translate(368.846154,34.000000) rotate(-30)"><text style="font-size:10px;font-family:OpenSans;fill:#555;" text-anchor="middle" x="0" y="-6.000000">A690A</text></g><a xlink:title=",  (780aa)"><rect fill="#BABDB6" x="15.000000" y="62.000000" width="400.000000" height="14.000000"/></a><g transform="translate(244.743590,57.000000)"><a xlink:href="https://www.ebi.ac.uk/interpro/entry/pfam/PF00520" xlink:title="Ion transport protein"><rect fill="#2DCF00" x="0" y="0" width="116.923077" height="24.000000" filter="url(#ds)"/><text style="font-size:12px;font-family:OpenSans;fill:#ffffff;" text-anchor="middle" x="58.461538" y="16.000000">Ion_trans</text></a></g>
<g class="axis">
<line x1="15.000000" x2="415.000000" y1="91.000000" y2="91.000000" stroke="#AAAAAA" /><line x1="15.000000" x2="15.000000" y1="91.000000" y2="96.000000" stroke="#AAAAAA" /><line x1="24.230769" x2="24.230769" y1="91.000000" y2="96.000000" stroke="#AAAAAA" /><text style="font-size:10px;font-family:OpenSans;fill:#000000;" text-anchor="middle" x="24.230769" y="106.000000">18</text><line x1="83.205128" x2="83.205128" y1="91.000000" y2="96.000000" stroke="#AAAAAA" /><text style="font-size:10px;font-family:OpenSans;fill:#000000;" text-anchor="middle" x="83.205128" y="106.000000">133</text><line x1="140.128205" x2="140.128205" y1="91.000000" y2="96.000000" stroke="#AAAAAA" /><text style="font-size:10px;font-family:OpenSans;fill:#000000;" text-anchor="middle" x="140.128205" y="106.000000">244</text><line x1="166.282051" x2="166.282051" y1="91.000000" y2="96.000000" stroke="#AAAAAA" /><text style="font-size:10px;font-family:OpenSans;fill:#000000;" text-anchor="middle" x="166.282051" y="106.000000">295</text><line x1="224.230769" x2="224.230769" y1="91.000000" y2="96.000000" stroke="#AAAAAA" /><text style="font-size:10px;font-family:OpenSans;fill:#000000;" text-anchor="middle" x="224.230769" y="106.000000">408</text><line x1="244.743590" x2="244.743590" y1="91.000000" y2="96.000000" stroke="#AAAAAA" /><text style="font-size:10px;font-family:OpenSans;fill:#000000;" text-anchor="middle" x="244.743590" y="106.000000">448</text><line x1="273.974359" x2="273.974359" y1="91.000000" y2="96.000000" stroke="#AAAAAA" /><text style="font-size:10px;font-family:OpenSans;fill:#000000;" text-anchor="middle" x="273.974359" y="106.000000">505</text><line x1="349.358974" x2="349.358974" y1="91.000000" y2="96.000000" stroke="#AAAAAA" /><text style="font-size:10px;font-family:OpenSans;fill:#000000;" text-anchor="middle" x="349.358974" y="106.000000">652</text><line x1="415.000000" x2="415.000000" y1="91.000000" y2="96.000000" stroke="#AAAAAA" /><text style="font-size:10px;font-family:OpenSans;fill:#000000;" text-anchor="middle" x="415.000000" y="106.000000">780</text></g>
<rect fill="#2DCF00" x="4" y="120.000000" width="12" height="12" filter="url(#ds)"/><text style="font-size:12px;font-family:OpenSans;fill:#000000;" text-anchor="start" x="20" y="132.000000">Ion transport protein</text></svg>
