<?xml version='1.0'?>
<svg xmlns="http://www.w3.org/2000/svg" xmlns:xlink="http://www.w3.org/1999/xlink" width="1100.194444" height="146.200000">
<defs>
  <filter id="ds" x="0" y="0">
    <feOffset in="SourceAlpha" dx="2" dy="2" />
    <feComponentTransfer><feFuncA type="linear" slope="0.2"/></feComponentTransfer>
    <feGaussianBlur result="blurOut" stdDeviation="1" />
    <feBlend in="SourceGraphic" in2="blurOut" mode="normal" />
  </filter>
  <pattern id="disordered-hatch" patternUnits="userSpaceOnUse" width="4" height="4">
    <path d="M-1,1 l2,-2 M0,4 l4,-4 M3,5 l2,-2" stroke="#000000" opacity="0.3" />
  </pattern>
</defs>
<line x1="49.416667" x2="49.416667" y1="34.000000" y2="62.000000" stroke="#BABDB6" stroke-width="2"/><a xlink:title="P21P"><circle cx="49.416667" cy="34.000000" r="4.000000" fill="#0000ff" /></a><g transform="translate(49.416667,34.000000) rotate(-30)"><text style="font-size:10px;font-family:OpenSans;fill:#555;" text-anchor="middle" x="0" y="-6.000000">P21P</text></g><line x1="106.777778" x2="106.777778" y1="34.000000" y2="62.000000" stroke="#BABDB6" stroke-width="2"/><a xlink:title="K56K"><circle cx="106.777778" cy="34.000000" r="4.000000" fill="#0000ff" /></a><g transform="translate(106.777778,34.000000) rotate(-30)"><text style="font-size:10px;font-family:OpenSans;fill:#555;" text-anchor="middle" x="0" y="-6.000000">K56K</text></g><line x1="149.388889" x2="149.388889" y1="34.000000" y2="62.000000" stroke="#BABDB6" stroke-width="2"/><a xlink:title="P82P"><circle cx="149.388889" cy="34.000000" r="4.000000" fill="#0000ff" /></a><g transform="translate(149.388889,34.000000) rotate(-30)"><text style="font-size:10px;font-family:OpenSans;fill:#555;" text-anchor="middle" x="0" y="-6.000000">P82P</text></g><line x1="590.250000" x2="590.250000" y1="34.000000" y2="62.000000" stroke="#BABDB6" stroke-width="2"/><a xlink:title="R351C"><circle cx="590.250000" cy="34.000000" r="4.000000" fill="#ff0000" /></a><g transform="translate(590.250000,34.000000) rotate(-30)"><text style="font-size:10px;font-family:OpenSans;fill:#555;" text-anchor="middle" x="0" y="-6.000000">R351C</text></g><line x1="690.222222" x2="690.222222" y1="34.000000" y2="62.000000" stroke="#BABDB6" stroke-width="2"/><a xlink:title="R412C"><circle cx="690.222222" cy="34.000000" r="4.000000" fill="#ff0000" /></a><g transform="translate(690.222222,34.000000) rotate(-30)"><text style="font-size:10px;font-family:OpenSans;fill:#555;" text-anchor="middle" x="0" y="-6.000000">R412C</text></g><line x1="719.722222" x2="719.722222" y1="34.000000" y2="62.000000" stroke="#BABDB6" stroke-width="2"/><a xlink:title="A430A"><circle cx="719.722222" cy="34.000000" r="4.000000" fill="#0000ff" /></a><g transform="translate(719.722222,34.000000) rotate(-30)"><text style="font-size:10px;font-family:OpenSans;fill:#555;" text-anchor="middle" x="0" y="-6.000000">A430A</text></g><line x1="731.194444" x2="731.194444" y1="34.000000" y2="62.000000" stroke="#BABDB6" stroke-width="2"/><a xlink:title="R437C"><circle cx="731.194444" cy="34.000000" r="4.000000" fill="#ff0000" /></a><g transform="translate(731.194444,34.000000) rotate(-30)"><text style="font-size:10px;font-family:OpenSans;fill:#555;" text-anchor="middle" x="0" y="-6.000000">R437C</text></g><line x1="819.694444" x2="819.694444" y1="34.000000" y2="62.000000" stroke="#BABDB6" stroke-width="2"/><a xlink:title="A491A"><circle cx="819.694444" cy="34.000000" r="4.000000" fill="#0000ff" /></a><g transform="translate(819.694444,34.000000) rotate(-30)"><text style="font-size:10px;font-family:OpenSans;fill:#555;" text-anchor="middle" x="0" y="-6.000000">A491A</text></g><line x1="860.666667" x2="860.666667" y1="34.000000" y2="62.000000" stroke="#BABDB6" stroke-width="2"/><a xlink:title="A516A"><circle cx="860.666667" cy="34.000000" r="4.000000" fill="#0000ff" /></a><g transform="translate(860.666667,34.000000) rotate(-30)"><text style="font-size:10px;font-family:OpenSans;fill:#555;" text-anchor="middle" x="0" y="-6.000000">A516A</text></g><a xlink:title=",  (653aa)"><rect fill="#BABDB6" x="15.000000" y="62.000000" width="1070.194444" height="14.000000"/></a><g transform="translate(300.166667,57.000000)"><a xlink:href="https://www.ebi.ac.uk/interpro/entry/pfam/PF07531" xlink:title="NHR1 homology to TAF"><rect fill="#2DCF00" x="0" y="0" width="144.222222" height="24.000000" filter="url(#ds)"/><text style="font-size:12px;font-family:OpenSans;fill:#ffffff;" text-anchor="middle" x="72.111111" y="16.000000">NHR1 homology to TAF</text></a></g>
<g transform="translate(636.138889,57.000000)"><a xlink:href="https://www.ebi.ac.uk/interpro/entry/pfam/PF08788" xlink:title="NHR2 domain like"><rect fill="#FF5353" x="0" y="0" width="108.166667" height="24.000000" filter="url(#ds)"/><text style="font-size:12px;font-family:OpenSans;fill:#ffffff;" text-anchor="middle" x="54.083333" y="16.000000">NHR2 domain like</text></a></g>
<g transform="translate(926.222222,57.000000)"><a xlink:href="https://www.ebi.ac.uk/interpro/entry/pfam/PF01753" xlink:title="MYND finger"><rect fill="#5B5BFF" x="0" y="0" width="59.000000" height="24.000000" filter="url(#ds)"/><text style="font-size:12px;font-family:OpenSans;fill:#ffffff;" text-anchor="middle" x="29.500000" y="16.000000">zf-MYND</text></a></g>
<g class="axis">
<line x1="15.000000" x2="1085.194444" y1="91.000000" y2="91.000000" stroke="#AAAAAA" /><line x1="15.000000" x2="15.000000" y1="91.000000" y2="96.000000" stroke="#AAAAAA" /><line x1="15.000000" x2="15.000000" y1="91.000000" y2="96.000000" stroke="#AAAAAA" /><text style="font-size:10px;font-family:OpenSans;fill:#000000;" text-anchor="middle" x="15.000000" y="106.000000">0</text><line x1="49.416667" x2="49.416667" y1="91.000000" y2="96.000000" stroke="#AAAAAA" /><text style="font-size:10px;font-family:OpenSans;fill:#000000;" text-anchor="middle" x="49.416667" y="106.000000">21</text><line x1="106.777778" x2="106.777778" y1="91.000000" y2="96.000000" stroke="#AAAAAA" /><text style="font-size:10px;font-family:OpenSans;fill:#000000;" text-anchor="middle" x="106.777778" y="106.000000">56</text><line x1="149.388889" x2="149.388889" y1="91.000000" y2="96.000000" stroke="#AAAAAA" /><text style="font-size:10px;font-family:OpenSans;fill:#000000;" text-anchor="middle" x="149.388889" y="106.000000">82</text><line x1="300.166667" x2="300.166667" y1="91.000000" y2="96.000000" stroke="#AAAAAA" /><text style="font-size:10px;font-family:OpenSans;fill:#000000;" text-anchor="middle" x="300.166667" y="106.000000">174</text><line x1="444.388889" x2="444.388889" y1="91.000000" y2="96.000000" stroke="#AAAAAA" /><text style="font-size:10px;font-family:OpenSans;fill:#000000;" text-anchor="middle" x="444.388889" y="106.000000">262</text><line x1="590.250000" x2="590.250000" y1="91.000000" y2="96.000000" stroke="#AAAAAA" /><text style="font-size:10px;font-family:OpenSans;fill:#000000;" text-anchor="middle" x="590.250000" y="106.000000">351</text><line x1="636.138889" x2="636.138889" y1="91.000000" y2="96.000000" stroke="#AAAAAA" /><text style="font-size:10px;font-family:OpenSans;fill:#000000;" text-anchor="middle" x="636.138889" y="106.000000">379</text><line x1="690.222222" x2="690.222222" y1="91.000000" y2="96.000000" stroke="#AAAAAA" /><text style="font-size:10px;font-family:OpenSans;fill:#000000;" text-anchor="middle" x="690.222222" y="106.000000">412</text><line x1="719.722222" x2="719.722222" y1="91.000000" y2="96.000000" stroke="#AAAAAA" /><text style="font-size:10px;font-family:OpenSans;fill:#000000;" text-anchor="middle" x="719.722222" y="106.000000">430</text><line x1="744.305556" x2="744.305556" y1="91.000000" y2="96.000000" stroke="#AAAAAA" /><text style="font-size:10px;font-family:OpenSans;fill:#000000;" text-anchor="middle" x="744.305556" y="106.000000">445</text><line x1="819.694444" x2="819.694444" y1="91.000000" y2="96.000000" stroke="#AAAAAA" /><text style="font-size:10px;font-family:OpenSans;fill:#000000;" text-anchor="middle" x="819.694444" y="106.000000">491</text><line x1="860.666667" x2="860.666667" y1="91.000000" y2="96.000000" stroke="#AAAAAA" /><text style="font-size:10px;font-family:OpenSans;fill:#000000;" text-anchor="middle" x="860.666667" y="106.000000">516</text><line x1="926.222222" x2="926.222222" y1="91.000000" y2="96.000000" stroke="#AAAAAA" /><text style="font-size:10px;font-family:OpenSans;fill:#000000;" text-anchor="middle" x="926.222222" y="106.000000">556</text><line x1="985.222222" x2="985.222222" y1="91.000000" y2="96.000000" stroke="#AAAAAA" /><text style="font-size:10px;font-family:OpenSans;fill:#000000;" text-anchor="middle" x="985.222222" y="106.000000">592</text><line x1="1085.194444" x2="1085.194444" y1="91.000000" y2="96.000000" stroke="#AAAAAA" /><text style="font-size:10px;font-family:OpenSans;fill:#000000;" text-anchor="middle" x="1085.194444" y="106.000000">653</text></g>
<rect fill="#5B5BFF" x="4" y="120.000000" width="12" height="12" filter="url(#ds)"/><text style="font-size:12px;font-family:OpenSans;fill:#000000;" text-anchor="start" x="20" y="132.000000">MYND finger</text></svg>
