<?xml version='1.0'?>
<svg xmlns="http://www.w3.org/2000/svg" xmlns:xlink="http://www.w3.org/1999/xlink" width="1172.400000" height="171.900000">
<defs>
  <filter id="ds" x="0" y="0">
    <feOffset in="SourceAlpha" dx="2" dy="2" />
    <feComponentTransfer><feFuncA type="linear" slope="0.2"/></feComponentTransfer>
    <feGaussianBlur result="blurOut" stdDeviation="1" />
    <feBlend in="SourceGraphic" in2="blurOut" mode="normal" />
  </filter>
  <pattern id="disordered-hatch" patternUnits="userSpaceOnUse" width="4" height="4">
    <path d="M-1,1 l2,-2 M0,4 l4,-4 M3,5 l2,-2" stroke="#000000" opacity="0.3" />
  </pattern>
</defs>
<line x1="300.226667" x2="300.226667" y1="46.500000" y2="74.500000" stroke="#BABDB6" stroke-width="2"/><a xlink:title="E382D"><circle cx="300.226667" cy="46.500000" r="4.000000" fill="#ff0000" /></a><g transform="translate(300.226667,46.500000) rotate(-30)"><text style="font-size:10px;font-family:OpenSans;fill:#555;" text-anchor="middle" x="0" y="-6.000000">E382D</text></g><line x1="603.373333" x2="603.373333" y1="46.500000" y2="74.500000" stroke="#BABDB6" stroke-width="2"/><a xlink:title="G788G"><circle cx="603.373333" cy="46.500000" r="4.000000" fill="#0000ff" /></a><g transform="translate(603.373333,46.500000) rotate(-30)"><text style="font-size:10px;font-family:OpenSans;fill:#555;" text-anchor="middle" x="0" y="-6.000000">G788G</text></g><line x1="648.173333" x2="648.173333" y1="46.500000" y2="74.500000" stroke="#BABDB6" stroke-width="2"/><a xlink:title="G848G"><circle cx="648.173333" cy="46.500000" r="4.000000" fill="#0000ff" /></a><g transform="translate(648.173333,46.500000) rotate(-30)"><text style="font-size:10px;font-family:OpenSans;fill:#555;" text-anchor="middle" x="0" y="-6.000000">G848G</text></g><line x1="671.320000" x2="671.320000" y1="46.500000" y2="74.500000" stroke="#BABDB6" stroke-width="2"/><a xlink:title="A879A"><circle cx="671.320000" cy="46.500000" r="4.000000" fill="#0000ff" /></a><g transform="translate(671.320000,46.500000) rotate(-30)"><text style="font-size:10px;font-family:OpenSans;fill:#555;" text-anchor="middle" x="0" y="-6.000000">A879A</text></g><line x1="716.120000" x2="716.120000" y1="46.500000" y2="74.500000" stroke="#BABDB6" stroke-width="2"/><a xlink:title="A939A"><circle cx="716.120000" cy="46.500000" r="4.000000" fill="#0000ff" /></a><g transform="translate(716.120000,46.500000) rotate(-30)"><text style="font-size:10px;font-family:OpenSans;fill:#555;" text-anchor="middle" x="0" y="-6.000000">A939A</text></g><line x1="843.800000" x2="843.800000" y1="46.500000" y2="74.500000" stroke="#BABDB6" stroke-width="2"/><a xlink:title="N1110S"><circle cx="843.800000" cy="46.500000" r="4.000000" fill="#ff0000" /></a><g transform="translate(843.800000,46.500000) rotate(-30)"><text style="font-size:10px;font-family:OpenSans;fill:#555;" text-anchor="middle" x="0" y="-6.000000">N1110S</text></g><line x1="887.853333" x2="887.853333" y1="34.000000" y2="74.500000" stroke="#BABDB6" stroke-width="2"/><a xlink:title="N1169S"><circle cx="887.853333" cy="34.000000" r="4.000000" fill="#ff0000" /></a><g transform="translate(887.853333,34.000000) rotate(-30)"><text style="font-size:10px;font-family:OpenSans;fill:#555;" text-anchor="middle" x="0" y="-6.000000">N1169S</text></g><line x1="888.600000" x2="888.600000" y1="46.500000" y2="74.500000" stroke="#BABDB6" stroke-width="2"/><a xlink:title="N1170S"><circle cx="888.600000" cy="46.500000" r="4.000000" fill="#ff0000" /></a><g transform="translate(888.600000,46.500000) rotate(-30)"><text style="font-size:10px;font-family:OpenSans;fill:#555;" text-anchor="middle" x="0" y="-6.000000">N1170S</text></g><a xlink:title=",  (1530aa)"><rect fill="#BABDB6" x="15.000000" y="74.500000" width="1142.400000" height="14.000000"/></a><g transform="translate(53.826667,69.500000)"><a xlink:href="https://www.ebi.ac.uk/interpro/entry/pfam/PF00435" xlink:title="Spectrin repeat"><rect fill="#2DCF00" x="0" y="0" width="56.000000" height="24.000000" filter="url(#ds)"/><text style="font-size:12px;font-family:OpenSans;fill:#ffffff;" text-anchor="middle" x="28.000000" y="16.000000">Spectrin</text></a></g>
<g transform="translate(1067.053333,69.500000)"><a xlink:href="https://www.ebi.ac.uk/interpro/entry/pfam/PF07679" xlink:title="Immunoglobulin I-set domain"><rect fill="#FF5353" x="0" y="0" width="66.453333" height="24.000000" filter="url(#ds)"/><text style="font-size:12px;font-family:OpenSans;fill:#ffffff;" text-anchor="middle" x="33.226667" y="16.000000">I-set</text></a></g>
<g class="axis">
<line x1="15.000000" x2="1157.400000" y1="103.500000" y2="103.500000" stroke="#AAAAAA" /><line x1="15.000000" x2="15.000000" y1="103.500000" y2="108.500000" stroke="#AAAAAA" /><line x1="15.000000" x2="15.000000" y1="103.500000" y2="108.500000" stroke="#AAAAAA" /><text style="font-size:10px;font-family:OpenSans;fill:#000000;" text-anchor="middle" x="15.000000" y="118.500000">0</text><line x1="53.826667" x2="53.826667" y1="103.500000" y2="108.500000" stroke="#AAAAAA" /><text style="font-size:10px;font-family:OpenSans;fill:#000000;" text-anchor="middle" x="53.826667" y="118.500000">52</text><line x1="109.826667" x2="109.826667" y1="103.500000" y2="108.500000" stroke="#AAAAAA" /><text style="font-size:10px;font-family:OpenSans;fill:#000000;" text-anchor="middle" x="109.826667" y="118.500000">127</text><line x1="300.226667" x2="300.226667" y1="103.500000" y2="108.500000" stroke="#AAAAAA" /><text style="font-size:10px;font-family:OpenSans;fill:#000000;" text-anchor="middle" x="300.226667" y="118.500000">382</text><line x1="603.373333" x2="603.373333" y1="103.500000" y2="108.500000" stroke="#AAAAAA" /><text style="font-size:10px;font-family:OpenSans;fill:#000000;" text-anchor="middle" x="603.373333" y="118.500000">788</text><line x1="648.173333" x2="648.173333" y1="103.500000" y2="108.500000" stroke="#AAAAAA" /><text style="font-size:10px;font-family:OpenSans;fill:#000000;" text-anchor="middle" x="648.173333" y="118.500000">848</text><line x1="671.320000" x2="671.320000" y1="103.500000" y2="108.500000" stroke="#AAAAAA" /><text style="font-size:10px;font-family:OpenSans;fill:#000000;" text-anchor="middle" x="671.320000" y="118.500000">879</text><line x1="716.120000" x2="716.120000" y1="103.500000" y2="108.500000" stroke="#AAAAAA" /><text style="font-size:10px;font-family:OpenSans;fill:#000000;" text-anchor="middle" x="716.120000" y="118.500000">939</text><line x1="843.800000" x2="843.800000" y1="103.500000" y2="108.500000" stroke="#AAAAAA" /><text style="font-size:10px;font-family:OpenSans;fill:#000000;" text-anchor="middle" x="843.800000" y="118.500000">1110</text><line x1="887.853333" x2="887.853333" y1="103.500000" y2="108.500000" stroke="#AAAAAA" /><text style="font-size:10px;font-family:OpenSans;fill:#000000;" text-anchor="middle" x="887.853333" y="118.500000">1169</text><line x1="1067.053333" x2="1067.053333" y1="103.500000" y2="108.500000" stroke="#AAAAAA" /><text style="font-size:10px;font-family:OpenSans;fill:#000000;" text-anchor="middle" x="1067.053333" y="118.500000">1409</text><line x1="1133.506667" x2="1133.506667" y1="103.500000" y2="108.500000" stroke="#AAAAAA" /><text style="font-size:10px;font-family:OpenSans;fill:#000000;" text-anchor="middle" x="1133.506667" y="118.500000">1498</text><line x1="1157.400000" x2="1157.400000" y1="103.500000" y2="108.500000" stroke="#AAAAAA" /><text style="font-size:10px;font-family:OpenSans;fill:#000000;" text-anchor="middle" x="1157.400000" y="118.500000">1530</text></g>
<rect fill="#2DCF00" x="4" y="132.500000" width="12" height="12" filter="url(#ds)"/><text style="font-size:12px;font-family:OpenSans;fill:#000000;" text-anchor="start" x="20" y="144.500000">Spectrin repeat</text><rect fill="#FF5353" x="4" y="146.500000" width="12" height="12" filter="url(#ds)"/><text style="font-size:12px;font-family:OpenSans;fill:#000000;" text-anchor="start" x="20" y="158.500000">Immunoglobulin I-set domain</text></svg>
