<?xml version='1.0'?>
<svg xmlns="http://www.w3.org/2000/svg" xmlns:xlink="http://www.w3.org/1999/xlink" width="484.469388" height="146.200000">
<defs>
  <filter id="ds" x="0" y="0">
    <feOffset in="SourceAlpha" dx="2" dy="2" />
    <feComponentTransfer><feFuncA type="linear" slope="0.2"/></feComponentTransfer>
    <feGaussianBlur result="blurOut" stdDeviation="1" />
    <feBlend in="SourceGraphic" in2="blurOut" mode="normal" />
  </filter>
  <pattern id="disordered-hatch" patternUnits="userSpaceOnUse" width="4" height="4">
    <path d="M-1,1 l2,-2 M0,4 l4,-4 M3,5 l2,-2" stroke="#000000" opacity="0.3" />
  </pattern>
</defs>
<line x1="167.020408" x2="167.020408" y1="34.000000" y2="62.000000" stroke="#BABDB6" stroke-width="2"/><a xlink:title="E382K"><circle cx="167.020408" cy="34.000000" r="4.000000" fill="#ff0000" /></a><g transform="translate(167.020408,34.000000) rotate(-30)"><text style="font-size:10px;font-family:OpenSans;fill:#555;" text-anchor="middle" x="0" y="-6.000000">E382K</text></g><line x1="331.775510" x2="331.775510" y1="34.000000" y2="62.000000" stroke="#BABDB6" stroke-width="2"/><a xlink:title="A796G"><circle cx="331.775510" cy="34.000000" r="4.000000" fill="#ff0000" /></a><g transform="translate(331.775510,34.000000) rotate(-30)"><text style="font-size:10px;font-family:OpenSans;fill:#555;" text-anchor="middle" x="0" y="-6.000000">A796G</text></g><line x1="370.775510" x2="370.775510" y1="34.000000" y2="62.000000" stroke="#BABDB6" stroke-width="2"/><a xlink:title="A894A"><circle cx="370.775510" cy="34.000000" r="4.000000" fill="#0000ff" /></a><g transform="translate(370.775510,34.000000) rotate(-30)"><text style="font-size:10px;font-family:OpenSans;fill:#555;" text-anchor="middle" x="0" y="-6.000000">A894A</text></g><line x1="394.653061" x2="394.653061" y1="34.000000" y2="62.000000" stroke="#BABDB6" stroke-width="2"/><a xlink:title="H954R"><circle cx="394.653061" cy="34.000000" r="4.000000" fill="#ff0000" /></a><g transform="translate(394.653061,34.000000) rotate(-30)"><text style="font-size:10px;font-family:OpenSans;fill:#555;" text-anchor="middle" x="0" y="-6.000000">H954R</text></g><a xlink:title=",  (1142aa)"><rect fill="#BABDB6" x="15.000000" y="62.000000" width="454.469388" height="14.000000"/></a><g transform="translate(325.408163,57.000000)"><a xlink:href="https://www.ebi.ac.uk/interpro/entry/pfam/PF08647" xlink:title="BRE1 E3 ubiquitin ligase"><rect fill="#2DCF00" x="0" y="0" width="39.000000" height="24.000000" filter="url(#ds)"/><text style="font-size:12px;font-family:OpenSans;fill:#ffffff;" text-anchor="middle" x="19.500000" y="16.000000">BRE1</text></a></g>
<g class="axis">
<line x1="15.000000" x2="469.469388" y1="91.000000" y2="91.000000" stroke="#AAAAAA" /><line x1="15.000000" x2="15.000000" y1="91.000000" y2="96.000000" stroke="#AAAAAA" /><line x1="15.000000" x2="15.000000" y1="91.000000" y2="96.000000" stroke="#AAAAAA" /><text style="font-size:10px;font-family:OpenSans;fill:#000000;" text-anchor="middle" x="15.000000" y="106.000000">0</text><line x1="167.020408" x2="167.020408" y1="91.000000" y2="96.000000" stroke="#AAAAAA" /><text style="font-size:10px;font-family:OpenSans;fill:#000000;" text-anchor="middle" x="167.020408" y="106.000000">382</text><line x1="331.775510" x2="331.775510" y1="91.000000" y2="96.000000" stroke="#AAAAAA" /><text style="font-size:10px;font-family:OpenSans;fill:#000000;" text-anchor="middle" x="331.775510" y="106.000000">796</text><line x1="370.775510" x2="370.775510" y1="91.000000" y2="96.000000" stroke="#AAAAAA" /><text style="font-size:10px;font-family:OpenSans;fill:#000000;" text-anchor="middle" x="370.775510" y="106.000000">894</text><line x1="394.653061" x2="394.653061" y1="91.000000" y2="96.000000" stroke="#AAAAAA" /><text style="font-size:10px;font-family:OpenSans;fill:#000000;" text-anchor="middle" x="394.653061" y="106.000000">954</text><line x1="469.469388" x2="469.469388" y1="91.000000" y2="96.000000" stroke="#AAAAAA" /><text style="font-size:10px;font-family:OpenSans;fill:#000000;" text-anchor="middle" x="469.469388" y="106.000000">1142</text></g>
<rect fill="#2DCF00" x="4" y="120.000000" width="12" height="12" filter="url(#ds)"/><text style="font-size:12px;font-family:OpenSans;fill:#000000;" text-anchor="start" x="20" y="132.000000">BRE1 E3 ubiquitin ligase</text></svg>
