<?xml version='1.0'?>
<svg xmlns="http://www.w3.org/2000/svg" xmlns:xlink="http://www.w3.org/1999/xlink" width="629.097561" height="171.900000">
<defs>
  <filter id="ds" x="0" y="0">
    <feOffset in="SourceAlpha" dx="2" dy="2" />
    <feComponentTransfer><feFuncA type="linear" slope="0.2"/></feComponentTransfer>
    <feGaussianBlur result="blurOut" stdDeviation="1" />
    <feBlend in="SourceGraphic" in2="blurOut" mode="normal" />
  </filter>
  <pattern id="disordered-hatch" patternUnits="userSpaceOnUse" width="4" height="4">
    <path d="M-1,1 l2,-2 M0,4 l4,-4 M3,5 l2,-2" stroke="#000000" opacity="0.3" />
  </pattern>
</defs>
<line x1="447.170732" x2="447.170732" y1="34.000000" y2="74.500000" stroke="#BABDB6" stroke-width="2"/><a xlink:title="P611L"><circle cx="447.170732" cy="34.000000" r="4.000000" fill="#ff0000" /></a><g transform="translate(447.170732,34.000000) rotate(-30)"><text style="font-size:10px;font-family:OpenSans;fill:#555;" text-anchor="middle" x="0" y="-6.000000">P611L</text></g><line x1="450.707317" x2="450.707317" y1="46.500000" y2="74.500000" stroke="#BABDB6" stroke-width="2"/><a xlink:title="P616L"><circle cx="450.707317" cy="46.500000" r="4.000000" fill="#ff0000" /></a><g transform="translate(450.707317,46.500000) rotate(-30)"><text style="font-size:10px;font-family:OpenSans;fill:#555;" text-anchor="middle" x="0" y="-6.000000">P616L</text></g><line x1="510.121951" x2="510.121951" y1="46.500000" y2="74.500000" stroke="#BABDB6" stroke-width="2"/><a xlink:title="P700L"><circle cx="510.121951" cy="46.500000" r="4.000000" fill="#ff0000" /></a><g transform="translate(510.121951,46.500000) rotate(-30)"><text style="font-size:10px;font-family:OpenSans;fill:#555;" text-anchor="middle" x="0" y="-6.000000">P700L</text></g><line x1="544.073171" x2="544.073171" y1="46.500000" y2="74.500000" stroke="#BABDB6" stroke-width="2"/><a xlink:title="P748P"><circle cx="544.073171" cy="46.500000" r="4.000000" fill="#0000ff" /></a><g transform="translate(544.073171,46.500000) rotate(-30)"><text style="font-size:10px;font-family:OpenSans;fill:#555;" text-anchor="middle" x="0" y="-6.000000">P748P</text></g><line x1="572.365854" x2="572.365854" y1="46.500000" y2="74.500000" stroke="#BABDB6" stroke-width="2"/><a xlink:title="P788L"><circle cx="572.365854" cy="46.500000" r="4.000000" fill="#ff0000" /></a><g transform="translate(572.365854,46.500000) rotate(-30)"><text style="font-size:10px;font-family:OpenSans;fill:#555;" text-anchor="middle" x="0" y="-6.000000">P788L</text></g><a xlink:title=",  (847aa)"><rect fill="#BABDB6" x="15.000000" y="74.500000" width="599.097561" height="14.000000"/></a><g transform="translate(116.146341,69.500000)"><a xlink:href="https://www.ebi.ac.uk/interpro/entry/pfam/PF08205" xlink:title="CD80-like C2-set immunoglobulin domain"><rect fill="#2DCF00" x="0" y="0" width="58.000000" height="24.000000" filter="url(#ds)"/><text style="font-size:12px;font-family:OpenSans;fill:#ffffff;" text-anchor="middle" x="29.000000" y="16.000000">C2-set_2</text></a></g>
<g transform="translate(188.292683,69.500000)"><a xlink:href="https://www.ebi.ac.uk/interpro/entry/pfam/PF13927" xlink:title="Immunoglobulin domain"><rect fill="#FF5353" x="0" y="0" width="48.097561" height="24.000000" filter="url(#ds)"/><text style="font-size:12px;font-family:OpenSans;fill:#ffffff;" text-anchor="middle" x="24.048780" y="16.000000">Ig_3</text></a></g>
<g transform="translate(257.609756,69.500000)"><a xlink:href="https://www.ebi.ac.uk/interpro/entry/pfam/PF13927" xlink:title="Immunoglobulin domain"><rect fill="#5B5BFF" x="0" y="0" width="40.317073" height="24.000000" filter="url(#ds)"/><text style="font-size:12px;font-family:OpenSans;fill:#ffffff;" text-anchor="middle" x="20.158537" y="16.000000">Ig_3</text></a></g>
<g transform="translate(380.682927,69.500000)"><a xlink:href="https://www.ebi.ac.uk/interpro/entry/pfam/PF13895" xlink:title="Immunoglobulin domain"><rect fill="#EBD61D" x="0" y="0" width="50.926829" height="24.000000" filter="url(#ds)"/><text style="font-size:12px;font-family:OpenSans;fill:#ffffff;" text-anchor="middle" x="25.463415" y="16.000000">Ig_2</text></a></g>
<g transform="translate(437.975610,69.500000)"><a xlink:href="https://www.ebi.ac.uk/interpro/entry/pfam/PF13927" xlink:title="Immunoglobulin domain"><rect fill="#BA21E0" x="0" y="0" width="45.975610" height="24.000000" filter="url(#ds)"/><text style="font-size:12px;font-family:OpenSans;fill:#ffffff;" text-anchor="middle" x="22.987805" y="16.000000">Ig_3</text></a></g>
<g class="axis">
<line x1="15.000000" x2="614.097561" y1="103.500000" y2="103.500000" stroke="#AAAAAA" /><line x1="15.000000" x2="15.000000" y1="103.500000" y2="108.500000" stroke="#AAAAAA" /><line x1="15.000000" x2="15.000000" y1="103.500000" y2="108.500000" stroke="#AAAAAA" /><text style="font-size:10px;font-family:OpenSans;fill:#000000;" text-anchor="middle" x="15.000000" y="118.500000">0</text><line x1="116.146341" x2="116.146341" y1="103.500000" y2="108.500000" stroke="#AAAAAA" /><text style="font-size:10px;font-family:OpenSans;fill:#000000;" text-anchor="middle" x="116.146341" y="118.500000">143</text><line x1="174.146341" x2="174.146341" y1="103.500000" y2="108.500000" stroke="#AAAAAA" /><text style="font-size:10px;font-family:OpenSans;fill:#000000;" text-anchor="middle" x="174.146341" y="118.500000">225</text><line x1="236.390244" x2="236.390244" y1="103.500000" y2="108.500000" stroke="#AAAAAA" /><text style="font-size:10px;font-family:OpenSans;fill:#000000;" text-anchor="middle" x="236.390244" y="118.500000">313</text><line x1="257.609756" x2="257.609756" y1="103.500000" y2="108.500000" stroke="#AAAAAA" /><text style="font-size:10px;font-family:OpenSans;fill:#000000;" text-anchor="middle" x="257.609756" y="118.500000">343</text><line x1="297.926829" x2="297.926829" y1="103.500000" y2="108.500000" stroke="#AAAAAA" /><text style="font-size:10px;font-family:OpenSans;fill:#000000;" text-anchor="middle" x="297.926829" y="118.500000">400</text><line x1="380.682927" x2="380.682927" y1="103.500000" y2="108.500000" stroke="#AAAAAA" /><text style="font-size:10px;font-family:OpenSans;fill:#000000;" text-anchor="middle" x="380.682927" y="118.500000">517</text><line x1="447.170732" x2="447.170732" y1="103.500000" y2="108.500000" stroke="#AAAAAA" /><text style="font-size:10px;font-family:OpenSans;fill:#000000;" text-anchor="middle" x="447.170732" y="118.500000">611</text><line x1="483.951220" x2="483.951220" y1="103.500000" y2="108.500000" stroke="#AAAAAA" /><text style="font-size:10px;font-family:OpenSans;fill:#000000;" text-anchor="middle" x="483.951220" y="118.500000">663</text><line x1="510.121951" x2="510.121951" y1="103.500000" y2="108.500000" stroke="#AAAAAA" /><text style="font-size:10px;font-family:OpenSans;fill:#000000;" text-anchor="middle" x="510.121951" y="118.500000">700</text><line x1="544.073171" x2="544.073171" y1="103.500000" y2="108.500000" stroke="#AAAAAA" /><text style="font-size:10px;font-family:OpenSans;fill:#000000;" text-anchor="middle" x="544.073171" y="118.500000">748</text><line x1="572.365854" x2="572.365854" y1="103.500000" y2="108.500000" stroke="#AAAAAA" /><text style="font-size:10px;font-family:OpenSans;fill:#000000;" text-anchor="middle" x="572.365854" y="118.500000">788</text><line x1="614.097561" x2="614.097561" y1="103.500000" y2="108.500000" stroke="#AAAAAA" /><text style="font-size:10px;font-family:OpenSans;fill:#000000;" text-anchor="middle" x="614.097561" y="118.500000">847</text></g>
<rect fill="#2DCF00" x="4" y="132.500000" width="12" height="12" filter="url(#ds)"/><text style="font-size:12px;font-family:OpenSans;fill:#000000;" text-anchor="start" x="20" y="144.500000">CD80-like C2-set immunoglobulin domain</text><rect fill="#BA21E0" x="4" y="146.500000" width="12" height="12" filter="url(#ds)"/><text style="font-size:12px;font-family:OpenSans;fill:#000000;" text-anchor="start" x="20" y="158.500000">Immunoglobulin domain</text></svg>
