<?xml version='1.0'?>
<svg xmlns="http://www.w3.org/2000/svg" xmlns:xlink="http://www.w3.org/1999/xlink" width="430.000000" height="171.900000">
<defs>
  <filter id="ds" x="0" y="0">
    <feOffset in="SourceAlpha" dx="2" dy="2" />
    <feComponentTransfer><feFuncA type="linear" slope="0.2"/></feComponentTransfer>
    <feGaussianBlur result="blurOut" stdDeviation="1" />
    <feBlend in="SourceGraphic" in2="blurOut" mode="normal" />
  </filter>
  <pattern id="disordered-hatch" patternUnits="userSpaceOnUse" width="4" height="4">
    <path d="M-1,1 l2,-2 M0,4 l4,-4 M3,5 l2,-2" stroke="#000000" opacity="0.3" />
  </pattern>
</defs>
<line x1="39.915825" x2="39.915825" y1="46.500000" y2="74.500000" stroke="#BABDB6" stroke-width="2"/><a xlink:title="S37S"><circle cx="39.915825" cy="46.500000" r="4.000000" fill="#0000ff" /></a><g transform="translate(39.915825,46.500000) rotate(-30)"><text style="font-size:10px;font-family:OpenSans;fill:#555;" text-anchor="middle" x="0" y="-6.000000">S37S</text></g><line x1="198.164983" x2="198.164983" y1="46.500000" y2="74.500000" stroke="#BABDB6" stroke-width="2"/><a xlink:title="S272S"><circle cx="198.164983" cy="46.500000" r="4.000000" fill="#0000ff" /></a><g transform="translate(198.164983,46.500000) rotate(-30)"><text style="font-size:10px;font-family:OpenSans;fill:#555;" text-anchor="middle" x="0" y="-6.000000">S272S</text></g><line x1="236.548822" x2="236.548822" y1="34.000000" y2="74.500000" stroke="#BABDB6" stroke-width="2"/><a xlink:title="A329G"><circle cx="236.548822" cy="34.000000" r="4.000000" fill="#ff0000" /></a><g transform="translate(236.548822,34.000000) rotate(-30)"><text style="font-size:10px;font-family:OpenSans;fill:#555;" text-anchor="middle" x="0" y="-6.000000">A329G</text></g><line x1="237.222222" x2="237.222222" y1="46.500000" y2="74.500000" stroke="#BABDB6" stroke-width="2"/><a xlink:title="S330S"><circle cx="237.222222" cy="46.500000" r="4.000000" fill="#0000ff" /></a><g transform="translate(237.222222,46.500000) rotate(-30)"><text style="font-size:10px;font-family:OpenSans;fill:#555;" text-anchor="middle" x="0" y="-6.000000">S330S</text></g><line x1="394.797980" x2="394.797980" y1="46.500000" y2="74.500000" stroke="#BABDB6" stroke-width="2"/><a xlink:title="A564G"><circle cx="394.797980" cy="46.500000" r="4.000000" fill="#ff0000" /></a><g transform="translate(394.797980,46.500000) rotate(-30)"><text style="font-size:10px;font-family:OpenSans;fill:#555;" text-anchor="middle" x="0" y="-6.000000">A564G</text></g><line x1="433.855219" x2="433.855219" y1="46.500000" y2="74.500000" stroke="#BABDB6" stroke-width="2"/><a xlink:title="A622G"><circle cx="433.855219" cy="46.500000" r="4.000000" fill="#ff0000" /></a><g transform="translate(433.855219,46.500000) rotate(-30)"><text style="font-size:10px;font-family:OpenSans;fill:#555;" text-anchor="middle" x="0" y="-6.000000">A622G</text></g><a xlink:title=",  (594aa)"><rect fill="#BABDB6" x="15.000000" y="74.500000" width="400.000000" height="14.000000"/></a><g transform="translate(23.754209,69.500000)"><a xlink:href="https://www.ebi.ac.uk/interpro/entry/pfam/PF14671" xlink:title="Dual specificity protein phosphatase, N-terminal half"><rect fill="#2DCF00" x="0" y="0" width="93.602694" height="24.000000" filter="url(#ds)"/><text style="font-size:12px;font-family:OpenSans;fill:#ffffff;" text-anchor="middle" x="46.801347" y="16.000000">DSPn</text></a></g>
<g transform="translate(158.434343,69.500000)"><a xlink:href="https://www.ebi.ac.uk/interpro/entry/pfam/PF22785" xlink:title="Polymorphic toxin system, DSP-PTPase phosphatase"><rect fill="#FF5353" x="0" y="0" width="55.892256" height="24.000000" filter="url(#ds)"/><text style="font-size:12px;font-family:OpenSans;fill:#ffffff;" text-anchor="middle" x="27.946128" y="16.000000">Tc-R-P</text></a></g>
<g class="axis">
<line x1="15.000000" x2="415.000000" y1="103.500000" y2="103.500000" stroke="#AAAAAA" /><line x1="15.000000" x2="15.000000" y1="103.500000" y2="108.500000" stroke="#AAAAAA" /><line x1="39.915825" x2="39.915825" y1="103.500000" y2="108.500000" stroke="#AAAAAA" /><text style="font-size:10px;font-family:OpenSans;fill:#000000;" text-anchor="middle" x="39.915825" y="118.500000">37</text><line x1="117.356902" x2="117.356902" y1="103.500000" y2="108.500000" stroke="#AAAAAA" /><text style="font-size:10px;font-family:OpenSans;fill:#000000;" text-anchor="middle" x="117.356902" y="118.500000">152</text><line x1="158.434343" x2="158.434343" y1="103.500000" y2="108.500000" stroke="#AAAAAA" /><text style="font-size:10px;font-family:OpenSans;fill:#000000;" text-anchor="middle" x="158.434343" y="118.500000">213</text><line x1="198.164983" x2="198.164983" y1="103.500000" y2="108.500000" stroke="#AAAAAA" /><text style="font-size:10px;font-family:OpenSans;fill:#000000;" text-anchor="middle" x="198.164983" y="118.500000">272</text><line x1="236.548822" x2="236.548822" y1="103.500000" y2="108.500000" stroke="#AAAAAA" /><text style="font-size:10px;font-family:OpenSans;fill:#000000;" text-anchor="middle" x="236.548822" y="118.500000">329</text><line x1="394.797980" x2="394.797980" y1="103.500000" y2="108.500000" stroke="#AAAAAA" /><text style="font-size:10px;font-family:OpenSans;fill:#000000;" text-anchor="middle" x="394.797980" y="118.500000">564</text><line x1="415.000000" x2="415.000000" y1="103.500000" y2="108.500000" stroke="#AAAAAA" /><text style="font-size:10px;font-family:OpenSans;fill:#000000;" text-anchor="middle" x="415.000000" y="118.500000">594</text></g>
<rect fill="#FF5353" x="4" y="132.500000" width="12" height="12" filter="url(#ds)"/><text style="font-size:12px;font-family:OpenSans;fill:#000000;" text-anchor="start" x="20" y="144.500000">Polymorphic toxin system, DSP-PTPase phosphatase</text><rect fill="#2DCF00" x="4" y="146.500000" width="12" height="12" filter="url(#ds)"/><text style="font-size:12px;font-family:OpenSans;fill:#000000;" text-anchor="start" x="20" y="158.500000">Dual specificity protein phosphatase, N-terminal half</text></svg>
