<?xml version='1.0'?>
<svg xmlns="http://www.w3.org/2000/svg" xmlns:xlink="http://www.w3.org/1999/xlink" width="2526.731707" height="210.100000">
<defs>
  <filter id="ds" x="0" y="0">
    <feOffset in="SourceAlpha" dx="2" dy="2" />
    <feComponentTransfer><feFuncA type="linear" slope="0.2"/></feComponentTransfer>
    <feGaussianBlur result="blurOut" stdDeviation="1" />
    <feBlend in="SourceGraphic" in2="blurOut" mode="normal" />
  </filter>
  <pattern id="disordered-hatch" patternUnits="userSpaceOnUse" width="4" height="4">
    <path d="M-1,1 l2,-2 M0,4 l4,-4 M3,5 l2,-2" stroke="#000000" opacity="0.3" />
  </pattern>
</defs>
<line x1="172.756098" x2="172.756098" y1="71.500000" y2="99.500000" stroke="#BABDB6" stroke-width="2"/><a xlink:title="V98V"><circle cx="172.756098" cy="71.500000" r="4.000000" fill="#0000ff" /></a><g transform="translate(172.756098,71.500000) rotate(-30)"><text style="font-size:10px;font-family:OpenSans;fill:#555;" text-anchor="middle" x="0" y="-6.000000">V98V</text></g><line x1="330.512195" x2="330.512195" y1="71.500000" y2="99.500000" stroke="#BABDB6" stroke-width="2"/><a xlink:title="V196V"><circle cx="330.512195" cy="71.500000" r="4.000000" fill="#0000ff" /></a><g transform="translate(330.512195,71.500000) rotate(-30)"><text style="font-size:10px;font-family:OpenSans;fill:#555;" text-anchor="middle" x="0" y="-6.000000">V196V</text></g><line x1="433.536585" x2="433.536585" y1="71.500000" y2="99.500000" stroke="#BABDB6" stroke-width="2"/><a xlink:title="G260G"><circle cx="433.536585" cy="71.500000" r="4.000000" fill="#0000ff" /></a><g transform="translate(433.536585,71.500000) rotate(-30)"><text style="font-size:10px;font-family:OpenSans;fill:#555;" text-anchor="middle" x="0" y="-6.000000">G260G</text></g><line x1="591.292683" x2="591.292683" y1="71.500000" y2="99.500000" stroke="#BABDB6" stroke-width="2"/><a xlink:title="G358G"><circle cx="591.292683" cy="71.500000" r="4.000000" fill="#0000ff" /></a><g transform="translate(591.292683,71.500000) rotate(-30)"><text style="font-size:10px;font-family:OpenSans;fill:#555;" text-anchor="middle" x="0" y="-6.000000">G358G</text></g><line x1="665.341463" x2="665.341463" y1="71.500000" y2="99.500000" stroke="#BABDB6" stroke-width="2"/><a xlink:title="R404W"><circle cx="665.341463" cy="71.500000" r="4.000000" fill="#ff0000" /></a><g transform="translate(665.341463,71.500000) rotate(-30)"><text style="font-size:10px;font-family:OpenSans;fill:#555;" text-anchor="middle" x="0" y="-6.000000">R404W</text></g><line x1="721.682927" x2="721.682927" y1="71.500000" y2="99.500000" stroke="#BABDB6" stroke-width="2"/><a xlink:title="A439D"><circle cx="721.682927" cy="71.500000" r="4.000000" fill="#ff0000" /></a><g transform="translate(721.682927,71.500000) rotate(-30)"><text style="font-size:10px;font-family:OpenSans;fill:#555;" text-anchor="middle" x="0" y="-6.000000">A439D</text></g><line x1="800.560976" x2="800.560976" y1="71.500000" y2="99.500000" stroke="#BABDB6" stroke-width="2"/><a xlink:title="K488E"><circle cx="800.560976" cy="71.500000" r="4.000000" fill="#ff0000" /></a><g transform="translate(800.560976,71.500000) rotate(-30)"><text style="font-size:10px;font-family:OpenSans;fill:#555;" text-anchor="middle" x="0" y="-6.000000">K488E</text></g><line x1="811.829268" x2="811.829268" y1="71.500000" y2="99.500000" stroke="#BABDB6" stroke-width="2"/><a xlink:title="R495W"><circle cx="811.829268" cy="71.500000" r="4.000000" fill="#ff0000" /></a><g transform="translate(811.829268,71.500000) rotate(-30)"><text style="font-size:10px;font-family:OpenSans;fill:#555;" text-anchor="middle" x="0" y="-6.000000">R495W</text></g><line x1="823.097561" x2="823.097561" y1="71.500000" y2="99.500000" stroke="#BABDB6" stroke-width="2"/><a xlink:title="R502W"><circle cx="823.097561" cy="71.500000" r="4.000000" fill="#ff0000" /></a><g transform="translate(823.097561,71.500000) rotate(-30)"><text style="font-size:10px;font-family:OpenSans;fill:#555;" text-anchor="middle" x="0" y="-6.000000">R502W</text></g><line x1="868.170732" x2="868.170732" y1="71.500000" y2="99.500000" stroke="#BABDB6" stroke-width="2"/><a xlink:title="A530D"><circle cx="868.170732" cy="71.500000" r="4.000000" fill="#ff0000" /></a><g transform="translate(868.170732,71.500000) rotate(-30)"><text style="font-size:10px;font-family:OpenSans;fill:#555;" text-anchor="middle" x="0" y="-6.000000">A530D</text></g><line x1="879.439024" x2="879.439024" y1="71.500000" y2="99.500000" stroke="#BABDB6" stroke-width="2"/><a xlink:title="A537D"><circle cx="879.439024" cy="71.500000" r="4.000000" fill="#ff0000" /></a><g transform="translate(879.439024,71.500000) rotate(-30)"><text style="font-size:10px;font-family:OpenSans;fill:#555;" text-anchor="middle" x="0" y="-6.000000">A537D</text></g><line x1="947.048780" x2="947.048780" y1="71.500000" y2="99.500000" stroke="#BABDB6" stroke-width="2"/><a xlink:title="K579E"><circle cx="947.048780" cy="71.500000" r="4.000000" fill="#ff0000" /></a><g transform="translate(947.048780,71.500000) rotate(-30)"><text style="font-size:10px;font-family:OpenSans;fill:#555;" text-anchor="middle" x="0" y="-6.000000">K579E</text></g><line x1="955.097561" x2="955.097561" y1="59.000000" y2="99.500000" stroke="#BABDB6" stroke-width="2"/><a xlink:title="A584V"><circle cx="955.097561" cy="59.000000" r="4.000000" fill="#ff0000" /></a><g transform="translate(955.097561,59.000000) rotate(-30)"><text style="font-size:10px;font-family:OpenSans;fill:#555;" text-anchor="middle" x="0" y="-6.000000">A584V</text></g><line x1="958.317073" x2="958.317073" y1="71.500000" y2="99.500000" stroke="#BABDB6" stroke-width="2"/><a xlink:title="K586E"><circle cx="958.317073" cy="71.500000" r="4.000000" fill="#ff0000" /></a><g transform="translate(958.317073,71.500000) rotate(-30)"><text style="font-size:10px;font-family:OpenSans;fill:#555;" text-anchor="middle" x="0" y="-6.000000">K586E</text></g><line x1="1087.097561" x2="1087.097561" y1="71.500000" y2="99.500000" stroke="#BABDB6" stroke-width="2"/><a xlink:title="T666T"><circle cx="1087.097561" cy="71.500000" r="4.000000" fill="#0000ff" /></a><g transform="translate(1087.097561,71.500000) rotate(-30)"><text style="font-size:10px;font-family:OpenSans;fill:#555;" text-anchor="middle" x="0" y="-6.000000">T666T</text></g><line x1="1101.585366" x2="1101.585366" y1="71.500000" y2="99.500000" stroke="#BABDB6" stroke-width="2"/><a xlink:title="A675V"><circle cx="1101.585366" cy="71.500000" r="4.000000" fill="#ff0000" /></a><g transform="translate(1101.585366,71.500000) rotate(-30)"><text style="font-size:10px;font-family:OpenSans;fill:#555;" text-anchor="middle" x="0" y="-6.000000">A675V</text></g><line x1="1112.853659" x2="1112.853659" y1="71.500000" y2="99.500000" stroke="#BABDB6" stroke-width="2"/><a xlink:title="A682V"><circle cx="1112.853659" cy="71.500000" r="4.000000" fill="#ff0000" /></a><g transform="translate(1112.853659,71.500000) rotate(-30)"><text style="font-size:10px;font-family:OpenSans;fill:#555;" text-anchor="middle" x="0" y="-6.000000">A682V</text></g><line x1="1233.585366" x2="1233.585366" y1="71.500000" y2="99.500000" stroke="#BABDB6" stroke-width="2"/><a xlink:title="T757T"><circle cx="1233.585366" cy="71.500000" r="4.000000" fill="#0000ff" /></a><g transform="translate(1233.585366,71.500000) rotate(-30)"><text style="font-size:10px;font-family:OpenSans;fill:#555;" text-anchor="middle" x="0" y="-6.000000">T757T</text></g><line x1="1244.853659" x2="1244.853659" y1="71.500000" y2="99.500000" stroke="#BABDB6" stroke-width="2"/><a xlink:title="T764T"><circle cx="1244.853659" cy="71.500000" r="4.000000" fill="#0000ff" /></a><g transform="translate(1244.853659,71.500000) rotate(-30)"><text style="font-size:10px;font-family:OpenSans;fill:#555;" text-anchor="middle" x="0" y="-6.000000">T764T</text></g><line x1="1251.292683" x2="1251.292683" y1="71.500000" y2="99.500000" stroke="#BABDB6" stroke-width="2"/><a xlink:title="T768T"><circle cx="1251.292683" cy="71.500000" r="4.000000" fill="#0000ff" /></a><g transform="translate(1251.292683,71.500000) rotate(-30)"><text style="font-size:10px;font-family:OpenSans;fill:#555;" text-anchor="middle" x="0" y="-6.000000">T768T</text></g><line x1="1380.073171" x2="1380.073171" y1="71.500000" y2="99.500000" stroke="#BABDB6" stroke-width="2"/><a xlink:title="P848P"><circle cx="1380.073171" cy="71.500000" r="4.000000" fill="#0000ff" /></a><g transform="translate(1380.073171,71.500000) rotate(-30)"><text style="font-size:10px;font-family:OpenSans;fill:#555;" text-anchor="middle" x="0" y="-6.000000">P848P</text></g><line x1="1391.341463" x2="1391.341463" y1="71.500000" y2="99.500000" stroke="#BABDB6" stroke-width="2"/><a xlink:title="R855C"><circle cx="1391.341463" cy="71.500000" r="4.000000" fill="#ff0000" /></a><g transform="translate(1391.341463,71.500000) rotate(-30)"><text style="font-size:10px;font-family:OpenSans;fill:#555;" text-anchor="middle" x="0" y="-6.000000">R855C</text></g><line x1="1397.780488" x2="1397.780488" y1="71.500000" y2="99.500000" stroke="#BABDB6" stroke-width="2"/><a xlink:title="T859T"><circle cx="1397.780488" cy="71.500000" r="4.000000" fill="#0000ff" /></a><g transform="translate(1397.780488,71.500000) rotate(-30)"><text style="font-size:10px;font-family:OpenSans;fill:#555;" text-anchor="middle" x="0" y="-6.000000">T859T</text></g><line x1="1407.439024" x2="1407.439024" y1="59.000000" y2="99.500000" stroke="#BABDB6" stroke-width="2"/><a xlink:title="T865T"><circle cx="1407.439024" cy="59.000000" r="4.000000" fill="#0000ff" /></a><g transform="translate(1407.439024,59.000000) rotate(-30)"><text style="font-size:10px;font-family:OpenSans;fill:#555;" text-anchor="middle" x="0" y="-6.000000">T865T</text></g><line x1="1409.048780" x2="1409.048780" y1="71.500000" y2="99.500000" stroke="#BABDB6" stroke-width="2"/><a xlink:title="T866T"><circle cx="1409.048780" cy="71.500000" r="4.000000" fill="#0000ff" /></a><g transform="translate(1409.048780,71.500000) rotate(-30)"><text style="font-size:10px;font-family:OpenSans;fill:#555;" text-anchor="middle" x="0" y="-6.000000">T866T</text></g><line x1="1447.682927" x2="1447.682927" y1="71.500000" y2="99.500000" stroke="#BABDB6" stroke-width="2"/><a xlink:title="F890F"><circle cx="1447.682927" cy="71.500000" r="4.000000" fill="#0000ff" /></a><g transform="translate(1447.682927,71.500000) rotate(-30)"><text style="font-size:10px;font-family:OpenSans;fill:#555;" text-anchor="middle" x="0" y="-6.000000">F890F</text></g><line x1="1497.585366" x2="1497.585366" y1="71.500000" y2="99.500000" stroke="#BABDB6" stroke-width="2"/><a xlink:title="P921P"><circle cx="1497.585366" cy="71.500000" r="4.000000" fill="#0000ff" /></a><g transform="translate(1497.585366,71.500000) rotate(-30)"><text style="font-size:10px;font-family:OpenSans;fill:#555;" text-anchor="middle" x="0" y="-6.000000">P921P</text></g><line x1="1508.853659" x2="1508.853659" y1="59.000000" y2="99.500000" stroke="#BABDB6" stroke-width="2"/><a xlink:title="R928C"><circle cx="1508.853659" cy="59.000000" r="4.000000" fill="#ff0000" /></a><g transform="translate(1508.853659,59.000000) rotate(-30)"><text style="font-size:10px;font-family:OpenSans;fill:#555;" text-anchor="middle" x="0" y="-6.000000">R928C</text></g><line x1="1508.853659" x2="1508.853659" y1="71.500000" y2="99.500000" stroke="#BABDB6" stroke-width="2"/><a xlink:title="P928P"><circle cx="1508.853659" cy="71.500000" r="4.000000" fill="#0000ff" /></a><g transform="translate(1508.853659,71.500000) rotate(-30)"><text style="font-size:10px;font-family:OpenSans;fill:#555;" text-anchor="middle" x="0" y="-6.000000">P928P</text></g><line x1="1520.121951" x2="1520.121951" y1="71.500000" y2="99.500000" stroke="#BABDB6" stroke-width="2"/><a xlink:title="R935C"><circle cx="1520.121951" cy="71.500000" r="4.000000" fill="#ff0000" /></a><g transform="translate(1520.121951,71.500000) rotate(-30)"><text style="font-size:10px;font-family:OpenSans;fill:#555;" text-anchor="middle" x="0" y="-6.000000">R935C</text></g><line x1="1526.560976" x2="1526.560976" y1="71.500000" y2="99.500000" stroke="#BABDB6" stroke-width="2"/><a xlink:title="P939P"><circle cx="1526.560976" cy="71.500000" r="4.000000" fill="#0000ff" /></a><g transform="translate(1526.560976,71.500000) rotate(-30)"><text style="font-size:10px;font-family:OpenSans;fill:#555;" text-anchor="middle" x="0" y="-6.000000">P939P</text></g><line x1="1536.219512" x2="1536.219512" y1="46.500000" y2="99.500000" stroke="#BABDB6" stroke-width="2"/><a xlink:title="P945P"><circle cx="1536.219512" cy="46.500000" r="4.000000" fill="#0000ff" /></a><g transform="translate(1536.219512,46.500000) rotate(-30)"><text style="font-size:10px;font-family:OpenSans;fill:#555;" text-anchor="middle" x="0" y="-6.000000">P945P</text></g><line x1="1537.829268" x2="1537.829268" y1="71.500000" y2="99.500000" stroke="#BABDB6" stroke-width="2"/><a xlink:title="P946P"><circle cx="1537.829268" cy="71.500000" r="4.000000" fill="#0000ff" /></a><g transform="translate(1537.829268,71.500000) rotate(-30)"><text style="font-size:10px;font-family:OpenSans;fill:#555;" text-anchor="middle" x="0" y="-6.000000">P946P</text></g><line x1="1537.829268" x2="1537.829268" y1="59.000000" y2="99.500000" stroke="#BABDB6" stroke-width="2"/><a xlink:title="R946C"><circle cx="1537.829268" cy="59.000000" r="4.000000" fill="#ff0000" /></a><g transform="translate(1537.829268,59.000000) rotate(-30)"><text style="font-size:10px;font-family:OpenSans;fill:#555;" text-anchor="middle" x="0" y="-6.000000">R946C</text></g><line x1="1547.487805" x2="1547.487805" y1="59.000000" y2="99.500000" stroke="#BABDB6" stroke-width="2"/><a xlink:title="R952C"><circle cx="1547.487805" cy="59.000000" r="4.000000" fill="#ff0000" /></a><g transform="translate(1547.487805,59.000000) rotate(-30)"><text style="font-size:10px;font-family:OpenSans;fill:#555;" text-anchor="middle" x="0" y="-6.000000">R952C</text></g><line x1="1549.097561" x2="1549.097561" y1="71.500000" y2="99.500000" stroke="#BABDB6" stroke-width="2"/><a xlink:title="R953C"><circle cx="1549.097561" cy="71.500000" r="4.000000" fill="#ff0000" /></a><g transform="translate(1549.097561,71.500000) rotate(-30)"><text style="font-size:10px;font-family:OpenSans;fill:#555;" text-anchor="middle" x="0" y="-6.000000">R953C</text></g><line x1="1565.195122" x2="1565.195122" y1="71.500000" y2="99.500000" stroke="#BABDB6" stroke-width="2"/><a xlink:title="F963F"><circle cx="1565.195122" cy="71.500000" r="4.000000" fill="#0000ff" /></a><g transform="translate(1565.195122,71.500000) rotate(-30)"><text style="font-size:10px;font-family:OpenSans;fill:#555;" text-anchor="middle" x="0" y="-6.000000">F963F</text></g><line x1="1576.463415" x2="1576.463415" y1="71.500000" y2="99.500000" stroke="#BABDB6" stroke-width="2"/><a xlink:title="F970F"><circle cx="1576.463415" cy="71.500000" r="4.000000" fill="#0000ff" /></a><g transform="translate(1576.463415,71.500000) rotate(-30)"><text style="font-size:10px;font-family:OpenSans;fill:#555;" text-anchor="middle" x="0" y="-6.000000">F970F</text></g><line x1="1594.170732" x2="1594.170732" y1="71.500000" y2="99.500000" stroke="#BABDB6" stroke-width="2"/><a xlink:title="F981F"><circle cx="1594.170732" cy="71.500000" r="4.000000" fill="#0000ff" /></a><g transform="translate(1594.170732,71.500000) rotate(-30)"><text style="font-size:10px;font-family:OpenSans;fill:#555;" text-anchor="middle" x="0" y="-6.000000">F981F</text></g><line x1="1603.829268" x2="1603.829268" y1="59.000000" y2="99.500000" stroke="#BABDB6" stroke-width="2"/><a xlink:title="F987F"><circle cx="1603.829268" cy="59.000000" r="4.000000" fill="#0000ff" /></a><g transform="translate(1603.829268,59.000000) rotate(-30)"><text style="font-size:10px;font-family:OpenSans;fill:#555;" text-anchor="middle" x="0" y="-6.000000">F987F</text></g><line x1="1605.439024" x2="1605.439024" y1="71.500000" y2="99.500000" stroke="#BABDB6" stroke-width="2"/><a xlink:title="F988F"><circle cx="1605.439024" cy="71.500000" r="4.000000" fill="#0000ff" /></a><g transform="translate(1605.439024,71.500000) rotate(-30)"><text style="font-size:10px;font-family:OpenSans;fill:#555;" text-anchor="middle" x="0" y="-6.000000">F988F</text></g><line x1="1618.317073" x2="1618.317073" y1="71.500000" y2="99.500000" stroke="#BABDB6" stroke-width="2"/><a xlink:title="R996W"><circle cx="1618.317073" cy="71.500000" r="4.000000" fill="#ff0000" /></a><g transform="translate(1618.317073,71.500000) rotate(-30)"><text style="font-size:10px;font-family:OpenSans;fill:#555;" text-anchor="middle" x="0" y="-6.000000">R996W</text></g><line x1="1713.292683" x2="1713.292683" y1="71.500000" y2="99.500000" stroke="#BABDB6" stroke-width="2"/><a xlink:title="Q1055R"><circle cx="1713.292683" cy="71.500000" r="4.000000" fill="#ff0000" /></a><g transform="translate(1713.292683,71.500000) rotate(-30)"><text style="font-size:10px;font-family:OpenSans;fill:#555;" text-anchor="middle" x="0" y="-6.000000">Q1055R</text></g><line x1="1735.829268" x2="1735.829268" y1="71.500000" y2="99.500000" stroke="#BABDB6" stroke-width="2"/><a xlink:title="R1069W"><circle cx="1735.829268" cy="71.500000" r="4.000000" fill="#ff0000" /></a><g transform="translate(1735.829268,71.500000) rotate(-30)"><text style="font-size:10px;font-family:OpenSans;fill:#555;" text-anchor="middle" x="0" y="-6.000000">R1069W</text></g><line x1="1747.097561" x2="1747.097561" y1="71.500000" y2="99.500000" stroke="#BABDB6" stroke-width="2"/><a xlink:title="R1076W"><circle cx="1747.097561" cy="71.500000" r="4.000000" fill="#ff0000" /></a><g transform="translate(1747.097561,71.500000) rotate(-30)"><text style="font-size:10px;font-family:OpenSans;fill:#555;" text-anchor="middle" x="0" y="-6.000000">R1076W</text></g><line x1="1755.146341" x2="1755.146341" y1="71.500000" y2="99.500000" stroke="#BABDB6" stroke-width="2"/><a xlink:title="S1081G"><circle cx="1755.146341" cy="71.500000" r="4.000000" fill="#ff0000" /></a><g transform="translate(1755.146341,71.500000) rotate(-30)"><text style="font-size:10px;font-family:OpenSans;fill:#555;" text-anchor="middle" x="0" y="-6.000000">S1081G</text></g><line x1="1764.804878" x2="1764.804878" y1="71.500000" y2="99.500000" stroke="#BABDB6" stroke-width="2"/><a xlink:title="R1087W"><circle cx="1764.804878" cy="71.500000" r="4.000000" fill="#ff0000" /></a><g transform="translate(1764.804878,71.500000) rotate(-30)"><text style="font-size:10px;font-family:OpenSans;fill:#555;" text-anchor="middle" x="0" y="-6.000000">R1087W</text></g><line x1="1774.463415" x2="1774.463415" y1="59.000000" y2="99.500000" stroke="#BABDB6" stroke-width="2"/><a xlink:title="R1093W"><circle cx="1774.463415" cy="59.000000" r="4.000000" fill="#ff0000" /></a><g transform="translate(1774.463415,59.000000) rotate(-30)"><text style="font-size:10px;font-family:OpenSans;fill:#555;" text-anchor="middle" x="0" y="-6.000000">R1093W</text></g><line x1="1776.073171" x2="1776.073171" y1="71.500000" y2="99.500000" stroke="#BABDB6" stroke-width="2"/><a xlink:title="R1094W"><circle cx="1776.073171" cy="71.500000" r="4.000000" fill="#ff0000" /></a><g transform="translate(1776.073171,71.500000) rotate(-30)"><text style="font-size:10px;font-family:OpenSans;fill:#555;" text-anchor="middle" x="0" y="-6.000000">R1094W</text></g><line x1="1830.804878" x2="1830.804878" y1="71.500000" y2="99.500000" stroke="#BABDB6" stroke-width="2"/><a xlink:title="Q1128R"><circle cx="1830.804878" cy="71.500000" r="4.000000" fill="#ff0000" /></a><g transform="translate(1830.804878,71.500000) rotate(-30)"><text style="font-size:10px;font-family:OpenSans;fill:#555;" text-anchor="middle" x="0" y="-6.000000">Q1128R</text></g><line x1="1842.073171" x2="1842.073171" y1="71.500000" y2="99.500000" stroke="#BABDB6" stroke-width="2"/><a xlink:title="Q1135R"><circle cx="1842.073171" cy="71.500000" r="4.000000" fill="#ff0000" /></a><g transform="translate(1842.073171,71.500000) rotate(-30)"><text style="font-size:10px;font-family:OpenSans;fill:#555;" text-anchor="middle" x="0" y="-6.000000">Q1135R</text></g><line x1="1859.780488" x2="1859.780488" y1="71.500000" y2="99.500000" stroke="#BABDB6" stroke-width="2"/><a xlink:title="Q1146R"><circle cx="1859.780488" cy="71.500000" r="4.000000" fill="#ff0000" /></a><g transform="translate(1859.780488,71.500000) rotate(-30)"><text style="font-size:10px;font-family:OpenSans;fill:#555;" text-anchor="middle" x="0" y="-6.000000">Q1146R</text></g><line x1="1869.439024" x2="1869.439024" y1="46.500000" y2="99.500000" stroke="#BABDB6" stroke-width="2"/><a xlink:title="Q1152R"><circle cx="1869.439024" cy="46.500000" r="4.000000" fill="#ff0000" /></a><g transform="translate(1869.439024,46.500000) rotate(-30)"><text style="font-size:10px;font-family:OpenSans;fill:#555;" text-anchor="middle" x="0" y="-6.000000">Q1152R</text></g><line x1="1871.048780" x2="1871.048780" y1="59.000000" y2="99.500000" stroke="#BABDB6" stroke-width="2"/><a xlink:title="Q1153R"><circle cx="1871.048780" cy="59.000000" r="4.000000" fill="#ff0000" /></a><g transform="translate(1871.048780,59.000000) rotate(-30)"><text style="font-size:10px;font-family:OpenSans;fill:#555;" text-anchor="middle" x="0" y="-6.000000">Q1153R</text></g><line x1="1874.268293" x2="1874.268293" y1="59.000000" y2="99.500000" stroke="#BABDB6" stroke-width="2"/><a xlink:title="G1155G"><circle cx="1874.268293" cy="59.000000" r="4.000000" fill="#0000ff" /></a><g transform="translate(1874.268293,59.000000) rotate(-30)"><text style="font-size:10px;font-family:OpenSans;fill:#555;" text-anchor="middle" x="0" y="-6.000000">G1155G</text></g><line x1="1877.487805" x2="1877.487805" y1="71.500000" y2="99.500000" stroke="#BABDB6" stroke-width="2"/><a xlink:title="R1157W"><circle cx="1877.487805" cy="71.500000" r="4.000000" fill="#ff0000" /></a><g transform="translate(1877.487805,71.500000) rotate(-30)"><text style="font-size:10px;font-family:OpenSans;fill:#555;" text-anchor="middle" x="0" y="-6.000000">R1157W</text></g><line x1="1991.780488" x2="1991.780488" y1="59.000000" y2="99.500000" stroke="#BABDB6" stroke-width="2"/><a xlink:title="G1228G"><circle cx="1991.780488" cy="59.000000" r="4.000000" fill="#0000ff" /></a><g transform="translate(1991.780488,59.000000) rotate(-30)"><text style="font-size:10px;font-family:OpenSans;fill:#555;" text-anchor="middle" x="0" y="-6.000000">G1228G</text></g><line x1="1995.000000" x2="1995.000000" y1="71.500000" y2="99.500000" stroke="#BABDB6" stroke-width="2"/><a xlink:title="R1230W"><circle cx="1995.000000" cy="71.500000" r="4.000000" fill="#ff0000" /></a><g transform="translate(1995.000000,71.500000) rotate(-30)"><text style="font-size:10px;font-family:OpenSans;fill:#555;" text-anchor="middle" x="0" y="-6.000000">R1230W</text></g><line x1="2003.048780" x2="2003.048780" y1="59.000000" y2="99.500000" stroke="#BABDB6" stroke-width="2"/><a xlink:title="G1235G"><circle cx="2003.048780" cy="59.000000" r="4.000000" fill="#0000ff" /></a><g transform="translate(2003.048780,59.000000) rotate(-30)"><text style="font-size:10px;font-family:OpenSans;fill:#555;" text-anchor="middle" x="0" y="-6.000000">G1235G</text></g><line x1="2006.268293" x2="2006.268293" y1="71.500000" y2="99.500000" stroke="#BABDB6" stroke-width="2"/><a xlink:title="R1237W"><circle cx="2006.268293" cy="71.500000" r="4.000000" fill="#ff0000" /></a><g transform="translate(2006.268293,71.500000) rotate(-30)"><text style="font-size:10px;font-family:OpenSans;fill:#555;" text-anchor="middle" x="0" y="-6.000000">R1237W</text></g><line x1="2020.756098" x2="2020.756098" y1="59.000000" y2="99.500000" stroke="#BABDB6" stroke-width="2"/><a xlink:title="G1246G"><circle cx="2020.756098" cy="59.000000" r="4.000000" fill="#0000ff" /></a><g transform="translate(2020.756098,59.000000) rotate(-30)"><text style="font-size:10px;font-family:OpenSans;fill:#555;" text-anchor="middle" x="0" y="-6.000000">G1246G</text></g><line x1="2023.975610" x2="2023.975610" y1="71.500000" y2="99.500000" stroke="#BABDB6" stroke-width="2"/><a xlink:title="R1248W"><circle cx="2023.975610" cy="71.500000" r="4.000000" fill="#ff0000" /></a><g transform="translate(2023.975610,71.500000) rotate(-30)"><text style="font-size:10px;font-family:OpenSans;fill:#555;" text-anchor="middle" x="0" y="-6.000000">R1248W</text></g><line x1="2030.414634" x2="2030.414634" y1="34.000000" y2="99.500000" stroke="#BABDB6" stroke-width="2"/><a xlink:title="G1252G"><circle cx="2030.414634" cy="34.000000" r="4.000000" fill="#0000ff" /></a><g transform="translate(2030.414634,34.000000) rotate(-30)"><text style="font-size:10px;font-family:OpenSans;fill:#555;" text-anchor="middle" x="0" y="-6.000000">G1252G</text></g><line x1="2032.024390" x2="2032.024390" y1="46.500000" y2="99.500000" stroke="#BABDB6" stroke-width="2"/><a xlink:title="G1253G"><circle cx="2032.024390" cy="46.500000" r="4.000000" fill="#0000ff" /></a><g transform="translate(2032.024390,46.500000) rotate(-30)"><text style="font-size:10px;font-family:OpenSans;fill:#555;" text-anchor="middle" x="0" y="-6.000000">G1253G</text></g><line x1="2033.634146" x2="2033.634146" y1="59.000000" y2="99.500000" stroke="#BABDB6" stroke-width="2"/><a xlink:title="R1254W"><circle cx="2033.634146" cy="59.000000" r="4.000000" fill="#ff0000" /></a><g transform="translate(2033.634146,59.000000) rotate(-30)"><text style="font-size:10px;font-family:OpenSans;fill:#555;" text-anchor="middle" x="0" y="-6.000000">R1254W</text></g><line x1="2035.243902" x2="2035.243902" y1="71.500000" y2="99.500000" stroke="#BABDB6" stroke-width="2"/><a xlink:title="R1255W"><circle cx="2035.243902" cy="71.500000" r="4.000000" fill="#ff0000" /></a><g transform="translate(2035.243902,71.500000) rotate(-30)"><text style="font-size:10px;font-family:OpenSans;fill:#555;" text-anchor="middle" x="0" y="-6.000000">R1255W</text></g><line x1="2370.073171" x2="2370.073171" y1="71.500000" y2="99.500000" stroke="#BABDB6" stroke-width="2"/><a xlink:title="L1463L"><circle cx="2370.073171" cy="71.500000" r="4.000000" fill="#0000ff" /></a><g transform="translate(2370.073171,71.500000) rotate(-30)"><text style="font-size:10px;font-family:OpenSans;fill:#555;" text-anchor="middle" x="0" y="-6.000000">L1463L</text></g><line x1="2408.707317" x2="2408.707317" y1="71.500000" y2="99.500000" stroke="#BABDB6" stroke-width="2"/><a xlink:title="L1487L"><circle cx="2408.707317" cy="71.500000" r="4.000000" fill="#0000ff" /></a><g transform="translate(2408.707317,71.500000) rotate(-30)"><text style="font-size:10px;font-family:OpenSans;fill:#555;" text-anchor="middle" x="0" y="-6.000000">L1487L</text></g><line x1="2436.073171" x2="2436.073171" y1="71.500000" y2="99.500000" stroke="#BABDB6" stroke-width="2"/><a xlink:title="I1504V"><circle cx="2436.073171" cy="71.500000" r="4.000000" fill="#ff0000" /></a><g transform="translate(2436.073171,71.500000) rotate(-30)"><text style="font-size:10px;font-family:OpenSans;fill:#555;" text-anchor="middle" x="0" y="-6.000000">I1504V</text></g><line x1="2447.341463" x2="2447.341463" y1="71.500000" y2="99.500000" stroke="#BABDB6" stroke-width="2"/><a xlink:title="I1511V"><circle cx="2447.341463" cy="71.500000" r="4.000000" fill="#ff0000" /></a><g transform="translate(2447.341463,71.500000) rotate(-30)"><text style="font-size:10px;font-family:OpenSans;fill:#555;" text-anchor="middle" x="0" y="-6.000000">I1511V</text></g><line x1="2476.317073" x2="2476.317073" y1="71.500000" y2="99.500000" stroke="#BABDB6" stroke-width="2"/><a xlink:title="I1529V"><circle cx="2476.317073" cy="71.500000" r="4.000000" fill="#ff0000" /></a><g transform="translate(2476.317073,71.500000) rotate(-30)"><text style="font-size:10px;font-family:OpenSans;fill:#555;" text-anchor="middle" x="0" y="-6.000000">I1529V</text></g><line x1="2487.585366" x2="2487.585366" y1="71.500000" y2="99.500000" stroke="#BABDB6" stroke-width="2"/><a xlink:title="L1536L"><circle cx="2487.585366" cy="71.500000" r="4.000000" fill="#0000ff" /></a><g transform="translate(2487.585366,71.500000) rotate(-30)"><text style="font-size:10px;font-family:OpenSans;fill:#555;" text-anchor="middle" x="0" y="-6.000000">L1536L</text></g><line x1="2498.853659" x2="2498.853659" y1="71.500000" y2="99.500000" stroke="#BABDB6" stroke-width="2"/><a xlink:title="L1543L"><circle cx="2498.853659" cy="71.500000" r="4.000000" fill="#0000ff" /></a><g transform="translate(2498.853659,71.500000) rotate(-30)"><text style="font-size:10px;font-family:OpenSans;fill:#555;" text-anchor="middle" x="0" y="-6.000000">L1543L</text></g><line x1="2516.560976" x2="2516.560976" y1="71.500000" y2="99.500000" stroke="#BABDB6" stroke-width="2"/><a xlink:title="L1554L"><circle cx="2516.560976" cy="71.500000" r="4.000000" fill="#0000ff" /></a><g transform="translate(2516.560976,71.500000) rotate(-30)"><text style="font-size:10px;font-family:OpenSans;fill:#555;" text-anchor="middle" x="0" y="-6.000000">L1554L</text></g><line x1="2526.219512" x2="2526.219512" y1="59.000000" y2="99.500000" stroke="#BABDB6" stroke-width="2"/><a xlink:title="L1560L"><circle cx="2526.219512" cy="59.000000" r="4.000000" fill="#0000ff" /></a><g transform="translate(2526.219512,59.000000) rotate(-30)"><text style="font-size:10px;font-family:OpenSans;fill:#555;" text-anchor="middle" x="0" y="-6.000000">L1560L</text></g><line x1="2527.829268" x2="2527.829268" y1="71.500000" y2="99.500000" stroke="#BABDB6" stroke-width="2"/><a xlink:title="L1561L"><circle cx="2527.829268" cy="71.500000" r="4.000000" fill="#0000ff" /></a><g transform="translate(2527.829268,71.500000) rotate(-30)"><text style="font-size:10px;font-family:OpenSans;fill:#555;" text-anchor="middle" x="0" y="-6.000000">L1561L</text></g><a xlink:title=",  (1551aa)"><rect fill="#BABDB6" x="15.000000" y="99.500000" width="2496.731707" height="14.000000"/></a><g transform="translate(129.292683,94.500000)"><a xlink:href="https://www.ebi.ac.uk/interpro/entry/pfam/PF00069" xlink:title="Protein kinase domain"><rect fill="#2DCF00" x="0" y="0" width="428.195122" height="24.000000" filter="url(#ds)"/><text style="font-size:12px;font-family:OpenSans;fill:#ffffff;" text-anchor="middle" x="214.097561" y="16.000000">Protein kinase domain</text></a></g>
<g transform="translate(589.682927,94.500000)"><a xlink:href="https://www.ebi.ac.uk/interpro/entry/pfam/PF00433" xlink:title="Protein kinase C terminal domain"><rect fill="#FF5353" x="0" y="0" width="66.000000" height="24.000000" filter="url(#ds)"/><text style="font-size:12px;font-family:OpenSans;fill:#ffffff;" text-anchor="middle" x="33.000000" y="16.000000">Pkinase_C</text></a></g>
<g transform="translate(1212.658537,94.500000)"><a xlink:href="https://www.ebi.ac.uk/interpro/entry/pfam/PF08826" xlink:title="DMPK coiled coil domain like"><rect fill="#5B5BFF" x="0" y="0" width="90.146341" height="24.000000" filter="url(#ds)"/><text style="font-size:12px;font-family:OpenSans;fill:#ffffff;" text-anchor="middle" x="45.073171" y="16.000000">DMPK_coil</text></a></g>
<g transform="translate(1429.975610,94.500000)"><a xlink:href="https://www.ebi.ac.uk/interpro/entry/pfam/PF00130" xlink:title="Phorbol esters/diacylglycerol binding domain (C1 domain)"><rect fill="#EBD61D" x="0" y="0" width="77.268293" height="24.000000" filter="url(#ds)"/><text style="font-size:12px;font-family:OpenSans;fill:#ffffff;" text-anchor="middle" x="38.634146" y="16.000000">C1_1</text></a></g>
<g transform="translate(1790.560976,94.500000)"><a xlink:href="https://www.ebi.ac.uk/interpro/entry/pfam/PF00780" xlink:title="CNH domain"><rect fill="#BA21E0" x="0" y="0" width="413.707317" height="24.000000" filter="url(#ds)"/><text style="font-size:12px;font-family:OpenSans;fill:#ffffff;" text-anchor="middle" x="206.853659" y="16.000000">CNH domain</text></a></g>
<g class="axis">
<line x1="15.000000" x2="2511.731707" y1="128.500000" y2="128.500000" stroke="#AAAAAA" /><line x1="15.000000" x2="15.000000" y1="128.500000" y2="133.500000" stroke="#AAAAAA" /><line x1="15.000000" x2="15.000000" y1="128.500000" y2="133.500000" stroke="#AAAAAA" /><text style="font-size:10px;font-family:OpenSans;fill:#000000;" text-anchor="middle" x="15.000000" y="143.500000">0</text><line x1="129.292683" x2="129.292683" y1="128.500000" y2="133.500000" stroke="#AAAAAA" /><text style="font-size:10px;font-family:OpenSans;fill:#000000;" text-anchor="middle" x="129.292683" y="143.500000">71</text><line x1="172.756098" x2="172.756098" y1="128.500000" y2="133.500000" stroke="#AAAAAA" /><text style="font-size:10px;font-family:OpenSans;fill:#000000;" text-anchor="middle" x="172.756098" y="143.500000">98</text><line x1="330.512195" x2="330.512195" y1="128.500000" y2="133.500000" stroke="#AAAAAA" /><text style="font-size:10px;font-family:OpenSans;fill:#000000;" text-anchor="middle" x="330.512195" y="143.500000">196</text><line x1="433.536585" x2="433.536585" y1="128.500000" y2="133.500000" stroke="#AAAAAA" /><text style="font-size:10px;font-family:OpenSans;fill:#000000;" text-anchor="middle" x="433.536585" y="143.500000">260</text><line x1="557.487805" x2="557.487805" y1="128.500000" y2="133.500000" stroke="#AAAAAA" /><text style="font-size:10px;font-family:OpenSans;fill:#000000;" text-anchor="middle" x="557.487805" y="143.500000">337</text><line x1="591.292683" x2="591.292683" y1="128.500000" y2="133.500000" stroke="#AAAAAA" /><text style="font-size:10px;font-family:OpenSans;fill:#000000;" text-anchor="middle" x="591.292683" y="143.500000">358</text><line x1="665.341463" x2="665.341463" y1="128.500000" y2="133.500000" stroke="#AAAAAA" /><text style="font-size:10px;font-family:OpenSans;fill:#000000;" text-anchor="middle" x="665.341463" y="143.500000">404</text><line x1="721.682927" x2="721.682927" y1="128.500000" y2="133.500000" stroke="#AAAAAA" /><text style="font-size:10px;font-family:OpenSans;fill:#000000;" text-anchor="middle" x="721.682927" y="143.500000">439</text><line x1="800.560976" x2="800.560976" y1="128.500000" y2="133.500000" stroke="#AAAAAA" /><text style="font-size:10px;font-family:OpenSans;fill:#000000;" text-anchor="middle" x="800.560976" y="143.500000">488</text><line x1="823.097561" x2="823.097561" y1="128.500000" y2="133.500000" stroke="#AAAAAA" /><text style="font-size:10px;font-family:OpenSans;fill:#000000;" text-anchor="middle" x="823.097561" y="143.500000">502</text><line x1="868.170732" x2="868.170732" y1="128.500000" y2="133.500000" stroke="#AAAAAA" /><text style="font-size:10px;font-family:OpenSans;fill:#000000;" text-anchor="middle" x="868.170732" y="143.500000">530</text><line x1="947.048780" x2="947.048780" y1="128.500000" y2="133.500000" stroke="#AAAAAA" /><text style="font-size:10px;font-family:OpenSans;fill:#000000;" text-anchor="middle" x="947.048780" y="143.500000">579</text><line x1="1087.097561" x2="1087.097561" y1="128.500000" y2="133.500000" stroke="#AAAAAA" /><text style="font-size:10px;font-family:OpenSans;fill:#000000;" text-anchor="middle" x="1087.097561" y="143.500000">666</text><line x1="1112.853659" x2="1112.853659" y1="128.500000" y2="133.500000" stroke="#AAAAAA" /><text style="font-size:10px;font-family:OpenSans;fill:#000000;" text-anchor="middle" x="1112.853659" y="143.500000">682</text><line x1="1212.658537" x2="1212.658537" y1="128.500000" y2="133.500000" stroke="#AAAAAA" /><text style="font-size:10px;font-family:OpenSans;fill:#000000;" text-anchor="middle" x="1212.658537" y="143.500000">744</text><line x1="1233.585366" x2="1233.585366" y1="128.500000" y2="133.500000" stroke="#AAAAAA" /><text style="font-size:10px;font-family:OpenSans;fill:#000000;" text-anchor="middle" x="1233.585366" y="143.500000">757</text><line x1="1302.804878" x2="1302.804878" y1="128.500000" y2="133.500000" stroke="#AAAAAA" /><text style="font-size:10px;font-family:OpenSans;fill:#000000;" text-anchor="middle" x="1302.804878" y="143.500000">800</text><line x1="1380.073171" x2="1380.073171" y1="128.500000" y2="133.500000" stroke="#AAAAAA" /><text style="font-size:10px;font-family:OpenSans;fill:#000000;" text-anchor="middle" x="1380.073171" y="143.500000">848</text><line x1="1407.439024" x2="1407.439024" y1="128.500000" y2="133.500000" stroke="#AAAAAA" /><text style="font-size:10px;font-family:OpenSans;fill:#000000;" text-anchor="middle" x="1407.439024" y="143.500000">865</text><line x1="1447.682927" x2="1447.682927" y1="128.500000" y2="133.500000" stroke="#AAAAAA" /><text style="font-size:10px;font-family:OpenSans;fill:#000000;" text-anchor="middle" x="1447.682927" y="143.500000">890</text><line x1="1497.585366" x2="1497.585366" y1="128.500000" y2="133.500000" stroke="#AAAAAA" /><text style="font-size:10px;font-family:OpenSans;fill:#000000;" text-anchor="middle" x="1497.585366" y="143.500000">921</text><line x1="1520.121951" x2="1520.121951" y1="128.500000" y2="133.500000" stroke="#AAAAAA" /><text style="font-size:10px;font-family:OpenSans;fill:#000000;" text-anchor="middle" x="1520.121951" y="143.500000">935</text><line x1="1547.487805" x2="1547.487805" y1="128.500000" y2="133.500000" stroke="#AAAAAA" /><text style="font-size:10px;font-family:OpenSans;fill:#000000;" text-anchor="middle" x="1547.487805" y="143.500000">952</text><line x1="1576.463415" x2="1576.463415" y1="128.500000" y2="133.500000" stroke="#AAAAAA" /><text style="font-size:10px;font-family:OpenSans;fill:#000000;" text-anchor="middle" x="1576.463415" y="143.500000">970</text><line x1="1603.829268" x2="1603.829268" y1="128.500000" y2="133.500000" stroke="#AAAAAA" /><text style="font-size:10px;font-family:OpenSans;fill:#000000;" text-anchor="middle" x="1603.829268" y="143.500000">987</text><line x1="1713.292683" x2="1713.292683" y1="128.500000" y2="133.500000" stroke="#AAAAAA" /><text style="font-size:10px;font-family:OpenSans;fill:#000000;" text-anchor="middle" x="1713.292683" y="143.500000">1055</text><line x1="1735.829268" x2="1735.829268" y1="128.500000" y2="133.500000" stroke="#AAAAAA" /><text style="font-size:10px;font-family:OpenSans;fill:#000000;" text-anchor="middle" x="1735.829268" y="143.500000">1069</text><line x1="1755.146341" x2="1755.146341" y1="128.500000" y2="133.500000" stroke="#AAAAAA" /><text style="font-size:10px;font-family:OpenSans;fill:#000000;" text-anchor="middle" x="1755.146341" y="143.500000">1081</text><line x1="1774.463415" x2="1774.463415" y1="128.500000" y2="133.500000" stroke="#AAAAAA" /><text style="font-size:10px;font-family:OpenSans;fill:#000000;" text-anchor="middle" x="1774.463415" y="143.500000">1093</text><line x1="1830.804878" x2="1830.804878" y1="128.500000" y2="133.500000" stroke="#AAAAAA" /><text style="font-size:10px;font-family:OpenSans;fill:#000000;" text-anchor="middle" x="1830.804878" y="143.500000">1128</text><line x1="1859.780488" x2="1859.780488" y1="128.500000" y2="133.500000" stroke="#AAAAAA" /><text style="font-size:10px;font-family:OpenSans;fill:#000000;" text-anchor="middle" x="1859.780488" y="143.500000">1146</text><line x1="1991.780488" x2="1991.780488" y1="128.500000" y2="133.500000" stroke="#AAAAAA" /><text style="font-size:10px;font-family:OpenSans;fill:#000000;" text-anchor="middle" x="1991.780488" y="143.500000">1228</text><line x1="2020.756098" x2="2020.756098" y1="128.500000" y2="133.500000" stroke="#AAAAAA" /><text style="font-size:10px;font-family:OpenSans;fill:#000000;" text-anchor="middle" x="2020.756098" y="143.500000">1246</text><line x1="2204.268293" x2="2204.268293" y1="128.500000" y2="133.500000" stroke="#AAAAAA" /><text style="font-size:10px;font-family:OpenSans;fill:#000000;" text-anchor="middle" x="2204.268293" y="143.500000">1360</text><line x1="2370.073171" x2="2370.073171" y1="128.500000" y2="133.500000" stroke="#AAAAAA" /><text style="font-size:10px;font-family:OpenSans;fill:#000000;" text-anchor="middle" x="2370.073171" y="143.500000">1463</text><line x1="2408.707317" x2="2408.707317" y1="128.500000" y2="133.500000" stroke="#AAAAAA" /><text style="font-size:10px;font-family:OpenSans;fill:#000000;" text-anchor="middle" x="2408.707317" y="143.500000">1487</text><line x1="2436.073171" x2="2436.073171" y1="128.500000" y2="133.500000" stroke="#AAAAAA" /><text style="font-size:10px;font-family:OpenSans;fill:#000000;" text-anchor="middle" x="2436.073171" y="143.500000">1504</text><line x1="2476.317073" x2="2476.317073" y1="128.500000" y2="133.500000" stroke="#AAAAAA" /><text style="font-size:10px;font-family:OpenSans;fill:#000000;" text-anchor="middle" x="2476.317073" y="143.500000">1529</text><line x1="2511.731707" x2="2511.731707" y1="128.500000" y2="133.500000" stroke="#AAAAAA" /><text style="font-size:10px;font-family:OpenSans;fill:#000000;" text-anchor="middle" x="2511.731707" y="143.500000">1551</text></g>
<rect fill="#FF5353" x="4" y="157.500000" width="12" height="12" filter="url(#ds)"/><text style="font-size:12px;font-family:OpenSans;fill:#000000;" text-anchor="start" x="20" y="169.500000">Protein kinase C terminal domain</text><rect fill="#5B5BFF" x="4" y="171.500000" width="12" height="12" filter="url(#ds)"/><text style="font-size:12px;font-family:OpenSans;fill:#000000;" text-anchor="start" x="20" y="183.500000">DMPK coiled coil domain like</text><rect fill="#EBD61D" x="4" y="185.500000" width="12" height="12" filter="url(#ds)"/><text style="font-size:12px;font-family:OpenSans;fill:#000000;" text-anchor="start" x="20" y="197.500000">Phorbol esters/diacylglycerol binding domain (C1 domain)</text></svg>
