<?xml version='1.0'?>
<svg xmlns="http://www.w3.org/2000/svg" xmlns:xlink="http://www.w3.org/1999/xlink" width="600.337079" height="146.200000">
<defs>
  <filter id="ds" x="0" y="0">
    <feOffset in="SourceAlpha" dx="2" dy="2" />
    <feComponentTransfer><feFuncA type="linear" slope="0.2"/></feComponentTransfer>
    <feGaussianBlur result="blurOut" stdDeviation="1" />
    <feBlend in="SourceGraphic" in2="blurOut" mode="normal" />
  </filter>
  <pattern id="disordered-hatch" patternUnits="userSpaceOnUse" width="4" height="4">
    <path d="M-1,1 l2,-2 M0,4 l4,-4 M3,5 l2,-2" stroke="#000000" opacity="0.3" />
  </pattern>
</defs>
<line x1="77.314607" x2="77.314607" y1="34.000000" y2="62.000000" stroke="#BABDB6" stroke-width="2"/><a xlink:title="L59L"><circle cx="77.314607" cy="34.000000" r="4.000000" fill="#0000ff" /></a><g transform="translate(77.314607,34.000000) rotate(-30)"><text style="font-size:10px;font-family:OpenSans;fill:#555;" text-anchor="middle" x="0" y="-6.000000">L59L</text></g><line x1="185.044944" x2="185.044944" y1="34.000000" y2="62.000000" stroke="#BABDB6" stroke-width="2"/><a xlink:title="Y161Y"><circle cx="185.044944" cy="34.000000" r="4.000000" fill="#0000ff" /></a><g transform="translate(185.044944,34.000000) rotate(-30)"><text style="font-size:10px;font-family:OpenSans;fill:#555;" text-anchor="middle" x="0" y="-6.000000">Y161Y</text></g><line x1="272.707865" x2="272.707865" y1="34.000000" y2="62.000000" stroke="#BABDB6" stroke-width="2"/><a xlink:title="G244R"><circle cx="272.707865" cy="34.000000" r="4.000000" fill="#ff0000" /></a><g transform="translate(272.707865,34.000000) rotate(-30)"><text style="font-size:10px;font-family:OpenSans;fill:#555;" text-anchor="middle" x="0" y="-6.000000">G244R</text></g><line x1="456.483146" x2="456.483146" y1="34.000000" y2="62.000000" stroke="#BABDB6" stroke-width="2"/><a xlink:title="L418F"><circle cx="456.483146" cy="34.000000" r="4.000000" fill="#ff0000" /></a><g transform="translate(456.483146,34.000000) rotate(-30)"><text style="font-size:10px;font-family:OpenSans;fill:#555;" text-anchor="middle" x="0" y="-6.000000">L418F</text></g><a xlink:title=",  (540aa)"><rect fill="#BABDB6" x="15.000000" y="62.000000" width="570.337079" height="14.000000"/></a><g transform="translate(46.685393,57.000000)"><a xlink:href="https://www.ebi.ac.uk/interpro/entry/pfam/PF00431" xlink:title="CUB domain"><rect fill="#2DCF00" x="0" y="0" width="116.179775" height="24.000000" filter="url(#ds)"/><text style="font-size:12px;font-family:OpenSans;fill:#ffffff;" text-anchor="middle" x="58.089888" y="16.000000">CUB domain</text></a></g>
<g transform="translate(168.146067,57.000000)"><a xlink:href="https://www.ebi.ac.uk/interpro/entry/pfam/PF00431" xlink:title="CUB domain"><rect fill="#FF5353" x="0" y="0" width="113.011236" height="24.000000" filter="url(#ds)"/><text style="font-size:12px;font-family:OpenSans;fill:#ffffff;" text-anchor="middle" x="56.505618" y="16.000000">CUB domain</text></a></g>
<g transform="translate(286.438202,57.000000)"><a xlink:href="https://www.ebi.ac.uk/interpro/entry/pfam/PF00431" xlink:title="CUB domain"><rect fill="#5B5BFF" x="0" y="0" width="119.348315" height="24.000000" filter="url(#ds)"/><text style="font-size:12px;font-family:OpenSans;fill:#ffffff;" text-anchor="middle" x="59.674157" y="16.000000">CUB domain</text></a></g>
<g transform="translate(416.348315,57.000000)"><a xlink:href="https://www.ebi.ac.uk/interpro/entry/pfam/PF00100" xlink:title="Zona pellucida-like domain"><rect fill="#EBD61D" x="0" y="0" width="94.000000" height="24.000000" filter="url(#ds)"/><text style="font-size:12px;font-family:OpenSans;fill:#ffffff;" text-anchor="middle" x="47.000000" y="16.000000">Zona_pellucida</text></a></g>
<g class="axis">
<line x1="15.000000" x2="585.337079" y1="91.000000" y2="91.000000" stroke="#AAAAAA" /><line x1="15.000000" x2="15.000000" y1="91.000000" y2="96.000000" stroke="#AAAAAA" /><line x1="15.000000" x2="15.000000" y1="91.000000" y2="96.000000" stroke="#AAAAAA" /><text style="font-size:10px;font-family:OpenSans;fill:#000000;" text-anchor="middle" x="15.000000" y="106.000000">0</text><line x1="46.685393" x2="46.685393" y1="91.000000" y2="96.000000" stroke="#AAAAAA" /><text style="font-size:10px;font-family:OpenSans;fill:#000000;" text-anchor="middle" x="46.685393" y="106.000000">30</text><line x1="77.314607" x2="77.314607" y1="91.000000" y2="96.000000" stroke="#AAAAAA" /><text style="font-size:10px;font-family:OpenSans;fill:#000000;" text-anchor="middle" x="77.314607" y="106.000000">59</text><line x1="162.865169" x2="162.865169" y1="91.000000" y2="96.000000" stroke="#AAAAAA" /><text style="font-size:10px;font-family:OpenSans;fill:#000000;" text-anchor="middle" x="162.865169" y="106.000000">140</text><line x1="185.044944" x2="185.044944" y1="91.000000" y2="96.000000" stroke="#AAAAAA" /><text style="font-size:10px;font-family:OpenSans;fill:#000000;" text-anchor="middle" x="185.044944" y="106.000000">161</text><line x1="272.707865" x2="272.707865" y1="91.000000" y2="96.000000" stroke="#AAAAAA" /><text style="font-size:10px;font-family:OpenSans;fill:#000000;" text-anchor="middle" x="272.707865" y="106.000000">244</text><line x1="405.786517" x2="405.786517" y1="91.000000" y2="96.000000" stroke="#AAAAAA" /><text style="font-size:10px;font-family:OpenSans;fill:#000000;" text-anchor="middle" x="405.786517" y="106.000000">370</text><line x1="456.483146" x2="456.483146" y1="91.000000" y2="96.000000" stroke="#AAAAAA" /><text style="font-size:10px;font-family:OpenSans;fill:#000000;" text-anchor="middle" x="456.483146" y="106.000000">418</text><line x1="510.348315" x2="510.348315" y1="91.000000" y2="96.000000" stroke="#AAAAAA" /><text style="font-size:10px;font-family:OpenSans;fill:#000000;" text-anchor="middle" x="510.348315" y="106.000000">469</text><line x1="585.337079" x2="585.337079" y1="91.000000" y2="96.000000" stroke="#AAAAAA" /><text style="font-size:10px;font-family:OpenSans;fill:#000000;" text-anchor="middle" x="585.337079" y="106.000000">540</text></g>
<rect fill="#EBD61D" x="4" y="120.000000" width="12" height="12" filter="url(#ds)"/><text style="font-size:12px;font-family:OpenSans;fill:#000000;" text-anchor="start" x="20" y="132.000000">Zona pellucida-like domain</text></svg>
