<?xml version='1.0'?>
<svg xmlns="http://www.w3.org/2000/svg" xmlns:xlink="http://www.w3.org/1999/xlink" width="1657.728814" height="146.200000">
<defs>
  <filter id="ds" x="0" y="0">
    <feOffset in="SourceAlpha" dx="2" dy="2" />
    <feComponentTransfer><feFuncA type="linear" slope="0.2"/></feComponentTransfer>
    <feGaussianBlur result="blurOut" stdDeviation="1" />
    <feBlend in="SourceGraphic" in2="blurOut" mode="normal" />
  </filter>
  <pattern id="disordered-hatch" patternUnits="userSpaceOnUse" width="4" height="4">
    <path d="M-1,1 l2,-2 M0,4 l4,-4 M3,5 l2,-2" stroke="#000000" opacity="0.3" />
  </pattern>
</defs>
<line x1="61.711864" x2="61.711864" y1="34.000000" y2="62.000000" stroke="#BABDB6" stroke-width="2"/><a xlink:title="T26T"><circle cx="61.711864" cy="34.000000" r="4.000000" fill="#0000ff" /></a><g transform="translate(61.711864,34.000000) rotate(-30)"><text style="font-size:10px;font-family:OpenSans;fill:#555;" text-anchor="middle" x="0" y="-6.000000">T26T</text></g><line x1="74.288136" x2="74.288136" y1="34.000000" y2="62.000000" stroke="#BABDB6" stroke-width="2"/><a xlink:title="A33T"><circle cx="74.288136" cy="34.000000" r="4.000000" fill="#ff0000" /></a><g transform="translate(74.288136,34.000000) rotate(-30)"><text style="font-size:10px;font-family:OpenSans;fill:#555;" text-anchor="middle" x="0" y="-6.000000">A33T</text></g><line x1="158.728814" x2="158.728814" y1="34.000000" y2="62.000000" stroke="#BABDB6" stroke-width="2"/><a xlink:title="T80T"><circle cx="158.728814" cy="34.000000" r="4.000000" fill="#0000ff" /></a><g transform="translate(158.728814,34.000000) rotate(-30)"><text style="font-size:10px;font-family:OpenSans;fill:#555;" text-anchor="middle" x="0" y="-6.000000">T80T</text></g><line x1="171.305085" x2="171.305085" y1="34.000000" y2="62.000000" stroke="#BABDB6" stroke-width="2"/><a xlink:title="A87T"><circle cx="171.305085" cy="34.000000" r="4.000000" fill="#ff0000" /></a><g transform="translate(171.305085,34.000000) rotate(-30)"><text style="font-size:10px;font-family:OpenSans;fill:#555;" text-anchor="middle" x="0" y="-6.000000">A87T</text></g><line x1="214.423729" x2="214.423729" y1="34.000000" y2="62.000000" stroke="#BABDB6" stroke-width="2"/><a xlink:title="T111T"><circle cx="214.423729" cy="34.000000" r="4.000000" fill="#0000ff" /></a><g transform="translate(214.423729,34.000000) rotate(-30)"><text style="font-size:10px;font-family:OpenSans;fill:#555;" text-anchor="middle" x="0" y="-6.000000">T111T</text></g><line x1="227.000000" x2="227.000000" y1="34.000000" y2="62.000000" stroke="#BABDB6" stroke-width="2"/><a xlink:title="A118T"><circle cx="227.000000" cy="34.000000" r="4.000000" fill="#ff0000" /></a><g transform="translate(227.000000,34.000000) rotate(-30)"><text style="font-size:10px;font-family:OpenSans;fill:#555;" text-anchor="middle" x="0" y="-6.000000">A118T</text></g><line x1="1380.423729" x2="1380.423729" y1="34.000000" y2="62.000000" stroke="#BABDB6" stroke-width="2"/><a xlink:title="N760S"><circle cx="1380.423729" cy="34.000000" r="4.000000" fill="#ff0000" /></a><g transform="translate(1380.423729,34.000000) rotate(-30)"><text style="font-size:10px;font-family:OpenSans;fill:#555;" text-anchor="middle" x="0" y="-6.000000">N760S</text></g><line x1="1477.440678" x2="1477.440678" y1="34.000000" y2="62.000000" stroke="#BABDB6" stroke-width="2"/><a xlink:title="N814S"><circle cx="1477.440678" cy="34.000000" r="4.000000" fill="#ff0000" /></a><g transform="translate(1477.440678,34.000000) rotate(-30)"><text style="font-size:10px;font-family:OpenSans;fill:#555;" text-anchor="middle" x="0" y="-6.000000">N814S</text></g><line x1="1533.135593" x2="1533.135593" y1="34.000000" y2="62.000000" stroke="#BABDB6" stroke-width="2"/><a xlink:title="N845S"><circle cx="1533.135593" cy="34.000000" r="4.000000" fill="#ff0000" /></a><g transform="translate(1533.135593,34.000000) rotate(-30)"><text style="font-size:10px;font-family:OpenSans;fill:#555;" text-anchor="middle" x="0" y="-6.000000">N845S</text></g><a xlink:title=",  (906aa)"><rect fill="#BABDB6" x="15.000000" y="62.000000" width="1627.728814" height="14.000000"/></a><g transform="translate(72.491525,57.000000)"><a xlink:href="https://www.ebi.ac.uk/interpro/entry/pfam/PF08758" xlink:title="Cadherin prodomain like"><rect fill="#2DCF00" x="0" y="0" width="158.101695" height="24.000000" filter="url(#ds)"/><text style="font-size:12px;font-family:OpenSans;fill:#ffffff;" text-anchor="middle" x="79.050847" y="16.000000">Cadherin prodomain like</text></a></g>
<g transform="translate(311.440678,57.000000)"><a xlink:href="https://www.ebi.ac.uk/interpro/entry/pfam/PF00028" xlink:title="Cadherin domain"><rect fill="#FF5353" x="0" y="0" width="165.288136" height="24.000000" filter="url(#ds)"/><text style="font-size:12px;font-family:OpenSans;fill:#ffffff;" text-anchor="middle" x="82.644068" y="16.000000">Cadherin domain</text></a></g>
<g transform="translate(507.271186,57.000000)"><a xlink:href="https://www.ebi.ac.uk/interpro/entry/pfam/PF00028" xlink:title="Cadherin domain"><rect fill="#5B5BFF" x="0" y="0" width="177.864407" height="24.000000" filter="url(#ds)"/><text style="font-size:12px;font-family:OpenSans;fill:#ffffff;" text-anchor="middle" x="88.932203" y="16.000000">Cadherin domain</text></a></g>
<g transform="translate(713.881356,57.000000)"><a xlink:href="https://www.ebi.ac.uk/interpro/entry/pfam/PF00028" xlink:title="Cadherin domain"><rect fill="#EBD61D" x="0" y="0" width="177.864407" height="24.000000" filter="url(#ds)"/><text style="font-size:12px;font-family:OpenSans;fill:#ffffff;" text-anchor="middle" x="88.932203" y="16.000000">Cadherin domain</text></a></g>
<g transform="translate(920.491525,57.000000)"><a xlink:href="https://www.ebi.ac.uk/interpro/entry/pfam/PF00028" xlink:title="Cadherin domain"><rect fill="#BA21E0" x="0" y="0" width="163.491525" height="24.000000" filter="url(#ds)"/><text style="font-size:12px;font-family:OpenSans;fill:#ffffff;" text-anchor="middle" x="81.745763" y="16.000000">Cadherin domain</text></a></g>
<g transform="translate(1109.135593,57.000000)"><a xlink:href="https://www.ebi.ac.uk/interpro/entry/pfam/PF00028" xlink:title="Cadherin domain"><rect fill="#FF9C42" x="0" y="0" width="165.288136" height="24.000000" filter="url(#ds)"/><text style="font-size:12px;font-family:OpenSans;fill:#ffffff;" text-anchor="middle" x="82.644068" y="16.000000">Cadherin domain</text></a></g>
<g transform="translate(1529.542373,57.000000)"><a xlink:href="https://www.ebi.ac.uk/interpro/entry/pfam/PF01049" xlink:title="Cadherin, Y-type LIR-motif"><rect fill="#FF7DFF" x="0" y="0" width="106.000000" height="24.000000" filter="url(#ds)"/><text style="font-size:12px;font-family:OpenSans;fill:#ffffff;" text-anchor="middle" x="53.000000" y="16.000000">CADH_Y-type_LIR</text></a></g>
<g class="axis">
<line x1="15.000000" x2="1642.728814" y1="91.000000" y2="91.000000" stroke="#AAAAAA" /><line x1="15.000000" x2="15.000000" y1="91.000000" y2="96.000000" stroke="#AAAAAA" /><line x1="15.000000" x2="15.000000" y1="91.000000" y2="96.000000" stroke="#AAAAAA" /><text style="font-size:10px;font-family:OpenSans;fill:#000000;" text-anchor="middle" x="15.000000" y="106.000000">0</text><line x1="61.711864" x2="61.711864" y1="91.000000" y2="96.000000" stroke="#AAAAAA" /><text style="font-size:10px;font-family:OpenSans;fill:#000000;" text-anchor="middle" x="61.711864" y="106.000000">26</text><line x1="158.728814" x2="158.728814" y1="91.000000" y2="96.000000" stroke="#AAAAAA" /><text style="font-size:10px;font-family:OpenSans;fill:#000000;" text-anchor="middle" x="158.728814" y="106.000000">80</text><line x1="214.423729" x2="214.423729" y1="91.000000" y2="96.000000" stroke="#AAAAAA" /><text style="font-size:10px;font-family:OpenSans;fill:#000000;" text-anchor="middle" x="214.423729" y="106.000000">111</text><line x1="311.440678" x2="311.440678" y1="91.000000" y2="96.000000" stroke="#AAAAAA" /><text style="font-size:10px;font-family:OpenSans;fill:#000000;" text-anchor="middle" x="311.440678" y="106.000000">165</text><line x1="476.728814" x2="476.728814" y1="91.000000" y2="96.000000" stroke="#AAAAAA" /><text style="font-size:10px;font-family:OpenSans;fill:#000000;" text-anchor="middle" x="476.728814" y="106.000000">257</text><line x1="507.271186" x2="507.271186" y1="91.000000" y2="96.000000" stroke="#AAAAAA" /><text style="font-size:10px;font-family:OpenSans;fill:#000000;" text-anchor="middle" x="507.271186" y="106.000000">274</text><line x1="685.135593" x2="685.135593" y1="91.000000" y2="96.000000" stroke="#AAAAAA" /><text style="font-size:10px;font-family:OpenSans;fill:#000000;" text-anchor="middle" x="685.135593" y="106.000000">373</text><line x1="713.881356" x2="713.881356" y1="91.000000" y2="96.000000" stroke="#AAAAAA" /><text style="font-size:10px;font-family:OpenSans;fill:#000000;" text-anchor="middle" x="713.881356" y="106.000000">389</text><line x1="891.745763" x2="891.745763" y1="91.000000" y2="96.000000" stroke="#AAAAAA" /><text style="font-size:10px;font-family:OpenSans;fill:#000000;" text-anchor="middle" x="891.745763" y="106.000000">488</text><line x1="920.491525" x2="920.491525" y1="91.000000" y2="96.000000" stroke="#AAAAAA" /><text style="font-size:10px;font-family:OpenSans;fill:#000000;" text-anchor="middle" x="920.491525" y="106.000000">504</text><line x1="1083.983051" x2="1083.983051" y1="91.000000" y2="96.000000" stroke="#AAAAAA" /><text style="font-size:10px;font-family:OpenSans;fill:#000000;" text-anchor="middle" x="1083.983051" y="106.000000">595</text><line x1="1109.135593" x2="1109.135593" y1="91.000000" y2="96.000000" stroke="#AAAAAA" /><text style="font-size:10px;font-family:OpenSans;fill:#000000;" text-anchor="middle" x="1109.135593" y="106.000000">609</text><line x1="1274.423729" x2="1274.423729" y1="91.000000" y2="96.000000" stroke="#AAAAAA" /><text style="font-size:10px;font-family:OpenSans;fill:#000000;" text-anchor="middle" x="1274.423729" y="106.000000">701</text><line x1="1380.423729" x2="1380.423729" y1="91.000000" y2="96.000000" stroke="#AAAAAA" /><text style="font-size:10px;font-family:OpenSans;fill:#000000;" text-anchor="middle" x="1380.423729" y="106.000000">760</text><line x1="1477.440678" x2="1477.440678" y1="91.000000" y2="96.000000" stroke="#AAAAAA" /><text style="font-size:10px;font-family:OpenSans;fill:#000000;" text-anchor="middle" x="1477.440678" y="106.000000">814</text><line x1="1533.135593" x2="1533.135593" y1="91.000000" y2="96.000000" stroke="#AAAAAA" /><text style="font-size:10px;font-family:OpenSans;fill:#000000;" text-anchor="middle" x="1533.135593" y="106.000000">845</text><line x1="1642.728814" x2="1642.728814" y1="91.000000" y2="96.000000" stroke="#AAAAAA" /><text style="font-size:10px;font-family:OpenSans;fill:#000000;" text-anchor="middle" x="1642.728814" y="106.000000">906</text></g>
<rect fill="#FF7DFF" x="4" y="120.000000" width="12" height="12" filter="url(#ds)"/><text style="font-size:12px;font-family:OpenSans;fill:#000000;" text-anchor="start" x="20" y="132.000000">Cadherin, Y-type LIR-motif</text></svg>
