<?xml version='1.0'?>
<svg xmlns="http://www.w3.org/2000/svg" xmlns:xlink="http://www.w3.org/1999/xlink" width="3831.875000" height="158.700000">
<defs>
  <filter id="ds" x="0" y="0">
    <feOffset in="SourceAlpha" dx="2" dy="2" />
    <feComponentTransfer><feFuncA type="linear" slope="0.2"/></feComponentTransfer>
    <feGaussianBlur result="blurOut" stdDeviation="1" />
    <feBlend in="SourceGraphic" in2="blurOut" mode="normal" />
  </filter>
  <pattern id="disordered-hatch" patternUnits="userSpaceOnUse" width="4" height="4">
    <path d="M-1,1 l2,-2 M0,4 l4,-4 M3,5 l2,-2" stroke="#000000" opacity="0.3" />
  </pattern>
</defs>
<line x1="1539.700000" x2="1539.700000" y1="46.500000" y2="74.500000" stroke="#BABDB6" stroke-width="2"/><a xlink:title="L772I"><circle cx="1539.700000" cy="46.500000" r="4.000000" fill="#ff0000" /></a><g transform="translate(1539.700000,46.500000) rotate(-30)"><text style="font-size:10px;font-family:OpenSans;fill:#555;" text-anchor="middle" x="0" y="-6.000000">L772I</text></g><line x1="1593.025000" x2="1593.025000" y1="46.500000" y2="74.500000" stroke="#BABDB6" stroke-width="2"/><a xlink:title="L799I"><circle cx="1593.025000" cy="46.500000" r="4.000000" fill="#ff0000" /></a><g transform="translate(1593.025000,46.500000) rotate(-30)"><text style="font-size:10px;font-family:OpenSans;fill:#555;" text-anchor="middle" x="0" y="-6.000000">L799I</text></g><line x1="1699.675000" x2="1699.675000" y1="46.500000" y2="74.500000" stroke="#BABDB6" stroke-width="2"/><a xlink:title="L853I"><circle cx="1699.675000" cy="46.500000" r="4.000000" fill="#ff0000" /></a><g transform="translate(1699.675000,46.500000) rotate(-30)"><text style="font-size:10px;font-family:OpenSans;fill:#555;" text-anchor="middle" x="0" y="-6.000000">L853I</text></g><line x1="1721.400000" x2="1721.400000" y1="34.000000" y2="74.500000" stroke="#BABDB6" stroke-width="2"/><a xlink:title="L864I"><circle cx="1721.400000" cy="34.000000" r="4.000000" fill="#ff0000" /></a><g transform="translate(1721.400000,34.000000) rotate(-30)"><text style="font-size:10px;font-family:OpenSans;fill:#555;" text-anchor="middle" x="0" y="-6.000000">L864I</text></g><line x1="1723.375000" x2="1723.375000" y1="46.500000" y2="74.500000" stroke="#BABDB6" stroke-width="2"/><a xlink:title="L865I"><circle cx="1723.375000" cy="46.500000" r="4.000000" fill="#ff0000" /></a><g transform="translate(1723.375000,46.500000) rotate(-30)"><text style="font-size:10px;font-family:OpenSans;fill:#555;" text-anchor="middle" x="0" y="-6.000000">L865I</text></g><line x1="2134.175000" x2="2134.175000" y1="46.500000" y2="74.500000" stroke="#BABDB6" stroke-width="2"/><a xlink:title="V1073I"><circle cx="2134.175000" cy="46.500000" r="4.000000" fill="#ff0000" /></a><g transform="translate(2134.175000,46.500000) rotate(-30)"><text style="font-size:10px;font-family:OpenSans;fill:#555;" text-anchor="middle" x="0" y="-6.000000">V1073I</text></g><line x1="2187.500000" x2="2187.500000" y1="46.500000" y2="74.500000" stroke="#BABDB6" stroke-width="2"/><a xlink:title="V1100I"><circle cx="2187.500000" cy="46.500000" r="4.000000" fill="#ff0000" /></a><g transform="translate(2187.500000,46.500000) rotate(-30)"><text style="font-size:10px;font-family:OpenSans;fill:#555;" text-anchor="middle" x="0" y="-6.000000">V1100I</text></g><line x1="2294.150000" x2="2294.150000" y1="46.500000" y2="74.500000" stroke="#BABDB6" stroke-width="2"/><a xlink:title="V1154I"><circle cx="2294.150000" cy="46.500000" r="4.000000" fill="#ff0000" /></a><g transform="translate(2294.150000,46.500000) rotate(-30)"><text style="font-size:10px;font-family:OpenSans;fill:#555;" text-anchor="middle" x="0" y="-6.000000">V1154I</text></g><line x1="2315.875000" x2="2315.875000" y1="34.000000" y2="74.500000" stroke="#BABDB6" stroke-width="2"/><a xlink:title="V1165I"><circle cx="2315.875000" cy="34.000000" r="4.000000" fill="#ff0000" /></a><g transform="translate(2315.875000,34.000000) rotate(-30)"><text style="font-size:10px;font-family:OpenSans;fill:#555;" text-anchor="middle" x="0" y="-6.000000">V1165I</text></g><line x1="2317.850000" x2="2317.850000" y1="46.500000" y2="74.500000" stroke="#BABDB6" stroke-width="2"/><a xlink:title="V1166I"><circle cx="2317.850000" cy="46.500000" r="4.000000" fill="#ff0000" /></a><g transform="translate(2317.850000,46.500000) rotate(-30)"><text style="font-size:10px;font-family:OpenSans;fill:#555;" text-anchor="middle" x="0" y="-6.000000">V1166I</text></g><line x1="3236.225000" x2="3236.225000" y1="46.500000" y2="74.500000" stroke="#BABDB6" stroke-width="2"/><a xlink:title="R1631C"><circle cx="3236.225000" cy="46.500000" r="4.000000" fill="#ff0000" /></a><g transform="translate(3236.225000,46.500000) rotate(-30)"><text style="font-size:10px;font-family:OpenSans;fill:#555;" text-anchor="middle" x="0" y="-6.000000">R1631C</text></g><line x1="3289.550000" x2="3289.550000" y1="46.500000" y2="74.500000" stroke="#BABDB6" stroke-width="2"/><a xlink:title="R1658C"><circle cx="3289.550000" cy="46.500000" r="4.000000" fill="#ff0000" /></a><g transform="translate(3289.550000,46.500000) rotate(-30)"><text style="font-size:10px;font-family:OpenSans;fill:#555;" text-anchor="middle" x="0" y="-6.000000">R1658C</text></g><line x1="3388.300000" x2="3388.300000" y1="34.000000" y2="74.500000" stroke="#BABDB6" stroke-width="2"/><a xlink:title="R1708C"><circle cx="3388.300000" cy="34.000000" r="4.000000" fill="#ff0000" /></a><g transform="translate(3388.300000,34.000000) rotate(-30)"><text style="font-size:10px;font-family:OpenSans;fill:#555;" text-anchor="middle" x="0" y="-6.000000">R1708C</text></g><line x1="3390.275000" x2="3390.275000" y1="34.000000" y2="74.500000" stroke="#BABDB6" stroke-width="2"/><a xlink:title="R1709C"><circle cx="3390.275000" cy="34.000000" r="4.000000" fill="#ff0000" /></a><g transform="translate(3390.275000,34.000000) rotate(-30)"><text style="font-size:10px;font-family:OpenSans;fill:#555;" text-anchor="middle" x="0" y="-6.000000">R1709C</text></g><line x1="3396.200000" x2="3396.200000" y1="46.500000" y2="74.500000" stroke="#BABDB6" stroke-width="2"/><a xlink:title="R1712C"><circle cx="3396.200000" cy="46.500000" r="4.000000" fill="#ff0000" /></a><g transform="translate(3396.200000,46.500000) rotate(-30)"><text style="font-size:10px;font-family:OpenSans;fill:#555;" text-anchor="middle" x="0" y="-6.000000">R1712C</text></g><line x1="3417.925000" x2="3417.925000" y1="34.000000" y2="74.500000" stroke="#BABDB6" stroke-width="2"/><a xlink:title="R1723C"><circle cx="3417.925000" cy="34.000000" r="4.000000" fill="#ff0000" /></a><g transform="translate(3417.925000,34.000000) rotate(-30)"><text style="font-size:10px;font-family:OpenSans;fill:#555;" text-anchor="middle" x="0" y="-6.000000">R1723C</text></g><line x1="3419.900000" x2="3419.900000" y1="46.500000" y2="74.500000" stroke="#BABDB6" stroke-width="2"/><a xlink:title="R1724C"><circle cx="3419.900000" cy="46.500000" r="4.000000" fill="#ff0000" /></a><g transform="translate(3419.900000,46.500000) rotate(-30)"><text style="font-size:10px;font-family:OpenSans;fill:#555;" text-anchor="middle" x="0" y="-6.000000">R1724C</text></g><a xlink:title=",  (1925aa)"><rect fill="#BABDB6" x="15.000000" y="74.500000" width="3801.875000" height="14.000000"/></a><g transform="translate(506.775000,69.500000)"><a xlink:href="https://www.ebi.ac.uk/interpro/entry/pfam/PF22544" xlink:title="HYDIN/CFA65/VesB-like, Ig-like domain"><rect fill="#2DCF00" x="0" y="0" width="158.000000" height="24.000000" filter="url(#ds)"/><text style="font-size:12px;font-family:OpenSans;fill:#ffffff;" text-anchor="middle" x="79.000000" y="16.000000">HYDIN_VesB_CFA65-like_Ig</text></a></g>
<g class="axis">
<line x1="15.000000" x2="3816.875000" y1="103.500000" y2="103.500000" stroke="#AAAAAA" /><line x1="15.000000" x2="15.000000" y1="103.500000" y2="108.500000" stroke="#AAAAAA" /><line x1="15.000000" x2="15.000000" y1="103.500000" y2="108.500000" stroke="#AAAAAA" /><text style="font-size:10px;font-family:OpenSans;fill:#000000;" text-anchor="middle" x="15.000000" y="118.500000">0</text><line x1="506.775000" x2="506.775000" y1="103.500000" y2="108.500000" stroke="#AAAAAA" /><text style="font-size:10px;font-family:OpenSans;fill:#000000;" text-anchor="middle" x="506.775000" y="118.500000">249</text><line x1="664.775000" x2="664.775000" y1="103.500000" y2="108.500000" stroke="#AAAAAA" /><text style="font-size:10px;font-family:OpenSans;fill:#000000;" text-anchor="middle" x="664.775000" y="118.500000">329</text><line x1="1539.700000" x2="1539.700000" y1="103.500000" y2="108.500000" stroke="#AAAAAA" /><text style="font-size:10px;font-family:OpenSans;fill:#000000;" text-anchor="middle" x="1539.700000" y="118.500000">772</text><line x1="1593.025000" x2="1593.025000" y1="103.500000" y2="108.500000" stroke="#AAAAAA" /><text style="font-size:10px;font-family:OpenSans;fill:#000000;" text-anchor="middle" x="1593.025000" y="118.500000">799</text><line x1="1699.675000" x2="1699.675000" y1="103.500000" y2="108.500000" stroke="#AAAAAA" /><text style="font-size:10px;font-family:OpenSans;fill:#000000;" text-anchor="middle" x="1699.675000" y="118.500000">853</text><line x1="1721.400000" x2="1721.400000" y1="103.500000" y2="108.500000" stroke="#AAAAAA" /><text style="font-size:10px;font-family:OpenSans;fill:#000000;" text-anchor="middle" x="1721.400000" y="118.500000">864</text><line x1="2134.175000" x2="2134.175000" y1="103.500000" y2="108.500000" stroke="#AAAAAA" /><text style="font-size:10px;font-family:OpenSans;fill:#000000;" text-anchor="middle" x="2134.175000" y="118.500000">1073</text><line x1="2187.500000" x2="2187.500000" y1="103.500000" y2="108.500000" stroke="#AAAAAA" /><text style="font-size:10px;font-family:OpenSans;fill:#000000;" text-anchor="middle" x="2187.500000" y="118.500000">1100</text><line x1="2294.150000" x2="2294.150000" y1="103.500000" y2="108.500000" stroke="#AAAAAA" /><text style="font-size:10px;font-family:OpenSans;fill:#000000;" text-anchor="middle" x="2294.150000" y="118.500000">1154</text><line x1="2315.875000" x2="2315.875000" y1="103.500000" y2="108.500000" stroke="#AAAAAA" /><text style="font-size:10px;font-family:OpenSans;fill:#000000;" text-anchor="middle" x="2315.875000" y="118.500000">1165</text><line x1="3236.225000" x2="3236.225000" y1="103.500000" y2="108.500000" stroke="#AAAAAA" /><text style="font-size:10px;font-family:OpenSans;fill:#000000;" text-anchor="middle" x="3236.225000" y="118.500000">1631</text><line x1="3289.550000" x2="3289.550000" y1="103.500000" y2="108.500000" stroke="#AAAAAA" /><text style="font-size:10px;font-family:OpenSans;fill:#000000;" text-anchor="middle" x="3289.550000" y="118.500000">1658</text><line x1="3388.300000" x2="3388.300000" y1="103.500000" y2="108.500000" stroke="#AAAAAA" /><text style="font-size:10px;font-family:OpenSans;fill:#000000;" text-anchor="middle" x="3388.300000" y="118.500000">1708</text><line x1="3417.925000" x2="3417.925000" y1="103.500000" y2="108.500000" stroke="#AAAAAA" /><text style="font-size:10px;font-family:OpenSans;fill:#000000;" text-anchor="middle" x="3417.925000" y="118.500000">1723</text><line x1="3816.875000" x2="3816.875000" y1="103.500000" y2="108.500000" stroke="#AAAAAA" /><text style="font-size:10px;font-family:OpenSans;fill:#000000;" text-anchor="middle" x="3816.875000" y="118.500000">1925</text></g>
<rect fill="#2DCF00" x="4" y="132.500000" width="12" height="12" filter="url(#ds)"/><text style="font-size:12px;font-family:OpenSans;fill:#000000;" text-anchor="start" x="20" y="144.500000">HYDIN/CFA65/VesB-like, Ig-like domain</text></svg>
