<?xml version='1.0'?>
<svg xmlns="http://www.w3.org/2000/svg" xmlns:xlink="http://www.w3.org/1999/xlink" width="430.000000" height="171.200000">
<defs>
  <filter id="ds" x="0" y="0">
    <feOffset in="SourceAlpha" dx="2" dy="2" />
    <feComponentTransfer><feFuncA type="linear" slope="0.2"/></feComponentTransfer>
    <feGaussianBlur result="blurOut" stdDeviation="1" />
    <feBlend in="SourceGraphic" in2="blurOut" mode="normal" />
  </filter>
  <pattern id="disordered-hatch" patternUnits="userSpaceOnUse" width="4" height="4">
    <path d="M-1,1 l2,-2 M0,4 l4,-4 M3,5 l2,-2" stroke="#000000" opacity="0.3" />
  </pattern>
</defs>
<line x1="34.817471" x2="34.817471" y1="59.000000" y2="87.000000" stroke="#BABDB6" stroke-width="2"/><a xlink:title="A38A"><circle cx="34.817471" cy="59.000000" r="4.000000" fill="#0000ff" /></a><g transform="translate(34.817471,59.000000) rotate(-30)"><text style="font-size:10px;font-family:OpenSans;fill:#555;" text-anchor="middle" x="0" y="-6.000000">A38A</text></g><line x1="41.597132" x2="41.597132" y1="59.000000" y2="87.000000" stroke="#BABDB6" stroke-width="2"/><a xlink:title="E51G"><circle cx="41.597132" cy="59.000000" r="4.000000" fill="#ff0000" /></a><g transform="translate(41.597132,59.000000) rotate(-30)"><text style="font-size:10px;font-family:OpenSans;fill:#555;" text-anchor="middle" x="0" y="-6.000000">E51G</text></g><line x1="63.500652" x2="63.500652" y1="46.500000" y2="87.000000" stroke="#BABDB6" stroke-width="2"/><a xlink:title="E93G"><circle cx="63.500652" cy="46.500000" r="4.000000" fill="#ff0000" /></a><g transform="translate(63.500652,46.500000) rotate(-30)"><text style="font-size:10px;font-family:OpenSans;fill:#555;" text-anchor="middle" x="0" y="-6.000000">E93G</text></g><line x1="68.194263" x2="68.194263" y1="46.500000" y2="87.000000" stroke="#BABDB6" stroke-width="2"/><a xlink:title="A102A"><circle cx="68.194263" cy="46.500000" r="4.000000" fill="#0000ff" /></a><g transform="translate(68.194263,46.500000) rotate(-30)"><text style="font-size:10px;font-family:OpenSans;fill:#555;" text-anchor="middle" x="0" y="-6.000000">A102A</text></g><line x1="73.930900" x2="73.930900" y1="59.000000" y2="87.000000" stroke="#BABDB6" stroke-width="2"/><a xlink:title="E113G"><circle cx="73.930900" cy="59.000000" r="4.000000" fill="#ff0000" /></a><g transform="translate(73.930900,59.000000) rotate(-30)"><text style="font-size:10px;font-family:OpenSans;fill:#555;" text-anchor="middle" x="0" y="-6.000000">E113G</text></g><line x1="90.097784" x2="90.097784" y1="59.000000" y2="87.000000" stroke="#BABDB6" stroke-width="2"/><a xlink:title="A144A"><circle cx="90.097784" cy="59.000000" r="4.000000" fill="#0000ff" /></a><g transform="translate(90.097784,59.000000) rotate(-30)"><text style="font-size:10px;font-family:OpenSans;fill:#555;" text-anchor="middle" x="0" y="-6.000000">A144A</text></g><line x1="96.355932" x2="96.355932" y1="46.500000" y2="87.000000" stroke="#BABDB6" stroke-width="2"/><a xlink:title="E156E"><circle cx="96.355932" cy="46.500000" r="4.000000" fill="#0000ff" /></a><g transform="translate(96.355932,46.500000) rotate(-30)"><text style="font-size:10px;font-family:OpenSans;fill:#555;" text-anchor="middle" x="0" y="-6.000000">E156E</text></g><line x1="100.528031" x2="100.528031" y1="59.000000" y2="87.000000" stroke="#BABDB6" stroke-width="2"/><a xlink:title="A164A"><circle cx="100.528031" cy="59.000000" r="4.000000" fill="#0000ff" /></a><g transform="translate(100.528031,59.000000) rotate(-30)"><text style="font-size:10px;font-family:OpenSans;fill:#555;" text-anchor="middle" x="0" y="-6.000000">A164A</text></g><line x1="129.732725" x2="129.732725" y1="59.000000" y2="87.000000" stroke="#BABDB6" stroke-width="2"/><a xlink:title="E220E"><circle cx="129.732725" cy="59.000000" r="4.000000" fill="#0000ff" /></a><g transform="translate(129.732725,59.000000) rotate(-30)"><text style="font-size:10px;font-family:OpenSans;fill:#555;" text-anchor="middle" x="0" y="-6.000000">E220E</text></g><line x1="151.636245" x2="151.636245" y1="59.000000" y2="87.000000" stroke="#BABDB6" stroke-width="2"/><a xlink:title="E262E"><circle cx="151.636245" cy="59.000000" r="4.000000" fill="#0000ff" /></a><g transform="translate(151.636245,59.000000) rotate(-30)"><text style="font-size:10px;font-family:OpenSans;fill:#555;" text-anchor="middle" x="0" y="-6.000000">E262E</text></g><line x1="162.066493" x2="162.066493" y1="59.000000" y2="87.000000" stroke="#BABDB6" stroke-width="2"/><a xlink:title="E282E"><circle cx="162.066493" cy="59.000000" r="4.000000" fill="#0000ff" /></a><g transform="translate(162.066493,59.000000) rotate(-30)"><text style="font-size:10px;font-family:OpenSans;fill:#555;" text-anchor="middle" x="0" y="-6.000000">E282E</text></g><line x1="190.749674" x2="190.749674" y1="59.000000" y2="87.000000" stroke="#BABDB6" stroke-width="2"/><a xlink:title="P337T"><circle cx="190.749674" cy="59.000000" r="4.000000" fill="#ff0000" /></a><g transform="translate(190.749674,59.000000) rotate(-30)"><text style="font-size:10px;font-family:OpenSans;fill:#555;" text-anchor="middle" x="0" y="-6.000000">P337T</text></g><line x1="218.911343" x2="218.911343" y1="34.000000" y2="87.000000" stroke="#BABDB6" stroke-width="2"/><a xlink:title="E391Q"><circle cx="218.911343" cy="34.000000" r="4.000000" fill="#ff0000" /></a><g transform="translate(218.911343,34.000000) rotate(-30)"><text style="font-size:10px;font-family:OpenSans;fill:#555;" text-anchor="middle" x="0" y="-6.000000">E391Q</text></g><line x1="219.432855" x2="219.432855" y1="46.500000" y2="87.000000" stroke="#BABDB6" stroke-width="2"/><a xlink:title="K392T"><circle cx="219.432855" cy="46.500000" r="4.000000" fill="#ff0000" /></a><g transform="translate(219.432855,46.500000) rotate(-30)"><text style="font-size:10px;font-family:OpenSans;fill:#555;" text-anchor="middle" x="0" y="-6.000000">K392T</text></g><line x1="224.126467" x2="224.126467" y1="59.000000" y2="87.000000" stroke="#BABDB6" stroke-width="2"/><a xlink:title="P401T"><circle cx="224.126467" cy="59.000000" r="4.000000" fill="#ff0000" /></a><g transform="translate(224.126467,59.000000) rotate(-30)"><text style="font-size:10px;font-family:OpenSans;fill:#555;" text-anchor="middle" x="0" y="-6.000000">P401T</text></g><line x1="246.029987" x2="246.029987" y1="59.000000" y2="87.000000" stroke="#BABDB6" stroke-width="2"/><a xlink:title="P443T"><circle cx="246.029987" cy="59.000000" r="4.000000" fill="#ff0000" /></a><g transform="translate(246.029987,59.000000) rotate(-30)"><text style="font-size:10px;font-family:OpenSans;fill:#555;" text-anchor="middle" x="0" y="-6.000000">P443T</text></g><line x1="252.288136" x2="252.288136" y1="34.000000" y2="87.000000" stroke="#BABDB6" stroke-width="2"/><a xlink:title="E455Q"><circle cx="252.288136" cy="34.000000" r="4.000000" fill="#ff0000" /></a><g transform="translate(252.288136,34.000000) rotate(-30)"><text style="font-size:10px;font-family:OpenSans;fill:#555;" text-anchor="middle" x="0" y="-6.000000">E455Q</text></g><line x1="252.809648" x2="252.809648" y1="46.500000" y2="87.000000" stroke="#BABDB6" stroke-width="2"/><a xlink:title="K456T"><circle cx="252.809648" cy="46.500000" r="4.000000" fill="#ff0000" /></a><g transform="translate(252.809648,46.500000) rotate(-30)"><text style="font-size:10px;font-family:OpenSans;fill:#555;" text-anchor="middle" x="0" y="-6.000000">K456T</text></g><line x1="256.460235" x2="256.460235" y1="59.000000" y2="87.000000" stroke="#BABDB6" stroke-width="2"/><a xlink:title="P463T"><circle cx="256.460235" cy="59.000000" r="4.000000" fill="#ff0000" /></a><g transform="translate(256.460235,59.000000) rotate(-30)"><text style="font-size:10px;font-family:OpenSans;fill:#555;" text-anchor="middle" x="0" y="-6.000000">P463T</text></g><line x1="274.191656" x2="274.191656" y1="46.500000" y2="87.000000" stroke="#BABDB6" stroke-width="2"/><a xlink:title="E497Q"><circle cx="274.191656" cy="46.500000" r="4.000000" fill="#ff0000" /></a><g transform="translate(274.191656,46.500000) rotate(-30)"><text style="font-size:10px;font-family:OpenSans;fill:#555;" text-anchor="middle" x="0" y="-6.000000">E497Q</text></g><line x1="274.713168" x2="274.713168" y1="59.000000" y2="87.000000" stroke="#BABDB6" stroke-width="2"/><a xlink:title="K498T"><circle cx="274.713168" cy="59.000000" r="4.000000" fill="#ff0000" /></a><g transform="translate(274.713168,59.000000) rotate(-30)"><text style="font-size:10px;font-family:OpenSans;fill:#555;" text-anchor="middle" x="0" y="-6.000000">K498T</text></g><line x1="284.621904" x2="284.621904" y1="46.500000" y2="87.000000" stroke="#BABDB6" stroke-width="2"/><a xlink:title="E517Q"><circle cx="284.621904" cy="46.500000" r="4.000000" fill="#ff0000" /></a><g transform="translate(284.621904,46.500000) rotate(-30)"><text style="font-size:10px;font-family:OpenSans;fill:#555;" text-anchor="middle" x="0" y="-6.000000">E517Q</text></g><line x1="285.143416" x2="285.143416" y1="59.000000" y2="87.000000" stroke="#BABDB6" stroke-width="2"/><a xlink:title="K518T"><circle cx="285.143416" cy="59.000000" r="4.000000" fill="#ff0000" /></a><g transform="translate(285.143416,59.000000) rotate(-30)"><text style="font-size:10px;font-family:OpenSans;fill:#555;" text-anchor="middle" x="0" y="-6.000000">K518T</text></g><a xlink:title=",  (767aa)"><rect fill="#BABDB6" x="15.000000" y="87.000000" width="400.000000" height="14.000000"/></a><g transform="translate(114.608866,82.000000)"><a xlink:href="https://www.ebi.ac.uk/interpro/entry/pfam/PF14738" xlink:title="Cilia- and flagella-associated protein 91"><rect fill="#2DCF00" x="0" y="0" width="79.269883" height="24.000000" filter="url(#ds)"/><text style="font-size:12px;font-family:OpenSans;fill:#ffffff;" text-anchor="middle" x="39.634941" y="16.000000">CFAP91</text></a></g>
<g class="axis">
<line x1="15.000000" x2="415.000000" y1="116.000000" y2="116.000000" stroke="#AAAAAA" /><line x1="15.000000" x2="15.000000" y1="116.000000" y2="121.000000" stroke="#AAAAAA" /><line x1="34.817471" x2="34.817471" y1="116.000000" y2="121.000000" stroke="#AAAAAA" /><text style="font-size:10px;font-family:OpenSans;fill:#000000;" text-anchor="middle" x="34.817471" y="131.000000">38</text><line x1="63.500652" x2="63.500652" y1="116.000000" y2="121.000000" stroke="#AAAAAA" /><text style="font-size:10px;font-family:OpenSans;fill:#000000;" text-anchor="middle" x="63.500652" y="131.000000">93</text><line x1="90.097784" x2="90.097784" y1="116.000000" y2="121.000000" stroke="#AAAAAA" /><text style="font-size:10px;font-family:OpenSans;fill:#000000;" text-anchor="middle" x="90.097784" y="131.000000">144</text><line x1="129.732725" x2="129.732725" y1="116.000000" y2="121.000000" stroke="#AAAAAA" /><text style="font-size:10px;font-family:OpenSans;fill:#000000;" text-anchor="middle" x="129.732725" y="131.000000">220</text><line x1="151.636245" x2="151.636245" y1="116.000000" y2="121.000000" stroke="#AAAAAA" /><text style="font-size:10px;font-family:OpenSans;fill:#000000;" text-anchor="middle" x="151.636245" y="131.000000">262</text><line x1="190.749674" x2="190.749674" y1="116.000000" y2="121.000000" stroke="#AAAAAA" /><text style="font-size:10px;font-family:OpenSans;fill:#000000;" text-anchor="middle" x="190.749674" y="131.000000">337</text><line x1="218.911343" x2="218.911343" y1="116.000000" y2="121.000000" stroke="#AAAAAA" /><text style="font-size:10px;font-family:OpenSans;fill:#000000;" text-anchor="middle" x="218.911343" y="131.000000">391</text><line x1="246.029987" x2="246.029987" y1="116.000000" y2="121.000000" stroke="#AAAAAA" /><text style="font-size:10px;font-family:OpenSans;fill:#000000;" text-anchor="middle" x="246.029987" y="131.000000">443</text><line x1="274.191656" x2="274.191656" y1="116.000000" y2="121.000000" stroke="#AAAAAA" /><text style="font-size:10px;font-family:OpenSans;fill:#000000;" text-anchor="middle" x="274.191656" y="131.000000">497</text><line x1="415.000000" x2="415.000000" y1="116.000000" y2="121.000000" stroke="#AAAAAA" /><text style="font-size:10px;font-family:OpenSans;fill:#000000;" text-anchor="middle" x="415.000000" y="131.000000">767</text></g>
<rect fill="#2DCF00" x="4" y="145.000000" width="12" height="12" filter="url(#ds)"/><text style="font-size:12px;font-family:OpenSans;fill:#000000;" text-anchor="start" x="20" y="157.000000">Cilia- and flagella-associated protein 91</text></svg>
