<?xml version='1.0'?>
<svg xmlns="http://www.w3.org/2000/svg" xmlns:xlink="http://www.w3.org/1999/xlink" width="430.000000" height="171.900000">
<defs>
  <filter id="ds" x="0" y="0">
    <feOffset in="SourceAlpha" dx="2" dy="2" />
    <feComponentTransfer><feFuncA type="linear" slope="0.2"/></feComponentTransfer>
    <feGaussianBlur result="blurOut" stdDeviation="1" />
    <feBlend in="SourceGraphic" in2="blurOut" mode="normal" />
  </filter>
  <pattern id="disordered-hatch" patternUnits="userSpaceOnUse" width="4" height="4">
    <path d="M-1,1 l2,-2 M0,4 l4,-4 M3,5 l2,-2" stroke="#000000" opacity="0.3" />
  </pattern>
</defs>
<line x1="31.635161" x2="31.635161" y1="46.500000" y2="74.500000" stroke="#BABDB6" stroke-width="2"/><a xlink:title="T22I"><circle cx="31.635161" cy="46.500000" r="4.000000" fill="#ff0000" /></a><g transform="translate(31.635161,46.500000) rotate(-30)"><text style="font-size:10px;font-family:OpenSans;fill:#555;" text-anchor="middle" x="0" y="-6.000000">T22I</text></g><line x1="53.563327" x2="53.563327" y1="46.500000" y2="74.500000" stroke="#BABDB6" stroke-width="2"/><a xlink:title="A51T"><circle cx="53.563327" cy="46.500000" r="4.000000" fill="#ff0000" /></a><g transform="translate(53.563327,46.500000) rotate(-30)"><text style="font-size:10px;font-family:OpenSans;fill:#555;" text-anchor="middle" x="0" y="-6.000000">A51T</text></g><line x1="83.052930" x2="83.052930" y1="46.500000" y2="74.500000" stroke="#BABDB6" stroke-width="2"/><a xlink:title="A90T"><circle cx="83.052930" cy="46.500000" r="4.000000" fill="#ff0000" /></a><g transform="translate(83.052930,46.500000) rotate(-30)"><text style="font-size:10px;font-family:OpenSans;fill:#555;" text-anchor="middle" x="0" y="-6.000000">A90T</text></g><line x1="92.126654" x2="92.126654" y1="46.500000" y2="74.500000" stroke="#BABDB6" stroke-width="2"/><a xlink:title="D102D"><circle cx="92.126654" cy="46.500000" r="4.000000" fill="#0000ff" /></a><g transform="translate(92.126654,46.500000) rotate(-30)"><text style="font-size:10px;font-family:OpenSans;fill:#555;" text-anchor="middle" x="0" y="-6.000000">D102D</text></g><line x1="98.175803" x2="98.175803" y1="34.000000" y2="74.500000" stroke="#BABDB6" stroke-width="2"/><a xlink:title="T110A"><circle cx="98.175803" cy="34.000000" r="4.000000" fill="#ff0000" /></a><g transform="translate(98.175803,34.000000) rotate(-30)"><text style="font-size:10px;font-family:OpenSans;fill:#555;" text-anchor="middle" x="0" y="-6.000000">T110A</text></g><line x1="103.468809" x2="103.468809" y1="46.500000" y2="74.500000" stroke="#BABDB6" stroke-width="2"/><a xlink:title="D117D"><circle cx="103.468809" cy="46.500000" r="4.000000" fill="#0000ff" /></a><g transform="translate(103.468809,46.500000) rotate(-30)"><text style="font-size:10px;font-family:OpenSans;fill:#555;" text-anchor="middle" x="0" y="-6.000000">D117D</text></g><line x1="109.517958" x2="109.517958" y1="46.500000" y2="74.500000" stroke="#BABDB6" stroke-width="2"/><a xlink:title="T125A"><circle cx="109.517958" cy="46.500000" r="4.000000" fill="#ff0000" /></a><g transform="translate(109.517958,46.500000) rotate(-30)"><text style="font-size:10px;font-family:OpenSans;fill:#555;" text-anchor="middle" x="0" y="-6.000000">T125A</text></g><line x1="191.937618" x2="191.937618" y1="46.500000" y2="74.500000" stroke="#BABDB6" stroke-width="2"/><a xlink:title="A234T"><circle cx="191.937618" cy="46.500000" r="4.000000" fill="#ff0000" /></a><g transform="translate(191.937618,46.500000) rotate(-30)"><text style="font-size:10px;font-family:OpenSans;fill:#555;" text-anchor="middle" x="0" y="-6.000000">A234T</text></g><line x1="203.279773" x2="203.279773" y1="46.500000" y2="74.500000" stroke="#BABDB6" stroke-width="2"/><a xlink:title="A249T"><circle cx="203.279773" cy="46.500000" r="4.000000" fill="#ff0000" /></a><g transform="translate(203.279773,46.500000) rotate(-30)"><text style="font-size:10px;font-family:OpenSans;fill:#555;" text-anchor="middle" x="0" y="-6.000000">A249T</text></g><a xlink:title=",  (529aa)"><rect fill="#BABDB6" x="15.000000" y="74.500000" width="400.000000" height="14.000000"/></a><g transform="translate(59.612476,69.500000)"><a xlink:href="https://www.ebi.ac.uk/interpro/entry/pfam/PF02931" xlink:title="Neurotransmitter-gated ion-channel ligand binding domain"><rect fill="#2DCF00" x="0" y="0" width="155.009452" height="24.000000" filter="url(#ds)"/><text style="font-size:12px;font-family:OpenSans;fill:#ffffff;" text-anchor="middle" x="77.504726" y="16.000000">Neur_chan_LBD</text></a></g>
<g transform="translate(220.671078,69.500000)"><a xlink:href="https://www.ebi.ac.uk/interpro/entry/pfam/PF02932" xlink:title="Neurotransmitter-gated ion-channel transmembrane region"><rect fill="#FF5353" x="0" y="0" width="187.523629" height="24.000000" filter="url(#ds)"/><text style="font-size:12px;font-family:OpenSans;fill:#ffffff;" text-anchor="middle" x="93.761815" y="16.000000">Neur_chan_memb</text></a></g>
<g class="axis">
<line x1="15.000000" x2="415.000000" y1="103.500000" y2="103.500000" stroke="#AAAAAA" /><line x1="15.000000" x2="15.000000" y1="103.500000" y2="108.500000" stroke="#AAAAAA" /><line x1="31.635161" x2="31.635161" y1="103.500000" y2="108.500000" stroke="#AAAAAA" /><text style="font-size:10px;font-family:OpenSans;fill:#000000;" text-anchor="middle" x="31.635161" y="118.500000">22</text><line x1="53.563327" x2="53.563327" y1="103.500000" y2="108.500000" stroke="#AAAAAA" /><text style="font-size:10px;font-family:OpenSans;fill:#000000;" text-anchor="middle" x="53.563327" y="118.500000">51</text><line x1="83.052930" x2="83.052930" y1="103.500000" y2="108.500000" stroke="#AAAAAA" /><text style="font-size:10px;font-family:OpenSans;fill:#000000;" text-anchor="middle" x="83.052930" y="118.500000">90</text><line x1="103.468809" x2="103.468809" y1="103.500000" y2="108.500000" stroke="#AAAAAA" /><text style="font-size:10px;font-family:OpenSans;fill:#000000;" text-anchor="middle" x="103.468809" y="118.500000">117</text><line x1="191.937618" x2="191.937618" y1="103.500000" y2="108.500000" stroke="#AAAAAA" /><text style="font-size:10px;font-family:OpenSans;fill:#000000;" text-anchor="middle" x="191.937618" y="118.500000">234</text><line x1="214.621928" x2="214.621928" y1="103.500000" y2="108.500000" stroke="#AAAAAA" /><text style="font-size:10px;font-family:OpenSans;fill:#000000;" text-anchor="middle" x="214.621928" y="118.500000">264</text><line x1="415.000000" x2="415.000000" y1="103.500000" y2="108.500000" stroke="#AAAAAA" /><text style="font-size:10px;font-family:OpenSans;fill:#000000;" text-anchor="middle" x="415.000000" y="118.500000">529</text></g>
<rect fill="#2DCF00" x="4" y="132.500000" width="12" height="12" filter="url(#ds)"/><text style="font-size:12px;font-family:OpenSans;fill:#000000;" text-anchor="start" x="20" y="144.500000">Neurotransmitter-gated ion-channel ligand binding domain</text><rect fill="#FF5353" x="4" y="146.500000" width="12" height="12" filter="url(#ds)"/><text style="font-size:12px;font-family:OpenSans;fill:#000000;" text-anchor="start" x="20" y="158.500000">Neurotransmitter-gated ion-channel transmembrane region</text></svg>
