<?xml version='1.0'?>
<svg xmlns="http://www.w3.org/2000/svg" xmlns:xlink="http://www.w3.org/1999/xlink" width="2389.166667" height="146.200000">
<defs>
  <filter id="ds" x="0" y="0">
    <feOffset in="SourceAlpha" dx="2" dy="2" />
    <feComponentTransfer><feFuncA type="linear" slope="0.2"/></feComponentTransfer>
    <feGaussianBlur result="blurOut" stdDeviation="1" />
    <feBlend in="SourceGraphic" in2="blurOut" mode="normal" />
  </filter>
  <pattern id="disordered-hatch" patternUnits="userSpaceOnUse" width="4" height="4">
    <path d="M-1,1 l2,-2 M0,4 l4,-4 M3,5 l2,-2" stroke="#000000" opacity="0.3" />
  </pattern>
</defs>
<line x1="1231.000000" x2="1231.000000" y1="34.000000" y2="62.000000" stroke="#BABDB6" stroke-width="2"/><a xlink:title="V384I"><circle cx="1231.000000" cy="34.000000" r="4.000000" fill="#ff0000" /></a><g transform="translate(1231.000000,34.000000) rotate(-30)"><text style="font-size:10px;font-family:OpenSans;fill:#555;" text-anchor="middle" x="0" y="-6.000000">V384I</text></g><line x1="1867.500000" x2="1867.500000" y1="34.000000" y2="62.000000" stroke="#BABDB6" stroke-width="2"/><a xlink:title="Q585K"><circle cx="1867.500000" cy="34.000000" r="4.000000" fill="#ff0000" /></a><g transform="translate(1867.500000,34.000000) rotate(-30)"><text style="font-size:10px;font-family:OpenSans;fill:#555;" text-anchor="middle" x="0" y="-6.000000">Q585K</text></g><a xlink:title=",  (745aa)"><rect fill="#BABDB6" x="15.000000" y="62.000000" width="2359.166667" height="14.000000"/></a><g transform="translate(65.666667,57.000000)"><a xlink:href="https://www.ebi.ac.uk/interpro/entry/pfam/PF00069" xlink:title="Protein kinase domain"><rect fill="#2DCF00" x="0" y="0" width="864.500000" height="24.000000" filter="url(#ds)"/><text style="font-size:12px;font-family:OpenSans;fill:#ffffff;" text-anchor="middle" x="432.250000" y="16.000000">Protein kinase domain</text></a></g>
<g transform="translate(1237.333333,57.000000)"><a xlink:href="https://www.ebi.ac.uk/interpro/entry/pfam/PF18397" xlink:title="IQBAL scaffold dimerization domain"><rect fill="#FF5353" x="0" y="0" width="864.500000" height="24.000000" filter="url(#ds)"/><text style="font-size:12px;font-family:OpenSans;fill:#ffffff;" text-anchor="middle" x="432.250000" y="16.000000">IQBAL scaffold dimerization domain</text></a></g>
<g transform="translate(2253.833333,57.000000)"><a xlink:href="https://www.ebi.ac.uk/interpro/entry/pfam/PF12179" xlink:title="I-kappa-kinase-beta NEMO binding domain"><rect fill="#5B5BFF" x="0" y="0" width="114.000000" height="24.000000" filter="url(#ds)"/><text style="font-size:12px;font-family:OpenSans;fill:#ffffff;" text-anchor="middle" x="57.000000" y="16.000000">IKKbetaNEMObind</text></a></g>
<g class="axis">
<line x1="15.000000" x2="2374.166667" y1="91.000000" y2="91.000000" stroke="#AAAAAA" /><line x1="15.000000" x2="15.000000" y1="91.000000" y2="96.000000" stroke="#AAAAAA" /><line x1="15.000000" x2="15.000000" y1="91.000000" y2="96.000000" stroke="#AAAAAA" /><text style="font-size:10px;font-family:OpenSans;fill:#000000;" text-anchor="middle" x="15.000000" y="106.000000">0</text><line x1="65.666667" x2="65.666667" y1="91.000000" y2="96.000000" stroke="#AAAAAA" /><text style="font-size:10px;font-family:OpenSans;fill:#000000;" text-anchor="middle" x="65.666667" y="106.000000">16</text><line x1="930.166667" x2="930.166667" y1="91.000000" y2="96.000000" stroke="#AAAAAA" /><text style="font-size:10px;font-family:OpenSans;fill:#000000;" text-anchor="middle" x="930.166667" y="106.000000">289</text><line x1="1231.000000" x2="1231.000000" y1="91.000000" y2="96.000000" stroke="#AAAAAA" /><text style="font-size:10px;font-family:OpenSans;fill:#000000;" text-anchor="middle" x="1231.000000" y="106.000000">384</text><line x1="1867.500000" x2="1867.500000" y1="91.000000" y2="96.000000" stroke="#AAAAAA" /><text style="font-size:10px;font-family:OpenSans;fill:#000000;" text-anchor="middle" x="1867.500000" y="106.000000">585</text><line x1="2101.833333" x2="2101.833333" y1="91.000000" y2="96.000000" stroke="#AAAAAA" /><text style="font-size:10px;font-family:OpenSans;fill:#000000;" text-anchor="middle" x="2101.833333" y="106.000000">659</text><line x1="2253.833333" x2="2253.833333" y1="91.000000" y2="96.000000" stroke="#AAAAAA" /><text style="font-size:10px;font-family:OpenSans;fill:#000000;" text-anchor="middle" x="2253.833333" y="106.000000">707</text><line x1="2374.166667" x2="2374.166667" y1="91.000000" y2="96.000000" stroke="#AAAAAA" /><text style="font-size:10px;font-family:OpenSans;fill:#000000;" text-anchor="middle" x="2374.166667" y="106.000000">745</text></g>
<rect fill="#5B5BFF" x="4" y="120.000000" width="12" height="12" filter="url(#ds)"/><text style="font-size:12px;font-family:OpenSans;fill:#000000;" text-anchor="start" x="20" y="132.000000">I-kappa-kinase-beta NEMO binding domain</text></svg>
