<?xml version='1.0'?>
<svg xmlns="http://www.w3.org/2000/svg" xmlns:xlink="http://www.w3.org/1999/xlink" width="430.000000" height="145.500000">
<defs>
  <filter id="ds" x="0" y="0">
    <feOffset in="SourceAlpha" dx="2" dy="2" />
    <feComponentTransfer><feFuncA type="linear" slope="0.2"/></feComponentTransfer>
    <feGaussianBlur result="blurOut" stdDeviation="1" />
    <feBlend in="SourceGraphic" in2="blurOut" mode="normal" />
  </filter>
  <pattern id="disordered-hatch" patternUnits="userSpaceOnUse" width="4" height="4">
    <path d="M-1,1 l2,-2 M0,4 l4,-4 M3,5 l2,-2" stroke="#000000" opacity="0.3" />
  </pattern>
</defs>
<line x1="33.487395" x2="33.487395" y1="46.500000" y2="74.500000" stroke="#BABDB6" stroke-width="2"/><a xlink:title="L11L"><circle cx="33.487395" cy="46.500000" r="4.000000" fill="#0000ff" /></a><g transform="translate(33.487395,46.500000) rotate(-30)"><text style="font-size:10px;font-family:OpenSans;fill:#555;" text-anchor="middle" x="0" y="-6.000000">L11L</text></g><line x1="55.336134" x2="55.336134" y1="46.500000" y2="74.500000" stroke="#BABDB6" stroke-width="2"/><a xlink:title="L24L"><circle cx="55.336134" cy="46.500000" r="4.000000" fill="#0000ff" /></a><g transform="translate(55.336134,46.500000) rotate(-30)"><text style="font-size:10px;font-family:OpenSans;fill:#555;" text-anchor="middle" x="0" y="-6.000000">L24L</text></g><line x1="68.781513" x2="68.781513" y1="46.500000" y2="74.500000" stroke="#BABDB6" stroke-width="2"/><a xlink:title="L32L"><circle cx="68.781513" cy="46.500000" r="4.000000" fill="#0000ff" /></a><g transform="translate(68.781513,46.500000) rotate(-30)"><text style="font-size:10px;font-family:OpenSans;fill:#555;" text-anchor="middle" x="0" y="-6.000000">L32L</text></g><line x1="90.630252" x2="90.630252" y1="46.500000" y2="74.500000" stroke="#BABDB6" stroke-width="2"/><a xlink:title="L45L"><circle cx="90.630252" cy="46.500000" r="4.000000" fill="#0000ff" /></a><g transform="translate(90.630252,46.500000) rotate(-30)"><text style="font-size:10px;font-family:OpenSans;fill:#555;" text-anchor="middle" x="0" y="-6.000000">L45L</text></g><line x1="114.159664" x2="114.159664" y1="34.000000" y2="74.500000" stroke="#BABDB6" stroke-width="2"/><a xlink:title="M59V"><circle cx="114.159664" cy="34.000000" r="4.000000" fill="#ff0000" /></a><g transform="translate(114.159664,34.000000) rotate(-30)"><text style="font-size:10px;font-family:OpenSans;fill:#555;" text-anchor="middle" x="0" y="-6.000000">M59V</text></g><line x1="117.521008" x2="117.521008" y1="46.500000" y2="74.500000" stroke="#BABDB6" stroke-width="2"/><a xlink:title="Y61H"><circle cx="117.521008" cy="46.500000" r="4.000000" fill="#ff0000" /></a><g transform="translate(117.521008,46.500000) rotate(-30)"><text style="font-size:10px;font-family:OpenSans;fill:#555;" text-anchor="middle" x="0" y="-6.000000">Y61H</text></g><line x1="136.008403" x2="136.008403" y1="34.000000" y2="74.500000" stroke="#BABDB6" stroke-width="2"/><a xlink:title="M72V"><circle cx="136.008403" cy="34.000000" r="4.000000" fill="#ff0000" /></a><g transform="translate(136.008403,34.000000) rotate(-30)"><text style="font-size:10px;font-family:OpenSans;fill:#555;" text-anchor="middle" x="0" y="-6.000000">M72V</text></g><line x1="139.369748" x2="139.369748" y1="46.500000" y2="74.500000" stroke="#BABDB6" stroke-width="2"/><a xlink:title="Y74H"><circle cx="139.369748" cy="46.500000" r="4.000000" fill="#ff0000" /></a><g transform="translate(139.369748,46.500000) rotate(-30)"><text style="font-size:10px;font-family:OpenSans;fill:#555;" text-anchor="middle" x="0" y="-6.000000">Y74H</text></g><line x1="228.445378" x2="228.445378" y1="46.500000" y2="74.500000" stroke="#BABDB6" stroke-width="2"/><a xlink:title="V127V"><circle cx="228.445378" cy="46.500000" r="4.000000" fill="#0000ff" /></a><g transform="translate(228.445378,46.500000) rotate(-30)"><text style="font-size:10px;font-family:OpenSans;fill:#555;" text-anchor="middle" x="0" y="-6.000000">V127V</text></g><line x1="352.815126" x2="352.815126" y1="46.500000" y2="74.500000" stroke="#BABDB6" stroke-width="2"/><a xlink:title="V201V"><circle cx="352.815126" cy="46.500000" r="4.000000" fill="#0000ff" /></a><g transform="translate(352.815126,46.500000) rotate(-30)"><text style="font-size:10px;font-family:OpenSans;fill:#555;" text-anchor="middle" x="0" y="-6.000000">V201V</text></g><line x1="369.621849" x2="369.621849" y1="34.000000" y2="74.500000" stroke="#BABDB6" stroke-width="2"/><a xlink:title="V211V"><circle cx="369.621849" cy="34.000000" r="4.000000" fill="#0000ff" /></a><g transform="translate(369.621849,34.000000) rotate(-30)"><text style="font-size:10px;font-family:OpenSans;fill:#555;" text-anchor="middle" x="0" y="-6.000000">V211V</text></g><line x1="374.663866" x2="374.663866" y1="46.500000" y2="74.500000" stroke="#BABDB6" stroke-width="2"/><a xlink:title="V214V"><circle cx="374.663866" cy="46.500000" r="4.000000" fill="#0000ff" /></a><g transform="translate(374.663866,46.500000) rotate(-30)"><text style="font-size:10px;font-family:OpenSans;fill:#555;" text-anchor="middle" x="0" y="-6.000000">V214V</text></g><a xlink:title=",  (238aa)"><rect fill="#BABDB6" x="15.000000" y="74.500000" width="400.000000" height="14.000000"/></a><g transform="translate(87.268908,69.500000)"><a xlink:href="https://www.ebi.ac.uk/interpro/entry/pfam/PF02017" xlink:title="CIDE-N domain"><rect fill="#2DCF00" x="0" y="0" width="124.369748" height="24.000000" filter="url(#ds)"/><text style="font-size:12px;font-family:OpenSans;fill:#ffffff;" text-anchor="middle" x="62.184874" y="16.000000">CIDE-N domain</text></a></g>
<g class="axis">
<line x1="15.000000" x2="415.000000" y1="103.500000" y2="103.500000" stroke="#AAAAAA" /><line x1="15.000000" x2="15.000000" y1="103.500000" y2="108.500000" stroke="#AAAAAA" /><line x1="33.487395" x2="33.487395" y1="103.500000" y2="108.500000" stroke="#AAAAAA" /><text style="font-size:10px;font-family:OpenSans;fill:#000000;" text-anchor="middle" x="33.487395" y="118.500000">11</text><line x1="55.336134" x2="55.336134" y1="103.500000" y2="108.500000" stroke="#AAAAAA" /><text style="font-size:10px;font-family:OpenSans;fill:#000000;" text-anchor="middle" x="55.336134" y="118.500000">24</text><line x1="90.630252" x2="90.630252" y1="103.500000" y2="108.500000" stroke="#AAAAAA" /><text style="font-size:10px;font-family:OpenSans;fill:#000000;" text-anchor="middle" x="90.630252" y="118.500000">45</text><line x1="114.159664" x2="114.159664" y1="103.500000" y2="108.500000" stroke="#AAAAAA" /><text style="font-size:10px;font-family:OpenSans;fill:#000000;" text-anchor="middle" x="114.159664" y="118.500000">59</text><line x1="136.008403" x2="136.008403" y1="103.500000" y2="108.500000" stroke="#AAAAAA" /><text style="font-size:10px;font-family:OpenSans;fill:#000000;" text-anchor="middle" x="136.008403" y="118.500000">72</text><line x1="228.445378" x2="228.445378" y1="103.500000" y2="108.500000" stroke="#AAAAAA" /><text style="font-size:10px;font-family:OpenSans;fill:#000000;" text-anchor="middle" x="228.445378" y="118.500000">127</text><line x1="352.815126" x2="352.815126" y1="103.500000" y2="108.500000" stroke="#AAAAAA" /><text style="font-size:10px;font-family:OpenSans;fill:#000000;" text-anchor="middle" x="352.815126" y="118.500000">201</text><line x1="374.663866" x2="374.663866" y1="103.500000" y2="108.500000" stroke="#AAAAAA" /><text style="font-size:10px;font-family:OpenSans;fill:#000000;" text-anchor="middle" x="374.663866" y="118.500000">214</text><line x1="415.000000" x2="415.000000" y1="103.500000" y2="108.500000" stroke="#AAAAAA" /><text style="font-size:10px;font-family:OpenSans;fill:#000000;" text-anchor="middle" x="415.000000" y="118.500000">238</text></g>
</svg>
