<?xml version='1.0'?>
<svg xmlns="http://www.w3.org/2000/svg" xmlns:xlink="http://www.w3.org/1999/xlink" width="430.000000" height="145.500000">
<defs>
  <filter id="ds" x="0" y="0">
    <feOffset in="SourceAlpha" dx="2" dy="2" />
    <feComponentTransfer><feFuncA type="linear" slope="0.2"/></feComponentTransfer>
    <feGaussianBlur result="blurOut" stdDeviation="1" />
    <feBlend in="SourceGraphic" in2="blurOut" mode="normal" />
  </filter>
  <pattern id="disordered-hatch" patternUnits="userSpaceOnUse" width="4" height="4">
    <path d="M-1,1 l2,-2 M0,4 l4,-4 M3,5 l2,-2" stroke="#000000" opacity="0.3" />
  </pattern>
</defs>
<line x1="40.635359" x2="40.635359" y1="46.500000" y2="74.500000" stroke="#BABDB6" stroke-width="2"/><a xlink:title="C58Y"><circle cx="40.635359" cy="46.500000" r="4.000000" fill="#ff0000" /></a><g transform="translate(40.635359,46.500000) rotate(-30)"><text style="font-size:10px;font-family:OpenSans;fill:#555;" text-anchor="middle" x="0" y="-6.000000">C58Y</text></g><line x1="133.453039" x2="133.453039" y1="46.500000" y2="74.500000" stroke="#BABDB6" stroke-width="2"/><a xlink:title="K268M"><circle cx="133.453039" cy="46.500000" r="4.000000" fill="#ff0000" /></a><g transform="translate(133.453039,46.500000) rotate(-30)"><text style="font-size:10px;font-family:OpenSans;fill:#555;" text-anchor="middle" x="0" y="-6.000000">K268M</text></g><line x1="153.342541" x2="153.342541" y1="34.000000" y2="74.500000" stroke="#BABDB6" stroke-width="2"/><a xlink:title="H313R"><circle cx="153.342541" cy="34.000000" r="4.000000" fill="#ff0000" /></a><g transform="translate(153.342541,34.000000) rotate(-30)"><text style="font-size:10px;font-family:OpenSans;fill:#555;" text-anchor="middle" x="0" y="-6.000000">H313R</text></g><line x1="153.784530" x2="153.784530" y1="46.500000" y2="74.500000" stroke="#BABDB6" stroke-width="2"/><a xlink:title="H314R"><circle cx="153.784530" cy="46.500000" r="4.000000" fill="#ff0000" /></a><g transform="translate(153.784530,46.500000) rotate(-30)"><text style="font-size:10px;font-family:OpenSans;fill:#555;" text-anchor="middle" x="0" y="-6.000000">H314R</text></g><line x1="271.795580" x2="271.795580" y1="34.000000" y2="74.500000" stroke="#BABDB6" stroke-width="2"/><a xlink:title="K581M"><circle cx="271.795580" cy="34.000000" r="4.000000" fill="#ff0000" /></a><g transform="translate(271.795580,34.000000) rotate(-30)"><text style="font-size:10px;font-family:OpenSans;fill:#555;" text-anchor="middle" x="0" y="-6.000000">K581M</text></g><line x1="272.237569" x2="272.237569" y1="46.500000" y2="74.500000" stroke="#BABDB6" stroke-width="2"/><a xlink:title="K582M"><circle cx="272.237569" cy="46.500000" r="4.000000" fill="#ff0000" /></a><g transform="translate(272.237569,46.500000) rotate(-30)"><text style="font-size:10px;font-family:OpenSans;fill:#555;" text-anchor="middle" x="0" y="-6.000000">K582M</text></g><a xlink:title=",  (905aa)"><rect fill="#BABDB6" x="15.000000" y="74.500000" width="400.000000" height="14.000000"/></a><g transform="translate(23.397790,69.500000)"><a xlink:href="https://www.ebi.ac.uk/interpro/entry/pfam/PF21044" xlink:title="CIP2A, N-terminal"><rect fill="#2DCF00" x="0" y="0" width="240.000000" height="24.000000" filter="url(#ds)"/><text style="font-size:12px;font-family:OpenSans;fill:#ffffff;" text-anchor="middle" x="120.000000" y="16.000000">CIP2A, N-terminal</text></a></g>
<g class="axis">
<line x1="15.000000" x2="415.000000" y1="103.500000" y2="103.500000" stroke="#AAAAAA" /><line x1="15.000000" x2="15.000000" y1="103.500000" y2="108.500000" stroke="#AAAAAA" /><line x1="40.635359" x2="40.635359" y1="103.500000" y2="108.500000" stroke="#AAAAAA" /><text style="font-size:10px;font-family:OpenSans;fill:#000000;" text-anchor="middle" x="40.635359" y="118.500000">58</text><line x1="133.453039" x2="133.453039" y1="103.500000" y2="108.500000" stroke="#AAAAAA" /><text style="font-size:10px;font-family:OpenSans;fill:#000000;" text-anchor="middle" x="133.453039" y="118.500000">268</text><line x1="153.342541" x2="153.342541" y1="103.500000" y2="108.500000" stroke="#AAAAAA" /><text style="font-size:10px;font-family:OpenSans;fill:#000000;" text-anchor="middle" x="153.342541" y="118.500000">313</text><line x1="271.795580" x2="271.795580" y1="103.500000" y2="108.500000" stroke="#AAAAAA" /><text style="font-size:10px;font-family:OpenSans;fill:#000000;" text-anchor="middle" x="271.795580" y="118.500000">581</text><line x1="415.000000" x2="415.000000" y1="103.500000" y2="108.500000" stroke="#AAAAAA" /><text style="font-size:10px;font-family:OpenSans;fill:#000000;" text-anchor="middle" x="415.000000" y="118.500000">905</text></g>
</svg>
