<?xml version='1.0'?>
<svg xmlns="http://www.w3.org/2000/svg" xmlns:xlink="http://www.w3.org/1999/xlink" width="430.000000" height="158.000000">
<defs>
  <filter id="ds" x="0" y="0">
    <feOffset in="SourceAlpha" dx="2" dy="2" />
    <feComponentTransfer><feFuncA type="linear" slope="0.2"/></feComponentTransfer>
    <feGaussianBlur result="blurOut" stdDeviation="1" />
    <feBlend in="SourceGraphic" in2="blurOut" mode="normal" />
  </filter>
  <pattern id="disordered-hatch" patternUnits="userSpaceOnUse" width="4" height="4">
    <path d="M-1,1 l2,-2 M0,4 l4,-4 M3,5 l2,-2" stroke="#000000" opacity="0.3" />
  </pattern>
</defs>
<line x1="17.538071" x2="17.538071" y1="34.000000" y2="87.000000" stroke="#BABDB6" stroke-width="2"/><a xlink:title="L5P"><circle cx="17.538071" cy="34.000000" r="4.000000" fill="#ff0000" /></a><g transform="translate(17.538071,34.000000) rotate(-30)"><text style="font-size:10px;font-family:OpenSans;fill:#555;" text-anchor="middle" x="0" y="-6.000000">L5P</text></g><line x1="18.045685" x2="18.045685" y1="46.500000" y2="87.000000" stroke="#BABDB6" stroke-width="2"/><a xlink:title="L6P"><circle cx="18.045685" cy="46.500000" r="4.000000" fill="#ff0000" /></a><g transform="translate(18.045685,46.500000) rotate(-30)"><text style="font-size:10px;font-family:OpenSans;fill:#555;" text-anchor="middle" x="0" y="-6.000000">L6P</text></g><line x1="21.091371" x2="21.091371" y1="46.500000" y2="87.000000" stroke="#BABDB6" stroke-width="2"/><a xlink:title="P12P"><circle cx="21.091371" cy="46.500000" r="4.000000" fill="#0000ff" /></a><g transform="translate(21.091371,46.500000) rotate(-30)"><text style="font-size:10px;font-family:OpenSans;fill:#555;" text-anchor="middle" x="0" y="-6.000000">P12P</text></g><line x1="24.137056" x2="24.137056" y1="59.000000" y2="87.000000" stroke="#BABDB6" stroke-width="2"/><a xlink:title="V18V"><circle cx="24.137056" cy="59.000000" r="4.000000" fill="#0000ff" /></a><g transform="translate(24.137056,59.000000) rotate(-30)"><text style="font-size:10px;font-family:OpenSans;fill:#555;" text-anchor="middle" x="0" y="-6.000000">V18V</text></g><line x1="43.934010" x2="43.934010" y1="59.000000" y2="87.000000" stroke="#BABDB6" stroke-width="2"/><a xlink:title="R57H"><circle cx="43.934010" cy="59.000000" r="4.000000" fill="#ff0000" /></a><g transform="translate(43.934010,59.000000) rotate(-30)"><text style="font-size:10px;font-family:OpenSans;fill:#555;" text-anchor="middle" x="0" y="-6.000000">R57H</text></g><line x1="72.868020" x2="72.868020" y1="59.000000" y2="87.000000" stroke="#BABDB6" stroke-width="2"/><a xlink:title="L114L"><circle cx="72.868020" cy="59.000000" r="4.000000" fill="#0000ff" /></a><g transform="translate(72.868020,59.000000) rotate(-30)"><text style="font-size:10px;font-family:OpenSans;fill:#555;" text-anchor="middle" x="0" y="-6.000000">L114L</text></g><line x1="111.954315" x2="111.954315" y1="46.500000" y2="87.000000" stroke="#BABDB6" stroke-width="2"/><a xlink:title="R191Q"><circle cx="111.954315" cy="46.500000" r="4.000000" fill="#ff0000" /></a><g transform="translate(111.954315,46.500000) rotate(-30)"><text style="font-size:10px;font-family:OpenSans;fill:#555;" text-anchor="middle" x="0" y="-6.000000">R191Q</text></g><line x1="114.492386" x2="114.492386" y1="59.000000" y2="87.000000" stroke="#BABDB6" stroke-width="2"/><a xlink:title="S196S"><circle cx="114.492386" cy="59.000000" r="4.000000" fill="#0000ff" /></a><g transform="translate(114.492386,59.000000) rotate(-30)"><text style="font-size:10px;font-family:OpenSans;fill:#555;" text-anchor="middle" x="0" y="-6.000000">S196S</text></g><line x1="126.675127" x2="126.675127" y1="59.000000" y2="87.000000" stroke="#BABDB6" stroke-width="2"/><a xlink:title="A220T"><circle cx="126.675127" cy="59.000000" r="4.000000" fill="#ff0000" /></a><g transform="translate(126.675127,59.000000) rotate(-30)"><text style="font-size:10px;font-family:OpenSans;fill:#555;" text-anchor="middle" x="0" y="-6.000000">A220T</text></g><line x1="187.081218" x2="187.081218" y1="59.000000" y2="87.000000" stroke="#BABDB6" stroke-width="2"/><a xlink:title="L339Q"><circle cx="187.081218" cy="59.000000" r="4.000000" fill="#ff0000" /></a><g transform="translate(187.081218,59.000000) rotate(-30)"><text style="font-size:10px;font-family:OpenSans;fill:#555;" text-anchor="middle" x="0" y="-6.000000">L339Q</text></g><line x1="197.741117" x2="197.741117" y1="59.000000" y2="87.000000" stroke="#BABDB6" stroke-width="2"/><a xlink:title="L360L"><circle cx="197.741117" cy="59.000000" r="4.000000" fill="#0000ff" /></a><g transform="translate(197.741117,59.000000) rotate(-30)"><text style="font-size:10px;font-family:OpenSans;fill:#555;" text-anchor="middle" x="0" y="-6.000000">L360L</text></g><line x1="224.644670" x2="224.644670" y1="46.500000" y2="87.000000" stroke="#BABDB6" stroke-width="2"/><a xlink:title="L413L"><circle cx="224.644670" cy="46.500000" r="4.000000" fill="#0000ff" /></a><g transform="translate(224.644670,46.500000) rotate(-30)"><text style="font-size:10px;font-family:OpenSans;fill:#555;" text-anchor="middle" x="0" y="-6.000000">L413L</text></g><line x1="224.644670" x2="224.644670" y1="59.000000" y2="87.000000" stroke="#BABDB6" stroke-width="2"/><a xlink:title="L413V"><circle cx="224.644670" cy="59.000000" r="4.000000" fill="#ff0000" /></a><g transform="translate(224.644670,59.000000) rotate(-30)"><text style="font-size:10px;font-family:OpenSans;fill:#555;" text-anchor="middle" x="0" y="-6.000000">L413V</text></g><line x1="321.598985" x2="321.598985" y1="46.500000" y2="87.000000" stroke="#BABDB6" stroke-width="2"/><a xlink:title="D604G"><circle cx="321.598985" cy="46.500000" r="4.000000" fill="#ff0000" /></a><g transform="translate(321.598985,46.500000) rotate(-30)"><text style="font-size:10px;font-family:OpenSans;fill:#555;" text-anchor="middle" x="0" y="-6.000000">D604G</text></g><line x1="322.614213" x2="322.614213" y1="59.000000" y2="87.000000" stroke="#BABDB6" stroke-width="2"/><a xlink:title="N606K"><circle cx="322.614213" cy="59.000000" r="4.000000" fill="#ff0000" /></a><g transform="translate(322.614213,59.000000) rotate(-30)"><text style="font-size:10px;font-family:OpenSans;fill:#555;" text-anchor="middle" x="0" y="-6.000000">N606K</text></g><line x1="347.487310" x2="347.487310" y1="59.000000" y2="87.000000" stroke="#BABDB6" stroke-width="2"/><a xlink:title="K655R"><circle cx="347.487310" cy="59.000000" r="4.000000" fill="#ff0000" /></a><g transform="translate(347.487310,59.000000) rotate(-30)"><text style="font-size:10px;font-family:OpenSans;fill:#555;" text-anchor="middle" x="0" y="-6.000000">K655R</text></g><line x1="358.147208" x2="358.147208" y1="59.000000" y2="87.000000" stroke="#BABDB6" stroke-width="2"/><a xlink:title="V676M"><circle cx="358.147208" cy="59.000000" r="4.000000" fill="#ff0000" /></a><g transform="translate(358.147208,59.000000) rotate(-30)"><text style="font-size:10px;font-family:OpenSans;fill:#555;" text-anchor="middle" x="0" y="-6.000000">V676M</text></g><line x1="371.345178" x2="371.345178" y1="59.000000" y2="87.000000" stroke="#BABDB6" stroke-width="2"/><a xlink:title="K702R"><circle cx="371.345178" cy="59.000000" r="4.000000" fill="#ff0000" /></a><g transform="translate(371.345178,59.000000) rotate(-30)"><text style="font-size:10px;font-family:OpenSans;fill:#555;" text-anchor="middle" x="0" y="-6.000000">K702R</text></g><line x1="397.741117" x2="397.741117" y1="59.000000" y2="87.000000" stroke="#BABDB6" stroke-width="2"/><a xlink:title="T754K"><circle cx="397.741117" cy="59.000000" r="4.000000" fill="#ff0000" /></a><g transform="translate(397.741117,59.000000) rotate(-30)"><text style="font-size:10px;font-family:OpenSans;fill:#555;" text-anchor="middle" x="0" y="-6.000000">T754K</text></g><line x1="403.832487" x2="403.832487" y1="59.000000" y2="87.000000" stroke="#BABDB6" stroke-width="2"/><a xlink:title="P766P"><circle cx="403.832487" cy="59.000000" r="4.000000" fill="#0000ff" /></a><g transform="translate(403.832487,59.000000) rotate(-30)"><text style="font-size:10px;font-family:OpenSans;fill:#555;" text-anchor="middle" x="0" y="-6.000000">P766P</text></g><line x1="415.000000" x2="415.000000" y1="59.000000" y2="87.000000" stroke="#BABDB6" stroke-width="2"/><a xlink:title="V788V"><circle cx="415.000000" cy="59.000000" r="4.000000" fill="#0000ff" /></a><g transform="translate(415.000000,59.000000) rotate(-30)"><text style="font-size:10px;font-family:OpenSans;fill:#555;" text-anchor="middle" x="0" y="-6.000000">V788V</text></g><a xlink:title=",  (788aa)"><rect fill="#BABDB6" x="15.000000" y="87.000000" width="400.000000" height="14.000000"/></a><g transform="translate(146.979695,82.000000)"><a xlink:href="https://www.ebi.ac.uk/interpro/entry/pfam/PF01457" xlink:title="Leishmanolysin"><rect fill="#2DCF00" x="0" y="0" width="170.050761" height="24.000000" filter="url(#ds)"/><text style="font-size:12px;font-family:OpenSans;fill:#ffffff;" text-anchor="middle" x="85.025381" y="16.000000">Leishmanolysin</text></a></g>
<g class="axis">
<line x1="15.000000" x2="415.000000" y1="116.000000" y2="116.000000" stroke="#AAAAAA" /><line x1="15.000000" x2="15.000000" y1="116.000000" y2="121.000000" stroke="#AAAAAA" /><line x1="17.538071" x2="17.538071" y1="116.000000" y2="121.000000" stroke="#AAAAAA" /><text style="font-size:10px;font-family:OpenSans;fill:#000000;" text-anchor="middle" x="17.538071" y="131.000000">5</text><line x1="43.934010" x2="43.934010" y1="116.000000" y2="121.000000" stroke="#AAAAAA" /><text style="font-size:10px;font-family:OpenSans;fill:#000000;" text-anchor="middle" x="43.934010" y="131.000000">57</text><line x1="72.868020" x2="72.868020" y1="116.000000" y2="121.000000" stroke="#AAAAAA" /><text style="font-size:10px;font-family:OpenSans;fill:#000000;" text-anchor="middle" x="72.868020" y="131.000000">114</text><line x1="111.954315" x2="111.954315" y1="116.000000" y2="121.000000" stroke="#AAAAAA" /><text style="font-size:10px;font-family:OpenSans;fill:#000000;" text-anchor="middle" x="111.954315" y="131.000000">191</text><line x1="146.979695" x2="146.979695" y1="116.000000" y2="121.000000" stroke="#AAAAAA" /><text style="font-size:10px;font-family:OpenSans;fill:#000000;" text-anchor="middle" x="146.979695" y="131.000000">260</text><line x1="187.081218" x2="187.081218" y1="116.000000" y2="121.000000" stroke="#AAAAAA" /><text style="font-size:10px;font-family:OpenSans;fill:#000000;" text-anchor="middle" x="187.081218" y="131.000000">339</text><line x1="224.644670" x2="224.644670" y1="116.000000" y2="121.000000" stroke="#AAAAAA" /><text style="font-size:10px;font-family:OpenSans;fill:#000000;" text-anchor="middle" x="224.644670" y="131.000000">413</text><line x1="321.598985" x2="321.598985" y1="116.000000" y2="121.000000" stroke="#AAAAAA" /><text style="font-size:10px;font-family:OpenSans;fill:#000000;" text-anchor="middle" x="321.598985" y="131.000000">604</text><line x1="347.487310" x2="347.487310" y1="116.000000" y2="121.000000" stroke="#AAAAAA" /><text style="font-size:10px;font-family:OpenSans;fill:#000000;" text-anchor="middle" x="347.487310" y="131.000000">655</text><line x1="371.345178" x2="371.345178" y1="116.000000" y2="121.000000" stroke="#AAAAAA" /><text style="font-size:10px;font-family:OpenSans;fill:#000000;" text-anchor="middle" x="371.345178" y="131.000000">702</text><line x1="415.000000" x2="415.000000" y1="116.000000" y2="121.000000" stroke="#AAAAAA" /><text style="font-size:10px;font-family:OpenSans;fill:#000000;" text-anchor="middle" x="415.000000" y="131.000000">788</text></g>
</svg>
