<?xml version='1.0'?>
<svg xmlns="http://www.w3.org/2000/svg" xmlns:xlink="http://www.w3.org/1999/xlink" width="1359.548387" height="158.700000">
<defs>
  <filter id="ds" x="0" y="0">
    <feOffset in="SourceAlpha" dx="2" dy="2" />
    <feComponentTransfer><feFuncA type="linear" slope="0.2"/></feComponentTransfer>
    <feGaussianBlur result="blurOut" stdDeviation="1" />
    <feBlend in="SourceGraphic" in2="blurOut" mode="normal" />
  </filter>
  <pattern id="disordered-hatch" patternUnits="userSpaceOnUse" width="4" height="4">
    <path d="M-1,1 l2,-2 M0,4 l4,-4 M3,5 l2,-2" stroke="#000000" opacity="0.3" />
  </pattern>
</defs>
<line x1="879.000000" x2="879.000000" y1="34.000000" y2="74.500000" stroke="#BABDB6" stroke-width="2"/><a xlink:title="D837D"><circle cx="879.000000" cy="34.000000" r="4.000000" fill="#0000ff" /></a><g transform="translate(879.000000,34.000000) rotate(-30)"><text style="font-size:10px;font-family:OpenSans;fill:#555;" text-anchor="middle" x="0" y="-6.000000">D837D</text></g><line x1="880.032258" x2="880.032258" y1="46.500000" y2="74.500000" stroke="#BABDB6" stroke-width="2"/><a xlink:title="D838D"><circle cx="880.032258" cy="46.500000" r="4.000000" fill="#0000ff" /></a><g transform="translate(880.032258,46.500000) rotate(-30)"><text style="font-size:10px;font-family:OpenSans;fill:#555;" text-anchor="middle" x="0" y="-6.000000">D838D</text></g><line x1="886.225806" x2="886.225806" y1="34.000000" y2="74.500000" stroke="#BABDB6" stroke-width="2"/><a xlink:title="R844R"><circle cx="886.225806" cy="34.000000" r="4.000000" fill="#0000ff" /></a><g transform="translate(886.225806,34.000000) rotate(-30)"><text style="font-size:10px;font-family:OpenSans;fill:#555;" text-anchor="middle" x="0" y="-6.000000">R844R</text></g><line x1="887.258065" x2="887.258065" y1="46.500000" y2="74.500000" stroke="#BABDB6" stroke-width="2"/><a xlink:title="R845R"><circle cx="887.258065" cy="46.500000" r="4.000000" fill="#0000ff" /></a><g transform="translate(887.258065,46.500000) rotate(-30)"><text style="font-size:10px;font-family:OpenSans;fill:#555;" text-anchor="middle" x="0" y="-6.000000">R845R</text></g><line x1="1164.935484" x2="1164.935484" y1="34.000000" y2="74.500000" stroke="#BABDB6" stroke-width="2"/><a xlink:title="G1114R"><circle cx="1164.935484" cy="34.000000" r="4.000000" fill="#ff0000" /></a><g transform="translate(1164.935484,34.000000) rotate(-30)"><text style="font-size:10px;font-family:OpenSans;fill:#555;" text-anchor="middle" x="0" y="-6.000000">G1114R</text></g><line x1="1168.032258" x2="1168.032258" y1="46.500000" y2="74.500000" stroke="#BABDB6" stroke-width="2"/><a xlink:title="A1117A"><circle cx="1168.032258" cy="46.500000" r="4.000000" fill="#0000ff" /></a><g transform="translate(1168.032258,46.500000) rotate(-30)"><text style="font-size:10px;font-family:OpenSans;fill:#555;" text-anchor="middle" x="0" y="-6.000000">A1117A</text></g><line x1="1174.225806" x2="1174.225806" y1="34.000000" y2="74.500000" stroke="#BABDB6" stroke-width="2"/><a xlink:title="A1123T"><circle cx="1174.225806" cy="34.000000" r="4.000000" fill="#ff0000" /></a><g transform="translate(1174.225806,34.000000) rotate(-30)"><text style="font-size:10px;font-family:OpenSans;fill:#555;" text-anchor="middle" x="0" y="-6.000000">A1123T</text></g><line x1="1179.387097" x2="1179.387097" y1="46.500000" y2="74.500000" stroke="#BABDB6" stroke-width="2"/><a xlink:title="S1128S"><circle cx="1179.387097" cy="46.500000" r="4.000000" fill="#0000ff" /></a><g transform="translate(1179.387097,46.500000) rotate(-30)"><text style="font-size:10px;font-family:OpenSans;fill:#555;" text-anchor="middle" x="0" y="-6.000000">S1128S</text></g><line x1="1248.548387" x2="1248.548387" y1="34.000000" y2="74.500000" stroke="#BABDB6" stroke-width="2"/><a xlink:title="G1195R"><circle cx="1248.548387" cy="34.000000" r="4.000000" fill="#ff0000" /></a><g transform="translate(1248.548387,34.000000) rotate(-30)"><text style="font-size:10px;font-family:OpenSans;fill:#555;" text-anchor="middle" x="0" y="-6.000000">G1195R</text></g><line x1="1251.645161" x2="1251.645161" y1="46.500000" y2="74.500000" stroke="#BABDB6" stroke-width="2"/><a xlink:title="A1198A"><circle cx="1251.645161" cy="46.500000" r="4.000000" fill="#0000ff" /></a><g transform="translate(1251.645161,46.500000) rotate(-30)"><text style="font-size:10px;font-family:OpenSans;fill:#555;" text-anchor="middle" x="0" y="-6.000000">A1198A</text></g><line x1="1257.838710" x2="1257.838710" y1="34.000000" y2="74.500000" stroke="#BABDB6" stroke-width="2"/><a xlink:title="A1204T"><circle cx="1257.838710" cy="34.000000" r="4.000000" fill="#ff0000" /></a><g transform="translate(1257.838710,34.000000) rotate(-30)"><text style="font-size:10px;font-family:OpenSans;fill:#555;" text-anchor="middle" x="0" y="-6.000000">A1204T</text></g><line x1="1263.000000" x2="1263.000000" y1="46.500000" y2="74.500000" stroke="#BABDB6" stroke-width="2"/><a xlink:title="S1209S"><circle cx="1263.000000" cy="46.500000" r="4.000000" fill="#0000ff" /></a><g transform="translate(1263.000000,46.500000) rotate(-30)"><text style="font-size:10px;font-family:OpenSans;fill:#555;" text-anchor="middle" x="0" y="-6.000000">S1209S</text></g><a xlink:title=",  (1288aa)"><rect fill="#BABDB6" x="15.000000" y="74.500000" width="1329.548387" height="14.000000"/></a><g transform="translate(62.483871,69.500000)"><a xlink:href="https://www.ebi.ac.uk/interpro/entry/pfam/PF00754" xlink:title="F5/8 type C domain"><rect fill="#2DCF00" x="0" y="0" width="132.129032" height="24.000000" filter="url(#ds)"/><text style="font-size:12px;font-family:OpenSans;fill:#ffffff;" text-anchor="middle" x="66.064516" y="16.000000">F5/8 type C domain</text></a></g>
<g transform="translate(233.838710,69.500000)"><a xlink:href="https://www.ebi.ac.uk/interpro/entry/pfam/PF02210" xlink:title="Laminin G domain"><rect fill="#FF5353" x="0" y="0" width="132.129032" height="24.000000" filter="url(#ds)"/><text style="font-size:12px;font-family:OpenSans;fill:#ffffff;" text-anchor="middle" x="66.064516" y="16.000000">Laminin G domain</text></a></g>
<g transform="translate(425.838710,69.500000)"><a xlink:href="https://www.ebi.ac.uk/interpro/entry/pfam/PF02210" xlink:title="Laminin G domain"><rect fill="#5B5BFF" x="0" y="0" width="126.967742" height="24.000000" filter="url(#ds)"/><text style="font-size:12px;font-family:OpenSans;fill:#ffffff;" text-anchor="middle" x="63.483871" y="16.000000">Laminin G domain</text></a></g>
<g transform="translate(583.774194,69.500000)"><a xlink:href="https://www.ebi.ac.uk/interpro/entry/pfam/PF00008" xlink:title="EGF-like domain"><rect fill="#EBD61D" x="0" y="0" width="32.000000" height="24.000000" filter="url(#ds)"/><text style="font-size:12px;font-family:OpenSans;fill:#ffffff;" text-anchor="middle" x="16.000000" y="16.000000">EGF</text></a></g>
<g transform="translate(862.483871,69.500000)"><a xlink:href="https://www.ebi.ac.uk/interpro/entry/pfam/PF02210" xlink:title="Laminin G domain"><rect fill="#BA21E0" x="0" y="0" width="121.806452" height="24.000000" filter="url(#ds)"/><text style="font-size:12px;font-family:OpenSans;fill:#ffffff;" text-anchor="middle" x="60.903226" y="16.000000">Laminin G domain</text></a></g>
<g transform="translate(1094.741935,69.500000)"><a xlink:href="https://www.ebi.ac.uk/interpro/entry/pfam/PF02210" xlink:title="Laminin G domain"><rect fill="#FF9C42" x="0" y="0" width="132.129032" height="24.000000" filter="url(#ds)"/><text style="font-size:12px;font-family:OpenSans;fill:#ffffff;" text-anchor="middle" x="66.064516" y="16.000000">Laminin G domain</text></a></g>
<g class="axis">
<line x1="15.000000" x2="1344.548387" y1="103.500000" y2="103.500000" stroke="#AAAAAA" /><line x1="15.000000" x2="15.000000" y1="103.500000" y2="108.500000" stroke="#AAAAAA" /><line x1="15.000000" x2="15.000000" y1="103.500000" y2="108.500000" stroke="#AAAAAA" /><text style="font-size:10px;font-family:OpenSans;fill:#000000;" text-anchor="middle" x="15.000000" y="118.500000">0</text><line x1="62.483871" x2="62.483871" y1="103.500000" y2="108.500000" stroke="#AAAAAA" /><text style="font-size:10px;font-family:OpenSans;fill:#000000;" text-anchor="middle" x="62.483871" y="118.500000">46</text><line x1="194.612903" x2="194.612903" y1="103.500000" y2="108.500000" stroke="#AAAAAA" /><text style="font-size:10px;font-family:OpenSans;fill:#000000;" text-anchor="middle" x="194.612903" y="118.500000">174</text><line x1="233.838710" x2="233.838710" y1="103.500000" y2="108.500000" stroke="#AAAAAA" /><text style="font-size:10px;font-family:OpenSans;fill:#000000;" text-anchor="middle" x="233.838710" y="118.500000">212</text><line x1="365.967742" x2="365.967742" y1="103.500000" y2="108.500000" stroke="#AAAAAA" /><text style="font-size:10px;font-family:OpenSans;fill:#000000;" text-anchor="middle" x="365.967742" y="118.500000">340</text><line x1="425.838710" x2="425.838710" y1="103.500000" y2="108.500000" stroke="#AAAAAA" /><text style="font-size:10px;font-family:OpenSans;fill:#000000;" text-anchor="middle" x="425.838710" y="118.500000">398</text><line x1="552.806452" x2="552.806452" y1="103.500000" y2="108.500000" stroke="#AAAAAA" /><text style="font-size:10px;font-family:OpenSans;fill:#000000;" text-anchor="middle" x="552.806452" y="118.500000">521</text><line x1="583.774194" x2="583.774194" y1="103.500000" y2="108.500000" stroke="#AAAAAA" /><text style="font-size:10px;font-family:OpenSans;fill:#000000;" text-anchor="middle" x="583.774194" y="118.500000">551</text><line x1="615.774194" x2="615.774194" y1="103.500000" y2="108.500000" stroke="#AAAAAA" /><text style="font-size:10px;font-family:OpenSans;fill:#000000;" text-anchor="middle" x="615.774194" y="118.500000">582</text><line x1="879.000000" x2="879.000000" y1="103.500000" y2="108.500000" stroke="#AAAAAA" /><text style="font-size:10px;font-family:OpenSans;fill:#000000;" text-anchor="middle" x="879.000000" y="118.500000">837</text><line x1="984.290323" x2="984.290323" y1="103.500000" y2="108.500000" stroke="#AAAAAA" /><text style="font-size:10px;font-family:OpenSans;fill:#000000;" text-anchor="middle" x="984.290323" y="118.500000">939</text><line x1="1094.741935" x2="1094.741935" y1="103.500000" y2="108.500000" stroke="#AAAAAA" /><text style="font-size:10px;font-family:OpenSans;fill:#000000;" text-anchor="middle" x="1094.741935" y="118.500000">1046</text><line x1="1164.935484" x2="1164.935484" y1="103.500000" y2="108.500000" stroke="#AAAAAA" /><text style="font-size:10px;font-family:OpenSans;fill:#000000;" text-anchor="middle" x="1164.935484" y="118.500000">1114</text><line x1="1226.870968" x2="1226.870968" y1="103.500000" y2="108.500000" stroke="#AAAAAA" /><text style="font-size:10px;font-family:OpenSans;fill:#000000;" text-anchor="middle" x="1226.870968" y="118.500000">1174</text><line x1="1248.548387" x2="1248.548387" y1="103.500000" y2="108.500000" stroke="#AAAAAA" /><text style="font-size:10px;font-family:OpenSans;fill:#000000;" text-anchor="middle" x="1248.548387" y="118.500000">1195</text><line x1="1344.548387" x2="1344.548387" y1="103.500000" y2="108.500000" stroke="#AAAAAA" /><text style="font-size:10px;font-family:OpenSans;fill:#000000;" text-anchor="middle" x="1344.548387" y="118.500000">1288</text></g>
<rect fill="#EBD61D" x="4" y="132.500000" width="12" height="12" filter="url(#ds)"/><text style="font-size:12px;font-family:OpenSans;fill:#000000;" text-anchor="start" x="20" y="144.500000">EGF-like domain</text></svg>
