<?xml version='1.0'?>
<svg xmlns="http://www.w3.org/2000/svg" xmlns:xlink="http://www.w3.org/1999/xlink" width="430.000000" height="159.400000">
<defs>
  <filter id="ds" x="0" y="0">
    <feOffset in="SourceAlpha" dx="2" dy="2" />
    <feComponentTransfer><feFuncA type="linear" slope="0.2"/></feComponentTransfer>
    <feGaussianBlur result="blurOut" stdDeviation="1" />
    <feBlend in="SourceGraphic" in2="blurOut" mode="normal" />
  </filter>
  <pattern id="disordered-hatch" patternUnits="userSpaceOnUse" width="4" height="4">
    <path d="M-1,1 l2,-2 M0,4 l4,-4 M3,5 l2,-2" stroke="#000000" opacity="0.3" />
  </pattern>
</defs>
<line x1="120.314010" x2="120.314010" y1="34.000000" y2="62.000000" stroke="#BABDB6" stroke-width="2"/><a xlink:title="N218N"><circle cx="120.314010" cy="34.000000" r="4.000000" fill="#0000ff" /></a><g transform="translate(120.314010,34.000000) rotate(-30)"><text style="font-size:10px;font-family:OpenSans;fill:#555;" text-anchor="middle" x="0" y="-6.000000">N218N</text></g><line x1="224.178744" x2="224.178744" y1="34.000000" y2="62.000000" stroke="#BABDB6" stroke-width="2"/><a xlink:title="E433E"><circle cx="224.178744" cy="34.000000" r="4.000000" fill="#0000ff" /></a><g transform="translate(224.178744,34.000000) rotate(-30)"><text style="font-size:10px;font-family:OpenSans;fill:#555;" text-anchor="middle" x="0" y="-6.000000">E433E</text></g><line x1="255.096618" x2="255.096618" y1="34.000000" y2="62.000000" stroke="#BABDB6" stroke-width="2"/><a xlink:title="Q497Q"><circle cx="255.096618" cy="34.000000" r="4.000000" fill="#0000ff" /></a><g transform="translate(255.096618,34.000000) rotate(-30)"><text style="font-size:10px;font-family:OpenSans;fill:#555;" text-anchor="middle" x="0" y="-6.000000">Q497Q</text></g><line x1="273.937198" x2="273.937198" y1="34.000000" y2="62.000000" stroke="#BABDB6" stroke-width="2"/><a xlink:title="S536F"><circle cx="273.937198" cy="34.000000" r="4.000000" fill="#ff0000" /></a><g transform="translate(273.937198,34.000000) rotate(-30)"><text style="font-size:10px;font-family:OpenSans;fill:#555;" text-anchor="middle" x="0" y="-6.000000">S536F</text></g><line x1="339.637681" x2="339.637681" y1="34.000000" y2="62.000000" stroke="#BABDB6" stroke-width="2"/><a xlink:title="Q672Q"><circle cx="339.637681" cy="34.000000" r="4.000000" fill="#0000ff" /></a><g transform="translate(339.637681,34.000000) rotate(-30)"><text style="font-size:10px;font-family:OpenSans;fill:#555;" text-anchor="middle" x="0" y="-6.000000">Q672Q</text></g><line x1="375.869565" x2="375.869565" y1="34.000000" y2="62.000000" stroke="#BABDB6" stroke-width="2"/><a xlink:title="N747S"><circle cx="375.869565" cy="34.000000" r="4.000000" fill="#ff0000" /></a><g transform="translate(375.869565,34.000000) rotate(-30)"><text style="font-size:10px;font-family:OpenSans;fill:#555;" text-anchor="middle" x="0" y="-6.000000">N747S</text></g><line x1="413.550725" x2="413.550725" y1="34.000000" y2="62.000000" stroke="#BABDB6" stroke-width="2"/><a xlink:title="L825S"><circle cx="413.550725" cy="34.000000" r="4.000000" fill="#ff0000" /></a><g transform="translate(413.550725,34.000000) rotate(-30)"><text style="font-size:10px;font-family:OpenSans;fill:#555;" text-anchor="middle" x="0" y="-6.000000">L825S</text></g><a xlink:title=",  (828aa)"><rect fill="#BABDB6" x="15.000000" y="62.000000" width="400.000000" height="14.000000"/></a><g transform="translate(77.801932,57.000000)"><a xlink:href="https://www.ebi.ac.uk/interpro/entry/pfam/PF04136" xlink:title="Conserved oligomeric Golgi complex subunit 3, N-terminal"><rect fill="#2DCF00" x="0" y="0" width="68.599034" height="24.000000" filter="url(#ds)"/><text style="font-size:12px;font-family:OpenSans;fill:#ffffff;" text-anchor="middle" x="34.299517" y="16.000000">COG3_N</text></a></g>
<g transform="translate(157.028986,57.000000)"><a xlink:href="https://www.ebi.ac.uk/interpro/entry/pfam/PF20671" xlink:title="Conserved oligomeric Golgi complex subunit 3, C-terminal"><rect fill="#FF5353" x="0" y="0" width="167.632850" height="24.000000" filter="url(#ds)"/><text style="font-size:12px;font-family:OpenSans;fill:#ffffff;" text-anchor="middle" x="83.816425" y="16.000000">COG3_C</text></a></g>
<g class="axis">
<line x1="15.000000" x2="415.000000" y1="91.000000" y2="91.000000" stroke="#AAAAAA" /><line x1="15.000000" x2="15.000000" y1="91.000000" y2="96.000000" stroke="#AAAAAA" /><line x1="15.000000" x2="15.000000" y1="91.000000" y2="96.000000" stroke="#AAAAAA" /><text style="font-size:10px;font-family:OpenSans;fill:#000000;" text-anchor="middle" x="15.000000" y="106.000000">0</text><line x1="77.801932" x2="77.801932" y1="91.000000" y2="96.000000" stroke="#AAAAAA" /><text style="font-size:10px;font-family:OpenSans;fill:#000000;" text-anchor="middle" x="77.801932" y="106.000000">130</text><line x1="120.314010" x2="120.314010" y1="91.000000" y2="96.000000" stroke="#AAAAAA" /><text style="font-size:10px;font-family:OpenSans;fill:#000000;" text-anchor="middle" x="120.314010" y="106.000000">218</text><line x1="146.400966" x2="146.400966" y1="91.000000" y2="96.000000" stroke="#AAAAAA" /><text style="font-size:10px;font-family:OpenSans;fill:#000000;" text-anchor="middle" x="146.400966" y="106.000000">272</text><line x1="224.178744" x2="224.178744" y1="91.000000" y2="96.000000" stroke="#AAAAAA" /><text style="font-size:10px;font-family:OpenSans;fill:#000000;" text-anchor="middle" x="224.178744" y="106.000000">433</text><line x1="255.096618" x2="255.096618" y1="91.000000" y2="96.000000" stroke="#AAAAAA" /><text style="font-size:10px;font-family:OpenSans;fill:#000000;" text-anchor="middle" x="255.096618" y="106.000000">497</text><line x1="339.637681" x2="339.637681" y1="91.000000" y2="96.000000" stroke="#AAAAAA" /><text style="font-size:10px;font-family:OpenSans;fill:#000000;" text-anchor="middle" x="339.637681" y="106.000000">672</text><line x1="375.869565" x2="375.869565" y1="91.000000" y2="96.000000" stroke="#AAAAAA" /><text style="font-size:10px;font-family:OpenSans;fill:#000000;" text-anchor="middle" x="375.869565" y="106.000000">747</text><line x1="415.000000" x2="415.000000" y1="91.000000" y2="96.000000" stroke="#AAAAAA" /><text style="font-size:10px;font-family:OpenSans;fill:#000000;" text-anchor="middle" x="415.000000" y="106.000000">828</text></g>
<rect fill="#2DCF00" x="4" y="120.000000" width="12" height="12" filter="url(#ds)"/><text style="font-size:12px;font-family:OpenSans;fill:#000000;" text-anchor="start" x="20" y="132.000000">Conserved oligomeric Golgi complex subunit 3, N-terminal</text><rect fill="#FF5353" x="4" y="134.000000" width="12" height="12" filter="url(#ds)"/><text style="font-size:12px;font-family:OpenSans;fill:#000000;" text-anchor="start" x="20" y="146.000000">Conserved oligomeric Golgi complex subunit 3, C-terminal</text></svg>
