<?xml version='1.0'?>
<svg xmlns="http://www.w3.org/2000/svg" xmlns:xlink="http://www.w3.org/1999/xlink" width="3647.625000" height="171.900000">
<defs>
  <filter id="ds" x="0" y="0">
    <feOffset in="SourceAlpha" dx="2" dy="2" />
    <feComponentTransfer><feFuncA type="linear" slope="0.2"/></feComponentTransfer>
    <feGaussianBlur result="blurOut" stdDeviation="1" />
    <feBlend in="SourceGraphic" in2="blurOut" mode="normal" />
  </filter>
  <pattern id="disordered-hatch" patternUnits="userSpaceOnUse" width="4" height="4">
    <path d="M-1,1 l2,-2 M0,4 l4,-4 M3,5 l2,-2" stroke="#000000" opacity="0.3" />
  </pattern>
</defs>
<line x1="37.687500" x2="37.687500" y1="46.500000" y2="74.500000" stroke="#BABDB6" stroke-width="2"/><a xlink:title="R11W"><circle cx="37.687500" cy="46.500000" r="4.000000" fill="#ff0000" /></a><g transform="translate(37.687500,46.500000) rotate(-30)"><text style="font-size:10px;font-family:OpenSans;fill:#555;" text-anchor="middle" x="0" y="-6.000000">R11W</text></g><line x1="421.312500" x2="421.312500" y1="46.500000" y2="74.500000" stroke="#BABDB6" stroke-width="2"/><a xlink:title="S197S"><circle cx="421.312500" cy="46.500000" r="4.000000" fill="#0000ff" /></a><g transform="translate(421.312500,46.500000) rotate(-30)"><text style="font-size:10px;font-family:OpenSans;fill:#555;" text-anchor="middle" x="0" y="-6.000000">S197S</text></g><line x1="545.062500" x2="545.062500" y1="46.500000" y2="74.500000" stroke="#BABDB6" stroke-width="2"/><a xlink:title="V257I"><circle cx="545.062500" cy="46.500000" r="4.000000" fill="#ff0000" /></a><g transform="translate(545.062500,46.500000) rotate(-30)"><text style="font-size:10px;font-family:OpenSans;fill:#555;" text-anchor="middle" x="0" y="-6.000000">V257I</text></g><line x1="615.187500" x2="615.187500" y1="46.500000" y2="74.500000" stroke="#BABDB6" stroke-width="2"/><a xlink:title="T291T"><circle cx="615.187500" cy="46.500000" r="4.000000" fill="#0000ff" /></a><g transform="translate(615.187500,46.500000) rotate(-30)"><text style="font-size:10px;font-family:OpenSans;fill:#555;" text-anchor="middle" x="0" y="-6.000000">T291T</text></g><line x1="796.687500" x2="796.687500" y1="46.500000" y2="74.500000" stroke="#BABDB6" stroke-width="2"/><a xlink:title="T379R"><circle cx="796.687500" cy="46.500000" r="4.000000" fill="#ff0000" /></a><g transform="translate(796.687500,46.500000) rotate(-30)"><text style="font-size:10px;font-family:OpenSans;fill:#555;" text-anchor="middle" x="0" y="-6.000000">T379R</text></g><line x1="848.250000" x2="848.250000" y1="34.000000" y2="74.500000" stroke="#BABDB6" stroke-width="2"/><a xlink:title="A404P"><circle cx="848.250000" cy="34.000000" r="4.000000" fill="#ff0000" /></a><g transform="translate(848.250000,34.000000) rotate(-30)"><text style="font-size:10px;font-family:OpenSans;fill:#555;" text-anchor="middle" x="0" y="-6.000000">A404P</text></g><line x1="852.375000" x2="852.375000" y1="46.500000" y2="74.500000" stroke="#BABDB6" stroke-width="2"/><a xlink:title="P406P"><circle cx="852.375000" cy="46.500000" r="4.000000" fill="#0000ff" /></a><g transform="translate(852.375000,46.500000) rotate(-30)"><text style="font-size:10px;font-family:OpenSans;fill:#555;" text-anchor="middle" x="0" y="-6.000000">P406P</text></g><line x1="986.437500" x2="986.437500" y1="46.500000" y2="74.500000" stroke="#BABDB6" stroke-width="2"/><a xlink:title="T471T"><circle cx="986.437500" cy="46.500000" r="4.000000" fill="#0000ff" /></a><g transform="translate(986.437500,46.500000) rotate(-30)"><text style="font-size:10px;font-family:OpenSans;fill:#555;" text-anchor="middle" x="0" y="-6.000000">T471T</text></g><line x1="1172.062500" x2="1172.062500" y1="46.500000" y2="74.500000" stroke="#BABDB6" stroke-width="2"/><a xlink:title="A561A"><circle cx="1172.062500" cy="46.500000" r="4.000000" fill="#0000ff" /></a><g transform="translate(1172.062500,46.500000) rotate(-30)"><text style="font-size:10px;font-family:OpenSans;fill:#555;" text-anchor="middle" x="0" y="-6.000000">A561A</text></g><line x1="1359.750000" x2="1359.750000" y1="46.500000" y2="74.500000" stroke="#BABDB6" stroke-width="2"/><a xlink:title="A652A"><circle cx="1359.750000" cy="46.500000" r="4.000000" fill="#0000ff" /></a><g transform="translate(1359.750000,46.500000) rotate(-30)"><text style="font-size:10px;font-family:OpenSans;fill:#555;" text-anchor="middle" x="0" y="-6.000000">A652A</text></g><line x1="1471.125000" x2="1471.125000" y1="46.500000" y2="74.500000" stroke="#BABDB6" stroke-width="2"/><a xlink:title="T706T"><circle cx="1471.125000" cy="46.500000" r="4.000000" fill="#0000ff" /></a><g transform="translate(1471.125000,46.500000) rotate(-30)"><text style="font-size:10px;font-family:OpenSans;fill:#555;" text-anchor="middle" x="0" y="-6.000000">T706T</text></g><line x1="1543.312500" x2="1543.312500" y1="46.500000" y2="74.500000" stroke="#BABDB6" stroke-width="2"/><a xlink:title="A741A"><circle cx="1543.312500" cy="46.500000" r="4.000000" fill="#0000ff" /></a><g transform="translate(1543.312500,46.500000) rotate(-30)"><text style="font-size:10px;font-family:OpenSans;fill:#555;" text-anchor="middle" x="0" y="-6.000000">A741A</text></g><line x1="1731.000000" x2="1731.000000" y1="46.500000" y2="74.500000" stroke="#BABDB6" stroke-width="2"/><a xlink:title="A832A"><circle cx="1731.000000" cy="46.500000" r="4.000000" fill="#0000ff" /></a><g transform="translate(1731.000000,46.500000) rotate(-30)"><text style="font-size:10px;font-family:OpenSans;fill:#555;" text-anchor="middle" x="0" y="-6.000000">A832A</text></g><line x1="1780.500000" x2="1780.500000" y1="46.500000" y2="74.500000" stroke="#BABDB6" stroke-width="2"/><a xlink:title="Y856Y"><circle cx="1780.500000" cy="46.500000" r="4.000000" fill="#0000ff" /></a><g transform="translate(1780.500000,46.500000) rotate(-30)"><text style="font-size:10px;font-family:OpenSans;fill:#555;" text-anchor="middle" x="0" y="-6.000000">Y856Y</text></g><line x1="2028.000000" x2="2028.000000" y1="46.500000" y2="74.500000" stroke="#BABDB6" stroke-width="2"/><a xlink:title="A976A"><circle cx="2028.000000" cy="46.500000" r="4.000000" fill="#0000ff" /></a><g transform="translate(2028.000000,46.500000) rotate(-30)"><text style="font-size:10px;font-family:OpenSans;fill:#555;" text-anchor="middle" x="0" y="-6.000000">A976A</text></g><line x1="2056.875000" x2="2056.875000" y1="46.500000" y2="74.500000" stroke="#BABDB6" stroke-width="2"/><a xlink:title="P990P"><circle cx="2056.875000" cy="46.500000" r="4.000000" fill="#0000ff" /></a><g transform="translate(2056.875000,46.500000) rotate(-30)"><text style="font-size:10px;font-family:OpenSans;fill:#555;" text-anchor="middle" x="0" y="-6.000000">P990P</text></g><line x1="2151.750000" x2="2151.750000" y1="46.500000" y2="74.500000" stroke="#BABDB6" stroke-width="2"/><a xlink:title="Y1036Y"><circle cx="2151.750000" cy="46.500000" r="4.000000" fill="#0000ff" /></a><g transform="translate(2151.750000,46.500000) rotate(-30)"><text style="font-size:10px;font-family:OpenSans;fill:#555;" text-anchor="middle" x="0" y="-6.000000">Y1036Y</text></g><line x1="2215.687500" x2="2215.687500" y1="46.500000" y2="74.500000" stroke="#BABDB6" stroke-width="2"/><a xlink:title="A1067A"><circle cx="2215.687500" cy="46.500000" r="4.000000" fill="#0000ff" /></a><g transform="translate(2215.687500,46.500000) rotate(-30)"><text style="font-size:10px;font-family:OpenSans;fill:#555;" text-anchor="middle" x="0" y="-6.000000">A1067A</text></g><line x1="2421.937500" x2="2421.937500" y1="46.500000" y2="74.500000" stroke="#BABDB6" stroke-width="2"/><a xlink:title="P1167P"><circle cx="2421.937500" cy="46.500000" r="4.000000" fill="#0000ff" /></a><g transform="translate(2421.937500,46.500000) rotate(-30)"><text style="font-size:10px;font-family:OpenSans;fill:#555;" text-anchor="middle" x="0" y="-6.000000">P1167P</text></g><line x1="2440.500000" x2="2440.500000" y1="46.500000" y2="74.500000" stroke="#BABDB6" stroke-width="2"/><a xlink:title="S1176S"><circle cx="2440.500000" cy="46.500000" r="4.000000" fill="#0000ff" /></a><g transform="translate(2440.500000,46.500000) rotate(-30)"><text style="font-size:10px;font-family:OpenSans;fill:#555;" text-anchor="middle" x="0" y="-6.000000">S1176S</text></g><line x1="2593.125000" x2="2593.125000" y1="46.500000" y2="74.500000" stroke="#BABDB6" stroke-width="2"/><a xlink:title="L1250L"><circle cx="2593.125000" cy="46.500000" r="4.000000" fill="#0000ff" /></a><g transform="translate(2593.125000,46.500000) rotate(-30)"><text style="font-size:10px;font-family:OpenSans;fill:#555;" text-anchor="middle" x="0" y="-6.000000">L1250L</text></g><line x1="2636.437500" x2="2636.437500" y1="46.500000" y2="74.500000" stroke="#BABDB6" stroke-width="2"/><a xlink:title="Y1271Y"><circle cx="2636.437500" cy="46.500000" r="4.000000" fill="#0000ff" /></a><g transform="translate(2636.437500,46.500000) rotate(-30)"><text style="font-size:10px;font-family:OpenSans;fill:#555;" text-anchor="middle" x="0" y="-6.000000">Y1271Y</text></g><line x1="2805.562500" x2="2805.562500" y1="46.500000" y2="74.500000" stroke="#BABDB6" stroke-width="2"/><a xlink:title="S1353S"><circle cx="2805.562500" cy="46.500000" r="4.000000" fill="#0000ff" /></a><g transform="translate(2805.562500,46.500000) rotate(-30)"><text style="font-size:10px;font-family:OpenSans;fill:#555;" text-anchor="middle" x="0" y="-6.000000">S1353S</text></g><line x1="2906.625000" x2="2906.625000" y1="46.500000" y2="74.500000" stroke="#BABDB6" stroke-width="2"/><a xlink:title="P1402P"><circle cx="2906.625000" cy="46.500000" r="4.000000" fill="#0000ff" /></a><g transform="translate(2906.625000,46.500000) rotate(-30)"><text style="font-size:10px;font-family:OpenSans;fill:#555;" text-anchor="middle" x="0" y="-6.000000">P1402P</text></g><line x1="2958.187500" x2="2958.187500" y1="46.500000" y2="74.500000" stroke="#BABDB6" stroke-width="2"/><a xlink:title="L1427L"><circle cx="2958.187500" cy="46.500000" r="4.000000" fill="#0000ff" /></a><g transform="translate(2958.187500,46.500000) rotate(-30)"><text style="font-size:10px;font-family:OpenSans;fill:#555;" text-anchor="middle" x="0" y="-6.000000">L1427L</text></g><line x1="3290.250000" x2="3290.250000" y1="46.500000" y2="74.500000" stroke="#BABDB6" stroke-width="2"/><a xlink:title="S1588S"><circle cx="3290.250000" cy="46.500000" r="4.000000" fill="#0000ff" /></a><g transform="translate(3290.250000,46.500000) rotate(-30)"><text style="font-size:10px;font-family:OpenSans;fill:#555;" text-anchor="middle" x="0" y="-6.000000">S1588S</text></g><line x1="3442.875000" x2="3442.875000" y1="46.500000" y2="74.500000" stroke="#BABDB6" stroke-width="2"/><a xlink:title="L1662L"><circle cx="3442.875000" cy="46.500000" r="4.000000" fill="#0000ff" /></a><g transform="translate(3442.875000,46.500000) rotate(-30)"><text style="font-size:10px;font-family:OpenSans;fill:#555;" text-anchor="middle" x="0" y="-6.000000">L1662L</text></g><a xlink:title=",  (1754aa)"><rect fill="#BABDB6" x="15.000000" y="74.500000" width="3617.625000" height="14.000000"/></a><g transform="translate(41.812500,69.500000)"><a xlink:href="https://www.ebi.ac.uk/interpro/entry/pfam/PF06121" xlink:title="Domain of Unknown Function (DUF959)"><rect fill="#2DCF00" x="0" y="0" width="369.187500" height="24.000000" filter="url(#ds)"/><text style="font-size:12px;font-family:OpenSans;fill:#ffffff;" text-anchor="middle" x="184.593750" y="16.000000">Domain of Unknown Function (DUF959)</text></a></g>
<g transform="translate(716.250000,69.500000)"><a xlink:href="https://www.ebi.ac.uk/interpro/entry/pfam/PF01392" xlink:title="Fz domain"><rect fill="#FF5353" x="0" y="0" width="202.125000" height="24.000000" filter="url(#ds)"/><text style="font-size:12px;font-family:OpenSans;fill:#ffffff;" text-anchor="middle" x="101.062500" y="16.000000">Fz domain</text></a></g>
<g transform="translate(1937.250000,69.500000)"><a xlink:href="https://www.ebi.ac.uk/interpro/entry/pfam/PF01391" xlink:title="Collagen triple helix repeat (20 copies)"><rect fill="#5B5BFF" x="0" y="0" width="111.375000" height="24.000000" filter="url(#ds)"/><text style="font-size:12px;font-family:OpenSans;fill:#ffffff;" text-anchor="middle" x="55.687500" y="16.000000">Collagen</text></a></g>
<g transform="translate(2170.312500,69.500000)"><a xlink:href="https://www.ebi.ac.uk/interpro/entry/pfam/PF01391" xlink:title="Collagen triple helix repeat (20 copies)"><rect fill="#EBD61D" x="0" y="0" width="90.750000" height="24.000000" filter="url(#ds)"/><text style="font-size:12px;font-family:OpenSans;fill:#ffffff;" text-anchor="middle" x="45.375000" y="16.000000">Collagen</text></a></g>
<g transform="translate(2479.687500,69.500000)"><a xlink:href="https://www.ebi.ac.uk/interpro/entry/pfam/PF01391" xlink:title="Collagen triple helix repeat (20 copies)"><rect fill="#BA21E0" x="0" y="0" width="99.000000" height="24.000000" filter="url(#ds)"/><text style="font-size:12px;font-family:OpenSans;fill:#ffffff;" text-anchor="middle" x="49.500000" y="16.000000">Collagen</text></a></g>
<g transform="translate(2995.312500,69.500000)"><a xlink:href="https://www.ebi.ac.uk/interpro/entry/pfam/PF20010" xlink:title="Collagen trimerization domain"><rect fill="#FF9C42" x="0" y="0" width="99.000000" height="24.000000" filter="url(#ds)"/><text style="font-size:12px;font-family:OpenSans;fill:#ffffff;" text-anchor="middle" x="49.500000" y="16.000000">Collagen_trimer</text></a></g>
<g transform="translate(3275.812500,69.500000)"><a xlink:href="https://www.ebi.ac.uk/interpro/entry/pfam/PF06482" xlink:title="Collagenase NC10 and Endostatin"><rect fill="#FF7DFF" x="0" y="0" width="348.562500" height="24.000000" filter="url(#ds)"/><text style="font-size:12px;font-family:OpenSans;fill:#ffffff;" text-anchor="middle" x="174.281250" y="16.000000">Collagenase NC10 and Endostatin</text></a></g>
<g class="axis">
<line x1="15.000000" x2="3632.625000" y1="103.500000" y2="103.500000" stroke="#AAAAAA" /><line x1="15.000000" x2="15.000000" y1="103.500000" y2="108.500000" stroke="#AAAAAA" /><line x1="15.000000" x2="15.000000" y1="103.500000" y2="108.500000" stroke="#AAAAAA" /><text style="font-size:10px;font-family:OpenSans;fill:#000000;" text-anchor="middle" x="15.000000" y="118.500000">0</text><line x1="37.687500" x2="37.687500" y1="103.500000" y2="108.500000" stroke="#AAAAAA" /><text style="font-size:10px;font-family:OpenSans;fill:#000000;" text-anchor="middle" x="37.687500" y="118.500000">11</text><line x1="421.312500" x2="421.312500" y1="103.500000" y2="108.500000" stroke="#AAAAAA" /><text style="font-size:10px;font-family:OpenSans;fill:#000000;" text-anchor="middle" x="421.312500" y="118.500000">197</text><line x1="545.062500" x2="545.062500" y1="103.500000" y2="108.500000" stroke="#AAAAAA" /><text style="font-size:10px;font-family:OpenSans;fill:#000000;" text-anchor="middle" x="545.062500" y="118.500000">257</text><line x1="615.187500" x2="615.187500" y1="103.500000" y2="108.500000" stroke="#AAAAAA" /><text style="font-size:10px;font-family:OpenSans;fill:#000000;" text-anchor="middle" x="615.187500" y="118.500000">291</text><line x1="716.250000" x2="716.250000" y1="103.500000" y2="108.500000" stroke="#AAAAAA" /><text style="font-size:10px;font-family:OpenSans;fill:#000000;" text-anchor="middle" x="716.250000" y="118.500000">340</text><line x1="796.687500" x2="796.687500" y1="103.500000" y2="108.500000" stroke="#AAAAAA" /><text style="font-size:10px;font-family:OpenSans;fill:#000000;" text-anchor="middle" x="796.687500" y="118.500000">379</text><line x1="848.250000" x2="848.250000" y1="103.500000" y2="108.500000" stroke="#AAAAAA" /><text style="font-size:10px;font-family:OpenSans;fill:#000000;" text-anchor="middle" x="848.250000" y="118.500000">404</text><line x1="918.375000" x2="918.375000" y1="103.500000" y2="108.500000" stroke="#AAAAAA" /><text style="font-size:10px;font-family:OpenSans;fill:#000000;" text-anchor="middle" x="918.375000" y="118.500000">438</text><line x1="986.437500" x2="986.437500" y1="103.500000" y2="108.500000" stroke="#AAAAAA" /><text style="font-size:10px;font-family:OpenSans;fill:#000000;" text-anchor="middle" x="986.437500" y="118.500000">471</text><line x1="1172.062500" x2="1172.062500" y1="103.500000" y2="108.500000" stroke="#AAAAAA" /><text style="font-size:10px;font-family:OpenSans;fill:#000000;" text-anchor="middle" x="1172.062500" y="118.500000">561</text><line x1="1359.750000" x2="1359.750000" y1="103.500000" y2="108.500000" stroke="#AAAAAA" /><text style="font-size:10px;font-family:OpenSans;fill:#000000;" text-anchor="middle" x="1359.750000" y="118.500000">652</text><line x1="1471.125000" x2="1471.125000" y1="103.500000" y2="108.500000" stroke="#AAAAAA" /><text style="font-size:10px;font-family:OpenSans;fill:#000000;" text-anchor="middle" x="1471.125000" y="118.500000">706</text><line x1="1543.312500" x2="1543.312500" y1="103.500000" y2="108.500000" stroke="#AAAAAA" /><text style="font-size:10px;font-family:OpenSans;fill:#000000;" text-anchor="middle" x="1543.312500" y="118.500000">741</text><line x1="1731.000000" x2="1731.000000" y1="103.500000" y2="108.500000" stroke="#AAAAAA" /><text style="font-size:10px;font-family:OpenSans;fill:#000000;" text-anchor="middle" x="1731.000000" y="118.500000">832</text><line x1="1780.500000" x2="1780.500000" y1="103.500000" y2="108.500000" stroke="#AAAAAA" /><text style="font-size:10px;font-family:OpenSans;fill:#000000;" text-anchor="middle" x="1780.500000" y="118.500000">856</text><line x1="1937.250000" x2="1937.250000" y1="103.500000" y2="108.500000" stroke="#AAAAAA" /><text style="font-size:10px;font-family:OpenSans;fill:#000000;" text-anchor="middle" x="1937.250000" y="118.500000">932</text><line x1="2028.000000" x2="2028.000000" y1="103.500000" y2="108.500000" stroke="#AAAAAA" /><text style="font-size:10px;font-family:OpenSans;fill:#000000;" text-anchor="middle" x="2028.000000" y="118.500000">976</text><line x1="2056.875000" x2="2056.875000" y1="103.500000" y2="108.500000" stroke="#AAAAAA" /><text style="font-size:10px;font-family:OpenSans;fill:#000000;" text-anchor="middle" x="2056.875000" y="118.500000">990</text><line x1="2151.750000" x2="2151.750000" y1="103.500000" y2="108.500000" stroke="#AAAAAA" /><text style="font-size:10px;font-family:OpenSans;fill:#000000;" text-anchor="middle" x="2151.750000" y="118.500000">1036</text><line x1="2170.312500" x2="2170.312500" y1="103.500000" y2="108.500000" stroke="#AAAAAA" /><text style="font-size:10px;font-family:OpenSans;fill:#000000;" text-anchor="middle" x="2170.312500" y="118.500000">1045</text><line x1="2215.687500" x2="2215.687500" y1="103.500000" y2="108.500000" stroke="#AAAAAA" /><text style="font-size:10px;font-family:OpenSans;fill:#000000;" text-anchor="middle" x="2215.687500" y="118.500000">1067</text><line x1="2261.062500" x2="2261.062500" y1="103.500000" y2="108.500000" stroke="#AAAAAA" /><text style="font-size:10px;font-family:OpenSans;fill:#000000;" text-anchor="middle" x="2261.062500" y="118.500000">1089</text><line x1="2421.937500" x2="2421.937500" y1="103.500000" y2="108.500000" stroke="#AAAAAA" /><text style="font-size:10px;font-family:OpenSans;fill:#000000;" text-anchor="middle" x="2421.937500" y="118.500000">1167</text><line x1="2440.500000" x2="2440.500000" y1="103.500000" y2="108.500000" stroke="#AAAAAA" /><text style="font-size:10px;font-family:OpenSans;fill:#000000;" text-anchor="middle" x="2440.500000" y="118.500000">1176</text><line x1="2479.687500" x2="2479.687500" y1="103.500000" y2="108.500000" stroke="#AAAAAA" /><text style="font-size:10px;font-family:OpenSans;fill:#000000;" text-anchor="middle" x="2479.687500" y="118.500000">1195</text><line x1="2593.125000" x2="2593.125000" y1="103.500000" y2="108.500000" stroke="#AAAAAA" /><text style="font-size:10px;font-family:OpenSans;fill:#000000;" text-anchor="middle" x="2593.125000" y="118.500000">1250</text><line x1="2636.437500" x2="2636.437500" y1="103.500000" y2="108.500000" stroke="#AAAAAA" /><text style="font-size:10px;font-family:OpenSans;fill:#000000;" text-anchor="middle" x="2636.437500" y="118.500000">1271</text><line x1="2805.562500" x2="2805.562500" y1="103.500000" y2="108.500000" stroke="#AAAAAA" /><text style="font-size:10px;font-family:OpenSans;fill:#000000;" text-anchor="middle" x="2805.562500" y="118.500000">1353</text><line x1="2906.625000" x2="2906.625000" y1="103.500000" y2="108.500000" stroke="#AAAAAA" /><text style="font-size:10px;font-family:OpenSans;fill:#000000;" text-anchor="middle" x="2906.625000" y="118.500000">1402</text><line x1="2958.187500" x2="2958.187500" y1="103.500000" y2="108.500000" stroke="#AAAAAA" /><text style="font-size:10px;font-family:OpenSans;fill:#000000;" text-anchor="middle" x="2958.187500" y="118.500000">1427</text><line x1="2995.312500" x2="2995.312500" y1="103.500000" y2="108.500000" stroke="#AAAAAA" /><text style="font-size:10px;font-family:OpenSans;fill:#000000;" text-anchor="middle" x="2995.312500" y="118.500000">1445</text><line x1="3094.312500" x2="3094.312500" y1="103.500000" y2="108.500000" stroke="#AAAAAA" /><text style="font-size:10px;font-family:OpenSans;fill:#000000;" text-anchor="middle" x="3094.312500" y="118.500000">1493</text><line x1="3290.250000" x2="3290.250000" y1="103.500000" y2="108.500000" stroke="#AAAAAA" /><text style="font-size:10px;font-family:OpenSans;fill:#000000;" text-anchor="middle" x="3290.250000" y="118.500000">1588</text><line x1="3442.875000" x2="3442.875000" y1="103.500000" y2="108.500000" stroke="#AAAAAA" /><text style="font-size:10px;font-family:OpenSans;fill:#000000;" text-anchor="middle" x="3442.875000" y="118.500000">1662</text><line x1="3632.625000" x2="3632.625000" y1="103.500000" y2="108.500000" stroke="#AAAAAA" /><text style="font-size:10px;font-family:OpenSans;fill:#000000;" text-anchor="middle" x="3632.625000" y="118.500000">1754</text></g>
<rect fill="#BA21E0" x="4" y="132.500000" width="12" height="12" filter="url(#ds)"/><text style="font-size:12px;font-family:OpenSans;fill:#000000;" text-anchor="start" x="20" y="144.500000">Collagen triple helix repeat (20 copies)</text><rect fill="#FF9C42" x="4" y="146.500000" width="12" height="12" filter="url(#ds)"/><text style="font-size:12px;font-family:OpenSans;fill:#000000;" text-anchor="start" x="20" y="158.500000">Collagen trimerization domain</text></svg>
