<?xml version='1.0'?>
<svg xmlns="http://www.w3.org/2000/svg" xmlns:xlink="http://www.w3.org/1999/xlink" width="680.204082" height="158.700000">
<defs>
  <filter id="ds" x="0" y="0">
    <feOffset in="SourceAlpha" dx="2" dy="2" />
    <feComponentTransfer><feFuncA type="linear" slope="0.2"/></feComponentTransfer>
    <feGaussianBlur result="blurOut" stdDeviation="1" />
    <feBlend in="SourceGraphic" in2="blurOut" mode="normal" />
  </filter>
  <pattern id="disordered-hatch" patternUnits="userSpaceOnUse" width="4" height="4">
    <path d="M-1,1 l2,-2 M0,4 l4,-4 M3,5 l2,-2" stroke="#000000" opacity="0.3" />
  </pattern>
</defs>
<line x1="353.346939" x2="353.346939" y1="46.500000" y2="74.500000" stroke="#BABDB6" stroke-width="2"/><a xlink:title="N281S"><circle cx="353.346939" cy="46.500000" r="4.000000" fill="#ff0000" /></a><g transform="translate(353.346939,46.500000) rotate(-30)"><text style="font-size:10px;font-family:OpenSans;fill:#555;" text-anchor="middle" x="0" y="-6.000000">N281S</text></g><line x1="546.000000" x2="546.000000" y1="46.500000" y2="74.500000" stroke="#BABDB6" stroke-width="2"/><a xlink:title="R441Q"><circle cx="546.000000" cy="46.500000" r="4.000000" fill="#ff0000" /></a><g transform="translate(546.000000,46.500000) rotate(-30)"><text style="font-size:10px;font-family:OpenSans;fill:#555;" text-anchor="middle" x="0" y="-6.000000">R441Q</text></g><line x1="615.836735" x2="615.836735" y1="46.500000" y2="74.500000" stroke="#BABDB6" stroke-width="2"/><a xlink:title="R499Q"><circle cx="615.836735" cy="46.500000" r="4.000000" fill="#ff0000" /></a><g transform="translate(615.836735,46.500000) rotate(-30)"><text style="font-size:10px;font-family:OpenSans;fill:#555;" text-anchor="middle" x="0" y="-6.000000">R499Q</text></g><line x1="633.897959" x2="633.897959" y1="34.000000" y2="74.500000" stroke="#BABDB6" stroke-width="2"/><a xlink:title="R514Q"><circle cx="633.897959" cy="34.000000" r="4.000000" fill="#ff0000" /></a><g transform="translate(633.897959,34.000000) rotate(-30)"><text style="font-size:10px;font-family:OpenSans;fill:#555;" text-anchor="middle" x="0" y="-6.000000">R514Q</text></g><line x1="637.510204" x2="637.510204" y1="46.500000" y2="74.500000" stroke="#BABDB6" stroke-width="2"/><a xlink:title="R517Q"><circle cx="637.510204" cy="46.500000" r="4.000000" fill="#ff0000" /></a><g transform="translate(637.510204,46.500000) rotate(-30)"><text style="font-size:10px;font-family:OpenSans;fill:#555;" text-anchor="middle" x="0" y="-6.000000">R517Q</text></g><line x1="644.734694" x2="644.734694" y1="34.000000" y2="74.500000" stroke="#BABDB6" stroke-width="2"/><a xlink:title="R523Q"><circle cx="644.734694" cy="34.000000" r="4.000000" fill="#ff0000" /></a><g transform="translate(644.734694,34.000000) rotate(-30)"><text style="font-size:10px;font-family:OpenSans;fill:#555;" text-anchor="middle" x="0" y="-6.000000">R523Q</text></g><line x1="648.346939" x2="648.346939" y1="46.500000" y2="74.500000" stroke="#BABDB6" stroke-width="2"/><a xlink:title="R526Q"><circle cx="648.346939" cy="46.500000" r="4.000000" fill="#ff0000" /></a><g transform="translate(648.346939,46.500000) rotate(-30)"><text style="font-size:10px;font-family:OpenSans;fill:#555;" text-anchor="middle" x="0" y="-6.000000">R526Q</text></g><line x1="659.183673" x2="659.183673" y1="46.500000" y2="74.500000" stroke="#BABDB6" stroke-width="2"/><a xlink:title="R535Q"><circle cx="659.183673" cy="46.500000" r="4.000000" fill="#ff0000" /></a><g transform="translate(659.183673,46.500000) rotate(-30)"><text style="font-size:10px;font-family:OpenSans;fill:#555;" text-anchor="middle" x="0" y="-6.000000">R535Q</text></g><a xlink:title=",  (540aa)"><rect fill="#BABDB6" x="15.000000" y="74.500000" width="650.204082" height="14.000000"/></a><g transform="translate(159.489796,69.500000)"><a xlink:href="https://www.ebi.ac.uk/interpro/entry/pfam/PF01391" xlink:title="Collagen triple helix repeat (20 copies)"><rect fill="#2DCF00" x="0" y="0" width="59.000000" height="24.000000" filter="url(#ds)"/><text style="font-size:12px;font-family:OpenSans;fill:#ffffff;" text-anchor="middle" x="29.500000" y="16.000000">Collagen</text></a></g>
<g transform="translate(207.653061,69.500000)"><a xlink:href="https://www.ebi.ac.uk/interpro/entry/pfam/PF01391" xlink:title="Collagen triple helix repeat (20 copies)"><rect fill="#FF5353" x="0" y="0" width="69.836735" height="24.000000" filter="url(#ds)"/><text style="font-size:12px;font-family:OpenSans;fill:#ffffff;" text-anchor="middle" x="34.918367" y="16.000000">Collagen</text></a></g>
<g transform="translate(254.612245,69.500000)"><a xlink:href="https://www.ebi.ac.uk/interpro/entry/pfam/PF01391" xlink:title="Collagen triple helix repeat (20 copies)"><rect fill="#5B5BFF" x="0" y="0" width="69.836735" height="24.000000" filter="url(#ds)"/><text style="font-size:12px;font-family:OpenSans;fill:#ffffff;" text-anchor="middle" x="34.918367" y="16.000000">Collagen</text></a></g>
<g transform="translate(317.224490,69.500000)"><a xlink:href="https://www.ebi.ac.uk/interpro/entry/pfam/PF01391" xlink:title="Collagen triple helix repeat (20 copies)"><rect fill="#EBD61D" x="0" y="0" width="65.020408" height="24.000000" filter="url(#ds)"/><text style="font-size:12px;font-family:OpenSans;fill:#ffffff;" text-anchor="middle" x="32.510204" y="16.000000">Collagen</text></a></g>
<g transform="translate(401.510204,69.500000)"><a xlink:href="https://www.ebi.ac.uk/interpro/entry/pfam/PF01391" xlink:title="Collagen triple helix repeat (20 copies)"><rect fill="#BA21E0" x="0" y="0" width="61.408163" height="24.000000" filter="url(#ds)"/><text style="font-size:12px;font-family:OpenSans;fill:#ffffff;" text-anchor="middle" x="30.704082" y="16.000000">Collagen</text></a></g>
<g transform="translate(425.591837,69.500000)"><a xlink:href="https://www.ebi.ac.uk/interpro/entry/pfam/PF01391" xlink:title="Collagen triple helix repeat (20 copies)"><rect fill="#FF9C42" x="0" y="0" width="63.816327" height="24.000000" filter="url(#ds)"/><text style="font-size:12px;font-family:OpenSans;fill:#ffffff;" text-anchor="middle" x="31.908163" y="16.000000">Collagen</text></a></g>
<g transform="translate(511.081633,69.500000)"><a xlink:href="https://www.ebi.ac.uk/interpro/entry/pfam/PF01391" xlink:title="Collagen triple helix repeat (20 copies)"><rect fill="#FF7DFF" x="0" y="0" width="69.836735" height="24.000000" filter="url(#ds)"/><text style="font-size:12px;font-family:OpenSans;fill:#ffffff;" text-anchor="middle" x="34.918367" y="16.000000">Collagen</text></a></g>
<g transform="translate(572.489796,69.500000)"><a xlink:href="https://www.ebi.ac.uk/interpro/entry/pfam/PF01391" xlink:title="Collagen triple helix repeat (20 copies)"><rect fill="#B9264F" x="0" y="0" width="68.632653" height="24.000000" filter="url(#ds)"/><text style="font-size:12px;font-family:OpenSans;fill:#ffffff;" text-anchor="middle" x="34.316327" y="16.000000">Collagen</text></a></g>
<g class="axis">
<line x1="15.000000" x2="665.204082" y1="103.500000" y2="103.500000" stroke="#AAAAAA" /><line x1="15.000000" x2="15.000000" y1="103.500000" y2="108.500000" stroke="#AAAAAA" /><line x1="15.000000" x2="15.000000" y1="103.500000" y2="108.500000" stroke="#AAAAAA" /><text style="font-size:10px;font-family:OpenSans;fill:#000000;" text-anchor="middle" x="15.000000" y="118.500000">0</text><line x1="159.489796" x2="159.489796" y1="103.500000" y2="108.500000" stroke="#AAAAAA" /><text style="font-size:10px;font-family:OpenSans;fill:#000000;" text-anchor="middle" x="159.489796" y="118.500000">120</text><line x1="207.653061" x2="207.653061" y1="103.500000" y2="108.500000" stroke="#AAAAAA" /><text style="font-size:10px;font-family:OpenSans;fill:#000000;" text-anchor="middle" x="207.653061" y="118.500000">160</text><line x1="254.612245" x2="254.612245" y1="103.500000" y2="108.500000" stroke="#AAAAAA" /><text style="font-size:10px;font-family:OpenSans;fill:#000000;" text-anchor="middle" x="254.612245" y="118.500000">199</text><line x1="277.489796" x2="277.489796" y1="103.500000" y2="108.500000" stroke="#AAAAAA" /><text style="font-size:10px;font-family:OpenSans;fill:#000000;" text-anchor="middle" x="277.489796" y="118.500000">218</text><line x1="317.224490" x2="317.224490" y1="103.500000" y2="108.500000" stroke="#AAAAAA" /><text style="font-size:10px;font-family:OpenSans;fill:#000000;" text-anchor="middle" x="317.224490" y="118.500000">251</text><line x1="353.346939" x2="353.346939" y1="103.500000" y2="108.500000" stroke="#AAAAAA" /><text style="font-size:10px;font-family:OpenSans;fill:#000000;" text-anchor="middle" x="353.346939" y="118.500000">281</text><line x1="382.244898" x2="382.244898" y1="103.500000" y2="108.500000" stroke="#AAAAAA" /><text style="font-size:10px;font-family:OpenSans;fill:#000000;" text-anchor="middle" x="382.244898" y="118.500000">305</text><line x1="401.510204" x2="401.510204" y1="103.500000" y2="108.500000" stroke="#AAAAAA" /><text style="font-size:10px;font-family:OpenSans;fill:#000000;" text-anchor="middle" x="401.510204" y="118.500000">321</text><line x1="425.591837" x2="425.591837" y1="103.500000" y2="108.500000" stroke="#AAAAAA" /><text style="font-size:10px;font-family:OpenSans;fill:#000000;" text-anchor="middle" x="425.591837" y="118.500000">341</text><line x1="462.918367" x2="462.918367" y1="103.500000" y2="108.500000" stroke="#AAAAAA" /><text style="font-size:10px;font-family:OpenSans;fill:#000000;" text-anchor="middle" x="462.918367" y="118.500000">372</text><line x1="489.408163" x2="489.408163" y1="103.500000" y2="108.500000" stroke="#AAAAAA" /><text style="font-size:10px;font-family:OpenSans;fill:#000000;" text-anchor="middle" x="489.408163" y="118.500000">394</text><line x1="511.081633" x2="511.081633" y1="103.500000" y2="108.500000" stroke="#AAAAAA" /><text style="font-size:10px;font-family:OpenSans;fill:#000000;" text-anchor="middle" x="511.081633" y="118.500000">412</text><line x1="546.000000" x2="546.000000" y1="103.500000" y2="108.500000" stroke="#AAAAAA" /><text style="font-size:10px;font-family:OpenSans;fill:#000000;" text-anchor="middle" x="546.000000" y="118.500000">441</text><line x1="572.489796" x2="572.489796" y1="103.500000" y2="108.500000" stroke="#AAAAAA" /><text style="font-size:10px;font-family:OpenSans;fill:#000000;" text-anchor="middle" x="572.489796" y="118.500000">463</text><line x1="615.836735" x2="615.836735" y1="103.500000" y2="108.500000" stroke="#AAAAAA" /><text style="font-size:10px;font-family:OpenSans;fill:#000000;" text-anchor="middle" x="615.836735" y="118.500000">499</text><line x1="637.510204" x2="637.510204" y1="103.500000" y2="108.500000" stroke="#AAAAAA" /><text style="font-size:10px;font-family:OpenSans;fill:#000000;" text-anchor="middle" x="637.510204" y="118.500000">517</text><line x1="665.204082" x2="665.204082" y1="103.500000" y2="108.500000" stroke="#AAAAAA" /><text style="font-size:10px;font-family:OpenSans;fill:#000000;" text-anchor="middle" x="665.204082" y="118.500000">540</text></g>
<rect fill="#B9264F" x="4" y="132.500000" width="12" height="12" filter="url(#ds)"/><text style="font-size:12px;font-family:OpenSans;fill:#000000;" text-anchor="start" x="20" y="144.500000">Collagen triple helix repeat (20 copies)</text></svg>
