<?xml version='1.0'?>
<svg xmlns="http://www.w3.org/2000/svg" xmlns:xlink="http://www.w3.org/1999/xlink" width="1868.482143" height="158.700000">
<defs>
  <filter id="ds" x="0" y="0">
    <feOffset in="SourceAlpha" dx="2" dy="2" />
    <feComponentTransfer><feFuncA type="linear" slope="0.2"/></feComponentTransfer>
    <feGaussianBlur result="blurOut" stdDeviation="1" />
    <feBlend in="SourceGraphic" in2="blurOut" mode="normal" />
  </filter>
  <pattern id="disordered-hatch" patternUnits="userSpaceOnUse" width="4" height="4">
    <path d="M-1,1 l2,-2 M0,4 l4,-4 M3,5 l2,-2" stroke="#000000" opacity="0.3" />
  </pattern>
</defs>
<line x1="235.196429" x2="235.196429" y1="46.500000" y2="74.500000" stroke="#BABDB6" stroke-width="2"/><a xlink:title="P209P"><circle cx="235.196429" cy="46.500000" r="4.000000" fill="#0000ff" /></a><g transform="translate(235.196429,46.500000) rotate(-30)"><text style="font-size:10px;font-family:OpenSans;fill:#555;" text-anchor="middle" x="0" y="-6.000000">P209P</text></g><line x1="252.053571" x2="252.053571" y1="34.000000" y2="74.500000" stroke="#BABDB6" stroke-width="2"/><a xlink:title="N225Y"><circle cx="252.053571" cy="34.000000" r="4.000000" fill="#ff0000" /></a><g transform="translate(252.053571,34.000000) rotate(-30)"><text style="font-size:10px;font-family:OpenSans;fill:#555;" text-anchor="middle" x="0" y="-6.000000">N225Y</text></g><line x1="253.107143" x2="253.107143" y1="46.500000" y2="74.500000" stroke="#BABDB6" stroke-width="2"/><a xlink:title="N226Y"><circle cx="253.107143" cy="46.500000" r="4.000000" fill="#ff0000" /></a><g transform="translate(253.107143,46.500000) rotate(-30)"><text style="font-size:10px;font-family:OpenSans;fill:#555;" text-anchor="middle" x="0" y="-6.000000">N226Y</text></g><line x1="260.482143" x2="260.482143" y1="46.500000" y2="74.500000" stroke="#BABDB6" stroke-width="2"/><a xlink:title="R233R"><circle cx="260.482143" cy="46.500000" r="4.000000" fill="#0000ff" /></a><g transform="translate(260.482143,46.500000) rotate(-30)"><text style="font-size:10px;font-family:OpenSans;fill:#555;" text-anchor="middle" x="0" y="-6.000000">R233R</text></g><line x1="308.946429" x2="308.946429" y1="34.000000" y2="74.500000" stroke="#BABDB6" stroke-width="2"/><a xlink:title="A279P"><circle cx="308.946429" cy="34.000000" r="4.000000" fill="#ff0000" /></a><g transform="translate(308.946429,34.000000) rotate(-30)"><text style="font-size:10px;font-family:OpenSans;fill:#555;" text-anchor="middle" x="0" y="-6.000000">A279P</text></g><line x1="310.000000" x2="310.000000" y1="46.500000" y2="74.500000" stroke="#BABDB6" stroke-width="2"/><a xlink:title="A280P"><circle cx="310.000000" cy="46.500000" r="4.000000" fill="#ff0000" /></a><g transform="translate(310.000000,46.500000) rotate(-30)"><text style="font-size:10px;font-family:OpenSans;fill:#555;" text-anchor="middle" x="0" y="-6.000000">A280P</text></g><line x1="496.482143" x2="496.482143" y1="34.000000" y2="74.500000" stroke="#BABDB6" stroke-width="2"/><a xlink:title="P457R"><circle cx="496.482143" cy="34.000000" r="4.000000" fill="#ff0000" /></a><g transform="translate(496.482143,34.000000) rotate(-30)"><text style="font-size:10px;font-family:OpenSans;fill:#555;" text-anchor="middle" x="0" y="-6.000000">P457R</text></g><line x1="497.535714" x2="497.535714" y1="46.500000" y2="74.500000" stroke="#BABDB6" stroke-width="2"/><a xlink:title="P458R"><circle cx="497.535714" cy="46.500000" r="4.000000" fill="#ff0000" /></a><g transform="translate(497.535714,46.500000) rotate(-30)"><text style="font-size:10px;font-family:OpenSans;fill:#555;" text-anchor="middle" x="0" y="-6.000000">P458R</text></g><line x1="568.125000" x2="568.125000" y1="46.500000" y2="74.500000" stroke="#BABDB6" stroke-width="2"/><a xlink:title="G525G"><circle cx="568.125000" cy="46.500000" r="4.000000" fill="#0000ff" /></a><g transform="translate(568.125000,46.500000) rotate(-30)"><text style="font-size:10px;font-family:OpenSans;fill:#555;" text-anchor="middle" x="0" y="-6.000000">G525G</text></g><line x1="1054.875000" x2="1054.875000" y1="34.000000" y2="74.500000" stroke="#BABDB6" stroke-width="2"/><a xlink:title="P987P"><circle cx="1054.875000" cy="34.000000" r="4.000000" fill="#0000ff" /></a><g transform="translate(1054.875000,34.000000) rotate(-30)"><text style="font-size:10px;font-family:OpenSans;fill:#555;" text-anchor="middle" x="0" y="-6.000000">P987P</text></g><line x1="1055.928571" x2="1055.928571" y1="46.500000" y2="74.500000" stroke="#BABDB6" stroke-width="2"/><a xlink:title="P988P"><circle cx="1055.928571" cy="46.500000" r="4.000000" fill="#0000ff" /></a><g transform="translate(1055.928571,46.500000) rotate(-30)"><text style="font-size:10px;font-family:OpenSans;fill:#555;" text-anchor="middle" x="0" y="-6.000000">P988P</text></g><line x1="1080.160714" x2="1080.160714" y1="34.000000" y2="74.500000" stroke="#BABDB6" stroke-width="2"/><a xlink:title="R1011R"><circle cx="1080.160714" cy="34.000000" r="4.000000" fill="#0000ff" /></a><g transform="translate(1080.160714,34.000000) rotate(-30)"><text style="font-size:10px;font-family:OpenSans;fill:#555;" text-anchor="middle" x="0" y="-6.000000">R1011R</text></g><line x1="1081.214286" x2="1081.214286" y1="46.500000" y2="74.500000" stroke="#BABDB6" stroke-width="2"/><a xlink:title="R1012R"><circle cx="1081.214286" cy="46.500000" r="4.000000" fill="#0000ff" /></a><g transform="translate(1081.214286,46.500000) rotate(-30)"><text style="font-size:10px;font-family:OpenSans;fill:#555;" text-anchor="middle" x="0" y="-6.000000">R1012R</text></g><line x1="1387.803571" x2="1387.803571" y1="34.000000" y2="74.500000" stroke="#BABDB6" stroke-width="2"/><a xlink:title="G1303G"><circle cx="1387.803571" cy="34.000000" r="4.000000" fill="#0000ff" /></a><g transform="translate(1387.803571,34.000000) rotate(-30)"><text style="font-size:10px;font-family:OpenSans;fill:#555;" text-anchor="middle" x="0" y="-6.000000">G1303G</text></g><line x1="1388.857143" x2="1388.857143" y1="46.500000" y2="74.500000" stroke="#BABDB6" stroke-width="2"/><a xlink:title="G1304G"><circle cx="1388.857143" cy="46.500000" r="4.000000" fill="#0000ff" /></a><g transform="translate(1388.857143,46.500000) rotate(-30)"><text style="font-size:10px;font-family:OpenSans;fill:#555;" text-anchor="middle" x="0" y="-6.000000">G1304G</text></g><a xlink:title=",  (1745aa)"><rect fill="#BABDB6" x="15.000000" y="74.500000" width="1838.482143" height="14.000000"/></a><g transform="translate(518.607143,69.500000)"><a xlink:href="https://www.ebi.ac.uk/interpro/entry/pfam/PF01391" xlink:title="Collagen triple helix repeat (20 copies)"><rect fill="#2DCF00" x="0" y="0" width="59.000000" height="24.000000" filter="url(#ds)"/><text style="font-size:12px;font-family:OpenSans;fill:#ffffff;" text-anchor="middle" x="29.500000" y="16.000000">Collagen</text></a></g>
<g transform="translate(1521.607143,69.500000)"><a xlink:href="https://www.ebi.ac.uk/interpro/entry/pfam/PF01391" xlink:title="Collagen triple helix repeat (20 copies)"><rect fill="#FF5353" x="0" y="0" width="61.107143" height="24.000000" filter="url(#ds)"/><text style="font-size:12px;font-family:OpenSans;fill:#ffffff;" text-anchor="middle" x="30.553571" y="16.000000">Collagen</text></a></g>
<g transform="translate(1610.107143,69.500000)"><a xlink:href="https://www.ebi.ac.uk/interpro/entry/pfam/PF01410" xlink:title="Fibrillar collagen C-terminal domain"><rect fill="#5B5BFF" x="0" y="0" width="241.267857" height="24.000000" filter="url(#ds)"/><text style="font-size:12px;font-family:OpenSans;fill:#ffffff;" text-anchor="middle" x="120.633929" y="16.000000">Fibrillar collagen C-terminal domain</text></a></g>
<g class="axis">
<line x1="15.000000" x2="1853.482143" y1="103.500000" y2="103.500000" stroke="#AAAAAA" /><line x1="15.000000" x2="15.000000" y1="103.500000" y2="108.500000" stroke="#AAAAAA" /><line x1="15.000000" x2="15.000000" y1="103.500000" y2="108.500000" stroke="#AAAAAA" /><text style="font-size:10px;font-family:OpenSans;fill:#000000;" text-anchor="middle" x="15.000000" y="118.500000">0</text><line x1="235.196429" x2="235.196429" y1="103.500000" y2="108.500000" stroke="#AAAAAA" /><text style="font-size:10px;font-family:OpenSans;fill:#000000;" text-anchor="middle" x="235.196429" y="118.500000">209</text><line x1="260.482143" x2="260.482143" y1="103.500000" y2="108.500000" stroke="#AAAAAA" /><text style="font-size:10px;font-family:OpenSans;fill:#000000;" text-anchor="middle" x="260.482143" y="118.500000">233</text><line x1="308.946429" x2="308.946429" y1="103.500000" y2="108.500000" stroke="#AAAAAA" /><text style="font-size:10px;font-family:OpenSans;fill:#000000;" text-anchor="middle" x="308.946429" y="118.500000">279</text><line x1="496.482143" x2="496.482143" y1="103.500000" y2="108.500000" stroke="#AAAAAA" /><text style="font-size:10px;font-family:OpenSans;fill:#000000;" text-anchor="middle" x="496.482143" y="118.500000">457</text><line x1="518.607143" x2="518.607143" y1="103.500000" y2="108.500000" stroke="#AAAAAA" /><text style="font-size:10px;font-family:OpenSans;fill:#000000;" text-anchor="middle" x="518.607143" y="118.500000">478</text><line x1="568.125000" x2="568.125000" y1="103.500000" y2="108.500000" stroke="#AAAAAA" /><text style="font-size:10px;font-family:OpenSans;fill:#000000;" text-anchor="middle" x="568.125000" y="118.500000">525</text><line x1="1054.875000" x2="1054.875000" y1="103.500000" y2="108.500000" stroke="#AAAAAA" /><text style="font-size:10px;font-family:OpenSans;fill:#000000;" text-anchor="middle" x="1054.875000" y="118.500000">987</text><line x1="1080.160714" x2="1080.160714" y1="103.500000" y2="108.500000" stroke="#AAAAAA" /><text style="font-size:10px;font-family:OpenSans;fill:#000000;" text-anchor="middle" x="1080.160714" y="118.500000">1011</text><line x1="1387.803571" x2="1387.803571" y1="103.500000" y2="108.500000" stroke="#AAAAAA" /><text style="font-size:10px;font-family:OpenSans;fill:#000000;" text-anchor="middle" x="1387.803571" y="118.500000">1303</text><line x1="1521.607143" x2="1521.607143" y1="103.500000" y2="108.500000" stroke="#AAAAAA" /><text style="font-size:10px;font-family:OpenSans;fill:#000000;" text-anchor="middle" x="1521.607143" y="118.500000">1430</text><line x1="1582.714286" x2="1582.714286" y1="103.500000" y2="108.500000" stroke="#AAAAAA" /><text style="font-size:10px;font-family:OpenSans;fill:#000000;" text-anchor="middle" x="1582.714286" y="118.500000">1488</text><line x1="1610.107143" x2="1610.107143" y1="103.500000" y2="108.500000" stroke="#AAAAAA" /><text style="font-size:10px;font-family:OpenSans;fill:#000000;" text-anchor="middle" x="1610.107143" y="118.500000">1514</text><line x1="1853.482143" x2="1853.482143" y1="103.500000" y2="108.500000" stroke="#AAAAAA" /><text style="font-size:10px;font-family:OpenSans;fill:#000000;" text-anchor="middle" x="1853.482143" y="118.500000">1745</text></g>
<rect fill="#FF5353" x="4" y="132.500000" width="12" height="12" filter="url(#ds)"/><text style="font-size:12px;font-family:OpenSans;fill:#000000;" text-anchor="start" x="20" y="144.500000">Collagen triple helix repeat (20 copies)</text></svg>
