<?xml version='1.0'?>
<svg xmlns="http://www.w3.org/2000/svg" xmlns:xlink="http://www.w3.org/1999/xlink" width="2332.017241" height="159.400000">
<defs>
  <filter id="ds" x="0" y="0">
    <feOffset in="SourceAlpha" dx="2" dy="2" />
    <feComponentTransfer><feFuncA type="linear" slope="0.2"/></feComponentTransfer>
    <feGaussianBlur result="blurOut" stdDeviation="1" />
    <feBlend in="SourceGraphic" in2="blurOut" mode="normal" />
  </filter>
  <pattern id="disordered-hatch" patternUnits="userSpaceOnUse" width="4" height="4">
    <path d="M-1,1 l2,-2 M0,4 l4,-4 M3,5 l2,-2" stroke="#000000" opacity="0.3" />
  </pattern>
</defs>
<line x1="246.931034" x2="246.931034" y1="34.000000" y2="62.000000" stroke="#BABDB6" stroke-width="2"/><a xlink:title="A228A"><circle cx="246.931034" cy="34.000000" r="4.000000" fill="#0000ff" /></a><g transform="translate(246.931034,34.000000) rotate(-30)"><text style="font-size:10px;font-family:OpenSans;fill:#555;" text-anchor="middle" x="0" y="-6.000000">A228A</text></g><line x1="263.206897" x2="263.206897" y1="34.000000" y2="62.000000" stroke="#BABDB6" stroke-width="2"/><a xlink:title="A244A"><circle cx="263.206897" cy="34.000000" r="4.000000" fill="#0000ff" /></a><g transform="translate(263.206897,34.000000) rotate(-30)"><text style="font-size:10px;font-family:OpenSans;fill:#555;" text-anchor="middle" x="0" y="-6.000000">A244A</text></g><line x1="627.379310" x2="627.379310" y1="34.000000" y2="62.000000" stroke="#BABDB6" stroke-width="2"/><a xlink:title="I602V"><circle cx="627.379310" cy="34.000000" r="4.000000" fill="#ff0000" /></a><g transform="translate(627.379310,34.000000) rotate(-30)"><text style="font-size:10px;font-family:OpenSans;fill:#555;" text-anchor="middle" x="0" y="-6.000000">I602V</text></g><line x1="643.655172" x2="643.655172" y1="34.000000" y2="62.000000" stroke="#BABDB6" stroke-width="2"/><a xlink:title="I618V"><circle cx="643.655172" cy="34.000000" r="4.000000" fill="#ff0000" /></a><g transform="translate(643.655172,34.000000) rotate(-30)"><text style="font-size:10px;font-family:OpenSans;fill:#555;" text-anchor="middle" x="0" y="-6.000000">I618V</text></g><line x1="1687.344828" x2="1687.344828" y1="34.000000" y2="62.000000" stroke="#BABDB6" stroke-width="2"/><a xlink:title="R1644H"><circle cx="1687.344828" cy="34.000000" r="4.000000" fill="#ff0000" /></a><g transform="translate(1687.344828,34.000000) rotate(-30)"><text style="font-size:10px;font-family:OpenSans;fill:#555;" text-anchor="middle" x="0" y="-6.000000">R1644H</text></g><line x1="1703.620690" x2="1703.620690" y1="34.000000" y2="62.000000" stroke="#BABDB6" stroke-width="2"/><a xlink:title="R1660H"><circle cx="1703.620690" cy="34.000000" r="4.000000" fill="#ff0000" /></a><g transform="translate(1703.620690,34.000000) rotate(-30)"><text style="font-size:10px;font-family:OpenSans;fill:#555;" text-anchor="middle" x="0" y="-6.000000">R1660H</text></g><line x1="1752.448276" x2="1752.448276" y1="34.000000" y2="62.000000" stroke="#BABDB6" stroke-width="2"/><a xlink:title="S1708F"><circle cx="1752.448276" cy="34.000000" r="4.000000" fill="#ff0000" /></a><g transform="translate(1752.448276,34.000000) rotate(-30)"><text style="font-size:10px;font-family:OpenSans;fill:#555;" text-anchor="middle" x="0" y="-6.000000">S1708F</text></g><line x1="1768.724138" x2="1768.724138" y1="34.000000" y2="62.000000" stroke="#BABDB6" stroke-width="2"/><a xlink:title="S1724F"><circle cx="1768.724138" cy="34.000000" r="4.000000" fill="#ff0000" /></a><g transform="translate(1768.724138,34.000000) rotate(-30)"><text style="font-size:10px;font-family:OpenSans;fill:#555;" text-anchor="middle" x="0" y="-6.000000">S1724F</text></g><line x1="2220.379310" x2="2220.379310" y1="34.000000" y2="62.000000" stroke="#BABDB6" stroke-width="2"/><a xlink:title="R2168C"><circle cx="2220.379310" cy="34.000000" r="4.000000" fill="#ff0000" /></a><g transform="translate(2220.379310,34.000000) rotate(-30)"><text style="font-size:10px;font-family:OpenSans;fill:#555;" text-anchor="middle" x="0" y="-6.000000">R2168C</text></g><line x1="2236.655172" x2="2236.655172" y1="34.000000" y2="62.000000" stroke="#BABDB6" stroke-width="2"/><a xlink:title="R2184C"><circle cx="2236.655172" cy="34.000000" r="4.000000" fill="#ff0000" /></a><g transform="translate(2236.655172,34.000000) rotate(-30)"><text style="font-size:10px;font-family:OpenSans;fill:#555;" text-anchor="middle" x="0" y="-6.000000">R2184C</text></g><a xlink:title=",  (2263aa)"><rect fill="#BABDB6" x="15.000000" y="62.000000" width="2302.017241" height="14.000000"/></a><g transform="translate(42.465517,57.000000)"><a xlink:href="https://www.ebi.ac.uk/interpro/entry/pfam/PF00092" xlink:title="von Willebrand factor type A domain"><rect fill="#2DCF00" x="0" y="0" width="162.758621" height="24.000000" filter="url(#ds)"/><text style="font-size:12px;font-family:OpenSans;fill:#ffffff;" text-anchor="middle" x="81.379310" y="16.000000">VWA</text></a></g>
<g transform="translate(247.948276,57.000000)"><a xlink:href="https://www.ebi.ac.uk/interpro/entry/pfam/PF00092" xlink:title="von Willebrand factor type A domain"><rect fill="#FF5353" x="0" y="0" width="170.896552" height="24.000000" filter="url(#ds)"/><text style="font-size:12px;font-family:OpenSans;fill:#ffffff;" text-anchor="middle" x="85.448276" y="16.000000">VWA</text></a></g>
<g transform="translate(458.517241,57.000000)"><a xlink:href="https://www.ebi.ac.uk/interpro/entry/pfam/PF00092" xlink:title="von Willebrand factor type A domain"><rect fill="#5B5BFF" x="0" y="0" width="171.913793" height="24.000000" filter="url(#ds)"/><text style="font-size:12px;font-family:OpenSans;fill:#ffffff;" text-anchor="middle" x="85.956897" y="16.000000">VWA</text></a></g>
<g transform="translate(647.724138,57.000000)"><a xlink:href="https://www.ebi.ac.uk/interpro/entry/pfam/PF00092" xlink:title="von Willebrand factor type A domain"><rect fill="#EBD61D" x="0" y="0" width="168.862069" height="24.000000" filter="url(#ds)"/><text style="font-size:12px;font-family:OpenSans;fill:#ffffff;" text-anchor="middle" x="84.431034" y="16.000000">VWA</text></a></g>
<g transform="translate(837.948276,57.000000)"><a xlink:href="https://www.ebi.ac.uk/interpro/entry/pfam/PF00092" xlink:title="von Willebrand factor type A domain"><rect fill="#BA21E0" x="0" y="0" width="172.931034" height="24.000000" filter="url(#ds)"/><text style="font-size:12px;font-family:OpenSans;fill:#ffffff;" text-anchor="middle" x="86.465517" y="16.000000">VWA</text></a></g>
<g transform="translate(1032.241379,57.000000)"><a xlink:href="https://www.ebi.ac.uk/interpro/entry/pfam/PF00092" xlink:title="von Willebrand factor type A domain"><rect fill="#FF9C42" x="0" y="0" width="171.913793" height="24.000000" filter="url(#ds)"/><text style="font-size:12px;font-family:OpenSans;fill:#ffffff;" text-anchor="middle" x="85.956897" y="16.000000">VWA</text></a></g>
<g transform="translate(1431.000000,57.000000)"><a xlink:href="https://www.ebi.ac.uk/interpro/entry/pfam/PF01391" xlink:title="Collagen triple helix repeat (20 copies)"><rect fill="#FF7DFF" x="0" y="0" width="59.000000" height="24.000000" filter="url(#ds)"/><text style="font-size:12px;font-family:OpenSans;fill:#ffffff;" text-anchor="middle" x="29.500000" y="16.000000">Collagen</text></a></g>
<g transform="translate(1803.310345,57.000000)"><a xlink:href="https://www.ebi.ac.uk/interpro/entry/pfam/PF00092" xlink:title="von Willebrand factor type A domain"><rect fill="#B9264F" x="0" y="0" width="147.500000" height="24.000000" filter="url(#ds)"/><text style="font-size:12px;font-family:OpenSans;fill:#ffffff;" text-anchor="middle" x="73.750000" y="16.000000">VWA</text></a></g>
<g transform="translate(2015.913793,57.000000)"><a xlink:href="https://www.ebi.ac.uk/interpro/entry/pfam/PF00092" xlink:title="von Willebrand factor type A domain"><rect fill="#BABA21" x="0" y="0" width="178.017241" height="24.000000" filter="url(#ds)"/><text style="font-size:12px;font-family:OpenSans;fill:#ffffff;" text-anchor="middle" x="89.008621" y="16.000000">VWA</text></a></g>
<g class="axis">
<line x1="15.000000" x2="2317.017241" y1="91.000000" y2="91.000000" stroke="#AAAAAA" /><line x1="15.000000" x2="15.000000" y1="91.000000" y2="96.000000" stroke="#AAAAAA" /><line x1="15.000000" x2="15.000000" y1="91.000000" y2="96.000000" stroke="#AAAAAA" /><text style="font-size:10px;font-family:OpenSans;fill:#000000;" text-anchor="middle" x="15.000000" y="106.000000">0</text><line x1="42.465517" x2="42.465517" y1="91.000000" y2="96.000000" stroke="#AAAAAA" /><text style="font-size:10px;font-family:OpenSans;fill:#000000;" text-anchor="middle" x="42.465517" y="106.000000">27</text><line x1="205.224138" x2="205.224138" y1="91.000000" y2="96.000000" stroke="#AAAAAA" /><text style="font-size:10px;font-family:OpenSans;fill:#000000;" text-anchor="middle" x="205.224138" y="106.000000">187</text><line x1="246.931034" x2="246.931034" y1="91.000000" y2="96.000000" stroke="#AAAAAA" /><text style="font-size:10px;font-family:OpenSans;fill:#000000;" text-anchor="middle" x="246.931034" y="106.000000">228</text><line x1="418.844828" x2="418.844828" y1="91.000000" y2="96.000000" stroke="#AAAAAA" /><text style="font-size:10px;font-family:OpenSans;fill:#000000;" text-anchor="middle" x="418.844828" y="106.000000">397</text><line x1="458.517241" x2="458.517241" y1="91.000000" y2="96.000000" stroke="#AAAAAA" /><text style="font-size:10px;font-family:OpenSans;fill:#000000;" text-anchor="middle" x="458.517241" y="106.000000">436</text><line x1="627.379310" x2="627.379310" y1="91.000000" y2="96.000000" stroke="#AAAAAA" /><text style="font-size:10px;font-family:OpenSans;fill:#000000;" text-anchor="middle" x="627.379310" y="106.000000">602</text><line x1="647.724138" x2="647.724138" y1="91.000000" y2="96.000000" stroke="#AAAAAA" /><text style="font-size:10px;font-family:OpenSans;fill:#000000;" text-anchor="middle" x="647.724138" y="106.000000">622</text><line x1="816.586207" x2="816.586207" y1="91.000000" y2="96.000000" stroke="#AAAAAA" /><text style="font-size:10px;font-family:OpenSans;fill:#000000;" text-anchor="middle" x="816.586207" y="106.000000">788</text><line x1="837.948276" x2="837.948276" y1="91.000000" y2="96.000000" stroke="#AAAAAA" /><text style="font-size:10px;font-family:OpenSans;fill:#000000;" text-anchor="middle" x="837.948276" y="106.000000">809</text><line x1="1010.879310" x2="1010.879310" y1="91.000000" y2="96.000000" stroke="#AAAAAA" /><text style="font-size:10px;font-family:OpenSans;fill:#000000;" text-anchor="middle" x="1010.879310" y="106.000000">979</text><line x1="1032.241379" x2="1032.241379" y1="91.000000" y2="96.000000" stroke="#AAAAAA" /><text style="font-size:10px;font-family:OpenSans;fill:#000000;" text-anchor="middle" x="1032.241379" y="106.000000">1000</text><line x1="1204.155172" x2="1204.155172" y1="91.000000" y2="96.000000" stroke="#AAAAAA" /><text style="font-size:10px;font-family:OpenSans;fill:#000000;" text-anchor="middle" x="1204.155172" y="106.000000">1169</text><line x1="1431.000000" x2="1431.000000" y1="91.000000" y2="96.000000" stroke="#AAAAAA" /><text style="font-size:10px;font-family:OpenSans;fill:#000000;" text-anchor="middle" x="1431.000000" y="106.000000">1392</text><line x1="1490.000000" x2="1490.000000" y1="91.000000" y2="96.000000" stroke="#AAAAAA" /><text style="font-size:10px;font-family:OpenSans;fill:#000000;" text-anchor="middle" x="1490.000000" y="106.000000">1450</text><line x1="1687.344828" x2="1687.344828" y1="91.000000" y2="96.000000" stroke="#AAAAAA" /><text style="font-size:10px;font-family:OpenSans;fill:#000000;" text-anchor="middle" x="1687.344828" y="106.000000">1644</text><line x1="1752.448276" x2="1752.448276" y1="91.000000" y2="96.000000" stroke="#AAAAAA" /><text style="font-size:10px;font-family:OpenSans;fill:#000000;" text-anchor="middle" x="1752.448276" y="106.000000">1708</text><line x1="1803.310345" x2="1803.310345" y1="91.000000" y2="96.000000" stroke="#AAAAAA" /><text style="font-size:10px;font-family:OpenSans;fill:#000000;" text-anchor="middle" x="1803.310345" y="106.000000">1758</text><line x1="1950.810345" x2="1950.810345" y1="91.000000" y2="96.000000" stroke="#AAAAAA" /><text style="font-size:10px;font-family:OpenSans;fill:#000000;" text-anchor="middle" x="1950.810345" y="106.000000">1903</text><line x1="2015.913793" x2="2015.913793" y1="91.000000" y2="96.000000" stroke="#AAAAAA" /><text style="font-size:10px;font-family:OpenSans;fill:#000000;" text-anchor="middle" x="2015.913793" y="106.000000">1967</text><line x1="2193.931034" x2="2193.931034" y1="91.000000" y2="96.000000" stroke="#AAAAAA" /><text style="font-size:10px;font-family:OpenSans;fill:#000000;" text-anchor="middle" x="2193.931034" y="106.000000">2142</text><line x1="2220.379310" x2="2220.379310" y1="91.000000" y2="96.000000" stroke="#AAAAAA" /><text style="font-size:10px;font-family:OpenSans;fill:#000000;" text-anchor="middle" x="2220.379310" y="106.000000">2168</text><line x1="2317.017241" x2="2317.017241" y1="91.000000" y2="96.000000" stroke="#AAAAAA" /><text style="font-size:10px;font-family:OpenSans;fill:#000000;" text-anchor="middle" x="2317.017241" y="106.000000">2263</text></g>
<rect fill="#BABA21" x="4" y="120.000000" width="12" height="12" filter="url(#ds)"/><text style="font-size:12px;font-family:OpenSans;fill:#000000;" text-anchor="start" x="20" y="132.000000">von Willebrand factor type A domain</text><rect fill="#FF7DFF" x="4" y="134.000000" width="12" height="12" filter="url(#ds)"/><text style="font-size:12px;font-family:OpenSans;fill:#000000;" text-anchor="start" x="20" y="146.000000">Collagen triple helix repeat (20 copies)</text></svg>
