<?xml version='1.0'?>
<svg xmlns="http://www.w3.org/2000/svg" xmlns:xlink="http://www.w3.org/1999/xlink" width="430.000000" height="158.700000">
<defs>
  <filter id="ds" x="0" y="0">
    <feOffset in="SourceAlpha" dx="2" dy="2" />
    <feComponentTransfer><feFuncA type="linear" slope="0.2"/></feComponentTransfer>
    <feGaussianBlur result="blurOut" stdDeviation="1" />
    <feBlend in="SourceGraphic" in2="blurOut" mode="normal" />
  </filter>
  <pattern id="disordered-hatch" patternUnits="userSpaceOnUse" width="4" height="4">
    <path d="M-1,1 l2,-2 M0,4 l4,-4 M3,5 l2,-2" stroke="#000000" opacity="0.3" />
  </pattern>
</defs>
<line x1="62.058824" x2="62.058824" y1="46.500000" y2="74.500000" stroke="#BABDB6" stroke-width="2"/><a xlink:title="L28L"><circle cx="62.058824" cy="46.500000" r="4.000000" fill="#0000ff" /></a><g transform="translate(62.058824,46.500000) rotate(-30)"><text style="font-size:10px;font-family:OpenSans;fill:#555;" text-anchor="middle" x="0" y="-6.000000">L28L</text></g><line x1="87.268908" x2="87.268908" y1="46.500000" y2="74.500000" stroke="#BABDB6" stroke-width="2"/><a xlink:title="L43L"><circle cx="87.268908" cy="46.500000" r="4.000000" fill="#0000ff" /></a><g transform="translate(87.268908,46.500000) rotate(-30)"><text style="font-size:10px;font-family:OpenSans;fill:#555;" text-anchor="middle" x="0" y="-6.000000">L43L</text></g><line x1="102.394958" x2="102.394958" y1="46.500000" y2="74.500000" stroke="#BABDB6" stroke-width="2"/><a xlink:title="K52K"><circle cx="102.394958" cy="46.500000" r="4.000000" fill="#0000ff" /></a><g transform="translate(102.394958,46.500000) rotate(-30)"><text style="font-size:10px;font-family:OpenSans;fill:#555;" text-anchor="middle" x="0" y="-6.000000">K52K</text></g><line x1="114.159664" x2="114.159664" y1="46.500000" y2="74.500000" stroke="#BABDB6" stroke-width="2"/><a xlink:title="K59K"><circle cx="114.159664" cy="46.500000" r="4.000000" fill="#0000ff" /></a><g transform="translate(114.159664,46.500000) rotate(-30)"><text style="font-size:10px;font-family:OpenSans;fill:#555;" text-anchor="middle" x="0" y="-6.000000">K59K</text></g><line x1="134.327731" x2="134.327731" y1="34.000000" y2="74.500000" stroke="#BABDB6" stroke-width="2"/><a xlink:title="L71L"><circle cx="134.327731" cy="34.000000" r="4.000000" fill="#0000ff" /></a><g transform="translate(134.327731,34.000000) rotate(-30)"><text style="font-size:10px;font-family:OpenSans;fill:#555;" text-anchor="middle" x="0" y="-6.000000">L71L</text></g><line x1="139.369748" x2="139.369748" y1="46.500000" y2="74.500000" stroke="#BABDB6" stroke-width="2"/><a xlink:title="K74K"><circle cx="139.369748" cy="46.500000" r="4.000000" fill="#0000ff" /></a><g transform="translate(139.369748,46.500000) rotate(-30)"><text style="font-size:10px;font-family:OpenSans;fill:#555;" text-anchor="middle" x="0" y="-6.000000">K74K</text></g><line x1="186.428571" x2="186.428571" y1="46.500000" y2="74.500000" stroke="#BABDB6" stroke-width="2"/><a xlink:title="K102K"><circle cx="186.428571" cy="46.500000" r="4.000000" fill="#0000ff" /></a><g transform="translate(186.428571,46.500000) rotate(-30)"><text style="font-size:10px;font-family:OpenSans;fill:#555;" text-anchor="middle" x="0" y="-6.000000">K102K</text></g><a xlink:title=",  (238aa)"><rect fill="#BABDB6" x="15.000000" y="74.500000" width="400.000000" height="14.000000"/></a><g transform="translate(157.857143,69.500000)"><a xlink:href="https://www.ebi.ac.uk/interpro/entry/pfam/PF03364" xlink:title="Polyketide cyclase / dehydrase and lipid transport"><rect fill="#2DCF00" x="0" y="0" width="215.126050" height="24.000000" filter="url(#ds)"/><text style="font-size:12px;font-family:OpenSans;fill:#ffffff;" text-anchor="middle" x="107.563025" y="16.000000">Polyketide_cyc</text></a></g>
<g class="axis">
<line x1="15.000000" x2="415.000000" y1="103.500000" y2="103.500000" stroke="#AAAAAA" /><line x1="15.000000" x2="15.000000" y1="103.500000" y2="108.500000" stroke="#AAAAAA" /><line x1="15.000000" x2="15.000000" y1="103.500000" y2="108.500000" stroke="#AAAAAA" /><text style="font-size:10px;font-family:OpenSans;fill:#000000;" text-anchor="middle" x="15.000000" y="118.500000">0</text><line x1="62.058824" x2="62.058824" y1="103.500000" y2="108.500000" stroke="#AAAAAA" /><text style="font-size:10px;font-family:OpenSans;fill:#000000;" text-anchor="middle" x="62.058824" y="118.500000">28</text><line x1="87.268908" x2="87.268908" y1="103.500000" y2="108.500000" stroke="#AAAAAA" /><text style="font-size:10px;font-family:OpenSans;fill:#000000;" text-anchor="middle" x="87.268908" y="118.500000">43</text><line x1="114.159664" x2="114.159664" y1="103.500000" y2="108.500000" stroke="#AAAAAA" /><text style="font-size:10px;font-family:OpenSans;fill:#000000;" text-anchor="middle" x="114.159664" y="118.500000">59</text><line x1="134.327731" x2="134.327731" y1="103.500000" y2="108.500000" stroke="#AAAAAA" /><text style="font-size:10px;font-family:OpenSans;fill:#000000;" text-anchor="middle" x="134.327731" y="118.500000">71</text><line x1="157.857143" x2="157.857143" y1="103.500000" y2="108.500000" stroke="#AAAAAA" /><text style="font-size:10px;font-family:OpenSans;fill:#000000;" text-anchor="middle" x="157.857143" y="118.500000">85</text><line x1="186.428571" x2="186.428571" y1="103.500000" y2="108.500000" stroke="#AAAAAA" /><text style="font-size:10px;font-family:OpenSans;fill:#000000;" text-anchor="middle" x="186.428571" y="118.500000">102</text><line x1="372.983193" x2="372.983193" y1="103.500000" y2="108.500000" stroke="#AAAAAA" /><text style="font-size:10px;font-family:OpenSans;fill:#000000;" text-anchor="middle" x="372.983193" y="118.500000">213</text><line x1="415.000000" x2="415.000000" y1="103.500000" y2="108.500000" stroke="#AAAAAA" /><text style="font-size:10px;font-family:OpenSans;fill:#000000;" text-anchor="middle" x="415.000000" y="118.500000">238</text></g>
<rect fill="#2DCF00" x="4" y="132.500000" width="12" height="12" filter="url(#ds)"/><text style="font-size:12px;font-family:OpenSans;fill:#000000;" text-anchor="start" x="20" y="144.500000">Polyketide cyclase / dehydrase and lipid transport</text></svg>
