<?xml version='1.0'?>
<svg xmlns="http://www.w3.org/2000/svg" xmlns:xlink="http://www.w3.org/1999/xlink" width="430.000000" height="145.500000">
<defs>
  <filter id="ds" x="0" y="0">
    <feOffset in="SourceAlpha" dx="2" dy="2" />
    <feComponentTransfer><feFuncA type="linear" slope="0.2"/></feComponentTransfer>
    <feGaussianBlur result="blurOut" stdDeviation="1" />
    <feBlend in="SourceGraphic" in2="blurOut" mode="normal" />
  </filter>
  <pattern id="disordered-hatch" patternUnits="userSpaceOnUse" width="4" height="4">
    <path d="M-1,1 l2,-2 M0,4 l4,-4 M3,5 l2,-2" stroke="#000000" opacity="0.3" />
  </pattern>
</defs>
<line x1="41.815642" x2="41.815642" y1="34.000000" y2="74.500000" stroke="#BABDB6" stroke-width="2"/><a xlink:title="V36M"><circle cx="41.815642" cy="34.000000" r="4.000000" fill="#ff0000" /></a><g transform="translate(41.815642,34.000000) rotate(-30)"><text style="font-size:10px;font-family:OpenSans;fill:#555;" text-anchor="middle" x="0" y="-6.000000">V36M</text></g><line x1="45.540037" x2="45.540037" y1="46.500000" y2="74.500000" stroke="#BABDB6" stroke-width="2"/><a xlink:title="V41M"><circle cx="45.540037" cy="46.500000" r="4.000000" fill="#ff0000" /></a><g transform="translate(45.540037,46.500000) rotate(-30)"><text style="font-size:10px;font-family:OpenSans;fill:#555;" text-anchor="middle" x="0" y="-6.000000">V41M</text></g><a xlink:title=",  (537aa)"><rect fill="#BABDB6" x="15.000000" y="74.500000" width="400.000000" height="14.000000"/></a><g transform="translate(23.938547,69.500000)"><a xlink:href="https://www.ebi.ac.uk/interpro/entry/pfam/PF00168" xlink:title="C2 domain"><rect fill="#2DCF00" x="0" y="0" width="72.998138" height="24.000000" filter="url(#ds)"/><text style="font-size:12px;font-family:OpenSans;fill:#ffffff;" text-anchor="middle" x="36.499069" y="16.000000">C2 domain</text></a></g>
<g transform="translate(121.517691,69.500000)"><a xlink:href="https://www.ebi.ac.uk/interpro/entry/pfam/PF00168" xlink:title="C2 domain"><rect fill="#FF5353" x="0" y="0" width="68.528864" height="24.000000" filter="url(#ds)"/><text style="font-size:12px;font-family:OpenSans;fill:#ffffff;" text-anchor="middle" x="34.264432" y="16.000000">C2 domain</text></a></g>
<g transform="translate(241.443203,69.500000)"><a xlink:href="https://www.ebi.ac.uk/interpro/entry/pfam/PF07002" xlink:title="Copine"><rect fill="#5B5BFF" x="0" y="0" width="159.404097" height="24.000000" filter="url(#ds)"/><text style="font-size:12px;font-family:OpenSans;fill:#ffffff;" text-anchor="middle" x="79.702048" y="16.000000">Copine</text></a></g>
<g class="axis">
<line x1="15.000000" x2="415.000000" y1="103.500000" y2="103.500000" stroke="#AAAAAA" /><line x1="15.000000" x2="15.000000" y1="103.500000" y2="108.500000" stroke="#AAAAAA" /><line x1="41.815642" x2="41.815642" y1="103.500000" y2="108.500000" stroke="#AAAAAA" /><text style="font-size:10px;font-family:OpenSans;fill:#000000;" text-anchor="middle" x="41.815642" y="118.500000">36</text><line x1="96.936685" x2="96.936685" y1="103.500000" y2="108.500000" stroke="#AAAAAA" /><text style="font-size:10px;font-family:OpenSans;fill:#000000;" text-anchor="middle" x="96.936685" y="118.500000">110</text><line x1="121.517691" x2="121.517691" y1="103.500000" y2="108.500000" stroke="#AAAAAA" /><text style="font-size:10px;font-family:OpenSans;fill:#000000;" text-anchor="middle" x="121.517691" y="118.500000">143</text><line x1="190.046555" x2="190.046555" y1="103.500000" y2="108.500000" stroke="#AAAAAA" /><text style="font-size:10px;font-family:OpenSans;fill:#000000;" text-anchor="middle" x="190.046555" y="118.500000">235</text><line x1="241.443203" x2="241.443203" y1="103.500000" y2="108.500000" stroke="#AAAAAA" /><text style="font-size:10px;font-family:OpenSans;fill:#000000;" text-anchor="middle" x="241.443203" y="118.500000">304</text><line x1="415.000000" x2="415.000000" y1="103.500000" y2="108.500000" stroke="#AAAAAA" /><text style="font-size:10px;font-family:OpenSans;fill:#000000;" text-anchor="middle" x="415.000000" y="118.500000">537</text></g>
</svg>
