<?xml version='1.0'?>
<svg xmlns="http://www.w3.org/2000/svg" xmlns:xlink="http://www.w3.org/1999/xlink" width="627.234375" height="196.200000">
<defs>
  <filter id="ds" x="0" y="0">
    <feOffset in="SourceAlpha" dx="2" dy="2" />
    <feComponentTransfer><feFuncA type="linear" slope="0.2"/></feComponentTransfer>
    <feGaussianBlur result="blurOut" stdDeviation="1" />
    <feBlend in="SourceGraphic" in2="blurOut" mode="normal" />
  </filter>
  <pattern id="disordered-hatch" patternUnits="userSpaceOnUse" width="4" height="4">
    <path d="M-1,1 l2,-2 M0,4 l4,-4 M3,5 l2,-2" stroke="#000000" opacity="0.3" />
  </pattern>
</defs>
<line x1="17.906250" x2="17.906250" y1="71.500000" y2="112.000000" stroke="#BABDB6" stroke-width="2"/><a xlink:title="S6P"><circle cx="17.906250" cy="71.500000" r="4.000000" fill="#ff0000" /></a><g transform="translate(17.906250,71.500000) rotate(-30)"><text style="font-size:10px;font-family:OpenSans;fill:#555;" text-anchor="middle" x="0" y="-6.000000">S6P</text></g><line x1="21.781250" x2="21.781250" y1="84.000000" y2="112.000000" stroke="#BABDB6" stroke-width="2"/><a xlink:title="S14P"><circle cx="21.781250" cy="84.000000" r="4.000000" fill="#ff0000" /></a><g transform="translate(21.781250,84.000000) rotate(-30)"><text style="font-size:10px;font-family:OpenSans;fill:#555;" text-anchor="middle" x="0" y="-6.000000">S14P</text></g><line x1="33.406250" x2="33.406250" y1="84.000000" y2="112.000000" stroke="#BABDB6" stroke-width="2"/><a xlink:title="S38P"><circle cx="33.406250" cy="84.000000" r="4.000000" fill="#ff0000" /></a><g transform="translate(33.406250,84.000000) rotate(-30)"><text style="font-size:10px;font-family:OpenSans;fill:#555;" text-anchor="middle" x="0" y="-6.000000">S38P</text></g><line x1="58.109375" x2="58.109375" y1="71.500000" y2="112.000000" stroke="#BABDB6" stroke-width="2"/><a xlink:title="S89P"><circle cx="58.109375" cy="71.500000" r="4.000000" fill="#ff0000" /></a><g transform="translate(58.109375,71.500000) rotate(-30)"><text style="font-size:10px;font-family:OpenSans;fill:#555;" text-anchor="middle" x="0" y="-6.000000">S89P</text></g><line x1="61.500000" x2="61.500000" y1="84.000000" y2="112.000000" stroke="#BABDB6" stroke-width="2"/><a xlink:title="S96P"><circle cx="61.500000" cy="84.000000" r="4.000000" fill="#ff0000" /></a><g transform="translate(61.500000,84.000000) rotate(-30)"><text style="font-size:10px;font-family:OpenSans;fill:#555;" text-anchor="middle" x="0" y="-6.000000">S96P</text></g><line x1="68.765625" x2="68.765625" y1="84.000000" y2="112.000000" stroke="#BABDB6" stroke-width="2"/><a xlink:title="E111D"><circle cx="68.765625" cy="84.000000" r="4.000000" fill="#ff0000" /></a><g transform="translate(68.765625,84.000000) rotate(-30)"><text style="font-size:10px;font-family:OpenSans;fill:#555;" text-anchor="middle" x="0" y="-6.000000">E111D</text></g><line x1="80.390625" x2="80.390625" y1="71.500000" y2="112.000000" stroke="#BABDB6" stroke-width="2"/><a xlink:title="E135D"><circle cx="80.390625" cy="71.500000" r="4.000000" fill="#ff0000" /></a><g transform="translate(80.390625,71.500000) rotate(-30)"><text style="font-size:10px;font-family:OpenSans;fill:#555;" text-anchor="middle" x="0" y="-6.000000">E135D</text></g><line x1="84.265625" x2="84.265625" y1="71.500000" y2="112.000000" stroke="#BABDB6" stroke-width="2"/><a xlink:title="E143D"><circle cx="84.265625" cy="71.500000" r="4.000000" fill="#ff0000" /></a><g transform="translate(84.265625,71.500000) rotate(-30)"><text style="font-size:10px;font-family:OpenSans;fill:#555;" text-anchor="middle" x="0" y="-6.000000">E143D</text></g><line x1="90.078125" x2="90.078125" y1="71.500000" y2="112.000000" stroke="#BABDB6" stroke-width="2"/><a xlink:title="L155I"><circle cx="90.078125" cy="71.500000" r="4.000000" fill="#ff0000" /></a><g transform="translate(90.078125,71.500000) rotate(-30)"><text style="font-size:10px;font-family:OpenSans;fill:#555;" text-anchor="middle" x="0" y="-6.000000">L155I</text></g><line x1="95.890625" x2="95.890625" y1="59.000000" y2="112.000000" stroke="#BABDB6" stroke-width="2"/><a xlink:title="E167D"><circle cx="95.890625" cy="59.000000" r="4.000000" fill="#ff0000" /></a><g transform="translate(95.890625,59.000000) rotate(-30)"><text style="font-size:10px;font-family:OpenSans;fill:#555;" text-anchor="middle" x="0" y="-6.000000">E167D</text></g><line x1="101.703125" x2="101.703125" y1="34.000000" y2="112.000000" stroke="#BABDB6" stroke-width="2"/><a xlink:title="L179I"><circle cx="101.703125" cy="34.000000" r="4.000000" fill="#ff0000" /></a><g transform="translate(101.703125,34.000000) rotate(-30)"><text style="font-size:10px;font-family:OpenSans;fill:#555;" text-anchor="middle" x="0" y="-6.000000">L179I</text></g><line x1="101.703125" x2="101.703125" y1="46.500000" y2="112.000000" stroke="#BABDB6" stroke-width="2"/><a xlink:title="R179W"><circle cx="101.703125" cy="46.500000" r="4.000000" fill="#ff0000" /></a><g transform="translate(101.703125,46.500000) rotate(-30)"><text style="font-size:10px;font-family:OpenSans;fill:#555;" text-anchor="middle" x="0" y="-6.000000">R179W</text></g><line x1="102.671875" x2="102.671875" y1="59.000000" y2="112.000000" stroke="#BABDB6" stroke-width="2"/><a xlink:title="S181P"><circle cx="102.671875" cy="59.000000" r="4.000000" fill="#ff0000" /></a><g transform="translate(102.671875,59.000000) rotate(-30)"><text style="font-size:10px;font-family:OpenSans;fill:#555;" text-anchor="middle" x="0" y="-6.000000">S181P</text></g><line x1="104.609375" x2="104.609375" y1="71.500000" y2="112.000000" stroke="#BABDB6" stroke-width="2"/><a xlink:title="G185R"><circle cx="104.609375" cy="71.500000" r="4.000000" fill="#ff0000" /></a><g transform="translate(104.609375,71.500000) rotate(-30)"><text style="font-size:10px;font-family:OpenSans;fill:#555;" text-anchor="middle" x="0" y="-6.000000">G185R</text></g><line x1="105.578125" x2="105.578125" y1="84.000000" y2="112.000000" stroke="#BABDB6" stroke-width="2"/><a xlink:title="L187I"><circle cx="105.578125" cy="84.000000" r="4.000000" fill="#ff0000" /></a><g transform="translate(105.578125,84.000000) rotate(-30)"><text style="font-size:10px;font-family:OpenSans;fill:#555;" text-anchor="middle" x="0" y="-6.000000">L187I</text></g><line x1="112.843750" x2="112.843750" y1="34.000000" y2="112.000000" stroke="#BABDB6" stroke-width="2"/><a xlink:title="A202A"><circle cx="112.843750" cy="34.000000" r="4.000000" fill="#0000ff" /></a><g transform="translate(112.843750,34.000000) rotate(-30)"><text style="font-size:10px;font-family:OpenSans;fill:#555;" text-anchor="middle" x="0" y="-6.000000">A202A</text></g><line x1="113.328125" x2="113.328125" y1="46.500000" y2="112.000000" stroke="#BABDB6" stroke-width="2"/><a xlink:title="R203W"><circle cx="113.328125" cy="46.500000" r="4.000000" fill="#ff0000" /></a><g transform="translate(113.328125,46.500000) rotate(-30)"><text style="font-size:10px;font-family:OpenSans;fill:#555;" text-anchor="middle" x="0" y="-6.000000">R203W</text></g><line x1="116.234375" x2="116.234375" y1="34.000000" y2="112.000000" stroke="#BABDB6" stroke-width="2"/><a xlink:title="G209R"><circle cx="116.234375" cy="34.000000" r="4.000000" fill="#ff0000" /></a><g transform="translate(116.234375,34.000000) rotate(-30)"><text style="font-size:10px;font-family:OpenSans;fill:#555;" text-anchor="middle" x="0" y="-6.000000">G209R</text></g><line x1="117.203125" x2="117.203125" y1="46.500000" y2="112.000000" stroke="#BABDB6" stroke-width="2"/><a xlink:title="L211I"><circle cx="117.203125" cy="46.500000" r="4.000000" fill="#ff0000" /></a><g transform="translate(117.203125,46.500000) rotate(-30)"><text style="font-size:10px;font-family:OpenSans;fill:#555;" text-anchor="middle" x="0" y="-6.000000">L211I</text></g><line x1="117.203125" x2="117.203125" y1="59.000000" y2="112.000000" stroke="#BABDB6" stroke-width="2"/><a xlink:title="R211W"><circle cx="117.203125" cy="59.000000" r="4.000000" fill="#ff0000" /></a><g transform="translate(117.203125,59.000000) rotate(-30)"><text style="font-size:10px;font-family:OpenSans;fill:#555;" text-anchor="middle" x="0" y="-6.000000">R211W</text></g><line x1="120.109375" x2="120.109375" y1="46.500000" y2="112.000000" stroke="#BABDB6" stroke-width="2"/><a xlink:title="G217R"><circle cx="120.109375" cy="46.500000" r="4.000000" fill="#ff0000" /></a><g transform="translate(120.109375,46.500000) rotate(-30)"><text style="font-size:10px;font-family:OpenSans;fill:#555;" text-anchor="middle" x="0" y="-6.000000">G217R</text></g><line x1="120.593750" x2="120.593750" y1="59.000000" y2="112.000000" stroke="#BABDB6" stroke-width="2"/><a xlink:title="E218D"><circle cx="120.593750" cy="59.000000" r="4.000000" fill="#ff0000" /></a><g transform="translate(120.593750,59.000000) rotate(-30)"><text style="font-size:10px;font-family:OpenSans;fill:#555;" text-anchor="middle" x="0" y="-6.000000">E218D</text></g><line x1="123.984375" x2="123.984375" y1="46.500000" y2="112.000000" stroke="#BABDB6" stroke-width="2"/><a xlink:title="E225D"><circle cx="123.984375" cy="46.500000" r="4.000000" fill="#ff0000" /></a><g transform="translate(123.984375,46.500000) rotate(-30)"><text style="font-size:10px;font-family:OpenSans;fill:#555;" text-anchor="middle" x="0" y="-6.000000">E225D</text></g><line x1="124.468750" x2="124.468750" y1="59.000000" y2="112.000000" stroke="#BABDB6" stroke-width="2"/><a xlink:title="A226A"><circle cx="124.468750" cy="59.000000" r="4.000000" fill="#0000ff" /></a><g transform="translate(124.468750,59.000000) rotate(-30)"><text style="font-size:10px;font-family:OpenSans;fill:#555;" text-anchor="middle" x="0" y="-6.000000">A226A</text></g><line x1="128.343750" x2="128.343750" y1="59.000000" y2="112.000000" stroke="#BABDB6" stroke-width="2"/><a xlink:title="A234A"><circle cx="128.343750" cy="59.000000" r="4.000000" fill="#0000ff" /></a><g transform="translate(128.343750,59.000000) rotate(-30)"><text style="font-size:10px;font-family:OpenSans;fill:#555;" text-anchor="middle" x="0" y="-6.000000">A234A</text></g><line x1="128.828125" x2="128.828125" y1="71.500000" y2="112.000000" stroke="#BABDB6" stroke-width="2"/><a xlink:title="R235W"><circle cx="128.828125" cy="71.500000" r="4.000000" fill="#ff0000" /></a><g transform="translate(128.828125,71.500000) rotate(-30)"><text style="font-size:10px;font-family:OpenSans;fill:#555;" text-anchor="middle" x="0" y="-6.000000">R235W</text></g><line x1="131.734375" x2="131.734375" y1="84.000000" y2="112.000000" stroke="#BABDB6" stroke-width="2"/><a xlink:title="G241R"><circle cx="131.734375" cy="84.000000" r="4.000000" fill="#ff0000" /></a><g transform="translate(131.734375,84.000000) rotate(-30)"><text style="font-size:10px;font-family:OpenSans;fill:#555;" text-anchor="middle" x="0" y="-6.000000">G241R</text></g><line x1="139.968750" x2="139.968750" y1="59.000000" y2="112.000000" stroke="#BABDB6" stroke-width="2"/><a xlink:title="A258A"><circle cx="139.968750" cy="59.000000" r="4.000000" fill="#0000ff" /></a><g transform="translate(139.968750,59.000000) rotate(-30)"><text style="font-size:10px;font-family:OpenSans;fill:#555;" text-anchor="middle" x="0" y="-6.000000">A258A</text></g><line x1="141.906250" x2="141.906250" y1="71.500000" y2="112.000000" stroke="#BABDB6" stroke-width="2"/><a xlink:title="L262I"><circle cx="141.906250" cy="71.500000" r="4.000000" fill="#ff0000" /></a><g transform="translate(141.906250,71.500000) rotate(-30)"><text style="font-size:10px;font-family:OpenSans;fill:#555;" text-anchor="middle" x="0" y="-6.000000">L262I</text></g><line x1="145.296875" x2="145.296875" y1="84.000000" y2="112.000000" stroke="#BABDB6" stroke-width="2"/><a xlink:title="L269I"><circle cx="145.296875" cy="84.000000" r="4.000000" fill="#ff0000" /></a><g transform="translate(145.296875,84.000000) rotate(-30)"><text style="font-size:10px;font-family:OpenSans;fill:#555;" text-anchor="middle" x="0" y="-6.000000">L269I</text></g><line x1="153.531250" x2="153.531250" y1="59.000000" y2="112.000000" stroke="#BABDB6" stroke-width="2"/><a xlink:title="R286W"><circle cx="153.531250" cy="59.000000" r="4.000000" fill="#ff0000" /></a><g transform="translate(153.531250,59.000000) rotate(-30)"><text style="font-size:10px;font-family:OpenSans;fill:#555;" text-anchor="middle" x="0" y="-6.000000">R286W</text></g><line x1="156.437500" x2="156.437500" y1="59.000000" y2="112.000000" stroke="#BABDB6" stroke-width="2"/><a xlink:title="G292R"><circle cx="156.437500" cy="59.000000" r="4.000000" fill="#ff0000" /></a><g transform="translate(156.437500,59.000000) rotate(-30)"><text style="font-size:10px;font-family:OpenSans;fill:#555;" text-anchor="middle" x="0" y="-6.000000">G292R</text></g><line x1="156.921875" x2="156.921875" y1="71.500000" y2="112.000000" stroke="#BABDB6" stroke-width="2"/><a xlink:title="R293W"><circle cx="156.921875" cy="71.500000" r="4.000000" fill="#ff0000" /></a><g transform="translate(156.921875,71.500000) rotate(-30)"><text style="font-size:10px;font-family:OpenSans;fill:#555;" text-anchor="middle" x="0" y="-6.000000">R293W</text></g><line x1="159.828125" x2="159.828125" y1="59.000000" y2="112.000000" stroke="#BABDB6" stroke-width="2"/><a xlink:title="G299R"><circle cx="159.828125" cy="59.000000" r="4.000000" fill="#ff0000" /></a><g transform="translate(159.828125,59.000000) rotate(-30)"><text style="font-size:10px;font-family:OpenSans;fill:#555;" text-anchor="middle" x="0" y="-6.000000">G299R</text></g><line x1="164.671875" x2="164.671875" y1="59.000000" y2="112.000000" stroke="#BABDB6" stroke-width="2"/><a xlink:title="A309A"><circle cx="164.671875" cy="59.000000" r="4.000000" fill="#0000ff" /></a><g transform="translate(164.671875,59.000000) rotate(-30)"><text style="font-size:10px;font-family:OpenSans;fill:#555;" text-anchor="middle" x="0" y="-6.000000">A309A</text></g><line x1="165.156250" x2="165.156250" y1="71.500000" y2="112.000000" stroke="#BABDB6" stroke-width="2"/><a xlink:title="E310D"><circle cx="165.156250" cy="71.500000" r="4.000000" fill="#ff0000" /></a><g transform="translate(165.156250,71.500000) rotate(-30)"><text style="font-size:10px;font-family:OpenSans;fill:#555;" text-anchor="middle" x="0" y="-6.000000">E310D</text></g><line x1="168.062500" x2="168.062500" y1="84.000000" y2="112.000000" stroke="#BABDB6" stroke-width="2"/><a xlink:title="A316A"><circle cx="168.062500" cy="84.000000" r="4.000000" fill="#0000ff" /></a><g transform="translate(168.062500,84.000000) rotate(-30)"><text style="font-size:10px;font-family:OpenSans;fill:#555;" text-anchor="middle" x="0" y="-6.000000">A316A</text></g><line x1="186.468750" x2="186.468750" y1="84.000000" y2="112.000000" stroke="#BABDB6" stroke-width="2"/><a xlink:title="L354I"><circle cx="186.468750" cy="84.000000" r="4.000000" fill="#ff0000" /></a><g transform="translate(186.468750,84.000000) rotate(-30)"><text style="font-size:10px;font-family:OpenSans;fill:#555;" text-anchor="middle" x="0" y="-6.000000">L354I</text></g><line x1="198.093750" x2="198.093750" y1="71.500000" y2="112.000000" stroke="#BABDB6" stroke-width="2"/><a xlink:title="R378W"><circle cx="198.093750" cy="71.500000" r="4.000000" fill="#ff0000" /></a><g transform="translate(198.093750,71.500000) rotate(-30)"><text style="font-size:10px;font-family:OpenSans;fill:#555;" text-anchor="middle" x="0" y="-6.000000">R378W</text></g><line x1="201.000000" x2="201.000000" y1="84.000000" y2="112.000000" stroke="#BABDB6" stroke-width="2"/><a xlink:title="G384R"><circle cx="201.000000" cy="84.000000" r="4.000000" fill="#ff0000" /></a><g transform="translate(201.000000,84.000000) rotate(-30)"><text style="font-size:10px;font-family:OpenSans;fill:#555;" text-anchor="middle" x="0" y="-6.000000">G384R</text></g><line x1="209.234375" x2="209.234375" y1="84.000000" y2="112.000000" stroke="#BABDB6" stroke-width="2"/><a xlink:title="A401A"><circle cx="209.234375" cy="84.000000" r="4.000000" fill="#0000ff" /></a><g transform="translate(209.234375,84.000000) rotate(-30)"><text style="font-size:10px;font-family:OpenSans;fill:#555;" text-anchor="middle" x="0" y="-6.000000">A401A</text></g><line x1="276.562500" x2="276.562500" y1="71.500000" y2="112.000000" stroke="#BABDB6" stroke-width="2"/><a xlink:title="P540L"><circle cx="276.562500" cy="71.500000" r="4.000000" fill="#ff0000" /></a><g transform="translate(276.562500,71.500000) rotate(-30)"><text style="font-size:10px;font-family:OpenSans;fill:#555;" text-anchor="middle" x="0" y="-6.000000">P540L</text></g><line x1="277.046875" x2="277.046875" y1="84.000000" y2="112.000000" stroke="#BABDB6" stroke-width="2"/><a xlink:title="R541P"><circle cx="277.046875" cy="84.000000" r="4.000000" fill="#ff0000" /></a><g transform="translate(277.046875,84.000000) rotate(-30)"><text style="font-size:10px;font-family:OpenSans;fill:#555;" text-anchor="middle" x="0" y="-6.000000">R541P</text></g><line x1="288.187500" x2="288.187500" y1="46.500000" y2="112.000000" stroke="#BABDB6" stroke-width="2"/><a xlink:title="P564L"><circle cx="288.187500" cy="46.500000" r="4.000000" fill="#ff0000" /></a><g transform="translate(288.187500,46.500000) rotate(-30)"><text style="font-size:10px;font-family:OpenSans;fill:#555;" text-anchor="middle" x="0" y="-6.000000">P564L</text></g><line x1="288.671875" x2="288.671875" y1="59.000000" y2="112.000000" stroke="#BABDB6" stroke-width="2"/><a xlink:title="R565P"><circle cx="288.671875" cy="59.000000" r="4.000000" fill="#ff0000" /></a><g transform="translate(288.671875,59.000000) rotate(-30)"><text style="font-size:10px;font-family:OpenSans;fill:#555;" text-anchor="middle" x="0" y="-6.000000">R565P</text></g><line x1="292.062500" x2="292.062500" y1="71.500000" y2="112.000000" stroke="#BABDB6" stroke-width="2"/><a xlink:title="P572L"><circle cx="292.062500" cy="71.500000" r="4.000000" fill="#ff0000" /></a><g transform="translate(292.062500,71.500000) rotate(-30)"><text style="font-size:10px;font-family:OpenSans;fill:#555;" text-anchor="middle" x="0" y="-6.000000">P572L</text></g><line x1="292.546875" x2="292.546875" y1="84.000000" y2="112.000000" stroke="#BABDB6" stroke-width="2"/><a xlink:title="R573P"><circle cx="292.546875" cy="84.000000" r="4.000000" fill="#ff0000" /></a><g transform="translate(292.546875,84.000000) rotate(-30)"><text style="font-size:10px;font-family:OpenSans;fill:#555;" text-anchor="middle" x="0" y="-6.000000">R573P</text></g><line x1="303.687500" x2="303.687500" y1="71.500000" y2="112.000000" stroke="#BABDB6" stroke-width="2"/><a xlink:title="P596L"><circle cx="303.687500" cy="71.500000" r="4.000000" fill="#ff0000" /></a><g transform="translate(303.687500,71.500000) rotate(-30)"><text style="font-size:10px;font-family:OpenSans;fill:#555;" text-anchor="middle" x="0" y="-6.000000">P596L</text></g><line x1="304.171875" x2="304.171875" y1="84.000000" y2="112.000000" stroke="#BABDB6" stroke-width="2"/><a xlink:title="R597P"><circle cx="304.171875" cy="84.000000" r="4.000000" fill="#ff0000" /></a><g transform="translate(304.171875,84.000000) rotate(-30)"><text style="font-size:10px;font-family:OpenSans;fill:#555;" text-anchor="middle" x="0" y="-6.000000">R597P</text></g><line x1="328.390625" x2="328.390625" y1="46.500000" y2="112.000000" stroke="#BABDB6" stroke-width="2"/><a xlink:title="P647L"><circle cx="328.390625" cy="46.500000" r="4.000000" fill="#ff0000" /></a><g transform="translate(328.390625,46.500000) rotate(-30)"><text style="font-size:10px;font-family:OpenSans;fill:#555;" text-anchor="middle" x="0" y="-6.000000">P647L</text></g><line x1="328.875000" x2="328.875000" y1="59.000000" y2="112.000000" stroke="#BABDB6" stroke-width="2"/><a xlink:title="R648P"><circle cx="328.875000" cy="59.000000" r="4.000000" fill="#ff0000" /></a><g transform="translate(328.875000,59.000000) rotate(-30)"><text style="font-size:10px;font-family:OpenSans;fill:#555;" text-anchor="middle" x="0" y="-6.000000">R648P</text></g><line x1="331.781250" x2="331.781250" y1="59.000000" y2="112.000000" stroke="#BABDB6" stroke-width="2"/><a xlink:title="P654L"><circle cx="331.781250" cy="59.000000" r="4.000000" fill="#ff0000" /></a><g transform="translate(331.781250,59.000000) rotate(-30)"><text style="font-size:10px;font-family:OpenSans;fill:#555;" text-anchor="middle" x="0" y="-6.000000">P654L</text></g><line x1="332.265625" x2="332.265625" y1="71.500000" y2="112.000000" stroke="#BABDB6" stroke-width="2"/><a xlink:title="R655P"><circle cx="332.265625" cy="71.500000" r="4.000000" fill="#ff0000" /></a><g transform="translate(332.265625,71.500000) rotate(-30)"><text style="font-size:10px;font-family:OpenSans;fill:#555;" text-anchor="middle" x="0" y="-6.000000">R655P</text></g><line x1="335.656250" x2="335.656250" y1="84.000000" y2="112.000000" stroke="#BABDB6" stroke-width="2"/><a xlink:title="S662L"><circle cx="335.656250" cy="84.000000" r="4.000000" fill="#ff0000" /></a><g transform="translate(335.656250,84.000000) rotate(-30)"><text style="font-size:10px;font-family:OpenSans;fill:#555;" text-anchor="middle" x="0" y="-6.000000">S662L</text></g><line x1="347.281250" x2="347.281250" y1="71.500000" y2="112.000000" stroke="#BABDB6" stroke-width="2"/><a xlink:title="S686L"><circle cx="347.281250" cy="71.500000" r="4.000000" fill="#ff0000" /></a><g transform="translate(347.281250,71.500000) rotate(-30)"><text style="font-size:10px;font-family:OpenSans;fill:#555;" text-anchor="middle" x="0" y="-6.000000">S686L</text></g><line x1="351.156250" x2="351.156250" y1="84.000000" y2="112.000000" stroke="#BABDB6" stroke-width="2"/><a xlink:title="S694L"><circle cx="351.156250" cy="84.000000" r="4.000000" fill="#ff0000" /></a><g transform="translate(351.156250,84.000000) rotate(-30)"><text style="font-size:10px;font-family:OpenSans;fill:#555;" text-anchor="middle" x="0" y="-6.000000">S694L</text></g><line x1="362.781250" x2="362.781250" y1="84.000000" y2="112.000000" stroke="#BABDB6" stroke-width="2"/><a xlink:title="S718L"><circle cx="362.781250" cy="84.000000" r="4.000000" fill="#ff0000" /></a><g transform="translate(362.781250,84.000000) rotate(-30)"><text style="font-size:10px;font-family:OpenSans;fill:#555;" text-anchor="middle" x="0" y="-6.000000">S718L</text></g><line x1="372.953125" x2="372.953125" y1="71.500000" y2="112.000000" stroke="#BABDB6" stroke-width="2"/><a xlink:title="P739L"><circle cx="372.953125" cy="71.500000" r="4.000000" fill="#ff0000" /></a><g transform="translate(372.953125,71.500000) rotate(-30)"><text style="font-size:10px;font-family:OpenSans;fill:#555;" text-anchor="middle" x="0" y="-6.000000">P739L</text></g><line x1="373.437500" x2="373.437500" y1="84.000000" y2="112.000000" stroke="#BABDB6" stroke-width="2"/><a xlink:title="R740P"><circle cx="373.437500" cy="84.000000" r="4.000000" fill="#ff0000" /></a><g transform="translate(373.437500,84.000000) rotate(-30)"><text style="font-size:10px;font-family:OpenSans;fill:#555;" text-anchor="middle" x="0" y="-6.000000">R740P</text></g><line x1="387.484375" x2="387.484375" y1="71.500000" y2="112.000000" stroke="#BABDB6" stroke-width="2"/><a xlink:title="S769L"><circle cx="387.484375" cy="71.500000" r="4.000000" fill="#ff0000" /></a><g transform="translate(387.484375,71.500000) rotate(-30)"><text style="font-size:10px;font-family:OpenSans;fill:#555;" text-anchor="middle" x="0" y="-6.000000">S769L</text></g><line x1="390.875000" x2="390.875000" y1="84.000000" y2="112.000000" stroke="#BABDB6" stroke-width="2"/><a xlink:title="S776L"><circle cx="390.875000" cy="84.000000" r="4.000000" fill="#ff0000" /></a><g transform="translate(390.875000,84.000000) rotate(-30)"><text style="font-size:10px;font-family:OpenSans;fill:#555;" text-anchor="middle" x="0" y="-6.000000">S776L</text></g><line x1="432.046875" x2="432.046875" y1="84.000000" y2="112.000000" stroke="#BABDB6" stroke-width="2"/><a xlink:title="S861L"><circle cx="432.046875" cy="84.000000" r="4.000000" fill="#ff0000" /></a><g transform="translate(432.046875,84.000000) rotate(-30)"><text style="font-size:10px;font-family:OpenSans;fill:#555;" text-anchor="middle" x="0" y="-6.000000">S861L</text></g><line x1="440.765625" x2="440.765625" y1="84.000000" y2="112.000000" stroke="#BABDB6" stroke-width="2"/><a xlink:title="A879A"><circle cx="440.765625" cy="84.000000" r="4.000000" fill="#0000ff" /></a><g transform="translate(440.765625,84.000000) rotate(-30)"><text style="font-size:10px;font-family:OpenSans;fill:#555;" text-anchor="middle" x="0" y="-6.000000">A879A</text></g><line x1="452.390625" x2="452.390625" y1="71.500000" y2="112.000000" stroke="#BABDB6" stroke-width="2"/><a xlink:title="A903A"><circle cx="452.390625" cy="71.500000" r="4.000000" fill="#0000ff" /></a><g transform="translate(452.390625,71.500000) rotate(-30)"><text style="font-size:10px;font-family:OpenSans;fill:#555;" text-anchor="middle" x="0" y="-6.000000">A903A</text></g><line x1="456.265625" x2="456.265625" y1="71.500000" y2="112.000000" stroke="#BABDB6" stroke-width="2"/><a xlink:title="A911A"><circle cx="456.265625" cy="71.500000" r="4.000000" fill="#0000ff" /></a><g transform="translate(456.265625,71.500000) rotate(-30)"><text style="font-size:10px;font-family:OpenSans;fill:#555;" text-anchor="middle" x="0" y="-6.000000">A911A</text></g><line x1="458.687500" x2="458.687500" y1="84.000000" y2="112.000000" stroke="#BABDB6" stroke-width="2"/><a xlink:title="D916D"><circle cx="458.687500" cy="84.000000" r="4.000000" fill="#0000ff" /></a><g transform="translate(458.687500,84.000000) rotate(-30)"><text style="font-size:10px;font-family:OpenSans;fill:#555;" text-anchor="middle" x="0" y="-6.000000">D916D</text></g><line x1="467.890625" x2="467.890625" y1="71.500000" y2="112.000000" stroke="#BABDB6" stroke-width="2"/><a xlink:title="A935A"><circle cx="467.890625" cy="71.500000" r="4.000000" fill="#0000ff" /></a><g transform="translate(467.890625,71.500000) rotate(-30)"><text style="font-size:10px;font-family:OpenSans;fill:#555;" text-anchor="middle" x="0" y="-6.000000">A935A</text></g><line x1="470.312500" x2="470.312500" y1="71.500000" y2="112.000000" stroke="#BABDB6" stroke-width="2"/><a xlink:title="D940D"><circle cx="470.312500" cy="71.500000" r="4.000000" fill="#0000ff" /></a><g transform="translate(470.312500,71.500000) rotate(-30)"><text style="font-size:10px;font-family:OpenSans;fill:#555;" text-anchor="middle" x="0" y="-6.000000">D940D</text></g><line x1="474.187500" x2="474.187500" y1="84.000000" y2="112.000000" stroke="#BABDB6" stroke-width="2"/><a xlink:title="D948D"><circle cx="474.187500" cy="84.000000" r="4.000000" fill="#0000ff" /></a><g transform="translate(474.187500,84.000000) rotate(-30)"><text style="font-size:10px;font-family:OpenSans;fill:#555;" text-anchor="middle" x="0" y="-6.000000">D948D</text></g><line x1="485.812500" x2="485.812500" y1="84.000000" y2="112.000000" stroke="#BABDB6" stroke-width="2"/><a xlink:title="D972D"><circle cx="485.812500" cy="84.000000" r="4.000000" fill="#0000ff" /></a><g transform="translate(485.812500,84.000000) rotate(-30)"><text style="font-size:10px;font-family:OpenSans;fill:#555;" text-anchor="middle" x="0" y="-6.000000">D972D</text></g><line x1="492.593750" x2="492.593750" y1="71.500000" y2="112.000000" stroke="#BABDB6" stroke-width="2"/><a xlink:title="A986A"><circle cx="492.593750" cy="71.500000" r="4.000000" fill="#0000ff" /></a><g transform="translate(492.593750,71.500000) rotate(-30)"><text style="font-size:10px;font-family:OpenSans;fill:#555;" text-anchor="middle" x="0" y="-6.000000">A986A</text></g><line x1="495.984375" x2="495.984375" y1="84.000000" y2="112.000000" stroke="#BABDB6" stroke-width="2"/><a xlink:title="A993A"><circle cx="495.984375" cy="84.000000" r="4.000000" fill="#0000ff" /></a><g transform="translate(495.984375,84.000000) rotate(-30)"><text style="font-size:10px;font-family:OpenSans;fill:#555;" text-anchor="middle" x="0" y="-6.000000">A993A</text></g><line x1="510.515625" x2="510.515625" y1="71.500000" y2="112.000000" stroke="#BABDB6" stroke-width="2"/><a xlink:title="D1023D"><circle cx="510.515625" cy="71.500000" r="4.000000" fill="#0000ff" /></a><g transform="translate(510.515625,71.500000) rotate(-30)"><text style="font-size:10px;font-family:OpenSans;fill:#555;" text-anchor="middle" x="0" y="-6.000000">D1023D</text></g><line x1="513.906250" x2="513.906250" y1="71.500000" y2="112.000000" stroke="#BABDB6" stroke-width="2"/><a xlink:title="D1030D"><circle cx="513.906250" cy="71.500000" r="4.000000" fill="#0000ff" /></a><g transform="translate(513.906250,71.500000) rotate(-30)"><text style="font-size:10px;font-family:OpenSans;fill:#555;" text-anchor="middle" x="0" y="-6.000000">D1030D</text></g><line x1="519.234375" x2="519.234375" y1="84.000000" y2="112.000000" stroke="#BABDB6" stroke-width="2"/><a xlink:title="R1041R"><circle cx="519.234375" cy="84.000000" r="4.000000" fill="#0000ff" /></a><g transform="translate(519.234375,84.000000) rotate(-30)"><text style="font-size:10px;font-family:OpenSans;fill:#555;" text-anchor="middle" x="0" y="-6.000000">R1041R</text></g><line x1="530.859375" x2="530.859375" y1="71.500000" y2="112.000000" stroke="#BABDB6" stroke-width="2"/><a xlink:title="R1065R"><circle cx="530.859375" cy="71.500000" r="4.000000" fill="#0000ff" /></a><g transform="translate(530.859375,71.500000) rotate(-30)"><text style="font-size:10px;font-family:OpenSans;fill:#555;" text-anchor="middle" x="0" y="-6.000000">R1065R</text></g><line x1="534.734375" x2="534.734375" y1="71.500000" y2="112.000000" stroke="#BABDB6" stroke-width="2"/><a xlink:title="R1073R"><circle cx="534.734375" cy="71.500000" r="4.000000" fill="#0000ff" /></a><g transform="translate(534.734375,71.500000) rotate(-30)"><text style="font-size:10px;font-family:OpenSans;fill:#555;" text-anchor="middle" x="0" y="-6.000000">R1073R</text></g><line x1="537.156250" x2="537.156250" y1="84.000000" y2="112.000000" stroke="#BABDB6" stroke-width="2"/><a xlink:title="A1078A"><circle cx="537.156250" cy="84.000000" r="4.000000" fill="#0000ff" /></a><g transform="translate(537.156250,84.000000) rotate(-30)"><text style="font-size:10px;font-family:OpenSans;fill:#555;" text-anchor="middle" x="0" y="-6.000000">A1078A</text></g><line x1="546.359375" x2="546.359375" y1="84.000000" y2="112.000000" stroke="#BABDB6" stroke-width="2"/><a xlink:title="R1097R"><circle cx="546.359375" cy="84.000000" r="4.000000" fill="#0000ff" /></a><g transform="translate(546.359375,84.000000) rotate(-30)"><text style="font-size:10px;font-family:OpenSans;fill:#555;" text-anchor="middle" x="0" y="-6.000000">R1097R</text></g><line x1="555.078125" x2="555.078125" y1="84.000000" y2="112.000000" stroke="#BABDB6" stroke-width="2"/><a xlink:title="D1115D"><circle cx="555.078125" cy="84.000000" r="4.000000" fill="#0000ff" /></a><g transform="translate(555.078125,84.000000) rotate(-30)"><text style="font-size:10px;font-family:OpenSans;fill:#555;" text-anchor="middle" x="0" y="-6.000000">D1115D</text></g><line x1="571.062500" x2="571.062500" y1="71.500000" y2="112.000000" stroke="#BABDB6" stroke-width="2"/><a xlink:title="R1148R"><circle cx="571.062500" cy="71.500000" r="4.000000" fill="#0000ff" /></a><g transform="translate(571.062500,71.500000) rotate(-30)"><text style="font-size:10px;font-family:OpenSans;fill:#555;" text-anchor="middle" x="0" y="-6.000000">R1148R</text></g><line x1="574.453125" x2="574.453125" y1="84.000000" y2="112.000000" stroke="#BABDB6" stroke-width="2"/><a xlink:title="R1155R"><circle cx="574.453125" cy="84.000000" r="4.000000" fill="#0000ff" /></a><g transform="translate(574.453125,84.000000) rotate(-30)"><text style="font-size:10px;font-family:OpenSans;fill:#555;" text-anchor="middle" x="0" y="-6.000000">R1155R</text></g><line x1="615.625000" x2="615.625000" y1="84.000000" y2="112.000000" stroke="#BABDB6" stroke-width="2"/><a xlink:title="R1240R"><circle cx="615.625000" cy="84.000000" r="4.000000" fill="#0000ff" /></a><g transform="translate(615.625000,84.000000) rotate(-30)"><text style="font-size:10px;font-family:OpenSans;fill:#555;" text-anchor="middle" x="0" y="-6.000000">R1240R</text></g><a xlink:title=",  (1233aa)"><rect fill="#BABDB6" x="15.000000" y="112.000000" width="597.234375" height="14.000000"/></a><g transform="translate(36.796875,107.000000)"><a xlink:href="https://www.ebi.ac.uk/interpro/entry/pfam/PF15262" xlink:title="Domain of unknown function (DUF4592)"><rect fill="#2DCF00" x="0" y="0" width="62.000000" height="24.000000" filter="url(#ds)"/><text style="font-size:12px;font-family:OpenSans;fill:#ffffff;" text-anchor="middle" x="31.000000" y="16.000000">DUF4592</text></a></g>
<g class="axis">
<line x1="15.000000" x2="612.234375" y1="141.000000" y2="141.000000" stroke="#AAAAAA" /><line x1="15.000000" x2="15.000000" y1="141.000000" y2="146.000000" stroke="#AAAAAA" /><line x1="17.906250" x2="17.906250" y1="141.000000" y2="146.000000" stroke="#AAAAAA" /><text style="font-size:10px;font-family:OpenSans;fill:#000000;" text-anchor="middle" x="17.906250" y="156.000000">6</text><line x1="58.109375" x2="58.109375" y1="141.000000" y2="146.000000" stroke="#AAAAAA" /><text style="font-size:10px;font-family:OpenSans;fill:#000000;" text-anchor="middle" x="58.109375" y="156.000000">89</text><line x1="80.390625" x2="80.390625" y1="141.000000" y2="146.000000" stroke="#AAAAAA" /><text style="font-size:10px;font-family:OpenSans;fill:#000000;" text-anchor="middle" x="80.390625" y="156.000000">135</text><line x1="101.703125" x2="101.703125" y1="141.000000" y2="146.000000" stroke="#AAAAAA" /><text style="font-size:10px;font-family:OpenSans;fill:#000000;" text-anchor="middle" x="101.703125" y="156.000000">179</text><line x1="123.984375" x2="123.984375" y1="141.000000" y2="146.000000" stroke="#AAAAAA" /><text style="font-size:10px;font-family:OpenSans;fill:#000000;" text-anchor="middle" x="123.984375" y="156.000000">225</text><line x1="145.296875" x2="145.296875" y1="141.000000" y2="146.000000" stroke="#AAAAAA" /><text style="font-size:10px;font-family:OpenSans;fill:#000000;" text-anchor="middle" x="145.296875" y="156.000000">269</text><line x1="165.156250" x2="165.156250" y1="141.000000" y2="146.000000" stroke="#AAAAAA" /><text style="font-size:10px;font-family:OpenSans;fill:#000000;" text-anchor="middle" x="165.156250" y="156.000000">310</text><line x1="186.468750" x2="186.468750" y1="141.000000" y2="146.000000" stroke="#AAAAAA" /><text style="font-size:10px;font-family:OpenSans;fill:#000000;" text-anchor="middle" x="186.468750" y="156.000000">354</text><line x1="209.234375" x2="209.234375" y1="141.000000" y2="146.000000" stroke="#AAAAAA" /><text style="font-size:10px;font-family:OpenSans;fill:#000000;" text-anchor="middle" x="209.234375" y="156.000000">401</text><line x1="276.562500" x2="276.562500" y1="141.000000" y2="146.000000" stroke="#AAAAAA" /><text style="font-size:10px;font-family:OpenSans;fill:#000000;" text-anchor="middle" x="276.562500" y="156.000000">540</text><line x1="303.687500" x2="303.687500" y1="141.000000" y2="146.000000" stroke="#AAAAAA" /><text style="font-size:10px;font-family:OpenSans;fill:#000000;" text-anchor="middle" x="303.687500" y="156.000000">596</text><line x1="328.390625" x2="328.390625" y1="141.000000" y2="146.000000" stroke="#AAAAAA" /><text style="font-size:10px;font-family:OpenSans;fill:#000000;" text-anchor="middle" x="328.390625" y="156.000000">647</text><line x1="351.156250" x2="351.156250" y1="141.000000" y2="146.000000" stroke="#AAAAAA" /><text style="font-size:10px;font-family:OpenSans;fill:#000000;" text-anchor="middle" x="351.156250" y="156.000000">694</text><line x1="372.953125" x2="372.953125" y1="141.000000" y2="146.000000" stroke="#AAAAAA" /><text style="font-size:10px;font-family:OpenSans;fill:#000000;" text-anchor="middle" x="372.953125" y="156.000000">739</text><line x1="432.046875" x2="432.046875" y1="141.000000" y2="146.000000" stroke="#AAAAAA" /><text style="font-size:10px;font-family:OpenSans;fill:#000000;" text-anchor="middle" x="432.046875" y="156.000000">861</text><line x1="452.390625" x2="452.390625" y1="141.000000" y2="146.000000" stroke="#AAAAAA" /><text style="font-size:10px;font-family:OpenSans;fill:#000000;" text-anchor="middle" x="452.390625" y="156.000000">903</text><line x1="474.187500" x2="474.187500" y1="141.000000" y2="146.000000" stroke="#AAAAAA" /><text style="font-size:10px;font-family:OpenSans;fill:#000000;" text-anchor="middle" x="474.187500" y="156.000000">948</text><line x1="495.984375" x2="495.984375" y1="141.000000" y2="146.000000" stroke="#AAAAAA" /><text style="font-size:10px;font-family:OpenSans;fill:#000000;" text-anchor="middle" x="495.984375" y="156.000000">993</text><line x1="519.234375" x2="519.234375" y1="141.000000" y2="146.000000" stroke="#AAAAAA" /><text style="font-size:10px;font-family:OpenSans;fill:#000000;" text-anchor="middle" x="519.234375" y="156.000000">1041</text><line x1="546.359375" x2="546.359375" y1="141.000000" y2="146.000000" stroke="#AAAAAA" /><text style="font-size:10px;font-family:OpenSans;fill:#000000;" text-anchor="middle" x="546.359375" y="156.000000">1097</text><line x1="571.062500" x2="571.062500" y1="141.000000" y2="146.000000" stroke="#AAAAAA" /><text style="font-size:10px;font-family:OpenSans;fill:#000000;" text-anchor="middle" x="571.062500" y="156.000000">1148</text><line x1="612.234375" x2="612.234375" y1="141.000000" y2="146.000000" stroke="#AAAAAA" /><text style="font-size:10px;font-family:OpenSans;fill:#000000;" text-anchor="middle" x="612.234375" y="156.000000">1233</text></g>
<rect fill="#2DCF00" x="4" y="170.000000" width="12" height="12" filter="url(#ds)"/><text style="font-size:12px;font-family:OpenSans;fill:#000000;" text-anchor="start" x="20" y="182.000000">Domain of unknown function (DUF4592)</text></svg>
