<?xml version='1.0'?>
<svg xmlns="http://www.w3.org/2000/svg" xmlns:xlink="http://www.w3.org/1999/xlink" width="729.073864" height="258.700000">
<defs>
  <filter id="ds" x="0" y="0">
    <feOffset in="SourceAlpha" dx="2" dy="2" />
    <feComponentTransfer><feFuncA type="linear" slope="0.2"/></feComponentTransfer>
    <feGaussianBlur result="blurOut" stdDeviation="1" />
    <feBlend in="SourceGraphic" in2="blurOut" mode="normal" />
  </filter>
  <pattern id="disordered-hatch" patternUnits="userSpaceOnUse" width="4" height="4">
    <path d="M-1,1 l2,-2 M0,4 l4,-4 M3,5 l2,-2" stroke="#000000" opacity="0.3" />
  </pattern>
</defs>
<line x1="17.079545" x2="17.079545" y1="134.000000" y2="174.500000" stroke="#BABDB6" stroke-width="2"/><a xlink:title="S6L"><circle cx="17.079545" cy="134.000000" r="4.000000" fill="#ff0000" /></a><g transform="translate(17.079545,134.000000) rotate(-30)"><text style="font-size:10px;font-family:OpenSans;fill:#555;" text-anchor="middle" x="0" y="-6.000000">S6L</text></g><line x1="17.079545" x2="17.079545" y1="146.500000" y2="174.500000" stroke="#BABDB6" stroke-width="2"/><a xlink:title="S6S"><circle cx="17.079545" cy="146.500000" r="4.000000" fill="#0000ff" /></a><g transform="translate(17.079545,146.500000) rotate(-30)"><text style="font-size:10px;font-family:OpenSans;fill:#555;" text-anchor="middle" x="0" y="-6.000000">S6S</text></g><line x1="39.607955" x2="39.607955" y1="121.500000" y2="174.500000" stroke="#BABDB6" stroke-width="2"/><a xlink:title="T71T"><circle cx="39.607955" cy="121.500000" r="4.000000" fill="#0000ff" /></a><g transform="translate(39.607955,121.500000) rotate(-30)"><text style="font-size:10px;font-family:OpenSans;fill:#555;" text-anchor="middle" x="0" y="-6.000000">T71T</text></g><line x1="42.034091" x2="42.034091" y1="134.000000" y2="174.500000" stroke="#BABDB6" stroke-width="2"/><a xlink:title="S78L"><circle cx="42.034091" cy="134.000000" r="4.000000" fill="#ff0000" /></a><g transform="translate(42.034091,134.000000) rotate(-30)"><text style="font-size:10px;font-family:OpenSans;fill:#555;" text-anchor="middle" x="0" y="-6.000000">S78L</text></g><line x1="42.034091" x2="42.034091" y1="146.500000" y2="174.500000" stroke="#BABDB6" stroke-width="2"/><a xlink:title="S78S"><circle cx="42.034091" cy="146.500000" r="4.000000" fill="#0000ff" /></a><g transform="translate(42.034091,146.500000) rotate(-30)"><text style="font-size:10px;font-family:OpenSans;fill:#555;" text-anchor="middle" x="0" y="-6.000000">S78S</text></g><line x1="60.056818" x2="60.056818" y1="96.500000" y2="174.500000" stroke="#BABDB6" stroke-width="2"/><a xlink:title="L130L"><circle cx="60.056818" cy="96.500000" r="4.000000" fill="#0000ff" /></a><g transform="translate(60.056818,96.500000) rotate(-30)"><text style="font-size:10px;font-family:OpenSans;fill:#555;" text-anchor="middle" x="0" y="-6.000000">L130L</text></g><line x1="60.403409" x2="60.403409" y1="109.000000" y2="174.500000" stroke="#BABDB6" stroke-width="2"/><a xlink:title="E131K"><circle cx="60.403409" cy="109.000000" r="4.000000" fill="#ff0000" /></a><g transform="translate(60.403409,109.000000) rotate(-30)"><text style="font-size:10px;font-family:OpenSans;fill:#555;" text-anchor="middle" x="0" y="-6.000000">E131K</text></g><line x1="61.789773" x2="61.789773" y1="121.500000" y2="174.500000" stroke="#BABDB6" stroke-width="2"/><a xlink:title="R135Q"><circle cx="61.789773" cy="121.500000" r="4.000000" fill="#ff0000" /></a><g transform="translate(61.789773,121.500000) rotate(-30)"><text style="font-size:10px;font-family:OpenSans;fill:#555;" text-anchor="middle" x="0" y="-6.000000">R135Q</text></g><line x1="62.136364" x2="62.136364" y1="134.000000" y2="174.500000" stroke="#BABDB6" stroke-width="2"/><a xlink:title="D136E"><circle cx="62.136364" cy="134.000000" r="4.000000" fill="#ff0000" /></a><g transform="translate(62.136364,134.000000) rotate(-30)"><text style="font-size:10px;font-family:OpenSans;fill:#555;" text-anchor="middle" x="0" y="-6.000000">D136E</text></g><line x1="63.869318" x2="63.869318" y1="146.500000" y2="174.500000" stroke="#BABDB6" stroke-width="2"/><a xlink:title="E141K"><circle cx="63.869318" cy="146.500000" r="4.000000" fill="#ff0000" /></a><g transform="translate(63.869318,146.500000) rotate(-30)"><text style="font-size:10px;font-family:OpenSans;fill:#555;" text-anchor="middle" x="0" y="-6.000000">E141K</text></g><line x1="85.011364" x2="85.011364" y1="109.000000" y2="174.500000" stroke="#BABDB6" stroke-width="2"/><a xlink:title="A202V"><circle cx="85.011364" cy="109.000000" r="4.000000" fill="#ff0000" /></a><g transform="translate(85.011364,109.000000) rotate(-30)"><text style="font-size:10px;font-family:OpenSans;fill:#555;" text-anchor="middle" x="0" y="-6.000000">A202V</text></g><line x1="85.704545" x2="85.704545" y1="121.500000" y2="174.500000" stroke="#BABDB6" stroke-width="2"/><a xlink:title="D204E"><circle cx="85.704545" cy="121.500000" r="4.000000" fill="#ff0000" /></a><g transform="translate(85.704545,121.500000) rotate(-30)"><text style="font-size:10px;font-family:OpenSans;fill:#555;" text-anchor="middle" x="0" y="-6.000000">D204E</text></g><line x1="87.090909" x2="87.090909" y1="134.000000" y2="174.500000" stroke="#BABDB6" stroke-width="2"/><a xlink:title="D208E"><circle cx="87.090909" cy="134.000000" r="4.000000" fill="#ff0000" /></a><g transform="translate(87.090909,134.000000) rotate(-30)"><text style="font-size:10px;font-family:OpenSans;fill:#555;" text-anchor="middle" x="0" y="-6.000000">D208E</text></g><line x1="87.090909" x2="87.090909" y1="146.500000" y2="174.500000" stroke="#BABDB6" stroke-width="2"/><a xlink:title="D208D"><circle cx="87.090909" cy="146.500000" r="4.000000" fill="#0000ff" /></a><g transform="translate(87.090909,146.500000) rotate(-30)"><text style="font-size:10px;font-family:OpenSans;fill:#555;" text-anchor="middle" x="0" y="-6.000000">D208D</text></g><line x1="109.965909" x2="109.965909" y1="146.500000" y2="174.500000" stroke="#BABDB6" stroke-width="2"/><a xlink:title="P274S"><circle cx="109.965909" cy="146.500000" r="4.000000" fill="#ff0000" /></a><g transform="translate(109.965909,146.500000) rotate(-30)"><text style="font-size:10px;font-family:OpenSans;fill:#555;" text-anchor="middle" x="0" y="-6.000000">P274S</text></g><line x1="117.244318" x2="117.244318" y1="109.000000" y2="174.500000" stroke="#BABDB6" stroke-width="2"/><a xlink:title="L295L"><circle cx="117.244318" cy="109.000000" r="4.000000" fill="#0000ff" /></a><g transform="translate(117.244318,109.000000) rotate(-30)"><text style="font-size:10px;font-family:OpenSans;fill:#555;" text-anchor="middle" x="0" y="-6.000000">L295L</text></g><line x1="117.590909" x2="117.590909" y1="121.500000" y2="174.500000" stroke="#BABDB6" stroke-width="2"/><a xlink:title="E296K"><circle cx="117.590909" cy="121.500000" r="4.000000" fill="#ff0000" /></a><g transform="translate(117.590909,121.500000) rotate(-30)"><text style="font-size:10px;font-family:OpenSans;fill:#555;" text-anchor="middle" x="0" y="-6.000000">E296K</text></g><line x1="118.977273" x2="118.977273" y1="134.000000" y2="174.500000" stroke="#BABDB6" stroke-width="2"/><a xlink:title="R300Q"><circle cx="118.977273" cy="134.000000" r="4.000000" fill="#ff0000" /></a><g transform="translate(118.977273,134.000000) rotate(-30)"><text style="font-size:10px;font-family:OpenSans;fill:#555;" text-anchor="middle" x="0" y="-6.000000">R300Q</text></g><line x1="121.056818" x2="121.056818" y1="146.500000" y2="174.500000" stroke="#BABDB6" stroke-width="2"/><a xlink:title="E306K"><circle cx="121.056818" cy="146.500000" r="4.000000" fill="#ff0000" /></a><g transform="translate(121.056818,146.500000) rotate(-30)"><text style="font-size:10px;font-family:OpenSans;fill:#555;" text-anchor="middle" x="0" y="-6.000000">E306K</text></g><line x1="133.187500" x2="133.187500" y1="134.000000" y2="174.500000" stroke="#BABDB6" stroke-width="2"/><a xlink:title="D341D"><circle cx="133.187500" cy="134.000000" r="4.000000" fill="#0000ff" /></a><g transform="translate(133.187500,134.000000) rotate(-30)"><text style="font-size:10px;font-family:OpenSans;fill:#555;" text-anchor="middle" x="0" y="-6.000000">D341D</text></g><line x1="135.960227" x2="135.960227" y1="121.500000" y2="174.500000" stroke="#BABDB6" stroke-width="2"/><a xlink:title="D349H"><circle cx="135.960227" cy="121.500000" r="4.000000" fill="#ff0000" /></a><g transform="translate(135.960227,121.500000) rotate(-30)"><text style="font-size:10px;font-family:OpenSans;fill:#555;" text-anchor="middle" x="0" y="-6.000000">D349H</text></g><line x1="140.812500" x2="140.812500" y1="34.000000" y2="174.500000" stroke="#BABDB6" stroke-width="2"/><a xlink:title="L363L"><circle cx="140.812500" cy="34.000000" r="4.000000" fill="#0000ff" /></a><g transform="translate(140.812500,34.000000) rotate(-30)"><text style="font-size:10px;font-family:OpenSans;fill:#555;" text-anchor="middle" x="0" y="-6.000000">L363L</text></g><line x1="141.159091" x2="141.159091" y1="46.500000" y2="174.500000" stroke="#BABDB6" stroke-width="2"/><a xlink:title="E364K"><circle cx="141.159091" cy="46.500000" r="4.000000" fill="#ff0000" /></a><g transform="translate(141.159091,46.500000) rotate(-30)"><text style="font-size:10px;font-family:OpenSans;fill:#555;" text-anchor="middle" x="0" y="-6.000000">E364K</text></g><line x1="142.198864" x2="142.198864" y1="59.000000" y2="174.500000" stroke="#BABDB6" stroke-width="2"/><a xlink:title="L367L"><circle cx="142.198864" cy="59.000000" r="4.000000" fill="#0000ff" /></a><g transform="translate(142.198864,59.000000) rotate(-30)"><text style="font-size:10px;font-family:OpenSans;fill:#555;" text-anchor="middle" x="0" y="-6.000000">L367L</text></g><line x1="142.198864" x2="142.198864" y1="71.500000" y2="174.500000" stroke="#BABDB6" stroke-width="2"/><a xlink:title="A367V"><circle cx="142.198864" cy="71.500000" r="4.000000" fill="#ff0000" /></a><g transform="translate(142.198864,71.500000) rotate(-30)"><text style="font-size:10px;font-family:OpenSans;fill:#555;" text-anchor="middle" x="0" y="-6.000000">A367V</text></g><line x1="142.545455" x2="142.545455" y1="84.000000" y2="174.500000" stroke="#BABDB6" stroke-width="2"/><a xlink:title="E368K"><circle cx="142.545455" cy="84.000000" r="4.000000" fill="#ff0000" /></a><g transform="translate(142.545455,84.000000) rotate(-30)"><text style="font-size:10px;font-family:OpenSans;fill:#555;" text-anchor="middle" x="0" y="-6.000000">E368K</text></g><line x1="142.545455" x2="142.545455" y1="96.500000" y2="174.500000" stroke="#BABDB6" stroke-width="2"/><a xlink:title="R368Q"><circle cx="142.545455" cy="96.500000" r="4.000000" fill="#ff0000" /></a><g transform="translate(142.545455,96.500000) rotate(-30)"><text style="font-size:10px;font-family:OpenSans;fill:#555;" text-anchor="middle" x="0" y="-6.000000">R368Q</text></g><line x1="143.931818" x2="143.931818" y1="109.000000" y2="174.500000" stroke="#BABDB6" stroke-width="2"/><a xlink:title="R372Q"><circle cx="143.931818" cy="109.000000" r="4.000000" fill="#ff0000" /></a><g transform="translate(143.931818,109.000000) rotate(-30)"><text style="font-size:10px;font-family:OpenSans;fill:#555;" text-anchor="middle" x="0" y="-6.000000">R372Q</text></g><line x1="144.278409" x2="144.278409" y1="121.500000" y2="174.500000" stroke="#BABDB6" stroke-width="2"/><a xlink:title="D373D"><circle cx="144.278409" cy="121.500000" r="4.000000" fill="#0000ff" /></a><g transform="translate(144.278409,121.500000) rotate(-30)"><text style="font-size:10px;font-family:OpenSans;fill:#555;" text-anchor="middle" x="0" y="-6.000000">D373D</text></g><line x1="144.625000" x2="144.625000" y1="134.000000" y2="174.500000" stroke="#BABDB6" stroke-width="2"/><a xlink:title="E374K"><circle cx="144.625000" cy="134.000000" r="4.000000" fill="#ff0000" /></a><g transform="translate(144.625000,134.000000) rotate(-30)"><text style="font-size:10px;font-family:OpenSans;fill:#555;" text-anchor="middle" x="0" y="-6.000000">E374K</text></g><line x1="146.011364" x2="146.011364" y1="146.500000" y2="174.500000" stroke="#BABDB6" stroke-width="2"/><a xlink:title="E378K"><circle cx="146.011364" cy="146.500000" r="4.000000" fill="#ff0000" /></a><g transform="translate(146.011364,146.500000) rotate(-30)"><text style="font-size:10px;font-family:OpenSans;fill:#555;" text-anchor="middle" x="0" y="-6.000000">E378K</text></g><line x1="159.875000" x2="159.875000" y1="134.000000" y2="174.500000" stroke="#BABDB6" stroke-width="2"/><a xlink:title="A418A"><circle cx="159.875000" cy="134.000000" r="4.000000" fill="#0000ff" /></a><g transform="translate(159.875000,134.000000) rotate(-30)"><text style="font-size:10px;font-family:OpenSans;fill:#555;" text-anchor="middle" x="0" y="-6.000000">A418A</text></g><line x1="165.767045" x2="165.767045" y1="96.500000" y2="174.500000" stroke="#BABDB6" stroke-width="2"/><a xlink:title="A435V"><circle cx="165.767045" cy="96.500000" r="4.000000" fill="#ff0000" /></a><g transform="translate(165.767045,96.500000) rotate(-30)"><text style="font-size:10px;font-family:OpenSans;fill:#555;" text-anchor="middle" x="0" y="-6.000000">A435V</text></g><line x1="167.153409" x2="167.153409" y1="109.000000" y2="174.500000" stroke="#BABDB6" stroke-width="2"/><a xlink:title="A439V"><circle cx="167.153409" cy="109.000000" r="4.000000" fill="#ff0000" /></a><g transform="translate(167.153409,109.000000) rotate(-30)"><text style="font-size:10px;font-family:OpenSans;fill:#555;" text-anchor="middle" x="0" y="-6.000000">A439V</text></g><line x1="167.153409" x2="167.153409" y1="121.500000" y2="174.500000" stroke="#BABDB6" stroke-width="2"/><a xlink:title="P439S"><circle cx="167.153409" cy="121.500000" r="4.000000" fill="#ff0000" /></a><g transform="translate(167.153409,121.500000) rotate(-30)"><text style="font-size:10px;font-family:OpenSans;fill:#555;" text-anchor="middle" x="0" y="-6.000000">P439S</text></g><line x1="167.846591" x2="167.846591" y1="134.000000" y2="174.500000" stroke="#BABDB6" stroke-width="2"/><a xlink:title="D441D"><circle cx="167.846591" cy="134.000000" r="4.000000" fill="#0000ff" /></a><g transform="translate(167.846591,134.000000) rotate(-30)"><text style="font-size:10px;font-family:OpenSans;fill:#555;" text-anchor="middle" x="0" y="-6.000000">D441D</text></g><line x1="169.232955" x2="169.232955" y1="146.500000" y2="174.500000" stroke="#BABDB6" stroke-width="2"/><a xlink:title="D445D"><circle cx="169.232955" cy="146.500000" r="4.000000" fill="#0000ff" /></a><g transform="translate(169.232955,146.500000) rotate(-30)"><text style="font-size:10px;font-family:OpenSans;fill:#555;" text-anchor="middle" x="0" y="-6.000000">D445D</text></g><line x1="190.375000" x2="190.375000" y1="109.000000" y2="174.500000" stroke="#BABDB6" stroke-width="2"/><a xlink:title="D506D"><circle cx="190.375000" cy="109.000000" r="4.000000" fill="#0000ff" /></a><g transform="translate(190.375000,109.000000) rotate(-30)"><text style="font-size:10px;font-family:OpenSans;fill:#555;" text-anchor="middle" x="0" y="-6.000000">D506D</text></g><line x1="190.721591" x2="190.721591" y1="121.500000" y2="174.500000" stroke="#BABDB6" stroke-width="2"/><a xlink:title="P507S"><circle cx="190.721591" cy="121.500000" r="4.000000" fill="#ff0000" /></a><g transform="translate(190.721591,121.500000) rotate(-30)"><text style="font-size:10px;font-family:OpenSans;fill:#555;" text-anchor="middle" x="0" y="-6.000000">P507S</text></g><line x1="192.107955" x2="192.107955" y1="134.000000" y2="174.500000" stroke="#BABDB6" stroke-width="2"/><a xlink:title="P511S"><circle cx="192.107955" cy="134.000000" r="4.000000" fill="#ff0000" /></a><g transform="translate(192.107955,134.000000) rotate(-30)"><text style="font-size:10px;font-family:OpenSans;fill:#555;" text-anchor="middle" x="0" y="-6.000000">P511S</text></g><line x1="193.147727" x2="193.147727" y1="146.500000" y2="174.500000" stroke="#BABDB6" stroke-width="2"/><a xlink:title="D514H"><circle cx="193.147727" cy="146.500000" r="4.000000" fill="#ff0000" /></a><g transform="translate(193.147727,146.500000) rotate(-30)"><text style="font-size:10px;font-family:OpenSans;fill:#555;" text-anchor="middle" x="0" y="-6.000000">D514H</text></g><line x1="212.903409" x2="212.903409" y1="71.500000" y2="174.500000" stroke="#BABDB6" stroke-width="2"/><a xlink:title="L571L"><circle cx="212.903409" cy="71.500000" r="4.000000" fill="#0000ff" /></a><g transform="translate(212.903409,71.500000) rotate(-30)"><text style="font-size:10px;font-family:OpenSans;fill:#555;" text-anchor="middle" x="0" y="-6.000000">L571L</text></g><line x1="213.943182" x2="213.943182" y1="84.000000" y2="174.500000" stroke="#BABDB6" stroke-width="2"/><a xlink:title="D574D"><circle cx="213.943182" cy="84.000000" r="4.000000" fill="#0000ff" /></a><g transform="translate(213.943182,84.000000) rotate(-30)"><text style="font-size:10px;font-family:OpenSans;fill:#555;" text-anchor="middle" x="0" y="-6.000000">D574D</text></g><line x1="215.329545" x2="215.329545" y1="96.500000" y2="174.500000" stroke="#BABDB6" stroke-width="2"/><a xlink:title="D578D"><circle cx="215.329545" cy="96.500000" r="4.000000" fill="#0000ff" /></a><g transform="translate(215.329545,96.500000) rotate(-30)"><text style="font-size:10px;font-family:OpenSans;fill:#555;" text-anchor="middle" x="0" y="-6.000000">D578D</text></g><line x1="216.715909" x2="216.715909" y1="109.000000" y2="174.500000" stroke="#BABDB6" stroke-width="2"/><a xlink:title="D582H"><circle cx="216.715909" cy="109.000000" r="4.000000" fill="#ff0000" /></a><g transform="translate(216.715909,109.000000) rotate(-30)"><text style="font-size:10px;font-family:OpenSans;fill:#555;" text-anchor="middle" x="0" y="-6.000000">D582H</text></g><line x1="217.062500" x2="217.062500" y1="121.500000" y2="174.500000" stroke="#BABDB6" stroke-width="2"/><a xlink:title="A583A"><circle cx="217.062500" cy="121.500000" r="4.000000" fill="#0000ff" /></a><g transform="translate(217.062500,121.500000) rotate(-30)"><text style="font-size:10px;font-family:OpenSans;fill:#555;" text-anchor="middle" x="0" y="-6.000000">A583A</text></g><line x1="218.102273" x2="218.102273" y1="134.000000" y2="174.500000" stroke="#BABDB6" stroke-width="2"/><a xlink:title="D586H"><circle cx="218.102273" cy="134.000000" r="4.000000" fill="#ff0000" /></a><g transform="translate(218.102273,134.000000) rotate(-30)"><text style="font-size:10px;font-family:OpenSans;fill:#555;" text-anchor="middle" x="0" y="-6.000000">D586H</text></g><line x1="218.448864" x2="218.448864" y1="146.500000" y2="174.500000" stroke="#BABDB6" stroke-width="2"/><a xlink:title="T587T"><circle cx="218.448864" cy="146.500000" r="4.000000" fill="#0000ff" /></a><g transform="translate(218.448864,146.500000) rotate(-30)"><text style="font-size:10px;font-family:OpenSans;fill:#555;" text-anchor="middle" x="0" y="-6.000000">T587T</text></g><line x1="240.630682" x2="240.630682" y1="134.000000" y2="174.500000" stroke="#BABDB6" stroke-width="2"/><a xlink:title="A651A"><circle cx="240.630682" cy="134.000000" r="4.000000" fill="#0000ff" /></a><g transform="translate(240.630682,134.000000) rotate(-30)"><text style="font-size:10px;font-family:OpenSans;fill:#555;" text-anchor="middle" x="0" y="-6.000000">A651A</text></g><line x1="242.017045" x2="242.017045" y1="146.500000" y2="174.500000" stroke="#BABDB6" stroke-width="2"/><a xlink:title="A655A"><circle cx="242.017045" cy="146.500000" r="4.000000" fill="#0000ff" /></a><g transform="translate(242.017045,146.500000) rotate(-30)"><text style="font-size:10px;font-family:OpenSans;fill:#555;" text-anchor="middle" x="0" y="-6.000000">A655A</text></g><line x1="254.147727" x2="254.147727" y1="146.500000" y2="174.500000" stroke="#BABDB6" stroke-width="2"/><a xlink:title="R690Q"><circle cx="254.147727" cy="146.500000" r="4.000000" fill="#ff0000" /></a><g transform="translate(254.147727,146.500000) rotate(-30)"><text style="font-size:10px;font-family:OpenSans;fill:#555;" text-anchor="middle" x="0" y="-6.000000">R690Q</text></g><line x1="270.090909" x2="270.090909" y1="134.000000" y2="174.500000" stroke="#BABDB6" stroke-width="2"/><a xlink:title="L736L"><circle cx="270.090909" cy="134.000000" r="4.000000" fill="#0000ff" /></a><g transform="translate(270.090909,134.000000) rotate(-30)"><text style="font-size:10px;font-family:OpenSans;fill:#555;" text-anchor="middle" x="0" y="-6.000000">L736L</text></g><line x1="275.636364" x2="275.636364" y1="146.500000" y2="174.500000" stroke="#BABDB6" stroke-width="2"/><a xlink:title="T752T"><circle cx="275.636364" cy="146.500000" r="4.000000" fill="#0000ff" /></a><g transform="translate(275.636364,146.500000) rotate(-30)"><text style="font-size:10px;font-family:OpenSans;fill:#555;" text-anchor="middle" x="0" y="-6.000000">T752T</text></g><line x1="293.659091" x2="293.659091" y1="121.500000" y2="174.500000" stroke="#BABDB6" stroke-width="2"/><a xlink:title="L804L"><circle cx="293.659091" cy="121.500000" r="4.000000" fill="#0000ff" /></a><g transform="translate(293.659091,121.500000) rotate(-30)"><text style="font-size:10px;font-family:OpenSans;fill:#555;" text-anchor="middle" x="0" y="-6.000000">L804L</text></g><line x1="295.045455" x2="295.045455" y1="121.500000" y2="174.500000" stroke="#BABDB6" stroke-width="2"/><a xlink:title="L808L"><circle cx="295.045455" cy="121.500000" r="4.000000" fill="#0000ff" /></a><g transform="translate(295.045455,121.500000) rotate(-30)"><text style="font-size:10px;font-family:OpenSans;fill:#555;" text-anchor="middle" x="0" y="-6.000000">L808L</text></g><line x1="299.204545" x2="299.204545" y1="134.000000" y2="174.500000" stroke="#BABDB6" stroke-width="2"/><a xlink:title="T820T"><circle cx="299.204545" cy="134.000000" r="4.000000" fill="#0000ff" /></a><g transform="translate(299.204545,134.000000) rotate(-30)"><text style="font-size:10px;font-family:OpenSans;fill:#555;" text-anchor="middle" x="0" y="-6.000000">T820T</text></g><line x1="300.590909" x2="300.590909" y1="146.500000" y2="174.500000" stroke="#BABDB6" stroke-width="2"/><a xlink:title="T824T"><circle cx="300.590909" cy="146.500000" r="4.000000" fill="#0000ff" /></a><g transform="translate(300.590909,146.500000) rotate(-30)"><text style="font-size:10px;font-family:OpenSans;fill:#555;" text-anchor="middle" x="0" y="-6.000000">T824T</text></g><line x1="311.335227" x2="311.335227" y1="146.500000" y2="174.500000" stroke="#BABDB6" stroke-width="2"/><a xlink:title="R855Q"><circle cx="311.335227" cy="146.500000" r="4.000000" fill="#ff0000" /></a><g transform="translate(311.335227,146.500000) rotate(-30)"><text style="font-size:10px;font-family:OpenSans;fill:#555;" text-anchor="middle" x="0" y="-6.000000">R855Q</text></g><line x1="332.823864" x2="332.823864" y1="121.500000" y2="174.500000" stroke="#BABDB6" stroke-width="2"/><a xlink:title="R917H"><circle cx="332.823864" cy="121.500000" r="4.000000" fill="#ff0000" /></a><g transform="translate(332.823864,121.500000) rotate(-30)"><text style="font-size:10px;font-family:OpenSans;fill:#555;" text-anchor="middle" x="0" y="-6.000000">R917H</text></g><line x1="334.903409" x2="334.903409" y1="134.000000" y2="174.500000" stroke="#BABDB6" stroke-width="2"/><a xlink:title="R923Q"><circle cx="334.903409" cy="134.000000" r="4.000000" fill="#ff0000" /></a><g transform="translate(334.903409,134.000000) rotate(-30)"><text style="font-size:10px;font-family:OpenSans;fill:#555;" text-anchor="middle" x="0" y="-6.000000">R923Q</text></g><line x1="336.289773" x2="336.289773" y1="146.500000" y2="174.500000" stroke="#BABDB6" stroke-width="2"/><a xlink:title="R927Q"><circle cx="336.289773" cy="146.500000" r="4.000000" fill="#ff0000" /></a><g transform="translate(336.289773,146.500000) rotate(-30)"><text style="font-size:10px;font-family:OpenSans;fill:#555;" text-anchor="middle" x="0" y="-6.000000">R927Q</text></g><line x1="370.255682" x2="370.255682" y1="146.500000" y2="174.500000" stroke="#BABDB6" stroke-width="2"/><a xlink:title="G1025G"><circle cx="370.255682" cy="146.500000" r="4.000000" fill="#0000ff" /></a><g transform="translate(370.255682,146.500000) rotate(-30)"><text style="font-size:10px;font-family:OpenSans;fill:#555;" text-anchor="middle" x="0" y="-6.000000">G1025G</text></g><line x1="390.011364" x2="390.011364" y1="146.500000" y2="174.500000" stroke="#BABDB6" stroke-width="2"/><a xlink:title="R1082H"><circle cx="390.011364" cy="146.500000" r="4.000000" fill="#ff0000" /></a><g transform="translate(390.011364,146.500000) rotate(-30)"><text style="font-size:10px;font-family:OpenSans;fill:#555;" text-anchor="middle" x="0" y="-6.000000">R1082H</text></g><line x1="413.579545" x2="413.579545" y1="121.500000" y2="174.500000" stroke="#BABDB6" stroke-width="2"/><a xlink:title="R1150H"><circle cx="413.579545" cy="121.500000" r="4.000000" fill="#ff0000" /></a><g transform="translate(413.579545,121.500000) rotate(-30)"><text style="font-size:10px;font-family:OpenSans;fill:#555;" text-anchor="middle" x="0" y="-6.000000">R1150H</text></g><line x1="414.965909" x2="414.965909" y1="134.000000" y2="174.500000" stroke="#BABDB6" stroke-width="2"/><a xlink:title="R1154H"><circle cx="414.965909" cy="134.000000" r="4.000000" fill="#ff0000" /></a><g transform="translate(414.965909,134.000000) rotate(-30)"><text style="font-size:10px;font-family:OpenSans;fill:#555;" text-anchor="middle" x="0" y="-6.000000">R1154H</text></g><line x1="417.392045" x2="417.392045" y1="146.500000" y2="174.500000" stroke="#BABDB6" stroke-width="2"/><a xlink:title="A1161A"><circle cx="417.392045" cy="146.500000" r="4.000000" fill="#0000ff" /></a><g transform="translate(417.392045,146.500000) rotate(-30)"><text style="font-size:10px;font-family:OpenSans;fill:#555;" text-anchor="middle" x="0" y="-6.000000">A1161A</text></g><line x1="427.443182" x2="427.443182" y1="146.500000" y2="174.500000" stroke="#BABDB6" stroke-width="2"/><a xlink:title="G1190G"><circle cx="427.443182" cy="146.500000" r="4.000000" fill="#0000ff" /></a><g transform="translate(427.443182,146.500000) rotate(-30)"><text style="font-size:10px;font-family:OpenSans;fill:#555;" text-anchor="middle" x="0" y="-6.000000">G1190G</text></g><line x1="451.011364" x2="451.011364" y1="134.000000" y2="174.500000" stroke="#BABDB6" stroke-width="2"/><a xlink:title="G1258G"><circle cx="451.011364" cy="134.000000" r="4.000000" fill="#0000ff" /></a><g transform="translate(451.011364,134.000000) rotate(-30)"><text style="font-size:10px;font-family:OpenSans;fill:#555;" text-anchor="middle" x="0" y="-6.000000">G1258G</text></g><line x1="452.397727" x2="452.397727" y1="146.500000" y2="174.500000" stroke="#BABDB6" stroke-width="2"/><a xlink:title="G1262G"><circle cx="452.397727" cy="146.500000" r="4.000000" fill="#0000ff" /></a><g transform="translate(452.397727,146.500000) rotate(-30)"><text style="font-size:10px;font-family:OpenSans;fill:#555;" text-anchor="middle" x="0" y="-6.000000">G1262G</text></g><line x1="474.579545" x2="474.579545" y1="134.000000" y2="174.500000" stroke="#BABDB6" stroke-width="2"/><a xlink:title="A1326A"><circle cx="474.579545" cy="134.000000" r="4.000000" fill="#0000ff" /></a><g transform="translate(474.579545,134.000000) rotate(-30)"><text style="font-size:10px;font-family:OpenSans;fill:#555;" text-anchor="middle" x="0" y="-6.000000">A1326A</text></g><line x1="476.312500" x2="476.312500" y1="146.500000" y2="174.500000" stroke="#BABDB6" stroke-width="2"/><a xlink:title="R1331C"><circle cx="476.312500" cy="146.500000" r="4.000000" fill="#ff0000" /></a><g transform="translate(476.312500,146.500000) rotate(-30)"><text style="font-size:10px;font-family:OpenSans;fill:#555;" text-anchor="middle" x="0" y="-6.000000">R1331C</text></g><line x1="498.147727" x2="498.147727" y1="134.000000" y2="174.500000" stroke="#BABDB6" stroke-width="2"/><a xlink:title="A1394A"><circle cx="498.147727" cy="134.000000" r="4.000000" fill="#0000ff" /></a><g transform="translate(498.147727,134.000000) rotate(-30)"><text style="font-size:10px;font-family:OpenSans;fill:#555;" text-anchor="middle" x="0" y="-6.000000">A1394A</text></g><line x1="499.534091" x2="499.534091" y1="146.500000" y2="174.500000" stroke="#BABDB6" stroke-width="2"/><a xlink:title="A1398A"><circle cx="499.534091" cy="146.500000" r="4.000000" fill="#0000ff" /></a><g transform="translate(499.534091,146.500000) rotate(-30)"><text style="font-size:10px;font-family:OpenSans;fill:#555;" text-anchor="middle" x="0" y="-6.000000">A1398A</text></g><line x1="520.676136" x2="520.676136" y1="146.500000" y2="174.500000" stroke="#BABDB6" stroke-width="2"/><a xlink:title="S1459S"><circle cx="520.676136" cy="146.500000" r="4.000000" fill="#0000ff" /></a><g transform="translate(520.676136,146.500000) rotate(-30)"><text style="font-size:10px;font-family:OpenSans;fill:#555;" text-anchor="middle" x="0" y="-6.000000">S1459S</text></g><line x1="527.261364" x2="527.261364" y1="146.500000" y2="174.500000" stroke="#BABDB6" stroke-width="2"/><a xlink:title="A1478A"><circle cx="527.261364" cy="146.500000" r="4.000000" fill="#0000ff" /></a><g transform="translate(527.261364,146.500000) rotate(-30)"><text style="font-size:10px;font-family:OpenSans;fill:#555;" text-anchor="middle" x="0" y="-6.000000">A1478A</text></g><line x1="533.500000" x2="533.500000" y1="146.500000" y2="174.500000" stroke="#BABDB6" stroke-width="2"/><a xlink:title="R1496C"><circle cx="533.500000" cy="146.500000" r="4.000000" fill="#ff0000" /></a><g transform="translate(533.500000,146.500000) rotate(-30)"><text style="font-size:10px;font-family:OpenSans;fill:#555;" text-anchor="middle" x="0" y="-6.000000">R1496C</text></g><line x1="554.988636" x2="554.988636" y1="121.500000" y2="174.500000" stroke="#BABDB6" stroke-width="2"/><a xlink:title="R1558G"><circle cx="554.988636" cy="121.500000" r="4.000000" fill="#ff0000" /></a><g transform="translate(554.988636,121.500000) rotate(-30)"><text style="font-size:10px;font-family:OpenSans;fill:#555;" text-anchor="middle" x="0" y="-6.000000">R1558G</text></g><line x1="557.068182" x2="557.068182" y1="134.000000" y2="174.500000" stroke="#BABDB6" stroke-width="2"/><a xlink:title="R1564C"><circle cx="557.068182" cy="134.000000" r="4.000000" fill="#ff0000" /></a><g transform="translate(557.068182,134.000000) rotate(-30)"><text style="font-size:10px;font-family:OpenSans;fill:#555;" text-anchor="middle" x="0" y="-6.000000">R1564C</text></g><line x1="558.454545" x2="558.454545" y1="146.500000" y2="174.500000" stroke="#BABDB6" stroke-width="2"/><a xlink:title="R1568C"><circle cx="558.454545" cy="146.500000" r="4.000000" fill="#ff0000" /></a><g transform="translate(558.454545,146.500000) rotate(-30)"><text style="font-size:10px;font-family:OpenSans;fill:#555;" text-anchor="middle" x="0" y="-6.000000">R1568C</text></g><line x1="572.664773" x2="572.664773" y1="134.000000" y2="174.500000" stroke="#BABDB6" stroke-width="2"/><a xlink:title="R1609H"><circle cx="572.664773" cy="134.000000" r="4.000000" fill="#ff0000" /></a><g transform="translate(572.664773,134.000000) rotate(-30)"><text style="font-size:10px;font-family:OpenSans;fill:#555;" text-anchor="middle" x="0" y="-6.000000">R1609H</text></g><line x1="577.863636" x2="577.863636" y1="146.500000" y2="174.500000" stroke="#BABDB6" stroke-width="2"/><a xlink:title="S1624S"><circle cx="577.863636" cy="146.500000" r="4.000000" fill="#0000ff" /></a><g transform="translate(577.863636,146.500000) rotate(-30)"><text style="font-size:10px;font-family:OpenSans;fill:#555;" text-anchor="middle" x="0" y="-6.000000">S1624S</text></g><line x1="584.448864" x2="584.448864" y1="146.500000" y2="174.500000" stroke="#BABDB6" stroke-width="2"/><a xlink:title="A1643A"><circle cx="584.448864" cy="146.500000" r="4.000000" fill="#0000ff" /></a><g transform="translate(584.448864,146.500000) rotate(-30)"><text style="font-size:10px;font-family:OpenSans;fill:#555;" text-anchor="middle" x="0" y="-6.000000">A1643A</text></g><line x1="601.431818" x2="601.431818" y1="134.000000" y2="174.500000" stroke="#BABDB6" stroke-width="2"/><a xlink:title="S1692S"><circle cx="601.431818" cy="134.000000" r="4.000000" fill="#0000ff" /></a><g transform="translate(601.431818,134.000000) rotate(-30)"><text style="font-size:10px;font-family:OpenSans;fill:#555;" text-anchor="middle" x="0" y="-6.000000">S1692S</text></g><line x1="602.818182" x2="602.818182" y1="134.000000" y2="174.500000" stroke="#BABDB6" stroke-width="2"/><a xlink:title="S1696S"><circle cx="602.818182" cy="134.000000" r="4.000000" fill="#0000ff" /></a><g transform="translate(602.818182,134.000000) rotate(-30)"><text style="font-size:10px;font-family:OpenSans;fill:#555;" text-anchor="middle" x="0" y="-6.000000">S1696S</text></g><line x1="608.017045" x2="608.017045" y1="121.500000" y2="174.500000" stroke="#BABDB6" stroke-width="2"/><a xlink:title="A1711A"><circle cx="608.017045" cy="121.500000" r="4.000000" fill="#0000ff" /></a><g transform="translate(608.017045,121.500000) rotate(-30)"><text style="font-size:10px;font-family:OpenSans;fill:#555;" text-anchor="middle" x="0" y="-6.000000">A1711A</text></g><line x1="609.403409" x2="609.403409" y1="134.000000" y2="174.500000" stroke="#BABDB6" stroke-width="2"/><a xlink:title="A1715A"><circle cx="609.403409" cy="134.000000" r="4.000000" fill="#0000ff" /></a><g transform="translate(609.403409,134.000000) rotate(-30)"><text style="font-size:10px;font-family:OpenSans;fill:#555;" text-anchor="middle" x="0" y="-6.000000">A1715A</text></g><line x1="612.176136" x2="612.176136" y1="134.000000" y2="174.500000" stroke="#BABDB6" stroke-width="2"/><a xlink:title="R1723G"><circle cx="612.176136" cy="134.000000" r="4.000000" fill="#ff0000" /></a><g transform="translate(612.176136,134.000000) rotate(-30)"><text style="font-size:10px;font-family:OpenSans;fill:#555;" text-anchor="middle" x="0" y="-6.000000">R1723G</text></g><line x1="617.375000" x2="617.375000" y1="146.500000" y2="174.500000" stroke="#BABDB6" stroke-width="2"/><a xlink:title="R1738W"><circle cx="617.375000" cy="146.500000" r="4.000000" fill="#ff0000" /></a><g transform="translate(617.375000,146.500000) rotate(-30)"><text style="font-size:10px;font-family:OpenSans;fill:#555;" text-anchor="middle" x="0" y="-6.000000">R1738W</text></g><line x1="629.852273" x2="629.852273" y1="134.000000" y2="174.500000" stroke="#BABDB6" stroke-width="2"/><a xlink:title="R1774H"><circle cx="629.852273" cy="134.000000" r="4.000000" fill="#ff0000" /></a><g transform="translate(629.852273,134.000000) rotate(-30)"><text style="font-size:10px;font-family:OpenSans;fill:#555;" text-anchor="middle" x="0" y="-6.000000">R1774H</text></g><line x1="635.744318" x2="635.744318" y1="134.000000" y2="174.500000" stroke="#BABDB6" stroke-width="2"/><a xlink:title="R1791G"><circle cx="635.744318" cy="134.000000" r="4.000000" fill="#ff0000" /></a><g transform="translate(635.744318,134.000000) rotate(-30)"><text style="font-size:10px;font-family:OpenSans;fill:#555;" text-anchor="middle" x="0" y="-6.000000">R1791G</text></g><line x1="637.130682" x2="637.130682" y1="146.500000" y2="174.500000" stroke="#BABDB6" stroke-width="2"/><a xlink:title="R1795G"><circle cx="637.130682" cy="146.500000" r="4.000000" fill="#ff0000" /></a><g transform="translate(637.130682,146.500000) rotate(-30)"><text style="font-size:10px;font-family:OpenSans;fill:#555;" text-anchor="middle" x="0" y="-6.000000">R1795G</text></g><line x1="653.420455" x2="653.420455" y1="134.000000" y2="174.500000" stroke="#BABDB6" stroke-width="2"/><a xlink:title="R1842H"><circle cx="653.420455" cy="134.000000" r="4.000000" fill="#ff0000" /></a><g transform="translate(653.420455,134.000000) rotate(-30)"><text style="font-size:10px;font-family:OpenSans;fill:#555;" text-anchor="middle" x="0" y="-6.000000">R1842H</text></g><line x1="654.806818" x2="654.806818" y1="146.500000" y2="174.500000" stroke="#BABDB6" stroke-width="2"/><a xlink:title="R1846H"><circle cx="654.806818" cy="146.500000" r="4.000000" fill="#ff0000" /></a><g transform="translate(654.806818,146.500000) rotate(-30)"><text style="font-size:10px;font-family:OpenSans;fill:#555;" text-anchor="middle" x="0" y="-6.000000">R1846H</text></g><line x1="674.562500" x2="674.562500" y1="146.500000" y2="174.500000" stroke="#BABDB6" stroke-width="2"/><a xlink:title="R1903W"><circle cx="674.562500" cy="146.500000" r="4.000000" fill="#ff0000" /></a><g transform="translate(674.562500,146.500000) rotate(-30)"><text style="font-size:10px;font-family:OpenSans;fill:#555;" text-anchor="middle" x="0" y="-6.000000">R1903W</text></g><line x1="698.130682" x2="698.130682" y1="134.000000" y2="174.500000" stroke="#BABDB6" stroke-width="2"/><a xlink:title="R1971W"><circle cx="698.130682" cy="134.000000" r="4.000000" fill="#ff0000" /></a><g transform="translate(698.130682,134.000000) rotate(-30)"><text style="font-size:10px;font-family:OpenSans;fill:#555;" text-anchor="middle" x="0" y="-6.000000">R1971W</text></g><line x1="699.517045" x2="699.517045" y1="146.500000" y2="174.500000" stroke="#BABDB6" stroke-width="2"/><a xlink:title="R1975W"><circle cx="699.517045" cy="146.500000" r="4.000000" fill="#ff0000" /></a><g transform="translate(699.517045,146.500000) rotate(-30)"><text style="font-size:10px;font-family:OpenSans;fill:#555;" text-anchor="middle" x="0" y="-6.000000">R1975W</text></g><a xlink:title=",  (2017aa)"><rect fill="#BABDB6" x="15.000000" y="174.500000" width="699.073864" height="14.000000"/></a><g transform="translate(69.068182,169.500000)"><a xlink:href="https://www.ebi.ac.uk/interpro/entry/pfam/PF15035" xlink:title="Ciliary rootlet component, centrosome cohesion"><rect fill="#2DCF00" x="0" y="0" width="61.000000" height="24.000000" filter="url(#ds)"/><text style="font-size:12px;font-family:OpenSans;fill:#ffffff;" text-anchor="middle" x="30.500000" y="16.000000">Rootletin</text></a></g>
<g class="axis">
<line x1="15.000000" x2="714.073864" y1="203.500000" y2="203.500000" stroke="#AAAAAA" /><line x1="15.000000" x2="15.000000" y1="203.500000" y2="208.500000" stroke="#AAAAAA" /><line x1="17.079545" x2="17.079545" y1="203.500000" y2="208.500000" stroke="#AAAAAA" /><text style="font-size:10px;font-family:OpenSans;fill:#000000;" text-anchor="middle" x="17.079545" y="218.500000">6</text><line x1="39.607955" x2="39.607955" y1="203.500000" y2="208.500000" stroke="#AAAAAA" /><text style="font-size:10px;font-family:OpenSans;fill:#000000;" text-anchor="middle" x="39.607955" y="218.500000">71</text><line x1="60.056818" x2="60.056818" y1="203.500000" y2="208.500000" stroke="#AAAAAA" /><text style="font-size:10px;font-family:OpenSans;fill:#000000;" text-anchor="middle" x="60.056818" y="218.500000">130</text><line x1="85.011364" x2="85.011364" y1="203.500000" y2="208.500000" stroke="#AAAAAA" /><text style="font-size:10px;font-family:OpenSans;fill:#000000;" text-anchor="middle" x="85.011364" y="218.500000">202</text><line x1="109.965909" x2="109.965909" y1="203.500000" y2="208.500000" stroke="#AAAAAA" /><text style="font-size:10px;font-family:OpenSans;fill:#000000;" text-anchor="middle" x="109.965909" y="218.500000">274</text><line x1="133.187500" x2="133.187500" y1="203.500000" y2="208.500000" stroke="#AAAAAA" /><text style="font-size:10px;font-family:OpenSans;fill:#000000;" text-anchor="middle" x="133.187500" y="218.500000">341</text><line x1="159.875000" x2="159.875000" y1="203.500000" y2="208.500000" stroke="#AAAAAA" /><text style="font-size:10px;font-family:OpenSans;fill:#000000;" text-anchor="middle" x="159.875000" y="218.500000">418</text><line x1="190.375000" x2="190.375000" y1="203.500000" y2="208.500000" stroke="#AAAAAA" /><text style="font-size:10px;font-family:OpenSans;fill:#000000;" text-anchor="middle" x="190.375000" y="218.500000">506</text><line x1="212.903409" x2="212.903409" y1="203.500000" y2="208.500000" stroke="#AAAAAA" /><text style="font-size:10px;font-family:OpenSans;fill:#000000;" text-anchor="middle" x="212.903409" y="218.500000">571</text><line x1="240.630682" x2="240.630682" y1="203.500000" y2="208.500000" stroke="#AAAAAA" /><text style="font-size:10px;font-family:OpenSans;fill:#000000;" text-anchor="middle" x="240.630682" y="218.500000">651</text><line x1="270.090909" x2="270.090909" y1="203.500000" y2="208.500000" stroke="#AAAAAA" /><text style="font-size:10px;font-family:OpenSans;fill:#000000;" text-anchor="middle" x="270.090909" y="218.500000">736</text><line x1="293.659091" x2="293.659091" y1="203.500000" y2="208.500000" stroke="#AAAAAA" /><text style="font-size:10px;font-family:OpenSans;fill:#000000;" text-anchor="middle" x="293.659091" y="218.500000">804</text><line x1="332.823864" x2="332.823864" y1="203.500000" y2="208.500000" stroke="#AAAAAA" /><text style="font-size:10px;font-family:OpenSans;fill:#000000;" text-anchor="middle" x="332.823864" y="218.500000">917</text><line x1="370.255682" x2="370.255682" y1="203.500000" y2="208.500000" stroke="#AAAAAA" /><text style="font-size:10px;font-family:OpenSans;fill:#000000;" text-anchor="middle" x="370.255682" y="218.500000">1025</text><line x1="390.011364" x2="390.011364" y1="203.500000" y2="208.500000" stroke="#AAAAAA" /><text style="font-size:10px;font-family:OpenSans;fill:#000000;" text-anchor="middle" x="390.011364" y="218.500000">1082</text><line x1="413.579545" x2="413.579545" y1="203.500000" y2="208.500000" stroke="#AAAAAA" /><text style="font-size:10px;font-family:OpenSans;fill:#000000;" text-anchor="middle" x="413.579545" y="218.500000">1150</text><line x1="451.011364" x2="451.011364" y1="203.500000" y2="208.500000" stroke="#AAAAAA" /><text style="font-size:10px;font-family:OpenSans;fill:#000000;" text-anchor="middle" x="451.011364" y="218.500000">1258</text><line x1="474.579545" x2="474.579545" y1="203.500000" y2="208.500000" stroke="#AAAAAA" /><text style="font-size:10px;font-family:OpenSans;fill:#000000;" text-anchor="middle" x="474.579545" y="218.500000">1326</text><line x1="498.147727" x2="498.147727" y1="203.500000" y2="208.500000" stroke="#AAAAAA" /><text style="font-size:10px;font-family:OpenSans;fill:#000000;" text-anchor="middle" x="498.147727" y="218.500000">1394</text><line x1="520.676136" x2="520.676136" y1="203.500000" y2="208.500000" stroke="#AAAAAA" /><text style="font-size:10px;font-family:OpenSans;fill:#000000;" text-anchor="middle" x="520.676136" y="218.500000">1459</text><line x1="554.988636" x2="554.988636" y1="203.500000" y2="208.500000" stroke="#AAAAAA" /><text style="font-size:10px;font-family:OpenSans;fill:#000000;" text-anchor="middle" x="554.988636" y="218.500000">1558</text><line x1="577.863636" x2="577.863636" y1="203.500000" y2="208.500000" stroke="#AAAAAA" /><text style="font-size:10px;font-family:OpenSans;fill:#000000;" text-anchor="middle" x="577.863636" y="218.500000">1624</text><line x1="601.431818" x2="601.431818" y1="203.500000" y2="208.500000" stroke="#AAAAAA" /><text style="font-size:10px;font-family:OpenSans;fill:#000000;" text-anchor="middle" x="601.431818" y="218.500000">1692</text><line x1="629.852273" x2="629.852273" y1="203.500000" y2="208.500000" stroke="#AAAAAA" /><text style="font-size:10px;font-family:OpenSans;fill:#000000;" text-anchor="middle" x="629.852273" y="218.500000">1774</text><line x1="653.420455" x2="653.420455" y1="203.500000" y2="208.500000" stroke="#AAAAAA" /><text style="font-size:10px;font-family:OpenSans;fill:#000000;" text-anchor="middle" x="653.420455" y="218.500000">1842</text><line x1="674.562500" x2="674.562500" y1="203.500000" y2="208.500000" stroke="#AAAAAA" /><text style="font-size:10px;font-family:OpenSans;fill:#000000;" text-anchor="middle" x="674.562500" y="218.500000">1903</text><line x1="714.073864" x2="714.073864" y1="203.500000" y2="208.500000" stroke="#AAAAAA" /><text style="font-size:10px;font-family:OpenSans;fill:#000000;" text-anchor="middle" x="714.073864" y="218.500000">2017</text></g>
<rect fill="#2DCF00" x="4" y="232.500000" width="12" height="12" filter="url(#ds)"/><text style="font-size:12px;font-family:OpenSans;fill:#000000;" text-anchor="start" x="20" y="244.500000">Ciliary rootlet component, centrosome cohesion</text></svg>
