<?xml version='1.0'?>
<svg xmlns="http://www.w3.org/2000/svg" xmlns:xlink="http://www.w3.org/1999/xlink" width="1626.260870" height="146.200000">
<defs>
  <filter id="ds" x="0" y="0">
    <feOffset in="SourceAlpha" dx="2" dy="2" />
    <feComponentTransfer><feFuncA type="linear" slope="0.2"/></feComponentTransfer>
    <feGaussianBlur result="blurOut" stdDeviation="1" />
    <feBlend in="SourceGraphic" in2="blurOut" mode="normal" />
  </filter>
  <pattern id="disordered-hatch" patternUnits="userSpaceOnUse" width="4" height="4">
    <path d="M-1,1 l2,-2 M0,4 l4,-4 M3,5 l2,-2" stroke="#000000" opacity="0.3" />
  </pattern>
</defs>
<line x1="574.826087" x2="574.826087" y1="34.000000" y2="62.000000" stroke="#BABDB6" stroke-width="2"/><a xlink:title="L148L"><circle cx="574.826087" cy="34.000000" r="4.000000" fill="#0000ff" /></a><g transform="translate(574.826087,34.000000) rotate(-30)"><text style="font-size:10px;font-family:OpenSans;fill:#555;" text-anchor="middle" x="0" y="-6.000000">L148L</text></g><a xlink:title=",  (422aa)"><rect fill="#BABDB6" x="15.000000" y="62.000000" width="1596.260870" height="14.000000"/></a><g transform="translate(185.217391,57.000000)"><a xlink:href="https://www.ebi.ac.uk/interpro/entry/pfam/PF00069" xlink:title="Protein kinase domain"><rect fill="#2DCF00" x="0" y="0" width="820.826087" height="24.000000" filter="url(#ds)"/><text style="font-size:12px;font-family:OpenSans;fill:#ffffff;" text-anchor="middle" x="410.413043" y="16.000000">Protein kinase domain</text></a></g>
<g transform="translate(1267.043478,57.000000)"><a xlink:href="https://www.ebi.ac.uk/interpro/entry/pfam/PF12605" xlink:title="Casein kinase 1 gamma C terminal"><rect fill="#FF5353" x="0" y="0" width="117.260870" height="24.000000" filter="url(#ds)"/><text style="font-size:12px;font-family:OpenSans;fill:#ffffff;" text-anchor="middle" x="58.630435" y="16.000000">CK1gamma_C</text></a></g>
<g transform="translate(1410.782609,57.000000)"><a xlink:href="https://www.ebi.ac.uk/interpro/entry/pfam/PF12605" xlink:title="Casein kinase 1 gamma C terminal"><rect fill="#5B5BFF" x="0" y="0" width="87.000000" height="24.000000" filter="url(#ds)"/><text style="font-size:12px;font-family:OpenSans;fill:#ffffff;" text-anchor="middle" x="43.500000" y="16.000000">CK1gamma_C</text></a></g>
<g class="axis">
<line x1="15.000000" x2="1611.260870" y1="91.000000" y2="91.000000" stroke="#AAAAAA" /><line x1="15.000000" x2="15.000000" y1="91.000000" y2="96.000000" stroke="#AAAAAA" /><line x1="15.000000" x2="15.000000" y1="91.000000" y2="96.000000" stroke="#AAAAAA" /><text style="font-size:10px;font-family:OpenSans;fill:#000000;" text-anchor="middle" x="15.000000" y="106.000000">0</text><line x1="185.217391" x2="185.217391" y1="91.000000" y2="96.000000" stroke="#AAAAAA" /><text style="font-size:10px;font-family:OpenSans;fill:#000000;" text-anchor="middle" x="185.217391" y="106.000000">45</text><line x1="574.826087" x2="574.826087" y1="91.000000" y2="96.000000" stroke="#AAAAAA" /><text style="font-size:10px;font-family:OpenSans;fill:#000000;" text-anchor="middle" x="574.826087" y="106.000000">148</text><line x1="1006.043478" x2="1006.043478" y1="91.000000" y2="96.000000" stroke="#AAAAAA" /><text style="font-size:10px;font-family:OpenSans;fill:#000000;" text-anchor="middle" x="1006.043478" y="106.000000">262</text><line x1="1267.043478" x2="1267.043478" y1="91.000000" y2="96.000000" stroke="#AAAAAA" /><text style="font-size:10px;font-family:OpenSans;fill:#000000;" text-anchor="middle" x="1267.043478" y="106.000000">331</text><line x1="1384.304348" x2="1384.304348" y1="91.000000" y2="96.000000" stroke="#AAAAAA" /><text style="font-size:10px;font-family:OpenSans;fill:#000000;" text-anchor="middle" x="1384.304348" y="106.000000">362</text><line x1="1410.782609" x2="1410.782609" y1="91.000000" y2="96.000000" stroke="#AAAAAA" /><text style="font-size:10px;font-family:OpenSans;fill:#000000;" text-anchor="middle" x="1410.782609" y="106.000000">369</text><line x1="1497.782609" x2="1497.782609" y1="91.000000" y2="96.000000" stroke="#AAAAAA" /><text style="font-size:10px;font-family:OpenSans;fill:#000000;" text-anchor="middle" x="1497.782609" y="106.000000">392</text><line x1="1611.260870" x2="1611.260870" y1="91.000000" y2="96.000000" stroke="#AAAAAA" /><text style="font-size:10px;font-family:OpenSans;fill:#000000;" text-anchor="middle" x="1611.260870" y="106.000000">422</text></g>
<rect fill="#5B5BFF" x="4" y="120.000000" width="12" height="12" filter="url(#ds)"/><text style="font-size:12px;font-family:OpenSans;fill:#000000;" text-anchor="start" x="20" y="132.000000">Casein kinase 1 gamma C terminal</text></svg>
