<?xml version='1.0'?>
<svg xmlns="http://www.w3.org/2000/svg" xmlns:xlink="http://www.w3.org/1999/xlink" width="430.000000" height="170.500000">
<defs>
  <filter id="ds" x="0" y="0">
    <feOffset in="SourceAlpha" dx="2" dy="2" />
    <feComponentTransfer><feFuncA type="linear" slope="0.2"/></feComponentTransfer>
    <feGaussianBlur result="blurOut" stdDeviation="1" />
    <feBlend in="SourceGraphic" in2="blurOut" mode="normal" />
  </filter>
  <pattern id="disordered-hatch" patternUnits="userSpaceOnUse" width="4" height="4">
    <path d="M-1,1 l2,-2 M0,4 l4,-4 M3,5 l2,-2" stroke="#000000" opacity="0.3" />
  </pattern>
</defs>
<line x1="35.558659" x2="35.558659" y1="71.500000" y2="99.500000" stroke="#BABDB6" stroke-width="2"/><a xlink:title="I46V"><circle cx="35.558659" cy="71.500000" r="4.000000" fill="#ff0000" /></a><g transform="translate(35.558659,71.500000) rotate(-30)"><text style="font-size:10px;font-family:OpenSans;fill:#555;" text-anchor="middle" x="0" y="-6.000000">I46V</text></g><line x1="74.441341" x2="74.441341" y1="59.000000" y2="99.500000" stroke="#BABDB6" stroke-width="2"/><a xlink:title="T133T"><circle cx="74.441341" cy="59.000000" r="4.000000" fill="#0000ff" /></a><g transform="translate(74.441341,59.000000) rotate(-30)"><text style="font-size:10px;font-family:OpenSans;fill:#555;" text-anchor="middle" x="0" y="-6.000000">T133T</text></g><line x1="79.804469" x2="79.804469" y1="46.500000" y2="99.500000" stroke="#BABDB6" stroke-width="2"/><a xlink:title="T145T"><circle cx="79.804469" cy="46.500000" r="4.000000" fill="#0000ff" /></a><g transform="translate(79.804469,46.500000) rotate(-30)"><text style="font-size:10px;font-family:OpenSans;fill:#555;" text-anchor="middle" x="0" y="-6.000000">T145T</text></g><line x1="82.039106" x2="82.039106" y1="46.500000" y2="99.500000" stroke="#BABDB6" stroke-width="2"/><a xlink:title="I150V"><circle cx="82.039106" cy="46.500000" r="4.000000" fill="#ff0000" /></a><g transform="translate(82.039106,46.500000) rotate(-30)"><text style="font-size:10px;font-family:OpenSans;fill:#555;" text-anchor="middle" x="0" y="-6.000000">I150V</text></g><line x1="82.039106" x2="82.039106" y1="59.000000" y2="99.500000" stroke="#BABDB6" stroke-width="2"/><a xlink:title="H150R"><circle cx="82.039106" cy="59.000000" r="4.000000" fill="#ff0000" /></a><g transform="translate(82.039106,59.000000) rotate(-30)"><text style="font-size:10px;font-family:OpenSans;fill:#555;" text-anchor="middle" x="0" y="-6.000000">H150R</text></g><line x1="87.402235" x2="87.402235" y1="71.500000" y2="99.500000" stroke="#BABDB6" stroke-width="2"/><a xlink:title="H162R"><circle cx="87.402235" cy="71.500000" r="4.000000" fill="#ff0000" /></a><g transform="translate(87.402235,71.500000) rotate(-30)"><text style="font-size:10px;font-family:OpenSans;fill:#555;" text-anchor="middle" x="0" y="-6.000000">H162R</text></g><line x1="118.240223" x2="118.240223" y1="71.500000" y2="99.500000" stroke="#BABDB6" stroke-width="2"/><a xlink:title="S231N"><circle cx="118.240223" cy="71.500000" r="4.000000" fill="#ff0000" /></a><g transform="translate(118.240223,71.500000) rotate(-30)"><text style="font-size:10px;font-family:OpenSans;fill:#555;" text-anchor="middle" x="0" y="-6.000000">S231N</text></g><line x1="127.625698" x2="127.625698" y1="46.500000" y2="99.500000" stroke="#BABDB6" stroke-width="2"/><a xlink:title="I252T"><circle cx="127.625698" cy="46.500000" r="4.000000" fill="#ff0000" /></a><g transform="translate(127.625698,46.500000) rotate(-30)"><text style="font-size:10px;font-family:OpenSans;fill:#555;" text-anchor="middle" x="0" y="-6.000000">I252T</text></g><line x1="130.754190" x2="130.754190" y1="46.500000" y2="99.500000" stroke="#BABDB6" stroke-width="2"/><a xlink:title="V259V"><circle cx="130.754190" cy="46.500000" r="4.000000" fill="#0000ff" /></a><g transform="translate(130.754190,46.500000) rotate(-30)"><text style="font-size:10px;font-family:OpenSans;fill:#555;" text-anchor="middle" x="0" y="-6.000000">V259V</text></g><line x1="131.201117" x2="131.201117" y1="59.000000" y2="99.500000" stroke="#BABDB6" stroke-width="2"/><a xlink:title="Q260R"><circle cx="131.201117" cy="59.000000" r="4.000000" fill="#ff0000" /></a><g transform="translate(131.201117,59.000000) rotate(-30)"><text style="font-size:10px;font-family:OpenSans;fill:#555;" text-anchor="middle" x="0" y="-6.000000">Q260R</text></g><line x1="136.564246" x2="136.564246" y1="59.000000" y2="99.500000" stroke="#BABDB6" stroke-width="2"/><a xlink:title="Q272R"><circle cx="136.564246" cy="59.000000" r="4.000000" fill="#ff0000" /></a><g transform="translate(136.564246,59.000000) rotate(-30)"><text style="font-size:10px;font-family:OpenSans;fill:#555;" text-anchor="middle" x="0" y="-6.000000">Q272R</text></g><line x1="141.480447" x2="141.480447" y1="59.000000" y2="99.500000" stroke="#BABDB6" stroke-width="2"/><a xlink:title="Q283R"><circle cx="141.480447" cy="59.000000" r="4.000000" fill="#ff0000" /></a><g transform="translate(141.480447,59.000000) rotate(-30)"><text style="font-size:10px;font-family:OpenSans;fill:#555;" text-anchor="middle" x="0" y="-6.000000">Q283R</text></g><line x1="146.843575" x2="146.843575" y1="71.500000" y2="99.500000" stroke="#BABDB6" stroke-width="2"/><a xlink:title="Q295R"><circle cx="146.843575" cy="71.500000" r="4.000000" fill="#ff0000" /></a><g transform="translate(146.843575,71.500000) rotate(-30)"><text style="font-size:10px;font-family:OpenSans;fill:#555;" text-anchor="middle" x="0" y="-6.000000">Q295R</text></g><line x1="164.720670" x2="164.720670" y1="71.500000" y2="99.500000" stroke="#BABDB6" stroke-width="2"/><a xlink:title="S335N"><circle cx="164.720670" cy="71.500000" r="4.000000" fill="#ff0000" /></a><g transform="translate(164.720670,71.500000) rotate(-30)"><text style="font-size:10px;font-family:OpenSans;fill:#555;" text-anchor="middle" x="0" y="-6.000000">S335N</text></g><line x1="174.106145" x2="174.106145" y1="59.000000" y2="99.500000" stroke="#BABDB6" stroke-width="2"/><a xlink:title="I356T"><circle cx="174.106145" cy="59.000000" r="4.000000" fill="#ff0000" /></a><g transform="translate(174.106145,59.000000) rotate(-30)"><text style="font-size:10px;font-family:OpenSans;fill:#555;" text-anchor="middle" x="0" y="-6.000000">I356T</text></g><line x1="177.234637" x2="177.234637" y1="71.500000" y2="99.500000" stroke="#BABDB6" stroke-width="2"/><a xlink:title="V363V"><circle cx="177.234637" cy="71.500000" r="4.000000" fill="#0000ff" /></a><g transform="translate(177.234637,71.500000) rotate(-30)"><text style="font-size:10px;font-family:OpenSans;fill:#555;" text-anchor="middle" x="0" y="-6.000000">V363V</text></g><line x1="190.642458" x2="190.642458" y1="59.000000" y2="99.500000" stroke="#BABDB6" stroke-width="2"/><a xlink:title="A393S"><circle cx="190.642458" cy="59.000000" r="4.000000" fill="#ff0000" /></a><g transform="translate(190.642458,59.000000) rotate(-30)"><text style="font-size:10px;font-family:OpenSans;fill:#555;" text-anchor="middle" x="0" y="-6.000000">A393S</text></g><line x1="194.217877" x2="194.217877" y1="59.000000" y2="99.500000" stroke="#BABDB6" stroke-width="2"/><a xlink:title="P401A"><circle cx="194.217877" cy="59.000000" r="4.000000" fill="#ff0000" /></a><g transform="translate(194.217877,59.000000) rotate(-30)"><text style="font-size:10px;font-family:OpenSans;fill:#555;" text-anchor="middle" x="0" y="-6.000000">P401A</text></g><line x1="198.687151" x2="198.687151" y1="59.000000" y2="99.500000" stroke="#BABDB6" stroke-width="2"/><a xlink:title="I411V"><circle cx="198.687151" cy="59.000000" r="4.000000" fill="#ff0000" /></a><g transform="translate(198.687151,59.000000) rotate(-30)"><text style="font-size:10px;font-family:OpenSans;fill:#555;" text-anchor="middle" x="0" y="-6.000000">I411V</text></g><line x1="204.050279" x2="204.050279" y1="46.500000" y2="99.500000" stroke="#BABDB6" stroke-width="2"/><a xlink:title="I423V"><circle cx="204.050279" cy="46.500000" r="4.000000" fill="#ff0000" /></a><g transform="translate(204.050279,46.500000) rotate(-30)"><text style="font-size:10px;font-family:OpenSans;fill:#555;" text-anchor="middle" x="0" y="-6.000000">I423V</text></g><line x1="204.944134" x2="204.944134" y1="59.000000" y2="99.500000" stroke="#BABDB6" stroke-width="2"/><a xlink:title="Q425E"><circle cx="204.944134" cy="59.000000" r="4.000000" fill="#ff0000" /></a><g transform="translate(204.944134,59.000000) rotate(-30)"><text style="font-size:10px;font-family:OpenSans;fill:#555;" text-anchor="middle" x="0" y="-6.000000">Q425E</text></g><line x1="208.966480" x2="208.966480" y1="71.500000" y2="99.500000" stroke="#BABDB6" stroke-width="2"/><a xlink:title="I434V"><circle cx="208.966480" cy="71.500000" r="4.000000" fill="#ff0000" /></a><g transform="translate(208.966480,71.500000) rotate(-30)"><text style="font-size:10px;font-family:OpenSans;fill:#555;" text-anchor="middle" x="0" y="-6.000000">I434V</text></g><line x1="232.206704" x2="232.206704" y1="71.500000" y2="99.500000" stroke="#BABDB6" stroke-width="2"/><a xlink:title="I486V"><circle cx="232.206704" cy="71.500000" r="4.000000" fill="#ff0000" /></a><g transform="translate(232.206704,71.500000) rotate(-30)"><text style="font-size:10px;font-family:OpenSans;fill:#555;" text-anchor="middle" x="0" y="-6.000000">I486V</text></g><line x1="251.424581" x2="251.424581" y1="71.500000" y2="99.500000" stroke="#BABDB6" stroke-width="2"/><a xlink:title="Q529E"><circle cx="251.424581" cy="71.500000" r="4.000000" fill="#ff0000" /></a><g transform="translate(251.424581,71.500000) rotate(-30)"><text style="font-size:10px;font-family:OpenSans;fill:#555;" text-anchor="middle" x="0" y="-6.000000">Q529E</text></g><line x1="281.368715" x2="281.368715" y1="59.000000" y2="99.500000" stroke="#BABDB6" stroke-width="2"/><a xlink:title="S596N"><circle cx="281.368715" cy="59.000000" r="4.000000" fill="#ff0000" /></a><g transform="translate(281.368715,59.000000) rotate(-30)"><text style="font-size:10px;font-family:OpenSans;fill:#555;" text-anchor="middle" x="0" y="-6.000000">S596N</text></g><line x1="286.731844" x2="286.731844" y1="46.500000" y2="99.500000" stroke="#BABDB6" stroke-width="2"/><a xlink:title="S608N"><circle cx="286.731844" cy="46.500000" r="4.000000" fill="#ff0000" /></a><g transform="translate(286.731844,46.500000) rotate(-30)"><text style="font-size:10px;font-family:OpenSans;fill:#555;" text-anchor="middle" x="0" y="-6.000000">S608N</text></g><line x1="290.754190" x2="290.754190" y1="34.000000" y2="99.500000" stroke="#BABDB6" stroke-width="2"/><a xlink:title="I617T"><circle cx="290.754190" cy="34.000000" r="4.000000" fill="#ff0000" /></a><g transform="translate(290.754190,34.000000) rotate(-30)"><text style="font-size:10px;font-family:OpenSans;fill:#555;" text-anchor="middle" x="0" y="-6.000000">I617T</text></g><line x1="291.648045" x2="291.648045" y1="46.500000" y2="99.500000" stroke="#BABDB6" stroke-width="2"/><a xlink:title="S619N"><circle cx="291.648045" cy="46.500000" r="4.000000" fill="#ff0000" /></a><g transform="translate(291.648045,46.500000) rotate(-30)"><text style="font-size:10px;font-family:OpenSans;fill:#555;" text-anchor="middle" x="0" y="-6.000000">S619N</text></g><line x1="293.882682" x2="293.882682" y1="46.500000" y2="99.500000" stroke="#BABDB6" stroke-width="2"/><a xlink:title="V624V"><circle cx="293.882682" cy="46.500000" r="4.000000" fill="#0000ff" /></a><g transform="translate(293.882682,46.500000) rotate(-30)"><text style="font-size:10px;font-family:OpenSans;fill:#555;" text-anchor="middle" x="0" y="-6.000000">V624V</text></g><line x1="296.117318" x2="296.117318" y1="46.500000" y2="99.500000" stroke="#BABDB6" stroke-width="2"/><a xlink:title="I629T"><circle cx="296.117318" cy="46.500000" r="4.000000" fill="#ff0000" /></a><g transform="translate(296.117318,46.500000) rotate(-30)"><text style="font-size:10px;font-family:OpenSans;fill:#555;" text-anchor="middle" x="0" y="-6.000000">I629T</text></g><line x1="299.245810" x2="299.245810" y1="46.500000" y2="99.500000" stroke="#BABDB6" stroke-width="2"/><a xlink:title="V636V"><circle cx="299.245810" cy="46.500000" r="4.000000" fill="#0000ff" /></a><g transform="translate(299.245810,46.500000) rotate(-30)"><text style="font-size:10px;font-family:OpenSans;fill:#555;" text-anchor="middle" x="0" y="-6.000000">V636V</text></g><line x1="301.033520" x2="301.033520" y1="59.000000" y2="99.500000" stroke="#BABDB6" stroke-width="2"/><a xlink:title="I640T"><circle cx="301.033520" cy="59.000000" r="4.000000" fill="#ff0000" /></a><g transform="translate(301.033520,59.000000) rotate(-30)"><text style="font-size:10px;font-family:OpenSans;fill:#555;" text-anchor="middle" x="0" y="-6.000000">I640T</text></g><line x1="304.162011" x2="304.162011" y1="71.500000" y2="99.500000" stroke="#BABDB6" stroke-width="2"/><a xlink:title="V647V"><circle cx="304.162011" cy="71.500000" r="4.000000" fill="#0000ff" /></a><g transform="translate(304.162011,71.500000) rotate(-30)"><text style="font-size:10px;font-family:OpenSans;fill:#555;" text-anchor="middle" x="0" y="-6.000000">V647V</text></g><line x1="314.888268" x2="314.888268" y1="71.500000" y2="99.500000" stroke="#BABDB6" stroke-width="2"/><a xlink:title="S671N"><circle cx="314.888268" cy="71.500000" r="4.000000" fill="#ff0000" /></a><g transform="translate(314.888268,71.500000) rotate(-30)"><text style="font-size:10px;font-family:OpenSans;fill:#555;" text-anchor="middle" x="0" y="-6.000000">S671N</text></g><line x1="324.273743" x2="324.273743" y1="59.000000" y2="99.500000" stroke="#BABDB6" stroke-width="2"/><a xlink:title="I692T"><circle cx="324.273743" cy="59.000000" r="4.000000" fill="#ff0000" /></a><g transform="translate(324.273743,59.000000) rotate(-30)"><text style="font-size:10px;font-family:OpenSans;fill:#555;" text-anchor="middle" x="0" y="-6.000000">I692T</text></g><line x1="327.402235" x2="327.402235" y1="71.500000" y2="99.500000" stroke="#BABDB6" stroke-width="2"/><a xlink:title="V699V"><circle cx="327.402235" cy="71.500000" r="4.000000" fill="#0000ff" /></a><g transform="translate(327.402235,71.500000) rotate(-30)"><text style="font-size:10px;font-family:OpenSans;fill:#555;" text-anchor="middle" x="0" y="-6.000000">V699V</text></g><line x1="368.072626" x2="368.072626" y1="59.000000" y2="99.500000" stroke="#BABDB6" stroke-width="2"/><a xlink:title="Q790E"><circle cx="368.072626" cy="59.000000" r="4.000000" fill="#ff0000" /></a><g transform="translate(368.072626,59.000000) rotate(-30)"><text style="font-size:10px;font-family:OpenSans;fill:#555;" text-anchor="middle" x="0" y="-6.000000">Q790E</text></g><line x1="373.435754" x2="373.435754" y1="59.000000" y2="99.500000" stroke="#BABDB6" stroke-width="2"/><a xlink:title="Q802E"><circle cx="373.435754" cy="59.000000" r="4.000000" fill="#ff0000" /></a><g transform="translate(373.435754,59.000000) rotate(-30)"><text style="font-size:10px;font-family:OpenSans;fill:#555;" text-anchor="middle" x="0" y="-6.000000">Q802E</text></g><line x1="378.351955" x2="378.351955" y1="71.500000" y2="99.500000" stroke="#BABDB6" stroke-width="2"/><a xlink:title="Q813E"><circle cx="378.351955" cy="71.500000" r="4.000000" fill="#ff0000" /></a><g transform="translate(378.351955,71.500000) rotate(-30)"><text style="font-size:10px;font-family:OpenSans;fill:#555;" text-anchor="middle" x="0" y="-6.000000">Q813E</text></g><line x1="401.592179" x2="401.592179" y1="71.500000" y2="99.500000" stroke="#BABDB6" stroke-width="2"/><a xlink:title="Q865E"><circle cx="401.592179" cy="71.500000" r="4.000000" fill="#ff0000" /></a><g transform="translate(401.592179,71.500000) rotate(-30)"><text style="font-size:10px;font-family:OpenSans;fill:#555;" text-anchor="middle" x="0" y="-6.000000">Q865E</text></g><a xlink:title=",  (895aa)"><rect fill="#BABDB6" x="15.000000" y="99.500000" width="400.000000" height="14.000000"/></a><g transform="translate(23.044693,94.500000)"><a xlink:href="https://www.ebi.ac.uk/interpro/entry/pfam/PF01044" xlink:title="Vinculin family"><rect fill="#2DCF00" x="0" y="0" width="374.525140" height="24.000000" filter="url(#ds)"/><text style="font-size:12px;font-family:OpenSans;fill:#ffffff;" text-anchor="middle" x="187.262570" y="16.000000">Vinculin family</text></a></g>
<g class="axis">
<line x1="15.000000" x2="415.000000" y1="128.500000" y2="128.500000" stroke="#AAAAAA" /><line x1="15.000000" x2="15.000000" y1="128.500000" y2="133.500000" stroke="#AAAAAA" /><line x1="35.558659" x2="35.558659" y1="128.500000" y2="133.500000" stroke="#AAAAAA" /><text style="font-size:10px;font-family:OpenSans;fill:#000000;" text-anchor="middle" x="35.558659" y="143.500000">46</text><line x1="74.441341" x2="74.441341" y1="128.500000" y2="133.500000" stroke="#AAAAAA" /><text style="font-size:10px;font-family:OpenSans;fill:#000000;" text-anchor="middle" x="74.441341" y="143.500000">133</text><line x1="118.240223" x2="118.240223" y1="128.500000" y2="133.500000" stroke="#AAAAAA" /><text style="font-size:10px;font-family:OpenSans;fill:#000000;" text-anchor="middle" x="118.240223" y="143.500000">231</text><line x1="141.480447" x2="141.480447" y1="128.500000" y2="133.500000" stroke="#AAAAAA" /><text style="font-size:10px;font-family:OpenSans;fill:#000000;" text-anchor="middle" x="141.480447" y="143.500000">283</text><line x1="164.720670" x2="164.720670" y1="128.500000" y2="133.500000" stroke="#AAAAAA" /><text style="font-size:10px;font-family:OpenSans;fill:#000000;" text-anchor="middle" x="164.720670" y="143.500000">335</text><line x1="190.642458" x2="190.642458" y1="128.500000" y2="133.500000" stroke="#AAAAAA" /><text style="font-size:10px;font-family:OpenSans;fill:#000000;" text-anchor="middle" x="190.642458" y="143.500000">393</text><line x1="232.206704" x2="232.206704" y1="128.500000" y2="133.500000" stroke="#AAAAAA" /><text style="font-size:10px;font-family:OpenSans;fill:#000000;" text-anchor="middle" x="232.206704" y="143.500000">486</text><line x1="281.368715" x2="281.368715" y1="128.500000" y2="133.500000" stroke="#AAAAAA" /><text style="font-size:10px;font-family:OpenSans;fill:#000000;" text-anchor="middle" x="281.368715" y="143.500000">596</text><line x1="301.033520" x2="301.033520" y1="128.500000" y2="133.500000" stroke="#AAAAAA" /><text style="font-size:10px;font-family:OpenSans;fill:#000000;" text-anchor="middle" x="301.033520" y="143.500000">640</text><line x1="324.273743" x2="324.273743" y1="128.500000" y2="133.500000" stroke="#AAAAAA" /><text style="font-size:10px;font-family:OpenSans;fill:#000000;" text-anchor="middle" x="324.273743" y="143.500000">692</text><line x1="368.072626" x2="368.072626" y1="128.500000" y2="133.500000" stroke="#AAAAAA" /><text style="font-size:10px;font-family:OpenSans;fill:#000000;" text-anchor="middle" x="368.072626" y="143.500000">790</text><line x1="415.000000" x2="415.000000" y1="128.500000" y2="133.500000" stroke="#AAAAAA" /><text style="font-size:10px;font-family:OpenSans;fill:#000000;" text-anchor="middle" x="415.000000" y="143.500000">895</text></g>
</svg>
