<?xml version='1.0'?>
<svg xmlns="http://www.w3.org/2000/svg" xmlns:xlink="http://www.w3.org/1999/xlink" width="430.000000" height="158.700000">
<defs>
  <filter id="ds" x="0" y="0">
    <feOffset in="SourceAlpha" dx="2" dy="2" />
    <feComponentTransfer><feFuncA type="linear" slope="0.2"/></feComponentTransfer>
    <feGaussianBlur result="blurOut" stdDeviation="1" />
    <feBlend in="SourceGraphic" in2="blurOut" mode="normal" />
  </filter>
  <pattern id="disordered-hatch" patternUnits="userSpaceOnUse" width="4" height="4">
    <path d="M-1,1 l2,-2 M0,4 l4,-4 M3,5 l2,-2" stroke="#000000" opacity="0.3" />
  </pattern>
</defs>
<line x1="37.888283" x2="37.888283" y1="46.500000" y2="74.500000" stroke="#BABDB6" stroke-width="2"/><a xlink:title="T21T"><circle cx="37.888283" cy="46.500000" r="4.000000" fill="#0000ff" /></a><g transform="translate(37.888283,46.500000) rotate(-30)"><text style="font-size:10px;font-family:OpenSans;fill:#555;" text-anchor="middle" x="0" y="-6.000000">T21T</text></g><line x1="138.160763" x2="138.160763" y1="46.500000" y2="74.500000" stroke="#BABDB6" stroke-width="2"/><a xlink:title="T113I"><circle cx="138.160763" cy="46.500000" r="4.000000" fill="#ff0000" /></a><g transform="translate(138.160763,46.500000) rotate(-30)"><text style="font-size:10px;font-family:OpenSans;fill:#555;" text-anchor="middle" x="0" y="-6.000000">T113I</text></g><line x1="144.700272" x2="144.700272" y1="34.000000" y2="74.500000" stroke="#BABDB6" stroke-width="2"/><a xlink:title="R119H"><circle cx="144.700272" cy="34.000000" r="4.000000" fill="#ff0000" /></a><g transform="translate(144.700272,34.000000) rotate(-30)"><text style="font-size:10px;font-family:OpenSans;fill:#555;" text-anchor="middle" x="0" y="-6.000000">R119H</text></g><line x1="147.970027" x2="147.970027" y1="46.500000" y2="74.500000" stroke="#BABDB6" stroke-width="2"/><a xlink:title="A122T"><circle cx="147.970027" cy="46.500000" r="4.000000" fill="#ff0000" /></a><g transform="translate(147.970027,46.500000) rotate(-30)"><text style="font-size:10px;font-family:OpenSans;fill:#555;" text-anchor="middle" x="0" y="-6.000000">A122T</text></g><line x1="198.106267" x2="198.106267" y1="46.500000" y2="74.500000" stroke="#BABDB6" stroke-width="2"/><a xlink:title="T168T"><circle cx="198.106267" cy="46.500000" r="4.000000" fill="#0000ff" /></a><g transform="translate(198.106267,46.500000) rotate(-30)"><text style="font-size:10px;font-family:OpenSans;fill:#555;" text-anchor="middle" x="0" y="-6.000000">T168T</text></g><line x1="268.950954" x2="268.950954" y1="46.500000" y2="74.500000" stroke="#BABDB6" stroke-width="2"/><a xlink:title="P233A"><circle cx="268.950954" cy="46.500000" r="4.000000" fill="#ff0000" /></a><g transform="translate(268.950954,46.500000) rotate(-30)"><text style="font-size:10px;font-family:OpenSans;fill:#555;" text-anchor="middle" x="0" y="-6.000000">P233A</text></g><line x1="298.378747" x2="298.378747" y1="46.500000" y2="74.500000" stroke="#BABDB6" stroke-width="2"/><a xlink:title="T260I"><circle cx="298.378747" cy="46.500000" r="4.000000" fill="#ff0000" /></a><g transform="translate(298.378747,46.500000) rotate(-30)"><text style="font-size:10px;font-family:OpenSans;fill:#555;" text-anchor="middle" x="0" y="-6.000000">T260I</text></g><line x1="429.168937" x2="429.168937" y1="46.500000" y2="74.500000" stroke="#BABDB6" stroke-width="2"/><a xlink:title="P380A"><circle cx="429.168937" cy="46.500000" r="4.000000" fill="#ff0000" /></a><g transform="translate(429.168937,46.500000) rotate(-30)"><text style="font-size:10px;font-family:OpenSans;fill:#555;" text-anchor="middle" x="0" y="-6.000000">P380A</text></g><a xlink:title=",  (367aa)"><rect fill="#BABDB6" x="15.000000" y="74.500000" width="400.000000" height="14.000000"/></a><g transform="translate(152.329700,69.500000)"><a xlink:href="https://www.ebi.ac.uk/interpro/entry/pfam/PF04193" xlink:title="PQ loop repeat"><rect fill="#2DCF00" x="0" y="0" width="61.035422" height="24.000000" filter="url(#ds)"/><text style="font-size:12px;font-family:OpenSans;fill:#ffffff;" text-anchor="middle" x="30.517711" y="16.000000">PQ-loop</text></a></g>
<g transform="translate(306.008174,69.500000)"><a xlink:href="https://www.ebi.ac.uk/interpro/entry/pfam/PF04193" xlink:title="PQ loop repeat"><rect fill="#FF5353" x="0" y="0" width="62.125341" height="24.000000" filter="url(#ds)"/><text style="font-size:12px;font-family:OpenSans;fill:#ffffff;" text-anchor="middle" x="31.062670" y="16.000000">PQ-loop</text></a></g>
<g class="axis">
<line x1="15.000000" x2="415.000000" y1="103.500000" y2="103.500000" stroke="#AAAAAA" /><line x1="15.000000" x2="15.000000" y1="103.500000" y2="108.500000" stroke="#AAAAAA" /><line x1="15.000000" x2="15.000000" y1="103.500000" y2="108.500000" stroke="#AAAAAA" /><text style="font-size:10px;font-family:OpenSans;fill:#000000;" text-anchor="middle" x="15.000000" y="118.500000">0</text><line x1="37.888283" x2="37.888283" y1="103.500000" y2="108.500000" stroke="#AAAAAA" /><text style="font-size:10px;font-family:OpenSans;fill:#000000;" text-anchor="middle" x="37.888283" y="118.500000">21</text><line x1="138.160763" x2="138.160763" y1="103.500000" y2="108.500000" stroke="#AAAAAA" /><text style="font-size:10px;font-family:OpenSans;fill:#000000;" text-anchor="middle" x="138.160763" y="118.500000">113</text><line x1="198.106267" x2="198.106267" y1="103.500000" y2="108.500000" stroke="#AAAAAA" /><text style="font-size:10px;font-family:OpenSans;fill:#000000;" text-anchor="middle" x="198.106267" y="118.500000">168</text><line x1="268.950954" x2="268.950954" y1="103.500000" y2="108.500000" stroke="#AAAAAA" /><text style="font-size:10px;font-family:OpenSans;fill:#000000;" text-anchor="middle" x="268.950954" y="118.500000">233</text><line x1="298.378747" x2="298.378747" y1="103.500000" y2="108.500000" stroke="#AAAAAA" /><text style="font-size:10px;font-family:OpenSans;fill:#000000;" text-anchor="middle" x="298.378747" y="118.500000">260</text><line x1="368.133515" x2="368.133515" y1="103.500000" y2="108.500000" stroke="#AAAAAA" /><text style="font-size:10px;font-family:OpenSans;fill:#000000;" text-anchor="middle" x="368.133515" y="118.500000">324</text><line x1="415.000000" x2="415.000000" y1="103.500000" y2="108.500000" stroke="#AAAAAA" /><text style="font-size:10px;font-family:OpenSans;fill:#000000;" text-anchor="middle" x="415.000000" y="118.500000">367</text></g>
<rect fill="#FF5353" x="4" y="132.500000" width="12" height="12" filter="url(#ds)"/><text style="font-size:12px;font-family:OpenSans;fill:#000000;" text-anchor="start" x="20" y="144.500000">PQ loop repeat</text></svg>
