<?xml version='1.0'?>
<svg xmlns="http://www.w3.org/2000/svg" xmlns:xlink="http://www.w3.org/1999/xlink" width="2524.357143" height="145.500000">
<defs>
  <filter id="ds" x="0" y="0">
    <feOffset in="SourceAlpha" dx="2" dy="2" />
    <feComponentTransfer><feFuncA type="linear" slope="0.2"/></feComponentTransfer>
    <feGaussianBlur result="blurOut" stdDeviation="1" />
    <feBlend in="SourceGraphic" in2="blurOut" mode="normal" />
  </filter>
  <pattern id="disordered-hatch" patternUnits="userSpaceOnUse" width="4" height="4">
    <path d="M-1,1 l2,-2 M0,4 l4,-4 M3,5 l2,-2" stroke="#000000" opacity="0.3" />
  </pattern>
</defs>
<line x1="82.142857" x2="82.142857" y1="46.500000" y2="74.500000" stroke="#BABDB6" stroke-width="2"/><a xlink:title="P40P"><circle cx="82.142857" cy="46.500000" r="4.000000" fill="#0000ff" /></a><g transform="translate(82.142857,46.500000) rotate(-30)"><text style="font-size:10px;font-family:OpenSans;fill:#555;" text-anchor="middle" x="0" y="-6.000000">P40P</text></g><line x1="186.214286" x2="186.214286" y1="46.500000" y2="74.500000" stroke="#BABDB6" stroke-width="2"/><a xlink:title="P102P"><circle cx="186.214286" cy="46.500000" r="4.000000" fill="#0000ff" /></a><g transform="translate(186.214286,46.500000) rotate(-30)"><text style="font-size:10px;font-family:OpenSans;fill:#555;" text-anchor="middle" x="0" y="-6.000000">P102P</text></g><line x1="1497.178571" x2="1497.178571" y1="34.000000" y2="74.500000" stroke="#BABDB6" stroke-width="2"/><a xlink:title="S883T"><circle cx="1497.178571" cy="34.000000" r="4.000000" fill="#ff0000" /></a><g transform="translate(1497.178571,34.000000) rotate(-30)"><text style="font-size:10px;font-family:OpenSans;fill:#555;" text-anchor="middle" x="0" y="-6.000000">S883T</text></g><line x1="1502.214286" x2="1502.214286" y1="46.500000" y2="74.500000" stroke="#BABDB6" stroke-width="2"/><a xlink:title="E886Q"><circle cx="1502.214286" cy="46.500000" r="4.000000" fill="#ff0000" /></a><g transform="translate(1502.214286,46.500000) rotate(-30)"><text style="font-size:10px;font-family:OpenSans;fill:#555;" text-anchor="middle" x="0" y="-6.000000">E886Q</text></g><line x1="1572.714286" x2="1572.714286" y1="34.000000" y2="74.500000" stroke="#BABDB6" stroke-width="2"/><a xlink:title="S928T"><circle cx="1572.714286" cy="34.000000" r="4.000000" fill="#ff0000" /></a><g transform="translate(1572.714286,34.000000) rotate(-30)"><text style="font-size:10px;font-family:OpenSans;fill:#555;" text-anchor="middle" x="0" y="-6.000000">S928T</text></g><line x1="1577.750000" x2="1577.750000" y1="46.500000" y2="74.500000" stroke="#BABDB6" stroke-width="2"/><a xlink:title="E931Q"><circle cx="1577.750000" cy="46.500000" r="4.000000" fill="#ff0000" /></a><g transform="translate(1577.750000,46.500000) rotate(-30)"><text style="font-size:10px;font-family:OpenSans;fill:#555;" text-anchor="middle" x="0" y="-6.000000">E931Q</text></g><line x1="1676.785714" x2="1676.785714" y1="34.000000" y2="74.500000" stroke="#BABDB6" stroke-width="2"/><a xlink:title="S990T"><circle cx="1676.785714" cy="34.000000" r="4.000000" fill="#ff0000" /></a><g transform="translate(1676.785714,34.000000) rotate(-30)"><text style="font-size:10px;font-family:OpenSans;fill:#555;" text-anchor="middle" x="0" y="-6.000000">S990T</text></g><line x1="1681.821429" x2="1681.821429" y1="46.500000" y2="74.500000" stroke="#BABDB6" stroke-width="2"/><a xlink:title="E993Q"><circle cx="1681.821429" cy="46.500000" r="4.000000" fill="#ff0000" /></a><g transform="translate(1681.821429,46.500000) rotate(-30)"><text style="font-size:10px;font-family:OpenSans;fill:#555;" text-anchor="middle" x="0" y="-6.000000">E993Q</text></g><line x1="1989.000000" x2="1989.000000" y1="46.500000" y2="74.500000" stroke="#BABDB6" stroke-width="2"/><a xlink:title="E1176K"><circle cx="1989.000000" cy="46.500000" r="4.000000" fill="#ff0000" /></a><g transform="translate(1989.000000,46.500000) rotate(-30)"><text style="font-size:10px;font-family:OpenSans;fill:#555;" text-anchor="middle" x="0" y="-6.000000">E1176K</text></g><line x1="2064.535714" x2="2064.535714" y1="46.500000" y2="74.500000" stroke="#BABDB6" stroke-width="2"/><a xlink:title="E1221K"><circle cx="2064.535714" cy="46.500000" r="4.000000" fill="#ff0000" /></a><g transform="translate(2064.535714,46.500000) rotate(-30)"><text style="font-size:10px;font-family:OpenSans;fill:#555;" text-anchor="middle" x="0" y="-6.000000">E1221K</text></g><line x1="2168.607143" x2="2168.607143" y1="46.500000" y2="74.500000" stroke="#BABDB6" stroke-width="2"/><a xlink:title="E1283K"><circle cx="2168.607143" cy="46.500000" r="4.000000" fill="#ff0000" /></a><g transform="translate(2168.607143,46.500000) rotate(-30)"><text style="font-size:10px;font-family:OpenSans;fill:#555;" text-anchor="middle" x="0" y="-6.000000">E1283K</text></g><a xlink:title=",  (1486aa)"><rect fill="#BABDB6" x="15.000000" y="74.500000" width="2494.357143" height="14.000000"/></a><g transform="translate(938.214286,69.500000)"><a xlink:href="https://www.ebi.ac.uk/interpro/entry/pfam/PF02376" xlink:title="CUT domain"><rect fill="#2DCF00" x="0" y="0" width="120.857143" height="24.000000" filter="url(#ds)"/><text style="font-size:12px;font-family:OpenSans;fill:#ffffff;" text-anchor="middle" x="60.428571" y="16.000000">CUT domain</text></a></g>
<g transform="translate(1513.964286,69.500000)"><a xlink:href="https://www.ebi.ac.uk/interpro/entry/pfam/PF02376" xlink:title="CUT domain"><rect fill="#FF5353" x="0" y="0" width="117.500000" height="24.000000" filter="url(#ds)"/><text style="font-size:12px;font-family:OpenSans;fill:#ffffff;" text-anchor="middle" x="58.750000" y="16.000000">CUT domain</text></a></g>
<g transform="translate(1767.428571,69.500000)"><a xlink:href="https://www.ebi.ac.uk/interpro/entry/pfam/PF02376" xlink:title="CUT domain"><rect fill="#5B5BFF" x="0" y="0" width="124.214286" height="24.000000" filter="url(#ds)"/><text style="font-size:12px;font-family:OpenSans;fill:#ffffff;" text-anchor="middle" x="62.107143" y="16.000000">CUT domain</text></a></g>
<g transform="translate(1977.250000,69.500000)"><a xlink:href="https://www.ebi.ac.uk/interpro/entry/pfam/PF00046" xlink:title="Homeodomain"><rect fill="#EBD61D" x="0" y="0" width="94.000000" height="24.000000" filter="url(#ds)"/><text style="font-size:12px;font-family:OpenSans;fill:#ffffff;" text-anchor="middle" x="47.000000" y="16.000000">Homeodomain</text></a></g>
<g class="axis">
<line x1="15.000000" x2="2509.357143" y1="103.500000" y2="103.500000" stroke="#AAAAAA" /><line x1="15.000000" x2="15.000000" y1="103.500000" y2="108.500000" stroke="#AAAAAA" /><line x1="15.000000" x2="15.000000" y1="103.500000" y2="108.500000" stroke="#AAAAAA" /><text style="font-size:10px;font-family:OpenSans;fill:#000000;" text-anchor="middle" x="15.000000" y="118.500000">0</text><line x1="82.142857" x2="82.142857" y1="103.500000" y2="108.500000" stroke="#AAAAAA" /><text style="font-size:10px;font-family:OpenSans;fill:#000000;" text-anchor="middle" x="82.142857" y="118.500000">40</text><line x1="186.214286" x2="186.214286" y1="103.500000" y2="108.500000" stroke="#AAAAAA" /><text style="font-size:10px;font-family:OpenSans;fill:#000000;" text-anchor="middle" x="186.214286" y="118.500000">102</text><line x1="938.214286" x2="938.214286" y1="103.500000" y2="108.500000" stroke="#AAAAAA" /><text style="font-size:10px;font-family:OpenSans;fill:#000000;" text-anchor="middle" x="938.214286" y="118.500000">550</text><line x1="1059.071429" x2="1059.071429" y1="103.500000" y2="108.500000" stroke="#AAAAAA" /><text style="font-size:10px;font-family:OpenSans;fill:#000000;" text-anchor="middle" x="1059.071429" y="118.500000">622</text><line x1="1497.178571" x2="1497.178571" y1="103.500000" y2="108.500000" stroke="#AAAAAA" /><text style="font-size:10px;font-family:OpenSans;fill:#000000;" text-anchor="middle" x="1497.178571" y="118.500000">883</text><line x1="1572.714286" x2="1572.714286" y1="103.500000" y2="108.500000" stroke="#AAAAAA" /><text style="font-size:10px;font-family:OpenSans;fill:#000000;" text-anchor="middle" x="1572.714286" y="118.500000">928</text><line x1="1631.464286" x2="1631.464286" y1="103.500000" y2="108.500000" stroke="#AAAAAA" /><text style="font-size:10px;font-family:OpenSans;fill:#000000;" text-anchor="middle" x="1631.464286" y="118.500000">963</text><line x1="1676.785714" x2="1676.785714" y1="103.500000" y2="108.500000" stroke="#AAAAAA" /><text style="font-size:10px;font-family:OpenSans;fill:#000000;" text-anchor="middle" x="1676.785714" y="118.500000">990</text><line x1="1767.428571" x2="1767.428571" y1="103.500000" y2="108.500000" stroke="#AAAAAA" /><text style="font-size:10px;font-family:OpenSans;fill:#000000;" text-anchor="middle" x="1767.428571" y="118.500000">1044</text><line x1="1891.642857" x2="1891.642857" y1="103.500000" y2="108.500000" stroke="#AAAAAA" /><text style="font-size:10px;font-family:OpenSans;fill:#000000;" text-anchor="middle" x="1891.642857" y="118.500000">1118</text><line x1="1989.000000" x2="1989.000000" y1="103.500000" y2="108.500000" stroke="#AAAAAA" /><text style="font-size:10px;font-family:OpenSans;fill:#000000;" text-anchor="middle" x="1989.000000" y="118.500000">1176</text><line x1="2064.535714" x2="2064.535714" y1="103.500000" y2="108.500000" stroke="#AAAAAA" /><text style="font-size:10px;font-family:OpenSans;fill:#000000;" text-anchor="middle" x="2064.535714" y="118.500000">1221</text><line x1="2168.607143" x2="2168.607143" y1="103.500000" y2="108.500000" stroke="#AAAAAA" /><text style="font-size:10px;font-family:OpenSans;fill:#000000;" text-anchor="middle" x="2168.607143" y="118.500000">1283</text><line x1="2509.357143" x2="2509.357143" y1="103.500000" y2="108.500000" stroke="#AAAAAA" /><text style="font-size:10px;font-family:OpenSans;fill:#000000;" text-anchor="middle" x="2509.357143" y="118.500000">1486</text></g>
</svg>
