<?xml version='1.0'?>
<svg xmlns="http://www.w3.org/2000/svg" xmlns:xlink="http://www.w3.org/1999/xlink" width="430.000000" height="145.500000">
<defs>
  <filter id="ds" x="0" y="0">
    <feOffset in="SourceAlpha" dx="2" dy="2" />
    <feComponentTransfer><feFuncA type="linear" slope="0.2"/></feComponentTransfer>
    <feGaussianBlur result="blurOut" stdDeviation="1" />
    <feBlend in="SourceGraphic" in2="blurOut" mode="normal" />
  </filter>
  <pattern id="disordered-hatch" patternUnits="userSpaceOnUse" width="4" height="4">
    <path d="M-1,1 l2,-2 M0,4 l4,-4 M3,5 l2,-2" stroke="#000000" opacity="0.3" />
  </pattern>
</defs>
<line x1="162.656250" x2="162.656250" y1="46.500000" y2="74.500000" stroke="#BABDB6" stroke-width="2"/><a xlink:title="E189K"><circle cx="162.656250" cy="46.500000" r="4.000000" fill="#ff0000" /></a><g transform="translate(162.656250,46.500000) rotate(-30)"><text style="font-size:10px;font-family:OpenSans;fill:#555;" text-anchor="middle" x="0" y="-6.000000">E189K</text></g><line x1="224.375000" x2="224.375000" y1="34.000000" y2="74.500000" stroke="#BABDB6" stroke-width="2"/><a xlink:title="A268A"><circle cx="224.375000" cy="34.000000" r="4.000000" fill="#0000ff" /></a><g transform="translate(224.375000,34.000000) rotate(-30)"><text style="font-size:10px;font-family:OpenSans;fill:#555;" text-anchor="middle" x="0" y="-6.000000">A268A</text></g><line x1="229.062500" x2="229.062500" y1="46.500000" y2="74.500000" stroke="#BABDB6" stroke-width="2"/><a xlink:title="E274K"><circle cx="229.062500" cy="46.500000" r="4.000000" fill="#ff0000" /></a><g transform="translate(229.062500,46.500000) rotate(-30)"><text style="font-size:10px;font-family:OpenSans;fill:#555;" text-anchor="middle" x="0" y="-6.000000">E274K</text></g><line x1="253.281250" x2="253.281250" y1="46.500000" y2="74.500000" stroke="#BABDB6" stroke-width="2"/><a xlink:title="E305K"><circle cx="253.281250" cy="46.500000" r="4.000000" fill="#ff0000" /></a><g transform="translate(253.281250,46.500000) rotate(-30)"><text style="font-size:10px;font-family:OpenSans;fill:#555;" text-anchor="middle" x="0" y="-6.000000">E305K</text></g><line x1="266.562500" x2="266.562500" y1="46.500000" y2="74.500000" stroke="#BABDB6" stroke-width="2"/><a xlink:title="E322K"><circle cx="266.562500" cy="46.500000" r="4.000000" fill="#ff0000" /></a><g transform="translate(266.562500,46.500000) rotate(-30)"><text style="font-size:10px;font-family:OpenSans;fill:#555;" text-anchor="middle" x="0" y="-6.000000">E322K</text></g><line x1="290.781250" x2="290.781250" y1="46.500000" y2="74.500000" stroke="#BABDB6" stroke-width="2"/><a xlink:title="A353A"><circle cx="290.781250" cy="46.500000" r="4.000000" fill="#0000ff" /></a><g transform="translate(290.781250,46.500000) rotate(-30)"><text style="font-size:10px;font-family:OpenSans;fill:#555;" text-anchor="middle" x="0" y="-6.000000">A353A</text></g><line x1="311.875000" x2="311.875000" y1="34.000000" y2="74.500000" stroke="#BABDB6" stroke-width="2"/><a xlink:title="E380K"><circle cx="311.875000" cy="34.000000" r="4.000000" fill="#ff0000" /></a><g transform="translate(311.875000,34.000000) rotate(-30)"><text style="font-size:10px;font-family:OpenSans;fill:#555;" text-anchor="middle" x="0" y="-6.000000">E380K</text></g><line x1="315.000000" x2="315.000000" y1="46.500000" y2="74.500000" stroke="#BABDB6" stroke-width="2"/><a xlink:title="A384A"><circle cx="315.000000" cy="46.500000" r="4.000000" fill="#0000ff" /></a><g transform="translate(315.000000,46.500000) rotate(-30)"><text style="font-size:10px;font-family:OpenSans;fill:#555;" text-anchor="middle" x="0" y="-6.000000">A384A</text></g><line x1="328.281250" x2="328.281250" y1="46.500000" y2="74.500000" stroke="#BABDB6" stroke-width="2"/><a xlink:title="A401A"><circle cx="328.281250" cy="46.500000" r="4.000000" fill="#0000ff" /></a><g transform="translate(328.281250,46.500000) rotate(-30)"><text style="font-size:10px;font-family:OpenSans;fill:#555;" text-anchor="middle" x="0" y="-6.000000">A401A</text></g><line x1="373.593750" x2="373.593750" y1="46.500000" y2="74.500000" stroke="#BABDB6" stroke-width="2"/><a xlink:title="A459A"><circle cx="373.593750" cy="46.500000" r="4.000000" fill="#0000ff" /></a><g transform="translate(373.593750,46.500000) rotate(-30)"><text style="font-size:10px;font-family:OpenSans;fill:#555;" text-anchor="middle" x="0" y="-6.000000">A459A</text></g><a xlink:title=",  (512aa)"><rect fill="#BABDB6" x="15.000000" y="74.500000" width="400.000000" height="14.000000"/></a><g transform="translate(72.031250,69.500000)"><a xlink:href="https://www.ebi.ac.uk/interpro/entry/pfam/PF00067" xlink:title="Cytochrome P450"><rect fill="#2DCF00" x="0" y="0" width="307.031250" height="24.000000" filter="url(#ds)"/><text style="font-size:12px;font-family:OpenSans;fill:#ffffff;" text-anchor="middle" x="153.515625" y="16.000000">Cytochrome P450</text></a></g>
<g class="axis">
<line x1="15.000000" x2="415.000000" y1="103.500000" y2="103.500000" stroke="#AAAAAA" /><line x1="15.000000" x2="15.000000" y1="103.500000" y2="108.500000" stroke="#AAAAAA" /><line x1="15.000000" x2="15.000000" y1="103.500000" y2="108.500000" stroke="#AAAAAA" /><text style="font-size:10px;font-family:OpenSans;fill:#000000;" text-anchor="middle" x="15.000000" y="118.500000">0</text><line x1="72.031250" x2="72.031250" y1="103.500000" y2="108.500000" stroke="#AAAAAA" /><text style="font-size:10px;font-family:OpenSans;fill:#000000;" text-anchor="middle" x="72.031250" y="118.500000">73</text><line x1="162.656250" x2="162.656250" y1="103.500000" y2="108.500000" stroke="#AAAAAA" /><text style="font-size:10px;font-family:OpenSans;fill:#000000;" text-anchor="middle" x="162.656250" y="118.500000">189</text><line x1="224.375000" x2="224.375000" y1="103.500000" y2="108.500000" stroke="#AAAAAA" /><text style="font-size:10px;font-family:OpenSans;fill:#000000;" text-anchor="middle" x="224.375000" y="118.500000">268</text><line x1="253.281250" x2="253.281250" y1="103.500000" y2="108.500000" stroke="#AAAAAA" /><text style="font-size:10px;font-family:OpenSans;fill:#000000;" text-anchor="middle" x="253.281250" y="118.500000">305</text><line x1="290.781250" x2="290.781250" y1="103.500000" y2="108.500000" stroke="#AAAAAA" /><text style="font-size:10px;font-family:OpenSans;fill:#000000;" text-anchor="middle" x="290.781250" y="118.500000">353</text><line x1="311.875000" x2="311.875000" y1="103.500000" y2="108.500000" stroke="#AAAAAA" /><text style="font-size:10px;font-family:OpenSans;fill:#000000;" text-anchor="middle" x="311.875000" y="118.500000">380</text><line x1="373.593750" x2="373.593750" y1="103.500000" y2="108.500000" stroke="#AAAAAA" /><text style="font-size:10px;font-family:OpenSans;fill:#000000;" text-anchor="middle" x="373.593750" y="118.500000">459</text><line x1="415.000000" x2="415.000000" y1="103.500000" y2="108.500000" stroke="#AAAAAA" /><text style="font-size:10px;font-family:OpenSans;fill:#000000;" text-anchor="middle" x="415.000000" y="118.500000">512</text></g>
</svg>
