<?xml version='1.0'?>
<svg xmlns="http://www.w3.org/2000/svg" xmlns:xlink="http://www.w3.org/1999/xlink" width="430.000000" height="145.500000">
<defs>
  <filter id="ds" x="0" y="0">
    <feOffset in="SourceAlpha" dx="2" dy="2" />
    <feComponentTransfer><feFuncA type="linear" slope="0.2"/></feComponentTransfer>
    <feGaussianBlur result="blurOut" stdDeviation="1" />
    <feBlend in="SourceGraphic" in2="blurOut" mode="normal" />
  </filter>
  <pattern id="disordered-hatch" patternUnits="userSpaceOnUse" width="4" height="4">
    <path d="M-1,1 l2,-2 M0,4 l4,-4 M3,5 l2,-2" stroke="#000000" opacity="0.3" />
  </pattern>
</defs>
<line x1="300.057471" x2="300.057471" y1="46.500000" y2="74.500000" stroke="#BABDB6" stroke-width="2"/><a xlink:title="G62R"><circle cx="300.057471" cy="46.500000" r="4.000000" fill="#ff0000" /></a><g transform="translate(300.057471,46.500000) rotate(-30)"><text style="font-size:10px;font-family:OpenSans;fill:#555;" text-anchor="middle" x="0" y="-6.000000">G62R</text></g><line x1="410.402299" x2="410.402299" y1="34.000000" y2="74.500000" stroke="#BABDB6" stroke-width="2"/><a xlink:title="G86R"><circle cx="410.402299" cy="34.000000" r="4.000000" fill="#ff0000" /></a><g transform="translate(410.402299,34.000000) rotate(-30)"><text style="font-size:10px;font-family:OpenSans;fill:#555;" text-anchor="middle" x="0" y="-6.000000">G86R</text></g><line x1="415.000000" x2="415.000000" y1="46.500000" y2="74.500000" stroke="#BABDB6" stroke-width="2"/><a xlink:title="G87R"><circle cx="415.000000" cy="46.500000" r="4.000000" fill="#ff0000" /></a><g transform="translate(415.000000,46.500000) rotate(-30)"><text style="font-size:10px;font-family:OpenSans;fill:#555;" text-anchor="middle" x="0" y="-6.000000">G87R</text></g><line x1="456.379310" x2="456.379310" y1="46.500000" y2="74.500000" stroke="#BABDB6" stroke-width="2"/><a xlink:title="G96R"><circle cx="456.379310" cy="46.500000" r="4.000000" fill="#ff0000" /></a><g transform="translate(456.379310,46.500000) rotate(-30)"><text style="font-size:10px;font-family:OpenSans;fill:#555;" text-anchor="middle" x="0" y="-6.000000">G96R</text></g><line x1="488.563218" x2="488.563218" y1="46.500000" y2="74.500000" stroke="#BABDB6" stroke-width="2"/><a xlink:title="G103R"><circle cx="488.563218" cy="46.500000" r="4.000000" fill="#ff0000" /></a><g transform="translate(488.563218,46.500000) rotate(-30)"><text style="font-size:10px;font-family:OpenSans;fill:#555;" text-anchor="middle" x="0" y="-6.000000">G103R</text></g><line x1="603.505747" x2="603.505747" y1="46.500000" y2="74.500000" stroke="#BABDB6" stroke-width="2"/><a xlink:title="G128R"><circle cx="603.505747" cy="46.500000" r="4.000000" fill="#ff0000" /></a><g transform="translate(603.505747,46.500000) rotate(-30)"><text style="font-size:10px;font-family:OpenSans;fill:#555;" text-anchor="middle" x="0" y="-6.000000">G128R</text></g><line x1="690.862069" x2="690.862069" y1="46.500000" y2="74.500000" stroke="#BABDB6" stroke-width="2"/><a xlink:title="G147R"><circle cx="690.862069" cy="46.500000" r="4.000000" fill="#ff0000" /></a><g transform="translate(690.862069,46.500000) rotate(-30)"><text style="font-size:10px;font-family:OpenSans;fill:#555;" text-anchor="middle" x="0" y="-6.000000">G147R</text></g><a xlink:title=",  (87aa)"><rect fill="#BABDB6" x="15.000000" y="74.500000" width="400.000000" height="14.000000"/></a><g transform="translate(28.793103,69.500000)"><a xlink:href="https://www.ebi.ac.uk/interpro/entry/pfam/PF00887" xlink:title="Acyl CoA binding protein"><rect fill="#2DCF00" x="0" y="0" width="344.827586" height="24.000000" filter="url(#ds)"/><text style="font-size:12px;font-family:OpenSans;fill:#ffffff;" text-anchor="middle" x="172.413793" y="16.000000">Acyl CoA binding protein</text></a></g>
<g class="axis">
<line x1="15.000000" x2="415.000000" y1="103.500000" y2="103.500000" stroke="#AAAAAA" /><line x1="15.000000" x2="15.000000" y1="103.500000" y2="108.500000" stroke="#AAAAAA" /><line x1="28.793103" x2="28.793103" y1="103.500000" y2="108.500000" stroke="#AAAAAA" /><text style="font-size:10px;font-family:OpenSans;fill:#000000;" text-anchor="middle" x="28.793103" y="118.500000">3</text><line x1="300.057471" x2="300.057471" y1="103.500000" y2="108.500000" stroke="#AAAAAA" /><text style="font-size:10px;font-family:OpenSans;fill:#000000;" text-anchor="middle" x="300.057471" y="118.500000">62</text><line x1="373.620690" x2="373.620690" y1="103.500000" y2="108.500000" stroke="#AAAAAA" /><text style="font-size:10px;font-family:OpenSans;fill:#000000;" text-anchor="middle" x="373.620690" y="118.500000">78</text><line x1="415.000000" x2="415.000000" y1="103.500000" y2="108.500000" stroke="#AAAAAA" /><text style="font-size:10px;font-family:OpenSans;fill:#000000;" text-anchor="middle" x="415.000000" y="118.500000">87</text><line x1="456.379310" x2="456.379310" y1="103.500000" y2="108.500000" stroke="#AAAAAA" /><text style="font-size:10px;font-family:OpenSans;fill:#000000;" text-anchor="middle" x="456.379310" y="118.500000">96</text><line x1="488.563218" x2="488.563218" y1="103.500000" y2="108.500000" stroke="#AAAAAA" /><text style="font-size:10px;font-family:OpenSans;fill:#000000;" text-anchor="middle" x="488.563218" y="118.500000">103</text><line x1="603.505747" x2="603.505747" y1="103.500000" y2="108.500000" stroke="#AAAAAA" /><text style="font-size:10px;font-family:OpenSans;fill:#000000;" text-anchor="middle" x="603.505747" y="118.500000">128</text><line x1="690.862069" x2="690.862069" y1="103.500000" y2="108.500000" stroke="#AAAAAA" /><text style="font-size:10px;font-family:OpenSans;fill:#000000;" text-anchor="middle" x="690.862069" y="118.500000">147</text></g>
</svg>
