<?xml version='1.0'?>
<svg xmlns="http://www.w3.org/2000/svg" xmlns:xlink="http://www.w3.org/1999/xlink" width="436.702703" height="146.200000">
<defs>
  <filter id="ds" x="0" y="0">
    <feOffset in="SourceAlpha" dx="2" dy="2" />
    <feComponentTransfer><feFuncA type="linear" slope="0.2"/></feComponentTransfer>
    <feGaussianBlur result="blurOut" stdDeviation="1" />
    <feBlend in="SourceGraphic" in2="blurOut" mode="normal" />
  </filter>
  <pattern id="disordered-hatch" patternUnits="userSpaceOnUse" width="4" height="4">
    <path d="M-1,1 l2,-2 M0,4 l4,-4 M3,5 l2,-2" stroke="#000000" opacity="0.3" />
  </pattern>
</defs>
<line x1="112.513514" x2="112.513514" y1="34.000000" y2="62.000000" stroke="#BABDB6" stroke-width="2"/><a xlink:title="G82G"><circle cx="112.513514" cy="34.000000" r="4.000000" fill="#0000ff" /></a><g transform="translate(112.513514,34.000000) rotate(-30)"><text style="font-size:10px;font-family:OpenSans;fill:#555;" text-anchor="middle" x="0" y="-6.000000">G82G</text></g><a xlink:title=",  (342aa)"><rect fill="#BABDB6" x="15.000000" y="62.000000" width="406.702703" height="14.000000"/></a><g transform="translate(214.783784,57.000000)"><a xlink:href="https://www.ebi.ac.uk/interpro/entry/pfam/PF00400" xlink:title="WD domain, G-beta repeat"><rect fill="#2DCF00" x="0" y="0" width="44.000000" height="24.000000" filter="url(#ds)"/><text style="font-size:12px;font-family:OpenSans;fill:#ffffff;" text-anchor="middle" x="22.000000" y="16.000000">WD40</text></a></g>
<g transform="translate(320.621622,57.000000)"><a xlink:href="https://www.ebi.ac.uk/interpro/entry/pfam/PF00400" xlink:title="WD domain, G-beta repeat"><rect fill="#FF5353" x="0" y="0" width="45.189189" height="24.000000" filter="url(#ds)"/><text style="font-size:12px;font-family:OpenSans;fill:#ffffff;" text-anchor="middle" x="22.594595" y="16.000000">WD40</text></a></g>
<g class="axis">
<line x1="15.000000" x2="421.702703" y1="91.000000" y2="91.000000" stroke="#AAAAAA" /><line x1="15.000000" x2="15.000000" y1="91.000000" y2="96.000000" stroke="#AAAAAA" /><line x1="15.000000" x2="15.000000" y1="91.000000" y2="96.000000" stroke="#AAAAAA" /><text style="font-size:10px;font-family:OpenSans;fill:#000000;" text-anchor="middle" x="15.000000" y="106.000000">0</text><line x1="112.513514" x2="112.513514" y1="91.000000" y2="96.000000" stroke="#AAAAAA" /><text style="font-size:10px;font-family:OpenSans;fill:#000000;" text-anchor="middle" x="112.513514" y="106.000000">82</text><line x1="214.783784" x2="214.783784" y1="91.000000" y2="96.000000" stroke="#AAAAAA" /><text style="font-size:10px;font-family:OpenSans;fill:#000000;" text-anchor="middle" x="214.783784" y="106.000000">168</text><line x1="258.783784" x2="258.783784" y1="91.000000" y2="96.000000" stroke="#AAAAAA" /><text style="font-size:10px;font-family:OpenSans;fill:#000000;" text-anchor="middle" x="258.783784" y="106.000000">205</text><line x1="320.621622" x2="320.621622" y1="91.000000" y2="96.000000" stroke="#AAAAAA" /><text style="font-size:10px;font-family:OpenSans;fill:#000000;" text-anchor="middle" x="320.621622" y="106.000000">257</text><line x1="365.810811" x2="365.810811" y1="91.000000" y2="96.000000" stroke="#AAAAAA" /><text style="font-size:10px;font-family:OpenSans;fill:#000000;" text-anchor="middle" x="365.810811" y="106.000000">295</text><line x1="421.702703" x2="421.702703" y1="91.000000" y2="96.000000" stroke="#AAAAAA" /><text style="font-size:10px;font-family:OpenSans;fill:#000000;" text-anchor="middle" x="421.702703" y="106.000000">342</text></g>
<rect fill="#FF5353" x="4" y="120.000000" width="12" height="12" filter="url(#ds)"/><text style="font-size:12px;font-family:OpenSans;fill:#000000;" text-anchor="start" x="20" y="132.000000">WD domain, G-beta repeat</text></svg>
