<?xml version='1.0'?>
<svg xmlns="http://www.w3.org/2000/svg" xmlns:xlink="http://www.w3.org/1999/xlink" width="844.969697" height="199.000000">
<defs>
  <filter id="ds" x="0" y="0">
    <feOffset in="SourceAlpha" dx="2" dy="2" />
    <feComponentTransfer><feFuncA type="linear" slope="0.2"/></feComponentTransfer>
    <feGaussianBlur result="blurOut" stdDeviation="1" />
    <feBlend in="SourceGraphic" in2="blurOut" mode="normal" />
  </filter>
  <pattern id="disordered-hatch" patternUnits="userSpaceOnUse" width="4" height="4">
    <path d="M-1,1 l2,-2 M0,4 l4,-4 M3,5 l2,-2" stroke="#000000" opacity="0.3" />
  </pattern>
</defs>
<line x1="59.303030" x2="59.303030" y1="34.000000" y2="62.000000" stroke="#BABDB6" stroke-width="2"/><a xlink:title="Q43K"><circle cx="59.303030" cy="34.000000" r="4.000000" fill="#ff0000" /></a><g transform="translate(59.303030,34.000000) rotate(-30)"><text style="font-size:10px;font-family:OpenSans;fill:#555;" text-anchor="middle" x="0" y="-6.000000">Q43K</text></g><line x1="756.818182" x2="756.818182" y1="34.000000" y2="62.000000" stroke="#BABDB6" stroke-width="2"/><a xlink:title="T720T"><circle cx="756.818182" cy="34.000000" r="4.000000" fill="#0000ff" /></a><g transform="translate(756.818182,34.000000) rotate(-30)"><text style="font-size:10px;font-family:OpenSans;fill:#555;" text-anchor="middle" x="0" y="-6.000000">T720T</text></g><line x1="771.242424" x2="771.242424" y1="34.000000" y2="62.000000" stroke="#BABDB6" stroke-width="2"/><a xlink:title="T734T"><circle cx="771.242424" cy="34.000000" r="4.000000" fill="#0000ff" /></a><g transform="translate(771.242424,34.000000) rotate(-30)"><text style="font-size:10px;font-family:OpenSans;fill:#555;" text-anchor="middle" x="0" y="-6.000000">T734T</text></g><line x1="797.000000" x2="797.000000" y1="34.000000" y2="62.000000" stroke="#BABDB6" stroke-width="2"/><a xlink:title="T759T"><circle cx="797.000000" cy="34.000000" r="4.000000" fill="#0000ff" /></a><g transform="translate(797.000000,34.000000) rotate(-30)"><text style="font-size:10px;font-family:OpenSans;fill:#555;" text-anchor="middle" x="0" y="-6.000000">T759T</text></g><a xlink:title=",  (791aa)"><rect fill="#BABDB6" x="15.000000" y="62.000000" width="814.969697" height="14.000000"/></a><g transform="translate(21.181818,57.000000)"><a xlink:href="https://www.ebi.ac.uk/interpro/entry/pfam/PF14513" xlink:title="Diacylglycerol kinase N-terminus"><rect fill="#2DCF00" x="0" y="0" width="174.121212" height="24.000000" filter="url(#ds)"/><text style="font-size:12px;font-family:OpenSans;fill:#ffffff;" text-anchor="middle" x="87.060606" y="16.000000">DAG_kinase_N</text></a></g>
<g transform="translate(198.393939,57.000000)"><a xlink:href="https://www.ebi.ac.uk/interpro/entry/pfam/PF13499" xlink:title="EF-hand domain pair"><rect fill="#FF5353" x="0" y="0" width="68.000000" height="24.000000" filter="url(#ds)"/><text style="font-size:12px;font-family:OpenSans;fill:#ffffff;" text-anchor="middle" x="34.000000" y="16.000000">EF-hand_7</text></a></g>
<g transform="translate(295.242424,57.000000)"><a xlink:href="https://www.ebi.ac.uk/interpro/entry/pfam/PF00130" xlink:title="Phorbol esters/diacylglycerol binding domain (C1 domain)"><rect fill="#5B5BFF" x="0" y="0" width="51.515152" height="24.000000" filter="url(#ds)"/><text style="font-size:12px;font-family:OpenSans;fill:#ffffff;" text-anchor="middle" x="25.757576" y="16.000000">C1_1</text></a></g>
<g transform="translate(462.151515,57.000000)"><a xlink:href="https://www.ebi.ac.uk/interpro/entry/pfam/PF00781" xlink:title="Diacylglycerol kinase catalytic domain"><rect fill="#EBD61D" x="0" y="0" width="112.303030" height="24.000000" filter="url(#ds)"/><text style="font-size:12px;font-family:OpenSans;fill:#ffffff;" text-anchor="middle" x="56.151515" y="16.000000">DAGK_cat</text></a></g>
<g transform="translate(610.515152,57.000000)"><a xlink:href="https://www.ebi.ac.uk/interpro/entry/pfam/PF00609" xlink:title="Diacylglycerol kinase accessory domain"><rect fill="#BA21E0" x="0" y="0" width="179.272727" height="24.000000" filter="url(#ds)"/><text style="font-size:12px;font-family:OpenSans;fill:#ffffff;" text-anchor="middle" x="89.636364" y="16.000000">DAGK_acc</text></a></g>
<g class="axis">
<line x1="15.000000" x2="829.969697" y1="91.000000" y2="91.000000" stroke="#AAAAAA" /><line x1="15.000000" x2="15.000000" y1="91.000000" y2="96.000000" stroke="#AAAAAA" /><line x1="21.181818" x2="21.181818" y1="91.000000" y2="96.000000" stroke="#AAAAAA" /><text style="font-size:10px;font-family:OpenSans;fill:#000000;" text-anchor="middle" x="21.181818" y="106.000000">6</text><line x1="59.303030" x2="59.303030" y1="91.000000" y2="96.000000" stroke="#AAAAAA" /><text style="font-size:10px;font-family:OpenSans;fill:#000000;" text-anchor="middle" x="59.303030" y="106.000000">43</text><line x1="195.303030" x2="195.303030" y1="91.000000" y2="96.000000" stroke="#AAAAAA" /><text style="font-size:10px;font-family:OpenSans;fill:#000000;" text-anchor="middle" x="195.303030" y="106.000000">175</text><line x1="266.393939" x2="266.393939" y1="91.000000" y2="96.000000" stroke="#AAAAAA" /><text style="font-size:10px;font-family:OpenSans;fill:#000000;" text-anchor="middle" x="266.393939" y="106.000000">244</text><line x1="295.242424" x2="295.242424" y1="91.000000" y2="96.000000" stroke="#AAAAAA" /><text style="font-size:10px;font-family:OpenSans;fill:#000000;" text-anchor="middle" x="295.242424" y="106.000000">272</text><line x1="346.757576" x2="346.757576" y1="91.000000" y2="96.000000" stroke="#AAAAAA" /><text style="font-size:10px;font-family:OpenSans;fill:#000000;" text-anchor="middle" x="346.757576" y="106.000000">322</text><line x1="462.151515" x2="462.151515" y1="91.000000" y2="96.000000" stroke="#AAAAAA" /><text style="font-size:10px;font-family:OpenSans;fill:#000000;" text-anchor="middle" x="462.151515" y="106.000000">434</text><line x1="574.454545" x2="574.454545" y1="91.000000" y2="96.000000" stroke="#AAAAAA" /><text style="font-size:10px;font-family:OpenSans;fill:#000000;" text-anchor="middle" x="574.454545" y="106.000000">543</text><line x1="610.515152" x2="610.515152" y1="91.000000" y2="96.000000" stroke="#AAAAAA" /><text style="font-size:10px;font-family:OpenSans;fill:#000000;" text-anchor="middle" x="610.515152" y="106.000000">578</text><line x1="756.818182" x2="756.818182" y1="91.000000" y2="96.000000" stroke="#AAAAAA" /><text style="font-size:10px;font-family:OpenSans;fill:#000000;" text-anchor="middle" x="756.818182" y="106.000000">720</text><line x1="797.000000" x2="797.000000" y1="91.000000" y2="96.000000" stroke="#AAAAAA" /><text style="font-size:10px;font-family:OpenSans;fill:#000000;" text-anchor="middle" x="797.000000" y="106.000000">759</text><line x1="829.969697" x2="829.969697" y1="91.000000" y2="96.000000" stroke="#AAAAAA" /><text style="font-size:10px;font-family:OpenSans;fill:#000000;" text-anchor="middle" x="829.969697" y="106.000000">791</text></g>
<rect fill="#EBD61D" x="4" y="120.000000" width="12" height="12" filter="url(#ds)"/><text style="font-size:12px;font-family:OpenSans;fill:#000000;" text-anchor="start" x="20" y="132.000000">Diacylglycerol kinase catalytic domain</text><rect fill="#BA21E0" x="4" y="134.000000" width="12" height="12" filter="url(#ds)"/><text style="font-size:12px;font-family:OpenSans;fill:#000000;" text-anchor="start" x="20" y="146.000000">Diacylglycerol kinase accessory domain</text><rect fill="#2DCF00" x="4" y="148.000000" width="12" height="12" filter="url(#ds)"/><text style="font-size:12px;font-family:OpenSans;fill:#000000;" text-anchor="start" x="20" y="160.000000">Diacylglycerol kinase N-terminus</text><rect fill="#FF5353" x="4" y="162.000000" width="12" height="12" filter="url(#ds)"/><text style="font-size:12px;font-family:OpenSans;fill:#000000;" text-anchor="start" x="20" y="174.000000">EF-hand domain pair</text><rect fill="#5B5BFF" x="4" y="176.000000" width="12" height="12" filter="url(#ds)"/><text style="font-size:12px;font-family:OpenSans;fill:#000000;" text-anchor="start" x="20" y="188.000000">Phorbol esters/diacylglycerol binding domain (C1 domain)</text></svg>
