<?xml version='1.0'?>
<svg xmlns="http://www.w3.org/2000/svg" xmlns:xlink="http://www.w3.org/1999/xlink" width="622.000000" height="198.300000">
<defs>
  <filter id="ds" x="0" y="0">
    <feOffset in="SourceAlpha" dx="2" dy="2" />
    <feComponentTransfer><feFuncA type="linear" slope="0.2"/></feComponentTransfer>
    <feGaussianBlur result="blurOut" stdDeviation="1" />
    <feBlend in="SourceGraphic" in2="blurOut" mode="normal" />
  </filter>
  <pattern id="disordered-hatch" patternUnits="userSpaceOnUse" width="4" height="4">
    <path d="M-1,1 l2,-2 M0,4 l4,-4 M3,5 l2,-2" stroke="#000000" opacity="0.3" />
  </pattern>
</defs>
<line x1="21.379310" x2="21.379310" y1="46.500000" y2="74.500000" stroke="#BABDB6" stroke-width="2"/><a xlink:title="A10D"><circle cx="21.379310" cy="46.500000" r="4.000000" fill="#ff0000" /></a><g transform="translate(21.379310,46.500000) rotate(-30)"><text style="font-size:10px;font-family:OpenSans;fill:#555;" text-anchor="middle" x="0" y="-6.000000">A10D</text></g><line x1="27.758621" x2="27.758621" y1="34.000000" y2="74.500000" stroke="#BABDB6" stroke-width="2"/><a xlink:title="A20T"><circle cx="27.758621" cy="34.000000" r="4.000000" fill="#ff0000" /></a><g transform="translate(27.758621,34.000000) rotate(-30)"><text style="font-size:10px;font-family:OpenSans;fill:#555;" text-anchor="middle" x="0" y="-6.000000">A20T</text></g><line x1="28.396552" x2="28.396552" y1="46.500000" y2="74.500000" stroke="#BABDB6" stroke-width="2"/><a xlink:title="Q21R"><circle cx="28.396552" cy="46.500000" r="4.000000" fill="#ff0000" /></a><g transform="translate(28.396552,46.500000) rotate(-30)"><text style="font-size:10px;font-family:OpenSans;fill:#555;" text-anchor="middle" x="0" y="-6.000000">Q21R</text></g><line x1="34.775862" x2="34.775862" y1="46.500000" y2="74.500000" stroke="#BABDB6" stroke-width="2"/><a xlink:title="P31P"><circle cx="34.775862" cy="46.500000" r="4.000000" fill="#0000ff" /></a><g transform="translate(34.775862,46.500000) rotate(-30)"><text style="font-size:10px;font-family:OpenSans;fill:#555;" text-anchor="middle" x="0" y="-6.000000">P31P</text></g><line x1="136.206897" x2="136.206897" y1="46.500000" y2="74.500000" stroke="#BABDB6" stroke-width="2"/><a xlink:title="R190Q"><circle cx="136.206897" cy="46.500000" r="4.000000" fill="#ff0000" /></a><g transform="translate(136.206897,46.500000) rotate(-30)"><text style="font-size:10px;font-family:OpenSans;fill:#555;" text-anchor="middle" x="0" y="-6.000000">R190Q</text></g><a xlink:title=",  (928aa)"><rect fill="#BABDB6" x="15.000000" y="74.500000" width="592.000000" height="14.000000"/></a><g transform="translate(124.724138,69.500000)"><a xlink:href="https://www.ebi.ac.uk/interpro/entry/pfam/PF00130" xlink:title="Phorbol esters/diacylglycerol binding domain (C1 domain)"><rect fill="#2DCF00" x="0" y="0" width="37.000000" height="24.000000" filter="url(#ds)"/><text style="font-size:12px;font-family:OpenSans;fill:#ffffff;" text-anchor="middle" x="18.500000" y="16.000000">C1_1</text></a></g>
<g transform="translate(203.189655,69.500000)"><a xlink:href="https://www.ebi.ac.uk/interpro/entry/pfam/PF00781" xlink:title="Diacylglycerol kinase catalytic domain"><rect fill="#FF5353" x="0" y="0" width="73.362069" height="24.000000" filter="url(#ds)"/><text style="font-size:12px;font-family:OpenSans;fill:#ffffff;" text-anchor="middle" x="36.681034" y="16.000000">DAGK_cat</text></a></g>
<g transform="translate(299.517241,69.500000)"><a xlink:href="https://www.ebi.ac.uk/interpro/entry/pfam/PF00609" xlink:title="Diacylglycerol kinase accessory domain"><rect fill="#5B5BFF" x="0" y="0" width="100.155172" height="24.000000" filter="url(#ds)"/><text style="font-size:12px;font-family:OpenSans;fill:#ffffff;" text-anchor="middle" x="50.077586" y="16.000000">DAGK_acc</text></a></g>
<g transform="translate(521.517241,69.500000)"><a xlink:href="https://www.ebi.ac.uk/interpro/entry/pfam/PF12796" xlink:title="Ankyrin repeats (3 copies)"><rect fill="#EBD61D" x="0" y="0" width="59.965517" height="24.000000" filter="url(#ds)"/><text style="font-size:12px;font-family:OpenSans;fill:#ffffff;" text-anchor="middle" x="29.982759" y="16.000000">Ank_2</text></a></g>
<g class="axis">
<line x1="15.000000" x2="607.000000" y1="103.500000" y2="103.500000" stroke="#AAAAAA" /><line x1="15.000000" x2="15.000000" y1="103.500000" y2="108.500000" stroke="#AAAAAA" /><line x1="21.379310" x2="21.379310" y1="103.500000" y2="108.500000" stroke="#AAAAAA" /><text style="font-size:10px;font-family:OpenSans;fill:#000000;" text-anchor="middle" x="21.379310" y="118.500000">10</text><line x1="136.206897" x2="136.206897" y1="103.500000" y2="108.500000" stroke="#AAAAAA" /><text style="font-size:10px;font-family:OpenSans;fill:#000000;" text-anchor="middle" x="136.206897" y="118.500000">190</text><line x1="161.724138" x2="161.724138" y1="103.500000" y2="108.500000" stroke="#AAAAAA" /><text style="font-size:10px;font-family:OpenSans;fill:#000000;" text-anchor="middle" x="161.724138" y="118.500000">230</text><line x1="203.189655" x2="203.189655" y1="103.500000" y2="108.500000" stroke="#AAAAAA" /><text style="font-size:10px;font-family:OpenSans;fill:#000000;" text-anchor="middle" x="203.189655" y="118.500000">295</text><line x1="276.551724" x2="276.551724" y1="103.500000" y2="108.500000" stroke="#AAAAAA" /><text style="font-size:10px;font-family:OpenSans;fill:#000000;" text-anchor="middle" x="276.551724" y="118.500000">410</text><line x1="299.517241" x2="299.517241" y1="103.500000" y2="108.500000" stroke="#AAAAAA" /><text style="font-size:10px;font-family:OpenSans;fill:#000000;" text-anchor="middle" x="299.517241" y="118.500000">446</text><line x1="399.672414" x2="399.672414" y1="103.500000" y2="108.500000" stroke="#AAAAAA" /><text style="font-size:10px;font-family:OpenSans;fill:#000000;" text-anchor="middle" x="399.672414" y="118.500000">603</text><line x1="521.517241" x2="521.517241" y1="103.500000" y2="108.500000" stroke="#AAAAAA" /><text style="font-size:10px;font-family:OpenSans;fill:#000000;" text-anchor="middle" x="521.517241" y="118.500000">794</text><line x1="581.482759" x2="581.482759" y1="103.500000" y2="108.500000" stroke="#AAAAAA" /><text style="font-size:10px;font-family:OpenSans;fill:#000000;" text-anchor="middle" x="581.482759" y="118.500000">888</text><line x1="607.000000" x2="607.000000" y1="103.500000" y2="108.500000" stroke="#AAAAAA" /><text style="font-size:10px;font-family:OpenSans;fill:#000000;" text-anchor="middle" x="607.000000" y="118.500000">928</text></g>
<rect fill="#5B5BFF" x="4" y="132.500000" width="12" height="12" filter="url(#ds)"/><text style="font-size:12px;font-family:OpenSans;fill:#000000;" text-anchor="start" x="20" y="144.500000">Diacylglycerol kinase accessory domain</text><rect fill="#EBD61D" x="4" y="146.500000" width="12" height="12" filter="url(#ds)"/><text style="font-size:12px;font-family:OpenSans;fill:#000000;" text-anchor="start" x="20" y="158.500000">Ankyrin repeats (3 copies)</text><rect fill="#2DCF00" x="4" y="160.500000" width="12" height="12" filter="url(#ds)"/><text style="font-size:12px;font-family:OpenSans;fill:#000000;" text-anchor="start" x="20" y="172.500000">Phorbol esters/diacylglycerol binding domain (C1 domain)</text><rect fill="#FF5353" x="4" y="174.500000" width="12" height="12" filter="url(#ds)"/><text style="font-size:12px;font-family:OpenSans;fill:#000000;" text-anchor="start" x="20" y="186.500000">Diacylglycerol kinase catalytic domain</text></svg>
