<?xml version='1.0'?>
<svg xmlns="http://www.w3.org/2000/svg" xmlns:xlink="http://www.w3.org/1999/xlink" width="430.000000" height="159.400000">
<defs>
  <filter id="ds" x="0" y="0">
    <feOffset in="SourceAlpha" dx="2" dy="2" />
    <feComponentTransfer><feFuncA type="linear" slope="0.2"/></feComponentTransfer>
    <feGaussianBlur result="blurOut" stdDeviation="1" />
    <feBlend in="SourceGraphic" in2="blurOut" mode="normal" />
  </filter>
  <pattern id="disordered-hatch" patternUnits="userSpaceOnUse" width="4" height="4">
    <path d="M-1,1 l2,-2 M0,4 l4,-4 M3,5 l2,-2" stroke="#000000" opacity="0.3" />
  </pattern>
</defs>
<line x1="38.952096" x2="38.952096" y1="34.000000" y2="62.000000" stroke="#BABDB6" stroke-width="2"/><a xlink:title="S20S"><circle cx="38.952096" cy="34.000000" r="4.000000" fill="#0000ff" /></a><g transform="translate(38.952096,34.000000) rotate(-30)"><text style="font-size:10px;font-family:OpenSans;fill:#555;" text-anchor="middle" x="0" y="-6.000000">S20S</text></g><line x1="73.682635" x2="73.682635" y1="34.000000" y2="62.000000" stroke="#BABDB6" stroke-width="2"/><a xlink:title="S49S"><circle cx="73.682635" cy="34.000000" r="4.000000" fill="#0000ff" /></a><g transform="translate(73.682635,34.000000) rotate(-30)"><text style="font-size:10px;font-family:OpenSans;fill:#555;" text-anchor="middle" x="0" y="-6.000000">S49S</text></g><line x1="159.910180" x2="159.910180" y1="34.000000" y2="62.000000" stroke="#BABDB6" stroke-width="2"/><a xlink:title="Q121*"><circle cx="159.910180" cy="34.000000" r="4.000000" fill="#0000ff" /></a><g transform="translate(159.910180,34.000000) rotate(-30)"><text style="font-size:10px;font-family:OpenSans;fill:#555;" text-anchor="middle" x="0" y="-6.000000">Q121*</text></g><line x1="173.083832" x2="173.083832" y1="34.000000" y2="62.000000" stroke="#BABDB6" stroke-width="2"/><a xlink:title="S132S"><circle cx="173.083832" cy="34.000000" r="4.000000" fill="#0000ff" /></a><g transform="translate(173.083832,34.000000) rotate(-30)"><text style="font-size:10px;font-family:OpenSans;fill:#555;" text-anchor="middle" x="0" y="-6.000000">S132S</text></g><line x1="194.640719" x2="194.640719" y1="34.000000" y2="62.000000" stroke="#BABDB6" stroke-width="2"/><a xlink:title="Q150*"><circle cx="194.640719" cy="34.000000" r="4.000000" fill="#0000ff" /></a><g transform="translate(194.640719,34.000000) rotate(-30)"><text style="font-size:10px;font-family:OpenSans;fill:#555;" text-anchor="middle" x="0" y="-6.000000">Q150*</text></g><line x1="218.592814" x2="218.592814" y1="34.000000" y2="62.000000" stroke="#BABDB6" stroke-width="2"/><a xlink:title="G170R"><circle cx="218.592814" cy="34.000000" r="4.000000" fill="#ff0000" /></a><g transform="translate(218.592814,34.000000) rotate(-30)"><text style="font-size:10px;font-family:OpenSans;fill:#555;" text-anchor="middle" x="0" y="-6.000000">G170R</text></g><line x1="253.323353" x2="253.323353" y1="34.000000" y2="62.000000" stroke="#BABDB6" stroke-width="2"/><a xlink:title="G199R"><circle cx="253.323353" cy="34.000000" r="4.000000" fill="#ff0000" /></a><g transform="translate(253.323353,34.000000) rotate(-30)"><text style="font-size:10px;font-family:OpenSans;fill:#555;" text-anchor="middle" x="0" y="-6.000000">G199R</text></g><line x1="294.041916" x2="294.041916" y1="34.000000" y2="62.000000" stroke="#BABDB6" stroke-width="2"/><a xlink:title="Q233*"><circle cx="294.041916" cy="34.000000" r="4.000000" fill="#0000ff" /></a><g transform="translate(294.041916,34.000000) rotate(-30)"><text style="font-size:10px;font-family:OpenSans;fill:#555;" text-anchor="middle" x="0" y="-6.000000">Q233*</text></g><line x1="352.724551" x2="352.724551" y1="34.000000" y2="62.000000" stroke="#BABDB6" stroke-width="2"/><a xlink:title="G282R"><circle cx="352.724551" cy="34.000000" r="4.000000" fill="#ff0000" /></a><g transform="translate(352.724551,34.000000) rotate(-30)"><text style="font-size:10px;font-family:OpenSans;fill:#555;" text-anchor="middle" x="0" y="-6.000000">G282R</text></g><a xlink:title=",  (334aa)"><rect fill="#BABDB6" x="15.000000" y="62.000000" width="400.000000" height="14.000000"/></a><g transform="translate(18.592814,57.000000)"><a xlink:href="https://www.ebi.ac.uk/interpro/entry/pfam/PF01408" xlink:title="Oxidoreductase family, NAD-binding Rossmann fold"><rect fill="#2DCF00" x="0" y="0" width="140.119760" height="24.000000" filter="url(#ds)"/><text style="font-size:12px;font-family:OpenSans;fill:#ffffff;" text-anchor="middle" x="70.059880" y="16.000000">GFO_IDH_MocA</text></a></g>
<g transform="translate(175.479042,57.000000)"><a xlink:href="https://www.ebi.ac.uk/interpro/entry/pfam/PF22725" xlink:title="GFO/IDH/MocA C-terminal domain"><rect fill="#FF5353" x="0" y="0" width="135.329341" height="24.000000" filter="url(#ds)"/><text style="font-size:12px;font-family:OpenSans;fill:#ffffff;" text-anchor="middle" x="67.664671" y="16.000000">GFO_IDH_MocA_C3</text></a></g>
<g class="axis">
<line x1="15.000000" x2="415.000000" y1="91.000000" y2="91.000000" stroke="#AAAAAA" /><line x1="15.000000" x2="15.000000" y1="91.000000" y2="96.000000" stroke="#AAAAAA" /><line x1="18.592814" x2="18.592814" y1="91.000000" y2="96.000000" stroke="#AAAAAA" /><text style="font-size:10px;font-family:OpenSans;fill:#000000;" text-anchor="middle" x="18.592814" y="106.000000">3</text><line x1="38.952096" x2="38.952096" y1="91.000000" y2="96.000000" stroke="#AAAAAA" /><text style="font-size:10px;font-family:OpenSans;fill:#000000;" text-anchor="middle" x="38.952096" y="106.000000">20</text><line x1="73.682635" x2="73.682635" y1="91.000000" y2="96.000000" stroke="#AAAAAA" /><text style="font-size:10px;font-family:OpenSans;fill:#000000;" text-anchor="middle" x="73.682635" y="106.000000">49</text><line x1="159.910180" x2="159.910180" y1="91.000000" y2="96.000000" stroke="#AAAAAA" /><text style="font-size:10px;font-family:OpenSans;fill:#000000;" text-anchor="middle" x="159.910180" y="106.000000">121</text><line x1="194.640719" x2="194.640719" y1="91.000000" y2="96.000000" stroke="#AAAAAA" /><text style="font-size:10px;font-family:OpenSans;fill:#000000;" text-anchor="middle" x="194.640719" y="106.000000">150</text><line x1="218.592814" x2="218.592814" y1="91.000000" y2="96.000000" stroke="#AAAAAA" /><text style="font-size:10px;font-family:OpenSans;fill:#000000;" text-anchor="middle" x="218.592814" y="106.000000">170</text><line x1="253.323353" x2="253.323353" y1="91.000000" y2="96.000000" stroke="#AAAAAA" /><text style="font-size:10px;font-family:OpenSans;fill:#000000;" text-anchor="middle" x="253.323353" y="106.000000">199</text><line x1="294.041916" x2="294.041916" y1="91.000000" y2="96.000000" stroke="#AAAAAA" /><text style="font-size:10px;font-family:OpenSans;fill:#000000;" text-anchor="middle" x="294.041916" y="106.000000">233</text><line x1="352.724551" x2="352.724551" y1="91.000000" y2="96.000000" stroke="#AAAAAA" /><text style="font-size:10px;font-family:OpenSans;fill:#000000;" text-anchor="middle" x="352.724551" y="106.000000">282</text><line x1="415.000000" x2="415.000000" y1="91.000000" y2="96.000000" stroke="#AAAAAA" /><text style="font-size:10px;font-family:OpenSans;fill:#000000;" text-anchor="middle" x="415.000000" y="106.000000">334</text></g>
<rect fill="#2DCF00" x="4" y="120.000000" width="12" height="12" filter="url(#ds)"/><text style="font-size:12px;font-family:OpenSans;fill:#000000;" text-anchor="start" x="20" y="132.000000">Oxidoreductase family, NAD-binding Rossmann fold</text><rect fill="#FF5353" x="4" y="134.000000" width="12" height="12" filter="url(#ds)"/><text style="font-size:12px;font-family:OpenSans;fill:#000000;" text-anchor="start" x="20" y="146.000000">GFO/IDH/MocA C-terminal domain</text></svg>
