<?xml version='1.0'?>
<svg xmlns="http://www.w3.org/2000/svg" xmlns:xlink="http://www.w3.org/1999/xlink" width="1663.333333" height="159.400000">
<defs>
  <filter id="ds" x="0" y="0">
    <feOffset in="SourceAlpha" dx="2" dy="2" />
    <feComponentTransfer><feFuncA type="linear" slope="0.2"/></feComponentTransfer>
    <feGaussianBlur result="blurOut" stdDeviation="1" />
    <feBlend in="SourceGraphic" in2="blurOut" mode="normal" />
  </filter>
  <pattern id="disordered-hatch" patternUnits="userSpaceOnUse" width="4" height="4">
    <path d="M-1,1 l2,-2 M0,4 l4,-4 M3,5 l2,-2" stroke="#000000" opacity="0.3" />
  </pattern>
</defs>
<line x1="39.791667" x2="39.791667" y1="34.000000" y2="62.000000" stroke="#BABDB6" stroke-width="2"/><a xlink:title="I34I"><circle cx="39.791667" cy="34.000000" r="4.000000" fill="#0000ff" /></a><g transform="translate(39.791667,34.000000) rotate(-30)"><text style="font-size:10px;font-family:OpenSans;fill:#555;" text-anchor="middle" x="0" y="-6.000000">I34I</text></g><line x1="158.645833" x2="158.645833" y1="34.000000" y2="62.000000" stroke="#BABDB6" stroke-width="2"/><a xlink:title="P197P"><circle cx="158.645833" cy="34.000000" r="4.000000" fill="#0000ff" /></a><g transform="translate(158.645833,34.000000) rotate(-30)"><text style="font-size:10px;font-family:OpenSans;fill:#555;" text-anchor="middle" x="0" y="-6.000000">P197P</text></g><line x1="324.166667" x2="324.166667" y1="34.000000" y2="62.000000" stroke="#BABDB6" stroke-width="2"/><a xlink:title="A424A"><circle cx="324.166667" cy="34.000000" r="4.000000" fill="#0000ff" /></a><g transform="translate(324.166667,34.000000) rotate(-30)"><text style="font-size:10px;font-family:OpenSans;fill:#555;" text-anchor="middle" x="0" y="-6.000000">A424A</text></g><line x1="350.416667" x2="350.416667" y1="34.000000" y2="62.000000" stroke="#BABDB6" stroke-width="2"/><a xlink:title="A460A"><circle cx="350.416667" cy="34.000000" r="4.000000" fill="#0000ff" /></a><g transform="translate(350.416667,34.000000) rotate(-30)"><text style="font-size:10px;font-family:OpenSans;fill:#555;" text-anchor="middle" x="0" y="-6.000000">A460A</text></g><line x1="607.083333" x2="607.083333" y1="34.000000" y2="62.000000" stroke="#BABDB6" stroke-width="2"/><a xlink:title="E812E"><circle cx="607.083333" cy="34.000000" r="4.000000" fill="#0000ff" /></a><g transform="translate(607.083333,34.000000) rotate(-30)"><text style="font-size:10px;font-family:OpenSans;fill:#555;" text-anchor="middle" x="0" y="-6.000000">E812E</text></g><line x1="633.333333" x2="633.333333" y1="34.000000" y2="62.000000" stroke="#BABDB6" stroke-width="2"/><a xlink:title="E848E"><circle cx="633.333333" cy="34.000000" r="4.000000" fill="#0000ff" /></a><g transform="translate(633.333333,34.000000) rotate(-30)"><text style="font-size:10px;font-family:OpenSans;fill:#555;" text-anchor="middle" x="0" y="-6.000000">E848E</text></g><line x1="904.583333" x2="904.583333" y1="34.000000" y2="62.000000" stroke="#BABDB6" stroke-width="2"/><a xlink:title="P1220Q"><circle cx="904.583333" cy="34.000000" r="4.000000" fill="#ff0000" /></a><g transform="translate(904.583333,34.000000) rotate(-30)"><text style="font-size:10px;font-family:OpenSans;fill:#555;" text-anchor="middle" x="0" y="-6.000000">P1220Q</text></g><line x1="930.833333" x2="930.833333" y1="34.000000" y2="62.000000" stroke="#BABDB6" stroke-width="2"/><a xlink:title="P1256Q"><circle cx="930.833333" cy="34.000000" r="4.000000" fill="#ff0000" /></a><g transform="translate(930.833333,34.000000) rotate(-30)"><text style="font-size:10px;font-family:OpenSans;fill:#555;" text-anchor="middle" x="0" y="-6.000000">P1256Q</text></g><line x1="1203.541667" x2="1203.541667" y1="34.000000" y2="62.000000" stroke="#BABDB6" stroke-width="2"/><a xlink:title="E1630K"><circle cx="1203.541667" cy="34.000000" r="4.000000" fill="#ff0000" /></a><g transform="translate(1203.541667,34.000000) rotate(-30)"><text style="font-size:10px;font-family:OpenSans;fill:#555;" text-anchor="middle" x="0" y="-6.000000">E1630K</text></g><line x1="1229.791667" x2="1229.791667" y1="34.000000" y2="62.000000" stroke="#BABDB6" stroke-width="2"/><a xlink:title="E1666K"><circle cx="1229.791667" cy="34.000000" r="4.000000" fill="#ff0000" /></a><g transform="translate(1229.791667,34.000000) rotate(-30)"><text style="font-size:10px;font-family:OpenSans;fill:#555;" text-anchor="middle" x="0" y="-6.000000">E1666K</text></g><line x1="1260.416667" x2="1260.416667" y1="34.000000" y2="62.000000" stroke="#BABDB6" stroke-width="2"/><a xlink:title="S1708C"><circle cx="1260.416667" cy="34.000000" r="4.000000" fill="#ff0000" /></a><g transform="translate(1260.416667,34.000000) rotate(-30)"><text style="font-size:10px;font-family:OpenSans;fill:#555;" text-anchor="middle" x="0" y="-6.000000">S1708C</text></g><line x1="1286.666667" x2="1286.666667" y1="34.000000" y2="62.000000" stroke="#BABDB6" stroke-width="2"/><a xlink:title="S1744C"><circle cx="1286.666667" cy="34.000000" r="4.000000" fill="#ff0000" /></a><g transform="translate(1286.666667,34.000000) rotate(-30)"><text style="font-size:10px;font-family:OpenSans;fill:#555;" text-anchor="middle" x="0" y="-6.000000">S1744C</text></g><a xlink:title=",  (2240aa)"><rect fill="#BABDB6" x="15.000000" y="62.000000" width="1633.333333" height="14.000000"/></a><g transform="translate(212.604167,57.000000)"><a xlink:href="https://www.ebi.ac.uk/interpro/entry/pfam/PF00628" xlink:title="PHD-finger"><rect fill="#2DCF00" x="0" y="0" width="35.000000" height="24.000000" filter="url(#ds)"/><text style="font-size:12px;font-family:OpenSans;fill:#ffffff;" text-anchor="middle" x="17.500000" y="16.000000">PHD</text></a></g>
<g transform="translate(501.354167,57.000000)"><a xlink:href="https://www.ebi.ac.uk/interpro/entry/pfam/PF07500" xlink:title="Transcription factor S-II (TFIIS), central domain"><rect fill="#FF5353" x="0" y="0" width="80.937500" height="24.000000" filter="url(#ds)"/><text style="font-size:12px;font-family:OpenSans;fill:#ffffff;" text-anchor="middle" x="40.468750" y="16.000000">TFIIS_M</text></a></g>
<g transform="translate(779.895833,57.000000)"><a xlink:href="https://www.ebi.ac.uk/interpro/entry/pfam/PF07744" xlink:title="SPOC domain"><rect fill="#5B5BFF" x="0" y="0" width="107.187500" height="24.000000" filter="url(#ds)"/><text style="font-size:12px;font-family:OpenSans;fill:#ffffff;" text-anchor="middle" x="53.593750" y="16.000000">SPOC domain</text></a></g>
<g class="axis">
<line x1="15.000000" x2="1648.333333" y1="91.000000" y2="91.000000" stroke="#AAAAAA" /><line x1="15.000000" x2="15.000000" y1="91.000000" y2="96.000000" stroke="#AAAAAA" /><line x1="15.000000" x2="15.000000" y1="91.000000" y2="96.000000" stroke="#AAAAAA" /><text style="font-size:10px;font-family:OpenSans;fill:#000000;" text-anchor="middle" x="15.000000" y="106.000000">0</text><line x1="39.791667" x2="39.791667" y1="91.000000" y2="96.000000" stroke="#AAAAAA" /><text style="font-size:10px;font-family:OpenSans;fill:#000000;" text-anchor="middle" x="39.791667" y="106.000000">34</text><line x1="158.645833" x2="158.645833" y1="91.000000" y2="96.000000" stroke="#AAAAAA" /><text style="font-size:10px;font-family:OpenSans;fill:#000000;" text-anchor="middle" x="158.645833" y="106.000000">197</text><line x1="212.604167" x2="212.604167" y1="91.000000" y2="96.000000" stroke="#AAAAAA" /><text style="font-size:10px;font-family:OpenSans;fill:#000000;" text-anchor="middle" x="212.604167" y="106.000000">271</text><line x1="247.604167" x2="247.604167" y1="91.000000" y2="96.000000" stroke="#AAAAAA" /><text style="font-size:10px;font-family:OpenSans;fill:#000000;" text-anchor="middle" x="247.604167" y="106.000000">319</text><line x1="324.166667" x2="324.166667" y1="91.000000" y2="96.000000" stroke="#AAAAAA" /><text style="font-size:10px;font-family:OpenSans;fill:#000000;" text-anchor="middle" x="324.166667" y="106.000000">424</text><line x1="350.416667" x2="350.416667" y1="91.000000" y2="96.000000" stroke="#AAAAAA" /><text style="font-size:10px;font-family:OpenSans;fill:#000000;" text-anchor="middle" x="350.416667" y="106.000000">460</text><line x1="501.354167" x2="501.354167" y1="91.000000" y2="96.000000" stroke="#AAAAAA" /><text style="font-size:10px;font-family:OpenSans;fill:#000000;" text-anchor="middle" x="501.354167" y="106.000000">667</text><line x1="582.291667" x2="582.291667" y1="91.000000" y2="96.000000" stroke="#AAAAAA" /><text style="font-size:10px;font-family:OpenSans;fill:#000000;" text-anchor="middle" x="582.291667" y="106.000000">778</text><line x1="607.083333" x2="607.083333" y1="91.000000" y2="96.000000" stroke="#AAAAAA" /><text style="font-size:10px;font-family:OpenSans;fill:#000000;" text-anchor="middle" x="607.083333" y="106.000000">812</text><line x1="633.333333" x2="633.333333" y1="91.000000" y2="96.000000" stroke="#AAAAAA" /><text style="font-size:10px;font-family:OpenSans;fill:#000000;" text-anchor="middle" x="633.333333" y="106.000000">848</text><line x1="779.895833" x2="779.895833" y1="91.000000" y2="96.000000" stroke="#AAAAAA" /><text style="font-size:10px;font-family:OpenSans;fill:#000000;" text-anchor="middle" x="779.895833" y="106.000000">1049</text><line x1="904.583333" x2="904.583333" y1="91.000000" y2="96.000000" stroke="#AAAAAA" /><text style="font-size:10px;font-family:OpenSans;fill:#000000;" text-anchor="middle" x="904.583333" y="106.000000">1220</text><line x1="930.833333" x2="930.833333" y1="91.000000" y2="96.000000" stroke="#AAAAAA" /><text style="font-size:10px;font-family:OpenSans;fill:#000000;" text-anchor="middle" x="930.833333" y="106.000000">1256</text><line x1="1203.541667" x2="1203.541667" y1="91.000000" y2="96.000000" stroke="#AAAAAA" /><text style="font-size:10px;font-family:OpenSans;fill:#000000;" text-anchor="middle" x="1203.541667" y="106.000000">1630</text><line x1="1229.791667" x2="1229.791667" y1="91.000000" y2="96.000000" stroke="#AAAAAA" /><text style="font-size:10px;font-family:OpenSans;fill:#000000;" text-anchor="middle" x="1229.791667" y="106.000000">1666</text><line x1="1260.416667" x2="1260.416667" y1="91.000000" y2="96.000000" stroke="#AAAAAA" /><text style="font-size:10px;font-family:OpenSans;fill:#000000;" text-anchor="middle" x="1260.416667" y="106.000000">1708</text><line x1="1286.666667" x2="1286.666667" y1="91.000000" y2="96.000000" stroke="#AAAAAA" /><text style="font-size:10px;font-family:OpenSans;fill:#000000;" text-anchor="middle" x="1286.666667" y="106.000000">1744</text><line x1="1648.333333" x2="1648.333333" y1="91.000000" y2="96.000000" stroke="#AAAAAA" /><text style="font-size:10px;font-family:OpenSans;fill:#000000;" text-anchor="middle" x="1648.333333" y="106.000000">2240</text></g>
<rect fill="#2DCF00" x="4" y="120.000000" width="12" height="12" filter="url(#ds)"/><text style="font-size:12px;font-family:OpenSans;fill:#000000;" text-anchor="start" x="20" y="132.000000">PHD-finger</text><rect fill="#FF5353" x="4" y="134.000000" width="12" height="12" filter="url(#ds)"/><text style="font-size:12px;font-family:OpenSans;fill:#000000;" text-anchor="start" x="20" y="146.000000">Transcription factor S-II (TFIIS), central domain</text></svg>
