<?xml version='1.0'?>
<svg xmlns="http://www.w3.org/2000/svg" xmlns:xlink="http://www.w3.org/1999/xlink" width="1933.288889" height="185.100000">
<defs>
  <filter id="ds" x="0" y="0">
    <feOffset in="SourceAlpha" dx="2" dy="2" />
    <feComponentTransfer><feFuncA type="linear" slope="0.2"/></feComponentTransfer>
    <feGaussianBlur result="blurOut" stdDeviation="1" />
    <feBlend in="SourceGraphic" in2="blurOut" mode="normal" />
  </filter>
  <pattern id="disordered-hatch" patternUnits="userSpaceOnUse" width="4" height="4">
    <path d="M-1,1 l2,-2 M0,4 l4,-4 M3,5 l2,-2" stroke="#000000" opacity="0.3" />
  </pattern>
</defs>
<line x1="129.244444" x2="129.244444" y1="46.500000" y2="74.500000" stroke="#BABDB6" stroke-width="2"/><a xlink:title="H97R"><circle cx="129.244444" cy="46.500000" r="4.000000" fill="#ff0000" /></a><g transform="translate(129.244444,46.500000) rotate(-30)"><text style="font-size:10px;font-family:OpenSans;fill:#555;" text-anchor="middle" x="0" y="-6.000000">H97R</text></g><line x1="156.333333" x2="156.333333" y1="46.500000" y2="74.500000" stroke="#BABDB6" stroke-width="2"/><a xlink:title="V120L"><circle cx="156.333333" cy="46.500000" r="4.000000" fill="#ff0000" /></a><g transform="translate(156.333333,46.500000) rotate(-30)"><text style="font-size:10px;font-family:OpenSans;fill:#555;" text-anchor="middle" x="0" y="-6.000000">V120L</text></g><line x1="257.622222" x2="257.622222" y1="34.000000" y2="74.500000" stroke="#BABDB6" stroke-width="2"/><a xlink:title="I206V"><circle cx="257.622222" cy="34.000000" r="4.000000" fill="#ff0000" /></a><g transform="translate(257.622222,34.000000) rotate(-30)"><text style="font-size:10px;font-family:OpenSans;fill:#555;" text-anchor="middle" x="0" y="-6.000000">I206V</text></g><line x1="263.511111" x2="263.511111" y1="46.500000" y2="74.500000" stroke="#BABDB6" stroke-width="2"/><a xlink:title="D211D"><circle cx="263.511111" cy="46.500000" r="4.000000" fill="#0000ff" /></a><g transform="translate(263.511111,46.500000) rotate(-30)"><text style="font-size:10px;font-family:OpenSans;fill:#555;" text-anchor="middle" x="0" y="-6.000000">D211D</text></g><line x1="381.288889" x2="381.288889" y1="34.000000" y2="74.500000" stroke="#BABDB6" stroke-width="2"/><a xlink:title="I311V"><circle cx="381.288889" cy="34.000000" r="4.000000" fill="#ff0000" /></a><g transform="translate(381.288889,34.000000) rotate(-30)"><text style="font-size:10px;font-family:OpenSans;fill:#555;" text-anchor="middle" x="0" y="-6.000000">I311V</text></g><line x1="387.177778" x2="387.177778" y1="46.500000" y2="74.500000" stroke="#BABDB6" stroke-width="2"/><a xlink:title="D316D"><circle cx="387.177778" cy="46.500000" r="4.000000" fill="#0000ff" /></a><g transform="translate(387.177778,46.500000) rotate(-30)"><text style="font-size:10px;font-family:OpenSans;fill:#555;" text-anchor="middle" x="0" y="-6.000000">D316D</text></g><line x1="400.133333" x2="400.133333" y1="34.000000" y2="74.500000" stroke="#BABDB6" stroke-width="2"/><a xlink:title="I327V"><circle cx="400.133333" cy="34.000000" r="4.000000" fill="#ff0000" /></a><g transform="translate(400.133333,34.000000) rotate(-30)"><text style="font-size:10px;font-family:OpenSans;fill:#555;" text-anchor="middle" x="0" y="-6.000000">I327V</text></g><line x1="406.022222" x2="406.022222" y1="46.500000" y2="74.500000" stroke="#BABDB6" stroke-width="2"/><a xlink:title="D332D"><circle cx="406.022222" cy="46.500000" r="4.000000" fill="#0000ff" /></a><g transform="translate(406.022222,46.500000) rotate(-30)"><text style="font-size:10px;font-family:OpenSans;fill:#555;" text-anchor="middle" x="0" y="-6.000000">D332D</text></g><line x1="417.800000" x2="417.800000" y1="46.500000" y2="74.500000" stroke="#BABDB6" stroke-width="2"/><a xlink:title="P342P"><circle cx="417.800000" cy="46.500000" r="4.000000" fill="#0000ff" /></a><g transform="translate(417.800000,46.500000) rotate(-30)"><text style="font-size:10px;font-family:OpenSans;fill:#555;" text-anchor="middle" x="0" y="-6.000000">P342P</text></g><line x1="461.377778" x2="461.377778" y1="46.500000" y2="74.500000" stroke="#BABDB6" stroke-width="2"/><a xlink:title="A379A"><circle cx="461.377778" cy="46.500000" r="4.000000" fill="#0000ff" /></a><g transform="translate(461.377778,46.500000) rotate(-30)"><text style="font-size:10px;font-family:OpenSans;fill:#555;" text-anchor="middle" x="0" y="-6.000000">A379A</text></g><line x1="541.466667" x2="541.466667" y1="46.500000" y2="74.500000" stroke="#BABDB6" stroke-width="2"/><a xlink:title="P447P"><circle cx="541.466667" cy="46.500000" r="4.000000" fill="#0000ff" /></a><g transform="translate(541.466667,46.500000) rotate(-30)"><text style="font-size:10px;font-family:OpenSans;fill:#555;" text-anchor="middle" x="0" y="-6.000000">P447P</text></g><line x1="560.311111" x2="560.311111" y1="46.500000" y2="74.500000" stroke="#BABDB6" stroke-width="2"/><a xlink:title="P463P"><circle cx="560.311111" cy="46.500000" r="4.000000" fill="#0000ff" /></a><g transform="translate(560.311111,46.500000) rotate(-30)"><text style="font-size:10px;font-family:OpenSans;fill:#555;" text-anchor="middle" x="0" y="-6.000000">P463P</text></g><line x1="572.088889" x2="572.088889" y1="46.500000" y2="74.500000" stroke="#BABDB6" stroke-width="2"/><a xlink:title="T473T"><circle cx="572.088889" cy="46.500000" r="4.000000" fill="#0000ff" /></a><g transform="translate(572.088889,46.500000) rotate(-30)"><text style="font-size:10px;font-family:OpenSans;fill:#555;" text-anchor="middle" x="0" y="-6.000000">T473T</text></g><line x1="585.044444" x2="585.044444" y1="46.500000" y2="74.500000" stroke="#BABDB6" stroke-width="2"/><a xlink:title="A484A"><circle cx="585.044444" cy="46.500000" r="4.000000" fill="#0000ff" /></a><g transform="translate(585.044444,46.500000) rotate(-30)"><text style="font-size:10px;font-family:OpenSans;fill:#555;" text-anchor="middle" x="0" y="-6.000000">A484A</text></g><line x1="603.888889" x2="603.888889" y1="46.500000" y2="74.500000" stroke="#BABDB6" stroke-width="2"/><a xlink:title="A500A"><circle cx="603.888889" cy="46.500000" r="4.000000" fill="#0000ff" /></a><g transform="translate(603.888889,46.500000) rotate(-30)"><text style="font-size:10px;font-family:OpenSans;fill:#555;" text-anchor="middle" x="0" y="-6.000000">A500A</text></g><line x1="695.755556" x2="695.755556" y1="46.500000" y2="74.500000" stroke="#BABDB6" stroke-width="2"/><a xlink:title="T578T"><circle cx="695.755556" cy="46.500000" r="4.000000" fill="#0000ff" /></a><g transform="translate(695.755556,46.500000) rotate(-30)"><text style="font-size:10px;font-family:OpenSans;fill:#555;" text-anchor="middle" x="0" y="-6.000000">T578T</text></g><line x1="714.600000" x2="714.600000" y1="46.500000" y2="74.500000" stroke="#BABDB6" stroke-width="2"/><a xlink:title="T594T"><circle cx="714.600000" cy="46.500000" r="4.000000" fill="#0000ff" /></a><g transform="translate(714.600000,46.500000) rotate(-30)"><text style="font-size:10px;font-family:OpenSans;fill:#555;" text-anchor="middle" x="0" y="-6.000000">T594T</text></g><line x1="1210.444444" x2="1210.444444" y1="46.500000" y2="74.500000" stroke="#BABDB6" stroke-width="2"/><a xlink:title="P1015P"><circle cx="1210.444444" cy="46.500000" r="4.000000" fill="#0000ff" /></a><g transform="translate(1210.444444,46.500000) rotate(-30)"><text style="font-size:10px;font-family:OpenSans;fill:#555;" text-anchor="middle" x="0" y="-6.000000">P1015P</text></g><line x1="1334.111111" x2="1334.111111" y1="46.500000" y2="74.500000" stroke="#BABDB6" stroke-width="2"/><a xlink:title="P1120P"><circle cx="1334.111111" cy="46.500000" r="4.000000" fill="#0000ff" /></a><g transform="translate(1334.111111,46.500000) rotate(-30)"><text style="font-size:10px;font-family:OpenSans;fill:#555;" text-anchor="middle" x="0" y="-6.000000">P1120P</text></g><line x1="1352.955556" x2="1352.955556" y1="46.500000" y2="74.500000" stroke="#BABDB6" stroke-width="2"/><a xlink:title="P1136P"><circle cx="1352.955556" cy="46.500000" r="4.000000" fill="#0000ff" /></a><g transform="translate(1352.955556,46.500000) rotate(-30)"><text style="font-size:10px;font-family:OpenSans;fill:#555;" text-anchor="middle" x="0" y="-6.000000">P1136P</text></g><a xlink:title=",  (1616aa)"><rect fill="#BABDB6" x="15.000000" y="74.500000" width="1903.288889" height="14.000000"/></a><g transform="translate(36.200000,69.500000)"><a xlink:href="https://www.ebi.ac.uk/interpro/entry/pfam/PF06464" xlink:title="DMAP1-binding Domain"><rect fill="#2DCF00" x="0" y="0" width="100.111111" height="24.000000" filter="url(#ds)"/><text style="font-size:12px;font-family:OpenSans;fill:#ffffff;" text-anchor="middle" x="50.055556" y="16.000000">DMAP_binding</text></a></g>
<g transform="translate(486.111111,69.500000)"><a xlink:href="https://www.ebi.ac.uk/interpro/entry/pfam/PF12047" xlink:title="Cytosine specific DNA methyltransferase replication foci domain"><rect fill="#FF5353" x="0" y="0" width="156.644444" height="24.000000" filter="url(#ds)"/><text style="font-size:12px;font-family:OpenSans;fill:#ffffff;" text-anchor="middle" x="78.322222" y="16.000000">DNMT1-RFD</text></a></g>
<g transform="translate(775.844444,69.500000)"><a xlink:href="https://www.ebi.ac.uk/interpro/entry/pfam/PF02008" xlink:title="CXXC zinc finger domain"><rect fill="#5B5BFF" x="0" y="0" width="53.000000" height="24.000000" filter="url(#ds)"/><text style="font-size:12px;font-family:OpenSans;fill:#ffffff;" text-anchor="middle" x="26.500000" y="16.000000">zf-CXXC</text></a></g>
<g transform="translate(904.222222,69.500000)"><a xlink:href="https://www.ebi.ac.uk/interpro/entry/pfam/PF01426" xlink:title="BAH domain"><rect fill="#EBD61D" x="0" y="0" width="147.222222" height="24.000000" filter="url(#ds)"/><text style="font-size:12px;font-family:OpenSans;fill:#ffffff;" text-anchor="middle" x="73.611111" y="16.000000">BAH domain</text></a></g>
<g transform="translate(1112.688889,69.500000)"><a xlink:href="https://www.ebi.ac.uk/interpro/entry/pfam/PF01426" xlink:title="BAH domain"><rect fill="#BA21E0" x="0" y="0" width="197.866667" height="24.000000" filter="url(#ds)"/><text style="font-size:12px;font-family:OpenSans;fill:#ffffff;" text-anchor="middle" x="98.933333" y="16.000000">BAH domain</text></a></g>
<g transform="translate(1357.666667,69.500000)"><a xlink:href="https://www.ebi.ac.uk/interpro/entry/pfam/PF00145" xlink:title="C-5 cytosine-specific DNA methylase"><rect fill="#FF9C42" x="0" y="0" width="533.533333" height="24.000000" filter="url(#ds)"/><text style="font-size:12px;font-family:OpenSans;fill:#ffffff;" text-anchor="middle" x="266.766667" y="16.000000">C-5 cytosine-specific DNA methylase</text></a></g>
<g class="axis">
<line x1="15.000000" x2="1918.288889" y1="103.500000" y2="103.500000" stroke="#AAAAAA" /><line x1="15.000000" x2="15.000000" y1="103.500000" y2="108.500000" stroke="#AAAAAA" /><line x1="15.000000" x2="15.000000" y1="103.500000" y2="108.500000" stroke="#AAAAAA" /><text style="font-size:10px;font-family:OpenSans;fill:#000000;" text-anchor="middle" x="15.000000" y="118.500000">0</text><line x1="36.200000" x2="36.200000" y1="103.500000" y2="108.500000" stroke="#AAAAAA" /><text style="font-size:10px;font-family:OpenSans;fill:#000000;" text-anchor="middle" x="36.200000" y="118.500000">18</text><line x1="129.244444" x2="129.244444" y1="103.500000" y2="108.500000" stroke="#AAAAAA" /><text style="font-size:10px;font-family:OpenSans;fill:#000000;" text-anchor="middle" x="129.244444" y="118.500000">97</text><line x1="156.333333" x2="156.333333" y1="103.500000" y2="108.500000" stroke="#AAAAAA" /><text style="font-size:10px;font-family:OpenSans;fill:#000000;" text-anchor="middle" x="156.333333" y="118.500000">120</text><line x1="257.622222" x2="257.622222" y1="103.500000" y2="108.500000" stroke="#AAAAAA" /><text style="font-size:10px;font-family:OpenSans;fill:#000000;" text-anchor="middle" x="257.622222" y="118.500000">206</text><line x1="381.288889" x2="381.288889" y1="103.500000" y2="108.500000" stroke="#AAAAAA" /><text style="font-size:10px;font-family:OpenSans;fill:#000000;" text-anchor="middle" x="381.288889" y="118.500000">311</text><line x1="400.133333" x2="400.133333" y1="103.500000" y2="108.500000" stroke="#AAAAAA" /><text style="font-size:10px;font-family:OpenSans;fill:#000000;" text-anchor="middle" x="400.133333" y="118.500000">327</text><line x1="461.377778" x2="461.377778" y1="103.500000" y2="108.500000" stroke="#AAAAAA" /><text style="font-size:10px;font-family:OpenSans;fill:#000000;" text-anchor="middle" x="461.377778" y="118.500000">379</text><line x1="486.111111" x2="486.111111" y1="103.500000" y2="108.500000" stroke="#AAAAAA" /><text style="font-size:10px;font-family:OpenSans;fill:#000000;" text-anchor="middle" x="486.111111" y="118.500000">400</text><line x1="541.466667" x2="541.466667" y1="103.500000" y2="108.500000" stroke="#AAAAAA" /><text style="font-size:10px;font-family:OpenSans;fill:#000000;" text-anchor="middle" x="541.466667" y="118.500000">447</text><line x1="560.311111" x2="560.311111" y1="103.500000" y2="108.500000" stroke="#AAAAAA" /><text style="font-size:10px;font-family:OpenSans;fill:#000000;" text-anchor="middle" x="560.311111" y="118.500000">463</text><line x1="585.044444" x2="585.044444" y1="103.500000" y2="108.500000" stroke="#AAAAAA" /><text style="font-size:10px;font-family:OpenSans;fill:#000000;" text-anchor="middle" x="585.044444" y="118.500000">484</text><line x1="603.888889" x2="603.888889" y1="103.500000" y2="108.500000" stroke="#AAAAAA" /><text style="font-size:10px;font-family:OpenSans;fill:#000000;" text-anchor="middle" x="603.888889" y="118.500000">500</text><line x1="642.755556" x2="642.755556" y1="103.500000" y2="108.500000" stroke="#AAAAAA" /><text style="font-size:10px;font-family:OpenSans;fill:#000000;" text-anchor="middle" x="642.755556" y="118.500000">533</text><line x1="695.755556" x2="695.755556" y1="103.500000" y2="108.500000" stroke="#AAAAAA" /><text style="font-size:10px;font-family:OpenSans;fill:#000000;" text-anchor="middle" x="695.755556" y="118.500000">578</text><line x1="714.600000" x2="714.600000" y1="103.500000" y2="108.500000" stroke="#AAAAAA" /><text style="font-size:10px;font-family:OpenSans;fill:#000000;" text-anchor="middle" x="714.600000" y="118.500000">594</text><line x1="775.844444" x2="775.844444" y1="103.500000" y2="108.500000" stroke="#AAAAAA" /><text style="font-size:10px;font-family:OpenSans;fill:#000000;" text-anchor="middle" x="775.844444" y="118.500000">646</text><line x1="828.844444" x2="828.844444" y1="103.500000" y2="108.500000" stroke="#AAAAAA" /><text style="font-size:10px;font-family:OpenSans;fill:#000000;" text-anchor="middle" x="828.844444" y="118.500000">691</text><line x1="904.222222" x2="904.222222" y1="103.500000" y2="108.500000" stroke="#AAAAAA" /><text style="font-size:10px;font-family:OpenSans;fill:#000000;" text-anchor="middle" x="904.222222" y="118.500000">755</text><line x1="1051.444444" x2="1051.444444" y1="103.500000" y2="108.500000" stroke="#AAAAAA" /><text style="font-size:10px;font-family:OpenSans;fill:#000000;" text-anchor="middle" x="1051.444444" y="118.500000">880</text><line x1="1112.688889" x2="1112.688889" y1="103.500000" y2="108.500000" stroke="#AAAAAA" /><text style="font-size:10px;font-family:OpenSans;fill:#000000;" text-anchor="middle" x="1112.688889" y="118.500000">932</text><line x1="1210.444444" x2="1210.444444" y1="103.500000" y2="108.500000" stroke="#AAAAAA" /><text style="font-size:10px;font-family:OpenSans;fill:#000000;" text-anchor="middle" x="1210.444444" y="118.500000">1015</text><line x1="1310.555556" x2="1310.555556" y1="103.500000" y2="108.500000" stroke="#AAAAAA" /><text style="font-size:10px;font-family:OpenSans;fill:#000000;" text-anchor="middle" x="1310.555556" y="118.500000">1100</text><line x1="1334.111111" x2="1334.111111" y1="103.500000" y2="108.500000" stroke="#AAAAAA" /><text style="font-size:10px;font-family:OpenSans;fill:#000000;" text-anchor="middle" x="1334.111111" y="118.500000">1120</text><line x1="1352.955556" x2="1352.955556" y1="103.500000" y2="108.500000" stroke="#AAAAAA" /><text style="font-size:10px;font-family:OpenSans;fill:#000000;" text-anchor="middle" x="1352.955556" y="118.500000">1136</text><line x1="1891.200000" x2="1891.200000" y1="103.500000" y2="108.500000" stroke="#AAAAAA" /><text style="font-size:10px;font-family:OpenSans;fill:#000000;" text-anchor="middle" x="1891.200000" y="118.500000">1593</text><line x1="1918.288889" x2="1918.288889" y1="103.500000" y2="108.500000" stroke="#AAAAAA" /><text style="font-size:10px;font-family:OpenSans;fill:#000000;" text-anchor="middle" x="1918.288889" y="118.500000">1616</text></g>
<rect fill="#2DCF00" x="4" y="132.500000" width="12" height="12" filter="url(#ds)"/><text style="font-size:12px;font-family:OpenSans;fill:#000000;" text-anchor="start" x="20" y="144.500000">DMAP1-binding Domain</text><rect fill="#FF5353" x="4" y="146.500000" width="12" height="12" filter="url(#ds)"/><text style="font-size:12px;font-family:OpenSans;fill:#000000;" text-anchor="start" x="20" y="158.500000">Cytosine specific DNA methyltransferase replication foci domain</text><rect fill="#5B5BFF" x="4" y="160.500000" width="12" height="12" filter="url(#ds)"/><text style="font-size:12px;font-family:OpenSans;fill:#000000;" text-anchor="start" x="20" y="172.500000">CXXC zinc finger domain</text></svg>
