<?xml version='1.0'?>
<svg xmlns="http://www.w3.org/2000/svg" xmlns:xlink="http://www.w3.org/1999/xlink" width="2188.461538" height="159.400000">
<defs>
  <filter id="ds" x="0" y="0">
    <feOffset in="SourceAlpha" dx="2" dy="2" />
    <feComponentTransfer><feFuncA type="linear" slope="0.2"/></feComponentTransfer>
    <feGaussianBlur result="blurOut" stdDeviation="1" />
    <feBlend in="SourceGraphic" in2="blurOut" mode="normal" />
  </filter>
  <pattern id="disordered-hatch" patternUnits="userSpaceOnUse" width="4" height="4">
    <path d="M-1,1 l2,-2 M0,4 l4,-4 M3,5 l2,-2" stroke="#000000" opacity="0.3" />
  </pattern>
</defs>
<line x1="102.282051" x2="102.282051" y1="34.000000" y2="62.000000" stroke="#BABDB6" stroke-width="2"/><a xlink:title="R74K"><circle cx="102.282051" cy="34.000000" r="4.000000" fill="#ff0000" /></a><g transform="translate(102.282051,34.000000) rotate(-30)"><text style="font-size:10px;font-family:OpenSans;fill:#555;" text-anchor="middle" x="0" y="-6.000000">R74K</text></g><line x1="158.897436" x2="158.897436" y1="34.000000" y2="62.000000" stroke="#BABDB6" stroke-width="2"/><a xlink:title="Y122Y"><circle cx="158.897436" cy="34.000000" r="4.000000" fill="#0000ff" /></a><g transform="translate(158.897436,34.000000) rotate(-30)"><text style="font-size:10px;font-family:OpenSans;fill:#555;" text-anchor="middle" x="0" y="-6.000000">Y122Y</text></g><line x1="1029.358974" x2="1029.358974" y1="34.000000" y2="62.000000" stroke="#BABDB6" stroke-width="2"/><a xlink:title="V860I"><circle cx="1029.358974" cy="34.000000" r="4.000000" fill="#ff0000" /></a><g transform="translate(1029.358974,34.000000) rotate(-30)"><text style="font-size:10px;font-family:OpenSans;fill:#555;" text-anchor="middle" x="0" y="-6.000000">V860I</text></g><line x1="2113.307692" x2="2113.307692" y1="34.000000" y2="62.000000" stroke="#BABDB6" stroke-width="2"/><a xlink:title="T1779S"><circle cx="2113.307692" cy="34.000000" r="4.000000" fill="#ff0000" /></a><g transform="translate(2113.307692,34.000000) rotate(-30)"><text style="font-size:10px;font-family:OpenSans;fill:#555;" text-anchor="middle" x="0" y="-6.000000">T1779S</text></g><a xlink:title=",  (1830aa)"><rect fill="#BABDB6" x="15.000000" y="62.000000" width="2158.461538" height="14.000000"/></a><g transform="translate(29.153846,57.000000)"><a xlink:href="https://www.ebi.ac.uk/interpro/entry/pfam/PF07653" xlink:title="Variant SH3 domain"><rect fill="#2DCF00" x="0" y="0" width="60.153846" height="24.000000" filter="url(#ds)"/><text style="font-size:12px;font-family:OpenSans;fill:#ffffff;" text-anchor="middle" x="30.076923" y="16.000000">SH3_2</text></a></g>
<g transform="translate(99.923077,57.000000)"><a xlink:href="https://www.ebi.ac.uk/interpro/entry/pfam/PF16172" xlink:title="DOCK N-terminus"><rect fill="#FF5353" x="0" y="0" width="403.384615" height="24.000000" filter="url(#ds)"/><text style="font-size:12px;font-family:OpenSans;fill:#ffffff;" text-anchor="middle" x="201.692308" y="16.000000">DOCK N-terminus</text></a></g>
<g transform="translate(509.205128,57.000000)"><a xlink:href="https://www.ebi.ac.uk/interpro/entry/pfam/PF14429" xlink:title="C2 domain in Dock180 and Zizimin proteins"><rect fill="#5B5BFF" x="0" y="0" width="231.179487" height="24.000000" filter="url(#ds)"/><text style="font-size:12px;font-family:OpenSans;fill:#ffffff;" text-anchor="middle" x="115.589744" y="16.000000">DOCK-C2</text></a></g>
<g transform="translate(1436.282051,57.000000)"><a xlink:href="https://www.ebi.ac.uk/interpro/entry/pfam/PF06920" xlink:title="DHR-2, Lobe A"><rect fill="#EBD61D" x="0" y="0" width="152.153846" height="24.000000" filter="url(#ds)"/><text style="font-size:12px;font-family:OpenSans;fill:#ffffff;" text-anchor="middle" x="76.076923" y="16.000000">DHR-2, Lobe A</text></a></g>
<g transform="translate(1660.384615,57.000000)"><a xlink:href="https://www.ebi.ac.uk/interpro/entry/pfam/PF20422" xlink:title="DHR-2, Lobe B"><rect fill="#BA21E0" x="0" y="0" width="92.000000" height="24.000000" filter="url(#ds)"/><text style="font-size:12px;font-family:OpenSans;fill:#ffffff;" text-anchor="middle" x="46.000000" y="16.000000">DHR-2, Lobe B</text></a></g>
<g transform="translate(1800.743590,57.000000)"><a xlink:href="https://www.ebi.ac.uk/interpro/entry/pfam/PF20421" xlink:title="DHR-2, Lobe C"><rect fill="#FF9C42" x="0" y="0" width="119.128205" height="24.000000" filter="url(#ds)"/><text style="font-size:12px;font-family:OpenSans;fill:#ffffff;" text-anchor="middle" x="59.564103" y="16.000000">DHR-2, Lobe C</text></a></g>
<g class="axis">
<line x1="15.000000" x2="2173.461538" y1="91.000000" y2="91.000000" stroke="#AAAAAA" /><line x1="15.000000" x2="15.000000" y1="91.000000" y2="96.000000" stroke="#AAAAAA" /><line x1="29.153846" x2="29.153846" y1="91.000000" y2="96.000000" stroke="#AAAAAA" /><text style="font-size:10px;font-family:OpenSans;fill:#000000;" text-anchor="middle" x="29.153846" y="106.000000">12</text><line x1="102.282051" x2="102.282051" y1="91.000000" y2="96.000000" stroke="#AAAAAA" /><text style="font-size:10px;font-family:OpenSans;fill:#000000;" text-anchor="middle" x="102.282051" y="106.000000">74</text><line x1="158.897436" x2="158.897436" y1="91.000000" y2="96.000000" stroke="#AAAAAA" /><text style="font-size:10px;font-family:OpenSans;fill:#000000;" text-anchor="middle" x="158.897436" y="106.000000">122</text><line x1="503.307692" x2="503.307692" y1="91.000000" y2="96.000000" stroke="#AAAAAA" /><text style="font-size:10px;font-family:OpenSans;fill:#000000;" text-anchor="middle" x="503.307692" y="106.000000">414</text><line x1="740.384615" x2="740.384615" y1="91.000000" y2="96.000000" stroke="#AAAAAA" /><text style="font-size:10px;font-family:OpenSans;fill:#000000;" text-anchor="middle" x="740.384615" y="106.000000">615</text><line x1="1029.358974" x2="1029.358974" y1="91.000000" y2="96.000000" stroke="#AAAAAA" /><text style="font-size:10px;font-family:OpenSans;fill:#000000;" text-anchor="middle" x="1029.358974" y="106.000000">860</text><line x1="1436.282051" x2="1436.282051" y1="91.000000" y2="96.000000" stroke="#AAAAAA" /><text style="font-size:10px;font-family:OpenSans;fill:#000000;" text-anchor="middle" x="1436.282051" y="106.000000">1205</text><line x1="1588.435897" x2="1588.435897" y1="91.000000" y2="96.000000" stroke="#AAAAAA" /><text style="font-size:10px;font-family:OpenSans;fill:#000000;" text-anchor="middle" x="1588.435897" y="106.000000">1334</text><line x1="1660.384615" x2="1660.384615" y1="91.000000" y2="96.000000" stroke="#AAAAAA" /><text style="font-size:10px;font-family:OpenSans;fill:#000000;" text-anchor="middle" x="1660.384615" y="106.000000">1395</text><line x1="1752.384615" x2="1752.384615" y1="91.000000" y2="96.000000" stroke="#AAAAAA" /><text style="font-size:10px;font-family:OpenSans;fill:#000000;" text-anchor="middle" x="1752.384615" y="106.000000">1473</text><line x1="1800.743590" x2="1800.743590" y1="91.000000" y2="96.000000" stroke="#AAAAAA" /><text style="font-size:10px;font-family:OpenSans;fill:#000000;" text-anchor="middle" x="1800.743590" y="106.000000">1514</text><line x1="1919.871795" x2="1919.871795" y1="91.000000" y2="96.000000" stroke="#AAAAAA" /><text style="font-size:10px;font-family:OpenSans;fill:#000000;" text-anchor="middle" x="1919.871795" y="106.000000">1615</text><line x1="2113.307692" x2="2113.307692" y1="91.000000" y2="96.000000" stroke="#AAAAAA" /><text style="font-size:10px;font-family:OpenSans;fill:#000000;" text-anchor="middle" x="2113.307692" y="106.000000">1779</text><line x1="2173.461538" x2="2173.461538" y1="91.000000" y2="96.000000" stroke="#AAAAAA" /><text style="font-size:10px;font-family:OpenSans;fill:#000000;" text-anchor="middle" x="2173.461538" y="106.000000">1830</text></g>
<rect fill="#2DCF00" x="4" y="120.000000" width="12" height="12" filter="url(#ds)"/><text style="font-size:12px;font-family:OpenSans;fill:#000000;" text-anchor="start" x="20" y="132.000000">Variant SH3 domain</text><rect fill="#5B5BFF" x="4" y="134.000000" width="12" height="12" filter="url(#ds)"/><text style="font-size:12px;font-family:OpenSans;fill:#000000;" text-anchor="start" x="20" y="146.000000">C2 domain in Dock180 and Zizimin proteins</text></svg>
