<?xml version='1.0'?>
<svg xmlns="http://www.w3.org/2000/svg" xmlns:xlink="http://www.w3.org/1999/xlink" width="2655.066667" height="171.900000">
<defs>
  <filter id="ds" x="0" y="0">
    <feOffset in="SourceAlpha" dx="2" dy="2" />
    <feComponentTransfer><feFuncA type="linear" slope="0.2"/></feComponentTransfer>
    <feGaussianBlur result="blurOut" stdDeviation="1" />
    <feBlend in="SourceGraphic" in2="blurOut" mode="normal" />
  </filter>
  <pattern id="disordered-hatch" patternUnits="userSpaceOnUse" width="4" height="4">
    <path d="M-1,1 l2,-2 M0,4 l4,-4 M3,5 l2,-2" stroke="#000000" opacity="0.3" />
  </pattern>
</defs>
<line x1="237.026667" x2="237.026667" y1="46.500000" y2="74.500000" stroke="#BABDB6" stroke-width="2"/><a xlink:title="M181V"><circle cx="237.026667" cy="46.500000" r="4.000000" fill="#ff0000" /></a><g transform="translate(237.026667,46.500000) rotate(-30)"><text style="font-size:10px;font-family:OpenSans;fill:#555;" text-anchor="middle" x="0" y="-6.000000">M181V</text></g><line x1="960.760000" x2="960.760000" y1="34.000000" y2="74.500000" stroke="#BABDB6" stroke-width="2"/><a xlink:title="K771N"><circle cx="960.760000" cy="34.000000" r="4.000000" fill="#ff0000" /></a><g transform="translate(960.760000,34.000000) rotate(-30)"><text style="font-size:10px;font-family:OpenSans;fill:#555;" text-anchor="middle" x="0" y="-6.000000">K771N</text></g><line x1="961.986667" x2="961.986667" y1="46.500000" y2="74.500000" stroke="#BABDB6" stroke-width="2"/><a xlink:title="S772T"><circle cx="961.986667" cy="46.500000" r="4.000000" fill="#ff0000" /></a><g transform="translate(961.986667,46.500000) rotate(-30)"><text style="font-size:10px;font-family:OpenSans;fill:#555;" text-anchor="middle" x="0" y="-6.000000">S772T</text></g><line x1="1885.666667" x2="1885.666667" y1="46.500000" y2="74.500000" stroke="#BABDB6" stroke-width="2"/><a xlink:title="I1525T"><circle cx="1885.666667" cy="46.500000" r="4.000000" fill="#ff0000" /></a><g transform="translate(1885.666667,46.500000) rotate(-30)"><text style="font-size:10px;font-family:OpenSans;fill:#555;" text-anchor="middle" x="0" y="-6.000000">I1525T</text></g><line x1="1896.706667" x2="1896.706667" y1="46.500000" y2="74.500000" stroke="#BABDB6" stroke-width="2"/><a xlink:title="I1534T"><circle cx="1896.706667" cy="46.500000" r="4.000000" fill="#ff0000" /></a><g transform="translate(1896.706667,46.500000) rotate(-30)"><text style="font-size:10px;font-family:OpenSans;fill:#555;" text-anchor="middle" x="0" y="-6.000000">I1534T</text></g><line x1="1923.693333" x2="1923.693333" y1="46.500000" y2="74.500000" stroke="#BABDB6" stroke-width="2"/><a xlink:title="I1556T"><circle cx="1923.693333" cy="46.500000" r="4.000000" fill="#ff0000" /></a><g transform="translate(1923.693333,46.500000) rotate(-30)"><text style="font-size:10px;font-family:OpenSans;fill:#555;" text-anchor="middle" x="0" y="-6.000000">I1556T</text></g><line x1="1934.733333" x2="1934.733333" y1="46.500000" y2="74.500000" stroke="#BABDB6" stroke-width="2"/><a xlink:title="I1565T"><circle cx="1934.733333" cy="46.500000" r="4.000000" fill="#ff0000" /></a><g transform="translate(1934.733333,46.500000) rotate(-30)"><text style="font-size:10px;font-family:OpenSans;fill:#555;" text-anchor="middle" x="0" y="-6.000000">I1565T</text></g><line x1="2036.546667" x2="2036.546667" y1="46.500000" y2="74.500000" stroke="#BABDB6" stroke-width="2"/><a xlink:title="L1648L"><circle cx="2036.546667" cy="46.500000" r="4.000000" fill="#0000ff" /></a><g transform="translate(2036.546667,46.500000) rotate(-30)"><text style="font-size:10px;font-family:OpenSans;fill:#555;" text-anchor="middle" x="0" y="-6.000000">L1648L</text></g><line x1="2047.586667" x2="2047.586667" y1="46.500000" y2="74.500000" stroke="#BABDB6" stroke-width="2"/><a xlink:title="L1657L"><circle cx="2047.586667" cy="46.500000" r="4.000000" fill="#0000ff" /></a><g transform="translate(2047.586667,46.500000) rotate(-30)"><text style="font-size:10px;font-family:OpenSans;fill:#555;" text-anchor="middle" x="0" y="-6.000000">L1657L</text></g><line x1="2074.573333" x2="2074.573333" y1="46.500000" y2="74.500000" stroke="#BABDB6" stroke-width="2"/><a xlink:title="L1679L"><circle cx="2074.573333" cy="46.500000" r="4.000000" fill="#0000ff" /></a><g transform="translate(2074.573333,46.500000) rotate(-30)"><text style="font-size:10px;font-family:OpenSans;fill:#555;" text-anchor="middle" x="0" y="-6.000000">L1679L</text></g><line x1="2085.613333" x2="2085.613333" y1="46.500000" y2="74.500000" stroke="#BABDB6" stroke-width="2"/><a xlink:title="L1688L"><circle cx="2085.613333" cy="46.500000" r="4.000000" fill="#0000ff" /></a><g transform="translate(2085.613333,46.500000) rotate(-30)"><text style="font-size:10px;font-family:OpenSans;fill:#555;" text-anchor="middle" x="0" y="-6.000000">L1688L</text></g><a xlink:title=",  (2140aa)"><rect fill="#BABDB6" x="15.000000" y="74.500000" width="2625.066667" height="14.000000"/></a><g transform="translate(80.013333,69.500000)"><a xlink:href="https://www.ebi.ac.uk/interpro/entry/pfam/PF11878" xlink:title="Dedicator of cytokinesis C/D, N terminal"><rect fill="#2DCF00" x="0" y="0" width="132.480000" height="24.000000" filter="url(#ds)"/><text style="font-size:12px;font-family:OpenSans;fill:#ffffff;" text-anchor="middle" x="66.240000" y="16.000000">DOCK_C-D_N</text></a></g>
<g transform="translate(698.253333,69.500000)"><a xlink:href="https://www.ebi.ac.uk/interpro/entry/pfam/PF14429" xlink:title="C2 domain in Dock180 and Zizimin proteins"><rect fill="#FF5353" x="0" y="0" width="218.346667" height="24.000000" filter="url(#ds)"/><text style="font-size:12px;font-family:OpenSans;fill:#ffffff;" text-anchor="middle" x="109.173333" y="16.000000">DOCK-C2</text></a></g>
<g transform="translate(2064.760000,69.500000)"><a xlink:href="https://www.ebi.ac.uk/interpro/entry/pfam/PF06920" xlink:title="DHR-2, Lobe A"><rect fill="#5B5BFF" x="0" y="0" width="193.813333" height="24.000000" filter="url(#ds)"/><text style="font-size:12px;font-family:OpenSans;fill:#ffffff;" text-anchor="middle" x="96.906667" y="16.000000">DHR-2, Lobe A</text></a></g>
<g transform="translate(2340.760000,69.500000)"><a xlink:href="https://www.ebi.ac.uk/interpro/entry/pfam/PF20422" xlink:title="DHR-2, Lobe B"><rect fill="#EBD61D" x="0" y="0" width="92.000000" height="24.000000" filter="url(#ds)"/><text style="font-size:12px;font-family:OpenSans;fill:#ffffff;" text-anchor="middle" x="46.000000" y="16.000000">DHR-2, Lobe B</text></a></g>
<g transform="translate(2476.920000,69.500000)"><a xlink:href="https://www.ebi.ac.uk/interpro/entry/pfam/PF20421" xlink:title="DHR-2, Lobe C"><rect fill="#BA21E0" x="0" y="0" width="122.666667" height="24.000000" filter="url(#ds)"/><text style="font-size:12px;font-family:OpenSans;fill:#ffffff;" text-anchor="middle" x="61.333333" y="16.000000">DHR-2, Lobe C</text></a></g>
<g class="axis">
<line x1="15.000000" x2="2640.066667" y1="103.500000" y2="103.500000" stroke="#AAAAAA" /><line x1="15.000000" x2="15.000000" y1="103.500000" y2="108.500000" stroke="#AAAAAA" /><line x1="15.000000" x2="15.000000" y1="103.500000" y2="108.500000" stroke="#AAAAAA" /><text style="font-size:10px;font-family:OpenSans;fill:#000000;" text-anchor="middle" x="15.000000" y="118.500000">0</text><line x1="80.013333" x2="80.013333" y1="103.500000" y2="108.500000" stroke="#AAAAAA" /><text style="font-size:10px;font-family:OpenSans;fill:#000000;" text-anchor="middle" x="80.013333" y="118.500000">53</text><line x1="212.493333" x2="212.493333" y1="103.500000" y2="108.500000" stroke="#AAAAAA" /><text style="font-size:10px;font-family:OpenSans;fill:#000000;" text-anchor="middle" x="212.493333" y="118.500000">161</text><line x1="237.026667" x2="237.026667" y1="103.500000" y2="108.500000" stroke="#AAAAAA" /><text style="font-size:10px;font-family:OpenSans;fill:#000000;" text-anchor="middle" x="237.026667" y="118.500000">181</text><line x1="698.253333" x2="698.253333" y1="103.500000" y2="108.500000" stroke="#AAAAAA" /><text style="font-size:10px;font-family:OpenSans;fill:#000000;" text-anchor="middle" x="698.253333" y="118.500000">557</text><line x1="916.600000" x2="916.600000" y1="103.500000" y2="108.500000" stroke="#AAAAAA" /><text style="font-size:10px;font-family:OpenSans;fill:#000000;" text-anchor="middle" x="916.600000" y="118.500000">735</text><line x1="960.760000" x2="960.760000" y1="103.500000" y2="108.500000" stroke="#AAAAAA" /><text style="font-size:10px;font-family:OpenSans;fill:#000000;" text-anchor="middle" x="960.760000" y="118.500000">771</text><line x1="1885.666667" x2="1885.666667" y1="103.500000" y2="108.500000" stroke="#AAAAAA" /><text style="font-size:10px;font-family:OpenSans;fill:#000000;" text-anchor="middle" x="1885.666667" y="118.500000">1525</text><line x1="1923.693333" x2="1923.693333" y1="103.500000" y2="108.500000" stroke="#AAAAAA" /><text style="font-size:10px;font-family:OpenSans;fill:#000000;" text-anchor="middle" x="1923.693333" y="118.500000">1556</text><line x1="2036.546667" x2="2036.546667" y1="103.500000" y2="108.500000" stroke="#AAAAAA" /><text style="font-size:10px;font-family:OpenSans;fill:#000000;" text-anchor="middle" x="2036.546667" y="118.500000">1648</text><line x1="2074.573333" x2="2074.573333" y1="103.500000" y2="108.500000" stroke="#AAAAAA" /><text style="font-size:10px;font-family:OpenSans;fill:#000000;" text-anchor="middle" x="2074.573333" y="118.500000">1679</text><line x1="2258.573333" x2="2258.573333" y1="103.500000" y2="108.500000" stroke="#AAAAAA" /><text style="font-size:10px;font-family:OpenSans;fill:#000000;" text-anchor="middle" x="2258.573333" y="118.500000">1829</text><line x1="2340.760000" x2="2340.760000" y1="103.500000" y2="108.500000" stroke="#AAAAAA" /><text style="font-size:10px;font-family:OpenSans;fill:#000000;" text-anchor="middle" x="2340.760000" y="118.500000">1896</text><line x1="2432.760000" x2="2432.760000" y1="103.500000" y2="108.500000" stroke="#AAAAAA" /><text style="font-size:10px;font-family:OpenSans;fill:#000000;" text-anchor="middle" x="2432.760000" y="118.500000">1971</text><line x1="2476.920000" x2="2476.920000" y1="103.500000" y2="108.500000" stroke="#AAAAAA" /><text style="font-size:10px;font-family:OpenSans;fill:#000000;" text-anchor="middle" x="2476.920000" y="118.500000">2007</text><line x1="2599.586667" x2="2599.586667" y1="103.500000" y2="108.500000" stroke="#AAAAAA" /><text style="font-size:10px;font-family:OpenSans;fill:#000000;" text-anchor="middle" x="2599.586667" y="118.500000">2107</text><line x1="2640.066667" x2="2640.066667" y1="103.500000" y2="108.500000" stroke="#AAAAAA" /><text style="font-size:10px;font-family:OpenSans;fill:#000000;" text-anchor="middle" x="2640.066667" y="118.500000">2140</text></g>
<rect fill="#2DCF00" x="4" y="132.500000" width="12" height="12" filter="url(#ds)"/><text style="font-size:12px;font-family:OpenSans;fill:#000000;" text-anchor="start" x="20" y="144.500000">Dedicator of cytokinesis C/D, N terminal</text><rect fill="#FF5353" x="4" y="146.500000" width="12" height="12" filter="url(#ds)"/><text style="font-size:12px;font-family:OpenSans;fill:#000000;" text-anchor="start" x="20" y="158.500000">C2 domain in Dock180 and Zizimin proteins</text></svg>
