<?xml version='1.0'?>
<svg xmlns="http://www.w3.org/2000/svg" xmlns:xlink="http://www.w3.org/1999/xlink" width="510.061644" height="146.200000">
<defs>
  <filter id="ds" x="0" y="0">
    <feOffset in="SourceAlpha" dx="2" dy="2" />
    <feComponentTransfer><feFuncA type="linear" slope="0.2"/></feComponentTransfer>
    <feGaussianBlur result="blurOut" stdDeviation="1" />
    <feBlend in="SourceGraphic" in2="blurOut" mode="normal" />
  </filter>
  <pattern id="disordered-hatch" patternUnits="userSpaceOnUse" width="4" height="4">
    <path d="M-1,1 l2,-2 M0,4 l4,-4 M3,5 l2,-2" stroke="#000000" opacity="0.3" />
  </pattern>
</defs>
<line x1="26.280822" x2="26.280822" y1="34.000000" y2="62.000000" stroke="#BABDB6" stroke-width="2"/><a xlink:title="S54Y"><circle cx="26.280822" cy="34.000000" r="4.000000" fill="#ff0000" /></a><g transform="translate(26.280822,34.000000) rotate(-30)"><text style="font-size:10px;font-family:OpenSans;fill:#555;" text-anchor="middle" x="0" y="-6.000000">S54Y</text></g><line x1="71.821918" x2="71.821918" y1="34.000000" y2="62.000000" stroke="#BABDB6" stroke-width="2"/><a xlink:title="S272Y"><circle cx="71.821918" cy="34.000000" r="4.000000" fill="#ff0000" /></a><g transform="translate(71.821918,34.000000) rotate(-30)"><text style="font-size:10px;font-family:OpenSans;fill:#555;" text-anchor="middle" x="0" y="-6.000000">S272Y</text></g><line x1="252.732877" x2="252.732877" y1="34.000000" y2="62.000000" stroke="#BABDB6" stroke-width="2"/><a xlink:title="M1138I"><circle cx="252.732877" cy="34.000000" r="4.000000" fill="#ff0000" /></a><g transform="translate(252.732877,34.000000) rotate(-30)"><text style="font-size:10px;font-family:OpenSans;fill:#555;" text-anchor="middle" x="0" y="-6.000000">M1138I</text></g><line x1="298.273973" x2="298.273973" y1="34.000000" y2="62.000000" stroke="#BABDB6" stroke-width="2"/><a xlink:title="M1356I"><circle cx="298.273973" cy="34.000000" r="4.000000" fill="#ff0000" /></a><g transform="translate(298.273973,34.000000) rotate(-30)"><text style="font-size:10px;font-family:OpenSans;fill:#555;" text-anchor="middle" x="0" y="-6.000000">M1356I</text></g><line x1="430.092466" x2="430.092466" y1="34.000000" y2="62.000000" stroke="#BABDB6" stroke-width="2"/><a xlink:title="R1987R"><circle cx="430.092466" cy="34.000000" r="4.000000" fill="#0000ff" /></a><g transform="translate(430.092466,34.000000) rotate(-30)"><text style="font-size:10px;font-family:OpenSans;fill:#555;" text-anchor="middle" x="0" y="-6.000000">R1987R</text></g><line x1="475.633562" x2="475.633562" y1="34.000000" y2="62.000000" stroke="#BABDB6" stroke-width="2"/><a xlink:title="R2205R"><circle cx="475.633562" cy="34.000000" r="4.000000" fill="#0000ff" /></a><g transform="translate(475.633562,34.000000) rotate(-30)"><text style="font-size:10px;font-family:OpenSans;fill:#555;" text-anchor="middle" x="0" y="-6.000000">R2205R</text></g><a xlink:title=",  (2298aa)"><rect fill="#BABDB6" x="15.000000" y="62.000000" width="480.061644" height="14.000000"/></a><g transform="translate(17.506849,57.000000)"><a xlink:href="https://www.ebi.ac.uk/interpro/entry/pfam/PF04118" xlink:title="Dopey, N-terminal"><rect fill="#2DCF00" x="0" y="0" width="61.000000" height="24.000000" filter="url(#ds)"/><text style="font-size:12px;font-family:OpenSans;fill:#ffffff;" text-anchor="middle" x="30.500000" y="16.000000">Dopey_N</text></a></g>
<g class="axis">
<line x1="15.000000" x2="495.061644" y1="91.000000" y2="91.000000" stroke="#AAAAAA" /><line x1="15.000000" x2="15.000000" y1="91.000000" y2="96.000000" stroke="#AAAAAA" /><line x1="26.280822" x2="26.280822" y1="91.000000" y2="96.000000" stroke="#AAAAAA" /><text style="font-size:10px;font-family:OpenSans;fill:#000000;" text-anchor="middle" x="26.280822" y="106.000000">54</text><line x1="71.821918" x2="71.821918" y1="91.000000" y2="96.000000" stroke="#AAAAAA" /><text style="font-size:10px;font-family:OpenSans;fill:#000000;" text-anchor="middle" x="71.821918" y="106.000000">272</text><line x1="252.732877" x2="252.732877" y1="91.000000" y2="96.000000" stroke="#AAAAAA" /><text style="font-size:10px;font-family:OpenSans;fill:#000000;" text-anchor="middle" x="252.732877" y="106.000000">1138</text><line x1="298.273973" x2="298.273973" y1="91.000000" y2="96.000000" stroke="#AAAAAA" /><text style="font-size:10px;font-family:OpenSans;fill:#000000;" text-anchor="middle" x="298.273973" y="106.000000">1356</text><line x1="430.092466" x2="430.092466" y1="91.000000" y2="96.000000" stroke="#AAAAAA" /><text style="font-size:10px;font-family:OpenSans;fill:#000000;" text-anchor="middle" x="430.092466" y="106.000000">1987</text><line x1="495.061644" x2="495.061644" y1="91.000000" y2="96.000000" stroke="#AAAAAA" /><text style="font-size:10px;font-family:OpenSans;fill:#000000;" text-anchor="middle" x="495.061644" y="106.000000">2298</text></g>
<rect fill="#2DCF00" x="4" y="120.000000" width="12" height="12" filter="url(#ds)"/><text style="font-size:12px;font-family:OpenSans;fill:#000000;" text-anchor="start" x="20" y="132.000000">Dopey, N-terminal</text></svg>
