<?xml version='1.0'?>
<svg xmlns="http://www.w3.org/2000/svg" xmlns:xlink="http://www.w3.org/1999/xlink" width="430.000000" height="209.400000">
<defs>
  <filter id="ds" x="0" y="0">
    <feOffset in="SourceAlpha" dx="2" dy="2" />
    <feComponentTransfer><feFuncA type="linear" slope="0.2"/></feComponentTransfer>
    <feGaussianBlur result="blurOut" stdDeviation="1" />
    <feBlend in="SourceGraphic" in2="blurOut" mode="normal" />
  </filter>
  <pattern id="disordered-hatch" patternUnits="userSpaceOnUse" width="4" height="4">
    <path d="M-1,1 l2,-2 M0,4 l4,-4 M3,5 l2,-2" stroke="#000000" opacity="0.3" />
  </pattern>
</defs>
<line x1="17.312139" x2="17.312139" y1="84.000000" y2="112.000000" stroke="#BABDB6" stroke-width="2"/><a xlink:title="A5A"><circle cx="17.312139" cy="84.000000" r="4.000000" fill="#0000ff" /></a><g transform="translate(17.312139,84.000000) rotate(-30)"><text style="font-size:10px;font-family:OpenSans;fill:#555;" text-anchor="middle" x="0" y="-6.000000">A5A</text></g><line x1="32.572254" x2="32.572254" y1="84.000000" y2="112.000000" stroke="#BABDB6" stroke-width="2"/><a xlink:title="G38G"><circle cx="32.572254" cy="84.000000" r="4.000000" fill="#0000ff" /></a><g transform="translate(32.572254,84.000000) rotate(-30)"><text style="font-size:10px;font-family:OpenSans;fill:#555;" text-anchor="middle" x="0" y="-6.000000">G38G</text></g><line x1="41.358382" x2="41.358382" y1="34.000000" y2="112.000000" stroke="#BABDB6" stroke-width="2"/><a xlink:title="G57G"><circle cx="41.358382" cy="34.000000" r="4.000000" fill="#0000ff" /></a><g transform="translate(41.358382,34.000000) rotate(-30)"><text style="font-size:10px;font-family:OpenSans;fill:#555;" text-anchor="middle" x="0" y="-6.000000">G57G</text></g><line x1="43.208092" x2="43.208092" y1="46.500000" y2="112.000000" stroke="#BABDB6" stroke-width="2"/><a xlink:title="L61L"><circle cx="43.208092" cy="46.500000" r="4.000000" fill="#0000ff" /></a><g transform="translate(43.208092,46.500000) rotate(-30)"><text style="font-size:10px;font-family:OpenSans;fill:#555;" text-anchor="middle" x="0" y="-6.000000">L61L</text></g><line x1="44.132948" x2="44.132948" y1="71.500000" y2="112.000000" stroke="#BABDB6" stroke-width="2"/><a xlink:title="Q63Q"><circle cx="44.132948" cy="71.500000" r="4.000000" fill="#0000ff" /></a><g transform="translate(44.132948,71.500000) rotate(-30)"><text style="font-size:10px;font-family:OpenSans;fill:#555;" text-anchor="middle" x="0" y="-6.000000">Q63Q</text></g><line x1="44.132948" x2="44.132948" y1="59.000000" y2="112.000000" stroke="#BABDB6" stroke-width="2"/><a xlink:title="L63L"><circle cx="44.132948" cy="59.000000" r="4.000000" fill="#0000ff" /></a><g transform="translate(44.132948,59.000000) rotate(-30)"><text style="font-size:10px;font-family:OpenSans;fill:#555;" text-anchor="middle" x="0" y="-6.000000">L63L</text></g><line x1="44.595376" x2="44.595376" y1="84.000000" y2="112.000000" stroke="#BABDB6" stroke-width="2"/><a xlink:title="L64L"><circle cx="44.595376" cy="84.000000" r="4.000000" fill="#0000ff" /></a><g transform="translate(44.595376,84.000000) rotate(-30)"><text style="font-size:10px;font-family:OpenSans;fill:#555;" text-anchor="middle" x="0" y="-6.000000">L64L</text></g><line x1="72.803468" x2="72.803468" y1="84.000000" y2="112.000000" stroke="#BABDB6" stroke-width="2"/><a xlink:title="L125L"><circle cx="72.803468" cy="84.000000" r="4.000000" fill="#0000ff" /></a><g transform="translate(72.803468,84.000000) rotate(-30)"><text style="font-size:10px;font-family:OpenSans;fill:#555;" text-anchor="middle" x="0" y="-6.000000">L125L</text></g><line x1="90.838150" x2="90.838150" y1="84.000000" y2="112.000000" stroke="#BABDB6" stroke-width="2"/><a xlink:title="Q164Q"><circle cx="90.838150" cy="84.000000" r="4.000000" fill="#0000ff" /></a><g transform="translate(90.838150,84.000000) rotate(-30)"><text style="font-size:10px;font-family:OpenSans;fill:#555;" text-anchor="middle" x="0" y="-6.000000">Q164Q</text></g><line x1="110.722543" x2="110.722543" y1="59.000000" y2="112.000000" stroke="#BABDB6" stroke-width="2"/><a xlink:title="Q207Q"><circle cx="110.722543" cy="59.000000" r="4.000000" fill="#0000ff" /></a><g transform="translate(110.722543,59.000000) rotate(-30)"><text style="font-size:10px;font-family:OpenSans;fill:#555;" text-anchor="middle" x="0" y="-6.000000">Q207Q</text></g><line x1="111.647399" x2="111.647399" y1="71.500000" y2="112.000000" stroke="#BABDB6" stroke-width="2"/><a xlink:title="Q209Q"><circle cx="111.647399" cy="71.500000" r="4.000000" fill="#0000ff" /></a><g transform="translate(111.647399,71.500000) rotate(-30)"><text style="font-size:10px;font-family:OpenSans;fill:#555;" text-anchor="middle" x="0" y="-6.000000">Q209Q</text></g><line x1="112.109827" x2="112.109827" y1="84.000000" y2="112.000000" stroke="#BABDB6" stroke-width="2"/><a xlink:title="Q210Q"><circle cx="112.109827" cy="84.000000" r="4.000000" fill="#0000ff" /></a><g transform="translate(112.109827,84.000000) rotate(-30)"><text style="font-size:10px;font-family:OpenSans;fill:#555;" text-anchor="middle" x="0" y="-6.000000">Q210Q</text></g><line x1="140.317919" x2="140.317919" y1="84.000000" y2="112.000000" stroke="#BABDB6" stroke-width="2"/><a xlink:title="Q271Q"><circle cx="140.317919" cy="84.000000" r="4.000000" fill="#0000ff" /></a><g transform="translate(140.317919,84.000000) rotate(-30)"><text style="font-size:10px;font-family:OpenSans;fill:#555;" text-anchor="middle" x="0" y="-6.000000">Q271Q</text></g><line x1="168.063584" x2="168.063584" y1="84.000000" y2="112.000000" stroke="#BABDB6" stroke-width="2"/><a xlink:title="S331S"><circle cx="168.063584" cy="84.000000" r="4.000000" fill="#0000ff" /></a><g transform="translate(168.063584,84.000000) rotate(-30)"><text style="font-size:10px;font-family:OpenSans;fill:#555;" text-anchor="middle" x="0" y="-6.000000">S331S</text></g><line x1="213.381503" x2="213.381503" y1="84.000000" y2="112.000000" stroke="#BABDB6" stroke-width="2"/><a xlink:title="V429V"><circle cx="213.381503" cy="84.000000" r="4.000000" fill="#0000ff" /></a><g transform="translate(213.381503,84.000000) rotate(-30)"><text style="font-size:10px;font-family:OpenSans;fill:#555;" text-anchor="middle" x="0" y="-6.000000">V429V</text></g><line x1="258.699422" x2="258.699422" y1="71.500000" y2="112.000000" stroke="#BABDB6" stroke-width="2"/><a xlink:title="C527C"><circle cx="258.699422" cy="71.500000" r="4.000000" fill="#0000ff" /></a><g transform="translate(258.699422,71.500000) rotate(-30)"><text style="font-size:10px;font-family:OpenSans;fill:#555;" text-anchor="middle" x="0" y="-6.000000">C527C</text></g><line x1="260.086705" x2="260.086705" y1="84.000000" y2="112.000000" stroke="#BABDB6" stroke-width="2"/><a xlink:title="V530V"><circle cx="260.086705" cy="84.000000" r="4.000000" fill="#0000ff" /></a><g transform="translate(260.086705,84.000000) rotate(-30)"><text style="font-size:10px;font-family:OpenSans;fill:#555;" text-anchor="middle" x="0" y="-6.000000">V530V</text></g><line x1="279.971098" x2="279.971098" y1="59.000000" y2="112.000000" stroke="#BABDB6" stroke-width="2"/><a xlink:title="V573V"><circle cx="279.971098" cy="59.000000" r="4.000000" fill="#0000ff" /></a><g transform="translate(279.971098,59.000000) rotate(-30)"><text style="font-size:10px;font-family:OpenSans;fill:#555;" text-anchor="middle" x="0" y="-6.000000">V573V</text></g><line x1="280.895954" x2="280.895954" y1="71.500000" y2="112.000000" stroke="#BABDB6" stroke-width="2"/><a xlink:title="V575V"><circle cx="280.895954" cy="71.500000" r="4.000000" fill="#0000ff" /></a><g transform="translate(280.895954,71.500000) rotate(-30)"><text style="font-size:10px;font-family:OpenSans;fill:#555;" text-anchor="middle" x="0" y="-6.000000">V575V</text></g><line x1="281.358382" x2="281.358382" y1="84.000000" y2="112.000000" stroke="#BABDB6" stroke-width="2"/><a xlink:title="V576V"><circle cx="281.358382" cy="84.000000" r="4.000000" fill="#0000ff" /></a><g transform="translate(281.358382,84.000000) rotate(-30)"><text style="font-size:10px;font-family:OpenSans;fill:#555;" text-anchor="middle" x="0" y="-6.000000">V576V</text></g><line x1="305.404624" x2="305.404624" y1="71.500000" y2="112.000000" stroke="#BABDB6" stroke-width="2"/><a xlink:title="C628C"><circle cx="305.404624" cy="71.500000" r="4.000000" fill="#0000ff" /></a><g transform="translate(305.404624,71.500000) rotate(-30)"><text style="font-size:10px;font-family:OpenSans;fill:#555;" text-anchor="middle" x="0" y="-6.000000">C628C</text></g><line x1="309.566474" x2="309.566474" y1="84.000000" y2="112.000000" stroke="#BABDB6" stroke-width="2"/><a xlink:title="V637V"><circle cx="309.566474" cy="84.000000" r="4.000000" fill="#0000ff" /></a><g transform="translate(309.566474,84.000000) rotate(-30)"><text style="font-size:10px;font-family:OpenSans;fill:#555;" text-anchor="middle" x="0" y="-6.000000">V637V</text></g><line x1="325.289017" x2="325.289017" y1="59.000000" y2="112.000000" stroke="#BABDB6" stroke-width="2"/><a xlink:title="C671C"><circle cx="325.289017" cy="59.000000" r="4.000000" fill="#0000ff" /></a><g transform="translate(325.289017,59.000000) rotate(-30)"><text style="font-size:10px;font-family:OpenSans;fill:#555;" text-anchor="middle" x="0" y="-6.000000">C671C</text></g><line x1="326.213873" x2="326.213873" y1="71.500000" y2="112.000000" stroke="#BABDB6" stroke-width="2"/><a xlink:title="C673C"><circle cx="326.213873" cy="71.500000" r="4.000000" fill="#0000ff" /></a><g transform="translate(326.213873,71.500000) rotate(-30)"><text style="font-size:10px;font-family:OpenSans;fill:#555;" text-anchor="middle" x="0" y="-6.000000">C673C</text></g><line x1="326.676301" x2="326.676301" y1="84.000000" y2="112.000000" stroke="#BABDB6" stroke-width="2"/><a xlink:title="C674C"><circle cx="326.676301" cy="84.000000" r="4.000000" fill="#0000ff" /></a><g transform="translate(326.676301,84.000000) rotate(-30)"><text style="font-size:10px;font-family:OpenSans;fill:#555;" text-anchor="middle" x="0" y="-6.000000">C674C</text></g><line x1="354.884393" x2="354.884393" y1="84.000000" y2="112.000000" stroke="#BABDB6" stroke-width="2"/><a xlink:title="C735C"><circle cx="354.884393" cy="84.000000" r="4.000000" fill="#0000ff" /></a><g transform="translate(354.884393,84.000000) rotate(-30)"><text style="font-size:10px;font-family:OpenSans;fill:#555;" text-anchor="middle" x="0" y="-6.000000">C735C</text></g><a xlink:title=",  (865aa)"><rect fill="#BABDB6" x="15.000000" y="112.000000" width="400.000000" height="14.000000"/></a><g transform="translate(105.173410,107.000000)"><a xlink:href="https://www.ebi.ac.uk/interpro/entry/pfam/PF00930" xlink:title="Dipeptidyl peptidase IV (DPP IV) N-terminal region"><rect fill="#2DCF00" x="0" y="0" width="169.248555" height="24.000000" filter="url(#ds)"/><text style="font-size:12px;font-family:OpenSans;fill:#ffffff;" text-anchor="middle" x="84.624277" y="16.000000">DPPIV_N</text></a></g>
<g transform="translate(311.878613,107.000000)"><a xlink:href="https://www.ebi.ac.uk/interpro/entry/pfam/PF00326" xlink:title="Prolyl oligopeptidase family"><rect fill="#FF5353" x="0" y="0" width="95.260116" height="24.000000" filter="url(#ds)"/><text style="font-size:12px;font-family:OpenSans;fill:#ffffff;" text-anchor="middle" x="47.630058" y="16.000000">Peptidase_S9</text></a></g>
<g class="axis">
<line x1="15.000000" x2="415.000000" y1="141.000000" y2="141.000000" stroke="#AAAAAA" /><line x1="15.000000" x2="15.000000" y1="141.000000" y2="146.000000" stroke="#AAAAAA" /><line x1="17.312139" x2="17.312139" y1="141.000000" y2="146.000000" stroke="#AAAAAA" /><text style="font-size:10px;font-family:OpenSans;fill:#000000;" text-anchor="middle" x="17.312139" y="156.000000">5</text><line x1="41.358382" x2="41.358382" y1="141.000000" y2="146.000000" stroke="#AAAAAA" /><text style="font-size:10px;font-family:OpenSans;fill:#000000;" text-anchor="middle" x="41.358382" y="156.000000">57</text><line x1="72.803468" x2="72.803468" y1="141.000000" y2="146.000000" stroke="#AAAAAA" /><text style="font-size:10px;font-family:OpenSans;fill:#000000;" text-anchor="middle" x="72.803468" y="156.000000">125</text><line x1="110.722543" x2="110.722543" y1="141.000000" y2="146.000000" stroke="#AAAAAA" /><text style="font-size:10px;font-family:OpenSans;fill:#000000;" text-anchor="middle" x="110.722543" y="156.000000">207</text><line x1="140.317919" x2="140.317919" y1="141.000000" y2="146.000000" stroke="#AAAAAA" /><text style="font-size:10px;font-family:OpenSans;fill:#000000;" text-anchor="middle" x="140.317919" y="156.000000">271</text><line x1="168.063584" x2="168.063584" y1="141.000000" y2="146.000000" stroke="#AAAAAA" /><text style="font-size:10px;font-family:OpenSans;fill:#000000;" text-anchor="middle" x="168.063584" y="156.000000">331</text><line x1="213.381503" x2="213.381503" y1="141.000000" y2="146.000000" stroke="#AAAAAA" /><text style="font-size:10px;font-family:OpenSans;fill:#000000;" text-anchor="middle" x="213.381503" y="156.000000">429</text><line x1="258.699422" x2="258.699422" y1="141.000000" y2="146.000000" stroke="#AAAAAA" /><text style="font-size:10px;font-family:OpenSans;fill:#000000;" text-anchor="middle" x="258.699422" y="156.000000">527</text><line x1="279.971098" x2="279.971098" y1="141.000000" y2="146.000000" stroke="#AAAAAA" /><text style="font-size:10px;font-family:OpenSans;fill:#000000;" text-anchor="middle" x="279.971098" y="156.000000">573</text><line x1="305.404624" x2="305.404624" y1="141.000000" y2="146.000000" stroke="#AAAAAA" /><text style="font-size:10px;font-family:OpenSans;fill:#000000;" text-anchor="middle" x="305.404624" y="156.000000">628</text><line x1="325.289017" x2="325.289017" y1="141.000000" y2="146.000000" stroke="#AAAAAA" /><text style="font-size:10px;font-family:OpenSans;fill:#000000;" text-anchor="middle" x="325.289017" y="156.000000">671</text><line x1="354.884393" x2="354.884393" y1="141.000000" y2="146.000000" stroke="#AAAAAA" /><text style="font-size:10px;font-family:OpenSans;fill:#000000;" text-anchor="middle" x="354.884393" y="156.000000">735</text><line x1="415.000000" x2="415.000000" y1="141.000000" y2="146.000000" stroke="#AAAAAA" /><text style="font-size:10px;font-family:OpenSans;fill:#000000;" text-anchor="middle" x="415.000000" y="156.000000">865</text></g>
<rect fill="#2DCF00" x="4" y="170.000000" width="12" height="12" filter="url(#ds)"/><text style="font-size:12px;font-family:OpenSans;fill:#000000;" text-anchor="start" x="20" y="182.000000">Dipeptidyl peptidase IV (DPP IV) N-terminal region</text><rect fill="#FF5353" x="4" y="184.000000" width="12" height="12" filter="url(#ds)"/><text style="font-size:12px;font-family:OpenSans;fill:#000000;" text-anchor="start" x="20" y="196.000000">Prolyl oligopeptidase family</text></svg>
