<?xml version='1.0'?>
<svg xmlns="http://www.w3.org/2000/svg" xmlns:xlink="http://www.w3.org/1999/xlink" width="430.000000" height="158.700000">
<defs>
  <filter id="ds" x="0" y="0">
    <feOffset in="SourceAlpha" dx="2" dy="2" />
    <feComponentTransfer><feFuncA type="linear" slope="0.2"/></feComponentTransfer>
    <feGaussianBlur result="blurOut" stdDeviation="1" />
    <feBlend in="SourceGraphic" in2="blurOut" mode="normal" />
  </filter>
  <pattern id="disordered-hatch" patternUnits="userSpaceOnUse" width="4" height="4">
    <path d="M-1,1 l2,-2 M0,4 l4,-4 M3,5 l2,-2" stroke="#000000" opacity="0.3" />
  </pattern>
</defs>
<line x1="32.094017" x2="32.094017" y1="46.500000" y2="74.500000" stroke="#BABDB6" stroke-width="2"/><a xlink:title="E15G"><circle cx="32.094017" cy="46.500000" r="4.000000" fill="#ff0000" /></a><g transform="translate(32.094017,46.500000) rotate(-30)"><text style="font-size:10px;font-family:OpenSans;fill:#555;" text-anchor="middle" x="0" y="-6.000000">E15G</text></g><line x1="84.515670" x2="84.515670" y1="34.000000" y2="74.500000" stroke="#BABDB6" stroke-width="2"/><a xlink:title="E61G"><circle cx="84.515670" cy="34.000000" r="4.000000" fill="#ff0000" /></a><g transform="translate(84.515670,34.000000) rotate(-30)"><text style="font-size:10px;font-family:OpenSans;fill:#555;" text-anchor="middle" x="0" y="-6.000000">E61G</text></g><line x1="90.213675" x2="90.213675" y1="46.500000" y2="74.500000" stroke="#BABDB6" stroke-width="2"/><a xlink:title="E66G"><circle cx="90.213675" cy="46.500000" r="4.000000" fill="#ff0000" /></a><g transform="translate(90.213675,46.500000) rotate(-30)"><text style="font-size:10px;font-family:OpenSans;fill:#555;" text-anchor="middle" x="0" y="-6.000000">E66G</text></g><line x1="105.028490" x2="105.028490" y1="34.000000" y2="74.500000" stroke="#BABDB6" stroke-width="2"/><a xlink:title="E79G"><circle cx="105.028490" cy="34.000000" r="4.000000" fill="#ff0000" /></a><g transform="translate(105.028490,34.000000) rotate(-30)"><text style="font-size:10px;font-family:OpenSans;fill:#555;" text-anchor="middle" x="0" y="-6.000000">E79G</text></g><line x1="109.586895" x2="109.586895" y1="46.500000" y2="74.500000" stroke="#BABDB6" stroke-width="2"/><a xlink:title="E83G"><circle cx="109.586895" cy="46.500000" r="4.000000" fill="#ff0000" /></a><g transform="translate(109.586895,46.500000) rotate(-30)"><text style="font-size:10px;font-family:OpenSans;fill:#555;" text-anchor="middle" x="0" y="-6.000000">E83G</text></g><line x1="124.401709" x2="124.401709" y1="46.500000" y2="74.500000" stroke="#BABDB6" stroke-width="2"/><a xlink:title="E96G"><circle cx="124.401709" cy="46.500000" r="4.000000" fill="#ff0000" /></a><g transform="translate(124.401709,46.500000) rotate(-30)"><text style="font-size:10px;font-family:OpenSans;fill:#555;" text-anchor="middle" x="0" y="-6.000000">E96G</text></g><a xlink:title=",  (351aa)"><rect fill="#BABDB6" x="15.000000" y="74.500000" width="400.000000" height="14.000000"/></a><g transform="translate(214.430199,69.500000)"><a xlink:href="https://www.ebi.ac.uk/interpro/entry/pfam/PF04440" xlink:title="Dysbindin (Dystrobrevin binding protein 1)"><rect fill="#2DCF00" x="0" y="0" width="165.242165" height="24.000000" filter="url(#ds)"/><text style="font-size:12px;font-family:OpenSans;fill:#ffffff;" text-anchor="middle" x="82.621083" y="16.000000">Dysbindin</text></a></g>
<g class="axis">
<line x1="15.000000" x2="415.000000" y1="103.500000" y2="103.500000" stroke="#AAAAAA" /><line x1="15.000000" x2="15.000000" y1="103.500000" y2="108.500000" stroke="#AAAAAA" /><line x1="32.094017" x2="32.094017" y1="103.500000" y2="108.500000" stroke="#AAAAAA" /><text style="font-size:10px;font-family:OpenSans;fill:#000000;" text-anchor="middle" x="32.094017" y="118.500000">15</text><line x1="84.515670" x2="84.515670" y1="103.500000" y2="108.500000" stroke="#AAAAAA" /><text style="font-size:10px;font-family:OpenSans;fill:#000000;" text-anchor="middle" x="84.515670" y="118.500000">61</text><line x1="105.028490" x2="105.028490" y1="103.500000" y2="108.500000" stroke="#AAAAAA" /><text style="font-size:10px;font-family:OpenSans;fill:#000000;" text-anchor="middle" x="105.028490" y="118.500000">79</text><line x1="124.401709" x2="124.401709" y1="103.500000" y2="108.500000" stroke="#AAAAAA" /><text style="font-size:10px;font-family:OpenSans;fill:#000000;" text-anchor="middle" x="124.401709" y="118.500000">96</text><line x1="214.430199" x2="214.430199" y1="103.500000" y2="108.500000" stroke="#AAAAAA" /><text style="font-size:10px;font-family:OpenSans;fill:#000000;" text-anchor="middle" x="214.430199" y="118.500000">175</text><line x1="379.672365" x2="379.672365" y1="103.500000" y2="108.500000" stroke="#AAAAAA" /><text style="font-size:10px;font-family:OpenSans;fill:#000000;" text-anchor="middle" x="379.672365" y="118.500000">320</text><line x1="415.000000" x2="415.000000" y1="103.500000" y2="108.500000" stroke="#AAAAAA" /><text style="font-size:10px;font-family:OpenSans;fill:#000000;" text-anchor="middle" x="415.000000" y="118.500000">351</text></g>
<rect fill="#2DCF00" x="4" y="132.500000" width="12" height="12" filter="url(#ds)"/><text style="font-size:12px;font-family:OpenSans;fill:#000000;" text-anchor="start" x="20" y="144.500000">Dysbindin (Dystrobrevin binding protein 1)</text></svg>
