<?xml version='1.0'?>
<svg xmlns="http://www.w3.org/2000/svg" xmlns:xlink="http://www.w3.org/1999/xlink" width="430.000000" height="158.700000">
<defs>
  <filter id="ds" x="0" y="0">
    <feOffset in="SourceAlpha" dx="2" dy="2" />
    <feComponentTransfer><feFuncA type="linear" slope="0.2"/></feComponentTransfer>
    <feGaussianBlur result="blurOut" stdDeviation="1" />
    <feBlend in="SourceGraphic" in2="blurOut" mode="normal" />
  </filter>
  <pattern id="disordered-hatch" patternUnits="userSpaceOnUse" width="4" height="4">
    <path d="M-1,1 l2,-2 M0,4 l4,-4 M3,5 l2,-2" stroke="#000000" opacity="0.3" />
  </pattern>
</defs>
<line x1="302.738420" x2="302.738420" y1="34.000000" y2="74.500000" stroke="#BABDB6" stroke-width="2"/><a xlink:title="G264G"><circle cx="302.738420" cy="34.000000" r="4.000000" fill="#0000ff" /></a><g transform="translate(302.738420,34.000000) rotate(-30)"><text style="font-size:10px;font-family:OpenSans;fill:#555;" text-anchor="middle" x="0" y="-6.000000">G264G</text></g><line x1="303.828338" x2="303.828338" y1="46.500000" y2="74.500000" stroke="#BABDB6" stroke-width="2"/><a xlink:title="G265G"><circle cx="303.828338" cy="46.500000" r="4.000000" fill="#0000ff" /></a><g transform="translate(303.828338,46.500000) rotate(-30)"><text style="font-size:10px;font-family:OpenSans;fill:#555;" text-anchor="middle" x="0" y="-6.000000">G265G</text></g><line x1="310.367847" x2="310.367847" y1="34.000000" y2="74.500000" stroke="#BABDB6" stroke-width="2"/><a xlink:title="G271G"><circle cx="310.367847" cy="34.000000" r="4.000000" fill="#0000ff" /></a><g transform="translate(310.367847,34.000000) rotate(-30)"><text style="font-size:10px;font-family:OpenSans;fill:#555;" text-anchor="middle" x="0" y="-6.000000">G271G</text></g><line x1="311.457766" x2="311.457766" y1="46.500000" y2="74.500000" stroke="#BABDB6" stroke-width="2"/><a xlink:title="G272G"><circle cx="311.457766" cy="46.500000" r="4.000000" fill="#0000ff" /></a><g transform="translate(311.457766,46.500000) rotate(-30)"><text style="font-size:10px;font-family:OpenSans;fill:#555;" text-anchor="middle" x="0" y="-6.000000">G272G</text></g><a xlink:title=",  (367aa)"><rect fill="#BABDB6" x="15.000000" y="74.500000" width="400.000000" height="14.000000"/></a><g transform="translate(59.686649,69.500000)"><a xlink:href="https://www.ebi.ac.uk/interpro/entry/pfam/PF00076" xlink:title="RNA recognition motif"><rect fill="#2DCF00" x="0" y="0" width="76.294278" height="24.000000" filter="url(#ds)"/><text style="font-size:12px;font-family:OpenSans;fill:#ffffff;" text-anchor="middle" x="38.147139" y="16.000000">RRM_1</text></a></g>
<g transform="translate(153.419619,69.500000)"><a xlink:href="https://www.ebi.ac.uk/interpro/entry/pfam/PF00076" xlink:title="RNA recognition motif"><rect fill="#FF5353" x="0" y="0" width="69.754768" height="24.000000" filter="url(#ds)"/><text style="font-size:12px;font-family:OpenSans;fill:#ffffff;" text-anchor="middle" x="34.877384" y="16.000000">RRM_1</text></a></g>
<g transform="translate(326.716621,69.500000)"><a xlink:href="https://www.ebi.ac.uk/interpro/entry/pfam/PF00076" xlink:title="RNA recognition motif"><rect fill="#5B5BFF" x="0" y="0" width="75.204360" height="24.000000" filter="url(#ds)"/><text style="font-size:12px;font-family:OpenSans;fill:#ffffff;" text-anchor="middle" x="37.602180" y="16.000000">RRM_1</text></a></g>
<g class="axis">
<line x1="15.000000" x2="415.000000" y1="103.500000" y2="103.500000" stroke="#AAAAAA" /><line x1="15.000000" x2="15.000000" y1="103.500000" y2="108.500000" stroke="#AAAAAA" /><line x1="15.000000" x2="15.000000" y1="103.500000" y2="108.500000" stroke="#AAAAAA" /><text style="font-size:10px;font-family:OpenSans;fill:#000000;" text-anchor="middle" x="15.000000" y="118.500000">0</text><line x1="59.686649" x2="59.686649" y1="103.500000" y2="108.500000" stroke="#AAAAAA" /><text style="font-size:10px;font-family:OpenSans;fill:#000000;" text-anchor="middle" x="59.686649" y="118.500000">41</text><line x1="135.980926" x2="135.980926" y1="103.500000" y2="108.500000" stroke="#AAAAAA" /><text style="font-size:10px;font-family:OpenSans;fill:#000000;" text-anchor="middle" x="135.980926" y="118.500000">111</text><line x1="223.174387" x2="223.174387" y1="103.500000" y2="108.500000" stroke="#AAAAAA" /><text style="font-size:10px;font-family:OpenSans;fill:#000000;" text-anchor="middle" x="223.174387" y="118.500000">191</text><line x1="302.738420" x2="302.738420" y1="103.500000" y2="108.500000" stroke="#AAAAAA" /><text style="font-size:10px;font-family:OpenSans;fill:#000000;" text-anchor="middle" x="302.738420" y="118.500000">264</text><line x1="326.716621" x2="326.716621" y1="103.500000" y2="108.500000" stroke="#AAAAAA" /><text style="font-size:10px;font-family:OpenSans;fill:#000000;" text-anchor="middle" x="326.716621" y="118.500000">286</text><line x1="415.000000" x2="415.000000" y1="103.500000" y2="108.500000" stroke="#AAAAAA" /><text style="font-size:10px;font-family:OpenSans;fill:#000000;" text-anchor="middle" x="415.000000" y="118.500000">367</text></g>
<rect fill="#5B5BFF" x="4" y="132.500000" width="12" height="12" filter="url(#ds)"/><text style="font-size:12px;font-family:OpenSans;fill:#000000;" text-anchor="start" x="20" y="144.500000">RNA recognition motif</text></svg>
