<?xml version='1.0'?>
<svg xmlns="http://www.w3.org/2000/svg" xmlns:xlink="http://www.w3.org/1999/xlink" width="430.000000" height="172.600000">
<defs>
  <filter id="ds" x="0" y="0">
    <feOffset in="SourceAlpha" dx="2" dy="2" />
    <feComponentTransfer><feFuncA type="linear" slope="0.2"/></feComponentTransfer>
    <feGaussianBlur result="blurOut" stdDeviation="1" />
    <feBlend in="SourceGraphic" in2="blurOut" mode="normal" />
  </filter>
  <pattern id="disordered-hatch" patternUnits="userSpaceOnUse" width="4" height="4">
    <path d="M-1,1 l2,-2 M0,4 l4,-4 M3,5 l2,-2" stroke="#000000" opacity="0.3" />
  </pattern>
</defs>
<line x1="67.777778" x2="67.777778" y1="34.000000" y2="62.000000" stroke="#BABDB6" stroke-width="2"/><a xlink:title="N95D"><circle cx="67.777778" cy="34.000000" r="4.000000" fill="#ff0000" /></a><g transform="translate(67.777778,34.000000) rotate(-30)"><text style="font-size:10px;font-family:OpenSans;fill:#555;" text-anchor="middle" x="0" y="-6.000000">N95D</text></g><line x1="235.000000" x2="235.000000" y1="34.000000" y2="62.000000" stroke="#BABDB6" stroke-width="2"/><a xlink:title="L396L"><circle cx="235.000000" cy="34.000000" r="4.000000" fill="#0000ff" /></a><g transform="translate(235.000000,34.000000) rotate(-30)"><text style="font-size:10px;font-family:OpenSans;fill:#555;" text-anchor="middle" x="0" y="-6.000000">L396L</text></g><line x1="305.000000" x2="305.000000" y1="34.000000" y2="62.000000" stroke="#BABDB6" stroke-width="2"/><a xlink:title="P522P"><circle cx="305.000000" cy="34.000000" r="4.000000" fill="#0000ff" /></a><g transform="translate(305.000000,34.000000) rotate(-30)"><text style="font-size:10px;font-family:OpenSans;fill:#555;" text-anchor="middle" x="0" y="-6.000000">P522P</text></g><line x1="333.333333" x2="333.333333" y1="34.000000" y2="62.000000" stroke="#BABDB6" stroke-width="2"/><a xlink:title="L573L"><circle cx="333.333333" cy="34.000000" r="4.000000" fill="#0000ff" /></a><g transform="translate(333.333333,34.000000) rotate(-30)"><text style="font-size:10px;font-family:OpenSans;fill:#555;" text-anchor="middle" x="0" y="-6.000000">L573L</text></g><line x1="403.333333" x2="403.333333" y1="34.000000" y2="62.000000" stroke="#BABDB6" stroke-width="2"/><a xlink:title="P699P"><circle cx="403.333333" cy="34.000000" r="4.000000" fill="#0000ff" /></a><g transform="translate(403.333333,34.000000) rotate(-30)"><text style="font-size:10px;font-family:OpenSans;fill:#555;" text-anchor="middle" x="0" y="-6.000000">P699P</text></g><a xlink:title=",  (720aa)"><rect fill="#BABDB6" x="15.000000" y="62.000000" width="400.000000" height="14.000000"/></a><g transform="translate(79.444444,57.000000)"><a xlink:href="https://www.ebi.ac.uk/interpro/entry/pfam/PF11841" xlink:title="ELMO, armadillo-like helical domain"><rect fill="#2DCF00" x="0" y="0" width="84.444444" height="24.000000" filter="url(#ds)"/><text style="font-size:12px;font-family:OpenSans;fill:#ffffff;" text-anchor="middle" x="42.222222" y="16.000000">ELMO_ARM</text></a></g>
<g transform="translate(177.222222,57.000000)"><a xlink:href="https://www.ebi.ac.uk/interpro/entry/pfam/PF04727" xlink:title="ELMO/CED-12 family"><rect fill="#FF5353" x="0" y="0" width="97.777778" height="24.000000" filter="url(#ds)"/><text style="font-size:12px;font-family:OpenSans;fill:#ffffff;" text-anchor="middle" x="48.888889" y="16.000000">ELMO_CED12</text></a></g>
<g transform="translate(312.222222,57.000000)"><a xlink:href="https://www.ebi.ac.uk/interpro/entry/pfam/PF16457" xlink:title="Pleckstrin homology domain"><rect fill="#5B5BFF" x="0" y="0" width="71.111111" height="24.000000" filter="url(#ds)"/><text style="font-size:12px;font-family:OpenSans;fill:#ffffff;" text-anchor="middle" x="35.555556" y="16.000000">PH_12</text></a></g>
<g class="axis">
<line x1="15.000000" x2="415.000000" y1="91.000000" y2="91.000000" stroke="#AAAAAA" /><line x1="15.000000" x2="15.000000" y1="91.000000" y2="96.000000" stroke="#AAAAAA" /><line x1="15.000000" x2="15.000000" y1="91.000000" y2="96.000000" stroke="#AAAAAA" /><text style="font-size:10px;font-family:OpenSans;fill:#000000;" text-anchor="middle" x="15.000000" y="106.000000">0</text><line x1="67.777778" x2="67.777778" y1="91.000000" y2="96.000000" stroke="#AAAAAA" /><text style="font-size:10px;font-family:OpenSans;fill:#000000;" text-anchor="middle" x="67.777778" y="106.000000">95</text><line x1="163.888889" x2="163.888889" y1="91.000000" y2="96.000000" stroke="#AAAAAA" /><text style="font-size:10px;font-family:OpenSans;fill:#000000;" text-anchor="middle" x="163.888889" y="106.000000">268</text><line x1="235.000000" x2="235.000000" y1="91.000000" y2="96.000000" stroke="#AAAAAA" /><text style="font-size:10px;font-family:OpenSans;fill:#000000;" text-anchor="middle" x="235.000000" y="106.000000">396</text><line x1="275.000000" x2="275.000000" y1="91.000000" y2="96.000000" stroke="#AAAAAA" /><text style="font-size:10px;font-family:OpenSans;fill:#000000;" text-anchor="middle" x="275.000000" y="106.000000">468</text><line x1="305.000000" x2="305.000000" y1="91.000000" y2="96.000000" stroke="#AAAAAA" /><text style="font-size:10px;font-family:OpenSans;fill:#000000;" text-anchor="middle" x="305.000000" y="106.000000">522</text><line x1="333.333333" x2="333.333333" y1="91.000000" y2="96.000000" stroke="#AAAAAA" /><text style="font-size:10px;font-family:OpenSans;fill:#000000;" text-anchor="middle" x="333.333333" y="106.000000">573</text><line x1="415.000000" x2="415.000000" y1="91.000000" y2="96.000000" stroke="#AAAAAA" /><text style="font-size:10px;font-family:OpenSans;fill:#000000;" text-anchor="middle" x="415.000000" y="106.000000">720</text></g>
<rect fill="#2DCF00" x="4" y="120.000000" width="12" height="12" filter="url(#ds)"/><text style="font-size:12px;font-family:OpenSans;fill:#000000;" text-anchor="start" x="20" y="132.000000">ELMO, armadillo-like helical domain</text><rect fill="#FF5353" x="4" y="134.000000" width="12" height="12" filter="url(#ds)"/><text style="font-size:12px;font-family:OpenSans;fill:#000000;" text-anchor="start" x="20" y="146.000000">ELMO/CED-12 family</text><rect fill="#5B5BFF" x="4" y="148.000000" width="12" height="12" filter="url(#ds)"/><text style="font-size:12px;font-family:OpenSans;fill:#000000;" text-anchor="start" x="20" y="160.000000">Pleckstrin homology domain</text></svg>
