<?xml version='1.0'?>
<svg xmlns="http://www.w3.org/2000/svg" xmlns:xlink="http://www.w3.org/1999/xlink" width="795.205479" height="146.200000">
<defs>
  <filter id="ds" x="0" y="0">
    <feOffset in="SourceAlpha" dx="2" dy="2" />
    <feComponentTransfer><feFuncA type="linear" slope="0.2"/></feComponentTransfer>
    <feGaussianBlur result="blurOut" stdDeviation="1" />
    <feBlend in="SourceGraphic" in2="blurOut" mode="normal" />
  </filter>
  <pattern id="disordered-hatch" patternUnits="userSpaceOnUse" width="4" height="4">
    <path d="M-1,1 l2,-2 M0,4 l4,-4 M3,5 l2,-2" stroke="#000000" opacity="0.3" />
  </pattern>
</defs>
<line x1="20.369863" x2="20.369863" y1="34.000000" y2="62.000000" stroke="#BABDB6" stroke-width="2"/><a xlink:title="N4N"><circle cx="20.369863" cy="34.000000" r="4.000000" fill="#0000ff" /></a><g transform="translate(20.369863,34.000000) rotate(-30)"><text style="font-size:10px;font-family:OpenSans;fill:#555;" text-anchor="middle" x="0" y="-6.000000">N4N</text></g><line x1="243.219178" x2="243.219178" y1="34.000000" y2="62.000000" stroke="#BABDB6" stroke-width="2"/><a xlink:title="N170N"><circle cx="243.219178" cy="34.000000" r="4.000000" fill="#0000ff" /></a><g transform="translate(243.219178,34.000000) rotate(-30)"><text style="font-size:10px;font-family:OpenSans;fill:#555;" text-anchor="middle" x="0" y="-6.000000">N170N</text></g><line x1="298.260274" x2="298.260274" y1="34.000000" y2="62.000000" stroke="#BABDB6" stroke-width="2"/><a xlink:title="R211H"><circle cx="298.260274" cy="34.000000" r="4.000000" fill="#ff0000" /></a><g transform="translate(298.260274,34.000000) rotate(-30)"><text style="font-size:10px;font-family:OpenSans;fill:#555;" text-anchor="middle" x="0" y="-6.000000">R211H</text></g><line x1="453.986301" x2="453.986301" y1="34.000000" y2="62.000000" stroke="#BABDB6" stroke-width="2"/><a xlink:title="N327N"><circle cx="453.986301" cy="34.000000" r="4.000000" fill="#0000ff" /></a><g transform="translate(453.986301,34.000000) rotate(-30)"><text style="font-size:10px;font-family:OpenSans;fill:#555;" text-anchor="middle" x="0" y="-6.000000">N327N</text></g><line x1="521.109589" x2="521.109589" y1="34.000000" y2="62.000000" stroke="#BABDB6" stroke-width="2"/><a xlink:title="R377H"><circle cx="521.109589" cy="34.000000" r="4.000000" fill="#ff0000" /></a><g transform="translate(521.109589,34.000000) rotate(-30)"><text style="font-size:10px;font-family:OpenSans;fill:#555;" text-anchor="middle" x="0" y="-6.000000">R377H</text></g><line x1="692.945205" x2="692.945205" y1="34.000000" y2="62.000000" stroke="#BABDB6" stroke-width="2"/><a xlink:title="R505H"><circle cx="692.945205" cy="34.000000" r="4.000000" fill="#ff0000" /></a><g transform="translate(692.945205,34.000000) rotate(-30)"><text style="font-size:10px;font-family:OpenSans;fill:#555;" text-anchor="middle" x="0" y="-6.000000">R505H</text></g><line x1="731.876712" x2="731.876712" y1="34.000000" y2="62.000000" stroke="#BABDB6" stroke-width="2"/><a xlink:title="R534H"><circle cx="731.876712" cy="34.000000" r="4.000000" fill="#ff0000" /></a><g transform="translate(731.876712,34.000000) rotate(-30)"><text style="font-size:10px;font-family:OpenSans;fill:#555;" text-anchor="middle" x="0" y="-6.000000">R534H</text></g><line x1="749.328767" x2="749.328767" y1="34.000000" y2="62.000000" stroke="#BABDB6" stroke-width="2"/><a xlink:title="R547H"><circle cx="749.328767" cy="34.000000" r="4.000000" fill="#ff0000" /></a><g transform="translate(749.328767,34.000000) rotate(-30)"><text style="font-size:10px;font-family:OpenSans;fill:#555;" text-anchor="middle" x="0" y="-6.000000">R547H</text></g><a xlink:title=",  (570aa)"><rect fill="#BABDB6" x="15.000000" y="62.000000" width="765.205479" height="14.000000"/></a><g transform="translate(377.465753,57.000000)"><a xlink:href="https://www.ebi.ac.uk/interpro/entry/pfam/PF02732" xlink:title="ERCC4 domain"><rect fill="#2DCF00" x="0" y="0" width="226.876712" height="24.000000" filter="url(#ds)"/><text style="font-size:12px;font-family:OpenSans;fill:#ffffff;" text-anchor="middle" x="113.438356" y="16.000000">ERCC4 domain</text></a></g>
<g transform="translate(660.726027,57.000000)"><a xlink:href="https://www.ebi.ac.uk/interpro/entry/pfam/PF21292" xlink:title="EME1/MUS81, C-terminal"><rect fill="#FF5353" x="0" y="0" width="98.000000" height="24.000000" filter="url(#ds)"/><text style="font-size:12px;font-family:OpenSans;fill:#ffffff;" text-anchor="middle" x="49.000000" y="16.000000">EME1-MUS81_C</text></a></g>
<g class="axis">
<line x1="15.000000" x2="780.205479" y1="91.000000" y2="91.000000" stroke="#AAAAAA" /><line x1="15.000000" x2="15.000000" y1="91.000000" y2="96.000000" stroke="#AAAAAA" /><line x1="20.369863" x2="20.369863" y1="91.000000" y2="96.000000" stroke="#AAAAAA" /><text style="font-size:10px;font-family:OpenSans;fill:#000000;" text-anchor="middle" x="20.369863" y="106.000000">4</text><line x1="243.219178" x2="243.219178" y1="91.000000" y2="96.000000" stroke="#AAAAAA" /><text style="font-size:10px;font-family:OpenSans;fill:#000000;" text-anchor="middle" x="243.219178" y="106.000000">170</text><line x1="298.260274" x2="298.260274" y1="91.000000" y2="96.000000" stroke="#AAAAAA" /><text style="font-size:10px;font-family:OpenSans;fill:#000000;" text-anchor="middle" x="298.260274" y="106.000000">211</text><line x1="377.465753" x2="377.465753" y1="91.000000" y2="96.000000" stroke="#AAAAAA" /><text style="font-size:10px;font-family:OpenSans;fill:#000000;" text-anchor="middle" x="377.465753" y="106.000000">270</text><line x1="453.986301" x2="453.986301" y1="91.000000" y2="96.000000" stroke="#AAAAAA" /><text style="font-size:10px;font-family:OpenSans;fill:#000000;" text-anchor="middle" x="453.986301" y="106.000000">327</text><line x1="521.109589" x2="521.109589" y1="91.000000" y2="96.000000" stroke="#AAAAAA" /><text style="font-size:10px;font-family:OpenSans;fill:#000000;" text-anchor="middle" x="521.109589" y="106.000000">377</text><line x1="604.342466" x2="604.342466" y1="91.000000" y2="96.000000" stroke="#AAAAAA" /><text style="font-size:10px;font-family:OpenSans;fill:#000000;" text-anchor="middle" x="604.342466" y="106.000000">439</text><line x1="660.726027" x2="660.726027" y1="91.000000" y2="96.000000" stroke="#AAAAAA" /><text style="font-size:10px;font-family:OpenSans;fill:#000000;" text-anchor="middle" x="660.726027" y="106.000000">481</text><line x1="692.945205" x2="692.945205" y1="91.000000" y2="96.000000" stroke="#AAAAAA" /><text style="font-size:10px;font-family:OpenSans;fill:#000000;" text-anchor="middle" x="692.945205" y="106.000000">505</text><line x1="731.876712" x2="731.876712" y1="91.000000" y2="96.000000" stroke="#AAAAAA" /><text style="font-size:10px;font-family:OpenSans;fill:#000000;" text-anchor="middle" x="731.876712" y="106.000000">534</text><line x1="758.726027" x2="758.726027" y1="91.000000" y2="96.000000" stroke="#AAAAAA" /><text style="font-size:10px;font-family:OpenSans;fill:#000000;" text-anchor="middle" x="758.726027" y="106.000000">554</text><line x1="780.205479" x2="780.205479" y1="91.000000" y2="96.000000" stroke="#AAAAAA" /><text style="font-size:10px;font-family:OpenSans;fill:#000000;" text-anchor="middle" x="780.205479" y="106.000000">570</text></g>
<rect fill="#FF5353" x="4" y="120.000000" width="12" height="12" filter="url(#ds)"/><text style="font-size:12px;font-family:OpenSans;fill:#000000;" text-anchor="start" x="20" y="132.000000">EME1/MUS81, C-terminal</text></svg>
