<?xml version='1.0'?>
<svg xmlns="http://www.w3.org/2000/svg" xmlns:xlink="http://www.w3.org/1999/xlink" width="430.000000" height="158.700000">
<defs>
  <filter id="ds" x="0" y="0">
    <feOffset in="SourceAlpha" dx="2" dy="2" />
    <feComponentTransfer><feFuncA type="linear" slope="0.2"/></feComponentTransfer>
    <feGaussianBlur result="blurOut" stdDeviation="1" />
    <feBlend in="SourceGraphic" in2="blurOut" mode="normal" />
  </filter>
  <pattern id="disordered-hatch" patternUnits="userSpaceOnUse" width="4" height="4">
    <path d="M-1,1 l2,-2 M0,4 l4,-4 M3,5 l2,-2" stroke="#000000" opacity="0.3" />
  </pattern>
</defs>
<line x1="19.366812" x2="19.366812" y1="46.500000" y2="74.500000" stroke="#BABDB6" stroke-width="2"/><a xlink:title="R5W"><circle cx="19.366812" cy="46.500000" r="4.000000" fill="#ff0000" /></a><g transform="translate(19.366812,46.500000) rotate(-30)"><text style="font-size:10px;font-family:OpenSans;fill:#555;" text-anchor="middle" x="0" y="-6.000000">R5W</text></g><line x1="104.082969" x2="104.082969" y1="46.500000" y2="74.500000" stroke="#BABDB6" stroke-width="2"/><a xlink:title="T102T"><circle cx="104.082969" cy="46.500000" r="4.000000" fill="#0000ff" /></a><g transform="translate(104.082969,46.500000) rotate(-30)"><text style="font-size:10px;font-family:OpenSans;fill:#555;" text-anchor="middle" x="0" y="-6.000000">T102T</text></g><line x1="111.069869" x2="111.069869" y1="34.000000" y2="74.500000" stroke="#BABDB6" stroke-width="2"/><a xlink:title="H110H"><circle cx="111.069869" cy="34.000000" r="4.000000" fill="#0000ff" /></a><g transform="translate(111.069869,34.000000) rotate(-30)"><text style="font-size:10px;font-family:OpenSans;fill:#555;" text-anchor="middle" x="0" y="-6.000000">H110H</text></g><line x1="111.943231" x2="111.943231" y1="46.500000" y2="74.500000" stroke="#BABDB6" stroke-width="2"/><a xlink:title="A111T"><circle cx="111.943231" cy="46.500000" r="4.000000" fill="#ff0000" /></a><g transform="translate(111.943231,46.500000) rotate(-30)"><text style="font-size:10px;font-family:OpenSans;fill:#555;" text-anchor="middle" x="0" y="-6.000000">A111T</text></g><line x1="131.157205" x2="131.157205" y1="46.500000" y2="74.500000" stroke="#BABDB6" stroke-width="2"/><a xlink:title="T133T"><circle cx="131.157205" cy="46.500000" r="4.000000" fill="#0000ff" /></a><g transform="translate(131.157205,46.500000) rotate(-30)"><text style="font-size:10px;font-family:OpenSans;fill:#555;" text-anchor="middle" x="0" y="-6.000000">T133T</text></g><line x1="138.144105" x2="138.144105" y1="34.000000" y2="74.500000" stroke="#BABDB6" stroke-width="2"/><a xlink:title="H141H"><circle cx="138.144105" cy="34.000000" r="4.000000" fill="#0000ff" /></a><g transform="translate(138.144105,34.000000) rotate(-30)"><text style="font-size:10px;font-family:OpenSans;fill:#555;" text-anchor="middle" x="0" y="-6.000000">H141H</text></g><line x1="139.017467" x2="139.017467" y1="46.500000" y2="74.500000" stroke="#BABDB6" stroke-width="2"/><a xlink:title="A142T"><circle cx="139.017467" cy="46.500000" r="4.000000" fill="#ff0000" /></a><g transform="translate(139.017467,46.500000) rotate(-30)"><text style="font-size:10px;font-family:OpenSans;fill:#555;" text-anchor="middle" x="0" y="-6.000000">A142T</text></g><line x1="152.991266" x2="152.991266" y1="46.500000" y2="74.500000" stroke="#BABDB6" stroke-width="2"/><a xlink:title="R158W"><circle cx="152.991266" cy="46.500000" r="4.000000" fill="#ff0000" /></a><g transform="translate(152.991266,46.500000) rotate(-30)"><text style="font-size:10px;font-family:OpenSans;fill:#555;" text-anchor="middle" x="0" y="-6.000000">R158W</text></g><line x1="180.065502" x2="180.065502" y1="46.500000" y2="74.500000" stroke="#BABDB6" stroke-width="2"/><a xlink:title="R189W"><circle cx="180.065502" cy="46.500000" r="4.000000" fill="#ff0000" /></a><g transform="translate(180.065502,46.500000) rotate(-30)"><text style="font-size:10px;font-family:OpenSans;fill:#555;" text-anchor="middle" x="0" y="-6.000000">R189W</text></g><a xlink:title=",  (458aa)"><rect fill="#BABDB6" x="15.000000" y="74.500000" width="400.000000" height="14.000000"/></a><g transform="translate(43.820961,69.500000)"><a xlink:href="https://www.ebi.ac.uk/interpro/entry/pfam/PF01663" xlink:title="Type I phosphodiesterase / nucleotide pyrophosphatase"><rect fill="#2DCF00" x="0" y="0" width="282.096070" height="24.000000" filter="url(#ds)"/><text style="font-size:12px;font-family:OpenSans;fill:#ffffff;" text-anchor="middle" x="141.048035" y="16.000000">Phosphodiest</text></a></g>
<g class="axis">
<line x1="15.000000" x2="415.000000" y1="103.500000" y2="103.500000" stroke="#AAAAAA" /><line x1="15.000000" x2="15.000000" y1="103.500000" y2="108.500000" stroke="#AAAAAA" /><line x1="19.366812" x2="19.366812" y1="103.500000" y2="108.500000" stroke="#AAAAAA" /><text style="font-size:10px;font-family:OpenSans;fill:#000000;" text-anchor="middle" x="19.366812" y="118.500000">5</text><line x1="43.820961" x2="43.820961" y1="103.500000" y2="108.500000" stroke="#AAAAAA" /><text style="font-size:10px;font-family:OpenSans;fill:#000000;" text-anchor="middle" x="43.820961" y="118.500000">33</text><line x1="104.082969" x2="104.082969" y1="103.500000" y2="108.500000" stroke="#AAAAAA" /><text style="font-size:10px;font-family:OpenSans;fill:#000000;" text-anchor="middle" x="104.082969" y="118.500000">102</text><line x1="131.157205" x2="131.157205" y1="103.500000" y2="108.500000" stroke="#AAAAAA" /><text style="font-size:10px;font-family:OpenSans;fill:#000000;" text-anchor="middle" x="131.157205" y="118.500000">133</text><line x1="152.991266" x2="152.991266" y1="103.500000" y2="108.500000" stroke="#AAAAAA" /><text style="font-size:10px;font-family:OpenSans;fill:#000000;" text-anchor="middle" x="152.991266" y="118.500000">158</text><line x1="180.065502" x2="180.065502" y1="103.500000" y2="108.500000" stroke="#AAAAAA" /><text style="font-size:10px;font-family:OpenSans;fill:#000000;" text-anchor="middle" x="180.065502" y="118.500000">189</text><line x1="325.917031" x2="325.917031" y1="103.500000" y2="108.500000" stroke="#AAAAAA" /><text style="font-size:10px;font-family:OpenSans;fill:#000000;" text-anchor="middle" x="325.917031" y="118.500000">356</text><line x1="415.000000" x2="415.000000" y1="103.500000" y2="108.500000" stroke="#AAAAAA" /><text style="font-size:10px;font-family:OpenSans;fill:#000000;" text-anchor="middle" x="415.000000" y="118.500000">458</text></g>
<rect fill="#2DCF00" x="4" y="132.500000" width="12" height="12" filter="url(#ds)"/><text style="font-size:12px;font-family:OpenSans;fill:#000000;" text-anchor="start" x="20" y="144.500000">Type I phosphodiesterase / nucleotide pyrophosphatase</text></svg>
