<?xml version='1.0'?>
<svg xmlns="http://www.w3.org/2000/svg" xmlns:xlink="http://www.w3.org/1999/xlink" width="3399.565217" height="146.200000">
<defs>
  <filter id="ds" x="0" y="0">
    <feOffset in="SourceAlpha" dx="2" dy="2" />
    <feComponentTransfer><feFuncA type="linear" slope="0.2"/></feComponentTransfer>
    <feGaussianBlur result="blurOut" stdDeviation="1" />
    <feBlend in="SourceGraphic" in2="blurOut" mode="normal" />
  </filter>
  <pattern id="disordered-hatch" patternUnits="userSpaceOnUse" width="4" height="4">
    <path d="M-1,1 l2,-2 M0,4 l4,-4 M3,5 l2,-2" stroke="#000000" opacity="0.3" />
  </pattern>
</defs>
<line x1="34.565217" x2="34.565217" y1="34.000000" y2="62.000000" stroke="#BABDB6" stroke-width="2"/><a xlink:title="P9R"><circle cx="34.565217" cy="34.000000" r="4.000000" fill="#ff0000" /></a><g transform="translate(34.565217,34.000000) rotate(-30)"><text style="font-size:10px;font-family:OpenSans;fill:#555;" text-anchor="middle" x="0" y="-6.000000">P9R</text></g><line x1="2186.739130" x2="2186.739130" y1="34.000000" y2="62.000000" stroke="#BABDB6" stroke-width="2"/><a xlink:title="A999T"><circle cx="2186.739130" cy="34.000000" r="4.000000" fill="#ff0000" /></a><g transform="translate(2186.739130,34.000000) rotate(-30)"><text style="font-size:10px;font-family:OpenSans;fill:#555;" text-anchor="middle" x="0" y="-6.000000">A999T</text></g><line x1="2575.869565" x2="2575.869565" y1="34.000000" y2="62.000000" stroke="#BABDB6" stroke-width="2"/><a xlink:title="T1178T"><circle cx="2575.869565" cy="34.000000" r="4.000000" fill="#0000ff" /></a><g transform="translate(2575.869565,34.000000) rotate(-30)"><text style="font-size:10px;font-family:OpenSans;fill:#555;" text-anchor="middle" x="0" y="-6.000000">T1178T</text></g><line x1="2745.434783" x2="2745.434783" y1="34.000000" y2="62.000000" stroke="#BABDB6" stroke-width="2"/><a xlink:title="A1256T"><circle cx="2745.434783" cy="34.000000" r="4.000000" fill="#ff0000" /></a><g transform="translate(2745.434783,34.000000) rotate(-30)"><text style="font-size:10px;font-family:OpenSans;fill:#555;" text-anchor="middle" x="0" y="-6.000000">A1256T</text></g><line x1="3282.391304" x2="3282.391304" y1="34.000000" y2="62.000000" stroke="#BABDB6" stroke-width="2"/><a xlink:title="A1503T"><circle cx="3282.391304" cy="34.000000" r="4.000000" fill="#ff0000" /></a><g transform="translate(3282.391304,34.000000) rotate(-30)"><text style="font-size:10px;font-family:OpenSans;fill:#555;" text-anchor="middle" x="0" y="-6.000000">A1503T</text></g><line x1="3369.347826" x2="3369.347826" y1="34.000000" y2="62.000000" stroke="#BABDB6" stroke-width="2"/><a xlink:title="A1543T"><circle cx="3369.347826" cy="34.000000" r="4.000000" fill="#ff0000" /></a><g transform="translate(3369.347826,34.000000) rotate(-30)"><text style="font-size:10px;font-family:OpenSans;fill:#555;" text-anchor="middle" x="0" y="-6.000000">A1543T</text></g><a xlink:title=",  (1550aa)"><rect fill="#BABDB6" x="15.000000" y="62.000000" width="3369.565217" height="14.000000"/></a><g transform="translate(288.913043,57.000000)"><a xlink:href="https://www.ebi.ac.uk/interpro/entry/pfam/PF00176" xlink:title="SNF2-related domain"><rect fill="#2DCF00" x="0" y="0" width="721.739130" height="24.000000" filter="url(#ds)"/><text style="font-size:12px;font-family:OpenSans;fill:#ffffff;" text-anchor="middle" x="360.869565" y="16.000000">SNF2-related domain</text></a></g>
<g transform="translate(1121.521739,57.000000)"><a xlink:href="https://www.ebi.ac.uk/interpro/entry/pfam/PF00271" xlink:title="Helicase conserved C-terminal domain"><rect fill="#FF5353" x="0" y="0" width="243.478261" height="24.000000" filter="url(#ds)"/><text style="font-size:12px;font-family:OpenSans;fill:#ffffff;" text-anchor="middle" x="121.739130" y="16.000000">Helicase conserved C-terminal domain</text></a></g>
<g transform="translate(2445.434783,57.000000)"><a xlink:href="https://www.ebi.ac.uk/interpro/entry/pfam/PF14773" xlink:title="Helicase-associated putative binding domain, C-terminal"><rect fill="#5B5BFF" x="0" y="0" width="50.000000" height="24.000000" filter="url(#ds)"/><text style="font-size:12px;font-family:OpenSans;fill:#ffffff;" text-anchor="middle" x="25.000000" y="16.000000">VIGSSK</text></a></g>
<g class="axis">
<line x1="15.000000" x2="3384.565217" y1="91.000000" y2="91.000000" stroke="#AAAAAA" /><line x1="15.000000" x2="15.000000" y1="91.000000" y2="96.000000" stroke="#AAAAAA" /><line x1="34.565217" x2="34.565217" y1="91.000000" y2="96.000000" stroke="#AAAAAA" /><text style="font-size:10px;font-family:OpenSans;fill:#000000;" text-anchor="middle" x="34.565217" y="106.000000">9</text><line x1="288.913043" x2="288.913043" y1="91.000000" y2="96.000000" stroke="#AAAAAA" /><text style="font-size:10px;font-family:OpenSans;fill:#000000;" text-anchor="middle" x="288.913043" y="106.000000">126</text><line x1="1010.652174" x2="1010.652174" y1="91.000000" y2="96.000000" stroke="#AAAAAA" /><text style="font-size:10px;font-family:OpenSans;fill:#000000;" text-anchor="middle" x="1010.652174" y="106.000000">458</text><line x1="1121.521739" x2="1121.521739" y1="91.000000" y2="96.000000" stroke="#AAAAAA" /><text style="font-size:10px;font-family:OpenSans;fill:#000000;" text-anchor="middle" x="1121.521739" y="106.000000">509</text><line x1="1365.000000" x2="1365.000000" y1="91.000000" y2="96.000000" stroke="#AAAAAA" /><text style="font-size:10px;font-family:OpenSans;fill:#000000;" text-anchor="middle" x="1365.000000" y="106.000000">621</text><line x1="2186.739130" x2="2186.739130" y1="91.000000" y2="96.000000" stroke="#AAAAAA" /><text style="font-size:10px;font-family:OpenSans;fill:#000000;" text-anchor="middle" x="2186.739130" y="106.000000">999</text><line x1="2445.434783" x2="2445.434783" y1="91.000000" y2="96.000000" stroke="#AAAAAA" /><text style="font-size:10px;font-family:OpenSans;fill:#000000;" text-anchor="middle" x="2445.434783" y="106.000000">1118</text><line x1="2495.434783" x2="2495.434783" y1="91.000000" y2="96.000000" stroke="#AAAAAA" /><text style="font-size:10px;font-family:OpenSans;fill:#000000;" text-anchor="middle" x="2495.434783" y="106.000000">1141</text><line x1="2575.869565" x2="2575.869565" y1="91.000000" y2="96.000000" stroke="#AAAAAA" /><text style="font-size:10px;font-family:OpenSans;fill:#000000;" text-anchor="middle" x="2575.869565" y="106.000000">1178</text><line x1="2745.434783" x2="2745.434783" y1="91.000000" y2="96.000000" stroke="#AAAAAA" /><text style="font-size:10px;font-family:OpenSans;fill:#000000;" text-anchor="middle" x="2745.434783" y="106.000000">1256</text><line x1="3282.391304" x2="3282.391304" y1="91.000000" y2="96.000000" stroke="#AAAAAA" /><text style="font-size:10px;font-family:OpenSans;fill:#000000;" text-anchor="middle" x="3282.391304" y="106.000000">1503</text><line x1="3384.565217" x2="3384.565217" y1="91.000000" y2="96.000000" stroke="#AAAAAA" /><text style="font-size:10px;font-family:OpenSans;fill:#000000;" text-anchor="middle" x="3384.565217" y="106.000000">1550</text></g>
<rect fill="#5B5BFF" x="4" y="120.000000" width="12" height="12" filter="url(#ds)"/><text style="font-size:12px;font-family:OpenSans;fill:#000000;" text-anchor="start" x="20" y="132.000000">Helicase-associated putative binding domain, C-terminal</text></svg>
