<?xml version='1.0'?>
<svg xmlns="http://www.w3.org/2000/svg" xmlns:xlink="http://www.w3.org/1999/xlink" width="677.447154" height="158.700000">
<defs>
  <filter id="ds" x="0" y="0">
    <feOffset in="SourceAlpha" dx="2" dy="2" />
    <feComponentTransfer><feFuncA type="linear" slope="0.2"/></feComponentTransfer>
    <feGaussianBlur result="blurOut" stdDeviation="1" />
    <feBlend in="SourceGraphic" in2="blurOut" mode="normal" />
  </filter>
  <pattern id="disordered-hatch" patternUnits="userSpaceOnUse" width="4" height="4">
    <path d="M-1,1 l2,-2 M0,4 l4,-4 M3,5 l2,-2" stroke="#000000" opacity="0.3" />
  </pattern>
</defs>
<line x1="38.073171" x2="38.073171" y1="46.500000" y2="74.500000" stroke="#BABDB6" stroke-width="2"/><a xlink:title="R33H"><circle cx="38.073171" cy="46.500000" r="4.000000" fill="#ff0000" /></a><g transform="translate(38.073171,46.500000) rotate(-30)"><text style="font-size:10px;font-family:OpenSans;fill:#555;" text-anchor="middle" x="0" y="-6.000000">R33H</text></g><line x1="138.756098" x2="138.756098" y1="46.500000" y2="74.500000" stroke="#BABDB6" stroke-width="2"/><a xlink:title="R177H"><circle cx="138.756098" cy="46.500000" r="4.000000" fill="#ff0000" /></a><g transform="translate(138.756098,46.500000) rotate(-30)"><text style="font-size:10px;font-family:OpenSans;fill:#555;" text-anchor="middle" x="0" y="-6.000000">R177H</text></g><line x1="254.821138" x2="254.821138" y1="46.500000" y2="74.500000" stroke="#BABDB6" stroke-width="2"/><a xlink:title="S343T"><circle cx="254.821138" cy="46.500000" r="4.000000" fill="#ff0000" /></a><g transform="translate(254.821138,46.500000) rotate(-30)"><text style="font-size:10px;font-family:OpenSans;fill:#555;" text-anchor="middle" x="0" y="-6.000000">S343T</text></g><line x1="319.146341" x2="319.146341" y1="46.500000" y2="74.500000" stroke="#BABDB6" stroke-width="2"/><a xlink:title="S435T"><circle cx="319.146341" cy="46.500000" r="4.000000" fill="#ff0000" /></a><g transform="translate(319.146341,46.500000) rotate(-30)"><text style="font-size:10px;font-family:OpenSans;fill:#555;" text-anchor="middle" x="0" y="-6.000000">S435T</text></g><line x1="352.008130" x2="352.008130" y1="34.000000" y2="74.500000" stroke="#BABDB6" stroke-width="2"/><a xlink:title="G482S"><circle cx="352.008130" cy="34.000000" r="4.000000" fill="#ff0000" /></a><g transform="translate(352.008130,34.000000) rotate(-30)"><text style="font-size:10px;font-family:OpenSans;fill:#555;" text-anchor="middle" x="0" y="-6.000000">G482S</text></g><line x1="355.504065" x2="355.504065" y1="46.500000" y2="74.500000" stroke="#BABDB6" stroke-width="2"/><a xlink:title="S487T"><circle cx="355.504065" cy="46.500000" r="4.000000" fill="#ff0000" /></a><g transform="translate(355.504065,46.500000) rotate(-30)"><text style="font-size:10px;font-family:OpenSans;fill:#555;" text-anchor="middle" x="0" y="-6.000000">S487T</text></g><line x1="368.788618" x2="368.788618" y1="46.500000" y2="74.500000" stroke="#BABDB6" stroke-width="2"/><a xlink:title="S506R"><circle cx="368.788618" cy="46.500000" r="4.000000" fill="#ff0000" /></a><g transform="translate(368.788618,46.500000) rotate(-30)"><text style="font-size:10px;font-family:OpenSans;fill:#555;" text-anchor="middle" x="0" y="-6.000000">S506R</text></g><line x1="386.268293" x2="386.268293" y1="46.500000" y2="74.500000" stroke="#BABDB6" stroke-width="2"/><a xlink:title="A531P"><circle cx="386.268293" cy="46.500000" r="4.000000" fill="#ff0000" /></a><g transform="translate(386.268293,46.500000) rotate(-30)"><text style="font-size:10px;font-family:OpenSans;fill:#555;" text-anchor="middle" x="0" y="-6.000000">A531P</text></g><line x1="433.113821" x2="433.113821" y1="46.500000" y2="74.500000" stroke="#BABDB6" stroke-width="2"/><a xlink:title="S598R"><circle cx="433.113821" cy="46.500000" r="4.000000" fill="#ff0000" /></a><g transform="translate(433.113821,46.500000) rotate(-30)"><text style="font-size:10px;font-family:OpenSans;fill:#555;" text-anchor="middle" x="0" y="-6.000000">S598R</text></g><line x1="448.495935" x2="448.495935" y1="46.500000" y2="74.500000" stroke="#BABDB6" stroke-width="2"/><a xlink:title="P620P"><circle cx="448.495935" cy="46.500000" r="4.000000" fill="#0000ff" /></a><g transform="translate(448.495935,46.500000) rotate(-30)"><text style="font-size:10px;font-family:OpenSans;fill:#555;" text-anchor="middle" x="0" y="-6.000000">P620P</text></g><line x1="469.471545" x2="469.471545" y1="46.500000" y2="74.500000" stroke="#BABDB6" stroke-width="2"/><a xlink:title="S650R"><circle cx="469.471545" cy="46.500000" r="4.000000" fill="#ff0000" /></a><g transform="translate(469.471545,46.500000) rotate(-30)"><text style="font-size:10px;font-family:OpenSans;fill:#555;" text-anchor="middle" x="0" y="-6.000000">S650R</text></g><line x1="500.934959" x2="500.934959" y1="46.500000" y2="74.500000" stroke="#BABDB6" stroke-width="2"/><a xlink:title="R695R"><circle cx="500.934959" cy="46.500000" r="4.000000" fill="#0000ff" /></a><g transform="translate(500.934959,46.500000) rotate(-30)"><text style="font-size:10px;font-family:OpenSans;fill:#555;" text-anchor="middle" x="0" y="-6.000000">R695R</text></g><line x1="512.821138" x2="512.821138" y1="46.500000" y2="74.500000" stroke="#BABDB6" stroke-width="2"/><a xlink:title="P712P"><circle cx="512.821138" cy="46.500000" r="4.000000" fill="#0000ff" /></a><g transform="translate(512.821138,46.500000) rotate(-30)"><text style="font-size:10px;font-family:OpenSans;fill:#555;" text-anchor="middle" x="0" y="-6.000000">P712P</text></g><line x1="549.178862" x2="549.178862" y1="46.500000" y2="74.500000" stroke="#BABDB6" stroke-width="2"/><a xlink:title="P764P"><circle cx="549.178862" cy="46.500000" r="4.000000" fill="#0000ff" /></a><g transform="translate(549.178862,46.500000) rotate(-30)"><text style="font-size:10px;font-family:OpenSans;fill:#555;" text-anchor="middle" x="0" y="-6.000000">P764P</text></g><line x1="565.260163" x2="565.260163" y1="46.500000" y2="74.500000" stroke="#BABDB6" stroke-width="2"/><a xlink:title="R787R"><circle cx="565.260163" cy="46.500000" r="4.000000" fill="#0000ff" /></a><g transform="translate(565.260163,46.500000) rotate(-30)"><text style="font-size:10px;font-family:OpenSans;fill:#555;" text-anchor="middle" x="0" y="-6.000000">R787R</text></g><line x1="601.617886" x2="601.617886" y1="46.500000" y2="74.500000" stroke="#BABDB6" stroke-width="2"/><a xlink:title="R839R"><circle cx="601.617886" cy="46.500000" r="4.000000" fill="#0000ff" /></a><g transform="translate(601.617886,46.500000) rotate(-30)"><text style="font-size:10px;font-family:OpenSans;fill:#555;" text-anchor="middle" x="0" y="-6.000000">R839R</text></g><a xlink:title=",  (926aa)"><rect fill="#BABDB6" x="15.000000" y="74.500000" width="647.447154" height="14.000000"/></a><g transform="translate(380.674797,69.500000)"><a xlink:href="https://www.ebi.ac.uk/interpro/entry/pfam/PF00069" xlink:title="Protein kinase domain"><rect fill="#2DCF00" x="0" y="0" width="180.390244" height="24.000000" filter="url(#ds)"/><text style="font-size:12px;font-family:OpenSans;fill:#ffffff;" text-anchor="middle" x="90.195122" y="16.000000">Protein kinase domain</text></a></g>
<g transform="translate(565.260163,69.500000)"><a xlink:href="https://www.ebi.ac.uk/interpro/entry/pfam/PF06479" xlink:title="Ribonuclease 2-5A"><rect fill="#FF5353" x="0" y="0" width="86.000000" height="24.000000" filter="url(#ds)"/><text style="font-size:12px;font-family:OpenSans;fill:#ffffff;" text-anchor="middle" x="43.000000" y="16.000000">Ribonuc_2-5A</text></a></g>
<g class="axis">
<line x1="15.000000" x2="662.447154" y1="103.500000" y2="103.500000" stroke="#AAAAAA" /><line x1="15.000000" x2="15.000000" y1="103.500000" y2="108.500000" stroke="#AAAAAA" /><line x1="15.000000" x2="15.000000" y1="103.500000" y2="108.500000" stroke="#AAAAAA" /><text style="font-size:10px;font-family:OpenSans;fill:#000000;" text-anchor="middle" x="15.000000" y="118.500000">0</text><line x1="38.073171" x2="38.073171" y1="103.500000" y2="108.500000" stroke="#AAAAAA" /><text style="font-size:10px;font-family:OpenSans;fill:#000000;" text-anchor="middle" x="38.073171" y="118.500000">33</text><line x1="138.756098" x2="138.756098" y1="103.500000" y2="108.500000" stroke="#AAAAAA" /><text style="font-size:10px;font-family:OpenSans;fill:#000000;" text-anchor="middle" x="138.756098" y="118.500000">177</text><line x1="254.821138" x2="254.821138" y1="103.500000" y2="108.500000" stroke="#AAAAAA" /><text style="font-size:10px;font-family:OpenSans;fill:#000000;" text-anchor="middle" x="254.821138" y="118.500000">343</text><line x1="319.146341" x2="319.146341" y1="103.500000" y2="108.500000" stroke="#AAAAAA" /><text style="font-size:10px;font-family:OpenSans;fill:#000000;" text-anchor="middle" x="319.146341" y="118.500000">435</text><line x1="352.008130" x2="352.008130" y1="103.500000" y2="108.500000" stroke="#AAAAAA" /><text style="font-size:10px;font-family:OpenSans;fill:#000000;" text-anchor="middle" x="352.008130" y="118.500000">482</text><line x1="386.268293" x2="386.268293" y1="103.500000" y2="108.500000" stroke="#AAAAAA" /><text style="font-size:10px;font-family:OpenSans;fill:#000000;" text-anchor="middle" x="386.268293" y="118.500000">531</text><line x1="433.113821" x2="433.113821" y1="103.500000" y2="108.500000" stroke="#AAAAAA" /><text style="font-size:10px;font-family:OpenSans;fill:#000000;" text-anchor="middle" x="433.113821" y="118.500000">598</text><line x1="469.471545" x2="469.471545" y1="103.500000" y2="108.500000" stroke="#AAAAAA" /><text style="font-size:10px;font-family:OpenSans;fill:#000000;" text-anchor="middle" x="469.471545" y="118.500000">650</text><line x1="500.934959" x2="500.934959" y1="103.500000" y2="108.500000" stroke="#AAAAAA" /><text style="font-size:10px;font-family:OpenSans;fill:#000000;" text-anchor="middle" x="500.934959" y="118.500000">695</text><line x1="549.178862" x2="549.178862" y1="103.500000" y2="108.500000" stroke="#AAAAAA" /><text style="font-size:10px;font-family:OpenSans;fill:#000000;" text-anchor="middle" x="549.178862" y="118.500000">764</text><line x1="601.617886" x2="601.617886" y1="103.500000" y2="108.500000" stroke="#AAAAAA" /><text style="font-size:10px;font-family:OpenSans;fill:#000000;" text-anchor="middle" x="601.617886" y="118.500000">839</text><line x1="662.447154" x2="662.447154" y1="103.500000" y2="108.500000" stroke="#AAAAAA" /><text style="font-size:10px;font-family:OpenSans;fill:#000000;" text-anchor="middle" x="662.447154" y="118.500000">926</text></g>
<rect fill="#FF5353" x="4" y="132.500000" width="12" height="12" filter="url(#ds)"/><text style="font-size:12px;font-family:OpenSans;fill:#000000;" text-anchor="start" x="20" y="144.500000">Ribonuclease 2-5A</text></svg>
