<?xml version='1.0'?>
<svg xmlns="http://www.w3.org/2000/svg" xmlns:xlink="http://www.w3.org/1999/xlink" width="430.000000" height="184.400000">
<defs>
  <filter id="ds" x="0" y="0">
    <feOffset in="SourceAlpha" dx="2" dy="2" />
    <feComponentTransfer><feFuncA type="linear" slope="0.2"/></feComponentTransfer>
    <feGaussianBlur result="blurOut" stdDeviation="1" />
    <feBlend in="SourceGraphic" in2="blurOut" mode="normal" />
  </filter>
  <pattern id="disordered-hatch" patternUnits="userSpaceOnUse" width="4" height="4">
    <path d="M-1,1 l2,-2 M0,4 l4,-4 M3,5 l2,-2" stroke="#000000" opacity="0.3" />
  </pattern>
</defs>
<line x1="21.948969" x2="21.948969" y1="59.000000" y2="87.000000" stroke="#BABDB6" stroke-width="2"/><a xlink:title="A16G"><circle cx="21.948969" cy="59.000000" r="4.000000" fill="#ff0000" /></a><g transform="translate(21.948969,59.000000) rotate(-30)"><text style="font-size:10px;font-family:OpenSans;fill:#555;" text-anchor="middle" x="0" y="-6.000000">A16G</text></g><line x1="154.847991" x2="154.847991" y1="59.000000" y2="87.000000" stroke="#BABDB6" stroke-width="2"/><a xlink:title="R322T"><circle cx="154.847991" cy="59.000000" r="4.000000" fill="#ff0000" /></a><g transform="translate(154.847991,59.000000) rotate(-30)"><text style="font-size:10px;font-family:OpenSans;fill:#555;" text-anchor="middle" x="0" y="-6.000000">R322T</text></g><line x1="172.654723" x2="172.654723" y1="59.000000" y2="87.000000" stroke="#BABDB6" stroke-width="2"/><a xlink:title="R363T"><circle cx="172.654723" cy="59.000000" r="4.000000" fill="#ff0000" /></a><g transform="translate(172.654723,59.000000) rotate(-30)"><text style="font-size:10px;font-family:OpenSans;fill:#555;" text-anchor="middle" x="0" y="-6.000000">R363T</text></g><line x1="223.903366" x2="223.903366" y1="34.000000" y2="87.000000" stroke="#BABDB6" stroke-width="2"/><a xlink:title="G481S"><circle cx="223.903366" cy="34.000000" r="4.000000" fill="#ff0000" /></a><g transform="translate(223.903366,34.000000) rotate(-30)"><text style="font-size:10px;font-family:OpenSans;fill:#555;" text-anchor="middle" x="0" y="-6.000000">G481S</text></g><line x1="226.943540" x2="226.943540" y1="46.500000" y2="87.000000" stroke="#BABDB6" stroke-width="2"/><a xlink:title="R488S"><circle cx="226.943540" cy="46.500000" r="4.000000" fill="#ff0000" /></a><g transform="translate(226.943540,46.500000) rotate(-30)"><text style="font-size:10px;font-family:OpenSans;fill:#555;" text-anchor="middle" x="0" y="-6.000000">R488S</text></g><line x1="228.246471" x2="228.246471" y1="34.000000" y2="87.000000" stroke="#BABDB6" stroke-width="2"/><a xlink:title="R491T"><circle cx="228.246471" cy="34.000000" r="4.000000" fill="#ff0000" /></a><g transform="translate(228.246471,34.000000) rotate(-30)"><text style="font-size:10px;font-family:OpenSans;fill:#555;" text-anchor="middle" x="0" y="-6.000000">R491T</text></g><line x1="233.023887" x2="233.023887" y1="46.500000" y2="87.000000" stroke="#BABDB6" stroke-width="2"/><a xlink:title="G502S"><circle cx="233.023887" cy="46.500000" r="4.000000" fill="#ff0000" /></a><g transform="translate(233.023887,46.500000) rotate(-30)"><text style="font-size:10px;font-family:OpenSans;fill:#555;" text-anchor="middle" x="0" y="-6.000000">G502S</text></g><line x1="233.458198" x2="233.458198" y1="59.000000" y2="87.000000" stroke="#BABDB6" stroke-width="2"/><a xlink:title="Y503C"><circle cx="233.458198" cy="59.000000" r="4.000000" fill="#ff0000" /></a><g transform="translate(233.458198,59.000000) rotate(-30)"><text style="font-size:10px;font-family:OpenSans;fill:#555;" text-anchor="middle" x="0" y="-6.000000">Y503C</text></g><line x1="246.921824" x2="246.921824" y1="46.500000" y2="87.000000" stroke="#BABDB6" stroke-width="2"/><a xlink:title="G534G"><circle cx="246.921824" cy="46.500000" r="4.000000" fill="#0000ff" /></a><g transform="translate(246.921824,46.500000) rotate(-30)"><text style="font-size:10px;font-family:OpenSans;fill:#555;" text-anchor="middle" x="0" y="-6.000000">G534G</text></g><line x1="250.830619" x2="250.830619" y1="46.500000" y2="87.000000" stroke="#BABDB6" stroke-width="2"/><a xlink:title="G543S"><circle cx="250.830619" cy="46.500000" r="4.000000" fill="#ff0000" /></a><g transform="translate(250.830619,46.500000) rotate(-30)"><text style="font-size:10px;font-family:OpenSans;fill:#555;" text-anchor="middle" x="0" y="-6.000000">G543S</text></g><line x1="256.042345" x2="256.042345" y1="59.000000" y2="87.000000" stroke="#BABDB6" stroke-width="2"/><a xlink:title="G555G"><circle cx="256.042345" cy="59.000000" r="4.000000" fill="#0000ff" /></a><g transform="translate(256.042345,59.000000) rotate(-30)"><text style="font-size:10px;font-family:OpenSans;fill:#555;" text-anchor="middle" x="0" y="-6.000000">G555G</text></g><line x1="273.849077" x2="273.849077" y1="59.000000" y2="87.000000" stroke="#BABDB6" stroke-width="2"/><a xlink:title="G596G"><circle cx="273.849077" cy="59.000000" r="4.000000" fill="#0000ff" /></a><g transform="translate(273.849077,59.000000) rotate(-30)"><text style="font-size:10px;font-family:OpenSans;fill:#555;" text-anchor="middle" x="0" y="-6.000000">G596G</text></g><line x1="286.444083" x2="286.444083" y1="59.000000" y2="87.000000" stroke="#BABDB6" stroke-width="2"/><a xlink:title="G625S"><circle cx="286.444083" cy="59.000000" r="4.000000" fill="#ff0000" /></a><g transform="translate(286.444083,59.000000) rotate(-30)"><text style="font-size:10px;font-family:OpenSans;fill:#555;" text-anchor="middle" x="0" y="-6.000000">G625S</text></g><line x1="297.301846" x2="297.301846" y1="59.000000" y2="87.000000" stroke="#BABDB6" stroke-width="2"/><a xlink:title="G650S"><circle cx="297.301846" cy="59.000000" r="4.000000" fill="#ff0000" /></a><g transform="translate(297.301846,59.000000) rotate(-30)"><text style="font-size:10px;font-family:OpenSans;fill:#555;" text-anchor="middle" x="0" y="-6.000000">G650S</text></g><line x1="306.422367" x2="306.422367" y1="46.500000" y2="87.000000" stroke="#BABDB6" stroke-width="2"/><a xlink:title="G671S"><circle cx="306.422367" cy="46.500000" r="4.000000" fill="#ff0000" /></a><g transform="translate(306.422367,46.500000) rotate(-30)"><text style="font-size:10px;font-family:OpenSans;fill:#555;" text-anchor="middle" x="0" y="-6.000000">G671S</text></g><line x1="309.462541" x2="309.462541" y1="59.000000" y2="87.000000" stroke="#BABDB6" stroke-width="2"/><a xlink:title="G678G"><circle cx="309.462541" cy="59.000000" r="4.000000" fill="#0000ff" /></a><g transform="translate(309.462541,59.000000) rotate(-30)"><text style="font-size:10px;font-family:OpenSans;fill:#555;" text-anchor="middle" x="0" y="-6.000000">G678G</text></g><line x1="320.320304" x2="320.320304" y1="59.000000" y2="87.000000" stroke="#BABDB6" stroke-width="2"/><a xlink:title="G703G"><circle cx="320.320304" cy="59.000000" r="4.000000" fill="#0000ff" /></a><g transform="translate(320.320304,59.000000) rotate(-30)"><text style="font-size:10px;font-family:OpenSans;fill:#555;" text-anchor="middle" x="0" y="-6.000000">G703G</text></g><line x1="329.440825" x2="329.440825" y1="59.000000" y2="87.000000" stroke="#BABDB6" stroke-width="2"/><a xlink:title="G724G"><circle cx="329.440825" cy="59.000000" r="4.000000" fill="#0000ff" /></a><g transform="translate(329.440825,59.000000) rotate(-30)"><text style="font-size:10px;font-family:OpenSans;fill:#555;" text-anchor="middle" x="0" y="-6.000000">G724G</text></g><a xlink:title=",  (921aa)"><rect fill="#BABDB6" x="15.000000" y="87.000000" width="400.000000" height="14.000000"/></a><g transform="translate(97.953312,82.000000)"><a xlink:href="https://www.ebi.ac.uk/interpro/entry/pfam/PF17047" xlink:title="Synaptotagmin-like mitochondrial-lipid-binding domain"><rect fill="#2DCF00" x="0" y="0" width="77.741585" height="24.000000" filter="url(#ds)"/><text style="font-size:12px;font-family:OpenSans;fill:#ffffff;" text-anchor="middle" x="38.870793" y="16.000000">SMP_LBD</text></a></g>
<g transform="translate(182.209555,82.000000)"><a xlink:href="https://www.ebi.ac.uk/interpro/entry/pfam/PF00168" xlink:title="C2 domain"><rect fill="#FF5353" x="0" y="0" width="46.036916" height="24.000000" filter="url(#ds)"/><text style="font-size:12px;font-family:OpenSans;fill:#ffffff;" text-anchor="middle" x="23.018458" y="16.000000">C2</text></a></g>
<g transform="translate(249.093377,82.000000)"><a xlink:href="https://www.ebi.ac.uk/interpro/entry/pfam/PF00168" xlink:title="C2 domain"><rect fill="#5B5BFF" x="0" y="0" width="38.653637" height="24.000000" filter="url(#ds)"/><text style="font-size:12px;font-family:OpenSans;fill:#ffffff;" text-anchor="middle" x="19.326819" y="16.000000">C2</text></a></g>
<g transform="translate(363.317047,82.000000)"><a xlink:href="https://www.ebi.ac.uk/interpro/entry/pfam/PF00168" xlink:title="C2 domain"><rect fill="#EBD61D" x="0" y="0" width="46.905537" height="24.000000" filter="url(#ds)"/><text style="font-size:12px;font-family:OpenSans;fill:#ffffff;" text-anchor="middle" x="23.452769" y="16.000000">C2</text></a></g>
<g class="axis">
<line x1="15.000000" x2="415.000000" y1="116.000000" y2="116.000000" stroke="#AAAAAA" /><line x1="15.000000" x2="15.000000" y1="116.000000" y2="121.000000" stroke="#AAAAAA" /><line x1="21.948969" x2="21.948969" y1="116.000000" y2="121.000000" stroke="#AAAAAA" /><text style="font-size:10px;font-family:OpenSans;fill:#000000;" text-anchor="middle" x="21.948969" y="131.000000">16</text><line x1="97.953312" x2="97.953312" y1="116.000000" y2="121.000000" stroke="#AAAAAA" /><text style="font-size:10px;font-family:OpenSans;fill:#000000;" text-anchor="middle" x="97.953312" y="131.000000">191</text><line x1="154.847991" x2="154.847991" y1="116.000000" y2="121.000000" stroke="#AAAAAA" /><text style="font-size:10px;font-family:OpenSans;fill:#000000;" text-anchor="middle" x="154.847991" y="131.000000">322</text><line x1="175.694897" x2="175.694897" y1="116.000000" y2="121.000000" stroke="#AAAAAA" /><text style="font-size:10px;font-family:OpenSans;fill:#000000;" text-anchor="middle" x="175.694897" y="131.000000">370</text><line x1="223.903366" x2="223.903366" y1="116.000000" y2="121.000000" stroke="#AAAAAA" /><text style="font-size:10px;font-family:OpenSans;fill:#000000;" text-anchor="middle" x="223.903366" y="131.000000">481</text><line x1="246.921824" x2="246.921824" y1="116.000000" y2="121.000000" stroke="#AAAAAA" /><text style="font-size:10px;font-family:OpenSans;fill:#000000;" text-anchor="middle" x="246.921824" y="131.000000">534</text><line x1="273.849077" x2="273.849077" y1="116.000000" y2="121.000000" stroke="#AAAAAA" /><text style="font-size:10px;font-family:OpenSans;fill:#000000;" text-anchor="middle" x="273.849077" y="131.000000">596</text><line x1="297.301846" x2="297.301846" y1="116.000000" y2="121.000000" stroke="#AAAAAA" /><text style="font-size:10px;font-family:OpenSans;fill:#000000;" text-anchor="middle" x="297.301846" y="131.000000">650</text><line x1="320.320304" x2="320.320304" y1="116.000000" y2="121.000000" stroke="#AAAAAA" /><text style="font-size:10px;font-family:OpenSans;fill:#000000;" text-anchor="middle" x="320.320304" y="131.000000">703</text><line x1="363.317047" x2="363.317047" y1="116.000000" y2="121.000000" stroke="#AAAAAA" /><text style="font-size:10px;font-family:OpenSans;fill:#000000;" text-anchor="middle" x="363.317047" y="131.000000">802</text><line x1="415.000000" x2="415.000000" y1="116.000000" y2="121.000000" stroke="#AAAAAA" /><text style="font-size:10px;font-family:OpenSans;fill:#000000;" text-anchor="middle" x="415.000000" y="131.000000">921</text></g>
<rect fill="#2DCF00" x="4" y="145.000000" width="12" height="12" filter="url(#ds)"/><text style="font-size:12px;font-family:OpenSans;fill:#000000;" text-anchor="start" x="20" y="157.000000">Synaptotagmin-like mitochondrial-lipid-binding domain</text><rect fill="#EBD61D" x="4" y="159.000000" width="12" height="12" filter="url(#ds)"/><text style="font-size:12px;font-family:OpenSans;fill:#000000;" text-anchor="start" x="20" y="171.000000">C2 domain</text></svg>
