<?xml version='1.0'?>
<svg xmlns="http://www.w3.org/2000/svg" xmlns:xlink="http://www.w3.org/1999/xlink" width="430.000000" height="158.700000">
<defs>
  <filter id="ds" x="0" y="0">
    <feOffset in="SourceAlpha" dx="2" dy="2" />
    <feComponentTransfer><feFuncA type="linear" slope="0.2"/></feComponentTransfer>
    <feGaussianBlur result="blurOut" stdDeviation="1" />
    <feBlend in="SourceGraphic" in2="blurOut" mode="normal" />
  </filter>
  <pattern id="disordered-hatch" patternUnits="userSpaceOnUse" width="4" height="4">
    <path d="M-1,1 l2,-2 M0,4 l4,-4 M3,5 l2,-2" stroke="#000000" opacity="0.3" />
  </pattern>
</defs>
<line x1="217.958580" x2="217.958580" y1="34.000000" y2="74.500000" stroke="#BABDB6" stroke-width="2"/><a xlink:title="H343N"><circle cx="217.958580" cy="34.000000" r="4.000000" fill="#ff0000" /></a><g transform="translate(217.958580,34.000000) rotate(-30)"><text style="font-size:10px;font-family:OpenSans;fill:#555;" text-anchor="middle" x="0" y="-6.000000">H343N</text></g><line x1="219.733728" x2="219.733728" y1="46.500000" y2="74.500000" stroke="#BABDB6" stroke-width="2"/><a xlink:title="L346L"><circle cx="219.733728" cy="46.500000" r="4.000000" fill="#0000ff" /></a><g transform="translate(219.733728,46.500000) rotate(-30)"><text style="font-size:10px;font-family:OpenSans;fill:#555;" text-anchor="middle" x="0" y="-6.000000">L346L</text></g><line x1="239.260355" x2="239.260355" y1="34.000000" y2="74.500000" stroke="#BABDB6" stroke-width="2"/><a xlink:title="H379N"><circle cx="239.260355" cy="34.000000" r="4.000000" fill="#ff0000" /></a><g transform="translate(239.260355,34.000000) rotate(-30)"><text style="font-size:10px;font-family:OpenSans;fill:#555;" text-anchor="middle" x="0" y="-6.000000">H379N</text></g><line x1="241.035503" x2="241.035503" y1="46.500000" y2="74.500000" stroke="#BABDB6" stroke-width="2"/><a xlink:title="L382L"><circle cx="241.035503" cy="46.500000" r="4.000000" fill="#0000ff" /></a><g transform="translate(241.035503,46.500000) rotate(-30)"><text style="font-size:10px;font-family:OpenSans;fill:#555;" text-anchor="middle" x="0" y="-6.000000">L382L</text></g><line x1="304.940828" x2="304.940828" y1="46.500000" y2="74.500000" stroke="#BABDB6" stroke-width="2"/><a xlink:title="E490V"><circle cx="304.940828" cy="46.500000" r="4.000000" fill="#ff0000" /></a><g transform="translate(304.940828,46.500000) rotate(-30)"><text style="font-size:10px;font-family:OpenSans;fill:#555;" text-anchor="middle" x="0" y="-6.000000">E490V</text></g><a xlink:title=",  (676aa)"><rect fill="#BABDB6" x="15.000000" y="74.500000" width="400.000000" height="14.000000"/></a><g transform="translate(71.213018,69.500000)"><a xlink:href="https://www.ebi.ac.uk/interpro/entry/pfam/PF03016" xlink:title="Exostosin family"><rect fill="#2DCF00" x="0" y="0" width="141.420118" height="24.000000" filter="url(#ds)"/><text style="font-size:12px;font-family:OpenSans;fill:#ffffff;" text-anchor="middle" x="70.710059" y="16.000000">Exostosin family</text></a></g>
<g transform="translate(262.928994,69.500000)"><a xlink:href="https://www.ebi.ac.uk/interpro/entry/pfam/PF09258" xlink:title="Glycosyl transferase family 64 domain"><rect fill="#FF5353" x="0" y="0" width="142.011834" height="24.000000" filter="url(#ds)"/><text style="font-size:12px;font-family:OpenSans;fill:#ffffff;" text-anchor="middle" x="71.005917" y="16.000000">Glyco_transf_64</text></a></g>
<g class="axis">
<line x1="15.000000" x2="415.000000" y1="103.500000" y2="103.500000" stroke="#AAAAAA" /><line x1="15.000000" x2="15.000000" y1="103.500000" y2="108.500000" stroke="#AAAAAA" /><line x1="15.000000" x2="15.000000" y1="103.500000" y2="108.500000" stroke="#AAAAAA" /><text style="font-size:10px;font-family:OpenSans;fill:#000000;" text-anchor="middle" x="15.000000" y="118.500000">0</text><line x1="71.213018" x2="71.213018" y1="103.500000" y2="108.500000" stroke="#AAAAAA" /><text style="font-size:10px;font-family:OpenSans;fill:#000000;" text-anchor="middle" x="71.213018" y="118.500000">95</text><line x1="217.958580" x2="217.958580" y1="103.500000" y2="108.500000" stroke="#AAAAAA" /><text style="font-size:10px;font-family:OpenSans;fill:#000000;" text-anchor="middle" x="217.958580" y="118.500000">343</text><line x1="239.260355" x2="239.260355" y1="103.500000" y2="108.500000" stroke="#AAAAAA" /><text style="font-size:10px;font-family:OpenSans;fill:#000000;" text-anchor="middle" x="239.260355" y="118.500000">379</text><line x1="262.928994" x2="262.928994" y1="103.500000" y2="108.500000" stroke="#AAAAAA" /><text style="font-size:10px;font-family:OpenSans;fill:#000000;" text-anchor="middle" x="262.928994" y="118.500000">419</text><line x1="304.940828" x2="304.940828" y1="103.500000" y2="108.500000" stroke="#AAAAAA" /><text style="font-size:10px;font-family:OpenSans;fill:#000000;" text-anchor="middle" x="304.940828" y="118.500000">490</text><line x1="415.000000" x2="415.000000" y1="103.500000" y2="108.500000" stroke="#AAAAAA" /><text style="font-size:10px;font-family:OpenSans;fill:#000000;" text-anchor="middle" x="415.000000" y="118.500000">676</text></g>
<rect fill="#FF5353" x="4" y="132.500000" width="12" height="12" filter="url(#ds)"/><text style="font-size:12px;font-family:OpenSans;fill:#000000;" text-anchor="start" x="20" y="144.500000">Glycosyl transferase family 64 domain</text></svg>
