<?xml version='1.0'?>
<svg xmlns="http://www.w3.org/2000/svg" xmlns:xlink="http://www.w3.org/1999/xlink" width="430.000000" height="146.200000">
<defs>
  <filter id="ds" x="0" y="0">
    <feOffset in="SourceAlpha" dx="2" dy="2" />
    <feComponentTransfer><feFuncA type="linear" slope="0.2"/></feComponentTransfer>
    <feGaussianBlur result="blurOut" stdDeviation="1" />
    <feBlend in="SourceGraphic" in2="blurOut" mode="normal" />
  </filter>
  <pattern id="disordered-hatch" patternUnits="userSpaceOnUse" width="4" height="4">
    <path d="M-1,1 l2,-2 M0,4 l4,-4 M3,5 l2,-2" stroke="#000000" opacity="0.3" />
  </pattern>
</defs>
<line x1="97.795699" x2="97.795699" y1="34.000000" y2="62.000000" stroke="#BABDB6" stroke-width="2"/><a xlink:title="L77L"><circle cx="97.795699" cy="34.000000" r="4.000000" fill="#0000ff" /></a><g transform="translate(97.795699,34.000000) rotate(-30)"><text style="font-size:10px;font-family:OpenSans;fill:#555;" text-anchor="middle" x="0" y="-6.000000">L77L</text></g><line x1="121.451613" x2="121.451613" y1="34.000000" y2="62.000000" stroke="#BABDB6" stroke-width="2"/><a xlink:title="L99L"><circle cx="121.451613" cy="34.000000" r="4.000000" fill="#0000ff" /></a><g transform="translate(121.451613,34.000000) rotate(-30)"><text style="font-size:10px;font-family:OpenSans;fill:#555;" text-anchor="middle" x="0" y="-6.000000">L99L</text></g><line x1="207.473118" x2="207.473118" y1="34.000000" y2="62.000000" stroke="#BABDB6" stroke-width="2"/><a xlink:title="L179L"><circle cx="207.473118" cy="34.000000" r="4.000000" fill="#0000ff" /></a><g transform="translate(207.473118,34.000000) rotate(-30)"><text style="font-size:10px;font-family:OpenSans;fill:#555;" text-anchor="middle" x="0" y="-6.000000">L179L</text></g><a xlink:title=",  (372aa)"><rect fill="#BABDB6" x="15.000000" y="62.000000" width="400.000000" height="14.000000"/></a><g transform="translate(28.978495,57.000000)"><a xlink:href="https://www.ebi.ac.uk/interpro/entry/pfam/PF00173" xlink:title="Cytochrome b5-like Heme/Steroid binding domain"><rect fill="#2DCF00" x="0" y="0" width="77.419355" height="24.000000" filter="url(#ds)"/><text style="font-size:12px;font-family:OpenSans;fill:#ffffff;" text-anchor="middle" x="38.709677" y="16.000000">Cyt-b5</text></a></g>
<g transform="translate(250.483871,57.000000)"><a xlink:href="https://www.ebi.ac.uk/interpro/entry/pfam/PF04116" xlink:title="Fatty acid hydroxylase"><rect fill="#FF5353" x="0" y="0" width="152.688172" height="24.000000" filter="url(#ds)"/><text style="font-size:12px;font-family:OpenSans;fill:#ffffff;" text-anchor="middle" x="76.344086" y="16.000000">Fatty acid hydroxylase</text></a></g>
<g class="axis">
<line x1="15.000000" x2="415.000000" y1="91.000000" y2="91.000000" stroke="#AAAAAA" /><line x1="15.000000" x2="15.000000" y1="91.000000" y2="96.000000" stroke="#AAAAAA" /><line x1="28.978495" x2="28.978495" y1="91.000000" y2="96.000000" stroke="#AAAAAA" /><text style="font-size:10px;font-family:OpenSans;fill:#000000;" text-anchor="middle" x="28.978495" y="106.000000">13</text><line x1="97.795699" x2="97.795699" y1="91.000000" y2="96.000000" stroke="#AAAAAA" /><text style="font-size:10px;font-family:OpenSans;fill:#000000;" text-anchor="middle" x="97.795699" y="106.000000">77</text><line x1="121.451613" x2="121.451613" y1="91.000000" y2="96.000000" stroke="#AAAAAA" /><text style="font-size:10px;font-family:OpenSans;fill:#000000;" text-anchor="middle" x="121.451613" y="106.000000">99</text><line x1="207.473118" x2="207.473118" y1="91.000000" y2="96.000000" stroke="#AAAAAA" /><text style="font-size:10px;font-family:OpenSans;fill:#000000;" text-anchor="middle" x="207.473118" y="106.000000">179</text><line x1="250.483871" x2="250.483871" y1="91.000000" y2="96.000000" stroke="#AAAAAA" /><text style="font-size:10px;font-family:OpenSans;fill:#000000;" text-anchor="middle" x="250.483871" y="106.000000">219</text><line x1="415.000000" x2="415.000000" y1="91.000000" y2="96.000000" stroke="#AAAAAA" /><text style="font-size:10px;font-family:OpenSans;fill:#000000;" text-anchor="middle" x="415.000000" y="106.000000">372</text></g>
<rect fill="#2DCF00" x="4" y="120.000000" width="12" height="12" filter="url(#ds)"/><text style="font-size:12px;font-family:OpenSans;fill:#000000;" text-anchor="start" x="20" y="132.000000">Cytochrome b5-like Heme/Steroid binding domain</text></svg>
