<?xml version='1.0'?>
<svg xmlns="http://www.w3.org/2000/svg" xmlns:xlink="http://www.w3.org/1999/xlink" width="430.000000" height="133.000000">
<defs>
  <filter id="ds" x="0" y="0">
    <feOffset in="SourceAlpha" dx="2" dy="2" />
    <feComponentTransfer><feFuncA type="linear" slope="0.2"/></feComponentTransfer>
    <feGaussianBlur result="blurOut" stdDeviation="1" />
    <feBlend in="SourceGraphic" in2="blurOut" mode="normal" />
  </filter>
  <pattern id="disordered-hatch" patternUnits="userSpaceOnUse" width="4" height="4">
    <path d="M-1,1 l2,-2 M0,4 l4,-4 M3,5 l2,-2" stroke="#000000" opacity="0.3" />
  </pattern>
</defs>
<line x1="104.119171" x2="104.119171" y1="34.000000" y2="62.000000" stroke="#BABDB6" stroke-width="2"/><a xlink:title="P129T"><circle cx="104.119171" cy="34.000000" r="4.000000" fill="#ff0000" /></a><g transform="translate(104.119171,34.000000) rotate(-30)"><text style="font-size:10px;font-family:OpenSans;fill:#555;" text-anchor="middle" x="0" y="-6.000000">P129T</text></g><line x1="196.692573" x2="196.692573" y1="34.000000" y2="62.000000" stroke="#BABDB6" stroke-width="2"/><a xlink:title="K263K"><circle cx="196.692573" cy="34.000000" r="4.000000" fill="#0000ff" /></a><g transform="translate(196.692573,34.000000) rotate(-30)"><text style="font-size:10px;font-family:OpenSans;fill:#555;" text-anchor="middle" x="0" y="-6.000000">K263K</text></g><line x1="221.563040" x2="221.563040" y1="34.000000" y2="62.000000" stroke="#BABDB6" stroke-width="2"/><a xlink:title="C299C"><circle cx="221.563040" cy="34.000000" r="4.000000" fill="#0000ff" /></a><g transform="translate(221.563040,34.000000) rotate(-30)"><text style="font-size:10px;font-family:OpenSans;fill:#555;" text-anchor="middle" x="0" y="-6.000000">C299C</text></g><line x1="260.941278" x2="260.941278" y1="34.000000" y2="62.000000" stroke="#BABDB6" stroke-width="2"/><a xlink:title="A356V"><circle cx="260.941278" cy="34.000000" r="4.000000" fill="#ff0000" /></a><g transform="translate(260.941278,34.000000) rotate(-30)"><text style="font-size:10px;font-family:OpenSans;fill:#555;" text-anchor="middle" x="0" y="-6.000000">A356V</text></g><line x1="309.300518" x2="309.300518" y1="34.000000" y2="62.000000" stroke="#BABDB6" stroke-width="2"/><a xlink:title="L426L"><circle cx="309.300518" cy="34.000000" r="4.000000" fill="#0000ff" /></a><g transform="translate(309.300518,34.000000) rotate(-30)"><text style="font-size:10px;font-family:OpenSans;fill:#555;" text-anchor="middle" x="0" y="-6.000000">L426L</text></g><line x1="318.281520" x2="318.281520" y1="34.000000" y2="62.000000" stroke="#BABDB6" stroke-width="2"/><a xlink:title="R439R"><circle cx="318.281520" cy="34.000000" r="4.000000" fill="#0000ff" /></a><g transform="translate(318.281520,34.000000) rotate(-30)"><text style="font-size:10px;font-family:OpenSans;fill:#555;" text-anchor="middle" x="0" y="-6.000000">R439R</text></g><line x1="343.842832" x2="343.842832" y1="34.000000" y2="62.000000" stroke="#BABDB6" stroke-width="2"/><a xlink:title="A476G"><circle cx="343.842832" cy="34.000000" r="4.000000" fill="#ff0000" /></a><g transform="translate(343.842832,34.000000) rotate(-30)"><text style="font-size:10px;font-family:OpenSans;fill:#555;" text-anchor="middle" x="0" y="-6.000000">A476G</text></g><line x1="390.820380" x2="390.820380" y1="34.000000" y2="62.000000" stroke="#BABDB6" stroke-width="2"/><a xlink:title="G544G"><circle cx="390.820380" cy="34.000000" r="4.000000" fill="#0000ff" /></a><g transform="translate(390.820380,34.000000) rotate(-30)"><text style="font-size:10px;font-family:OpenSans;fill:#555;" text-anchor="middle" x="0" y="-6.000000">G544G</text></g><a xlink:title=",  (579aa)"><rect fill="#BABDB6" x="15.000000" y="62.000000" width="400.000000" height="14.000000"/></a><g transform="translate(81.321244,57.000000)"><a xlink:href="https://www.ebi.ac.uk/interpro/entry/pfam/PF01425" xlink:title="Amidase"><rect fill="#2DCF00" x="0" y="0" width="321.934370" height="24.000000" filter="url(#ds)"/><text style="font-size:12px;font-family:OpenSans;fill:#ffffff;" text-anchor="middle" x="160.967185" y="16.000000">Amidase</text></a></g>
<g class="axis">
<line x1="15.000000" x2="415.000000" y1="91.000000" y2="91.000000" stroke="#AAAAAA" /><line x1="15.000000" x2="15.000000" y1="91.000000" y2="96.000000" stroke="#AAAAAA" /><line x1="15.000000" x2="15.000000" y1="91.000000" y2="96.000000" stroke="#AAAAAA" /><text style="font-size:10px;font-family:OpenSans;fill:#000000;" text-anchor="middle" x="15.000000" y="106.000000">0</text><line x1="81.321244" x2="81.321244" y1="91.000000" y2="96.000000" stroke="#AAAAAA" /><text style="font-size:10px;font-family:OpenSans;fill:#000000;" text-anchor="middle" x="81.321244" y="106.000000">96</text><line x1="104.119171" x2="104.119171" y1="91.000000" y2="96.000000" stroke="#AAAAAA" /><text style="font-size:10px;font-family:OpenSans;fill:#000000;" text-anchor="middle" x="104.119171" y="106.000000">129</text><line x1="196.692573" x2="196.692573" y1="91.000000" y2="96.000000" stroke="#AAAAAA" /><text style="font-size:10px;font-family:OpenSans;fill:#000000;" text-anchor="middle" x="196.692573" y="106.000000">263</text><line x1="221.563040" x2="221.563040" y1="91.000000" y2="96.000000" stroke="#AAAAAA" /><text style="font-size:10px;font-family:OpenSans;fill:#000000;" text-anchor="middle" x="221.563040" y="106.000000">299</text><line x1="260.941278" x2="260.941278" y1="91.000000" y2="96.000000" stroke="#AAAAAA" /><text style="font-size:10px;font-family:OpenSans;fill:#000000;" text-anchor="middle" x="260.941278" y="106.000000">356</text><line x1="309.300518" x2="309.300518" y1="91.000000" y2="96.000000" stroke="#AAAAAA" /><text style="font-size:10px;font-family:OpenSans;fill:#000000;" text-anchor="middle" x="309.300518" y="106.000000">426</text><line x1="343.842832" x2="343.842832" y1="91.000000" y2="96.000000" stroke="#AAAAAA" /><text style="font-size:10px;font-family:OpenSans;fill:#000000;" text-anchor="middle" x="343.842832" y="106.000000">476</text><line x1="390.820380" x2="390.820380" y1="91.000000" y2="96.000000" stroke="#AAAAAA" /><text style="font-size:10px;font-family:OpenSans;fill:#000000;" text-anchor="middle" x="390.820380" y="106.000000">544</text><line x1="415.000000" x2="415.000000" y1="91.000000" y2="96.000000" stroke="#AAAAAA" /><text style="font-size:10px;font-family:OpenSans;fill:#000000;" text-anchor="middle" x="415.000000" y="106.000000">579</text></g>
</svg>
