<?xml version='1.0'?>
<svg xmlns="http://www.w3.org/2000/svg" xmlns:xlink="http://www.w3.org/1999/xlink" width="430.000000" height="158.000000">
<defs>
  <filter id="ds" x="0" y="0">
    <feOffset in="SourceAlpha" dx="2" dy="2" />
    <feComponentTransfer><feFuncA type="linear" slope="0.2"/></feComponentTransfer>
    <feGaussianBlur result="blurOut" stdDeviation="1" />
    <feBlend in="SourceGraphic" in2="blurOut" mode="normal" />
  </filter>
  <pattern id="disordered-hatch" patternUnits="userSpaceOnUse" width="4" height="4">
    <path d="M-1,1 l2,-2 M0,4 l4,-4 M3,5 l2,-2" stroke="#000000" opacity="0.3" />
  </pattern>
</defs>
<line x1="177.318841" x2="177.318841" y1="46.500000" y2="87.000000" stroke="#BABDB6" stroke-width="2"/><a xlink:title="N56N"><circle cx="177.318841" cy="46.500000" r="4.000000" fill="#0000ff" /></a><g transform="translate(177.318841,46.500000) rotate(-30)"><text style="font-size:10px;font-family:OpenSans;fill:#555;" text-anchor="middle" x="0" y="-6.000000">N56N</text></g><line x1="180.217391" x2="180.217391" y1="59.000000" y2="87.000000" stroke="#BABDB6" stroke-width="2"/><a xlink:title="D57H"><circle cx="180.217391" cy="59.000000" r="4.000000" fill="#ff0000" /></a><g transform="translate(180.217391,59.000000) rotate(-30)"><text style="font-size:10px;font-family:OpenSans;fill:#555;" text-anchor="middle" x="0" y="-6.000000">D57H</text></g><line x1="267.173913" x2="267.173913" y1="34.000000" y2="87.000000" stroke="#BABDB6" stroke-width="2"/><a xlink:title="N87N"><circle cx="267.173913" cy="34.000000" r="4.000000" fill="#0000ff" /></a><g transform="translate(267.173913,34.000000) rotate(-30)"><text style="font-size:10px;font-family:OpenSans;fill:#555;" text-anchor="middle" x="0" y="-6.000000">N87N</text></g><line x1="270.072464" x2="270.072464" y1="46.500000" y2="87.000000" stroke="#BABDB6" stroke-width="2"/><a xlink:title="D88H"><circle cx="270.072464" cy="46.500000" r="4.000000" fill="#ff0000" /></a><g transform="translate(270.072464,46.500000) rotate(-30)"><text style="font-size:10px;font-family:OpenSans;fill:#555;" text-anchor="middle" x="0" y="-6.000000">D88H</text></g><line x1="272.971014" x2="272.971014" y1="59.000000" y2="87.000000" stroke="#BABDB6" stroke-width="2"/><a xlink:title="H89H"><circle cx="272.971014" cy="59.000000" r="4.000000" fill="#0000ff" /></a><g transform="translate(272.971014,59.000000) rotate(-30)"><text style="font-size:10px;font-family:OpenSans;fill:#555;" text-anchor="middle" x="0" y="-6.000000">H89H</text></g><line x1="307.753623" x2="307.753623" y1="46.500000" y2="87.000000" stroke="#BABDB6" stroke-width="2"/><a xlink:title="A101P"><circle cx="307.753623" cy="46.500000" r="4.000000" fill="#ff0000" /></a><g transform="translate(307.753623,46.500000) rotate(-30)"><text style="font-size:10px;font-family:OpenSans;fill:#555;" text-anchor="middle" x="0" y="-6.000000">A101P</text></g><line x1="313.550725" x2="313.550725" y1="46.500000" y2="87.000000" stroke="#BABDB6" stroke-width="2"/><a xlink:title="L103S"><circle cx="313.550725" cy="46.500000" r="4.000000" fill="#ff0000" /></a><g transform="translate(313.550725,46.500000) rotate(-30)"><text style="font-size:10px;font-family:OpenSans;fill:#555;" text-anchor="middle" x="0" y="-6.000000">L103S</text></g><line x1="316.449275" x2="316.449275" y1="34.000000" y2="87.000000" stroke="#BABDB6" stroke-width="2"/><a xlink:title="S104S"><circle cx="316.449275" cy="34.000000" r="4.000000" fill="#0000ff" /></a><g transform="translate(316.449275,34.000000) rotate(-30)"><text style="font-size:10px;font-family:OpenSans;fill:#555;" text-anchor="middle" x="0" y="-6.000000">S104S</text></g><line x1="322.246377" x2="322.246377" y1="46.500000" y2="87.000000" stroke="#BABDB6" stroke-width="2"/><a xlink:title="G106G"><circle cx="322.246377" cy="46.500000" r="4.000000" fill="#0000ff" /></a><g transform="translate(322.246377,46.500000) rotate(-30)"><text style="font-size:10px;font-family:OpenSans;fill:#555;" text-anchor="middle" x="0" y="-6.000000">G106G</text></g><line x1="322.246377" x2="322.246377" y1="59.000000" y2="87.000000" stroke="#BABDB6" stroke-width="2"/><a xlink:title="P106L"><circle cx="322.246377" cy="59.000000" r="4.000000" fill="#ff0000" /></a><g transform="translate(322.246377,59.000000) rotate(-30)"><text style="font-size:10px;font-family:OpenSans;fill:#555;" text-anchor="middle" x="0" y="-6.000000">P106L</text></g><line x1="362.826087" x2="362.826087" y1="59.000000" y2="87.000000" stroke="#BABDB6" stroke-width="2"/><a xlink:title="H120H"><circle cx="362.826087" cy="59.000000" r="4.000000" fill="#0000ff" /></a><g transform="translate(362.826087,59.000000) rotate(-30)"><text style="font-size:10px;font-family:OpenSans;fill:#555;" text-anchor="middle" x="0" y="-6.000000">H120H</text></g><line x1="397.608696" x2="397.608696" y1="46.500000" y2="87.000000" stroke="#BABDB6" stroke-width="2"/><a xlink:title="A132P"><circle cx="397.608696" cy="46.500000" r="4.000000" fill="#ff0000" /></a><g transform="translate(397.608696,46.500000) rotate(-30)"><text style="font-size:10px;font-family:OpenSans;fill:#555;" text-anchor="middle" x="0" y="-6.000000">A132P</text></g><line x1="403.405797" x2="403.405797" y1="46.500000" y2="87.000000" stroke="#BABDB6" stroke-width="2"/><a xlink:title="L134S"><circle cx="403.405797" cy="46.500000" r="4.000000" fill="#ff0000" /></a><g transform="translate(403.405797,46.500000) rotate(-30)"><text style="font-size:10px;font-family:OpenSans;fill:#555;" text-anchor="middle" x="0" y="-6.000000">L134S</text></g><line x1="406.304348" x2="406.304348" y1="46.500000" y2="87.000000" stroke="#BABDB6" stroke-width="2"/><a xlink:title="S135S"><circle cx="406.304348" cy="46.500000" r="4.000000" fill="#0000ff" /></a><g transform="translate(406.304348,46.500000) rotate(-30)"><text style="font-size:10px;font-family:OpenSans;fill:#555;" text-anchor="middle" x="0" y="-6.000000">S135S</text></g><line x1="412.101449" x2="412.101449" y1="59.000000" y2="87.000000" stroke="#BABDB6" stroke-width="2"/><a xlink:title="G137G"><circle cx="412.101449" cy="59.000000" r="4.000000" fill="#0000ff" /></a><g transform="translate(412.101449,59.000000) rotate(-30)"><text style="font-size:10px;font-family:OpenSans;fill:#555;" text-anchor="middle" x="0" y="-6.000000">G137G</text></g><line x1="513.550725" x2="513.550725" y1="46.500000" y2="87.000000" stroke="#BABDB6" stroke-width="2"/><a xlink:title="N172N"><circle cx="513.550725" cy="46.500000" r="4.000000" fill="#0000ff" /></a><g transform="translate(513.550725,46.500000) rotate(-30)"><text style="font-size:10px;font-family:OpenSans;fill:#555;" text-anchor="middle" x="0" y="-6.000000">N172N</text></g><line x1="516.449275" x2="516.449275" y1="59.000000" y2="87.000000" stroke="#BABDB6" stroke-width="2"/><a xlink:title="D173H"><circle cx="516.449275" cy="59.000000" r="4.000000" fill="#ff0000" /></a><g transform="translate(516.449275,59.000000) rotate(-30)"><text style="font-size:10px;font-family:OpenSans;fill:#555;" text-anchor="middle" x="0" y="-6.000000">D173H</text></g><line x1="577.318841" x2="577.318841" y1="46.500000" y2="87.000000" stroke="#BABDB6" stroke-width="2"/><a xlink:title="N194N"><circle cx="577.318841" cy="46.500000" r="4.000000" fill="#0000ff" /></a><g transform="translate(577.318841,46.500000) rotate(-30)"><text style="font-size:10px;font-family:OpenSans;fill:#555;" text-anchor="middle" x="0" y="-6.000000">N194N</text></g><line x1="580.217391" x2="580.217391" y1="59.000000" y2="87.000000" stroke="#BABDB6" stroke-width="2"/><a xlink:title="D195H"><circle cx="580.217391" cy="59.000000" r="4.000000" fill="#ff0000" /></a><g transform="translate(580.217391,59.000000) rotate(-30)"><text style="font-size:10px;font-family:OpenSans;fill:#555;" text-anchor="middle" x="0" y="-6.000000">D195H</text></g><line x1="609.202899" x2="609.202899" y1="59.000000" y2="87.000000" stroke="#BABDB6" stroke-width="2"/><a xlink:title="H205H"><circle cx="609.202899" cy="59.000000" r="4.000000" fill="#0000ff" /></a><g transform="translate(609.202899,59.000000) rotate(-30)"><text style="font-size:10px;font-family:OpenSans;fill:#555;" text-anchor="middle" x="0" y="-6.000000">H205H</text></g><line x1="643.985507" x2="643.985507" y1="46.500000" y2="87.000000" stroke="#BABDB6" stroke-width="2"/><a xlink:title="A217P"><circle cx="643.985507" cy="46.500000" r="4.000000" fill="#ff0000" /></a><g transform="translate(643.985507,46.500000) rotate(-30)"><text style="font-size:10px;font-family:OpenSans;fill:#555;" text-anchor="middle" x="0" y="-6.000000">A217P</text></g><line x1="649.782609" x2="649.782609" y1="46.500000" y2="87.000000" stroke="#BABDB6" stroke-width="2"/><a xlink:title="L219S"><circle cx="649.782609" cy="46.500000" r="4.000000" fill="#ff0000" /></a><g transform="translate(649.782609,46.500000) rotate(-30)"><text style="font-size:10px;font-family:OpenSans;fill:#555;" text-anchor="middle" x="0" y="-6.000000">L219S</text></g><line x1="652.681159" x2="652.681159" y1="46.500000" y2="87.000000" stroke="#BABDB6" stroke-width="2"/><a xlink:title="S220S"><circle cx="652.681159" cy="46.500000" r="4.000000" fill="#0000ff" /></a><g transform="translate(652.681159,46.500000) rotate(-30)"><text style="font-size:10px;font-family:OpenSans;fill:#555;" text-anchor="middle" x="0" y="-6.000000">S220S</text></g><line x1="658.478261" x2="658.478261" y1="59.000000" y2="87.000000" stroke="#BABDB6" stroke-width="2"/><a xlink:title="G222G"><circle cx="658.478261" cy="59.000000" r="4.000000" fill="#0000ff" /></a><g transform="translate(658.478261,59.000000) rotate(-30)"><text style="font-size:10px;font-family:OpenSans;fill:#555;" text-anchor="middle" x="0" y="-6.000000">G222G</text></g><line x1="672.971014" x2="672.971014" y1="59.000000" y2="87.000000" stroke="#BABDB6" stroke-width="2"/><a xlink:title="H227H"><circle cx="672.971014" cy="59.000000" r="4.000000" fill="#0000ff" /></a><g transform="translate(672.971014,59.000000) rotate(-30)"><text style="font-size:10px;font-family:OpenSans;fill:#555;" text-anchor="middle" x="0" y="-6.000000">H227H</text></g><line x1="707.753623" x2="707.753623" y1="46.500000" y2="87.000000" stroke="#BABDB6" stroke-width="2"/><a xlink:title="A239P"><circle cx="707.753623" cy="46.500000" r="4.000000" fill="#ff0000" /></a><g transform="translate(707.753623,46.500000) rotate(-30)"><text style="font-size:10px;font-family:OpenSans;fill:#555;" text-anchor="middle" x="0" y="-6.000000">A239P</text></g><line x1="713.550725" x2="713.550725" y1="46.500000" y2="87.000000" stroke="#BABDB6" stroke-width="2"/><a xlink:title="L241S"><circle cx="713.550725" cy="46.500000" r="4.000000" fill="#ff0000" /></a><g transform="translate(713.550725,46.500000) rotate(-30)"><text style="font-size:10px;font-family:OpenSans;fill:#555;" text-anchor="middle" x="0" y="-6.000000">L241S</text></g><line x1="716.449275" x2="716.449275" y1="46.500000" y2="87.000000" stroke="#BABDB6" stroke-width="2"/><a xlink:title="S242S"><circle cx="716.449275" cy="46.500000" r="4.000000" fill="#0000ff" /></a><g transform="translate(716.449275,46.500000) rotate(-30)"><text style="font-size:10px;font-family:OpenSans;fill:#555;" text-anchor="middle" x="0" y="-6.000000">S242S</text></g><line x1="722.246377" x2="722.246377" y1="59.000000" y2="87.000000" stroke="#BABDB6" stroke-width="2"/><a xlink:title="G244G"><circle cx="722.246377" cy="59.000000" r="4.000000" fill="#0000ff" /></a><g transform="translate(722.246377,59.000000) rotate(-30)"><text style="font-size:10px;font-family:OpenSans;fill:#555;" text-anchor="middle" x="0" y="-6.000000">G244G</text></g><a xlink:title=",  (138aa)"><rect fill="#BABDB6" x="15.000000" y="87.000000" width="400.000000" height="14.000000"/></a><g transform="translate(29.492754,82.000000)"><a xlink:href="https://www.ebi.ac.uk/interpro/entry/pfam/PF05811" xlink:title="Eukaryotic protein of unknown function (DUF842)"><rect fill="#2DCF00" x="0" y="0" width="365.217391" height="24.000000" filter="url(#ds)"/><text style="font-size:12px;font-family:OpenSans;fill:#ffffff;" text-anchor="middle" x="182.608696" y="16.000000">Eukaryotic protein of unknown function (DUF842)</text></a></g>
<g class="axis">
<line x1="15.000000" x2="415.000000" y1="116.000000" y2="116.000000" stroke="#AAAAAA" /><line x1="15.000000" x2="15.000000" y1="116.000000" y2="121.000000" stroke="#AAAAAA" /><line x1="29.492754" x2="29.492754" y1="116.000000" y2="121.000000" stroke="#AAAAAA" /><text style="font-size:10px;font-family:OpenSans;fill:#000000;" text-anchor="middle" x="29.492754" y="131.000000">5</text><line x1="177.318841" x2="177.318841" y1="116.000000" y2="121.000000" stroke="#AAAAAA" /><text style="font-size:10px;font-family:OpenSans;fill:#000000;" text-anchor="middle" x="177.318841" y="131.000000">56</text><line x1="267.173913" x2="267.173913" y1="116.000000" y2="121.000000" stroke="#AAAAAA" /><text style="font-size:10px;font-family:OpenSans;fill:#000000;" text-anchor="middle" x="267.173913" y="131.000000">87</text><line x1="307.753623" x2="307.753623" y1="116.000000" y2="121.000000" stroke="#AAAAAA" /><text style="font-size:10px;font-family:OpenSans;fill:#000000;" text-anchor="middle" x="307.753623" y="131.000000">101</text><line x1="362.826087" x2="362.826087" y1="116.000000" y2="121.000000" stroke="#AAAAAA" /><text style="font-size:10px;font-family:OpenSans;fill:#000000;" text-anchor="middle" x="362.826087" y="131.000000">120</text><line x1="415.000000" x2="415.000000" y1="116.000000" y2="121.000000" stroke="#AAAAAA" /><text style="font-size:10px;font-family:OpenSans;fill:#000000;" text-anchor="middle" x="415.000000" y="131.000000">138</text><line x1="513.550725" x2="513.550725" y1="116.000000" y2="121.000000" stroke="#AAAAAA" /><text style="font-size:10px;font-family:OpenSans;fill:#000000;" text-anchor="middle" x="513.550725" y="131.000000">172</text><line x1="577.318841" x2="577.318841" y1="116.000000" y2="121.000000" stroke="#AAAAAA" /><text style="font-size:10px;font-family:OpenSans;fill:#000000;" text-anchor="middle" x="577.318841" y="131.000000">194</text><line x1="609.202899" x2="609.202899" y1="116.000000" y2="121.000000" stroke="#AAAAAA" /><text style="font-size:10px;font-family:OpenSans;fill:#000000;" text-anchor="middle" x="609.202899" y="131.000000">205</text><line x1="643.985507" x2="643.985507" y1="116.000000" y2="121.000000" stroke="#AAAAAA" /><text style="font-size:10px;font-family:OpenSans;fill:#000000;" text-anchor="middle" x="643.985507" y="131.000000">217</text><line x1="672.971014" x2="672.971014" y1="116.000000" y2="121.000000" stroke="#AAAAAA" /><text style="font-size:10px;font-family:OpenSans;fill:#000000;" text-anchor="middle" x="672.971014" y="131.000000">227</text><line x1="707.753623" x2="707.753623" y1="116.000000" y2="121.000000" stroke="#AAAAAA" /><text style="font-size:10px;font-family:OpenSans;fill:#000000;" text-anchor="middle" x="707.753623" y="131.000000">239</text></g>
</svg>
