<?xml version='1.0'?>
<svg xmlns="http://www.w3.org/2000/svg" xmlns:xlink="http://www.w3.org/1999/xlink" width="1459.049180" height="183.700000">
<defs>
  <filter id="ds" x="0" y="0">
    <feOffset in="SourceAlpha" dx="2" dy="2" />
    <feComponentTransfer><feFuncA type="linear" slope="0.2"/></feComponentTransfer>
    <feGaussianBlur result="blurOut" stdDeviation="1" />
    <feBlend in="SourceGraphic" in2="blurOut" mode="normal" />
  </filter>
  <pattern id="disordered-hatch" patternUnits="userSpaceOnUse" width="4" height="4">
    <path d="M-1,1 l2,-2 M0,4 l4,-4 M3,5 l2,-2" stroke="#000000" opacity="0.3" />
  </pattern>
</defs>
<line x1="23.131148" x2="23.131148" y1="71.500000" y2="99.500000" stroke="#BABDB6" stroke-width="2"/><a xlink:title="K8E"><circle cx="23.131148" cy="71.500000" r="4.000000" fill="#ff0000" /></a><g transform="translate(23.131148,71.500000) rotate(-30)"><text style="font-size:10px;font-family:OpenSans;fill:#555;" text-anchor="middle" x="0" y="-6.000000">K8E</text></g><line x1="37.360656" x2="37.360656" y1="59.000000" y2="99.500000" stroke="#BABDB6" stroke-width="2"/><a xlink:title="G22E"><circle cx="37.360656" cy="59.000000" r="4.000000" fill="#ff0000" /></a><g transform="translate(37.360656,59.000000) rotate(-30)"><text style="font-size:10px;font-family:OpenSans;fill:#555;" text-anchor="middle" x="0" y="-6.000000">G22E</text></g><line x1="38.377049" x2="38.377049" y1="71.500000" y2="99.500000" stroke="#BABDB6" stroke-width="2"/><a xlink:title="T23R"><circle cx="38.377049" cy="71.500000" r="4.000000" fill="#ff0000" /></a><g transform="translate(38.377049,71.500000) rotate(-30)"><text style="font-size:10px;font-family:OpenSans;fill:#555;" text-anchor="middle" x="0" y="-6.000000">T23R</text></g><line x1="246.737705" x2="246.737705" y1="59.000000" y2="99.500000" stroke="#BABDB6" stroke-width="2"/><a xlink:title="I228V"><circle cx="246.737705" cy="59.000000" r="4.000000" fill="#ff0000" /></a><g transform="translate(246.737705,59.000000) rotate(-30)"><text style="font-size:10px;font-family:OpenSans;fill:#555;" text-anchor="middle" x="0" y="-6.000000">I228V</text></g><line x1="251.819672" x2="251.819672" y1="71.500000" y2="99.500000" stroke="#BABDB6" stroke-width="2"/><a xlink:title="P233P"><circle cx="251.819672" cy="71.500000" r="4.000000" fill="#0000ff" /></a><g transform="translate(251.819672,71.500000) rotate(-30)"><text style="font-size:10px;font-family:OpenSans;fill:#555;" text-anchor="middle" x="0" y="-6.000000">P233P</text></g><line x1="261.983607" x2="261.983607" y1="59.000000" y2="99.500000" stroke="#BABDB6" stroke-width="2"/><a xlink:title="M243L"><circle cx="261.983607" cy="59.000000" r="4.000000" fill="#ff0000" /></a><g transform="translate(261.983607,59.000000) rotate(-30)"><text style="font-size:10px;font-family:OpenSans;fill:#555;" text-anchor="middle" x="0" y="-6.000000">M243L</text></g><line x1="263.000000" x2="263.000000" y1="59.000000" y2="99.500000" stroke="#BABDB6" stroke-width="2"/><a xlink:title="I244V"><circle cx="263.000000" cy="59.000000" r="4.000000" fill="#ff0000" /></a><g transform="translate(263.000000,59.000000) rotate(-30)"><text style="font-size:10px;font-family:OpenSans;fill:#555;" text-anchor="middle" x="0" y="-6.000000">I244V</text></g><line x1="268.081967" x2="268.081967" y1="71.500000" y2="99.500000" stroke="#BABDB6" stroke-width="2"/><a xlink:title="P249P"><circle cx="268.081967" cy="71.500000" r="4.000000" fill="#0000ff" /></a><g transform="translate(268.081967,71.500000) rotate(-30)"><text style="font-size:10px;font-family:OpenSans;fill:#555;" text-anchor="middle" x="0" y="-6.000000">P249P</text></g><line x1="278.245902" x2="278.245902" y1="71.500000" y2="99.500000" stroke="#BABDB6" stroke-width="2"/><a xlink:title="M259L"><circle cx="278.245902" cy="71.500000" r="4.000000" fill="#ff0000" /></a><g transform="translate(278.245902,71.500000) rotate(-30)"><text style="font-size:10px;font-family:OpenSans;fill:#555;" text-anchor="middle" x="0" y="-6.000000">M259L</text></g><line x1="295.524590" x2="295.524590" y1="59.000000" y2="99.500000" stroke="#BABDB6" stroke-width="2"/><a xlink:title="I276V"><circle cx="295.524590" cy="59.000000" r="4.000000" fill="#ff0000" /></a><g transform="translate(295.524590,59.000000) rotate(-30)"><text style="font-size:10px;font-family:OpenSans;fill:#555;" text-anchor="middle" x="0" y="-6.000000">I276V</text></g><line x1="300.606557" x2="300.606557" y1="71.500000" y2="99.500000" stroke="#BABDB6" stroke-width="2"/><a xlink:title="P281P"><circle cx="300.606557" cy="71.500000" r="4.000000" fill="#0000ff" /></a><g transform="translate(300.606557,71.500000) rotate(-30)"><text style="font-size:10px;font-family:OpenSans;fill:#555;" text-anchor="middle" x="0" y="-6.000000">P281P</text></g><line x1="310.770492" x2="310.770492" y1="71.500000" y2="99.500000" stroke="#BABDB6" stroke-width="2"/><a xlink:title="M291L"><circle cx="310.770492" cy="71.500000" r="4.000000" fill="#ff0000" /></a><g transform="translate(310.770492,71.500000) rotate(-30)"><text style="font-size:10px;font-family:OpenSans;fill:#555;" text-anchor="middle" x="0" y="-6.000000">M291L</text></g><line x1="320.934426" x2="320.934426" y1="71.500000" y2="99.500000" stroke="#BABDB6" stroke-width="2"/><a xlink:title="V301V"><circle cx="320.934426" cy="71.500000" r="4.000000" fill="#0000ff" /></a><g transform="translate(320.934426,71.500000) rotate(-30)"><text style="font-size:10px;font-family:OpenSans;fill:#555;" text-anchor="middle" x="0" y="-6.000000">V301V</text></g><line x1="337.196721" x2="337.196721" y1="71.500000" y2="99.500000" stroke="#BABDB6" stroke-width="2"/><a xlink:title="V317V"><circle cx="337.196721" cy="71.500000" r="4.000000" fill="#0000ff" /></a><g transform="translate(337.196721,71.500000) rotate(-30)"><text style="font-size:10px;font-family:OpenSans;fill:#555;" text-anchor="middle" x="0" y="-6.000000">V317V</text></g><line x1="369.721311" x2="369.721311" y1="71.500000" y2="99.500000" stroke="#BABDB6" stroke-width="2"/><a xlink:title="V349V"><circle cx="369.721311" cy="71.500000" r="4.000000" fill="#0000ff" /></a><g transform="translate(369.721311,71.500000) rotate(-30)"><text style="font-size:10px;font-family:OpenSans;fill:#555;" text-anchor="middle" x="0" y="-6.000000">V349V</text></g><line x1="375.819672" x2="375.819672" y1="59.000000" y2="99.500000" stroke="#BABDB6" stroke-width="2"/><a xlink:title="I355V"><circle cx="375.819672" cy="59.000000" r="4.000000" fill="#ff0000" /></a><g transform="translate(375.819672,59.000000) rotate(-30)"><text style="font-size:10px;font-family:OpenSans;fill:#555;" text-anchor="middle" x="0" y="-6.000000">I355V</text></g><line x1="380.901639" x2="380.901639" y1="71.500000" y2="99.500000" stroke="#BABDB6" stroke-width="2"/><a xlink:title="P360P"><circle cx="380.901639" cy="71.500000" r="4.000000" fill="#0000ff" /></a><g transform="translate(380.901639,71.500000) rotate(-30)"><text style="font-size:10px;font-family:OpenSans;fill:#555;" text-anchor="middle" x="0" y="-6.000000">P360P</text></g><line x1="391.065574" x2="391.065574" y1="71.500000" y2="99.500000" stroke="#BABDB6" stroke-width="2"/><a xlink:title="M370L"><circle cx="391.065574" cy="71.500000" r="4.000000" fill="#ff0000" /></a><g transform="translate(391.065574,71.500000) rotate(-30)"><text style="font-size:10px;font-family:OpenSans;fill:#555;" text-anchor="middle" x="0" y="-6.000000">M370L</text></g><line x1="445.950820" x2="445.950820" y1="59.000000" y2="99.500000" stroke="#BABDB6" stroke-width="2"/><a xlink:title="S424S"><circle cx="445.950820" cy="59.000000" r="4.000000" fill="#0000ff" /></a><g transform="translate(445.950820,59.000000) rotate(-30)"><text style="font-size:10px;font-family:OpenSans;fill:#555;" text-anchor="middle" x="0" y="-6.000000">S424S</text></g><line x1="450.016393" x2="450.016393" y1="71.500000" y2="99.500000" stroke="#BABDB6" stroke-width="2"/><a xlink:title="V428V"><circle cx="450.016393" cy="71.500000" r="4.000000" fill="#0000ff" /></a><g transform="translate(450.016393,71.500000) rotate(-30)"><text style="font-size:10px;font-family:OpenSans;fill:#555;" text-anchor="middle" x="0" y="-6.000000">V428V</text></g><line x1="462.213115" x2="462.213115" y1="71.500000" y2="99.500000" stroke="#BABDB6" stroke-width="2"/><a xlink:title="S440S"><circle cx="462.213115" cy="71.500000" r="4.000000" fill="#0000ff" /></a><g transform="translate(462.213115,71.500000) rotate(-30)"><text style="font-size:10px;font-family:OpenSans;fill:#555;" text-anchor="middle" x="0" y="-6.000000">S440S</text></g><line x1="480.508197" x2="480.508197" y1="46.500000" y2="99.500000" stroke="#BABDB6" stroke-width="2"/><a xlink:title="I458V"><circle cx="480.508197" cy="46.500000" r="4.000000" fill="#ff0000" /></a><g transform="translate(480.508197,46.500000) rotate(-30)"><text style="font-size:10px;font-family:OpenSans;fill:#555;" text-anchor="middle" x="0" y="-6.000000">I458V</text></g><line x1="483.557377" x2="483.557377" y1="46.500000" y2="99.500000" stroke="#BABDB6" stroke-width="2"/><a xlink:title="I461V"><circle cx="483.557377" cy="46.500000" r="4.000000" fill="#ff0000" /></a><g transform="translate(483.557377,46.500000) rotate(-30)"><text style="font-size:10px;font-family:OpenSans;fill:#555;" text-anchor="middle" x="0" y="-6.000000">I461V</text></g><line x1="485.590164" x2="485.590164" y1="46.500000" y2="99.500000" stroke="#BABDB6" stroke-width="2"/><a xlink:title="P463P"><circle cx="485.590164" cy="46.500000" r="4.000000" fill="#0000ff" /></a><g transform="translate(485.590164,46.500000) rotate(-30)"><text style="font-size:10px;font-family:OpenSans;fill:#555;" text-anchor="middle" x="0" y="-6.000000">P463P</text></g><line x1="488.639344" x2="488.639344" y1="59.000000" y2="99.500000" stroke="#BABDB6" stroke-width="2"/><a xlink:title="P466P"><circle cx="488.639344" cy="59.000000" r="4.000000" fill="#0000ff" /></a><g transform="translate(488.639344,59.000000) rotate(-30)"><text style="font-size:10px;font-family:OpenSans;fill:#555;" text-anchor="middle" x="0" y="-6.000000">P466P</text></g><line x1="489.655738" x2="489.655738" y1="59.000000" y2="99.500000" stroke="#BABDB6" stroke-width="2"/><a xlink:title="P467P"><circle cx="489.655738" cy="59.000000" r="4.000000" fill="#0000ff" /></a><g transform="translate(489.655738,59.000000) rotate(-30)"><text style="font-size:10px;font-family:OpenSans;fill:#555;" text-anchor="middle" x="0" y="-6.000000">P467P</text></g><line x1="494.737705" x2="494.737705" y1="34.000000" y2="99.500000" stroke="#BABDB6" stroke-width="2"/><a xlink:title="S472S"><circle cx="494.737705" cy="34.000000" r="4.000000" fill="#0000ff" /></a><g transform="translate(494.737705,34.000000) rotate(-30)"><text style="font-size:10px;font-family:OpenSans;fill:#555;" text-anchor="middle" x="0" y="-6.000000">S472S</text></g><line x1="495.754098" x2="495.754098" y1="46.500000" y2="99.500000" stroke="#BABDB6" stroke-width="2"/><a xlink:title="M473L"><circle cx="495.754098" cy="46.500000" r="4.000000" fill="#ff0000" /></a><g transform="translate(495.754098,46.500000) rotate(-30)"><text style="font-size:10px;font-family:OpenSans;fill:#555;" text-anchor="middle" x="0" y="-6.000000">M473L</text></g><line x1="498.803279" x2="498.803279" y1="59.000000" y2="99.500000" stroke="#BABDB6" stroke-width="2"/><a xlink:title="M476L"><circle cx="498.803279" cy="59.000000" r="4.000000" fill="#ff0000" /></a><g transform="translate(498.803279,59.000000) rotate(-30)"><text style="font-size:10px;font-family:OpenSans;fill:#555;" text-anchor="middle" x="0" y="-6.000000">M476L</text></g><line x1="499.819672" x2="499.819672" y1="59.000000" y2="99.500000" stroke="#BABDB6" stroke-width="2"/><a xlink:title="I477V"><circle cx="499.819672" cy="59.000000" r="4.000000" fill="#ff0000" /></a><g transform="translate(499.819672,59.000000) rotate(-30)"><text style="font-size:10px;font-family:OpenSans;fill:#555;" text-anchor="middle" x="0" y="-6.000000">I477V</text></g><line x1="504.901639" x2="504.901639" y1="59.000000" y2="99.500000" stroke="#BABDB6" stroke-width="2"/><a xlink:title="P482P"><circle cx="504.901639" cy="59.000000" r="4.000000" fill="#0000ff" /></a><g transform="translate(504.901639,59.000000) rotate(-30)"><text style="font-size:10px;font-family:OpenSans;fill:#555;" text-anchor="middle" x="0" y="-6.000000">P482P</text></g><line x1="505.918033" x2="505.918033" y1="71.500000" y2="99.500000" stroke="#BABDB6" stroke-width="2"/><a xlink:title="P483P"><circle cx="505.918033" cy="71.500000" r="4.000000" fill="#0000ff" /></a><g transform="translate(505.918033,71.500000) rotate(-30)"><text style="font-size:10px;font-family:OpenSans;fill:#555;" text-anchor="middle" x="0" y="-6.000000">P483P</text></g><line x1="515.065574" x2="515.065574" y1="71.500000" y2="99.500000" stroke="#BABDB6" stroke-width="2"/><a xlink:title="M492L"><circle cx="515.065574" cy="71.500000" r="4.000000" fill="#ff0000" /></a><g transform="translate(515.065574,71.500000) rotate(-30)"><text style="font-size:10px;font-family:OpenSans;fill:#555;" text-anchor="middle" x="0" y="-6.000000">M492L</text></g><line x1="538.442623" x2="538.442623" y1="71.500000" y2="99.500000" stroke="#BABDB6" stroke-width="2"/><a xlink:title="P515P"><circle cx="538.442623" cy="71.500000" r="4.000000" fill="#0000ff" /></a><g transform="translate(538.442623,71.500000) rotate(-30)"><text style="font-size:10px;font-family:OpenSans;fill:#555;" text-anchor="middle" x="0" y="-6.000000">P515P</text></g><line x1="554.704918" x2="554.704918" y1="59.000000" y2="99.500000" stroke="#BABDB6" stroke-width="2"/><a xlink:title="V531V"><circle cx="554.704918" cy="59.000000" r="4.000000" fill="#0000ff" /></a><g transform="translate(554.704918,59.000000) rotate(-30)"><text style="font-size:10px;font-family:OpenSans;fill:#555;" text-anchor="middle" x="0" y="-6.000000">V531V</text></g><line x1="557.754098" x2="557.754098" y1="71.500000" y2="99.500000" stroke="#BABDB6" stroke-width="2"/><a xlink:title="V534V"><circle cx="557.754098" cy="71.500000" r="4.000000" fill="#0000ff" /></a><g transform="translate(557.754098,71.500000) rotate(-30)"><text style="font-size:10px;font-family:OpenSans;fill:#555;" text-anchor="middle" x="0" y="-6.000000">V534V</text></g><line x1="574.016393" x2="574.016393" y1="59.000000" y2="99.500000" stroke="#BABDB6" stroke-width="2"/><a xlink:title="V550V"><circle cx="574.016393" cy="59.000000" r="4.000000" fill="#0000ff" /></a><g transform="translate(574.016393,59.000000) rotate(-30)"><text style="font-size:10px;font-family:OpenSans;fill:#555;" text-anchor="middle" x="0" y="-6.000000">V550V</text></g><line x1="575.032787" x2="575.032787" y1="71.500000" y2="99.500000" stroke="#BABDB6" stroke-width="2"/><a xlink:title="S551S"><circle cx="575.032787" cy="71.500000" r="4.000000" fill="#0000ff" /></a><g transform="translate(575.032787,71.500000) rotate(-30)"><text style="font-size:10px;font-family:OpenSans;fill:#555;" text-anchor="middle" x="0" y="-6.000000">S551S</text></g><line x1="617.721311" x2="617.721311" y1="59.000000" y2="99.500000" stroke="#BABDB6" stroke-width="2"/><a xlink:title="P593P"><circle cx="617.721311" cy="59.000000" r="4.000000" fill="#0000ff" /></a><g transform="translate(617.721311,59.000000) rotate(-30)"><text style="font-size:10px;font-family:OpenSans;fill:#555;" text-anchor="middle" x="0" y="-6.000000">P593P</text></g><line x1="618.737705" x2="618.737705" y1="71.500000" y2="99.500000" stroke="#BABDB6" stroke-width="2"/><a xlink:title="P594P"><circle cx="618.737705" cy="71.500000" r="4.000000" fill="#0000ff" /></a><g transform="translate(618.737705,71.500000) rotate(-30)"><text style="font-size:10px;font-family:OpenSans;fill:#555;" text-anchor="middle" x="0" y="-6.000000">P594P</text></g><line x1="633.983607" x2="633.983607" y1="71.500000" y2="99.500000" stroke="#BABDB6" stroke-width="2"/><a xlink:title="P609P"><circle cx="633.983607" cy="71.500000" r="4.000000" fill="#0000ff" /></a><g transform="translate(633.983607,71.500000) rotate(-30)"><text style="font-size:10px;font-family:OpenSans;fill:#555;" text-anchor="middle" x="0" y="-6.000000">P609P</text></g><line x1="650.245902" x2="650.245902" y1="71.500000" y2="99.500000" stroke="#BABDB6" stroke-width="2"/><a xlink:title="E625G"><circle cx="650.245902" cy="71.500000" r="4.000000" fill="#ff0000" /></a><g transform="translate(650.245902,71.500000) rotate(-30)"><text style="font-size:10px;font-family:OpenSans;fill:#555;" text-anchor="middle" x="0" y="-6.000000">E625G</text></g><line x1="666.508197" x2="666.508197" y1="59.000000" y2="99.500000" stroke="#BABDB6" stroke-width="2"/><a xlink:title="E641G"><circle cx="666.508197" cy="59.000000" r="4.000000" fill="#ff0000" /></a><g transform="translate(666.508197,59.000000) rotate(-30)"><text style="font-size:10px;font-family:OpenSans;fill:#555;" text-anchor="middle" x="0" y="-6.000000">E641G</text></g><line x1="666.508197" x2="666.508197" y1="71.500000" y2="99.500000" stroke="#BABDB6" stroke-width="2"/><a xlink:title="P641P"><circle cx="666.508197" cy="71.500000" r="4.000000" fill="#0000ff" /></a><g transform="translate(666.508197,71.500000) rotate(-30)"><text style="font-size:10px;font-family:OpenSans;fill:#555;" text-anchor="middle" x="0" y="-6.000000">P641P</text></g><line x1="679.721311" x2="679.721311" y1="59.000000" y2="99.500000" stroke="#BABDB6" stroke-width="2"/><a xlink:title="S654S"><circle cx="679.721311" cy="59.000000" r="4.000000" fill="#0000ff" /></a><g transform="translate(679.721311,59.000000) rotate(-30)"><text style="font-size:10px;font-family:OpenSans;fill:#555;" text-anchor="middle" x="0" y="-6.000000">S654S</text></g><line x1="682.770492" x2="682.770492" y1="71.500000" y2="99.500000" stroke="#BABDB6" stroke-width="2"/><a xlink:title="S657S"><circle cx="682.770492" cy="71.500000" r="4.000000" fill="#0000ff" /></a><g transform="translate(682.770492,71.500000) rotate(-30)"><text style="font-size:10px;font-family:OpenSans;fill:#555;" text-anchor="middle" x="0" y="-6.000000">S657S</text></g><line x1="699.032787" x2="699.032787" y1="59.000000" y2="99.500000" stroke="#BABDB6" stroke-width="2"/><a xlink:title="E673G"><circle cx="699.032787" cy="59.000000" r="4.000000" fill="#ff0000" /></a><g transform="translate(699.032787,59.000000) rotate(-30)"><text style="font-size:10px;font-family:OpenSans;fill:#555;" text-anchor="middle" x="0" y="-6.000000">E673G</text></g><line x1="699.032787" x2="699.032787" y1="71.500000" y2="99.500000" stroke="#BABDB6" stroke-width="2"/><a xlink:title="S673S"><circle cx="699.032787" cy="71.500000" r="4.000000" fill="#0000ff" /></a><g transform="translate(699.032787,71.500000) rotate(-30)"><text style="font-size:10px;font-family:OpenSans;fill:#555;" text-anchor="middle" x="0" y="-6.000000">S673S</text></g><line x1="723.426230" x2="723.426230" y1="59.000000" y2="99.500000" stroke="#BABDB6" stroke-width="2"/><a xlink:title="P697P"><circle cx="723.426230" cy="59.000000" r="4.000000" fill="#0000ff" /></a><g transform="translate(723.426230,59.000000) rotate(-30)"><text style="font-size:10px;font-family:OpenSans;fill:#555;" text-anchor="middle" x="0" y="-6.000000">P697P</text></g><line x1="726.475410" x2="726.475410" y1="71.500000" y2="99.500000" stroke="#BABDB6" stroke-width="2"/><a xlink:title="P700P"><circle cx="726.475410" cy="71.500000" r="4.000000" fill="#0000ff" /></a><g transform="translate(726.475410,71.500000) rotate(-30)"><text style="font-size:10px;font-family:OpenSans;fill:#555;" text-anchor="middle" x="0" y="-6.000000">P700P</text></g><line x1="742.737705" x2="742.737705" y1="59.000000" y2="99.500000" stroke="#BABDB6" stroke-width="2"/><a xlink:title="P716P"><circle cx="742.737705" cy="59.000000" r="4.000000" fill="#0000ff" /></a><g transform="translate(742.737705,59.000000) rotate(-30)"><text style="font-size:10px;font-family:OpenSans;fill:#555;" text-anchor="middle" x="0" y="-6.000000">P716P</text></g><line x1="746.803279" x2="746.803279" y1="71.500000" y2="99.500000" stroke="#BABDB6" stroke-width="2"/><a xlink:title="P720P"><circle cx="746.803279" cy="71.500000" r="4.000000" fill="#0000ff" /></a><g transform="translate(746.803279,71.500000) rotate(-30)"><text style="font-size:10px;font-family:OpenSans;fill:#555;" text-anchor="middle" x="0" y="-6.000000">P720P</text></g><line x1="779.327869" x2="779.327869" y1="71.500000" y2="99.500000" stroke="#BABDB6" stroke-width="2"/><a xlink:title="E752G"><circle cx="779.327869" cy="71.500000" r="4.000000" fill="#ff0000" /></a><g transform="translate(779.327869,71.500000) rotate(-30)"><text style="font-size:10px;font-family:OpenSans;fill:#555;" text-anchor="middle" x="0" y="-6.000000">E752G</text></g><line x1="851.491803" x2="851.491803" y1="59.000000" y2="99.500000" stroke="#BABDB6" stroke-width="2"/><a xlink:title="P823P"><circle cx="851.491803" cy="59.000000" r="4.000000" fill="#0000ff" /></a><g transform="translate(851.491803,59.000000) rotate(-30)"><text style="font-size:10px;font-family:OpenSans;fill:#555;" text-anchor="middle" x="0" y="-6.000000">P823P</text></g><line x1="854.540984" x2="854.540984" y1="71.500000" y2="99.500000" stroke="#BABDB6" stroke-width="2"/><a xlink:title="P826P"><circle cx="854.540984" cy="71.500000" r="4.000000" fill="#0000ff" /></a><g transform="translate(854.540984,71.500000) rotate(-30)"><text style="font-size:10px;font-family:OpenSans;fill:#555;" text-anchor="middle" x="0" y="-6.000000">P826P</text></g><line x1="870.803279" x2="870.803279" y1="71.500000" y2="99.500000" stroke="#BABDB6" stroke-width="2"/><a xlink:title="P842P"><circle cx="870.803279" cy="71.500000" r="4.000000" fill="#0000ff" /></a><g transform="translate(870.803279,71.500000) rotate(-30)"><text style="font-size:10px;font-family:OpenSans;fill:#555;" text-anchor="middle" x="0" y="-6.000000">P842P</text></g><line x1="884.016393" x2="884.016393" y1="59.000000" y2="99.500000" stroke="#BABDB6" stroke-width="2"/><a xlink:title="E855G"><circle cx="884.016393" cy="59.000000" r="4.000000" fill="#ff0000" /></a><g transform="translate(884.016393,59.000000) rotate(-30)"><text style="font-size:10px;font-family:OpenSans;fill:#555;" text-anchor="middle" x="0" y="-6.000000">E855G</text></g><line x1="887.065574" x2="887.065574" y1="71.500000" y2="99.500000" stroke="#BABDB6" stroke-width="2"/><a xlink:title="E858G"><circle cx="887.065574" cy="71.500000" r="4.000000" fill="#ff0000" /></a><g transform="translate(887.065574,71.500000) rotate(-30)"><text style="font-size:10px;font-family:OpenSans;fill:#555;" text-anchor="middle" x="0" y="-6.000000">E858G</text></g><line x1="903.327869" x2="903.327869" y1="71.500000" y2="99.500000" stroke="#BABDB6" stroke-width="2"/><a xlink:title="E874G"><circle cx="903.327869" cy="71.500000" r="4.000000" fill="#ff0000" /></a><g transform="translate(903.327869,71.500000) rotate(-30)"><text style="font-size:10px;font-family:OpenSans;fill:#555;" text-anchor="middle" x="0" y="-6.000000">E874G</text></g><line x1="1120.836066" x2="1120.836066" y1="71.500000" y2="99.500000" stroke="#BABDB6" stroke-width="2"/><a xlink:title="L1088L"><circle cx="1120.836066" cy="71.500000" r="4.000000" fill="#0000ff" /></a><g transform="translate(1120.836066,71.500000) rotate(-30)"><text style="font-size:10px;font-family:OpenSans;fill:#555;" text-anchor="middle" x="0" y="-6.000000">L1088L</text></g><line x1="1129.983607" x2="1129.983607" y1="71.500000" y2="99.500000" stroke="#BABDB6" stroke-width="2"/><a xlink:title="Y1097Y"><circle cx="1129.983607" cy="71.500000" r="4.000000" fill="#0000ff" /></a><g transform="translate(1129.983607,71.500000) rotate(-30)"><text style="font-size:10px;font-family:OpenSans;fill:#555;" text-anchor="middle" x="0" y="-6.000000">Y1097Y</text></g><line x1="1137.098361" x2="1137.098361" y1="71.500000" y2="99.500000" stroke="#BABDB6" stroke-width="2"/><a xlink:title="L1104L"><circle cx="1137.098361" cy="71.500000" r="4.000000" fill="#0000ff" /></a><g transform="translate(1137.098361,71.500000) rotate(-30)"><text style="font-size:10px;font-family:OpenSans;fill:#555;" text-anchor="middle" x="0" y="-6.000000">L1104L</text></g><line x1="1146.245902" x2="1146.245902" y1="71.500000" y2="99.500000" stroke="#BABDB6" stroke-width="2"/><a xlink:title="Y1113Y"><circle cx="1146.245902" cy="71.500000" r="4.000000" fill="#0000ff" /></a><g transform="translate(1146.245902,71.500000) rotate(-30)"><text style="font-size:10px;font-family:OpenSans;fill:#555;" text-anchor="middle" x="0" y="-6.000000">Y1113Y</text></g><line x1="1169.622951" x2="1169.622951" y1="59.000000" y2="99.500000" stroke="#BABDB6" stroke-width="2"/><a xlink:title="A1136A"><circle cx="1169.622951" cy="59.000000" r="4.000000" fill="#0000ff" /></a><g transform="translate(1169.622951,59.000000) rotate(-30)"><text style="font-size:10px;font-family:OpenSans;fill:#555;" text-anchor="middle" x="0" y="-6.000000">A1136A</text></g><line x1="1169.622951" x2="1169.622951" y1="71.500000" y2="99.500000" stroke="#BABDB6" stroke-width="2"/><a xlink:title="L1136L"><circle cx="1169.622951" cy="71.500000" r="4.000000" fill="#0000ff" /></a><g transform="translate(1169.622951,71.500000) rotate(-30)"><text style="font-size:10px;font-family:OpenSans;fill:#555;" text-anchor="middle" x="0" y="-6.000000">L1136L</text></g><line x1="1178.770492" x2="1178.770492" y1="71.500000" y2="99.500000" stroke="#BABDB6" stroke-width="2"/><a xlink:title="Y1145Y"><circle cx="1178.770492" cy="71.500000" r="4.000000" fill="#0000ff" /></a><g transform="translate(1178.770492,71.500000) rotate(-30)"><text style="font-size:10px;font-family:OpenSans;fill:#555;" text-anchor="middle" x="0" y="-6.000000">Y1145Y</text></g><line x1="1185.885246" x2="1185.885246" y1="71.500000" y2="99.500000" stroke="#BABDB6" stroke-width="2"/><a xlink:title="A1152A"><circle cx="1185.885246" cy="71.500000" r="4.000000" fill="#0000ff" /></a><g transform="translate(1185.885246,71.500000) rotate(-30)"><text style="font-size:10px;font-family:OpenSans;fill:#555;" text-anchor="middle" x="0" y="-6.000000">A1152A</text></g><line x1="1218.409836" x2="1218.409836" y1="71.500000" y2="99.500000" stroke="#BABDB6" stroke-width="2"/><a xlink:title="A1184A"><circle cx="1218.409836" cy="71.500000" r="4.000000" fill="#0000ff" /></a><g transform="translate(1218.409836,71.500000) rotate(-30)"><text style="font-size:10px;font-family:OpenSans;fill:#555;" text-anchor="middle" x="0" y="-6.000000">A1184A</text></g><line x1="1249.918033" x2="1249.918033" y1="71.500000" y2="99.500000" stroke="#BABDB6" stroke-width="2"/><a xlink:title="L1215L"><circle cx="1249.918033" cy="71.500000" r="4.000000" fill="#0000ff" /></a><g transform="translate(1249.918033,71.500000) rotate(-30)"><text style="font-size:10px;font-family:OpenSans;fill:#555;" text-anchor="middle" x="0" y="-6.000000">L1215L</text></g><line x1="1259.065574" x2="1259.065574" y1="71.500000" y2="99.500000" stroke="#BABDB6" stroke-width="2"/><a xlink:title="Y1224Y"><circle cx="1259.065574" cy="71.500000" r="4.000000" fill="#0000ff" /></a><g transform="translate(1259.065574,71.500000) rotate(-30)"><text style="font-size:10px;font-family:OpenSans;fill:#555;" text-anchor="middle" x="0" y="-6.000000">Y1224Y</text></g><line x1="1298.704918" x2="1298.704918" y1="71.500000" y2="99.500000" stroke="#BABDB6" stroke-width="2"/><a xlink:title="A1263A"><circle cx="1298.704918" cy="71.500000" r="4.000000" fill="#0000ff" /></a><g transform="translate(1298.704918,71.500000) rotate(-30)"><text style="font-size:10px;font-family:OpenSans;fill:#555;" text-anchor="middle" x="0" y="-6.000000">A1263A</text></g><line x1="1354.606557" x2="1354.606557" y1="59.000000" y2="99.500000" stroke="#BABDB6" stroke-width="2"/><a xlink:title="L1318L"><circle cx="1354.606557" cy="59.000000" r="4.000000" fill="#0000ff" /></a><g transform="translate(1354.606557,59.000000) rotate(-30)"><text style="font-size:10px;font-family:OpenSans;fill:#555;" text-anchor="middle" x="0" y="-6.000000">L1318L</text></g><line x1="1357.655738" x2="1357.655738" y1="71.500000" y2="99.500000" stroke="#BABDB6" stroke-width="2"/><a xlink:title="L1321L"><circle cx="1357.655738" cy="71.500000" r="4.000000" fill="#0000ff" /></a><g transform="translate(1357.655738,71.500000) rotate(-30)"><text style="font-size:10px;font-family:OpenSans;fill:#555;" text-anchor="middle" x="0" y="-6.000000">L1321L</text></g><line x1="1363.754098" x2="1363.754098" y1="59.000000" y2="99.500000" stroke="#BABDB6" stroke-width="2"/><a xlink:title="Y1327Y"><circle cx="1363.754098" cy="59.000000" r="4.000000" fill="#0000ff" /></a><g transform="translate(1363.754098,59.000000) rotate(-30)"><text style="font-size:10px;font-family:OpenSans;fill:#555;" text-anchor="middle" x="0" y="-6.000000">Y1327Y</text></g><line x1="1366.803279" x2="1366.803279" y1="59.000000" y2="99.500000" stroke="#BABDB6" stroke-width="2"/><a xlink:title="Y1330Y"><circle cx="1366.803279" cy="59.000000" r="4.000000" fill="#0000ff" /></a><g transform="translate(1366.803279,59.000000) rotate(-30)"><text style="font-size:10px;font-family:OpenSans;fill:#555;" text-anchor="middle" x="0" y="-6.000000">Y1330Y</text></g><line x1="1369.852459" x2="1369.852459" y1="59.000000" y2="99.500000" stroke="#BABDB6" stroke-width="2"/><a xlink:title="L1333L"><circle cx="1369.852459" cy="59.000000" r="4.000000" fill="#0000ff" /></a><g transform="translate(1369.852459,59.000000) rotate(-30)"><text style="font-size:10px;font-family:OpenSans;fill:#555;" text-anchor="middle" x="0" y="-6.000000">L1333L</text></g><line x1="1373.918033" x2="1373.918033" y1="59.000000" y2="99.500000" stroke="#BABDB6" stroke-width="2"/><a xlink:title="L1337L"><circle cx="1373.918033" cy="59.000000" r="4.000000" fill="#0000ff" /></a><g transform="translate(1373.918033,59.000000) rotate(-30)"><text style="font-size:10px;font-family:OpenSans;fill:#555;" text-anchor="middle" x="0" y="-6.000000">L1337L</text></g><line x1="1379.000000" x2="1379.000000" y1="59.000000" y2="99.500000" stroke="#BABDB6" stroke-width="2"/><a xlink:title="Y1342Y"><circle cx="1379.000000" cy="59.000000" r="4.000000" fill="#0000ff" /></a><g transform="translate(1379.000000,59.000000) rotate(-30)"><text style="font-size:10px;font-family:OpenSans;fill:#555;" text-anchor="middle" x="0" y="-6.000000">Y1342Y</text></g><line x1="1383.065574" x2="1383.065574" y1="71.500000" y2="99.500000" stroke="#BABDB6" stroke-width="2"/><a xlink:title="Y1346Y"><circle cx="1383.065574" cy="71.500000" r="4.000000" fill="#0000ff" /></a><g transform="translate(1383.065574,71.500000) rotate(-30)"><text style="font-size:10px;font-family:OpenSans;fill:#555;" text-anchor="middle" x="0" y="-6.000000">Y1346Y</text></g><line x1="1403.393443" x2="1403.393443" y1="59.000000" y2="99.500000" stroke="#BABDB6" stroke-width="2"/><a xlink:title="A1366A"><circle cx="1403.393443" cy="59.000000" r="4.000000" fill="#0000ff" /></a><g transform="translate(1403.393443,59.000000) rotate(-30)"><text style="font-size:10px;font-family:OpenSans;fill:#555;" text-anchor="middle" x="0" y="-6.000000">A1366A</text></g><line x1="1406.442623" x2="1406.442623" y1="71.500000" y2="99.500000" stroke="#BABDB6" stroke-width="2"/><a xlink:title="A1369A"><circle cx="1406.442623" cy="71.500000" r="4.000000" fill="#0000ff" /></a><g transform="translate(1406.442623,71.500000) rotate(-30)"><text style="font-size:10px;font-family:OpenSans;fill:#555;" text-anchor="middle" x="0" y="-6.000000">A1369A</text></g><line x1="1418.639344" x2="1418.639344" y1="59.000000" y2="99.500000" stroke="#BABDB6" stroke-width="2"/><a xlink:title="A1381A"><circle cx="1418.639344" cy="59.000000" r="4.000000" fill="#0000ff" /></a><g transform="translate(1418.639344,59.000000) rotate(-30)"><text style="font-size:10px;font-family:OpenSans;fill:#555;" text-anchor="middle" x="0" y="-6.000000">A1381A</text></g><line x1="1422.704918" x2="1422.704918" y1="71.500000" y2="99.500000" stroke="#BABDB6" stroke-width="2"/><a xlink:title="A1385A"><circle cx="1422.704918" cy="71.500000" r="4.000000" fill="#0000ff" /></a><g transform="translate(1422.704918,71.500000) rotate(-30)"><text style="font-size:10px;font-family:OpenSans;fill:#555;" text-anchor="middle" x="0" y="-6.000000">A1385A</text></g><a xlink:title=",  (1406aa)"><rect fill="#BABDB6" x="15.000000" y="99.500000" width="1429.049180" height="14.000000"/></a><g transform="translate(127.819672,94.500000)"><a xlink:href="https://www.ebi.ac.uk/interpro/entry/pfam/PF12394" xlink:title="Protein FAM135"><rect fill="#2DCF00" x="0" y="0" width="62.000000" height="24.000000" filter="url(#ds)"/><text style="font-size:12px;font-family:OpenSans;fill:#ffffff;" text-anchor="middle" x="31.000000" y="16.000000">DUF3657</text></a></g>
<g transform="translate(1170.639344,94.500000)"><a xlink:href="https://www.ebi.ac.uk/interpro/entry/pfam/PF05057" xlink:title="Putative serine esterase (DUF676)"><rect fill="#FF5353" x="0" y="0" width="196.163934" height="24.000000" filter="url(#ds)"/><text style="font-size:12px;font-family:OpenSans;fill:#ffffff;" text-anchor="middle" x="98.081967" y="16.000000">Putative serine esterase (DUF676)</text></a></g>
<g class="axis">
<line x1="15.000000" x2="1444.049180" y1="128.500000" y2="128.500000" stroke="#AAAAAA" /><line x1="15.000000" x2="15.000000" y1="128.500000" y2="133.500000" stroke="#AAAAAA" /><line x1="23.131148" x2="23.131148" y1="128.500000" y2="133.500000" stroke="#AAAAAA" /><text style="font-size:10px;font-family:OpenSans;fill:#000000;" text-anchor="middle" x="23.131148" y="143.500000">8</text><line x1="127.819672" x2="127.819672" y1="128.500000" y2="133.500000" stroke="#AAAAAA" /><text style="font-size:10px;font-family:OpenSans;fill:#000000;" text-anchor="middle" x="127.819672" y="143.500000">111</text><line x1="189.819672" x2="189.819672" y1="128.500000" y2="133.500000" stroke="#AAAAAA" /><text style="font-size:10px;font-family:OpenSans;fill:#000000;" text-anchor="middle" x="189.819672" y="143.500000">172</text><line x1="246.737705" x2="246.737705" y1="128.500000" y2="133.500000" stroke="#AAAAAA" /><text style="font-size:10px;font-family:OpenSans;fill:#000000;" text-anchor="middle" x="246.737705" y="143.500000">228</text><line x1="268.081967" x2="268.081967" y1="128.500000" y2="133.500000" stroke="#AAAAAA" /><text style="font-size:10px;font-family:OpenSans;fill:#000000;" text-anchor="middle" x="268.081967" y="143.500000">249</text><line x1="295.524590" x2="295.524590" y1="128.500000" y2="133.500000" stroke="#AAAAAA" /><text style="font-size:10px;font-family:OpenSans;fill:#000000;" text-anchor="middle" x="295.524590" y="143.500000">276</text><line x1="320.934426" x2="320.934426" y1="128.500000" y2="133.500000" stroke="#AAAAAA" /><text style="font-size:10px;font-family:OpenSans;fill:#000000;" text-anchor="middle" x="320.934426" y="143.500000">301</text><line x1="369.721311" x2="369.721311" y1="128.500000" y2="133.500000" stroke="#AAAAAA" /><text style="font-size:10px;font-family:OpenSans;fill:#000000;" text-anchor="middle" x="369.721311" y="143.500000">349</text><line x1="391.065574" x2="391.065574" y1="128.500000" y2="133.500000" stroke="#AAAAAA" /><text style="font-size:10px;font-family:OpenSans;fill:#000000;" text-anchor="middle" x="391.065574" y="143.500000">370</text><line x1="445.950820" x2="445.950820" y1="128.500000" y2="133.500000" stroke="#AAAAAA" /><text style="font-size:10px;font-family:OpenSans;fill:#000000;" text-anchor="middle" x="445.950820" y="143.500000">424</text><line x1="480.508197" x2="480.508197" y1="128.500000" y2="133.500000" stroke="#AAAAAA" /><text style="font-size:10px;font-family:OpenSans;fill:#000000;" text-anchor="middle" x="480.508197" y="143.500000">458</text><line x1="499.819672" x2="499.819672" y1="128.500000" y2="133.500000" stroke="#AAAAAA" /><text style="font-size:10px;font-family:OpenSans;fill:#000000;" text-anchor="middle" x="499.819672" y="143.500000">477</text><line x1="538.442623" x2="538.442623" y1="128.500000" y2="133.500000" stroke="#AAAAAA" /><text style="font-size:10px;font-family:OpenSans;fill:#000000;" text-anchor="middle" x="538.442623" y="143.500000">515</text><line x1="557.754098" x2="557.754098" y1="128.500000" y2="133.500000" stroke="#AAAAAA" /><text style="font-size:10px;font-family:OpenSans;fill:#000000;" text-anchor="middle" x="557.754098" y="143.500000">534</text><line x1="617.721311" x2="617.721311" y1="128.500000" y2="133.500000" stroke="#AAAAAA" /><text style="font-size:10px;font-family:OpenSans;fill:#000000;" text-anchor="middle" x="617.721311" y="143.500000">593</text><line x1="650.245902" x2="650.245902" y1="128.500000" y2="133.500000" stroke="#AAAAAA" /><text style="font-size:10px;font-family:OpenSans;fill:#000000;" text-anchor="middle" x="650.245902" y="143.500000">625</text><line x1="679.721311" x2="679.721311" y1="128.500000" y2="133.500000" stroke="#AAAAAA" /><text style="font-size:10px;font-family:OpenSans;fill:#000000;" text-anchor="middle" x="679.721311" y="143.500000">654</text><line x1="699.032787" x2="699.032787" y1="128.500000" y2="133.500000" stroke="#AAAAAA" /><text style="font-size:10px;font-family:OpenSans;fill:#000000;" text-anchor="middle" x="699.032787" y="143.500000">673</text><line x1="723.426230" x2="723.426230" y1="128.500000" y2="133.500000" stroke="#AAAAAA" /><text style="font-size:10px;font-family:OpenSans;fill:#000000;" text-anchor="middle" x="723.426230" y="143.500000">697</text><line x1="742.737705" x2="742.737705" y1="128.500000" y2="133.500000" stroke="#AAAAAA" /><text style="font-size:10px;font-family:OpenSans;fill:#000000;" text-anchor="middle" x="742.737705" y="143.500000">716</text><line x1="779.327869" x2="779.327869" y1="128.500000" y2="133.500000" stroke="#AAAAAA" /><text style="font-size:10px;font-family:OpenSans;fill:#000000;" text-anchor="middle" x="779.327869" y="143.500000">752</text><line x1="851.491803" x2="851.491803" y1="128.500000" y2="133.500000" stroke="#AAAAAA" /><text style="font-size:10px;font-family:OpenSans;fill:#000000;" text-anchor="middle" x="851.491803" y="143.500000">823</text><line x1="870.803279" x2="870.803279" y1="128.500000" y2="133.500000" stroke="#AAAAAA" /><text style="font-size:10px;font-family:OpenSans;fill:#000000;" text-anchor="middle" x="870.803279" y="143.500000">842</text><line x1="903.327869" x2="903.327869" y1="128.500000" y2="133.500000" stroke="#AAAAAA" /><text style="font-size:10px;font-family:OpenSans;fill:#000000;" text-anchor="middle" x="903.327869" y="143.500000">874</text><line x1="1120.836066" x2="1120.836066" y1="128.500000" y2="133.500000" stroke="#AAAAAA" /><text style="font-size:10px;font-family:OpenSans;fill:#000000;" text-anchor="middle" x="1120.836066" y="143.500000">1088</text><line x1="1146.245902" x2="1146.245902" y1="128.500000" y2="133.500000" stroke="#AAAAAA" /><text style="font-size:10px;font-family:OpenSans;fill:#000000;" text-anchor="middle" x="1146.245902" y="143.500000">1113</text><line x1="1169.622951" x2="1169.622951" y1="128.500000" y2="133.500000" stroke="#AAAAAA" /><text style="font-size:10px;font-family:OpenSans;fill:#000000;" text-anchor="middle" x="1169.622951" y="143.500000">1136</text><line x1="1218.409836" x2="1218.409836" y1="128.500000" y2="133.500000" stroke="#AAAAAA" /><text style="font-size:10px;font-family:OpenSans;fill:#000000;" text-anchor="middle" x="1218.409836" y="143.500000">1184</text><line x1="1249.918033" x2="1249.918033" y1="128.500000" y2="133.500000" stroke="#AAAAAA" /><text style="font-size:10px;font-family:OpenSans;fill:#000000;" text-anchor="middle" x="1249.918033" y="143.500000">1215</text><line x1="1298.704918" x2="1298.704918" y1="128.500000" y2="133.500000" stroke="#AAAAAA" /><text style="font-size:10px;font-family:OpenSans;fill:#000000;" text-anchor="middle" x="1298.704918" y="143.500000">1263</text><line x1="1354.606557" x2="1354.606557" y1="128.500000" y2="133.500000" stroke="#AAAAAA" /><text style="font-size:10px;font-family:OpenSans;fill:#000000;" text-anchor="middle" x="1354.606557" y="143.500000">1318</text><line x1="1373.918033" x2="1373.918033" y1="128.500000" y2="133.500000" stroke="#AAAAAA" /><text style="font-size:10px;font-family:OpenSans;fill:#000000;" text-anchor="middle" x="1373.918033" y="143.500000">1337</text><line x1="1403.393443" x2="1403.393443" y1="128.500000" y2="133.500000" stroke="#AAAAAA" /><text style="font-size:10px;font-family:OpenSans;fill:#000000;" text-anchor="middle" x="1403.393443" y="143.500000">1366</text><line x1="1422.704918" x2="1422.704918" y1="128.500000" y2="133.500000" stroke="#AAAAAA" /><text style="font-size:10px;font-family:OpenSans;fill:#000000;" text-anchor="middle" x="1422.704918" y="143.500000">1385</text><line x1="1444.049180" x2="1444.049180" y1="128.500000" y2="133.500000" stroke="#AAAAAA" /><text style="font-size:10px;font-family:OpenSans;fill:#000000;" text-anchor="middle" x="1444.049180" y="143.500000">1406</text></g>
<rect fill="#2DCF00" x="4" y="157.500000" width="12" height="12" filter="url(#ds)"/><text style="font-size:12px;font-family:OpenSans;fill:#000000;" text-anchor="start" x="20" y="169.500000">Protein FAM135</text></svg>
