<?xml version='1.0'?>
<svg xmlns="http://www.w3.org/2000/svg" xmlns:xlink="http://www.w3.org/1999/xlink" width="767.323077" height="171.200000">
<defs>
  <filter id="ds" x="0" y="0">
    <feOffset in="SourceAlpha" dx="2" dy="2" />
    <feComponentTransfer><feFuncA type="linear" slope="0.2"/></feComponentTransfer>
    <feGaussianBlur result="blurOut" stdDeviation="1" />
    <feBlend in="SourceGraphic" in2="blurOut" mode="normal" />
  </filter>
  <pattern id="disordered-hatch" patternUnits="userSpaceOnUse" width="4" height="4">
    <path d="M-1,1 l2,-2 M0,4 l4,-4 M3,5 l2,-2" stroke="#000000" opacity="0.3" />
  </pattern>
</defs>
<line x1="54.107692" x2="54.107692" y1="59.000000" y2="87.000000" stroke="#BABDB6" stroke-width="2"/><a xlink:title="K41E"><circle cx="54.107692" cy="59.000000" r="4.000000" fill="#ff0000" /></a><g transform="translate(54.107692,59.000000) rotate(-30)"><text style="font-size:10px;font-family:OpenSans;fill:#555;" text-anchor="middle" x="0" y="-6.000000">K41E</text></g><line x1="67.461538" x2="67.461538" y1="59.000000" y2="87.000000" stroke="#BABDB6" stroke-width="2"/><a xlink:title="L55L"><circle cx="67.461538" cy="59.000000" r="4.000000" fill="#0000ff" /></a><g transform="translate(67.461538,59.000000) rotate(-30)"><text style="font-size:10px;font-family:OpenSans;fill:#555;" text-anchor="middle" x="0" y="-6.000000">L55L</text></g><line x1="119.923077" x2="119.923077" y1="59.000000" y2="87.000000" stroke="#BABDB6" stroke-width="2"/><a xlink:title="P110S"><circle cx="119.923077" cy="59.000000" r="4.000000" fill="#ff0000" /></a><g transform="translate(119.923077,59.000000) rotate(-30)"><text style="font-size:10px;font-family:OpenSans;fill:#555;" text-anchor="middle" x="0" y="-6.000000">P110S</text></g><line x1="135.184615" x2="135.184615" y1="46.500000" y2="87.000000" stroke="#BABDB6" stroke-width="2"/><a xlink:title="P126L"><circle cx="135.184615" cy="46.500000" r="4.000000" fill="#ff0000" /></a><g transform="translate(135.184615,46.500000) rotate(-30)"><text style="font-size:10px;font-family:OpenSans;fill:#555;" text-anchor="middle" x="0" y="-6.000000">P126L</text></g><line x1="140.907692" x2="140.907692" y1="59.000000" y2="87.000000" stroke="#BABDB6" stroke-width="2"/><a xlink:title="G132G"><circle cx="140.907692" cy="59.000000" r="4.000000" fill="#0000ff" /></a><g transform="translate(140.907692,59.000000) rotate(-30)"><text style="font-size:10px;font-family:OpenSans;fill:#555;" text-anchor="middle" x="0" y="-6.000000">G132G</text></g><line x1="151.400000" x2="151.400000" y1="34.000000" y2="87.000000" stroke="#BABDB6" stroke-width="2"/><a xlink:title="N143I"><circle cx="151.400000" cy="34.000000" r="4.000000" fill="#ff0000" /></a><g transform="translate(151.400000,34.000000) rotate(-30)"><text style="font-size:10px;font-family:OpenSans;fill:#555;" text-anchor="middle" x="0" y="-6.000000">N143I</text></g><line x1="154.261538" x2="154.261538" y1="46.500000" y2="87.000000" stroke="#BABDB6" stroke-width="2"/><a xlink:title="K146E"><circle cx="154.261538" cy="46.500000" r="4.000000" fill="#ff0000" /></a><g transform="translate(154.261538,46.500000) rotate(-30)"><text style="font-size:10px;font-family:OpenSans;fill:#555;" text-anchor="middle" x="0" y="-6.000000">K146E</text></g><line x1="156.169231" x2="156.169231" y1="59.000000" y2="87.000000" stroke="#BABDB6" stroke-width="2"/><a xlink:title="G148R"><circle cx="156.169231" cy="59.000000" r="4.000000" fill="#ff0000" /></a><g transform="translate(156.169231,59.000000) rotate(-30)"><text style="font-size:10px;font-family:OpenSans;fill:#555;" text-anchor="middle" x="0" y="-6.000000">G148R</text></g><line x1="219.123077" x2="219.123077" y1="59.000000" y2="87.000000" stroke="#BABDB6" stroke-width="2"/><a xlink:title="H214R"><circle cx="219.123077" cy="59.000000" r="4.000000" fill="#ff0000" /></a><g transform="translate(219.123077,59.000000) rotate(-30)"><text style="font-size:10px;font-family:OpenSans;fill:#555;" text-anchor="middle" x="0" y="-6.000000">H214R</text></g><line x1="229.615385" x2="229.615385" y1="46.500000" y2="87.000000" stroke="#BABDB6" stroke-width="2"/><a xlink:title="S225S"><circle cx="229.615385" cy="46.500000" r="4.000000" fill="#0000ff" /></a><g transform="translate(229.615385,46.500000) rotate(-30)"><text style="font-size:10px;font-family:OpenSans;fill:#555;" text-anchor="middle" x="0" y="-6.000000">S225S</text></g><line x1="231.523077" x2="231.523077" y1="59.000000" y2="87.000000" stroke="#BABDB6" stroke-width="2"/><a xlink:title="H227H"><circle cx="231.523077" cy="59.000000" r="4.000000" fill="#0000ff" /></a><g transform="translate(231.523077,59.000000) rotate(-30)"><text style="font-size:10px;font-family:OpenSans;fill:#555;" text-anchor="middle" x="0" y="-6.000000">H227H</text></g><line x1="244.876923" x2="244.876923" y1="59.000000" y2="87.000000" stroke="#BABDB6" stroke-width="2"/><a xlink:title="P241L"><circle cx="244.876923" cy="59.000000" r="4.000000" fill="#ff0000" /></a><g transform="translate(244.876923,59.000000) rotate(-30)"><text style="font-size:10px;font-family:OpenSans;fill:#555;" text-anchor="middle" x="0" y="-6.000000">P241L</text></g><line x1="323.092308" x2="323.092308" y1="59.000000" y2="87.000000" stroke="#BABDB6" stroke-width="2"/><a xlink:title="K323E"><circle cx="323.092308" cy="59.000000" r="4.000000" fill="#ff0000" /></a><g transform="translate(323.092308,59.000000) rotate(-30)"><text style="font-size:10px;font-family:OpenSans;fill:#555;" text-anchor="middle" x="0" y="-6.000000">K323E</text></g><line x1="331.676923" x2="331.676923" y1="59.000000" y2="87.000000" stroke="#BABDB6" stroke-width="2"/><a xlink:title="K332E"><circle cx="331.676923" cy="59.000000" r="4.000000" fill="#ff0000" /></a><g transform="translate(331.676923,59.000000) rotate(-30)"><text style="font-size:10px;font-family:OpenSans;fill:#555;" text-anchor="middle" x="0" y="-6.000000">K332E</text></g><line x1="362.200000" x2="362.200000" y1="46.500000" y2="87.000000" stroke="#BABDB6" stroke-width="2"/><a xlink:title="R364W"><circle cx="362.200000" cy="46.500000" r="4.000000" fill="#ff0000" /></a><g transform="translate(362.200000,46.500000) rotate(-30)"><text style="font-size:10px;font-family:OpenSans;fill:#555;" text-anchor="middle" x="0" y="-6.000000">R364W</text></g><line x1="367.923077" x2="367.923077" y1="59.000000" y2="87.000000" stroke="#BABDB6" stroke-width="2"/><a xlink:title="L370I"><circle cx="367.923077" cy="59.000000" r="4.000000" fill="#ff0000" /></a><g transform="translate(367.923077,59.000000) rotate(-30)"><text style="font-size:10px;font-family:OpenSans;fill:#555;" text-anchor="middle" x="0" y="-6.000000">L370I</text></g><line x1="423.246154" x2="423.246154" y1="46.500000" y2="87.000000" stroke="#BABDB6" stroke-width="2"/><a xlink:title="K428E"><circle cx="423.246154" cy="46.500000" r="4.000000" fill="#ff0000" /></a><g transform="translate(423.246154,46.500000) rotate(-30)"><text style="font-size:10px;font-family:OpenSans;fill:#555;" text-anchor="middle" x="0" y="-6.000000">K428E</text></g><line x1="426.107692" x2="426.107692" y1="46.500000" y2="87.000000" stroke="#BABDB6" stroke-width="2"/><a xlink:title="R431W"><circle cx="426.107692" cy="46.500000" r="4.000000" fill="#ff0000" /></a><g transform="translate(426.107692,46.500000) rotate(-30)"><text style="font-size:10px;font-family:OpenSans;fill:#555;" text-anchor="middle" x="0" y="-6.000000">R431W</text></g><line x1="431.830769" x2="431.830769" y1="59.000000" y2="87.000000" stroke="#BABDB6" stroke-width="2"/><a xlink:title="K437E"><circle cx="431.830769" cy="59.000000" r="4.000000" fill="#ff0000" /></a><g transform="translate(431.830769,59.000000) rotate(-30)"><text style="font-size:10px;font-family:OpenSans;fill:#555;" text-anchor="middle" x="0" y="-6.000000">K437E</text></g><line x1="488.107692" x2="488.107692" y1="59.000000" y2="87.000000" stroke="#BABDB6" stroke-width="2"/><a xlink:title="H496R"><circle cx="488.107692" cy="59.000000" r="4.000000" fill="#ff0000" /></a><g transform="translate(488.107692,59.000000) rotate(-30)"><text style="font-size:10px;font-family:OpenSans;fill:#555;" text-anchor="middle" x="0" y="-6.000000">H496R</text></g><line x1="496.692308" x2="496.692308" y1="34.000000" y2="87.000000" stroke="#BABDB6" stroke-width="2"/><a xlink:title="H505R"><circle cx="496.692308" cy="34.000000" r="4.000000" fill="#ff0000" /></a><g transform="translate(496.692308,34.000000) rotate(-30)"><text style="font-size:10px;font-family:OpenSans;fill:#555;" text-anchor="middle" x="0" y="-6.000000">H505R</text></g><line x1="498.600000" x2="498.600000" y1="46.500000" y2="87.000000" stroke="#BABDB6" stroke-width="2"/><a xlink:title="S507S"><circle cx="498.600000" cy="46.500000" r="4.000000" fill="#0000ff" /></a><g transform="translate(498.600000,46.500000) rotate(-30)"><text style="font-size:10px;font-family:OpenSans;fill:#555;" text-anchor="middle" x="0" y="-6.000000">S507S</text></g><line x1="500.507692" x2="500.507692" y1="59.000000" y2="87.000000" stroke="#BABDB6" stroke-width="2"/><a xlink:title="H509H"><circle cx="500.507692" cy="59.000000" r="4.000000" fill="#0000ff" /></a><g transform="translate(500.507692,59.000000) rotate(-30)"><text style="font-size:10px;font-family:OpenSans;fill:#555;" text-anchor="middle" x="0" y="-6.000000">H509H</text></g><line x1="507.184615" x2="507.184615" y1="46.500000" y2="87.000000" stroke="#BABDB6" stroke-width="2"/><a xlink:title="S516S"><circle cx="507.184615" cy="46.500000" r="4.000000" fill="#0000ff" /></a><g transform="translate(507.184615,46.500000) rotate(-30)"><text style="font-size:10px;font-family:OpenSans;fill:#555;" text-anchor="middle" x="0" y="-6.000000">S516S</text></g><line x1="509.092308" x2="509.092308" y1="46.500000" y2="87.000000" stroke="#BABDB6" stroke-width="2"/><a xlink:title="H518H"><circle cx="509.092308" cy="46.500000" r="4.000000" fill="#0000ff" /></a><g transform="translate(509.092308,46.500000) rotate(-30)"><text style="font-size:10px;font-family:OpenSans;fill:#555;" text-anchor="middle" x="0" y="-6.000000">H518H</text></g><line x1="513.861538" x2="513.861538" y1="59.000000" y2="87.000000" stroke="#BABDB6" stroke-width="2"/><a xlink:title="P523L"><circle cx="513.861538" cy="59.000000" r="4.000000" fill="#ff0000" /></a><g transform="translate(513.861538,59.000000) rotate(-30)"><text style="font-size:10px;font-family:OpenSans;fill:#555;" text-anchor="middle" x="0" y="-6.000000">P523L</text></g><line x1="522.446154" x2="522.446154" y1="59.000000" y2="87.000000" stroke="#BABDB6" stroke-width="2"/><a xlink:title="P532L"><circle cx="522.446154" cy="59.000000" r="4.000000" fill="#ff0000" /></a><g transform="translate(522.446154,59.000000) rotate(-30)"><text style="font-size:10px;font-family:OpenSans;fill:#555;" text-anchor="middle" x="0" y="-6.000000">P532L</text></g><line x1="631.184615" x2="631.184615" y1="46.500000" y2="87.000000" stroke="#BABDB6" stroke-width="2"/><a xlink:title="R646W"><circle cx="631.184615" cy="46.500000" r="4.000000" fill="#ff0000" /></a><g transform="translate(631.184615,46.500000) rotate(-30)"><text style="font-size:10px;font-family:OpenSans;fill:#555;" text-anchor="middle" x="0" y="-6.000000">R646W</text></g><line x1="636.907692" x2="636.907692" y1="46.500000" y2="87.000000" stroke="#BABDB6" stroke-width="2"/><a xlink:title="L652I"><circle cx="636.907692" cy="46.500000" r="4.000000" fill="#ff0000" /></a><g transform="translate(636.907692,46.500000) rotate(-30)"><text style="font-size:10px;font-family:OpenSans;fill:#555;" text-anchor="middle" x="0" y="-6.000000">L652I</text></g><line x1="639.769231" x2="639.769231" y1="46.500000" y2="87.000000" stroke="#BABDB6" stroke-width="2"/><a xlink:title="R655W"><circle cx="639.769231" cy="46.500000" r="4.000000" fill="#ff0000" /></a><g transform="translate(639.769231,46.500000) rotate(-30)"><text style="font-size:10px;font-family:OpenSans;fill:#555;" text-anchor="middle" x="0" y="-6.000000">R655W</text></g><line x1="645.492308" x2="645.492308" y1="59.000000" y2="87.000000" stroke="#BABDB6" stroke-width="2"/><a xlink:title="L661I"><circle cx="645.492308" cy="59.000000" r="4.000000" fill="#ff0000" /></a><g transform="translate(645.492308,59.000000) rotate(-30)"><text style="font-size:10px;font-family:OpenSans;fill:#555;" text-anchor="middle" x="0" y="-6.000000">L661I</text></g><line x1="695.092308" x2="695.092308" y1="59.000000" y2="87.000000" stroke="#BABDB6" stroke-width="2"/><a xlink:title="R713W"><circle cx="695.092308" cy="59.000000" r="4.000000" fill="#ff0000" /></a><g transform="translate(695.092308,59.000000) rotate(-30)"><text style="font-size:10px;font-family:OpenSans;fill:#555;" text-anchor="middle" x="0" y="-6.000000">R713W</text></g><line x1="703.676923" x2="703.676923" y1="59.000000" y2="87.000000" stroke="#BABDB6" stroke-width="2"/><a xlink:title="R722W"><circle cx="703.676923" cy="59.000000" r="4.000000" fill="#ff0000" /></a><g transform="translate(703.676923,59.000000) rotate(-30)"><text style="font-size:10px;font-family:OpenSans;fill:#555;" text-anchor="middle" x="0" y="-6.000000">R722W</text></g><a xlink:title=",  (773aa)"><rect fill="#BABDB6" x="15.000000" y="87.000000" width="737.323077" height="14.000000"/></a><g transform="translate(293.523077,82.000000)"><a xlink:href="https://www.ebi.ac.uk/interpro/entry/pfam/PF12516" xlink:title="Protein of unknown function (DUF3719)"><rect fill="#2DCF00" x="0" y="0" width="62.000000" height="24.000000" filter="url(#ds)"/><text style="font-size:12px;font-family:OpenSans;fill:#ffffff;" text-anchor="middle" x="31.000000" y="16.000000">DUF3719</text></a></g>
<g class="axis">
<line x1="15.000000" x2="752.323077" y1="116.000000" y2="116.000000" stroke="#AAAAAA" /><line x1="15.000000" x2="15.000000" y1="116.000000" y2="121.000000" stroke="#AAAAAA" /><line x1="15.000000" x2="15.000000" y1="116.000000" y2="121.000000" stroke="#AAAAAA" /><text style="font-size:10px;font-family:OpenSans;fill:#000000;" text-anchor="middle" x="15.000000" y="131.000000">0</text><line x1="54.107692" x2="54.107692" y1="116.000000" y2="121.000000" stroke="#AAAAAA" /><text style="font-size:10px;font-family:OpenSans;fill:#000000;" text-anchor="middle" x="54.107692" y="131.000000">41</text><line x1="119.923077" x2="119.923077" y1="116.000000" y2="121.000000" stroke="#AAAAAA" /><text style="font-size:10px;font-family:OpenSans;fill:#000000;" text-anchor="middle" x="119.923077" y="131.000000">110</text><line x1="140.907692" x2="140.907692" y1="116.000000" y2="121.000000" stroke="#AAAAAA" /><text style="font-size:10px;font-family:OpenSans;fill:#000000;" text-anchor="middle" x="140.907692" y="131.000000">132</text><line x1="219.123077" x2="219.123077" y1="116.000000" y2="121.000000" stroke="#AAAAAA" /><text style="font-size:10px;font-family:OpenSans;fill:#000000;" text-anchor="middle" x="219.123077" y="131.000000">214</text><line x1="244.876923" x2="244.876923" y1="116.000000" y2="121.000000" stroke="#AAAAAA" /><text style="font-size:10px;font-family:OpenSans;fill:#000000;" text-anchor="middle" x="244.876923" y="131.000000">241</text><line x1="293.523077" x2="293.523077" y1="116.000000" y2="121.000000" stroke="#AAAAAA" /><text style="font-size:10px;font-family:OpenSans;fill:#000000;" text-anchor="middle" x="293.523077" y="131.000000">292</text><line x1="323.092308" x2="323.092308" y1="116.000000" y2="121.000000" stroke="#AAAAAA" /><text style="font-size:10px;font-family:OpenSans;fill:#000000;" text-anchor="middle" x="323.092308" y="131.000000">323</text><line x1="362.200000" x2="362.200000" y1="116.000000" y2="121.000000" stroke="#AAAAAA" /><text style="font-size:10px;font-family:OpenSans;fill:#000000;" text-anchor="middle" x="362.200000" y="131.000000">364</text><line x1="423.246154" x2="423.246154" y1="116.000000" y2="121.000000" stroke="#AAAAAA" /><text style="font-size:10px;font-family:OpenSans;fill:#000000;" text-anchor="middle" x="423.246154" y="131.000000">428</text><line x1="488.107692" x2="488.107692" y1="116.000000" y2="121.000000" stroke="#AAAAAA" /><text style="font-size:10px;font-family:OpenSans;fill:#000000;" text-anchor="middle" x="488.107692" y="131.000000">496</text><line x1="507.184615" x2="507.184615" y1="116.000000" y2="121.000000" stroke="#AAAAAA" /><text style="font-size:10px;font-family:OpenSans;fill:#000000;" text-anchor="middle" x="507.184615" y="131.000000">516</text><line x1="631.184615" x2="631.184615" y1="116.000000" y2="121.000000" stroke="#AAAAAA" /><text style="font-size:10px;font-family:OpenSans;fill:#000000;" text-anchor="middle" x="631.184615" y="131.000000">646</text><line x1="695.092308" x2="695.092308" y1="116.000000" y2="121.000000" stroke="#AAAAAA" /><text style="font-size:10px;font-family:OpenSans;fill:#000000;" text-anchor="middle" x="695.092308" y="131.000000">713</text><line x1="752.323077" x2="752.323077" y1="116.000000" y2="121.000000" stroke="#AAAAAA" /><text style="font-size:10px;font-family:OpenSans;fill:#000000;" text-anchor="middle" x="752.323077" y="131.000000">773</text></g>
<rect fill="#2DCF00" x="4" y="145.000000" width="12" height="12" filter="url(#ds)"/><text style="font-size:12px;font-family:OpenSans;fill:#000000;" text-anchor="start" x="20" y="157.000000">Protein of unknown function (DUF3719)</text></svg>
