<?xml version='1.0'?>
<svg xmlns="http://www.w3.org/2000/svg" xmlns:xlink="http://www.w3.org/1999/xlink" width="2125.368421" height="159.400000">
<defs>
  <filter id="ds" x="0" y="0">
    <feOffset in="SourceAlpha" dx="2" dy="2" />
    <feComponentTransfer><feFuncA type="linear" slope="0.2"/></feComponentTransfer>
    <feGaussianBlur result="blurOut" stdDeviation="1" />
    <feBlend in="SourceGraphic" in2="blurOut" mode="normal" />
  </filter>
  <pattern id="disordered-hatch" patternUnits="userSpaceOnUse" width="4" height="4">
    <path d="M-1,1 l2,-2 M0,4 l4,-4 M3,5 l2,-2" stroke="#000000" opacity="0.3" />
  </pattern>
</defs>
<line x1="1017.894737" x2="1017.894737" y1="34.000000" y2="62.000000" stroke="#BABDB6" stroke-width="2"/><a xlink:title="N515S"><circle cx="1017.894737" cy="34.000000" r="4.000000" fill="#ff0000" /></a><g transform="translate(1017.894737,34.000000) rotate(-30)"><text style="font-size:10px;font-family:OpenSans;fill:#555;" text-anchor="middle" x="0" y="-6.000000">N515S</text></g><line x1="1189.263158" x2="1189.263158" y1="34.000000" y2="62.000000" stroke="#BABDB6" stroke-width="2"/><a xlink:title="N603S"><circle cx="1189.263158" cy="34.000000" r="4.000000" fill="#ff0000" /></a><g transform="translate(1189.263158,34.000000) rotate(-30)"><text style="font-size:10px;font-family:OpenSans;fill:#555;" text-anchor="middle" x="0" y="-6.000000">N603S</text></g><line x1="1202.894737" x2="1202.894737" y1="34.000000" y2="62.000000" stroke="#BABDB6" stroke-width="2"/><a xlink:title="N610S"><circle cx="1202.894737" cy="34.000000" r="4.000000" fill="#ff0000" /></a><g transform="translate(1202.894737,34.000000) rotate(-30)"><text style="font-size:10px;font-family:OpenSans;fill:#555;" text-anchor="middle" x="0" y="-6.000000">N610S</text></g><a xlink:title=",  (1076aa)"><rect fill="#BABDB6" x="15.000000" y="62.000000" width="2095.368421" height="14.000000"/></a><g transform="translate(1724.789474,57.000000)"><a xlink:href="https://www.ebi.ac.uk/interpro/entry/pfam/PF13915" xlink:title="Domain of unknown function (DUF4210)"><rect fill="#2DCF00" x="0" y="0" width="111.000000" height="24.000000" filter="url(#ds)"/><text style="font-size:12px;font-family:OpenSans;fill:#ffffff;" text-anchor="middle" x="55.500000" y="16.000000">DUF4210</text></a></g>
<g transform="translate(1997.421053,57.000000)"><a xlink:href="https://www.ebi.ac.uk/interpro/entry/pfam/PF13889" xlink:title="Chromosome segregation during meiosis"><rect fill="#FF5353" x="0" y="0" width="111.000000" height="24.000000" filter="url(#ds)"/><text style="font-size:12px;font-family:OpenSans;fill:#ffffff;" text-anchor="middle" x="55.500000" y="16.000000">Chromosome_seg</text></a></g>
<g class="axis">
<line x1="15.000000" x2="2110.368421" y1="91.000000" y2="91.000000" stroke="#AAAAAA" /><line x1="15.000000" x2="15.000000" y1="91.000000" y2="96.000000" stroke="#AAAAAA" /><line x1="15.000000" x2="15.000000" y1="91.000000" y2="96.000000" stroke="#AAAAAA" /><text style="font-size:10px;font-family:OpenSans;fill:#000000;" text-anchor="middle" x="15.000000" y="106.000000">0</text><line x1="1017.894737" x2="1017.894737" y1="91.000000" y2="96.000000" stroke="#AAAAAA" /><text style="font-size:10px;font-family:OpenSans;fill:#000000;" text-anchor="middle" x="1017.894737" y="106.000000">515</text><line x1="1189.263158" x2="1189.263158" y1="91.000000" y2="96.000000" stroke="#AAAAAA" /><text style="font-size:10px;font-family:OpenSans;fill:#000000;" text-anchor="middle" x="1189.263158" y="106.000000">603</text><line x1="1724.789474" x2="1724.789474" y1="91.000000" y2="96.000000" stroke="#AAAAAA" /><text style="font-size:10px;font-family:OpenSans;fill:#000000;" text-anchor="middle" x="1724.789474" y="106.000000">878</text><line x1="1835.789474" x2="1835.789474" y1="91.000000" y2="96.000000" stroke="#AAAAAA" /><text style="font-size:10px;font-family:OpenSans;fill:#000000;" text-anchor="middle" x="1835.789474" y="106.000000">935</text><line x1="1997.421053" x2="1997.421053" y1="91.000000" y2="96.000000" stroke="#AAAAAA" /><text style="font-size:10px;font-family:OpenSans;fill:#000000;" text-anchor="middle" x="1997.421053" y="106.000000">1018</text><line x1="2110.368421" x2="2110.368421" y1="91.000000" y2="96.000000" stroke="#AAAAAA" /><text style="font-size:10px;font-family:OpenSans;fill:#000000;" text-anchor="middle" x="2110.368421" y="106.000000">1076</text></g>
<rect fill="#2DCF00" x="4" y="120.000000" width="12" height="12" filter="url(#ds)"/><text style="font-size:12px;font-family:OpenSans;fill:#000000;" text-anchor="start" x="20" y="132.000000">Domain of unknown function (DUF4210)</text><rect fill="#FF5353" x="4" y="134.000000" width="12" height="12" filter="url(#ds)"/><text style="font-size:12px;font-family:OpenSans;fill:#000000;" text-anchor="start" x="20" y="146.000000">Chromosome segregation during meiosis</text></svg>
