<?xml version='1.0'?>
<svg xmlns="http://www.w3.org/2000/svg" xmlns:xlink="http://www.w3.org/1999/xlink" width="2952.639344" height="237.900000">
<defs>
  <filter id="ds" x="0" y="0">
    <feOffset in="SourceAlpha" dx="2" dy="2" />
    <feComponentTransfer><feFuncA type="linear" slope="0.2"/></feComponentTransfer>
    <feGaussianBlur result="blurOut" stdDeviation="1" />
    <feBlend in="SourceGraphic" in2="blurOut" mode="normal" />
  </filter>
  <pattern id="disordered-hatch" patternUnits="userSpaceOnUse" width="4" height="4">
    <path d="M-1,1 l2,-2 M0,4 l4,-4 M3,5 l2,-2" stroke="#000000" opacity="0.3" />
  </pattern>
</defs>
<line x1="495.704918" x2="495.704918" y1="34.000000" y2="74.500000" stroke="#BABDB6" stroke-width="2"/><a xlink:title="A413P"><circle cx="495.704918" cy="34.000000" r="4.000000" fill="#ff0000" /></a><g transform="translate(495.704918,34.000000) rotate(-30)"><text style="font-size:10px;font-family:OpenSans;fill:#555;" text-anchor="middle" x="0" y="-6.000000">A413P</text></g><line x1="498.032787" x2="498.032787" y1="46.500000" y2="74.500000" stroke="#BABDB6" stroke-width="2"/><a xlink:title="A415P"><circle cx="498.032787" cy="46.500000" r="4.000000" fill="#ff0000" /></a><g transform="translate(498.032787,46.500000) rotate(-30)"><text style="font-size:10px;font-family:OpenSans;fill:#555;" text-anchor="middle" x="0" y="-6.000000">A415P</text></g><line x1="1431.508197" x2="1431.508197" y1="46.500000" y2="74.500000" stroke="#BABDB6" stroke-width="2"/><a xlink:title="G1217G"><circle cx="1431.508197" cy="46.500000" r="4.000000" fill="#0000ff" /></a><g transform="translate(1431.508197,46.500000) rotate(-30)"><text style="font-size:10px;font-family:OpenSans;fill:#555;" text-anchor="middle" x="0" y="-6.000000">G1217G</text></g><line x1="1741.114754" x2="1741.114754" y1="46.500000" y2="74.500000" stroke="#BABDB6" stroke-width="2"/><a xlink:title="V1483I"><circle cx="1741.114754" cy="46.500000" r="4.000000" fill="#ff0000" /></a><g transform="translate(1741.114754,46.500000) rotate(-30)"><text style="font-size:10px;font-family:OpenSans;fill:#555;" text-anchor="middle" x="0" y="-6.000000">V1483I</text></g><line x1="2348.688525" x2="2348.688525" y1="46.500000" y2="74.500000" stroke="#BABDB6" stroke-width="2"/><a xlink:title="V2005A"><circle cx="2348.688525" cy="46.500000" r="4.000000" fill="#ff0000" /></a><g transform="translate(2348.688525,46.500000) rotate(-30)"><text style="font-size:10px;font-family:OpenSans;fill:#555;" text-anchor="middle" x="0" y="-6.000000">V2005A</text></g><a xlink:title=",  (2511aa)"><rect fill="#BABDB6" x="15.000000" y="74.500000" width="2922.639344" height="14.000000"/></a><g transform="translate(16.163934,69.500000)"><a xlink:href="https://www.ebi.ac.uk/interpro/entry/pfam/PF00109" xlink:title="Beta-ketoacyl synthase, N-terminal domain"><rect fill="#2DCF00" x="0" y="0" width="274.688525" height="24.000000" filter="url(#ds)"/><text style="font-size:12px;font-family:OpenSans;fill:#ffffff;" text-anchor="middle" x="137.344262" y="16.000000">Beta-ketoacyl synthase, N-terminal domain</text></a></g>
<g transform="translate(297.836066,69.500000)"><a xlink:href="https://www.ebi.ac.uk/interpro/entry/pfam/PF02801" xlink:title="Beta-ketoacyl synthase, C-terminal domain"><rect fill="#FF5353" x="0" y="0" width="136.180328" height="24.000000" filter="url(#ds)"/><text style="font-size:12px;font-family:OpenSans;fill:#ffffff;" text-anchor="middle" x="68.090164" y="16.000000">Ketoacyl-synt_C</text></a></g>
<g transform="translate(436.344262,69.500000)"><a xlink:href="https://www.ebi.ac.uk/interpro/entry/pfam/PF16197" xlink:title="Ketoacyl-synthetase C-terminal extension"><rect fill="#5B5BFF" x="0" y="0" width="128.032787" height="24.000000" filter="url(#ds)"/><text style="font-size:12px;font-family:OpenSans;fill:#ffffff;" text-anchor="middle" x="64.016393" y="16.000000">KAsynt_C_assoc</text></a></g>
<g transform="translate(588.819672,69.500000)"><a xlink:href="https://www.ebi.ac.uk/interpro/entry/pfam/PF00698" xlink:title="Acyl transferase domain"><rect fill="#EBD61D" x="0" y="0" width="367.803279" height="24.000000" filter="url(#ds)"/><text style="font-size:12px;font-family:OpenSans;fill:#ffffff;" text-anchor="middle" x="183.901639" y="16.000000">Acyl transferase domain</text></a></g>
<g transform="translate(1027.622951,69.500000)"><a xlink:href="https://www.ebi.ac.uk/interpro/entry/pfam/PF21089" xlink:title="Polyketide synthase dehydratase domain"><rect fill="#BA21E0" x="0" y="0" width="89.622951" height="24.000000" filter="url(#ds)"/><text style="font-size:12px;font-family:OpenSans;fill:#ffffff;" text-anchor="middle" x="44.811475" y="16.000000">PKS_DH_N</text></a></g>
<g transform="translate(1462.934426,69.500000)"><a xlink:href="https://www.ebi.ac.uk/interpro/entry/pfam/PF08242" xlink:title="Methyltransferase domain"><rect fill="#FF9C42" x="0" y="0" width="114.065574" height="24.000000" filter="url(#ds)"/><text style="font-size:12px;font-family:OpenSans;fill:#ffffff;" text-anchor="middle" x="57.032787" y="16.000000">Methyltransf_12</text></a></g>
<g transform="translate(1670.114754,69.500000)"><a xlink:href="https://www.ebi.ac.uk/interpro/entry/pfam/PF21149" xlink:title="Fatty acid synthase, pseudo-KR domain"><rect fill="#FF7DFF" x="0" y="0" width="112.901639" height="24.000000" filter="url(#ds)"/><text style="font-size:12px;font-family:OpenSans;fill:#ffffff;" text-anchor="middle" x="56.450820" y="16.000000">FAS_pseudo-KR</text></a></g>
<g transform="translate(1969.245902,69.500000)"><a xlink:href="https://www.ebi.ac.uk/interpro/entry/pfam/PF00107" xlink:title="Zinc-binding dehydrogenase"><rect fill="#B9264F" x="0" y="0" width="158.295082" height="24.000000" filter="url(#ds)"/><text style="font-size:12px;font-family:OpenSans;fill:#ffffff;" text-anchor="middle" x="79.147541" y="16.000000">ADH_zinc_N</text></a></g>
<g transform="translate(2210.180328,69.500000)"><a xlink:href="https://www.ebi.ac.uk/interpro/entry/pfam/PF08659" xlink:title="KR domain"><rect fill="#BABA21" x="0" y="0" width="207.180328" height="24.000000" filter="url(#ds)"/><text style="font-size:12px;font-family:OpenSans;fill:#ffffff;" text-anchor="middle" x="103.590164" y="16.000000">KR domain</text></a></g>
<g transform="translate(2489.524590,69.500000)"><a xlink:href="https://www.ebi.ac.uk/interpro/entry/pfam/PF00550" xlink:title="Phosphopantetheine attachment site"><rect fill="#C48484" x="0" y="0" width="71.000000" height="24.000000" filter="url(#ds)"/><text style="font-size:12px;font-family:OpenSans;fill:#ffffff;" text-anchor="middle" x="35.500000" y="16.000000">PP-binding</text></a></g>
<g transform="translate(2624.540984,69.500000)"><a xlink:href="https://www.ebi.ac.uk/interpro/entry/pfam/PF00975" xlink:title="Thioesterase domain"><rect fill="#1F88A7" x="0" y="0" width="300.295082" height="24.000000" filter="url(#ds)"/><text style="font-size:12px;font-family:OpenSans;fill:#ffffff;" text-anchor="middle" x="150.147541" y="16.000000">Thioesterase domain</text></a></g>
<g class="axis">
<line x1="15.000000" x2="2937.639344" y1="103.500000" y2="103.500000" stroke="#AAAAAA" /><line x1="15.000000" x2="15.000000" y1="103.500000" y2="108.500000" stroke="#AAAAAA" /><line x1="16.163934" x2="16.163934" y1="103.500000" y2="108.500000" stroke="#AAAAAA" /><text style="font-size:10px;font-family:OpenSans;fill:#000000;" text-anchor="middle" x="16.163934" y="118.500000">1</text><line x1="290.852459" x2="290.852459" y1="103.500000" y2="108.500000" stroke="#AAAAAA" /><text style="font-size:10px;font-family:OpenSans;fill:#000000;" text-anchor="middle" x="290.852459" y="118.500000">237</text><line x1="434.016393" x2="434.016393" y1="103.500000" y2="108.500000" stroke="#AAAAAA" /><text style="font-size:10px;font-family:OpenSans;fill:#000000;" text-anchor="middle" x="434.016393" y="118.500000">360</text><line x1="495.704918" x2="495.704918" y1="103.500000" y2="108.500000" stroke="#AAAAAA" /><text style="font-size:10px;font-family:OpenSans;fill:#000000;" text-anchor="middle" x="495.704918" y="118.500000">413</text><line x1="564.377049" x2="564.377049" y1="103.500000" y2="108.500000" stroke="#AAAAAA" /><text style="font-size:10px;font-family:OpenSans;fill:#000000;" text-anchor="middle" x="564.377049" y="118.500000">472</text><line x1="588.819672" x2="588.819672" y1="103.500000" y2="108.500000" stroke="#AAAAAA" /><text style="font-size:10px;font-family:OpenSans;fill:#000000;" text-anchor="middle" x="588.819672" y="118.500000">493</text><line x1="956.622951" x2="956.622951" y1="103.500000" y2="108.500000" stroke="#AAAAAA" /><text style="font-size:10px;font-family:OpenSans;fill:#000000;" text-anchor="middle" x="956.622951" y="118.500000">809</text><line x1="1027.622951" x2="1027.622951" y1="103.500000" y2="108.500000" stroke="#AAAAAA" /><text style="font-size:10px;font-family:OpenSans;fill:#000000;" text-anchor="middle" x="1027.622951" y="118.500000">870</text><line x1="1117.245902" x2="1117.245902" y1="103.500000" y2="108.500000" stroke="#AAAAAA" /><text style="font-size:10px;font-family:OpenSans;fill:#000000;" text-anchor="middle" x="1117.245902" y="118.500000">947</text><line x1="1431.508197" x2="1431.508197" y1="103.500000" y2="108.500000" stroke="#AAAAAA" /><text style="font-size:10px;font-family:OpenSans;fill:#000000;" text-anchor="middle" x="1431.508197" y="118.500000">1217</text><line x1="1462.934426" x2="1462.934426" y1="103.500000" y2="108.500000" stroke="#AAAAAA" /><text style="font-size:10px;font-family:OpenSans;fill:#000000;" text-anchor="middle" x="1462.934426" y="118.500000">1244</text><line x1="1577.000000" x2="1577.000000" y1="103.500000" y2="108.500000" stroke="#AAAAAA" /><text style="font-size:10px;font-family:OpenSans;fill:#000000;" text-anchor="middle" x="1577.000000" y="118.500000">1342</text><line x1="1670.114754" x2="1670.114754" y1="103.500000" y2="108.500000" stroke="#AAAAAA" /><text style="font-size:10px;font-family:OpenSans;fill:#000000;" text-anchor="middle" x="1670.114754" y="118.500000">1422</text><line x1="1741.114754" x2="1741.114754" y1="103.500000" y2="108.500000" stroke="#AAAAAA" /><text style="font-size:10px;font-family:OpenSans;fill:#000000;" text-anchor="middle" x="1741.114754" y="118.500000">1483</text><line x1="1783.016393" x2="1783.016393" y1="103.500000" y2="108.500000" stroke="#AAAAAA" /><text style="font-size:10px;font-family:OpenSans;fill:#000000;" text-anchor="middle" x="1783.016393" y="118.500000">1519</text><line x1="1969.245902" x2="1969.245902" y1="103.500000" y2="108.500000" stroke="#AAAAAA" /><text style="font-size:10px;font-family:OpenSans;fill:#000000;" text-anchor="middle" x="1969.245902" y="118.500000">1679</text><line x1="2127.540984" x2="2127.540984" y1="103.500000" y2="108.500000" stroke="#AAAAAA" /><text style="font-size:10px;font-family:OpenSans;fill:#000000;" text-anchor="middle" x="2127.540984" y="118.500000">1815</text><line x1="2210.180328" x2="2210.180328" y1="103.500000" y2="108.500000" stroke="#AAAAAA" /><text style="font-size:10px;font-family:OpenSans;fill:#000000;" text-anchor="middle" x="2210.180328" y="118.500000">1886</text><line x1="2348.688525" x2="2348.688525" y1="103.500000" y2="108.500000" stroke="#AAAAAA" /><text style="font-size:10px;font-family:OpenSans;fill:#000000;" text-anchor="middle" x="2348.688525" y="118.500000">2005</text><line x1="2417.360656" x2="2417.360656" y1="103.500000" y2="108.500000" stroke="#AAAAAA" /><text style="font-size:10px;font-family:OpenSans;fill:#000000;" text-anchor="middle" x="2417.360656" y="118.500000">2064</text><line x1="2489.524590" x2="2489.524590" y1="103.500000" y2="108.500000" stroke="#AAAAAA" /><text style="font-size:10px;font-family:OpenSans;fill:#000000;" text-anchor="middle" x="2489.524590" y="118.500000">2126</text><line x1="2560.524590" x2="2560.524590" y1="103.500000" y2="108.500000" stroke="#AAAAAA" /><text style="font-size:10px;font-family:OpenSans;fill:#000000;" text-anchor="middle" x="2560.524590" y="118.500000">2187</text><line x1="2624.540984" x2="2624.540984" y1="103.500000" y2="108.500000" stroke="#AAAAAA" /><text style="font-size:10px;font-family:OpenSans;fill:#000000;" text-anchor="middle" x="2624.540984" y="118.500000">2242</text><line x1="2937.639344" x2="2937.639344" y1="103.500000" y2="108.500000" stroke="#AAAAAA" /><text style="font-size:10px;font-family:OpenSans;fill:#000000;" text-anchor="middle" x="2937.639344" y="118.500000">2511</text></g>
<rect fill="#B9264F" x="4" y="132.500000" width="12" height="12" filter="url(#ds)"/><text style="font-size:12px;font-family:OpenSans;fill:#000000;" text-anchor="start" x="20" y="144.500000">Zinc-binding dehydrogenase</text><rect fill="#C48484" x="4" y="146.500000" width="12" height="12" filter="url(#ds)"/><text style="font-size:12px;font-family:OpenSans;fill:#000000;" text-anchor="start" x="20" y="158.500000">Phosphopantetheine attachment site</text><rect fill="#FF5353" x="4" y="160.500000" width="12" height="12" filter="url(#ds)"/><text style="font-size:12px;font-family:OpenSans;fill:#000000;" text-anchor="start" x="20" y="172.500000">Beta-ketoacyl synthase, C-terminal domain</text><rect fill="#5B5BFF" x="4" y="174.500000" width="12" height="12" filter="url(#ds)"/><text style="font-size:12px;font-family:OpenSans;fill:#000000;" text-anchor="start" x="20" y="186.500000">Ketoacyl-synthetase C-terminal extension</text><rect fill="#BA21E0" x="4" y="188.500000" width="12" height="12" filter="url(#ds)"/><text style="font-size:12px;font-family:OpenSans;fill:#000000;" text-anchor="start" x="20" y="200.500000">Polyketide synthase dehydratase domain</text><rect fill="#FF9C42" x="4" y="202.500000" width="12" height="12" filter="url(#ds)"/><text style="font-size:12px;font-family:OpenSans;fill:#000000;" text-anchor="start" x="20" y="214.500000">Methyltransferase domain</text><rect fill="#FF7DFF" x="4" y="216.500000" width="12" height="12" filter="url(#ds)"/><text style="font-size:12px;font-family:OpenSans;fill:#000000;" text-anchor="start" x="20" y="228.500000">Fatty acid synthase, pseudo-KR domain</text></svg>
