<?xml version='1.0'?>
<svg xmlns="http://www.w3.org/2000/svg" xmlns:xlink="http://www.w3.org/1999/xlink" width="705.720930" height="158.700000">
<defs>
  <filter id="ds" x="0" y="0">
    <feOffset in="SourceAlpha" dx="2" dy="2" />
    <feComponentTransfer><feFuncA type="linear" slope="0.2"/></feComponentTransfer>
    <feGaussianBlur result="blurOut" stdDeviation="1" />
    <feBlend in="SourceGraphic" in2="blurOut" mode="normal" />
  </filter>
  <pattern id="disordered-hatch" patternUnits="userSpaceOnUse" width="4" height="4">
    <path d="M-1,1 l2,-2 M0,4 l4,-4 M3,5 l2,-2" stroke="#000000" opacity="0.3" />
  </pattern>
</defs>
<line x1="26.906977" x2="26.906977" y1="46.500000" y2="74.500000" stroke="#BABDB6" stroke-width="2"/><a xlink:title="Y8C"><circle cx="26.906977" cy="46.500000" r="4.000000" fill="#ff0000" /></a><g transform="translate(26.906977,46.500000) rotate(-30)"><text style="font-size:10px;font-family:OpenSans;fill:#555;" text-anchor="middle" x="0" y="-6.000000">Y8C</text></g><line x1="159.372093" x2="159.372093" y1="34.000000" y2="74.500000" stroke="#BABDB6" stroke-width="2"/><a xlink:title="T97R"><circle cx="159.372093" cy="34.000000" r="4.000000" fill="#ff0000" /></a><g transform="translate(159.372093,34.000000) rotate(-30)"><text style="font-size:10px;font-family:OpenSans;fill:#555;" text-anchor="middle" x="0" y="-6.000000">T97R</text></g><line x1="162.348837" x2="162.348837" y1="46.500000" y2="74.500000" stroke="#BABDB6" stroke-width="2"/><a xlink:title="A99G"><circle cx="162.348837" cy="46.500000" r="4.000000" fill="#ff0000" /></a><g transform="translate(162.348837,46.500000) rotate(-30)"><text style="font-size:10px;font-family:OpenSans;fill:#555;" text-anchor="middle" x="0" y="-6.000000">A99G</text></g><line x1="351.372093" x2="351.372093" y1="34.000000" y2="74.500000" stroke="#BABDB6" stroke-width="2"/><a xlink:title="T226R"><circle cx="351.372093" cy="34.000000" r="4.000000" fill="#ff0000" /></a><g transform="translate(351.372093,34.000000) rotate(-30)"><text style="font-size:10px;font-family:OpenSans;fill:#555;" text-anchor="middle" x="0" y="-6.000000">T226R</text></g><line x1="354.348837" x2="354.348837" y1="46.500000" y2="74.500000" stroke="#BABDB6" stroke-width="2"/><a xlink:title="A228G"><circle cx="354.348837" cy="46.500000" r="4.000000" fill="#ff0000" /></a><g transform="translate(354.348837,46.500000) rotate(-30)"><text style="font-size:10px;font-family:OpenSans;fill:#555;" text-anchor="middle" x="0" y="-6.000000">A228G</text></g><line x1="399.000000" x2="399.000000" y1="34.000000" y2="74.500000" stroke="#BABDB6" stroke-width="2"/><a xlink:title="T258R"><circle cx="399.000000" cy="34.000000" r="4.000000" fill="#ff0000" /></a><g transform="translate(399.000000,34.000000) rotate(-30)"><text style="font-size:10px;font-family:OpenSans;fill:#555;" text-anchor="middle" x="0" y="-6.000000">T258R</text></g><line x1="401.976744" x2="401.976744" y1="46.500000" y2="74.500000" stroke="#BABDB6" stroke-width="2"/><a xlink:title="A260G"><circle cx="401.976744" cy="46.500000" r="4.000000" fill="#ff0000" /></a><g transform="translate(401.976744,46.500000) rotate(-30)"><text style="font-size:10px;font-family:OpenSans;fill:#555;" text-anchor="middle" x="0" y="-6.000000">A260G</text></g><a xlink:title=",  (454aa)"><rect fill="#BABDB6" x="15.000000" y="74.500000" width="675.720930" height="14.000000"/></a><g transform="translate(102.813953,69.500000)"><a xlink:href="https://www.ebi.ac.uk/interpro/entry/pfam/PF12937" xlink:title="F-box-like"><rect fill="#2DCF00" x="0" y="0" width="64.000000" height="24.000000" filter="url(#ds)"/><text style="font-size:12px;font-family:OpenSans;fill:#ffffff;" text-anchor="middle" x="32.000000" y="16.000000">F-box-like</text></a></g>
<g transform="translate(226.348837,69.500000)"><a xlink:href="https://www.ebi.ac.uk/interpro/entry/pfam/PF00400" xlink:title="WD domain, G-beta repeat"><rect fill="#FF5353" x="0" y="0" width="47.627907" height="24.000000" filter="url(#ds)"/><text style="font-size:12px;font-family:OpenSans;fill:#ffffff;" text-anchor="middle" x="23.813953" y="16.000000">WD40</text></a></g>
<g transform="translate(279.930233,69.500000)"><a xlink:href="https://www.ebi.ac.uk/interpro/entry/pfam/PF00400" xlink:title="WD domain, G-beta repeat"><rect fill="#5B5BFF" x="0" y="0" width="49.116279" height="24.000000" filter="url(#ds)"/><text style="font-size:12px;font-family:OpenSans;fill:#ffffff;" text-anchor="middle" x="24.558140" y="16.000000">WD40</text></a></g>
<g transform="translate(340.953488,69.500000)"><a xlink:href="https://www.ebi.ac.uk/interpro/entry/pfam/PF00400" xlink:title="WD domain, G-beta repeat"><rect fill="#EBD61D" x="0" y="0" width="50.604651" height="24.000000" filter="url(#ds)"/><text style="font-size:12px;font-family:OpenSans;fill:#ffffff;" text-anchor="middle" x="25.302326" y="16.000000">WD40</text></a></g>
<g class="axis">
<line x1="15.000000" x2="690.720930" y1="103.500000" y2="103.500000" stroke="#AAAAAA" /><line x1="15.000000" x2="15.000000" y1="103.500000" y2="108.500000" stroke="#AAAAAA" /><line x1="26.906977" x2="26.906977" y1="103.500000" y2="108.500000" stroke="#AAAAAA" /><text style="font-size:10px;font-family:OpenSans;fill:#000000;" text-anchor="middle" x="26.906977" y="118.500000">8</text><line x1="102.813953" x2="102.813953" y1="103.500000" y2="108.500000" stroke="#AAAAAA" /><text style="font-size:10px;font-family:OpenSans;fill:#000000;" text-anchor="middle" x="102.813953" y="118.500000">59</text><line x1="159.372093" x2="159.372093" y1="103.500000" y2="108.500000" stroke="#AAAAAA" /><text style="font-size:10px;font-family:OpenSans;fill:#000000;" text-anchor="middle" x="159.372093" y="118.500000">97</text><line x1="226.348837" x2="226.348837" y1="103.500000" y2="108.500000" stroke="#AAAAAA" /><text style="font-size:10px;font-family:OpenSans;fill:#000000;" text-anchor="middle" x="226.348837" y="118.500000">142</text><line x1="273.976744" x2="273.976744" y1="103.500000" y2="108.500000" stroke="#AAAAAA" /><text style="font-size:10px;font-family:OpenSans;fill:#000000;" text-anchor="middle" x="273.976744" y="118.500000">174</text><line x1="329.046512" x2="329.046512" y1="103.500000" y2="108.500000" stroke="#AAAAAA" /><text style="font-size:10px;font-family:OpenSans;fill:#000000;" text-anchor="middle" x="329.046512" y="118.500000">211</text><line x1="351.372093" x2="351.372093" y1="103.500000" y2="108.500000" stroke="#AAAAAA" /><text style="font-size:10px;font-family:OpenSans;fill:#000000;" text-anchor="middle" x="351.372093" y="118.500000">226</text><line x1="399.000000" x2="399.000000" y1="103.500000" y2="108.500000" stroke="#AAAAAA" /><text style="font-size:10px;font-family:OpenSans;fill:#000000;" text-anchor="middle" x="399.000000" y="118.500000">258</text><line x1="690.720930" x2="690.720930" y1="103.500000" y2="108.500000" stroke="#AAAAAA" /><text style="font-size:10px;font-family:OpenSans;fill:#000000;" text-anchor="middle" x="690.720930" y="118.500000">454</text></g>
<rect fill="#EBD61D" x="4" y="132.500000" width="12" height="12" filter="url(#ds)"/><text style="font-size:12px;font-family:OpenSans;fill:#000000;" text-anchor="start" x="20" y="144.500000">WD domain, G-beta repeat</text></svg>
