<?xml version='1.0'?>
<svg xmlns="http://www.w3.org/2000/svg" xmlns:xlink="http://www.w3.org/1999/xlink" width="430.000000" height="158.700000">
<defs>
  <filter id="ds" x="0" y="0">
    <feOffset in="SourceAlpha" dx="2" dy="2" />
    <feComponentTransfer><feFuncA type="linear" slope="0.2"/></feComponentTransfer>
    <feGaussianBlur result="blurOut" stdDeviation="1" />
    <feBlend in="SourceGraphic" in2="blurOut" mode="normal" />
  </filter>
  <pattern id="disordered-hatch" patternUnits="userSpaceOnUse" width="4" height="4">
    <path d="M-1,1 l2,-2 M0,4 l4,-4 M3,5 l2,-2" stroke="#000000" opacity="0.3" />
  </pattern>
</defs>
<line x1="98.870968" x2="98.870968" y1="46.500000" y2="74.500000" stroke="#BABDB6" stroke-width="2"/><a xlink:title="G91D"><circle cx="98.870968" cy="46.500000" r="4.000000" fill="#ff0000" /></a><g transform="translate(98.870968,46.500000) rotate(-30)"><text style="font-size:10px;font-family:OpenSans;fill:#555;" text-anchor="middle" x="0" y="-6.000000">G91D</text></g><line x1="157.857143" x2="157.857143" y1="34.000000" y2="74.500000" stroke="#BABDB6" stroke-width="2"/><a xlink:title="G155D"><circle cx="157.857143" cy="34.000000" r="4.000000" fill="#ff0000" /></a><g transform="translate(157.857143,34.000000) rotate(-30)"><text style="font-size:10px;font-family:OpenSans;fill:#555;" text-anchor="middle" x="0" y="-6.000000">G155D</text></g><line x1="162.465438" x2="162.465438" y1="46.500000" y2="74.500000" stroke="#BABDB6" stroke-width="2"/><a xlink:title="G160D"><circle cx="162.465438" cy="46.500000" r="4.000000" fill="#ff0000" /></a><g transform="translate(162.465438,46.500000) rotate(-30)"><text style="font-size:10px;font-family:OpenSans;fill:#555;" text-anchor="middle" x="0" y="-6.000000">G160D</text></g><line x1="168.917051" x2="168.917051" y1="34.000000" y2="74.500000" stroke="#BABDB6" stroke-width="2"/><a xlink:title="G167D"><circle cx="168.917051" cy="34.000000" r="4.000000" fill="#ff0000" /></a><g transform="translate(168.917051,34.000000) rotate(-30)"><text style="font-size:10px;font-family:OpenSans;fill:#555;" text-anchor="middle" x="0" y="-6.000000">G167D</text></g><line x1="171.682028" x2="171.682028" y1="46.500000" y2="74.500000" stroke="#BABDB6" stroke-width="2"/><a xlink:title="G170D"><circle cx="171.682028" cy="46.500000" r="4.000000" fill="#ff0000" /></a><g transform="translate(171.682028,46.500000) rotate(-30)"><text style="font-size:10px;font-family:OpenSans;fill:#555;" text-anchor="middle" x="0" y="-6.000000">G170D</text></g><line x1="341.267281" x2="341.267281" y1="46.500000" y2="74.500000" stroke="#BABDB6" stroke-width="2"/><a xlink:title="Q354*"><circle cx="341.267281" cy="46.500000" r="4.000000" fill="#0000ff" /></a><g transform="translate(341.267281,46.500000) rotate(-30)"><text style="font-size:10px;font-family:OpenSans;fill:#555;" text-anchor="middle" x="0" y="-6.000000">Q354*</text></g><line x1="400.253456" x2="400.253456" y1="34.000000" y2="74.500000" stroke="#BABDB6" stroke-width="2"/><a xlink:title="Q418*"><circle cx="400.253456" cy="34.000000" r="4.000000" fill="#0000ff" /></a><g transform="translate(400.253456,34.000000) rotate(-30)"><text style="font-size:10px;font-family:OpenSans;fill:#555;" text-anchor="middle" x="0" y="-6.000000">Q418*</text></g><line x1="404.861751" x2="404.861751" y1="46.500000" y2="74.500000" stroke="#BABDB6" stroke-width="2"/><a xlink:title="Q423*"><circle cx="404.861751" cy="46.500000" r="4.000000" fill="#0000ff" /></a><g transform="translate(404.861751,46.500000) rotate(-30)"><text style="font-size:10px;font-family:OpenSans;fill:#555;" text-anchor="middle" x="0" y="-6.000000">Q423*</text></g><line x1="411.313364" x2="411.313364" y1="34.000000" y2="74.500000" stroke="#BABDB6" stroke-width="2"/><a xlink:title="Q430*"><circle cx="411.313364" cy="34.000000" r="4.000000" fill="#0000ff" /></a><g transform="translate(411.313364,34.000000) rotate(-30)"><text style="font-size:10px;font-family:OpenSans;fill:#555;" text-anchor="middle" x="0" y="-6.000000">Q430*</text></g><line x1="414.078341" x2="414.078341" y1="46.500000" y2="74.500000" stroke="#BABDB6" stroke-width="2"/><a xlink:title="Q433*"><circle cx="414.078341" cy="46.500000" r="4.000000" fill="#0000ff" /></a><g transform="translate(414.078341,46.500000) rotate(-30)"><text style="font-size:10px;font-family:OpenSans;fill:#555;" text-anchor="middle" x="0" y="-6.000000">Q433*</text></g><a xlink:title=",  (434aa)"><rect fill="#BABDB6" x="15.000000" y="74.500000" width="400.000000" height="14.000000"/></a><g transform="translate(37.119816,69.500000)"><a xlink:href="https://www.ebi.ac.uk/interpro/entry/pfam/PF13895" xlink:title="Immunoglobulin domain"><rect fill="#2DCF00" x="0" y="0" width="57.142857" height="24.000000" filter="url(#ds)"/><text style="font-size:12px;font-family:OpenSans;fill:#ffffff;" text-anchor="middle" x="28.571429" y="16.000000">Ig_2</text></a></g>
<g transform="translate(118.225806,69.500000)"><a xlink:href="https://www.ebi.ac.uk/interpro/entry/pfam/PF13895" xlink:title="Immunoglobulin domain"><rect fill="#FF5353" x="0" y="0" width="81.105991" height="24.000000" filter="url(#ds)"/><text style="font-size:12px;font-family:OpenSans;fill:#ffffff;" text-anchor="middle" x="40.552995" y="16.000000">Ig_2</text></a></g>
<g transform="translate(205.783410,69.500000)"><a xlink:href="https://www.ebi.ac.uk/interpro/entry/pfam/PF13927" xlink:title="Immunoglobulin domain"><rect fill="#5B5BFF" x="0" y="0" width="67.281106" height="24.000000" filter="url(#ds)"/><text style="font-size:12px;font-family:OpenSans;fill:#ffffff;" text-anchor="middle" x="33.640553" y="16.000000">Ig_3</text></a></g>
<g class="axis">
<line x1="15.000000" x2="415.000000" y1="103.500000" y2="103.500000" stroke="#AAAAAA" /><line x1="15.000000" x2="15.000000" y1="103.500000" y2="108.500000" stroke="#AAAAAA" /><line x1="15.000000" x2="15.000000" y1="103.500000" y2="108.500000" stroke="#AAAAAA" /><text style="font-size:10px;font-family:OpenSans;fill:#000000;" text-anchor="middle" x="15.000000" y="118.500000">0</text><line x1="37.119816" x2="37.119816" y1="103.500000" y2="108.500000" stroke="#AAAAAA" /><text style="font-size:10px;font-family:OpenSans;fill:#000000;" text-anchor="middle" x="37.119816" y="118.500000">24</text><line x1="98.870968" x2="98.870968" y1="103.500000" y2="108.500000" stroke="#AAAAAA" /><text style="font-size:10px;font-family:OpenSans;fill:#000000;" text-anchor="middle" x="98.870968" y="118.500000">91</text><line x1="118.225806" x2="118.225806" y1="103.500000" y2="108.500000" stroke="#AAAAAA" /><text style="font-size:10px;font-family:OpenSans;fill:#000000;" text-anchor="middle" x="118.225806" y="118.500000">112</text><line x1="157.857143" x2="157.857143" y1="103.500000" y2="108.500000" stroke="#AAAAAA" /><text style="font-size:10px;font-family:OpenSans;fill:#000000;" text-anchor="middle" x="157.857143" y="118.500000">155</text><line x1="199.331797" x2="199.331797" y1="103.500000" y2="108.500000" stroke="#AAAAAA" /><text style="font-size:10px;font-family:OpenSans;fill:#000000;" text-anchor="middle" x="199.331797" y="118.500000">200</text><line x1="273.064516" x2="273.064516" y1="103.500000" y2="108.500000" stroke="#AAAAAA" /><text style="font-size:10px;font-family:OpenSans;fill:#000000;" text-anchor="middle" x="273.064516" y="118.500000">280</text><line x1="341.267281" x2="341.267281" y1="103.500000" y2="108.500000" stroke="#AAAAAA" /><text style="font-size:10px;font-family:OpenSans;fill:#000000;" text-anchor="middle" x="341.267281" y="118.500000">354</text><line x1="415.000000" x2="415.000000" y1="103.500000" y2="108.500000" stroke="#AAAAAA" /><text style="font-size:10px;font-family:OpenSans;fill:#000000;" text-anchor="middle" x="415.000000" y="118.500000">434</text></g>
<rect fill="#5B5BFF" x="4" y="132.500000" width="12" height="12" filter="url(#ds)"/><text style="font-size:12px;font-family:OpenSans;fill:#000000;" text-anchor="start" x="20" y="144.500000">Immunoglobulin domain</text></svg>
