<?xml version='1.0'?>
<svg xmlns="http://www.w3.org/2000/svg" xmlns:xlink="http://www.w3.org/1999/xlink" width="430.000000" height="146.200000">
<defs>
  <filter id="ds" x="0" y="0">
    <feOffset in="SourceAlpha" dx="2" dy="2" />
    <feComponentTransfer><feFuncA type="linear" slope="0.2"/></feComponentTransfer>
    <feGaussianBlur result="blurOut" stdDeviation="1" />
    <feBlend in="SourceGraphic" in2="blurOut" mode="normal" />
  </filter>
  <pattern id="disordered-hatch" patternUnits="userSpaceOnUse" width="4" height="4">
    <path d="M-1,1 l2,-2 M0,4 l4,-4 M3,5 l2,-2" stroke="#000000" opacity="0.3" />
  </pattern>
</defs>
<line x1="77.125341" x2="77.125341" y1="34.000000" y2="62.000000" stroke="#BABDB6" stroke-width="2"/><a xlink:title="D114G"><circle cx="77.125341" cy="34.000000" r="4.000000" fill="#ff0000" /></a><g transform="translate(77.125341,34.000000) rotate(-30)"><text style="font-size:10px;font-family:OpenSans;fill:#555;" text-anchor="middle" x="0" y="-6.000000">D114G</text></g><line x1="109.822888" x2="109.822888" y1="34.000000" y2="62.000000" stroke="#BABDB6" stroke-width="2"/><a xlink:title="I174T"><circle cx="109.822888" cy="34.000000" r="4.000000" fill="#ff0000" /></a><g transform="translate(109.822888,34.000000) rotate(-30)"><text style="font-size:10px;font-family:OpenSans;fill:#555;" text-anchor="middle" x="0" y="-6.000000">I174T</text></g><line x1="123.991826" x2="123.991826" y1="34.000000" y2="62.000000" stroke="#BABDB6" stroke-width="2"/><a xlink:title="T200T"><circle cx="123.991826" cy="34.000000" r="4.000000" fill="#0000ff" /></a><g transform="translate(123.991826,34.000000) rotate(-30)"><text style="font-size:10px;font-family:OpenSans;fill:#555;" text-anchor="middle" x="0" y="-6.000000">T200T</text></g><line x1="182.302452" x2="182.302452" y1="34.000000" y2="62.000000" stroke="#BABDB6" stroke-width="2"/><a xlink:title="L307F"><circle cx="182.302452" cy="34.000000" r="4.000000" fill="#ff0000" /></a><g transform="translate(182.302452,34.000000) rotate(-30)"><text style="font-size:10px;font-family:OpenSans;fill:#555;" text-anchor="middle" x="0" y="-6.000000">L307F</text></g><line x1="407.915531" x2="407.915531" y1="34.000000" y2="62.000000" stroke="#BABDB6" stroke-width="2"/><a xlink:title="N721S"><circle cx="407.915531" cy="34.000000" r="4.000000" fill="#ff0000" /></a><g transform="translate(407.915531,34.000000) rotate(-30)"><text style="font-size:10px;font-family:OpenSans;fill:#555;" text-anchor="middle" x="0" y="-6.000000">N721S</text></g><a xlink:title=",  (734aa)"><rect fill="#BABDB6" x="15.000000" y="62.000000" width="400.000000" height="14.000000"/></a><g transform="translate(74.400545,57.000000)"><a xlink:href="https://www.ebi.ac.uk/interpro/entry/pfam/PF13895" xlink:title="Immunoglobulin domain"><rect fill="#2DCF00" x="0" y="0" width="41.416894" height="24.000000" filter="url(#ds)"/><text style="font-size:12px;font-family:OpenSans;fill:#ffffff;" text-anchor="middle" x="20.708447" y="16.000000">Ig_2</text></a></g>
<g transform="translate(125.081744,57.000000)"><a xlink:href="https://www.ebi.ac.uk/interpro/entry/pfam/PF00047" xlink:title="Immunoglobulin domain"><rect fill="#FF5353" x="0" y="0" width="35.422343" height="24.000000" filter="url(#ds)"/><text style="font-size:12px;font-family:OpenSans;fill:#ffffff;" text-anchor="middle" x="17.711172" y="16.000000">ig</text></a></g>
<g transform="translate(177.397820,57.000000)"><a xlink:href="https://www.ebi.ac.uk/interpro/entry/pfam/PF00047" xlink:title="Immunoglobulin domain"><rect fill="#5B5BFF" x="0" y="0" width="37.057221" height="24.000000" filter="url(#ds)"/><text style="font-size:12px;font-family:OpenSans;fill:#ffffff;" text-anchor="middle" x="18.528610" y="16.000000">ig</text></a></g>
<g transform="translate(223.719346,57.000000)"><a xlink:href="https://www.ebi.ac.uk/interpro/entry/pfam/PF13895" xlink:title="Immunoglobulin domain"><rect fill="#EBD61D" x="0" y="0" width="46.866485" height="24.000000" filter="url(#ds)"/><text style="font-size:12px;font-family:OpenSans;fill:#ffffff;" text-anchor="middle" x="23.433243" y="16.000000">Ig_2</text></a></g>
<g transform="translate(274.400545,57.000000)"><a xlink:href="https://www.ebi.ac.uk/interpro/entry/pfam/PF13927" xlink:title="Immunoglobulin domain"><rect fill="#BA21E0" x="0" y="0" width="39.237057" height="24.000000" filter="url(#ds)"/><text style="font-size:12px;font-family:OpenSans;fill:#ffffff;" text-anchor="middle" x="19.618529" y="16.000000">Ig_3</text></a></g>
<g class="axis">
<line x1="15.000000" x2="415.000000" y1="91.000000" y2="91.000000" stroke="#AAAAAA" /><line x1="15.000000" x2="15.000000" y1="91.000000" y2="96.000000" stroke="#AAAAAA" /><line x1="15.000000" x2="15.000000" y1="91.000000" y2="96.000000" stroke="#AAAAAA" /><text style="font-size:10px;font-family:OpenSans;fill:#000000;" text-anchor="middle" x="15.000000" y="106.000000">0</text><line x1="77.125341" x2="77.125341" y1="91.000000" y2="96.000000" stroke="#AAAAAA" /><text style="font-size:10px;font-family:OpenSans;fill:#000000;" text-anchor="middle" x="77.125341" y="106.000000">114</text><line x1="109.822888" x2="109.822888" y1="91.000000" y2="96.000000" stroke="#AAAAAA" /><text style="font-size:10px;font-family:OpenSans;fill:#000000;" text-anchor="middle" x="109.822888" y="106.000000">174</text><line x1="160.504087" x2="160.504087" y1="91.000000" y2="96.000000" stroke="#AAAAAA" /><text style="font-size:10px;font-family:OpenSans;fill:#000000;" text-anchor="middle" x="160.504087" y="106.000000">267</text><line x1="182.302452" x2="182.302452" y1="91.000000" y2="96.000000" stroke="#AAAAAA" /><text style="font-size:10px;font-family:OpenSans;fill:#000000;" text-anchor="middle" x="182.302452" y="106.000000">307</text><line x1="214.455041" x2="214.455041" y1="91.000000" y2="96.000000" stroke="#AAAAAA" /><text style="font-size:10px;font-family:OpenSans;fill:#000000;" text-anchor="middle" x="214.455041" y="106.000000">366</text><line x1="270.585831" x2="270.585831" y1="91.000000" y2="96.000000" stroke="#AAAAAA" /><text style="font-size:10px;font-family:OpenSans;fill:#000000;" text-anchor="middle" x="270.585831" y="106.000000">469</text><line x1="313.637602" x2="313.637602" y1="91.000000" y2="96.000000" stroke="#AAAAAA" /><text style="font-size:10px;font-family:OpenSans;fill:#000000;" text-anchor="middle" x="313.637602" y="106.000000">548</text><line x1="415.000000" x2="415.000000" y1="91.000000" y2="96.000000" stroke="#AAAAAA" /><text style="font-size:10px;font-family:OpenSans;fill:#000000;" text-anchor="middle" x="415.000000" y="106.000000">734</text></g>
<rect fill="#BA21E0" x="4" y="120.000000" width="12" height="12" filter="url(#ds)"/><text style="font-size:12px;font-family:OpenSans;fill:#000000;" text-anchor="start" x="20" y="132.000000">Immunoglobulin domain</text></svg>
