<?xml version='1.0'?>
<svg xmlns="http://www.w3.org/2000/svg" xmlns:xlink="http://www.w3.org/1999/xlink" width="1250.642857" height="171.900000">
<defs>
  <filter id="ds" x="0" y="0">
    <feOffset in="SourceAlpha" dx="2" dy="2" />
    <feComponentTransfer><feFuncA type="linear" slope="0.2"/></feComponentTransfer>
    <feGaussianBlur result="blurOut" stdDeviation="1" />
    <feBlend in="SourceGraphic" in2="blurOut" mode="normal" />
  </filter>
  <pattern id="disordered-hatch" patternUnits="userSpaceOnUse" width="4" height="4">
    <path d="M-1,1 l2,-2 M0,4 l4,-4 M3,5 l2,-2" stroke="#000000" opacity="0.3" />
  </pattern>
</defs>
<line x1="131.642857" x2="131.642857" y1="46.500000" y2="74.500000" stroke="#BABDB6" stroke-width="2"/><a xlink:title="V71V"><circle cx="131.642857" cy="46.500000" r="4.000000" fill="#0000ff" /></a><g transform="translate(131.642857,46.500000) rotate(-30)"><text style="font-size:10px;font-family:OpenSans;fill:#555;" text-anchor="middle" x="0" y="-6.000000">V71V</text></g><line x1="226.928571" x2="226.928571" y1="46.500000" y2="74.500000" stroke="#BABDB6" stroke-width="2"/><a xlink:title="V129V"><circle cx="226.928571" cy="46.500000" r="4.000000" fill="#0000ff" /></a><g transform="translate(226.928571,46.500000) rotate(-30)"><text style="font-size:10px;font-family:OpenSans;fill:#555;" text-anchor="middle" x="0" y="-6.000000">V129V</text></g><line x1="320.571429" x2="320.571429" y1="46.500000" y2="74.500000" stroke="#BABDB6" stroke-width="2"/><a xlink:title="N186T"><circle cx="320.571429" cy="46.500000" r="4.000000" fill="#ff0000" /></a><g transform="translate(320.571429,46.500000) rotate(-30)"><text style="font-size:10px;font-family:OpenSans;fill:#555;" text-anchor="middle" x="0" y="-6.000000">N186T</text></g><line x1="415.857143" x2="415.857143" y1="46.500000" y2="74.500000" stroke="#BABDB6" stroke-width="2"/><a xlink:title="N244T"><circle cx="415.857143" cy="46.500000" r="4.000000" fill="#ff0000" /></a><g transform="translate(415.857143,46.500000) rotate(-30)"><text style="font-size:10px;font-family:OpenSans;fill:#555;" text-anchor="middle" x="0" y="-6.000000">N244T</text></g><line x1="437.214286" x2="437.214286" y1="46.500000" y2="74.500000" stroke="#BABDB6" stroke-width="2"/><a xlink:title="T257A"><circle cx="437.214286" cy="46.500000" r="4.000000" fill="#ff0000" /></a><g transform="translate(437.214286,46.500000) rotate(-30)"><text style="font-size:10px;font-family:OpenSans;fill:#555;" text-anchor="middle" x="0" y="-6.000000">T257A</text></g><line x1="530.857143" x2="530.857143" y1="34.000000" y2="74.500000" stroke="#BABDB6" stroke-width="2"/><a xlink:title="T314A"><circle cx="530.857143" cy="34.000000" r="4.000000" fill="#ff0000" /></a><g transform="translate(530.857143,34.000000) rotate(-30)"><text style="font-size:10px;font-family:OpenSans;fill:#555;" text-anchor="middle" x="0" y="-6.000000">T314A</text></g><line x1="532.500000" x2="532.500000" y1="46.500000" y2="74.500000" stroke="#BABDB6" stroke-width="2"/><a xlink:title="T315A"><circle cx="532.500000" cy="46.500000" r="4.000000" fill="#ff0000" /></a><g transform="translate(532.500000,46.500000) rotate(-30)"><text style="font-size:10px;font-family:OpenSans;fill:#555;" text-anchor="middle" x="0" y="-6.000000">T315A</text></g><line x1="629.428571" x2="629.428571" y1="46.500000" y2="74.500000" stroke="#BABDB6" stroke-width="2"/><a xlink:title="T374T"><circle cx="629.428571" cy="46.500000" r="4.000000" fill="#0000ff" /></a><g transform="translate(629.428571,46.500000) rotate(-30)"><text style="font-size:10px;font-family:OpenSans;fill:#555;" text-anchor="middle" x="0" y="-6.000000">T374T</text></g><line x1="723.071429" x2="723.071429" y1="34.000000" y2="74.500000" stroke="#BABDB6" stroke-width="2"/><a xlink:title="T431T"><circle cx="723.071429" cy="34.000000" r="4.000000" fill="#0000ff" /></a><g transform="translate(723.071429,34.000000) rotate(-30)"><text style="font-size:10px;font-family:OpenSans;fill:#555;" text-anchor="middle" x="0" y="-6.000000">T431T</text></g><line x1="724.714286" x2="724.714286" y1="46.500000" y2="74.500000" stroke="#BABDB6" stroke-width="2"/><a xlink:title="T432T"><circle cx="724.714286" cy="46.500000" r="4.000000" fill="#0000ff" /></a><g transform="translate(724.714286,46.500000) rotate(-30)"><text style="font-size:10px;font-family:OpenSans;fill:#555;" text-anchor="middle" x="0" y="-6.000000">T432T</text></g><line x1="1061.500000" x2="1061.500000" y1="46.500000" y2="74.500000" stroke="#BABDB6" stroke-width="2"/><a xlink:title="P637S"><circle cx="1061.500000" cy="46.500000" r="4.000000" fill="#ff0000" /></a><g transform="translate(1061.500000,46.500000) rotate(-30)"><text style="font-size:10px;font-family:OpenSans;fill:#555;" text-anchor="middle" x="0" y="-6.000000">P637S</text></g><line x1="1155.142857" x2="1155.142857" y1="34.000000" y2="74.500000" stroke="#BABDB6" stroke-width="2"/><a xlink:title="P694S"><circle cx="1155.142857" cy="34.000000" r="4.000000" fill="#ff0000" /></a><g transform="translate(1155.142857,34.000000) rotate(-30)"><text style="font-size:10px;font-family:OpenSans;fill:#555;" text-anchor="middle" x="0" y="-6.000000">P694S</text></g><line x1="1156.785714" x2="1156.785714" y1="46.500000" y2="74.500000" stroke="#BABDB6" stroke-width="2"/><a xlink:title="P695S"><circle cx="1156.785714" cy="46.500000" r="4.000000" fill="#ff0000" /></a><g transform="translate(1156.785714,46.500000) rotate(-30)"><text style="font-size:10px;font-family:OpenSans;fill:#555;" text-anchor="middle" x="0" y="-6.000000">P695S</text></g><line x1="1173.214286" x2="1173.214286" y1="46.500000" y2="74.500000" stroke="#BABDB6" stroke-width="2"/><a xlink:title="P705S"><circle cx="1173.214286" cy="46.500000" r="4.000000" fill="#ff0000" /></a><g transform="translate(1173.214286,46.500000) rotate(-30)"><text style="font-size:10px;font-family:OpenSans;fill:#555;" text-anchor="middle" x="0" y="-6.000000">P705S</text></g><a xlink:title=",  (743aa)"><rect fill="#BABDB6" x="15.000000" y="74.500000" width="1220.642857" height="14.000000"/></a><g transform="translate(144.785714,69.500000)"><a xlink:href="https://www.ebi.ac.uk/interpro/entry/pfam/PF10257" xlink:title="Retinoic acid induced 16-like protein"><rect fill="#2DCF00" x="0" y="0" width="652.214286" height="24.000000" filter="url(#ds)"/><text style="font-size:12px;font-family:OpenSans;fill:#ffffff;" text-anchor="middle" x="326.107143" y="16.000000">Retinoic acid induced 16-like protein</text></a></g>
<g transform="translate(1000.714286,69.500000)"><a xlink:href="https://www.ebi.ac.uk/interpro/entry/pfam/PF19314" xlink:title="Family of unknown function (DUF5917)"><rect fill="#FF5353" x="0" y="0" width="151.142857" height="24.000000" filter="url(#ds)"/><text style="font-size:12px;font-family:OpenSans;fill:#ffffff;" text-anchor="middle" x="75.571429" y="16.000000">DUF5917</text></a></g>
<g transform="translate(1163.357143,69.500000)"><a xlink:href="https://www.ebi.ac.uk/interpro/entry/pfam/PF19311" xlink:title="KELAA motif"><rect fill="#5B5BFF" x="0" y="0" width="46.000000" height="24.000000" filter="url(#ds)"/><text style="font-size:12px;font-family:OpenSans;fill:#ffffff;" text-anchor="middle" x="23.000000" y="16.000000">KELAA</text></a></g>
<g class="axis">
<line x1="15.000000" x2="1235.642857" y1="103.500000" y2="103.500000" stroke="#AAAAAA" /><line x1="15.000000" x2="15.000000" y1="103.500000" y2="108.500000" stroke="#AAAAAA" /><line x1="15.000000" x2="15.000000" y1="103.500000" y2="108.500000" stroke="#AAAAAA" /><text style="font-size:10px;font-family:OpenSans;fill:#000000;" text-anchor="middle" x="15.000000" y="118.500000">0</text><line x1="131.642857" x2="131.642857" y1="103.500000" y2="108.500000" stroke="#AAAAAA" /><text style="font-size:10px;font-family:OpenSans;fill:#000000;" text-anchor="middle" x="131.642857" y="118.500000">71</text><line x1="226.928571" x2="226.928571" y1="103.500000" y2="108.500000" stroke="#AAAAAA" /><text style="font-size:10px;font-family:OpenSans;fill:#000000;" text-anchor="middle" x="226.928571" y="118.500000">129</text><line x1="320.571429" x2="320.571429" y1="103.500000" y2="108.500000" stroke="#AAAAAA" /><text style="font-size:10px;font-family:OpenSans;fill:#000000;" text-anchor="middle" x="320.571429" y="118.500000">186</text><line x1="415.857143" x2="415.857143" y1="103.500000" y2="108.500000" stroke="#AAAAAA" /><text style="font-size:10px;font-family:OpenSans;fill:#000000;" text-anchor="middle" x="415.857143" y="118.500000">244</text><line x1="437.214286" x2="437.214286" y1="103.500000" y2="108.500000" stroke="#AAAAAA" /><text style="font-size:10px;font-family:OpenSans;fill:#000000;" text-anchor="middle" x="437.214286" y="118.500000">257</text><line x1="530.857143" x2="530.857143" y1="103.500000" y2="108.500000" stroke="#AAAAAA" /><text style="font-size:10px;font-family:OpenSans;fill:#000000;" text-anchor="middle" x="530.857143" y="118.500000">314</text><line x1="629.428571" x2="629.428571" y1="103.500000" y2="108.500000" stroke="#AAAAAA" /><text style="font-size:10px;font-family:OpenSans;fill:#000000;" text-anchor="middle" x="629.428571" y="118.500000">374</text><line x1="723.071429" x2="723.071429" y1="103.500000" y2="108.500000" stroke="#AAAAAA" /><text style="font-size:10px;font-family:OpenSans;fill:#000000;" text-anchor="middle" x="723.071429" y="118.500000">431</text><line x1="797.000000" x2="797.000000" y1="103.500000" y2="108.500000" stroke="#AAAAAA" /><text style="font-size:10px;font-family:OpenSans;fill:#000000;" text-anchor="middle" x="797.000000" y="118.500000">476</text><line x1="1000.714286" x2="1000.714286" y1="103.500000" y2="108.500000" stroke="#AAAAAA" /><text style="font-size:10px;font-family:OpenSans;fill:#000000;" text-anchor="middle" x="1000.714286" y="118.500000">600</text><line x1="1061.500000" x2="1061.500000" y1="103.500000" y2="108.500000" stroke="#AAAAAA" /><text style="font-size:10px;font-family:OpenSans;fill:#000000;" text-anchor="middle" x="1061.500000" y="118.500000">637</text><line x1="1155.142857" x2="1155.142857" y1="103.500000" y2="108.500000" stroke="#AAAAAA" /><text style="font-size:10px;font-family:OpenSans;fill:#000000;" text-anchor="middle" x="1155.142857" y="118.500000">694</text><line x1="1209.357143" x2="1209.357143" y1="103.500000" y2="108.500000" stroke="#AAAAAA" /><text style="font-size:10px;font-family:OpenSans;fill:#000000;" text-anchor="middle" x="1209.357143" y="118.500000">727</text><line x1="1235.642857" x2="1235.642857" y1="103.500000" y2="108.500000" stroke="#AAAAAA" /><text style="font-size:10px;font-family:OpenSans;fill:#000000;" text-anchor="middle" x="1235.642857" y="118.500000">743</text></g>
<rect fill="#FF5353" x="4" y="132.500000" width="12" height="12" filter="url(#ds)"/><text style="font-size:12px;font-family:OpenSans;fill:#000000;" text-anchor="start" x="20" y="144.500000">Family of unknown function (DUF5917)</text><rect fill="#5B5BFF" x="4" y="146.500000" width="12" height="12" filter="url(#ds)"/><text style="font-size:12px;font-family:OpenSans;fill:#000000;" text-anchor="start" x="20" y="158.500000">KELAA motif</text></svg>
