<?xml version='1.0'?>
<svg xmlns="http://www.w3.org/2000/svg" xmlns:xlink="http://www.w3.org/1999/xlink" width="1146.176471" height="171.900000">
<defs>
  <filter id="ds" x="0" y="0">
    <feOffset in="SourceAlpha" dx="2" dy="2" />
    <feComponentTransfer><feFuncA type="linear" slope="0.2"/></feComponentTransfer>
    <feGaussianBlur result="blurOut" stdDeviation="1" />
    <feBlend in="SourceGraphic" in2="blurOut" mode="normal" />
  </filter>
  <pattern id="disordered-hatch" patternUnits="userSpaceOnUse" width="4" height="4">
    <path d="M-1,1 l2,-2 M0,4 l4,-4 M3,5 l2,-2" stroke="#000000" opacity="0.3" />
  </pattern>
</defs>
<line x1="417.941176" x2="417.941176" y1="34.000000" y2="74.500000" stroke="#BABDB6" stroke-width="2"/><a xlink:title="L274Q"><circle cx="417.941176" cy="34.000000" r="4.000000" fill="#ff0000" /></a><g transform="translate(417.941176,34.000000) rotate(-30)"><text style="font-size:10px;font-family:OpenSans;fill:#555;" text-anchor="middle" x="0" y="-6.000000">L274Q</text></g><line x1="423.823529" x2="423.823529" y1="46.500000" y2="74.500000" stroke="#BABDB6" stroke-width="2"/><a xlink:title="T278T"><circle cx="423.823529" cy="46.500000" r="4.000000" fill="#0000ff" /></a><g transform="translate(423.823529,46.500000) rotate(-30)"><text style="font-size:10px;font-family:OpenSans;fill:#555;" text-anchor="middle" x="0" y="-6.000000">T278T</text></g><line x1="434.117647" x2="434.117647" y1="34.000000" y2="74.500000" stroke="#BABDB6" stroke-width="2"/><a xlink:title="L285Q"><circle cx="434.117647" cy="34.000000" r="4.000000" fill="#ff0000" /></a><g transform="translate(434.117647,34.000000) rotate(-30)"><text style="font-size:10px;font-family:OpenSans;fill:#555;" text-anchor="middle" x="0" y="-6.000000">L285Q</text></g><line x1="440.000000" x2="440.000000" y1="46.500000" y2="74.500000" stroke="#BABDB6" stroke-width="2"/><a xlink:title="T289T"><circle cx="440.000000" cy="46.500000" r="4.000000" fill="#0000ff" /></a><g transform="translate(440.000000,46.500000) rotate(-30)"><text style="font-size:10px;font-family:OpenSans;fill:#555;" text-anchor="middle" x="0" y="-6.000000">T289T</text></g><line x1="472.352941" x2="472.352941" y1="34.000000" y2="74.500000" stroke="#BABDB6" stroke-width="2"/><a xlink:title="L311Q"><circle cx="472.352941" cy="34.000000" r="4.000000" fill="#ff0000" /></a><g transform="translate(472.352941,34.000000) rotate(-30)"><text style="font-size:10px;font-family:OpenSans;fill:#555;" text-anchor="middle" x="0" y="-6.000000">L311Q</text></g><line x1="478.235294" x2="478.235294" y1="46.500000" y2="74.500000" stroke="#BABDB6" stroke-width="2"/><a xlink:title="T315T"><circle cx="478.235294" cy="46.500000" r="4.000000" fill="#0000ff" /></a><g transform="translate(478.235294,46.500000) rotate(-30)"><text style="font-size:10px;font-family:OpenSans;fill:#555;" text-anchor="middle" x="0" y="-6.000000">T315T</text></g><line x1="1062.058824" x2="1062.058824" y1="34.000000" y2="74.500000" stroke="#BABDB6" stroke-width="2"/><a xlink:title="P712P"><circle cx="1062.058824" cy="34.000000" r="4.000000" fill="#0000ff" /></a><g transform="translate(1062.058824,34.000000) rotate(-30)"><text style="font-size:10px;font-family:OpenSans;fill:#555;" text-anchor="middle" x="0" y="-6.000000">P712P</text></g><line x1="1063.529412" x2="1063.529412" y1="46.500000" y2="74.500000" stroke="#BABDB6" stroke-width="2"/><a xlink:title="V713I"><circle cx="1063.529412" cy="46.500000" r="4.000000" fill="#ff0000" /></a><g transform="translate(1063.529412,46.500000) rotate(-30)"><text style="font-size:10px;font-family:OpenSans;fill:#555;" text-anchor="middle" x="0" y="-6.000000">V713I</text></g><line x1="1078.235294" x2="1078.235294" y1="34.000000" y2="74.500000" stroke="#BABDB6" stroke-width="2"/><a xlink:title="P723P"><circle cx="1078.235294" cy="34.000000" r="4.000000" fill="#0000ff" /></a><g transform="translate(1078.235294,34.000000) rotate(-30)"><text style="font-size:10px;font-family:OpenSans;fill:#555;" text-anchor="middle" x="0" y="-6.000000">P723P</text></g><line x1="1079.705882" x2="1079.705882" y1="46.500000" y2="74.500000" stroke="#BABDB6" stroke-width="2"/><a xlink:title="V724I"><circle cx="1079.705882" cy="46.500000" r="4.000000" fill="#ff0000" /></a><g transform="translate(1079.705882,46.500000) rotate(-30)"><text style="font-size:10px;font-family:OpenSans;fill:#555;" text-anchor="middle" x="0" y="-6.000000">V724I</text></g><line x1="1116.470588" x2="1116.470588" y1="34.000000" y2="74.500000" stroke="#BABDB6" stroke-width="2"/><a xlink:title="P749P"><circle cx="1116.470588" cy="34.000000" r="4.000000" fill="#0000ff" /></a><g transform="translate(1116.470588,34.000000) rotate(-30)"><text style="font-size:10px;font-family:OpenSans;fill:#555;" text-anchor="middle" x="0" y="-6.000000">P749P</text></g><line x1="1117.941176" x2="1117.941176" y1="46.500000" y2="74.500000" stroke="#BABDB6" stroke-width="2"/><a xlink:title="V750I"><circle cx="1117.941176" cy="46.500000" r="4.000000" fill="#ff0000" /></a><g transform="translate(1117.941176,46.500000) rotate(-30)"><text style="font-size:10px;font-family:OpenSans;fill:#555;" text-anchor="middle" x="0" y="-6.000000">V750I</text></g><a xlink:title=",  (759aa)"><rect fill="#BABDB6" x="15.000000" y="74.500000" width="1116.176471" height="14.000000"/></a><g transform="translate(782.647059,69.500000)"><a xlink:href="https://www.ebi.ac.uk/interpro/entry/pfam/PF00004" xlink:title="ATPase family associated with various cellular activities (AAA)"><rect fill="#2DCF00" x="0" y="0" width="189.705882" height="24.000000" filter="url(#ds)"/><text style="font-size:12px;font-family:OpenSans;fill:#ffffff;" text-anchor="middle" x="94.852941" y="16.000000">AAA</text></a></g>
<g transform="translate(1076.764706,69.500000)"><a xlink:href="https://www.ebi.ac.uk/interpro/entry/pfam/PF09336" xlink:title="Vps4 C terminal oligomerisation domain"><rect fill="#FF5353" x="0" y="0" width="50.000000" height="24.000000" filter="url(#ds)"/><text style="font-size:12px;font-family:OpenSans;fill:#ffffff;" text-anchor="middle" x="25.000000" y="16.000000">Vps4_C</text></a></g>
<g class="axis">
<line x1="15.000000" x2="1131.176471" y1="103.500000" y2="103.500000" stroke="#AAAAAA" /><line x1="15.000000" x2="15.000000" y1="103.500000" y2="108.500000" stroke="#AAAAAA" /><line x1="15.000000" x2="15.000000" y1="103.500000" y2="108.500000" stroke="#AAAAAA" /><text style="font-size:10px;font-family:OpenSans;fill:#000000;" text-anchor="middle" x="15.000000" y="118.500000">0</text><line x1="417.941176" x2="417.941176" y1="103.500000" y2="108.500000" stroke="#AAAAAA" /><text style="font-size:10px;font-family:OpenSans;fill:#000000;" text-anchor="middle" x="417.941176" y="118.500000">274</text><line x1="440.000000" x2="440.000000" y1="103.500000" y2="108.500000" stroke="#AAAAAA" /><text style="font-size:10px;font-family:OpenSans;fill:#000000;" text-anchor="middle" x="440.000000" y="118.500000">289</text><line x1="472.352941" x2="472.352941" y1="103.500000" y2="108.500000" stroke="#AAAAAA" /><text style="font-size:10px;font-family:OpenSans;fill:#000000;" text-anchor="middle" x="472.352941" y="118.500000">311</text><line x1="782.647059" x2="782.647059" y1="103.500000" y2="108.500000" stroke="#AAAAAA" /><text style="font-size:10px;font-family:OpenSans;fill:#000000;" text-anchor="middle" x="782.647059" y="118.500000">522</text><line x1="972.352941" x2="972.352941" y1="103.500000" y2="108.500000" stroke="#AAAAAA" /><text style="font-size:10px;font-family:OpenSans;fill:#000000;" text-anchor="middle" x="972.352941" y="118.500000">651</text><line x1="1062.058824" x2="1062.058824" y1="103.500000" y2="108.500000" stroke="#AAAAAA" /><text style="font-size:10px;font-family:OpenSans;fill:#000000;" text-anchor="middle" x="1062.058824" y="118.500000">712</text><line x1="1131.176471" x2="1131.176471" y1="103.500000" y2="108.500000" stroke="#AAAAAA" /><text style="font-size:10px;font-family:OpenSans;fill:#000000;" text-anchor="middle" x="1131.176471" y="118.500000">759</text></g>
<rect fill="#2DCF00" x="4" y="132.500000" width="12" height="12" filter="url(#ds)"/><text style="font-size:12px;font-family:OpenSans;fill:#000000;" text-anchor="start" x="20" y="144.500000">ATPase family associated with various cellular activities (AAA)</text><rect fill="#FF5353" x="4" y="146.500000" width="12" height="12" filter="url(#ds)"/><text style="font-size:12px;font-family:OpenSans;fill:#000000;" text-anchor="start" x="20" y="158.500000">Vps4 C terminal oligomerisation domain</text></svg>
