<?xml version='1.0'?>
<svg xmlns="http://www.w3.org/2000/svg" xmlns:xlink="http://www.w3.org/1999/xlink" width="2008.800000" height="133.000000">
<defs>
  <filter id="ds" x="0" y="0">
    <feOffset in="SourceAlpha" dx="2" dy="2" />
    <feComponentTransfer><feFuncA type="linear" slope="0.2"/></feComponentTransfer>
    <feGaussianBlur result="blurOut" stdDeviation="1" />
    <feBlend in="SourceGraphic" in2="blurOut" mode="normal" />
  </filter>
  <pattern id="disordered-hatch" patternUnits="userSpaceOnUse" width="4" height="4">
    <path d="M-1,1 l2,-2 M0,4 l4,-4 M3,5 l2,-2" stroke="#000000" opacity="0.3" />
  </pattern>
</defs>
<line x1="263.200000" x2="263.200000" y1="34.000000" y2="62.000000" stroke="#BABDB6" stroke-width="2"/><a xlink:title="P73P"><circle cx="263.200000" cy="34.000000" r="4.000000" fill="#0000ff" /></a><g transform="translate(263.200000,34.000000) rotate(-30)"><text style="font-size:10px;font-family:OpenSans;fill:#555;" text-anchor="middle" x="0" y="-6.000000">P73P</text></g><line x1="365.200000" x2="365.200000" y1="34.000000" y2="62.000000" stroke="#BABDB6" stroke-width="2"/><a xlink:title="D103D"><circle cx="365.200000" cy="34.000000" r="4.000000" fill="#0000ff" /></a><g transform="translate(365.200000,34.000000) rotate(-30)"><text style="font-size:10px;font-family:OpenSans;fill:#555;" text-anchor="middle" x="0" y="-6.000000">D103D</text></g><line x1="375.400000" x2="375.400000" y1="34.000000" y2="62.000000" stroke="#BABDB6" stroke-width="2"/><a xlink:title="K106R"><circle cx="375.400000" cy="34.000000" r="4.000000" fill="#ff0000" /></a><g transform="translate(375.400000,34.000000) rotate(-30)"><text style="font-size:10px;font-family:OpenSans;fill:#555;" text-anchor="middle" x="0" y="-6.000000">K106R</text></g><line x1="572.600000" x2="572.600000" y1="34.000000" y2="62.000000" stroke="#BABDB6" stroke-width="2"/><a xlink:title="P164P"><circle cx="572.600000" cy="34.000000" r="4.000000" fill="#0000ff" /></a><g transform="translate(572.600000,34.000000) rotate(-30)"><text style="font-size:10px;font-family:OpenSans;fill:#555;" text-anchor="middle" x="0" y="-6.000000">P164P</text></g><line x1="684.800000" x2="684.800000" y1="34.000000" y2="62.000000" stroke="#BABDB6" stroke-width="2"/><a xlink:title="K197R"><circle cx="684.800000" cy="34.000000" r="4.000000" fill="#ff0000" /></a><g transform="translate(684.800000,34.000000) rotate(-30)"><text style="font-size:10px;font-family:OpenSans;fill:#555;" text-anchor="middle" x="0" y="-6.000000">K197R</text></g><line x1="1086.000000" x2="1086.000000" y1="34.000000" y2="62.000000" stroke="#BABDB6" stroke-width="2"/><a xlink:title="Y315Y"><circle cx="1086.000000" cy="34.000000" r="4.000000" fill="#0000ff" /></a><g transform="translate(1086.000000,34.000000) rotate(-30)"><text style="font-size:10px;font-family:OpenSans;fill:#555;" text-anchor="middle" x="0" y="-6.000000">Y315Y</text></g><line x1="1262.800000" x2="1262.800000" y1="34.000000" y2="62.000000" stroke="#BABDB6" stroke-width="2"/><a xlink:title="P367P"><circle cx="1262.800000" cy="34.000000" r="4.000000" fill="#0000ff" /></a><g transform="translate(1262.800000,34.000000) rotate(-30)"><text style="font-size:10px;font-family:OpenSans;fill:#555;" text-anchor="middle" x="0" y="-6.000000">P367P</text></g><line x1="1327.400000" x2="1327.400000" y1="34.000000" y2="62.000000" stroke="#BABDB6" stroke-width="2"/><a xlink:title="P386P"><circle cx="1327.400000" cy="34.000000" r="4.000000" fill="#0000ff" /></a><g transform="translate(1327.400000,34.000000) rotate(-30)"><text style="font-size:10px;font-family:OpenSans;fill:#555;" text-anchor="middle" x="0" y="-6.000000">P386P</text></g><line x1="1395.400000" x2="1395.400000" y1="34.000000" y2="62.000000" stroke="#BABDB6" stroke-width="2"/><a xlink:title="Y406Y"><circle cx="1395.400000" cy="34.000000" r="4.000000" fill="#0000ff" /></a><g transform="translate(1395.400000,34.000000) rotate(-30)"><text style="font-size:10px;font-family:OpenSans;fill:#555;" text-anchor="middle" x="0" y="-6.000000">Y406Y</text></g><line x1="1572.200000" x2="1572.200000" y1="34.000000" y2="62.000000" stroke="#BABDB6" stroke-width="2"/><a xlink:title="P458P"><circle cx="1572.200000" cy="34.000000" r="4.000000" fill="#0000ff" /></a><g transform="translate(1572.200000,34.000000) rotate(-30)"><text style="font-size:10px;font-family:OpenSans;fill:#555;" text-anchor="middle" x="0" y="-6.000000">P458P</text></g><line x1="1636.800000" x2="1636.800000" y1="34.000000" y2="62.000000" stroke="#BABDB6" stroke-width="2"/><a xlink:title="P477P"><circle cx="1636.800000" cy="34.000000" r="4.000000" fill="#0000ff" /></a><g transform="translate(1636.800000,34.000000) rotate(-30)"><text style="font-size:10px;font-family:OpenSans;fill:#555;" text-anchor="middle" x="0" y="-6.000000">P477P</text></g><a xlink:title=",  (582aa)"><rect fill="#BABDB6" x="15.000000" y="62.000000" width="1978.800000" height="14.000000"/></a><g transform="translate(202.000000,57.000000)"><a xlink:href="https://www.ebi.ac.uk/interpro/entry/pfam/PF00254" xlink:title="FKBP-type peptidyl-prolyl cis-trans isomerase"><rect fill="#2DCF00" x="0" y="0" width="312.800000" height="24.000000" filter="url(#ds)"/><text style="font-size:12px;font-family:OpenSans;fill:#ffffff;" text-anchor="middle" x="156.400000" y="16.000000">FKBP-type peptidyl-prolyl cis-trans isomerase</text></a></g>
<g transform="translate(582.800000,57.000000)"><a xlink:href="https://www.ebi.ac.uk/interpro/entry/pfam/PF00254" xlink:title="FKBP-type peptidyl-prolyl cis-trans isomerase"><rect fill="#FF5353" x="0" y="0" width="309.400000" height="24.000000" filter="url(#ds)"/><text style="font-size:12px;font-family:OpenSans;fill:#ffffff;" text-anchor="middle" x="154.700000" y="16.000000">FKBP-type peptidyl-prolyl cis-trans isomerase</text></a></g>
<g transform="translate(970.400000,57.000000)"><a xlink:href="https://www.ebi.ac.uk/interpro/entry/pfam/PF00254" xlink:title="FKBP-type peptidyl-prolyl cis-trans isomerase"><rect fill="#5B5BFF" x="0" y="0" width="302.600000" height="24.000000" filter="url(#ds)"/><text style="font-size:12px;font-family:OpenSans;fill:#ffffff;" text-anchor="middle" x="151.300000" y="16.000000">FKBP-type peptidyl-prolyl cis-trans isomerase</text></a></g>
<g transform="translate(1347.800000,57.000000)"><a xlink:href="https://www.ebi.ac.uk/interpro/entry/pfam/PF00254" xlink:title="FKBP-type peptidyl-prolyl cis-trans isomerase"><rect fill="#EBD61D" x="0" y="0" width="309.400000" height="24.000000" filter="url(#ds)"/><text style="font-size:12px;font-family:OpenSans;fill:#ffffff;" text-anchor="middle" x="154.700000" y="16.000000">FKBP-type peptidyl-prolyl cis-trans isomerase</text></a></g>
<g transform="translate(1732.000000,57.000000)"><a xlink:href="https://www.ebi.ac.uk/interpro/entry/pfam/PF13202" xlink:title="EF hand"><rect fill="#BA21E0" x="0" y="0" width="68.000000" height="24.000000" filter="url(#ds)"/><text style="font-size:12px;font-family:OpenSans;fill:#ffffff;" text-anchor="middle" x="34.000000" y="16.000000">EF hand</text></a></g>
<g transform="translate(1878.200000,57.000000)"><a xlink:href="https://www.ebi.ac.uk/interpro/entry/pfam/PF13202" xlink:title="EF hand"><rect fill="#FF9C42" x="0" y="0" width="68.000000" height="24.000000" filter="url(#ds)"/><text style="font-size:12px;font-family:OpenSans;fill:#ffffff;" text-anchor="middle" x="34.000000" y="16.000000">EF hand</text></a></g>
<g class="axis">
<line x1="15.000000" x2="1993.800000" y1="91.000000" y2="91.000000" stroke="#AAAAAA" /><line x1="15.000000" x2="15.000000" y1="91.000000" y2="96.000000" stroke="#AAAAAA" /><line x1="15.000000" x2="15.000000" y1="91.000000" y2="96.000000" stroke="#AAAAAA" /><text style="font-size:10px;font-family:OpenSans;fill:#000000;" text-anchor="middle" x="15.000000" y="106.000000">0</text><line x1="202.000000" x2="202.000000" y1="91.000000" y2="96.000000" stroke="#AAAAAA" /><text style="font-size:10px;font-family:OpenSans;fill:#000000;" text-anchor="middle" x="202.000000" y="106.000000">55</text><line x1="263.200000" x2="263.200000" y1="91.000000" y2="96.000000" stroke="#AAAAAA" /><text style="font-size:10px;font-family:OpenSans;fill:#000000;" text-anchor="middle" x="263.200000" y="106.000000">73</text><line x1="365.200000" x2="365.200000" y1="91.000000" y2="96.000000" stroke="#AAAAAA" /><text style="font-size:10px;font-family:OpenSans;fill:#000000;" text-anchor="middle" x="365.200000" y="106.000000">103</text><line x1="514.800000" x2="514.800000" y1="91.000000" y2="96.000000" stroke="#AAAAAA" /><text style="font-size:10px;font-family:OpenSans;fill:#000000;" text-anchor="middle" x="514.800000" y="106.000000">147</text><line x1="572.600000" x2="572.600000" y1="91.000000" y2="96.000000" stroke="#AAAAAA" /><text style="font-size:10px;font-family:OpenSans;fill:#000000;" text-anchor="middle" x="572.600000" y="106.000000">164</text><line x1="684.800000" x2="684.800000" y1="91.000000" y2="96.000000" stroke="#AAAAAA" /><text style="font-size:10px;font-family:OpenSans;fill:#000000;" text-anchor="middle" x="684.800000" y="106.000000">197</text><line x1="892.200000" x2="892.200000" y1="91.000000" y2="96.000000" stroke="#AAAAAA" /><text style="font-size:10px;font-family:OpenSans;fill:#000000;" text-anchor="middle" x="892.200000" y="106.000000">258</text><line x1="970.400000" x2="970.400000" y1="91.000000" y2="96.000000" stroke="#AAAAAA" /><text style="font-size:10px;font-family:OpenSans;fill:#000000;" text-anchor="middle" x="970.400000" y="106.000000">281</text><line x1="1086.000000" x2="1086.000000" y1="91.000000" y2="96.000000" stroke="#AAAAAA" /><text style="font-size:10px;font-family:OpenSans;fill:#000000;" text-anchor="middle" x="1086.000000" y="106.000000">315</text><line x1="1262.800000" x2="1262.800000" y1="91.000000" y2="96.000000" stroke="#AAAAAA" /><text style="font-size:10px;font-family:OpenSans;fill:#000000;" text-anchor="middle" x="1262.800000" y="106.000000">367</text><line x1="1327.400000" x2="1327.400000" y1="91.000000" y2="96.000000" stroke="#AAAAAA" /><text style="font-size:10px;font-family:OpenSans;fill:#000000;" text-anchor="middle" x="1327.400000" y="106.000000">386</text><line x1="1347.800000" x2="1347.800000" y1="91.000000" y2="96.000000" stroke="#AAAAAA" /><text style="font-size:10px;font-family:OpenSans;fill:#000000;" text-anchor="middle" x="1347.800000" y="106.000000">392</text><line x1="1395.400000" x2="1395.400000" y1="91.000000" y2="96.000000" stroke="#AAAAAA" /><text style="font-size:10px;font-family:OpenSans;fill:#000000;" text-anchor="middle" x="1395.400000" y="106.000000">406</text><line x1="1572.200000" x2="1572.200000" y1="91.000000" y2="96.000000" stroke="#AAAAAA" /><text style="font-size:10px;font-family:OpenSans;fill:#000000;" text-anchor="middle" x="1572.200000" y="106.000000">458</text><line x1="1636.800000" x2="1636.800000" y1="91.000000" y2="96.000000" stroke="#AAAAAA" /><text style="font-size:10px;font-family:OpenSans;fill:#000000;" text-anchor="middle" x="1636.800000" y="106.000000">477</text><line x1="1657.200000" x2="1657.200000" y1="91.000000" y2="96.000000" stroke="#AAAAAA" /><text style="font-size:10px;font-family:OpenSans;fill:#000000;" text-anchor="middle" x="1657.200000" y="106.000000">483</text><line x1="1732.000000" x2="1732.000000" y1="91.000000" y2="96.000000" stroke="#AAAAAA" /><text style="font-size:10px;font-family:OpenSans;fill:#000000;" text-anchor="middle" x="1732.000000" y="106.000000">505</text><line x1="1800.000000" x2="1800.000000" y1="91.000000" y2="96.000000" stroke="#AAAAAA" /><text style="font-size:10px;font-family:OpenSans;fill:#000000;" text-anchor="middle" x="1800.000000" y="106.000000">525</text><line x1="1878.200000" x2="1878.200000" y1="91.000000" y2="96.000000" stroke="#AAAAAA" /><text style="font-size:10px;font-family:OpenSans;fill:#000000;" text-anchor="middle" x="1878.200000" y="106.000000">548</text><line x1="1946.200000" x2="1946.200000" y1="91.000000" y2="96.000000" stroke="#AAAAAA" /><text style="font-size:10px;font-family:OpenSans;fill:#000000;" text-anchor="middle" x="1946.200000" y="106.000000">568</text><line x1="1993.800000" x2="1993.800000" y1="91.000000" y2="96.000000" stroke="#AAAAAA" /><text style="font-size:10px;font-family:OpenSans;fill:#000000;" text-anchor="middle" x="1993.800000" y="106.000000">582</text></g>
</svg>
