<?xml version='1.0'?>
<svg xmlns="http://www.w3.org/2000/svg" xmlns:xlink="http://www.w3.org/1999/xlink" width="2968.736842" height="171.900000">
<defs>
  <filter id="ds" x="0" y="0">
    <feOffset in="SourceAlpha" dx="2" dy="2" />
    <feComponentTransfer><feFuncA type="linear" slope="0.2"/></feComponentTransfer>
    <feGaussianBlur result="blurOut" stdDeviation="1" />
    <feBlend in="SourceGraphic" in2="blurOut" mode="normal" />
  </filter>
  <pattern id="disordered-hatch" patternUnits="userSpaceOnUse" width="4" height="4">
    <path d="M-1,1 l2,-2 M0,4 l4,-4 M3,5 l2,-2" stroke="#000000" opacity="0.3" />
  </pattern>
</defs>
<line x1="140.052632" x2="140.052632" y1="46.500000" y2="74.500000" stroke="#BABDB6" stroke-width="2"/><a xlink:title="H54H"><circle cx="140.052632" cy="46.500000" r="4.000000" fill="#0000ff" /></a><g transform="translate(140.052632,46.500000) rotate(-30)"><text style="font-size:10px;font-family:OpenSans;fill:#555;" text-anchor="middle" x="0" y="-6.000000">H54H</text></g><line x1="165.526316" x2="165.526316" y1="46.500000" y2="74.500000" stroke="#BABDB6" stroke-width="2"/><a xlink:title="H65H"><circle cx="165.526316" cy="46.500000" r="4.000000" fill="#0000ff" /></a><g transform="translate(165.526316,46.500000) rotate(-30)"><text style="font-size:10px;font-family:OpenSans;fill:#555;" text-anchor="middle" x="0" y="-6.000000">H65H</text></g><line x1="783.842105" x2="783.842105" y1="46.500000" y2="74.500000" stroke="#BABDB6" stroke-width="2"/><a xlink:title="A332A"><circle cx="783.842105" cy="46.500000" r="4.000000" fill="#0000ff" /></a><g transform="translate(783.842105,46.500000) rotate(-30)"><text style="font-size:10px;font-family:OpenSans;fill:#555;" text-anchor="middle" x="0" y="-6.000000">A332A</text></g><line x1="839.421053" x2="839.421053" y1="46.500000" y2="74.500000" stroke="#BABDB6" stroke-width="2"/><a xlink:title="V356M"><circle cx="839.421053" cy="46.500000" r="4.000000" fill="#ff0000" /></a><g transform="translate(839.421053,46.500000) rotate(-30)"><text style="font-size:10px;font-family:OpenSans;fill:#555;" text-anchor="middle" x="0" y="-6.000000">V356M</text></g><line x1="883.421053" x2="883.421053" y1="46.500000" y2="74.500000" stroke="#BABDB6" stroke-width="2"/><a xlink:title="A375A"><circle cx="883.421053" cy="46.500000" r="4.000000" fill="#0000ff" /></a><g transform="translate(883.421053,46.500000) rotate(-30)"><text style="font-size:10px;font-family:OpenSans;fill:#555;" text-anchor="middle" x="0" y="-6.000000">A375A</text></g><line x1="908.894737" x2="908.894737" y1="46.500000" y2="74.500000" stroke="#BABDB6" stroke-width="2"/><a xlink:title="A386A"><circle cx="908.894737" cy="46.500000" r="4.000000" fill="#0000ff" /></a><g transform="translate(908.894737,46.500000) rotate(-30)"><text style="font-size:10px;font-family:OpenSans;fill:#555;" text-anchor="middle" x="0" y="-6.000000">A386A</text></g><line x1="939.000000" x2="939.000000" y1="46.500000" y2="74.500000" stroke="#BABDB6" stroke-width="2"/><a xlink:title="V399M"><circle cx="939.000000" cy="46.500000" r="4.000000" fill="#ff0000" /></a><g transform="translate(939.000000,46.500000) rotate(-30)"><text style="font-size:10px;font-family:OpenSans;fill:#555;" text-anchor="middle" x="0" y="-6.000000">V399M</text></g><line x1="964.473684" x2="964.473684" y1="46.500000" y2="74.500000" stroke="#BABDB6" stroke-width="2"/><a xlink:title="V410M"><circle cx="964.473684" cy="46.500000" r="4.000000" fill="#ff0000" /></a><g transform="translate(964.473684,46.500000) rotate(-30)"><text style="font-size:10px;font-family:OpenSans;fill:#555;" text-anchor="middle" x="0" y="-6.000000">V410M</text></g><line x1="1545.736842" x2="1545.736842" y1="46.500000" y2="74.500000" stroke="#BABDB6" stroke-width="2"/><a xlink:title="H661H"><circle cx="1545.736842" cy="46.500000" r="4.000000" fill="#0000ff" /></a><g transform="translate(1545.736842,46.500000) rotate(-30)"><text style="font-size:10px;font-family:OpenSans;fill:#555;" text-anchor="middle" x="0" y="-6.000000">H661H</text></g><line x1="1647.631579" x2="1647.631579" y1="46.500000" y2="74.500000" stroke="#BABDB6" stroke-width="2"/><a xlink:title="H705H"><circle cx="1647.631579" cy="46.500000" r="4.000000" fill="#0000ff" /></a><g transform="translate(1647.631579,46.500000) rotate(-30)"><text style="font-size:10px;font-family:OpenSans;fill:#555;" text-anchor="middle" x="0" y="-6.000000">H705H</text></g><line x1="1670.789474" x2="1670.789474" y1="34.000000" y2="74.500000" stroke="#BABDB6" stroke-width="2"/><a xlink:title="H715H"><circle cx="1670.789474" cy="34.000000" r="4.000000" fill="#0000ff" /></a><g transform="translate(1670.789474,34.000000) rotate(-30)"><text style="font-size:10px;font-family:OpenSans;fill:#555;" text-anchor="middle" x="0" y="-6.000000">H715H</text></g><line x1="1673.105263" x2="1673.105263" y1="46.500000" y2="74.500000" stroke="#BABDB6" stroke-width="2"/><a xlink:title="H716H"><circle cx="1673.105263" cy="46.500000" r="4.000000" fill="#0000ff" /></a><g transform="translate(1673.105263,46.500000) rotate(-30)"><text style="font-size:10px;font-family:OpenSans;fill:#555;" text-anchor="middle" x="0" y="-6.000000">H716H</text></g><line x1="1703.210526" x2="1703.210526" y1="46.500000" y2="74.500000" stroke="#BABDB6" stroke-width="2"/><a xlink:title="V729M"><circle cx="1703.210526" cy="46.500000" r="4.000000" fill="#ff0000" /></a><g transform="translate(1703.210526,46.500000) rotate(-30)"><text style="font-size:10px;font-family:OpenSans;fill:#555;" text-anchor="middle" x="0" y="-6.000000">V729M</text></g><line x1="1805.105263" x2="1805.105263" y1="46.500000" y2="74.500000" stroke="#BABDB6" stroke-width="2"/><a xlink:title="V773M"><circle cx="1805.105263" cy="46.500000" r="4.000000" fill="#ff0000" /></a><g transform="translate(1805.105263,46.500000) rotate(-30)"><text style="font-size:10px;font-family:OpenSans;fill:#555;" text-anchor="middle" x="0" y="-6.000000">V773M</text></g><line x1="1828.263158" x2="1828.263158" y1="34.000000" y2="74.500000" stroke="#BABDB6" stroke-width="2"/><a xlink:title="V783M"><circle cx="1828.263158" cy="34.000000" r="4.000000" fill="#ff0000" /></a><g transform="translate(1828.263158,34.000000) rotate(-30)"><text style="font-size:10px;font-family:OpenSans;fill:#555;" text-anchor="middle" x="0" y="-6.000000">V783M</text></g><line x1="1830.578947" x2="1830.578947" y1="46.500000" y2="74.500000" stroke="#BABDB6" stroke-width="2"/><a xlink:title="V784M"><circle cx="1830.578947" cy="46.500000" r="4.000000" fill="#ff0000" /></a><g transform="translate(1830.578947,46.500000) rotate(-30)"><text style="font-size:10px;font-family:OpenSans;fill:#555;" text-anchor="middle" x="0" y="-6.000000">V784M</text></g><line x1="2291.421053" x2="2291.421053" y1="46.500000" y2="74.500000" stroke="#BABDB6" stroke-width="2"/><a xlink:title="F983F"><circle cx="2291.421053" cy="46.500000" r="4.000000" fill="#0000ff" /></a><g transform="translate(2291.421053,46.500000) rotate(-30)"><text style="font-size:10px;font-family:OpenSans;fill:#555;" text-anchor="middle" x="0" y="-6.000000">F983F</text></g><line x1="2393.315789" x2="2393.315789" y1="46.500000" y2="74.500000" stroke="#BABDB6" stroke-width="2"/><a xlink:title="F1027F"><circle cx="2393.315789" cy="46.500000" r="4.000000" fill="#0000ff" /></a><g transform="translate(2393.315789,46.500000) rotate(-30)"><text style="font-size:10px;font-family:OpenSans;fill:#555;" text-anchor="middle" x="0" y="-6.000000">F1027F</text></g><line x1="2416.473684" x2="2416.473684" y1="34.000000" y2="74.500000" stroke="#BABDB6" stroke-width="2"/><a xlink:title="F1037F"><circle cx="2416.473684" cy="34.000000" r="4.000000" fill="#0000ff" /></a><g transform="translate(2416.473684,34.000000) rotate(-30)"><text style="font-size:10px;font-family:OpenSans;fill:#555;" text-anchor="middle" x="0" y="-6.000000">F1037F</text></g><line x1="2418.789474" x2="2418.789474" y1="46.500000" y2="74.500000" stroke="#BABDB6" stroke-width="2"/><a xlink:title="F1038F"><circle cx="2418.789474" cy="46.500000" r="4.000000" fill="#0000ff" /></a><g transform="translate(2418.789474,46.500000) rotate(-30)"><text style="font-size:10px;font-family:OpenSans;fill:#555;" text-anchor="middle" x="0" y="-6.000000">F1038F</text></g><line x1="2615.631579" x2="2615.631579" y1="46.500000" y2="74.500000" stroke="#BABDB6" stroke-width="2"/><a xlink:title="V1123V"><circle cx="2615.631579" cy="46.500000" r="4.000000" fill="#0000ff" /></a><g transform="translate(2615.631579,46.500000) rotate(-30)"><text style="font-size:10px;font-family:OpenSans;fill:#555;" text-anchor="middle" x="0" y="-6.000000">V1123V</text></g><line x1="2717.526316" x2="2717.526316" y1="46.500000" y2="74.500000" stroke="#BABDB6" stroke-width="2"/><a xlink:title="V1167V"><circle cx="2717.526316" cy="46.500000" r="4.000000" fill="#0000ff" /></a><g transform="translate(2717.526316,46.500000) rotate(-30)"><text style="font-size:10px;font-family:OpenSans;fill:#555;" text-anchor="middle" x="0" y="-6.000000">V1167V</text></g><line x1="2740.684211" x2="2740.684211" y1="34.000000" y2="74.500000" stroke="#BABDB6" stroke-width="2"/><a xlink:title="V1177V"><circle cx="2740.684211" cy="34.000000" r="4.000000" fill="#0000ff" /></a><g transform="translate(2740.684211,34.000000) rotate(-30)"><text style="font-size:10px;font-family:OpenSans;fill:#555;" text-anchor="middle" x="0" y="-6.000000">V1177V</text></g><line x1="2743.000000" x2="2743.000000" y1="46.500000" y2="74.500000" stroke="#BABDB6" stroke-width="2"/><a xlink:title="V1178V"><circle cx="2743.000000" cy="46.500000" r="4.000000" fill="#0000ff" /></a><g transform="translate(2743.000000,46.500000) rotate(-30)"><text style="font-size:10px;font-family:OpenSans;fill:#555;" text-anchor="middle" x="0" y="-6.000000">V1178V</text></g><line x1="2803.210526" x2="2803.210526" y1="46.500000" y2="74.500000" stroke="#BABDB6" stroke-width="2"/><a xlink:title="H1204H"><circle cx="2803.210526" cy="46.500000" r="4.000000" fill="#0000ff" /></a><g transform="translate(2803.210526,46.500000) rotate(-30)"><text style="font-size:10px;font-family:OpenSans;fill:#555;" text-anchor="middle" x="0" y="-6.000000">H1204H</text></g><line x1="2905.105263" x2="2905.105263" y1="46.500000" y2="74.500000" stroke="#BABDB6" stroke-width="2"/><a xlink:title="H1248H"><circle cx="2905.105263" cy="46.500000" r="4.000000" fill="#0000ff" /></a><g transform="translate(2905.105263,46.500000) rotate(-30)"><text style="font-size:10px;font-family:OpenSans;fill:#555;" text-anchor="middle" x="0" y="-6.000000">H1248H</text></g><line x1="2928.263158" x2="2928.263158" y1="34.000000" y2="74.500000" stroke="#BABDB6" stroke-width="2"/><a xlink:title="H1258H"><circle cx="2928.263158" cy="34.000000" r="4.000000" fill="#0000ff" /></a><g transform="translate(2928.263158,34.000000) rotate(-30)"><text style="font-size:10px;font-family:OpenSans;fill:#555;" text-anchor="middle" x="0" y="-6.000000">H1258H</text></g><line x1="2930.578947" x2="2930.578947" y1="46.500000" y2="74.500000" stroke="#BABDB6" stroke-width="2"/><a xlink:title="H1259H"><circle cx="2930.578947" cy="46.500000" r="4.000000" fill="#0000ff" /></a><g transform="translate(2930.578947,46.500000) rotate(-30)"><text style="font-size:10px;font-family:OpenSans;fill:#555;" text-anchor="middle" x="0" y="-6.000000">H1259H</text></g><line x1="2990.789474" x2="2990.789474" y1="34.000000" y2="74.500000" stroke="#BABDB6" stroke-width="2"/><a xlink:title="H1285H"><circle cx="2990.789474" cy="34.000000" r="4.000000" fill="#0000ff" /></a><g transform="translate(2990.789474,34.000000) rotate(-30)"><text style="font-size:10px;font-family:OpenSans;fill:#555;" text-anchor="middle" x="0" y="-6.000000">H1285H</text></g><line x1="2993.105263" x2="2993.105263" y1="46.500000" y2="74.500000" stroke="#BABDB6" stroke-width="2"/><a xlink:title="H1286H"><circle cx="2993.105263" cy="46.500000" r="4.000000" fill="#0000ff" /></a><g transform="translate(2993.105263,46.500000) rotate(-30)"><text style="font-size:10px;font-family:OpenSans;fill:#555;" text-anchor="middle" x="0" y="-6.000000">H1286H</text></g><a xlink:title=",  (1269aa)"><rect fill="#BABDB6" x="15.000000" y="74.500000" width="2938.736842" height="14.000000"/></a><g transform="translate(93.736842,69.500000)"><a xlink:href="https://www.ebi.ac.uk/interpro/entry/pfam/PF13855" xlink:title="Leucine rich repeat"><rect fill="#2DCF00" x="0" y="0" width="132.000000" height="24.000000" filter="url(#ds)"/><text style="font-size:12px;font-family:OpenSans;fill:#ffffff;" text-anchor="middle" x="66.000000" y="16.000000">Leucine rich repeat</text></a></g>
<g transform="translate(260.473684,69.500000)"><a xlink:href="https://www.ebi.ac.uk/interpro/entry/pfam/PF00560" xlink:title="Leucine Rich Repeat"><rect fill="#FF5353" x="0" y="0" width="44.000000" height="24.000000" filter="url(#ds)"/><text style="font-size:12px;font-family:OpenSans;fill:#ffffff;" text-anchor="middle" x="22.000000" y="16.000000">LRR_1</text></a></g>
<g transform="translate(318.368421,69.500000)"><a xlink:href="https://www.ebi.ac.uk/interpro/entry/pfam/PF13855" xlink:title="Leucine rich repeat"><rect fill="#5B5BFF" x="0" y="0" width="127.368421" height="24.000000" filter="url(#ds)"/><text style="font-size:12px;font-family:OpenSans;fill:#ffffff;" text-anchor="middle" x="63.684211" y="16.000000">Leucine rich repeat</text></a></g>
<g transform="translate(475.842105,69.500000)"><a xlink:href="https://www.ebi.ac.uk/interpro/entry/pfam/PF13855" xlink:title="Leucine rich repeat"><rect fill="#EBD61D" x="0" y="0" width="136.631579" height="24.000000" filter="url(#ds)"/><text style="font-size:12px;font-family:OpenSans;fill:#ffffff;" text-anchor="middle" x="68.315789" y="16.000000">Leucine rich repeat</text></a></g>
<g transform="translate(642.578947,69.500000)"><a xlink:href="https://www.ebi.ac.uk/interpro/entry/pfam/PF12799" xlink:title="Leucine Rich repeats (2 copies)"><rect fill="#BA21E0" x="0" y="0" width="90.315789" height="24.000000" filter="url(#ds)"/><text style="font-size:12px;font-family:OpenSans;fill:#ffffff;" text-anchor="middle" x="45.157895" y="16.000000">LRR_4</text></a></g>
<g transform="translate(1193.736842,69.500000)"><a xlink:href="https://www.ebi.ac.uk/interpro/entry/pfam/PF00626" xlink:title="Gelsolin repeat"><rect fill="#FF9C42" x="0" y="0" width="189.894737" height="24.000000" filter="url(#ds)"/><text style="font-size:12px;font-family:OpenSans;fill:#ffffff;" text-anchor="middle" x="94.947368" y="16.000000">Gelsolin repeat</text></a></g>
<g transform="translate(1471.631579,69.500000)"><a xlink:href="https://www.ebi.ac.uk/interpro/entry/pfam/PF00626" xlink:title="Gelsolin repeat"><rect fill="#FF7DFF" x="0" y="0" width="171.368421" height="24.000000" filter="url(#ds)"/><text style="font-size:12px;font-family:OpenSans;fill:#ffffff;" text-anchor="middle" x="85.684211" y="16.000000">Gelsolin repeat</text></a></g>
<g transform="translate(1770.368421,69.500000)"><a xlink:href="https://www.ebi.ac.uk/interpro/entry/pfam/PF00626" xlink:title="Gelsolin repeat"><rect fill="#B9264F" x="0" y="0" width="169.052632" height="24.000000" filter="url(#ds)"/><text style="font-size:12px;font-family:OpenSans;fill:#ffffff;" text-anchor="middle" x="84.526316" y="16.000000">Gelsolin repeat</text></a></g>
<g transform="translate(2504.473684,69.500000)"><a xlink:href="https://www.ebi.ac.uk/interpro/entry/pfam/PF00626" xlink:title="Gelsolin repeat"><rect fill="#BABA21" x="0" y="0" width="157.473684" height="24.000000" filter="url(#ds)"/><text style="font-size:12px;font-family:OpenSans;fill:#ffffff;" text-anchor="middle" x="78.736842" y="16.000000">Gelsolin repeat</text></a></g>
<g transform="translate(2749.947368,69.500000)"><a xlink:href="https://www.ebi.ac.uk/interpro/entry/pfam/PF00626" xlink:title="Gelsolin repeat"><rect fill="#C48484" x="0" y="0" width="169.052632" height="24.000000" filter="url(#ds)"/><text style="font-size:12px;font-family:OpenSans;fill:#ffffff;" text-anchor="middle" x="84.526316" y="16.000000">Gelsolin repeat</text></a></g>
<g class="axis">
<line x1="15.000000" x2="2953.736842" y1="103.500000" y2="103.500000" stroke="#AAAAAA" /><line x1="15.000000" x2="15.000000" y1="103.500000" y2="108.500000" stroke="#AAAAAA" /><line x1="15.000000" x2="15.000000" y1="103.500000" y2="108.500000" stroke="#AAAAAA" /><text style="font-size:10px;font-family:OpenSans;fill:#000000;" text-anchor="middle" x="15.000000" y="118.500000">0</text><line x1="93.736842" x2="93.736842" y1="103.500000" y2="108.500000" stroke="#AAAAAA" /><text style="font-size:10px;font-family:OpenSans;fill:#000000;" text-anchor="middle" x="93.736842" y="118.500000">34</text><line x1="140.052632" x2="140.052632" y1="103.500000" y2="108.500000" stroke="#AAAAAA" /><text style="font-size:10px;font-family:OpenSans;fill:#000000;" text-anchor="middle" x="140.052632" y="118.500000">54</text><line x1="165.526316" x2="165.526316" y1="103.500000" y2="108.500000" stroke="#AAAAAA" /><text style="font-size:10px;font-family:OpenSans;fill:#000000;" text-anchor="middle" x="165.526316" y="118.500000">65</text><line x1="225.736842" x2="225.736842" y1="103.500000" y2="108.500000" stroke="#AAAAAA" /><text style="font-size:10px;font-family:OpenSans;fill:#000000;" text-anchor="middle" x="225.736842" y="118.500000">91</text><line x1="260.473684" x2="260.473684" y1="103.500000" y2="108.500000" stroke="#AAAAAA" /><text style="font-size:10px;font-family:OpenSans;fill:#000000;" text-anchor="middle" x="260.473684" y="118.500000">106</text><line x1="304.473684" x2="304.473684" y1="103.500000" y2="108.500000" stroke="#AAAAAA" /><text style="font-size:10px;font-family:OpenSans;fill:#000000;" text-anchor="middle" x="304.473684" y="118.500000">125</text><line x1="445.736842" x2="445.736842" y1="103.500000" y2="108.500000" stroke="#AAAAAA" /><text style="font-size:10px;font-family:OpenSans;fill:#000000;" text-anchor="middle" x="445.736842" y="118.500000">186</text><line x1="475.842105" x2="475.842105" y1="103.500000" y2="108.500000" stroke="#AAAAAA" /><text style="font-size:10px;font-family:OpenSans;fill:#000000;" text-anchor="middle" x="475.842105" y="118.500000">199</text><line x1="612.473684" x2="612.473684" y1="103.500000" y2="108.500000" stroke="#AAAAAA" /><text style="font-size:10px;font-family:OpenSans;fill:#000000;" text-anchor="middle" x="612.473684" y="118.500000">258</text><line x1="642.578947" x2="642.578947" y1="103.500000" y2="108.500000" stroke="#AAAAAA" /><text style="font-size:10px;font-family:OpenSans;fill:#000000;" text-anchor="middle" x="642.578947" y="118.500000">271</text><line x1="732.894737" x2="732.894737" y1="103.500000" y2="108.500000" stroke="#AAAAAA" /><text style="font-size:10px;font-family:OpenSans;fill:#000000;" text-anchor="middle" x="732.894737" y="118.500000">310</text><line x1="783.842105" x2="783.842105" y1="103.500000" y2="108.500000" stroke="#AAAAAA" /><text style="font-size:10px;font-family:OpenSans;fill:#000000;" text-anchor="middle" x="783.842105" y="118.500000">332</text><line x1="839.421053" x2="839.421053" y1="103.500000" y2="108.500000" stroke="#AAAAAA" /><text style="font-size:10px;font-family:OpenSans;fill:#000000;" text-anchor="middle" x="839.421053" y="118.500000">356</text><line x1="883.421053" x2="883.421053" y1="103.500000" y2="108.500000" stroke="#AAAAAA" /><text style="font-size:10px;font-family:OpenSans;fill:#000000;" text-anchor="middle" x="883.421053" y="118.500000">375</text><line x1="908.894737" x2="908.894737" y1="103.500000" y2="108.500000" stroke="#AAAAAA" /><text style="font-size:10px;font-family:OpenSans;fill:#000000;" text-anchor="middle" x="908.894737" y="118.500000">386</text><line x1="939.000000" x2="939.000000" y1="103.500000" y2="108.500000" stroke="#AAAAAA" /><text style="font-size:10px;font-family:OpenSans;fill:#000000;" text-anchor="middle" x="939.000000" y="118.500000">399</text><line x1="964.473684" x2="964.473684" y1="103.500000" y2="108.500000" stroke="#AAAAAA" /><text style="font-size:10px;font-family:OpenSans;fill:#000000;" text-anchor="middle" x="964.473684" y="118.500000">410</text><line x1="1193.736842" x2="1193.736842" y1="103.500000" y2="108.500000" stroke="#AAAAAA" /><text style="font-size:10px;font-family:OpenSans;fill:#000000;" text-anchor="middle" x="1193.736842" y="118.500000">509</text><line x1="1383.631579" x2="1383.631579" y1="103.500000" y2="108.500000" stroke="#AAAAAA" /><text style="font-size:10px;font-family:OpenSans;fill:#000000;" text-anchor="middle" x="1383.631579" y="118.500000">591</text><line x1="1471.631579" x2="1471.631579" y1="103.500000" y2="108.500000" stroke="#AAAAAA" /><text style="font-size:10px;font-family:OpenSans;fill:#000000;" text-anchor="middle" x="1471.631579" y="118.500000">629</text><line x1="1545.736842" x2="1545.736842" y1="103.500000" y2="108.500000" stroke="#AAAAAA" /><text style="font-size:10px;font-family:OpenSans;fill:#000000;" text-anchor="middle" x="1545.736842" y="118.500000">661</text><line x1="1647.631579" x2="1647.631579" y1="103.500000" y2="108.500000" stroke="#AAAAAA" /><text style="font-size:10px;font-family:OpenSans;fill:#000000;" text-anchor="middle" x="1647.631579" y="118.500000">705</text><line x1="1670.789474" x2="1670.789474" y1="103.500000" y2="108.500000" stroke="#AAAAAA" /><text style="font-size:10px;font-family:OpenSans;fill:#000000;" text-anchor="middle" x="1670.789474" y="118.500000">715</text><line x1="1703.210526" x2="1703.210526" y1="103.500000" y2="108.500000" stroke="#AAAAAA" /><text style="font-size:10px;font-family:OpenSans;fill:#000000;" text-anchor="middle" x="1703.210526" y="118.500000">729</text><line x1="1770.368421" x2="1770.368421" y1="103.500000" y2="108.500000" stroke="#AAAAAA" /><text style="font-size:10px;font-family:OpenSans;fill:#000000;" text-anchor="middle" x="1770.368421" y="118.500000">758</text><line x1="1805.105263" x2="1805.105263" y1="103.500000" y2="108.500000" stroke="#AAAAAA" /><text style="font-size:10px;font-family:OpenSans;fill:#000000;" text-anchor="middle" x="1805.105263" y="118.500000">773</text><line x1="1828.263158" x2="1828.263158" y1="103.500000" y2="108.500000" stroke="#AAAAAA" /><text style="font-size:10px;font-family:OpenSans;fill:#000000;" text-anchor="middle" x="1828.263158" y="118.500000">783</text><line x1="1939.421053" x2="1939.421053" y1="103.500000" y2="108.500000" stroke="#AAAAAA" /><text style="font-size:10px;font-family:OpenSans;fill:#000000;" text-anchor="middle" x="1939.421053" y="118.500000">831</text><line x1="2291.421053" x2="2291.421053" y1="103.500000" y2="108.500000" stroke="#AAAAAA" /><text style="font-size:10px;font-family:OpenSans;fill:#000000;" text-anchor="middle" x="2291.421053" y="118.500000">983</text><line x1="2393.315789" x2="2393.315789" y1="103.500000" y2="108.500000" stroke="#AAAAAA" /><text style="font-size:10px;font-family:OpenSans;fill:#000000;" text-anchor="middle" x="2393.315789" y="118.500000">1027</text><line x1="2416.473684" x2="2416.473684" y1="103.500000" y2="108.500000" stroke="#AAAAAA" /><text style="font-size:10px;font-family:OpenSans;fill:#000000;" text-anchor="middle" x="2416.473684" y="118.500000">1037</text><line x1="2504.473684" x2="2504.473684" y1="103.500000" y2="108.500000" stroke="#AAAAAA" /><text style="font-size:10px;font-family:OpenSans;fill:#000000;" text-anchor="middle" x="2504.473684" y="118.500000">1075</text><line x1="2615.631579" x2="2615.631579" y1="103.500000" y2="108.500000" stroke="#AAAAAA" /><text style="font-size:10px;font-family:OpenSans;fill:#000000;" text-anchor="middle" x="2615.631579" y="118.500000">1123</text><line x1="2661.947368" x2="2661.947368" y1="103.500000" y2="108.500000" stroke="#AAAAAA" /><text style="font-size:10px;font-family:OpenSans;fill:#000000;" text-anchor="middle" x="2661.947368" y="118.500000">1143</text><line x1="2717.526316" x2="2717.526316" y1="103.500000" y2="108.500000" stroke="#AAAAAA" /><text style="font-size:10px;font-family:OpenSans;fill:#000000;" text-anchor="middle" x="2717.526316" y="118.500000">1167</text><line x1="2740.684211" x2="2740.684211" y1="103.500000" y2="108.500000" stroke="#AAAAAA" /><text style="font-size:10px;font-family:OpenSans;fill:#000000;" text-anchor="middle" x="2740.684211" y="118.500000">1177</text><line x1="2803.210526" x2="2803.210526" y1="103.500000" y2="108.500000" stroke="#AAAAAA" /><text style="font-size:10px;font-family:OpenSans;fill:#000000;" text-anchor="middle" x="2803.210526" y="118.500000">1204</text><line x1="2905.105263" x2="2905.105263" y1="103.500000" y2="108.500000" stroke="#AAAAAA" /><text style="font-size:10px;font-family:OpenSans;fill:#000000;" text-anchor="middle" x="2905.105263" y="118.500000">1248</text><line x1="2928.263158" x2="2928.263158" y1="103.500000" y2="108.500000" stroke="#AAAAAA" /><text style="font-size:10px;font-family:OpenSans;fill:#000000;" text-anchor="middle" x="2928.263158" y="118.500000">1258</text><line x1="2953.736842" x2="2953.736842" y1="103.500000" y2="108.500000" stroke="#AAAAAA" /><text style="font-size:10px;font-family:OpenSans;fill:#000000;" text-anchor="middle" x="2953.736842" y="118.500000">1269</text><line x1="2990.789474" x2="2990.789474" y1="103.500000" y2="108.500000" stroke="#AAAAAA" /><text style="font-size:10px;font-family:OpenSans;fill:#000000;" text-anchor="middle" x="2990.789474" y="118.500000">1285</text></g>
<rect fill="#FF5353" x="4" y="132.500000" width="12" height="12" filter="url(#ds)"/><text style="font-size:12px;font-family:OpenSans;fill:#000000;" text-anchor="start" x="20" y="144.500000">Leucine Rich Repeat</text><rect fill="#BA21E0" x="4" y="146.500000" width="12" height="12" filter="url(#ds)"/><text style="font-size:12px;font-family:OpenSans;fill:#000000;" text-anchor="start" x="20" y="158.500000">Leucine Rich repeats (2 copies)</text></svg>
