<?xml version='1.0'?>
<svg xmlns="http://www.w3.org/2000/svg" xmlns:xlink="http://www.w3.org/1999/xlink" width="598.125000" height="158.700000">
<defs>
  <filter id="ds" x="0" y="0">
    <feOffset in="SourceAlpha" dx="2" dy="2" />
    <feComponentTransfer><feFuncA type="linear" slope="0.2"/></feComponentTransfer>
    <feGaussianBlur result="blurOut" stdDeviation="1" />
    <feBlend in="SourceGraphic" in2="blurOut" mode="normal" />
  </filter>
  <pattern id="disordered-hatch" patternUnits="userSpaceOnUse" width="4" height="4">
    <path d="M-1,1 l2,-2 M0,4 l4,-4 M3,5 l2,-2" stroke="#000000" opacity="0.3" />
  </pattern>
</defs>
<line x1="25.125000" x2="25.125000" y1="34.000000" y2="74.500000" stroke="#BABDB6" stroke-width="2"/><a xlink:title="G9R"><circle cx="25.125000" cy="34.000000" r="4.000000" fill="#ff0000" /></a><g transform="translate(25.125000,34.000000) rotate(-30)"><text style="font-size:10px;font-family:OpenSans;fill:#555;" text-anchor="middle" x="0" y="-6.000000">G9R</text></g><line x1="28.500000" x2="28.500000" y1="46.500000" y2="74.500000" stroke="#BABDB6" stroke-width="2"/><a xlink:title="D12E"><circle cx="28.500000" cy="46.500000" r="4.000000" fill="#ff0000" /></a><g transform="translate(28.500000,46.500000) rotate(-30)"><text style="font-size:10px;font-family:OpenSans;fill:#555;" text-anchor="middle" x="0" y="-6.000000">D12E</text></g><line x1="152.250000" x2="152.250000" y1="34.000000" y2="74.500000" stroke="#BABDB6" stroke-width="2"/><a xlink:title="G122R"><circle cx="152.250000" cy="34.000000" r="4.000000" fill="#ff0000" /></a><g transform="translate(152.250000,34.000000) rotate(-30)"><text style="font-size:10px;font-family:OpenSans;fill:#555;" text-anchor="middle" x="0" y="-6.000000">G122R</text></g><line x1="155.625000" x2="155.625000" y1="46.500000" y2="74.500000" stroke="#BABDB6" stroke-width="2"/><a xlink:title="D125E"><circle cx="155.625000" cy="46.500000" r="4.000000" fill="#ff0000" /></a><g transform="translate(155.625000,46.500000) rotate(-30)"><text style="font-size:10px;font-family:OpenSans;fill:#555;" text-anchor="middle" x="0" y="-6.000000">D125E</text></g><line x1="269.250000" x2="269.250000" y1="46.500000" y2="74.500000" stroke="#BABDB6" stroke-width="2"/><a xlink:title="A226A"><circle cx="269.250000" cy="46.500000" r="4.000000" fill="#0000ff" /></a><g transform="translate(269.250000,46.500000) rotate(-30)"><text style="font-size:10px;font-family:OpenSans;fill:#555;" text-anchor="middle" x="0" y="-6.000000">A226A</text></g><line x1="396.375000" x2="396.375000" y1="46.500000" y2="74.500000" stroke="#BABDB6" stroke-width="2"/><a xlink:title="A339A"><circle cx="396.375000" cy="46.500000" r="4.000000" fill="#0000ff" /></a><g transform="translate(396.375000,46.500000) rotate(-30)"><text style="font-size:10px;font-family:OpenSans;fill:#555;" text-anchor="middle" x="0" y="-6.000000">A339A</text></g><a xlink:title=",  (505aa)"><rect fill="#BABDB6" x="15.000000" y="74.500000" width="568.125000" height="14.000000"/></a><g transform="translate(69.000000,69.500000)"><a xlink:href="https://www.ebi.ac.uk/interpro/entry/pfam/PF00018" xlink:title="SH3 domain"><rect fill="#2DCF00" x="0" y="0" width="45.000000" height="24.000000" filter="url(#ds)"/><text style="font-size:12px;font-family:OpenSans;fill:#ffffff;" text-anchor="middle" x="22.500000" y="16.000000">SH3_1</text></a></g>
<g transform="translate(145.500000,69.500000)"><a xlink:href="https://www.ebi.ac.uk/interpro/entry/pfam/PF00017" xlink:title="SH2 domain"><rect fill="#FF5353" x="0" y="0" width="86.625000" height="24.000000" filter="url(#ds)"/><text style="font-size:12px;font-family:OpenSans;fill:#ffffff;" text-anchor="middle" x="43.312500" y="16.000000">SH2 domain</text></a></g>
<g transform="translate(278.250000,69.500000)"><a xlink:href="https://www.ebi.ac.uk/interpro/entry/pfam/PF07714" xlink:title="Protein tyrosine and serine/threonine kinase"><rect fill="#5B5BFF" x="0" y="0" width="283.500000" height="24.000000" filter="url(#ds)"/><text style="font-size:12px;font-family:OpenSans;fill:#ffffff;" text-anchor="middle" x="141.750000" y="16.000000">Protein tyrosine and serine/threonine kinase</text></a></g>
<g class="axis">
<line x1="15.000000" x2="583.125000" y1="103.500000" y2="103.500000" stroke="#AAAAAA" /><line x1="15.000000" x2="15.000000" y1="103.500000" y2="108.500000" stroke="#AAAAAA" /><line x1="25.125000" x2="25.125000" y1="103.500000" y2="108.500000" stroke="#AAAAAA" /><text style="font-size:10px;font-family:OpenSans;fill:#000000;" text-anchor="middle" x="25.125000" y="118.500000">9</text><line x1="69.000000" x2="69.000000" y1="103.500000" y2="108.500000" stroke="#AAAAAA" /><text style="font-size:10px;font-family:OpenSans;fill:#000000;" text-anchor="middle" x="69.000000" y="118.500000">48</text><line x1="114.000000" x2="114.000000" y1="103.500000" y2="108.500000" stroke="#AAAAAA" /><text style="font-size:10px;font-family:OpenSans;fill:#000000;" text-anchor="middle" x="114.000000" y="118.500000">88</text><line x1="152.250000" x2="152.250000" y1="103.500000" y2="108.500000" stroke="#AAAAAA" /><text style="font-size:10px;font-family:OpenSans;fill:#000000;" text-anchor="middle" x="152.250000" y="118.500000">122</text><line x1="232.125000" x2="232.125000" y1="103.500000" y2="108.500000" stroke="#AAAAAA" /><text style="font-size:10px;font-family:OpenSans;fill:#000000;" text-anchor="middle" x="232.125000" y="118.500000">193</text><line x1="269.250000" x2="269.250000" y1="103.500000" y2="108.500000" stroke="#AAAAAA" /><text style="font-size:10px;font-family:OpenSans;fill:#000000;" text-anchor="middle" x="269.250000" y="118.500000">226</text><line x1="396.375000" x2="396.375000" y1="103.500000" y2="108.500000" stroke="#AAAAAA" /><text style="font-size:10px;font-family:OpenSans;fill:#000000;" text-anchor="middle" x="396.375000" y="118.500000">339</text><line x1="561.750000" x2="561.750000" y1="103.500000" y2="108.500000" stroke="#AAAAAA" /><text style="font-size:10px;font-family:OpenSans;fill:#000000;" text-anchor="middle" x="561.750000" y="118.500000">486</text><line x1="583.125000" x2="583.125000" y1="103.500000" y2="108.500000" stroke="#AAAAAA" /><text style="font-size:10px;font-family:OpenSans;fill:#000000;" text-anchor="middle" x="583.125000" y="118.500000">505</text></g>
<rect fill="#2DCF00" x="4" y="132.500000" width="12" height="12" filter="url(#ds)"/><text style="font-size:12px;font-family:OpenSans;fill:#000000;" text-anchor="start" x="20" y="144.500000">SH3 domain</text></svg>
