<?xml version='1.0'?>
<svg xmlns="http://www.w3.org/2000/svg" xmlns:xlink="http://www.w3.org/1999/xlink" width="995.066667" height="198.300000">
<defs>
  <filter id="ds" x="0" y="0">
    <feOffset in="SourceAlpha" dx="2" dy="2" />
    <feComponentTransfer><feFuncA type="linear" slope="0.2"/></feComponentTransfer>
    <feGaussianBlur result="blurOut" stdDeviation="1" />
    <feBlend in="SourceGraphic" in2="blurOut" mode="normal" />
  </filter>
  <pattern id="disordered-hatch" patternUnits="userSpaceOnUse" width="4" height="4">
    <path d="M-1,1 l2,-2 M0,4 l4,-4 M3,5 l2,-2" stroke="#000000" opacity="0.3" />
  </pattern>
</defs>
<line x1="54.200000" x2="54.200000" y1="34.000000" y2="74.500000" stroke="#BABDB6" stroke-width="2"/><a xlink:title="L42L"><circle cx="54.200000" cy="34.000000" r="4.000000" fill="#0000ff" /></a><g transform="translate(54.200000,34.000000) rotate(-30)"><text style="font-size:10px;font-family:OpenSans;fill:#555;" text-anchor="middle" x="0" y="-6.000000">L42L</text></g><line x1="59.800000" x2="59.800000" y1="34.000000" y2="74.500000" stroke="#BABDB6" stroke-width="2"/><a xlink:title="T48A"><circle cx="59.800000" cy="34.000000" r="4.000000" fill="#ff0000" /></a><g transform="translate(59.800000,34.000000) rotate(-30)"><text style="font-size:10px;font-family:OpenSans;fill:#555;" text-anchor="middle" x="0" y="-6.000000">T48A</text></g><line x1="60.733333" x2="60.733333" y1="46.500000" y2="74.500000" stroke="#BABDB6" stroke-width="2"/><a xlink:title="A49A"><circle cx="60.733333" cy="46.500000" r="4.000000" fill="#0000ff" /></a><g transform="translate(60.733333,46.500000) rotate(-30)"><text style="font-size:10px;font-family:OpenSans;fill:#555;" text-anchor="middle" x="0" y="-6.000000">A49A</text></g><line x1="95.266667" x2="95.266667" y1="46.500000" y2="74.500000" stroke="#BABDB6" stroke-width="2"/><a xlink:title="L86L"><circle cx="95.266667" cy="46.500000" r="4.000000" fill="#0000ff" /></a><g transform="translate(95.266667,46.500000) rotate(-30)"><text style="font-size:10px;font-family:OpenSans;fill:#555;" text-anchor="middle" x="0" y="-6.000000">L86L</text></g><line x1="101.800000" x2="101.800000" y1="34.000000" y2="74.500000" stroke="#BABDB6" stroke-width="2"/><a xlink:title="A93A"><circle cx="101.800000" cy="34.000000" r="4.000000" fill="#0000ff" /></a><g transform="translate(101.800000,34.000000) rotate(-30)"><text style="font-size:10px;font-family:OpenSans;fill:#555;" text-anchor="middle" x="0" y="-6.000000">A93A</text></g><line x1="104.600000" x2="104.600000" y1="46.500000" y2="74.500000" stroke="#BABDB6" stroke-width="2"/><a xlink:title="K96K"><circle cx="104.600000" cy="46.500000" r="4.000000" fill="#0000ff" /></a><g transform="translate(104.600000,46.500000) rotate(-30)"><text style="font-size:10px;font-family:OpenSans;fill:#555;" text-anchor="middle" x="0" y="-6.000000">K96K</text></g><line x1="114.866667" x2="114.866667" y1="46.500000" y2="74.500000" stroke="#BABDB6" stroke-width="2"/><a xlink:title="T107A"><circle cx="114.866667" cy="46.500000" r="4.000000" fill="#ff0000" /></a><g transform="translate(114.866667,46.500000) rotate(-30)"><text style="font-size:10px;font-family:OpenSans;fill:#555;" text-anchor="middle" x="0" y="-6.000000">T107A</text></g><line x1="126.066667" x2="126.066667" y1="46.500000" y2="74.500000" stroke="#BABDB6" stroke-width="2"/><a xlink:title="E119D"><circle cx="126.066667" cy="46.500000" r="4.000000" fill="#ff0000" /></a><g transform="translate(126.066667,46.500000) rotate(-30)"><text style="font-size:10px;font-family:OpenSans;fill:#555;" text-anchor="middle" x="0" y="-6.000000">E119D</text></g><line x1="133.533333" x2="133.533333" y1="34.000000" y2="74.500000" stroke="#BABDB6" stroke-width="2"/><a xlink:title="P127L"><circle cx="133.533333" cy="34.000000" r="4.000000" fill="#ff0000" /></a><g transform="translate(133.533333,34.000000) rotate(-30)"><text style="font-size:10px;font-family:OpenSans;fill:#555;" text-anchor="middle" x="0" y="-6.000000">P127L</text></g><line x1="134.466667" x2="134.466667" y1="46.500000" y2="74.500000" stroke="#BABDB6" stroke-width="2"/><a xlink:title="E128D"><circle cx="134.466667" cy="46.500000" r="4.000000" fill="#ff0000" /></a><g transform="translate(134.466667,46.500000) rotate(-30)"><text style="font-size:10px;font-family:OpenSans;fill:#555;" text-anchor="middle" x="0" y="-6.000000">E128D</text></g><line x1="142.866667" x2="142.866667" y1="46.500000" y2="74.500000" stroke="#BABDB6" stroke-width="2"/><a xlink:title="D137N"><circle cx="142.866667" cy="46.500000" r="4.000000" fill="#ff0000" /></a><g transform="translate(142.866667,46.500000) rotate(-30)"><text style="font-size:10px;font-family:OpenSans;fill:#555;" text-anchor="middle" x="0" y="-6.000000">D137N</text></g><line x1="151.266667" x2="151.266667" y1="34.000000" y2="74.500000" stroke="#BABDB6" stroke-width="2"/><a xlink:title="D146N"><circle cx="151.266667" cy="34.000000" r="4.000000" fill="#ff0000" /></a><g transform="translate(151.266667,34.000000) rotate(-30)"><text style="font-size:10px;font-family:OpenSans;fill:#555;" text-anchor="middle" x="0" y="-6.000000">D146N</text></g><line x1="155.933333" x2="155.933333" y1="34.000000" y2="74.500000" stroke="#BABDB6" stroke-width="2"/><a xlink:title="T151A"><circle cx="155.933333" cy="34.000000" r="4.000000" fill="#ff0000" /></a><g transform="translate(155.933333,34.000000) rotate(-30)"><text style="font-size:10px;font-family:OpenSans;fill:#555;" text-anchor="middle" x="0" y="-6.000000">T151A</text></g><line x1="159.666667" x2="159.666667" y1="46.500000" y2="74.500000" stroke="#BABDB6" stroke-width="2"/><a xlink:title="K155K"><circle cx="159.666667" cy="46.500000" r="4.000000" fill="#0000ff" /></a><g transform="translate(159.666667,46.500000) rotate(-30)"><text style="font-size:10px;font-family:OpenSans;fill:#555;" text-anchor="middle" x="0" y="-6.000000">K155K</text></g><line x1="176.466667" x2="176.466667" y1="46.500000" y2="74.500000" stroke="#BABDB6" stroke-width="2"/><a xlink:title="E173D"><circle cx="176.466667" cy="46.500000" r="4.000000" fill="#ff0000" /></a><g transform="translate(176.466667,46.500000) rotate(-30)"><text style="font-size:10px;font-family:OpenSans;fill:#555;" text-anchor="middle" x="0" y="-6.000000">E173D</text></g><line x1="188.600000" x2="188.600000" y1="34.000000" y2="74.500000" stroke="#BABDB6" stroke-width="2"/><a xlink:title="P186L"><circle cx="188.600000" cy="34.000000" r="4.000000" fill="#ff0000" /></a><g transform="translate(188.600000,34.000000) rotate(-30)"><text style="font-size:10px;font-family:OpenSans;fill:#555;" text-anchor="middle" x="0" y="-6.000000">P186L</text></g><line x1="193.266667" x2="193.266667" y1="46.500000" y2="74.500000" stroke="#BABDB6" stroke-width="2"/><a xlink:title="D191N"><circle cx="193.266667" cy="46.500000" r="4.000000" fill="#ff0000" /></a><g transform="translate(193.266667,46.500000) rotate(-30)"><text style="font-size:10px;font-family:OpenSans;fill:#555;" text-anchor="middle" x="0" y="-6.000000">D191N</text></g><line x1="200.733333" x2="200.733333" y1="46.500000" y2="74.500000" stroke="#BABDB6" stroke-width="2"/><a xlink:title="K199K"><circle cx="200.733333" cy="46.500000" r="4.000000" fill="#0000ff" /></a><g transform="translate(200.733333,46.500000) rotate(-30)"><text style="font-size:10px;font-family:OpenSans;fill:#555;" text-anchor="middle" x="0" y="-6.000000">K199K</text></g><line x1="229.666667" x2="229.666667" y1="46.500000" y2="74.500000" stroke="#BABDB6" stroke-width="2"/><a xlink:title="P230L"><circle cx="229.666667" cy="46.500000" r="4.000000" fill="#ff0000" /></a><g transform="translate(229.666667,46.500000) rotate(-30)"><text style="font-size:10px;font-family:OpenSans;fill:#555;" text-anchor="middle" x="0" y="-6.000000">P230L</text></g><line x1="273.533333" x2="273.533333" y1="46.500000" y2="74.500000" stroke="#BABDB6" stroke-width="2"/><a xlink:title="L277L"><circle cx="273.533333" cy="46.500000" r="4.000000" fill="#0000ff" /></a><g transform="translate(273.533333,46.500000) rotate(-30)"><text style="font-size:10px;font-family:OpenSans;fill:#555;" text-anchor="middle" x="0" y="-6.000000">L277L</text></g><line x1="280.066667" x2="280.066667" y1="34.000000" y2="74.500000" stroke="#BABDB6" stroke-width="2"/><a xlink:title="A284A"><circle cx="280.066667" cy="34.000000" r="4.000000" fill="#0000ff" /></a><g transform="translate(280.066667,34.000000) rotate(-30)"><text style="font-size:10px;font-family:OpenSans;fill:#555;" text-anchor="middle" x="0" y="-6.000000">A284A</text></g><line x1="281.933333" x2="281.933333" y1="46.500000" y2="74.500000" stroke="#BABDB6" stroke-width="2"/><a xlink:title="L286L"><circle cx="281.933333" cy="46.500000" r="4.000000" fill="#0000ff" /></a><g transform="translate(281.933333,46.500000) rotate(-30)"><text style="font-size:10px;font-family:OpenSans;fill:#555;" text-anchor="middle" x="0" y="-6.000000">L286L</text></g><line x1="288.466667" x2="288.466667" y1="46.500000" y2="74.500000" stroke="#BABDB6" stroke-width="2"/><a xlink:title="A293A"><circle cx="288.466667" cy="46.500000" r="4.000000" fill="#0000ff" /></a><g transform="translate(288.466667,46.500000) rotate(-30)"><text style="font-size:10px;font-family:OpenSans;fill:#555;" text-anchor="middle" x="0" y="-6.000000">A293A</text></g><line x1="323.933333" x2="323.933333" y1="46.500000" y2="74.500000" stroke="#BABDB6" stroke-width="2"/><a xlink:title="L331L"><circle cx="323.933333" cy="46.500000" r="4.000000" fill="#0000ff" /></a><g transform="translate(323.933333,46.500000) rotate(-30)"><text style="font-size:10px;font-family:OpenSans;fill:#555;" text-anchor="middle" x="0" y="-6.000000">L331L</text></g><line x1="330.466667" x2="330.466667" y1="34.000000" y2="74.500000" stroke="#BABDB6" stroke-width="2"/><a xlink:title="A338A"><circle cx="330.466667" cy="34.000000" r="4.000000" fill="#0000ff" /></a><g transform="translate(330.466667,34.000000) rotate(-30)"><text style="font-size:10px;font-family:OpenSans;fill:#555;" text-anchor="middle" x="0" y="-6.000000">A338A</text></g><line x1="334.200000" x2="334.200000" y1="46.500000" y2="74.500000" stroke="#BABDB6" stroke-width="2"/><a xlink:title="T342A"><circle cx="334.200000" cy="46.500000" r="4.000000" fill="#ff0000" /></a><g transform="translate(334.200000,46.500000) rotate(-30)"><text style="font-size:10px;font-family:OpenSans;fill:#555;" text-anchor="middle" x="0" y="-6.000000">T342A</text></g><line x1="342.600000" x2="342.600000" y1="34.000000" y2="74.500000" stroke="#BABDB6" stroke-width="2"/><a xlink:title="T351A"><circle cx="342.600000" cy="34.000000" r="4.000000" fill="#ff0000" /></a><g transform="translate(342.600000,34.000000) rotate(-30)"><text style="font-size:10px;font-family:OpenSans;fill:#555;" text-anchor="middle" x="0" y="-6.000000">T351A</text></g><line x1="343.533333" x2="343.533333" y1="46.500000" y2="74.500000" stroke="#BABDB6" stroke-width="2"/><a xlink:title="H352H"><circle cx="343.533333" cy="46.500000" r="4.000000" fill="#0000ff" /></a><g transform="translate(343.533333,46.500000) rotate(-30)"><text style="font-size:10px;font-family:OpenSans;fill:#555;" text-anchor="middle" x="0" y="-6.000000">H352H</text></g><line x1="379.000000" x2="379.000000" y1="34.000000" y2="74.500000" stroke="#BABDB6" stroke-width="2"/><a xlink:title="K390K"><circle cx="379.000000" cy="34.000000" r="4.000000" fill="#0000ff" /></a><g transform="translate(379.000000,34.000000) rotate(-30)"><text style="font-size:10px;font-family:OpenSans;fill:#555;" text-anchor="middle" x="0" y="-6.000000">K390K</text></g><line x1="384.600000" x2="384.600000" y1="34.000000" y2="74.500000" stroke="#BABDB6" stroke-width="2"/><a xlink:title="T396A"><circle cx="384.600000" cy="34.000000" r="4.000000" fill="#ff0000" /></a><g transform="translate(384.600000,34.000000) rotate(-30)"><text style="font-size:10px;font-family:OpenSans;fill:#555;" text-anchor="middle" x="0" y="-6.000000">T396A</text></g><line x1="387.400000" x2="387.400000" y1="46.500000" y2="74.500000" stroke="#BABDB6" stroke-width="2"/><a xlink:title="K399K"><circle cx="387.400000" cy="46.500000" r="4.000000" fill="#0000ff" /></a><g transform="translate(387.400000,46.500000) rotate(-30)"><text style="font-size:10px;font-family:OpenSans;fill:#555;" text-anchor="middle" x="0" y="-6.000000">K399K</text></g><line x1="398.600000" x2="398.600000" y1="46.500000" y2="74.500000" stroke="#BABDB6" stroke-width="2"/><a xlink:title="H411H"><circle cx="398.600000" cy="46.500000" r="4.000000" fill="#0000ff" /></a><g transform="translate(398.600000,46.500000) rotate(-30)"><text style="font-size:10px;font-family:OpenSans;fill:#555;" text-anchor="middle" x="0" y="-6.000000">H411H</text></g><line x1="407.933333" x2="407.933333" y1="46.500000" y2="74.500000" stroke="#BABDB6" stroke-width="2"/><a xlink:title="P421L"><circle cx="407.933333" cy="46.500000" r="4.000000" fill="#ff0000" /></a><g transform="translate(407.933333,46.500000) rotate(-30)"><text style="font-size:10px;font-family:OpenSans;fill:#555;" text-anchor="middle" x="0" y="-6.000000">P421L</text></g><line x1="416.333333" x2="416.333333" y1="46.500000" y2="74.500000" stroke="#BABDB6" stroke-width="2"/><a xlink:title="P430L"><circle cx="416.333333" cy="46.500000" r="4.000000" fill="#ff0000" /></a><g transform="translate(416.333333,46.500000) rotate(-30)"><text style="font-size:10px;font-family:OpenSans;fill:#555;" text-anchor="middle" x="0" y="-6.000000">P430L</text></g><line x1="429.400000" x2="429.400000" y1="46.500000" y2="74.500000" stroke="#BABDB6" stroke-width="2"/><a xlink:title="K444K"><circle cx="429.400000" cy="46.500000" r="4.000000" fill="#0000ff" /></a><g transform="translate(429.400000,46.500000) rotate(-30)"><text style="font-size:10px;font-family:OpenSans;fill:#555;" text-anchor="middle" x="0" y="-6.000000">K444K</text></g><line x1="439.666667" x2="439.666667" y1="46.500000" y2="74.500000" stroke="#BABDB6" stroke-width="2"/><a xlink:title="H455H"><circle cx="439.666667" cy="46.500000" r="4.000000" fill="#0000ff" /></a><g transform="translate(439.666667,46.500000) rotate(-30)"><text style="font-size:10px;font-family:OpenSans;fill:#555;" text-anchor="middle" x="0" y="-6.000000">H455H</text></g><line x1="458.333333" x2="458.333333" y1="46.500000" y2="74.500000" stroke="#BABDB6" stroke-width="2"/><a xlink:title="P475L"><circle cx="458.333333" cy="46.500000" r="4.000000" fill="#ff0000" /></a><g transform="translate(458.333333,46.500000) rotate(-30)"><text style="font-size:10px;font-family:OpenSans;fill:#555;" text-anchor="middle" x="0" y="-6.000000">P475L</text></g><line x1="574.066667" x2="574.066667" y1="46.500000" y2="74.500000" stroke="#BABDB6" stroke-width="2"/><a xlink:title="S599L"><circle cx="574.066667" cy="46.500000" r="4.000000" fill="#ff0000" /></a><g transform="translate(574.066667,46.500000) rotate(-30)"><text style="font-size:10px;font-family:OpenSans;fill:#555;" text-anchor="middle" x="0" y="-6.000000">S599L</text></g><line x1="617.933333" x2="617.933333" y1="46.500000" y2="74.500000" stroke="#BABDB6" stroke-width="2"/><a xlink:title="H646H"><circle cx="617.933333" cy="46.500000" r="4.000000" fill="#0000ff" /></a><g transform="translate(617.933333,46.500000) rotate(-30)"><text style="font-size:10px;font-family:OpenSans;fill:#555;" text-anchor="middle" x="0" y="-6.000000">H646H</text></g><line x1="626.333333" x2="626.333333" y1="34.000000" y2="74.500000" stroke="#BABDB6" stroke-width="2"/><a xlink:title="H655H"><circle cx="626.333333" cy="34.000000" r="4.000000" fill="#0000ff" /></a><g transform="translate(626.333333,34.000000) rotate(-30)"><text style="font-size:10px;font-family:OpenSans;fill:#555;" text-anchor="middle" x="0" y="-6.000000">H655H</text></g><line x1="629.133333" x2="629.133333" y1="46.500000" y2="74.500000" stroke="#BABDB6" stroke-width="2"/><a xlink:title="S658L"><circle cx="629.133333" cy="46.500000" r="4.000000" fill="#ff0000" /></a><g transform="translate(629.133333,46.500000) rotate(-30)"><text style="font-size:10px;font-family:OpenSans;fill:#555;" text-anchor="middle" x="0" y="-6.000000">S658L</text></g><line x1="668.333333" x2="668.333333" y1="34.000000" y2="74.500000" stroke="#BABDB6" stroke-width="2"/><a xlink:title="H700H"><circle cx="668.333333" cy="34.000000" r="4.000000" fill="#0000ff" /></a><g transform="translate(668.333333,34.000000) rotate(-30)"><text style="font-size:10px;font-family:OpenSans;fill:#555;" text-anchor="middle" x="0" y="-6.000000">H700H</text></g><line x1="670.200000" x2="670.200000" y1="46.500000" y2="74.500000" stroke="#BABDB6" stroke-width="2"/><a xlink:title="S702L"><circle cx="670.200000" cy="46.500000" r="4.000000" fill="#ff0000" /></a><g transform="translate(670.200000,46.500000) rotate(-30)"><text style="font-size:10px;font-family:OpenSans;fill:#555;" text-anchor="middle" x="0" y="-6.000000">S702L</text></g><line x1="848.466667" x2="848.466667" y1="46.500000" y2="74.500000" stroke="#BABDB6" stroke-width="2"/><a xlink:title="S893L"><circle cx="848.466667" cy="46.500000" r="4.000000" fill="#ff0000" /></a><g transform="translate(848.466667,46.500000) rotate(-30)"><text style="font-size:10px;font-family:OpenSans;fill:#555;" text-anchor="middle" x="0" y="-6.000000">S893L</text></g><line x1="856.866667" x2="856.866667" y1="46.500000" y2="74.500000" stroke="#BABDB6" stroke-width="2"/><a xlink:title="S902L"><circle cx="856.866667" cy="46.500000" r="4.000000" fill="#ff0000" /></a><g transform="translate(856.866667,46.500000) rotate(-30)"><text style="font-size:10px;font-family:OpenSans;fill:#555;" text-anchor="middle" x="0" y="-6.000000">S902L</text></g><line x1="898.866667" x2="898.866667" y1="46.500000" y2="74.500000" stroke="#BABDB6" stroke-width="2"/><a xlink:title="S947L"><circle cx="898.866667" cy="46.500000" r="4.000000" fill="#ff0000" /></a><g transform="translate(898.866667,46.500000) rotate(-30)"><text style="font-size:10px;font-family:OpenSans;fill:#555;" text-anchor="middle" x="0" y="-6.000000">S947L</text></g><a xlink:title=",  (1034aa)"><rect fill="#BABDB6" x="15.000000" y="74.500000" width="965.066667" height="14.000000"/></a><g transform="translate(73.800000,69.500000)"><a xlink:href="https://www.ebi.ac.uk/interpro/entry/pfam/PF09379" xlink:title="FERM N-terminal domain"><rect fill="#2DCF00" x="0" y="0" width="56.000000" height="24.000000" filter="url(#ds)"/><text style="font-size:12px;font-family:OpenSans;fill:#ffffff;" text-anchor="middle" x="28.000000" y="16.000000">FERM_N</text></a></g>
<g transform="translate(150.333333,69.500000)"><a xlink:href="https://www.ebi.ac.uk/interpro/entry/pfam/PF00373" xlink:title="FERM central domain"><rect fill="#FF5353" x="0" y="0" width="107.333333" height="24.000000" filter="url(#ds)"/><text style="font-size:12px;font-family:OpenSans;fill:#ffffff;" text-anchor="middle" x="53.666667" y="16.000000">FERM_M</text></a></g>
<g transform="translate(261.400000,69.500000)"><a xlink:href="https://www.ebi.ac.uk/interpro/entry/pfam/PF09380" xlink:title="FERM C-terminal PH-like domain"><rect fill="#5B5BFF" x="0" y="0" width="93.333333" height="24.000000" filter="url(#ds)"/><text style="font-size:12px;font-family:OpenSans;fill:#ffffff;" text-anchor="middle" x="46.666667" y="16.000000">FERM_C</text></a></g>
<g transform="translate(383.666667,69.500000)"><a xlink:href="https://www.ebi.ac.uk/interpro/entry/pfam/PF11819" xlink:title="Cytohesin Ubiquitin Protein Inducing Domain"><rect fill="#EBD61D" x="0" y="0" width="125.066667" height="24.000000" filter="url(#ds)"/><text style="font-size:12px;font-family:OpenSans;fill:#ffffff;" text-anchor="middle" x="62.533333" y="16.000000">CUPID</text></a></g>
<g class="axis">
<line x1="15.000000" x2="980.066667" y1="103.500000" y2="103.500000" stroke="#AAAAAA" /><line x1="15.000000" x2="15.000000" y1="103.500000" y2="108.500000" stroke="#AAAAAA" /><line x1="15.000000" x2="15.000000" y1="103.500000" y2="108.500000" stroke="#AAAAAA" /><text style="font-size:10px;font-family:OpenSans;fill:#000000;" text-anchor="middle" x="15.000000" y="118.500000">0</text><line x1="54.200000" x2="54.200000" y1="103.500000" y2="108.500000" stroke="#AAAAAA" /><text style="font-size:10px;font-family:OpenSans;fill:#000000;" text-anchor="middle" x="54.200000" y="118.500000">42</text><line x1="73.800000" x2="73.800000" y1="103.500000" y2="108.500000" stroke="#AAAAAA" /><text style="font-size:10px;font-family:OpenSans;fill:#000000;" text-anchor="middle" x="73.800000" y="118.500000">63</text><line x1="95.266667" x2="95.266667" y1="103.500000" y2="108.500000" stroke="#AAAAAA" /><text style="font-size:10px;font-family:OpenSans;fill:#000000;" text-anchor="middle" x="95.266667" y="118.500000">86</text><line x1="114.866667" x2="114.866667" y1="103.500000" y2="108.500000" stroke="#AAAAAA" /><text style="font-size:10px;font-family:OpenSans;fill:#000000;" text-anchor="middle" x="114.866667" y="118.500000">107</text><line x1="134.466667" x2="134.466667" y1="103.500000" y2="108.500000" stroke="#AAAAAA" /><text style="font-size:10px;font-family:OpenSans;fill:#000000;" text-anchor="middle" x="134.466667" y="118.500000">128</text><line x1="155.933333" x2="155.933333" y1="103.500000" y2="108.500000" stroke="#AAAAAA" /><text style="font-size:10px;font-family:OpenSans;fill:#000000;" text-anchor="middle" x="155.933333" y="118.500000">151</text><line x1="176.466667" x2="176.466667" y1="103.500000" y2="108.500000" stroke="#AAAAAA" /><text style="font-size:10px;font-family:OpenSans;fill:#000000;" text-anchor="middle" x="176.466667" y="118.500000">173</text><line x1="200.733333" x2="200.733333" y1="103.500000" y2="108.500000" stroke="#AAAAAA" /><text style="font-size:10px;font-family:OpenSans;fill:#000000;" text-anchor="middle" x="200.733333" y="118.500000">199</text><line x1="229.666667" x2="229.666667" y1="103.500000" y2="108.500000" stroke="#AAAAAA" /><text style="font-size:10px;font-family:OpenSans;fill:#000000;" text-anchor="middle" x="229.666667" y="118.500000">230</text><line x1="273.533333" x2="273.533333" y1="103.500000" y2="108.500000" stroke="#AAAAAA" /><text style="font-size:10px;font-family:OpenSans;fill:#000000;" text-anchor="middle" x="273.533333" y="118.500000">277</text><line x1="323.933333" x2="323.933333" y1="103.500000" y2="108.500000" stroke="#AAAAAA" /><text style="font-size:10px;font-family:OpenSans;fill:#000000;" text-anchor="middle" x="323.933333" y="118.500000">331</text><line x1="343.533333" x2="343.533333" y1="103.500000" y2="108.500000" stroke="#AAAAAA" /><text style="font-size:10px;font-family:OpenSans;fill:#000000;" text-anchor="middle" x="343.533333" y="118.500000">352</text><line x1="379.000000" x2="379.000000" y1="103.500000" y2="108.500000" stroke="#AAAAAA" /><text style="font-size:10px;font-family:OpenSans;fill:#000000;" text-anchor="middle" x="379.000000" y="118.500000">390</text><line x1="398.600000" x2="398.600000" y1="103.500000" y2="108.500000" stroke="#AAAAAA" /><text style="font-size:10px;font-family:OpenSans;fill:#000000;" text-anchor="middle" x="398.600000" y="118.500000">411</text><line x1="429.400000" x2="429.400000" y1="103.500000" y2="108.500000" stroke="#AAAAAA" /><text style="font-size:10px;font-family:OpenSans;fill:#000000;" text-anchor="middle" x="429.400000" y="118.500000">444</text><line x1="458.333333" x2="458.333333" y1="103.500000" y2="108.500000" stroke="#AAAAAA" /><text style="font-size:10px;font-family:OpenSans;fill:#000000;" text-anchor="middle" x="458.333333" y="118.500000">475</text><line x1="508.733333" x2="508.733333" y1="103.500000" y2="108.500000" stroke="#AAAAAA" /><text style="font-size:10px;font-family:OpenSans;fill:#000000;" text-anchor="middle" x="508.733333" y="118.500000">529</text><line x1="574.066667" x2="574.066667" y1="103.500000" y2="108.500000" stroke="#AAAAAA" /><text style="font-size:10px;font-family:OpenSans;fill:#000000;" text-anchor="middle" x="574.066667" y="118.500000">599</text><line x1="617.933333" x2="617.933333" y1="103.500000" y2="108.500000" stroke="#AAAAAA" /><text style="font-size:10px;font-family:OpenSans;fill:#000000;" text-anchor="middle" x="617.933333" y="118.500000">646</text><line x1="668.333333" x2="668.333333" y1="103.500000" y2="108.500000" stroke="#AAAAAA" /><text style="font-size:10px;font-family:OpenSans;fill:#000000;" text-anchor="middle" x="668.333333" y="118.500000">700</text><line x1="848.466667" x2="848.466667" y1="103.500000" y2="108.500000" stroke="#AAAAAA" /><text style="font-size:10px;font-family:OpenSans;fill:#000000;" text-anchor="middle" x="848.466667" y="118.500000">893</text><line x1="898.866667" x2="898.866667" y1="103.500000" y2="108.500000" stroke="#AAAAAA" /><text style="font-size:10px;font-family:OpenSans;fill:#000000;" text-anchor="middle" x="898.866667" y="118.500000">947</text><line x1="980.066667" x2="980.066667" y1="103.500000" y2="108.500000" stroke="#AAAAAA" /><text style="font-size:10px;font-family:OpenSans;fill:#000000;" text-anchor="middle" x="980.066667" y="118.500000">1034</text></g>
<rect fill="#2DCF00" x="4" y="132.500000" width="12" height="12" filter="url(#ds)"/><text style="font-size:12px;font-family:OpenSans;fill:#000000;" text-anchor="start" x="20" y="144.500000">FERM N-terminal domain</text><rect fill="#FF5353" x="4" y="146.500000" width="12" height="12" filter="url(#ds)"/><text style="font-size:12px;font-family:OpenSans;fill:#000000;" text-anchor="start" x="20" y="158.500000">FERM central domain</text><rect fill="#5B5BFF" x="4" y="160.500000" width="12" height="12" filter="url(#ds)"/><text style="font-size:12px;font-family:OpenSans;fill:#000000;" text-anchor="start" x="20" y="172.500000">FERM C-terminal PH-like domain</text><rect fill="#EBD61D" x="4" y="174.500000" width="12" height="12" filter="url(#ds)"/><text style="font-size:12px;font-family:OpenSans;fill:#000000;" text-anchor="start" x="20" y="186.500000">Cytohesin Ubiquitin Protein Inducing Domain</text></svg>
