<?xml version='1.0'?>
<svg xmlns="http://www.w3.org/2000/svg" xmlns:xlink="http://www.w3.org/1999/xlink" width="1048.064516" height="246.200000">
<defs>
  <filter id="ds" x="0" y="0">
    <feOffset in="SourceAlpha" dx="2" dy="2" />
    <feComponentTransfer><feFuncA type="linear" slope="0.2"/></feComponentTransfer>
    <feGaussianBlur result="blurOut" stdDeviation="1" />
    <feBlend in="SourceGraphic" in2="blurOut" mode="normal" />
  </filter>
  <pattern id="disordered-hatch" patternUnits="userSpaceOnUse" width="4" height="4">
    <path d="M-1,1 l2,-2 M0,4 l4,-4 M3,5 l2,-2" stroke="#000000" opacity="0.3" />
  </pattern>
</defs>
<line x1="75.000000" x2="75.000000" y1="134.000000" y2="162.000000" stroke="#BABDB6" stroke-width="2"/><a xlink:title="A31A"><circle cx="75.000000" cy="134.000000" r="4.000000" fill="#0000ff" /></a><g transform="translate(75.000000,134.000000) rotate(-30)"><text style="font-size:10px;font-family:OpenSans;fill:#555;" text-anchor="middle" x="0" y="-6.000000">A31A</text></g><line x1="82.741935" x2="82.741935" y1="134.000000" y2="162.000000" stroke="#BABDB6" stroke-width="2"/><a xlink:title="A35V"><circle cx="82.741935" cy="134.000000" r="4.000000" fill="#ff0000" /></a><g transform="translate(82.741935,134.000000) rotate(-30)"><text style="font-size:10px;font-family:OpenSans;fill:#555;" text-anchor="middle" x="0" y="-6.000000">A35V</text></g><line x1="109.838710" x2="109.838710" y1="134.000000" y2="162.000000" stroke="#BABDB6" stroke-width="2"/><a xlink:title="G49G"><circle cx="109.838710" cy="134.000000" r="4.000000" fill="#0000ff" /></a><g transform="translate(109.838710,134.000000) rotate(-30)"><text style="font-size:10px;font-family:OpenSans;fill:#555;" text-anchor="middle" x="0" y="-6.000000">G49G</text></g><line x1="200.806452" x2="200.806452" y1="121.500000" y2="162.000000" stroke="#BABDB6" stroke-width="2"/><a xlink:title="Y96Y"><circle cx="200.806452" cy="121.500000" r="4.000000" fill="#0000ff" /></a><g transform="translate(200.806452,121.500000) rotate(-30)"><text style="font-size:10px;font-family:OpenSans;fill:#555;" text-anchor="middle" x="0" y="-6.000000">Y96Y</text></g><line x1="202.741935" x2="202.741935" y1="134.000000" y2="162.000000" stroke="#BABDB6" stroke-width="2"/><a xlink:title="Y97Y"><circle cx="202.741935" cy="134.000000" r="4.000000" fill="#0000ff" /></a><g transform="translate(202.741935,134.000000) rotate(-30)"><text style="font-size:10px;font-family:OpenSans;fill:#555;" text-anchor="middle" x="0" y="-6.000000">Y97Y</text></g><line x1="442.741935" x2="442.741935" y1="84.000000" y2="162.000000" stroke="#BABDB6" stroke-width="2"/><a xlink:title="G221S"><circle cx="442.741935" cy="84.000000" r="4.000000" fill="#ff0000" /></a><g transform="translate(442.741935,84.000000) rotate(-30)"><text style="font-size:10px;font-family:OpenSans;fill:#555;" text-anchor="middle" x="0" y="-6.000000">G221S</text></g><line x1="444.677419" x2="444.677419" y1="71.500000" y2="162.000000" stroke="#BABDB6" stroke-width="2"/><a xlink:title="G222S"><circle cx="444.677419" cy="71.500000" r="4.000000" fill="#ff0000" /></a><g transform="translate(444.677419,71.500000) rotate(-30)"><text style="font-size:10px;font-family:OpenSans;fill:#555;" text-anchor="middle" x="0" y="-6.000000">G222S</text></g><line x1="446.612903" x2="446.612903" y1="71.500000" y2="162.000000" stroke="#BABDB6" stroke-width="2"/><a xlink:title="G223S"><circle cx="446.612903" cy="71.500000" r="4.000000" fill="#ff0000" /></a><g transform="translate(446.612903,71.500000) rotate(-30)"><text style="font-size:10px;font-family:OpenSans;fill:#555;" text-anchor="middle" x="0" y="-6.000000">G223S</text></g><line x1="448.548387" x2="448.548387" y1="71.500000" y2="162.000000" stroke="#BABDB6" stroke-width="2"/><a xlink:title="G224S"><circle cx="448.548387" cy="71.500000" r="4.000000" fill="#ff0000" /></a><g transform="translate(448.548387,71.500000) rotate(-30)"><text style="font-size:10px;font-family:OpenSans;fill:#555;" text-anchor="middle" x="0" y="-6.000000">G224S</text></g><line x1="448.548387" x2="448.548387" y1="84.000000" y2="162.000000" stroke="#BABDB6" stroke-width="2"/><a xlink:title="G224G"><circle cx="448.548387" cy="84.000000" r="4.000000" fill="#0000ff" /></a><g transform="translate(448.548387,84.000000) rotate(-30)"><text style="font-size:10px;font-family:OpenSans;fill:#555;" text-anchor="middle" x="0" y="-6.000000">G224G</text></g><line x1="450.483871" x2="450.483871" y1="84.000000" y2="162.000000" stroke="#BABDB6" stroke-width="2"/><a xlink:title="G225S"><circle cx="450.483871" cy="84.000000" r="4.000000" fill="#ff0000" /></a><g transform="translate(450.483871,84.000000) rotate(-30)"><text style="font-size:10px;font-family:OpenSans;fill:#555;" text-anchor="middle" x="0" y="-6.000000">G225S</text></g><line x1="450.483871" x2="450.483871" y1="96.500000" y2="162.000000" stroke="#BABDB6" stroke-width="2"/><a xlink:title="G225G"><circle cx="450.483871" cy="96.500000" r="4.000000" fill="#0000ff" /></a><g transform="translate(450.483871,96.500000) rotate(-30)"><text style="font-size:10px;font-family:OpenSans;fill:#555;" text-anchor="middle" x="0" y="-6.000000">G225G</text></g><line x1="452.419355" x2="452.419355" y1="109.000000" y2="162.000000" stroke="#BABDB6" stroke-width="2"/><a xlink:title="G226G"><circle cx="452.419355" cy="109.000000" r="4.000000" fill="#0000ff" /></a><g transform="translate(452.419355,109.000000) rotate(-30)"><text style="font-size:10px;font-family:OpenSans;fill:#555;" text-anchor="middle" x="0" y="-6.000000">G226G</text></g><line x1="454.354839" x2="454.354839" y1="121.500000" y2="162.000000" stroke="#BABDB6" stroke-width="2"/><a xlink:title="G227G"><circle cx="454.354839" cy="121.500000" r="4.000000" fill="#0000ff" /></a><g transform="translate(454.354839,121.500000) rotate(-30)"><text style="font-size:10px;font-family:OpenSans;fill:#555;" text-anchor="middle" x="0" y="-6.000000">G227G</text></g><line x1="456.290323" x2="456.290323" y1="134.000000" y2="162.000000" stroke="#BABDB6" stroke-width="2"/><a xlink:title="G228G"><circle cx="456.290323" cy="134.000000" r="4.000000" fill="#0000ff" /></a><g transform="translate(456.290323,134.000000) rotate(-30)"><text style="font-size:10px;font-family:OpenSans;fill:#555;" text-anchor="middle" x="0" y="-6.000000">G228G</text></g><line x1="576.290323" x2="576.290323" y1="121.500000" y2="162.000000" stroke="#BABDB6" stroke-width="2"/><a xlink:title="R290R"><circle cx="576.290323" cy="121.500000" r="4.000000" fill="#0000ff" /></a><g transform="translate(576.290323,121.500000) rotate(-30)"><text style="font-size:10px;font-family:OpenSans;fill:#555;" text-anchor="middle" x="0" y="-6.000000">R290R</text></g><line x1="582.096774" x2="582.096774" y1="109.000000" y2="162.000000" stroke="#BABDB6" stroke-width="2"/><a xlink:title="R293G"><circle cx="582.096774" cy="109.000000" r="4.000000" fill="#ff0000" /></a><g transform="translate(582.096774,109.000000) rotate(-30)"><text style="font-size:10px;font-family:OpenSans;fill:#555;" text-anchor="middle" x="0" y="-6.000000">R293G</text></g><line x1="584.032258" x2="584.032258" y1="121.500000" y2="162.000000" stroke="#BABDB6" stroke-width="2"/><a xlink:title="G294G"><circle cx="584.032258" cy="121.500000" r="4.000000" fill="#0000ff" /></a><g transform="translate(584.032258,121.500000) rotate(-30)"><text style="font-size:10px;font-family:OpenSans;fill:#555;" text-anchor="middle" x="0" y="-6.000000">G294G</text></g><line x1="585.967742" x2="585.967742" y1="134.000000" y2="162.000000" stroke="#BABDB6" stroke-width="2"/><a xlink:title="G295G"><circle cx="585.967742" cy="134.000000" r="4.000000" fill="#0000ff" /></a><g transform="translate(585.967742,134.000000) rotate(-30)"><text style="font-size:10px;font-family:OpenSans;fill:#555;" text-anchor="middle" x="0" y="-6.000000">G295G</text></g><line x1="965.322581" x2="965.322581" y1="84.000000" y2="162.000000" stroke="#BABDB6" stroke-width="2"/><a xlink:title="R491R"><circle cx="965.322581" cy="84.000000" r="4.000000" fill="#0000ff" /></a><g transform="translate(965.322581,84.000000) rotate(-30)"><text style="font-size:10px;font-family:OpenSans;fill:#555;" text-anchor="middle" x="0" y="-6.000000">R491R</text></g><line x1="967.258065" x2="967.258065" y1="59.000000" y2="162.000000" stroke="#BABDB6" stroke-width="2"/><a xlink:title="R492R"><circle cx="967.258065" cy="59.000000" r="4.000000" fill="#0000ff" /></a><g transform="translate(967.258065,59.000000) rotate(-30)"><text style="font-size:10px;font-family:OpenSans;fill:#555;" text-anchor="middle" x="0" y="-6.000000">R492R</text></g><line x1="969.193548" x2="969.193548" y1="46.500000" y2="162.000000" stroke="#BABDB6" stroke-width="2"/><a xlink:title="R493R"><circle cx="969.193548" cy="46.500000" r="4.000000" fill="#0000ff" /></a><g transform="translate(969.193548,46.500000) rotate(-30)"><text style="font-size:10px;font-family:OpenSans;fill:#555;" text-anchor="middle" x="0" y="-6.000000">R493R</text></g><line x1="971.129032" x2="971.129032" y1="34.000000" y2="162.000000" stroke="#BABDB6" stroke-width="2"/><a xlink:title="R494R"><circle cx="971.129032" cy="34.000000" r="4.000000" fill="#0000ff" /></a><g transform="translate(971.129032,34.000000) rotate(-30)"><text style="font-size:10px;font-family:OpenSans;fill:#555;" text-anchor="middle" x="0" y="-6.000000">R494R</text></g><line x1="971.129032" x2="971.129032" y1="46.500000" y2="162.000000" stroke="#BABDB6" stroke-width="2"/><a xlink:title="R494G"><circle cx="971.129032" cy="46.500000" r="4.000000" fill="#ff0000" /></a><g transform="translate(971.129032,46.500000) rotate(-30)"><text style="font-size:10px;font-family:OpenSans;fill:#555;" text-anchor="middle" x="0" y="-6.000000">R494G</text></g><line x1="973.064516" x2="973.064516" y1="46.500000" y2="162.000000" stroke="#BABDB6" stroke-width="2"/><a xlink:title="R495G"><circle cx="973.064516" cy="46.500000" r="4.000000" fill="#ff0000" /></a><g transform="translate(973.064516,46.500000) rotate(-30)"><text style="font-size:10px;font-family:OpenSans;fill:#555;" text-anchor="middle" x="0" y="-6.000000">R495G</text></g><line x1="973.064516" x2="973.064516" y1="59.000000" y2="162.000000" stroke="#BABDB6" stroke-width="2"/><a xlink:title="G495G"><circle cx="973.064516" cy="59.000000" r="4.000000" fill="#0000ff" /></a><g transform="translate(973.064516,59.000000) rotate(-30)"><text style="font-size:10px;font-family:OpenSans;fill:#555;" text-anchor="middle" x="0" y="-6.000000">G495G</text></g><line x1="973.064516" x2="973.064516" y1="34.000000" y2="162.000000" stroke="#BABDB6" stroke-width="2"/><a xlink:title="R495R"><circle cx="973.064516" cy="34.000000" r="4.000000" fill="#0000ff" /></a><g transform="translate(973.064516,34.000000) rotate(-30)"><text style="font-size:10px;font-family:OpenSans;fill:#555;" text-anchor="middle" x="0" y="-6.000000">R495R</text></g><line x1="975.000000" x2="975.000000" y1="71.500000" y2="162.000000" stroke="#BABDB6" stroke-width="2"/><a xlink:title="G496G"><circle cx="975.000000" cy="71.500000" r="4.000000" fill="#0000ff" /></a><g transform="translate(975.000000,71.500000) rotate(-30)"><text style="font-size:10px;font-family:OpenSans;fill:#555;" text-anchor="middle" x="0" y="-6.000000">G496G</text></g><line x1="975.000000" x2="975.000000" y1="59.000000" y2="162.000000" stroke="#BABDB6" stroke-width="2"/><a xlink:title="R496G"><circle cx="975.000000" cy="59.000000" r="4.000000" fill="#ff0000" /></a><g transform="translate(975.000000,59.000000) rotate(-30)"><text style="font-size:10px;font-family:OpenSans;fill:#555;" text-anchor="middle" x="0" y="-6.000000">R496G</text></g><line x1="976.935484" x2="976.935484" y1="71.500000" y2="162.000000" stroke="#BABDB6" stroke-width="2"/><a xlink:title="R497G"><circle cx="976.935484" cy="71.500000" r="4.000000" fill="#ff0000" /></a><g transform="translate(976.935484,71.500000) rotate(-30)"><text style="font-size:10px;font-family:OpenSans;fill:#555;" text-anchor="middle" x="0" y="-6.000000">R497G</text></g><line x1="976.935484" x2="976.935484" y1="84.000000" y2="162.000000" stroke="#BABDB6" stroke-width="2"/><a xlink:title="G497G"><circle cx="976.935484" cy="84.000000" r="4.000000" fill="#0000ff" /></a><g transform="translate(976.935484,84.000000) rotate(-30)"><text style="font-size:10px;font-family:OpenSans;fill:#555;" text-anchor="middle" x="0" y="-6.000000">G497G</text></g><line x1="978.870968" x2="978.870968" y1="109.000000" y2="162.000000" stroke="#BABDB6" stroke-width="2"/><a xlink:title="G498G"><circle cx="978.870968" cy="109.000000" r="4.000000" fill="#0000ff" /></a><g transform="translate(978.870968,109.000000) rotate(-30)"><text style="font-size:10px;font-family:OpenSans;fill:#555;" text-anchor="middle" x="0" y="-6.000000">G498G</text></g><line x1="978.870968" x2="978.870968" y1="96.500000" y2="162.000000" stroke="#BABDB6" stroke-width="2"/><a xlink:title="R498G"><circle cx="978.870968" cy="96.500000" r="4.000000" fill="#ff0000" /></a><g transform="translate(978.870968,96.500000) rotate(-30)"><text style="font-size:10px;font-family:OpenSans;fill:#555;" text-anchor="middle" x="0" y="-6.000000">R498G</text></g><line x1="980.806452" x2="980.806452" y1="121.500000" y2="162.000000" stroke="#BABDB6" stroke-width="2"/><a xlink:title="G499G"><circle cx="980.806452" cy="121.500000" r="4.000000" fill="#0000ff" /></a><g transform="translate(980.806452,121.500000) rotate(-30)"><text style="font-size:10px;font-family:OpenSans;fill:#555;" text-anchor="middle" x="0" y="-6.000000">G499G</text></g><line x1="982.741935" x2="982.741935" y1="134.000000" y2="162.000000" stroke="#BABDB6" stroke-width="2"/><a xlink:title="G500G"><circle cx="982.741935" cy="134.000000" r="4.000000" fill="#0000ff" /></a><g transform="translate(982.741935,134.000000) rotate(-30)"><text style="font-size:10px;font-family:OpenSans;fill:#555;" text-anchor="middle" x="0" y="-6.000000">G500G</text></g><a xlink:title=",  (526aa)"><rect fill="#BABDB6" x="15.000000" y="162.000000" width="1018.064516" height="14.000000"/></a><g transform="translate(570.483871,157.000000)"><a xlink:href="https://www.ebi.ac.uk/interpro/entry/pfam/PF00076" xlink:title="RNA recognition motif"><rect fill="#2DCF00" x="0" y="0" width="150.967742" height="24.000000" filter="url(#ds)"/><text style="font-size:12px;font-family:OpenSans;fill:#ffffff;" text-anchor="middle" x="75.483871" y="16.000000">RNA recognition motif</text></a></g>
<g transform="translate(831.774194,157.000000)"><a xlink:href="https://www.ebi.ac.uk/interpro/entry/pfam/PF00641" xlink:title="Zn-finger in Ran binding protein and others"><rect fill="#FF5353" x="0" y="0" width="60.000000" height="24.000000" filter="url(#ds)"/><text style="font-size:12px;font-family:OpenSans;fill:#ffffff;" text-anchor="middle" x="30.000000" y="16.000000">zf-RanBP</text></a></g>
<g class="axis">
<line x1="15.000000" x2="1033.064516" y1="191.000000" y2="191.000000" stroke="#AAAAAA" /><line x1="15.000000" x2="15.000000" y1="191.000000" y2="196.000000" stroke="#AAAAAA" /><line x1="15.000000" x2="15.000000" y1="191.000000" y2="196.000000" stroke="#AAAAAA" /><text style="font-size:10px;font-family:OpenSans;fill:#000000;" text-anchor="middle" x="15.000000" y="206.000000">0</text><line x1="75.000000" x2="75.000000" y1="191.000000" y2="196.000000" stroke="#AAAAAA" /><text style="font-size:10px;font-family:OpenSans;fill:#000000;" text-anchor="middle" x="75.000000" y="206.000000">31</text><line x1="109.838710" x2="109.838710" y1="191.000000" y2="196.000000" stroke="#AAAAAA" /><text style="font-size:10px;font-family:OpenSans;fill:#000000;" text-anchor="middle" x="109.838710" y="206.000000">49</text><line x1="200.806452" x2="200.806452" y1="191.000000" y2="196.000000" stroke="#AAAAAA" /><text style="font-size:10px;font-family:OpenSans;fill:#000000;" text-anchor="middle" x="200.806452" y="206.000000">96</text><line x1="442.741935" x2="442.741935" y1="191.000000" y2="196.000000" stroke="#AAAAAA" /><text style="font-size:10px;font-family:OpenSans;fill:#000000;" text-anchor="middle" x="442.741935" y="206.000000">221</text><line x1="576.290323" x2="576.290323" y1="191.000000" y2="196.000000" stroke="#AAAAAA" /><text style="font-size:10px;font-family:OpenSans;fill:#000000;" text-anchor="middle" x="576.290323" y="206.000000">290</text><line x1="721.451613" x2="721.451613" y1="191.000000" y2="196.000000" stroke="#AAAAAA" /><text style="font-size:10px;font-family:OpenSans;fill:#000000;" text-anchor="middle" x="721.451613" y="206.000000">365</text><line x1="831.774194" x2="831.774194" y1="191.000000" y2="196.000000" stroke="#AAAAAA" /><text style="font-size:10px;font-family:OpenSans;fill:#000000;" text-anchor="middle" x="831.774194" y="206.000000">422</text><line x1="891.774194" x2="891.774194" y1="191.000000" y2="196.000000" stroke="#AAAAAA" /><text style="font-size:10px;font-family:OpenSans;fill:#000000;" text-anchor="middle" x="891.774194" y="206.000000">453</text><line x1="965.322581" x2="965.322581" y1="191.000000" y2="196.000000" stroke="#AAAAAA" /><text style="font-size:10px;font-family:OpenSans;fill:#000000;" text-anchor="middle" x="965.322581" y="206.000000">491</text><line x1="1033.064516" x2="1033.064516" y1="191.000000" y2="196.000000" stroke="#AAAAAA" /><text style="font-size:10px;font-family:OpenSans;fill:#000000;" text-anchor="middle" x="1033.064516" y="206.000000">526</text></g>
<rect fill="#FF5353" x="4" y="220.000000" width="12" height="12" filter="url(#ds)"/><text style="font-size:12px;font-family:OpenSans;fill:#000000;" text-anchor="start" x="20" y="232.000000">Zn-finger in Ran binding protein and others</text></svg>
