<?xml version='1.0'?>
<svg xmlns="http://www.w3.org/2000/svg" xmlns:xlink="http://www.w3.org/1999/xlink" width="575.548387" height="159.400000">
<defs>
  <filter id="ds" x="0" y="0">
    <feOffset in="SourceAlpha" dx="2" dy="2" />
    <feComponentTransfer><feFuncA type="linear" slope="0.2"/></feComponentTransfer>
    <feGaussianBlur result="blurOut" stdDeviation="1" />
    <feBlend in="SourceGraphic" in2="blurOut" mode="normal" />
  </filter>
  <pattern id="disordered-hatch" patternUnits="userSpaceOnUse" width="4" height="4">
    <path d="M-1,1 l2,-2 M0,4 l4,-4 M3,5 l2,-2" stroke="#000000" opacity="0.3" />
  </pattern>
</defs>
<line x1="70.397849" x2="70.397849" y1="34.000000" y2="62.000000" stroke="#BABDB6" stroke-width="2"/><a xlink:title="R46W"><circle cx="70.397849" cy="34.000000" r="4.000000" fill="#ff0000" /></a><g transform="translate(70.397849,34.000000) rotate(-30)"><text style="font-size:10px;font-family:OpenSans;fill:#555;" text-anchor="middle" x="0" y="-6.000000">R46W</text></g><line x1="77.623656" x2="77.623656" y1="34.000000" y2="62.000000" stroke="#BABDB6" stroke-width="2"/><a xlink:title="G52E"><circle cx="77.623656" cy="34.000000" r="4.000000" fill="#ff0000" /></a><g transform="translate(77.623656,34.000000) rotate(-30)"><text style="font-size:10px;font-family:OpenSans;fill:#555;" text-anchor="middle" x="0" y="-6.000000">G52E</text></g><line x1="169.150538" x2="169.150538" y1="34.000000" y2="62.000000" stroke="#BABDB6" stroke-width="2"/><a xlink:title="N128S"><circle cx="169.150538" cy="34.000000" r="4.000000" fill="#ff0000" /></a><g transform="translate(169.150538,34.000000) rotate(-30)"><text style="font-size:10px;font-family:OpenSans;fill:#555;" text-anchor="middle" x="0" y="-6.000000">N128S</text></g><line x1="240.204301" x2="240.204301" y1="34.000000" y2="62.000000" stroke="#BABDB6" stroke-width="2"/><a xlink:title="T187M"><circle cx="240.204301" cy="34.000000" r="4.000000" fill="#ff0000" /></a><g transform="translate(240.204301,34.000000) rotate(-30)"><text style="font-size:10px;font-family:OpenSans;fill:#555;" text-anchor="middle" x="0" y="-6.000000">T187M</text></g><a xlink:title=",  (453aa)"><rect fill="#BABDB6" x="15.000000" y="62.000000" width="545.548387" height="14.000000"/></a><g transform="translate(54.741935,57.000000)"><a xlink:href="https://www.ebi.ac.uk/interpro/entry/pfam/PF02931" xlink:title="Neurotransmitter-gated ion-channel ligand binding domain"><rect fill="#2DCF00" x="0" y="0" width="249.290323" height="24.000000" filter="url(#ds)"/><text style="font-size:12px;font-family:OpenSans;fill:#ffffff;" text-anchor="middle" x="124.645161" y="16.000000">Neur_chan_LBD</text></a></g>
<g transform="translate(312.462366,57.000000)"><a xlink:href="https://www.ebi.ac.uk/interpro/entry/pfam/PF02932" xlink:title="Neurotransmitter-gated ion-channel transmembrane region"><rect fill="#FF5353" x="0" y="0" width="112.000000" height="24.000000" filter="url(#ds)"/><text style="font-size:12px;font-family:OpenSans;fill:#ffffff;" text-anchor="middle" x="56.000000" y="16.000000">Neur_chan_memb</text></a></g>
<g class="axis">
<line x1="15.000000" x2="560.548387" y1="91.000000" y2="91.000000" stroke="#AAAAAA" /><line x1="15.000000" x2="15.000000" y1="91.000000" y2="96.000000" stroke="#AAAAAA" /><line x1="15.000000" x2="15.000000" y1="91.000000" y2="96.000000" stroke="#AAAAAA" /><text style="font-size:10px;font-family:OpenSans;fill:#000000;" text-anchor="middle" x="15.000000" y="106.000000">0</text><line x1="70.397849" x2="70.397849" y1="91.000000" y2="96.000000" stroke="#AAAAAA" /><text style="font-size:10px;font-family:OpenSans;fill:#000000;" text-anchor="middle" x="70.397849" y="106.000000">46</text><line x1="169.150538" x2="169.150538" y1="91.000000" y2="96.000000" stroke="#AAAAAA" /><text style="font-size:10px;font-family:OpenSans;fill:#000000;" text-anchor="middle" x="169.150538" y="106.000000">128</text><line x1="240.204301" x2="240.204301" y1="91.000000" y2="96.000000" stroke="#AAAAAA" /><text style="font-size:10px;font-family:OpenSans;fill:#000000;" text-anchor="middle" x="240.204301" y="106.000000">187</text><line x1="304.032258" x2="304.032258" y1="91.000000" y2="96.000000" stroke="#AAAAAA" /><text style="font-size:10px;font-family:OpenSans;fill:#000000;" text-anchor="middle" x="304.032258" y="106.000000">240</text><line x1="424.462366" x2="424.462366" y1="91.000000" y2="96.000000" stroke="#AAAAAA" /><text style="font-size:10px;font-family:OpenSans;fill:#000000;" text-anchor="middle" x="424.462366" y="106.000000">340</text><line x1="560.548387" x2="560.548387" y1="91.000000" y2="96.000000" stroke="#AAAAAA" /><text style="font-size:10px;font-family:OpenSans;fill:#000000;" text-anchor="middle" x="560.548387" y="106.000000">453</text></g>
<rect fill="#2DCF00" x="4" y="120.000000" width="12" height="12" filter="url(#ds)"/><text style="font-size:12px;font-family:OpenSans;fill:#000000;" text-anchor="start" x="20" y="132.000000">Neurotransmitter-gated ion-channel ligand binding domain</text><rect fill="#FF5353" x="4" y="134.000000" width="12" height="12" filter="url(#ds)"/><text style="font-size:12px;font-family:OpenSans;fill:#000000;" text-anchor="start" x="20" y="146.000000">Neurotransmitter-gated ion-channel transmembrane region</text></svg>
