<?xml version='1.0'?>
<svg xmlns="http://www.w3.org/2000/svg" xmlns:xlink="http://www.w3.org/1999/xlink" width="462.132231" height="171.900000">
<defs>
  <filter id="ds" x="0" y="0">
    <feOffset in="SourceAlpha" dx="2" dy="2" />
    <feComponentTransfer><feFuncA type="linear" slope="0.2"/></feComponentTransfer>
    <feGaussianBlur result="blurOut" stdDeviation="1" />
    <feBlend in="SourceGraphic" in2="blurOut" mode="normal" />
  </filter>
  <pattern id="disordered-hatch" patternUnits="userSpaceOnUse" width="4" height="4">
    <path d="M-1,1 l2,-2 M0,4 l4,-4 M3,5 l2,-2" stroke="#000000" opacity="0.3" />
  </pattern>
</defs>
<line x1="19.264463" x2="19.264463" y1="34.000000" y2="74.500000" stroke="#BABDB6" stroke-width="2"/><a xlink:title="S6F"><circle cx="19.264463" cy="34.000000" r="4.000000" fill="#ff0000" /></a><g transform="translate(19.264463,34.000000) rotate(-30)"><text style="font-size:10px;font-family:OpenSans;fill:#555;" text-anchor="middle" x="0" y="-6.000000">S6F</text></g><line x1="19.264463" x2="19.264463" y1="46.500000" y2="74.500000" stroke="#BABDB6" stroke-width="2"/><a xlink:title="R6H"><circle cx="19.264463" cy="46.500000" r="4.000000" fill="#ff0000" /></a><g transform="translate(19.264463,46.500000) rotate(-30)"><text style="font-size:10px;font-family:OpenSans;fill:#555;" text-anchor="middle" x="0" y="-6.000000">R6H</text></g><line x1="32.057851" x2="32.057851" y1="46.500000" y2="74.500000" stroke="#BABDB6" stroke-width="2"/><a xlink:title="R24H"><circle cx="32.057851" cy="46.500000" r="4.000000" fill="#ff0000" /></a><g transform="translate(32.057851,46.500000) rotate(-30)"><text style="font-size:10px;font-family:OpenSans;fill:#555;" text-anchor="middle" x="0" y="-6.000000">R24H</text></g><line x1="89.628099" x2="89.628099" y1="46.500000" y2="74.500000" stroke="#BABDB6" stroke-width="2"/><a xlink:title="R105H"><circle cx="89.628099" cy="46.500000" r="4.000000" fill="#ff0000" /></a><g transform="translate(89.628099,46.500000) rotate(-30)"><text style="font-size:10px;font-family:OpenSans;fill:#555;" text-anchor="middle" x="0" y="-6.000000">R105H</text></g><line x1="110.239669" x2="110.239669" y1="46.500000" y2="74.500000" stroke="#BABDB6" stroke-width="2"/><a xlink:title="A134T"><circle cx="110.239669" cy="46.500000" r="4.000000" fill="#ff0000" /></a><g transform="translate(110.239669,46.500000) rotate(-30)"><text style="font-size:10px;font-family:OpenSans;fill:#555;" text-anchor="middle" x="0" y="-6.000000">A134T</text></g><line x1="123.033058" x2="123.033058" y1="46.500000" y2="74.500000" stroke="#BABDB6" stroke-width="2"/><a xlink:title="A152T"><circle cx="123.033058" cy="46.500000" r="4.000000" fill="#ff0000" /></a><g transform="translate(123.033058,46.500000) rotate(-30)"><text style="font-size:10px;font-family:OpenSans;fill:#555;" text-anchor="middle" x="0" y="-6.000000">A152T</text></g><line x1="180.603306" x2="180.603306" y1="46.500000" y2="74.500000" stroke="#BABDB6" stroke-width="2"/><a xlink:title="A233T"><circle cx="180.603306" cy="46.500000" r="4.000000" fill="#ff0000" /></a><g transform="translate(180.603306,46.500000) rotate(-30)"><text style="font-size:10px;font-family:OpenSans;fill:#555;" text-anchor="middle" x="0" y="-6.000000">A233T</text></g><line x1="458.504132" x2="458.504132" y1="34.000000" y2="74.500000" stroke="#BABDB6" stroke-width="2"/><a xlink:title="W624R"><circle cx="458.504132" cy="34.000000" r="4.000000" fill="#ff0000" /></a><g transform="translate(458.504132,34.000000) rotate(-30)"><text style="font-size:10px;font-family:OpenSans;fill:#555;" text-anchor="middle" x="0" y="-6.000000">W624R</text></g><line x1="459.925620" x2="459.925620" y1="46.500000" y2="74.500000" stroke="#BABDB6" stroke-width="2"/><a xlink:title="R626C"><circle cx="459.925620" cy="46.500000" r="4.000000" fill="#ff0000" /></a><g transform="translate(459.925620,46.500000) rotate(-30)"><text style="font-size:10px;font-family:OpenSans;fill:#555;" text-anchor="middle" x="0" y="-6.000000">R626C</text></g><line x1="482.669421" x2="482.669421" y1="46.500000" y2="74.500000" stroke="#BABDB6" stroke-width="2"/><a xlink:title="P658P"><circle cx="482.669421" cy="46.500000" r="4.000000" fill="#0000ff" /></a><g transform="translate(482.669421,46.500000) rotate(-30)"><text style="font-size:10px;font-family:OpenSans;fill:#555;" text-anchor="middle" x="0" y="-6.000000">P658P</text></g><a xlink:title=",  (608aa)"><rect fill="#BABDB6" x="15.000000" y="74.500000" width="432.132231" height="14.000000"/></a><g transform="translate(124.454545,69.500000)"><a xlink:href="https://www.ebi.ac.uk/interpro/entry/pfam/PF00535" xlink:title="Glycosyl transferase family 2"><rect fill="#2DCF00" x="0" y="0" width="130.066116" height="24.000000" filter="url(#ds)"/><text style="font-size:12px;font-family:OpenSans;fill:#ffffff;" text-anchor="middle" x="65.033058" y="16.000000">Glycos_transf_2</text></a></g>
<g transform="translate(358.289256,69.500000)"><a xlink:href="https://www.ebi.ac.uk/interpro/entry/pfam/PF00652" xlink:title="Ricin-type beta-trefoil lectin domain"><rect fill="#FF5353" x="0" y="0" width="86.000000" height="24.000000" filter="url(#ds)"/><text style="font-size:12px;font-family:OpenSans;fill:#ffffff;" text-anchor="middle" x="43.000000" y="16.000000">Ricin_B_lectin</text></a></g>
<g class="axis">
<line x1="15.000000" x2="447.132231" y1="103.500000" y2="103.500000" stroke="#AAAAAA" /><line x1="15.000000" x2="15.000000" y1="103.500000" y2="108.500000" stroke="#AAAAAA" /><line x1="19.264463" x2="19.264463" y1="103.500000" y2="108.500000" stroke="#AAAAAA" /><text style="font-size:10px;font-family:OpenSans;fill:#000000;" text-anchor="middle" x="19.264463" y="118.500000">6</text><line x1="89.628099" x2="89.628099" y1="103.500000" y2="108.500000" stroke="#AAAAAA" /><text style="font-size:10px;font-family:OpenSans;fill:#000000;" text-anchor="middle" x="89.628099" y="118.500000">105</text><line x1="110.239669" x2="110.239669" y1="103.500000" y2="108.500000" stroke="#AAAAAA" /><text style="font-size:10px;font-family:OpenSans;fill:#000000;" text-anchor="middle" x="110.239669" y="118.500000">134</text><line x1="180.603306" x2="180.603306" y1="103.500000" y2="108.500000" stroke="#AAAAAA" /><text style="font-size:10px;font-family:OpenSans;fill:#000000;" text-anchor="middle" x="180.603306" y="118.500000">233</text><line x1="254.520661" x2="254.520661" y1="103.500000" y2="108.500000" stroke="#AAAAAA" /><text style="font-size:10px;font-family:OpenSans;fill:#000000;" text-anchor="middle" x="254.520661" y="118.500000">337</text><line x1="358.289256" x2="358.289256" y1="103.500000" y2="108.500000" stroke="#AAAAAA" /><text style="font-size:10px;font-family:OpenSans;fill:#000000;" text-anchor="middle" x="358.289256" y="118.500000">483</text><line x1="447.132231" x2="447.132231" y1="103.500000" y2="108.500000" stroke="#AAAAAA" /><text style="font-size:10px;font-family:OpenSans;fill:#000000;" text-anchor="middle" x="447.132231" y="118.500000">608</text><line x1="482.669421" x2="482.669421" y1="103.500000" y2="108.500000" stroke="#AAAAAA" /><text style="font-size:10px;font-family:OpenSans;fill:#000000;" text-anchor="middle" x="482.669421" y="118.500000">658</text></g>
<rect fill="#2DCF00" x="4" y="132.500000" width="12" height="12" filter="url(#ds)"/><text style="font-size:12px;font-family:OpenSans;fill:#000000;" text-anchor="start" x="20" y="144.500000">Glycosyl transferase family 2</text><rect fill="#FF5353" x="4" y="146.500000" width="12" height="12" filter="url(#ds)"/><text style="font-size:12px;font-family:OpenSans;fill:#000000;" text-anchor="start" x="20" y="158.500000">Ricin-type beta-trefoil lectin domain</text></svg>
