<?xml version='1.0'?>
<svg xmlns="http://www.w3.org/2000/svg" xmlns:xlink="http://www.w3.org/1999/xlink" width="3933.058824" height="184.400000">
<defs>
  <filter id="ds" x="0" y="0">
    <feOffset in="SourceAlpha" dx="2" dy="2" />
    <feComponentTransfer><feFuncA type="linear" slope="0.2"/></feComponentTransfer>
    <feGaussianBlur result="blurOut" stdDeviation="1" />
    <feBlend in="SourceGraphic" in2="blurOut" mode="normal" />
  </filter>
  <pattern id="disordered-hatch" patternUnits="userSpaceOnUse" width="4" height="4">
    <path d="M-1,1 l2,-2 M0,4 l4,-4 M3,5 l2,-2" stroke="#000000" opacity="0.3" />
  </pattern>
</defs>
<line x1="581.823529" x2="581.823529" y1="59.000000" y2="87.000000" stroke="#BABDB6" stroke-width="2"/><a xlink:title="T219A"><circle cx="581.823529" cy="59.000000" r="4.000000" fill="#ff0000" /></a><g transform="translate(581.823529,59.000000) rotate(-30)"><text style="font-size:10px;font-family:OpenSans;fill:#555;" text-anchor="middle" x="0" y="-6.000000">T219A</text></g><line x1="920.882353" x2="920.882353" y1="46.500000" y2="87.000000" stroke="#BABDB6" stroke-width="2"/><a xlink:title="L350L"><circle cx="920.882353" cy="46.500000" r="4.000000" fill="#0000ff" /></a><g transform="translate(920.882353,46.500000) rotate(-30)"><text style="font-size:10px;font-family:OpenSans;fill:#555;" text-anchor="middle" x="0" y="-6.000000">L350L</text></g><line x1="923.470588" x2="923.470588" y1="59.000000" y2="87.000000" stroke="#BABDB6" stroke-width="2"/><a xlink:title="L351L"><circle cx="923.470588" cy="59.000000" r="4.000000" fill="#0000ff" /></a><g transform="translate(923.470588,59.000000) rotate(-30)"><text style="font-size:10px;font-family:OpenSans;fill:#555;" text-anchor="middle" x="0" y="-6.000000">L351L</text></g><line x1="1241.823529" x2="1241.823529" y1="46.500000" y2="87.000000" stroke="#BABDB6" stroke-width="2"/><a xlink:title="T474T"><circle cx="1241.823529" cy="46.500000" r="4.000000" fill="#0000ff" /></a><g transform="translate(1241.823529,46.500000) rotate(-30)"><text style="font-size:10px;font-family:OpenSans;fill:#555;" text-anchor="middle" x="0" y="-6.000000">T474T</text></g><line x1="1244.411765" x2="1244.411765" y1="59.000000" y2="87.000000" stroke="#BABDB6" stroke-width="2"/><a xlink:title="T475T"><circle cx="1244.411765" cy="59.000000" r="4.000000" fill="#0000ff" /></a><g transform="translate(1244.411765,59.000000) rotate(-30)"><text style="font-size:10px;font-family:OpenSans;fill:#555;" text-anchor="middle" x="0" y="-6.000000">T475T</text></g><line x1="1749.117647" x2="1749.117647" y1="46.500000" y2="87.000000" stroke="#BABDB6" stroke-width="2"/><a xlink:title="R670Q"><circle cx="1749.117647" cy="46.500000" r="4.000000" fill="#ff0000" /></a><g transform="translate(1749.117647,46.500000) rotate(-30)"><text style="font-size:10px;font-family:OpenSans;fill:#555;" text-anchor="middle" x="0" y="-6.000000">R670Q</text></g><line x1="1751.705882" x2="1751.705882" y1="59.000000" y2="87.000000" stroke="#BABDB6" stroke-width="2"/><a xlink:title="R671Q"><circle cx="1751.705882" cy="59.000000" r="4.000000" fill="#ff0000" /></a><g transform="translate(1751.705882,59.000000) rotate(-30)"><text style="font-size:10px;font-family:OpenSans;fill:#555;" text-anchor="middle" x="0" y="-6.000000">R671Q</text></g><line x1="1772.411765" x2="1772.411765" y1="34.000000" y2="87.000000" stroke="#BABDB6" stroke-width="2"/><a xlink:title="G679G"><circle cx="1772.411765" cy="34.000000" r="4.000000" fill="#0000ff" /></a><g transform="translate(1772.411765,34.000000) rotate(-30)"><text style="font-size:10px;font-family:OpenSans;fill:#555;" text-anchor="middle" x="0" y="-6.000000">G679G</text></g><line x1="1775.000000" x2="1775.000000" y1="34.000000" y2="87.000000" stroke="#BABDB6" stroke-width="2"/><a xlink:title="G680G"><circle cx="1775.000000" cy="34.000000" r="4.000000" fill="#0000ff" /></a><g transform="translate(1775.000000,34.000000) rotate(-30)"><text style="font-size:10px;font-family:OpenSans;fill:#555;" text-anchor="middle" x="0" y="-6.000000">G680G</text></g><line x1="1777.588235" x2="1777.588235" y1="46.500000" y2="87.000000" stroke="#BABDB6" stroke-width="2"/><a xlink:title="R681Q"><circle cx="1777.588235" cy="46.500000" r="4.000000" fill="#ff0000" /></a><g transform="translate(1777.588235,46.500000) rotate(-30)"><text style="font-size:10px;font-family:OpenSans;fill:#555;" text-anchor="middle" x="0" y="-6.000000">R681Q</text></g><line x1="1780.176471" x2="1780.176471" y1="59.000000" y2="87.000000" stroke="#BABDB6" stroke-width="2"/><a xlink:title="R682Q"><circle cx="1780.176471" cy="59.000000" r="4.000000" fill="#ff0000" /></a><g transform="translate(1780.176471,59.000000) rotate(-30)"><text style="font-size:10px;font-family:OpenSans;fill:#555;" text-anchor="middle" x="0" y="-6.000000">R682Q</text></g><line x1="1901.823529" x2="1901.823529" y1="46.500000" y2="87.000000" stroke="#BABDB6" stroke-width="2"/><a xlink:title="E729D"><circle cx="1901.823529" cy="46.500000" r="4.000000" fill="#ff0000" /></a><g transform="translate(1901.823529,46.500000) rotate(-30)"><text style="font-size:10px;font-family:OpenSans;fill:#555;" text-anchor="middle" x="0" y="-6.000000">E729D</text></g><line x1="1904.411765" x2="1904.411765" y1="59.000000" y2="87.000000" stroke="#BABDB6" stroke-width="2"/><a xlink:title="E730D"><circle cx="1904.411765" cy="59.000000" r="4.000000" fill="#ff0000" /></a><g transform="translate(1904.411765,59.000000) rotate(-30)"><text style="font-size:10px;font-family:OpenSans;fill:#555;" text-anchor="middle" x="0" y="-6.000000">E730D</text></g><line x1="2367.705882" x2="2367.705882" y1="46.500000" y2="87.000000" stroke="#BABDB6" stroke-width="2"/><a xlink:title="G909G"><circle cx="2367.705882" cy="46.500000" r="4.000000" fill="#0000ff" /></a><g transform="translate(2367.705882,46.500000) rotate(-30)"><text style="font-size:10px;font-family:OpenSans;fill:#555;" text-anchor="middle" x="0" y="-6.000000">G909G</text></g><line x1="2370.294118" x2="2370.294118" y1="59.000000" y2="87.000000" stroke="#BABDB6" stroke-width="2"/><a xlink:title="G910G"><circle cx="2370.294118" cy="59.000000" r="4.000000" fill="#0000ff" /></a><g transform="translate(2370.294118,59.000000) rotate(-30)"><text style="font-size:10px;font-family:OpenSans;fill:#555;" text-anchor="middle" x="0" y="-6.000000">G910G</text></g><line x1="2996.647059" x2="2996.647059" y1="34.000000" y2="87.000000" stroke="#BABDB6" stroke-width="2"/><a xlink:title="E1152K"><circle cx="2996.647059" cy="34.000000" r="4.000000" fill="#ff0000" /></a><g transform="translate(2996.647059,34.000000) rotate(-30)"><text style="font-size:10px;font-family:OpenSans;fill:#555;" text-anchor="middle" x="0" y="-6.000000">E1152K</text></g><line x1="2999.235294" x2="2999.235294" y1="34.000000" y2="87.000000" stroke="#BABDB6" stroke-width="2"/><a xlink:title="E1153K"><circle cx="2999.235294" cy="34.000000" r="4.000000" fill="#ff0000" /></a><g transform="translate(2999.235294,34.000000) rotate(-30)"><text style="font-size:10px;font-family:OpenSans;fill:#555;" text-anchor="middle" x="0" y="-6.000000">E1153K</text></g><line x1="3001.823529" x2="3001.823529" y1="46.500000" y2="87.000000" stroke="#BABDB6" stroke-width="2"/><a xlink:title="P1154S"><circle cx="3001.823529" cy="46.500000" r="4.000000" fill="#ff0000" /></a><g transform="translate(3001.823529,46.500000) rotate(-30)"><text style="font-size:10px;font-family:OpenSans;fill:#555;" text-anchor="middle" x="0" y="-6.000000">P1154S</text></g><line x1="3004.411765" x2="3004.411765" y1="59.000000" y2="87.000000" stroke="#BABDB6" stroke-width="2"/><a xlink:title="P1155S"><circle cx="3004.411765" cy="59.000000" r="4.000000" fill="#ff0000" /></a><g transform="translate(3004.411765,59.000000) rotate(-30)"><text style="font-size:10px;font-family:OpenSans;fill:#555;" text-anchor="middle" x="0" y="-6.000000">P1155S</text></g><line x1="3255.470588" x2="3255.470588" y1="46.500000" y2="87.000000" stroke="#BABDB6" stroke-width="2"/><a xlink:title="D1252D"><circle cx="3255.470588" cy="46.500000" r="4.000000" fill="#0000ff" /></a><g transform="translate(3255.470588,46.500000) rotate(-30)"><text style="font-size:10px;font-family:OpenSans;fill:#555;" text-anchor="middle" x="0" y="-6.000000">D1252D</text></g><line x1="3258.058824" x2="3258.058824" y1="59.000000" y2="87.000000" stroke="#BABDB6" stroke-width="2"/><a xlink:title="D1253D"><circle cx="3258.058824" cy="59.000000" r="4.000000" fill="#0000ff" /></a><g transform="translate(3258.058824,59.000000) rotate(-30)"><text style="font-size:10px;font-family:OpenSans;fill:#555;" text-anchor="middle" x="0" y="-6.000000">D1253D</text></g><line x1="3299.470588" x2="3299.470588" y1="46.500000" y2="87.000000" stroke="#BABDB6" stroke-width="2"/><a xlink:title="T1269I"><circle cx="3299.470588" cy="46.500000" r="4.000000" fill="#ff0000" /></a><g transform="translate(3299.470588,46.500000) rotate(-30)"><text style="font-size:10px;font-family:OpenSans;fill:#555;" text-anchor="middle" x="0" y="-6.000000">T1269I</text></g><line x1="3302.058824" x2="3302.058824" y1="59.000000" y2="87.000000" stroke="#BABDB6" stroke-width="2"/><a xlink:title="T1270I"><circle cx="3302.058824" cy="59.000000" r="4.000000" fill="#ff0000" /></a><g transform="translate(3302.058824,59.000000) rotate(-30)"><text style="font-size:10px;font-family:OpenSans;fill:#555;" text-anchor="middle" x="0" y="-6.000000">T1270I</text></g><line x1="3755.000000" x2="3755.000000" y1="46.500000" y2="87.000000" stroke="#BABDB6" stroke-width="2"/><a xlink:title="A1445A"><circle cx="3755.000000" cy="46.500000" r="4.000000" fill="#0000ff" /></a><g transform="translate(3755.000000,46.500000) rotate(-30)"><text style="font-size:10px;font-family:OpenSans;fill:#555;" text-anchor="middle" x="0" y="-6.000000">A1445A</text></g><line x1="3757.588235" x2="3757.588235" y1="59.000000" y2="87.000000" stroke="#BABDB6" stroke-width="2"/><a xlink:title="A1446A"><circle cx="3757.588235" cy="59.000000" r="4.000000" fill="#0000ff" /></a><g transform="translate(3757.588235,59.000000) rotate(-30)"><text style="font-size:10px;font-family:OpenSans;fill:#555;" text-anchor="middle" x="0" y="-6.000000">A1446A</text></g><a xlink:title=",  (1508aa)"><rect fill="#BABDB6" x="15.000000" y="87.000000" width="3903.058824" height="14.000000"/></a><g transform="translate(159.941176,82.000000)"><a xlink:href="https://www.ebi.ac.uk/interpro/entry/pfam/PF00400" xlink:title="WD domain, G-beta repeat"><rect fill="#2DCF00" x="0" y="0" width="100.941176" height="24.000000" filter="url(#ds)"/><text style="font-size:12px;font-family:OpenSans;fill:#ffffff;" text-anchor="middle" x="50.470588" y="16.000000">WD40</text></a></g>
<g transform="translate(297.117647,82.000000)"><a xlink:href="https://www.ebi.ac.uk/interpro/entry/pfam/PF21720" xlink:title="MIOS, WD40 repeat"><rect fill="#FF5353" x="0" y="0" width="251.058824" height="24.000000" filter="url(#ds)"/><text style="font-size:12px;font-family:OpenSans;fill:#ffffff;" text-anchor="middle" x="125.529412" y="16.000000">MIOS, WD40 repeat</text></a></g>
<g transform="translate(631.000000,82.000000)"><a xlink:href="https://www.ebi.ac.uk/interpro/entry/pfam/PF00400" xlink:title="WD domain, G-beta repeat"><rect fill="#5B5BFF" x="0" y="0" width="44.000000" height="24.000000" filter="url(#ds)"/><text style="font-size:12px;font-family:OpenSans;fill:#ffffff;" text-anchor="middle" x="22.000000" y="16.000000">WD40</text></a></g>
<g transform="translate(1107.235294,82.000000)"><a xlink:href="https://www.ebi.ac.uk/interpro/entry/pfam/PF12894" xlink:title="Anaphase-promoting complex subunit 4 WD40 domain"><rect fill="#EBD61D" x="0" y="0" width="147.529412" height="24.000000" filter="url(#ds)"/><text style="font-size:12px;font-family:OpenSans;fill:#ffffff;" text-anchor="middle" x="73.764706" y="16.000000">ANAPC4_WD40</text></a></g>
<g transform="translate(1412.647059,82.000000)"><a xlink:href="https://www.ebi.ac.uk/interpro/entry/pfam/PF12894" xlink:title="Anaphase-promoting complex subunit 4 WD40 domain"><rect fill="#BA21E0" x="0" y="0" width="124.235294" height="24.000000" filter="url(#ds)"/><text style="font-size:12px;font-family:OpenSans;fill:#ffffff;" text-anchor="middle" x="62.117647" y="16.000000">ANAPC4_WD40</text></a></g>
<g transform="translate(1645.588235,82.000000)"><a xlink:href="https://www.ebi.ac.uk/interpro/entry/pfam/PF00400" xlink:title="WD domain, G-beta repeat"><rect fill="#FF9C42" x="0" y="0" width="98.352941" height="24.000000" filter="url(#ds)"/><text style="font-size:12px;font-family:OpenSans;fill:#ffffff;" text-anchor="middle" x="49.176471" y="16.000000">WD40</text></a></g>
<g transform="translate(1756.882353,82.000000)"><a xlink:href="https://www.ebi.ac.uk/interpro/entry/pfam/PF00400" xlink:title="WD domain, G-beta repeat"><rect fill="#FF7DFF" x="0" y="0" width="95.764706" height="24.000000" filter="url(#ds)"/><text style="font-size:12px;font-family:OpenSans;fill:#ffffff;" text-anchor="middle" x="47.882353" y="16.000000">WD40</text></a></g>
<g class="axis">
<line x1="15.000000" x2="3918.058824" y1="116.000000" y2="116.000000" stroke="#AAAAAA" /><line x1="15.000000" x2="15.000000" y1="116.000000" y2="121.000000" stroke="#AAAAAA" /><line x1="15.000000" x2="15.000000" y1="116.000000" y2="121.000000" stroke="#AAAAAA" /><text style="font-size:10px;font-family:OpenSans;fill:#000000;" text-anchor="middle" x="15.000000" y="131.000000">0</text><line x1="159.941176" x2="159.941176" y1="116.000000" y2="121.000000" stroke="#AAAAAA" /><text style="font-size:10px;font-family:OpenSans;fill:#000000;" text-anchor="middle" x="159.941176" y="131.000000">56</text><line x1="260.882353" x2="260.882353" y1="116.000000" y2="121.000000" stroke="#AAAAAA" /><text style="font-size:10px;font-family:OpenSans;fill:#000000;" text-anchor="middle" x="260.882353" y="131.000000">95</text><line x1="297.117647" x2="297.117647" y1="116.000000" y2="121.000000" stroke="#AAAAAA" /><text style="font-size:10px;font-family:OpenSans;fill:#000000;" text-anchor="middle" x="297.117647" y="131.000000">109</text><line x1="548.176471" x2="548.176471" y1="116.000000" y2="121.000000" stroke="#AAAAAA" /><text style="font-size:10px;font-family:OpenSans;fill:#000000;" text-anchor="middle" x="548.176471" y="131.000000">206</text><line x1="581.823529" x2="581.823529" y1="116.000000" y2="121.000000" stroke="#AAAAAA" /><text style="font-size:10px;font-family:OpenSans;fill:#000000;" text-anchor="middle" x="581.823529" y="131.000000">219</text><line x1="631.000000" x2="631.000000" y1="116.000000" y2="121.000000" stroke="#AAAAAA" /><text style="font-size:10px;font-family:OpenSans;fill:#000000;" text-anchor="middle" x="631.000000" y="131.000000">238</text><line x1="675.000000" x2="675.000000" y1="116.000000" y2="121.000000" stroke="#AAAAAA" /><text style="font-size:10px;font-family:OpenSans;fill:#000000;" text-anchor="middle" x="675.000000" y="131.000000">255</text><line x1="920.882353" x2="920.882353" y1="116.000000" y2="121.000000" stroke="#AAAAAA" /><text style="font-size:10px;font-family:OpenSans;fill:#000000;" text-anchor="middle" x="920.882353" y="131.000000">350</text><line x1="1107.235294" x2="1107.235294" y1="116.000000" y2="121.000000" stroke="#AAAAAA" /><text style="font-size:10px;font-family:OpenSans;fill:#000000;" text-anchor="middle" x="1107.235294" y="131.000000">422</text><line x1="1241.823529" x2="1241.823529" y1="116.000000" y2="121.000000" stroke="#AAAAAA" /><text style="font-size:10px;font-family:OpenSans;fill:#000000;" text-anchor="middle" x="1241.823529" y="131.000000">474</text><line x1="1412.647059" x2="1412.647059" y1="116.000000" y2="121.000000" stroke="#AAAAAA" /><text style="font-size:10px;font-family:OpenSans;fill:#000000;" text-anchor="middle" x="1412.647059" y="131.000000">540</text><line x1="1536.882353" x2="1536.882353" y1="116.000000" y2="121.000000" stroke="#AAAAAA" /><text style="font-size:10px;font-family:OpenSans;fill:#000000;" text-anchor="middle" x="1536.882353" y="131.000000">588</text><line x1="1645.588235" x2="1645.588235" y1="116.000000" y2="121.000000" stroke="#AAAAAA" /><text style="font-size:10px;font-family:OpenSans;fill:#000000;" text-anchor="middle" x="1645.588235" y="131.000000">630</text><line x1="1749.117647" x2="1749.117647" y1="116.000000" y2="121.000000" stroke="#AAAAAA" /><text style="font-size:10px;font-family:OpenSans;fill:#000000;" text-anchor="middle" x="1749.117647" y="131.000000">670</text><line x1="1772.411765" x2="1772.411765" y1="116.000000" y2="121.000000" stroke="#AAAAAA" /><text style="font-size:10px;font-family:OpenSans;fill:#000000;" text-anchor="middle" x="1772.411765" y="131.000000">679</text><line x1="1852.647059" x2="1852.647059" y1="116.000000" y2="121.000000" stroke="#AAAAAA" /><text style="font-size:10px;font-family:OpenSans;fill:#000000;" text-anchor="middle" x="1852.647059" y="131.000000">710</text><line x1="1901.823529" x2="1901.823529" y1="116.000000" y2="121.000000" stroke="#AAAAAA" /><text style="font-size:10px;font-family:OpenSans;fill:#000000;" text-anchor="middle" x="1901.823529" y="131.000000">729</text><line x1="2367.705882" x2="2367.705882" y1="116.000000" y2="121.000000" stroke="#AAAAAA" /><text style="font-size:10px;font-family:OpenSans;fill:#000000;" text-anchor="middle" x="2367.705882" y="131.000000">909</text><line x1="2996.647059" x2="2996.647059" y1="116.000000" y2="121.000000" stroke="#AAAAAA" /><text style="font-size:10px;font-family:OpenSans;fill:#000000;" text-anchor="middle" x="2996.647059" y="131.000000">1152</text><line x1="3255.470588" x2="3255.470588" y1="116.000000" y2="121.000000" stroke="#AAAAAA" /><text style="font-size:10px;font-family:OpenSans;fill:#000000;" text-anchor="middle" x="3255.470588" y="131.000000">1252</text><line x1="3299.470588" x2="3299.470588" y1="116.000000" y2="121.000000" stroke="#AAAAAA" /><text style="font-size:10px;font-family:OpenSans;fill:#000000;" text-anchor="middle" x="3299.470588" y="131.000000">1269</text><line x1="3755.000000" x2="3755.000000" y1="116.000000" y2="121.000000" stroke="#AAAAAA" /><text style="font-size:10px;font-family:OpenSans;fill:#000000;" text-anchor="middle" x="3755.000000" y="131.000000">1445</text><line x1="3918.058824" x2="3918.058824" y1="116.000000" y2="121.000000" stroke="#AAAAAA" /><text style="font-size:10px;font-family:OpenSans;fill:#000000;" text-anchor="middle" x="3918.058824" y="131.000000">1508</text></g>
<rect fill="#FF7DFF" x="4" y="145.000000" width="12" height="12" filter="url(#ds)"/><text style="font-size:12px;font-family:OpenSans;fill:#000000;" text-anchor="start" x="20" y="157.000000">WD domain, G-beta repeat</text><rect fill="#BA21E0" x="4" y="159.000000" width="12" height="12" filter="url(#ds)"/><text style="font-size:12px;font-family:OpenSans;fill:#000000;" text-anchor="start" x="20" y="171.000000">Anaphase-promoting complex subunit 4 WD40 domain</text></svg>
