<?xml version='1.0'?>
<svg xmlns="http://www.w3.org/2000/svg" xmlns:xlink="http://www.w3.org/1999/xlink" width="430.000000" height="158.700000">
<defs>
  <filter id="ds" x="0" y="0">
    <feOffset in="SourceAlpha" dx="2" dy="2" />
    <feComponentTransfer><feFuncA type="linear" slope="0.2"/></feComponentTransfer>
    <feGaussianBlur result="blurOut" stdDeviation="1" />
    <feBlend in="SourceGraphic" in2="blurOut" mode="normal" />
  </filter>
  <pattern id="disordered-hatch" patternUnits="userSpaceOnUse" width="4" height="4">
    <path d="M-1,1 l2,-2 M0,4 l4,-4 M3,5 l2,-2" stroke="#000000" opacity="0.3" />
  </pattern>
</defs>
<line x1="44.441624" x2="44.441624" y1="34.000000" y2="74.500000" stroke="#BABDB6" stroke-width="2"/><a xlink:title="E29Q"><circle cx="44.441624" cy="34.000000" r="4.000000" fill="#ff0000" /></a><g transform="translate(44.441624,34.000000) rotate(-30)"><text style="font-size:10px;font-family:OpenSans;fill:#555;" text-anchor="middle" x="0" y="-6.000000">E29Q</text></g><line x1="48.502538" x2="48.502538" y1="46.500000" y2="74.500000" stroke="#BABDB6" stroke-width="2"/><a xlink:title="R33C"><circle cx="48.502538" cy="46.500000" r="4.000000" fill="#ff0000" /></a><g transform="translate(48.502538,46.500000) rotate(-30)"><text style="font-size:10px;font-family:OpenSans;fill:#555;" text-anchor="middle" x="0" y="-6.000000">R33C</text></g><line x1="75.913706" x2="75.913706" y1="46.500000" y2="74.500000" stroke="#BABDB6" stroke-width="2"/><a xlink:title="M60L"><circle cx="75.913706" cy="46.500000" r="4.000000" fill="#ff0000" /></a><g transform="translate(75.913706,46.500000) rotate(-30)"><text style="font-size:10px;font-family:OpenSans;fill:#555;" text-anchor="middle" x="0" y="-6.000000">M60L</text></g><line x1="106.370558" x2="106.370558" y1="46.500000" y2="74.500000" stroke="#BABDB6" stroke-width="2"/><a xlink:title="Y90Y"><circle cx="106.370558" cy="46.500000" r="4.000000" fill="#0000ff" /></a><g transform="translate(106.370558,46.500000) rotate(-30)"><text style="font-size:10px;font-family:OpenSans;fill:#555;" text-anchor="middle" x="0" y="-6.000000">Y90Y</text></g><line x1="124.644670" x2="124.644670" y1="46.500000" y2="74.500000" stroke="#BABDB6" stroke-width="2"/><a xlink:title="V108M"><circle cx="124.644670" cy="46.500000" r="4.000000" fill="#ff0000" /></a><g transform="translate(124.644670,46.500000) rotate(-30)"><text style="font-size:10px;font-family:OpenSans;fill:#555;" text-anchor="middle" x="0" y="-6.000000">V108M</text></g><line x1="240.380711" x2="240.380711" y1="46.500000" y2="74.500000" stroke="#BABDB6" stroke-width="2"/><a xlink:title="S222G"><circle cx="240.380711" cy="46.500000" r="4.000000" fill="#ff0000" /></a><g transform="translate(240.380711,46.500000) rotate(-30)"><text style="font-size:10px;font-family:OpenSans;fill:#555;" text-anchor="middle" x="0" y="-6.000000">S222G</text></g><line x1="316.522843" x2="316.522843" y1="46.500000" y2="74.500000" stroke="#BABDB6" stroke-width="2"/><a xlink:title="T297T"><circle cx="316.522843" cy="46.500000" r="4.000000" fill="#0000ff" /></a><g transform="translate(316.522843,46.500000) rotate(-30)"><text style="font-size:10px;font-family:OpenSans;fill:#555;" text-anchor="middle" x="0" y="-6.000000">T297T</text></g><line x1="407.893401" x2="407.893401" y1="46.500000" y2="74.500000" stroke="#BABDB6" stroke-width="2"/><a xlink:title="S387P"><circle cx="407.893401" cy="46.500000" r="4.000000" fill="#ff0000" /></a><g transform="translate(407.893401,46.500000) rotate(-30)"><text style="font-size:10px;font-family:OpenSans;fill:#555;" text-anchor="middle" x="0" y="-6.000000">S387P</text></g><a xlink:title=",  (394aa)"><rect fill="#BABDB6" x="15.000000" y="74.500000" width="400.000000" height="14.000000"/></a><g transform="translate(147.994924,69.500000)"><a xlink:href="https://www.ebi.ac.uk/interpro/entry/pfam/PF02351" xlink:title="GDNF/GAS1 domain"><rect fill="#2DCF00" x="0" y="0" width="80.203046" height="24.000000" filter="url(#ds)"/><text style="font-size:12px;font-family:OpenSans;fill:#ffffff;" text-anchor="middle" x="40.101523" y="16.000000">GDNF</text></a></g>
<g transform="translate(238.350254,69.500000)"><a xlink:href="https://www.ebi.ac.uk/interpro/entry/pfam/PF02351" xlink:title="GDNF/GAS1 domain"><rect fill="#FF5353" x="0" y="0" width="97.461929" height="24.000000" filter="url(#ds)"/><text style="font-size:12px;font-family:OpenSans;fill:#ffffff;" text-anchor="middle" x="48.730964" y="16.000000">GDNF</text></a></g>
<g class="axis">
<line x1="15.000000" x2="415.000000" y1="103.500000" y2="103.500000" stroke="#AAAAAA" /><line x1="15.000000" x2="15.000000" y1="103.500000" y2="108.500000" stroke="#AAAAAA" /><line x1="15.000000" x2="15.000000" y1="103.500000" y2="108.500000" stroke="#AAAAAA" /><text style="font-size:10px;font-family:OpenSans;fill:#000000;" text-anchor="middle" x="15.000000" y="118.500000">0</text><line x1="44.441624" x2="44.441624" y1="103.500000" y2="108.500000" stroke="#AAAAAA" /><text style="font-size:10px;font-family:OpenSans;fill:#000000;" text-anchor="middle" x="44.441624" y="118.500000">29</text><line x1="75.913706" x2="75.913706" y1="103.500000" y2="108.500000" stroke="#AAAAAA" /><text style="font-size:10px;font-family:OpenSans;fill:#000000;" text-anchor="middle" x="75.913706" y="118.500000">60</text><line x1="106.370558" x2="106.370558" y1="103.500000" y2="108.500000" stroke="#AAAAAA" /><text style="font-size:10px;font-family:OpenSans;fill:#000000;" text-anchor="middle" x="106.370558" y="118.500000">90</text><line x1="147.994924" x2="147.994924" y1="103.500000" y2="108.500000" stroke="#AAAAAA" /><text style="font-size:10px;font-family:OpenSans;fill:#000000;" text-anchor="middle" x="147.994924" y="118.500000">131</text><line x1="240.380711" x2="240.380711" y1="103.500000" y2="108.500000" stroke="#AAAAAA" /><text style="font-size:10px;font-family:OpenSans;fill:#000000;" text-anchor="middle" x="240.380711" y="118.500000">222</text><line x1="316.522843" x2="316.522843" y1="103.500000" y2="108.500000" stroke="#AAAAAA" /><text style="font-size:10px;font-family:OpenSans;fill:#000000;" text-anchor="middle" x="316.522843" y="118.500000">297</text><line x1="335.812183" x2="335.812183" y1="103.500000" y2="108.500000" stroke="#AAAAAA" /><text style="font-size:10px;font-family:OpenSans;fill:#000000;" text-anchor="middle" x="335.812183" y="118.500000">316</text><line x1="415.000000" x2="415.000000" y1="103.500000" y2="108.500000" stroke="#AAAAAA" /><text style="font-size:10px;font-family:OpenSans;fill:#000000;" text-anchor="middle" x="415.000000" y="118.500000">394</text></g>
<rect fill="#FF5353" x="4" y="132.500000" width="12" height="12" filter="url(#ds)"/><text style="font-size:12px;font-family:OpenSans;fill:#000000;" text-anchor="start" x="20" y="144.500000">GDNF/GAS1 domain</text></svg>
