<?xml version='1.0'?>
<svg xmlns="http://www.w3.org/2000/svg" xmlns:xlink="http://www.w3.org/1999/xlink" width="932.596154" height="221.200000">
<defs>
  <filter id="ds" x="0" y="0">
    <feOffset in="SourceAlpha" dx="2" dy="2" />
    <feComponentTransfer><feFuncA type="linear" slope="0.2"/></feComponentTransfer>
    <feGaussianBlur result="blurOut" stdDeviation="1" />
    <feBlend in="SourceGraphic" in2="blurOut" mode="normal" />
  </filter>
  <pattern id="disordered-hatch" patternUnits="userSpaceOnUse" width="4" height="4">
    <path d="M-1,1 l2,-2 M0,4 l4,-4 M3,5 l2,-2" stroke="#000000" opacity="0.3" />
  </pattern>
</defs>
<line x1="28.846154" x2="28.846154" y1="109.000000" y2="137.000000" stroke="#BABDB6" stroke-width="2"/><a xlink:title="R16R"><circle cx="28.846154" cy="109.000000" r="4.000000" fill="#0000ff" /></a><g transform="translate(28.846154,109.000000) rotate(-30)"><text style="font-size:10px;font-family:OpenSans;fill:#555;" text-anchor="middle" x="0" y="-6.000000">R16R</text></g><line x1="43.557692" x2="43.557692" y1="96.500000" y2="137.000000" stroke="#BABDB6" stroke-width="2"/><a xlink:title="A33T"><circle cx="43.557692" cy="96.500000" r="4.000000" fill="#ff0000" /></a><g transform="translate(43.557692,96.500000) rotate(-30)"><text style="font-size:10px;font-family:OpenSans;fill:#555;" text-anchor="middle" x="0" y="-6.000000">A33T</text></g><line x1="47.884615" x2="47.884615" y1="96.500000" y2="137.000000" stroke="#BABDB6" stroke-width="2"/><a xlink:title="A38T"><circle cx="47.884615" cy="96.500000" r="4.000000" fill="#ff0000" /></a><g transform="translate(47.884615,96.500000) rotate(-30)"><text style="font-size:10px;font-family:OpenSans;fill:#555;" text-anchor="middle" x="0" y="-6.000000">A38T</text></g><line x1="49.615385" x2="49.615385" y1="109.000000" y2="137.000000" stroke="#BABDB6" stroke-width="2"/><a xlink:title="A40T"><circle cx="49.615385" cy="109.000000" r="4.000000" fill="#ff0000" /></a><g transform="translate(49.615385,109.000000) rotate(-30)"><text style="font-size:10px;font-family:OpenSans;fill:#555;" text-anchor="middle" x="0" y="-6.000000">A40T</text></g><line x1="85.961538" x2="85.961538" y1="109.000000" y2="137.000000" stroke="#BABDB6" stroke-width="2"/><a xlink:title="L82L"><circle cx="85.961538" cy="109.000000" r="4.000000" fill="#0000ff" /></a><g transform="translate(85.961538,109.000000) rotate(-30)"><text style="font-size:10px;font-family:OpenSans;fill:#555;" text-anchor="middle" x="0" y="-6.000000">L82L</text></g><line x1="108.461538" x2="108.461538" y1="109.000000" y2="137.000000" stroke="#BABDB6" stroke-width="2"/><a xlink:title="L108L"><circle cx="108.461538" cy="109.000000" r="4.000000" fill="#0000ff" /></a><g transform="translate(108.461538,109.000000) rotate(-30)"><text style="font-size:10px;font-family:OpenSans;fill:#555;" text-anchor="middle" x="0" y="-6.000000">L108L</text></g><line x1="188.942308" x2="188.942308" y1="96.500000" y2="137.000000" stroke="#BABDB6" stroke-width="2"/><a xlink:title="S201S"><circle cx="188.942308" cy="96.500000" r="4.000000" fill="#0000ff" /></a><g transform="translate(188.942308,96.500000) rotate(-30)"><text style="font-size:10px;font-family:OpenSans;fill:#555;" text-anchor="middle" x="0" y="-6.000000">S201S</text></g><line x1="193.269231" x2="193.269231" y1="84.000000" y2="137.000000" stroke="#BABDB6" stroke-width="2"/><a xlink:title="S206S"><circle cx="193.269231" cy="84.000000" r="4.000000" fill="#0000ff" /></a><g transform="translate(193.269231,84.000000) rotate(-30)"><text style="font-size:10px;font-family:OpenSans;fill:#555;" text-anchor="middle" x="0" y="-6.000000">S206S</text></g><line x1="195.000000" x2="195.000000" y1="84.000000" y2="137.000000" stroke="#BABDB6" stroke-width="2"/><a xlink:title="H208H"><circle cx="195.000000" cy="84.000000" r="4.000000" fill="#0000ff" /></a><g transform="translate(195.000000,84.000000) rotate(-30)"><text style="font-size:10px;font-family:OpenSans;fill:#555;" text-anchor="middle" x="0" y="-6.000000">H208H</text></g><line x1="195.000000" x2="195.000000" y1="96.500000" y2="137.000000" stroke="#BABDB6" stroke-width="2"/><a xlink:title="S208S"><circle cx="195.000000" cy="96.500000" r="4.000000" fill="#0000ff" /></a><g transform="translate(195.000000,96.500000) rotate(-30)"><text style="font-size:10px;font-family:OpenSans;fill:#555;" text-anchor="middle" x="0" y="-6.000000">S208S</text></g><line x1="199.326923" x2="199.326923" y1="96.500000" y2="137.000000" stroke="#BABDB6" stroke-width="2"/><a xlink:title="H213H"><circle cx="199.326923" cy="96.500000" r="4.000000" fill="#0000ff" /></a><g transform="translate(199.326923,96.500000) rotate(-30)"><text style="font-size:10px;font-family:OpenSans;fill:#555;" text-anchor="middle" x="0" y="-6.000000">H213H</text></g><line x1="201.057692" x2="201.057692" y1="109.000000" y2="137.000000" stroke="#BABDB6" stroke-width="2"/><a xlink:title="H215H"><circle cx="201.057692" cy="109.000000" r="4.000000" fill="#0000ff" /></a><g transform="translate(201.057692,109.000000) rotate(-30)"><text style="font-size:10px;font-family:OpenSans;fill:#555;" text-anchor="middle" x="0" y="-6.000000">H215H</text></g><line x1="228.750000" x2="228.750000" y1="109.000000" y2="137.000000" stroke="#BABDB6" stroke-width="2"/><a xlink:title="S247S"><circle cx="228.750000" cy="109.000000" r="4.000000" fill="#0000ff" /></a><g transform="translate(228.750000,109.000000) rotate(-30)"><text style="font-size:10px;font-family:OpenSans;fill:#555;" text-anchor="middle" x="0" y="-6.000000">S247S</text></g><line x1="251.250000" x2="251.250000" y1="109.000000" y2="137.000000" stroke="#BABDB6" stroke-width="2"/><a xlink:title="S273S"><circle cx="251.250000" cy="109.000000" r="4.000000" fill="#0000ff" /></a><g transform="translate(251.250000,109.000000) rotate(-30)"><text style="font-size:10px;font-family:OpenSans;fill:#555;" text-anchor="middle" x="0" y="-6.000000">S273S</text></g><line x1="261.634615" x2="261.634615" y1="96.500000" y2="137.000000" stroke="#BABDB6" stroke-width="2"/><a xlink:title="A285A"><circle cx="261.634615" cy="96.500000" r="4.000000" fill="#0000ff" /></a><g transform="translate(261.634615,96.500000) rotate(-30)"><text style="font-size:10px;font-family:OpenSans;fill:#555;" text-anchor="middle" x="0" y="-6.000000">A285A</text></g><line x1="261.634615" x2="261.634615" y1="109.000000" y2="137.000000" stroke="#BABDB6" stroke-width="2"/><a xlink:title="A285T"><circle cx="261.634615" cy="109.000000" r="4.000000" fill="#ff0000" /></a><g transform="translate(261.634615,109.000000) rotate(-30)"><text style="font-size:10px;font-family:OpenSans;fill:#555;" text-anchor="middle" x="0" y="-6.000000">A285T</text></g><line x1="284.134615" x2="284.134615" y1="96.500000" y2="137.000000" stroke="#BABDB6" stroke-width="2"/><a xlink:title="A311A"><circle cx="284.134615" cy="96.500000" r="4.000000" fill="#0000ff" /></a><g transform="translate(284.134615,96.500000) rotate(-30)"><text style="font-size:10px;font-family:OpenSans;fill:#555;" text-anchor="middle" x="0" y="-6.000000">A311A</text></g><line x1="284.134615" x2="284.134615" y1="109.000000" y2="137.000000" stroke="#BABDB6" stroke-width="2"/><a xlink:title="A311T"><circle cx="284.134615" cy="109.000000" r="4.000000" fill="#ff0000" /></a><g transform="translate(284.134615,109.000000) rotate(-30)"><text style="font-size:10px;font-family:OpenSans;fill:#555;" text-anchor="middle" x="0" y="-6.000000">A311T</text></g><line x1="291.057692" x2="291.057692" y1="109.000000" y2="137.000000" stroke="#BABDB6" stroke-width="2"/><a xlink:title="V319M"><circle cx="291.057692" cy="109.000000" r="4.000000" fill="#ff0000" /></a><g transform="translate(291.057692,109.000000) rotate(-30)"><text style="font-size:10px;font-family:OpenSans;fill:#555;" text-anchor="middle" x="0" y="-6.000000">V319M</text></g><line x1="299.711538" x2="299.711538" y1="96.500000" y2="137.000000" stroke="#BABDB6" stroke-width="2"/><a xlink:title="L329L"><circle cx="299.711538" cy="96.500000" r="4.000000" fill="#0000ff" /></a><g transform="translate(299.711538,96.500000) rotate(-30)"><text style="font-size:10px;font-family:OpenSans;fill:#555;" text-anchor="middle" x="0" y="-6.000000">L329L</text></g><line x1="304.038462" x2="304.038462" y1="84.000000" y2="137.000000" stroke="#BABDB6" stroke-width="2"/><a xlink:title="L334L"><circle cx="304.038462" cy="84.000000" r="4.000000" fill="#0000ff" /></a><g transform="translate(304.038462,84.000000) rotate(-30)"><text style="font-size:10px;font-family:OpenSans;fill:#555;" text-anchor="middle" x="0" y="-6.000000">L334L</text></g><line x1="305.769231" x2="305.769231" y1="96.500000" y2="137.000000" stroke="#BABDB6" stroke-width="2"/><a xlink:title="L336L"><circle cx="305.769231" cy="96.500000" r="4.000000" fill="#0000ff" /></a><g transform="translate(305.769231,96.500000) rotate(-30)"><text style="font-size:10px;font-family:OpenSans;fill:#555;" text-anchor="middle" x="0" y="-6.000000">L336L</text></g><line x1="306.634615" x2="306.634615" y1="109.000000" y2="137.000000" stroke="#BABDB6" stroke-width="2"/><a xlink:title="I337V"><circle cx="306.634615" cy="109.000000" r="4.000000" fill="#ff0000" /></a><g transform="translate(306.634615,109.000000) rotate(-30)"><text style="font-size:10px;font-family:OpenSans;fill:#555;" text-anchor="middle" x="0" y="-6.000000">I337V</text></g><line x1="313.557692" x2="313.557692" y1="109.000000" y2="137.000000" stroke="#BABDB6" stroke-width="2"/><a xlink:title="V345M"><circle cx="313.557692" cy="109.000000" r="4.000000" fill="#ff0000" /></a><g transform="translate(313.557692,109.000000) rotate(-30)"><text style="font-size:10px;font-family:OpenSans;fill:#555;" text-anchor="middle" x="0" y="-6.000000">V345M</text></g><line x1="329.134615" x2="329.134615" y1="109.000000" y2="137.000000" stroke="#BABDB6" stroke-width="2"/><a xlink:title="I363V"><circle cx="329.134615" cy="109.000000" r="4.000000" fill="#ff0000" /></a><g transform="translate(329.134615,109.000000) rotate(-30)"><text style="font-size:10px;font-family:OpenSans;fill:#555;" text-anchor="middle" x="0" y="-6.000000">I363V</text></g><line x1="367.211538" x2="367.211538" y1="109.000000" y2="137.000000" stroke="#BABDB6" stroke-width="2"/><a xlink:title="S407S"><circle cx="367.211538" cy="109.000000" r="4.000000" fill="#0000ff" /></a><g transform="translate(367.211538,109.000000) rotate(-30)"><text style="font-size:10px;font-family:OpenSans;fill:#555;" text-anchor="middle" x="0" y="-6.000000">S407S</text></g><line x1="389.711538" x2="389.711538" y1="109.000000" y2="137.000000" stroke="#BABDB6" stroke-width="2"/><a xlink:title="S433S"><circle cx="389.711538" cy="109.000000" r="4.000000" fill="#0000ff" /></a><g transform="translate(389.711538,109.000000) rotate(-30)"><text style="font-size:10px;font-family:OpenSans;fill:#555;" text-anchor="middle" x="0" y="-6.000000">S433S</text></g><line x1="410.480769" x2="410.480769" y1="96.500000" y2="137.000000" stroke="#BABDB6" stroke-width="2"/><a xlink:title="S457S"><circle cx="410.480769" cy="96.500000" r="4.000000" fill="#0000ff" /></a><g transform="translate(410.480769,96.500000) rotate(-30)"><text style="font-size:10px;font-family:OpenSans;fill:#555;" text-anchor="middle" x="0" y="-6.000000">S457S</text></g><line x1="412.211538" x2="412.211538" y1="109.000000" y2="137.000000" stroke="#BABDB6" stroke-width="2"/><a xlink:title="S459S"><circle cx="412.211538" cy="109.000000" r="4.000000" fill="#0000ff" /></a><g transform="translate(412.211538,109.000000) rotate(-30)"><text style="font-size:10px;font-family:OpenSans;fill:#555;" text-anchor="middle" x="0" y="-6.000000">S459S</text></g><line x1="420.000000" x2="420.000000" y1="109.000000" y2="137.000000" stroke="#BABDB6" stroke-width="2"/><a xlink:title="P468P"><circle cx="420.000000" cy="109.000000" r="4.000000" fill="#0000ff" /></a><g transform="translate(420.000000,109.000000) rotate(-30)"><text style="font-size:10px;font-family:OpenSans;fill:#555;" text-anchor="middle" x="0" y="-6.000000">P468P</text></g><line x1="442.500000" x2="442.500000" y1="46.500000" y2="137.000000" stroke="#BABDB6" stroke-width="2"/><a xlink:title="S494S"><circle cx="442.500000" cy="46.500000" r="4.000000" fill="#0000ff" /></a><g transform="translate(442.500000,46.500000) rotate(-30)"><text style="font-size:10px;font-family:OpenSans;fill:#555;" text-anchor="middle" x="0" y="-6.000000">S494S</text></g><line x1="442.500000" x2="442.500000" y1="34.000000" y2="137.000000" stroke="#BABDB6" stroke-width="2"/><a xlink:title="P494P"><circle cx="442.500000" cy="34.000000" r="4.000000" fill="#0000ff" /></a><g transform="translate(442.500000,34.000000) rotate(-30)"><text style="font-size:10px;font-family:OpenSans;fill:#555;" text-anchor="middle" x="0" y="-6.000000">P494P</text></g><line x1="443.365385" x2="443.365385" y1="59.000000" y2="137.000000" stroke="#BABDB6" stroke-width="2"/><a xlink:title="A495T"><circle cx="443.365385" cy="59.000000" r="4.000000" fill="#ff0000" /></a><g transform="translate(443.365385,59.000000) rotate(-30)"><text style="font-size:10px;font-family:OpenSans;fill:#555;" text-anchor="middle" x="0" y="-6.000000">A495T</text></g><line x1="443.365385" x2="443.365385" y1="46.500000" y2="137.000000" stroke="#BABDB6" stroke-width="2"/><a xlink:title="A495A"><circle cx="443.365385" cy="46.500000" r="4.000000" fill="#0000ff" /></a><g transform="translate(443.365385,46.500000) rotate(-30)"><text style="font-size:10px;font-family:OpenSans;fill:#555;" text-anchor="middle" x="0" y="-6.000000">A495A</text></g><line x1="445.096154" x2="445.096154" y1="59.000000" y2="137.000000" stroke="#BABDB6" stroke-width="2"/><a xlink:title="A497A"><circle cx="445.096154" cy="59.000000" r="4.000000" fill="#0000ff" /></a><g transform="translate(445.096154,59.000000) rotate(-30)"><text style="font-size:10px;font-family:OpenSans;fill:#555;" text-anchor="middle" x="0" y="-6.000000">A497A</text></g><line x1="445.096154" x2="445.096154" y1="71.500000" y2="137.000000" stroke="#BABDB6" stroke-width="2"/><a xlink:title="A497T"><circle cx="445.096154" cy="71.500000" r="4.000000" fill="#ff0000" /></a><g transform="translate(445.096154,71.500000) rotate(-30)"><text style="font-size:10px;font-family:OpenSans;fill:#555;" text-anchor="middle" x="0" y="-6.000000">A497T</text></g><line x1="446.826923" x2="446.826923" y1="84.000000" y2="137.000000" stroke="#BABDB6" stroke-width="2"/><a xlink:title="S499S"><circle cx="446.826923" cy="84.000000" r="4.000000" fill="#0000ff" /></a><g transform="translate(446.826923,84.000000) rotate(-30)"><text style="font-size:10px;font-family:OpenSans;fill:#555;" text-anchor="middle" x="0" y="-6.000000">S499S</text></g><line x1="448.557692" x2="448.557692" y1="96.500000" y2="137.000000" stroke="#BABDB6" stroke-width="2"/><a xlink:title="S501S"><circle cx="448.557692" cy="96.500000" r="4.000000" fill="#0000ff" /></a><g transform="translate(448.557692,96.500000) rotate(-30)"><text style="font-size:10px;font-family:OpenSans;fill:#555;" text-anchor="middle" x="0" y="-6.000000">S501S</text></g><line x1="450.288462" x2="450.288462" y1="109.000000" y2="137.000000" stroke="#BABDB6" stroke-width="2"/><a xlink:title="L503L"><circle cx="450.288462" cy="109.000000" r="4.000000" fill="#0000ff" /></a><g transform="translate(450.288462,109.000000) rotate(-30)"><text style="font-size:10px;font-family:OpenSans;fill:#555;" text-anchor="middle" x="0" y="-6.000000">L503L</text></g><line x1="472.788462" x2="472.788462" y1="59.000000" y2="137.000000" stroke="#BABDB6" stroke-width="2"/><a xlink:title="L529L"><circle cx="472.788462" cy="59.000000" r="4.000000" fill="#0000ff" /></a><g transform="translate(472.788462,59.000000) rotate(-30)"><text style="font-size:10px;font-family:OpenSans;fill:#555;" text-anchor="middle" x="0" y="-6.000000">L529L</text></g><line x1="472.788462" x2="472.788462" y1="71.500000" y2="137.000000" stroke="#BABDB6" stroke-width="2"/><a xlink:title="V529M"><circle cx="472.788462" cy="71.500000" r="4.000000" fill="#ff0000" /></a><g transform="translate(472.788462,71.500000) rotate(-30)"><text style="font-size:10px;font-family:OpenSans;fill:#555;" text-anchor="middle" x="0" y="-6.000000">V529M</text></g><line x1="474.519231" x2="474.519231" y1="59.000000" y2="137.000000" stroke="#BABDB6" stroke-width="2"/><a xlink:title="V531M"><circle cx="474.519231" cy="59.000000" r="4.000000" fill="#ff0000" /></a><g transform="translate(474.519231,59.000000) rotate(-30)"><text style="font-size:10px;font-family:OpenSans;fill:#555;" text-anchor="middle" x="0" y="-6.000000">V531M</text></g><line x1="475.384615" x2="475.384615" y1="84.000000" y2="137.000000" stroke="#BABDB6" stroke-width="2"/><a xlink:title="A532T"><circle cx="475.384615" cy="84.000000" r="4.000000" fill="#ff0000" /></a><g transform="translate(475.384615,84.000000) rotate(-30)"><text style="font-size:10px;font-family:OpenSans;fill:#555;" text-anchor="middle" x="0" y="-6.000000">A532T</text></g><line x1="475.384615" x2="475.384615" y1="71.500000" y2="137.000000" stroke="#BABDB6" stroke-width="2"/><a xlink:title="A532A"><circle cx="475.384615" cy="71.500000" r="4.000000" fill="#0000ff" /></a><g transform="translate(475.384615,71.500000) rotate(-30)"><text style="font-size:10px;font-family:OpenSans;fill:#555;" text-anchor="middle" x="0" y="-6.000000">A532A</text></g><line x1="479.711538" x2="479.711538" y1="84.000000" y2="137.000000" stroke="#BABDB6" stroke-width="2"/><a xlink:title="A537T"><circle cx="479.711538" cy="84.000000" r="4.000000" fill="#ff0000" /></a><g transform="translate(479.711538,84.000000) rotate(-30)"><text style="font-size:10px;font-family:OpenSans;fill:#555;" text-anchor="middle" x="0" y="-6.000000">A537T</text></g><line x1="479.711538" x2="479.711538" y1="71.500000" y2="137.000000" stroke="#BABDB6" stroke-width="2"/><a xlink:title="A537A"><circle cx="479.711538" cy="71.500000" r="4.000000" fill="#0000ff" /></a><g transform="translate(479.711538,71.500000) rotate(-30)"><text style="font-size:10px;font-family:OpenSans;fill:#555;" text-anchor="middle" x="0" y="-6.000000">A537A</text></g><line x1="481.442308" x2="481.442308" y1="96.500000" y2="137.000000" stroke="#BABDB6" stroke-width="2"/><a xlink:title="A539A"><circle cx="481.442308" cy="96.500000" r="4.000000" fill="#0000ff" /></a><g transform="translate(481.442308,96.500000) rotate(-30)"><text style="font-size:10px;font-family:OpenSans;fill:#555;" text-anchor="middle" x="0" y="-6.000000">A539A</text></g><line x1="481.442308" x2="481.442308" y1="109.000000" y2="137.000000" stroke="#BABDB6" stroke-width="2"/><a xlink:title="A539T"><circle cx="481.442308" cy="109.000000" r="4.000000" fill="#ff0000" /></a><g transform="translate(481.442308,109.000000) rotate(-30)"><text style="font-size:10px;font-family:OpenSans;fill:#555;" text-anchor="middle" x="0" y="-6.000000">A539T</text></g><line x1="488.365385" x2="488.365385" y1="96.500000" y2="137.000000" stroke="#BABDB6" stroke-width="2"/><a xlink:title="I547V"><circle cx="488.365385" cy="96.500000" r="4.000000" fill="#ff0000" /></a><g transform="translate(488.365385,96.500000) rotate(-30)"><text style="font-size:10px;font-family:OpenSans;fill:#555;" text-anchor="middle" x="0" y="-6.000000">I547V</text></g><line x1="490.096154" x2="490.096154" y1="109.000000" y2="137.000000" stroke="#BABDB6" stroke-width="2"/><a xlink:title="I549V"><circle cx="490.096154" cy="109.000000" r="4.000000" fill="#ff0000" /></a><g transform="translate(490.096154,109.000000) rotate(-30)"><text style="font-size:10px;font-family:OpenSans;fill:#555;" text-anchor="middle" x="0" y="-6.000000">I549V</text></g><line x1="504.807692" x2="504.807692" y1="96.500000" y2="137.000000" stroke="#BABDB6" stroke-width="2"/><a xlink:title="V566M"><circle cx="504.807692" cy="96.500000" r="4.000000" fill="#ff0000" /></a><g transform="translate(504.807692,96.500000) rotate(-30)"><text style="font-size:10px;font-family:OpenSans;fill:#555;" text-anchor="middle" x="0" y="-6.000000">V566M</text></g><line x1="509.134615" x2="509.134615" y1="96.500000" y2="137.000000" stroke="#BABDB6" stroke-width="2"/><a xlink:title="V571M"><circle cx="509.134615" cy="96.500000" r="4.000000" fill="#ff0000" /></a><g transform="translate(509.134615,96.500000) rotate(-30)"><text style="font-size:10px;font-family:OpenSans;fill:#555;" text-anchor="middle" x="0" y="-6.000000">V571M</text></g><line x1="510.865385" x2="510.865385" y1="109.000000" y2="137.000000" stroke="#BABDB6" stroke-width="2"/><a xlink:title="V573M"><circle cx="510.865385" cy="109.000000" r="4.000000" fill="#ff0000" /></a><g transform="translate(510.865385,109.000000) rotate(-30)"><text style="font-size:10px;font-family:OpenSans;fill:#555;" text-anchor="middle" x="0" y="-6.000000">V573M</text></g><line x1="520.384615" x2="520.384615" y1="84.000000" y2="137.000000" stroke="#BABDB6" stroke-width="2"/><a xlink:title="I584V"><circle cx="520.384615" cy="84.000000" r="4.000000" fill="#ff0000" /></a><g transform="translate(520.384615,84.000000) rotate(-30)"><text style="font-size:10px;font-family:OpenSans;fill:#555;" text-anchor="middle" x="0" y="-6.000000">I584V</text></g><line x1="522.115385" x2="522.115385" y1="84.000000" y2="137.000000" stroke="#BABDB6" stroke-width="2"/><a xlink:title="T586M"><circle cx="522.115385" cy="84.000000" r="4.000000" fill="#ff0000" /></a><g transform="translate(522.115385,84.000000) rotate(-30)"><text style="font-size:10px;font-family:OpenSans;fill:#555;" text-anchor="middle" x="0" y="-6.000000">T586M</text></g><line x1="524.711538" x2="524.711538" y1="96.500000" y2="137.000000" stroke="#BABDB6" stroke-width="2"/><a xlink:title="I589V"><circle cx="524.711538" cy="96.500000" r="4.000000" fill="#ff0000" /></a><g transform="translate(524.711538,96.500000) rotate(-30)"><text style="font-size:10px;font-family:OpenSans;fill:#555;" text-anchor="middle" x="0" y="-6.000000">I589V</text></g><line x1="526.442308" x2="526.442308" y1="109.000000" y2="137.000000" stroke="#BABDB6" stroke-width="2"/><a xlink:title="I591V"><circle cx="526.442308" cy="109.000000" r="4.000000" fill="#ff0000" /></a><g transform="translate(526.442308,109.000000) rotate(-30)"><text style="font-size:10px;font-family:OpenSans;fill:#555;" text-anchor="middle" x="0" y="-6.000000">I591V</text></g><line x1="544.615385" x2="544.615385" y1="96.500000" y2="137.000000" stroke="#BABDB6" stroke-width="2"/><a xlink:title="T612M"><circle cx="544.615385" cy="96.500000" r="4.000000" fill="#ff0000" /></a><g transform="translate(544.615385,96.500000) rotate(-30)"><text style="font-size:10px;font-family:OpenSans;fill:#555;" text-anchor="middle" x="0" y="-6.000000">T612M</text></g><line x1="548.942308" x2="548.942308" y1="96.500000" y2="137.000000" stroke="#BABDB6" stroke-width="2"/><a xlink:title="S617S"><circle cx="548.942308" cy="96.500000" r="4.000000" fill="#0000ff" /></a><g transform="translate(548.942308,96.500000) rotate(-30)"><text style="font-size:10px;font-family:OpenSans;fill:#555;" text-anchor="middle" x="0" y="-6.000000">S617S</text></g><line x1="550.673077" x2="550.673077" y1="109.000000" y2="137.000000" stroke="#BABDB6" stroke-width="2"/><a xlink:title="S619S"><circle cx="550.673077" cy="109.000000" r="4.000000" fill="#0000ff" /></a><g transform="translate(550.673077,109.000000) rotate(-30)"><text style="font-size:10px;font-family:OpenSans;fill:#555;" text-anchor="middle" x="0" y="-6.000000">S619S</text></g><line x1="580.961538" x2="580.961538" y1="96.500000" y2="137.000000" stroke="#BABDB6" stroke-width="2"/><a xlink:title="S654S"><circle cx="580.961538" cy="96.500000" r="4.000000" fill="#0000ff" /></a><g transform="translate(580.961538,96.500000) rotate(-30)"><text style="font-size:10px;font-family:OpenSans;fill:#555;" text-anchor="middle" x="0" y="-6.000000">S654S</text></g><line x1="585.288462" x2="585.288462" y1="96.500000" y2="137.000000" stroke="#BABDB6" stroke-width="2"/><a xlink:title="S659S"><circle cx="585.288462" cy="96.500000" r="4.000000" fill="#0000ff" /></a><g transform="translate(585.288462,96.500000) rotate(-30)"><text style="font-size:10px;font-family:OpenSans;fill:#555;" text-anchor="middle" x="0" y="-6.000000">S659S</text></g><line x1="587.019231" x2="587.019231" y1="109.000000" y2="137.000000" stroke="#BABDB6" stroke-width="2"/><a xlink:title="S661S"><circle cx="587.019231" cy="109.000000" r="4.000000" fill="#0000ff" /></a><g transform="translate(587.019231,109.000000) rotate(-30)"><text style="font-size:10px;font-family:OpenSans;fill:#555;" text-anchor="middle" x="0" y="-6.000000">S661S</text></g><line x1="601.730769" x2="601.730769" y1="96.500000" y2="137.000000" stroke="#BABDB6" stroke-width="2"/><a xlink:title="P678P"><circle cx="601.730769" cy="96.500000" r="4.000000" fill="#0000ff" /></a><g transform="translate(601.730769,96.500000) rotate(-30)"><text style="font-size:10px;font-family:OpenSans;fill:#555;" text-anchor="middle" x="0" y="-6.000000">P678P</text></g><line x1="603.461538" x2="603.461538" y1="109.000000" y2="137.000000" stroke="#BABDB6" stroke-width="2"/><a xlink:title="P680P"><circle cx="603.461538" cy="109.000000" r="4.000000" fill="#0000ff" /></a><g transform="translate(603.461538,109.000000) rotate(-30)"><text style="font-size:10px;font-family:OpenSans;fill:#555;" text-anchor="middle" x="0" y="-6.000000">P680P</text></g><line x1="632.019231" x2="632.019231" y1="84.000000" y2="137.000000" stroke="#BABDB6" stroke-width="2"/><a xlink:title="L713L"><circle cx="632.019231" cy="84.000000" r="4.000000" fill="#0000ff" /></a><g transform="translate(632.019231,84.000000) rotate(-30)"><text style="font-size:10px;font-family:OpenSans;fill:#555;" text-anchor="middle" x="0" y="-6.000000">L713L</text></g><line x1="633.750000" x2="633.750000" y1="96.500000" y2="137.000000" stroke="#BABDB6" stroke-width="2"/><a xlink:title="P715P"><circle cx="633.750000" cy="96.500000" r="4.000000" fill="#0000ff" /></a><g transform="translate(633.750000,96.500000) rotate(-30)"><text style="font-size:10px;font-family:OpenSans;fill:#555;" text-anchor="middle" x="0" y="-6.000000">P715P</text></g><line x1="633.750000" x2="633.750000" y1="84.000000" y2="137.000000" stroke="#BABDB6" stroke-width="2"/><a xlink:title="L715L"><circle cx="633.750000" cy="84.000000" r="4.000000" fill="#0000ff" /></a><g transform="translate(633.750000,84.000000) rotate(-30)"><text style="font-size:10px;font-family:OpenSans;fill:#555;" text-anchor="middle" x="0" y="-6.000000">L715L</text></g><line x1="638.076923" x2="638.076923" y1="96.500000" y2="137.000000" stroke="#BABDB6" stroke-width="2"/><a xlink:title="P720P"><circle cx="638.076923" cy="96.500000" r="4.000000" fill="#0000ff" /></a><g transform="translate(638.076923,96.500000) rotate(-30)"><text style="font-size:10px;font-family:OpenSans;fill:#555;" text-anchor="middle" x="0" y="-6.000000">P720P</text></g><line x1="639.807692" x2="639.807692" y1="109.000000" y2="137.000000" stroke="#BABDB6" stroke-width="2"/><a xlink:title="P722P"><circle cx="639.807692" cy="109.000000" r="4.000000" fill="#0000ff" /></a><g transform="translate(639.807692,109.000000) rotate(-30)"><text style="font-size:10px;font-family:OpenSans;fill:#555;" text-anchor="middle" x="0" y="-6.000000">P722P</text></g><line x1="664.038462" x2="664.038462" y1="96.500000" y2="137.000000" stroke="#BABDB6" stroke-width="2"/><a xlink:title="L750L"><circle cx="664.038462" cy="96.500000" r="4.000000" fill="#0000ff" /></a><g transform="translate(664.038462,96.500000) rotate(-30)"><text style="font-size:10px;font-family:OpenSans;fill:#555;" text-anchor="middle" x="0" y="-6.000000">L750L</text></g><line x1="668.365385" x2="668.365385" y1="96.500000" y2="137.000000" stroke="#BABDB6" stroke-width="2"/><a xlink:title="L755L"><circle cx="668.365385" cy="96.500000" r="4.000000" fill="#0000ff" /></a><g transform="translate(668.365385,96.500000) rotate(-30)"><text style="font-size:10px;font-family:OpenSans;fill:#555;" text-anchor="middle" x="0" y="-6.000000">L755L</text></g><line x1="670.096154" x2="670.096154" y1="109.000000" y2="137.000000" stroke="#BABDB6" stroke-width="2"/><a xlink:title="L757L"><circle cx="670.096154" cy="109.000000" r="4.000000" fill="#0000ff" /></a><g transform="translate(670.096154,109.000000) rotate(-30)"><text style="font-size:10px;font-family:OpenSans;fill:#555;" text-anchor="middle" x="0" y="-6.000000">L757L</text></g><line x1="703.846154" x2="703.846154" y1="96.500000" y2="137.000000" stroke="#BABDB6" stroke-width="2"/><a xlink:title="T796M"><circle cx="703.846154" cy="96.500000" r="4.000000" fill="#ff0000" /></a><g transform="translate(703.846154,96.500000) rotate(-30)"><text style="font-size:10px;font-family:OpenSans;fill:#555;" text-anchor="middle" x="0" y="-6.000000">T796M</text></g><line x1="705.576923" x2="705.576923" y1="109.000000" y2="137.000000" stroke="#BABDB6" stroke-width="2"/><a xlink:title="T798M"><circle cx="705.576923" cy="109.000000" r="4.000000" fill="#ff0000" /></a><g transform="translate(705.576923,109.000000) rotate(-30)"><text style="font-size:10px;font-family:OpenSans;fill:#555;" text-anchor="middle" x="0" y="-6.000000">T798M</text></g><line x1="735.865385" x2="735.865385" y1="96.500000" y2="137.000000" stroke="#BABDB6" stroke-width="2"/><a xlink:title="T833M"><circle cx="735.865385" cy="96.500000" r="4.000000" fill="#ff0000" /></a><g transform="translate(735.865385,96.500000) rotate(-30)"><text style="font-size:10px;font-family:OpenSans;fill:#555;" text-anchor="middle" x="0" y="-6.000000">T833M</text></g><line x1="740.192308" x2="740.192308" y1="96.500000" y2="137.000000" stroke="#BABDB6" stroke-width="2"/><a xlink:title="T838M"><circle cx="740.192308" cy="96.500000" r="4.000000" fill="#ff0000" /></a><g transform="translate(740.192308,96.500000) rotate(-30)"><text style="font-size:10px;font-family:OpenSans;fill:#555;" text-anchor="middle" x="0" y="-6.000000">T838M</text></g><line x1="741.923077" x2="741.923077" y1="109.000000" y2="137.000000" stroke="#BABDB6" stroke-width="2"/><a xlink:title="T840M"><circle cx="741.923077" cy="109.000000" r="4.000000" fill="#ff0000" /></a><g transform="translate(741.923077,109.000000) rotate(-30)"><text style="font-size:10px;font-family:OpenSans;fill:#555;" text-anchor="middle" x="0" y="-6.000000">T840M</text></g><a xlink:title=",  (1043aa)"><rect fill="#BABDB6" x="15.000000" y="137.000000" width="902.596154" height="14.000000"/></a><g transform="translate(59.134615,132.000000)"><a xlink:href="https://www.ebi.ac.uk/interpro/entry/pfam/PF00595" xlink:title="PDZ domain"><rect fill="#2DCF00" x="0" y="0" width="65.769231" height="24.000000" filter="url(#ds)"/><text style="font-size:12px;font-family:OpenSans;fill:#ffffff;" text-anchor="middle" x="32.884615" y="16.000000">PDZ</text></a></g>
<g transform="translate(143.942308,132.000000)"><a xlink:href="https://www.ebi.ac.uk/interpro/entry/pfam/PF00595" xlink:title="PDZ domain"><rect fill="#FF5353" x="0" y="0" width="64.903846" height="24.000000" filter="url(#ds)"/><text style="font-size:12px;font-family:OpenSans;fill:#ffffff;" text-anchor="middle" x="32.451923" y="16.000000">PDZ</text></a></g>
<g transform="translate(233.076923,132.000000)"><a xlink:href="https://www.ebi.ac.uk/interpro/entry/pfam/PF00595" xlink:title="PDZ domain"><rect fill="#5B5BFF" x="0" y="0" width="66.634615" height="24.000000" filter="url(#ds)"/><text style="font-size:12px;font-family:OpenSans;fill:#ffffff;" text-anchor="middle" x="33.317308" y="16.000000">PDZ</text></a></g>
<g transform="translate(439.038462,132.000000)"><a xlink:href="https://www.ebi.ac.uk/interpro/entry/pfam/PF17820" xlink:title="PDZ domain"><rect fill="#EBD61D" x="0" y="0" width="45.000000" height="24.000000" filter="url(#ds)"/><text style="font-size:12px;font-family:OpenSans;fill:#ffffff;" text-anchor="middle" x="22.500000" y="16.000000">PDZ_6</text></a></g>
<g transform="translate(497.884615,132.000000)"><a xlink:href="https://www.ebi.ac.uk/interpro/entry/pfam/PF00595" xlink:title="PDZ domain"><rect fill="#BA21E0" x="0" y="0" width="69.230769" height="24.000000" filter="url(#ds)"/><text style="font-size:12px;font-family:OpenSans;fill:#ffffff;" text-anchor="middle" x="34.615385" y="16.000000">PDZ</text></a></g>
<g transform="translate(583.557692,132.000000)"><a xlink:href="https://www.ebi.ac.uk/interpro/entry/pfam/PF00595" xlink:title="PDZ domain"><rect fill="#FF9C42" x="0" y="0" width="67.500000" height="24.000000" filter="url(#ds)"/><text style="font-size:12px;font-family:OpenSans;fill:#ffffff;" text-anchor="middle" x="33.750000" y="16.000000">PDZ</text></a></g>
<g transform="translate(830.192308,132.000000)"><a xlink:href="https://www.ebi.ac.uk/interpro/entry/pfam/PF00595" xlink:title="PDZ domain"><rect fill="#FF7DFF" x="0" y="0" width="66.634615" height="24.000000" filter="url(#ds)"/><text style="font-size:12px;font-family:OpenSans;fill:#ffffff;" text-anchor="middle" x="33.317308" y="16.000000">PDZ</text></a></g>
<g class="axis">
<line x1="15.000000" x2="917.596154" y1="166.000000" y2="166.000000" stroke="#AAAAAA" /><line x1="15.000000" x2="15.000000" y1="166.000000" y2="171.000000" stroke="#AAAAAA" /><line x1="28.846154" x2="28.846154" y1="166.000000" y2="171.000000" stroke="#AAAAAA" /><text style="font-size:10px;font-family:OpenSans;fill:#000000;" text-anchor="middle" x="28.846154" y="181.000000">16</text><line x1="49.615385" x2="49.615385" y1="166.000000" y2="171.000000" stroke="#AAAAAA" /><text style="font-size:10px;font-family:OpenSans;fill:#000000;" text-anchor="middle" x="49.615385" y="181.000000">40</text><line x1="85.961538" x2="85.961538" y1="166.000000" y2="171.000000" stroke="#AAAAAA" /><text style="font-size:10px;font-family:OpenSans;fill:#000000;" text-anchor="middle" x="85.961538" y="181.000000">82</text><line x1="108.461538" x2="108.461538" y1="166.000000" y2="171.000000" stroke="#AAAAAA" /><text style="font-size:10px;font-family:OpenSans;fill:#000000;" text-anchor="middle" x="108.461538" y="181.000000">108</text><line x1="143.942308" x2="143.942308" y1="166.000000" y2="171.000000" stroke="#AAAAAA" /><text style="font-size:10px;font-family:OpenSans;fill:#000000;" text-anchor="middle" x="143.942308" y="181.000000">149</text><line x1="188.942308" x2="188.942308" y1="166.000000" y2="171.000000" stroke="#AAAAAA" /><text style="font-size:10px;font-family:OpenSans;fill:#000000;" text-anchor="middle" x="188.942308" y="181.000000">201</text><line x1="228.750000" x2="228.750000" y1="166.000000" y2="171.000000" stroke="#AAAAAA" /><text style="font-size:10px;font-family:OpenSans;fill:#000000;" text-anchor="middle" x="228.750000" y="181.000000">247</text><line x1="251.250000" x2="251.250000" y1="166.000000" y2="171.000000" stroke="#AAAAAA" /><text style="font-size:10px;font-family:OpenSans;fill:#000000;" text-anchor="middle" x="251.250000" y="181.000000">273</text><line x1="284.134615" x2="284.134615" y1="166.000000" y2="171.000000" stroke="#AAAAAA" /><text style="font-size:10px;font-family:OpenSans;fill:#000000;" text-anchor="middle" x="284.134615" y="181.000000">311</text><line x1="304.038462" x2="304.038462" y1="166.000000" y2="171.000000" stroke="#AAAAAA" /><text style="font-size:10px;font-family:OpenSans;fill:#000000;" text-anchor="middle" x="304.038462" y="181.000000">334</text><line x1="329.134615" x2="329.134615" y1="166.000000" y2="171.000000" stroke="#AAAAAA" /><text style="font-size:10px;font-family:OpenSans;fill:#000000;" text-anchor="middle" x="329.134615" y="181.000000">363</text><line x1="367.211538" x2="367.211538" y1="166.000000" y2="171.000000" stroke="#AAAAAA" /><text style="font-size:10px;font-family:OpenSans;fill:#000000;" text-anchor="middle" x="367.211538" y="181.000000">407</text><line x1="389.711538" x2="389.711538" y1="166.000000" y2="171.000000" stroke="#AAAAAA" /><text style="font-size:10px;font-family:OpenSans;fill:#000000;" text-anchor="middle" x="389.711538" y="181.000000">433</text><line x1="410.480769" x2="410.480769" y1="166.000000" y2="171.000000" stroke="#AAAAAA" /><text style="font-size:10px;font-family:OpenSans;fill:#000000;" text-anchor="middle" x="410.480769" y="181.000000">457</text><line x1="442.500000" x2="442.500000" y1="166.000000" y2="171.000000" stroke="#AAAAAA" /><text style="font-size:10px;font-family:OpenSans;fill:#000000;" text-anchor="middle" x="442.500000" y="181.000000">494</text><line x1="472.788462" x2="472.788462" y1="166.000000" y2="171.000000" stroke="#AAAAAA" /><text style="font-size:10px;font-family:OpenSans;fill:#000000;" text-anchor="middle" x="472.788462" y="181.000000">529</text><line x1="504.807692" x2="504.807692" y1="166.000000" y2="171.000000" stroke="#AAAAAA" /><text style="font-size:10px;font-family:OpenSans;fill:#000000;" text-anchor="middle" x="504.807692" y="181.000000">566</text><line x1="524.711538" x2="524.711538" y1="166.000000" y2="171.000000" stroke="#AAAAAA" /><text style="font-size:10px;font-family:OpenSans;fill:#000000;" text-anchor="middle" x="524.711538" y="181.000000">589</text><line x1="544.615385" x2="544.615385" y1="166.000000" y2="171.000000" stroke="#AAAAAA" /><text style="font-size:10px;font-family:OpenSans;fill:#000000;" text-anchor="middle" x="544.615385" y="181.000000">612</text><line x1="580.961538" x2="580.961538" y1="166.000000" y2="171.000000" stroke="#AAAAAA" /><text style="font-size:10px;font-family:OpenSans;fill:#000000;" text-anchor="middle" x="580.961538" y="181.000000">654</text><line x1="601.730769" x2="601.730769" y1="166.000000" y2="171.000000" stroke="#AAAAAA" /><text style="font-size:10px;font-family:OpenSans;fill:#000000;" text-anchor="middle" x="601.730769" y="181.000000">678</text><line x1="632.019231" x2="632.019231" y1="166.000000" y2="171.000000" stroke="#AAAAAA" /><text style="font-size:10px;font-family:OpenSans;fill:#000000;" text-anchor="middle" x="632.019231" y="181.000000">713</text><line x1="664.038462" x2="664.038462" y1="166.000000" y2="171.000000" stroke="#AAAAAA" /><text style="font-size:10px;font-family:OpenSans;fill:#000000;" text-anchor="middle" x="664.038462" y="181.000000">750</text><line x1="703.846154" x2="703.846154" y1="166.000000" y2="171.000000" stroke="#AAAAAA" /><text style="font-size:10px;font-family:OpenSans;fill:#000000;" text-anchor="middle" x="703.846154" y="181.000000">796</text><line x1="735.865385" x2="735.865385" y1="166.000000" y2="171.000000" stroke="#AAAAAA" /><text style="font-size:10px;font-family:OpenSans;fill:#000000;" text-anchor="middle" x="735.865385" y="181.000000">833</text><line x1="830.192308" x2="830.192308" y1="166.000000" y2="171.000000" stroke="#AAAAAA" /><text style="font-size:10px;font-family:OpenSans;fill:#000000;" text-anchor="middle" x="830.192308" y="181.000000">942</text><line x1="896.826923" x2="896.826923" y1="166.000000" y2="171.000000" stroke="#AAAAAA" /><text style="font-size:10px;font-family:OpenSans;fill:#000000;" text-anchor="middle" x="896.826923" y="181.000000">1019</text><line x1="917.596154" x2="917.596154" y1="166.000000" y2="171.000000" stroke="#AAAAAA" /><text style="font-size:10px;font-family:OpenSans;fill:#000000;" text-anchor="middle" x="917.596154" y="181.000000">1043</text></g>
<rect fill="#FF7DFF" x="4" y="195.000000" width="12" height="12" filter="url(#ds)"/><text style="font-size:12px;font-family:OpenSans;fill:#000000;" text-anchor="start" x="20" y="207.000000">PDZ domain</text></svg>
