<?xml version='1.0'?>
<svg xmlns="http://www.w3.org/2000/svg" xmlns:xlink="http://www.w3.org/1999/xlink" width="576.000000" height="196.200000">
<defs>
  <filter id="ds" x="0" y="0">
    <feOffset in="SourceAlpha" dx="2" dy="2" />
    <feComponentTransfer><feFuncA type="linear" slope="0.2"/></feComponentTransfer>
    <feGaussianBlur result="blurOut" stdDeviation="1" />
    <feBlend in="SourceGraphic" in2="blurOut" mode="normal" />
  </filter>
  <pattern id="disordered-hatch" patternUnits="userSpaceOnUse" width="4" height="4">
    <path d="M-1,1 l2,-2 M0,4 l4,-4 M3,5 l2,-2" stroke="#000000" opacity="0.3" />
  </pattern>
</defs>
<line x1="47.219178" x2="47.219178" y1="84.000000" y2="112.000000" stroke="#BABDB6" stroke-width="2"/><a xlink:title="H56R"><circle cx="47.219178" cy="84.000000" r="4.000000" fill="#ff0000" /></a><g transform="translate(47.219178,84.000000) rotate(-30)"><text style="font-size:10px;font-family:OpenSans;fill:#555;" text-anchor="middle" x="0" y="-6.000000">H56R</text></g><line x1="62.178082" x2="62.178082" y1="84.000000" y2="112.000000" stroke="#BABDB6" stroke-width="2"/><a xlink:title="H82R"><circle cx="62.178082" cy="84.000000" r="4.000000" fill="#ff0000" /></a><g transform="translate(62.178082,84.000000) rotate(-30)"><text style="font-size:10px;font-family:OpenSans;fill:#555;" text-anchor="middle" x="0" y="-6.000000">H82R</text></g><line x1="119.136986" x2="119.136986" y1="84.000000" y2="112.000000" stroke="#BABDB6" stroke-width="2"/><a xlink:title="H181R"><circle cx="119.136986" cy="84.000000" r="4.000000" fill="#ff0000" /></a><g transform="translate(119.136986,84.000000) rotate(-30)"><text style="font-size:10px;font-family:OpenSans;fill:#555;" text-anchor="middle" x="0" y="-6.000000">H181R</text></g><line x1="145.027397" x2="145.027397" y1="84.000000" y2="112.000000" stroke="#BABDB6" stroke-width="2"/><a xlink:title="H226R"><circle cx="145.027397" cy="84.000000" r="4.000000" fill="#ff0000" /></a><g transform="translate(145.027397,84.000000) rotate(-30)"><text style="font-size:10px;font-family:OpenSans;fill:#555;" text-anchor="middle" x="0" y="-6.000000">H226R</text></g><line x1="159.986301" x2="159.986301" y1="84.000000" y2="112.000000" stroke="#BABDB6" stroke-width="2"/><a xlink:title="H252R"><circle cx="159.986301" cy="84.000000" r="4.000000" fill="#ff0000" /></a><g transform="translate(159.986301,84.000000) rotate(-30)"><text style="font-size:10px;font-family:OpenSans;fill:#555;" text-anchor="middle" x="0" y="-6.000000">H252R</text></g><line x1="250.315068" x2="250.315068" y1="59.000000" y2="112.000000" stroke="#BABDB6" stroke-width="2"/><a xlink:title="K409K"><circle cx="250.315068" cy="59.000000" r="4.000000" fill="#0000ff" /></a><g transform="translate(250.315068,59.000000) rotate(-30)"><text style="font-size:10px;font-family:OpenSans;fill:#555;" text-anchor="middle" x="0" y="-6.000000">K409K</text></g><line x1="252.616438" x2="252.616438" y1="71.500000" y2="112.000000" stroke="#BABDB6" stroke-width="2"/><a xlink:title="N413K"><circle cx="252.616438" cy="71.500000" r="4.000000" fill="#ff0000" /></a><g transform="translate(252.616438,71.500000) rotate(-30)"><text style="font-size:10px;font-family:OpenSans;fill:#555;" text-anchor="middle" x="0" y="-6.000000">N413K</text></g><line x1="253.191781" x2="253.191781" y1="84.000000" y2="112.000000" stroke="#BABDB6" stroke-width="2"/><a xlink:title="H414R"><circle cx="253.191781" cy="84.000000" r="4.000000" fill="#ff0000" /></a><g transform="translate(253.191781,84.000000) rotate(-30)"><text style="font-size:10px;font-family:OpenSans;fill:#555;" text-anchor="middle" x="0" y="-6.000000">H414R</text></g><line x1="265.849315" x2="265.849315" y1="71.500000" y2="112.000000" stroke="#BABDB6" stroke-width="2"/><a xlink:title="K436K"><circle cx="265.849315" cy="71.500000" r="4.000000" fill="#0000ff" /></a><g transform="translate(265.849315,71.500000) rotate(-30)"><text style="font-size:10px;font-family:OpenSans;fill:#555;" text-anchor="middle" x="0" y="-6.000000">K436K</text></g><line x1="268.150685" x2="268.150685" y1="84.000000" y2="112.000000" stroke="#BABDB6" stroke-width="2"/><a xlink:title="N440K"><circle cx="268.150685" cy="84.000000" r="4.000000" fill="#ff0000" /></a><g transform="translate(268.150685,84.000000) rotate(-30)"><text style="font-size:10px;font-family:OpenSans;fill:#555;" text-anchor="middle" x="0" y="-6.000000">N440K</text></g><line x1="285.410959" x2="285.410959" y1="84.000000" y2="112.000000" stroke="#BABDB6" stroke-width="2"/><a xlink:title="A470T"><circle cx="285.410959" cy="84.000000" r="4.000000" fill="#ff0000" /></a><g transform="translate(285.410959,84.000000) rotate(-30)"><text style="font-size:10px;font-family:OpenSans;fill:#555;" text-anchor="middle" x="0" y="-6.000000">A470T</text></g><line x1="300.945205" x2="300.945205" y1="84.000000" y2="112.000000" stroke="#BABDB6" stroke-width="2"/><a xlink:title="A497T"><circle cx="300.945205" cy="84.000000" r="4.000000" fill="#ff0000" /></a><g transform="translate(300.945205,84.000000) rotate(-30)"><text style="font-size:10px;font-family:OpenSans;fill:#555;" text-anchor="middle" x="0" y="-6.000000">A497T</text></g><line x1="319.931507" x2="319.931507" y1="71.500000" y2="112.000000" stroke="#BABDB6" stroke-width="2"/><a xlink:title="K530K"><circle cx="319.931507" cy="71.500000" r="4.000000" fill="#0000ff" /></a><g transform="translate(319.931507,71.500000) rotate(-30)"><text style="font-size:10px;font-family:OpenSans;fill:#555;" text-anchor="middle" x="0" y="-6.000000">K530K</text></g><line x1="322.232877" x2="322.232877" y1="84.000000" y2="112.000000" stroke="#BABDB6" stroke-width="2"/><a xlink:title="N534K"><circle cx="322.232877" cy="84.000000" r="4.000000" fill="#ff0000" /></a><g transform="translate(322.232877,84.000000) rotate(-30)"><text style="font-size:10px;font-family:OpenSans;fill:#555;" text-anchor="middle" x="0" y="-6.000000">N534K</text></g><line x1="334.890411" x2="334.890411" y1="71.500000" y2="112.000000" stroke="#BABDB6" stroke-width="2"/><a xlink:title="K556K"><circle cx="334.890411" cy="71.500000" r="4.000000" fill="#0000ff" /></a><g transform="translate(334.890411,71.500000) rotate(-30)"><text style="font-size:10px;font-family:OpenSans;fill:#555;" text-anchor="middle" x="0" y="-6.000000">K556K</text></g><line x1="337.191781" x2="337.191781" y1="84.000000" y2="112.000000" stroke="#BABDB6" stroke-width="2"/><a xlink:title="N560K"><circle cx="337.191781" cy="84.000000" r="4.000000" fill="#ff0000" /></a><g transform="translate(337.191781,84.000000) rotate(-30)"><text style="font-size:10px;font-family:OpenSans;fill:#555;" text-anchor="middle" x="0" y="-6.000000">N560K</text></g><line x1="345.821918" x2="345.821918" y1="34.000000" y2="112.000000" stroke="#BABDB6" stroke-width="2"/><a xlink:title="K575K"><circle cx="345.821918" cy="34.000000" r="4.000000" fill="#0000ff" /></a><g transform="translate(345.821918,34.000000) rotate(-30)"><text style="font-size:10px;font-family:OpenSans;fill:#555;" text-anchor="middle" x="0" y="-6.000000">K575K</text></g><line x1="348.123288" x2="348.123288" y1="34.000000" y2="112.000000" stroke="#BABDB6" stroke-width="2"/><a xlink:title="N579K"><circle cx="348.123288" cy="34.000000" r="4.000000" fill="#ff0000" /></a><g transform="translate(348.123288,34.000000) rotate(-30)"><text style="font-size:10px;font-family:OpenSans;fill:#555;" text-anchor="middle" x="0" y="-6.000000">N579K</text></g><line x1="348.123288" x2="348.123288" y1="46.500000" y2="112.000000" stroke="#BABDB6" stroke-width="2"/><a xlink:title="K579K"><circle cx="348.123288" cy="46.500000" r="4.000000" fill="#0000ff" /></a><g transform="translate(348.123288,46.500000) rotate(-30)"><text style="font-size:10px;font-family:OpenSans;fill:#555;" text-anchor="middle" x="0" y="-6.000000">K579K</text></g><line x1="350.424658" x2="350.424658" y1="46.500000" y2="112.000000" stroke="#BABDB6" stroke-width="2"/><a xlink:title="N583K"><circle cx="350.424658" cy="46.500000" r="4.000000" fill="#ff0000" /></a><g transform="translate(350.424658,46.500000) rotate(-30)"><text style="font-size:10px;font-family:OpenSans;fill:#555;" text-anchor="middle" x="0" y="-6.000000">N583K</text></g><line x1="351.000000" x2="351.000000" y1="59.000000" y2="112.000000" stroke="#BABDB6" stroke-width="2"/><a xlink:title="K584K"><circle cx="351.000000" cy="59.000000" r="4.000000" fill="#0000ff" /></a><g transform="translate(351.000000,59.000000) rotate(-30)"><text style="font-size:10px;font-family:OpenSans;fill:#555;" text-anchor="middle" x="0" y="-6.000000">K584K</text></g><line x1="353.301370" x2="353.301370" y1="71.500000" y2="112.000000" stroke="#BABDB6" stroke-width="2"/><a xlink:title="N588K"><circle cx="353.301370" cy="71.500000" r="4.000000" fill="#ff0000" /></a><g transform="translate(353.301370,71.500000) rotate(-30)"><text style="font-size:10px;font-family:OpenSans;fill:#555;" text-anchor="middle" x="0" y="-6.000000">N588K</text></g><line x1="355.027397" x2="355.027397" y1="71.500000" y2="112.000000" stroke="#BABDB6" stroke-width="2"/><a xlink:title="A591T"><circle cx="355.027397" cy="71.500000" r="4.000000" fill="#ff0000" /></a><g transform="translate(355.027397,71.500000) rotate(-30)"><text style="font-size:10px;font-family:OpenSans;fill:#555;" text-anchor="middle" x="0" y="-6.000000">A591T</text></g><line x1="360.780822" x2="360.780822" y1="46.500000" y2="112.000000" stroke="#BABDB6" stroke-width="2"/><a xlink:title="K601K"><circle cx="360.780822" cy="46.500000" r="4.000000" fill="#0000ff" /></a><g transform="translate(360.780822,46.500000) rotate(-30)"><text style="font-size:10px;font-family:OpenSans;fill:#555;" text-anchor="middle" x="0" y="-6.000000">K601K</text></g><line x1="363.082192" x2="363.082192" y1="59.000000" y2="112.000000" stroke="#BABDB6" stroke-width="2"/><a xlink:title="N605K"><circle cx="363.082192" cy="59.000000" r="4.000000" fill="#ff0000" /></a><g transform="translate(363.082192,59.000000) rotate(-30)"><text style="font-size:10px;font-family:OpenSans;fill:#555;" text-anchor="middle" x="0" y="-6.000000">N605K</text></g><line x1="363.657534" x2="363.657534" y1="71.500000" y2="112.000000" stroke="#BABDB6" stroke-width="2"/><a xlink:title="K606K"><circle cx="363.657534" cy="71.500000" r="4.000000" fill="#0000ff" /></a><g transform="translate(363.657534,71.500000) rotate(-30)"><text style="font-size:10px;font-family:OpenSans;fill:#555;" text-anchor="middle" x="0" y="-6.000000">K606K</text></g><line x1="365.958904" x2="365.958904" y1="71.500000" y2="112.000000" stroke="#BABDB6" stroke-width="2"/><a xlink:title="N610K"><circle cx="365.958904" cy="71.500000" r="4.000000" fill="#ff0000" /></a><g transform="translate(365.958904,71.500000) rotate(-30)"><text style="font-size:10px;font-family:OpenSans;fill:#555;" text-anchor="middle" x="0" y="-6.000000">N610K</text></g><line x1="369.986301" x2="369.986301" y1="84.000000" y2="112.000000" stroke="#BABDB6" stroke-width="2"/><a xlink:title="A617T"><circle cx="369.986301" cy="84.000000" r="4.000000" fill="#ff0000" /></a><g transform="translate(369.986301,84.000000) rotate(-30)"><text style="font-size:10px;font-family:OpenSans;fill:#555;" text-anchor="middle" x="0" y="-6.000000">A617T</text></g><line x1="380.917808" x2="380.917808" y1="46.500000" y2="112.000000" stroke="#BABDB6" stroke-width="2"/><a xlink:title="A636T"><circle cx="380.917808" cy="46.500000" r="4.000000" fill="#ff0000" /></a><g transform="translate(380.917808,46.500000) rotate(-30)"><text style="font-size:10px;font-family:OpenSans;fill:#555;" text-anchor="middle" x="0" y="-6.000000">A636T</text></g><line x1="382.068493" x2="382.068493" y1="59.000000" y2="112.000000" stroke="#BABDB6" stroke-width="2"/><a xlink:title="Q638K"><circle cx="382.068493" cy="59.000000" r="4.000000" fill="#ff0000" /></a><g transform="translate(382.068493,59.000000) rotate(-30)"><text style="font-size:10px;font-family:OpenSans;fill:#555;" text-anchor="middle" x="0" y="-6.000000">Q638K</text></g><line x1="383.219178" x2="383.219178" y1="71.500000" y2="112.000000" stroke="#BABDB6" stroke-width="2"/><a xlink:title="A640T"><circle cx="383.219178" cy="71.500000" r="4.000000" fill="#ff0000" /></a><g transform="translate(383.219178,71.500000) rotate(-30)"><text style="font-size:10px;font-family:OpenSans;fill:#555;" text-anchor="middle" x="0" y="-6.000000">A640T</text></g><line x1="386.095890" x2="386.095890" y1="84.000000" y2="112.000000" stroke="#BABDB6" stroke-width="2"/><a xlink:title="A645T"><circle cx="386.095890" cy="84.000000" r="4.000000" fill="#ff0000" /></a><g transform="translate(386.095890,84.000000) rotate(-30)"><text style="font-size:10px;font-family:OpenSans;fill:#555;" text-anchor="middle" x="0" y="-6.000000">A645T</text></g><line x1="395.876712" x2="395.876712" y1="59.000000" y2="112.000000" stroke="#BABDB6" stroke-width="2"/><a xlink:title="A662T"><circle cx="395.876712" cy="59.000000" r="4.000000" fill="#ff0000" /></a><g transform="translate(395.876712,59.000000) rotate(-30)"><text style="font-size:10px;font-family:OpenSans;fill:#555;" text-anchor="middle" x="0" y="-6.000000">A662T</text></g><line x1="397.602740" x2="397.602740" y1="71.500000" y2="112.000000" stroke="#BABDB6" stroke-width="2"/><a xlink:title="Q665K"><circle cx="397.602740" cy="71.500000" r="4.000000" fill="#ff0000" /></a><g transform="translate(397.602740,71.500000) rotate(-30)"><text style="font-size:10px;font-family:OpenSans;fill:#555;" text-anchor="middle" x="0" y="-6.000000">Q665K</text></g><line x1="398.753425" x2="398.753425" y1="84.000000" y2="112.000000" stroke="#BABDB6" stroke-width="2"/><a xlink:title="A667T"><circle cx="398.753425" cy="84.000000" r="4.000000" fill="#ff0000" /></a><g transform="translate(398.753425,84.000000) rotate(-30)"><text style="font-size:10px;font-family:OpenSans;fill:#555;" text-anchor="middle" x="0" y="-6.000000">A667T</text></g><line x1="451.684932" x2="451.684932" y1="59.000000" y2="112.000000" stroke="#BABDB6" stroke-width="2"/><a xlink:title="Q759K"><circle cx="451.684932" cy="59.000000" r="4.000000" fill="#ff0000" /></a><g transform="translate(451.684932,59.000000) rotate(-30)"><text style="font-size:10px;font-family:OpenSans;fill:#555;" text-anchor="middle" x="0" y="-6.000000">Q759K</text></g><line x1="453.986301" x2="453.986301" y1="71.500000" y2="112.000000" stroke="#BABDB6" stroke-width="2"/><a xlink:title="K763K"><circle cx="453.986301" cy="71.500000" r="4.000000" fill="#0000ff" /></a><g transform="translate(453.986301,71.500000) rotate(-30)"><text style="font-size:10px;font-family:OpenSans;fill:#555;" text-anchor="middle" x="0" y="-6.000000">K763K</text></g><line x1="456.287671" x2="456.287671" y1="84.000000" y2="112.000000" stroke="#BABDB6" stroke-width="2"/><a xlink:title="N767K"><circle cx="456.287671" cy="84.000000" r="4.000000" fill="#ff0000" /></a><g transform="translate(456.287671,84.000000) rotate(-30)"><text style="font-size:10px;font-family:OpenSans;fill:#555;" text-anchor="middle" x="0" y="-6.000000">N767K</text></g><line x1="466.643836" x2="466.643836" y1="84.000000" y2="112.000000" stroke="#BABDB6" stroke-width="2"/><a xlink:title="Q785K"><circle cx="466.643836" cy="84.000000" r="4.000000" fill="#ff0000" /></a><g transform="translate(466.643836,84.000000) rotate(-30)"><text style="font-size:10px;font-family:OpenSans;fill:#555;" text-anchor="middle" x="0" y="-6.000000">Q785K</text></g><line x1="477.575342" x2="477.575342" y1="59.000000" y2="112.000000" stroke="#BABDB6" stroke-width="2"/><a xlink:title="Q804K"><circle cx="477.575342" cy="59.000000" r="4.000000" fill="#ff0000" /></a><g transform="translate(477.575342,59.000000) rotate(-30)"><text style="font-size:10px;font-family:OpenSans;fill:#555;" text-anchor="middle" x="0" y="-6.000000">Q804K</text></g><line x1="479.876712" x2="479.876712" y1="71.500000" y2="112.000000" stroke="#BABDB6" stroke-width="2"/><a xlink:title="Q808K"><circle cx="479.876712" cy="71.500000" r="4.000000" fill="#ff0000" /></a><g transform="translate(479.876712,71.500000) rotate(-30)"><text style="font-size:10px;font-family:OpenSans;fill:#555;" text-anchor="middle" x="0" y="-6.000000">Q808K</text></g><line x1="482.753425" x2="482.753425" y1="84.000000" y2="112.000000" stroke="#BABDB6" stroke-width="2"/><a xlink:title="Q813K"><circle cx="482.753425" cy="84.000000" r="4.000000" fill="#ff0000" /></a><g transform="translate(482.753425,84.000000) rotate(-30)"><text style="font-size:10px;font-family:OpenSans;fill:#555;" text-anchor="middle" x="0" y="-6.000000">Q813K</text></g><line x1="489.082192" x2="489.082192" y1="71.500000" y2="112.000000" stroke="#BABDB6" stroke-width="2"/><a xlink:title="A824T"><circle cx="489.082192" cy="71.500000" r="4.000000" fill="#ff0000" /></a><g transform="translate(489.082192,71.500000) rotate(-30)"><text style="font-size:10px;font-family:OpenSans;fill:#555;" text-anchor="middle" x="0" y="-6.000000">A824T</text></g><line x1="492.534247" x2="492.534247" y1="71.500000" y2="112.000000" stroke="#BABDB6" stroke-width="2"/><a xlink:title="Q830K"><circle cx="492.534247" cy="71.500000" r="4.000000" fill="#ff0000" /></a><g transform="translate(492.534247,71.500000) rotate(-30)"><text style="font-size:10px;font-family:OpenSans;fill:#555;" text-anchor="middle" x="0" y="-6.000000">Q830K</text></g><line x1="495.410959" x2="495.410959" y1="84.000000" y2="112.000000" stroke="#BABDB6" stroke-width="2"/><a xlink:title="Q835K"><circle cx="495.410959" cy="84.000000" r="4.000000" fill="#ff0000" /></a><g transform="translate(495.410959,84.000000) rotate(-30)"><text style="font-size:10px;font-family:OpenSans;fill:#555;" text-anchor="middle" x="0" y="-6.000000">Q835K</text></g><line x1="585.739726" x2="585.739726" y1="84.000000" y2="112.000000" stroke="#BABDB6" stroke-width="2"/><a xlink:title="Q992K"><circle cx="585.739726" cy="84.000000" r="4.000000" fill="#ff0000" /></a><g transform="translate(585.739726,84.000000) rotate(-30)"><text style="font-size:10px;font-family:OpenSans;fill:#555;" text-anchor="middle" x="0" y="-6.000000">Q992K</text></g><a xlink:title=",  (949aa)"><rect fill="#BABDB6" x="15.000000" y="112.000000" width="546.000000" height="14.000000"/></a><g transform="translate(76.561644,107.000000)"><a xlink:href="https://www.ebi.ac.uk/interpro/entry/pfam/PF02946" xlink:title="GTF2I-like repeat"><rect fill="#2DCF00" x="0" y="0" width="42.575342" height="24.000000" filter="url(#ds)"/><text style="font-size:12px;font-family:OpenSans;fill:#ffffff;" text-anchor="middle" x="21.287671" y="16.000000">GTF2I</text></a></g>
<g transform="translate(206.013699,107.000000)"><a xlink:href="https://www.ebi.ac.uk/interpro/entry/pfam/PF02946" xlink:title="GTF2I-like repeat"><rect fill="#FF5353" x="0" y="0" width="42.000000" height="24.000000" filter="url(#ds)"/><text style="font-size:12px;font-family:OpenSans;fill:#ffffff;" text-anchor="middle" x="21.000000" y="16.000000">GTF2I</text></a></g>
<g class="axis">
<line x1="15.000000" x2="561.000000" y1="141.000000" y2="141.000000" stroke="#AAAAAA" /><line x1="15.000000" x2="15.000000" y1="141.000000" y2="146.000000" stroke="#AAAAAA" /><line x1="15.000000" x2="15.000000" y1="141.000000" y2="146.000000" stroke="#AAAAAA" /><text style="font-size:10px;font-family:OpenSans;fill:#000000;" text-anchor="middle" x="15.000000" y="156.000000">0</text><line x1="47.219178" x2="47.219178" y1="141.000000" y2="146.000000" stroke="#AAAAAA" /><text style="font-size:10px;font-family:OpenSans;fill:#000000;" text-anchor="middle" x="47.219178" y="156.000000">56</text><line x1="76.561644" x2="76.561644" y1="141.000000" y2="146.000000" stroke="#AAAAAA" /><text style="font-size:10px;font-family:OpenSans;fill:#000000;" text-anchor="middle" x="76.561644" y="156.000000">107</text><line x1="119.136986" x2="119.136986" y1="141.000000" y2="146.000000" stroke="#AAAAAA" /><text style="font-size:10px;font-family:OpenSans;fill:#000000;" text-anchor="middle" x="119.136986" y="156.000000">181</text><line x1="145.027397" x2="145.027397" y1="141.000000" y2="146.000000" stroke="#AAAAAA" /><text style="font-size:10px;font-family:OpenSans;fill:#000000;" text-anchor="middle" x="145.027397" y="156.000000">226</text><line x1="206.013699" x2="206.013699" y1="141.000000" y2="146.000000" stroke="#AAAAAA" /><text style="font-size:10px;font-family:OpenSans;fill:#000000;" text-anchor="middle" x="206.013699" y="156.000000">332</text><line x1="250.315068" x2="250.315068" y1="141.000000" y2="146.000000" stroke="#AAAAAA" /><text style="font-size:10px;font-family:OpenSans;fill:#000000;" text-anchor="middle" x="250.315068" y="156.000000">409</text><line x1="285.410959" x2="285.410959" y1="141.000000" y2="146.000000" stroke="#AAAAAA" /><text style="font-size:10px;font-family:OpenSans;fill:#000000;" text-anchor="middle" x="285.410959" y="156.000000">470</text><line x1="319.931507" x2="319.931507" y1="141.000000" y2="146.000000" stroke="#AAAAAA" /><text style="font-size:10px;font-family:OpenSans;fill:#000000;" text-anchor="middle" x="319.931507" y="156.000000">530</text><line x1="345.821918" x2="345.821918" y1="141.000000" y2="146.000000" stroke="#AAAAAA" /><text style="font-size:10px;font-family:OpenSans;fill:#000000;" text-anchor="middle" x="345.821918" y="156.000000">575</text><line x1="365.958904" x2="365.958904" y1="141.000000" y2="146.000000" stroke="#AAAAAA" /><text style="font-size:10px;font-family:OpenSans;fill:#000000;" text-anchor="middle" x="365.958904" y="156.000000">610</text><line x1="386.095890" x2="386.095890" y1="141.000000" y2="146.000000" stroke="#AAAAAA" /><text style="font-size:10px;font-family:OpenSans;fill:#000000;" text-anchor="middle" x="386.095890" y="156.000000">645</text><line x1="451.684932" x2="451.684932" y1="141.000000" y2="146.000000" stroke="#AAAAAA" /><text style="font-size:10px;font-family:OpenSans;fill:#000000;" text-anchor="middle" x="451.684932" y="156.000000">759</text><line x1="477.575342" x2="477.575342" y1="141.000000" y2="146.000000" stroke="#AAAAAA" /><text style="font-size:10px;font-family:OpenSans;fill:#000000;" text-anchor="middle" x="477.575342" y="156.000000">804</text><line x1="561.000000" x2="561.000000" y1="141.000000" y2="146.000000" stroke="#AAAAAA" /><text style="font-size:10px;font-family:OpenSans;fill:#000000;" text-anchor="middle" x="561.000000" y="156.000000">949</text><line x1="585.739726" x2="585.739726" y1="141.000000" y2="146.000000" stroke="#AAAAAA" /><text style="font-size:10px;font-family:OpenSans;fill:#000000;" text-anchor="middle" x="585.739726" y="156.000000">992</text></g>
<rect fill="#FF5353" x="4" y="170.000000" width="12" height="12" filter="url(#ds)"/><text style="font-size:12px;font-family:OpenSans;fill:#000000;" text-anchor="start" x="20" y="182.000000">GTF2I-like repeat</text></svg>
