<?xml version='1.0'?>
<svg xmlns="http://www.w3.org/2000/svg" xmlns:xlink="http://www.w3.org/1999/xlink" width="480.568421" height="185.100000">
<defs>
  <filter id="ds" x="0" y="0">
    <feOffset in="SourceAlpha" dx="2" dy="2" />
    <feComponentTransfer><feFuncA type="linear" slope="0.2"/></feComponentTransfer>
    <feGaussianBlur result="blurOut" stdDeviation="1" />
    <feBlend in="SourceGraphic" in2="blurOut" mode="normal" />
  </filter>
  <pattern id="disordered-hatch" patternUnits="userSpaceOnUse" width="4" height="4">
    <path d="M-1,1 l2,-2 M0,4 l4,-4 M3,5 l2,-2" stroke="#000000" opacity="0.3" />
  </pattern>
</defs>
<line x1="45.221053" x2="45.221053" y1="46.500000" y2="74.500000" stroke="#BABDB6" stroke-width="2"/><a xlink:title="G33S"><circle cx="45.221053" cy="46.500000" r="4.000000" fill="#ff0000" /></a><g transform="translate(45.221053,46.500000) rotate(-30)"><text style="font-size:10px;font-family:OpenSans;fill:#555;" text-anchor="middle" x="0" y="-6.000000">G33S</text></g><line x1="65.368421" x2="65.368421" y1="46.500000" y2="74.500000" stroke="#BABDB6" stroke-width="2"/><a xlink:title="G55S"><circle cx="65.368421" cy="46.500000" r="4.000000" fill="#ff0000" /></a><g transform="translate(65.368421,46.500000) rotate(-30)"><text style="font-size:10px;font-family:OpenSans;fill:#555;" text-anchor="middle" x="0" y="-6.000000">G55S</text></g><line x1="75.442105" x2="75.442105" y1="46.500000" y2="74.500000" stroke="#BABDB6" stroke-width="2"/><a xlink:title="T66T"><circle cx="75.442105" cy="46.500000" r="4.000000" fill="#0000ff" /></a><g transform="translate(75.442105,46.500000) rotate(-30)"><text style="font-size:10px;font-family:OpenSans;fill:#555;" text-anchor="middle" x="0" y="-6.000000">T66T</text></g><line x1="95.589474" x2="95.589474" y1="46.500000" y2="74.500000" stroke="#BABDB6" stroke-width="2"/><a xlink:title="T88T"><circle cx="95.589474" cy="46.500000" r="4.000000" fill="#0000ff" /></a><g transform="translate(95.589474,46.500000) rotate(-30)"><text style="font-size:10px;font-family:OpenSans;fill:#555;" text-anchor="middle" x="0" y="-6.000000">T88T</text></g><line x1="243.947368" x2="243.947368" y1="46.500000" y2="74.500000" stroke="#BABDB6" stroke-width="2"/><a xlink:title="V250A"><circle cx="243.947368" cy="46.500000" r="4.000000" fill="#ff0000" /></a><g transform="translate(243.947368,46.500000) rotate(-30)"><text style="font-size:10px;font-family:OpenSans;fill:#555;" text-anchor="middle" x="0" y="-6.000000">V250A</text></g><line x1="264.094737" x2="264.094737" y1="46.500000" y2="74.500000" stroke="#BABDB6" stroke-width="2"/><a xlink:title="V272A"><circle cx="264.094737" cy="46.500000" r="4.000000" fill="#ff0000" /></a><g transform="translate(264.094737,46.500000) rotate(-30)"><text style="font-size:10px;font-family:OpenSans;fill:#555;" text-anchor="middle" x="0" y="-6.000000">V272A</text></g><line x1="273.252632" x2="273.252632" y1="46.500000" y2="74.500000" stroke="#BABDB6" stroke-width="2"/><a xlink:title="V282A"><circle cx="273.252632" cy="46.500000" r="4.000000" fill="#ff0000" /></a><g transform="translate(273.252632,46.500000) rotate(-30)"><text style="font-size:10px;font-family:OpenSans;fill:#555;" text-anchor="middle" x="0" y="-6.000000">V282A</text></g><line x1="319.042105" x2="319.042105" y1="46.500000" y2="74.500000" stroke="#BABDB6" stroke-width="2"/><a xlink:title="V332I"><circle cx="319.042105" cy="46.500000" r="4.000000" fill="#ff0000" /></a><g transform="translate(319.042105,46.500000) rotate(-30)"><text style="font-size:10px;font-family:OpenSans;fill:#555;" text-anchor="middle" x="0" y="-6.000000">V332I</text></g><line x1="332.778947" x2="332.778947" y1="34.000000" y2="74.500000" stroke="#BABDB6" stroke-width="2"/><a xlink:title="R347H"><circle cx="332.778947" cy="34.000000" r="4.000000" fill="#ff0000" /></a><g transform="translate(332.778947,34.000000) rotate(-30)"><text style="font-size:10px;font-family:OpenSans;fill:#555;" text-anchor="middle" x="0" y="-6.000000">R347H</text></g><line x1="338.273684" x2="338.273684" y1="46.500000" y2="74.500000" stroke="#BABDB6" stroke-width="2"/><a xlink:title="V353I"><circle cx="338.273684" cy="46.500000" r="4.000000" fill="#ff0000" /></a><g transform="translate(338.273684,46.500000) rotate(-30)"><text style="font-size:10px;font-family:OpenSans;fill:#555;" text-anchor="middle" x="0" y="-6.000000">V353I</text></g><line x1="352.010526" x2="352.010526" y1="46.500000" y2="74.500000" stroke="#BABDB6" stroke-width="2"/><a xlink:title="R368H"><circle cx="352.010526" cy="46.500000" r="4.000000" fill="#ff0000" /></a><g transform="translate(352.010526,46.500000) rotate(-30)"><text style="font-size:10px;font-family:OpenSans;fill:#555;" text-anchor="middle" x="0" y="-6.000000">R368H</text></g><line x1="358.421053" x2="358.421053" y1="46.500000" y2="74.500000" stroke="#BABDB6" stroke-width="2"/><a xlink:title="V375I"><circle cx="358.421053" cy="46.500000" r="4.000000" fill="#ff0000" /></a><g transform="translate(358.421053,46.500000) rotate(-30)"><text style="font-size:10px;font-family:OpenSans;fill:#555;" text-anchor="middle" x="0" y="-6.000000">V375I</text></g><line x1="367.578947" x2="367.578947" y1="34.000000" y2="74.500000" stroke="#BABDB6" stroke-width="2"/><a xlink:title="V385I"><circle cx="367.578947" cy="34.000000" r="4.000000" fill="#ff0000" /></a><g transform="translate(367.578947,34.000000) rotate(-30)"><text style="font-size:10px;font-family:OpenSans;fill:#555;" text-anchor="middle" x="0" y="-6.000000">V385I</text></g><line x1="372.157895" x2="372.157895" y1="46.500000" y2="74.500000" stroke="#BABDB6" stroke-width="2"/><a xlink:title="R390H"><circle cx="372.157895" cy="46.500000" r="4.000000" fill="#ff0000" /></a><g transform="translate(372.157895,46.500000) rotate(-30)"><text style="font-size:10px;font-family:OpenSans;fill:#555;" text-anchor="middle" x="0" y="-6.000000">R390H</text></g><line x1="381.315789" x2="381.315789" y1="46.500000" y2="74.500000" stroke="#BABDB6" stroke-width="2"/><a xlink:title="R400H"><circle cx="381.315789" cy="46.500000" r="4.000000" fill="#ff0000" /></a><g transform="translate(381.315789,46.500000) rotate(-30)"><text style="font-size:10px;font-family:OpenSans;fill:#555;" text-anchor="middle" x="0" y="-6.000000">R400H</text></g><line x1="433.515789" x2="433.515789" y1="46.500000" y2="74.500000" stroke="#BABDB6" stroke-width="2"/><a xlink:title="E457Q"><circle cx="433.515789" cy="46.500000" r="4.000000" fill="#ff0000" /></a><g transform="translate(433.515789,46.500000) rotate(-30)"><text style="font-size:10px;font-family:OpenSans;fill:#555;" text-anchor="middle" x="0" y="-6.000000">E457Q</text></g><line x1="452.747368" x2="452.747368" y1="46.500000" y2="74.500000" stroke="#BABDB6" stroke-width="2"/><a xlink:title="E478Q"><circle cx="452.747368" cy="46.500000" r="4.000000" fill="#ff0000" /></a><g transform="translate(452.747368,46.500000) rotate(-30)"><text style="font-size:10px;font-family:OpenSans;fill:#555;" text-anchor="middle" x="0" y="-6.000000">E478Q</text></g><line x1="472.894737" x2="472.894737" y1="46.500000" y2="74.500000" stroke="#BABDB6" stroke-width="2"/><a xlink:title="E500Q"><circle cx="472.894737" cy="46.500000" r="4.000000" fill="#ff0000" /></a><g transform="translate(472.894737,46.500000) rotate(-30)"><text style="font-size:10px;font-family:OpenSans;fill:#555;" text-anchor="middle" x="0" y="-6.000000">E500Q</text></g><line x1="482.052632" x2="482.052632" y1="46.500000" y2="74.500000" stroke="#BABDB6" stroke-width="2"/><a xlink:title="E510Q"><circle cx="482.052632" cy="46.500000" r="4.000000" fill="#ff0000" /></a><g transform="translate(482.052632,46.500000) rotate(-30)"><text style="font-size:10px;font-family:OpenSans;fill:#555;" text-anchor="middle" x="0" y="-6.000000">E510Q</text></g><a xlink:title=",  (492aa)"><rect fill="#BABDB6" x="15.000000" y="74.500000" width="450.568421" height="14.000000"/></a><g transform="translate(47.052632,69.500000)"><a xlink:href="https://www.ebi.ac.uk/interpro/entry/pfam/PF10396" xlink:title="GTP-binding protein TrmE N-terminus"><rect fill="#2DCF00" x="0" y="0" width="107.147368" height="24.000000" filter="url(#ds)"/><text style="font-size:12px;font-family:OpenSans;fill:#ffffff;" text-anchor="middle" x="53.573684" y="16.000000">TrmE_N</text></a></g>
<g transform="translate(156.947368,69.500000)"><a xlink:href="https://www.ebi.ac.uk/interpro/entry/pfam/PF12631" xlink:title="MnmE helical domain"><rect fill="#FF5353" x="0" y="0" width="87.000000" height="24.000000" filter="url(#ds)"/><text style="font-size:12px;font-family:OpenSans;fill:#ffffff;" text-anchor="middle" x="43.500000" y="16.000000">MnmE_helical</text></a></g>
<g transform="translate(244.863158,69.500000)"><a xlink:href="https://www.ebi.ac.uk/interpro/entry/pfam/PF01926" xlink:title="50S ribosome-binding GTPase"><rect fill="#5B5BFF" x="0" y="0" width="113.557895" height="24.000000" filter="url(#ds)"/><text style="font-size:12px;font-family:OpenSans;fill:#ffffff;" text-anchor="middle" x="56.778947" y="16.000000">MMR_HSR1</text></a></g>
<g transform="translate(359.336842,69.500000)"><a xlink:href="https://www.ebi.ac.uk/interpro/entry/pfam/PF12631" xlink:title="MnmE helical domain"><rect fill="#EBD61D" x="0" y="0" width="103.484211" height="24.000000" filter="url(#ds)"/><text style="font-size:12px;font-family:OpenSans;fill:#ffffff;" text-anchor="middle" x="51.742105" y="16.000000">MnmE_helical</text></a></g>
<g class="axis">
<line x1="15.000000" x2="465.568421" y1="103.500000" y2="103.500000" stroke="#AAAAAA" /><line x1="15.000000" x2="15.000000" y1="103.500000" y2="108.500000" stroke="#AAAAAA" /><line x1="15.000000" x2="15.000000" y1="103.500000" y2="108.500000" stroke="#AAAAAA" /><text style="font-size:10px;font-family:OpenSans;fill:#000000;" text-anchor="middle" x="15.000000" y="118.500000">0</text><line x1="45.221053" x2="45.221053" y1="103.500000" y2="108.500000" stroke="#AAAAAA" /><text style="font-size:10px;font-family:OpenSans;fill:#000000;" text-anchor="middle" x="45.221053" y="118.500000">33</text><line x1="65.368421" x2="65.368421" y1="103.500000" y2="108.500000" stroke="#AAAAAA" /><text style="font-size:10px;font-family:OpenSans;fill:#000000;" text-anchor="middle" x="65.368421" y="118.500000">55</text><line x1="95.589474" x2="95.589474" y1="103.500000" y2="108.500000" stroke="#AAAAAA" /><text style="font-size:10px;font-family:OpenSans;fill:#000000;" text-anchor="middle" x="95.589474" y="118.500000">88</text><line x1="154.200000" x2="154.200000" y1="103.500000" y2="108.500000" stroke="#AAAAAA" /><text style="font-size:10px;font-family:OpenSans;fill:#000000;" text-anchor="middle" x="154.200000" y="118.500000">152</text><line x1="243.947368" x2="243.947368" y1="103.500000" y2="108.500000" stroke="#AAAAAA" /><text style="font-size:10px;font-family:OpenSans;fill:#000000;" text-anchor="middle" x="243.947368" y="118.500000">250</text><line x1="264.094737" x2="264.094737" y1="103.500000" y2="108.500000" stroke="#AAAAAA" /><text style="font-size:10px;font-family:OpenSans;fill:#000000;" text-anchor="middle" x="264.094737" y="118.500000">272</text><line x1="319.042105" x2="319.042105" y1="103.500000" y2="108.500000" stroke="#AAAAAA" /><text style="font-size:10px;font-family:OpenSans;fill:#000000;" text-anchor="middle" x="319.042105" y="118.500000">332</text><line x1="338.273684" x2="338.273684" y1="103.500000" y2="108.500000" stroke="#AAAAAA" /><text style="font-size:10px;font-family:OpenSans;fill:#000000;" text-anchor="middle" x="338.273684" y="118.500000">353</text><line x1="358.421053" x2="358.421053" y1="103.500000" y2="108.500000" stroke="#AAAAAA" /><text style="font-size:10px;font-family:OpenSans;fill:#000000;" text-anchor="middle" x="358.421053" y="118.500000">375</text><line x1="381.315789" x2="381.315789" y1="103.500000" y2="108.500000" stroke="#AAAAAA" /><text style="font-size:10px;font-family:OpenSans;fill:#000000;" text-anchor="middle" x="381.315789" y="118.500000">400</text><line x1="433.515789" x2="433.515789" y1="103.500000" y2="108.500000" stroke="#AAAAAA" /><text style="font-size:10px;font-family:OpenSans;fill:#000000;" text-anchor="middle" x="433.515789" y="118.500000">457</text><line x1="465.568421" x2="465.568421" y1="103.500000" y2="108.500000" stroke="#AAAAAA" /><text style="font-size:10px;font-family:OpenSans;fill:#000000;" text-anchor="middle" x="465.568421" y="118.500000">492</text></g>
<rect fill="#2DCF00" x="4" y="132.500000" width="12" height="12" filter="url(#ds)"/><text style="font-size:12px;font-family:OpenSans;fill:#000000;" text-anchor="start" x="20" y="144.500000">GTP-binding protein TrmE N-terminus</text><rect fill="#EBD61D" x="4" y="146.500000" width="12" height="12" filter="url(#ds)"/><text style="font-size:12px;font-family:OpenSans;fill:#000000;" text-anchor="start" x="20" y="158.500000">MnmE helical domain</text><rect fill="#5B5BFF" x="4" y="160.500000" width="12" height="12" filter="url(#ds)"/><text style="font-size:12px;font-family:OpenSans;fill:#000000;" text-anchor="start" x="20" y="172.500000">50S ribosome-binding GTPase</text></svg>
