<?xml version='1.0'?>
<svg xmlns="http://www.w3.org/2000/svg" xmlns:xlink="http://www.w3.org/1999/xlink" width="430.000000" height="145.500000">
<defs>
  <filter id="ds" x="0" y="0">
    <feOffset in="SourceAlpha" dx="2" dy="2" />
    <feComponentTransfer><feFuncA type="linear" slope="0.2"/></feComponentTransfer>
    <feGaussianBlur result="blurOut" stdDeviation="1" />
    <feBlend in="SourceGraphic" in2="blurOut" mode="normal" />
  </filter>
  <pattern id="disordered-hatch" patternUnits="userSpaceOnUse" width="4" height="4">
    <path d="M-1,1 l2,-2 M0,4 l4,-4 M3,5 l2,-2" stroke="#000000" opacity="0.3" />
  </pattern>
</defs>
<line x1="44.629630" x2="44.629630" y1="46.500000" y2="74.500000" stroke="#BABDB6" stroke-width="2"/><a xlink:title="K10K"><circle cx="44.629630" cy="46.500000" r="4.000000" fill="#0000ff" /></a><g transform="translate(44.629630,46.500000) rotate(-30)"><text style="font-size:10px;font-family:OpenSans;fill:#555;" text-anchor="middle" x="0" y="-6.000000">K10K</text></g><line x1="130.555556" x2="130.555556" y1="46.500000" y2="74.500000" stroke="#BABDB6" stroke-width="2"/><a xlink:title="H39P"><circle cx="130.555556" cy="46.500000" r="4.000000" fill="#ff0000" /></a><g transform="translate(130.555556,46.500000) rotate(-30)"><text style="font-size:10px;font-family:OpenSans;fill:#555;" text-anchor="middle" x="0" y="-6.000000">H39P</text></g><line x1="172.037037" x2="172.037037" y1="46.500000" y2="74.500000" stroke="#BABDB6" stroke-width="2"/><a xlink:title="R53G"><circle cx="172.037037" cy="46.500000" r="4.000000" fill="#ff0000" /></a><g transform="translate(172.037037,46.500000) rotate(-30)"><text style="font-size:10px;font-family:OpenSans;fill:#555;" text-anchor="middle" x="0" y="-6.000000">R53G</text></g><line x1="228.333333" x2="228.333333" y1="46.500000" y2="74.500000" stroke="#BABDB6" stroke-width="2"/><a xlink:title="R72R"><circle cx="228.333333" cy="46.500000" r="4.000000" fill="#0000ff" /></a><g transform="translate(228.333333,46.500000) rotate(-30)"><text style="font-size:10px;font-family:OpenSans;fill:#555;" text-anchor="middle" x="0" y="-6.000000">R72R</text></g><line x1="249.074074" x2="249.074074" y1="34.000000" y2="74.500000" stroke="#BABDB6" stroke-width="2"/><a xlink:title="N79K"><circle cx="249.074074" cy="34.000000" r="4.000000" fill="#ff0000" /></a><g transform="translate(249.074074,34.000000) rotate(-30)"><text style="font-size:10px;font-family:OpenSans;fill:#555;" text-anchor="middle" x="0" y="-6.000000">N79K</text></g><line x1="252.037037" x2="252.037037" y1="46.500000" y2="74.500000" stroke="#BABDB6" stroke-width="2"/><a xlink:title="T80T"><circle cx="252.037037" cy="46.500000" r="4.000000" fill="#0000ff" /></a><g transform="translate(252.037037,46.500000) rotate(-30)"><text style="font-size:10px;font-family:OpenSans;fill:#555;" text-anchor="middle" x="0" y="-6.000000">T80T</text></g><line x1="323.148148" x2="323.148148" y1="46.500000" y2="74.500000" stroke="#BABDB6" stroke-width="2"/><a xlink:title="L104F"><circle cx="323.148148" cy="46.500000" r="4.000000" fill="#ff0000" /></a><g transform="translate(323.148148,46.500000) rotate(-30)"><text style="font-size:10px;font-family:OpenSans;fill:#555;" text-anchor="middle" x="0" y="-6.000000">L104F</text></g><line x1="332.037037" x2="332.037037" y1="46.500000" y2="74.500000" stroke="#BABDB6" stroke-width="2"/><a xlink:title="T107T"><circle cx="332.037037" cy="46.500000" r="4.000000" fill="#0000ff" /></a><g transform="translate(332.037037,46.500000) rotate(-30)"><text style="font-size:10px;font-family:OpenSans;fill:#555;" text-anchor="middle" x="0" y="-6.000000">T107T</text></g><a xlink:title=",  (135aa)"><rect fill="#BABDB6" x="15.000000" y="74.500000" width="400.000000" height="14.000000"/></a><g transform="translate(35.740741,69.500000)"><a xlink:href="https://www.ebi.ac.uk/interpro/entry/pfam/PF00125" xlink:title="Core histone H2A/H2B/H3/H4"><rect fill="#2DCF00" x="0" y="0" width="367.407407" height="24.000000" filter="url(#ds)"/><text style="font-size:12px;font-family:OpenSans;fill:#ffffff;" text-anchor="middle" x="183.703704" y="16.000000">Core histone H2A/H2B/H3/H4</text></a></g>
<g class="axis">
<line x1="15.000000" x2="415.000000" y1="103.500000" y2="103.500000" stroke="#AAAAAA" /><line x1="15.000000" x2="15.000000" y1="103.500000" y2="108.500000" stroke="#AAAAAA" /><line x1="15.000000" x2="15.000000" y1="103.500000" y2="108.500000" stroke="#AAAAAA" /><text style="font-size:10px;font-family:OpenSans;fill:#000000;" text-anchor="middle" x="15.000000" y="118.500000">0</text><line x1="44.629630" x2="44.629630" y1="103.500000" y2="108.500000" stroke="#AAAAAA" /><text style="font-size:10px;font-family:OpenSans;fill:#000000;" text-anchor="middle" x="44.629630" y="118.500000">10</text><line x1="130.555556" x2="130.555556" y1="103.500000" y2="108.500000" stroke="#AAAAAA" /><text style="font-size:10px;font-family:OpenSans;fill:#000000;" text-anchor="middle" x="130.555556" y="118.500000">39</text><line x1="172.037037" x2="172.037037" y1="103.500000" y2="108.500000" stroke="#AAAAAA" /><text style="font-size:10px;font-family:OpenSans;fill:#000000;" text-anchor="middle" x="172.037037" y="118.500000">53</text><line x1="228.333333" x2="228.333333" y1="103.500000" y2="108.500000" stroke="#AAAAAA" /><text style="font-size:10px;font-family:OpenSans;fill:#000000;" text-anchor="middle" x="228.333333" y="118.500000">72</text><line x1="249.074074" x2="249.074074" y1="103.500000" y2="108.500000" stroke="#AAAAAA" /><text style="font-size:10px;font-family:OpenSans;fill:#000000;" text-anchor="middle" x="249.074074" y="118.500000">79</text><line x1="323.148148" x2="323.148148" y1="103.500000" y2="108.500000" stroke="#AAAAAA" /><text style="font-size:10px;font-family:OpenSans;fill:#000000;" text-anchor="middle" x="323.148148" y="118.500000">104</text><line x1="415.000000" x2="415.000000" y1="103.500000" y2="108.500000" stroke="#AAAAAA" /><text style="font-size:10px;font-family:OpenSans;fill:#000000;" text-anchor="middle" x="415.000000" y="118.500000">135</text></g>
</svg>
