<?xml version='1.0'?>
<svg xmlns="http://www.w3.org/2000/svg" xmlns:xlink="http://www.w3.org/1999/xlink" width="430.000000" height="158.700000">
<defs>
  <filter id="ds" x="0" y="0">
    <feOffset in="SourceAlpha" dx="2" dy="2" />
    <feComponentTransfer><feFuncA type="linear" slope="0.2"/></feComponentTransfer>
    <feGaussianBlur result="blurOut" stdDeviation="1" />
    <feBlend in="SourceGraphic" in2="blurOut" mode="normal" />
  </filter>
  <pattern id="disordered-hatch" patternUnits="userSpaceOnUse" width="4" height="4">
    <path d="M-1,1 l2,-2 M0,4 l4,-4 M3,5 l2,-2" stroke="#000000" opacity="0.3" />
  </pattern>
</defs>
<line x1="106.208791" x2="106.208791" y1="46.500000" y2="74.500000" stroke="#BABDB6" stroke-width="2"/><a xlink:title="T83M"><circle cx="106.208791" cy="46.500000" r="4.000000" fill="#ff0000" /></a><g transform="translate(106.208791,46.500000) rotate(-30)"><text style="font-size:10px;font-family:OpenSans;fill:#555;" text-anchor="middle" x="0" y="-6.000000">T83M</text></g><line x1="128.186813" x2="128.186813" y1="46.500000" y2="74.500000" stroke="#BABDB6" stroke-width="2"/><a xlink:title="T103A"><circle cx="128.186813" cy="46.500000" r="4.000000" fill="#ff0000" /></a><g transform="translate(128.186813,46.500000) rotate(-30)"><text style="font-size:10px;font-family:OpenSans;fill:#555;" text-anchor="middle" x="0" y="-6.000000">T103A</text></g><line x1="145.769231" x2="145.769231" y1="46.500000" y2="74.500000" stroke="#BABDB6" stroke-width="2"/><a xlink:title="N119H"><circle cx="145.769231" cy="46.500000" r="4.000000" fill="#ff0000" /></a><g transform="translate(145.769231,46.500000) rotate(-30)"><text style="font-size:10px;font-family:OpenSans;fill:#555;" text-anchor="middle" x="0" y="-6.000000">N119H</text></g><line x1="184.230769" x2="184.230769" y1="46.500000" y2="74.500000" stroke="#BABDB6" stroke-width="2"/><a xlink:title="L154M"><circle cx="184.230769" cy="46.500000" r="4.000000" fill="#ff0000" /></a><g transform="translate(184.230769,46.500000) rotate(-30)"><text style="font-size:10px;font-family:OpenSans;fill:#555;" text-anchor="middle" x="0" y="-6.000000">L154M</text></g><line x1="229.285714" x2="229.285714" y1="46.500000" y2="74.500000" stroke="#BABDB6" stroke-width="2"/><a xlink:title="R195Q"><circle cx="229.285714" cy="46.500000" r="4.000000" fill="#ff0000" /></a><g transform="translate(229.285714,46.500000) rotate(-30)"><text style="font-size:10px;font-family:OpenSans;fill:#555;" text-anchor="middle" x="0" y="-6.000000">R195Q</text></g><line x1="277.637363" x2="277.637363" y1="34.000000" y2="74.500000" stroke="#BABDB6" stroke-width="2"/><a xlink:title="T239M"><circle cx="277.637363" cy="34.000000" r="4.000000" fill="#ff0000" /></a><g transform="translate(277.637363,34.000000) rotate(-30)"><text style="font-size:10px;font-family:OpenSans;fill:#555;" text-anchor="middle" x="0" y="-6.000000">T239M</text></g><line x1="278.736264" x2="278.736264" y1="46.500000" y2="74.500000" stroke="#BABDB6" stroke-width="2"/><a xlink:title="T240M"><circle cx="278.736264" cy="46.500000" r="4.000000" fill="#ff0000" /></a><g transform="translate(278.736264,46.500000) rotate(-30)"><text style="font-size:10px;font-family:OpenSans;fill:#555;" text-anchor="middle" x="0" y="-6.000000">T240M</text></g><line x1="299.615385" x2="299.615385" y1="34.000000" y2="74.500000" stroke="#BABDB6" stroke-width="2"/><a xlink:title="T259A"><circle cx="299.615385" cy="34.000000" r="4.000000" fill="#ff0000" /></a><g transform="translate(299.615385,34.000000) rotate(-30)"><text style="font-size:10px;font-family:OpenSans;fill:#555;" text-anchor="middle" x="0" y="-6.000000">T259A</text></g><line x1="300.714286" x2="300.714286" y1="46.500000" y2="74.500000" stroke="#BABDB6" stroke-width="2"/><a xlink:title="T260A"><circle cx="300.714286" cy="46.500000" r="4.000000" fill="#ff0000" /></a><g transform="translate(300.714286,46.500000) rotate(-30)"><text style="font-size:10px;font-family:OpenSans;fill:#555;" text-anchor="middle" x="0" y="-6.000000">T260A</text></g><line x1="317.197802" x2="317.197802" y1="34.000000" y2="74.500000" stroke="#BABDB6" stroke-width="2"/><a xlink:title="N275H"><circle cx="317.197802" cy="34.000000" r="4.000000" fill="#ff0000" /></a><g transform="translate(317.197802,34.000000) rotate(-30)"><text style="font-size:10px;font-family:OpenSans;fill:#555;" text-anchor="middle" x="0" y="-6.000000">N275H</text></g><line x1="318.296703" x2="318.296703" y1="46.500000" y2="74.500000" stroke="#BABDB6" stroke-width="2"/><a xlink:title="N276H"><circle cx="318.296703" cy="46.500000" r="4.000000" fill="#ff0000" /></a><g transform="translate(318.296703,46.500000) rotate(-30)"><text style="font-size:10px;font-family:OpenSans;fill:#555;" text-anchor="middle" x="0" y="-6.000000">N276H</text></g><line x1="355.659341" x2="355.659341" y1="34.000000" y2="74.500000" stroke="#BABDB6" stroke-width="2"/><a xlink:title="L310M"><circle cx="355.659341" cy="34.000000" r="4.000000" fill="#ff0000" /></a><g transform="translate(355.659341,34.000000) rotate(-30)"><text style="font-size:10px;font-family:OpenSans;fill:#555;" text-anchor="middle" x="0" y="-6.000000">L310M</text></g><line x1="356.758242" x2="356.758242" y1="46.500000" y2="74.500000" stroke="#BABDB6" stroke-width="2"/><a xlink:title="L311M"><circle cx="356.758242" cy="46.500000" r="4.000000" fill="#ff0000" /></a><g transform="translate(356.758242,46.500000) rotate(-30)"><text style="font-size:10px;font-family:OpenSans;fill:#555;" text-anchor="middle" x="0" y="-6.000000">L311M</text></g><line x1="400.714286" x2="400.714286" y1="34.000000" y2="74.500000" stroke="#BABDB6" stroke-width="2"/><a xlink:title="R351Q"><circle cx="400.714286" cy="34.000000" r="4.000000" fill="#ff0000" /></a><g transform="translate(400.714286,34.000000) rotate(-30)"><text style="font-size:10px;font-family:OpenSans;fill:#555;" text-anchor="middle" x="0" y="-6.000000">R351Q</text></g><line x1="401.813187" x2="401.813187" y1="46.500000" y2="74.500000" stroke="#BABDB6" stroke-width="2"/><a xlink:title="R352Q"><circle cx="401.813187" cy="46.500000" r="4.000000" fill="#ff0000" /></a><g transform="translate(401.813187,46.500000) rotate(-30)"><text style="font-size:10px;font-family:OpenSans;fill:#555;" text-anchor="middle" x="0" y="-6.000000">R352Q</text></g><line x1="412.802198" x2="412.802198" y1="34.000000" y2="74.500000" stroke="#BABDB6" stroke-width="2"/><a xlink:title="T362T"><circle cx="412.802198" cy="34.000000" r="4.000000" fill="#0000ff" /></a><g transform="translate(412.802198,34.000000) rotate(-30)"><text style="font-size:10px;font-family:OpenSans;fill:#555;" text-anchor="middle" x="0" y="-6.000000">T362T</text></g><line x1="413.901099" x2="413.901099" y1="46.500000" y2="74.500000" stroke="#BABDB6" stroke-width="2"/><a xlink:title="T363T"><circle cx="413.901099" cy="46.500000" r="4.000000" fill="#0000ff" /></a><g transform="translate(413.901099,46.500000) rotate(-30)"><text style="font-size:10px;font-family:OpenSans;fill:#555;" text-anchor="middle" x="0" y="-6.000000">T363T</text></g><a xlink:title=",  (364aa)"><rect fill="#BABDB6" x="15.000000" y="74.500000" width="400.000000" height="14.000000"/></a><g transform="translate(41.373626,69.500000)"><a xlink:href="https://www.ebi.ac.uk/interpro/entry/pfam/PF07686" xlink:title="Immunoglobulin V-set domain"><rect fill="#2DCF00" x="0" y="0" width="94.505495" height="24.000000" filter="url(#ds)"/><text style="font-size:12px;font-family:OpenSans;fill:#ffffff;" text-anchor="middle" x="47.252747" y="16.000000">V-set</text></a></g>
<g class="axis">
<line x1="15.000000" x2="415.000000" y1="103.500000" y2="103.500000" stroke="#AAAAAA" /><line x1="15.000000" x2="15.000000" y1="103.500000" y2="108.500000" stroke="#AAAAAA" /><line x1="15.000000" x2="15.000000" y1="103.500000" y2="108.500000" stroke="#AAAAAA" /><text style="font-size:10px;font-family:OpenSans;fill:#000000;" text-anchor="middle" x="15.000000" y="118.500000">0</text><line x1="41.373626" x2="41.373626" y1="103.500000" y2="108.500000" stroke="#AAAAAA" /><text style="font-size:10px;font-family:OpenSans;fill:#000000;" text-anchor="middle" x="41.373626" y="118.500000">24</text><line x1="106.208791" x2="106.208791" y1="103.500000" y2="108.500000" stroke="#AAAAAA" /><text style="font-size:10px;font-family:OpenSans;fill:#000000;" text-anchor="middle" x="106.208791" y="118.500000">83</text><line x1="128.186813" x2="128.186813" y1="103.500000" y2="108.500000" stroke="#AAAAAA" /><text style="font-size:10px;font-family:OpenSans;fill:#000000;" text-anchor="middle" x="128.186813" y="118.500000">103</text><line x1="184.230769" x2="184.230769" y1="103.500000" y2="108.500000" stroke="#AAAAAA" /><text style="font-size:10px;font-family:OpenSans;fill:#000000;" text-anchor="middle" x="184.230769" y="118.500000">154</text><line x1="229.285714" x2="229.285714" y1="103.500000" y2="108.500000" stroke="#AAAAAA" /><text style="font-size:10px;font-family:OpenSans;fill:#000000;" text-anchor="middle" x="229.285714" y="118.500000">195</text><line x1="277.637363" x2="277.637363" y1="103.500000" y2="108.500000" stroke="#AAAAAA" /><text style="font-size:10px;font-family:OpenSans;fill:#000000;" text-anchor="middle" x="277.637363" y="118.500000">239</text><line x1="299.615385" x2="299.615385" y1="103.500000" y2="108.500000" stroke="#AAAAAA" /><text style="font-size:10px;font-family:OpenSans;fill:#000000;" text-anchor="middle" x="299.615385" y="118.500000">259</text><line x1="355.659341" x2="355.659341" y1="103.500000" y2="108.500000" stroke="#AAAAAA" /><text style="font-size:10px;font-family:OpenSans;fill:#000000;" text-anchor="middle" x="355.659341" y="118.500000">310</text><line x1="415.000000" x2="415.000000" y1="103.500000" y2="108.500000" stroke="#AAAAAA" /><text style="font-size:10px;font-family:OpenSans;fill:#000000;" text-anchor="middle" x="415.000000" y="118.500000">364</text></g>
<rect fill="#2DCF00" x="4" y="132.500000" width="12" height="12" filter="url(#ds)"/><text style="font-size:12px;font-family:OpenSans;fill:#000000;" text-anchor="start" x="20" y="144.500000">Immunoglobulin V-set domain</text></svg>
