<?xml version='1.0'?>
<svg xmlns="http://www.w3.org/2000/svg" xmlns:xlink="http://www.w3.org/1999/xlink" width="2181.314286" height="146.200000">
<defs>
  <filter id="ds" x="0" y="0">
    <feOffset in="SourceAlpha" dx="2" dy="2" />
    <feComponentTransfer><feFuncA type="linear" slope="0.2"/></feComponentTransfer>
    <feGaussianBlur result="blurOut" stdDeviation="1" />
    <feBlend in="SourceGraphic" in2="blurOut" mode="normal" />
  </filter>
  <pattern id="disordered-hatch" patternUnits="userSpaceOnUse" width="4" height="4">
    <path d="M-1,1 l2,-2 M0,4 l4,-4 M3,5 l2,-2" stroke="#000000" opacity="0.3" />
  </pattern>
</defs>
<line x1="87.057143" x2="87.057143" y1="34.000000" y2="62.000000" stroke="#BABDB6" stroke-width="2"/><a xlink:title="I97I"><circle cx="87.057143" cy="34.000000" r="4.000000" fill="#0000ff" /></a><g transform="translate(87.057143,34.000000) rotate(-30)"><text style="font-size:10px;font-family:OpenSans;fill:#555;" text-anchor="middle" x="0" y="-6.000000">I97I</text></g><line x1="93.742857" x2="93.742857" y1="34.000000" y2="62.000000" stroke="#BABDB6" stroke-width="2"/><a xlink:title="C106C"><circle cx="93.742857" cy="34.000000" r="4.000000" fill="#0000ff" /></a><g transform="translate(93.742857,34.000000) rotate(-30)"><text style="font-size:10px;font-family:OpenSans;fill:#555;" text-anchor="middle" x="0" y="-6.000000">C106C</text></g><line x1="178.428571" x2="178.428571" y1="34.000000" y2="62.000000" stroke="#BABDB6" stroke-width="2"/><a xlink:title="Y220Y"><circle cx="178.428571" cy="34.000000" r="4.000000" fill="#0000ff" /></a><g transform="translate(178.428571,34.000000) rotate(-30)"><text style="font-size:10px;font-family:OpenSans;fill:#555;" text-anchor="middle" x="0" y="-6.000000">Y220Y</text></g><line x1="225.971429" x2="225.971429" y1="34.000000" y2="62.000000" stroke="#BABDB6" stroke-width="2"/><a xlink:title="A284V"><circle cx="225.971429" cy="34.000000" r="4.000000" fill="#ff0000" /></a><g transform="translate(225.971429,34.000000) rotate(-30)"><text style="font-size:10px;font-family:OpenSans;fill:#555;" text-anchor="middle" x="0" y="-6.000000">A284V</text></g><line x1="237.857143" x2="237.857143" y1="34.000000" y2="62.000000" stroke="#BABDB6" stroke-width="2"/><a xlink:title="V300V"><circle cx="237.857143" cy="34.000000" r="4.000000" fill="#0000ff" /></a><g transform="translate(237.857143,34.000000) rotate(-30)"><text style="font-size:10px;font-family:OpenSans;fill:#555;" text-anchor="middle" x="0" y="-6.000000">V300V</text></g><line x1="286.885714" x2="286.885714" y1="34.000000" y2="62.000000" stroke="#BABDB6" stroke-width="2"/><a xlink:title="C366C"><circle cx="286.885714" cy="34.000000" r="4.000000" fill="#0000ff" /></a><g transform="translate(286.885714,34.000000) rotate(-30)"><text style="font-size:10px;font-family:OpenSans;fill:#555;" text-anchor="middle" x="0" y="-6.000000">C366C</text></g><line x1="509.742857" x2="509.742857" y1="34.000000" y2="62.000000" stroke="#BABDB6" stroke-width="2"/><a xlink:title="I666I"><circle cx="509.742857" cy="34.000000" r="4.000000" fill="#0000ff" /></a><g transform="translate(509.742857,34.000000) rotate(-30)"><text style="font-size:10px;font-family:OpenSans;fill:#555;" text-anchor="middle" x="0" y="-6.000000">I666I</text></g><line x1="516.428571" x2="516.428571" y1="34.000000" y2="62.000000" stroke="#BABDB6" stroke-width="2"/><a xlink:title="C675C"><circle cx="516.428571" cy="34.000000" r="4.000000" fill="#0000ff" /></a><g transform="translate(516.428571,34.000000) rotate(-30)"><text style="font-size:10px;font-family:OpenSans;fill:#555;" text-anchor="middle" x="0" y="-6.000000">C675C</text></g><line x1="660.542857" x2="660.542857" y1="34.000000" y2="62.000000" stroke="#BABDB6" stroke-width="2"/><a xlink:title="V869V"><circle cx="660.542857" cy="34.000000" r="4.000000" fill="#0000ff" /></a><g transform="translate(660.542857,34.000000) rotate(-30)"><text style="font-size:10px;font-family:OpenSans;fill:#555;" text-anchor="middle" x="0" y="-6.000000">V869V</text></g><line x1="693.971429" x2="693.971429" y1="34.000000" y2="62.000000" stroke="#BABDB6" stroke-width="2"/><a xlink:title="D914D"><circle cx="693.971429" cy="34.000000" r="4.000000" fill="#0000ff" /></a><g transform="translate(693.971429,34.000000) rotate(-30)"><text style="font-size:10px;font-family:OpenSans;fill:#555;" text-anchor="middle" x="0" y="-6.000000">D914D</text></g><line x1="709.571429" x2="709.571429" y1="34.000000" y2="62.000000" stroke="#BABDB6" stroke-width="2"/><a xlink:title="C935C"><circle cx="709.571429" cy="34.000000" r="4.000000" fill="#0000ff" /></a><g transform="translate(709.571429,34.000000) rotate(-30)"><text style="font-size:10px;font-family:OpenSans;fill:#555;" text-anchor="middle" x="0" y="-6.000000">C935C</text></g><line x1="799.457143" x2="799.457143" y1="34.000000" y2="62.000000" stroke="#BABDB6" stroke-width="2"/><a xlink:title="D1056D"><circle cx="799.457143" cy="34.000000" r="4.000000" fill="#0000ff" /></a><g transform="translate(799.457143,34.000000) rotate(-30)"><text style="font-size:10px;font-family:OpenSans;fill:#555;" text-anchor="middle" x="0" y="-6.000000">D1056D</text></g><line x1="1047.571429" x2="1047.571429" y1="34.000000" y2="62.000000" stroke="#BABDB6" stroke-width="2"/><a xlink:title="A1390A"><circle cx="1047.571429" cy="34.000000" r="4.000000" fill="#0000ff" /></a><g transform="translate(1047.571429,34.000000) rotate(-30)"><text style="font-size:10px;font-family:OpenSans;fill:#555;" text-anchor="middle" x="0" y="-6.000000">A1390A</text></g><line x1="1116.657143" x2="1116.657143" y1="34.000000" y2="62.000000" stroke="#BABDB6" stroke-width="2"/><a xlink:title="D1483D"><circle cx="1116.657143" cy="34.000000" r="4.000000" fill="#0000ff" /></a><g transform="translate(1116.657143,34.000000) rotate(-30)"><text style="font-size:10px;font-family:OpenSans;fill:#555;" text-anchor="middle" x="0" y="-6.000000">D1483D</text></g><line x1="1222.142857" x2="1222.142857" y1="34.000000" y2="62.000000" stroke="#BABDB6" stroke-width="2"/><a xlink:title="D1625D"><circle cx="1222.142857" cy="34.000000" r="4.000000" fill="#0000ff" /></a><g transform="translate(1222.142857,34.000000) rotate(-30)"><text style="font-size:10px;font-family:OpenSans;fill:#555;" text-anchor="middle" x="0" y="-6.000000">D1625D</text></g><line x1="1414.542857" x2="1414.542857" y1="34.000000" y2="62.000000" stroke="#BABDB6" stroke-width="2"/><a xlink:title="P1884L"><circle cx="1414.542857" cy="34.000000" r="4.000000" fill="#ff0000" /></a><g transform="translate(1414.542857,34.000000) rotate(-30)"><text style="font-size:10px;font-family:OpenSans;fill:#555;" text-anchor="middle" x="0" y="-6.000000">P1884L</text></g><line x1="1470.257143" x2="1470.257143" y1="34.000000" y2="62.000000" stroke="#BABDB6" stroke-width="2"/><a xlink:title="A1959A"><circle cx="1470.257143" cy="34.000000" r="4.000000" fill="#0000ff" /></a><g transform="translate(1470.257143,34.000000) rotate(-30)"><text style="font-size:10px;font-family:OpenSans;fill:#555;" text-anchor="middle" x="0" y="-6.000000">A1959A</text></g><line x1="1837.228571" x2="1837.228571" y1="34.000000" y2="62.000000" stroke="#BABDB6" stroke-width="2"/><a xlink:title="P2453L"><circle cx="1837.228571" cy="34.000000" r="4.000000" fill="#ff0000" /></a><g transform="translate(1837.228571,34.000000) rotate(-30)"><text style="font-size:10px;font-family:OpenSans;fill:#555;" text-anchor="middle" x="0" y="-6.000000">P2453L</text></g><line x1="1858.028571" x2="1858.028571" y1="34.000000" y2="62.000000" stroke="#BABDB6" stroke-width="2"/><a xlink:title="P2481L"><circle cx="1858.028571" cy="34.000000" r="4.000000" fill="#ff0000" /></a><g transform="translate(1858.028571,34.000000) rotate(-30)"><text style="font-size:10px;font-family:OpenSans;fill:#555;" text-anchor="middle" x="0" y="-6.000000">P2481L</text></g><a xlink:title=",  (2896aa)"><rect fill="#BABDB6" x="15.000000" y="62.000000" width="2151.314286" height="14.000000"/></a><g transform="translate(600.371429,57.000000)"><a xlink:href="https://www.ebi.ac.uk/interpro/entry/pfam/PF13086" xlink:title="AAA domain"><rect fill="#2DCF00" x="0" y="0" width="58.685714" height="24.000000" filter="url(#ds)"/><text style="font-size:12px;font-family:OpenSans;fill:#ffffff;" text-anchor="middle" x="29.342857" y="16.000000">AAA_11</text></a></g>
<g transform="translate(670.200000,57.000000)"><a xlink:href="https://www.ebi.ac.uk/interpro/entry/pfam/PF13086" xlink:title="AAA domain"><rect fill="#FF5353" x="0" y="0" width="52.000000" height="24.000000" filter="url(#ds)"/><text style="font-size:12px;font-family:OpenSans;fill:#ffffff;" text-anchor="middle" x="26.000000" y="16.000000">AAA_11</text></a></g>
<g transform="translate(732.600000,57.000000)"><a xlink:href="https://www.ebi.ac.uk/interpro/entry/pfam/PF13087" xlink:title="AAA domain"><rect fill="#5B5BFF" x="0" y="0" width="145.600000" height="24.000000" filter="url(#ds)"/><text style="font-size:12px;font-family:OpenSans;fill:#ffffff;" text-anchor="middle" x="72.800000" y="16.000000">AAA domain</text></a></g>
<g transform="translate(1189.457143,57.000000)"><a xlink:href="https://www.ebi.ac.uk/interpro/entry/pfam/PF00773" xlink:title="RNB domain"><rect fill="#EBD61D" x="0" y="0" width="265.200000" height="24.000000" filter="url(#ds)"/><text style="font-size:12px;font-family:OpenSans;fill:#ffffff;" text-anchor="middle" x="132.600000" y="16.000000">RNB domain</text></a></g>
<g transform="translate(1797.114286,57.000000)"><a xlink:href="https://www.ebi.ac.uk/interpro/entry/pfam/PF13086" xlink:title="AAA domain"><rect fill="#BA21E0" x="0" y="0" width="182.742857" height="24.000000" filter="url(#ds)"/><text style="font-size:12px;font-family:OpenSans;fill:#ffffff;" text-anchor="middle" x="91.371429" y="16.000000">AAA domain</text></a></g>
<g transform="translate(1985.800000,57.000000)"><a xlink:href="https://www.ebi.ac.uk/interpro/entry/pfam/PF13087" xlink:title="AAA domain"><rect fill="#FF9C42" x="0" y="0" width="152.285714" height="24.000000" filter="url(#ds)"/><text style="font-size:12px;font-family:OpenSans;fill:#ffffff;" text-anchor="middle" x="76.142857" y="16.000000">AAA domain</text></a></g>
<g class="axis">
<line x1="15.000000" x2="2166.314286" y1="91.000000" y2="91.000000" stroke="#AAAAAA" /><line x1="15.000000" x2="15.000000" y1="91.000000" y2="96.000000" stroke="#AAAAAA" /><line x1="15.000000" x2="15.000000" y1="91.000000" y2="96.000000" stroke="#AAAAAA" /><text style="font-size:10px;font-family:OpenSans;fill:#000000;" text-anchor="middle" x="15.000000" y="106.000000">0</text><line x1="87.057143" x2="87.057143" y1="91.000000" y2="96.000000" stroke="#AAAAAA" /><text style="font-size:10px;font-family:OpenSans;fill:#000000;" text-anchor="middle" x="87.057143" y="106.000000">97</text><line x1="178.428571" x2="178.428571" y1="91.000000" y2="96.000000" stroke="#AAAAAA" /><text style="font-size:10px;font-family:OpenSans;fill:#000000;" text-anchor="middle" x="178.428571" y="106.000000">220</text><line x1="225.971429" x2="225.971429" y1="91.000000" y2="96.000000" stroke="#AAAAAA" /><text style="font-size:10px;font-family:OpenSans;fill:#000000;" text-anchor="middle" x="225.971429" y="106.000000">284</text><line x1="286.885714" x2="286.885714" y1="91.000000" y2="96.000000" stroke="#AAAAAA" /><text style="font-size:10px;font-family:OpenSans;fill:#000000;" text-anchor="middle" x="286.885714" y="106.000000">366</text><line x1="509.742857" x2="509.742857" y1="91.000000" y2="96.000000" stroke="#AAAAAA" /><text style="font-size:10px;font-family:OpenSans;fill:#000000;" text-anchor="middle" x="509.742857" y="106.000000">666</text><line x1="600.371429" x2="600.371429" y1="91.000000" y2="96.000000" stroke="#AAAAAA" /><text style="font-size:10px;font-family:OpenSans;fill:#000000;" text-anchor="middle" x="600.371429" y="106.000000">788</text><line x1="660.542857" x2="660.542857" y1="91.000000" y2="96.000000" stroke="#AAAAAA" /><text style="font-size:10px;font-family:OpenSans;fill:#000000;" text-anchor="middle" x="660.542857" y="106.000000">869</text><line x1="693.971429" x2="693.971429" y1="91.000000" y2="96.000000" stroke="#AAAAAA" /><text style="font-size:10px;font-family:OpenSans;fill:#000000;" text-anchor="middle" x="693.971429" y="106.000000">914</text><line x1="722.200000" x2="722.200000" y1="91.000000" y2="96.000000" stroke="#AAAAAA" /><text style="font-size:10px;font-family:OpenSans;fill:#000000;" text-anchor="middle" x="722.200000" y="106.000000">952</text><line x1="799.457143" x2="799.457143" y1="91.000000" y2="96.000000" stroke="#AAAAAA" /><text style="font-size:10px;font-family:OpenSans;fill:#000000;" text-anchor="middle" x="799.457143" y="106.000000">1056</text><line x1="878.200000" x2="878.200000" y1="91.000000" y2="96.000000" stroke="#AAAAAA" /><text style="font-size:10px;font-family:OpenSans;fill:#000000;" text-anchor="middle" x="878.200000" y="106.000000">1162</text><line x1="1047.571429" x2="1047.571429" y1="91.000000" y2="96.000000" stroke="#AAAAAA" /><text style="font-size:10px;font-family:OpenSans;fill:#000000;" text-anchor="middle" x="1047.571429" y="106.000000">1390</text><line x1="1116.657143" x2="1116.657143" y1="91.000000" y2="96.000000" stroke="#AAAAAA" /><text style="font-size:10px;font-family:OpenSans;fill:#000000;" text-anchor="middle" x="1116.657143" y="106.000000">1483</text><line x1="1189.457143" x2="1189.457143" y1="91.000000" y2="96.000000" stroke="#AAAAAA" /><text style="font-size:10px;font-family:OpenSans;fill:#000000;" text-anchor="middle" x="1189.457143" y="106.000000">1581</text><line x1="1222.142857" x2="1222.142857" y1="91.000000" y2="96.000000" stroke="#AAAAAA" /><text style="font-size:10px;font-family:OpenSans;fill:#000000;" text-anchor="middle" x="1222.142857" y="106.000000">1625</text><line x1="1414.542857" x2="1414.542857" y1="91.000000" y2="96.000000" stroke="#AAAAAA" /><text style="font-size:10px;font-family:OpenSans;fill:#000000;" text-anchor="middle" x="1414.542857" y="106.000000">1884</text><line x1="1470.257143" x2="1470.257143" y1="91.000000" y2="96.000000" stroke="#AAAAAA" /><text style="font-size:10px;font-family:OpenSans;fill:#000000;" text-anchor="middle" x="1470.257143" y="106.000000">1959</text><line x1="1797.114286" x2="1797.114286" y1="91.000000" y2="96.000000" stroke="#AAAAAA" /><text style="font-size:10px;font-family:OpenSans;fill:#000000;" text-anchor="middle" x="1797.114286" y="106.000000">2399</text><line x1="1837.228571" x2="1837.228571" y1="91.000000" y2="96.000000" stroke="#AAAAAA" /><text style="font-size:10px;font-family:OpenSans;fill:#000000;" text-anchor="middle" x="1837.228571" y="106.000000">2453</text><line x1="1858.028571" x2="1858.028571" y1="91.000000" y2="96.000000" stroke="#AAAAAA" /><text style="font-size:10px;font-family:OpenSans;fill:#000000;" text-anchor="middle" x="1858.028571" y="106.000000">2481</text><line x1="1979.857143" x2="1979.857143" y1="91.000000" y2="96.000000" stroke="#AAAAAA" /><text style="font-size:10px;font-family:OpenSans;fill:#000000;" text-anchor="middle" x="1979.857143" y="106.000000">2645</text><line x1="2138.085714" x2="2138.085714" y1="91.000000" y2="96.000000" stroke="#AAAAAA" /><text style="font-size:10px;font-family:OpenSans;fill:#000000;" text-anchor="middle" x="2138.085714" y="106.000000">2858</text><line x1="2166.314286" x2="2166.314286" y1="91.000000" y2="96.000000" stroke="#AAAAAA" /><text style="font-size:10px;font-family:OpenSans;fill:#000000;" text-anchor="middle" x="2166.314286" y="106.000000">2896</text></g>
<rect fill="#FF5353" x="4" y="120.000000" width="12" height="12" filter="url(#ds)"/><text style="font-size:12px;font-family:OpenSans;fill:#000000;" text-anchor="start" x="20" y="132.000000">AAA domain</text></svg>
