<?xml version='1.0'?>
<svg xmlns="http://www.w3.org/2000/svg" xmlns:xlink="http://www.w3.org/1999/xlink" width="457.494737" height="133.000000">
<defs>
  <filter id="ds" x="0" y="0">
    <feOffset in="SourceAlpha" dx="2" dy="2" />
    <feComponentTransfer><feFuncA type="linear" slope="0.2"/></feComponentTransfer>
    <feGaussianBlur result="blurOut" stdDeviation="1" />
    <feBlend in="SourceGraphic" in2="blurOut" mode="normal" />
  </filter>
  <pattern id="disordered-hatch" patternUnits="userSpaceOnUse" width="4" height="4">
    <path d="M-1,1 l2,-2 M0,4 l4,-4 M3,5 l2,-2" stroke="#000000" opacity="0.3" />
  </pattern>
</defs>
<line x1="265.568421" x2="265.568421" y1="34.000000" y2="62.000000" stroke="#BABDB6" stroke-width="2"/><a xlink:title="L541L"><circle cx="265.568421" cy="34.000000" r="4.000000" fill="#0000ff" /></a><g transform="translate(265.568421,34.000000) rotate(-30)"><text style="font-size:10px;font-family:OpenSans;fill:#555;" text-anchor="middle" x="0" y="-6.000000">L541L</text></g><line x1="334.115789" x2="334.115789" y1="34.000000" y2="62.000000" stroke="#BABDB6" stroke-width="2"/><a xlink:title="N689N"><circle cx="334.115789" cy="34.000000" r="4.000000" fill="#0000ff" /></a><g transform="translate(334.115789,34.000000) rotate(-30)"><text style="font-size:10px;font-family:OpenSans;fill:#555;" text-anchor="middle" x="0" y="-6.000000">N689N</text></g><a xlink:title=",  (923aa)"><rect fill="#BABDB6" x="15.000000" y="62.000000" width="427.494737" height="14.000000"/></a><g transform="translate(30.284211,57.000000)"><a xlink:href="https://www.ebi.ac.uk/interpro/entry/pfam/PF00349" xlink:title="Hexokinase"><rect fill="#2DCF00" x="0" y="0" width="91.242105" height="24.000000" filter="url(#ds)"/><text style="font-size:12px;font-family:OpenSans;fill:#ffffff;" text-anchor="middle" x="45.621053" y="16.000000">Hexokinase</text></a></g>
<g transform="translate(125.694737,57.000000)"><a xlink:href="https://www.ebi.ac.uk/interpro/entry/pfam/PF03727" xlink:title="Hexokinase"><rect fill="#FF5353" x="0" y="0" width="107.915789" height="24.000000" filter="url(#ds)"/><text style="font-size:12px;font-family:OpenSans;fill:#ffffff;" text-anchor="middle" x="53.957895" y="16.000000">Hexokinase</text></a></g>
<g transform="translate(238.705263,57.000000)"><a xlink:href="https://www.ebi.ac.uk/interpro/entry/pfam/PF00349" xlink:title="Hexokinase"><rect fill="#5B5BFF" x="0" y="0" width="88.000000" height="24.000000" filter="url(#ds)"/><text style="font-size:12px;font-family:OpenSans;fill:#ffffff;" text-anchor="middle" x="44.000000" y="16.000000">Hexokinase</text></a></g>
<g transform="translate(329.484211,57.000000)"><a xlink:href="https://www.ebi.ac.uk/interpro/entry/pfam/PF03727" xlink:title="Hexokinase"><rect fill="#EBD61D" x="0" y="0" width="108.378947" height="24.000000" filter="url(#ds)"/><text style="font-size:12px;font-family:OpenSans;fill:#ffffff;" text-anchor="middle" x="54.189474" y="16.000000">Hexokinase</text></a></g>
<g class="axis">
<line x1="15.000000" x2="442.494737" y1="91.000000" y2="91.000000" stroke="#AAAAAA" /><line x1="15.000000" x2="15.000000" y1="91.000000" y2="96.000000" stroke="#AAAAAA" /><line x1="30.284211" x2="30.284211" y1="91.000000" y2="96.000000" stroke="#AAAAAA" /><text style="font-size:10px;font-family:OpenSans;fill:#000000;" text-anchor="middle" x="30.284211" y="106.000000">33</text><line x1="121.526316" x2="121.526316" y1="91.000000" y2="96.000000" stroke="#AAAAAA" /><text style="font-size:10px;font-family:OpenSans;fill:#000000;" text-anchor="middle" x="121.526316" y="106.000000">230</text><line x1="233.610526" x2="233.610526" y1="91.000000" y2="96.000000" stroke="#AAAAAA" /><text style="font-size:10px;font-family:OpenSans;fill:#000000;" text-anchor="middle" x="233.610526" y="106.000000">472</text><line x1="265.568421" x2="265.568421" y1="91.000000" y2="96.000000" stroke="#AAAAAA" /><text style="font-size:10px;font-family:OpenSans;fill:#000000;" text-anchor="middle" x="265.568421" y="106.000000">541</text><line x1="334.115789" x2="334.115789" y1="91.000000" y2="96.000000" stroke="#AAAAAA" /><text style="font-size:10px;font-family:OpenSans;fill:#000000;" text-anchor="middle" x="334.115789" y="106.000000">689</text><line x1="442.494737" x2="442.494737" y1="91.000000" y2="96.000000" stroke="#AAAAAA" /><text style="font-size:10px;font-family:OpenSans;fill:#000000;" text-anchor="middle" x="442.494737" y="106.000000">923</text></g>
</svg>
