<?xml version='1.0'?>
<svg xmlns="http://www.w3.org/2000/svg" xmlns:xlink="http://www.w3.org/1999/xlink" width="430.000000" height="221.900000">
<defs>
  <filter id="ds" x="0" y="0">
    <feOffset in="SourceAlpha" dx="2" dy="2" />
    <feComponentTransfer><feFuncA type="linear" slope="0.2"/></feComponentTransfer>
    <feGaussianBlur result="blurOut" stdDeviation="1" />
    <feBlend in="SourceGraphic" in2="blurOut" mode="normal" />
  </filter>
  <pattern id="disordered-hatch" patternUnits="userSpaceOnUse" width="4" height="4">
    <path d="M-1,1 l2,-2 M0,4 l4,-4 M3,5 l2,-2" stroke="#000000" opacity="0.3" />
  </pattern>
</defs>
<line x1="21.130268" x2="21.130268" y1="84.000000" y2="124.500000" stroke="#BABDB6" stroke-width="2"/><a xlink:title="K4K"><circle cx="21.130268" cy="84.000000" r="4.000000" fill="#0000ff" /></a><g transform="translate(21.130268,84.000000) rotate(-30)"><text style="font-size:10px;font-family:OpenSans;fill:#555;" text-anchor="middle" x="0" y="-6.000000">K4K</text></g><line x1="24.195402" x2="24.195402" y1="96.500000" y2="124.500000" stroke="#BABDB6" stroke-width="2"/><a xlink:title="A6S"><circle cx="24.195402" cy="96.500000" r="4.000000" fill="#ff0000" /></a><g transform="translate(24.195402,96.500000) rotate(-30)"><text style="font-size:10px;font-family:OpenSans;fill:#555;" text-anchor="middle" x="0" y="-6.000000">A6S</text></g><line x1="30.325670" x2="30.325670" y1="84.000000" y2="124.500000" stroke="#BABDB6" stroke-width="2"/><a xlink:title="P10P"><circle cx="30.325670" cy="84.000000" r="4.000000" fill="#0000ff" /></a><g transform="translate(30.325670,84.000000) rotate(-30)"><text style="font-size:10px;font-family:OpenSans;fill:#555;" text-anchor="middle" x="0" y="-6.000000">P10P</text></g><line x1="33.390805" x2="33.390805" y1="84.000000" y2="124.500000" stroke="#BABDB6" stroke-width="2"/><a xlink:title="D12G"><circle cx="33.390805" cy="84.000000" r="4.000000" fill="#ff0000" /></a><g transform="translate(33.390805,84.000000) rotate(-30)"><text style="font-size:10px;font-family:OpenSans;fill:#555;" text-anchor="middle" x="0" y="-6.000000">D12G</text></g><line x1="37.988506" x2="37.988506" y1="84.000000" y2="124.500000" stroke="#BABDB6" stroke-width="2"/><a xlink:title="V15A"><circle cx="37.988506" cy="84.000000" r="4.000000" fill="#ff0000" /></a><g transform="translate(37.988506,84.000000) rotate(-30)"><text style="font-size:10px;font-family:OpenSans;fill:#555;" text-anchor="middle" x="0" y="-6.000000">V15A</text></g><line x1="42.586207" x2="42.586207" y1="96.500000" y2="124.500000" stroke="#BABDB6" stroke-width="2"/><a xlink:title="V18V"><circle cx="42.586207" cy="96.500000" r="4.000000" fill="#0000ff" /></a><g transform="translate(42.586207,96.500000) rotate(-30)"><text style="font-size:10px;font-family:OpenSans;fill:#555;" text-anchor="middle" x="0" y="-6.000000">V18V</text></g><line x1="51.781609" x2="51.781609" y1="84.000000" y2="124.500000" stroke="#BABDB6" stroke-width="2"/><a xlink:title="M24I"><circle cx="51.781609" cy="84.000000" r="4.000000" fill="#ff0000" /></a><g transform="translate(51.781609,84.000000) rotate(-30)"><text style="font-size:10px;font-family:OpenSans;fill:#555;" text-anchor="middle" x="0" y="-6.000000">M24I</text></g><line x1="56.379310" x2="56.379310" y1="71.500000" y2="124.500000" stroke="#BABDB6" stroke-width="2"/><a xlink:title="S27T"><circle cx="56.379310" cy="71.500000" r="4.000000" fill="#ff0000" /></a><g transform="translate(56.379310,71.500000) rotate(-30)"><text style="font-size:10px;font-family:OpenSans;fill:#555;" text-anchor="middle" x="0" y="-6.000000">S27T</text></g><line x1="57.911877" x2="57.911877" y1="84.000000" y2="124.500000" stroke="#BABDB6" stroke-width="2"/><a xlink:title="L28P"><circle cx="57.911877" cy="84.000000" r="4.000000" fill="#ff0000" /></a><g transform="translate(57.911877,84.000000) rotate(-30)"><text style="font-size:10px;font-family:OpenSans;fill:#555;" text-anchor="middle" x="0" y="-6.000000">L28P</text></g><line x1="59.444444" x2="59.444444" y1="96.500000" y2="124.500000" stroke="#BABDB6" stroke-width="2"/><a xlink:title="L29V"><circle cx="59.444444" cy="96.500000" r="4.000000" fill="#ff0000" /></a><g transform="translate(59.444444,96.500000) rotate(-30)"><text style="font-size:10px;font-family:OpenSans;fill:#555;" text-anchor="middle" x="0" y="-6.000000">L29V</text></g><line x1="68.639847" x2="68.639847" y1="96.500000" y2="124.500000" stroke="#BABDB6" stroke-width="2"/><a xlink:title="S35P"><circle cx="68.639847" cy="96.500000" r="4.000000" fill="#ff0000" /></a><g transform="translate(68.639847,96.500000) rotate(-30)"><text style="font-size:10px;font-family:OpenSans;fill:#555;" text-anchor="middle" x="0" y="-6.000000">S35P</text></g><line x1="77.835249" x2="77.835249" y1="84.000000" y2="124.500000" stroke="#BABDB6" stroke-width="2"/><a xlink:title="F41Y"><circle cx="77.835249" cy="84.000000" r="4.000000" fill="#ff0000" /></a><g transform="translate(77.835249,84.000000) rotate(-30)"><text style="font-size:10px;font-family:OpenSans;fill:#555;" text-anchor="middle" x="0" y="-6.000000">F41Y</text></g><line x1="77.835249" x2="77.835249" y1="96.500000" y2="124.500000" stroke="#BABDB6" stroke-width="2"/><a xlink:title="F41L"><circle cx="77.835249" cy="96.500000" r="4.000000" fill="#ff0000" /></a><g transform="translate(77.835249,96.500000) rotate(-30)"><text style="font-size:10px;font-family:OpenSans;fill:#555;" text-anchor="middle" x="0" y="-6.000000">F41L</text></g><line x1="83.965517" x2="83.965517" y1="84.000000" y2="124.500000" stroke="#BABDB6" stroke-width="2"/><a xlink:title="G45A"><circle cx="83.965517" cy="84.000000" r="4.000000" fill="#ff0000" /></a><g transform="translate(83.965517,84.000000) rotate(-30)"><text style="font-size:10px;font-family:OpenSans;fill:#555;" text-anchor="middle" x="0" y="-6.000000">G45A</text></g><line x1="85.498084" x2="85.498084" y1="96.500000" y2="124.500000" stroke="#BABDB6" stroke-width="2"/><a xlink:title="M46L"><circle cx="85.498084" cy="96.500000" r="4.000000" fill="#ff0000" /></a><g transform="translate(85.498084,96.500000) rotate(-30)"><text style="font-size:10px;font-family:OpenSans;fill:#555;" text-anchor="middle" x="0" y="-6.000000">M46L</text></g><line x1="93.160920" x2="93.160920" y1="84.000000" y2="124.500000" stroke="#BABDB6" stroke-width="2"/><a xlink:title="N51N"><circle cx="93.160920" cy="84.000000" r="4.000000" fill="#0000ff" /></a><g transform="translate(93.160920,84.000000) rotate(-30)"><text style="font-size:10px;font-family:OpenSans;fill:#555;" text-anchor="middle" x="0" y="-6.000000">N51N</text></g><line x1="96.226054" x2="96.226054" y1="84.000000" y2="124.500000" stroke="#BABDB6" stroke-width="2"/><a xlink:title="T53T"><circle cx="96.226054" cy="84.000000" r="4.000000" fill="#0000ff" /></a><g transform="translate(96.226054,84.000000) rotate(-30)"><text style="font-size:10px;font-family:OpenSans;fill:#555;" text-anchor="middle" x="0" y="-6.000000">T53T</text></g><line x1="99.291188" x2="99.291188" y1="96.500000" y2="124.500000" stroke="#BABDB6" stroke-width="2"/><a xlink:title="R55L"><circle cx="99.291188" cy="96.500000" r="4.000000" fill="#ff0000" /></a><g transform="translate(99.291188,96.500000) rotate(-30)"><text style="font-size:10px;font-family:OpenSans;fill:#555;" text-anchor="middle" x="0" y="-6.000000">R55L</text></g><line x1="110.019157" x2="110.019157" y1="96.500000" y2="124.500000" stroke="#BABDB6" stroke-width="2"/><a xlink:title="Y62H"><circle cx="110.019157" cy="96.500000" r="4.000000" fill="#ff0000" /></a><g transform="translate(110.019157,96.500000) rotate(-30)"><text style="font-size:10px;font-family:OpenSans;fill:#555;" text-anchor="middle" x="0" y="-6.000000">Y62H</text></g><line x1="122.279693" x2="122.279693" y1="84.000000" y2="124.500000" stroke="#BABDB6" stroke-width="2"/><a xlink:title="A70A"><circle cx="122.279693" cy="84.000000" r="4.000000" fill="#0000ff" /></a><g transform="translate(122.279693,84.000000) rotate(-30)"><text style="font-size:10px;font-family:OpenSans;fill:#555;" text-anchor="middle" x="0" y="-6.000000">A70A</text></g><line x1="122.279693" x2="122.279693" y1="96.500000" y2="124.500000" stroke="#BABDB6" stroke-width="2"/><a xlink:title="A70V"><circle cx="122.279693" cy="96.500000" r="4.000000" fill="#ff0000" /></a><g transform="translate(122.279693,96.500000) rotate(-30)"><text style="font-size:10px;font-family:OpenSans;fill:#555;" text-anchor="middle" x="0" y="-6.000000">A70V</text></g><line x1="133.007663" x2="133.007663" y1="71.500000" y2="124.500000" stroke="#BABDB6" stroke-width="2"/><a xlink:title="G77E"><circle cx="133.007663" cy="71.500000" r="4.000000" fill="#ff0000" /></a><g transform="translate(133.007663,71.500000) rotate(-30)"><text style="font-size:10px;font-family:OpenSans;fill:#555;" text-anchor="middle" x="0" y="-6.000000">G77E</text></g><line x1="136.072797" x2="136.072797" y1="71.500000" y2="124.500000" stroke="#BABDB6" stroke-width="2"/><a xlink:title="Y79Y"><circle cx="136.072797" cy="71.500000" r="4.000000" fill="#0000ff" /></a><g transform="translate(136.072797,71.500000) rotate(-30)"><text style="font-size:10px;font-family:OpenSans;fill:#555;" text-anchor="middle" x="0" y="-6.000000">Y79Y</text></g><line x1="137.605364" x2="137.605364" y1="84.000000" y2="124.500000" stroke="#BABDB6" stroke-width="2"/><a xlink:title="R80R"><circle cx="137.605364" cy="84.000000" r="4.000000" fill="#0000ff" /></a><g transform="translate(137.605364,84.000000) rotate(-30)"><text style="font-size:10px;font-family:OpenSans;fill:#555;" text-anchor="middle" x="0" y="-6.000000">R80R</text></g><line x1="139.137931" x2="139.137931" y1="96.500000" y2="124.500000" stroke="#BABDB6" stroke-width="2"/><a xlink:title="A81A"><circle cx="139.137931" cy="96.500000" r="4.000000" fill="#0000ff" /></a><g transform="translate(139.137931,96.500000) rotate(-30)"><text style="font-size:10px;font-family:OpenSans;fill:#555;" text-anchor="middle" x="0" y="-6.000000">A81A</text></g><line x1="145.268199" x2="145.268199" y1="84.000000" y2="124.500000" stroke="#BABDB6" stroke-width="2"/><a xlink:title="Q85L"><circle cx="145.268199" cy="84.000000" r="4.000000" fill="#ff0000" /></a><g transform="translate(145.268199,84.000000) rotate(-30)"><text style="font-size:10px;font-family:OpenSans;fill:#555;" text-anchor="middle" x="0" y="-6.000000">Q85L</text></g><line x1="148.333333" x2="148.333333" y1="71.500000" y2="124.500000" stroke="#BABDB6" stroke-width="2"/><a xlink:title="R87P"><circle cx="148.333333" cy="71.500000" r="4.000000" fill="#ff0000" /></a><g transform="translate(148.333333,71.500000) rotate(-30)"><text style="font-size:10px;font-family:OpenSans;fill:#555;" text-anchor="middle" x="0" y="-6.000000">R87P</text></g><line x1="151.398467" x2="151.398467" y1="84.000000" y2="124.500000" stroke="#BABDB6" stroke-width="2"/><a xlink:title="D89D"><circle cx="151.398467" cy="84.000000" r="4.000000" fill="#0000ff" /></a><g transform="translate(151.398467,84.000000) rotate(-30)"><text style="font-size:10px;font-family:OpenSans;fill:#555;" text-anchor="middle" x="0" y="-6.000000">D89D</text></g><line x1="151.398467" x2="151.398467" y1="96.500000" y2="124.500000" stroke="#BABDB6" stroke-width="2"/><a xlink:title="D89V"><circle cx="151.398467" cy="96.500000" r="4.000000" fill="#ff0000" /></a><g transform="translate(151.398467,96.500000) rotate(-30)"><text style="font-size:10px;font-family:OpenSans;fill:#555;" text-anchor="middle" x="0" y="-6.000000">D89V</text></g><line x1="171.321839" x2="171.321839" y1="71.500000" y2="124.500000" stroke="#BABDB6" stroke-width="2"/><a xlink:title="G102R"><circle cx="171.321839" cy="71.500000" r="4.000000" fill="#ff0000" /></a><g transform="translate(171.321839,71.500000) rotate(-30)"><text style="font-size:10px;font-family:OpenSans;fill:#555;" text-anchor="middle" x="0" y="-6.000000">G102R</text></g><line x1="172.854406" x2="172.854406" y1="71.500000" y2="124.500000" stroke="#BABDB6" stroke-width="2"/><a xlink:title="T103A"><circle cx="172.854406" cy="71.500000" r="4.000000" fill="#ff0000" /></a><g transform="translate(172.854406,71.500000) rotate(-30)"><text style="font-size:10px;font-family:OpenSans;fill:#555;" text-anchor="middle" x="0" y="-6.000000">T103A</text></g><line x1="174.386973" x2="174.386973" y1="71.500000" y2="124.500000" stroke="#BABDB6" stroke-width="2"/><a xlink:title="R104R"><circle cx="174.386973" cy="71.500000" r="4.000000" fill="#0000ff" /></a><g transform="translate(174.386973,71.500000) rotate(-30)"><text style="font-size:10px;font-family:OpenSans;fill:#555;" text-anchor="middle" x="0" y="-6.000000">R104R</text></g><line x1="177.452107" x2="177.452107" y1="71.500000" y2="124.500000" stroke="#BABDB6" stroke-width="2"/><a xlink:title="E106A"><circle cx="177.452107" cy="71.500000" r="4.000000" fill="#ff0000" /></a><g transform="translate(177.452107,71.500000) rotate(-30)"><text style="font-size:10px;font-family:OpenSans;fill:#555;" text-anchor="middle" x="0" y="-6.000000">E106A</text></g><line x1="178.984674" x2="178.984674" y1="84.000000" y2="124.500000" stroke="#BABDB6" stroke-width="2"/><a xlink:title="L107V"><circle cx="178.984674" cy="84.000000" r="4.000000" fill="#ff0000" /></a><g transform="translate(178.984674,84.000000) rotate(-30)"><text style="font-size:10px;font-family:OpenSans;fill:#555;" text-anchor="middle" x="0" y="-6.000000">L107V</text></g><line x1="182.049808" x2="182.049808" y1="96.500000" y2="124.500000" stroke="#BABDB6" stroke-width="2"/><a xlink:title="T109R"><circle cx="182.049808" cy="96.500000" r="4.000000" fill="#ff0000" /></a><g transform="translate(182.049808,96.500000) rotate(-30)"><text style="font-size:10px;font-family:OpenSans;fill:#555;" text-anchor="middle" x="0" y="-6.000000">T109R</text></g><line x1="192.777778" x2="192.777778" y1="34.000000" y2="124.500000" stroke="#BABDB6" stroke-width="2"/><a xlink:title="E116Q"><circle cx="192.777778" cy="34.000000" r="4.000000" fill="#ff0000" /></a><g transform="translate(192.777778,34.000000) rotate(-30)"><text style="font-size:10px;font-family:OpenSans;fill:#555;" text-anchor="middle" x="0" y="-6.000000">E116Q</text></g><line x1="194.310345" x2="194.310345" y1="46.500000" y2="124.500000" stroke="#BABDB6" stroke-width="2"/><a xlink:title="V117L"><circle cx="194.310345" cy="46.500000" r="4.000000" fill="#ff0000" /></a><g transform="translate(194.310345,46.500000) rotate(-30)"><text style="font-size:10px;font-family:OpenSans;fill:#555;" text-anchor="middle" x="0" y="-6.000000">V117L</text></g><line x1="195.842912" x2="195.842912" y1="59.000000" y2="124.500000" stroke="#BABDB6" stroke-width="2"/><a xlink:title="A118E"><circle cx="195.842912" cy="59.000000" r="4.000000" fill="#ff0000" /></a><g transform="translate(195.842912,59.000000) rotate(-30)"><text style="font-size:10px;font-family:OpenSans;fill:#555;" text-anchor="middle" x="0" y="-6.000000">A118E</text></g><line x1="195.842912" x2="195.842912" y1="71.500000" y2="124.500000" stroke="#BABDB6" stroke-width="2"/><a xlink:title="A118G"><circle cx="195.842912" cy="71.500000" r="4.000000" fill="#ff0000" /></a><g transform="translate(195.842912,71.500000) rotate(-30)"><text style="font-size:10px;font-family:OpenSans;fill:#555;" text-anchor="middle" x="0" y="-6.000000">A118G</text></g><line x1="197.375479" x2="197.375479" y1="71.500000" y2="124.500000" stroke="#BABDB6" stroke-width="2"/><a xlink:title="F119Y"><circle cx="197.375479" cy="71.500000" r="4.000000" fill="#ff0000" /></a><g transform="translate(197.375479,71.500000) rotate(-30)"><text style="font-size:10px;font-family:OpenSans;fill:#555;" text-anchor="middle" x="0" y="-6.000000">F119Y</text></g><line x1="197.375479" x2="197.375479" y1="84.000000" y2="124.500000" stroke="#BABDB6" stroke-width="2"/><a xlink:title="F119L"><circle cx="197.375479" cy="84.000000" r="4.000000" fill="#ff0000" /></a><g transform="translate(197.375479,84.000000) rotate(-30)"><text style="font-size:10px;font-family:OpenSans;fill:#555;" text-anchor="middle" x="0" y="-6.000000">F119L</text></g><line x1="201.973180" x2="201.973180" y1="71.500000" y2="124.500000" stroke="#BABDB6" stroke-width="2"/><a xlink:title="I122T"><circle cx="201.973180" cy="71.500000" r="4.000000" fill="#ff0000" /></a><g transform="translate(201.973180,71.500000) rotate(-30)"><text style="font-size:10px;font-family:OpenSans;fill:#555;" text-anchor="middle" x="0" y="-6.000000">I122T</text></g><line x1="203.505747" x2="203.505747" y1="71.500000" y2="124.500000" stroke="#BABDB6" stroke-width="2"/><a xlink:title="L123L"><circle cx="203.505747" cy="71.500000" r="4.000000" fill="#0000ff" /></a><g transform="translate(203.505747,71.500000) rotate(-30)"><text style="font-size:10px;font-family:OpenSans;fill:#555;" text-anchor="middle" x="0" y="-6.000000">L123L</text></g><line x1="206.570881" x2="206.570881" y1="84.000000" y2="124.500000" stroke="#BABDB6" stroke-width="2"/><a xlink:title="R125R"><circle cx="206.570881" cy="84.000000" r="4.000000" fill="#0000ff" /></a><g transform="translate(206.570881,84.000000) rotate(-30)"><text style="font-size:10px;font-family:OpenSans;fill:#555;" text-anchor="middle" x="0" y="-6.000000">R125R</text></g><line x1="208.103448" x2="208.103448" y1="96.500000" y2="124.500000" stroke="#BABDB6" stroke-width="2"/><a xlink:title="R126R"><circle cx="208.103448" cy="96.500000" r="4.000000" fill="#0000ff" /></a><g transform="translate(208.103448,96.500000) rotate(-30)"><text style="font-size:10px;font-family:OpenSans;fill:#555;" text-anchor="middle" x="0" y="-6.000000">R126R</text></g><line x1="241.819923" x2="241.819923" y1="96.500000" y2="124.500000" stroke="#BABDB6" stroke-width="2"/><a xlink:title="V148I"><circle cx="241.819923" cy="96.500000" r="4.000000" fill="#ff0000" /></a><g transform="translate(241.819923,96.500000) rotate(-30)"><text style="font-size:10px;font-family:OpenSans;fill:#555;" text-anchor="middle" x="0" y="-6.000000">V148I</text></g><line x1="255.613027" x2="255.613027" y1="84.000000" y2="124.500000" stroke="#BABDB6" stroke-width="2"/><a xlink:title="G157S"><circle cx="255.613027" cy="84.000000" r="4.000000" fill="#ff0000" /></a><g transform="translate(255.613027,84.000000) rotate(-30)"><text style="font-size:10px;font-family:OpenSans;fill:#555;" text-anchor="middle" x="0" y="-6.000000">G157S</text></g><line x1="257.145594" x2="257.145594" y1="96.500000" y2="124.500000" stroke="#BABDB6" stroke-width="2"/><a xlink:title="Q158H"><circle cx="257.145594" cy="96.500000" r="4.000000" fill="#ff0000" /></a><g transform="translate(257.145594,96.500000) rotate(-30)"><text style="font-size:10px;font-family:OpenSans;fill:#555;" text-anchor="middle" x="0" y="-6.000000">Q158H</text></g><line x1="270.938697" x2="270.938697" y1="96.500000" y2="124.500000" stroke="#BABDB6" stroke-width="2"/><a xlink:title="D167D"><circle cx="270.938697" cy="96.500000" r="4.000000" fill="#0000ff" /></a><g transform="translate(270.938697,96.500000) rotate(-30)"><text style="font-size:10px;font-family:OpenSans;fill:#555;" text-anchor="middle" x="0" y="-6.000000">D167D</text></g><line x1="278.601533" x2="278.601533" y1="84.000000" y2="124.500000" stroke="#BABDB6" stroke-width="2"/><a xlink:title="A172A"><circle cx="278.601533" cy="84.000000" r="4.000000" fill="#0000ff" /></a><g transform="translate(278.601533,84.000000) rotate(-30)"><text style="font-size:10px;font-family:OpenSans;fill:#555;" text-anchor="middle" x="0" y="-6.000000">A172A</text></g><line x1="278.601533" x2="278.601533" y1="96.500000" y2="124.500000" stroke="#BABDB6" stroke-width="2"/><a xlink:title="A172T"><circle cx="278.601533" cy="96.500000" r="4.000000" fill="#ff0000" /></a><g transform="translate(278.601533,96.500000) rotate(-30)"><text style="font-size:10px;font-family:OpenSans;fill:#555;" text-anchor="middle" x="0" y="-6.000000">A172T</text></g><line x1="289.329502" x2="289.329502" y1="84.000000" y2="124.500000" stroke="#BABDB6" stroke-width="2"/><a xlink:title="L179L"><circle cx="289.329502" cy="84.000000" r="4.000000" fill="#0000ff" /></a><g transform="translate(289.329502,84.000000) rotate(-30)"><text style="font-size:10px;font-family:OpenSans;fill:#555;" text-anchor="middle" x="0" y="-6.000000">L179L</text></g><line x1="293.927203" x2="293.927203" y1="96.500000" y2="124.500000" stroke="#BABDB6" stroke-width="2"/><a xlink:title="N182N"><circle cx="293.927203" cy="96.500000" r="4.000000" fill="#0000ff" /></a><g transform="translate(293.927203,96.500000) rotate(-30)"><text style="font-size:10px;font-family:OpenSans;fill:#555;" text-anchor="middle" x="0" y="-6.000000">N182N</text></g><line x1="300.057471" x2="300.057471" y1="96.500000" y2="124.500000" stroke="#BABDB6" stroke-width="2"/><a xlink:title="T186T"><circle cx="300.057471" cy="96.500000" r="4.000000" fill="#0000ff" /></a><g transform="translate(300.057471,96.500000) rotate(-30)"><text style="font-size:10px;font-family:OpenSans;fill:#555;" text-anchor="middle" x="0" y="-6.000000">T186T</text></g><line x1="319.980843" x2="319.980843" y1="84.000000" y2="124.500000" stroke="#BABDB6" stroke-width="2"/><a xlink:title="R199H"><circle cx="319.980843" cy="84.000000" r="4.000000" fill="#ff0000" /></a><g transform="translate(319.980843,84.000000) rotate(-30)"><text style="font-size:10px;font-family:OpenSans;fill:#555;" text-anchor="middle" x="0" y="-6.000000">R199H</text></g><line x1="323.045977" x2="323.045977" y1="96.500000" y2="124.500000" stroke="#BABDB6" stroke-width="2"/><a xlink:title="D201D"><circle cx="323.045977" cy="96.500000" r="4.000000" fill="#0000ff" /></a><g transform="translate(323.045977,96.500000) rotate(-30)"><text style="font-size:10px;font-family:OpenSans;fill:#555;" text-anchor="middle" x="0" y="-6.000000">D201D</text></g><line x1="342.969349" x2="342.969349" y1="84.000000" y2="124.500000" stroke="#BABDB6" stroke-width="2"/><a xlink:title="S214N"><circle cx="342.969349" cy="84.000000" r="4.000000" fill="#ff0000" /></a><g transform="translate(342.969349,84.000000) rotate(-30)"><text style="font-size:10px;font-family:OpenSans;fill:#555;" text-anchor="middle" x="0" y="-6.000000">S214N</text></g><line x1="347.567050" x2="347.567050" y1="96.500000" y2="124.500000" stroke="#BABDB6" stroke-width="2"/><a xlink:title="T217I"><circle cx="347.567050" cy="96.500000" r="4.000000" fill="#ff0000" /></a><g transform="translate(347.567050,96.500000) rotate(-30)"><text style="font-size:10px;font-family:OpenSans;fill:#555;" text-anchor="middle" x="0" y="-6.000000">T217I</text></g><line x1="375.153257" x2="375.153257" y1="96.500000" y2="124.500000" stroke="#BABDB6" stroke-width="2"/><a xlink:title="V235I"><circle cx="375.153257" cy="96.500000" r="4.000000" fill="#ff0000" /></a><g transform="translate(375.153257,96.500000) rotate(-30)"><text style="font-size:10px;font-family:OpenSans;fill:#555;" text-anchor="middle" x="0" y="-6.000000">V235I</text></g><line x1="385.881226" x2="385.881226" y1="84.000000" y2="124.500000" stroke="#BABDB6" stroke-width="2"/><a xlink:title="L242L"><circle cx="385.881226" cy="84.000000" r="4.000000" fill="#0000ff" /></a><g transform="translate(385.881226,84.000000) rotate(-30)"><text style="font-size:10px;font-family:OpenSans;fill:#555;" text-anchor="middle" x="0" y="-6.000000">L242L</text></g><line x1="390.478927" x2="390.478927" y1="84.000000" y2="124.500000" stroke="#BABDB6" stroke-width="2"/><a xlink:title="L245L"><circle cx="390.478927" cy="84.000000" r="4.000000" fill="#0000ff" /></a><g transform="translate(390.478927,84.000000) rotate(-30)"><text style="font-size:10px;font-family:OpenSans;fill:#555;" text-anchor="middle" x="0" y="-6.000000">L245L</text></g><line x1="393.544061" x2="393.544061" y1="84.000000" y2="124.500000" stroke="#BABDB6" stroke-width="2"/><a xlink:title="L247L"><circle cx="393.544061" cy="84.000000" r="4.000000" fill="#0000ff" /></a><g transform="translate(393.544061,84.000000) rotate(-30)"><text style="font-size:10px;font-family:OpenSans;fill:#555;" text-anchor="middle" x="0" y="-6.000000">L247L</text></g><line x1="398.141762" x2="398.141762" y1="71.500000" y2="124.500000" stroke="#BABDB6" stroke-width="2"/><a xlink:title="I250I"><circle cx="398.141762" cy="71.500000" r="4.000000" fill="#0000ff" /></a><g transform="translate(398.141762,71.500000) rotate(-30)"><text style="font-size:10px;font-family:OpenSans;fill:#555;" text-anchor="middle" x="0" y="-6.000000">I250I</text></g><line x1="401.206897" x2="401.206897" y1="84.000000" y2="124.500000" stroke="#BABDB6" stroke-width="2"/><a xlink:title="R252H"><circle cx="401.206897" cy="84.000000" r="4.000000" fill="#ff0000" /></a><g transform="translate(401.206897,84.000000) rotate(-30)"><text style="font-size:10px;font-family:OpenSans;fill:#555;" text-anchor="middle" x="0" y="-6.000000">R252H</text></g><line x1="402.739464" x2="402.739464" y1="84.000000" y2="124.500000" stroke="#BABDB6" stroke-width="2"/><a xlink:title="Q253H"><circle cx="402.739464" cy="84.000000" r="4.000000" fill="#ff0000" /></a><g transform="translate(402.739464,84.000000) rotate(-30)"><text style="font-size:10px;font-family:OpenSans;fill:#555;" text-anchor="middle" x="0" y="-6.000000">Q253H</text></g><line x1="407.337165" x2="407.337165" y1="84.000000" y2="124.500000" stroke="#BABDB6" stroke-width="2"/><a xlink:title="Q256R"><circle cx="407.337165" cy="84.000000" r="4.000000" fill="#ff0000" /></a><g transform="translate(407.337165,84.000000) rotate(-30)"><text style="font-size:10px;font-family:OpenSans;fill:#555;" text-anchor="middle" x="0" y="-6.000000">Q256R</text></g><line x1="411.934866" x2="411.934866" y1="96.500000" y2="124.500000" stroke="#BABDB6" stroke-width="2"/><a xlink:title="L259L"><circle cx="411.934866" cy="96.500000" r="4.000000" fill="#0000ff" /></a><g transform="translate(411.934866,96.500000) rotate(-30)"><text style="font-size:10px;font-family:OpenSans;fill:#555;" text-anchor="middle" x="0" y="-6.000000">L259L</text></g><line x1="424.195402" x2="424.195402" y1="96.500000" y2="124.500000" stroke="#BABDB6" stroke-width="2"/><a xlink:title="L267L"><circle cx="424.195402" cy="96.500000" r="4.000000" fill="#0000ff" /></a><g transform="translate(424.195402,96.500000) rotate(-30)"><text style="font-size:10px;font-family:OpenSans;fill:#555;" text-anchor="middle" x="0" y="-6.000000">L267L</text></g><a xlink:title=",  (261aa)"><rect fill="#BABDB6" x="15.000000" y="124.500000" width="400.000000" height="14.000000"/></a><g transform="translate(85.498084,119.500000)"><a xlink:href="https://www.ebi.ac.uk/interpro/entry/pfam/PF00969" xlink:title="Class II histocompatibility antigen, beta domain"><rect fill="#2DCF00" x="0" y="0" width="108.812261" height="24.000000" filter="url(#ds)"/><text style="font-size:12px;font-family:OpenSans;fill:#ffffff;" text-anchor="middle" x="54.406130" y="16.000000">MHC_II_beta</text></a></g>
<g transform="translate(215.766284,119.500000)"><a xlink:href="https://www.ebi.ac.uk/interpro/entry/pfam/PF07654" xlink:title="Immunoglobulin C1-set domain"><rect fill="#FF5353" x="0" y="0" width="124.137931" height="24.000000" filter="url(#ds)"/><text style="font-size:12px;font-family:OpenSans;fill:#ffffff;" text-anchor="middle" x="62.068966" y="16.000000">C1-set</text></a></g>
<g class="axis">
<line x1="15.000000" x2="415.000000" y1="153.500000" y2="153.500000" stroke="#AAAAAA" /><line x1="15.000000" x2="15.000000" y1="153.500000" y2="158.500000" stroke="#AAAAAA" /><line x1="21.130268" x2="21.130268" y1="153.500000" y2="158.500000" stroke="#AAAAAA" /><text style="font-size:10px;font-family:OpenSans;fill:#000000;" text-anchor="middle" x="21.130268" y="168.500000">4</text><line x1="42.586207" x2="42.586207" y1="153.500000" y2="158.500000" stroke="#AAAAAA" /><text style="font-size:10px;font-family:OpenSans;fill:#000000;" text-anchor="middle" x="42.586207" y="168.500000">18</text><line x1="68.639847" x2="68.639847" y1="153.500000" y2="158.500000" stroke="#AAAAAA" /><text style="font-size:10px;font-family:OpenSans;fill:#000000;" text-anchor="middle" x="68.639847" y="168.500000">35</text><line x1="93.160920" x2="93.160920" y1="153.500000" y2="158.500000" stroke="#AAAAAA" /><text style="font-size:10px;font-family:OpenSans;fill:#000000;" text-anchor="middle" x="93.160920" y="168.500000">51</text><line x1="122.279693" x2="122.279693" y1="153.500000" y2="158.500000" stroke="#AAAAAA" /><text style="font-size:10px;font-family:OpenSans;fill:#000000;" text-anchor="middle" x="122.279693" y="168.500000">70</text><line x1="145.268199" x2="145.268199" y1="153.500000" y2="158.500000" stroke="#AAAAAA" /><text style="font-size:10px;font-family:OpenSans;fill:#000000;" text-anchor="middle" x="145.268199" y="168.500000">85</text><line x1="171.321839" x2="171.321839" y1="153.500000" y2="158.500000" stroke="#AAAAAA" /><text style="font-size:10px;font-family:OpenSans;fill:#000000;" text-anchor="middle" x="171.321839" y="168.500000">102</text><line x1="192.777778" x2="192.777778" y1="153.500000" y2="158.500000" stroke="#AAAAAA" /><text style="font-size:10px;font-family:OpenSans;fill:#000000;" text-anchor="middle" x="192.777778" y="168.500000">116</text><line x1="215.766284" x2="215.766284" y1="153.500000" y2="158.500000" stroke="#AAAAAA" /><text style="font-size:10px;font-family:OpenSans;fill:#000000;" text-anchor="middle" x="215.766284" y="168.500000">131</text><line x1="241.819923" x2="241.819923" y1="153.500000" y2="158.500000" stroke="#AAAAAA" /><text style="font-size:10px;font-family:OpenSans;fill:#000000;" text-anchor="middle" x="241.819923" y="168.500000">148</text><line x1="270.938697" x2="270.938697" y1="153.500000" y2="158.500000" stroke="#AAAAAA" /><text style="font-size:10px;font-family:OpenSans;fill:#000000;" text-anchor="middle" x="270.938697" y="168.500000">167</text><line x1="293.927203" x2="293.927203" y1="153.500000" y2="158.500000" stroke="#AAAAAA" /><text style="font-size:10px;font-family:OpenSans;fill:#000000;" text-anchor="middle" x="293.927203" y="168.500000">182</text><line x1="319.980843" x2="319.980843" y1="153.500000" y2="158.500000" stroke="#AAAAAA" /><text style="font-size:10px;font-family:OpenSans;fill:#000000;" text-anchor="middle" x="319.980843" y="168.500000">199</text><line x1="342.969349" x2="342.969349" y1="153.500000" y2="158.500000" stroke="#AAAAAA" /><text style="font-size:10px;font-family:OpenSans;fill:#000000;" text-anchor="middle" x="342.969349" y="168.500000">214</text><line x1="375.153257" x2="375.153257" y1="153.500000" y2="158.500000" stroke="#AAAAAA" /><text style="font-size:10px;font-family:OpenSans;fill:#000000;" text-anchor="middle" x="375.153257" y="168.500000">235</text><line x1="415.000000" x2="415.000000" y1="153.500000" y2="158.500000" stroke="#AAAAAA" /><text style="font-size:10px;font-family:OpenSans;fill:#000000;" text-anchor="middle" x="415.000000" y="168.500000">261</text></g>
<rect fill="#2DCF00" x="4" y="182.500000" width="12" height="12" filter="url(#ds)"/><text style="font-size:12px;font-family:OpenSans;fill:#000000;" text-anchor="start" x="20" y="194.500000">Class II histocompatibility antigen, beta domain</text><rect fill="#FF5353" x="4" y="196.500000" width="12" height="12" filter="url(#ds)"/><text style="font-size:12px;font-family:OpenSans;fill:#000000;" text-anchor="start" x="20" y="208.500000">Immunoglobulin C1-set domain</text></svg>
