<?xml version='1.0'?>
<svg xmlns="http://www.w3.org/2000/svg" xmlns:xlink="http://www.w3.org/1999/xlink" width="430.000000" height="209.400000">
<defs>
  <filter id="ds" x="0" y="0">
    <feOffset in="SourceAlpha" dx="2" dy="2" />
    <feComponentTransfer><feFuncA type="linear" slope="0.2"/></feComponentTransfer>
    <feGaussianBlur result="blurOut" stdDeviation="1" />
    <feBlend in="SourceGraphic" in2="blurOut" mode="normal" />
  </filter>
  <pattern id="disordered-hatch" patternUnits="userSpaceOnUse" width="4" height="4">
    <path d="M-1,1 l2,-2 M0,4 l4,-4 M3,5 l2,-2" stroke="#000000" opacity="0.3" />
  </pattern>
</defs>
<line x1="18.314917" x2="18.314917" y1="71.500000" y2="112.000000" stroke="#BABDB6" stroke-width="2"/><a xlink:title="R6C"><circle cx="18.314917" cy="71.500000" r="4.000000" fill="#ff0000" /></a><g transform="translate(18.314917,71.500000) rotate(-30)"><text style="font-size:10px;font-family:OpenSans;fill:#555;" text-anchor="middle" x="0" y="-6.000000">R6C</text></g><line x1="20.524862" x2="20.524862" y1="84.000000" y2="112.000000" stroke="#BABDB6" stroke-width="2"/><a xlink:title="R10R"><circle cx="20.524862" cy="84.000000" r="4.000000" fill="#0000ff" /></a><g transform="translate(20.524862,84.000000) rotate(-30)"><text style="font-size:10px;font-family:OpenSans;fill:#555;" text-anchor="middle" x="0" y="-6.000000">R10R</text></g><line x1="34.337017" x2="34.337017" y1="84.000000" y2="112.000000" stroke="#BABDB6" stroke-width="2"/><a xlink:title="P35L"><circle cx="34.337017" cy="84.000000" r="4.000000" fill="#ff0000" /></a><g transform="translate(34.337017,84.000000) rotate(-30)"><text style="font-size:10px;font-family:OpenSans;fill:#555;" text-anchor="middle" x="0" y="-6.000000">P35L</text></g><line x1="57.541436" x2="57.541436" y1="84.000000" y2="112.000000" stroke="#BABDB6" stroke-width="2"/><a xlink:title="R77C"><circle cx="57.541436" cy="84.000000" r="4.000000" fill="#ff0000" /></a><g transform="translate(57.541436,84.000000) rotate(-30)"><text style="font-size:10px;font-family:OpenSans;fill:#555;" text-anchor="middle" x="0" y="-6.000000">R77C</text></g><line x1="65.828729" x2="65.828729" y1="71.500000" y2="112.000000" stroke="#BABDB6" stroke-width="2"/><a xlink:title="R92C"><circle cx="65.828729" cy="71.500000" r="4.000000" fill="#ff0000" /></a><g transform="translate(65.828729,71.500000) rotate(-30)"><text style="font-size:10px;font-family:OpenSans;fill:#555;" text-anchor="middle" x="0" y="-6.000000">R92C</text></g><line x1="66.381215" x2="66.381215" y1="84.000000" y2="112.000000" stroke="#BABDB6" stroke-width="2"/><a xlink:title="R93C"><circle cx="66.381215" cy="84.000000" r="4.000000" fill="#ff0000" /></a><g transform="translate(66.381215,84.000000) rotate(-30)"><text style="font-size:10px;font-family:OpenSans;fill:#555;" text-anchor="middle" x="0" y="-6.000000">R93C</text></g><line x1="144.281768" x2="144.281768" y1="84.000000" y2="112.000000" stroke="#BABDB6" stroke-width="2"/><a xlink:title="N234K"><circle cx="144.281768" cy="84.000000" r="4.000000" fill="#ff0000" /></a><g transform="translate(144.281768,84.000000) rotate(-30)"><text style="font-size:10px;font-family:OpenSans;fill:#555;" text-anchor="middle" x="0" y="-6.000000">N234K</text></g><line x1="150.911602" x2="150.911602" y1="84.000000" y2="112.000000" stroke="#BABDB6" stroke-width="2"/><a xlink:title="R246H"><circle cx="150.911602" cy="84.000000" r="4.000000" fill="#ff0000" /></a><g transform="translate(150.911602,84.000000) rotate(-30)"><text style="font-size:10px;font-family:OpenSans;fill:#555;" text-anchor="middle" x="0" y="-6.000000">R246H</text></g><line x1="170.801105" x2="170.801105" y1="84.000000" y2="112.000000" stroke="#BABDB6" stroke-width="2"/><a xlink:title="V282A"><circle cx="170.801105" cy="84.000000" r="4.000000" fill="#ff0000" /></a><g transform="translate(170.801105,84.000000) rotate(-30)"><text style="font-size:10px;font-family:OpenSans;fill:#555;" text-anchor="middle" x="0" y="-6.000000">V282A</text></g><line x1="183.508287" x2="183.508287" y1="84.000000" y2="112.000000" stroke="#BABDB6" stroke-width="2"/><a xlink:title="N305K"><circle cx="183.508287" cy="84.000000" r="4.000000" fill="#ff0000" /></a><g transform="translate(183.508287,84.000000) rotate(-30)"><text style="font-size:10px;font-family:OpenSans;fill:#555;" text-anchor="middle" x="0" y="-6.000000">N305K</text></g><line x1="190.138122" x2="190.138122" y1="59.000000" y2="112.000000" stroke="#BABDB6" stroke-width="2"/><a xlink:title="R317H"><circle cx="190.138122" cy="59.000000" r="4.000000" fill="#ff0000" /></a><g transform="translate(190.138122,59.000000) rotate(-30)"><text style="font-size:10px;font-family:OpenSans;fill:#555;" text-anchor="middle" x="0" y="-6.000000">R317H</text></g><line x1="191.795580" x2="191.795580" y1="71.500000" y2="112.000000" stroke="#BABDB6" stroke-width="2"/><a xlink:title="N320K"><circle cx="191.795580" cy="71.500000" r="4.000000" fill="#ff0000" /></a><g transform="translate(191.795580,71.500000) rotate(-30)"><text style="font-size:10px;font-family:OpenSans;fill:#555;" text-anchor="middle" x="0" y="-6.000000">N320K</text></g><line x1="192.348066" x2="192.348066" y1="84.000000" y2="112.000000" stroke="#BABDB6" stroke-width="2"/><a xlink:title="N321K"><circle cx="192.348066" cy="84.000000" r="4.000000" fill="#ff0000" /></a><g transform="translate(192.348066,84.000000) rotate(-30)"><text style="font-size:10px;font-family:OpenSans;fill:#555;" text-anchor="middle" x="0" y="-6.000000">N321K</text></g><line x1="198.425414" x2="198.425414" y1="71.500000" y2="112.000000" stroke="#BABDB6" stroke-width="2"/><a xlink:title="R332H"><circle cx="198.425414" cy="71.500000" r="4.000000" fill="#ff0000" /></a><g transform="translate(198.425414,71.500000) rotate(-30)"><text style="font-size:10px;font-family:OpenSans;fill:#555;" text-anchor="middle" x="0" y="-6.000000">R332H</text></g><line x1="198.977901" x2="198.977901" y1="84.000000" y2="112.000000" stroke="#BABDB6" stroke-width="2"/><a xlink:title="R333H"><circle cx="198.977901" cy="84.000000" r="4.000000" fill="#ff0000" /></a><g transform="translate(198.977901,84.000000) rotate(-30)"><text style="font-size:10px;font-family:OpenSans;fill:#555;" text-anchor="middle" x="0" y="-6.000000">R333H</text></g><line x1="210.027624" x2="210.027624" y1="84.000000" y2="112.000000" stroke="#BABDB6" stroke-width="2"/><a xlink:title="V353A"><circle cx="210.027624" cy="84.000000" r="4.000000" fill="#ff0000" /></a><g transform="translate(210.027624,84.000000) rotate(-30)"><text style="font-size:10px;font-family:OpenSans;fill:#555;" text-anchor="middle" x="0" y="-6.000000">V353A</text></g><line x1="218.314917" x2="218.314917" y1="71.500000" y2="112.000000" stroke="#BABDB6" stroke-width="2"/><a xlink:title="V368A"><circle cx="218.314917" cy="71.500000" r="4.000000" fill="#ff0000" /></a><g transform="translate(218.314917,71.500000) rotate(-30)"><text style="font-size:10px;font-family:OpenSans;fill:#555;" text-anchor="middle" x="0" y="-6.000000">V368A</text></g><line x1="218.867403" x2="218.867403" y1="84.000000" y2="112.000000" stroke="#BABDB6" stroke-width="2"/><a xlink:title="V369A"><circle cx="218.867403" cy="84.000000" r="4.000000" fill="#ff0000" /></a><g transform="translate(218.867403,84.000000) rotate(-30)"><text style="font-size:10px;font-family:OpenSans;fill:#555;" text-anchor="middle" x="0" y="-6.000000">V369A</text></g><line x1="229.364641" x2="229.364641" y1="59.000000" y2="112.000000" stroke="#BABDB6" stroke-width="2"/><a xlink:title="K388K"><circle cx="229.364641" cy="59.000000" r="4.000000" fill="#0000ff" /></a><g transform="translate(229.364641,59.000000) rotate(-30)"><text style="font-size:10px;font-family:OpenSans;fill:#555;" text-anchor="middle" x="0" y="-6.000000">K388K</text></g><line x1="234.889503" x2="234.889503" y1="71.500000" y2="112.000000" stroke="#BABDB6" stroke-width="2"/><a xlink:title="A398V"><circle cx="234.889503" cy="71.500000" r="4.000000" fill="#ff0000" /></a><g transform="translate(234.889503,71.500000) rotate(-30)"><text style="font-size:10px;font-family:OpenSans;fill:#555;" text-anchor="middle" x="0" y="-6.000000">A398V</text></g><line x1="234.889503" x2="234.889503" y1="84.000000" y2="112.000000" stroke="#BABDB6" stroke-width="2"/><a xlink:title="A398A"><circle cx="234.889503" cy="84.000000" r="4.000000" fill="#0000ff" /></a><g transform="translate(234.889503,84.000000) rotate(-30)"><text style="font-size:10px;font-family:OpenSans;fill:#555;" text-anchor="middle" x="0" y="-6.000000">A398A</text></g><line x1="268.591160" x2="268.591160" y1="59.000000" y2="112.000000" stroke="#BABDB6" stroke-width="2"/><a xlink:title="K459K"><circle cx="268.591160" cy="59.000000" r="4.000000" fill="#0000ff" /></a><g transform="translate(268.591160,59.000000) rotate(-30)"><text style="font-size:10px;font-family:OpenSans;fill:#555;" text-anchor="middle" x="0" y="-6.000000">K459K</text></g><line x1="274.116022" x2="274.116022" y1="46.500000" y2="112.000000" stroke="#BABDB6" stroke-width="2"/><a xlink:title="A469V"><circle cx="274.116022" cy="46.500000" r="4.000000" fill="#ff0000" /></a><g transform="translate(274.116022,46.500000) rotate(-30)"><text style="font-size:10px;font-family:OpenSans;fill:#555;" text-anchor="middle" x="0" y="-6.000000">A469V</text></g><line x1="274.116022" x2="274.116022" y1="59.000000" y2="112.000000" stroke="#BABDB6" stroke-width="2"/><a xlink:title="A469A"><circle cx="274.116022" cy="59.000000" r="4.000000" fill="#0000ff" /></a><g transform="translate(274.116022,59.000000) rotate(-30)"><text style="font-size:10px;font-family:OpenSans;fill:#555;" text-anchor="middle" x="0" y="-6.000000">A469A</text></g><line x1="276.878453" x2="276.878453" y1="46.500000" y2="112.000000" stroke="#BABDB6" stroke-width="2"/><a xlink:title="K474K"><circle cx="276.878453" cy="46.500000" r="4.000000" fill="#0000ff" /></a><g transform="translate(276.878453,46.500000) rotate(-30)"><text style="font-size:10px;font-family:OpenSans;fill:#555;" text-anchor="middle" x="0" y="-6.000000">K474K</text></g><line x1="277.430939" x2="277.430939" y1="34.000000" y2="112.000000" stroke="#BABDB6" stroke-width="2"/><a xlink:title="K475K"><circle cx="277.430939" cy="34.000000" r="4.000000" fill="#0000ff" /></a><g transform="translate(277.430939,34.000000) rotate(-30)"><text style="font-size:10px;font-family:OpenSans;fill:#555;" text-anchor="middle" x="0" y="-6.000000">K475K</text></g><line x1="282.403315" x2="282.403315" y1="46.500000" y2="112.000000" stroke="#BABDB6" stroke-width="2"/><a xlink:title="A484V"><circle cx="282.403315" cy="46.500000" r="4.000000" fill="#ff0000" /></a><g transform="translate(282.403315,46.500000) rotate(-30)"><text style="font-size:10px;font-family:OpenSans;fill:#555;" text-anchor="middle" x="0" y="-6.000000">A484V</text></g><line x1="282.403315" x2="282.403315" y1="59.000000" y2="112.000000" stroke="#BABDB6" stroke-width="2"/><a xlink:title="A484A"><circle cx="282.403315" cy="59.000000" r="4.000000" fill="#0000ff" /></a><g transform="translate(282.403315,59.000000) rotate(-30)"><text style="font-size:10px;font-family:OpenSans;fill:#555;" text-anchor="middle" x="0" y="-6.000000">A484A</text></g><line x1="282.955801" x2="282.955801" y1="71.500000" y2="112.000000" stroke="#BABDB6" stroke-width="2"/><a xlink:title="A485V"><circle cx="282.955801" cy="71.500000" r="4.000000" fill="#ff0000" /></a><g transform="translate(282.955801,71.500000) rotate(-30)"><text style="font-size:10px;font-family:OpenSans;fill:#555;" text-anchor="middle" x="0" y="-6.000000">A485V</text></g><line x1="282.955801" x2="282.955801" y1="84.000000" y2="112.000000" stroke="#BABDB6" stroke-width="2"/><a xlink:title="A485A"><circle cx="282.955801" cy="84.000000" r="4.000000" fill="#0000ff" /></a><g transform="translate(282.955801,84.000000) rotate(-30)"><text style="font-size:10px;font-family:OpenSans;fill:#555;" text-anchor="middle" x="0" y="-6.000000">A485A</text></g><line x1="321.629834" x2="321.629834" y1="84.000000" y2="112.000000" stroke="#BABDB6" stroke-width="2"/><a xlink:title="V555V"><circle cx="321.629834" cy="84.000000" r="4.000000" fill="#0000ff" /></a><g transform="translate(321.629834,84.000000) rotate(-30)"><text style="font-size:10px;font-family:OpenSans;fill:#555;" text-anchor="middle" x="0" y="-6.000000">V555V</text></g><line x1="360.856354" x2="360.856354" y1="84.000000" y2="112.000000" stroke="#BABDB6" stroke-width="2"/><a xlink:title="V626V"><circle cx="360.856354" cy="84.000000" r="4.000000" fill="#0000ff" /></a><g transform="translate(360.856354,84.000000) rotate(-30)"><text style="font-size:10px;font-family:OpenSans;fill:#555;" text-anchor="middle" x="0" y="-6.000000">V626V</text></g><line x1="369.143646" x2="369.143646" y1="71.500000" y2="112.000000" stroke="#BABDB6" stroke-width="2"/><a xlink:title="V641V"><circle cx="369.143646" cy="71.500000" r="4.000000" fill="#0000ff" /></a><g transform="translate(369.143646,71.500000) rotate(-30)"><text style="font-size:10px;font-family:OpenSans;fill:#555;" text-anchor="middle" x="0" y="-6.000000">V641V</text></g><line x1="369.696133" x2="369.696133" y1="84.000000" y2="112.000000" stroke="#BABDB6" stroke-width="2"/><a xlink:title="V642V"><circle cx="369.696133" cy="84.000000" r="4.000000" fill="#0000ff" /></a><g transform="translate(369.696133,84.000000) rotate(-30)"><text style="font-size:10px;font-family:OpenSans;fill:#555;" text-anchor="middle" x="0" y="-6.000000">V642V</text></g><a xlink:title=",  (724aa)"><rect fill="#BABDB6" x="15.000000" y="112.000000" width="400.000000" height="14.000000"/></a><g transform="translate(23.287293,107.000000)"><a xlink:href="https://www.ebi.ac.uk/interpro/entry/pfam/PF15905" xlink:title="Hyaluronan mediated motility receptor N-terminal"><rect fill="#2DCF00" x="0" y="0" width="178.453039" height="24.000000" filter="url(#ds)"/><text style="font-size:12px;font-family:OpenSans;fill:#ffffff;" text-anchor="middle" x="89.226519" y="16.000000">HMMR_N</text></a></g>
<g transform="translate(319.972376,107.000000)"><a xlink:href="https://www.ebi.ac.uk/interpro/entry/pfam/PF15908" xlink:title="Hyaluronan mediated motility receptor C-terminal"><rect fill="#FF5353" x="0" y="0" width="86.187845" height="24.000000" filter="url(#ds)"/><text style="font-size:12px;font-family:OpenSans;fill:#ffffff;" text-anchor="middle" x="43.093923" y="16.000000">HMMR_C</text></a></g>
<g class="axis">
<line x1="15.000000" x2="415.000000" y1="141.000000" y2="141.000000" stroke="#AAAAAA" /><line x1="15.000000" x2="15.000000" y1="141.000000" y2="146.000000" stroke="#AAAAAA" /><line x1="18.314917" x2="18.314917" y1="141.000000" y2="146.000000" stroke="#AAAAAA" /><text style="font-size:10px;font-family:OpenSans;fill:#000000;" text-anchor="middle" x="18.314917" y="156.000000">6</text><line x1="57.541436" x2="57.541436" y1="141.000000" y2="146.000000" stroke="#AAAAAA" /><text style="font-size:10px;font-family:OpenSans;fill:#000000;" text-anchor="middle" x="57.541436" y="156.000000">77</text><line x1="144.281768" x2="144.281768" y1="141.000000" y2="146.000000" stroke="#AAAAAA" /><text style="font-size:10px;font-family:OpenSans;fill:#000000;" text-anchor="middle" x="144.281768" y="156.000000">234</text><line x1="170.801105" x2="170.801105" y1="141.000000" y2="146.000000" stroke="#AAAAAA" /><text style="font-size:10px;font-family:OpenSans;fill:#000000;" text-anchor="middle" x="170.801105" y="156.000000">282</text><line x1="191.795580" x2="191.795580" y1="141.000000" y2="146.000000" stroke="#AAAAAA" /><text style="font-size:10px;font-family:OpenSans;fill:#000000;" text-anchor="middle" x="191.795580" y="156.000000">320</text><line x1="218.314917" x2="218.314917" y1="141.000000" y2="146.000000" stroke="#AAAAAA" /><text style="font-size:10px;font-family:OpenSans;fill:#000000;" text-anchor="middle" x="218.314917" y="156.000000">368</text><line x1="268.591160" x2="268.591160" y1="141.000000" y2="146.000000" stroke="#AAAAAA" /><text style="font-size:10px;font-family:OpenSans;fill:#000000;" text-anchor="middle" x="268.591160" y="156.000000">459</text><line x1="321.629834" x2="321.629834" y1="141.000000" y2="146.000000" stroke="#AAAAAA" /><text style="font-size:10px;font-family:OpenSans;fill:#000000;" text-anchor="middle" x="321.629834" y="156.000000">555</text><line x1="360.856354" x2="360.856354" y1="141.000000" y2="146.000000" stroke="#AAAAAA" /><text style="font-size:10px;font-family:OpenSans;fill:#000000;" text-anchor="middle" x="360.856354" y="156.000000">626</text><line x1="415.000000" x2="415.000000" y1="141.000000" y2="146.000000" stroke="#AAAAAA" /><text style="font-size:10px;font-family:OpenSans;fill:#000000;" text-anchor="middle" x="415.000000" y="156.000000">724</text></g>
<rect fill="#2DCF00" x="4" y="170.000000" width="12" height="12" filter="url(#ds)"/><text style="font-size:12px;font-family:OpenSans;fill:#000000;" text-anchor="start" x="20" y="182.000000">Hyaluronan mediated motility receptor N-terminal</text><rect fill="#FF5353" x="4" y="184.000000" width="12" height="12" filter="url(#ds)"/><text style="font-size:12px;font-family:OpenSans;fill:#000000;" text-anchor="start" x="20" y="196.000000">Hyaluronan mediated motility receptor C-terminal</text></svg>
