<?xml version='1.0'?>
<svg xmlns="http://www.w3.org/2000/svg" xmlns:xlink="http://www.w3.org/1999/xlink" width="430.000000" height="145.500000">
<defs>
  <filter id="ds" x="0" y="0">
    <feOffset in="SourceAlpha" dx="2" dy="2" />
    <feComponentTransfer><feFuncA type="linear" slope="0.2"/></feComponentTransfer>
    <feGaussianBlur result="blurOut" stdDeviation="1" />
    <feBlend in="SourceGraphic" in2="blurOut" mode="normal" />
  </filter>
  <pattern id="disordered-hatch" patternUnits="userSpaceOnUse" width="4" height="4">
    <path d="M-1,1 l2,-2 M0,4 l4,-4 M3,5 l2,-2" stroke="#000000" opacity="0.3" />
  </pattern>
</defs>
<line x1="50.431235" x2="50.431235" y1="34.000000" y2="74.500000" stroke="#BABDB6" stroke-width="2"/><a xlink:title="N76N"><circle cx="50.431235" cy="34.000000" r="4.000000" fill="#0000ff" /></a><g transform="translate(50.431235,34.000000) rotate(-30)"><text style="font-size:10px;font-family:OpenSans;fill:#555;" text-anchor="middle" x="0" y="-6.000000">N76N</text></g><line x1="51.363636" x2="51.363636" y1="46.500000" y2="74.500000" stroke="#BABDB6" stroke-width="2"/><a xlink:title="N78N"><circle cx="51.363636" cy="46.500000" r="4.000000" fill="#0000ff" /></a><g transform="translate(51.363636,46.500000) rotate(-30)"><text style="font-size:10px;font-family:OpenSans;fill:#555;" text-anchor="middle" x="0" y="-6.000000">N78N</text></g><line x1="92.389277" x2="92.389277" y1="34.000000" y2="74.500000" stroke="#BABDB6" stroke-width="2"/><a xlink:title="F166F"><circle cx="92.389277" cy="34.000000" r="4.000000" fill="#0000ff" /></a><g transform="translate(92.389277,34.000000) rotate(-30)"><text style="font-size:10px;font-family:OpenSans;fill:#555;" text-anchor="middle" x="0" y="-6.000000">F166F</text></g><line x1="93.321678" x2="93.321678" y1="46.500000" y2="74.500000" stroke="#BABDB6" stroke-width="2"/><a xlink:title="F168F"><circle cx="93.321678" cy="46.500000" r="4.000000" fill="#0000ff" /></a><g transform="translate(93.321678,46.500000) rotate(-30)"><text style="font-size:10px;font-family:OpenSans;fill:#555;" text-anchor="middle" x="0" y="-6.000000">F168F</text></g><line x1="128.752914" x2="128.752914" y1="34.000000" y2="74.500000" stroke="#BABDB6" stroke-width="2"/><a xlink:title="F244F"><circle cx="128.752914" cy="34.000000" r="4.000000" fill="#0000ff" /></a><g transform="translate(128.752914,34.000000) rotate(-30)"><text style="font-size:10px;font-family:OpenSans;fill:#555;" text-anchor="middle" x="0" y="-6.000000">F244F</text></g><line x1="129.685315" x2="129.685315" y1="46.500000" y2="74.500000" stroke="#BABDB6" stroke-width="2"/><a xlink:title="F246F"><circle cx="129.685315" cy="46.500000" r="4.000000" fill="#0000ff" /></a><g transform="translate(129.685315,46.500000) rotate(-30)"><text style="font-size:10px;font-family:OpenSans;fill:#555;" text-anchor="middle" x="0" y="-6.000000">F246F</text></g><line x1="332.482517" x2="332.482517" y1="46.500000" y2="74.500000" stroke="#BABDB6" stroke-width="2"/><a xlink:title="P681P"><circle cx="332.482517" cy="46.500000" r="4.000000" fill="#0000ff" /></a><g transform="translate(332.482517,46.500000) rotate(-30)"><text style="font-size:10px;font-family:OpenSans;fill:#555;" text-anchor="middle" x="0" y="-6.000000">P681P</text></g><line x1="352.995338" x2="352.995338" y1="34.000000" y2="74.500000" stroke="#BABDB6" stroke-width="2"/><a xlink:title="P725P"><circle cx="352.995338" cy="34.000000" r="4.000000" fill="#0000ff" /></a><g transform="translate(352.995338,34.000000) rotate(-30)"><text style="font-size:10px;font-family:OpenSans;fill:#555;" text-anchor="middle" x="0" y="-6.000000">P725P</text></g><line x1="353.927739" x2="353.927739" y1="46.500000" y2="74.500000" stroke="#BABDB6" stroke-width="2"/><a xlink:title="P727P"><circle cx="353.927739" cy="46.500000" r="4.000000" fill="#0000ff" /></a><g transform="translate(353.927739,46.500000) rotate(-30)"><text style="font-size:10px;font-family:OpenSans;fill:#555;" text-anchor="middle" x="0" y="-6.000000">P727P</text></g><line x1="368.846154" x2="368.846154" y1="34.000000" y2="74.500000" stroke="#BABDB6" stroke-width="2"/><a xlink:title="P759P"><circle cx="368.846154" cy="34.000000" r="4.000000" fill="#0000ff" /></a><g transform="translate(368.846154,34.000000) rotate(-30)"><text style="font-size:10px;font-family:OpenSans;fill:#555;" text-anchor="middle" x="0" y="-6.000000">P759P</text></g><line x1="369.778555" x2="369.778555" y1="46.500000" y2="74.500000" stroke="#BABDB6" stroke-width="2"/><a xlink:title="P761P"><circle cx="369.778555" cy="46.500000" r="4.000000" fill="#0000ff" /></a><g transform="translate(369.778555,46.500000) rotate(-30)"><text style="font-size:10px;font-family:OpenSans;fill:#555;" text-anchor="middle" x="0" y="-6.000000">P761P</text></g><line x1="389.358974" x2="389.358974" y1="34.000000" y2="74.500000" stroke="#BABDB6" stroke-width="2"/><a xlink:title="P803P"><circle cx="389.358974" cy="34.000000" r="4.000000" fill="#0000ff" /></a><g transform="translate(389.358974,34.000000) rotate(-30)"><text style="font-size:10px;font-family:OpenSans;fill:#555;" text-anchor="middle" x="0" y="-6.000000">P803P</text></g><line x1="390.291375" x2="390.291375" y1="46.500000" y2="74.500000" stroke="#BABDB6" stroke-width="2"/><a xlink:title="P805P"><circle cx="390.291375" cy="46.500000" r="4.000000" fill="#0000ff" /></a><g transform="translate(390.291375,46.500000) rotate(-30)"><text style="font-size:10px;font-family:OpenSans;fill:#555;" text-anchor="middle" x="0" y="-6.000000">P805P</text></g><a xlink:title=",  (858aa)"><rect fill="#BABDB6" x="15.000000" y="74.500000" width="400.000000" height="14.000000"/></a><g transform="translate(16.398601,69.500000)"><a xlink:href="https://www.ebi.ac.uk/interpro/entry/pfam/PF00012" xlink:title="Hsp70 protein"><rect fill="#2DCF00" x="0" y="0" width="326.340326" height="24.000000" filter="url(#ds)"/><text style="font-size:12px;font-family:OpenSans;fill:#ffffff;" text-anchor="middle" x="163.170163" y="16.000000">Hsp70 protein</text></a></g>
<g class="axis">
<line x1="15.000000" x2="415.000000" y1="103.500000" y2="103.500000" stroke="#AAAAAA" /><line x1="15.000000" x2="15.000000" y1="103.500000" y2="108.500000" stroke="#AAAAAA" /><line x1="16.398601" x2="16.398601" y1="103.500000" y2="108.500000" stroke="#AAAAAA" /><text style="font-size:10px;font-family:OpenSans;fill:#000000;" text-anchor="middle" x="16.398601" y="118.500000">3</text><line x1="50.431235" x2="50.431235" y1="103.500000" y2="108.500000" stroke="#AAAAAA" /><text style="font-size:10px;font-family:OpenSans;fill:#000000;" text-anchor="middle" x="50.431235" y="118.500000">76</text><line x1="92.389277" x2="92.389277" y1="103.500000" y2="108.500000" stroke="#AAAAAA" /><text style="font-size:10px;font-family:OpenSans;fill:#000000;" text-anchor="middle" x="92.389277" y="118.500000">166</text><line x1="128.752914" x2="128.752914" y1="103.500000" y2="108.500000" stroke="#AAAAAA" /><text style="font-size:10px;font-family:OpenSans;fill:#000000;" text-anchor="middle" x="128.752914" y="118.500000">244</text><line x1="332.482517" x2="332.482517" y1="103.500000" y2="108.500000" stroke="#AAAAAA" /><text style="font-size:10px;font-family:OpenSans;fill:#000000;" text-anchor="middle" x="332.482517" y="118.500000">681</text><line x1="352.995338" x2="352.995338" y1="103.500000" y2="108.500000" stroke="#AAAAAA" /><text style="font-size:10px;font-family:OpenSans;fill:#000000;" text-anchor="middle" x="352.995338" y="118.500000">725</text><line x1="389.358974" x2="389.358974" y1="103.500000" y2="108.500000" stroke="#AAAAAA" /><text style="font-size:10px;font-family:OpenSans;fill:#000000;" text-anchor="middle" x="389.358974" y="118.500000">803</text><line x1="415.000000" x2="415.000000" y1="103.500000" y2="108.500000" stroke="#AAAAAA" /><text style="font-size:10px;font-family:OpenSans;fill:#000000;" text-anchor="middle" x="415.000000" y="118.500000">858</text></g>
</svg>
