<?xml version='1.0'?>
<svg xmlns="http://www.w3.org/2000/svg" xmlns:xlink="http://www.w3.org/1999/xlink" width="853.670455" height="146.200000">
<defs>
  <filter id="ds" x="0" y="0">
    <feOffset in="SourceAlpha" dx="2" dy="2" />
    <feComponentTransfer><feFuncA type="linear" slope="0.2"/></feComponentTransfer>
    <feGaussianBlur result="blurOut" stdDeviation="1" />
    <feBlend in="SourceGraphic" in2="blurOut" mode="normal" />
  </filter>
  <pattern id="disordered-hatch" patternUnits="userSpaceOnUse" width="4" height="4">
    <path d="M-1,1 l2,-2 M0,4 l4,-4 M3,5 l2,-2" stroke="#000000" opacity="0.3" />
  </pattern>
</defs>
<line x1="223.125000" x2="223.125000" y1="34.000000" y2="62.000000" stroke="#BABDB6" stroke-width="2"/><a xlink:title="N165N"><circle cx="223.125000" cy="34.000000" r="4.000000" fill="#0000ff" /></a><g transform="translate(223.125000,34.000000) rotate(-30)"><text style="font-size:10px;font-family:OpenSans;fill:#555;" text-anchor="middle" x="0" y="-6.000000">N165N</text></g><line x1="302.590909" x2="302.590909" y1="34.000000" y2="62.000000" stroke="#BABDB6" stroke-width="2"/><a xlink:title="N228N"><circle cx="302.590909" cy="34.000000" r="4.000000" fill="#0000ff" /></a><g transform="translate(302.590909,34.000000) rotate(-30)"><text style="font-size:10px;font-family:OpenSans;fill:#555;" text-anchor="middle" x="0" y="-6.000000">N228N</text></g><line x1="344.215909" x2="344.215909" y1="34.000000" y2="62.000000" stroke="#BABDB6" stroke-width="2"/><a xlink:title="N261N"><circle cx="344.215909" cy="34.000000" r="4.000000" fill="#0000ff" /></a><g transform="translate(344.215909,34.000000) rotate(-30)"><text style="font-size:10px;font-family:OpenSans;fill:#555;" text-anchor="middle" x="0" y="-6.000000">N261N</text></g><line x1="389.625000" x2="389.625000" y1="34.000000" y2="62.000000" stroke="#BABDB6" stroke-width="2"/><a xlink:title="N297N"><circle cx="389.625000" cy="34.000000" r="4.000000" fill="#0000ff" /></a><g transform="translate(389.625000,34.000000) rotate(-30)"><text style="font-size:10px;font-family:OpenSans;fill:#555;" text-anchor="middle" x="0" y="-6.000000">N297N</text></g><line x1="684.784091" x2="684.784091" y1="34.000000" y2="62.000000" stroke="#BABDB6" stroke-width="2"/><a xlink:title="R531G"><circle cx="684.784091" cy="34.000000" r="4.000000" fill="#ff0000" /></a><g transform="translate(684.784091,34.000000) rotate(-30)"><text style="font-size:10px;font-family:OpenSans;fill:#555;" text-anchor="middle" x="0" y="-6.000000">R531G</text></g><a xlink:title=",  (653aa)"><rect fill="#BABDB6" x="15.000000" y="62.000000" width="823.670455" height="14.000000"/></a><g transform="translate(52.840909,57.000000)"><a xlink:href="https://www.ebi.ac.uk/interpro/entry/pfam/PF01229" xlink:title="Glycosyl hydrolases family 39"><rect fill="#2DCF00" x="0" y="0" width="624.375000" height="24.000000" filter="url(#ds)"/><text style="font-size:12px;font-family:OpenSans;fill:#ffffff;" text-anchor="middle" x="312.187500" y="16.000000">Glycosyl hydrolases family 39</text></a></g>
<g transform="translate(711.272727,57.000000)"><a xlink:href="https://www.ebi.ac.uk/interpro/entry/pfam/PF21200" xlink:title="Alpha-L-iduronidase C-terminal domain"><rect fill="#FF5353" x="0" y="0" width="111.000000" height="24.000000" filter="url(#ds)"/><text style="font-size:12px;font-family:OpenSans;fill:#ffffff;" text-anchor="middle" x="55.500000" y="16.000000">Glyco_hydro_39_C</text></a></g>
<g class="axis">
<line x1="15.000000" x2="838.670455" y1="91.000000" y2="91.000000" stroke="#AAAAAA" /><line x1="15.000000" x2="15.000000" y1="91.000000" y2="96.000000" stroke="#AAAAAA" /><line x1="15.000000" x2="15.000000" y1="91.000000" y2="96.000000" stroke="#AAAAAA" /><text style="font-size:10px;font-family:OpenSans;fill:#000000;" text-anchor="middle" x="15.000000" y="106.000000">0</text><line x1="52.840909" x2="52.840909" y1="91.000000" y2="96.000000" stroke="#AAAAAA" /><text style="font-size:10px;font-family:OpenSans;fill:#000000;" text-anchor="middle" x="52.840909" y="106.000000">30</text><line x1="223.125000" x2="223.125000" y1="91.000000" y2="96.000000" stroke="#AAAAAA" /><text style="font-size:10px;font-family:OpenSans;fill:#000000;" text-anchor="middle" x="223.125000" y="106.000000">165</text><line x1="302.590909" x2="302.590909" y1="91.000000" y2="96.000000" stroke="#AAAAAA" /><text style="font-size:10px;font-family:OpenSans;fill:#000000;" text-anchor="middle" x="302.590909" y="106.000000">228</text><line x1="344.215909" x2="344.215909" y1="91.000000" y2="96.000000" stroke="#AAAAAA" /><text style="font-size:10px;font-family:OpenSans;fill:#000000;" text-anchor="middle" x="344.215909" y="106.000000">261</text><line x1="389.625000" x2="389.625000" y1="91.000000" y2="96.000000" stroke="#AAAAAA" /><text style="font-size:10px;font-family:OpenSans;fill:#000000;" text-anchor="middle" x="389.625000" y="106.000000">297</text><line x1="684.784091" x2="684.784091" y1="91.000000" y2="96.000000" stroke="#AAAAAA" /><text style="font-size:10px;font-family:OpenSans;fill:#000000;" text-anchor="middle" x="684.784091" y="106.000000">531</text><line x1="711.272727" x2="711.272727" y1="91.000000" y2="96.000000" stroke="#AAAAAA" /><text style="font-size:10px;font-family:OpenSans;fill:#000000;" text-anchor="middle" x="711.272727" y="106.000000">552</text><line x1="838.670455" x2="838.670455" y1="91.000000" y2="96.000000" stroke="#AAAAAA" /><text style="font-size:10px;font-family:OpenSans;fill:#000000;" text-anchor="middle" x="838.670455" y="106.000000">653</text></g>
<rect fill="#FF5353" x="4" y="120.000000" width="12" height="12" filter="url(#ds)"/><text style="font-size:12px;font-family:OpenSans;fill:#000000;" text-anchor="start" x="20" y="132.000000">Alpha-L-iduronidase C-terminal domain</text></svg>
