<?xml version='1.0'?>
<svg xmlns="http://www.w3.org/2000/svg" xmlns:xlink="http://www.w3.org/1999/xlink" width="908.388889" height="159.400000">
<defs>
  <filter id="ds" x="0" y="0">
    <feOffset in="SourceAlpha" dx="2" dy="2" />
    <feComponentTransfer><feFuncA type="linear" slope="0.2"/></feComponentTransfer>
    <feGaussianBlur result="blurOut" stdDeviation="1" />
    <feBlend in="SourceGraphic" in2="blurOut" mode="normal" />
  </filter>
  <pattern id="disordered-hatch" patternUnits="userSpaceOnUse" width="4" height="4">
    <path d="M-1,1 l2,-2 M0,4 l4,-4 M3,5 l2,-2" stroke="#000000" opacity="0.3" />
  </pattern>
</defs>
<line x1="43.740741" x2="43.740741" y1="34.000000" y2="62.000000" stroke="#BABDB6" stroke-width="2"/><a xlink:title="R16R"><circle cx="43.740741" cy="34.000000" r="4.000000" fill="#0000ff" /></a><g transform="translate(43.740741,34.000000) rotate(-30)"><text style="font-size:10px;font-family:OpenSans;fill:#555;" text-anchor="middle" x="0" y="-6.000000">R16R</text></g><a xlink:title=",  (489aa)"><rect fill="#BABDB6" x="15.000000" y="62.000000" width="878.388889" height="14.000000"/></a><g transform="translate(52.722222,57.000000)"><a xlink:href="https://www.ebi.ac.uk/interpro/entry/pfam/PF01108" xlink:title="Tissue factor"><rect fill="#2DCF00" x="0" y="0" width="163.462963" height="24.000000" filter="url(#ds)"/><text style="font-size:12px;font-family:OpenSans;fill:#ffffff;" text-anchor="middle" x="81.731481" y="16.000000">Tissue factor</text></a></g>
<g transform="translate(252.111111,57.000000)"><a xlink:href="https://www.ebi.ac.uk/interpro/entry/pfam/PF07140" xlink:title="Interferon gamma receptor (IFNGR1), D2 domain"><rect fill="#FF5353" x="0" y="0" width="194.000000" height="24.000000" filter="url(#ds)"/><text style="font-size:12px;font-family:OpenSans;fill:#ffffff;" text-anchor="middle" x="97.000000" y="16.000000">IFNGR1_D2</text></a></g>
<g transform="translate(487.425926,57.000000)"><a xlink:href="https://www.ebi.ac.uk/interpro/entry/pfam/PF20634" xlink:title="Interferon gamma receptor 1, transmembrane region"><rect fill="#5B5BFF" x="0" y="0" width="97.000000" height="24.000000" filter="url(#ds)"/><text style="font-size:12px;font-family:OpenSans;fill:#ffffff;" text-anchor="middle" x="48.500000" y="16.000000">IFNGR1_transm</text></a></g>
<g class="axis">
<line x1="15.000000" x2="893.388889" y1="91.000000" y2="91.000000" stroke="#AAAAAA" /><line x1="15.000000" x2="15.000000" y1="91.000000" y2="96.000000" stroke="#AAAAAA" /><line x1="15.000000" x2="15.000000" y1="91.000000" y2="96.000000" stroke="#AAAAAA" /><text style="font-size:10px;font-family:OpenSans;fill:#000000;" text-anchor="middle" x="15.000000" y="106.000000">0</text><line x1="43.740741" x2="43.740741" y1="91.000000" y2="96.000000" stroke="#AAAAAA" /><text style="font-size:10px;font-family:OpenSans;fill:#000000;" text-anchor="middle" x="43.740741" y="106.000000">16</text><line x1="216.185185" x2="216.185185" y1="91.000000" y2="96.000000" stroke="#AAAAAA" /><text style="font-size:10px;font-family:OpenSans;fill:#000000;" text-anchor="middle" x="216.185185" y="106.000000">112</text><line x1="252.111111" x2="252.111111" y1="91.000000" y2="96.000000" stroke="#AAAAAA" /><text style="font-size:10px;font-family:OpenSans;fill:#000000;" text-anchor="middle" x="252.111111" y="106.000000">132</text><line x1="446.111111" x2="446.111111" y1="91.000000" y2="96.000000" stroke="#AAAAAA" /><text style="font-size:10px;font-family:OpenSans;fill:#000000;" text-anchor="middle" x="446.111111" y="106.000000">240</text><line x1="487.425926" x2="487.425926" y1="91.000000" y2="96.000000" stroke="#AAAAAA" /><text style="font-size:10px;font-family:OpenSans;fill:#000000;" text-anchor="middle" x="487.425926" y="106.000000">263</text><line x1="584.425926" x2="584.425926" y1="91.000000" y2="96.000000" stroke="#AAAAAA" /><text style="font-size:10px;font-family:OpenSans;fill:#000000;" text-anchor="middle" x="584.425926" y="106.000000">317</text><line x1="893.388889" x2="893.388889" y1="91.000000" y2="96.000000" stroke="#AAAAAA" /><text style="font-size:10px;font-family:OpenSans;fill:#000000;" text-anchor="middle" x="893.388889" y="106.000000">489</text></g>
<rect fill="#FF5353" x="4" y="120.000000" width="12" height="12" filter="url(#ds)"/><text style="font-size:12px;font-family:OpenSans;fill:#000000;" text-anchor="start" x="20" y="132.000000">Interferon gamma receptor (IFNGR1), D2 domain</text><rect fill="#5B5BFF" x="4" y="134.000000" width="12" height="12" filter="url(#ds)"/><text style="font-size:12px;font-family:OpenSans;fill:#000000;" text-anchor="start" x="20" y="146.000000">Interferon gamma receptor 1, transmembrane region</text></svg>
