<?xml version='1.0'?>
<svg xmlns="http://www.w3.org/2000/svg" xmlns:xlink="http://www.w3.org/1999/xlink" width="430.000000" height="158.000000">
<defs>
  <filter id="ds" x="0" y="0">
    <feOffset in="SourceAlpha" dx="2" dy="2" />
    <feComponentTransfer><feFuncA type="linear" slope="0.2"/></feComponentTransfer>
    <feGaussianBlur result="blurOut" stdDeviation="1" />
    <feBlend in="SourceGraphic" in2="blurOut" mode="normal" />
  </filter>
  <pattern id="disordered-hatch" patternUnits="userSpaceOnUse" width="4" height="4">
    <path d="M-1,1 l2,-2 M0,4 l4,-4 M3,5 l2,-2" stroke="#000000" opacity="0.3" />
  </pattern>
</defs>
<line x1="177.962963" x2="177.962963" y1="59.000000" y2="87.000000" stroke="#BABDB6" stroke-width="2"/><a xlink:title="D242E"><circle cx="177.962963" cy="59.000000" r="4.000000" fill="#ff0000" /></a><g transform="translate(177.962963,59.000000) rotate(-30)"><text style="font-size:10px;font-family:OpenSans;fill:#555;" text-anchor="middle" x="0" y="-6.000000">D242E</text></g><line x1="311.296296" x2="311.296296" y1="34.000000" y2="87.000000" stroke="#BABDB6" stroke-width="2"/><a xlink:title="D440E"><circle cx="311.296296" cy="34.000000" r="4.000000" fill="#ff0000" /></a><g transform="translate(311.296296,34.000000) rotate(-30)"><text style="font-size:10px;font-family:OpenSans;fill:#555;" text-anchor="middle" x="0" y="-6.000000">D440E</text></g><line x1="314.663300" x2="314.663300" y1="46.500000" y2="87.000000" stroke="#BABDB6" stroke-width="2"/><a xlink:title="D445E"><circle cx="314.663300" cy="46.500000" r="4.000000" fill="#ff0000" /></a><g transform="translate(314.663300,46.500000) rotate(-30)"><text style="font-size:10px;font-family:OpenSans;fill:#555;" text-anchor="middle" x="0" y="-6.000000">D445E</text></g><line x1="316.010101" x2="316.010101" y1="59.000000" y2="87.000000" stroke="#BABDB6" stroke-width="2"/><a xlink:title="D447E"><circle cx="316.010101" cy="59.000000" r="4.000000" fill="#ff0000" /></a><g transform="translate(316.010101,59.000000) rotate(-30)"><text style="font-size:10px;font-family:OpenSans;fill:#555;" text-anchor="middle" x="0" y="-6.000000">D447E</text></g><a xlink:title=",  (594aa)"><rect fill="#BABDB6" x="15.000000" y="87.000000" width="400.000000" height="14.000000"/></a><g transform="translate(27.794613,82.000000)"><a xlink:href="https://www.ebi.ac.uk/interpro/entry/pfam/PF15771" xlink:title="Interactor of HORMAD1 protein 1"><rect fill="#2DCF00" x="0" y="0" width="385.185185" height="24.000000" filter="url(#ds)"/><text style="font-size:12px;font-family:OpenSans;fill:#ffffff;" text-anchor="middle" x="192.592593" y="16.000000">Interactor of HORMAD1 protein 1</text></a></g>
<g class="axis">
<line x1="15.000000" x2="415.000000" y1="116.000000" y2="116.000000" stroke="#AAAAAA" /><line x1="15.000000" x2="15.000000" y1="116.000000" y2="121.000000" stroke="#AAAAAA" /><line x1="27.794613" x2="27.794613" y1="116.000000" y2="121.000000" stroke="#AAAAAA" /><text style="font-size:10px;font-family:OpenSans;fill:#000000;" text-anchor="middle" x="27.794613" y="131.000000">19</text><line x1="177.962963" x2="177.962963" y1="116.000000" y2="121.000000" stroke="#AAAAAA" /><text style="font-size:10px;font-family:OpenSans;fill:#000000;" text-anchor="middle" x="177.962963" y="131.000000">242</text><line x1="311.296296" x2="311.296296" y1="116.000000" y2="121.000000" stroke="#AAAAAA" /><text style="font-size:10px;font-family:OpenSans;fill:#000000;" text-anchor="middle" x="311.296296" y="131.000000">440</text><line x1="415.000000" x2="415.000000" y1="116.000000" y2="121.000000" stroke="#AAAAAA" /><text style="font-size:10px;font-family:OpenSans;fill:#000000;" text-anchor="middle" x="415.000000" y="131.000000">594</text></g>
</svg>
