<?xml version='1.0'?>
<svg xmlns="http://www.w3.org/2000/svg" xmlns:xlink="http://www.w3.org/1999/xlink" width="517.903226" height="196.200000">
<defs>
  <filter id="ds" x="0" y="0">
    <feOffset in="SourceAlpha" dx="2" dy="2" />
    <feComponentTransfer><feFuncA type="linear" slope="0.2"/></feComponentTransfer>
    <feGaussianBlur result="blurOut" stdDeviation="1" />
    <feBlend in="SourceGraphic" in2="blurOut" mode="normal" />
  </filter>
  <pattern id="disordered-hatch" patternUnits="userSpaceOnUse" width="4" height="4">
    <path d="M-1,1 l2,-2 M0,4 l4,-4 M3,5 l2,-2" stroke="#000000" opacity="0.3" />
  </pattern>
</defs>
<line x1="30.376344" x2="30.376344" y1="71.500000" y2="112.000000" stroke="#BABDB6" stroke-width="2"/><a xlink:title="V26V"><circle cx="30.376344" cy="71.500000" r="4.000000" fill="#0000ff" /></a><g transform="translate(30.376344,71.500000) rotate(-30)"><text style="font-size:10px;font-family:OpenSans;fill:#555;" text-anchor="middle" x="0" y="-6.000000">V26V</text></g><line x1="34.516129" x2="34.516129" y1="84.000000" y2="112.000000" stroke="#BABDB6" stroke-width="2"/><a xlink:title="A33A"><circle cx="34.516129" cy="84.000000" r="4.000000" fill="#0000ff" /></a><g transform="translate(34.516129,84.000000) rotate(-30)"><text style="font-size:10px;font-family:OpenSans;fill:#555;" text-anchor="middle" x="0" y="-6.000000">A33A</text></g><line x1="50.483871" x2="50.483871" y1="59.000000" y2="112.000000" stroke="#BABDB6" stroke-width="2"/><a xlink:title="I60V"><circle cx="50.483871" cy="59.000000" r="4.000000" fill="#ff0000" /></a><g transform="translate(50.483871,59.000000) rotate(-30)"><text style="font-size:10px;font-family:OpenSans;fill:#555;" text-anchor="middle" x="0" y="-6.000000">I60V</text></g><line x1="54.623656" x2="54.623656" y1="59.000000" y2="112.000000" stroke="#BABDB6" stroke-width="2"/><a xlink:title="A67T"><circle cx="54.623656" cy="59.000000" r="4.000000" fill="#ff0000" /></a><g transform="translate(54.623656,59.000000) rotate(-30)"><text style="font-size:10px;font-family:OpenSans;fill:#555;" text-anchor="middle" x="0" y="-6.000000">A67T</text></g><line x1="54.623656" x2="54.623656" y1="71.500000" y2="112.000000" stroke="#BABDB6" stroke-width="2"/><a xlink:title="A67P"><circle cx="54.623656" cy="71.500000" r="4.000000" fill="#ff0000" /></a><g transform="translate(54.623656,71.500000) rotate(-30)"><text style="font-size:10px;font-family:OpenSans;fill:#555;" text-anchor="middle" x="0" y="-6.000000">A67P</text></g><line x1="59.354839" x2="59.354839" y1="59.000000" y2="112.000000" stroke="#BABDB6" stroke-width="2"/><a xlink:title="I75V"><circle cx="59.354839" cy="59.000000" r="4.000000" fill="#ff0000" /></a><g transform="translate(59.354839,59.000000) rotate(-30)"><text style="font-size:10px;font-family:OpenSans;fill:#555;" text-anchor="middle" x="0" y="-6.000000">I75V</text></g><line x1="63.494624" x2="63.494624" y1="71.500000" y2="112.000000" stroke="#BABDB6" stroke-width="2"/><a xlink:title="A82T"><circle cx="63.494624" cy="71.500000" r="4.000000" fill="#ff0000" /></a><g transform="translate(63.494624,71.500000) rotate(-30)"><text style="font-size:10px;font-family:OpenSans;fill:#555;" text-anchor="middle" x="0" y="-6.000000">A82T</text></g><line x1="63.494624" x2="63.494624" y1="84.000000" y2="112.000000" stroke="#BABDB6" stroke-width="2"/><a xlink:title="A82P"><circle cx="63.494624" cy="84.000000" r="4.000000" fill="#ff0000" /></a><g transform="translate(63.494624,84.000000) rotate(-30)"><text style="font-size:10px;font-family:OpenSans;fill:#555;" text-anchor="middle" x="0" y="-6.000000">A82P</text></g><line x1="74.139785" x2="74.139785" y1="46.500000" y2="112.000000" stroke="#BABDB6" stroke-width="2"/><a xlink:title="I100V"><circle cx="74.139785" cy="46.500000" r="4.000000" fill="#ff0000" /></a><g transform="translate(74.139785,46.500000) rotate(-30)"><text style="font-size:10px;font-family:OpenSans;fill:#555;" text-anchor="middle" x="0" y="-6.000000">I100V</text></g><line x1="75.913978" x2="75.913978" y1="59.000000" y2="112.000000" stroke="#BABDB6" stroke-width="2"/><a xlink:title="E103A"><circle cx="75.913978" cy="59.000000" r="4.000000" fill="#ff0000" /></a><g transform="translate(75.913978,59.000000) rotate(-30)"><text style="font-size:10px;font-family:OpenSans;fill:#555;" text-anchor="middle" x="0" y="-6.000000">E103A</text></g><line x1="78.279570" x2="78.279570" y1="59.000000" y2="112.000000" stroke="#BABDB6" stroke-width="2"/><a xlink:title="A107T"><circle cx="78.279570" cy="59.000000" r="4.000000" fill="#ff0000" /></a><g transform="translate(78.279570,59.000000) rotate(-30)"><text style="font-size:10px;font-family:OpenSans;fill:#555;" text-anchor="middle" x="0" y="-6.000000">A107T</text></g><line x1="78.279570" x2="78.279570" y1="71.500000" y2="112.000000" stroke="#BABDB6" stroke-width="2"/><a xlink:title="A107P"><circle cx="78.279570" cy="71.500000" r="4.000000" fill="#ff0000" /></a><g transform="translate(78.279570,71.500000) rotate(-30)"><text style="font-size:10px;font-family:OpenSans;fill:#555;" text-anchor="middle" x="0" y="-6.000000">A107P</text></g><line x1="84.193548" x2="84.193548" y1="84.000000" y2="112.000000" stroke="#BABDB6" stroke-width="2"/><a xlink:title="L117L"><circle cx="84.193548" cy="84.000000" r="4.000000" fill="#0000ff" /></a><g transform="translate(84.193548,84.000000) rotate(-30)"><text style="font-size:10px;font-family:OpenSans;fill:#555;" text-anchor="middle" x="0" y="-6.000000">L117L</text></g><line x1="94.247312" x2="94.247312" y1="71.500000" y2="112.000000" stroke="#BABDB6" stroke-width="2"/><a xlink:title="C134R"><circle cx="94.247312" cy="71.500000" r="4.000000" fill="#ff0000" /></a><g transform="translate(94.247312,71.500000) rotate(-30)"><text style="font-size:10px;font-family:OpenSans;fill:#555;" text-anchor="middle" x="0" y="-6.000000">C134R</text></g><line x1="95.430108" x2="95.430108" y1="84.000000" y2="112.000000" stroke="#BABDB6" stroke-width="2"/><a xlink:title="L136L"><circle cx="95.430108" cy="84.000000" r="4.000000" fill="#0000ff" /></a><g transform="translate(95.430108,84.000000) rotate(-30)"><text style="font-size:10px;font-family:OpenSans;fill:#555;" text-anchor="middle" x="0" y="-6.000000">L136L</text></g><line x1="136.827957" x2="136.827957" y1="84.000000" y2="112.000000" stroke="#BABDB6" stroke-width="2"/><a xlink:title="S206P"><circle cx="136.827957" cy="84.000000" r="4.000000" fill="#ff0000" /></a><g transform="translate(136.827957,84.000000) rotate(-30)"><text style="font-size:10px;font-family:OpenSans;fill:#555;" text-anchor="middle" x="0" y="-6.000000">S206P</text></g><line x1="156.935484" x2="156.935484" y1="84.000000" y2="112.000000" stroke="#BABDB6" stroke-width="2"/><a xlink:title="E240A"><circle cx="156.935484" cy="84.000000" r="4.000000" fill="#ff0000" /></a><g transform="translate(156.935484,84.000000) rotate(-30)"><text style="font-size:10px;font-family:OpenSans;fill:#555;" text-anchor="middle" x="0" y="-6.000000">E240A</text></g><line x1="165.215054" x2="165.215054" y1="71.500000" y2="112.000000" stroke="#BABDB6" stroke-width="2"/><a xlink:title="L254L"><circle cx="165.215054" cy="71.500000" r="4.000000" fill="#0000ff" /></a><g transform="translate(165.215054,71.500000) rotate(-30)"><text style="font-size:10px;font-family:OpenSans;fill:#555;" text-anchor="middle" x="0" y="-6.000000">L254L</text></g><line x1="168.172043" x2="168.172043" y1="84.000000" y2="112.000000" stroke="#BABDB6" stroke-width="2"/><a xlink:title="E259A"><circle cx="168.172043" cy="84.000000" r="4.000000" fill="#ff0000" /></a><g transform="translate(168.172043,84.000000) rotate(-30)"><text style="font-size:10px;font-family:OpenSans;fill:#555;" text-anchor="middle" x="0" y="-6.000000">E259A</text></g><line x1="175.268817" x2="175.268817" y1="59.000000" y2="112.000000" stroke="#BABDB6" stroke-width="2"/><a xlink:title="C271R"><circle cx="175.268817" cy="59.000000" r="4.000000" fill="#ff0000" /></a><g transform="translate(175.268817,59.000000) rotate(-30)"><text style="font-size:10px;font-family:OpenSans;fill:#555;" text-anchor="middle" x="0" y="-6.000000">C271R</text></g><line x1="176.451613" x2="176.451613" y1="71.500000" y2="112.000000" stroke="#BABDB6" stroke-width="2"/><a xlink:title="L273L"><circle cx="176.451613" cy="71.500000" r="4.000000" fill="#0000ff" /></a><g transform="translate(176.451613,71.500000) rotate(-30)"><text style="font-size:10px;font-family:OpenSans;fill:#555;" text-anchor="middle" x="0" y="-6.000000">L273L</text></g><line x1="180.000000" x2="180.000000" y1="84.000000" y2="112.000000" stroke="#BABDB6" stroke-width="2"/><a xlink:title="Q279R"><circle cx="180.000000" cy="84.000000" r="4.000000" fill="#ff0000" /></a><g transform="translate(180.000000,84.000000) rotate(-30)"><text style="font-size:10px;font-family:OpenSans;fill:#555;" text-anchor="middle" x="0" y="-6.000000">Q279R</text></g><line x1="186.505376" x2="186.505376" y1="71.500000" y2="112.000000" stroke="#BABDB6" stroke-width="2"/><a xlink:title="C290R"><circle cx="186.505376" cy="71.500000" r="4.000000" fill="#ff0000" /></a><g transform="translate(186.505376,71.500000) rotate(-30)"><text style="font-size:10px;font-family:OpenSans;fill:#555;" text-anchor="middle" x="0" y="-6.000000">C290R</text></g><line x1="187.688172" x2="187.688172" y1="71.500000" y2="112.000000" stroke="#BABDB6" stroke-width="2"/><a xlink:title="L292L"><circle cx="187.688172" cy="71.500000" r="4.000000" fill="#0000ff" /></a><g transform="translate(187.688172,71.500000) rotate(-30)"><text style="font-size:10px;font-family:OpenSans;fill:#555;" text-anchor="middle" x="0" y="-6.000000">L292L</text></g><line x1="193.010753" x2="193.010753" y1="71.500000" y2="112.000000" stroke="#BABDB6" stroke-width="2"/><a xlink:title="E301A"><circle cx="193.010753" cy="71.500000" r="4.000000" fill="#ff0000" /></a><g transform="translate(193.010753,71.500000) rotate(-30)"><text style="font-size:10px;font-family:OpenSans;fill:#555;" text-anchor="middle" x="0" y="-6.000000">E301A</text></g><line x1="198.924731" x2="198.924731" y1="71.500000" y2="112.000000" stroke="#BABDB6" stroke-width="2"/><a xlink:title="E311A"><circle cx="198.924731" cy="71.500000" r="4.000000" fill="#ff0000" /></a><g transform="translate(198.924731,71.500000) rotate(-30)"><text style="font-size:10px;font-family:OpenSans;fill:#555;" text-anchor="middle" x="0" y="-6.000000">E311A</text></g><line x1="201.290323" x2="201.290323" y1="71.500000" y2="112.000000" stroke="#BABDB6" stroke-width="2"/><a xlink:title="L315L"><circle cx="201.290323" cy="71.500000" r="4.000000" fill="#0000ff" /></a><g transform="translate(201.290323,71.500000) rotate(-30)"><text style="font-size:10px;font-family:OpenSans;fill:#555;" text-anchor="middle" x="0" y="-6.000000">L315L</text></g><line x1="207.204301" x2="207.204301" y1="59.000000" y2="112.000000" stroke="#BABDB6" stroke-width="2"/><a xlink:title="L325L"><circle cx="207.204301" cy="59.000000" r="4.000000" fill="#0000ff" /></a><g transform="translate(207.204301,59.000000) rotate(-30)"><text style="font-size:10px;font-family:OpenSans;fill:#555;" text-anchor="middle" x="0" y="-6.000000">L325L</text></g><line x1="211.344086" x2="211.344086" y1="59.000000" y2="112.000000" stroke="#BABDB6" stroke-width="2"/><a xlink:title="C332R"><circle cx="211.344086" cy="59.000000" r="4.000000" fill="#ff0000" /></a><g transform="translate(211.344086,59.000000) rotate(-30)"><text style="font-size:10px;font-family:OpenSans;fill:#555;" text-anchor="middle" x="0" y="-6.000000">C332R</text></g><line x1="212.526882" x2="212.526882" y1="46.500000" y2="112.000000" stroke="#BABDB6" stroke-width="2"/><a xlink:title="L334L"><circle cx="212.526882" cy="46.500000" r="4.000000" fill="#0000ff" /></a><g transform="translate(212.526882,46.500000) rotate(-30)"><text style="font-size:10px;font-family:OpenSans;fill:#555;" text-anchor="middle" x="0" y="-6.000000">L334L</text></g><line x1="217.258065" x2="217.258065" y1="59.000000" y2="112.000000" stroke="#BABDB6" stroke-width="2"/><a xlink:title="C342R"><circle cx="217.258065" cy="59.000000" r="4.000000" fill="#ff0000" /></a><g transform="translate(217.258065,59.000000) rotate(-30)"><text style="font-size:10px;font-family:OpenSans;fill:#555;" text-anchor="middle" x="0" y="-6.000000">C342R</text></g><line x1="217.849462" x2="217.849462" y1="71.500000" y2="112.000000" stroke="#BABDB6" stroke-width="2"/><a xlink:title="S343P"><circle cx="217.849462" cy="71.500000" r="4.000000" fill="#ff0000" /></a><g transform="translate(217.849462,71.500000) rotate(-30)"><text style="font-size:10px;font-family:OpenSans;fill:#555;" text-anchor="middle" x="0" y="-6.000000">S343P</text></g><line x1="218.440860" x2="218.440860" y1="84.000000" y2="112.000000" stroke="#BABDB6" stroke-width="2"/><a xlink:title="L344L"><circle cx="218.440860" cy="84.000000" r="4.000000" fill="#0000ff" /></a><g transform="translate(218.440860,84.000000) rotate(-30)"><text style="font-size:10px;font-family:OpenSans;fill:#555;" text-anchor="middle" x="0" y="-6.000000">L344L</text></g><line x1="229.086022" x2="229.086022" y1="84.000000" y2="112.000000" stroke="#BABDB6" stroke-width="2"/><a xlink:title="S362P"><circle cx="229.086022" cy="84.000000" r="4.000000" fill="#ff0000" /></a><g transform="translate(229.086022,84.000000) rotate(-30)"><text style="font-size:10px;font-family:OpenSans;fill:#555;" text-anchor="middle" x="0" y="-6.000000">S362P</text></g><line x1="242.688172" x2="242.688172" y1="84.000000" y2="112.000000" stroke="#BABDB6" stroke-width="2"/><a xlink:title="E385A"><circle cx="242.688172" cy="84.000000" r="4.000000" fill="#ff0000" /></a><g transform="translate(242.688172,84.000000) rotate(-30)"><text style="font-size:10px;font-family:OpenSans;fill:#555;" text-anchor="middle" x="0" y="-6.000000">E385A</text></g><line x1="250.967742" x2="250.967742" y1="59.000000" y2="112.000000" stroke="#BABDB6" stroke-width="2"/><a xlink:title="L399L"><circle cx="250.967742" cy="59.000000" r="4.000000" fill="#0000ff" /></a><g transform="translate(250.967742,59.000000) rotate(-30)"><text style="font-size:10px;font-family:OpenSans;fill:#555;" text-anchor="middle" x="0" y="-6.000000">L399L</text></g><line x1="251.559140" x2="251.559140" y1="71.500000" y2="112.000000" stroke="#BABDB6" stroke-width="2"/><a xlink:title="E400A"><circle cx="251.559140" cy="71.500000" r="4.000000" fill="#ff0000" /></a><g transform="translate(251.559140,71.500000) rotate(-30)"><text style="font-size:10px;font-family:OpenSans;fill:#555;" text-anchor="middle" x="0" y="-6.000000">E400A</text></g><line x1="253.924731" x2="253.924731" y1="59.000000" y2="112.000000" stroke="#BABDB6" stroke-width="2"/><a xlink:title="S404P"><circle cx="253.924731" cy="59.000000" r="4.000000" fill="#ff0000" /></a><g transform="translate(253.924731,59.000000) rotate(-30)"><text style="font-size:10px;font-family:OpenSans;fill:#555;" text-anchor="middle" x="0" y="-6.000000">S404P</text></g><line x1="259.838710" x2="259.838710" y1="34.000000" y2="112.000000" stroke="#BABDB6" stroke-width="2"/><a xlink:title="L414L"><circle cx="259.838710" cy="34.000000" r="4.000000" fill="#0000ff" /></a><g transform="translate(259.838710,34.000000) rotate(-30)"><text style="font-size:10px;font-family:OpenSans;fill:#555;" text-anchor="middle" x="0" y="-6.000000">L414L</text></g><line x1="259.838710" x2="259.838710" y1="46.500000" y2="112.000000" stroke="#BABDB6" stroke-width="2"/><a xlink:title="S414P"><circle cx="259.838710" cy="46.500000" r="4.000000" fill="#ff0000" /></a><g transform="translate(259.838710,46.500000) rotate(-30)"><text style="font-size:10px;font-family:OpenSans;fill:#555;" text-anchor="middle" x="0" y="-6.000000">S414P</text></g><line x1="261.021505" x2="261.021505" y1="46.500000" y2="112.000000" stroke="#BABDB6" stroke-width="2"/><a xlink:title="C416R"><circle cx="261.021505" cy="46.500000" r="4.000000" fill="#ff0000" /></a><g transform="translate(261.021505,46.500000) rotate(-30)"><text style="font-size:10px;font-family:OpenSans;fill:#555;" text-anchor="middle" x="0" y="-6.000000">C416R</text></g><line x1="261.021505" x2="261.021505" y1="59.000000" y2="112.000000" stroke="#BABDB6" stroke-width="2"/><a xlink:title="Q416R"><circle cx="261.021505" cy="59.000000" r="4.000000" fill="#ff0000" /></a><g transform="translate(261.021505,59.000000) rotate(-30)"><text style="font-size:10px;font-family:OpenSans;fill:#555;" text-anchor="middle" x="0" y="-6.000000">Q416R</text></g><line x1="262.204301" x2="262.204301" y1="71.500000" y2="112.000000" stroke="#BABDB6" stroke-width="2"/><a xlink:title="L418L"><circle cx="262.204301" cy="71.500000" r="4.000000" fill="#0000ff" /></a><g transform="translate(262.204301,71.500000) rotate(-30)"><text style="font-size:10px;font-family:OpenSans;fill:#555;" text-anchor="middle" x="0" y="-6.000000">L418L</text></g><line x1="266.344086" x2="266.344086" y1="46.500000" y2="112.000000" stroke="#BABDB6" stroke-width="2"/><a xlink:title="E425A"><circle cx="266.344086" cy="46.500000" r="4.000000" fill="#ff0000" /></a><g transform="translate(266.344086,46.500000) rotate(-30)"><text style="font-size:10px;font-family:OpenSans;fill:#555;" text-anchor="middle" x="0" y="-6.000000">E425A</text></g><line x1="269.892473" x2="269.892473" y1="46.500000" y2="112.000000" stroke="#BABDB6" stroke-width="2"/><a xlink:title="C431R"><circle cx="269.892473" cy="46.500000" r="4.000000" fill="#ff0000" /></a><g transform="translate(269.892473,46.500000) rotate(-30)"><text style="font-size:10px;font-family:OpenSans;fill:#555;" text-anchor="middle" x="0" y="-6.000000">C431R</text></g><line x1="271.075269" x2="271.075269" y1="59.000000" y2="112.000000" stroke="#BABDB6" stroke-width="2"/><a xlink:title="L433L"><circle cx="271.075269" cy="59.000000" r="4.000000" fill="#0000ff" /></a><g transform="translate(271.075269,59.000000) rotate(-30)"><text style="font-size:10px;font-family:OpenSans;fill:#555;" text-anchor="middle" x="0" y="-6.000000">L433L</text></g><line x1="272.258065" x2="272.258065" y1="71.500000" y2="112.000000" stroke="#BABDB6" stroke-width="2"/><a xlink:title="Q435R"><circle cx="272.258065" cy="71.500000" r="4.000000" fill="#ff0000" /></a><g transform="translate(272.258065,71.500000) rotate(-30)"><text style="font-size:10px;font-family:OpenSans;fill:#555;" text-anchor="middle" x="0" y="-6.000000">Q435R</text></g><line x1="274.623656" x2="274.623656" y1="84.000000" y2="112.000000" stroke="#BABDB6" stroke-width="2"/><a xlink:title="L439L"><circle cx="274.623656" cy="84.000000" r="4.000000" fill="#0000ff" /></a><g transform="translate(274.623656,84.000000) rotate(-30)"><text style="font-size:10px;font-family:OpenSans;fill:#555;" text-anchor="middle" x="0" y="-6.000000">L439L</text></g><line x1="284.677419" x2="284.677419" y1="71.500000" y2="112.000000" stroke="#BABDB6" stroke-width="2"/><a xlink:title="C456R"><circle cx="284.677419" cy="71.500000" r="4.000000" fill="#ff0000" /></a><g transform="translate(284.677419,71.500000) rotate(-30)"><text style="font-size:10px;font-family:OpenSans;fill:#555;" text-anchor="middle" x="0" y="-6.000000">C456R</text></g><line x1="285.860215" x2="285.860215" y1="84.000000" y2="112.000000" stroke="#BABDB6" stroke-width="2"/><a xlink:title="L458L"><circle cx="285.860215" cy="84.000000" r="4.000000" fill="#0000ff" /></a><g transform="translate(285.860215,84.000000) rotate(-30)"><text style="font-size:10px;font-family:OpenSans;fill:#555;" text-anchor="middle" x="0" y="-6.000000">L458L</text></g><line x1="297.096774" x2="297.096774" y1="71.500000" y2="112.000000" stroke="#BABDB6" stroke-width="2"/><a xlink:title="Q477R"><circle cx="297.096774" cy="71.500000" r="4.000000" fill="#ff0000" /></a><g transform="translate(297.096774,71.500000) rotate(-30)"><text style="font-size:10px;font-family:OpenSans;fill:#555;" text-anchor="middle" x="0" y="-6.000000">Q477R</text></g><line x1="303.010753" x2="303.010753" y1="71.500000" y2="112.000000" stroke="#BABDB6" stroke-width="2"/><a xlink:title="Q487R"><circle cx="303.010753" cy="71.500000" r="4.000000" fill="#ff0000" /></a><g transform="translate(303.010753,71.500000) rotate(-30)"><text style="font-size:10px;font-family:OpenSans;fill:#555;" text-anchor="middle" x="0" y="-6.000000">Q487R</text></g><line x1="303.602151" x2="303.602151" y1="84.000000" y2="112.000000" stroke="#BABDB6" stroke-width="2"/><a xlink:title="S488P"><circle cx="303.602151" cy="84.000000" r="4.000000" fill="#ff0000" /></a><g transform="translate(303.602151,84.000000) rotate(-30)"><text style="font-size:10px;font-family:OpenSans;fill:#555;" text-anchor="middle" x="0" y="-6.000000">S488P</text></g><line x1="312.473118" x2="312.473118" y1="84.000000" y2="112.000000" stroke="#BABDB6" stroke-width="2"/><a xlink:title="S503P"><circle cx="312.473118" cy="84.000000" r="4.000000" fill="#ff0000" /></a><g transform="translate(312.473118,84.000000) rotate(-30)"><text style="font-size:10px;font-family:OpenSans;fill:#555;" text-anchor="middle" x="0" y="-6.000000">S503P</text></g><line x1="327.258065" x2="327.258065" y1="84.000000" y2="112.000000" stroke="#BABDB6" stroke-width="2"/><a xlink:title="S528P"><circle cx="327.258065" cy="84.000000" r="4.000000" fill="#ff0000" /></a><g transform="translate(327.258065,84.000000) rotate(-30)"><text style="font-size:10px;font-family:OpenSans;fill:#555;" text-anchor="middle" x="0" y="-6.000000">S528P</text></g><line x1="346.774194" x2="346.774194" y1="84.000000" y2="112.000000" stroke="#BABDB6" stroke-width="2"/><a xlink:title="Q561R"><circle cx="346.774194" cy="84.000000" r="4.000000" fill="#ff0000" /></a><g transform="translate(346.774194,84.000000) rotate(-30)"><text style="font-size:10px;font-family:OpenSans;fill:#555;" text-anchor="middle" x="0" y="-6.000000">Q561R</text></g><line x1="355.645161" x2="355.645161" y1="84.000000" y2="112.000000" stroke="#BABDB6" stroke-width="2"/><a xlink:title="Q576R"><circle cx="355.645161" cy="84.000000" r="4.000000" fill="#ff0000" /></a><g transform="translate(355.645161,84.000000) rotate(-30)"><text style="font-size:10px;font-family:OpenSans;fill:#555;" text-anchor="middle" x="0" y="-6.000000">Q576R</text></g><line x1="370.430108" x2="370.430108" y1="84.000000" y2="112.000000" stroke="#BABDB6" stroke-width="2"/><a xlink:title="Q601R"><circle cx="370.430108" cy="84.000000" r="4.000000" fill="#ff0000" /></a><g transform="translate(370.430108,84.000000) rotate(-30)"><text style="font-size:10px;font-family:OpenSans;fill:#555;" text-anchor="middle" x="0" y="-6.000000">Q601R</text></g><a xlink:title=",  (825aa)"><rect fill="#BABDB6" x="15.000000" y="112.000000" width="487.903226" height="14.000000"/></a><g transform="translate(31.559140,107.000000)"><a xlink:href="https://www.ebi.ac.uk/interpro/entry/pfam/PF09238" xlink:title="Interleukin-4 receptor alpha chain, N-terminal"><rect fill="#2DCF00" x="0" y="0" width="55.000000" height="24.000000" filter="url(#ds)"/><text style="font-size:12px;font-family:OpenSans;fill:#ffffff;" text-anchor="middle" x="27.500000" y="16.000000">IL4Ra_N</text></a></g>
<g class="axis">
<line x1="15.000000" x2="502.903226" y1="141.000000" y2="141.000000" stroke="#AAAAAA" /><line x1="15.000000" x2="15.000000" y1="141.000000" y2="146.000000" stroke="#AAAAAA" /><line x1="30.376344" x2="30.376344" y1="141.000000" y2="146.000000" stroke="#AAAAAA" /><text style="font-size:10px;font-family:OpenSans;fill:#000000;" text-anchor="middle" x="30.376344" y="156.000000">26</text><line x1="50.483871" x2="50.483871" y1="141.000000" y2="146.000000" stroke="#AAAAAA" /><text style="font-size:10px;font-family:OpenSans;fill:#000000;" text-anchor="middle" x="50.483871" y="156.000000">60</text><line x1="74.139785" x2="74.139785" y1="141.000000" y2="146.000000" stroke="#AAAAAA" /><text style="font-size:10px;font-family:OpenSans;fill:#000000;" text-anchor="middle" x="74.139785" y="156.000000">100</text><line x1="94.247312" x2="94.247312" y1="141.000000" y2="146.000000" stroke="#AAAAAA" /><text style="font-size:10px;font-family:OpenSans;fill:#000000;" text-anchor="middle" x="94.247312" y="156.000000">134</text><line x1="136.827957" x2="136.827957" y1="141.000000" y2="146.000000" stroke="#AAAAAA" /><text style="font-size:10px;font-family:OpenSans;fill:#000000;" text-anchor="middle" x="136.827957" y="156.000000">206</text><line x1="156.935484" x2="156.935484" y1="141.000000" y2="146.000000" stroke="#AAAAAA" /><text style="font-size:10px;font-family:OpenSans;fill:#000000;" text-anchor="middle" x="156.935484" y="156.000000">240</text><line x1="176.451613" x2="176.451613" y1="141.000000" y2="146.000000" stroke="#AAAAAA" /><text style="font-size:10px;font-family:OpenSans;fill:#000000;" text-anchor="middle" x="176.451613" y="156.000000">273</text><line x1="198.924731" x2="198.924731" y1="141.000000" y2="146.000000" stroke="#AAAAAA" /><text style="font-size:10px;font-family:OpenSans;fill:#000000;" text-anchor="middle" x="198.924731" y="156.000000">311</text><line x1="218.440860" x2="218.440860" y1="141.000000" y2="146.000000" stroke="#AAAAAA" /><text style="font-size:10px;font-family:OpenSans;fill:#000000;" text-anchor="middle" x="218.440860" y="156.000000">344</text><line x1="242.688172" x2="242.688172" y1="141.000000" y2="146.000000" stroke="#AAAAAA" /><text style="font-size:10px;font-family:OpenSans;fill:#000000;" text-anchor="middle" x="242.688172" y="156.000000">385</text><line x1="262.204301" x2="262.204301" y1="141.000000" y2="146.000000" stroke="#AAAAAA" /><text style="font-size:10px;font-family:OpenSans;fill:#000000;" text-anchor="middle" x="262.204301" y="156.000000">418</text><line x1="284.677419" x2="284.677419" y1="141.000000" y2="146.000000" stroke="#AAAAAA" /><text style="font-size:10px;font-family:OpenSans;fill:#000000;" text-anchor="middle" x="284.677419" y="156.000000">456</text><line x1="312.473118" x2="312.473118" y1="141.000000" y2="146.000000" stroke="#AAAAAA" /><text style="font-size:10px;font-family:OpenSans;fill:#000000;" text-anchor="middle" x="312.473118" y="156.000000">503</text><line x1="346.774194" x2="346.774194" y1="141.000000" y2="146.000000" stroke="#AAAAAA" /><text style="font-size:10px;font-family:OpenSans;fill:#000000;" text-anchor="middle" x="346.774194" y="156.000000">561</text><line x1="370.430108" x2="370.430108" y1="141.000000" y2="146.000000" stroke="#AAAAAA" /><text style="font-size:10px;font-family:OpenSans;fill:#000000;" text-anchor="middle" x="370.430108" y="156.000000">601</text><line x1="502.903226" x2="502.903226" y1="141.000000" y2="146.000000" stroke="#AAAAAA" /><text style="font-size:10px;font-family:OpenSans;fill:#000000;" text-anchor="middle" x="502.903226" y="156.000000">825</text></g>
<rect fill="#2DCF00" x="4" y="170.000000" width="12" height="12" filter="url(#ds)"/><text style="font-size:12px;font-family:OpenSans;fill:#000000;" text-anchor="start" x="20" y="182.000000">Interleukin-4 receptor alpha chain, N-terminal</text></svg>
