<?xml version='1.0'?>
<svg xmlns="http://www.w3.org/2000/svg" xmlns:xlink="http://www.w3.org/1999/xlink" width="430.000000" height="220.500000">
<defs>
  <filter id="ds" x="0" y="0">
    <feOffset in="SourceAlpha" dx="2" dy="2" />
    <feComponentTransfer><feFuncA type="linear" slope="0.2"/></feComponentTransfer>
    <feGaussianBlur result="blurOut" stdDeviation="1" />
    <feBlend in="SourceGraphic" in2="blurOut" mode="normal" />
  </filter>
  <pattern id="disordered-hatch" patternUnits="userSpaceOnUse" width="4" height="4">
    <path d="M-1,1 l2,-2 M0,4 l4,-4 M3,5 l2,-2" stroke="#000000" opacity="0.3" />
  </pattern>
</defs>
<line x1="89.406332" x2="89.406332" y1="121.500000" y2="149.500000" stroke="#BABDB6" stroke-width="2"/><a xlink:title="A141A"><circle cx="89.406332" cy="121.500000" r="4.000000" fill="#0000ff" /></a><g transform="translate(89.406332,121.500000) rotate(-30)"><text style="font-size:10px;font-family:OpenSans;fill:#555;" text-anchor="middle" x="0" y="-6.000000">A141A</text></g><line x1="120.540897" x2="120.540897" y1="121.500000" y2="149.500000" stroke="#BABDB6" stroke-width="2"/><a xlink:title="L200L"><circle cx="120.540897" cy="121.500000" r="4.000000" fill="#0000ff" /></a><g transform="translate(120.540897,121.500000) rotate(-30)"><text style="font-size:10px;font-family:OpenSans;fill:#555;" text-anchor="middle" x="0" y="-6.000000">L200L</text></g><line x1="179.116095" x2="179.116095" y1="109.000000" y2="149.500000" stroke="#BABDB6" stroke-width="2"/><a xlink:title="A311A"><circle cx="179.116095" cy="109.000000" r="4.000000" fill="#0000ff" /></a><g transform="translate(179.116095,109.000000) rotate(-30)"><text style="font-size:10px;font-family:OpenSans;fill:#555;" text-anchor="middle" x="0" y="-6.000000">A311A</text></g><line x1="184.393140" x2="184.393140" y1="121.500000" y2="149.500000" stroke="#BABDB6" stroke-width="2"/><a xlink:title="A321A"><circle cx="184.393140" cy="121.500000" r="4.000000" fill="#0000ff" /></a><g transform="translate(184.393140,121.500000) rotate(-30)"><text style="font-size:10px;font-family:OpenSans;fill:#555;" text-anchor="middle" x="0" y="-6.000000">A321A</text></g><line x1="202.862797" x2="202.862797" y1="121.500000" y2="149.500000" stroke="#BABDB6" stroke-width="2"/><a xlink:title="A356A"><circle cx="202.862797" cy="121.500000" r="4.000000" fill="#0000ff" /></a><g transform="translate(202.862797,121.500000) rotate(-30)"><text style="font-size:10px;font-family:OpenSans;fill:#555;" text-anchor="middle" x="0" y="-6.000000">A356A</text></g><line x1="210.250660" x2="210.250660" y1="109.000000" y2="149.500000" stroke="#BABDB6" stroke-width="2"/><a xlink:title="L370L"><circle cx="210.250660" cy="109.000000" r="4.000000" fill="#0000ff" /></a><g transform="translate(210.250660,109.000000) rotate(-30)"><text style="font-size:10px;font-family:OpenSans;fill:#555;" text-anchor="middle" x="0" y="-6.000000">L370L</text></g><line x1="215.527704" x2="215.527704" y1="121.500000" y2="149.500000" stroke="#BABDB6" stroke-width="2"/><a xlink:title="L380L"><circle cx="215.527704" cy="121.500000" r="4.000000" fill="#0000ff" /></a><g transform="translate(215.527704,121.500000) rotate(-30)"><text style="font-size:10px;font-family:OpenSans;fill:#555;" text-anchor="middle" x="0" y="-6.000000">L380L</text></g><line x1="233.997361" x2="233.997361" y1="121.500000" y2="149.500000" stroke="#BABDB6" stroke-width="2"/><a xlink:title="L415L"><circle cx="233.997361" cy="121.500000" r="4.000000" fill="#0000ff" /></a><g transform="translate(233.997361,121.500000) rotate(-30)"><text style="font-size:10px;font-family:OpenSans;fill:#555;" text-anchor="middle" x="0" y="-6.000000">L415L</text></g><line x1="284.656992" x2="284.656992" y1="96.500000" y2="149.500000" stroke="#BABDB6" stroke-width="2"/><a xlink:title="A511A"><circle cx="284.656992" cy="96.500000" r="4.000000" fill="#0000ff" /></a><g transform="translate(284.656992,96.500000) rotate(-30)"><text style="font-size:10px;font-family:OpenSans;fill:#555;" text-anchor="middle" x="0" y="-6.000000">A511A</text></g><line x1="287.295515" x2="287.295515" y1="84.000000" y2="149.500000" stroke="#BABDB6" stroke-width="2"/><a xlink:title="A516A"><circle cx="287.295515" cy="84.000000" r="4.000000" fill="#0000ff" /></a><g transform="translate(287.295515,84.000000) rotate(-30)"><text style="font-size:10px;font-family:OpenSans;fill:#555;" text-anchor="middle" x="0" y="-6.000000">A516A</text></g><line x1="287.823219" x2="287.823219" y1="84.000000" y2="149.500000" stroke="#BABDB6" stroke-width="2"/><a xlink:title="A517A"><circle cx="287.823219" cy="84.000000" r="4.000000" fill="#0000ff" /></a><g transform="translate(287.823219,84.000000) rotate(-30)"><text style="font-size:10px;font-family:OpenSans;fill:#555;" text-anchor="middle" x="0" y="-6.000000">A517A</text></g><line x1="291.517150" x2="291.517150" y1="96.500000" y2="149.500000" stroke="#BABDB6" stroke-width="2"/><a xlink:title="A524A"><circle cx="291.517150" cy="96.500000" r="4.000000" fill="#0000ff" /></a><g transform="translate(291.517150,96.500000) rotate(-30)"><text style="font-size:10px;font-family:OpenSans;fill:#555;" text-anchor="middle" x="0" y="-6.000000">A524A</text></g><line x1="293.100264" x2="293.100264" y1="109.000000" y2="149.500000" stroke="#BABDB6" stroke-width="2"/><a xlink:title="A527A"><circle cx="293.100264" cy="109.000000" r="4.000000" fill="#0000ff" /></a><g transform="translate(293.100264,109.000000) rotate(-30)"><text style="font-size:10px;font-family:OpenSans;fill:#555;" text-anchor="middle" x="0" y="-6.000000">A527A</text></g><line x1="293.627968" x2="293.627968" y1="121.500000" y2="149.500000" stroke="#BABDB6" stroke-width="2"/><a xlink:title="A528A"><circle cx="293.627968" cy="121.500000" r="4.000000" fill="#0000ff" /></a><g transform="translate(293.627968,121.500000) rotate(-30)"><text style="font-size:10px;font-family:OpenSans;fill:#555;" text-anchor="middle" x="0" y="-6.000000">A528A</text></g><line x1="301.543536" x2="301.543536" y1="121.500000" y2="149.500000" stroke="#BABDB6" stroke-width="2"/><a xlink:title="K543N"><circle cx="301.543536" cy="121.500000" r="4.000000" fill="#ff0000" /></a><g transform="translate(301.543536,121.500000) rotate(-30)"><text style="font-size:10px;font-family:OpenSans;fill:#555;" text-anchor="middle" x="0" y="-6.000000">K543N</text></g><line x1="315.791557" x2="315.791557" y1="84.000000" y2="149.500000" stroke="#BABDB6" stroke-width="2"/><a xlink:title="L570L"><circle cx="315.791557" cy="84.000000" r="4.000000" fill="#0000ff" /></a><g transform="translate(315.791557,84.000000) rotate(-30)"><text style="font-size:10px;font-family:OpenSans;fill:#555;" text-anchor="middle" x="0" y="-6.000000">L570L</text></g><line x1="316.846966" x2="316.846966" y1="71.500000" y2="149.500000" stroke="#BABDB6" stroke-width="2"/><a xlink:title="A572A"><circle cx="316.846966" cy="71.500000" r="4.000000" fill="#0000ff" /></a><g transform="translate(316.846966,71.500000) rotate(-30)"><text style="font-size:10px;font-family:OpenSans;fill:#555;" text-anchor="middle" x="0" y="-6.000000">A572A</text></g><line x1="318.430079" x2="318.430079" y1="71.500000" y2="149.500000" stroke="#BABDB6" stroke-width="2"/><a xlink:title="L575L"><circle cx="318.430079" cy="71.500000" r="4.000000" fill="#0000ff" /></a><g transform="translate(318.430079,71.500000) rotate(-30)"><text style="font-size:10px;font-family:OpenSans;fill:#555;" text-anchor="middle" x="0" y="-6.000000">L575L</text></g><line x1="318.957784" x2="318.957784" y1="71.500000" y2="149.500000" stroke="#BABDB6" stroke-width="2"/><a xlink:title="L576L"><circle cx="318.957784" cy="71.500000" r="4.000000" fill="#0000ff" /></a><g transform="translate(318.957784,71.500000) rotate(-30)"><text style="font-size:10px;font-family:OpenSans;fill:#555;" text-anchor="middle" x="0" y="-6.000000">L576L</text></g><line x1="322.651715" x2="322.651715" y1="84.000000" y2="149.500000" stroke="#BABDB6" stroke-width="2"/><a xlink:title="L583L"><circle cx="322.651715" cy="84.000000" r="4.000000" fill="#0000ff" /></a><g transform="translate(322.651715,84.000000) rotate(-30)"><text style="font-size:10px;font-family:OpenSans;fill:#555;" text-anchor="middle" x="0" y="-6.000000">L583L</text></g><line x1="322.651715" x2="322.651715" y1="96.500000" y2="149.500000" stroke="#BABDB6" stroke-width="2"/><a xlink:title="A583A"><circle cx="322.651715" cy="96.500000" r="4.000000" fill="#0000ff" /></a><g transform="translate(322.651715,96.500000) rotate(-30)"><text style="font-size:10px;font-family:OpenSans;fill:#555;" text-anchor="middle" x="0" y="-6.000000">A583A</text></g><line x1="324.234828" x2="324.234828" y1="96.500000" y2="149.500000" stroke="#BABDB6" stroke-width="2"/><a xlink:title="L586L"><circle cx="324.234828" cy="96.500000" r="4.000000" fill="#0000ff" /></a><g transform="translate(324.234828,96.500000) rotate(-30)"><text style="font-size:10px;font-family:OpenSans;fill:#555;" text-anchor="middle" x="0" y="-6.000000">L586L</text></g><line x1="324.762533" x2="324.762533" y1="96.500000" y2="149.500000" stroke="#BABDB6" stroke-width="2"/><a xlink:title="L587L"><circle cx="324.762533" cy="96.500000" r="4.000000" fill="#0000ff" /></a><g transform="translate(324.762533,96.500000) rotate(-30)"><text style="font-size:10px;font-family:OpenSans;fill:#555;" text-anchor="middle" x="0" y="-6.000000">L587L</text></g><line x1="329.511873" x2="329.511873" y1="46.500000" y2="149.500000" stroke="#BABDB6" stroke-width="2"/><a xlink:title="A596A"><circle cx="329.511873" cy="46.500000" r="4.000000" fill="#0000ff" /></a><g transform="translate(329.511873,46.500000) rotate(-30)"><text style="font-size:10px;font-family:OpenSans;fill:#555;" text-anchor="middle" x="0" y="-6.000000">A596A</text></g><line x1="330.567282" x2="330.567282" y1="46.500000" y2="149.500000" stroke="#BABDB6" stroke-width="2"/><a xlink:title="A598A"><circle cx="330.567282" cy="46.500000" r="4.000000" fill="#0000ff" /></a><g transform="translate(330.567282,46.500000) rotate(-30)"><text style="font-size:10px;font-family:OpenSans;fill:#555;" text-anchor="middle" x="0" y="-6.000000">A598A</text></g><line x1="331.094987" x2="331.094987" y1="46.500000" y2="149.500000" stroke="#BABDB6" stroke-width="2"/><a xlink:title="A599A"><circle cx="331.094987" cy="46.500000" r="4.000000" fill="#0000ff" /></a><g transform="translate(331.094987,46.500000) rotate(-30)"><text style="font-size:10px;font-family:OpenSans;fill:#555;" text-anchor="middle" x="0" y="-6.000000">A599A</text></g><line x1="332.150396" x2="332.150396" y1="34.000000" y2="149.500000" stroke="#BABDB6" stroke-width="2"/><a xlink:title="A601A"><circle cx="332.150396" cy="34.000000" r="4.000000" fill="#0000ff" /></a><g transform="translate(332.150396,34.000000) rotate(-30)"><text style="font-size:10px;font-family:OpenSans;fill:#555;" text-anchor="middle" x="0" y="-6.000000">A601A</text></g><line x1="332.678100" x2="332.678100" y1="34.000000" y2="149.500000" stroke="#BABDB6" stroke-width="2"/><a xlink:title="A602A"><circle cx="332.678100" cy="34.000000" r="4.000000" fill="#0000ff" /></a><g transform="translate(332.678100,34.000000) rotate(-30)"><text style="font-size:10px;font-family:OpenSans;fill:#555;" text-anchor="middle" x="0" y="-6.000000">A602A</text></g><line x1="333.205805" x2="333.205805" y1="34.000000" y2="149.500000" stroke="#BABDB6" stroke-width="2"/><a xlink:title="A603A"><circle cx="333.205805" cy="34.000000" r="4.000000" fill="#0000ff" /></a><g transform="translate(333.205805,34.000000) rotate(-30)"><text style="font-size:10px;font-family:OpenSans;fill:#555;" text-anchor="middle" x="0" y="-6.000000">A603A</text></g><line x1="333.733509" x2="333.733509" y1="34.000000" y2="149.500000" stroke="#BABDB6" stroke-width="2"/><a xlink:title="A604A"><circle cx="333.733509" cy="34.000000" r="4.000000" fill="#0000ff" /></a><g transform="translate(333.733509,34.000000) rotate(-30)"><text style="font-size:10px;font-family:OpenSans;fill:#555;" text-anchor="middle" x="0" y="-6.000000">A604A</text></g><line x1="336.372032" x2="336.372032" y1="46.500000" y2="149.500000" stroke="#BABDB6" stroke-width="2"/><a xlink:title="A609A"><circle cx="336.372032" cy="46.500000" r="4.000000" fill="#0000ff" /></a><g transform="translate(336.372032,46.500000) rotate(-30)"><text style="font-size:10px;font-family:OpenSans;fill:#555;" text-anchor="middle" x="0" y="-6.000000">A609A</text></g><line x1="336.899736" x2="336.899736" y1="59.000000" y2="149.500000" stroke="#BABDB6" stroke-width="2"/><a xlink:title="A610A"><circle cx="336.899736" cy="59.000000" r="4.000000" fill="#0000ff" /></a><g transform="translate(336.899736,59.000000) rotate(-30)"><text style="font-size:10px;font-family:OpenSans;fill:#555;" text-anchor="middle" x="0" y="-6.000000">A610A</text></g><line x1="337.427441" x2="337.427441" y1="71.500000" y2="149.500000" stroke="#BABDB6" stroke-width="2"/><a xlink:title="A611A"><circle cx="337.427441" cy="71.500000" r="4.000000" fill="#0000ff" /></a><g transform="translate(337.427441,71.500000) rotate(-30)"><text style="font-size:10px;font-family:OpenSans;fill:#555;" text-anchor="middle" x="0" y="-6.000000">A611A</text></g><line x1="337.955145" x2="337.955145" y1="84.000000" y2="149.500000" stroke="#BABDB6" stroke-width="2"/><a xlink:title="A612A"><circle cx="337.955145" cy="84.000000" r="4.000000" fill="#0000ff" /></a><g transform="translate(337.955145,84.000000) rotate(-30)"><text style="font-size:10px;font-family:OpenSans;fill:#555;" text-anchor="middle" x="0" y="-6.000000">A612A</text></g><line x1="338.482850" x2="338.482850" y1="96.500000" y2="149.500000" stroke="#BABDB6" stroke-width="2"/><a xlink:title="A613A"><circle cx="338.482850" cy="96.500000" r="4.000000" fill="#0000ff" /></a><g transform="translate(338.482850,96.500000) rotate(-30)"><text style="font-size:10px;font-family:OpenSans;fill:#555;" text-anchor="middle" x="0" y="-6.000000">A613A</text></g><line x1="339.010554" x2="339.010554" y1="109.000000" y2="149.500000" stroke="#BABDB6" stroke-width="2"/><a xlink:title="A614A"><circle cx="339.010554" cy="109.000000" r="4.000000" fill="#0000ff" /></a><g transform="translate(339.010554,109.000000) rotate(-30)"><text style="font-size:10px;font-family:OpenSans;fill:#555;" text-anchor="middle" x="0" y="-6.000000">A614A</text></g><line x1="339.538259" x2="339.538259" y1="121.500000" y2="149.500000" stroke="#BABDB6" stroke-width="2"/><a xlink:title="A615A"><circle cx="339.538259" cy="121.500000" r="4.000000" fill="#0000ff" /></a><g transform="translate(339.538259,121.500000) rotate(-30)"><text style="font-size:10px;font-family:OpenSans;fill:#555;" text-anchor="middle" x="0" y="-6.000000">A615A</text></g><line x1="347.981530" x2="347.981530" y1="109.000000" y2="149.500000" stroke="#BABDB6" stroke-width="2"/><a xlink:title="L631L"><circle cx="347.981530" cy="109.000000" r="4.000000" fill="#0000ff" /></a><g transform="translate(347.981530,109.000000) rotate(-30)"><text style="font-size:10px;font-family:OpenSans;fill:#555;" text-anchor="middle" x="0" y="-6.000000">L631L</text></g><line x1="353.786280" x2="353.786280" y1="121.500000" y2="149.500000" stroke="#BABDB6" stroke-width="2"/><a xlink:title="L642L"><circle cx="353.786280" cy="121.500000" r="4.000000" fill="#0000ff" /></a><g transform="translate(353.786280,121.500000) rotate(-30)"><text style="font-size:10px;font-family:OpenSans;fill:#555;" text-anchor="middle" x="0" y="-6.000000">L642L</text></g><line x1="360.646438" x2="360.646438" y1="46.500000" y2="149.500000" stroke="#BABDB6" stroke-width="2"/><a xlink:title="L655L"><circle cx="360.646438" cy="46.500000" r="4.000000" fill="#0000ff" /></a><g transform="translate(360.646438,46.500000) rotate(-30)"><text style="font-size:10px;font-family:OpenSans;fill:#555;" text-anchor="middle" x="0" y="-6.000000">L655L</text></g><line x1="361.701847" x2="361.701847" y1="46.500000" y2="149.500000" stroke="#BABDB6" stroke-width="2"/><a xlink:title="L657L"><circle cx="361.701847" cy="46.500000" r="4.000000" fill="#0000ff" /></a><g transform="translate(361.701847,46.500000) rotate(-30)"><text style="font-size:10px;font-family:OpenSans;fill:#555;" text-anchor="middle" x="0" y="-6.000000">L657L</text></g><line x1="362.229551" x2="362.229551" y1="46.500000" y2="149.500000" stroke="#BABDB6" stroke-width="2"/><a xlink:title="L658L"><circle cx="362.229551" cy="46.500000" r="4.000000" fill="#0000ff" /></a><g transform="translate(362.229551,46.500000) rotate(-30)"><text style="font-size:10px;font-family:OpenSans;fill:#555;" text-anchor="middle" x="0" y="-6.000000">L658L</text></g><line x1="363.284960" x2="363.284960" y1="34.000000" y2="149.500000" stroke="#BABDB6" stroke-width="2"/><a xlink:title="L660L"><circle cx="363.284960" cy="34.000000" r="4.000000" fill="#0000ff" /></a><g transform="translate(363.284960,34.000000) rotate(-30)"><text style="font-size:10px;font-family:OpenSans;fill:#555;" text-anchor="middle" x="0" y="-6.000000">L660L</text></g><line x1="363.812665" x2="363.812665" y1="34.000000" y2="149.500000" stroke="#BABDB6" stroke-width="2"/><a xlink:title="L661L"><circle cx="363.812665" cy="34.000000" r="4.000000" fill="#0000ff" /></a><g transform="translate(363.812665,34.000000) rotate(-30)"><text style="font-size:10px;font-family:OpenSans;fill:#555;" text-anchor="middle" x="0" y="-6.000000">L661L</text></g><line x1="364.340369" x2="364.340369" y1="34.000000" y2="149.500000" stroke="#BABDB6" stroke-width="2"/><a xlink:title="L662L"><circle cx="364.340369" cy="34.000000" r="4.000000" fill="#0000ff" /></a><g transform="translate(364.340369,34.000000) rotate(-30)"><text style="font-size:10px;font-family:OpenSans;fill:#555;" text-anchor="middle" x="0" y="-6.000000">L662L</text></g><line x1="364.868074" x2="364.868074" y1="34.000000" y2="149.500000" stroke="#BABDB6" stroke-width="2"/><a xlink:title="L663L"><circle cx="364.868074" cy="34.000000" r="4.000000" fill="#0000ff" /></a><g transform="translate(364.868074,34.000000) rotate(-30)"><text style="font-size:10px;font-family:OpenSans;fill:#555;" text-anchor="middle" x="0" y="-6.000000">L663L</text></g><line x1="367.506596" x2="367.506596" y1="46.500000" y2="149.500000" stroke="#BABDB6" stroke-width="2"/><a xlink:title="L668L"><circle cx="367.506596" cy="46.500000" r="4.000000" fill="#0000ff" /></a><g transform="translate(367.506596,46.500000) rotate(-30)"><text style="font-size:10px;font-family:OpenSans;fill:#555;" text-anchor="middle" x="0" y="-6.000000">L668L</text></g><line x1="368.034301" x2="368.034301" y1="59.000000" y2="149.500000" stroke="#BABDB6" stroke-width="2"/><a xlink:title="L669L"><circle cx="368.034301" cy="59.000000" r="4.000000" fill="#0000ff" /></a><g transform="translate(368.034301,59.000000) rotate(-30)"><text style="font-size:10px;font-family:OpenSans;fill:#555;" text-anchor="middle" x="0" y="-6.000000">L669L</text></g><line x1="368.562005" x2="368.562005" y1="71.500000" y2="149.500000" stroke="#BABDB6" stroke-width="2"/><a xlink:title="L670L"><circle cx="368.562005" cy="71.500000" r="4.000000" fill="#0000ff" /></a><g transform="translate(368.562005,71.500000) rotate(-30)"><text style="font-size:10px;font-family:OpenSans;fill:#555;" text-anchor="middle" x="0" y="-6.000000">L670L</text></g><line x1="369.089710" x2="369.089710" y1="84.000000" y2="149.500000" stroke="#BABDB6" stroke-width="2"/><a xlink:title="L671L"><circle cx="369.089710" cy="84.000000" r="4.000000" fill="#0000ff" /></a><g transform="translate(369.089710,84.000000) rotate(-30)"><text style="font-size:10px;font-family:OpenSans;fill:#555;" text-anchor="middle" x="0" y="-6.000000">L671L</text></g><line x1="369.617414" x2="369.617414" y1="96.500000" y2="149.500000" stroke="#BABDB6" stroke-width="2"/><a xlink:title="L672L"><circle cx="369.617414" cy="96.500000" r="4.000000" fill="#0000ff" /></a><g transform="translate(369.617414,96.500000) rotate(-30)"><text style="font-size:10px;font-family:OpenSans;fill:#555;" text-anchor="middle" x="0" y="-6.000000">L672L</text></g><line x1="370.145119" x2="370.145119" y1="109.000000" y2="149.500000" stroke="#BABDB6" stroke-width="2"/><a xlink:title="L673L"><circle cx="370.145119" cy="109.000000" r="4.000000" fill="#0000ff" /></a><g transform="translate(370.145119,109.000000) rotate(-30)"><text style="font-size:10px;font-family:OpenSans;fill:#555;" text-anchor="middle" x="0" y="-6.000000">L673L</text></g><line x1="370.672823" x2="370.672823" y1="121.500000" y2="149.500000" stroke="#BABDB6" stroke-width="2"/><a xlink:title="L674L"><circle cx="370.672823" cy="121.500000" r="4.000000" fill="#0000ff" /></a><g transform="translate(370.672823,121.500000) rotate(-30)"><text style="font-size:10px;font-family:OpenSans;fill:#555;" text-anchor="middle" x="0" y="-6.000000">L674L</text></g><a xlink:title=",  (758aa)"><rect fill="#BABDB6" x="15.000000" y="149.500000" width="400.000000" height="14.000000"/></a><g transform="translate(38.218997,144.500000)"><a xlink:href="https://www.ebi.ac.uk/interpro/entry/pfam/PF09731" xlink:title="Mitochondrial inner membrane protein"><rect fill="#2DCF00" x="0" y="0" width="370.448549" height="24.000000" filter="url(#ds)"/><text style="font-size:12px;font-family:OpenSans;fill:#ffffff;" text-anchor="middle" x="185.224274" y="16.000000">Mitochondrial inner membrane protein</text></a></g>
<g class="axis">
<line x1="15.000000" x2="415.000000" y1="178.500000" y2="178.500000" stroke="#AAAAAA" /><line x1="15.000000" x2="15.000000" y1="178.500000" y2="183.500000" stroke="#AAAAAA" /><line x1="15.000000" x2="15.000000" y1="178.500000" y2="183.500000" stroke="#AAAAAA" /><text style="font-size:10px;font-family:OpenSans;fill:#000000;" text-anchor="middle" x="15.000000" y="193.500000">0</text><line x1="38.218997" x2="38.218997" y1="178.500000" y2="183.500000" stroke="#AAAAAA" /><text style="font-size:10px;font-family:OpenSans;fill:#000000;" text-anchor="middle" x="38.218997" y="193.500000">44</text><line x1="89.406332" x2="89.406332" y1="178.500000" y2="183.500000" stroke="#AAAAAA" /><text style="font-size:10px;font-family:OpenSans;fill:#000000;" text-anchor="middle" x="89.406332" y="193.500000">141</text><line x1="120.540897" x2="120.540897" y1="178.500000" y2="183.500000" stroke="#AAAAAA" /><text style="font-size:10px;font-family:OpenSans;fill:#000000;" text-anchor="middle" x="120.540897" y="193.500000">200</text><line x1="179.116095" x2="179.116095" y1="178.500000" y2="183.500000" stroke="#AAAAAA" /><text style="font-size:10px;font-family:OpenSans;fill:#000000;" text-anchor="middle" x="179.116095" y="193.500000">311</text><line x1="202.862797" x2="202.862797" y1="178.500000" y2="183.500000" stroke="#AAAAAA" /><text style="font-size:10px;font-family:OpenSans;fill:#000000;" text-anchor="middle" x="202.862797" y="193.500000">356</text><line x1="233.997361" x2="233.997361" y1="178.500000" y2="183.500000" stroke="#AAAAAA" /><text style="font-size:10px;font-family:OpenSans;fill:#000000;" text-anchor="middle" x="233.997361" y="193.500000">415</text><line x1="284.656992" x2="284.656992" y1="178.500000" y2="183.500000" stroke="#AAAAAA" /><text style="font-size:10px;font-family:OpenSans;fill:#000000;" text-anchor="middle" x="284.656992" y="193.500000">511</text><line x1="315.791557" x2="315.791557" y1="178.500000" y2="183.500000" stroke="#AAAAAA" /><text style="font-size:10px;font-family:OpenSans;fill:#000000;" text-anchor="middle" x="315.791557" y="193.500000">570</text><line x1="336.372032" x2="336.372032" y1="178.500000" y2="183.500000" stroke="#AAAAAA" /><text style="font-size:10px;font-family:OpenSans;fill:#000000;" text-anchor="middle" x="336.372032" y="193.500000">609</text><line x1="360.646438" x2="360.646438" y1="178.500000" y2="183.500000" stroke="#AAAAAA" /><text style="font-size:10px;font-family:OpenSans;fill:#000000;" text-anchor="middle" x="360.646438" y="193.500000">655</text><line x1="415.000000" x2="415.000000" y1="178.500000" y2="183.500000" stroke="#AAAAAA" /><text style="font-size:10px;font-family:OpenSans;fill:#000000;" text-anchor="middle" x="415.000000" y="193.500000">758</text></g>
</svg>
