<?xml version='1.0'?>
<svg xmlns="http://www.w3.org/2000/svg" xmlns:xlink="http://www.w3.org/1999/xlink" width="504.361905" height="158.700000">
<defs>
  <filter id="ds" x="0" y="0">
    <feOffset in="SourceAlpha" dx="2" dy="2" />
    <feComponentTransfer><feFuncA type="linear" slope="0.2"/></feComponentTransfer>
    <feGaussianBlur result="blurOut" stdDeviation="1" />
    <feBlend in="SourceGraphic" in2="blurOut" mode="normal" />
  </filter>
  <pattern id="disordered-hatch" patternUnits="userSpaceOnUse" width="4" height="4">
    <path d="M-1,1 l2,-2 M0,4 l4,-4 M3,5 l2,-2" stroke="#000000" opacity="0.3" />
  </pattern>
</defs>
<line x1="15.419048" x2="15.419048" y1="34.000000" y2="74.500000" stroke="#BABDB6" stroke-width="2"/><a xlink:title="M1t1?"><circle cx="15.419048" cy="34.000000" r="4.000000" fill="#ff0000" /></a><g transform="translate(15.419048,34.000000) rotate(-30)"><text style="font-size:10px;font-family:OpenSans;fill:#555;" text-anchor="middle" x="0" y="-6.000000">M1t1?</text></g><line x1="20.447619" x2="20.447619" y1="34.000000" y2="74.500000" stroke="#BABDB6" stroke-width="2"/><a xlink:title="Q13L"><circle cx="20.447619" cy="34.000000" r="4.000000" fill="#ff0000" /></a><g transform="translate(20.447619,34.000000) rotate(-30)"><text style="font-size:10px;font-family:OpenSans;fill:#555;" text-anchor="middle" x="0" y="-6.000000">Q13L</text></g><line x1="22.542857" x2="22.542857" y1="34.000000" y2="74.500000" stroke="#BABDB6" stroke-width="2"/><a xlink:title="T18S"><circle cx="22.542857" cy="34.000000" r="4.000000" fill="#ff0000" /></a><g transform="translate(22.542857,34.000000) rotate(-30)"><text style="font-size:10px;font-family:OpenSans;fill:#555;" text-anchor="middle" x="0" y="-6.000000">T18S</text></g><line x1="26.733333" x2="26.733333" y1="46.500000" y2="74.500000" stroke="#BABDB6" stroke-width="2"/><a xlink:title="R28T"><circle cx="26.733333" cy="46.500000" r="4.000000" fill="#ff0000" /></a><g transform="translate(26.733333,46.500000) rotate(-30)"><text style="font-size:10px;font-family:OpenSans;fill:#555;" text-anchor="middle" x="0" y="-6.000000">R28T</text></g><line x1="34.695238" x2="34.695238" y1="46.500000" y2="74.500000" stroke="#BABDB6" stroke-width="2"/><a xlink:title="L47L"><circle cx="34.695238" cy="46.500000" r="4.000000" fill="#0000ff" /></a><g transform="translate(34.695238,46.500000) rotate(-30)"><text style="font-size:10px;font-family:OpenSans;fill:#555;" text-anchor="middle" x="0" y="-6.000000">L47L</text></g><line x1="56.904762" x2="56.904762" y1="46.500000" y2="74.500000" stroke="#BABDB6" stroke-width="2"/><a xlink:title="R100T"><circle cx="56.904762" cy="46.500000" r="4.000000" fill="#ff0000" /></a><g transform="translate(56.904762,46.500000) rotate(-30)"><text style="font-size:10px;font-family:OpenSans;fill:#555;" text-anchor="middle" x="0" y="-6.000000">R100T</text></g><line x1="81.209524" x2="81.209524" y1="46.500000" y2="74.500000" stroke="#BABDB6" stroke-width="2"/><a xlink:title="R158T"><circle cx="81.209524" cy="46.500000" r="4.000000" fill="#ff0000" /></a><g transform="translate(81.209524,46.500000) rotate(-30)"><text style="font-size:10px;font-family:OpenSans;fill:#555;" text-anchor="middle" x="0" y="-6.000000">R158T</text></g><line x1="97.133333" x2="97.133333" y1="46.500000" y2="74.500000" stroke="#BABDB6" stroke-width="2"/><a xlink:title="R196T"><circle cx="97.133333" cy="46.500000" r="4.000000" fill="#ff0000" /></a><g transform="translate(97.133333,46.500000) rotate(-30)"><text style="font-size:10px;font-family:OpenSans;fill:#555;" text-anchor="middle" x="0" y="-6.000000">R196T</text></g><line x1="126.466667" x2="126.466667" y1="46.500000" y2="74.500000" stroke="#BABDB6" stroke-width="2"/><a xlink:title="A266V"><circle cx="126.466667" cy="46.500000" r="4.000000" fill="#ff0000" /></a><g transform="translate(126.466667,46.500000) rotate(-30)"><text style="font-size:10px;font-family:OpenSans;fill:#555;" text-anchor="middle" x="0" y="-6.000000">A266V</text></g><line x1="178.428571" x2="178.428571" y1="46.500000" y2="74.500000" stroke="#BABDB6" stroke-width="2"/><a xlink:title="A390V"><circle cx="178.428571" cy="46.500000" r="4.000000" fill="#ff0000" /></a><g transform="translate(178.428571,46.500000) rotate(-30)"><text style="font-size:10px;font-family:OpenSans;fill:#555;" text-anchor="middle" x="0" y="-6.000000">A390V</text></g><line x1="284.447619" x2="284.447619" y1="46.500000" y2="74.500000" stroke="#BABDB6" stroke-width="2"/><a xlink:title="A643V"><circle cx="284.447619" cy="46.500000" r="4.000000" fill="#ff0000" /></a><g transform="translate(284.447619,46.500000) rotate(-30)"><text style="font-size:10px;font-family:OpenSans;fill:#555;" text-anchor="middle" x="0" y="-6.000000">A643V</text></g><line x1="311.685714" x2="311.685714" y1="46.500000" y2="74.500000" stroke="#BABDB6" stroke-width="2"/><a xlink:title="A708V"><circle cx="311.685714" cy="46.500000" r="4.000000" fill="#ff0000" /></a><g transform="translate(311.685714,46.500000) rotate(-30)"><text style="font-size:10px;font-family:OpenSans;fill:#555;" text-anchor="middle" x="0" y="-6.000000">A708V</text></g><line x1="341.857143" x2="341.857143" y1="46.500000" y2="74.500000" stroke="#BABDB6" stroke-width="2"/><a xlink:title="A780V"><circle cx="341.857143" cy="46.500000" r="4.000000" fill="#ff0000" /></a><g transform="translate(341.857143,46.500000) rotate(-30)"><text style="font-size:10px;font-family:OpenSans;fill:#555;" text-anchor="middle" x="0" y="-6.000000">A780V</text></g><line x1="366.161905" x2="366.161905" y1="46.500000" y2="74.500000" stroke="#BABDB6" stroke-width="2"/><a xlink:title="A838V"><circle cx="366.161905" cy="46.500000" r="4.000000" fill="#ff0000" /></a><g transform="translate(366.161905,46.500000) rotate(-30)"><text style="font-size:10px;font-family:OpenSans;fill:#555;" text-anchor="middle" x="0" y="-6.000000">A838V</text></g><line x1="382.085714" x2="382.085714" y1="46.500000" y2="74.500000" stroke="#BABDB6" stroke-width="2"/><a xlink:title="A876V"><circle cx="382.085714" cy="46.500000" r="4.000000" fill="#ff0000" /></a><g transform="translate(382.085714,46.500000) rotate(-30)"><text style="font-size:10px;font-family:OpenSans;fill:#555;" text-anchor="middle" x="0" y="-6.000000">A876V</text></g><a xlink:title=",  (1132aa)"><rect fill="#BABDB6" x="15.000000" y="74.500000" width="474.361905" height="14.000000"/></a><g transform="translate(35.952381,69.500000)"><a xlink:href="https://www.ebi.ac.uk/interpro/entry/pfam/PF02383" xlink:title="SacI homology domain"><rect fill="#2DCF00" x="0" y="0" width="152.952381" height="24.000000" filter="url(#ds)"/><text style="font-size:12px;font-family:OpenSans;fill:#ffffff;" text-anchor="middle" x="76.476190" y="16.000000">SacI homology domain</text></a></g>
<g transform="translate(263.076190,69.500000)"><a xlink:href="https://www.ebi.ac.uk/interpro/entry/pfam/PF12456" xlink:title="Inositol phosphatase"><rect fill="#FF5353" x="0" y="0" width="44.000000" height="24.000000" filter="url(#ds)"/><text style="font-size:12px;font-family:OpenSans;fill:#ffffff;" text-anchor="middle" x="22.000000" y="16.000000">hSac2</text></a></g>
<g class="axis">
<line x1="15.000000" x2="489.361905" y1="103.500000" y2="103.500000" stroke="#AAAAAA" /><line x1="15.000000" x2="15.000000" y1="103.500000" y2="108.500000" stroke="#AAAAAA" /><line x1="15.419048" x2="15.419048" y1="103.500000" y2="108.500000" stroke="#AAAAAA" /><text style="font-size:10px;font-family:OpenSans;fill:#000000;" text-anchor="middle" x="15.419048" y="118.500000">1</text><line x1="35.952381" x2="35.952381" y1="103.500000" y2="108.500000" stroke="#AAAAAA" /><text style="font-size:10px;font-family:OpenSans;fill:#000000;" text-anchor="middle" x="35.952381" y="118.500000">50</text><line x1="56.904762" x2="56.904762" y1="103.500000" y2="108.500000" stroke="#AAAAAA" /><text style="font-size:10px;font-family:OpenSans;fill:#000000;" text-anchor="middle" x="56.904762" y="118.500000">100</text><line x1="81.209524" x2="81.209524" y1="103.500000" y2="108.500000" stroke="#AAAAAA" /><text style="font-size:10px;font-family:OpenSans;fill:#000000;" text-anchor="middle" x="81.209524" y="118.500000">158</text><line x1="126.466667" x2="126.466667" y1="103.500000" y2="108.500000" stroke="#AAAAAA" /><text style="font-size:10px;font-family:OpenSans;fill:#000000;" text-anchor="middle" x="126.466667" y="118.500000">266</text><line x1="178.428571" x2="178.428571" y1="103.500000" y2="108.500000" stroke="#AAAAAA" /><text style="font-size:10px;font-family:OpenSans;fill:#000000;" text-anchor="middle" x="178.428571" y="118.500000">390</text><line x1="263.076190" x2="263.076190" y1="103.500000" y2="108.500000" stroke="#AAAAAA" /><text style="font-size:10px;font-family:OpenSans;fill:#000000;" text-anchor="middle" x="263.076190" y="118.500000">592</text><line x1="284.447619" x2="284.447619" y1="103.500000" y2="108.500000" stroke="#AAAAAA" /><text style="font-size:10px;font-family:OpenSans;fill:#000000;" text-anchor="middle" x="284.447619" y="118.500000">643</text><line x1="311.685714" x2="311.685714" y1="103.500000" y2="108.500000" stroke="#AAAAAA" /><text style="font-size:10px;font-family:OpenSans;fill:#000000;" text-anchor="middle" x="311.685714" y="118.500000">708</text><line x1="341.857143" x2="341.857143" y1="103.500000" y2="108.500000" stroke="#AAAAAA" /><text style="font-size:10px;font-family:OpenSans;fill:#000000;" text-anchor="middle" x="341.857143" y="118.500000">780</text><line x1="366.161905" x2="366.161905" y1="103.500000" y2="108.500000" stroke="#AAAAAA" /><text style="font-size:10px;font-family:OpenSans;fill:#000000;" text-anchor="middle" x="366.161905" y="118.500000">838</text><line x1="489.361905" x2="489.361905" y1="103.500000" y2="108.500000" stroke="#AAAAAA" /><text style="font-size:10px;font-family:OpenSans;fill:#000000;" text-anchor="middle" x="489.361905" y="118.500000">1132</text></g>
<rect fill="#FF5353" x="4" y="132.500000" width="12" height="12" filter="url(#ds)"/><text style="font-size:12px;font-family:OpenSans;fill:#000000;" text-anchor="start" x="20" y="144.500000">Inositol phosphatase</text></svg>
