<?xml version='1.0'?>
<svg xmlns="http://www.w3.org/2000/svg" xmlns:xlink="http://www.w3.org/1999/xlink" width="848.152174" height="158.700000">
<defs>
  <filter id="ds" x="0" y="0">
    <feOffset in="SourceAlpha" dx="2" dy="2" />
    <feComponentTransfer><feFuncA type="linear" slope="0.2"/></feComponentTransfer>
    <feGaussianBlur result="blurOut" stdDeviation="1" />
    <feBlend in="SourceGraphic" in2="blurOut" mode="normal" />
  </filter>
  <pattern id="disordered-hatch" patternUnits="userSpaceOnUse" width="4" height="4">
    <path d="M-1,1 l2,-2 M0,4 l4,-4 M3,5 l2,-2" stroke="#000000" opacity="0.3" />
  </pattern>
</defs>
<line x1="26.304348" x2="26.304348" y1="46.500000" y2="74.500000" stroke="#BABDB6" stroke-width="2"/><a xlink:title="R8H"><circle cx="26.304348" cy="46.500000" r="4.000000" fill="#ff0000" /></a><g transform="translate(26.304348,46.500000) rotate(-30)"><text style="font-size:10px;font-family:OpenSans;fill:#555;" text-anchor="middle" x="0" y="-6.000000">R8H</text></g><line x1="65.869565" x2="65.869565" y1="46.500000" y2="74.500000" stroke="#BABDB6" stroke-width="2"/><a xlink:title="R36H"><circle cx="65.869565" cy="46.500000" r="4.000000" fill="#ff0000" /></a><g transform="translate(65.869565,46.500000) rotate(-30)"><text style="font-size:10px;font-family:OpenSans;fill:#555;" text-anchor="middle" x="0" y="-6.000000">R36H</text></g><line x1="92.717391" x2="92.717391" y1="46.500000" y2="74.500000" stroke="#BABDB6" stroke-width="2"/><a xlink:title="R55H"><circle cx="92.717391" cy="46.500000" r="4.000000" fill="#ff0000" /></a><g transform="translate(92.717391,46.500000) rotate(-30)"><text style="font-size:10px;font-family:OpenSans;fill:#555;" text-anchor="middle" x="0" y="-6.000000">R55H</text></g><line x1="270.760870" x2="270.760870" y1="46.500000" y2="74.500000" stroke="#BABDB6" stroke-width="2"/><a xlink:title="G181G"><circle cx="270.760870" cy="46.500000" r="4.000000" fill="#0000ff" /></a><g transform="translate(270.760870,46.500000) rotate(-30)"><text style="font-size:10px;font-family:OpenSans;fill:#555;" text-anchor="middle" x="0" y="-6.000000">G181G</text></g><line x1="314.565217" x2="314.565217" y1="46.500000" y2="74.500000" stroke="#BABDB6" stroke-width="2"/><a xlink:title="C212C"><circle cx="314.565217" cy="46.500000" r="4.000000" fill="#0000ff" /></a><g transform="translate(314.565217,46.500000) rotate(-30)"><text style="font-size:10px;font-family:OpenSans;fill:#555;" text-anchor="middle" x="0" y="-6.000000">C212C</text></g><line x1="337.173913" x2="337.173913" y1="46.500000" y2="74.500000" stroke="#BABDB6" stroke-width="2"/><a xlink:title="G228G"><circle cx="337.173913" cy="46.500000" r="4.000000" fill="#0000ff" /></a><g transform="translate(337.173913,46.500000) rotate(-30)"><text style="font-size:10px;font-family:OpenSans;fill:#555;" text-anchor="middle" x="0" y="-6.000000">G228G</text></g><line x1="376.739130" x2="376.739130" y1="46.500000" y2="74.500000" stroke="#BABDB6" stroke-width="2"/><a xlink:title="R256H"><circle cx="376.739130" cy="46.500000" r="4.000000" fill="#ff0000" /></a><g transform="translate(376.739130,46.500000) rotate(-30)"><text style="font-size:10px;font-family:OpenSans;fill:#555;" text-anchor="middle" x="0" y="-6.000000">R256H</text></g><line x1="420.543478" x2="420.543478" y1="34.000000" y2="74.500000" stroke="#BABDB6" stroke-width="2"/><a xlink:title="L287L"><circle cx="420.543478" cy="34.000000" r="4.000000" fill="#0000ff" /></a><g transform="translate(420.543478,34.000000) rotate(-30)"><text style="font-size:10px;font-family:OpenSans;fill:#555;" text-anchor="middle" x="0" y="-6.000000">L287L</text></g><line x1="426.195652" x2="426.195652" y1="46.500000" y2="74.500000" stroke="#BABDB6" stroke-width="2"/><a xlink:title="R291H"><circle cx="426.195652" cy="46.500000" r="4.000000" fill="#ff0000" /></a><g transform="translate(426.195652,46.500000) rotate(-30)"><text style="font-size:10px;font-family:OpenSans;fill:#555;" text-anchor="middle" x="0" y="-6.000000">R291H</text></g><line x1="443.152174" x2="443.152174" y1="46.500000" y2="74.500000" stroke="#BABDB6" stroke-width="2"/><a xlink:title="R303H"><circle cx="443.152174" cy="46.500000" r="4.000000" fill="#ff0000" /></a><g transform="translate(443.152174,46.500000) rotate(-30)"><text style="font-size:10px;font-family:OpenSans;fill:#555;" text-anchor="middle" x="0" y="-6.000000">R303H</text></g><line x1="479.891304" x2="479.891304" y1="46.500000" y2="74.500000" stroke="#BABDB6" stroke-width="2"/><a xlink:title="L329L"><circle cx="479.891304" cy="46.500000" r="4.000000" fill="#0000ff" /></a><g transform="translate(479.891304,46.500000) rotate(-30)"><text style="font-size:10px;font-family:OpenSans;fill:#555;" text-anchor="middle" x="0" y="-6.000000">L329L</text></g><line x1="529.347826" x2="529.347826" y1="46.500000" y2="74.500000" stroke="#BABDB6" stroke-width="2"/><a xlink:title="L364L"><circle cx="529.347826" cy="46.500000" r="4.000000" fill="#0000ff" /></a><g transform="translate(529.347826,46.500000) rotate(-30)"><text style="font-size:10px;font-family:OpenSans;fill:#555;" text-anchor="middle" x="0" y="-6.000000">L364L</text></g><line x1="546.304348" x2="546.304348" y1="46.500000" y2="74.500000" stroke="#BABDB6" stroke-width="2"/><a xlink:title="L376L"><circle cx="546.304348" cy="46.500000" r="4.000000" fill="#0000ff" /></a><g transform="translate(546.304348,46.500000) rotate(-30)"><text style="font-size:10px;font-family:OpenSans;fill:#555;" text-anchor="middle" x="0" y="-6.000000">L376L</text></g><line x1="745.543478" x2="745.543478" y1="46.500000" y2="74.500000" stroke="#BABDB6" stroke-width="2"/><a xlink:title="G517S"><circle cx="745.543478" cy="46.500000" r="4.000000" fill="#ff0000" /></a><g transform="translate(745.543478,46.500000) rotate(-30)"><text style="font-size:10px;font-family:OpenSans;fill:#555;" text-anchor="middle" x="0" y="-6.000000">G517S</text></g><a xlink:title=",  (579aa)"><rect fill="#BABDB6" x="15.000000" y="74.500000" width="818.152174" height="14.000000"/></a><g transform="translate(113.913043,69.500000)"><a xlink:href="https://www.ebi.ac.uk/interpro/entry/pfam/PF16748" xlink:title="Inscuteable LGN-binding domain"><rect fill="#2DCF00" x="0" y="0" width="65.000000" height="24.000000" filter="url(#ds)"/><text style="font-size:12px;font-family:OpenSans;fill:#ffffff;" text-anchor="middle" x="32.500000" y="16.000000">INSC_LBD</text></a></g>
<g transform="translate(194.456522,69.500000)"><a xlink:href="https://www.ebi.ac.uk/interpro/entry/pfam/PF19427" xlink:title="Protein inscuteable C-terminal"><rect fill="#FF5353" x="0" y="0" width="638.695652" height="24.000000" filter="url(#ds)"/><text style="font-size:12px;font-family:OpenSans;fill:#ffffff;" text-anchor="middle" x="319.347826" y="16.000000">Protein inscuteable C-terminal</text></a></g>
<g class="axis">
<line x1="15.000000" x2="833.152174" y1="103.500000" y2="103.500000" stroke="#AAAAAA" /><line x1="15.000000" x2="15.000000" y1="103.500000" y2="108.500000" stroke="#AAAAAA" /><line x1="26.304348" x2="26.304348" y1="103.500000" y2="108.500000" stroke="#AAAAAA" /><text style="font-size:10px;font-family:OpenSans;fill:#000000;" text-anchor="middle" x="26.304348" y="118.500000">8</text><line x1="65.869565" x2="65.869565" y1="103.500000" y2="108.500000" stroke="#AAAAAA" /><text style="font-size:10px;font-family:OpenSans;fill:#000000;" text-anchor="middle" x="65.869565" y="118.500000">36</text><line x1="92.717391" x2="92.717391" y1="103.500000" y2="108.500000" stroke="#AAAAAA" /><text style="font-size:10px;font-family:OpenSans;fill:#000000;" text-anchor="middle" x="92.717391" y="118.500000">55</text><line x1="113.913043" x2="113.913043" y1="103.500000" y2="108.500000" stroke="#AAAAAA" /><text style="font-size:10px;font-family:OpenSans;fill:#000000;" text-anchor="middle" x="113.913043" y="118.500000">70</text><line x1="178.913043" x2="178.913043" y1="103.500000" y2="108.500000" stroke="#AAAAAA" /><text style="font-size:10px;font-family:OpenSans;fill:#000000;" text-anchor="middle" x="178.913043" y="118.500000">116</text><line x1="270.760870" x2="270.760870" y1="103.500000" y2="108.500000" stroke="#AAAAAA" /><text style="font-size:10px;font-family:OpenSans;fill:#000000;" text-anchor="middle" x="270.760870" y="118.500000">181</text><line x1="314.565217" x2="314.565217" y1="103.500000" y2="108.500000" stroke="#AAAAAA" /><text style="font-size:10px;font-family:OpenSans;fill:#000000;" text-anchor="middle" x="314.565217" y="118.500000">212</text><line x1="337.173913" x2="337.173913" y1="103.500000" y2="108.500000" stroke="#AAAAAA" /><text style="font-size:10px;font-family:OpenSans;fill:#000000;" text-anchor="middle" x="337.173913" y="118.500000">228</text><line x1="376.739130" x2="376.739130" y1="103.500000" y2="108.500000" stroke="#AAAAAA" /><text style="font-size:10px;font-family:OpenSans;fill:#000000;" text-anchor="middle" x="376.739130" y="118.500000">256</text><line x1="420.543478" x2="420.543478" y1="103.500000" y2="108.500000" stroke="#AAAAAA" /><text style="font-size:10px;font-family:OpenSans;fill:#000000;" text-anchor="middle" x="420.543478" y="118.500000">287</text><line x1="443.152174" x2="443.152174" y1="103.500000" y2="108.500000" stroke="#AAAAAA" /><text style="font-size:10px;font-family:OpenSans;fill:#000000;" text-anchor="middle" x="443.152174" y="118.500000">303</text><line x1="479.891304" x2="479.891304" y1="103.500000" y2="108.500000" stroke="#AAAAAA" /><text style="font-size:10px;font-family:OpenSans;fill:#000000;" text-anchor="middle" x="479.891304" y="118.500000">329</text><line x1="529.347826" x2="529.347826" y1="103.500000" y2="108.500000" stroke="#AAAAAA" /><text style="font-size:10px;font-family:OpenSans;fill:#000000;" text-anchor="middle" x="529.347826" y="118.500000">364</text><line x1="745.543478" x2="745.543478" y1="103.500000" y2="108.500000" stroke="#AAAAAA" /><text style="font-size:10px;font-family:OpenSans;fill:#000000;" text-anchor="middle" x="745.543478" y="118.500000">517</text><line x1="833.152174" x2="833.152174" y1="103.500000" y2="108.500000" stroke="#AAAAAA" /><text style="font-size:10px;font-family:OpenSans;fill:#000000;" text-anchor="middle" x="833.152174" y="118.500000">579</text></g>
<rect fill="#2DCF00" x="4" y="132.500000" width="12" height="12" filter="url(#ds)"/><text style="font-size:12px;font-family:OpenSans;fill:#000000;" text-anchor="start" x="20" y="144.500000">Inscuteable LGN-binding domain</text></svg>
