<?xml version='1.0'?>
<svg xmlns="http://www.w3.org/2000/svg" xmlns:xlink="http://www.w3.org/1999/xlink" width="733.454545" height="159.400000">
<defs>
  <filter id="ds" x="0" y="0">
    <feOffset in="SourceAlpha" dx="2" dy="2" />
    <feComponentTransfer><feFuncA type="linear" slope="0.2"/></feComponentTransfer>
    <feGaussianBlur result="blurOut" stdDeviation="1" />
    <feBlend in="SourceGraphic" in2="blurOut" mode="normal" />
  </filter>
  <pattern id="disordered-hatch" patternUnits="userSpaceOnUse" width="4" height="4">
    <path d="M-1,1 l2,-2 M0,4 l4,-4 M3,5 l2,-2" stroke="#000000" opacity="0.3" />
  </pattern>
</defs>
<line x1="54.750000" x2="54.750000" y1="34.000000" y2="62.000000" stroke="#BABDB6" stroke-width="2"/><a xlink:title="G33G"><circle cx="54.750000" cy="34.000000" r="4.000000" fill="#0000ff" /></a><g transform="translate(54.750000,34.000000) rotate(-30)"><text style="font-size:10px;font-family:OpenSans;fill:#555;" text-anchor="middle" x="0" y="-6.000000">G33G</text></g><line x1="310.113636" x2="310.113636" y1="34.000000" y2="62.000000" stroke="#BABDB6" stroke-width="2"/><a xlink:title="D245N"><circle cx="310.113636" cy="34.000000" r="4.000000" fill="#ff0000" /></a><g transform="translate(310.113636,34.000000) rotate(-30)"><text style="font-size:10px;font-family:OpenSans;fill:#555;" text-anchor="middle" x="0" y="-6.000000">D245N</text></g><a xlink:title=",  (584aa)"><rect fill="#BABDB6" x="15.000000" y="62.000000" width="703.454545" height="14.000000"/></a><g transform="translate(48.727273,57.000000)"><a xlink:href="https://www.ebi.ac.uk/interpro/entry/pfam/PF00651" xlink:title="BTB/POZ domain"><rect fill="#2DCF00" x="0" y="0" width="125.272727" height="24.000000" filter="url(#ds)"/><text style="font-size:12px;font-family:OpenSans;fill:#ffffff;" text-anchor="middle" x="62.636364" y="16.000000">BTB/POZ domain</text></a></g>
<g transform="translate(182.431818,57.000000)"><a xlink:href="https://www.ebi.ac.uk/interpro/entry/pfam/PF07707" xlink:title="BTB And C-terminal Kelch"><rect fill="#FF5353" x="0" y="0" width="121.659091" height="24.000000" filter="url(#ds)"/><text style="font-size:12px;font-family:OpenSans;fill:#ffffff;" text-anchor="middle" x="60.829545" y="16.000000">BACK</text></a></g>
<g transform="translate(414.909091,57.000000)"><a xlink:href="https://www.ebi.ac.uk/interpro/entry/pfam/PF01344" xlink:title="Kelch motif"><rect fill="#5B5BFF" x="0" y="0" width="54.204545" height="24.000000" filter="url(#ds)"/><text style="font-size:12px;font-family:OpenSans;fill:#ffffff;" text-anchor="middle" x="27.102273" y="16.000000">Kelch_1</text></a></g>
<g transform="translate(471.522727,57.000000)"><a xlink:href="https://www.ebi.ac.uk/interpro/entry/pfam/PF01344" xlink:title="Kelch motif"><rect fill="#EBD61D" x="0" y="0" width="53.000000" height="24.000000" filter="url(#ds)"/><text style="font-size:12px;font-family:OpenSans;fill:#ffffff;" text-anchor="middle" x="26.500000" y="16.000000">Kelch_1</text></a></g>
<g transform="translate(529.340909,57.000000)"><a xlink:href="https://www.ebi.ac.uk/interpro/entry/pfam/PF01344" xlink:title="Kelch motif"><rect fill="#BA21E0" x="0" y="0" width="54.204545" height="24.000000" filter="url(#ds)"/><text style="font-size:12px;font-family:OpenSans;fill:#ffffff;" text-anchor="middle" x="27.102273" y="16.000000">Kelch_1</text></a></g>
<g transform="translate(585.954545,57.000000)"><a xlink:href="https://www.ebi.ac.uk/interpro/entry/pfam/PF01344" xlink:title="Kelch motif"><rect fill="#FF9C42" x="0" y="0" width="55.409091" height="24.000000" filter="url(#ds)"/><text style="font-size:12px;font-family:OpenSans;fill:#ffffff;" text-anchor="middle" x="27.704545" y="16.000000">Kelch_1</text></a></g>
<g transform="translate(643.772727,57.000000)"><a xlink:href="https://www.ebi.ac.uk/interpro/entry/pfam/PF01344" xlink:title="Kelch motif"><rect fill="#FF7DFF" x="0" y="0" width="60.227273" height="24.000000" filter="url(#ds)"/><text style="font-size:12px;font-family:OpenSans;fill:#ffffff;" text-anchor="middle" x="30.113636" y="16.000000">Kelch_1</text></a></g>
<g class="axis">
<line x1="15.000000" x2="718.454545" y1="91.000000" y2="91.000000" stroke="#AAAAAA" /><line x1="15.000000" x2="15.000000" y1="91.000000" y2="96.000000" stroke="#AAAAAA" /><line x1="15.000000" x2="15.000000" y1="91.000000" y2="96.000000" stroke="#AAAAAA" /><text style="font-size:10px;font-family:OpenSans;fill:#000000;" text-anchor="middle" x="15.000000" y="106.000000">0</text><line x1="54.750000" x2="54.750000" y1="91.000000" y2="96.000000" stroke="#AAAAAA" /><text style="font-size:10px;font-family:OpenSans;fill:#000000;" text-anchor="middle" x="54.750000" y="106.000000">33</text><line x1="174.000000" x2="174.000000" y1="91.000000" y2="96.000000" stroke="#AAAAAA" /><text style="font-size:10px;font-family:OpenSans;fill:#000000;" text-anchor="middle" x="174.000000" y="106.000000">132</text><line x1="310.113636" x2="310.113636" y1="91.000000" y2="96.000000" stroke="#AAAAAA" /><text style="font-size:10px;font-family:OpenSans;fill:#000000;" text-anchor="middle" x="310.113636" y="106.000000">245</text><line x1="414.909091" x2="414.909091" y1="91.000000" y2="96.000000" stroke="#AAAAAA" /><text style="font-size:10px;font-family:OpenSans;fill:#000000;" text-anchor="middle" x="414.909091" y="106.000000">332</text><line x1="469.113636" x2="469.113636" y1="91.000000" y2="96.000000" stroke="#AAAAAA" /><text style="font-size:10px;font-family:OpenSans;fill:#000000;" text-anchor="middle" x="469.113636" y="106.000000">377</text><line x1="524.522727" x2="524.522727" y1="91.000000" y2="96.000000" stroke="#AAAAAA" /><text style="font-size:10px;font-family:OpenSans;fill:#000000;" text-anchor="middle" x="524.522727" y="106.000000">423</text><line x1="583.545455" x2="583.545455" y1="91.000000" y2="96.000000" stroke="#AAAAAA" /><text style="font-size:10px;font-family:OpenSans;fill:#000000;" text-anchor="middle" x="583.545455" y="106.000000">472</text><line x1="641.363636" x2="641.363636" y1="91.000000" y2="96.000000" stroke="#AAAAAA" /><text style="font-size:10px;font-family:OpenSans;fill:#000000;" text-anchor="middle" x="641.363636" y="106.000000">520</text><line x1="718.454545" x2="718.454545" y1="91.000000" y2="96.000000" stroke="#AAAAAA" /><text style="font-size:10px;font-family:OpenSans;fill:#000000;" text-anchor="middle" x="718.454545" y="106.000000">584</text></g>
<rect fill="#FF5353" x="4" y="120.000000" width="12" height="12" filter="url(#ds)"/><text style="font-size:12px;font-family:OpenSans;fill:#000000;" text-anchor="start" x="20" y="132.000000">BTB And C-terminal Kelch</text><rect fill="#FF7DFF" x="4" y="134.000000" width="12" height="12" filter="url(#ds)"/><text style="font-size:12px;font-family:OpenSans;fill:#000000;" text-anchor="start" x="20" y="146.000000">Kelch motif</text></svg>
