<?xml version='1.0'?>
<svg xmlns="http://www.w3.org/2000/svg" xmlns:xlink="http://www.w3.org/1999/xlink" width="430.000000" height="146.200000">
<defs>
  <filter id="ds" x="0" y="0">
    <feOffset in="SourceAlpha" dx="2" dy="2" />
    <feComponentTransfer><feFuncA type="linear" slope="0.2"/></feComponentTransfer>
    <feGaussianBlur result="blurOut" stdDeviation="1" />
    <feBlend in="SourceGraphic" in2="blurOut" mode="normal" />
  </filter>
  <pattern id="disordered-hatch" patternUnits="userSpaceOnUse" width="4" height="4">
    <path d="M-1,1 l2,-2 M0,4 l4,-4 M3,5 l2,-2" stroke="#000000" opacity="0.3" />
  </pattern>
</defs>
<line x1="161.341463" x2="161.341463" y1="34.000000" y2="62.000000" stroke="#BABDB6" stroke-width="2"/><a xlink:title="R60L"><circle cx="161.341463" cy="34.000000" r="4.000000" fill="#ff0000" /></a><g transform="translate(161.341463,34.000000) rotate(-30)"><text style="font-size:10px;font-family:OpenSans;fill:#555;" text-anchor="middle" x="0" y="-6.000000">R60L</text></g><a xlink:title=",  (164aa)"><rect fill="#BABDB6" x="15.000000" y="62.000000" width="400.000000" height="14.000000"/></a><g transform="translate(122.317073,57.000000)"><a xlink:href="https://www.ebi.ac.uk/interpro/entry/pfam/PF00612" xlink:title="IQ calmodulin-binding motif"><rect fill="#2DCF00" x="0" y="0" width="43.902439" height="24.000000" filter="url(#ds)"/><text style="font-size:12px;font-family:OpenSans;fill:#ffffff;" text-anchor="middle" x="21.951220" y="16.000000">IQ</text></a></g>
<g transform="translate(190.609756,57.000000)"><a xlink:href="https://www.ebi.ac.uk/interpro/entry/pfam/PF00612" xlink:title="IQ calmodulin-binding motif"><rect fill="#FF5353" x="0" y="0" width="26.829268" height="24.000000" filter="url(#ds)"/><text style="font-size:12px;font-family:OpenSans;fill:#ffffff;" text-anchor="middle" x="13.414634" y="16.000000">IQ</text></a></g>
<g transform="translate(258.902439,57.000000)"><a xlink:href="https://www.ebi.ac.uk/interpro/entry/pfam/PF00612" xlink:title="IQ calmodulin-binding motif"><rect fill="#5B5BFF" x="0" y="0" width="39.024390" height="24.000000" filter="url(#ds)"/><text style="font-size:12px;font-family:OpenSans;fill:#ffffff;" text-anchor="middle" x="19.512195" y="16.000000">IQ</text></a></g>
<g class="axis">
<line x1="15.000000" x2="415.000000" y1="91.000000" y2="91.000000" stroke="#AAAAAA" /><line x1="15.000000" x2="15.000000" y1="91.000000" y2="96.000000" stroke="#AAAAAA" /><line x1="15.000000" x2="15.000000" y1="91.000000" y2="96.000000" stroke="#AAAAAA" /><text style="font-size:10px;font-family:OpenSans;fill:#000000;" text-anchor="middle" x="15.000000" y="106.000000">0</text><line x1="122.317073" x2="122.317073" y1="91.000000" y2="96.000000" stroke="#AAAAAA" /><text style="font-size:10px;font-family:OpenSans;fill:#000000;" text-anchor="middle" x="122.317073" y="106.000000">44</text><line x1="161.341463" x2="161.341463" y1="91.000000" y2="96.000000" stroke="#AAAAAA" /><text style="font-size:10px;font-family:OpenSans;fill:#000000;" text-anchor="middle" x="161.341463" y="106.000000">60</text><line x1="190.609756" x2="190.609756" y1="91.000000" y2="96.000000" stroke="#AAAAAA" /><text style="font-size:10px;font-family:OpenSans;fill:#000000;" text-anchor="middle" x="190.609756" y="106.000000">72</text><line x1="217.439024" x2="217.439024" y1="91.000000" y2="96.000000" stroke="#AAAAAA" /><text style="font-size:10px;font-family:OpenSans;fill:#000000;" text-anchor="middle" x="217.439024" y="106.000000">83</text><line x1="258.902439" x2="258.902439" y1="91.000000" y2="96.000000" stroke="#AAAAAA" /><text style="font-size:10px;font-family:OpenSans;fill:#000000;" text-anchor="middle" x="258.902439" y="106.000000">100</text><line x1="297.926829" x2="297.926829" y1="91.000000" y2="96.000000" stroke="#AAAAAA" /><text style="font-size:10px;font-family:OpenSans;fill:#000000;" text-anchor="middle" x="297.926829" y="106.000000">116</text><line x1="415.000000" x2="415.000000" y1="91.000000" y2="96.000000" stroke="#AAAAAA" /><text style="font-size:10px;font-family:OpenSans;fill:#000000;" text-anchor="middle" x="415.000000" y="106.000000">164</text></g>
<rect fill="#5B5BFF" x="4" y="120.000000" width="12" height="12" filter="url(#ds)"/><text style="font-size:12px;font-family:OpenSans;fill:#000000;" text-anchor="start" x="20" y="132.000000">IQ calmodulin-binding motif</text></svg>
