<?xml version='1.0'?>
<svg xmlns="http://www.w3.org/2000/svg" xmlns:xlink="http://www.w3.org/1999/xlink" width="1237.538462" height="158.700000">
<defs>
  <filter id="ds" x="0" y="0">
    <feOffset in="SourceAlpha" dx="2" dy="2" />
    <feComponentTransfer><feFuncA type="linear" slope="0.2"/></feComponentTransfer>
    <feGaussianBlur result="blurOut" stdDeviation="1" />
    <feBlend in="SourceGraphic" in2="blurOut" mode="normal" />
  </filter>
  <pattern id="disordered-hatch" patternUnits="userSpaceOnUse" width="4" height="4">
    <path d="M-1,1 l2,-2 M0,4 l4,-4 M3,5 l2,-2" stroke="#000000" opacity="0.3" />
  </pattern>
</defs>
<line x1="701.923077" x2="701.923077" y1="46.500000" y2="74.500000" stroke="#BABDB6" stroke-width="2"/><a xlink:title="I285F"><circle cx="701.923077" cy="46.500000" r="4.000000" fill="#ff0000" /></a><g transform="translate(701.923077,46.500000) rotate(-30)"><text style="font-size:10px;font-family:OpenSans;fill:#555;" text-anchor="middle" x="0" y="-6.000000">I285F</text></g><line x1="709.153846" x2="709.153846" y1="46.500000" y2="74.500000" stroke="#BABDB6" stroke-width="2"/><a xlink:title="S288T"><circle cx="709.153846" cy="46.500000" r="4.000000" fill="#ff0000" /></a><g transform="translate(709.153846,46.500000) rotate(-30)"><text style="font-size:10px;font-family:OpenSans;fill:#555;" text-anchor="middle" x="0" y="-6.000000">S288T</text></g><line x1="1020.076923" x2="1020.076923" y1="46.500000" y2="74.500000" stroke="#BABDB6" stroke-width="2"/><a xlink:title="P417P"><circle cx="1020.076923" cy="46.500000" r="4.000000" fill="#0000ff" /></a><g transform="translate(1020.076923,46.500000) rotate(-30)"><text style="font-size:10px;font-family:OpenSans;fill:#555;" text-anchor="middle" x="0" y="-6.000000">P417P</text></g><line x1="1029.717949" x2="1029.717949" y1="34.000000" y2="74.500000" stroke="#BABDB6" stroke-width="2"/><a xlink:title="R421P"><circle cx="1029.717949" cy="34.000000" r="4.000000" fill="#ff0000" /></a><g transform="translate(1029.717949,34.000000) rotate(-30)"><text style="font-size:10px;font-family:OpenSans;fill:#555;" text-anchor="middle" x="0" y="-6.000000">R421P</text></g><line x1="1032.128205" x2="1032.128205" y1="46.500000" y2="74.500000" stroke="#BABDB6" stroke-width="2"/><a xlink:title="L422P"><circle cx="1032.128205" cy="46.500000" r="4.000000" fill="#ff0000" /></a><g transform="translate(1032.128205,46.500000) rotate(-30)"><text style="font-size:10px;font-family:OpenSans;fill:#555;" text-anchor="middle" x="0" y="-6.000000">L422P</text></g><line x1="1169.512821" x2="1169.512821" y1="46.500000" y2="74.500000" stroke="#BABDB6" stroke-width="2"/><a xlink:title="Q479H"><circle cx="1169.512821" cy="46.500000" r="4.000000" fill="#ff0000" /></a><g transform="translate(1169.512821,46.500000) rotate(-30)"><text style="font-size:10px;font-family:OpenSans;fill:#555;" text-anchor="middle" x="0" y="-6.000000">Q479H</text></g><line x1="1212.897436" x2="1212.897436" y1="34.000000" y2="74.500000" stroke="#BABDB6" stroke-width="2"/><a xlink:title="A497G"><circle cx="1212.897436" cy="34.000000" r="4.000000" fill="#ff0000" /></a><g transform="translate(1212.897436,34.000000) rotate(-30)"><text style="font-size:10px;font-family:OpenSans;fill:#555;" text-anchor="middle" x="0" y="-6.000000">A497G</text></g><line x1="1215.307692" x2="1215.307692" y1="46.500000" y2="74.500000" stroke="#BABDB6" stroke-width="2"/><a xlink:title="L498V"><circle cx="1215.307692" cy="46.500000" r="4.000000" fill="#ff0000" /></a><g transform="translate(1215.307692,46.500000) rotate(-30)"><text style="font-size:10px;font-family:OpenSans;fill:#555;" text-anchor="middle" x="0" y="-6.000000">L498V</text></g><a xlink:title=",  (501aa)"><rect fill="#BABDB6" x="15.000000" y="74.500000" width="1207.538462" height="14.000000"/></a><g transform="translate(364.487179,69.500000)"><a xlink:href="https://www.ebi.ac.uk/interpro/entry/pfam/PF05920" xlink:title="Homeobox KN domain"><rect fill="#2DCF00" x="0" y="0" width="94.000000" height="24.000000" filter="url(#ds)"/><text style="font-size:12px;font-family:OpenSans;fill:#ffffff;" text-anchor="middle" x="47.000000" y="16.000000">Homeobox_KN</text></a></g>
<g class="axis">
<line x1="15.000000" x2="1222.538462" y1="103.500000" y2="103.500000" stroke="#AAAAAA" /><line x1="15.000000" x2="15.000000" y1="103.500000" y2="108.500000" stroke="#AAAAAA" /><line x1="15.000000" x2="15.000000" y1="103.500000" y2="108.500000" stroke="#AAAAAA" /><text style="font-size:10px;font-family:OpenSans;fill:#000000;" text-anchor="middle" x="15.000000" y="118.500000">0</text><line x1="364.487179" x2="364.487179" y1="103.500000" y2="108.500000" stroke="#AAAAAA" /><text style="font-size:10px;font-family:OpenSans;fill:#000000;" text-anchor="middle" x="364.487179" y="118.500000">145</text><line x1="458.487179" x2="458.487179" y1="103.500000" y2="108.500000" stroke="#AAAAAA" /><text style="font-size:10px;font-family:OpenSans;fill:#000000;" text-anchor="middle" x="458.487179" y="118.500000">184</text><line x1="701.923077" x2="701.923077" y1="103.500000" y2="108.500000" stroke="#AAAAAA" /><text style="font-size:10px;font-family:OpenSans;fill:#000000;" text-anchor="middle" x="701.923077" y="118.500000">285</text><line x1="1020.076923" x2="1020.076923" y1="103.500000" y2="108.500000" stroke="#AAAAAA" /><text style="font-size:10px;font-family:OpenSans;fill:#000000;" text-anchor="middle" x="1020.076923" y="118.500000">417</text><line x1="1169.512821" x2="1169.512821" y1="103.500000" y2="108.500000" stroke="#AAAAAA" /><text style="font-size:10px;font-family:OpenSans;fill:#000000;" text-anchor="middle" x="1169.512821" y="118.500000">479</text><line x1="1222.538462" x2="1222.538462" y1="103.500000" y2="108.500000" stroke="#AAAAAA" /><text style="font-size:10px;font-family:OpenSans;fill:#000000;" text-anchor="middle" x="1222.538462" y="118.500000">501</text></g>
<rect fill="#2DCF00" x="4" y="132.500000" width="12" height="12" filter="url(#ds)"/><text style="font-size:12px;font-family:OpenSans;fill:#000000;" text-anchor="start" x="20" y="144.500000">Homeobox KN domain</text></svg>
