<?xml version='1.0'?>
<svg xmlns="http://www.w3.org/2000/svg" xmlns:xlink="http://www.w3.org/1999/xlink" width="899.440000" height="146.200000">
<defs>
  <filter id="ds" x="0" y="0">
    <feOffset in="SourceAlpha" dx="2" dy="2" />
    <feComponentTransfer><feFuncA type="linear" slope="0.2"/></feComponentTransfer>
    <feGaussianBlur result="blurOut" stdDeviation="1" />
    <feBlend in="SourceGraphic" in2="blurOut" mode="normal" />
  </filter>
  <pattern id="disordered-hatch" patternUnits="userSpaceOnUse" width="4" height="4">
    <path d="M-1,1 l2,-2 M0,4 l4,-4 M3,5 l2,-2" stroke="#000000" opacity="0.3" />
  </pattern>
</defs>
<line x1="37.880000" x2="37.880000" y1="34.000000" y2="62.000000" stroke="#BABDB6" stroke-width="2"/><a xlink:title="A13S"><circle cx="37.880000" cy="34.000000" r="4.000000" fill="#ff0000" /></a><g transform="translate(37.880000,34.000000) rotate(-30)"><text style="font-size:10px;font-family:OpenSans;fill:#555;" text-anchor="middle" x="0" y="-6.000000">A13S</text></g><line x1="97.720000" x2="97.720000" y1="34.000000" y2="62.000000" stroke="#BABDB6" stroke-width="2"/><a xlink:title="S47S"><circle cx="97.720000" cy="34.000000" r="4.000000" fill="#0000ff" /></a><g transform="translate(97.720000,34.000000) rotate(-30)"><text style="font-size:10px;font-family:OpenSans;fill:#555;" text-anchor="middle" x="0" y="-6.000000">S47S</text></g><line x1="122.360000" x2="122.360000" y1="34.000000" y2="62.000000" stroke="#BABDB6" stroke-width="2"/><a xlink:title="A61S"><circle cx="122.360000" cy="34.000000" r="4.000000" fill="#ff0000" /></a><g transform="translate(122.360000,34.000000) rotate(-30)"><text style="font-size:10px;font-family:OpenSans;fill:#555;" text-anchor="middle" x="0" y="-6.000000">A61S</text></g><line x1="286.040000" x2="286.040000" y1="34.000000" y2="62.000000" stroke="#BABDB6" stroke-width="2"/><a xlink:title="A154S"><circle cx="286.040000" cy="34.000000" r="4.000000" fill="#ff0000" /></a><g transform="translate(286.040000,34.000000) rotate(-30)"><text style="font-size:10px;font-family:OpenSans;fill:#555;" text-anchor="middle" x="0" y="-6.000000">A154S</text></g><line x1="539.480000" x2="539.480000" y1="34.000000" y2="62.000000" stroke="#BABDB6" stroke-width="2"/><a xlink:title="E298E"><circle cx="539.480000" cy="34.000000" r="4.000000" fill="#0000ff" /></a><g transform="translate(539.480000,34.000000) rotate(-30)"><text style="font-size:10px;font-family:OpenSans;fill:#555;" text-anchor="middle" x="0" y="-6.000000">E298E</text></g><line x1="623.960000" x2="623.960000" y1="34.000000" y2="62.000000" stroke="#BABDB6" stroke-width="2"/><a xlink:title="E346E"><circle cx="623.960000" cy="34.000000" r="4.000000" fill="#0000ff" /></a><g transform="translate(623.960000,34.000000) rotate(-30)"><text style="font-size:10px;font-family:OpenSans;fill:#555;" text-anchor="middle" x="0" y="-6.000000">E346E</text></g><line x1="701.400000" x2="701.400000" y1="34.000000" y2="62.000000" stroke="#BABDB6" stroke-width="2"/><a xlink:title="E390E"><circle cx="701.400000" cy="34.000000" r="4.000000" fill="#0000ff" /></a><g transform="translate(701.400000,34.000000) rotate(-30)"><text style="font-size:10px;font-family:OpenSans;fill:#555;" text-anchor="middle" x="0" y="-6.000000">E390E</text></g><line x1="787.640000" x2="787.640000" y1="34.000000" y2="62.000000" stroke="#BABDB6" stroke-width="2"/><a xlink:title="E439E"><circle cx="787.640000" cy="34.000000" r="4.000000" fill="#0000ff" /></a><g transform="translate(787.640000,34.000000) rotate(-30)"><text style="font-size:10px;font-family:OpenSans;fill:#555;" text-anchor="middle" x="0" y="-6.000000">E439E</text></g><a xlink:title=",  (494aa)"><rect fill="#BABDB6" x="15.000000" y="62.000000" width="869.440000" height="14.000000"/></a><g transform="translate(183.960000,57.000000)"><a xlink:href="https://www.ebi.ac.uk/interpro/entry/pfam/PF07974" xlink:title="EGF-like domain"><rect fill="#2DCF00" x="0" y="0" width="52.800000" height="24.000000" filter="url(#ds)"/><text style="font-size:12px;font-family:OpenSans;fill:#ffffff;" text-anchor="middle" x="26.400000" y="16.000000">EGF_2</text></a></g>
<g transform="translate(340.600000,57.000000)"><a xlink:href="https://www.ebi.ac.uk/interpro/entry/pfam/PF07974" xlink:title="EGF-like domain"><rect fill="#FF5353" x="0" y="0" width="54.560000" height="24.000000" filter="url(#ds)"/><text style="font-size:12px;font-family:OpenSans;fill:#ffffff;" text-anchor="middle" x="27.280000" y="16.000000">EGF_2</text></a></g>
<g transform="translate(516.600000,57.000000)"><a xlink:href="https://www.ebi.ac.uk/interpro/entry/pfam/PF07974" xlink:title="EGF-like domain"><rect fill="#5B5BFF" x="0" y="0" width="44.000000" height="24.000000" filter="url(#ds)"/><text style="font-size:12px;font-family:OpenSans;fill:#ffffff;" text-anchor="middle" x="22.000000" y="16.000000">EGF_2</text></a></g>
<g transform="translate(662.680000,57.000000)"><a xlink:href="https://www.ebi.ac.uk/interpro/entry/pfam/PF07974" xlink:title="EGF-like domain"><rect fill="#EBD61D" x="0" y="0" width="52.800000" height="24.000000" filter="url(#ds)"/><text style="font-size:12px;font-family:OpenSans;fill:#ffffff;" text-anchor="middle" x="26.400000" y="16.000000">EGF_2</text></a></g>
<g transform="translate(815.800000,57.000000)"><a xlink:href="https://www.ebi.ac.uk/interpro/entry/pfam/PF07974" xlink:title="EGF-like domain"><rect fill="#BA21E0" x="0" y="0" width="52.800000" height="24.000000" filter="url(#ds)"/><text style="font-size:12px;font-family:OpenSans;fill:#ffffff;" text-anchor="middle" x="26.400000" y="16.000000">EGF_2</text></a></g>
<g class="axis">
<line x1="15.000000" x2="884.440000" y1="91.000000" y2="91.000000" stroke="#AAAAAA" /><line x1="15.000000" x2="15.000000" y1="91.000000" y2="96.000000" stroke="#AAAAAA" /><line x1="15.000000" x2="15.000000" y1="91.000000" y2="96.000000" stroke="#AAAAAA" /><text style="font-size:10px;font-family:OpenSans;fill:#000000;" text-anchor="middle" x="15.000000" y="106.000000">0</text><line x1="37.880000" x2="37.880000" y1="91.000000" y2="96.000000" stroke="#AAAAAA" /><text style="font-size:10px;font-family:OpenSans;fill:#000000;" text-anchor="middle" x="37.880000" y="106.000000">13</text><line x1="97.720000" x2="97.720000" y1="91.000000" y2="96.000000" stroke="#AAAAAA" /><text style="font-size:10px;font-family:OpenSans;fill:#000000;" text-anchor="middle" x="97.720000" y="106.000000">47</text><line x1="122.360000" x2="122.360000" y1="91.000000" y2="96.000000" stroke="#AAAAAA" /><text style="font-size:10px;font-family:OpenSans;fill:#000000;" text-anchor="middle" x="122.360000" y="106.000000">61</text><line x1="183.960000" x2="183.960000" y1="91.000000" y2="96.000000" stroke="#AAAAAA" /><text style="font-size:10px;font-family:OpenSans;fill:#000000;" text-anchor="middle" x="183.960000" y="106.000000">96</text><line x1="236.760000" x2="236.760000" y1="91.000000" y2="96.000000" stroke="#AAAAAA" /><text style="font-size:10px;font-family:OpenSans;fill:#000000;" text-anchor="middle" x="236.760000" y="106.000000">126</text><line x1="286.040000" x2="286.040000" y1="91.000000" y2="96.000000" stroke="#AAAAAA" /><text style="font-size:10px;font-family:OpenSans;fill:#000000;" text-anchor="middle" x="286.040000" y="106.000000">154</text><line x1="340.600000" x2="340.600000" y1="91.000000" y2="96.000000" stroke="#AAAAAA" /><text style="font-size:10px;font-family:OpenSans;fill:#000000;" text-anchor="middle" x="340.600000" y="106.000000">185</text><line x1="395.160000" x2="395.160000" y1="91.000000" y2="96.000000" stroke="#AAAAAA" /><text style="font-size:10px;font-family:OpenSans;fill:#000000;" text-anchor="middle" x="395.160000" y="106.000000">216</text><line x1="516.600000" x2="516.600000" y1="91.000000" y2="96.000000" stroke="#AAAAAA" /><text style="font-size:10px;font-family:OpenSans;fill:#000000;" text-anchor="middle" x="516.600000" y="106.000000">285</text><line x1="539.480000" x2="539.480000" y1="91.000000" y2="96.000000" stroke="#AAAAAA" /><text style="font-size:10px;font-family:OpenSans;fill:#000000;" text-anchor="middle" x="539.480000" y="106.000000">298</text><line x1="560.600000" x2="560.600000" y1="91.000000" y2="96.000000" stroke="#AAAAAA" /><text style="font-size:10px;font-family:OpenSans;fill:#000000;" text-anchor="middle" x="560.600000" y="106.000000">310</text><line x1="623.960000" x2="623.960000" y1="91.000000" y2="96.000000" stroke="#AAAAAA" /><text style="font-size:10px;font-family:OpenSans;fill:#000000;" text-anchor="middle" x="623.960000" y="106.000000">346</text><line x1="662.680000" x2="662.680000" y1="91.000000" y2="96.000000" stroke="#AAAAAA" /><text style="font-size:10px;font-family:OpenSans;fill:#000000;" text-anchor="middle" x="662.680000" y="106.000000">368</text><line x1="701.400000" x2="701.400000" y1="91.000000" y2="96.000000" stroke="#AAAAAA" /><text style="font-size:10px;font-family:OpenSans;fill:#000000;" text-anchor="middle" x="701.400000" y="106.000000">390</text><line x1="787.640000" x2="787.640000" y1="91.000000" y2="96.000000" stroke="#AAAAAA" /><text style="font-size:10px;font-family:OpenSans;fill:#000000;" text-anchor="middle" x="787.640000" y="106.000000">439</text><line x1="815.800000" x2="815.800000" y1="91.000000" y2="96.000000" stroke="#AAAAAA" /><text style="font-size:10px;font-family:OpenSans;fill:#000000;" text-anchor="middle" x="815.800000" y="106.000000">455</text><line x1="884.440000" x2="884.440000" y1="91.000000" y2="96.000000" stroke="#AAAAAA" /><text style="font-size:10px;font-family:OpenSans;fill:#000000;" text-anchor="middle" x="884.440000" y="106.000000">494</text></g>
<rect fill="#BA21E0" x="4" y="120.000000" width="12" height="12" filter="url(#ds)"/><text style="font-size:12px;font-family:OpenSans;fill:#000000;" text-anchor="start" x="20" y="132.000000">EGF-like domain</text></svg>
