<?xml version='1.0'?>
<svg xmlns="http://www.w3.org/2000/svg" xmlns:xlink="http://www.w3.org/1999/xlink" width="799.333333" height="211.500000">
<defs>
  <filter id="ds" x="0" y="0">
    <feOffset in="SourceAlpha" dx="2" dy="2" />
    <feComponentTransfer><feFuncA type="linear" slope="0.2"/></feComponentTransfer>
    <feGaussianBlur result="blurOut" stdDeviation="1" />
    <feBlend in="SourceGraphic" in2="blurOut" mode="normal" />
  </filter>
  <pattern id="disordered-hatch" patternUnits="userSpaceOnUse" width="4" height="4">
    <path d="M-1,1 l2,-2 M0,4 l4,-4 M3,5 l2,-2" stroke="#000000" opacity="0.3" />
  </pattern>
</defs>
<line x1="136.333333" x2="136.333333" y1="46.500000" y2="74.500000" stroke="#BABDB6" stroke-width="2"/><a xlink:title="G182G"><circle cx="136.333333" cy="46.500000" r="4.000000" fill="#0000ff" /></a><g transform="translate(136.333333,46.500000) rotate(-30)"><text style="font-size:10px;font-family:OpenSans;fill:#555;" text-anchor="middle" x="0" y="-6.000000">G182G</text></g><line x1="367.666667" x2="367.666667" y1="34.000000" y2="74.500000" stroke="#BABDB6" stroke-width="2"/><a xlink:title="I529I"><circle cx="367.666667" cy="34.000000" r="4.000000" fill="#0000ff" /></a><g transform="translate(367.666667,34.000000) rotate(-30)"><text style="font-size:10px;font-family:OpenSans;fill:#555;" text-anchor="middle" x="0" y="-6.000000">I529I</text></g><line x1="368.333333" x2="368.333333" y1="46.500000" y2="74.500000" stroke="#BABDB6" stroke-width="2"/><a xlink:title="I530I"><circle cx="368.333333" cy="46.500000" r="4.000000" fill="#0000ff" /></a><g transform="translate(368.333333,46.500000) rotate(-30)"><text style="font-size:10px;font-family:OpenSans;fill:#555;" text-anchor="middle" x="0" y="-6.000000">I530I</text></g><line x1="469.666667" x2="469.666667" y1="34.000000" y2="74.500000" stroke="#BABDB6" stroke-width="2"/><a xlink:title="S682S"><circle cx="469.666667" cy="34.000000" r="4.000000" fill="#0000ff" /></a><g transform="translate(469.666667,34.000000) rotate(-30)"><text style="font-size:10px;font-family:OpenSans;fill:#555;" text-anchor="middle" x="0" y="-6.000000">S682S</text></g><line x1="470.333333" x2="470.333333" y1="46.500000" y2="74.500000" stroke="#BABDB6" stroke-width="2"/><a xlink:title="S683S"><circle cx="470.333333" cy="46.500000" r="4.000000" fill="#0000ff" /></a><g transform="translate(470.333333,46.500000) rotate(-30)"><text style="font-size:10px;font-family:OpenSans;fill:#555;" text-anchor="middle" x="0" y="-6.000000">S683S</text></g><line x1="480.333333" x2="480.333333" y1="34.000000" y2="74.500000" stroke="#BABDB6" stroke-width="2"/><a xlink:title="A698A"><circle cx="480.333333" cy="34.000000" r="4.000000" fill="#0000ff" /></a><g transform="translate(480.333333,34.000000) rotate(-30)"><text style="font-size:10px;font-family:OpenSans;fill:#555;" text-anchor="middle" x="0" y="-6.000000">A698A</text></g><line x1="481.000000" x2="481.000000" y1="46.500000" y2="74.500000" stroke="#BABDB6" stroke-width="2"/><a xlink:title="A699A"><circle cx="481.000000" cy="46.500000" r="4.000000" fill="#0000ff" /></a><g transform="translate(481.000000,46.500000) rotate(-30)"><text style="font-size:10px;font-family:OpenSans;fill:#555;" text-anchor="middle" x="0" y="-6.000000">A699A</text></g><line x1="503.000000" x2="503.000000" y1="34.000000" y2="74.500000" stroke="#BABDB6" stroke-width="2"/><a xlink:title="P732P"><circle cx="503.000000" cy="34.000000" r="4.000000" fill="#0000ff" /></a><g transform="translate(503.000000,34.000000) rotate(-30)"><text style="font-size:10px;font-family:OpenSans;fill:#555;" text-anchor="middle" x="0" y="-6.000000">P732P</text></g><line x1="503.666667" x2="503.666667" y1="46.500000" y2="74.500000" stroke="#BABDB6" stroke-width="2"/><a xlink:title="P733P"><circle cx="503.666667" cy="46.500000" r="4.000000" fill="#0000ff" /></a><g transform="translate(503.666667,46.500000) rotate(-30)"><text style="font-size:10px;font-family:OpenSans;fill:#555;" text-anchor="middle" x="0" y="-6.000000">P733P</text></g><a xlink:title=",  (1154aa)"><rect fill="#BABDB6" x="15.000000" y="74.500000" width="769.333333" height="14.000000"/></a><g transform="translate(40.333333,69.500000)"><a xlink:href="https://www.ebi.ac.uk/interpro/entry/pfam/PF18379" xlink:title="FERM F1 ubiquitin-like domain"><rect fill="#2DCF00" x="0" y="0" width="60.000000" height="24.000000" filter="url(#ds)"/><text style="font-size:12px;font-family:OpenSans;fill:#ffffff;" text-anchor="middle" x="30.000000" y="16.000000">FERM_F1</text></a></g>
<g transform="translate(113.000000,69.500000)"><a xlink:href="https://www.ebi.ac.uk/interpro/entry/pfam/PF18377" xlink:title="FERM F2 acyl-CoA binding protein-like domain"><rect fill="#FF5353" x="0" y="0" width="86.666667" height="24.000000" filter="url(#ds)"/><text style="font-size:12px;font-family:OpenSans;fill:#ffffff;" text-anchor="middle" x="43.333333" y="16.000000">FERM_F2</text></a></g>
<g transform="translate(204.333333,69.500000)"><a xlink:href="https://www.ebi.ac.uk/interpro/entry/pfam/PF17887" xlink:title="Jak1 pleckstrin homology-like domain"><rect fill="#5B5BFF" x="0" y="0" width="91.333333" height="24.000000" filter="url(#ds)"/><text style="font-size:12px;font-family:OpenSans;fill:#ffffff;" text-anchor="middle" x="45.666667" y="16.000000">Jak1_Phl</text></a></g>
<g transform="translate(307.000000,69.500000)"><a xlink:href="https://www.ebi.ac.uk/interpro/entry/pfam/PF21990" xlink:title="SH2 domain"><rect fill="#EBD61D" x="0" y="0" width="72.000000" height="24.000000" filter="url(#ds)"/><text style="font-size:12px;font-family:OpenSans;fill:#ffffff;" text-anchor="middle" x="36.000000" y="16.000000">SH2_1</text></a></g>
<g transform="translate(405.000000,69.500000)"><a xlink:href="https://www.ebi.ac.uk/interpro/entry/pfam/PF07714" xlink:title="Protein tyrosine and serine/threonine kinase"><rect fill="#BA21E0" x="0" y="0" width="172.666667" height="24.000000" filter="url(#ds)"/><text style="font-size:12px;font-family:OpenSans;fill:#ffffff;" text-anchor="middle" x="86.333333" y="16.000000">PK_Tyr_Ser-Thr</text></a></g>
<g transform="translate(599.000000,69.500000)"><a xlink:href="https://www.ebi.ac.uk/interpro/entry/pfam/PF07714" xlink:title="Protein tyrosine and serine/threonine kinase"><rect fill="#FF9C42" x="0" y="0" width="180.666667" height="24.000000" filter="url(#ds)"/><text style="font-size:12px;font-family:OpenSans;fill:#ffffff;" text-anchor="middle" x="90.333333" y="16.000000">PK_Tyr_Ser-Thr</text></a></g>
<g class="axis">
<line x1="15.000000" x2="784.333333" y1="103.500000" y2="103.500000" stroke="#AAAAAA" /><line x1="15.000000" x2="15.000000" y1="103.500000" y2="108.500000" stroke="#AAAAAA" /><line x1="15.000000" x2="15.000000" y1="103.500000" y2="108.500000" stroke="#AAAAAA" /><text style="font-size:10px;font-family:OpenSans;fill:#000000;" text-anchor="middle" x="15.000000" y="118.500000">0</text><line x1="40.333333" x2="40.333333" y1="103.500000" y2="108.500000" stroke="#AAAAAA" /><text style="font-size:10px;font-family:OpenSans;fill:#000000;" text-anchor="middle" x="40.333333" y="118.500000">38</text><line x1="100.333333" x2="100.333333" y1="103.500000" y2="108.500000" stroke="#AAAAAA" /><text style="font-size:10px;font-family:OpenSans;fill:#000000;" text-anchor="middle" x="100.333333" y="118.500000">128</text><line x1="136.333333" x2="136.333333" y1="103.500000" y2="108.500000" stroke="#AAAAAA" /><text style="font-size:10px;font-family:OpenSans;fill:#000000;" text-anchor="middle" x="136.333333" y="118.500000">182</text><line x1="199.666667" x2="199.666667" y1="103.500000" y2="108.500000" stroke="#AAAAAA" /><text style="font-size:10px;font-family:OpenSans;fill:#000000;" text-anchor="middle" x="199.666667" y="118.500000">277</text><line x1="295.666667" x2="295.666667" y1="103.500000" y2="108.500000" stroke="#AAAAAA" /><text style="font-size:10px;font-family:OpenSans;fill:#000000;" text-anchor="middle" x="295.666667" y="118.500000">421</text><line x1="367.666667" x2="367.666667" y1="103.500000" y2="108.500000" stroke="#AAAAAA" /><text style="font-size:10px;font-family:OpenSans;fill:#000000;" text-anchor="middle" x="367.666667" y="118.500000">529</text><line x1="405.000000" x2="405.000000" y1="103.500000" y2="108.500000" stroke="#AAAAAA" /><text style="font-size:10px;font-family:OpenSans;fill:#000000;" text-anchor="middle" x="405.000000" y="118.500000">585</text><line x1="469.666667" x2="469.666667" y1="103.500000" y2="108.500000" stroke="#AAAAAA" /><text style="font-size:10px;font-family:OpenSans;fill:#000000;" text-anchor="middle" x="469.666667" y="118.500000">682</text><line x1="503.000000" x2="503.000000" y1="103.500000" y2="108.500000" stroke="#AAAAAA" /><text style="font-size:10px;font-family:OpenSans;fill:#000000;" text-anchor="middle" x="503.000000" y="118.500000">732</text><line x1="577.666667" x2="577.666667" y1="103.500000" y2="108.500000" stroke="#AAAAAA" /><text style="font-size:10px;font-family:OpenSans;fill:#000000;" text-anchor="middle" x="577.666667" y="118.500000">844</text><line x1="599.000000" x2="599.000000" y1="103.500000" y2="108.500000" stroke="#AAAAAA" /><text style="font-size:10px;font-family:OpenSans;fill:#000000;" text-anchor="middle" x="599.000000" y="118.500000">876</text><line x1="784.333333" x2="784.333333" y1="103.500000" y2="108.500000" stroke="#AAAAAA" /><text style="font-size:10px;font-family:OpenSans;fill:#000000;" text-anchor="middle" x="784.333333" y="118.500000">1154</text></g>
<rect fill="#EBD61D" x="4" y="132.500000" width="12" height="12" filter="url(#ds)"/><text style="font-size:12px;font-family:OpenSans;fill:#000000;" text-anchor="start" x="20" y="144.500000">SH2 domain</text><rect fill="#FF9C42" x="4" y="146.500000" width="12" height="12" filter="url(#ds)"/><text style="font-size:12px;font-family:OpenSans;fill:#000000;" text-anchor="start" x="20" y="158.500000">Protein tyrosine and serine/threonine kinase</text><rect fill="#2DCF00" x="4" y="160.500000" width="12" height="12" filter="url(#ds)"/><text style="font-size:12px;font-family:OpenSans;fill:#000000;" text-anchor="start" x="20" y="172.500000">FERM F1 ubiquitin-like domain</text><rect fill="#FF5353" x="4" y="174.500000" width="12" height="12" filter="url(#ds)"/><text style="font-size:12px;font-family:OpenSans;fill:#000000;" text-anchor="start" x="20" y="186.500000">FERM F2 acyl-CoA binding protein-like domain</text><rect fill="#5B5BFF" x="4" y="188.500000" width="12" height="12" filter="url(#ds)"/><text style="font-size:12px;font-family:OpenSans;fill:#000000;" text-anchor="start" x="20" y="200.500000">Jak1 pleckstrin homology-like domain</text></svg>
