<?xml version='1.0'?>
<svg xmlns="http://www.w3.org/2000/svg" xmlns:xlink="http://www.w3.org/1999/xlink" width="430.000000" height="208.700000">
<defs>
  <filter id="ds" x="0" y="0">
    <feOffset in="SourceAlpha" dx="2" dy="2" />
    <feComponentTransfer><feFuncA type="linear" slope="0.2"/></feComponentTransfer>
    <feGaussianBlur result="blurOut" stdDeviation="1" />
    <feBlend in="SourceGraphic" in2="blurOut" mode="normal" />
  </filter>
  <pattern id="disordered-hatch" patternUnits="userSpaceOnUse" width="4" height="4">
    <path d="M-1,1 l2,-2 M0,4 l4,-4 M3,5 l2,-2" stroke="#000000" opacity="0.3" />
  </pattern>
</defs>
<line x1="250.545024" x2="250.545024" y1="84.000000" y2="124.500000" stroke="#BABDB6" stroke-width="2"/><a xlink:title="A497A"><circle cx="250.545024" cy="84.000000" r="4.000000" fill="#0000ff" /></a><g transform="translate(250.545024,84.000000) rotate(-30)"><text style="font-size:10px;font-family:OpenSans;fill:#555;" text-anchor="middle" x="0" y="-6.000000">A497A</text></g><line x1="255.758294" x2="255.758294" y1="96.500000" y2="124.500000" stroke="#BABDB6" stroke-width="2"/><a xlink:title="D508N"><circle cx="255.758294" cy="96.500000" r="4.000000" fill="#ff0000" /></a><g transform="translate(255.758294,96.500000) rotate(-30)"><text style="font-size:10px;font-family:OpenSans;fill:#555;" text-anchor="middle" x="0" y="-6.000000">D508N</text></g><line x1="277.085308" x2="277.085308" y1="84.000000" y2="124.500000" stroke="#BABDB6" stroke-width="2"/><a xlink:title="A553A"><circle cx="277.085308" cy="84.000000" r="4.000000" fill="#0000ff" /></a><g transform="translate(277.085308,84.000000) rotate(-30)"><text style="font-size:10px;font-family:OpenSans;fill:#555;" text-anchor="middle" x="0" y="-6.000000">A553A</text></g><line x1="282.298578" x2="282.298578" y1="84.000000" y2="124.500000" stroke="#BABDB6" stroke-width="2"/><a xlink:title="D564N"><circle cx="282.298578" cy="84.000000" r="4.000000" fill="#ff0000" /></a><g transform="translate(282.298578,84.000000) rotate(-30)"><text style="font-size:10px;font-family:OpenSans;fill:#555;" text-anchor="middle" x="0" y="-6.000000">D564N</text></g><line x1="285.616114" x2="285.616114" y1="46.500000" y2="124.500000" stroke="#BABDB6" stroke-width="2"/><a xlink:title="A571A"><circle cx="285.616114" cy="46.500000" r="4.000000" fill="#0000ff" /></a><g transform="translate(285.616114,46.500000) rotate(-30)"><text style="font-size:10px;font-family:OpenSans;fill:#555;" text-anchor="middle" x="0" y="-6.000000">A571A</text></g><line x1="289.407583" x2="289.407583" y1="34.000000" y2="124.500000" stroke="#BABDB6" stroke-width="2"/><a xlink:title="A579A"><circle cx="289.407583" cy="34.000000" r="4.000000" fill="#0000ff" /></a><g transform="translate(289.407583,34.000000) rotate(-30)"><text style="font-size:10px;font-family:OpenSans;fill:#555;" text-anchor="middle" x="0" y="-6.000000">A579A</text></g><line x1="289.881517" x2="289.881517" y1="46.500000" y2="124.500000" stroke="#BABDB6" stroke-width="2"/><a xlink:title="A580A"><circle cx="289.881517" cy="46.500000" r="4.000000" fill="#0000ff" /></a><g transform="translate(289.881517,46.500000) rotate(-30)"><text style="font-size:10px;font-family:OpenSans;fill:#555;" text-anchor="middle" x="0" y="-6.000000">A580A</text></g><line x1="290.829384" x2="290.829384" y1="59.000000" y2="124.500000" stroke="#BABDB6" stroke-width="2"/><a xlink:title="D582N"><circle cx="290.829384" cy="59.000000" r="4.000000" fill="#ff0000" /></a><g transform="translate(290.829384,59.000000) rotate(-30)"><text style="font-size:10px;font-family:OpenSans;fill:#555;" text-anchor="middle" x="0" y="-6.000000">D582N</text></g><line x1="290.829384" x2="290.829384" y1="46.500000" y2="124.500000" stroke="#BABDB6" stroke-width="2"/><a xlink:title="A582A"><circle cx="290.829384" cy="46.500000" r="4.000000" fill="#0000ff" /></a><g transform="translate(290.829384,46.500000) rotate(-30)"><text style="font-size:10px;font-family:OpenSans;fill:#555;" text-anchor="middle" x="0" y="-6.000000">A582A</text></g><line x1="294.620853" x2="294.620853" y1="71.500000" y2="124.500000" stroke="#BABDB6" stroke-width="2"/><a xlink:title="D590N"><circle cx="294.620853" cy="71.500000" r="4.000000" fill="#ff0000" /></a><g transform="translate(294.620853,71.500000) rotate(-30)"><text style="font-size:10px;font-family:OpenSans;fill:#555;" text-anchor="middle" x="0" y="-6.000000">D590N</text></g><line x1="295.094787" x2="295.094787" y1="84.000000" y2="124.500000" stroke="#BABDB6" stroke-width="2"/><a xlink:title="D591N"><circle cx="295.094787" cy="84.000000" r="4.000000" fill="#ff0000" /></a><g transform="translate(295.094787,84.000000) rotate(-30)"><text style="font-size:10px;font-family:OpenSans;fill:#555;" text-anchor="middle" x="0" y="-6.000000">D591N</text></g><line x1="296.042654" x2="296.042654" y1="96.500000" y2="124.500000" stroke="#BABDB6" stroke-width="2"/><a xlink:title="D593N"><circle cx="296.042654" cy="96.500000" r="4.000000" fill="#ff0000" /></a><g transform="translate(296.042654,96.500000) rotate(-30)"><text style="font-size:10px;font-family:OpenSans;fill:#555;" text-anchor="middle" x="0" y="-6.000000">D593N</text></g><line x1="307.417062" x2="307.417062" y1="96.500000" y2="124.500000" stroke="#BABDB6" stroke-width="2"/><a xlink:title="A617A"><circle cx="307.417062" cy="96.500000" r="4.000000" fill="#0000ff" /></a><g transform="translate(307.417062,96.500000) rotate(-30)"><text style="font-size:10px;font-family:OpenSans;fill:#555;" text-anchor="middle" x="0" y="-6.000000">A617A</text></g><line x1="323.056872" x2="323.056872" y1="34.000000" y2="124.500000" stroke="#BABDB6" stroke-width="2"/><a xlink:title="A650A"><circle cx="323.056872" cy="34.000000" r="4.000000" fill="#0000ff" /></a><g transform="translate(323.056872,34.000000) rotate(-30)"><text style="font-size:10px;font-family:OpenSans;fill:#555;" text-anchor="middle" x="0" y="-6.000000">A650A</text></g><line x1="323.530806" x2="323.530806" y1="34.000000" y2="124.500000" stroke="#BABDB6" stroke-width="2"/><a xlink:title="A651A"><circle cx="323.530806" cy="34.000000" r="4.000000" fill="#0000ff" /></a><g transform="translate(323.530806,34.000000) rotate(-30)"><text style="font-size:10px;font-family:OpenSans;fill:#555;" text-anchor="middle" x="0" y="-6.000000">A651A</text></g><line x1="324.004739" x2="324.004739" y1="46.500000" y2="124.500000" stroke="#BABDB6" stroke-width="2"/><a xlink:title="A652A"><circle cx="324.004739" cy="46.500000" r="4.000000" fill="#0000ff" /></a><g transform="translate(324.004739,46.500000) rotate(-30)"><text style="font-size:10px;font-family:OpenSans;fill:#555;" text-anchor="middle" x="0" y="-6.000000">A652A</text></g><line x1="324.952607" x2="324.952607" y1="46.500000" y2="124.500000" stroke="#BABDB6" stroke-width="2"/><a xlink:title="A654A"><circle cx="324.952607" cy="46.500000" r="4.000000" fill="#0000ff" /></a><g transform="translate(324.952607,46.500000) rotate(-30)"><text style="font-size:10px;font-family:OpenSans;fill:#555;" text-anchor="middle" x="0" y="-6.000000">A654A</text></g><line x1="328.270142" x2="328.270142" y1="59.000000" y2="124.500000" stroke="#BABDB6" stroke-width="2"/><a xlink:title="D661N"><circle cx="328.270142" cy="59.000000" r="4.000000" fill="#ff0000" /></a><g transform="translate(328.270142,59.000000) rotate(-30)"><text style="font-size:10px;font-family:OpenSans;fill:#555;" text-anchor="middle" x="0" y="-6.000000">D661N</text></g><line x1="328.744076" x2="328.744076" y1="71.500000" y2="124.500000" stroke="#BABDB6" stroke-width="2"/><a xlink:title="D662N"><circle cx="328.744076" cy="71.500000" r="4.000000" fill="#ff0000" /></a><g transform="translate(328.744076,71.500000) rotate(-30)"><text style="font-size:10px;font-family:OpenSans;fill:#555;" text-anchor="middle" x="0" y="-6.000000">D662N</text></g><line x1="329.218009" x2="329.218009" y1="71.500000" y2="124.500000" stroke="#BABDB6" stroke-width="2"/><a xlink:title="D663N"><circle cx="329.218009" cy="71.500000" r="4.000000" fill="#ff0000" /></a><g transform="translate(329.218009,71.500000) rotate(-30)"><text style="font-size:10px;font-family:OpenSans;fill:#555;" text-anchor="middle" x="0" y="-6.000000">D663N</text></g><line x1="330.165877" x2="330.165877" y1="84.000000" y2="124.500000" stroke="#BABDB6" stroke-width="2"/><a xlink:title="D665N"><circle cx="330.165877" cy="84.000000" r="4.000000" fill="#ff0000" /></a><g transform="translate(330.165877,84.000000) rotate(-30)"><text style="font-size:10px;font-family:OpenSans;fill:#555;" text-anchor="middle" x="0" y="-6.000000">D665N</text></g><line x1="334.905213" x2="334.905213" y1="84.000000" y2="124.500000" stroke="#BABDB6" stroke-width="2"/><a xlink:title="A675A"><circle cx="334.905213" cy="84.000000" r="4.000000" fill="#0000ff" /></a><g transform="translate(334.905213,84.000000) rotate(-30)"><text style="font-size:10px;font-family:OpenSans;fill:#555;" text-anchor="middle" x="0" y="-6.000000">A675A</text></g><line x1="336.327014" x2="336.327014" y1="84.000000" y2="124.500000" stroke="#BABDB6" stroke-width="2"/><a xlink:title="A678A"><circle cx="336.327014" cy="84.000000" r="4.000000" fill="#0000ff" /></a><g transform="translate(336.327014,84.000000) rotate(-30)"><text style="font-size:10px;font-family:OpenSans;fill:#555;" text-anchor="middle" x="0" y="-6.000000">A678A</text></g><line x1="341.066351" x2="341.066351" y1="71.500000" y2="124.500000" stroke="#BABDB6" stroke-width="2"/><a xlink:title="A688A"><circle cx="341.066351" cy="71.500000" r="4.000000" fill="#0000ff" /></a><g transform="translate(341.066351,71.500000) rotate(-30)"><text style="font-size:10px;font-family:OpenSans;fill:#555;" text-anchor="middle" x="0" y="-6.000000">A688A</text></g><line x1="342.488152" x2="342.488152" y1="59.000000" y2="124.500000" stroke="#BABDB6" stroke-width="2"/><a xlink:title="A691A"><circle cx="342.488152" cy="59.000000" r="4.000000" fill="#0000ff" /></a><g transform="translate(342.488152,59.000000) rotate(-30)"><text style="font-size:10px;font-family:OpenSans;fill:#555;" text-anchor="middle" x="0" y="-6.000000">A691A</text></g><line x1="346.753555" x2="346.753555" y1="59.000000" y2="124.500000" stroke="#BABDB6" stroke-width="2"/><a xlink:title="A700A"><circle cx="346.753555" cy="59.000000" r="4.000000" fill="#0000ff" /></a><g transform="translate(346.753555,59.000000) rotate(-30)"><text style="font-size:10px;font-family:OpenSans;fill:#555;" text-anchor="middle" x="0" y="-6.000000">A700A</text></g><line x1="347.227488" x2="347.227488" y1="71.500000" y2="124.500000" stroke="#BABDB6" stroke-width="2"/><a xlink:title="A701A"><circle cx="347.227488" cy="71.500000" r="4.000000" fill="#0000ff" /></a><g transform="translate(347.227488,71.500000) rotate(-30)"><text style="font-size:10px;font-family:OpenSans;fill:#555;" text-anchor="middle" x="0" y="-6.000000">A701A</text></g><line x1="347.701422" x2="347.701422" y1="84.000000" y2="124.500000" stroke="#BABDB6" stroke-width="2"/><a xlink:title="A702A"><circle cx="347.701422" cy="84.000000" r="4.000000" fill="#0000ff" /></a><g transform="translate(347.701422,84.000000) rotate(-30)"><text style="font-size:10px;font-family:OpenSans;fill:#555;" text-anchor="middle" x="0" y="-6.000000">A702A</text></g><line x1="348.649289" x2="348.649289" y1="96.500000" y2="124.500000" stroke="#BABDB6" stroke-width="2"/><a xlink:title="A704A"><circle cx="348.649289" cy="96.500000" r="4.000000" fill="#0000ff" /></a><g transform="translate(348.649289,96.500000) rotate(-30)"><text style="font-size:10px;font-family:OpenSans;fill:#555;" text-anchor="middle" x="0" y="-6.000000">A704A</text></g><line x1="357.180095" x2="357.180095" y1="96.500000" y2="124.500000" stroke="#BABDB6" stroke-width="2"/><a xlink:title="A722A"><circle cx="357.180095" cy="96.500000" r="4.000000" fill="#0000ff" /></a><g transform="translate(357.180095,96.500000) rotate(-30)"><text style="font-size:10px;font-family:OpenSans;fill:#555;" text-anchor="middle" x="0" y="-6.000000">A722A</text></g><line x1="375.189573" x2="375.189573" y1="71.500000" y2="124.500000" stroke="#BABDB6" stroke-width="2"/><a xlink:title="A760A"><circle cx="375.189573" cy="71.500000" r="4.000000" fill="#0000ff" /></a><g transform="translate(375.189573,71.500000) rotate(-30)"><text style="font-size:10px;font-family:OpenSans;fill:#555;" text-anchor="middle" x="0" y="-6.000000">A760A</text></g><line x1="380.402844" x2="380.402844" y1="46.500000" y2="124.500000" stroke="#BABDB6" stroke-width="2"/><a xlink:title="A771A"><circle cx="380.402844" cy="46.500000" r="4.000000" fill="#0000ff" /></a><g transform="translate(380.402844,46.500000) rotate(-30)"><text style="font-size:10px;font-family:OpenSans;fill:#555;" text-anchor="middle" x="0" y="-6.000000">A771A</text></g><line x1="380.876777" x2="380.876777" y1="59.000000" y2="124.500000" stroke="#BABDB6" stroke-width="2"/><a xlink:title="A772A"><circle cx="380.876777" cy="59.000000" r="4.000000" fill="#0000ff" /></a><g transform="translate(380.876777,59.000000) rotate(-30)"><text style="font-size:10px;font-family:OpenSans;fill:#555;" text-anchor="middle" x="0" y="-6.000000">A772A</text></g><line x1="381.824645" x2="381.824645" y1="71.500000" y2="124.500000" stroke="#BABDB6" stroke-width="2"/><a xlink:title="A774A"><circle cx="381.824645" cy="71.500000" r="4.000000" fill="#0000ff" /></a><g transform="translate(381.824645,71.500000) rotate(-30)"><text style="font-size:10px;font-family:OpenSans;fill:#555;" text-anchor="middle" x="0" y="-6.000000">A774A</text></g><line x1="382.772512" x2="382.772512" y1="84.000000" y2="124.500000" stroke="#BABDB6" stroke-width="2"/><a xlink:title="A776A"><circle cx="382.772512" cy="84.000000" r="4.000000" fill="#0000ff" /></a><g transform="translate(382.772512,84.000000) rotate(-30)"><text style="font-size:10px;font-family:OpenSans;fill:#555;" text-anchor="middle" x="0" y="-6.000000">A776A</text></g><line x1="385.142180" x2="385.142180" y1="84.000000" y2="124.500000" stroke="#BABDB6" stroke-width="2"/><a xlink:title="A781A"><circle cx="385.142180" cy="84.000000" r="4.000000" fill="#0000ff" /></a><g transform="translate(385.142180,84.000000) rotate(-30)"><text style="font-size:10px;font-family:OpenSans;fill:#555;" text-anchor="middle" x="0" y="-6.000000">A781A</text></g><line x1="390.355450" x2="390.355450" y1="96.500000" y2="124.500000" stroke="#BABDB6" stroke-width="2"/><a xlink:title="A792A"><circle cx="390.355450" cy="96.500000" r="4.000000" fill="#0000ff" /></a><g transform="translate(390.355450,96.500000) rotate(-30)"><text style="font-size:10px;font-family:OpenSans;fill:#555;" text-anchor="middle" x="0" y="-6.000000">A792A</text></g><a xlink:title=",  (844aa)"><rect fill="#BABDB6" x="15.000000" y="124.500000" width="400.000000" height="14.000000"/></a><g transform="translate(218.317536,119.500000)"><a xlink:href="https://www.ebi.ac.uk/interpro/entry/pfam/PF16034" xlink:title="JAKMIP CC3 domain"><rect fill="#2DCF00" x="0" y="0" width="92.890995" height="24.000000" filter="url(#ds)"/><text style="font-size:12px;font-family:OpenSans;fill:#ffffff;" text-anchor="middle" x="46.445498" y="16.000000">JAKMIP_CC3</text></a></g>
<g class="axis">
<line x1="15.000000" x2="415.000000" y1="153.500000" y2="153.500000" stroke="#AAAAAA" /><line x1="15.000000" x2="15.000000" y1="153.500000" y2="158.500000" stroke="#AAAAAA" /><line x1="15.000000" x2="15.000000" y1="153.500000" y2="158.500000" stroke="#AAAAAA" /><text style="font-size:10px;font-family:OpenSans;fill:#000000;" text-anchor="middle" x="15.000000" y="168.500000">0</text><line x1="218.317536" x2="218.317536" y1="153.500000" y2="158.500000" stroke="#AAAAAA" /><text style="font-size:10px;font-family:OpenSans;fill:#000000;" text-anchor="middle" x="218.317536" y="168.500000">429</text><line x1="250.545024" x2="250.545024" y1="153.500000" y2="158.500000" stroke="#AAAAAA" /><text style="font-size:10px;font-family:OpenSans;fill:#000000;" text-anchor="middle" x="250.545024" y="168.500000">497</text><line x1="277.085308" x2="277.085308" y1="153.500000" y2="158.500000" stroke="#AAAAAA" /><text style="font-size:10px;font-family:OpenSans;fill:#000000;" text-anchor="middle" x="277.085308" y="168.500000">553</text><line x1="307.417062" x2="307.417062" y1="153.500000" y2="158.500000" stroke="#AAAAAA" /><text style="font-size:10px;font-family:OpenSans;fill:#000000;" text-anchor="middle" x="307.417062" y="168.500000">617</text><line x1="328.270142" x2="328.270142" y1="153.500000" y2="158.500000" stroke="#AAAAAA" /><text style="font-size:10px;font-family:OpenSans;fill:#000000;" text-anchor="middle" x="328.270142" y="168.500000">661</text><line x1="348.649289" x2="348.649289" y1="153.500000" y2="158.500000" stroke="#AAAAAA" /><text style="font-size:10px;font-family:OpenSans;fill:#000000;" text-anchor="middle" x="348.649289" y="168.500000">704</text><line x1="375.189573" x2="375.189573" y1="153.500000" y2="158.500000" stroke="#AAAAAA" /><text style="font-size:10px;font-family:OpenSans;fill:#000000;" text-anchor="middle" x="375.189573" y="168.500000">760</text><line x1="415.000000" x2="415.000000" y1="153.500000" y2="158.500000" stroke="#AAAAAA" /><text style="font-size:10px;font-family:OpenSans;fill:#000000;" text-anchor="middle" x="415.000000" y="168.500000">844</text></g>
<rect fill="#2DCF00" x="4" y="182.500000" width="12" height="12" filter="url(#ds)"/><text style="font-size:12px;font-family:OpenSans;fill:#000000;" text-anchor="start" x="20" y="194.500000">JAKMIP CC3 domain</text></svg>
