<?xml version='1.0'?>
<svg xmlns="http://www.w3.org/2000/svg" xmlns:xlink="http://www.w3.org/1999/xlink" width="3153.513514" height="210.800000">
<defs>
  <filter id="ds" x="0" y="0">
    <feOffset in="SourceAlpha" dx="2" dy="2" />
    <feComponentTransfer><feFuncA type="linear" slope="0.2"/></feComponentTransfer>
    <feGaussianBlur result="blurOut" stdDeviation="1" />
    <feBlend in="SourceGraphic" in2="blurOut" mode="normal" />
  </filter>
  <pattern id="disordered-hatch" patternUnits="userSpaceOnUse" width="4" height="4">
    <path d="M-1,1 l2,-2 M0,4 l4,-4 M3,5 l2,-2" stroke="#000000" opacity="0.3" />
  </pattern>
</defs>
<line x1="117.067568" x2="117.067568" y1="59.000000" y2="87.000000" stroke="#BABDB6" stroke-width="2"/><a xlink:title="N83S"><circle cx="117.067568" cy="59.000000" r="4.000000" fill="#ff0000" /></a><g transform="translate(117.067568,59.000000) rotate(-30)"><text style="font-size:10px;font-family:OpenSans;fill:#555;" text-anchor="middle" x="0" y="-6.000000">N83S</text></g><line x1="201.918919" x2="201.918919" y1="59.000000" y2="87.000000" stroke="#BABDB6" stroke-width="2"/><a xlink:title="N152S"><circle cx="201.918919" cy="59.000000" r="4.000000" fill="#ff0000" /></a><g transform="translate(201.918919,59.000000) rotate(-30)"><text style="font-size:10px;font-family:OpenSans;fill:#555;" text-anchor="middle" x="0" y="-6.000000">N152S</text></g><line x1="226.513514" x2="226.513514" y1="46.500000" y2="87.000000" stroke="#BABDB6" stroke-width="2"/><a xlink:title="M172T"><circle cx="226.513514" cy="46.500000" r="4.000000" fill="#ff0000" /></a><g transform="translate(226.513514,46.500000) rotate(-30)"><text style="font-size:10px;font-family:OpenSans;fill:#555;" text-anchor="middle" x="0" y="-6.000000">M172T</text></g><line x1="231.432432" x2="231.432432" y1="59.000000" y2="87.000000" stroke="#BABDB6" stroke-width="2"/><a xlink:title="S176T"><circle cx="231.432432" cy="59.000000" r="4.000000" fill="#ff0000" /></a><g transform="translate(231.432432,59.000000) rotate(-30)"><text style="font-size:10px;font-family:OpenSans;fill:#555;" text-anchor="middle" x="0" y="-6.000000">S176T</text></g><line x1="247.418919" x2="247.418919" y1="59.000000" y2="87.000000" stroke="#BABDB6" stroke-width="2"/><a xlink:title="N189S"><circle cx="247.418919" cy="59.000000" r="4.000000" fill="#ff0000" /></a><g transform="translate(247.418919,59.000000) rotate(-30)"><text style="font-size:10px;font-family:OpenSans;fill:#555;" text-anchor="middle" x="0" y="-6.000000">N189S</text></g><line x1="295.378378" x2="295.378378" y1="59.000000" y2="87.000000" stroke="#BABDB6" stroke-width="2"/><a xlink:title="T228S"><circle cx="295.378378" cy="59.000000" r="4.000000" fill="#ff0000" /></a><g transform="translate(295.378378,59.000000) rotate(-30)"><text style="font-size:10px;font-family:OpenSans;fill:#555;" text-anchor="middle" x="0" y="-6.000000">T228S</text></g><line x1="311.364865" x2="311.364865" y1="46.500000" y2="87.000000" stroke="#BABDB6" stroke-width="2"/><a xlink:title="M241T"><circle cx="311.364865" cy="46.500000" r="4.000000" fill="#ff0000" /></a><g transform="translate(311.364865,46.500000) rotate(-30)"><text style="font-size:10px;font-family:OpenSans;fill:#555;" text-anchor="middle" x="0" y="-6.000000">M241T</text></g><line x1="316.283784" x2="316.283784" y1="59.000000" y2="87.000000" stroke="#BABDB6" stroke-width="2"/><a xlink:title="S245T"><circle cx="316.283784" cy="59.000000" r="4.000000" fill="#ff0000" /></a><g transform="translate(316.283784,59.000000) rotate(-30)"><text style="font-size:10px;font-family:OpenSans;fill:#555;" text-anchor="middle" x="0" y="-6.000000">S245T</text></g><line x1="356.864865" x2="356.864865" y1="46.500000" y2="87.000000" stroke="#BABDB6" stroke-width="2"/><a xlink:title="M278T"><circle cx="356.864865" cy="46.500000" r="4.000000" fill="#ff0000" /></a><g transform="translate(356.864865,46.500000) rotate(-30)"><text style="font-size:10px;font-family:OpenSans;fill:#555;" text-anchor="middle" x="0" y="-6.000000">M278T</text></g><line x1="361.783784" x2="361.783784" y1="59.000000" y2="87.000000" stroke="#BABDB6" stroke-width="2"/><a xlink:title="S282T"><circle cx="361.783784" cy="59.000000" r="4.000000" fill="#ff0000" /></a><g transform="translate(361.783784,59.000000) rotate(-30)"><text style="font-size:10px;font-family:OpenSans;fill:#555;" text-anchor="middle" x="0" y="-6.000000">S282T</text></g><line x1="380.229730" x2="380.229730" y1="59.000000" y2="87.000000" stroke="#BABDB6" stroke-width="2"/><a xlink:title="T297S"><circle cx="380.229730" cy="59.000000" r="4.000000" fill="#ff0000" /></a><g transform="translate(380.229730,59.000000) rotate(-30)"><text style="font-size:10px;font-family:OpenSans;fill:#555;" text-anchor="middle" x="0" y="-6.000000">T297S</text></g><line x1="404.824324" x2="404.824324" y1="59.000000" y2="87.000000" stroke="#BABDB6" stroke-width="2"/><a xlink:title="N317S"><circle cx="404.824324" cy="59.000000" r="4.000000" fill="#ff0000" /></a><g transform="translate(404.824324,59.000000) rotate(-30)"><text style="font-size:10px;font-family:OpenSans;fill:#555;" text-anchor="middle" x="0" y="-6.000000">N317S</text></g><line x1="424.500000" x2="424.500000" y1="46.500000" y2="87.000000" stroke="#BABDB6" stroke-width="2"/><a xlink:title="N333S"><circle cx="424.500000" cy="46.500000" r="4.000000" fill="#ff0000" /></a><g transform="translate(424.500000,46.500000) rotate(-30)"><text style="font-size:10px;font-family:OpenSans;fill:#555;" text-anchor="middle" x="0" y="-6.000000">N333S</text></g><line x1="425.729730" x2="425.729730" y1="59.000000" y2="87.000000" stroke="#BABDB6" stroke-width="2"/><a xlink:title="T334S"><circle cx="425.729730" cy="59.000000" r="4.000000" fill="#ff0000" /></a><g transform="translate(425.729730,59.000000) rotate(-30)"><text style="font-size:10px;font-family:OpenSans;fill:#555;" text-anchor="middle" x="0" y="-6.000000">T334S</text></g><line x1="444.175676" x2="444.175676" y1="59.000000" y2="87.000000" stroke="#BABDB6" stroke-width="2"/><a xlink:title="K349R"><circle cx="444.175676" cy="59.000000" r="4.000000" fill="#ff0000" /></a><g transform="translate(444.175676,59.000000) rotate(-30)"><text style="font-size:10px;font-family:OpenSans;fill:#555;" text-anchor="middle" x="0" y="-6.000000">K349R</text></g><line x1="471.229730" x2="471.229730" y1="59.000000" y2="87.000000" stroke="#BABDB6" stroke-width="2"/><a xlink:title="N371S"><circle cx="471.229730" cy="59.000000" r="4.000000" fill="#ff0000" /></a><g transform="translate(471.229730,59.000000) rotate(-30)"><text style="font-size:10px;font-family:OpenSans;fill:#555;" text-anchor="middle" x="0" y="-6.000000">N371S</text></g><line x1="514.270270" x2="514.270270" y1="46.500000" y2="87.000000" stroke="#BABDB6" stroke-width="2"/><a xlink:title="M406T"><circle cx="514.270270" cy="46.500000" r="4.000000" fill="#ff0000" /></a><g transform="translate(514.270270,46.500000) rotate(-30)"><text style="font-size:10px;font-family:OpenSans;fill:#555;" text-anchor="middle" x="0" y="-6.000000">M406T</text></g><line x1="519.189189" x2="519.189189" y1="59.000000" y2="87.000000" stroke="#BABDB6" stroke-width="2"/><a xlink:title="S410T"><circle cx="519.189189" cy="59.000000" r="4.000000" fill="#ff0000" /></a><g transform="translate(519.189189,59.000000) rotate(-30)"><text style="font-size:10px;font-family:OpenSans;fill:#555;" text-anchor="middle" x="0" y="-6.000000">S410T</text></g><line x1="529.027027" x2="529.027027" y1="46.500000" y2="87.000000" stroke="#BABDB6" stroke-width="2"/><a xlink:title="K418R"><circle cx="529.027027" cy="46.500000" r="4.000000" fill="#ff0000" /></a><g transform="translate(529.027027,46.500000) rotate(-30)"><text style="font-size:10px;font-family:OpenSans;fill:#555;" text-anchor="middle" x="0" y="-6.000000">K418R</text></g><line x1="533.945946" x2="533.945946" y1="46.500000" y2="87.000000" stroke="#BABDB6" stroke-width="2"/><a xlink:title="M422T"><circle cx="533.945946" cy="46.500000" r="4.000000" fill="#ff0000" /></a><g transform="translate(533.945946,46.500000) rotate(-30)"><text style="font-size:10px;font-family:OpenSans;fill:#555;" text-anchor="middle" x="0" y="-6.000000">M422T</text></g><line x1="538.864865" x2="538.864865" y1="59.000000" y2="87.000000" stroke="#BABDB6" stroke-width="2"/><a xlink:title="S426T"><circle cx="538.864865" cy="59.000000" r="4.000000" fill="#ff0000" /></a><g transform="translate(538.864865,59.000000) rotate(-30)"><text style="font-size:10px;font-family:OpenSans;fill:#555;" text-anchor="middle" x="0" y="-6.000000">S426T</text></g><line x1="574.527027" x2="574.527027" y1="59.000000" y2="87.000000" stroke="#BABDB6" stroke-width="2"/><a xlink:title="K455R"><circle cx="574.527027" cy="59.000000" r="4.000000" fill="#ff0000" /></a><g transform="translate(574.527027,59.000000) rotate(-30)"><text style="font-size:10px;font-family:OpenSans;fill:#555;" text-anchor="middle" x="0" y="-6.000000">K455R</text></g><line x1="580.675676" x2="580.675676" y1="34.000000" y2="87.000000" stroke="#BABDB6" stroke-width="2"/><a xlink:title="M460T"><circle cx="580.675676" cy="34.000000" r="4.000000" fill="#ff0000" /></a><g transform="translate(580.675676,34.000000) rotate(-30)"><text style="font-size:10px;font-family:OpenSans;fill:#555;" text-anchor="middle" x="0" y="-6.000000">M460T</text></g><line x1="583.135135" x2="583.135135" y1="46.500000" y2="87.000000" stroke="#BABDB6" stroke-width="2"/><a xlink:title="T462S"><circle cx="583.135135" cy="46.500000" r="4.000000" fill="#ff0000" /></a><g transform="translate(583.135135,46.500000) rotate(-30)"><text style="font-size:10px;font-family:OpenSans;fill:#555;" text-anchor="middle" x="0" y="-6.000000">T462S</text></g><line x1="585.594595" x2="585.594595" y1="59.000000" y2="87.000000" stroke="#BABDB6" stroke-width="2"/><a xlink:title="S464T"><circle cx="585.594595" cy="59.000000" r="4.000000" fill="#ff0000" /></a><g transform="translate(585.594595,59.000000) rotate(-30)"><text style="font-size:10px;font-family:OpenSans;fill:#555;" text-anchor="middle" x="0" y="-6.000000">S464T</text></g><line x1="602.810811" x2="602.810811" y1="59.000000" y2="87.000000" stroke="#BABDB6" stroke-width="2"/><a xlink:title="T478S"><circle cx="602.810811" cy="59.000000" r="4.000000" fill="#ff0000" /></a><g transform="translate(602.810811,59.000000) rotate(-30)"><text style="font-size:10px;font-family:OpenSans;fill:#555;" text-anchor="middle" x="0" y="-6.000000">T478S</text></g><line x1="649.540541" x2="649.540541" y1="59.000000" y2="87.000000" stroke="#BABDB6" stroke-width="2"/><a xlink:title="T516S"><circle cx="649.540541" cy="59.000000" r="4.000000" fill="#ff0000" /></a><g transform="translate(649.540541,59.000000) rotate(-30)"><text style="font-size:10px;font-family:OpenSans;fill:#555;" text-anchor="middle" x="0" y="-6.000000">T516S</text></g><line x1="731.932432" x2="731.932432" y1="59.000000" y2="87.000000" stroke="#BABDB6" stroke-width="2"/><a xlink:title="K583R"><circle cx="731.932432" cy="59.000000" r="4.000000" fill="#ff0000" /></a><g transform="translate(731.932432,59.000000) rotate(-30)"><text style="font-size:10px;font-family:OpenSans;fill:#555;" text-anchor="middle" x="0" y="-6.000000">K583R</text></g><line x1="751.608108" x2="751.608108" y1="59.000000" y2="87.000000" stroke="#BABDB6" stroke-width="2"/><a xlink:title="K599R"><circle cx="751.608108" cy="59.000000" r="4.000000" fill="#ff0000" /></a><g transform="translate(751.608108,59.000000) rotate(-30)"><text style="font-size:10px;font-family:OpenSans;fill:#555;" text-anchor="middle" x="0" y="-6.000000">K599R</text></g><line x1="798.337838" x2="798.337838" y1="59.000000" y2="87.000000" stroke="#BABDB6" stroke-width="2"/><a xlink:title="K637R"><circle cx="798.337838" cy="59.000000" r="4.000000" fill="#ff0000" /></a><g transform="translate(798.337838,59.000000) rotate(-30)"><text style="font-size:10px;font-family:OpenSans;fill:#555;" text-anchor="middle" x="0" y="-6.000000">K637R</text></g><line x1="893.027027" x2="893.027027" y1="59.000000" y2="87.000000" stroke="#BABDB6" stroke-width="2"/><a xlink:title="N714H"><circle cx="893.027027" cy="59.000000" r="4.000000" fill="#ff0000" /></a><g transform="translate(893.027027,59.000000) rotate(-30)"><text style="font-size:10px;font-family:OpenSans;fill:#555;" text-anchor="middle" x="0" y="-6.000000">N714H</text></g><line x1="964.351351" x2="964.351351" y1="59.000000" y2="87.000000" stroke="#BABDB6" stroke-width="2"/><a xlink:title="K772E"><circle cx="964.351351" cy="59.000000" r="4.000000" fill="#ff0000" /></a><g transform="translate(964.351351,59.000000) rotate(-30)"><text style="font-size:10px;font-family:OpenSans;fill:#555;" text-anchor="middle" x="0" y="-6.000000">K772E</text></g><line x1="977.878378" x2="977.878378" y1="46.500000" y2="87.000000" stroke="#BABDB6" stroke-width="2"/><a xlink:title="N783H"><circle cx="977.878378" cy="46.500000" r="4.000000" fill="#ff0000" /></a><g transform="translate(977.878378,46.500000) rotate(-30)"><text style="font-size:10px;font-family:OpenSans;fill:#555;" text-anchor="middle" x="0" y="-6.000000">N783H</text></g><line x1="979.108108" x2="979.108108" y1="59.000000" y2="87.000000" stroke="#BABDB6" stroke-width="2"/><a xlink:title="R784C"><circle cx="979.108108" cy="59.000000" r="4.000000" fill="#ff0000" /></a><g transform="translate(979.108108,59.000000) rotate(-30)"><text style="font-size:10px;font-family:OpenSans;fill:#555;" text-anchor="middle" x="0" y="-6.000000">R784C</text></g><line x1="1023.378378" x2="1023.378378" y1="59.000000" y2="87.000000" stroke="#BABDB6" stroke-width="2"/><a xlink:title="N820H"><circle cx="1023.378378" cy="59.000000" r="4.000000" fill="#ff0000" /></a><g transform="translate(1023.378378,59.000000) rotate(-30)"><text style="font-size:10px;font-family:OpenSans;fill:#555;" text-anchor="middle" x="0" y="-6.000000">N820H</text></g><line x1="1049.202703" x2="1049.202703" y1="59.000000" y2="87.000000" stroke="#BABDB6" stroke-width="2"/><a xlink:title="K841E"><circle cx="1049.202703" cy="59.000000" r="4.000000" fill="#ff0000" /></a><g transform="translate(1049.202703,59.000000) rotate(-30)"><text style="font-size:10px;font-family:OpenSans;fill:#555;" text-anchor="middle" x="0" y="-6.000000">K841E</text></g><line x1="1063.959459" x2="1063.959459" y1="59.000000" y2="87.000000" stroke="#BABDB6" stroke-width="2"/><a xlink:title="R853C"><circle cx="1063.959459" cy="59.000000" r="4.000000" fill="#ff0000" /></a><g transform="translate(1063.959459,59.000000) rotate(-30)"><text style="font-size:10px;font-family:OpenSans;fill:#555;" text-anchor="middle" x="0" y="-6.000000">R853C</text></g><line x1="1094.702703" x2="1094.702703" y1="59.000000" y2="87.000000" stroke="#BABDB6" stroke-width="2"/><a xlink:title="K878E"><circle cx="1094.702703" cy="59.000000" r="4.000000" fill="#ff0000" /></a><g transform="translate(1094.702703,59.000000) rotate(-30)"><text style="font-size:10px;font-family:OpenSans;fill:#555;" text-anchor="middle" x="0" y="-6.000000">K878E</text></g><line x1="1109.459459" x2="1109.459459" y1="59.000000" y2="87.000000" stroke="#BABDB6" stroke-width="2"/><a xlink:title="R890C"><circle cx="1109.459459" cy="59.000000" r="4.000000" fill="#ff0000" /></a><g transform="translate(1109.459459,59.000000) rotate(-30)"><text style="font-size:10px;font-family:OpenSans;fill:#555;" text-anchor="middle" x="0" y="-6.000000">R890C</text></g><line x1="1180.783784" x2="1180.783784" y1="59.000000" y2="87.000000" stroke="#BABDB6" stroke-width="2"/><a xlink:title="N948H"><circle cx="1180.783784" cy="59.000000" r="4.000000" fill="#ff0000" /></a><g transform="translate(1180.783784,59.000000) rotate(-30)"><text style="font-size:10px;font-family:OpenSans;fill:#555;" text-anchor="middle" x="0" y="-6.000000">N948H</text></g><line x1="1200.459459" x2="1200.459459" y1="59.000000" y2="87.000000" stroke="#BABDB6" stroke-width="2"/><a xlink:title="N964H"><circle cx="1200.459459" cy="59.000000" r="4.000000" fill="#ff0000" /></a><g transform="translate(1200.459459,59.000000) rotate(-30)"><text style="font-size:10px;font-family:OpenSans;fill:#555;" text-anchor="middle" x="0" y="-6.000000">N964H</text></g><line x1="1247.189189" x2="1247.189189" y1="46.500000" y2="87.000000" stroke="#BABDB6" stroke-width="2"/><a xlink:title="N1002H"><circle cx="1247.189189" cy="46.500000" r="4.000000" fill="#ff0000" /></a><g transform="translate(1247.189189,46.500000) rotate(-30)"><text style="font-size:10px;font-family:OpenSans;fill:#555;" text-anchor="middle" x="0" y="-6.000000">N1002H</text></g><line x1="1252.108108" x2="1252.108108" y1="59.000000" y2="87.000000" stroke="#BABDB6" stroke-width="2"/><a xlink:title="K1006E"><circle cx="1252.108108" cy="59.000000" r="4.000000" fill="#ff0000" /></a><g transform="translate(1252.108108,59.000000) rotate(-30)"><text style="font-size:10px;font-family:OpenSans;fill:#555;" text-anchor="middle" x="0" y="-6.000000">K1006E</text></g><line x1="1266.864865" x2="1266.864865" y1="46.500000" y2="87.000000" stroke="#BABDB6" stroke-width="2"/><a xlink:title="R1018C"><circle cx="1266.864865" cy="46.500000" r="4.000000" fill="#ff0000" /></a><g transform="translate(1266.864865,46.500000) rotate(-30)"><text style="font-size:10px;font-family:OpenSans;fill:#555;" text-anchor="middle" x="0" y="-6.000000">R1018C</text></g><line x1="1271.783784" x2="1271.783784" y1="59.000000" y2="87.000000" stroke="#BABDB6" stroke-width="2"/><a xlink:title="K1022E"><circle cx="1271.783784" cy="59.000000" r="4.000000" fill="#ff0000" /></a><g transform="translate(1271.783784,59.000000) rotate(-30)"><text style="font-size:10px;font-family:OpenSans;fill:#555;" text-anchor="middle" x="0" y="-6.000000">K1022E</text></g><line x1="1286.540541" x2="1286.540541" y1="59.000000" y2="87.000000" stroke="#BABDB6" stroke-width="2"/><a xlink:title="R1034C"><circle cx="1286.540541" cy="59.000000" r="4.000000" fill="#ff0000" /></a><g transform="translate(1286.540541,59.000000) rotate(-30)"><text style="font-size:10px;font-family:OpenSans;fill:#555;" text-anchor="middle" x="0" y="-6.000000">R1034C</text></g><line x1="1293.918919" x2="1293.918919" y1="59.000000" y2="87.000000" stroke="#BABDB6" stroke-width="2"/><a xlink:title="R1040R"><circle cx="1293.918919" cy="59.000000" r="4.000000" fill="#0000ff" /></a><g transform="translate(1293.918919,59.000000) rotate(-30)"><text style="font-size:10px;font-family:OpenSans;fill:#555;" text-anchor="middle" x="0" y="-6.000000">R1040R</text></g><line x1="1318.513514" x2="1318.513514" y1="59.000000" y2="87.000000" stroke="#BABDB6" stroke-width="2"/><a xlink:title="K1060E"><circle cx="1318.513514" cy="59.000000" r="4.000000" fill="#ff0000" /></a><g transform="translate(1318.513514,59.000000) rotate(-30)"><text style="font-size:10px;font-family:OpenSans;fill:#555;" text-anchor="middle" x="0" y="-6.000000">K1060E</text></g><line x1="1333.270270" x2="1333.270270" y1="59.000000" y2="87.000000" stroke="#BABDB6" stroke-width="2"/><a xlink:title="R1072C"><circle cx="1333.270270" cy="59.000000" r="4.000000" fill="#ff0000" /></a><g transform="translate(1333.270270,59.000000) rotate(-30)"><text style="font-size:10px;font-family:OpenSans;fill:#555;" text-anchor="middle" x="0" y="-6.000000">R1072C</text></g><line x1="1378.770270" x2="1378.770270" y1="59.000000" y2="87.000000" stroke="#BABDB6" stroke-width="2"/><a xlink:title="R1109R"><circle cx="1378.770270" cy="59.000000" r="4.000000" fill="#0000ff" /></a><g transform="translate(1378.770270,59.000000) rotate(-30)"><text style="font-size:10px;font-family:OpenSans;fill:#555;" text-anchor="middle" x="0" y="-6.000000">R1109R</text></g><line x1="1424.270270" x2="1424.270270" y1="59.000000" y2="87.000000" stroke="#BABDB6" stroke-width="2"/><a xlink:title="R1146R"><circle cx="1424.270270" cy="59.000000" r="4.000000" fill="#0000ff" /></a><g transform="translate(1424.270270,59.000000) rotate(-30)"><text style="font-size:10px;font-family:OpenSans;fill:#555;" text-anchor="middle" x="0" y="-6.000000">R1146R</text></g><line x1="1458.702703" x2="1458.702703" y1="59.000000" y2="87.000000" stroke="#BABDB6" stroke-width="2"/><a xlink:title="K1174N"><circle cx="1458.702703" cy="59.000000" r="4.000000" fill="#ff0000" /></a><g transform="translate(1458.702703,59.000000) rotate(-30)"><text style="font-size:10px;font-family:OpenSans;fill:#555;" text-anchor="middle" x="0" y="-6.000000">K1174N</text></g><line x1="1543.554054" x2="1543.554054" y1="59.000000" y2="87.000000" stroke="#BABDB6" stroke-width="2"/><a xlink:title="K1243N"><circle cx="1543.554054" cy="59.000000" r="4.000000" fill="#ff0000" /></a><g transform="translate(1543.554054,59.000000) rotate(-30)"><text style="font-size:10px;font-family:OpenSans;fill:#555;" text-anchor="middle" x="0" y="-6.000000">K1243N</text></g><line x1="1581.675676" x2="1581.675676" y1="59.000000" y2="87.000000" stroke="#BABDB6" stroke-width="2"/><a xlink:title="R1274R"><circle cx="1581.675676" cy="59.000000" r="4.000000" fill="#0000ff" /></a><g transform="translate(1581.675676,59.000000) rotate(-30)"><text style="font-size:10px;font-family:OpenSans;fill:#555;" text-anchor="middle" x="0" y="-6.000000">R1274R</text></g><line x1="1589.054054" x2="1589.054054" y1="59.000000" y2="87.000000" stroke="#BABDB6" stroke-width="2"/><a xlink:title="K1280N"><circle cx="1589.054054" cy="59.000000" r="4.000000" fill="#ff0000" /></a><g transform="translate(1589.054054,59.000000) rotate(-30)"><text style="font-size:10px;font-family:OpenSans;fill:#555;" text-anchor="middle" x="0" y="-6.000000">K1280N</text></g><line x1="1597.662162" x2="1597.662162" y1="46.500000" y2="87.000000" stroke="#BABDB6" stroke-width="2"/><a xlink:title="V1287A"><circle cx="1597.662162" cy="46.500000" r="4.000000" fill="#ff0000" /></a><g transform="translate(1597.662162,46.500000) rotate(-30)"><text style="font-size:10px;font-family:OpenSans;fill:#555;" text-anchor="middle" x="0" y="-6.000000">V1287A</text></g><line x1="1601.351351" x2="1601.351351" y1="59.000000" y2="87.000000" stroke="#BABDB6" stroke-width="2"/><a xlink:title="R1290R"><circle cx="1601.351351" cy="59.000000" r="4.000000" fill="#0000ff" /></a><g transform="translate(1601.351351,59.000000) rotate(-30)"><text style="font-size:10px;font-family:OpenSans;fill:#555;" text-anchor="middle" x="0" y="-6.000000">R1290R</text></g><line x1="1648.081081" x2="1648.081081" y1="59.000000" y2="87.000000" stroke="#BABDB6" stroke-width="2"/><a xlink:title="R1328R"><circle cx="1648.081081" cy="59.000000" r="4.000000" fill="#0000ff" /></a><g transform="translate(1648.081081,59.000000) rotate(-30)"><text style="font-size:10px;font-family:OpenSans;fill:#555;" text-anchor="middle" x="0" y="-6.000000">R1328R</text></g><line x1="1682.513514" x2="1682.513514" y1="59.000000" y2="87.000000" stroke="#BABDB6" stroke-width="2"/><a xlink:title="V1356A"><circle cx="1682.513514" cy="59.000000" r="4.000000" fill="#ff0000" /></a><g transform="translate(1682.513514,59.000000) rotate(-30)"><text style="font-size:10px;font-family:OpenSans;fill:#555;" text-anchor="middle" x="0" y="-6.000000">V1356A</text></g><line x1="1728.013514" x2="1728.013514" y1="59.000000" y2="87.000000" stroke="#BABDB6" stroke-width="2"/><a xlink:title="V1393A"><circle cx="1728.013514" cy="59.000000" r="4.000000" fill="#ff0000" /></a><g transform="translate(1728.013514,59.000000) rotate(-30)"><text style="font-size:10px;font-family:OpenSans;fill:#555;" text-anchor="middle" x="0" y="-6.000000">V1393A</text></g><line x1="1746.459459" x2="1746.459459" y1="59.000000" y2="87.000000" stroke="#BABDB6" stroke-width="2"/><a xlink:title="K1408N"><circle cx="1746.459459" cy="59.000000" r="4.000000" fill="#ff0000" /></a><g transform="translate(1746.459459,59.000000) rotate(-30)"><text style="font-size:10px;font-family:OpenSans;fill:#555;" text-anchor="middle" x="0" y="-6.000000">K1408N</text></g><line x1="1766.135135" x2="1766.135135" y1="59.000000" y2="87.000000" stroke="#BABDB6" stroke-width="2"/><a xlink:title="K1424N"><circle cx="1766.135135" cy="59.000000" r="4.000000" fill="#ff0000" /></a><g transform="translate(1766.135135,59.000000) rotate(-30)"><text style="font-size:10px;font-family:OpenSans;fill:#555;" text-anchor="middle" x="0" y="-6.000000">K1424N</text></g><line x1="1812.864865" x2="1812.864865" y1="59.000000" y2="87.000000" stroke="#BABDB6" stroke-width="2"/><a xlink:title="K1462N"><circle cx="1812.864865" cy="59.000000" r="4.000000" fill="#ff0000" /></a><g transform="translate(1812.864865,59.000000) rotate(-30)"><text style="font-size:10px;font-family:OpenSans;fill:#555;" text-anchor="middle" x="0" y="-6.000000">K1462N</text></g><line x1="1885.418919" x2="1885.418919" y1="59.000000" y2="87.000000" stroke="#BABDB6" stroke-width="2"/><a xlink:title="V1521A"><circle cx="1885.418919" cy="59.000000" r="4.000000" fill="#ff0000" /></a><g transform="translate(1885.418919,59.000000) rotate(-30)"><text style="font-size:10px;font-family:OpenSans;fill:#555;" text-anchor="middle" x="0" y="-6.000000">V1521A</text></g><line x1="1905.094595" x2="1905.094595" y1="59.000000" y2="87.000000" stroke="#BABDB6" stroke-width="2"/><a xlink:title="V1537A"><circle cx="1905.094595" cy="59.000000" r="4.000000" fill="#ff0000" /></a><g transform="translate(1905.094595,59.000000) rotate(-30)"><text style="font-size:10px;font-family:OpenSans;fill:#555;" text-anchor="middle" x="0" y="-6.000000">V1537A</text></g><line x1="1951.824324" x2="1951.824324" y1="59.000000" y2="87.000000" stroke="#BABDB6" stroke-width="2"/><a xlink:title="V1575A"><circle cx="1951.824324" cy="59.000000" r="4.000000" fill="#ff0000" /></a><g transform="translate(1951.824324,59.000000) rotate(-30)"><text style="font-size:10px;font-family:OpenSans;fill:#555;" text-anchor="middle" x="0" y="-6.000000">V1575A</text></g><line x1="2443.716216" x2="2443.716216" y1="59.000000" y2="87.000000" stroke="#BABDB6" stroke-width="2"/><a xlink:title="D1975D"><circle cx="2443.716216" cy="59.000000" r="4.000000" fill="#0000ff" /></a><g transform="translate(2443.716216,59.000000) rotate(-30)"><text style="font-size:10px;font-family:OpenSans;fill:#555;" text-anchor="middle" x="0" y="-6.000000">D1975D</text></g><line x1="2528.567568" x2="2528.567568" y1="59.000000" y2="87.000000" stroke="#BABDB6" stroke-width="2"/><a xlink:title="D2044D"><circle cx="2528.567568" cy="59.000000" r="4.000000" fill="#0000ff" /></a><g transform="translate(2528.567568,59.000000) rotate(-30)"><text style="font-size:10px;font-family:OpenSans;fill:#555;" text-anchor="middle" x="0" y="-6.000000">D2044D</text></g><line x1="2574.067568" x2="2574.067568" y1="59.000000" y2="87.000000" stroke="#BABDB6" stroke-width="2"/><a xlink:title="D2081D"><circle cx="2574.067568" cy="59.000000" r="4.000000" fill="#0000ff" /></a><g transform="translate(2574.067568,59.000000) rotate(-30)"><text style="font-size:10px;font-family:OpenSans;fill:#555;" text-anchor="middle" x="0" y="-6.000000">D2081D</text></g><line x1="2731.472973" x2="2731.472973" y1="59.000000" y2="87.000000" stroke="#BABDB6" stroke-width="2"/><a xlink:title="D2209D"><circle cx="2731.472973" cy="59.000000" r="4.000000" fill="#0000ff" /></a><g transform="translate(2731.472973,59.000000) rotate(-30)"><text style="font-size:10px;font-family:OpenSans;fill:#555;" text-anchor="middle" x="0" y="-6.000000">D2209D</text></g><line x1="2751.148649" x2="2751.148649" y1="59.000000" y2="87.000000" stroke="#BABDB6" stroke-width="2"/><a xlink:title="D2225D"><circle cx="2751.148649" cy="59.000000" r="4.000000" fill="#0000ff" /></a><g transform="translate(2751.148649,59.000000) rotate(-30)"><text style="font-size:10px;font-family:OpenSans;fill:#555;" text-anchor="middle" x="0" y="-6.000000">D2225D</text></g><line x1="2778.202703" x2="2778.202703" y1="59.000000" y2="87.000000" stroke="#BABDB6" stroke-width="2"/><a xlink:title="E2247D"><circle cx="2778.202703" cy="59.000000" r="4.000000" fill="#ff0000" /></a><g transform="translate(2778.202703,59.000000) rotate(-30)"><text style="font-size:10px;font-family:OpenSans;fill:#555;" text-anchor="middle" x="0" y="-6.000000">E2247D</text></g><line x1="2797.878378" x2="2797.878378" y1="59.000000" y2="87.000000" stroke="#BABDB6" stroke-width="2"/><a xlink:title="D2263D"><circle cx="2797.878378" cy="59.000000" r="4.000000" fill="#0000ff" /></a><g transform="translate(2797.878378,59.000000) rotate(-30)"><text style="font-size:10px;font-family:OpenSans;fill:#555;" text-anchor="middle" x="0" y="-6.000000">D2263D</text></g><line x1="2863.054054" x2="2863.054054" y1="59.000000" y2="87.000000" stroke="#BABDB6" stroke-width="2"/><a xlink:title="E2316D"><circle cx="2863.054054" cy="59.000000" r="4.000000" fill="#ff0000" /></a><g transform="translate(2863.054054,59.000000) rotate(-30)"><text style="font-size:10px;font-family:OpenSans;fill:#555;" text-anchor="middle" x="0" y="-6.000000">E2316D</text></g><line x1="2908.554054" x2="2908.554054" y1="59.000000" y2="87.000000" stroke="#BABDB6" stroke-width="2"/><a xlink:title="E2353D"><circle cx="2908.554054" cy="59.000000" r="4.000000" fill="#ff0000" /></a><g transform="translate(2908.554054,59.000000) rotate(-30)"><text style="font-size:10px;font-family:OpenSans;fill:#555;" text-anchor="middle" x="0" y="-6.000000">E2353D</text></g><line x1="3065.959459" x2="3065.959459" y1="59.000000" y2="87.000000" stroke="#BABDB6" stroke-width="2"/><a xlink:title="E2481D"><circle cx="3065.959459" cy="59.000000" r="4.000000" fill="#ff0000" /></a><g transform="translate(3065.959459,59.000000) rotate(-30)"><text style="font-size:10px;font-family:OpenSans;fill:#555;" text-anchor="middle" x="0" y="-6.000000">E2481D</text></g><line x1="3085.635135" x2="3085.635135" y1="59.000000" y2="87.000000" stroke="#BABDB6" stroke-width="2"/><a xlink:title="E2497D"><circle cx="3085.635135" cy="59.000000" r="4.000000" fill="#ff0000" /></a><g transform="translate(3085.635135,59.000000) rotate(-30)"><text style="font-size:10px;font-family:OpenSans;fill:#555;" text-anchor="middle" x="0" y="-6.000000">E2497D</text></g><line x1="3132.364865" x2="3132.364865" y1="59.000000" y2="87.000000" stroke="#BABDB6" stroke-width="2"/><a xlink:title="E2535D"><circle cx="3132.364865" cy="59.000000" r="4.000000" fill="#ff0000" /></a><g transform="translate(3132.364865,59.000000) rotate(-30)"><text style="font-size:10px;font-family:OpenSans;fill:#555;" text-anchor="middle" x="0" y="-6.000000">E2535D</text></g><a xlink:title=",  (2540aa)"><rect fill="#BABDB6" x="15.000000" y="87.000000" width="3123.513514" height="14.000000"/></a><g transform="translate(24.837838,82.000000)"><a xlink:href="https://www.ebi.ac.uk/interpro/entry/pfam/PF22989" xlink:title="Domain of unknown function (DUF7030)"><rect fill="#2DCF00" x="0" y="0" width="77.472973" height="24.000000" filter="url(#ds)"/><text style="font-size:12px;font-family:OpenSans;fill:#ffffff;" text-anchor="middle" x="38.736486" y="16.000000">DUF7030</text></a></g>
<g transform="translate(114.608108,82.000000)"><a xlink:href="https://www.ebi.ac.uk/interpro/entry/pfam/PF22988" xlink:title="Lysine-specific demethylase 3B, PWWP domain"><rect fill="#FF5353" x="0" y="0" width="120.513514" height="24.000000" filter="url(#ds)"/><text style="font-size:12px;font-family:OpenSans;fill:#ffffff;" text-anchor="middle" x="60.256757" y="16.000000">PWWP_KDM3B</text></a></g>
<g transform="translate(237.581081,82.000000)"><a xlink:href="https://www.ebi.ac.uk/interpro/entry/pfam/PF22987" xlink:title="Lysine-specific demethylase 3B, tudor domain"><rect fill="#5B5BFF" x="0" y="0" width="91.000000" height="24.000000" filter="url(#ds)"/><text style="font-size:12px;font-family:OpenSans;fill:#ffffff;" text-anchor="middle" x="45.500000" y="16.000000">KDM3B_Tudor</text></a></g>
<g transform="translate(2945.445946,82.000000)"><a xlink:href="https://www.ebi.ac.uk/interpro/entry/pfam/PF02373" xlink:title="JmjC domain, hydroxylase"><rect fill="#EBD61D" x="0" y="0" width="120.513514" height="24.000000" filter="url(#ds)"/><text style="font-size:12px;font-family:OpenSans;fill:#ffffff;" text-anchor="middle" x="60.256757" y="16.000000">JmjC</text></a></g>
<g class="axis">
<line x1="15.000000" x2="3138.513514" y1="116.000000" y2="116.000000" stroke="#AAAAAA" /><line x1="15.000000" x2="15.000000" y1="116.000000" y2="121.000000" stroke="#AAAAAA" /><line x1="24.837838" x2="24.837838" y1="116.000000" y2="121.000000" stroke="#AAAAAA" /><text style="font-size:10px;font-family:OpenSans;fill:#000000;" text-anchor="middle" x="24.837838" y="131.000000">8</text><line x1="117.067568" x2="117.067568" y1="116.000000" y2="121.000000" stroke="#AAAAAA" /><text style="font-size:10px;font-family:OpenSans;fill:#000000;" text-anchor="middle" x="117.067568" y="131.000000">83</text><line x1="201.918919" x2="201.918919" y1="116.000000" y2="121.000000" stroke="#AAAAAA" /><text style="font-size:10px;font-family:OpenSans;fill:#000000;" text-anchor="middle" x="201.918919" y="131.000000">152</text><line x1="226.513514" x2="226.513514" y1="116.000000" y2="121.000000" stroke="#AAAAAA" /><text style="font-size:10px;font-family:OpenSans;fill:#000000;" text-anchor="middle" x="226.513514" y="131.000000">172</text><line x1="247.418919" x2="247.418919" y1="116.000000" y2="121.000000" stroke="#AAAAAA" /><text style="font-size:10px;font-family:OpenSans;fill:#000000;" text-anchor="middle" x="247.418919" y="131.000000">189</text><line x1="295.378378" x2="295.378378" y1="116.000000" y2="121.000000" stroke="#AAAAAA" /><text style="font-size:10px;font-family:OpenSans;fill:#000000;" text-anchor="middle" x="295.378378" y="131.000000">228</text><line x1="316.283784" x2="316.283784" y1="116.000000" y2="121.000000" stroke="#AAAAAA" /><text style="font-size:10px;font-family:OpenSans;fill:#000000;" text-anchor="middle" x="316.283784" y="131.000000">245</text><line x1="356.864865" x2="356.864865" y1="116.000000" y2="121.000000" stroke="#AAAAAA" /><text style="font-size:10px;font-family:OpenSans;fill:#000000;" text-anchor="middle" x="356.864865" y="131.000000">278</text><line x1="380.229730" x2="380.229730" y1="116.000000" y2="121.000000" stroke="#AAAAAA" /><text style="font-size:10px;font-family:OpenSans;fill:#000000;" text-anchor="middle" x="380.229730" y="131.000000">297</text><line x1="404.824324" x2="404.824324" y1="116.000000" y2="121.000000" stroke="#AAAAAA" /><text style="font-size:10px;font-family:OpenSans;fill:#000000;" text-anchor="middle" x="404.824324" y="131.000000">317</text><line x1="424.500000" x2="424.500000" y1="116.000000" y2="121.000000" stroke="#AAAAAA" /><text style="font-size:10px;font-family:OpenSans;fill:#000000;" text-anchor="middle" x="424.500000" y="131.000000">333</text><line x1="444.175676" x2="444.175676" y1="116.000000" y2="121.000000" stroke="#AAAAAA" /><text style="font-size:10px;font-family:OpenSans;fill:#000000;" text-anchor="middle" x="444.175676" y="131.000000">349</text><line x1="471.229730" x2="471.229730" y1="116.000000" y2="121.000000" stroke="#AAAAAA" /><text style="font-size:10px;font-family:OpenSans;fill:#000000;" text-anchor="middle" x="471.229730" y="131.000000">371</text><line x1="514.270270" x2="514.270270" y1="116.000000" y2="121.000000" stroke="#AAAAAA" /><text style="font-size:10px;font-family:OpenSans;fill:#000000;" text-anchor="middle" x="514.270270" y="131.000000">406</text><line x1="533.945946" x2="533.945946" y1="116.000000" y2="121.000000" stroke="#AAAAAA" /><text style="font-size:10px;font-family:OpenSans;fill:#000000;" text-anchor="middle" x="533.945946" y="131.000000">422</text><line x1="574.527027" x2="574.527027" y1="116.000000" y2="121.000000" stroke="#AAAAAA" /><text style="font-size:10px;font-family:OpenSans;fill:#000000;" text-anchor="middle" x="574.527027" y="131.000000">455</text><line x1="602.810811" x2="602.810811" y1="116.000000" y2="121.000000" stroke="#AAAAAA" /><text style="font-size:10px;font-family:OpenSans;fill:#000000;" text-anchor="middle" x="602.810811" y="131.000000">478</text><line x1="649.540541" x2="649.540541" y1="116.000000" y2="121.000000" stroke="#AAAAAA" /><text style="font-size:10px;font-family:OpenSans;fill:#000000;" text-anchor="middle" x="649.540541" y="131.000000">516</text><line x1="731.932432" x2="731.932432" y1="116.000000" y2="121.000000" stroke="#AAAAAA" /><text style="font-size:10px;font-family:OpenSans;fill:#000000;" text-anchor="middle" x="731.932432" y="131.000000">583</text><line x1="751.608108" x2="751.608108" y1="116.000000" y2="121.000000" stroke="#AAAAAA" /><text style="font-size:10px;font-family:OpenSans;fill:#000000;" text-anchor="middle" x="751.608108" y="131.000000">599</text><line x1="798.337838" x2="798.337838" y1="116.000000" y2="121.000000" stroke="#AAAAAA" /><text style="font-size:10px;font-family:OpenSans;fill:#000000;" text-anchor="middle" x="798.337838" y="131.000000">637</text><line x1="893.027027" x2="893.027027" y1="116.000000" y2="121.000000" stroke="#AAAAAA" /><text style="font-size:10px;font-family:OpenSans;fill:#000000;" text-anchor="middle" x="893.027027" y="131.000000">714</text><line x1="964.351351" x2="964.351351" y1="116.000000" y2="121.000000" stroke="#AAAAAA" /><text style="font-size:10px;font-family:OpenSans;fill:#000000;" text-anchor="middle" x="964.351351" y="131.000000">772</text><line x1="1023.378378" x2="1023.378378" y1="116.000000" y2="121.000000" stroke="#AAAAAA" /><text style="font-size:10px;font-family:OpenSans;fill:#000000;" text-anchor="middle" x="1023.378378" y="131.000000">820</text><line x1="1049.202703" x2="1049.202703" y1="116.000000" y2="121.000000" stroke="#AAAAAA" /><text style="font-size:10px;font-family:OpenSans;fill:#000000;" text-anchor="middle" x="1049.202703" y="131.000000">841</text><line x1="1094.702703" x2="1094.702703" y1="116.000000" y2="121.000000" stroke="#AAAAAA" /><text style="font-size:10px;font-family:OpenSans;fill:#000000;" text-anchor="middle" x="1094.702703" y="131.000000">878</text><line x1="1180.783784" x2="1180.783784" y1="116.000000" y2="121.000000" stroke="#AAAAAA" /><text style="font-size:10px;font-family:OpenSans;fill:#000000;" text-anchor="middle" x="1180.783784" y="131.000000">948</text><line x1="1200.459459" x2="1200.459459" y1="116.000000" y2="121.000000" stroke="#AAAAAA" /><text style="font-size:10px;font-family:OpenSans;fill:#000000;" text-anchor="middle" x="1200.459459" y="131.000000">964</text><line x1="1247.189189" x2="1247.189189" y1="116.000000" y2="121.000000" stroke="#AAAAAA" /><text style="font-size:10px;font-family:OpenSans;fill:#000000;" text-anchor="middle" x="1247.189189" y="131.000000">1002</text><line x1="1266.864865" x2="1266.864865" y1="116.000000" y2="121.000000" stroke="#AAAAAA" /><text style="font-size:10px;font-family:OpenSans;fill:#000000;" text-anchor="middle" x="1266.864865" y="131.000000">1018</text><line x1="1286.540541" x2="1286.540541" y1="116.000000" y2="121.000000" stroke="#AAAAAA" /><text style="font-size:10px;font-family:OpenSans;fill:#000000;" text-anchor="middle" x="1286.540541" y="131.000000">1034</text><line x1="1318.513514" x2="1318.513514" y1="116.000000" y2="121.000000" stroke="#AAAAAA" /><text style="font-size:10px;font-family:OpenSans;fill:#000000;" text-anchor="middle" x="1318.513514" y="131.000000">1060</text><line x1="1378.770270" x2="1378.770270" y1="116.000000" y2="121.000000" stroke="#AAAAAA" /><text style="font-size:10px;font-family:OpenSans;fill:#000000;" text-anchor="middle" x="1378.770270" y="131.000000">1109</text><line x1="1424.270270" x2="1424.270270" y1="116.000000" y2="121.000000" stroke="#AAAAAA" /><text style="font-size:10px;font-family:OpenSans;fill:#000000;" text-anchor="middle" x="1424.270270" y="131.000000">1146</text><line x1="1458.702703" x2="1458.702703" y1="116.000000" y2="121.000000" stroke="#AAAAAA" /><text style="font-size:10px;font-family:OpenSans;fill:#000000;" text-anchor="middle" x="1458.702703" y="131.000000">1174</text><line x1="1543.554054" x2="1543.554054" y1="116.000000" y2="121.000000" stroke="#AAAAAA" /><text style="font-size:10px;font-family:OpenSans;fill:#000000;" text-anchor="middle" x="1543.554054" y="131.000000">1243</text><line x1="1581.675676" x2="1581.675676" y1="116.000000" y2="121.000000" stroke="#AAAAAA" /><text style="font-size:10px;font-family:OpenSans;fill:#000000;" text-anchor="middle" x="1581.675676" y="131.000000">1274</text><line x1="1601.351351" x2="1601.351351" y1="116.000000" y2="121.000000" stroke="#AAAAAA" /><text style="font-size:10px;font-family:OpenSans;fill:#000000;" text-anchor="middle" x="1601.351351" y="131.000000">1290</text><line x1="1648.081081" x2="1648.081081" y1="116.000000" y2="121.000000" stroke="#AAAAAA" /><text style="font-size:10px;font-family:OpenSans;fill:#000000;" text-anchor="middle" x="1648.081081" y="131.000000">1328</text><line x1="1682.513514" x2="1682.513514" y1="116.000000" y2="121.000000" stroke="#AAAAAA" /><text style="font-size:10px;font-family:OpenSans;fill:#000000;" text-anchor="middle" x="1682.513514" y="131.000000">1356</text><line x1="1728.013514" x2="1728.013514" y1="116.000000" y2="121.000000" stroke="#AAAAAA" /><text style="font-size:10px;font-family:OpenSans;fill:#000000;" text-anchor="middle" x="1728.013514" y="131.000000">1393</text><line x1="1766.135135" x2="1766.135135" y1="116.000000" y2="121.000000" stroke="#AAAAAA" /><text style="font-size:10px;font-family:OpenSans;fill:#000000;" text-anchor="middle" x="1766.135135" y="131.000000">1424</text><line x1="1812.864865" x2="1812.864865" y1="116.000000" y2="121.000000" stroke="#AAAAAA" /><text style="font-size:10px;font-family:OpenSans;fill:#000000;" text-anchor="middle" x="1812.864865" y="131.000000">1462</text><line x1="1885.418919" x2="1885.418919" y1="116.000000" y2="121.000000" stroke="#AAAAAA" /><text style="font-size:10px;font-family:OpenSans;fill:#000000;" text-anchor="middle" x="1885.418919" y="131.000000">1521</text><line x1="1905.094595" x2="1905.094595" y1="116.000000" y2="121.000000" stroke="#AAAAAA" /><text style="font-size:10px;font-family:OpenSans;fill:#000000;" text-anchor="middle" x="1905.094595" y="131.000000">1537</text><line x1="1951.824324" x2="1951.824324" y1="116.000000" y2="121.000000" stroke="#AAAAAA" /><text style="font-size:10px;font-family:OpenSans;fill:#000000;" text-anchor="middle" x="1951.824324" y="131.000000">1575</text><line x1="2443.716216" x2="2443.716216" y1="116.000000" y2="121.000000" stroke="#AAAAAA" /><text style="font-size:10px;font-family:OpenSans;fill:#000000;" text-anchor="middle" x="2443.716216" y="131.000000">1975</text><line x1="2528.567568" x2="2528.567568" y1="116.000000" y2="121.000000" stroke="#AAAAAA" /><text style="font-size:10px;font-family:OpenSans;fill:#000000;" text-anchor="middle" x="2528.567568" y="131.000000">2044</text><line x1="2574.067568" x2="2574.067568" y1="116.000000" y2="121.000000" stroke="#AAAAAA" /><text style="font-size:10px;font-family:OpenSans;fill:#000000;" text-anchor="middle" x="2574.067568" y="131.000000">2081</text><line x1="2731.472973" x2="2731.472973" y1="116.000000" y2="121.000000" stroke="#AAAAAA" /><text style="font-size:10px;font-family:OpenSans;fill:#000000;" text-anchor="middle" x="2731.472973" y="131.000000">2209</text><line x1="2751.148649" x2="2751.148649" y1="116.000000" y2="121.000000" stroke="#AAAAAA" /><text style="font-size:10px;font-family:OpenSans;fill:#000000;" text-anchor="middle" x="2751.148649" y="131.000000">2225</text><line x1="2778.202703" x2="2778.202703" y1="116.000000" y2="121.000000" stroke="#AAAAAA" /><text style="font-size:10px;font-family:OpenSans;fill:#000000;" text-anchor="middle" x="2778.202703" y="131.000000">2247</text><line x1="2797.878378" x2="2797.878378" y1="116.000000" y2="121.000000" stroke="#AAAAAA" /><text style="font-size:10px;font-family:OpenSans;fill:#000000;" text-anchor="middle" x="2797.878378" y="131.000000">2263</text><line x1="2863.054054" x2="2863.054054" y1="116.000000" y2="121.000000" stroke="#AAAAAA" /><text style="font-size:10px;font-family:OpenSans;fill:#000000;" text-anchor="middle" x="2863.054054" y="131.000000">2316</text><line x1="2908.554054" x2="2908.554054" y1="116.000000" y2="121.000000" stroke="#AAAAAA" /><text style="font-size:10px;font-family:OpenSans;fill:#000000;" text-anchor="middle" x="2908.554054" y="131.000000">2353</text><line x1="2945.445946" x2="2945.445946" y1="116.000000" y2="121.000000" stroke="#AAAAAA" /><text style="font-size:10px;font-family:OpenSans;fill:#000000;" text-anchor="middle" x="2945.445946" y="131.000000">2383</text><line x1="3065.959459" x2="3065.959459" y1="116.000000" y2="121.000000" stroke="#AAAAAA" /><text style="font-size:10px;font-family:OpenSans;fill:#000000;" text-anchor="middle" x="3065.959459" y="131.000000">2481</text><line x1="3085.635135" x2="3085.635135" y1="116.000000" y2="121.000000" stroke="#AAAAAA" /><text style="font-size:10px;font-family:OpenSans;fill:#000000;" text-anchor="middle" x="3085.635135" y="131.000000">2497</text><line x1="3138.513514" x2="3138.513514" y1="116.000000" y2="121.000000" stroke="#AAAAAA" /><text style="font-size:10px;font-family:OpenSans;fill:#000000;" text-anchor="middle" x="3138.513514" y="131.000000">2540</text></g>
<rect fill="#5B5BFF" x="4" y="145.000000" width="12" height="12" filter="url(#ds)"/><text style="font-size:12px;font-family:OpenSans;fill:#000000;" text-anchor="start" x="20" y="157.000000">Lysine-specific demethylase 3B, tudor domain</text><rect fill="#EBD61D" x="4" y="159.000000" width="12" height="12" filter="url(#ds)"/><text style="font-size:12px;font-family:OpenSans;fill:#000000;" text-anchor="start" x="20" y="171.000000">JmjC domain, hydroxylase</text><rect fill="#2DCF00" x="4" y="173.000000" width="12" height="12" filter="url(#ds)"/><text style="font-size:12px;font-family:OpenSans;fill:#000000;" text-anchor="start" x="20" y="185.000000">Domain of unknown function (DUF7030)</text><rect fill="#FF5353" x="4" y="187.000000" width="12" height="12" filter="url(#ds)"/><text style="font-size:12px;font-family:OpenSans;fill:#000000;" text-anchor="start" x="20" y="199.000000">Lysine-specific demethylase 3B, PWWP domain</text></svg>
