<?xml version='1.0'?>
<svg xmlns="http://www.w3.org/2000/svg" xmlns:xlink="http://www.w3.org/1999/xlink" width="900.315789" height="159.400000">
<defs>
  <filter id="ds" x="0" y="0">
    <feOffset in="SourceAlpha" dx="2" dy="2" />
    <feComponentTransfer><feFuncA type="linear" slope="0.2"/></feComponentTransfer>
    <feGaussianBlur result="blurOut" stdDeviation="1" />
    <feBlend in="SourceGraphic" in2="blurOut" mode="normal" />
  </filter>
  <pattern id="disordered-hatch" patternUnits="userSpaceOnUse" width="4" height="4">
    <path d="M-1,1 l2,-2 M0,4 l4,-4 M3,5 l2,-2" stroke="#000000" opacity="0.3" />
  </pattern>
</defs>
<line x1="671.921053" x2="671.921053" y1="34.000000" y2="62.000000" stroke="#BABDB6" stroke-width="2"/><a xlink:title="L471L"><circle cx="671.921053" cy="34.000000" r="4.000000" fill="#0000ff" /></a><g transform="translate(671.921053,34.000000) rotate(-30)"><text style="font-size:10px;font-family:OpenSans;fill:#555;" text-anchor="middle" x="0" y="-6.000000">L471L</text></g><line x1="763.973684" x2="763.973684" y1="34.000000" y2="62.000000" stroke="#BABDB6" stroke-width="2"/><a xlink:title="Y537Y"><circle cx="763.973684" cy="34.000000" r="4.000000" fill="#0000ff" /></a><g transform="translate(763.973684,34.000000) rotate(-30)"><text style="font-size:10px;font-family:OpenSans;fill:#555;" text-anchor="middle" x="0" y="-6.000000">Y537Y</text></g><a xlink:title=",  (624aa)"><rect fill="#BABDB6" x="15.000000" y="62.000000" width="870.315789" height="14.000000"/></a><g transform="translate(108.447368,57.000000)"><a xlink:href="https://www.ebi.ac.uk/interpro/entry/pfam/PF00651" xlink:title="BTB/POZ domain"><rect fill="#2DCF00" x="0" y="0" width="154.815789" height="24.000000" filter="url(#ds)"/><text style="font-size:12px;font-family:OpenSans;fill:#ffffff;" text-anchor="middle" x="77.407895" y="16.000000">BTB/POZ domain</text></a></g>
<g transform="translate(271.631579,57.000000)"><a xlink:href="https://www.ebi.ac.uk/interpro/entry/pfam/PF07707" xlink:title="BTB And C-terminal Kelch"><rect fill="#FF5353" x="0" y="0" width="139.473684" height="24.000000" filter="url(#ds)"/><text style="font-size:12px;font-family:OpenSans;fill:#ffffff;" text-anchor="middle" x="69.736842" y="16.000000">BACK</text></a></g>
<g transform="translate(462.710526,57.000000)"><a xlink:href="https://www.ebi.ac.uk/interpro/entry/pfam/PF01344" xlink:title="Kelch motif"><rect fill="#5B5BFF" x="0" y="0" width="53.000000" height="24.000000" filter="url(#ds)"/><text style="font-size:12px;font-family:OpenSans;fill:#ffffff;" text-anchor="middle" x="26.500000" y="16.000000">Kelch_1</text></a></g>
<g transform="translate(518.500000,57.000000)"><a xlink:href="https://www.ebi.ac.uk/interpro/entry/pfam/PF01344" xlink:title="Kelch motif"><rect fill="#EBD61D" x="0" y="0" width="68.342105" height="24.000000" filter="url(#ds)"/><text style="font-size:12px;font-family:OpenSans;fill:#ffffff;" text-anchor="middle" x="34.171053" y="16.000000">Kelch motif</text></a></g>
<g transform="translate(589.631579,57.000000)"><a xlink:href="https://www.ebi.ac.uk/interpro/entry/pfam/PF01344" xlink:title="Kelch motif"><rect fill="#BA21E0" x="0" y="0" width="61.368421" height="24.000000" filter="url(#ds)"/><text style="font-size:12px;font-family:OpenSans;fill:#ffffff;" text-anchor="middle" x="30.684211" y="16.000000">Kelch_1</text></a></g>
<g transform="translate(655.184211,57.000000)"><a xlink:href="https://www.ebi.ac.uk/interpro/entry/pfam/PF01344" xlink:title="Kelch motif"><rect fill="#FF9C42" x="0" y="0" width="62.763158" height="24.000000" filter="url(#ds)"/><text style="font-size:12px;font-family:OpenSans;fill:#ffffff;" text-anchor="middle" x="31.381579" y="16.000000">Kelch_1</text></a></g>
<g transform="translate(722.131579,57.000000)"><a xlink:href="https://www.ebi.ac.uk/interpro/entry/pfam/PF01344" xlink:title="Kelch motif"><rect fill="#FF7DFF" x="0" y="0" width="61.368421" height="24.000000" filter="url(#ds)"/><text style="font-size:12px;font-family:OpenSans;fill:#ffffff;" text-anchor="middle" x="30.684211" y="16.000000">Kelch_1</text></a></g>
<g transform="translate(786.289474,57.000000)"><a xlink:href="https://www.ebi.ac.uk/interpro/entry/pfam/PF01344" xlink:title="Kelch motif"><rect fill="#B9264F" x="0" y="0" width="62.763158" height="24.000000" filter="url(#ds)"/><text style="font-size:12px;font-family:OpenSans;fill:#ffffff;" text-anchor="middle" x="31.381579" y="16.000000">Kelch_1</text></a></g>
<g class="axis">
<line x1="15.000000" x2="885.315789" y1="91.000000" y2="91.000000" stroke="#AAAAAA" /><line x1="15.000000" x2="15.000000" y1="91.000000" y2="96.000000" stroke="#AAAAAA" /><line x1="15.000000" x2="15.000000" y1="91.000000" y2="96.000000" stroke="#AAAAAA" /><text style="font-size:10px;font-family:OpenSans;fill:#000000;" text-anchor="middle" x="15.000000" y="106.000000">0</text><line x1="108.447368" x2="108.447368" y1="91.000000" y2="96.000000" stroke="#AAAAAA" /><text style="font-size:10px;font-family:OpenSans;fill:#000000;" text-anchor="middle" x="108.447368" y="106.000000">67</text><line x1="263.263158" x2="263.263158" y1="91.000000" y2="96.000000" stroke="#AAAAAA" /><text style="font-size:10px;font-family:OpenSans;fill:#000000;" text-anchor="middle" x="263.263158" y="106.000000">178</text><line x1="411.105263" x2="411.105263" y1="91.000000" y2="96.000000" stroke="#AAAAAA" /><text style="font-size:10px;font-family:OpenSans;fill:#000000;" text-anchor="middle" x="411.105263" y="106.000000">284</text><line x1="462.710526" x2="462.710526" y1="91.000000" y2="96.000000" stroke="#AAAAAA" /><text style="font-size:10px;font-family:OpenSans;fill:#000000;" text-anchor="middle" x="462.710526" y="106.000000">321</text><line x1="515.710526" x2="515.710526" y1="91.000000" y2="96.000000" stroke="#AAAAAA" /><text style="font-size:10px;font-family:OpenSans;fill:#000000;" text-anchor="middle" x="515.710526" y="106.000000">359</text><line x1="586.842105" x2="586.842105" y1="91.000000" y2="96.000000" stroke="#AAAAAA" /><text style="font-size:10px;font-family:OpenSans;fill:#000000;" text-anchor="middle" x="586.842105" y="106.000000">410</text><line x1="651.000000" x2="651.000000" y1="91.000000" y2="96.000000" stroke="#AAAAAA" /><text style="font-size:10px;font-family:OpenSans;fill:#000000;" text-anchor="middle" x="651.000000" y="106.000000">456</text><line x1="671.921053" x2="671.921053" y1="91.000000" y2="96.000000" stroke="#AAAAAA" /><text style="font-size:10px;font-family:OpenSans;fill:#000000;" text-anchor="middle" x="671.921053" y="106.000000">471</text><line x1="717.947368" x2="717.947368" y1="91.000000" y2="96.000000" stroke="#AAAAAA" /><text style="font-size:10px;font-family:OpenSans;fill:#000000;" text-anchor="middle" x="717.947368" y="106.000000">504</text><line x1="763.973684" x2="763.973684" y1="91.000000" y2="96.000000" stroke="#AAAAAA" /><text style="font-size:10px;font-family:OpenSans;fill:#000000;" text-anchor="middle" x="763.973684" y="106.000000">537</text><line x1="783.500000" x2="783.500000" y1="91.000000" y2="96.000000" stroke="#AAAAAA" /><text style="font-size:10px;font-family:OpenSans;fill:#000000;" text-anchor="middle" x="783.500000" y="106.000000">551</text><line x1="849.052632" x2="849.052632" y1="91.000000" y2="96.000000" stroke="#AAAAAA" /><text style="font-size:10px;font-family:OpenSans;fill:#000000;" text-anchor="middle" x="849.052632" y="106.000000">598</text><line x1="885.315789" x2="885.315789" y1="91.000000" y2="96.000000" stroke="#AAAAAA" /><text style="font-size:10px;font-family:OpenSans;fill:#000000;" text-anchor="middle" x="885.315789" y="106.000000">624</text></g>
<rect fill="#FF5353" x="4" y="120.000000" width="12" height="12" filter="url(#ds)"/><text style="font-size:12px;font-family:OpenSans;fill:#000000;" text-anchor="start" x="20" y="132.000000">BTB And C-terminal Kelch</text><rect fill="#B9264F" x="4" y="134.000000" width="12" height="12" filter="url(#ds)"/><text style="font-size:12px;font-family:OpenSans;fill:#000000;" text-anchor="start" x="20" y="146.000000">Kelch motif</text></svg>
