<?xml version='1.0'?>
<svg xmlns="http://www.w3.org/2000/svg" xmlns:xlink="http://www.w3.org/1999/xlink" width="1173.443787" height="158.700000">
<defs>
  <filter id="ds" x="0" y="0">
    <feOffset in="SourceAlpha" dx="2" dy="2" />
    <feComponentTransfer><feFuncA type="linear" slope="0.2"/></feComponentTransfer>
    <feGaussianBlur result="blurOut" stdDeviation="1" />
    <feBlend in="SourceGraphic" in2="blurOut" mode="normal" />
  </filter>
  <pattern id="disordered-hatch" patternUnits="userSpaceOnUse" width="4" height="4">
    <path d="M-1,1 l2,-2 M0,4 l4,-4 M3,5 l2,-2" stroke="#000000" opacity="0.3" />
  </pattern>
</defs>
<line x1="37.792899" x2="37.792899" y1="34.000000" y2="74.500000" stroke="#BABDB6" stroke-width="2"/><a xlink:title="T36T"><circle cx="37.792899" cy="34.000000" r="4.000000" fill="#0000ff" /></a><g transform="translate(37.792899,34.000000) rotate(-30)"><text style="font-size:10px;font-family:OpenSans;fill:#555;" text-anchor="middle" x="0" y="-6.000000">T36T</text></g><line x1="39.059172" x2="39.059172" y1="46.500000" y2="74.500000" stroke="#BABDB6" stroke-width="2"/><a xlink:title="V38M"><circle cx="39.059172" cy="46.500000" r="4.000000" fill="#ff0000" /></a><g transform="translate(39.059172,46.500000) rotate(-30)"><text style="font-size:10px;font-family:OpenSans;fill:#555;" text-anchor="middle" x="0" y="-6.000000">V38M</text></g><line x1="54.254438" x2="54.254438" y1="34.000000" y2="74.500000" stroke="#BABDB6" stroke-width="2"/><a xlink:title="T62T"><circle cx="54.254438" cy="34.000000" r="4.000000" fill="#0000ff" /></a><g transform="translate(54.254438,34.000000) rotate(-30)"><text style="font-size:10px;font-family:OpenSans;fill:#555;" text-anchor="middle" x="0" y="-6.000000">T62T</text></g><line x1="55.520710" x2="55.520710" y1="46.500000" y2="74.500000" stroke="#BABDB6" stroke-width="2"/><a xlink:title="V64M"><circle cx="55.520710" cy="46.500000" r="4.000000" fill="#ff0000" /></a><g transform="translate(55.520710,46.500000) rotate(-30)"><text style="font-size:10px;font-family:OpenSans;fill:#555;" text-anchor="middle" x="0" y="-6.000000">V64M</text></g><line x1="87.177515" x2="87.177515" y1="34.000000" y2="74.500000" stroke="#BABDB6" stroke-width="2"/><a xlink:title="T114T"><circle cx="87.177515" cy="34.000000" r="4.000000" fill="#0000ff" /></a><g transform="translate(87.177515,34.000000) rotate(-30)"><text style="font-size:10px;font-family:OpenSans;fill:#555;" text-anchor="middle" x="0" y="-6.000000">T114T</text></g><line x1="88.443787" x2="88.443787" y1="46.500000" y2="74.500000" stroke="#BABDB6" stroke-width="2"/><a xlink:title="V116M"><circle cx="88.443787" cy="46.500000" r="4.000000" fill="#ff0000" /></a><g transform="translate(88.443787,46.500000) rotate(-30)"><text style="font-size:10px;font-family:OpenSans;fill:#555;" text-anchor="middle" x="0" y="-6.000000">V116M</text></g><line x1="111.236686" x2="111.236686" y1="46.500000" y2="74.500000" stroke="#BABDB6" stroke-width="2"/><a xlink:title="S152R"><circle cx="111.236686" cy="46.500000" r="4.000000" fill="#ff0000" /></a><g transform="translate(111.236686,46.500000) rotate(-30)"><text style="font-size:10px;font-family:OpenSans;fill:#555;" text-anchor="middle" x="0" y="-6.000000">S152R</text></g><line x1="175.183432" x2="175.183432" y1="46.500000" y2="74.500000" stroke="#BABDB6" stroke-width="2"/><a xlink:title="P253P"><circle cx="175.183432" cy="46.500000" r="4.000000" fill="#0000ff" /></a><g transform="translate(175.183432,46.500000) rotate(-30)"><text style="font-size:10px;font-family:OpenSans;fill:#555;" text-anchor="middle" x="0" y="-6.000000">P253P</text></g><line x1="459.461538" x2="459.461538" y1="46.500000" y2="74.500000" stroke="#BABDB6" stroke-width="2"/><a xlink:title="R702W"><circle cx="459.461538" cy="46.500000" r="4.000000" fill="#ff0000" /></a><g transform="translate(459.461538,46.500000) rotate(-30)"><text style="font-size:10px;font-family:OpenSans;fill:#555;" text-anchor="middle" x="0" y="-6.000000">R702W</text></g><line x1="486.053254" x2="486.053254" y1="46.500000" y2="74.500000" stroke="#BABDB6" stroke-width="2"/><a xlink:title="H744R"><circle cx="486.053254" cy="46.500000" r="4.000000" fill="#ff0000" /></a><g transform="translate(486.053254,46.500000) rotate(-30)"><text style="font-size:10px;font-family:OpenSans;fill:#555;" text-anchor="middle" x="0" y="-6.000000">H744R</text></g><line x1="523.408284" x2="523.408284" y1="46.500000" y2="74.500000" stroke="#BABDB6" stroke-width="2"/><a xlink:title="R803Q"><circle cx="523.408284" cy="46.500000" r="4.000000" fill="#ff0000" /></a><g transform="translate(523.408284,46.500000) rotate(-30)"><text style="font-size:10px;font-family:OpenSans;fill:#555;" text-anchor="middle" x="0" y="-6.000000">R803Q</text></g><line x1="604.449704" x2="604.449704" y1="46.500000" y2="74.500000" stroke="#BABDB6" stroke-width="2"/><a xlink:title="A931A"><circle cx="604.449704" cy="46.500000" r="4.000000" fill="#0000ff" /></a><g transform="translate(604.449704,46.500000) rotate(-30)"><text style="font-size:10px;font-family:OpenSans;fill:#555;" text-anchor="middle" x="0" y="-6.000000">A931A</text></g><line x1="619.011834" x2="619.011834" y1="46.500000" y2="74.500000" stroke="#BABDB6" stroke-width="2"/><a xlink:title="P954P"><circle cx="619.011834" cy="46.500000" r="4.000000" fill="#0000ff" /></a><g transform="translate(619.011834,46.500000) rotate(-30)"><text style="font-size:10px;font-family:OpenSans;fill:#555;" text-anchor="middle" x="0" y="-6.000000">P954P</text></g><line x1="789.325444" x2="789.325444" y1="46.500000" y2="74.500000" stroke="#BABDB6" stroke-width="2"/><a xlink:title="R1223K"><circle cx="789.325444" cy="46.500000" r="4.000000" fill="#ff0000" /></a><g transform="translate(789.325444,46.500000) rotate(-30)"><text style="font-size:10px;font-family:OpenSans;fill:#555;" text-anchor="middle" x="0" y="-6.000000">R1223K</text></g><line x1="938.745562" x2="938.745562" y1="46.500000" y2="74.500000" stroke="#BABDB6" stroke-width="2"/><a xlink:title="G1459R"><circle cx="938.745562" cy="46.500000" r="4.000000" fill="#ff0000" /></a><g transform="translate(938.745562,46.500000) rotate(-30)"><text style="font-size:10px;font-family:OpenSans;fill:#555;" text-anchor="middle" x="0" y="-6.000000">G1459R</text></g><line x1="983.065089" x2="983.065089" y1="34.000000" y2="74.500000" stroke="#BABDB6" stroke-width="2"/><a xlink:title="T1529T"><circle cx="983.065089" cy="34.000000" r="4.000000" fill="#0000ff" /></a><g transform="translate(983.065089,34.000000) rotate(-30)"><text style="font-size:10px;font-family:OpenSans;fill:#555;" text-anchor="middle" x="0" y="-6.000000">T1529T</text></g><line x1="984.331361" x2="984.331361" y1="46.500000" y2="74.500000" stroke="#BABDB6" stroke-width="2"/><a xlink:title="V1531M"><circle cx="984.331361" cy="46.500000" r="4.000000" fill="#ff0000" /></a><g transform="translate(984.331361,46.500000) rotate(-30)"><text style="font-size:10px;font-family:OpenSans;fill:#555;" text-anchor="middle" x="0" y="-6.000000">V1531M</text></g><a xlink:title=",  (1806aa)"><rect fill="#BABDB6" x="15.000000" y="74.500000" width="1143.443787" height="14.000000"/></a><g transform="translate(1045.745562,69.500000)"><a xlink:href="https://www.ebi.ac.uk/interpro/entry/pfam/PF15327" xlink:title="Tankyrase binding protein C terminal domain"><rect fill="#2DCF00" x="0" y="0" width="107.000000" height="24.000000" filter="url(#ds)"/><text style="font-size:12px;font-family:OpenSans;fill:#ffffff;" text-anchor="middle" x="53.500000" y="16.000000">Tankyrase_bdg_C</text></a></g>
<g class="axis">
<line x1="15.000000" x2="1158.443787" y1="103.500000" y2="103.500000" stroke="#AAAAAA" /><line x1="15.000000" x2="15.000000" y1="103.500000" y2="108.500000" stroke="#AAAAAA" /><line x1="15.000000" x2="15.000000" y1="103.500000" y2="108.500000" stroke="#AAAAAA" /><text style="font-size:10px;font-family:OpenSans;fill:#000000;" text-anchor="middle" x="15.000000" y="118.500000">0</text><line x1="37.792899" x2="37.792899" y1="103.500000" y2="108.500000" stroke="#AAAAAA" /><text style="font-size:10px;font-family:OpenSans;fill:#000000;" text-anchor="middle" x="37.792899" y="118.500000">36</text><line x1="87.177515" x2="87.177515" y1="103.500000" y2="108.500000" stroke="#AAAAAA" /><text style="font-size:10px;font-family:OpenSans;fill:#000000;" text-anchor="middle" x="87.177515" y="118.500000">114</text><line x1="111.236686" x2="111.236686" y1="103.500000" y2="108.500000" stroke="#AAAAAA" /><text style="font-size:10px;font-family:OpenSans;fill:#000000;" text-anchor="middle" x="111.236686" y="118.500000">152</text><line x1="175.183432" x2="175.183432" y1="103.500000" y2="108.500000" stroke="#AAAAAA" /><text style="font-size:10px;font-family:OpenSans;fill:#000000;" text-anchor="middle" x="175.183432" y="118.500000">253</text><line x1="459.461538" x2="459.461538" y1="103.500000" y2="108.500000" stroke="#AAAAAA" /><text style="font-size:10px;font-family:OpenSans;fill:#000000;" text-anchor="middle" x="459.461538" y="118.500000">702</text><line x1="486.053254" x2="486.053254" y1="103.500000" y2="108.500000" stroke="#AAAAAA" /><text style="font-size:10px;font-family:OpenSans;fill:#000000;" text-anchor="middle" x="486.053254" y="118.500000">744</text><line x1="523.408284" x2="523.408284" y1="103.500000" y2="108.500000" stroke="#AAAAAA" /><text style="font-size:10px;font-family:OpenSans;fill:#000000;" text-anchor="middle" x="523.408284" y="118.500000">803</text><line x1="604.449704" x2="604.449704" y1="103.500000" y2="108.500000" stroke="#AAAAAA" /><text style="font-size:10px;font-family:OpenSans;fill:#000000;" text-anchor="middle" x="604.449704" y="118.500000">931</text><line x1="789.325444" x2="789.325444" y1="103.500000" y2="108.500000" stroke="#AAAAAA" /><text style="font-size:10px;font-family:OpenSans;fill:#000000;" text-anchor="middle" x="789.325444" y="118.500000">1223</text><line x1="938.745562" x2="938.745562" y1="103.500000" y2="108.500000" stroke="#AAAAAA" /><text style="font-size:10px;font-family:OpenSans;fill:#000000;" text-anchor="middle" x="938.745562" y="118.500000">1459</text><line x1="983.065089" x2="983.065089" y1="103.500000" y2="108.500000" stroke="#AAAAAA" /><text style="font-size:10px;font-family:OpenSans;fill:#000000;" text-anchor="middle" x="983.065089" y="118.500000">1529</text><line x1="1045.745562" x2="1045.745562" y1="103.500000" y2="108.500000" stroke="#AAAAAA" /><text style="font-size:10px;font-family:OpenSans;fill:#000000;" text-anchor="middle" x="1045.745562" y="118.500000">1628</text><line x1="1158.443787" x2="1158.443787" y1="103.500000" y2="108.500000" stroke="#AAAAAA" /><text style="font-size:10px;font-family:OpenSans;fill:#000000;" text-anchor="middle" x="1158.443787" y="118.500000">1806</text></g>
<rect fill="#2DCF00" x="4" y="132.500000" width="12" height="12" filter="url(#ds)"/><text style="font-size:12px;font-family:OpenSans;fill:#000000;" text-anchor="start" x="20" y="144.500000">Tankyrase binding protein C terminal domain</text></svg>
