<?xml version='1.0'?>
<svg xmlns="http://www.w3.org/2000/svg" xmlns:xlink="http://www.w3.org/1999/xlink" width="698.630769" height="184.400000">
<defs>
  <filter id="ds" x="0" y="0">
    <feOffset in="SourceAlpha" dx="2" dy="2" />
    <feComponentTransfer><feFuncA type="linear" slope="0.2"/></feComponentTransfer>
    <feGaussianBlur result="blurOut" stdDeviation="1" />
    <feBlend in="SourceGraphic" in2="blurOut" mode="normal" />
  </filter>
  <pattern id="disordered-hatch" patternUnits="userSpaceOnUse" width="4" height="4">
    <path d="M-1,1 l2,-2 M0,4 l4,-4 M3,5 l2,-2" stroke="#000000" opacity="0.3" />
  </pattern>
</defs>
<line x1="608.492308" x2="608.492308" y1="46.500000" y2="87.000000" stroke="#BABDB6" stroke-width="2"/><a xlink:title="R1169Q"><circle cx="608.492308" cy="46.500000" r="4.000000" fill="#ff0000" /></a><g transform="translate(608.492308,46.500000) rotate(-30)"><text style="font-size:10px;font-family:OpenSans;fill:#555;" text-anchor="middle" x="0" y="-6.000000">R1169Q</text></g><line x1="614.076923" x2="614.076923" y1="46.500000" y2="87.000000" stroke="#BABDB6" stroke-width="2"/><a xlink:title="R1180Q"><circle cx="614.076923" cy="46.500000" r="4.000000" fill="#ff0000" /></a><g transform="translate(614.076923,46.500000) rotate(-30)"><text style="font-size:10px;font-family:OpenSans;fill:#555;" text-anchor="middle" x="0" y="-6.000000">R1180Q</text></g><line x1="619.661538" x2="619.661538" y1="59.000000" y2="87.000000" stroke="#BABDB6" stroke-width="2"/><a xlink:title="R1191Q"><circle cx="619.661538" cy="59.000000" r="4.000000" fill="#ff0000" /></a><g transform="translate(619.661538,59.000000) rotate(-30)"><text style="font-size:10px;font-family:OpenSans;fill:#555;" text-anchor="middle" x="0" y="-6.000000">R1191Q</text></g><line x1="629.307692" x2="629.307692" y1="34.000000" y2="87.000000" stroke="#BABDB6" stroke-width="2"/><a xlink:title="R1210Q"><circle cx="629.307692" cy="34.000000" r="4.000000" fill="#ff0000" /></a><g transform="translate(629.307692,34.000000) rotate(-30)"><text style="font-size:10px;font-family:OpenSans;fill:#555;" text-anchor="middle" x="0" y="-6.000000">R1210Q</text></g><line x1="634.384615" x2="634.384615" y1="34.000000" y2="87.000000" stroke="#BABDB6" stroke-width="2"/><a xlink:title="R1220Q"><circle cx="634.384615" cy="34.000000" r="4.000000" fill="#ff0000" /></a><g transform="translate(634.384615,34.000000) rotate(-30)"><text style="font-size:10px;font-family:OpenSans;fill:#555;" text-anchor="middle" x="0" y="-6.000000">R1220Q</text></g><line x1="634.892308" x2="634.892308" y1="46.500000" y2="87.000000" stroke="#BABDB6" stroke-width="2"/><a xlink:title="R1221Q"><circle cx="634.892308" cy="46.500000" r="4.000000" fill="#ff0000" /></a><g transform="translate(634.892308,46.500000) rotate(-30)"><text style="font-size:10px;font-family:OpenSans;fill:#555;" text-anchor="middle" x="0" y="-6.000000">R1221Q</text></g><line x1="639.969231" x2="639.969231" y1="46.500000" y2="87.000000" stroke="#BABDB6" stroke-width="2"/><a xlink:title="R1231Q"><circle cx="639.969231" cy="46.500000" r="4.000000" fill="#ff0000" /></a><g transform="translate(639.969231,46.500000) rotate(-30)"><text style="font-size:10px;font-family:OpenSans;fill:#555;" text-anchor="middle" x="0" y="-6.000000">R1231Q</text></g><line x1="645.553846" x2="645.553846" y1="59.000000" y2="87.000000" stroke="#BABDB6" stroke-width="2"/><a xlink:title="R1242Q"><circle cx="645.553846" cy="59.000000" r="4.000000" fill="#ff0000" /></a><g transform="translate(645.553846,59.000000) rotate(-30)"><text style="font-size:10px;font-family:OpenSans;fill:#555;" text-anchor="middle" x="0" y="-6.000000">R1242Q</text></g><line x1="655.200000" x2="655.200000" y1="46.500000" y2="87.000000" stroke="#BABDB6" stroke-width="2"/><a xlink:title="R1261Q"><circle cx="655.200000" cy="46.500000" r="4.000000" fill="#ff0000" /></a><g transform="translate(655.200000,46.500000) rotate(-30)"><text style="font-size:10px;font-family:OpenSans;fill:#555;" text-anchor="middle" x="0" y="-6.000000">R1261Q</text></g><line x1="660.784615" x2="660.784615" y1="59.000000" y2="87.000000" stroke="#BABDB6" stroke-width="2"/><a xlink:title="R1272Q"><circle cx="660.784615" cy="59.000000" r="4.000000" fill="#ff0000" /></a><g transform="translate(660.784615,59.000000) rotate(-30)"><text style="font-size:10px;font-family:OpenSans;fill:#555;" text-anchor="middle" x="0" y="-6.000000">R1272Q</text></g><line x1="688.707692" x2="688.707692" y1="59.000000" y2="87.000000" stroke="#BABDB6" stroke-width="2"/><a xlink:title="V1327G"><circle cx="688.707692" cy="59.000000" r="4.000000" fill="#ff0000" /></a><g transform="translate(688.707692,59.000000) rotate(-30)"><text style="font-size:10px;font-family:OpenSans;fill:#555;" text-anchor="middle" x="0" y="-6.000000">V1327G</text></g><line x1="906.507692" x2="906.507692" y1="46.500000" y2="87.000000" stroke="#BABDB6" stroke-width="2"/><a xlink:title="V1756G"><circle cx="906.507692" cy="46.500000" r="4.000000" fill="#ff0000" /></a><g transform="translate(906.507692,46.500000) rotate(-30)"><text style="font-size:10px;font-family:OpenSans;fill:#555;" text-anchor="middle" x="0" y="-6.000000">V1756G</text></g><line x1="912.092308" x2="912.092308" y1="59.000000" y2="87.000000" stroke="#BABDB6" stroke-width="2"/><a xlink:title="V1767G"><circle cx="912.092308" cy="59.000000" r="4.000000" fill="#ff0000" /></a><g transform="translate(912.092308,59.000000) rotate(-30)"><text style="font-size:10px;font-family:OpenSans;fill:#555;" text-anchor="middle" x="0" y="-6.000000">V1767G</text></g><line x1="932.400000" x2="932.400000" y1="46.500000" y2="87.000000" stroke="#BABDB6" stroke-width="2"/><a xlink:title="V1807G"><circle cx="932.400000" cy="46.500000" r="4.000000" fill="#ff0000" /></a><g transform="translate(932.400000,46.500000) rotate(-30)"><text style="font-size:10px;font-family:OpenSans;fill:#555;" text-anchor="middle" x="0" y="-6.000000">V1807G</text></g><line x1="937.984615" x2="937.984615" y1="59.000000" y2="87.000000" stroke="#BABDB6" stroke-width="2"/><a xlink:title="V1818G"><circle cx="937.984615" cy="59.000000" r="4.000000" fill="#ff0000" /></a><g transform="translate(937.984615,59.000000) rotate(-30)"><text style="font-size:10px;font-family:OpenSans;fill:#555;" text-anchor="middle" x="0" y="-6.000000">V1818G</text></g><a xlink:title=",  (1317aa)"><rect fill="#BABDB6" x="15.000000" y="87.000000" width="668.630769" height="14.000000"/></a><g transform="translate(19.569231,82.000000)"><a xlink:href="https://www.ebi.ac.uk/interpro/entry/pfam/PF00225" xlink:title="Kinesin motor domain"><rect fill="#2DCF00" x="0" y="0" width="177.184615" height="24.000000" filter="url(#ds)"/><text style="font-size:12px;font-family:OpenSans;fill:#ffffff;" text-anchor="middle" x="88.592308" y="16.000000">Kinesin motor domain</text></a></g>
<g transform="translate(258.184615,82.000000)"><a xlink:href="https://www.ebi.ac.uk/interpro/entry/pfam/PF00498" xlink:title="FHA domain"><rect fill="#FF5353" x="0" y="0" width="33.000000" height="24.000000" filter="url(#ds)"/><text style="font-size:12px;font-family:OpenSans;fill:#ffffff;" text-anchor="middle" x="16.500000" y="16.000000">FHA</text></a></g>
<g transform="translate(630.830769,82.000000)"><a xlink:href="https://www.ebi.ac.uk/interpro/entry/pfam/PF00787" xlink:title="PX domain"><rect fill="#5B5BFF" x="0" y="0" width="29.953846" height="24.000000" filter="url(#ds)"/><text style="font-size:12px;font-family:OpenSans;fill:#ffffff;" text-anchor="middle" x="14.976923" y="16.000000">PX</text></a></g>
<g class="axis">
<line x1="15.000000" x2="683.630769" y1="116.000000" y2="116.000000" stroke="#AAAAAA" /><line x1="15.000000" x2="15.000000" y1="116.000000" y2="121.000000" stroke="#AAAAAA" /><line x1="19.569231" x2="19.569231" y1="116.000000" y2="121.000000" stroke="#AAAAAA" /><text style="font-size:10px;font-family:OpenSans;fill:#000000;" text-anchor="middle" x="19.569231" y="131.000000">9</text><line x1="196.753846" x2="196.753846" y1="116.000000" y2="121.000000" stroke="#AAAAAA" /><text style="font-size:10px;font-family:OpenSans;fill:#000000;" text-anchor="middle" x="196.753846" y="131.000000">358</text><line x1="258.184615" x2="258.184615" y1="116.000000" y2="121.000000" stroke="#AAAAAA" /><text style="font-size:10px;font-family:OpenSans;fill:#000000;" text-anchor="middle" x="258.184615" y="131.000000">479</text><line x1="291.184615" x2="291.184615" y1="116.000000" y2="121.000000" stroke="#AAAAAA" /><text style="font-size:10px;font-family:OpenSans;fill:#000000;" text-anchor="middle" x="291.184615" y="131.000000">544</text><line x1="608.492308" x2="608.492308" y1="116.000000" y2="121.000000" stroke="#AAAAAA" /><text style="font-size:10px;font-family:OpenSans;fill:#000000;" text-anchor="middle" x="608.492308" y="131.000000">1169</text><line x1="629.307692" x2="629.307692" y1="116.000000" y2="121.000000" stroke="#AAAAAA" /><text style="font-size:10px;font-family:OpenSans;fill:#000000;" text-anchor="middle" x="629.307692" y="131.000000">1210</text><line x1="655.200000" x2="655.200000" y1="116.000000" y2="121.000000" stroke="#AAAAAA" /><text style="font-size:10px;font-family:OpenSans;fill:#000000;" text-anchor="middle" x="655.200000" y="131.000000">1261</text><line x1="683.630769" x2="683.630769" y1="116.000000" y2="121.000000" stroke="#AAAAAA" /><text style="font-size:10px;font-family:OpenSans;fill:#000000;" text-anchor="middle" x="683.630769" y="131.000000">1317</text><line x1="906.507692" x2="906.507692" y1="116.000000" y2="121.000000" stroke="#AAAAAA" /><text style="font-size:10px;font-family:OpenSans;fill:#000000;" text-anchor="middle" x="906.507692" y="131.000000">1756</text><line x1="932.400000" x2="932.400000" y1="116.000000" y2="121.000000" stroke="#AAAAAA" /><text style="font-size:10px;font-family:OpenSans;fill:#000000;" text-anchor="middle" x="932.400000" y="131.000000">1807</text></g>
<rect fill="#FF5353" x="4" y="145.000000" width="12" height="12" filter="url(#ds)"/><text style="font-size:12px;font-family:OpenSans;fill:#000000;" text-anchor="start" x="20" y="157.000000">FHA domain</text><rect fill="#5B5BFF" x="4" y="159.000000" width="12" height="12" filter="url(#ds)"/><text style="font-size:12px;font-family:OpenSans;fill:#000000;" text-anchor="start" x="20" y="171.000000">PX domain</text></svg>
