<?xml version='1.0'?>
<svg xmlns="http://www.w3.org/2000/svg" xmlns:xlink="http://www.w3.org/1999/xlink" width="2107.913043" height="158.700000">
<defs>
  <filter id="ds" x="0" y="0">
    <feOffset in="SourceAlpha" dx="2" dy="2" />
    <feComponentTransfer><feFuncA type="linear" slope="0.2"/></feComponentTransfer>
    <feGaussianBlur result="blurOut" stdDeviation="1" />
    <feBlend in="SourceGraphic" in2="blurOut" mode="normal" />
  </filter>
  <pattern id="disordered-hatch" patternUnits="userSpaceOnUse" width="4" height="4">
    <path d="M-1,1 l2,-2 M0,4 l4,-4 M3,5 l2,-2" stroke="#000000" opacity="0.3" />
  </pattern>
</defs>
<line x1="99.478261" x2="99.478261" y1="46.500000" y2="74.500000" stroke="#BABDB6" stroke-width="2"/><a xlink:title="T67A"><circle cx="99.478261" cy="46.500000" r="4.000000" fill="#ff0000" /></a><g transform="translate(99.478261,46.500000) rotate(-30)"><text style="font-size:10px;font-family:OpenSans;fill:#555;" text-anchor="middle" x="0" y="-6.000000">T67A</text></g><line x1="274.739130" x2="274.739130" y1="46.500000" y2="74.500000" stroke="#BABDB6" stroke-width="2"/><a xlink:title="T206T"><circle cx="274.739130" cy="46.500000" r="4.000000" fill="#0000ff" /></a><g transform="translate(274.739130,46.500000) rotate(-30)"><text style="font-size:10px;font-family:OpenSans;fill:#555;" text-anchor="middle" x="0" y="-6.000000">T206T</text></g><line x1="282.304348" x2="282.304348" y1="46.500000" y2="74.500000" stroke="#BABDB6" stroke-width="2"/><a xlink:title="F212L"><circle cx="282.304348" cy="46.500000" r="4.000000" fill="#ff0000" /></a><g transform="translate(282.304348,46.500000) rotate(-30)"><text style="font-size:10px;font-family:OpenSans;fill:#555;" text-anchor="middle" x="0" y="-6.000000">F212L</text></g><line x1="302.478261" x2="302.478261" y1="46.500000" y2="74.500000" stroke="#BABDB6" stroke-width="2"/><a xlink:title="T228T"><circle cx="302.478261" cy="46.500000" r="4.000000" fill="#0000ff" /></a><g transform="translate(302.478261,46.500000) rotate(-30)"><text style="font-size:10px;font-family:OpenSans;fill:#555;" text-anchor="middle" x="0" y="-6.000000">T228T</text></g><line x1="310.043478" x2="310.043478" y1="46.500000" y2="74.500000" stroke="#BABDB6" stroke-width="2"/><a xlink:title="F234L"><circle cx="310.043478" cy="46.500000" r="4.000000" fill="#ff0000" /></a><g transform="translate(310.043478,46.500000) rotate(-30)"><text style="font-size:10px;font-family:OpenSans;fill:#555;" text-anchor="middle" x="0" y="-6.000000">F234L</text></g><line x1="356.695652" x2="356.695652" y1="46.500000" y2="74.500000" stroke="#BABDB6" stroke-width="2"/><a xlink:title="T271T"><circle cx="356.695652" cy="46.500000" r="4.000000" fill="#0000ff" /></a><g transform="translate(356.695652,46.500000) rotate(-30)"><text style="font-size:10px;font-family:OpenSans;fill:#555;" text-anchor="middle" x="0" y="-6.000000">T271T</text></g><line x1="364.260870" x2="364.260870" y1="34.000000" y2="74.500000" stroke="#BABDB6" stroke-width="2"/><a xlink:title="F277L"><circle cx="364.260870" cy="34.000000" r="4.000000" fill="#ff0000" /></a><g transform="translate(364.260870,34.000000) rotate(-30)"><text style="font-size:10px;font-family:OpenSans;fill:#555;" text-anchor="middle" x="0" y="-6.000000">F277L</text></g><line x1="369.304348" x2="369.304348" y1="46.500000" y2="74.500000" stroke="#BABDB6" stroke-width="2"/><a xlink:title="F281I"><circle cx="369.304348" cy="46.500000" r="4.000000" fill="#ff0000" /></a><g transform="translate(369.304348,46.500000) rotate(-30)"><text style="font-size:10px;font-family:OpenSans;fill:#555;" text-anchor="middle" x="0" y="-6.000000">F281I</text></g><line x1="397.043478" x2="397.043478" y1="46.500000" y2="74.500000" stroke="#BABDB6" stroke-width="2"/><a xlink:title="F303I"><circle cx="397.043478" cy="46.500000" r="4.000000" fill="#ff0000" /></a><g transform="translate(397.043478,46.500000) rotate(-30)"><text style="font-size:10px;font-family:OpenSans;fill:#555;" text-anchor="middle" x="0" y="-6.000000">F303I</text></g><line x1="423.521739" x2="423.521739" y1="46.500000" y2="74.500000" stroke="#BABDB6" stroke-width="2"/><a xlink:title="T324T"><circle cx="423.521739" cy="46.500000" r="4.000000" fill="#0000ff" /></a><g transform="translate(423.521739,46.500000) rotate(-30)"><text style="font-size:10px;font-family:OpenSans;fill:#555;" text-anchor="middle" x="0" y="-6.000000">T324T</text></g><line x1="431.086957" x2="431.086957" y1="46.500000" y2="74.500000" stroke="#BABDB6" stroke-width="2"/><a xlink:title="F330L"><circle cx="431.086957" cy="46.500000" r="4.000000" fill="#ff0000" /></a><g transform="translate(431.086957,46.500000) rotate(-30)"><text style="font-size:10px;font-family:OpenSans;fill:#555;" text-anchor="middle" x="0" y="-6.000000">F330L</text></g><line x1="451.260870" x2="451.260870" y1="46.500000" y2="74.500000" stroke="#BABDB6" stroke-width="2"/><a xlink:title="F346I"><circle cx="451.260870" cy="46.500000" r="4.000000" fill="#ff0000" /></a><g transform="translate(451.260870,46.500000) rotate(-30)"><text style="font-size:10px;font-family:OpenSans;fill:#555;" text-anchor="middle" x="0" y="-6.000000">F346I</text></g><line x1="458.826087" x2="458.826087" y1="46.500000" y2="74.500000" stroke="#BABDB6" stroke-width="2"/><a xlink:title="T352T"><circle cx="458.826087" cy="46.500000" r="4.000000" fill="#0000ff" /></a><g transform="translate(458.826087,46.500000) rotate(-30)"><text style="font-size:10px;font-family:OpenSans;fill:#555;" text-anchor="middle" x="0" y="-6.000000">T352T</text></g><line x1="466.391304" x2="466.391304" y1="46.500000" y2="74.500000" stroke="#BABDB6" stroke-width="2"/><a xlink:title="F358L"><circle cx="466.391304" cy="46.500000" r="4.000000" fill="#ff0000" /></a><g transform="translate(466.391304,46.500000) rotate(-30)"><text style="font-size:10px;font-family:OpenSans;fill:#555;" text-anchor="middle" x="0" y="-6.000000">F358L</text></g><line x1="477.739130" x2="477.739130" y1="34.000000" y2="74.500000" stroke="#BABDB6" stroke-width="2"/><a xlink:title="T367T"><circle cx="477.739130" cy="34.000000" r="4.000000" fill="#0000ff" /></a><g transform="translate(477.739130,34.000000) rotate(-30)"><text style="font-size:10px;font-family:OpenSans;fill:#555;" text-anchor="middle" x="0" y="-6.000000">T367T</text></g><line x1="480.260870" x2="480.260870" y1="34.000000" y2="74.500000" stroke="#BABDB6" stroke-width="2"/><a xlink:title="T369A"><circle cx="480.260870" cy="34.000000" r="4.000000" fill="#ff0000" /></a><g transform="translate(480.260870,34.000000) rotate(-30)"><text style="font-size:10px;font-family:OpenSans;fill:#555;" text-anchor="middle" x="0" y="-6.000000">T369A</text></g><line x1="485.304348" x2="485.304348" y1="46.500000" y2="74.500000" stroke="#BABDB6" stroke-width="2"/><a xlink:title="F373L"><circle cx="485.304348" cy="46.500000" r="4.000000" fill="#ff0000" /></a><g transform="translate(485.304348,46.500000) rotate(-30)"><text style="font-size:10px;font-family:OpenSans;fill:#555;" text-anchor="middle" x="0" y="-6.000000">F373L</text></g><line x1="508.000000" x2="508.000000" y1="34.000000" y2="74.500000" stroke="#BABDB6" stroke-width="2"/><a xlink:title="T391A"><circle cx="508.000000" cy="34.000000" r="4.000000" fill="#ff0000" /></a><g transform="translate(508.000000,34.000000) rotate(-30)"><text style="font-size:10px;font-family:OpenSans;fill:#555;" text-anchor="middle" x="0" y="-6.000000">T391A</text></g><line x1="513.043478" x2="513.043478" y1="34.000000" y2="74.500000" stroke="#BABDB6" stroke-width="2"/><a xlink:title="T395T"><circle cx="513.043478" cy="34.000000" r="4.000000" fill="#0000ff" /></a><g transform="translate(513.043478,34.000000) rotate(-30)"><text style="font-size:10px;font-family:OpenSans;fill:#555;" text-anchor="middle" x="0" y="-6.000000">T395T</text></g><line x1="518.086957" x2="518.086957" y1="34.000000" y2="74.500000" stroke="#BABDB6" stroke-width="2"/><a xlink:title="F399I"><circle cx="518.086957" cy="34.000000" r="4.000000" fill="#ff0000" /></a><g transform="translate(518.086957,34.000000) rotate(-30)"><text style="font-size:10px;font-family:OpenSans;fill:#555;" text-anchor="middle" x="0" y="-6.000000">F399I</text></g><line x1="520.608696" x2="520.608696" y1="46.500000" y2="74.500000" stroke="#BABDB6" stroke-width="2"/><a xlink:title="F401L"><circle cx="520.608696" cy="46.500000" r="4.000000" fill="#ff0000" /></a><g transform="translate(520.608696,46.500000) rotate(-30)"><text style="font-size:10px;font-family:OpenSans;fill:#555;" text-anchor="middle" x="0" y="-6.000000">F401L</text></g><line x1="553.391304" x2="553.391304" y1="46.500000" y2="74.500000" stroke="#BABDB6" stroke-width="2"/><a xlink:title="F427I"><circle cx="553.391304" cy="46.500000" r="4.000000" fill="#ff0000" /></a><g transform="translate(553.391304,46.500000) rotate(-30)"><text style="font-size:10px;font-family:OpenSans;fill:#555;" text-anchor="middle" x="0" y="-6.000000">F427I</text></g><line x1="562.217391" x2="562.217391" y1="46.500000" y2="74.500000" stroke="#BABDB6" stroke-width="2"/><a xlink:title="T434A"><circle cx="562.217391" cy="46.500000" r="4.000000" fill="#ff0000" /></a><g transform="translate(562.217391,46.500000) rotate(-30)"><text style="font-size:10px;font-family:OpenSans;fill:#555;" text-anchor="middle" x="0" y="-6.000000">T434A</text></g><line x1="572.304348" x2="572.304348" y1="46.500000" y2="74.500000" stroke="#BABDB6" stroke-width="2"/><a xlink:title="F442I"><circle cx="572.304348" cy="46.500000" r="4.000000" fill="#ff0000" /></a><g transform="translate(572.304348,46.500000) rotate(-30)"><text style="font-size:10px;font-family:OpenSans;fill:#555;" text-anchor="middle" x="0" y="-6.000000">F442I</text></g><line x1="607.608696" x2="607.608696" y1="46.500000" y2="74.500000" stroke="#BABDB6" stroke-width="2"/><a xlink:title="F470I"><circle cx="607.608696" cy="46.500000" r="4.000000" fill="#ff0000" /></a><g transform="translate(607.608696,46.500000) rotate(-30)"><text style="font-size:10px;font-family:OpenSans;fill:#555;" text-anchor="middle" x="0" y="-6.000000">F470I</text></g><line x1="629.043478" x2="629.043478" y1="46.500000" y2="74.500000" stroke="#BABDB6" stroke-width="2"/><a xlink:title="T487A"><circle cx="629.043478" cy="46.500000" r="4.000000" fill="#ff0000" /></a><g transform="translate(629.043478,46.500000) rotate(-30)"><text style="font-size:10px;font-family:OpenSans;fill:#555;" text-anchor="middle" x="0" y="-6.000000">T487A</text></g><line x1="664.347826" x2="664.347826" y1="46.500000" y2="74.500000" stroke="#BABDB6" stroke-width="2"/><a xlink:title="T515A"><circle cx="664.347826" cy="46.500000" r="4.000000" fill="#ff0000" /></a><g transform="translate(664.347826,46.500000) rotate(-30)"><text style="font-size:10px;font-family:OpenSans;fill:#555;" text-anchor="middle" x="0" y="-6.000000">T515A</text></g><line x1="683.260870" x2="683.260870" y1="46.500000" y2="74.500000" stroke="#BABDB6" stroke-width="2"/><a xlink:title="T530A"><circle cx="683.260870" cy="46.500000" r="4.000000" fill="#ff0000" /></a><g transform="translate(683.260870,46.500000) rotate(-30)"><text style="font-size:10px;font-family:OpenSans;fill:#555;" text-anchor="middle" x="0" y="-6.000000">T530A</text></g><line x1="718.565217" x2="718.565217" y1="46.500000" y2="74.500000" stroke="#BABDB6" stroke-width="2"/><a xlink:title="T558A"><circle cx="718.565217" cy="46.500000" r="4.000000" fill="#ff0000" /></a><g transform="translate(718.565217,46.500000) rotate(-30)"><text style="font-size:10px;font-family:OpenSans;fill:#555;" text-anchor="middle" x="0" y="-6.000000">T558A</text></g><a xlink:title=",  (1648aa)"><rect fill="#BABDB6" x="15.000000" y="74.500000" width="2077.913043" height="14.000000"/></a><g transform="translate(473.956522,69.500000)"><a xlink:href="https://www.ebi.ac.uk/interpro/entry/pfam/PF00225" xlink:title="Kinesin motor domain"><rect fill="#2DCF00" x="0" y="0" width="424.913043" height="24.000000" filter="url(#ds)"/><text style="font-size:12px;font-family:OpenSans;fill:#ffffff;" text-anchor="middle" x="212.456522" y="16.000000">Kinesin motor domain</text></a></g>
<g transform="translate(965.695652,69.500000)"><a xlink:href="https://www.ebi.ac.uk/interpro/entry/pfam/PF16183" xlink:title="Kinesin-associated"><rect fill="#FF5353" x="0" y="0" width="87.000000" height="24.000000" filter="url(#ds)"/><text style="font-size:12px;font-family:OpenSans;fill:#ffffff;" text-anchor="middle" x="43.500000" y="16.000000">Kinesin_assoc</text></a></g>
<g transform="translate(1056.478261,69.500000)"><a xlink:href="https://www.ebi.ac.uk/interpro/entry/pfam/PF00498" xlink:title="FHA domain"><rect fill="#5B5BFF" x="0" y="0" width="81.956522" height="24.000000" filter="url(#ds)"/><text style="font-size:12px;font-family:OpenSans;fill:#ffffff;" text-anchor="middle" x="40.978261" y="16.000000">FHA domain</text></a></g>
<g class="axis">
<line x1="15.000000" x2="2092.913043" y1="103.500000" y2="103.500000" stroke="#AAAAAA" /><line x1="15.000000" x2="15.000000" y1="103.500000" y2="108.500000" stroke="#AAAAAA" /><line x1="15.000000" x2="15.000000" y1="103.500000" y2="108.500000" stroke="#AAAAAA" /><text style="font-size:10px;font-family:OpenSans;fill:#000000;" text-anchor="middle" x="15.000000" y="118.500000">0</text><line x1="99.478261" x2="99.478261" y1="103.500000" y2="108.500000" stroke="#AAAAAA" /><text style="font-size:10px;font-family:OpenSans;fill:#000000;" text-anchor="middle" x="99.478261" y="118.500000">67</text><line x1="274.739130" x2="274.739130" y1="103.500000" y2="108.500000" stroke="#AAAAAA" /><text style="font-size:10px;font-family:OpenSans;fill:#000000;" text-anchor="middle" x="274.739130" y="118.500000">206</text><line x1="302.478261" x2="302.478261" y1="103.500000" y2="108.500000" stroke="#AAAAAA" /><text style="font-size:10px;font-family:OpenSans;fill:#000000;" text-anchor="middle" x="302.478261" y="118.500000">228</text><line x1="356.695652" x2="356.695652" y1="103.500000" y2="108.500000" stroke="#AAAAAA" /><text style="font-size:10px;font-family:OpenSans;fill:#000000;" text-anchor="middle" x="356.695652" y="118.500000">271</text><line x1="397.043478" x2="397.043478" y1="103.500000" y2="108.500000" stroke="#AAAAAA" /><text style="font-size:10px;font-family:OpenSans;fill:#000000;" text-anchor="middle" x="397.043478" y="118.500000">303</text><line x1="423.521739" x2="423.521739" y1="103.500000" y2="108.500000" stroke="#AAAAAA" /><text style="font-size:10px;font-family:OpenSans;fill:#000000;" text-anchor="middle" x="423.521739" y="118.500000">324</text><line x1="451.260870" x2="451.260870" y1="103.500000" y2="108.500000" stroke="#AAAAAA" /><text style="font-size:10px;font-family:OpenSans;fill:#000000;" text-anchor="middle" x="451.260870" y="118.500000">346</text><line x1="477.739130" x2="477.739130" y1="103.500000" y2="108.500000" stroke="#AAAAAA" /><text style="font-size:10px;font-family:OpenSans;fill:#000000;" text-anchor="middle" x="477.739130" y="118.500000">367</text><line x1="508.000000" x2="508.000000" y1="103.500000" y2="108.500000" stroke="#AAAAAA" /><text style="font-size:10px;font-family:OpenSans;fill:#000000;" text-anchor="middle" x="508.000000" y="118.500000">391</text><line x1="553.391304" x2="553.391304" y1="103.500000" y2="108.500000" stroke="#AAAAAA" /><text style="font-size:10px;font-family:OpenSans;fill:#000000;" text-anchor="middle" x="553.391304" y="118.500000">427</text><line x1="572.304348" x2="572.304348" y1="103.500000" y2="108.500000" stroke="#AAAAAA" /><text style="font-size:10px;font-family:OpenSans;fill:#000000;" text-anchor="middle" x="572.304348" y="118.500000">442</text><line x1="607.608696" x2="607.608696" y1="103.500000" y2="108.500000" stroke="#AAAAAA" /><text style="font-size:10px;font-family:OpenSans;fill:#000000;" text-anchor="middle" x="607.608696" y="118.500000">470</text><line x1="629.043478" x2="629.043478" y1="103.500000" y2="108.500000" stroke="#AAAAAA" /><text style="font-size:10px;font-family:OpenSans;fill:#000000;" text-anchor="middle" x="629.043478" y="118.500000">487</text><line x1="664.347826" x2="664.347826" y1="103.500000" y2="108.500000" stroke="#AAAAAA" /><text style="font-size:10px;font-family:OpenSans;fill:#000000;" text-anchor="middle" x="664.347826" y="118.500000">515</text><line x1="683.260870" x2="683.260870" y1="103.500000" y2="108.500000" stroke="#AAAAAA" /><text style="font-size:10px;font-family:OpenSans;fill:#000000;" text-anchor="middle" x="683.260870" y="118.500000">530</text><line x1="718.565217" x2="718.565217" y1="103.500000" y2="108.500000" stroke="#AAAAAA" /><text style="font-size:10px;font-family:OpenSans;fill:#000000;" text-anchor="middle" x="718.565217" y="118.500000">558</text><line x1="898.869565" x2="898.869565" y1="103.500000" y2="108.500000" stroke="#AAAAAA" /><text style="font-size:10px;font-family:OpenSans;fill:#000000;" text-anchor="middle" x="898.869565" y="118.500000">701</text><line x1="965.695652" x2="965.695652" y1="103.500000" y2="108.500000" stroke="#AAAAAA" /><text style="font-size:10px;font-family:OpenSans;fill:#000000;" text-anchor="middle" x="965.695652" y="118.500000">754</text><line x1="1052.695652" x2="1052.695652" y1="103.500000" y2="108.500000" stroke="#AAAAAA" /><text style="font-size:10px;font-family:OpenSans;fill:#000000;" text-anchor="middle" x="1052.695652" y="118.500000">823</text><line x1="1138.434783" x2="1138.434783" y1="103.500000" y2="108.500000" stroke="#AAAAAA" /><text style="font-size:10px;font-family:OpenSans;fill:#000000;" text-anchor="middle" x="1138.434783" y="118.500000">891</text><line x1="2092.913043" x2="2092.913043" y1="103.500000" y2="108.500000" stroke="#AAAAAA" /><text style="font-size:10px;font-family:OpenSans;fill:#000000;" text-anchor="middle" x="2092.913043" y="118.500000">1648</text></g>
<rect fill="#FF5353" x="4" y="132.500000" width="12" height="12" filter="url(#ds)"/><text style="font-size:12px;font-family:OpenSans;fill:#000000;" text-anchor="start" x="20" y="144.500000">Kinesin-associated</text></svg>
