<?xml version='1.0'?>
<svg xmlns="http://www.w3.org/2000/svg" xmlns:xlink="http://www.w3.org/1999/xlink" width="951.980198" height="158.700000">
<defs>
  <filter id="ds" x="0" y="0">
    <feOffset in="SourceAlpha" dx="2" dy="2" />
    <feComponentTransfer><feFuncA type="linear" slope="0.2"/></feComponentTransfer>
    <feGaussianBlur result="blurOut" stdDeviation="1" />
    <feBlend in="SourceGraphic" in2="blurOut" mode="normal" />
  </filter>
  <pattern id="disordered-hatch" patternUnits="userSpaceOnUse" width="4" height="4">
    <path d="M-1,1 l2,-2 M0,4 l4,-4 M3,5 l2,-2" stroke="#000000" opacity="0.3" />
  </pattern>
</defs>
<line x1="49.574257" x2="49.574257" y1="46.500000" y2="74.500000" stroke="#BABDB6" stroke-width="2"/><a xlink:title="G36G"><circle cx="49.574257" cy="46.500000" r="4.000000" fill="#0000ff" /></a><g transform="translate(49.574257,46.500000) rotate(-30)"><text style="font-size:10px;font-family:OpenSans;fill:#555;" text-anchor="middle" x="0" y="-6.000000">G36G</text></g><line x1="301.198020" x2="301.198020" y1="34.000000" y2="74.500000" stroke="#BABDB6" stroke-width="2"/><a xlink:title="R298Q"><circle cx="301.198020" cy="34.000000" r="4.000000" fill="#ff0000" /></a><g transform="translate(301.198020,34.000000) rotate(-30)"><text style="font-size:10px;font-family:OpenSans;fill:#555;" text-anchor="middle" x="0" y="-6.000000">R298Q</text></g><line x1="304.079208" x2="304.079208" y1="46.500000" y2="74.500000" stroke="#BABDB6" stroke-width="2"/><a xlink:title="R301Q"><circle cx="304.079208" cy="46.500000" r="4.000000" fill="#ff0000" /></a><g transform="translate(304.079208,46.500000) rotate(-30)"><text style="font-size:10px;font-family:OpenSans;fill:#555;" text-anchor="middle" x="0" y="-6.000000">R301Q</text></g><line x1="314.643564" x2="314.643564" y1="46.500000" y2="74.500000" stroke="#BABDB6" stroke-width="2"/><a xlink:title="R312Q"><circle cx="314.643564" cy="46.500000" r="4.000000" fill="#ff0000" /></a><g transform="translate(314.643564,46.500000) rotate(-30)"><text style="font-size:10px;font-family:OpenSans;fill:#555;" text-anchor="middle" x="0" y="-6.000000">R312Q</text></g><line x1="333.851485" x2="333.851485" y1="34.000000" y2="74.500000" stroke="#BABDB6" stroke-width="2"/><a xlink:title="V332V"><circle cx="333.851485" cy="34.000000" r="4.000000" fill="#0000ff" /></a><g transform="translate(333.851485,34.000000) rotate(-30)"><text style="font-size:10px;font-family:OpenSans;fill:#555;" text-anchor="middle" x="0" y="-6.000000">V332V</text></g><line x1="336.732673" x2="336.732673" y1="46.500000" y2="74.500000" stroke="#BABDB6" stroke-width="2"/><a xlink:title="V335V"><circle cx="336.732673" cy="46.500000" r="4.000000" fill="#0000ff" /></a><g transform="translate(336.732673,46.500000) rotate(-30)"><text style="font-size:10px;font-family:OpenSans;fill:#555;" text-anchor="middle" x="0" y="-6.000000">V335V</text></g><line x1="347.297030" x2="347.297030" y1="46.500000" y2="74.500000" stroke="#BABDB6" stroke-width="2"/><a xlink:title="V346V"><circle cx="347.297030" cy="46.500000" r="4.000000" fill="#0000ff" /></a><g transform="translate(347.297030,46.500000) rotate(-30)"><text style="font-size:10px;font-family:OpenSans;fill:#555;" text-anchor="middle" x="0" y="-6.000000">V346V</text></g><line x1="371.306931" x2="371.306931" y1="34.000000" y2="74.500000" stroke="#BABDB6" stroke-width="2"/><a xlink:title="P371P"><circle cx="371.306931" cy="34.000000" r="4.000000" fill="#0000ff" /></a><g transform="translate(371.306931,34.000000) rotate(-30)"><text style="font-size:10px;font-family:OpenSans;fill:#555;" text-anchor="middle" x="0" y="-6.000000">P371P</text></g><line x1="374.188119" x2="374.188119" y1="46.500000" y2="74.500000" stroke="#BABDB6" stroke-width="2"/><a xlink:title="P374P"><circle cx="374.188119" cy="46.500000" r="4.000000" fill="#0000ff" /></a><g transform="translate(374.188119,46.500000) rotate(-30)"><text style="font-size:10px;font-family:OpenSans;fill:#555;" text-anchor="middle" x="0" y="-6.000000">P374P</text></g><line x1="384.752475" x2="384.752475" y1="46.500000" y2="74.500000" stroke="#BABDB6" stroke-width="2"/><a xlink:title="P385P"><circle cx="384.752475" cy="46.500000" r="4.000000" fill="#0000ff" /></a><g transform="translate(384.752475,46.500000) rotate(-30)"><text style="font-size:10px;font-family:OpenSans;fill:#555;" text-anchor="middle" x="0" y="-6.000000">P385P</text></g><line x1="406.841584" x2="406.841584" y1="46.500000" y2="74.500000" stroke="#BABDB6" stroke-width="2"/><a xlink:title="R408Q"><circle cx="406.841584" cy="46.500000" r="4.000000" fill="#ff0000" /></a><g transform="translate(406.841584,46.500000) rotate(-30)"><text style="font-size:10px;font-family:OpenSans;fill:#555;" text-anchor="middle" x="0" y="-6.000000">R408Q</text></g><line x1="420.287129" x2="420.287129" y1="46.500000" y2="74.500000" stroke="#BABDB6" stroke-width="2"/><a xlink:title="R422Q"><circle cx="420.287129" cy="46.500000" r="4.000000" fill="#ff0000" /></a><g transform="translate(420.287129,46.500000) rotate(-30)"><text style="font-size:10px;font-family:OpenSans;fill:#555;" text-anchor="middle" x="0" y="-6.000000">R422Q</text></g><line x1="439.495050" x2="439.495050" y1="46.500000" y2="74.500000" stroke="#BABDB6" stroke-width="2"/><a xlink:title="V442V"><circle cx="439.495050" cy="46.500000" r="4.000000" fill="#0000ff" /></a><g transform="translate(439.495050,46.500000) rotate(-30)"><text style="font-size:10px;font-family:OpenSans;fill:#555;" text-anchor="middle" x="0" y="-6.000000">V442V</text></g><line x1="452.940594" x2="452.940594" y1="46.500000" y2="74.500000" stroke="#BABDB6" stroke-width="2"/><a xlink:title="V456V"><circle cx="452.940594" cy="46.500000" r="4.000000" fill="#0000ff" /></a><g transform="translate(452.940594,46.500000) rotate(-30)"><text style="font-size:10px;font-family:OpenSans;fill:#555;" text-anchor="middle" x="0" y="-6.000000">V456V</text></g><line x1="476.950495" x2="476.950495" y1="46.500000" y2="74.500000" stroke="#BABDB6" stroke-width="2"/><a xlink:title="P481P"><circle cx="476.950495" cy="46.500000" r="4.000000" fill="#0000ff" /></a><g transform="translate(476.950495,46.500000) rotate(-30)"><text style="font-size:10px;font-family:OpenSans;fill:#555;" text-anchor="middle" x="0" y="-6.000000">P481P</text></g><line x1="490.396040" x2="490.396040" y1="46.500000" y2="74.500000" stroke="#BABDB6" stroke-width="2"/><a xlink:title="P495P"><circle cx="490.396040" cy="46.500000" r="4.000000" fill="#0000ff" /></a><g transform="translate(490.396040,46.500000) rotate(-30)"><text style="font-size:10px;font-family:OpenSans;fill:#555;" text-anchor="middle" x="0" y="-6.000000">P495P</text></g><line x1="542.257426" x2="542.257426" y1="34.000000" y2="74.500000" stroke="#BABDB6" stroke-width="2"/><a xlink:title="T549T"><circle cx="542.257426" cy="34.000000" r="4.000000" fill="#0000ff" /></a><g transform="translate(542.257426,34.000000) rotate(-30)"><text style="font-size:10px;font-family:OpenSans;fill:#555;" text-anchor="middle" x="0" y="-6.000000">T549T</text></g><line x1="545.138614" x2="545.138614" y1="46.500000" y2="74.500000" stroke="#BABDB6" stroke-width="2"/><a xlink:title="T552T"><circle cx="545.138614" cy="46.500000" r="4.000000" fill="#0000ff" /></a><g transform="translate(545.138614,46.500000) rotate(-30)"><text style="font-size:10px;font-family:OpenSans;fill:#555;" text-anchor="middle" x="0" y="-6.000000">T552T</text></g><line x1="555.702970" x2="555.702970" y1="46.500000" y2="74.500000" stroke="#BABDB6" stroke-width="2"/><a xlink:title="T563T"><circle cx="555.702970" cy="46.500000" r="4.000000" fill="#0000ff" /></a><g transform="translate(555.702970,46.500000) rotate(-30)"><text style="font-size:10px;font-family:OpenSans;fill:#555;" text-anchor="middle" x="0" y="-6.000000">T563T</text></g><line x1="647.900990" x2="647.900990" y1="46.500000" y2="74.500000" stroke="#BABDB6" stroke-width="2"/><a xlink:title="T659T"><circle cx="647.900990" cy="46.500000" r="4.000000" fill="#0000ff" /></a><g transform="translate(647.900990,46.500000) rotate(-30)"><text style="font-size:10px;font-family:OpenSans;fill:#555;" text-anchor="middle" x="0" y="-6.000000">T659T</text></g><line x1="661.346535" x2="661.346535" y1="46.500000" y2="74.500000" stroke="#BABDB6" stroke-width="2"/><a xlink:title="T673T"><circle cx="661.346535" cy="46.500000" r="4.000000" fill="#0000ff" /></a><g transform="translate(661.346535,46.500000) rotate(-30)"><text style="font-size:10px;font-family:OpenSans;fill:#555;" text-anchor="middle" x="0" y="-6.000000">T673T</text></g><a xlink:title=",  (960aa)"><rect fill="#BABDB6" x="15.000000" y="74.500000" width="921.980198" height="14.000000"/></a><g transform="translate(44.772277,69.500000)"><a xlink:href="https://www.ebi.ac.uk/interpro/entry/pfam/PF00225" xlink:title="Kinesin motor domain"><rect fill="#2DCF00" x="0" y="0" width="388.000000" height="24.000000" filter="url(#ds)"/><text style="font-size:12px;font-family:OpenSans;fill:#ffffff;" text-anchor="middle" x="194.000000" y="16.000000">Kinesin motor domain</text></a></g>
<g transform="translate(786.198020,69.500000)"><a xlink:href="https://www.ebi.ac.uk/interpro/entry/pfam/PF16540" xlink:title="Arf6-interacting domain of mitotic kinesin-like protein 1"><rect fill="#FF5353" x="0" y="0" width="97.000000" height="24.000000" filter="url(#ds)"/><text style="font-size:12px;font-family:OpenSans;fill:#ffffff;" text-anchor="middle" x="48.500000" y="16.000000">MKLP1_Arf_bdg</text></a></g>
<g class="axis">
<line x1="15.000000" x2="936.980198" y1="103.500000" y2="103.500000" stroke="#AAAAAA" /><line x1="15.000000" x2="15.000000" y1="103.500000" y2="108.500000" stroke="#AAAAAA" /><line x1="15.000000" x2="15.000000" y1="103.500000" y2="108.500000" stroke="#AAAAAA" /><text style="font-size:10px;font-family:OpenSans;fill:#000000;" text-anchor="middle" x="15.000000" y="118.500000">0</text><line x1="49.574257" x2="49.574257" y1="103.500000" y2="108.500000" stroke="#AAAAAA" /><text style="font-size:10px;font-family:OpenSans;fill:#000000;" text-anchor="middle" x="49.574257" y="118.500000">36</text><line x1="301.198020" x2="301.198020" y1="103.500000" y2="108.500000" stroke="#AAAAAA" /><text style="font-size:10px;font-family:OpenSans;fill:#000000;" text-anchor="middle" x="301.198020" y="118.500000">298</text><line x1="333.851485" x2="333.851485" y1="103.500000" y2="108.500000" stroke="#AAAAAA" /><text style="font-size:10px;font-family:OpenSans;fill:#000000;" text-anchor="middle" x="333.851485" y="118.500000">332</text><line x1="371.306931" x2="371.306931" y1="103.500000" y2="108.500000" stroke="#AAAAAA" /><text style="font-size:10px;font-family:OpenSans;fill:#000000;" text-anchor="middle" x="371.306931" y="118.500000">371</text><line x1="406.841584" x2="406.841584" y1="103.500000" y2="108.500000" stroke="#AAAAAA" /><text style="font-size:10px;font-family:OpenSans;fill:#000000;" text-anchor="middle" x="406.841584" y="118.500000">408</text><line x1="439.495050" x2="439.495050" y1="103.500000" y2="108.500000" stroke="#AAAAAA" /><text style="font-size:10px;font-family:OpenSans;fill:#000000;" text-anchor="middle" x="439.495050" y="118.500000">442</text><line x1="476.950495" x2="476.950495" y1="103.500000" y2="108.500000" stroke="#AAAAAA" /><text style="font-size:10px;font-family:OpenSans;fill:#000000;" text-anchor="middle" x="476.950495" y="118.500000">481</text><line x1="542.257426" x2="542.257426" y1="103.500000" y2="108.500000" stroke="#AAAAAA" /><text style="font-size:10px;font-family:OpenSans;fill:#000000;" text-anchor="middle" x="542.257426" y="118.500000">549</text><line x1="647.900990" x2="647.900990" y1="103.500000" y2="108.500000" stroke="#AAAAAA" /><text style="font-size:10px;font-family:OpenSans;fill:#000000;" text-anchor="middle" x="647.900990" y="118.500000">659</text><line x1="786.198020" x2="786.198020" y1="103.500000" y2="108.500000" stroke="#AAAAAA" /><text style="font-size:10px;font-family:OpenSans;fill:#000000;" text-anchor="middle" x="786.198020" y="118.500000">803</text><line x1="883.198020" x2="883.198020" y1="103.500000" y2="108.500000" stroke="#AAAAAA" /><text style="font-size:10px;font-family:OpenSans;fill:#000000;" text-anchor="middle" x="883.198020" y="118.500000">904</text><line x1="936.980198" x2="936.980198" y1="103.500000" y2="108.500000" stroke="#AAAAAA" /><text style="font-size:10px;font-family:OpenSans;fill:#000000;" text-anchor="middle" x="936.980198" y="118.500000">960</text></g>
<rect fill="#FF5353" x="4" y="132.500000" width="12" height="12" filter="url(#ds)"/><text style="font-size:12px;font-family:OpenSans;fill:#000000;" text-anchor="start" x="20" y="144.500000">Arf6-interacting domain of mitotic kinesin-like protein 1</text></svg>
