<?xml version='1.0'?>
<svg xmlns="http://www.w3.org/2000/svg" xmlns:xlink="http://www.w3.org/1999/xlink" width="430.000000" height="158.000000">
<defs>
  <filter id="ds" x="0" y="0">
    <feOffset in="SourceAlpha" dx="2" dy="2" />
    <feComponentTransfer><feFuncA type="linear" slope="0.2"/></feComponentTransfer>
    <feGaussianBlur result="blurOut" stdDeviation="1" />
    <feBlend in="SourceGraphic" in2="blurOut" mode="normal" />
  </filter>
  <pattern id="disordered-hatch" patternUnits="userSpaceOnUse" width="4" height="4">
    <path d="M-1,1 l2,-2 M0,4 l4,-4 M3,5 l2,-2" stroke="#000000" opacity="0.3" />
  </pattern>
</defs>
<line x1="129.285714" x2="129.285714" y1="59.000000" y2="87.000000" stroke="#BABDB6" stroke-width="2"/><a xlink:title="R150H"><circle cx="129.285714" cy="59.000000" r="4.000000" fill="#ff0000" /></a><g transform="translate(129.285714,59.000000) rotate(-30)"><text style="font-size:10px;font-family:OpenSans;fill:#555;" text-anchor="middle" x="0" y="-6.000000">R150H</text></g><line x1="139.952381" x2="139.952381" y1="46.500000" y2="87.000000" stroke="#BABDB6" stroke-width="2"/><a xlink:title="M164I"><circle cx="139.952381" cy="46.500000" r="4.000000" fill="#ff0000" /></a><g transform="translate(139.952381,46.500000) rotate(-30)"><text style="font-size:10px;font-family:OpenSans;fill:#555;" text-anchor="middle" x="0" y="-6.000000">M164I</text></g><line x1="143.761905" x2="143.761905" y1="59.000000" y2="87.000000" stroke="#BABDB6" stroke-width="2"/><a xlink:title="M169I"><circle cx="143.761905" cy="59.000000" r="4.000000" fill="#ff0000" /></a><g transform="translate(143.761905,59.000000) rotate(-30)"><text style="font-size:10px;font-family:OpenSans;fill:#555;" text-anchor="middle" x="0" y="-6.000000">M169I</text></g><line x1="213.857143" x2="213.857143" y1="34.000000" y2="87.000000" stroke="#BABDB6" stroke-width="2"/><a xlink:title="L261L"><circle cx="213.857143" cy="34.000000" r="4.000000" fill="#0000ff" /></a><g transform="translate(213.857143,34.000000) rotate(-30)"><text style="font-size:10px;font-family:OpenSans;fill:#555;" text-anchor="middle" x="0" y="-6.000000">L261L</text></g><line x1="217.666667" x2="217.666667" y1="46.500000" y2="87.000000" stroke="#BABDB6" stroke-width="2"/><a xlink:title="L266L"><circle cx="217.666667" cy="46.500000" r="4.000000" fill="#0000ff" /></a><g transform="translate(217.666667,46.500000) rotate(-30)"><text style="font-size:10px;font-family:OpenSans;fill:#555;" text-anchor="middle" x="0" y="-6.000000">L266L</text></g><line x1="218.428571" x2="218.428571" y1="59.000000" y2="87.000000" stroke="#BABDB6" stroke-width="2"/><a xlink:title="M267I"><circle cx="218.428571" cy="59.000000" r="4.000000" fill="#ff0000" /></a><g transform="translate(218.428571,59.000000) rotate(-30)"><text style="font-size:10px;font-family:OpenSans;fill:#555;" text-anchor="middle" x="0" y="-6.000000">M267I</text></g><line x1="263.380952" x2="263.380952" y1="46.500000" y2="87.000000" stroke="#BABDB6" stroke-width="2"/><a xlink:title="K326E"><circle cx="263.380952" cy="46.500000" r="4.000000" fill="#ff0000" /></a><g transform="translate(263.380952,46.500000) rotate(-30)"><text style="font-size:10px;font-family:OpenSans;fill:#555;" text-anchor="middle" x="0" y="-6.000000">K326E</text></g><line x1="267.190476" x2="267.190476" y1="46.500000" y2="87.000000" stroke="#BABDB6" stroke-width="2"/><a xlink:title="K331E"><circle cx="267.190476" cy="46.500000" r="4.000000" fill="#ff0000" /></a><g transform="translate(267.190476,46.500000) rotate(-30)"><text style="font-size:10px;font-family:OpenSans;fill:#555;" text-anchor="middle" x="0" y="-6.000000">K331E</text></g><line x1="269.476190" x2="269.476190" y1="46.500000" y2="87.000000" stroke="#BABDB6" stroke-width="2"/><a xlink:title="R334H"><circle cx="269.476190" cy="46.500000" r="4.000000" fill="#ff0000" /></a><g transform="translate(269.476190,46.500000) rotate(-30)"><text style="font-size:10px;font-family:OpenSans;fill:#555;" text-anchor="middle" x="0" y="-6.000000">R334H</text></g><line x1="273.285714" x2="273.285714" y1="46.500000" y2="87.000000" stroke="#BABDB6" stroke-width="2"/><a xlink:title="R339H"><circle cx="273.285714" cy="46.500000" r="4.000000" fill="#ff0000" /></a><g transform="translate(273.285714,46.500000) rotate(-30)"><text style="font-size:10px;font-family:OpenSans;fill:#555;" text-anchor="middle" x="0" y="-6.000000">R339H</text></g><line x1="277.095238" x2="277.095238" y1="46.500000" y2="87.000000" stroke="#BABDB6" stroke-width="2"/><a xlink:title="R344C"><circle cx="277.095238" cy="46.500000" r="4.000000" fill="#ff0000" /></a><g transform="translate(277.095238,46.500000) rotate(-30)"><text style="font-size:10px;font-family:OpenSans;fill:#555;" text-anchor="middle" x="0" y="-6.000000">R344C</text></g><line x1="280.904762" x2="280.904762" y1="59.000000" y2="87.000000" stroke="#BABDB6" stroke-width="2"/><a xlink:title="R349C"><circle cx="280.904762" cy="59.000000" r="4.000000" fill="#ff0000" /></a><g transform="translate(280.904762,59.000000) rotate(-30)"><text style="font-size:10px;font-family:OpenSans;fill:#555;" text-anchor="middle" x="0" y="-6.000000">R349C</text></g><line x1="292.333333" x2="292.333333" y1="59.000000" y2="87.000000" stroke="#BABDB6" stroke-width="2"/><a xlink:title="L364L"><circle cx="292.333333" cy="59.000000" r="4.000000" fill="#0000ff" /></a><g transform="translate(292.333333,59.000000) rotate(-30)"><text style="font-size:10px;font-family:OpenSans;fill:#555;" text-anchor="middle" x="0" y="-6.000000">L364L</text></g><line x1="341.857143" x2="341.857143" y1="59.000000" y2="87.000000" stroke="#BABDB6" stroke-width="2"/><a xlink:title="K429E"><circle cx="341.857143" cy="59.000000" r="4.000000" fill="#ff0000" /></a><g transform="translate(341.857143,59.000000) rotate(-30)"><text style="font-size:10px;font-family:OpenSans;fill:#555;" text-anchor="middle" x="0" y="-6.000000">K429E</text></g><line x1="347.952381" x2="347.952381" y1="59.000000" y2="87.000000" stroke="#BABDB6" stroke-width="2"/><a xlink:title="R437H"><circle cx="347.952381" cy="59.000000" r="4.000000" fill="#ff0000" /></a><g transform="translate(347.952381,59.000000) rotate(-30)"><text style="font-size:10px;font-family:OpenSans;fill:#555;" text-anchor="middle" x="0" y="-6.000000">R437H</text></g><line x1="355.571429" x2="355.571429" y1="59.000000" y2="87.000000" stroke="#BABDB6" stroke-width="2"/><a xlink:title="R447C"><circle cx="355.571429" cy="59.000000" r="4.000000" fill="#ff0000" /></a><g transform="translate(355.571429,59.000000) rotate(-30)"><text style="font-size:10px;font-family:OpenSans;fill:#555;" text-anchor="middle" x="0" y="-6.000000">R447C</text></g><line x1="386.809524" x2="386.809524" y1="59.000000" y2="87.000000" stroke="#BABDB6" stroke-width="2"/><a xlink:title="R488Q"><circle cx="386.809524" cy="59.000000" r="4.000000" fill="#ff0000" /></a><g transform="translate(386.809524,59.000000) rotate(-30)"><text style="font-size:10px;font-family:OpenSans;fill:#555;" text-anchor="middle" x="0" y="-6.000000">R488Q</text></g><a xlink:title=",  (525aa)"><rect fill="#BABDB6" x="15.000000" y="87.000000" width="400.000000" height="14.000000"/></a><g transform="translate(121.666667,82.000000)"><a xlink:href="https://www.ebi.ac.uk/interpro/entry/pfam/PF00038" xlink:title="Intermediate filament protein"><rect fill="#2DCF00" x="0" y="0" width="237.714286" height="24.000000" filter="url(#ds)"/><text style="font-size:12px;font-family:OpenSans;fill:#ffffff;" text-anchor="middle" x="118.857143" y="16.000000">Intermediate filament protein</text></a></g>
<g class="axis">
<line x1="15.000000" x2="415.000000" y1="116.000000" y2="116.000000" stroke="#AAAAAA" /><line x1="15.000000" x2="15.000000" y1="116.000000" y2="121.000000" stroke="#AAAAAA" /><line x1="15.000000" x2="15.000000" y1="116.000000" y2="121.000000" stroke="#AAAAAA" /><text style="font-size:10px;font-family:OpenSans;fill:#000000;" text-anchor="middle" x="15.000000" y="131.000000">0</text><line x1="129.285714" x2="129.285714" y1="116.000000" y2="121.000000" stroke="#AAAAAA" /><text style="font-size:10px;font-family:OpenSans;fill:#000000;" text-anchor="middle" x="129.285714" y="131.000000">150</text><line x1="213.857143" x2="213.857143" y1="116.000000" y2="121.000000" stroke="#AAAAAA" /><text style="font-size:10px;font-family:OpenSans;fill:#000000;" text-anchor="middle" x="213.857143" y="131.000000">261</text><line x1="263.380952" x2="263.380952" y1="116.000000" y2="121.000000" stroke="#AAAAAA" /><text style="font-size:10px;font-family:OpenSans;fill:#000000;" text-anchor="middle" x="263.380952" y="131.000000">326</text><line x1="292.333333" x2="292.333333" y1="116.000000" y2="121.000000" stroke="#AAAAAA" /><text style="font-size:10px;font-family:OpenSans;fill:#000000;" text-anchor="middle" x="292.333333" y="131.000000">364</text><line x1="341.857143" x2="341.857143" y1="116.000000" y2="121.000000" stroke="#AAAAAA" /><text style="font-size:10px;font-family:OpenSans;fill:#000000;" text-anchor="middle" x="341.857143" y="131.000000">429</text><line x1="386.809524" x2="386.809524" y1="116.000000" y2="121.000000" stroke="#AAAAAA" /><text style="font-size:10px;font-family:OpenSans;fill:#000000;" text-anchor="middle" x="386.809524" y="131.000000">488</text><line x1="415.000000" x2="415.000000" y1="116.000000" y2="121.000000" stroke="#AAAAAA" /><text style="font-size:10px;font-family:OpenSans;fill:#000000;" text-anchor="middle" x="415.000000" y="131.000000">525</text></g>
</svg>
