<?xml version='1.0'?>
<svg xmlns="http://www.w3.org/2000/svg" xmlns:xlink="http://www.w3.org/1999/xlink" width="440.046512" height="158.700000">
<defs>
  <filter id="ds" x="0" y="0">
    <feOffset in="SourceAlpha" dx="2" dy="2" />
    <feComponentTransfer><feFuncA type="linear" slope="0.2"/></feComponentTransfer>
    <feGaussianBlur result="blurOut" stdDeviation="1" />
    <feBlend in="SourceGraphic" in2="blurOut" mode="normal" />
  </filter>
  <pattern id="disordered-hatch" patternUnits="userSpaceOnUse" width="4" height="4">
    <path d="M-1,1 l2,-2 M0,4 l4,-4 M3,5 l2,-2" stroke="#000000" opacity="0.3" />
  </pattern>
</defs>
<line x1="69.325581" x2="69.325581" y1="46.500000" y2="74.500000" stroke="#BABDB6" stroke-width="2"/><a xlink:title="I73V"><circle cx="69.325581" cy="46.500000" r="4.000000" fill="#ff0000" /></a><g transform="translate(69.325581,46.500000) rotate(-30)"><text style="font-size:10px;font-family:OpenSans;fill:#555;" text-anchor="middle" x="0" y="-6.000000">I73V</text></g><line x1="82.720930" x2="82.720930" y1="46.500000" y2="74.500000" stroke="#BABDB6" stroke-width="2"/><a xlink:title="R91G"><circle cx="82.720930" cy="46.500000" r="4.000000" fill="#ff0000" /></a><g transform="translate(82.720930,46.500000) rotate(-30)"><text style="font-size:10px;font-family:OpenSans;fill:#555;" text-anchor="middle" x="0" y="-6.000000">R91G</text></g><line x1="90.162791" x2="90.162791" y1="46.500000" y2="74.500000" stroke="#BABDB6" stroke-width="2"/><a xlink:title="G101G"><circle cx="90.162791" cy="46.500000" r="4.000000" fill="#0000ff" /></a><g transform="translate(90.162791,46.500000) rotate(-30)"><text style="font-size:10px;font-family:OpenSans;fill:#555;" text-anchor="middle" x="0" y="-6.000000">G101G</text></g><line x1="102.069767" x2="102.069767" y1="46.500000" y2="74.500000" stroke="#BABDB6" stroke-width="2"/><a xlink:title="P117A"><circle cx="102.069767" cy="46.500000" r="4.000000" fill="#ff0000" /></a><g transform="translate(102.069767,46.500000) rotate(-30)"><text style="font-size:10px;font-family:OpenSans;fill:#555;" text-anchor="middle" x="0" y="-6.000000">P117A</text></g><line x1="134.813953" x2="134.813953" y1="46.500000" y2="74.500000" stroke="#BABDB6" stroke-width="2"/><a xlink:title="A161T"><circle cx="134.813953" cy="46.500000" r="4.000000" fill="#ff0000" /></a><g transform="translate(134.813953,46.500000) rotate(-30)"><text style="font-size:10px;font-family:OpenSans;fill:#555;" text-anchor="middle" x="0" y="-6.000000">A161T</text></g><line x1="221.883721" x2="221.883721" y1="46.500000" y2="74.500000" stroke="#BABDB6" stroke-width="2"/><a xlink:title="P278P"><circle cx="221.883721" cy="46.500000" r="4.000000" fill="#0000ff" /></a><g transform="translate(221.883721,46.500000) rotate(-30)"><text style="font-size:10px;font-family:OpenSans;fill:#555;" text-anchor="middle" x="0" y="-6.000000">P278P</text></g><line x1="265.046512" x2="265.046512" y1="46.500000" y2="74.500000" stroke="#BABDB6" stroke-width="2"/><a xlink:title="A336A"><circle cx="265.046512" cy="46.500000" r="4.000000" fill="#0000ff" /></a><g transform="translate(265.046512,46.500000) rotate(-30)"><text style="font-size:10px;font-family:OpenSans;fill:#555;" text-anchor="middle" x="0" y="-6.000000">A336A</text></g><line x1="303.744186" x2="303.744186" y1="46.500000" y2="74.500000" stroke="#BABDB6" stroke-width="2"/><a xlink:title="C388C"><circle cx="303.744186" cy="46.500000" r="4.000000" fill="#0000ff" /></a><g transform="translate(303.744186,46.500000) rotate(-30)"><text style="font-size:10px;font-family:OpenSans;fill:#555;" text-anchor="middle" x="0" y="-6.000000">C388C</text></g><line x1="332.767442" x2="332.767442" y1="34.000000" y2="74.500000" stroke="#BABDB6" stroke-width="2"/><a xlink:title="M427T"><circle cx="332.767442" cy="34.000000" r="4.000000" fill="#ff0000" /></a><g transform="translate(332.767442,34.000000) rotate(-30)"><text style="font-size:10px;font-family:OpenSans;fill:#555;" text-anchor="middle" x="0" y="-6.000000">M427T</text></g><line x1="336.488372" x2="336.488372" y1="46.500000" y2="74.500000" stroke="#BABDB6" stroke-width="2"/><a xlink:title="R432C"><circle cx="336.488372" cy="46.500000" r="4.000000" fill="#ff0000" /></a><g transform="translate(336.488372,46.500000) rotate(-30)"><text style="font-size:10px;font-family:OpenSans;fill:#555;" text-anchor="middle" x="0" y="-6.000000">R432C</text></g><line x1="375.930233" x2="375.930233" y1="46.500000" y2="74.500000" stroke="#BABDB6" stroke-width="2"/><a xlink:title="S485R"><circle cx="375.930233" cy="46.500000" r="4.000000" fill="#ff0000" /></a><g transform="translate(375.930233,46.500000) rotate(-30)"><text style="font-size:10px;font-family:OpenSans;fill:#555;" text-anchor="middle" x="0" y="-6.000000">S485R</text></g><line x1="407.186047" x2="407.186047" y1="46.500000" y2="74.500000" stroke="#BABDB6" stroke-width="2"/><a xlink:title="R527Q"><circle cx="407.186047" cy="46.500000" r="4.000000" fill="#ff0000" /></a><g transform="translate(407.186047,46.500000) rotate(-30)"><text style="font-size:10px;font-family:OpenSans;fill:#555;" text-anchor="middle" x="0" y="-6.000000">R527Q</text></g><a xlink:title=",  (551aa)"><rect fill="#BABDB6" x="15.000000" y="74.500000" width="410.046512" height="14.000000"/></a><g transform="translate(26.906977,69.500000)"><a xlink:href="https://www.ebi.ac.uk/interpro/entry/pfam/PF16208" xlink:title="Keratin type II head"><rect fill="#2DCF00" x="0" y="0" width="96.000000" height="24.000000" filter="url(#ds)"/><text style="font-size:12px;font-family:OpenSans;fill:#ffffff;" text-anchor="middle" x="48.000000" y="16.000000">Keratin_2_head</text></a></g>
<g transform="translate(125.139535,69.500000)"><a xlink:href="https://www.ebi.ac.uk/interpro/entry/pfam/PF00038" xlink:title="Intermediate filament protein"><rect fill="#FF5353" x="0" y="0" width="232.930233" height="24.000000" filter="url(#ds)"/><text style="font-size:12px;font-family:OpenSans;fill:#ffffff;" text-anchor="middle" x="116.465116" y="16.000000">Intermediate filament protein</text></a></g>
<g class="axis">
<line x1="15.000000" x2="425.046512" y1="103.500000" y2="103.500000" stroke="#AAAAAA" /><line x1="15.000000" x2="15.000000" y1="103.500000" y2="108.500000" stroke="#AAAAAA" /><line x1="26.906977" x2="26.906977" y1="103.500000" y2="108.500000" stroke="#AAAAAA" /><text style="font-size:10px;font-family:OpenSans;fill:#000000;" text-anchor="middle" x="26.906977" y="118.500000">16</text><line x1="69.325581" x2="69.325581" y1="103.500000" y2="108.500000" stroke="#AAAAAA" /><text style="font-size:10px;font-family:OpenSans;fill:#000000;" text-anchor="middle" x="69.325581" y="118.500000">73</text><line x1="90.162791" x2="90.162791" y1="103.500000" y2="108.500000" stroke="#AAAAAA" /><text style="font-size:10px;font-family:OpenSans;fill:#000000;" text-anchor="middle" x="90.162791" y="118.500000">101</text><line x1="134.813953" x2="134.813953" y1="103.500000" y2="108.500000" stroke="#AAAAAA" /><text style="font-size:10px;font-family:OpenSans;fill:#000000;" text-anchor="middle" x="134.813953" y="118.500000">161</text><line x1="221.883721" x2="221.883721" y1="103.500000" y2="108.500000" stroke="#AAAAAA" /><text style="font-size:10px;font-family:OpenSans;fill:#000000;" text-anchor="middle" x="221.883721" y="118.500000">278</text><line x1="265.046512" x2="265.046512" y1="103.500000" y2="108.500000" stroke="#AAAAAA" /><text style="font-size:10px;font-family:OpenSans;fill:#000000;" text-anchor="middle" x="265.046512" y="118.500000">336</text><line x1="303.744186" x2="303.744186" y1="103.500000" y2="108.500000" stroke="#AAAAAA" /><text style="font-size:10px;font-family:OpenSans;fill:#000000;" text-anchor="middle" x="303.744186" y="118.500000">388</text><line x1="332.767442" x2="332.767442" y1="103.500000" y2="108.500000" stroke="#AAAAAA" /><text style="font-size:10px;font-family:OpenSans;fill:#000000;" text-anchor="middle" x="332.767442" y="118.500000">427</text><line x1="375.930233" x2="375.930233" y1="103.500000" y2="108.500000" stroke="#AAAAAA" /><text style="font-size:10px;font-family:OpenSans;fill:#000000;" text-anchor="middle" x="375.930233" y="118.500000">485</text><line x1="425.046512" x2="425.046512" y1="103.500000" y2="108.500000" stroke="#AAAAAA" /><text style="font-size:10px;font-family:OpenSans;fill:#000000;" text-anchor="middle" x="425.046512" y="118.500000">551</text></g>
<rect fill="#2DCF00" x="4" y="132.500000" width="12" height="12" filter="url(#ds)"/><text style="font-size:12px;font-family:OpenSans;fill:#000000;" text-anchor="start" x="20" y="144.500000">Keratin type II head</text></svg>
