<?xml version='1.0'?>
<svg xmlns="http://www.w3.org/2000/svg" xmlns:xlink="http://www.w3.org/1999/xlink" width="661.303030" height="146.200000">
<defs>
  <filter id="ds" x="0" y="0">
    <feOffset in="SourceAlpha" dx="2" dy="2" />
    <feComponentTransfer><feFuncA type="linear" slope="0.2"/></feComponentTransfer>
    <feGaussianBlur result="blurOut" stdDeviation="1" />
    <feBlend in="SourceGraphic" in2="blurOut" mode="normal" />
  </filter>
  <pattern id="disordered-hatch" patternUnits="userSpaceOnUse" width="4" height="4">
    <path d="M-1,1 l2,-2 M0,4 l4,-4 M3,5 l2,-2" stroke="#000000" opacity="0.3" />
  </pattern>
</defs>
<line x1="22.545455" x2="22.545455" y1="34.000000" y2="62.000000" stroke="#BABDB6" stroke-width="2"/><a xlink:title="A3A"><circle cx="22.545455" cy="34.000000" r="4.000000" fill="#0000ff" /></a><g transform="translate(22.545455,34.000000) rotate(-30)"><text style="font-size:10px;font-family:OpenSans;fill:#555;" text-anchor="middle" x="0" y="-6.000000">A3A</text></g><line x1="67.818182" x2="67.818182" y1="34.000000" y2="62.000000" stroke="#BABDB6" stroke-width="2"/><a xlink:title="D21A"><circle cx="67.818182" cy="34.000000" r="4.000000" fill="#ff0000" /></a><g transform="translate(67.818182,34.000000) rotate(-30)"><text style="font-size:10px;font-family:OpenSans;fill:#555;" text-anchor="middle" x="0" y="-6.000000">D21A</text></g><line x1="82.909091" x2="82.909091" y1="34.000000" y2="62.000000" stroke="#BABDB6" stroke-width="2"/><a xlink:title="C27C"><circle cx="82.909091" cy="34.000000" r="4.000000" fill="#0000ff" /></a><g transform="translate(82.909091,34.000000) rotate(-30)"><text style="font-size:10px;font-family:OpenSans;fill:#555;" text-anchor="middle" x="0" y="-6.000000">C27C</text></g><line x1="523.060606" x2="523.060606" y1="34.000000" y2="62.000000" stroke="#BABDB6" stroke-width="2"/><a xlink:title="C202C"><circle cx="523.060606" cy="34.000000" r="4.000000" fill="#0000ff" /></a><g transform="translate(523.060606,34.000000) rotate(-30)"><text style="font-size:10px;font-family:OpenSans;fill:#555;" text-anchor="middle" x="0" y="-6.000000">C202C</text></g><line x1="540.666667" x2="540.666667" y1="34.000000" y2="62.000000" stroke="#BABDB6" stroke-width="2"/><a xlink:title="C209C"><circle cx="540.666667" cy="34.000000" r="4.000000" fill="#0000ff" /></a><g transform="translate(540.666667,34.000000) rotate(-30)"><text style="font-size:10px;font-family:OpenSans;fill:#555;" text-anchor="middle" x="0" y="-6.000000">C209C</text></g><a xlink:title=",  (251aa)"><rect fill="#BABDB6" x="15.000000" y="62.000000" width="631.303030" height="14.000000"/></a><g transform="translate(191.060606,57.000000)"><a xlink:href="https://www.ebi.ac.uk/interpro/entry/pfam/PF13885" xlink:title="Keratin, high sulfur B2 protein"><rect fill="#2DCF00" x="0" y="0" width="108.151515" height="24.000000" filter="url(#ds)"/><text style="font-size:12px;font-family:OpenSans;fill:#ffffff;" text-anchor="middle" x="54.075758" y="16.000000">Keratin_B2_2</text></a></g>
<g transform="translate(301.727273,57.000000)"><a xlink:href="https://www.ebi.ac.uk/interpro/entry/pfam/PF13885" xlink:title="Keratin, high sulfur B2 protein"><rect fill="#FF5353" x="0" y="0" width="115.696970" height="24.000000" filter="url(#ds)"/><text style="font-size:12px;font-family:OpenSans;fill:#ffffff;" text-anchor="middle" x="57.848485" y="16.000000">Keratin_B2_2</text></a></g>
<g transform="translate(427.484848,57.000000)"><a xlink:href="https://www.ebi.ac.uk/interpro/entry/pfam/PF13885" xlink:title="Keratin, high sulfur B2 protein"><rect fill="#5B5BFF" x="0" y="0" width="83.000000" height="24.000000" filter="url(#ds)"/><text style="font-size:12px;font-family:OpenSans;fill:#ffffff;" text-anchor="middle" x="41.500000" y="16.000000">Keratin_B2_2</text></a></g>
<g transform="translate(513.000000,57.000000)"><a xlink:href="https://www.ebi.ac.uk/interpro/entry/pfam/PF13885" xlink:title="Keratin, high sulfur B2 protein"><rect fill="#EBD61D" x="0" y="0" width="108.151515" height="24.000000" filter="url(#ds)"/><text style="font-size:12px;font-family:OpenSans;fill:#ffffff;" text-anchor="middle" x="54.075758" y="16.000000">Keratin_B2_2</text></a></g>
<g class="axis">
<line x1="15.000000" x2="646.303030" y1="91.000000" y2="91.000000" stroke="#AAAAAA" /><line x1="15.000000" x2="15.000000" y1="91.000000" y2="96.000000" stroke="#AAAAAA" /><line x1="22.545455" x2="22.545455" y1="91.000000" y2="96.000000" stroke="#AAAAAA" /><text style="font-size:10px;font-family:OpenSans;fill:#000000;" text-anchor="middle" x="22.545455" y="106.000000">3</text><line x1="67.818182" x2="67.818182" y1="91.000000" y2="96.000000" stroke="#AAAAAA" /><text style="font-size:10px;font-family:OpenSans;fill:#000000;" text-anchor="middle" x="67.818182" y="106.000000">21</text><line x1="191.060606" x2="191.060606" y1="91.000000" y2="96.000000" stroke="#AAAAAA" /><text style="font-size:10px;font-family:OpenSans;fill:#000000;" text-anchor="middle" x="191.060606" y="106.000000">70</text><line x1="299.212121" x2="299.212121" y1="91.000000" y2="96.000000" stroke="#AAAAAA" /><text style="font-size:10px;font-family:OpenSans;fill:#000000;" text-anchor="middle" x="299.212121" y="106.000000">113</text><line x1="417.424242" x2="417.424242" y1="91.000000" y2="96.000000" stroke="#AAAAAA" /><text style="font-size:10px;font-family:OpenSans;fill:#000000;" text-anchor="middle" x="417.424242" y="106.000000">160</text><line x1="523.060606" x2="523.060606" y1="91.000000" y2="96.000000" stroke="#AAAAAA" /><text style="font-size:10px;font-family:OpenSans;fill:#000000;" text-anchor="middle" x="523.060606" y="106.000000">202</text><line x1="540.666667" x2="540.666667" y1="91.000000" y2="96.000000" stroke="#AAAAAA" /><text style="font-size:10px;font-family:OpenSans;fill:#000000;" text-anchor="middle" x="540.666667" y="106.000000">209</text><line x1="621.151515" x2="621.151515" y1="91.000000" y2="96.000000" stroke="#AAAAAA" /><text style="font-size:10px;font-family:OpenSans;fill:#000000;" text-anchor="middle" x="621.151515" y="106.000000">241</text><line x1="646.303030" x2="646.303030" y1="91.000000" y2="96.000000" stroke="#AAAAAA" /><text style="font-size:10px;font-family:OpenSans;fill:#000000;" text-anchor="middle" x="646.303030" y="106.000000">251</text></g>
<rect fill="#EBD61D" x="4" y="120.000000" width="12" height="12" filter="url(#ds)"/><text style="font-size:12px;font-family:OpenSans;fill:#000000;" text-anchor="start" x="20" y="132.000000">Keratin, high sulfur B2 protein</text></svg>
