<?xml version='1.0'?>
<svg xmlns="http://www.w3.org/2000/svg" xmlns:xlink="http://www.w3.org/1999/xlink" width="465.063830" height="146.200000">
<defs>
  <filter id="ds" x="0" y="0">
    <feOffset in="SourceAlpha" dx="2" dy="2" />
    <feComponentTransfer><feFuncA type="linear" slope="0.2"/></feComponentTransfer>
    <feGaussianBlur result="blurOut" stdDeviation="1" />
    <feBlend in="SourceGraphic" in2="blurOut" mode="normal" />
  </filter>
  <pattern id="disordered-hatch" patternUnits="userSpaceOnUse" width="4" height="4">
    <path d="M-1,1 l2,-2 M0,4 l4,-4 M3,5 l2,-2" stroke="#000000" opacity="0.3" />
  </pattern>
</defs>
<line x1="404.744681" x2="404.744681" y1="34.000000" y2="62.000000" stroke="#BABDB6" stroke-width="2"/><a xlink:title="K258K"><circle cx="404.744681" cy="34.000000" r="4.000000" fill="#0000ff" /></a><g transform="translate(404.744681,34.000000) rotate(-30)"><text style="font-size:10px;font-family:OpenSans;fill:#555;" text-anchor="middle" x="0" y="-6.000000">K258K</text></g><a xlink:title=",  (288aa)"><rect fill="#BABDB6" x="15.000000" y="62.000000" width="435.063830" height="14.000000"/></a><g transform="translate(58.808511,57.000000)"><a xlink:href="https://www.ebi.ac.uk/interpro/entry/pfam/PF00753" xlink:title="Metallo-beta-lactamase superfamily"><rect fill="#2DCF00" x="0" y="0" width="256.808511" height="24.000000" filter="url(#ds)"/><text style="font-size:12px;font-family:OpenSans;fill:#ffffff;" text-anchor="middle" x="128.404255" y="16.000000">Metallo-beta-lactamase superfamily</text></a></g>
<g transform="translate(373.021277,57.000000)"><a xlink:href="https://www.ebi.ac.uk/interpro/entry/pfam/PF17778" xlink:title="Beta-lactamase associated winged helix domain"><rect fill="#FF5353" x="0" y="0" width="71.000000" height="24.000000" filter="url(#ds)"/><text style="font-size:12px;font-family:OpenSans;fill:#ffffff;" text-anchor="middle" x="35.500000" y="16.000000">BLACT_WH</text></a></g>
<g class="axis">
<line x1="15.000000" x2="450.063830" y1="91.000000" y2="91.000000" stroke="#AAAAAA" /><line x1="15.000000" x2="15.000000" y1="91.000000" y2="96.000000" stroke="#AAAAAA" /><line x1="15.000000" x2="15.000000" y1="91.000000" y2="96.000000" stroke="#AAAAAA" /><text style="font-size:10px;font-family:OpenSans;fill:#000000;" text-anchor="middle" x="15.000000" y="106.000000">0</text><line x1="58.808511" x2="58.808511" y1="91.000000" y2="96.000000" stroke="#AAAAAA" /><text style="font-size:10px;font-family:OpenSans;fill:#000000;" text-anchor="middle" x="58.808511" y="106.000000">29</text><line x1="315.617021" x2="315.617021" y1="91.000000" y2="96.000000" stroke="#AAAAAA" /><text style="font-size:10px;font-family:OpenSans;fill:#000000;" text-anchor="middle" x="315.617021" y="106.000000">199</text><line x1="373.021277" x2="373.021277" y1="91.000000" y2="96.000000" stroke="#AAAAAA" /><text style="font-size:10px;font-family:OpenSans;fill:#000000;" text-anchor="middle" x="373.021277" y="106.000000">237</text><line x1="404.744681" x2="404.744681" y1="91.000000" y2="96.000000" stroke="#AAAAAA" /><text style="font-size:10px;font-family:OpenSans;fill:#000000;" text-anchor="middle" x="404.744681" y="106.000000">258</text><line x1="450.063830" x2="450.063830" y1="91.000000" y2="96.000000" stroke="#AAAAAA" /><text style="font-size:10px;font-family:OpenSans;fill:#000000;" text-anchor="middle" x="450.063830" y="106.000000">288</text></g>
<rect fill="#FF5353" x="4" y="120.000000" width="12" height="12" filter="url(#ds)"/><text style="font-size:12px;font-family:OpenSans;fill:#000000;" text-anchor="start" x="20" y="132.000000">Beta-lactamase associated winged helix domain</text></svg>
