<?xml version='1.0'?>
<svg xmlns="http://www.w3.org/2000/svg" xmlns:xlink="http://www.w3.org/1999/xlink" width="6180.000000" height="171.200000">
<defs>
  <filter id="ds" x="0" y="0">
    <feOffset in="SourceAlpha" dx="2" dy="2" />
    <feComponentTransfer><feFuncA type="linear" slope="0.2"/></feComponentTransfer>
    <feGaussianBlur result="blurOut" stdDeviation="1" />
    <feBlend in="SourceGraphic" in2="blurOut" mode="normal" />
  </filter>
  <pattern id="disordered-hatch" patternUnits="userSpaceOnUse" width="4" height="4">
    <path d="M-1,1 l2,-2 M0,4 l4,-4 M3,5 l2,-2" stroke="#000000" opacity="0.3" />
  </pattern>
</defs>
<line x1="136.047619" x2="136.047619" y1="34.000000" y2="87.000000" stroke="#BABDB6" stroke-width="2"/><a xlink:title="R31P"><circle cx="136.047619" cy="34.000000" r="4.000000" fill="#ff0000" /></a><g transform="translate(136.047619,34.000000) rotate(-30)"><text style="font-size:10px;font-family:OpenSans;fill:#555;" text-anchor="middle" x="0" y="-6.000000">R31P</text></g><line x1="136.047619" x2="136.047619" y1="46.500000" y2="87.000000" stroke="#BABDB6" stroke-width="2"/><a xlink:title="R31L"><circle cx="136.047619" cy="46.500000" r="4.000000" fill="#ff0000" /></a><g transform="translate(136.047619,46.500000) rotate(-30)"><text style="font-size:10px;font-family:OpenSans;fill:#555;" text-anchor="middle" x="0" y="-6.000000">R31L</text></g><line x1="139.952381" x2="139.952381" y1="59.000000" y2="87.000000" stroke="#BABDB6" stroke-width="2"/><a xlink:title="P32P"><circle cx="139.952381" cy="59.000000" r="4.000000" fill="#0000ff" /></a><g transform="translate(139.952381,59.000000) rotate(-30)"><text style="font-size:10px;font-family:OpenSans;fill:#555;" text-anchor="middle" x="0" y="-6.000000">P32P</text></g><line x1="300.047619" x2="300.047619" y1="59.000000" y2="87.000000" stroke="#BABDB6" stroke-width="2"/><a xlink:title="H73Q"><circle cx="300.047619" cy="59.000000" r="4.000000" fill="#ff0000" /></a><g transform="translate(300.047619,59.000000) rotate(-30)"><text style="font-size:10px;font-family:OpenSans;fill:#555;" text-anchor="middle" x="0" y="-6.000000">H73Q</text></g><line x1="694.428571" x2="694.428571" y1="59.000000" y2="87.000000" stroke="#BABDB6" stroke-width="2"/><a xlink:title="P174H"><circle cx="694.428571" cy="59.000000" r="4.000000" fill="#ff0000" /></a><g transform="translate(694.428571,59.000000) rotate(-30)"><text style="font-size:10px;font-family:OpenSans;fill:#555;" text-anchor="middle" x="0" y="-6.000000">P174H</text></g><line x1="1038.047619" x2="1038.047619" y1="59.000000" y2="87.000000" stroke="#BABDB6" stroke-width="2"/><a xlink:title="V262V"><circle cx="1038.047619" cy="59.000000" r="4.000000" fill="#0000ff" /></a><g transform="translate(1038.047619,59.000000) rotate(-30)"><text style="font-size:10px;font-family:OpenSans;fill:#555;" text-anchor="middle" x="0" y="-6.000000">V262V</text></g><line x1="1127.857143" x2="1127.857143" y1="59.000000" y2="87.000000" stroke="#BABDB6" stroke-width="2"/><a xlink:title="A285A"><circle cx="1127.857143" cy="59.000000" r="4.000000" fill="#0000ff" /></a><g transform="translate(1127.857143,59.000000) rotate(-30)"><text style="font-size:10px;font-family:OpenSans;fill:#555;" text-anchor="middle" x="0" y="-6.000000">A285A</text></g><line x1="1268.428571" x2="1268.428571" y1="59.000000" y2="87.000000" stroke="#BABDB6" stroke-width="2"/><a xlink:title="A321A"><circle cx="1268.428571" cy="59.000000" r="4.000000" fill="#0000ff" /></a><g transform="translate(1268.428571,59.000000) rotate(-30)"><text style="font-size:10px;font-family:OpenSans;fill:#555;" text-anchor="middle" x="0" y="-6.000000">A321A</text></g><line x1="1377.761905" x2="1377.761905" y1="59.000000" y2="87.000000" stroke="#BABDB6" stroke-width="2"/><a xlink:title="G349G"><circle cx="1377.761905" cy="59.000000" r="4.000000" fill="#0000ff" /></a><g transform="translate(1377.761905,59.000000) rotate(-30)"><text style="font-size:10px;font-family:OpenSans;fill:#555;" text-anchor="middle" x="0" y="-6.000000">G349G</text></g><line x1="1600.333333" x2="1600.333333" y1="59.000000" y2="87.000000" stroke="#BABDB6" stroke-width="2"/><a xlink:title="T406T"><circle cx="1600.333333" cy="59.000000" r="4.000000" fill="#0000ff" /></a><g transform="translate(1600.333333,59.000000) rotate(-30)"><text style="font-size:10px;font-family:OpenSans;fill:#555;" text-anchor="middle" x="0" y="-6.000000">T406T</text></g><line x1="2053.285714" x2="2053.285714" y1="46.500000" y2="87.000000" stroke="#BABDB6" stroke-width="2"/><a xlink:title="P522S"><circle cx="2053.285714" cy="46.500000" r="4.000000" fill="#ff0000" /></a><g transform="translate(2053.285714,46.500000) rotate(-30)"><text style="font-size:10px;font-family:OpenSans;fill:#555;" text-anchor="middle" x="0" y="-6.000000">P522S</text></g><line x1="2057.190476" x2="2057.190476" y1="59.000000" y2="87.000000" stroke="#BABDB6" stroke-width="2"/><a xlink:title="P523L"><circle cx="2057.190476" cy="59.000000" r="4.000000" fill="#ff0000" /></a><g transform="translate(2057.190476,59.000000) rotate(-30)"><text style="font-size:10px;font-family:OpenSans;fill:#555;" text-anchor="middle" x="0" y="-6.000000">P523L</text></g><line x1="2139.190476" x2="2139.190476" y1="59.000000" y2="87.000000" stroke="#BABDB6" stroke-width="2"/><a xlink:title="E544G"><circle cx="2139.190476" cy="59.000000" r="4.000000" fill="#ff0000" /></a><g transform="translate(2139.190476,59.000000) rotate(-30)"><text style="font-size:10px;font-family:OpenSans;fill:#555;" text-anchor="middle" x="0" y="-6.000000">E544G</text></g><line x1="2197.761905" x2="2197.761905" y1="59.000000" y2="87.000000" stroke="#BABDB6" stroke-width="2"/><a xlink:title="I559V"><circle cx="2197.761905" cy="59.000000" r="4.000000" fill="#ff0000" /></a><g transform="translate(2197.761905,59.000000) rotate(-30)"><text style="font-size:10px;font-family:OpenSans;fill:#555;" text-anchor="middle" x="0" y="-6.000000">I559V</text></g><line x1="2529.666667" x2="2529.666667" y1="59.000000" y2="87.000000" stroke="#BABDB6" stroke-width="2"/><a xlink:title="S644S"><circle cx="2529.666667" cy="59.000000" r="4.000000" fill="#0000ff" /></a><g transform="translate(2529.666667,59.000000) rotate(-30)"><text style="font-size:10px;font-family:OpenSans;fill:#555;" text-anchor="middle" x="0" y="-6.000000">S644S</text></g><line x1="2787.380952" x2="2787.380952" y1="59.000000" y2="87.000000" stroke="#BABDB6" stroke-width="2"/><a xlink:title="N710Y"><circle cx="2787.380952" cy="59.000000" r="4.000000" fill="#ff0000" /></a><g transform="translate(2787.380952,59.000000) rotate(-30)"><text style="font-size:10px;font-family:OpenSans;fill:#555;" text-anchor="middle" x="0" y="-6.000000">N710Y</text></g><line x1="2912.333333" x2="2912.333333" y1="59.000000" y2="87.000000" stroke="#BABDB6" stroke-width="2"/><a xlink:title="G742D"><circle cx="2912.333333" cy="59.000000" r="4.000000" fill="#ff0000" /></a><g transform="translate(2912.333333,59.000000) rotate(-30)"><text style="font-size:10px;font-family:OpenSans;fill:#555;" text-anchor="middle" x="0" y="-6.000000">G742D</text></g><line x1="3021.666667" x2="3021.666667" y1="59.000000" y2="87.000000" stroke="#BABDB6" stroke-width="2"/><a xlink:title="R770G"><circle cx="3021.666667" cy="59.000000" r="4.000000" fill="#ff0000" /></a><g transform="translate(3021.666667,59.000000) rotate(-30)"><text style="font-size:10px;font-family:OpenSans;fill:#555;" text-anchor="middle" x="0" y="-6.000000">R770G</text></g><line x1="4060.333333" x2="4060.333333" y1="59.000000" y2="87.000000" stroke="#BABDB6" stroke-width="2"/><a xlink:title="G1036G"><circle cx="4060.333333" cy="59.000000" r="4.000000" fill="#0000ff" /></a><g transform="translate(4060.333333,59.000000) rotate(-30)"><text style="font-size:10px;font-family:OpenSans;fill:#555;" text-anchor="middle" x="0" y="-6.000000">G1036G</text></g><line x1="4068.142857" x2="4068.142857" y1="59.000000" y2="87.000000" stroke="#BABDB6" stroke-width="2"/><a xlink:title="L1038L"><circle cx="4068.142857" cy="59.000000" r="4.000000" fill="#0000ff" /></a><g transform="translate(4068.142857,59.000000) rotate(-30)"><text style="font-size:10px;font-family:OpenSans;fill:#555;" text-anchor="middle" x="0" y="-6.000000">L1038L</text></g><line x1="4239.952381" x2="4239.952381" y1="59.000000" y2="87.000000" stroke="#BABDB6" stroke-width="2"/><a xlink:title="S1082G"><circle cx="4239.952381" cy="59.000000" r="4.000000" fill="#ff0000" /></a><g transform="translate(4239.952381,59.000000) rotate(-30)"><text style="font-size:10px;font-family:OpenSans;fill:#555;" text-anchor="middle" x="0" y="-6.000000">S1082G</text></g><line x1="4579.666667" x2="4579.666667" y1="59.000000" y2="87.000000" stroke="#BABDB6" stroke-width="2"/><a xlink:title="T1169T"><circle cx="4579.666667" cy="59.000000" r="4.000000" fill="#0000ff" /></a><g transform="translate(4579.666667,59.000000) rotate(-30)"><text style="font-size:10px;font-family:OpenSans;fill:#555;" text-anchor="middle" x="0" y="-6.000000">T1169T</text></g><line x1="4692.904762" x2="4692.904762" y1="59.000000" y2="87.000000" stroke="#BABDB6" stroke-width="2"/><a xlink:title="R1198S"><circle cx="4692.904762" cy="59.000000" r="4.000000" fill="#ff0000" /></a><g transform="translate(4692.904762,59.000000) rotate(-30)"><text style="font-size:10px;font-family:OpenSans;fill:#555;" text-anchor="middle" x="0" y="-6.000000">R1198S</text></g><line x1="5610.523810" x2="5610.523810" y1="59.000000" y2="87.000000" stroke="#BABDB6" stroke-width="2"/><a xlink:title="T1433M"><circle cx="5610.523810" cy="59.000000" r="4.000000" fill="#ff0000" /></a><g transform="translate(5610.523810,59.000000) rotate(-30)"><text style="font-size:10px;font-family:OpenSans;fill:#555;" text-anchor="middle" x="0" y="-6.000000">T1433M</text></g><line x1="5633.952381" x2="5633.952381" y1="59.000000" y2="87.000000" stroke="#BABDB6" stroke-width="2"/><a xlink:title="T1439M"><circle cx="5633.952381" cy="59.000000" r="4.000000" fill="#ff0000" /></a><g transform="translate(5633.952381,59.000000) rotate(-30)"><text style="font-size:10px;font-family:OpenSans;fill:#555;" text-anchor="middle" x="0" y="-6.000000">T1439M</text></g><line x1="5712.047619" x2="5712.047619" y1="59.000000" y2="87.000000" stroke="#BABDB6" stroke-width="2"/><a xlink:title="R1459Q"><circle cx="5712.047619" cy="59.000000" r="4.000000" fill="#ff0000" /></a><g transform="translate(5712.047619,59.000000) rotate(-30)"><text style="font-size:10px;font-family:OpenSans;fill:#555;" text-anchor="middle" x="0" y="-6.000000">R1459Q</text></g><line x1="5735.476190" x2="5735.476190" y1="59.000000" y2="87.000000" stroke="#BABDB6" stroke-width="2"/><a xlink:title="R1465Q"><circle cx="5735.476190" cy="59.000000" r="4.000000" fill="#ff0000" /></a><g transform="translate(5735.476190,59.000000) rotate(-30)"><text style="font-size:10px;font-family:OpenSans;fill:#555;" text-anchor="middle" x="0" y="-6.000000">R1465Q</text></g><line x1="6071.285714" x2="6071.285714" y1="59.000000" y2="87.000000" stroke="#BABDB6" stroke-width="2"/><a xlink:title="A1551A"><circle cx="6071.285714" cy="59.000000" r="4.000000" fill="#0000ff" /></a><g transform="translate(6071.285714,59.000000) rotate(-30)"><text style="font-size:10px;font-family:OpenSans;fill:#555;" text-anchor="middle" x="0" y="-6.000000">A1551A</text></g><line x1="6094.714286" x2="6094.714286" y1="59.000000" y2="87.000000" stroke="#BABDB6" stroke-width="2"/><a xlink:title="A1557A"><circle cx="6094.714286" cy="59.000000" r="4.000000" fill="#0000ff" /></a><g transform="translate(6094.714286,59.000000) rotate(-30)"><text style="font-size:10px;font-family:OpenSans;fill:#555;" text-anchor="middle" x="0" y="-6.000000">A1557A</text></g><a xlink:title=",  (1575aa)"><rect fill="#BABDB6" x="15.000000" y="87.000000" width="6150.000000" height="14.000000"/></a><g transform="translate(151.666667,82.000000)"><a xlink:href="https://www.ebi.ac.uk/interpro/entry/pfam/PF00055" xlink:title="Laminin N-terminal (Domain VI)"><rect fill="#2DCF00" x="0" y="0" width="913.714286" height="24.000000" filter="url(#ds)"/><text style="font-size:12px;font-family:OpenSans;fill:#ffffff;" text-anchor="middle" x="456.857143" y="16.000000">Laminin N-terminal (Domain VI)</text></a></g>
<g transform="translate(1073.190476,82.000000)"><a xlink:href="https://www.ebi.ac.uk/interpro/entry/pfam/PF00053" xlink:title="Laminin EGF domain"><rect fill="#FF5353" x="0" y="0" width="164.000000" height="24.000000" filter="url(#ds)"/><text style="font-size:12px;font-family:OpenSans;fill:#ffffff;" text-anchor="middle" x="82.000000" y="16.000000">Laminin EGF domain</text></a></g>
<g transform="translate(1291.857143,82.000000)"><a xlink:href="https://www.ebi.ac.uk/interpro/entry/pfam/PF00053" xlink:title="Laminin EGF domain"><rect fill="#5B5BFF" x="0" y="0" width="195.238095" height="24.000000" filter="url(#ds)"/><text style="font-size:12px;font-family:OpenSans;fill:#ffffff;" text-anchor="middle" x="97.619048" y="16.000000">Laminin EGF domain</text></a></g>
<g transform="translate(1510.523810,82.000000)"><a xlink:href="https://www.ebi.ac.uk/interpro/entry/pfam/PF00053" xlink:title="Laminin EGF domain"><rect fill="#EBD61D" x="0" y="0" width="171.809524" height="24.000000" filter="url(#ds)"/><text style="font-size:12px;font-family:OpenSans;fill:#ffffff;" text-anchor="middle" x="85.904762" y="16.000000">Laminin EGF domain</text></a></g>
<g transform="translate(1694.047619,82.000000)"><a xlink:href="https://www.ebi.ac.uk/interpro/entry/pfam/PF00053" xlink:title="Laminin EGF domain"><rect fill="#BA21E0" x="0" y="0" width="183.523810" height="24.000000" filter="url(#ds)"/><text style="font-size:12px;font-family:OpenSans;fill:#ffffff;" text-anchor="middle" x="91.761905" y="16.000000">Laminin EGF domain</text></a></g>
<g transform="translate(2123.571429,82.000000)"><a xlink:href="https://www.ebi.ac.uk/interpro/entry/pfam/PF00052" xlink:title="Laminin B (Domain IV)"><rect fill="#FF9C42" x="0" y="0" width="511.523810" height="24.000000" filter="url(#ds)"/><text style="font-size:12px;font-family:OpenSans;fill:#ffffff;" text-anchor="middle" x="255.761905" y="16.000000">Laminin B (Domain IV)</text></a></g>
<g transform="translate(2642.904762,82.000000)"><a xlink:href="https://www.ebi.ac.uk/interpro/entry/pfam/PF00053" xlink:title="Laminin EGF domain"><rect fill="#FF7DFF" x="0" y="0" width="82.000000" height="24.000000" filter="url(#ds)"/><text style="font-size:12px;font-family:OpenSans;fill:#ffffff;" text-anchor="middle" x="41.000000" y="16.000000">Laminin_EGF</text></a></g>
<g transform="translate(2775.666667,82.000000)"><a xlink:href="https://www.ebi.ac.uk/interpro/entry/pfam/PF00053" xlink:title="Laminin EGF domain"><rect fill="#B9264F" x="0" y="0" width="175.714286" height="24.000000" filter="url(#ds)"/><text style="font-size:12px;font-family:OpenSans;fill:#ffffff;" text-anchor="middle" x="87.857143" y="16.000000">Laminin EGF domain</text></a></g>
<g transform="translate(2963.095238,82.000000)"><a xlink:href="https://www.ebi.ac.uk/interpro/entry/pfam/PF00053" xlink:title="Laminin EGF domain"><rect fill="#BABA21" x="0" y="0" width="183.523810" height="24.000000" filter="url(#ds)"/><text style="font-size:12px;font-family:OpenSans;fill:#ffffff;" text-anchor="middle" x="91.761905" y="16.000000">Laminin EGF domain</text></a></g>
<g transform="translate(3177.857143,82.000000)"><a xlink:href="https://www.ebi.ac.uk/interpro/entry/pfam/PF00053" xlink:title="Laminin EGF domain"><rect fill="#C48484" x="0" y="0" width="187.428571" height="24.000000" filter="url(#ds)"/><text style="font-size:12px;font-family:OpenSans;fill:#ffffff;" text-anchor="middle" x="93.714286" y="16.000000">Laminin EGF domain</text></a></g>
<g transform="translate(3396.523810,82.000000)"><a xlink:href="https://www.ebi.ac.uk/interpro/entry/pfam/PF00053" xlink:title="Laminin EGF domain"><rect fill="#1F88A7" x="0" y="0" width="187.428571" height="24.000000" filter="url(#ds)"/><text style="font-size:12px;font-family:OpenSans;fill:#ffffff;" text-anchor="middle" x="93.714286" y="16.000000">Laminin EGF domain</text></a></g>
<g transform="translate(3595.666667,82.000000)"><a xlink:href="https://www.ebi.ac.uk/interpro/entry/pfam/PF00053" xlink:title="Laminin EGF domain"><rect fill="#CAFEB8" x="0" y="0" width="160.095238" height="24.000000" filter="url(#ds)"/><text style="font-size:12px;font-family:OpenSans;fill:#ffffff;" text-anchor="middle" x="80.047619" y="16.000000">Laminin EGF domain</text></a></g>
<g transform="translate(3783.095238,82.000000)"><a xlink:href="https://www.ebi.ac.uk/interpro/entry/pfam/PF00053" xlink:title="Laminin EGF domain"><rect fill="#4A9586" x="0" y="0" width="175.714286" height="24.000000" filter="url(#ds)"/><text style="font-size:12px;font-family:OpenSans;fill:#ffffff;" text-anchor="middle" x="87.857143" y="16.000000">Laminin EGF domain</text></a></g>
<g class="axis">
<line x1="15.000000" x2="6165.000000" y1="116.000000" y2="116.000000" stroke="#AAAAAA" /><line x1="15.000000" x2="15.000000" y1="116.000000" y2="121.000000" stroke="#AAAAAA" /><line x1="15.000000" x2="15.000000" y1="116.000000" y2="121.000000" stroke="#AAAAAA" /><text style="font-size:10px;font-family:OpenSans;fill:#000000;" text-anchor="middle" x="15.000000" y="131.000000">0</text><line x1="136.047619" x2="136.047619" y1="116.000000" y2="121.000000" stroke="#AAAAAA" /><text style="font-size:10px;font-family:OpenSans;fill:#000000;" text-anchor="middle" x="136.047619" y="131.000000">31</text><line x1="300.047619" x2="300.047619" y1="116.000000" y2="121.000000" stroke="#AAAAAA" /><text style="font-size:10px;font-family:OpenSans;fill:#000000;" text-anchor="middle" x="300.047619" y="131.000000">73</text><line x1="694.428571" x2="694.428571" y1="116.000000" y2="121.000000" stroke="#AAAAAA" /><text style="font-size:10px;font-family:OpenSans;fill:#000000;" text-anchor="middle" x="694.428571" y="131.000000">174</text><line x1="1038.047619" x2="1038.047619" y1="116.000000" y2="121.000000" stroke="#AAAAAA" /><text style="font-size:10px;font-family:OpenSans;fill:#000000;" text-anchor="middle" x="1038.047619" y="131.000000">262</text><line x1="1065.380952" x2="1065.380952" y1="116.000000" y2="121.000000" stroke="#AAAAAA" /><text style="font-size:10px;font-family:OpenSans;fill:#000000;" text-anchor="middle" x="1065.380952" y="131.000000">269</text><line x1="1127.857143" x2="1127.857143" y1="116.000000" y2="121.000000" stroke="#AAAAAA" /><text style="font-size:10px;font-family:OpenSans;fill:#000000;" text-anchor="middle" x="1127.857143" y="131.000000">285</text><line x1="1237.190476" x2="1237.190476" y1="116.000000" y2="121.000000" stroke="#AAAAAA" /><text style="font-size:10px;font-family:OpenSans;fill:#000000;" text-anchor="middle" x="1237.190476" y="131.000000">313</text><line x1="1268.428571" x2="1268.428571" y1="116.000000" y2="121.000000" stroke="#AAAAAA" /><text style="font-size:10px;font-family:OpenSans;fill:#000000;" text-anchor="middle" x="1268.428571" y="131.000000">321</text><line x1="1291.857143" x2="1291.857143" y1="116.000000" y2="121.000000" stroke="#AAAAAA" /><text style="font-size:10px;font-family:OpenSans;fill:#000000;" text-anchor="middle" x="1291.857143" y="131.000000">327</text><line x1="1377.761905" x2="1377.761905" y1="116.000000" y2="121.000000" stroke="#AAAAAA" /><text style="font-size:10px;font-family:OpenSans;fill:#000000;" text-anchor="middle" x="1377.761905" y="131.000000">349</text><line x1="1487.095238" x2="1487.095238" y1="116.000000" y2="121.000000" stroke="#AAAAAA" /><text style="font-size:10px;font-family:OpenSans;fill:#000000;" text-anchor="middle" x="1487.095238" y="131.000000">377</text><line x1="1510.523810" x2="1510.523810" y1="116.000000" y2="121.000000" stroke="#AAAAAA" /><text style="font-size:10px;font-family:OpenSans;fill:#000000;" text-anchor="middle" x="1510.523810" y="131.000000">383</text><line x1="1600.333333" x2="1600.333333" y1="116.000000" y2="121.000000" stroke="#AAAAAA" /><text style="font-size:10px;font-family:OpenSans;fill:#000000;" text-anchor="middle" x="1600.333333" y="131.000000">406</text><line x1="1682.333333" x2="1682.333333" y1="116.000000" y2="121.000000" stroke="#AAAAAA" /><text style="font-size:10px;font-family:OpenSans;fill:#000000;" text-anchor="middle" x="1682.333333" y="131.000000">427</text><line x1="1877.571429" x2="1877.571429" y1="116.000000" y2="121.000000" stroke="#AAAAAA" /><text style="font-size:10px;font-family:OpenSans;fill:#000000;" text-anchor="middle" x="1877.571429" y="131.000000">477</text><line x1="2053.285714" x2="2053.285714" y1="116.000000" y2="121.000000" stroke="#AAAAAA" /><text style="font-size:10px;font-family:OpenSans;fill:#000000;" text-anchor="middle" x="2053.285714" y="131.000000">522</text><line x1="2139.190476" x2="2139.190476" y1="116.000000" y2="121.000000" stroke="#AAAAAA" /><text style="font-size:10px;font-family:OpenSans;fill:#000000;" text-anchor="middle" x="2139.190476" y="131.000000">544</text><line x1="2197.761905" x2="2197.761905" y1="116.000000" y2="121.000000" stroke="#AAAAAA" /><text style="font-size:10px;font-family:OpenSans;fill:#000000;" text-anchor="middle" x="2197.761905" y="131.000000">559</text><line x1="2529.666667" x2="2529.666667" y1="116.000000" y2="121.000000" stroke="#AAAAAA" /><text style="font-size:10px;font-family:OpenSans;fill:#000000;" text-anchor="middle" x="2529.666667" y="131.000000">644</text><line x1="2635.095238" x2="2635.095238" y1="116.000000" y2="121.000000" stroke="#AAAAAA" /><text style="font-size:10px;font-family:OpenSans;fill:#000000;" text-anchor="middle" x="2635.095238" y="131.000000">671</text><line x1="2724.904762" x2="2724.904762" y1="116.000000" y2="121.000000" stroke="#AAAAAA" /><text style="font-size:10px;font-family:OpenSans;fill:#000000;" text-anchor="middle" x="2724.904762" y="131.000000">694</text><line x1="2787.380952" x2="2787.380952" y1="116.000000" y2="121.000000" stroke="#AAAAAA" /><text style="font-size:10px;font-family:OpenSans;fill:#000000;" text-anchor="middle" x="2787.380952" y="131.000000">710</text><line x1="2912.333333" x2="2912.333333" y1="116.000000" y2="121.000000" stroke="#AAAAAA" /><text style="font-size:10px;font-family:OpenSans;fill:#000000;" text-anchor="middle" x="2912.333333" y="131.000000">742</text><line x1="2951.380952" x2="2951.380952" y1="116.000000" y2="121.000000" stroke="#AAAAAA" /><text style="font-size:10px;font-family:OpenSans;fill:#000000;" text-anchor="middle" x="2951.380952" y="131.000000">752</text><line x1="3021.666667" x2="3021.666667" y1="116.000000" y2="121.000000" stroke="#AAAAAA" /><text style="font-size:10px;font-family:OpenSans;fill:#000000;" text-anchor="middle" x="3021.666667" y="131.000000">770</text><line x1="3146.619048" x2="3146.619048" y1="116.000000" y2="121.000000" stroke="#AAAAAA" /><text style="font-size:10px;font-family:OpenSans;fill:#000000;" text-anchor="middle" x="3146.619048" y="131.000000">802</text><line x1="3177.857143" x2="3177.857143" y1="116.000000" y2="121.000000" stroke="#AAAAAA" /><text style="font-size:10px;font-family:OpenSans;fill:#000000;" text-anchor="middle" x="3177.857143" y="131.000000">810</text><line x1="3365.285714" x2="3365.285714" y1="116.000000" y2="121.000000" stroke="#AAAAAA" /><text style="font-size:10px;font-family:OpenSans;fill:#000000;" text-anchor="middle" x="3365.285714" y="131.000000">858</text><line x1="3396.523810" x2="3396.523810" y1="116.000000" y2="121.000000" stroke="#AAAAAA" /><text style="font-size:10px;font-family:OpenSans;fill:#000000;" text-anchor="middle" x="3396.523810" y="131.000000">866</text><line x1="3583.952381" x2="3583.952381" y1="116.000000" y2="121.000000" stroke="#AAAAAA" /><text style="font-size:10px;font-family:OpenSans;fill:#000000;" text-anchor="middle" x="3583.952381" y="131.000000">914</text><line x1="3755.761905" x2="3755.761905" y1="116.000000" y2="121.000000" stroke="#AAAAAA" /><text style="font-size:10px;font-family:OpenSans;fill:#000000;" text-anchor="middle" x="3755.761905" y="131.000000">958</text><line x1="3783.095238" x2="3783.095238" y1="116.000000" y2="121.000000" stroke="#AAAAAA" /><text style="font-size:10px;font-family:OpenSans;fill:#000000;" text-anchor="middle" x="3783.095238" y="131.000000">965</text><line x1="3958.809524" x2="3958.809524" y1="116.000000" y2="121.000000" stroke="#AAAAAA" /><text style="font-size:10px;font-family:OpenSans;fill:#000000;" text-anchor="middle" x="3958.809524" y="131.000000">1010</text><line x1="4060.333333" x2="4060.333333" y1="116.000000" y2="121.000000" stroke="#AAAAAA" /><text style="font-size:10px;font-family:OpenSans;fill:#000000;" text-anchor="middle" x="4060.333333" y="131.000000">1036</text><line x1="4239.952381" x2="4239.952381" y1="116.000000" y2="121.000000" stroke="#AAAAAA" /><text style="font-size:10px;font-family:OpenSans;fill:#000000;" text-anchor="middle" x="4239.952381" y="131.000000">1082</text><line x1="4579.666667" x2="4579.666667" y1="116.000000" y2="121.000000" stroke="#AAAAAA" /><text style="font-size:10px;font-family:OpenSans;fill:#000000;" text-anchor="middle" x="4579.666667" y="131.000000">1169</text><line x1="4692.904762" x2="4692.904762" y1="116.000000" y2="121.000000" stroke="#AAAAAA" /><text style="font-size:10px;font-family:OpenSans;fill:#000000;" text-anchor="middle" x="4692.904762" y="131.000000">1198</text><line x1="5610.523810" x2="5610.523810" y1="116.000000" y2="121.000000" stroke="#AAAAAA" /><text style="font-size:10px;font-family:OpenSans;fill:#000000;" text-anchor="middle" x="5610.523810" y="131.000000">1433</text><line x1="5633.952381" x2="5633.952381" y1="116.000000" y2="121.000000" stroke="#AAAAAA" /><text style="font-size:10px;font-family:OpenSans;fill:#000000;" text-anchor="middle" x="5633.952381" y="131.000000">1439</text><line x1="5712.047619" x2="5712.047619" y1="116.000000" y2="121.000000" stroke="#AAAAAA" /><text style="font-size:10px;font-family:OpenSans;fill:#000000;" text-anchor="middle" x="5712.047619" y="131.000000">1459</text><line x1="5735.476190" x2="5735.476190" y1="116.000000" y2="121.000000" stroke="#AAAAAA" /><text style="font-size:10px;font-family:OpenSans;fill:#000000;" text-anchor="middle" x="5735.476190" y="131.000000">1465</text><line x1="6071.285714" x2="6071.285714" y1="116.000000" y2="121.000000" stroke="#AAAAAA" /><text style="font-size:10px;font-family:OpenSans;fill:#000000;" text-anchor="middle" x="6071.285714" y="131.000000">1551</text><line x1="6094.714286" x2="6094.714286" y1="116.000000" y2="121.000000" stroke="#AAAAAA" /><text style="font-size:10px;font-family:OpenSans;fill:#000000;" text-anchor="middle" x="6094.714286" y="131.000000">1557</text><line x1="6165.000000" x2="6165.000000" y1="116.000000" y2="121.000000" stroke="#AAAAAA" /><text style="font-size:10px;font-family:OpenSans;fill:#000000;" text-anchor="middle" x="6165.000000" y="131.000000">1575</text></g>
<rect fill="#FF7DFF" x="4" y="145.000000" width="12" height="12" filter="url(#ds)"/><text style="font-size:12px;font-family:OpenSans;fill:#000000;" text-anchor="start" x="20" y="157.000000">Laminin EGF domain</text></svg>
