<?xml version='1.0'?>
<svg xmlns="http://www.w3.org/2000/svg" xmlns:xlink="http://www.w3.org/1999/xlink" width="430.000000" height="145.500000">
<defs>
  <filter id="ds" x="0" y="0">
    <feOffset in="SourceAlpha" dx="2" dy="2" />
    <feComponentTransfer><feFuncA type="linear" slope="0.2"/></feComponentTransfer>
    <feGaussianBlur result="blurOut" stdDeviation="1" />
    <feBlend in="SourceGraphic" in2="blurOut" mode="normal" />
  </filter>
  <pattern id="disordered-hatch" patternUnits="userSpaceOnUse" width="4" height="4">
    <path d="M-1,1 l2,-2 M0,4 l4,-4 M3,5 l2,-2" stroke="#000000" opacity="0.3" />
  </pattern>
</defs>
<line x1="143.643216" x2="143.643216" y1="46.500000" y2="74.500000" stroke="#BABDB6" stroke-width="2"/><a xlink:title="T128A"><circle cx="143.643216" cy="46.500000" r="4.000000" fill="#ff0000" /></a><g transform="translate(143.643216,46.500000) rotate(-30)"><text style="font-size:10px;font-family:OpenSans;fill:#555;" text-anchor="middle" x="0" y="-6.000000">T128A</text></g><line x1="153.693467" x2="153.693467" y1="46.500000" y2="74.500000" stroke="#BABDB6" stroke-width="2"/><a xlink:title="T138A"><circle cx="153.693467" cy="46.500000" r="4.000000" fill="#ff0000" /></a><g transform="translate(153.693467,46.500000) rotate(-30)"><text style="font-size:10px;font-family:OpenSans;fill:#555;" text-anchor="middle" x="0" y="-6.000000">T138A</text></g><line x1="176.809045" x2="176.809045" y1="46.500000" y2="74.500000" stroke="#BABDB6" stroke-width="2"/><a xlink:title="T161A"><circle cx="176.809045" cy="46.500000" r="4.000000" fill="#ff0000" /></a><g transform="translate(176.809045,46.500000) rotate(-30)"><text style="font-size:10px;font-family:OpenSans;fill:#555;" text-anchor="middle" x="0" y="-6.000000">T161A</text></g><line x1="186.859296" x2="186.859296" y1="46.500000" y2="74.500000" stroke="#BABDB6" stroke-width="2"/><a xlink:title="T171A"><circle cx="186.859296" cy="46.500000" r="4.000000" fill="#ff0000" /></a><g transform="translate(186.859296,46.500000) rotate(-30)"><text style="font-size:10px;font-family:OpenSans;fill:#555;" text-anchor="middle" x="0" y="-6.000000">T171A</text></g><line x1="206.959799" x2="206.959799" y1="46.500000" y2="74.500000" stroke="#BABDB6" stroke-width="2"/><a xlink:title="F191I"><circle cx="206.959799" cy="46.500000" r="4.000000" fill="#ff0000" /></a><g transform="translate(206.959799,46.500000) rotate(-30)"><text style="font-size:10px;font-family:OpenSans;fill:#555;" text-anchor="middle" x="0" y="-6.000000">F191I</text></g><line x1="217.010050" x2="217.010050" y1="46.500000" y2="74.500000" stroke="#BABDB6" stroke-width="2"/><a xlink:title="F201I"><circle cx="217.010050" cy="46.500000" r="4.000000" fill="#ff0000" /></a><g transform="translate(217.010050,46.500000) rotate(-30)"><text style="font-size:10px;font-family:OpenSans;fill:#555;" text-anchor="middle" x="0" y="-6.000000">F201I</text></g><line x1="240.125628" x2="240.125628" y1="46.500000" y2="74.500000" stroke="#BABDB6" stroke-width="2"/><a xlink:title="F224I"><circle cx="240.125628" cy="46.500000" r="4.000000" fill="#ff0000" /></a><g transform="translate(240.125628,46.500000) rotate(-30)"><text style="font-size:10px;font-family:OpenSans;fill:#555;" text-anchor="middle" x="0" y="-6.000000">F224I</text></g><line x1="250.175879" x2="250.175879" y1="46.500000" y2="74.500000" stroke="#BABDB6" stroke-width="2"/><a xlink:title="F234I"><circle cx="250.175879" cy="46.500000" r="4.000000" fill="#ff0000" /></a><g transform="translate(250.175879,46.500000) rotate(-30)"><text style="font-size:10px;font-family:OpenSans;fill:#555;" text-anchor="middle" x="0" y="-6.000000">F234I</text></g><line x1="258.216080" x2="258.216080" y1="46.500000" y2="74.500000" stroke="#BABDB6" stroke-width="2"/><a xlink:title="L242V"><circle cx="258.216080" cy="46.500000" r="4.000000" fill="#ff0000" /></a><g transform="translate(258.216080,46.500000) rotate(-30)"><text style="font-size:10px;font-family:OpenSans;fill:#555;" text-anchor="middle" x="0" y="-6.000000">L242V</text></g><line x1="268.266332" x2="268.266332" y1="46.500000" y2="74.500000" stroke="#BABDB6" stroke-width="2"/><a xlink:title="L252V"><circle cx="268.266332" cy="46.500000" r="4.000000" fill="#ff0000" /></a><g transform="translate(268.266332,46.500000) rotate(-30)"><text style="font-size:10px;font-family:OpenSans;fill:#555;" text-anchor="middle" x="0" y="-6.000000">L252V</text></g><line x1="291.381910" x2="291.381910" y1="46.500000" y2="74.500000" stroke="#BABDB6" stroke-width="2"/><a xlink:title="L275V"><circle cx="291.381910" cy="46.500000" r="4.000000" fill="#ff0000" /></a><g transform="translate(291.381910,46.500000) rotate(-30)"><text style="font-size:10px;font-family:OpenSans;fill:#555;" text-anchor="middle" x="0" y="-6.000000">L275V</text></g><line x1="301.432161" x2="301.432161" y1="34.000000" y2="74.500000" stroke="#BABDB6" stroke-width="2"/><a xlink:title="L285V"><circle cx="301.432161" cy="34.000000" r="4.000000" fill="#ff0000" /></a><g transform="translate(301.432161,34.000000) rotate(-30)"><text style="font-size:10px;font-family:OpenSans;fill:#555;" text-anchor="middle" x="0" y="-6.000000">L285V</text></g><line x1="305.452261" x2="305.452261" y1="46.500000" y2="74.500000" stroke="#BABDB6" stroke-width="2"/><a xlink:title="Q289Q"><circle cx="305.452261" cy="46.500000" r="4.000000" fill="#0000ff" /></a><g transform="translate(305.452261,46.500000) rotate(-30)"><text style="font-size:10px;font-family:OpenSans;fill:#555;" text-anchor="middle" x="0" y="-6.000000">Q289Q</text></g><line x1="315.502513" x2="315.502513" y1="46.500000" y2="74.500000" stroke="#BABDB6" stroke-width="2"/><a xlink:title="Q299Q"><circle cx="315.502513" cy="46.500000" r="4.000000" fill="#0000ff" /></a><g transform="translate(315.502513,46.500000) rotate(-30)"><text style="font-size:10px;font-family:OpenSans;fill:#555;" text-anchor="middle" x="0" y="-6.000000">Q299Q</text></g><line x1="338.618090" x2="338.618090" y1="46.500000" y2="74.500000" stroke="#BABDB6" stroke-width="2"/><a xlink:title="Q322Q"><circle cx="338.618090" cy="46.500000" r="4.000000" fill="#0000ff" /></a><g transform="translate(338.618090,46.500000) rotate(-30)"><text style="font-size:10px;font-family:OpenSans;fill:#555;" text-anchor="middle" x="0" y="-6.000000">Q322Q</text></g><line x1="348.668342" x2="348.668342" y1="46.500000" y2="74.500000" stroke="#BABDB6" stroke-width="2"/><a xlink:title="Q332Q"><circle cx="348.668342" cy="46.500000" r="4.000000" fill="#0000ff" /></a><g transform="translate(348.668342,46.500000) rotate(-30)"><text style="font-size:10px;font-family:OpenSans;fill:#555;" text-anchor="middle" x="0" y="-6.000000">Q332Q</text></g><a xlink:title=",  (398aa)"><rect fill="#BABDB6" x="15.000000" y="74.500000" width="400.000000" height="14.000000"/></a><g transform="translate(93.391960,69.500000)"><a xlink:href="https://www.ebi.ac.uk/interpro/entry/pfam/PF00561" xlink:title="alpha/beta hydrolase fold"><rect fill="#2DCF00" x="0" y="0" width="300.502513" height="24.000000" filter="url(#ds)"/><text style="font-size:12px;font-family:OpenSans;fill:#ffffff;" text-anchor="middle" x="150.251256" y="16.000000">alpha/beta hydrolase fold</text></a></g>
<g class="axis">
<line x1="15.000000" x2="415.000000" y1="103.500000" y2="103.500000" stroke="#AAAAAA" /><line x1="15.000000" x2="15.000000" y1="103.500000" y2="108.500000" stroke="#AAAAAA" /><line x1="15.000000" x2="15.000000" y1="103.500000" y2="108.500000" stroke="#AAAAAA" /><text style="font-size:10px;font-family:OpenSans;fill:#000000;" text-anchor="middle" x="15.000000" y="118.500000">0</text><line x1="93.391960" x2="93.391960" y1="103.500000" y2="108.500000" stroke="#AAAAAA" /><text style="font-size:10px;font-family:OpenSans;fill:#000000;" text-anchor="middle" x="93.391960" y="118.500000">78</text><line x1="143.643216" x2="143.643216" y1="103.500000" y2="108.500000" stroke="#AAAAAA" /><text style="font-size:10px;font-family:OpenSans;fill:#000000;" text-anchor="middle" x="143.643216" y="118.500000">128</text><line x1="176.809045" x2="176.809045" y1="103.500000" y2="108.500000" stroke="#AAAAAA" /><text style="font-size:10px;font-family:OpenSans;fill:#000000;" text-anchor="middle" x="176.809045" y="118.500000">161</text><line x1="206.959799" x2="206.959799" y1="103.500000" y2="108.500000" stroke="#AAAAAA" /><text style="font-size:10px;font-family:OpenSans;fill:#000000;" text-anchor="middle" x="206.959799" y="118.500000">191</text><line x1="240.125628" x2="240.125628" y1="103.500000" y2="108.500000" stroke="#AAAAAA" /><text style="font-size:10px;font-family:OpenSans;fill:#000000;" text-anchor="middle" x="240.125628" y="118.500000">224</text><line x1="268.266332" x2="268.266332" y1="103.500000" y2="108.500000" stroke="#AAAAAA" /><text style="font-size:10px;font-family:OpenSans;fill:#000000;" text-anchor="middle" x="268.266332" y="118.500000">252</text><line x1="291.381910" x2="291.381910" y1="103.500000" y2="108.500000" stroke="#AAAAAA" /><text style="font-size:10px;font-family:OpenSans;fill:#000000;" text-anchor="middle" x="291.381910" y="118.500000">275</text><line x1="315.502513" x2="315.502513" y1="103.500000" y2="108.500000" stroke="#AAAAAA" /><text style="font-size:10px;font-family:OpenSans;fill:#000000;" text-anchor="middle" x="315.502513" y="118.500000">299</text><line x1="338.618090" x2="338.618090" y1="103.500000" y2="108.500000" stroke="#AAAAAA" /><text style="font-size:10px;font-family:OpenSans;fill:#000000;" text-anchor="middle" x="338.618090" y="118.500000">322</text><line x1="393.894472" x2="393.894472" y1="103.500000" y2="108.500000" stroke="#AAAAAA" /><text style="font-size:10px;font-family:OpenSans;fill:#000000;" text-anchor="middle" x="393.894472" y="118.500000">377</text><line x1="415.000000" x2="415.000000" y1="103.500000" y2="108.500000" stroke="#AAAAAA" /><text style="font-size:10px;font-family:OpenSans;fill:#000000;" text-anchor="middle" x="415.000000" y="118.500000">398</text></g>
</svg>
