<?xml version='1.0'?>
<svg xmlns="http://www.w3.org/2000/svg" xmlns:xlink="http://www.w3.org/1999/xlink" width="430.000000" height="183.700000">
<defs>
  <filter id="ds" x="0" y="0">
    <feOffset in="SourceAlpha" dx="2" dy="2" />
    <feComponentTransfer><feFuncA type="linear" slope="0.2"/></feComponentTransfer>
    <feGaussianBlur result="blurOut" stdDeviation="1" />
    <feBlend in="SourceGraphic" in2="blurOut" mode="normal" />
  </filter>
  <pattern id="disordered-hatch" patternUnits="userSpaceOnUse" width="4" height="4">
    <path d="M-1,1 l2,-2 M0,4 l4,-4 M3,5 l2,-2" stroke="#000000" opacity="0.3" />
  </pattern>
</defs>
<line x1="39.691358" x2="39.691358" y1="59.000000" y2="99.500000" stroke="#BABDB6" stroke-width="2"/><a xlink:title="A35A"><circle cx="39.691358" cy="59.000000" r="4.000000" fill="#0000ff" /></a><g transform="translate(39.691358,59.000000) rotate(-30)"><text style="font-size:10px;font-family:OpenSans;fill:#555;" text-anchor="middle" x="0" y="-6.000000">A35A</text></g><line x1="40.396825" x2="40.396825" y1="71.500000" y2="99.500000" stroke="#BABDB6" stroke-width="2"/><a xlink:title="G36D"><circle cx="40.396825" cy="71.500000" r="4.000000" fill="#ff0000" /></a><g transform="translate(40.396825,71.500000) rotate(-30)"><text style="font-size:10px;font-family:OpenSans;fill:#555;" text-anchor="middle" x="0" y="-6.000000">G36D</text></g><line x1="48.156966" x2="48.156966" y1="59.000000" y2="99.500000" stroke="#BABDB6" stroke-width="2"/><a xlink:title="T47T"><circle cx="48.156966" cy="59.000000" r="4.000000" fill="#0000ff" /></a><g transform="translate(48.156966,59.000000) rotate(-30)"><text style="font-size:10px;font-family:OpenSans;fill:#555;" text-anchor="middle" x="0" y="-6.000000">T47T</text></g><line x1="48.862434" x2="48.862434" y1="71.500000" y2="99.500000" stroke="#BABDB6" stroke-width="2"/><a xlink:title="G48G"><circle cx="48.862434" cy="71.500000" r="4.000000" fill="#0000ff" /></a><g transform="translate(48.862434,71.500000) rotate(-30)"><text style="font-size:10px;font-family:OpenSans;fill:#555;" text-anchor="middle" x="0" y="-6.000000">G48G</text></g><line x1="62.971781" x2="62.971781" y1="34.000000" y2="99.500000" stroke="#BABDB6" stroke-width="2"/><a xlink:title="P68L"><circle cx="62.971781" cy="34.000000" r="4.000000" fill="#ff0000" /></a><g transform="translate(62.971781,34.000000) rotate(-30)"><text style="font-size:10px;font-family:OpenSans;fill:#555;" text-anchor="middle" x="0" y="-6.000000">P68L</text></g><line x1="64.382716" x2="64.382716" y1="46.500000" y2="99.500000" stroke="#BABDB6" stroke-width="2"/><a xlink:title="A70A"><circle cx="64.382716" cy="46.500000" r="4.000000" fill="#0000ff" /></a><g transform="translate(64.382716,46.500000) rotate(-30)"><text style="font-size:10px;font-family:OpenSans;fill:#555;" text-anchor="middle" x="0" y="-6.000000">A70A</text></g><line x1="65.088183" x2="65.088183" y1="59.000000" y2="99.500000" stroke="#BABDB6" stroke-width="2"/><a xlink:title="T71T"><circle cx="65.088183" cy="59.000000" r="4.000000" fill="#0000ff" /></a><g transform="translate(65.088183,59.000000) rotate(-30)"><text style="font-size:10px;font-family:OpenSans;fill:#555;" text-anchor="middle" x="0" y="-6.000000">T71T</text></g><line x1="65.793651" x2="65.793651" y1="71.500000" y2="99.500000" stroke="#BABDB6" stroke-width="2"/><a xlink:title="G72G"><circle cx="65.793651" cy="71.500000" r="4.000000" fill="#0000ff" /></a><g transform="translate(65.793651,71.500000) rotate(-30)"><text style="font-size:10px;font-family:OpenSans;fill:#555;" text-anchor="middle" x="0" y="-6.000000">G72G</text></g><line x1="74.964727" x2="74.964727" y1="59.000000" y2="99.500000" stroke="#BABDB6" stroke-width="2"/><a xlink:title="L85L"><circle cx="74.964727" cy="59.000000" r="4.000000" fill="#0000ff" /></a><g transform="translate(74.964727,59.000000) rotate(-30)"><text style="font-size:10px;font-family:OpenSans;fill:#555;" text-anchor="middle" x="0" y="-6.000000">L85L</text></g><line x1="79.902998" x2="79.902998" y1="71.500000" y2="99.500000" stroke="#BABDB6" stroke-width="2"/><a xlink:title="P92L"><circle cx="79.902998" cy="71.500000" r="4.000000" fill="#ff0000" /></a><g transform="translate(79.902998,71.500000) rotate(-30)"><text style="font-size:10px;font-family:OpenSans;fill:#555;" text-anchor="middle" x="0" y="-6.000000">P92L</text></g><line x1="86.957672" x2="86.957672" y1="71.500000" y2="99.500000" stroke="#BABDB6" stroke-width="2"/><a xlink:title="T102T"><circle cx="86.957672" cy="71.500000" r="4.000000" fill="#0000ff" /></a><g transform="translate(86.957672,71.500000) rotate(-30)"><text style="font-size:10px;font-family:OpenSans;fill:#555;" text-anchor="middle" x="0" y="-6.000000">T102T</text></g><line x1="98.950617" x2="98.950617" y1="71.500000" y2="99.500000" stroke="#BABDB6" stroke-width="2"/><a xlink:title="A119A"><circle cx="98.950617" cy="71.500000" r="4.000000" fill="#0000ff" /></a><g transform="translate(98.950617,71.500000) rotate(-30)"><text style="font-size:10px;font-family:OpenSans;fill:#555;" text-anchor="middle" x="0" y="-6.000000">A119A</text></g><line x1="115.881834" x2="115.881834" y1="71.500000" y2="99.500000" stroke="#BABDB6" stroke-width="2"/><a xlink:title="A143A"><circle cx="115.881834" cy="71.500000" r="4.000000" fill="#0000ff" /></a><g transform="translate(115.881834,71.500000) rotate(-30)"><text style="font-size:10px;font-family:OpenSans;fill:#555;" text-anchor="middle" x="0" y="-6.000000">A143A</text></g><line x1="123.641975" x2="123.641975" y1="71.500000" y2="99.500000" stroke="#BABDB6" stroke-width="2"/><a xlink:title="A154A"><circle cx="123.641975" cy="71.500000" r="4.000000" fill="#0000ff" /></a><g transform="translate(123.641975,71.500000) rotate(-30)"><text style="font-size:10px;font-family:OpenSans;fill:#555;" text-anchor="middle" x="0" y="-6.000000">A154A</text></g><line x1="140.573192" x2="140.573192" y1="46.500000" y2="99.500000" stroke="#BABDB6" stroke-width="2"/><a xlink:title="A178A"><circle cx="140.573192" cy="46.500000" r="4.000000" fill="#0000ff" /></a><g transform="translate(140.573192,46.500000) rotate(-30)"><text style="font-size:10px;font-family:OpenSans;fill:#555;" text-anchor="middle" x="0" y="-6.000000">A178A</text></g><line x1="141.984127" x2="141.984127" y1="59.000000" y2="99.500000" stroke="#BABDB6" stroke-width="2"/><a xlink:title="T180T"><circle cx="141.984127" cy="59.000000" r="4.000000" fill="#0000ff" /></a><g transform="translate(141.984127,59.000000) rotate(-30)"><text style="font-size:10px;font-family:OpenSans;fill:#555;" text-anchor="middle" x="0" y="-6.000000">T180T</text></g><line x1="142.689594" x2="142.689594" y1="71.500000" y2="99.500000" stroke="#BABDB6" stroke-width="2"/><a xlink:title="G181G"><circle cx="142.689594" cy="71.500000" r="4.000000" fill="#0000ff" /></a><g transform="translate(142.689594,71.500000) rotate(-30)"><text style="font-size:10px;font-family:OpenSans;fill:#555;" text-anchor="middle" x="0" y="-6.000000">G181G</text></g><line x1="151.155203" x2="151.155203" y1="59.000000" y2="99.500000" stroke="#BABDB6" stroke-width="2"/><a xlink:title="G193R"><circle cx="151.155203" cy="59.000000" r="4.000000" fill="#ff0000" /></a><g transform="translate(151.155203,59.000000) rotate(-30)"><text style="font-size:10px;font-family:OpenSans;fill:#555;" text-anchor="middle" x="0" y="-6.000000">G193R</text></g><line x1="156.798942" x2="156.798942" y1="71.500000" y2="99.500000" stroke="#BABDB6" stroke-width="2"/><a xlink:title="P201L"><circle cx="156.798942" cy="71.500000" r="4.000000" fill="#ff0000" /></a><g transform="translate(156.798942,71.500000) rotate(-30)"><text style="font-size:10px;font-family:OpenSans;fill:#555;" text-anchor="middle" x="0" y="-6.000000">P201L</text></g><line x1="192.777778" x2="192.777778" y1="71.500000" y2="99.500000" stroke="#BABDB6" stroke-width="2"/><a xlink:title="A252A"><circle cx="192.777778" cy="71.500000" r="4.000000" fill="#0000ff" /></a><g transform="translate(192.777778,71.500000) rotate(-30)"><text style="font-size:10px;font-family:OpenSans;fill:#555;" text-anchor="middle" x="0" y="-6.000000">A252A</text></g><line x1="210.414462" x2="210.414462" y1="71.500000" y2="99.500000" stroke="#BABDB6" stroke-width="2"/><a xlink:title="G277R"><circle cx="210.414462" cy="71.500000" r="4.000000" fill="#ff0000" /></a><g transform="translate(210.414462,71.500000) rotate(-30)"><text style="font-size:10px;font-family:OpenSans;fill:#555;" text-anchor="middle" x="0" y="-6.000000">G277R</text></g><line x1="217.469136" x2="217.469136" y1="71.500000" y2="99.500000" stroke="#BABDB6" stroke-width="2"/><a xlink:title="A287A"><circle cx="217.469136" cy="71.500000" r="4.000000" fill="#0000ff" /></a><g transform="translate(217.469136,71.500000) rotate(-30)"><text style="font-size:10px;font-family:OpenSans;fill:#555;" text-anchor="middle" x="0" y="-6.000000">A287A</text></g><line x1="227.345679" x2="227.345679" y1="71.500000" y2="99.500000" stroke="#BABDB6" stroke-width="2"/><a xlink:title="G301R"><circle cx="227.345679" cy="71.500000" r="4.000000" fill="#ff0000" /></a><g transform="translate(227.345679,71.500000) rotate(-30)"><text style="font-size:10px;font-family:OpenSans;fill:#555;" text-anchor="middle" x="0" y="-6.000000">G301R</text></g><line x1="258.386243" x2="258.386243" y1="59.000000" y2="99.500000" stroke="#BABDB6" stroke-width="2"/><a xlink:title="P345R"><circle cx="258.386243" cy="59.000000" r="4.000000" fill="#ff0000" /></a><g transform="translate(258.386243,59.000000) rotate(-30)"><text style="font-size:10px;font-family:OpenSans;fill:#555;" text-anchor="middle" x="0" y="-6.000000">P345R</text></g><line x1="259.091711" x2="259.091711" y1="71.500000" y2="99.500000" stroke="#BABDB6" stroke-width="2"/><a xlink:title="L346R"><circle cx="259.091711" cy="71.500000" r="4.000000" fill="#ff0000" /></a><g transform="translate(259.091711,71.500000) rotate(-30)"><text style="font-size:10px;font-family:OpenSans;fill:#555;" text-anchor="middle" x="0" y="-6.000000">L346R</text></g><line x1="304.241623" x2="304.241623" y1="71.500000" y2="99.500000" stroke="#BABDB6" stroke-width="2"/><a xlink:title="G410R"><circle cx="304.241623" cy="71.500000" r="4.000000" fill="#ff0000" /></a><g transform="translate(304.241623,71.500000) rotate(-30)"><text style="font-size:10px;font-family:OpenSans;fill:#555;" text-anchor="middle" x="0" y="-6.000000">G410R</text></g><line x1="317.645503" x2="317.645503" y1="59.000000" y2="99.500000" stroke="#BABDB6" stroke-width="2"/><a xlink:title="P429R"><circle cx="317.645503" cy="59.000000" r="4.000000" fill="#ff0000" /></a><g transform="translate(317.645503,59.000000) rotate(-30)"><text style="font-size:10px;font-family:OpenSans;fill:#555;" text-anchor="middle" x="0" y="-6.000000">P429R</text></g><line x1="318.350970" x2="318.350970" y1="71.500000" y2="99.500000" stroke="#BABDB6" stroke-width="2"/><a xlink:title="L430R"><circle cx="318.350970" cy="71.500000" r="4.000000" fill="#ff0000" /></a><g transform="translate(318.350970,71.500000) rotate(-30)"><text style="font-size:10px;font-family:OpenSans;fill:#555;" text-anchor="middle" x="0" y="-6.000000">L430R</text></g><line x1="334.576720" x2="334.576720" y1="59.000000" y2="99.500000" stroke="#BABDB6" stroke-width="2"/><a xlink:title="P453R"><circle cx="334.576720" cy="59.000000" r="4.000000" fill="#ff0000" /></a><g transform="translate(334.576720,59.000000) rotate(-30)"><text style="font-size:10px;font-family:OpenSans;fill:#555;" text-anchor="middle" x="0" y="-6.000000">P453R</text></g><line x1="335.282187" x2="335.282187" y1="71.500000" y2="99.500000" stroke="#BABDB6" stroke-width="2"/><a xlink:title="L454R"><circle cx="335.282187" cy="71.500000" r="4.000000" fill="#ff0000" /></a><g transform="translate(335.282187,71.500000) rotate(-30)"><text style="font-size:10px;font-family:OpenSans;fill:#555;" text-anchor="middle" x="0" y="-6.000000">L454R</text></g><line x1="392.425044" x2="392.425044" y1="59.000000" y2="99.500000" stroke="#BABDB6" stroke-width="2"/><a xlink:title="A535A"><circle cx="392.425044" cy="59.000000" r="4.000000" fill="#0000ff" /></a><g transform="translate(392.425044,59.000000) rotate(-30)"><text style="font-size:10px;font-family:OpenSans;fill:#555;" text-anchor="middle" x="0" y="-6.000000">A535A</text></g><line x1="393.130511" x2="393.130511" y1="71.500000" y2="99.500000" stroke="#BABDB6" stroke-width="2"/><a xlink:title="S536S"><circle cx="393.130511" cy="71.500000" r="4.000000" fill="#0000ff" /></a><g transform="translate(393.130511,71.500000) rotate(-30)"><text style="font-size:10px;font-family:OpenSans;fill:#555;" text-anchor="middle" x="0" y="-6.000000">S536S</text></g><line x1="411.472663" x2="411.472663" y1="59.000000" y2="99.500000" stroke="#BABDB6" stroke-width="2"/><a xlink:title="P562R"><circle cx="411.472663" cy="59.000000" r="4.000000" fill="#ff0000" /></a><g transform="translate(411.472663,59.000000) rotate(-30)"><text style="font-size:10px;font-family:OpenSans;fill:#555;" text-anchor="middle" x="0" y="-6.000000">P562R</text></g><line x1="412.178131" x2="412.178131" y1="71.500000" y2="99.500000" stroke="#BABDB6" stroke-width="2"/><a xlink:title="L563R"><circle cx="412.178131" cy="71.500000" r="4.000000" fill="#ff0000" /></a><g transform="translate(412.178131,71.500000) rotate(-30)"><text style="font-size:10px;font-family:OpenSans;fill:#555;" text-anchor="middle" x="0" y="-6.000000">L563R</text></g><a xlink:title=",  (567aa)"><rect fill="#BABDB6" x="15.000000" y="99.500000" width="400.000000" height="14.000000"/></a><g transform="translate(134.223986,94.500000)"><a xlink:href="https://www.ebi.ac.uk/interpro/entry/pfam/PF06762" xlink:title="Lipase maturation factor"><rect fill="#2DCF00" x="0" y="0" width="114.285714" height="24.000000" filter="url(#ds)"/><text style="font-size:12px;font-family:OpenSans;fill:#ffffff;" text-anchor="middle" x="57.142857" y="16.000000">LMF1</text></a></g>
<g transform="translate(285.899471,94.500000)"><a xlink:href="https://www.ebi.ac.uk/interpro/entry/pfam/PF06762" xlink:title="Lipase maturation factor"><rect fill="#FF5353" x="0" y="0" width="113.580247" height="24.000000" filter="url(#ds)"/><text style="font-size:12px;font-family:OpenSans;fill:#ffffff;" text-anchor="middle" x="56.790123" y="16.000000">LMF1</text></a></g>
<g class="axis">
<line x1="15.000000" x2="415.000000" y1="128.500000" y2="128.500000" stroke="#AAAAAA" /><line x1="15.000000" x2="15.000000" y1="128.500000" y2="133.500000" stroke="#AAAAAA" /><line x1="15.000000" x2="15.000000" y1="128.500000" y2="133.500000" stroke="#AAAAAA" /><text style="font-size:10px;font-family:OpenSans;fill:#000000;" text-anchor="middle" x="15.000000" y="143.500000">0</text><line x1="39.691358" x2="39.691358" y1="128.500000" y2="133.500000" stroke="#AAAAAA" /><text style="font-size:10px;font-family:OpenSans;fill:#000000;" text-anchor="middle" x="39.691358" y="143.500000">35</text><line x1="62.971781" x2="62.971781" y1="128.500000" y2="133.500000" stroke="#AAAAAA" /><text style="font-size:10px;font-family:OpenSans;fill:#000000;" text-anchor="middle" x="62.971781" y="143.500000">68</text><line x1="86.957672" x2="86.957672" y1="128.500000" y2="133.500000" stroke="#AAAAAA" /><text style="font-size:10px;font-family:OpenSans;fill:#000000;" text-anchor="middle" x="86.957672" y="143.500000">102</text><line x1="115.881834" x2="115.881834" y1="128.500000" y2="133.500000" stroke="#AAAAAA" /><text style="font-size:10px;font-family:OpenSans;fill:#000000;" text-anchor="middle" x="115.881834" y="143.500000">143</text><line x1="140.573192" x2="140.573192" y1="128.500000" y2="133.500000" stroke="#AAAAAA" /><text style="font-size:10px;font-family:OpenSans;fill:#000000;" text-anchor="middle" x="140.573192" y="143.500000">178</text><line x1="192.777778" x2="192.777778" y1="128.500000" y2="133.500000" stroke="#AAAAAA" /><text style="font-size:10px;font-family:OpenSans;fill:#000000;" text-anchor="middle" x="192.777778" y="143.500000">252</text><line x1="217.469136" x2="217.469136" y1="128.500000" y2="133.500000" stroke="#AAAAAA" /><text style="font-size:10px;font-family:OpenSans;fill:#000000;" text-anchor="middle" x="217.469136" y="143.500000">287</text><line x1="258.386243" x2="258.386243" y1="128.500000" y2="133.500000" stroke="#AAAAAA" /><text style="font-size:10px;font-family:OpenSans;fill:#000000;" text-anchor="middle" x="258.386243" y="143.500000">345</text><line x1="304.241623" x2="304.241623" y1="128.500000" y2="133.500000" stroke="#AAAAAA" /><text style="font-size:10px;font-family:OpenSans;fill:#000000;" text-anchor="middle" x="304.241623" y="143.500000">410</text><line x1="334.576720" x2="334.576720" y1="128.500000" y2="133.500000" stroke="#AAAAAA" /><text style="font-size:10px;font-family:OpenSans;fill:#000000;" text-anchor="middle" x="334.576720" y="143.500000">453</text><line x1="392.425044" x2="392.425044" y1="128.500000" y2="133.500000" stroke="#AAAAAA" /><text style="font-size:10px;font-family:OpenSans;fill:#000000;" text-anchor="middle" x="392.425044" y="143.500000">535</text><line x1="415.000000" x2="415.000000" y1="128.500000" y2="133.500000" stroke="#AAAAAA" /><text style="font-size:10px;font-family:OpenSans;fill:#000000;" text-anchor="middle" x="415.000000" y="143.500000">567</text></g>
<rect fill="#FF5353" x="4" y="157.500000" width="12" height="12" filter="url(#ds)"/><text style="font-size:12px;font-family:OpenSans;fill:#000000;" text-anchor="start" x="20" y="169.500000">Lipase maturation factor</text></svg>
