<?xml version='1.0'?>
<svg xmlns="http://www.w3.org/2000/svg" xmlns:xlink="http://www.w3.org/1999/xlink" width="607.923077" height="234.400000">
<defs>
  <filter id="ds" x="0" y="0">
    <feOffset in="SourceAlpha" dx="2" dy="2" />
    <feComponentTransfer><feFuncA type="linear" slope="0.2"/></feComponentTransfer>
    <feGaussianBlur result="blurOut" stdDeviation="1" />
    <feBlend in="SourceGraphic" in2="blurOut" mode="normal" />
  </filter>
  <pattern id="disordered-hatch" patternUnits="userSpaceOnUse" width="4" height="4">
    <path d="M-1,1 l2,-2 M0,4 l4,-4 M3,5 l2,-2" stroke="#000000" opacity="0.3" />
  </pattern>
</defs>
<line x1="83.538462" x2="83.538462" y1="109.000000" y2="137.000000" stroke="#BABDB6" stroke-width="2"/><a xlink:title="P81P"><circle cx="83.538462" cy="109.000000" r="4.000000" fill="#0000ff" /></a><g transform="translate(83.538462,109.000000) rotate(-30)"><text style="font-size:10px;font-family:OpenSans;fill:#555;" text-anchor="middle" x="0" y="-6.000000">P81P</text></g><line x1="180.000000" x2="180.000000" y1="109.000000" y2="137.000000" stroke="#BABDB6" stroke-width="2"/><a xlink:title="S195I"><circle cx="180.000000" cy="109.000000" r="4.000000" fill="#ff0000" /></a><g transform="translate(180.000000,109.000000) rotate(-30)"><text style="font-size:10px;font-family:OpenSans;fill:#555;" text-anchor="middle" x="0" y="-6.000000">S195I</text></g><line x1="287.461538" x2="287.461538" y1="109.000000" y2="137.000000" stroke="#BABDB6" stroke-width="2"/><a xlink:title="D322G"><circle cx="287.461538" cy="109.000000" r="4.000000" fill="#ff0000" /></a><g transform="translate(287.461538,109.000000) rotate(-30)"><text style="font-size:10px;font-family:OpenSans;fill:#555;" text-anchor="middle" x="0" y="-6.000000">D322G</text></g><line x1="300.153846" x2="300.153846" y1="96.500000" y2="137.000000" stroke="#BABDB6" stroke-width="2"/><a xlink:title="G337G"><circle cx="300.153846" cy="96.500000" r="4.000000" fill="#0000ff" /></a><g transform="translate(300.153846,96.500000) rotate(-30)"><text style="font-size:10px;font-family:OpenSans;fill:#555;" text-anchor="middle" x="0" y="-6.000000">G337G</text></g><line x1="303.538462" x2="303.538462" y1="109.000000" y2="137.000000" stroke="#BABDB6" stroke-width="2"/><a xlink:title="G341G"><circle cx="303.538462" cy="109.000000" r="4.000000" fill="#0000ff" /></a><g transform="translate(303.538462,109.000000) rotate(-30)"><text style="font-size:10px;font-family:OpenSans;fill:#555;" text-anchor="middle" x="0" y="-6.000000">G341G</text></g><line x1="502.384615" x2="502.384615" y1="84.000000" y2="137.000000" stroke="#BABDB6" stroke-width="2"/><a xlink:title="R576*"><circle cx="502.384615" cy="84.000000" r="4.000000" fill="#0000ff" /></a><g transform="translate(502.384615,84.000000) rotate(-30)"><text style="font-size:10px;font-family:OpenSans;fill:#555;" text-anchor="middle" x="0" y="-6.000000">R576*</text></g><line x1="505.769231" x2="505.769231" y1="84.000000" y2="137.000000" stroke="#BABDB6" stroke-width="2"/><a xlink:title="M580V"><circle cx="505.769231" cy="84.000000" r="4.000000" fill="#ff0000" /></a><g transform="translate(505.769231,84.000000) rotate(-30)"><text style="font-size:10px;font-family:OpenSans;fill:#555;" text-anchor="middle" x="0" y="-6.000000">M580V</text></g><line x1="508.307692" x2="508.307692" y1="96.500000" y2="137.000000" stroke="#BABDB6" stroke-width="2"/><a xlink:title="V583V"><circle cx="508.307692" cy="96.500000" r="4.000000" fill="#0000ff" /></a><g transform="translate(508.307692,96.500000) rotate(-30)"><text style="font-size:10px;font-family:OpenSans;fill:#555;" text-anchor="middle" x="0" y="-6.000000">V583V</text></g><line x1="511.692308" x2="511.692308" y1="109.000000" y2="137.000000" stroke="#BABDB6" stroke-width="2"/><a xlink:title="V587V"><circle cx="511.692308" cy="109.000000" r="4.000000" fill="#0000ff" /></a><g transform="translate(511.692308,109.000000) rotate(-30)"><text style="font-size:10px;font-family:OpenSans;fill:#555;" text-anchor="middle" x="0" y="-6.000000">V587V</text></g><line x1="521.846154" x2="521.846154" y1="71.500000" y2="137.000000" stroke="#BABDB6" stroke-width="2"/><a xlink:title="R599*"><circle cx="521.846154" cy="71.500000" r="4.000000" fill="#0000ff" /></a><g transform="translate(521.846154,71.500000) rotate(-30)"><text style="font-size:10px;font-family:OpenSans;fill:#555;" text-anchor="middle" x="0" y="-6.000000">R599*</text></g><line x1="525.230769" x2="525.230769" y1="84.000000" y2="137.000000" stroke="#BABDB6" stroke-width="2"/><a xlink:title="M603V"><circle cx="525.230769" cy="84.000000" r="4.000000" fill="#ff0000" /></a><g transform="translate(525.230769,84.000000) rotate(-30)"><text style="font-size:10px;font-family:OpenSans;fill:#555;" text-anchor="middle" x="0" y="-6.000000">M603V</text></g><line x1="526.076923" x2="526.076923" y1="84.000000" y2="137.000000" stroke="#BABDB6" stroke-width="2"/><a xlink:title="S604S"><circle cx="526.076923" cy="84.000000" r="4.000000" fill="#0000ff" /></a><g transform="translate(526.076923,84.000000) rotate(-30)"><text style="font-size:10px;font-family:OpenSans;fill:#555;" text-anchor="middle" x="0" y="-6.000000">S604S</text></g><line x1="527.769231" x2="527.769231" y1="96.500000" y2="137.000000" stroke="#BABDB6" stroke-width="2"/><a xlink:title="V606V"><circle cx="527.769231" cy="96.500000" r="4.000000" fill="#0000ff" /></a><g transform="translate(527.769231,96.500000) rotate(-30)"><text style="font-size:10px;font-family:OpenSans;fill:#555;" text-anchor="middle" x="0" y="-6.000000">V606V</text></g><line x1="532.000000" x2="532.000000" y1="59.000000" y2="137.000000" stroke="#BABDB6" stroke-width="2"/><a xlink:title="R611*"><circle cx="532.000000" cy="59.000000" r="4.000000" fill="#0000ff" /></a><g transform="translate(532.000000,59.000000) rotate(-30)"><text style="font-size:10px;font-family:OpenSans;fill:#555;" text-anchor="middle" x="0" y="-6.000000">R611*</text></g><line x1="534.538462" x2="534.538462" y1="59.000000" y2="137.000000" stroke="#BABDB6" stroke-width="2"/><a xlink:title="R614*"><circle cx="534.538462" cy="59.000000" r="4.000000" fill="#0000ff" /></a><g transform="translate(534.538462,59.000000) rotate(-30)"><text style="font-size:10px;font-family:OpenSans;fill:#555;" text-anchor="middle" x="0" y="-6.000000">R614*</text></g><line x1="535.384615" x2="535.384615" y1="59.000000" y2="137.000000" stroke="#BABDB6" stroke-width="2"/><a xlink:title="M615V"><circle cx="535.384615" cy="59.000000" r="4.000000" fill="#ff0000" /></a><g transform="translate(535.384615,59.000000) rotate(-30)"><text style="font-size:10px;font-family:OpenSans;fill:#555;" text-anchor="middle" x="0" y="-6.000000">M615V</text></g><line x1="535.384615" x2="535.384615" y1="71.500000" y2="137.000000" stroke="#BABDB6" stroke-width="2"/><a xlink:title="R615*"><circle cx="535.384615" cy="71.500000" r="4.000000" fill="#0000ff" /></a><g transform="translate(535.384615,71.500000) rotate(-30)"><text style="font-size:10px;font-family:OpenSans;fill:#555;" text-anchor="middle" x="0" y="-6.000000">R615*</text></g><line x1="537.923077" x2="537.923077" y1="84.000000" y2="137.000000" stroke="#BABDB6" stroke-width="2"/><a xlink:title="M618V"><circle cx="537.923077" cy="84.000000" r="4.000000" fill="#ff0000" /></a><g transform="translate(537.923077,84.000000) rotate(-30)"><text style="font-size:10px;font-family:OpenSans;fill:#555;" text-anchor="middle" x="0" y="-6.000000">M618V</text></g><line x1="538.769231" x2="538.769231" y1="96.500000" y2="137.000000" stroke="#BABDB6" stroke-width="2"/><a xlink:title="M619V"><circle cx="538.769231" cy="96.500000" r="4.000000" fill="#ff0000" /></a><g transform="translate(538.769231,96.500000) rotate(-30)"><text style="font-size:10px;font-family:OpenSans;fill:#555;" text-anchor="middle" x="0" y="-6.000000">M619V</text></g><line x1="541.307692" x2="541.307692" y1="96.500000" y2="137.000000" stroke="#BABDB6" stroke-width="2"/><a xlink:title="V622V"><circle cx="541.307692" cy="96.500000" r="4.000000" fill="#0000ff" /></a><g transform="translate(541.307692,96.500000) rotate(-30)"><text style="font-size:10px;font-family:OpenSans;fill:#555;" text-anchor="middle" x="0" y="-6.000000">V622V</text></g><line x1="545.538462" x2="545.538462" y1="96.500000" y2="137.000000" stroke="#BABDB6" stroke-width="2"/><a xlink:title="S627S"><circle cx="545.538462" cy="96.500000" r="4.000000" fill="#0000ff" /></a><g transform="translate(545.538462,96.500000) rotate(-30)"><text style="font-size:10px;font-family:OpenSans;fill:#555;" text-anchor="middle" x="0" y="-6.000000">S627S</text></g><line x1="551.461538" x2="551.461538" y1="71.500000" y2="137.000000" stroke="#BABDB6" stroke-width="2"/><a xlink:title="R634*"><circle cx="551.461538" cy="71.500000" r="4.000000" fill="#0000ff" /></a><g transform="translate(551.461538,71.500000) rotate(-30)"><text style="font-size:10px;font-family:OpenSans;fill:#555;" text-anchor="middle" x="0" y="-6.000000">R634*</text></g><line x1="554.846154" x2="554.846154" y1="34.000000" y2="137.000000" stroke="#BABDB6" stroke-width="2"/><a xlink:title="M638V"><circle cx="554.846154" cy="34.000000" r="4.000000" fill="#ff0000" /></a><g transform="translate(554.846154,34.000000) rotate(-30)"><text style="font-size:10px;font-family:OpenSans;fill:#555;" text-anchor="middle" x="0" y="-6.000000">M638V</text></g><line x1="554.846154" x2="554.846154" y1="46.500000" y2="137.000000" stroke="#BABDB6" stroke-width="2"/><a xlink:title="R638*"><circle cx="554.846154" cy="46.500000" r="4.000000" fill="#0000ff" /></a><g transform="translate(554.846154,46.500000) rotate(-30)"><text style="font-size:10px;font-family:OpenSans;fill:#555;" text-anchor="middle" x="0" y="-6.000000">R638*</text></g><line x1="555.692308" x2="555.692308" y1="59.000000" y2="137.000000" stroke="#BABDB6" stroke-width="2"/><a xlink:title="S639S"><circle cx="555.692308" cy="59.000000" r="4.000000" fill="#0000ff" /></a><g transform="translate(555.692308,59.000000) rotate(-30)"><text style="font-size:10px;font-family:OpenSans;fill:#555;" text-anchor="middle" x="0" y="-6.000000">S639S</text></g><line x1="558.230769" x2="558.230769" y1="71.500000" y2="137.000000" stroke="#BABDB6" stroke-width="2"/><a xlink:title="M642V"><circle cx="558.230769" cy="71.500000" r="4.000000" fill="#ff0000" /></a><g transform="translate(558.230769,71.500000) rotate(-30)"><text style="font-size:10px;font-family:OpenSans;fill:#555;" text-anchor="middle" x="0" y="-6.000000">M642V</text></g><line x1="558.230769" x2="558.230769" y1="59.000000" y2="137.000000" stroke="#BABDB6" stroke-width="2"/><a xlink:title="S642S"><circle cx="558.230769" cy="59.000000" r="4.000000" fill="#0000ff" /></a><g transform="translate(558.230769,59.000000) rotate(-30)"><text style="font-size:10px;font-family:OpenSans;fill:#555;" text-anchor="middle" x="0" y="-6.000000">S642S</text></g><line x1="559.076923" x2="559.076923" y1="84.000000" y2="137.000000" stroke="#BABDB6" stroke-width="2"/><a xlink:title="S643S"><circle cx="559.076923" cy="84.000000" r="4.000000" fill="#0000ff" /></a><g transform="translate(559.076923,84.000000) rotate(-30)"><text style="font-size:10px;font-family:OpenSans;fill:#555;" text-anchor="middle" x="0" y="-6.000000">S643S</text></g><line x1="560.769231" x2="560.769231" y1="96.500000" y2="137.000000" stroke="#BABDB6" stroke-width="2"/><a xlink:title="V645V"><circle cx="560.769231" cy="96.500000" r="4.000000" fill="#0000ff" /></a><g transform="translate(560.769231,96.500000) rotate(-30)"><text style="font-size:10px;font-family:OpenSans;fill:#555;" text-anchor="middle" x="0" y="-6.000000">V645V</text></g><line x1="564.153846" x2="564.153846" y1="109.000000" y2="137.000000" stroke="#BABDB6" stroke-width="2"/><a xlink:title="V649V"><circle cx="564.153846" cy="109.000000" r="4.000000" fill="#0000ff" /></a><g transform="translate(564.153846,109.000000) rotate(-30)"><text style="font-size:10px;font-family:OpenSans;fill:#555;" text-anchor="middle" x="0" y="-6.000000">V649V</text></g><line x1="575.153846" x2="575.153846" y1="96.500000" y2="137.000000" stroke="#BABDB6" stroke-width="2"/><a xlink:title="S662S"><circle cx="575.153846" cy="96.500000" r="4.000000" fill="#0000ff" /></a><g transform="translate(575.153846,96.500000) rotate(-30)"><text style="font-size:10px;font-family:OpenSans;fill:#555;" text-anchor="middle" x="0" y="-6.000000">S662S</text></g><line x1="578.538462" x2="578.538462" y1="109.000000" y2="137.000000" stroke="#BABDB6" stroke-width="2"/><a xlink:title="S666S"><circle cx="578.538462" cy="109.000000" r="4.000000" fill="#0000ff" /></a><g transform="translate(578.538462,109.000000) rotate(-30)"><text style="font-size:10px;font-family:OpenSans;fill:#555;" text-anchor="middle" x="0" y="-6.000000">S666S</text></g><a xlink:title=",  (683aa)"><rect fill="#BABDB6" x="15.000000" y="137.000000" width="577.923077" height="14.000000"/></a><g transform="translate(77.615385,132.000000)"><a xlink:href="https://www.ebi.ac.uk/interpro/entry/pfam/PF13855" xlink:title="Leucine rich repeat"><rect fill="#2DCF00" x="0" y="0" width="44.000000" height="24.000000" filter="url(#ds)"/><text style="font-size:12px;font-family:OpenSans;fill:#ffffff;" text-anchor="middle" x="22.000000" y="16.000000">LRR_8</text></a></g>
<g transform="translate(131.769231,132.000000)"><a xlink:href="https://www.ebi.ac.uk/interpro/entry/pfam/PF13855" xlink:title="Leucine rich repeat"><rect fill="#FF5353" x="0" y="0" width="47.384615" height="24.000000" filter="url(#ds)"/><text style="font-size:12px;font-family:OpenSans;fill:#ffffff;" text-anchor="middle" x="23.692308" y="16.000000">LRR_8</text></a></g>
<g transform="translate(469.384615,132.000000)"><a xlink:href="https://www.ebi.ac.uk/interpro/entry/pfam/PF00307" xlink:title="Calponin homology (CH) domain"><rect fill="#5B5BFF" x="0" y="0" width="79.538462" height="24.000000" filter="url(#ds)"/><text style="font-size:12px;font-family:OpenSans;fill:#ffffff;" text-anchor="middle" x="39.769231" y="16.000000">CH</text></a></g>
<g class="axis">
<line x1="15.000000" x2="592.923077" y1="166.000000" y2="166.000000" stroke="#AAAAAA" /><line x1="15.000000" x2="15.000000" y1="166.000000" y2="171.000000" stroke="#AAAAAA" /><line x1="15.000000" x2="15.000000" y1="166.000000" y2="171.000000" stroke="#AAAAAA" /><text style="font-size:10px;font-family:OpenSans;fill:#000000;" text-anchor="middle" x="15.000000" y="181.000000">0</text><line x1="83.538462" x2="83.538462" y1="166.000000" y2="171.000000" stroke="#AAAAAA" /><text style="font-size:10px;font-family:OpenSans;fill:#000000;" text-anchor="middle" x="83.538462" y="181.000000">81</text><line x1="121.615385" x2="121.615385" y1="166.000000" y2="171.000000" stroke="#AAAAAA" /><text style="font-size:10px;font-family:OpenSans;fill:#000000;" text-anchor="middle" x="121.615385" y="181.000000">126</text><line x1="180.000000" x2="180.000000" y1="166.000000" y2="171.000000" stroke="#AAAAAA" /><text style="font-size:10px;font-family:OpenSans;fill:#000000;" text-anchor="middle" x="180.000000" y="181.000000">195</text><line x1="287.461538" x2="287.461538" y1="166.000000" y2="171.000000" stroke="#AAAAAA" /><text style="font-size:10px;font-family:OpenSans;fill:#000000;" text-anchor="middle" x="287.461538" y="181.000000">322</text><line x1="469.384615" x2="469.384615" y1="166.000000" y2="171.000000" stroke="#AAAAAA" /><text style="font-size:10px;font-family:OpenSans;fill:#000000;" text-anchor="middle" x="469.384615" y="181.000000">537</text><line x1="502.384615" x2="502.384615" y1="166.000000" y2="171.000000" stroke="#AAAAAA" /><text style="font-size:10px;font-family:OpenSans;fill:#000000;" text-anchor="middle" x="502.384615" y="181.000000">576</text><line x1="521.846154" x2="521.846154" y1="166.000000" y2="171.000000" stroke="#AAAAAA" /><text style="font-size:10px;font-family:OpenSans;fill:#000000;" text-anchor="middle" x="521.846154" y="181.000000">599</text><line x1="541.307692" x2="541.307692" y1="166.000000" y2="171.000000" stroke="#AAAAAA" /><text style="font-size:10px;font-family:OpenSans;fill:#000000;" text-anchor="middle" x="541.307692" y="181.000000">622</text><line x1="560.769231" x2="560.769231" y1="166.000000" y2="171.000000" stroke="#AAAAAA" /><text style="font-size:10px;font-family:OpenSans;fill:#000000;" text-anchor="middle" x="560.769231" y="181.000000">645</text><line x1="592.923077" x2="592.923077" y1="166.000000" y2="171.000000" stroke="#AAAAAA" /><text style="font-size:10px;font-family:OpenSans;fill:#000000;" text-anchor="middle" x="592.923077" y="181.000000">683</text></g>
<rect fill="#FF5353" x="4" y="195.000000" width="12" height="12" filter="url(#ds)"/><text style="font-size:12px;font-family:OpenSans;fill:#000000;" text-anchor="start" x="20" y="207.000000">Leucine rich repeat</text><rect fill="#5B5BFF" x="4" y="209.000000" width="12" height="12" filter="url(#ds)"/><text style="font-size:12px;font-family:OpenSans;fill:#000000;" text-anchor="start" x="20" y="221.000000">Calponin homology (CH) domain</text></svg>
