<?xml version='1.0'?>
<svg xmlns="http://www.w3.org/2000/svg" xmlns:xlink="http://www.w3.org/1999/xlink" width="607.923077" height="184.400000">
<defs>
  <filter id="ds" x="0" y="0">
    <feOffset in="SourceAlpha" dx="2" dy="2" />
    <feComponentTransfer><feFuncA type="linear" slope="0.2"/></feComponentTransfer>
    <feGaussianBlur result="blurOut" stdDeviation="1" />
    <feBlend in="SourceGraphic" in2="blurOut" mode="normal" />
  </filter>
  <pattern id="disordered-hatch" patternUnits="userSpaceOnUse" width="4" height="4">
    <path d="M-1,1 l2,-2 M0,4 l4,-4 M3,5 l2,-2" stroke="#000000" opacity="0.3" />
  </pattern>
</defs>
<line x1="502.384615" x2="502.384615" y1="59.000000" y2="87.000000" stroke="#BABDB6" stroke-width="2"/><a xlink:title="R576*"><circle cx="502.384615" cy="59.000000" r="4.000000" fill="#0000ff" /></a><g transform="translate(502.384615,59.000000) rotate(-30)"><text style="font-size:10px;font-family:OpenSans;fill:#555;" text-anchor="middle" x="0" y="-6.000000">R576*</text></g><line x1="521.846154" x2="521.846154" y1="59.000000" y2="87.000000" stroke="#BABDB6" stroke-width="2"/><a xlink:title="R599*"><circle cx="521.846154" cy="59.000000" r="4.000000" fill="#0000ff" /></a><g transform="translate(521.846154,59.000000) rotate(-30)"><text style="font-size:10px;font-family:OpenSans;fill:#555;" text-anchor="middle" x="0" y="-6.000000">R599*</text></g><line x1="532.000000" x2="532.000000" y1="34.000000" y2="87.000000" stroke="#BABDB6" stroke-width="2"/><a xlink:title="R611*"><circle cx="532.000000" cy="34.000000" r="4.000000" fill="#0000ff" /></a><g transform="translate(532.000000,34.000000) rotate(-30)"><text style="font-size:10px;font-family:OpenSans;fill:#555;" text-anchor="middle" x="0" y="-6.000000">R611*</text></g><line x1="534.538462" x2="534.538462" y1="46.500000" y2="87.000000" stroke="#BABDB6" stroke-width="2"/><a xlink:title="R614*"><circle cx="534.538462" cy="46.500000" r="4.000000" fill="#0000ff" /></a><g transform="translate(534.538462,46.500000) rotate(-30)"><text style="font-size:10px;font-family:OpenSans;fill:#555;" text-anchor="middle" x="0" y="-6.000000">R614*</text></g><line x1="535.384615" x2="535.384615" y1="59.000000" y2="87.000000" stroke="#BABDB6" stroke-width="2"/><a xlink:title="R615*"><circle cx="535.384615" cy="59.000000" r="4.000000" fill="#0000ff" /></a><g transform="translate(535.384615,59.000000) rotate(-30)"><text style="font-size:10px;font-family:OpenSans;fill:#555;" text-anchor="middle" x="0" y="-6.000000">R615*</text></g><line x1="551.461538" x2="551.461538" y1="46.500000" y2="87.000000" stroke="#BABDB6" stroke-width="2"/><a xlink:title="R634*"><circle cx="551.461538" cy="46.500000" r="4.000000" fill="#0000ff" /></a><g transform="translate(551.461538,46.500000) rotate(-30)"><text style="font-size:10px;font-family:OpenSans;fill:#555;" text-anchor="middle" x="0" y="-6.000000">R634*</text></g><line x1="554.846154" x2="554.846154" y1="59.000000" y2="87.000000" stroke="#BABDB6" stroke-width="2"/><a xlink:title="R638*"><circle cx="554.846154" cy="59.000000" r="4.000000" fill="#0000ff" /></a><g transform="translate(554.846154,59.000000) rotate(-30)"><text style="font-size:10px;font-family:OpenSans;fill:#555;" text-anchor="middle" x="0" y="-6.000000">R638*</text></g><a xlink:title=",  (683aa)"><rect fill="#BABDB6" x="15.000000" y="87.000000" width="577.923077" height="14.000000"/></a><g transform="translate(77.615385,82.000000)"><a xlink:href="https://www.ebi.ac.uk/interpro/entry/pfam/PF13855" xlink:title="Leucine rich repeat"><rect fill="#2DCF00" x="0" y="0" width="44.000000" height="24.000000" filter="url(#ds)"/><text style="font-size:12px;font-family:OpenSans;fill:#ffffff;" text-anchor="middle" x="22.000000" y="16.000000">LRR_8</text></a></g>
<g transform="translate(131.769231,82.000000)"><a xlink:href="https://www.ebi.ac.uk/interpro/entry/pfam/PF13855" xlink:title="Leucine rich repeat"><rect fill="#FF5353" x="0" y="0" width="47.384615" height="24.000000" filter="url(#ds)"/><text style="font-size:12px;font-family:OpenSans;fill:#ffffff;" text-anchor="middle" x="23.692308" y="16.000000">LRR_8</text></a></g>
<g transform="translate(469.384615,82.000000)"><a xlink:href="https://www.ebi.ac.uk/interpro/entry/pfam/PF00307" xlink:title="Calponin homology (CH) domain"><rect fill="#5B5BFF" x="0" y="0" width="79.538462" height="24.000000" filter="url(#ds)"/><text style="font-size:12px;font-family:OpenSans;fill:#ffffff;" text-anchor="middle" x="39.769231" y="16.000000">CH</text></a></g>
<g class="axis">
<line x1="15.000000" x2="592.923077" y1="116.000000" y2="116.000000" stroke="#AAAAAA" /><line x1="15.000000" x2="15.000000" y1="116.000000" y2="121.000000" stroke="#AAAAAA" /><line x1="15.000000" x2="15.000000" y1="116.000000" y2="121.000000" stroke="#AAAAAA" /><text style="font-size:10px;font-family:OpenSans;fill:#000000;" text-anchor="middle" x="15.000000" y="131.000000">0</text><line x1="77.615385" x2="77.615385" y1="116.000000" y2="121.000000" stroke="#AAAAAA" /><text style="font-size:10px;font-family:OpenSans;fill:#000000;" text-anchor="middle" x="77.615385" y="131.000000">74</text><line x1="121.615385" x2="121.615385" y1="116.000000" y2="121.000000" stroke="#AAAAAA" /><text style="font-size:10px;font-family:OpenSans;fill:#000000;" text-anchor="middle" x="121.615385" y="131.000000">126</text><line x1="179.153846" x2="179.153846" y1="116.000000" y2="121.000000" stroke="#AAAAAA" /><text style="font-size:10px;font-family:OpenSans;fill:#000000;" text-anchor="middle" x="179.153846" y="131.000000">194</text><line x1="469.384615" x2="469.384615" y1="116.000000" y2="121.000000" stroke="#AAAAAA" /><text style="font-size:10px;font-family:OpenSans;fill:#000000;" text-anchor="middle" x="469.384615" y="131.000000">537</text><line x1="502.384615" x2="502.384615" y1="116.000000" y2="121.000000" stroke="#AAAAAA" /><text style="font-size:10px;font-family:OpenSans;fill:#000000;" text-anchor="middle" x="502.384615" y="131.000000">576</text><line x1="521.846154" x2="521.846154" y1="116.000000" y2="121.000000" stroke="#AAAAAA" /><text style="font-size:10px;font-family:OpenSans;fill:#000000;" text-anchor="middle" x="521.846154" y="131.000000">599</text><line x1="551.461538" x2="551.461538" y1="116.000000" y2="121.000000" stroke="#AAAAAA" /><text style="font-size:10px;font-family:OpenSans;fill:#000000;" text-anchor="middle" x="551.461538" y="131.000000">634</text><line x1="592.923077" x2="592.923077" y1="116.000000" y2="121.000000" stroke="#AAAAAA" /><text style="font-size:10px;font-family:OpenSans;fill:#000000;" text-anchor="middle" x="592.923077" y="131.000000">683</text></g>
<rect fill="#FF5353" x="4" y="145.000000" width="12" height="12" filter="url(#ds)"/><text style="font-size:12px;font-family:OpenSans;fill:#000000;" text-anchor="start" x="20" y="157.000000">Leucine rich repeat</text><rect fill="#5B5BFF" x="4" y="159.000000" width="12" height="12" filter="url(#ds)"/><text style="font-size:12px;font-family:OpenSans;fill:#000000;" text-anchor="start" x="20" y="171.000000">Calponin homology (CH) domain</text></svg>
