<?xml version='1.0'?>
<svg xmlns="http://www.w3.org/2000/svg" xmlns:xlink="http://www.w3.org/1999/xlink" width="639.052632" height="172.600000">
<defs>
  <filter id="ds" x="0" y="0">
    <feOffset in="SourceAlpha" dx="2" dy="2" />
    <feComponentTransfer><feFuncA type="linear" slope="0.2"/></feComponentTransfer>
    <feGaussianBlur result="blurOut" stdDeviation="1" />
    <feBlend in="SourceGraphic" in2="blurOut" mode="normal" />
  </filter>
  <pattern id="disordered-hatch" patternUnits="userSpaceOnUse" width="4" height="4">
    <path d="M-1,1 l2,-2 M0,4 l4,-4 M3,5 l2,-2" stroke="#000000" opacity="0.3" />
  </pattern>
</defs>
<line x1="61.315789" x2="61.315789" y1="34.000000" y2="62.000000" stroke="#BABDB6" stroke-width="2"/><a xlink:title="G60G"><circle cx="61.315789" cy="34.000000" r="4.000000" fill="#0000ff" /></a><g transform="translate(61.315789,34.000000) rotate(-30)"><text style="font-size:10px;font-family:OpenSans;fill:#555;" text-anchor="middle" x="0" y="-6.000000">G60G</text></g><line x1="160.894737" x2="160.894737" y1="34.000000" y2="62.000000" stroke="#BABDB6" stroke-width="2"/><a xlink:title="A189T"><circle cx="160.894737" cy="34.000000" r="4.000000" fill="#ff0000" /></a><g transform="translate(160.894737,34.000000) rotate(-30)"><text style="font-size:10px;font-family:OpenSans;fill:#555;" text-anchor="middle" x="0" y="-6.000000">A189T</text></g><line x1="479.701754" x2="479.701754" y1="34.000000" y2="62.000000" stroke="#BABDB6" stroke-width="2"/><a xlink:title="V602M"><circle cx="479.701754" cy="34.000000" r="4.000000" fill="#ff0000" /></a><g transform="translate(479.701754,34.000000) rotate(-30)"><text style="font-size:10px;font-family:OpenSans;fill:#555;" text-anchor="middle" x="0" y="-6.000000">V602M</text></g><a xlink:title=",  (789aa)"><rect fill="#BABDB6" x="15.000000" y="62.000000" width="609.052632" height="14.000000"/></a><g transform="translate(57.456140,57.000000)"><a xlink:href="https://www.ebi.ac.uk/interpro/entry/pfam/PF13855" xlink:title="Leucine rich repeat"><rect fill="#2DCF00" x="0" y="0" width="44.000000" height="24.000000" filter="url(#ds)"/><text style="font-size:12px;font-family:OpenSans;fill:#ffffff;" text-anchor="middle" x="22.000000" y="16.000000">LRR_8</text></a></g>
<g transform="translate(111.491228,57.000000)"><a xlink:href="https://www.ebi.ac.uk/interpro/entry/pfam/PF13855" xlink:title="Leucine rich repeat"><rect fill="#FF5353" x="0" y="0" width="46.315789" height="24.000000" filter="url(#ds)"/><text style="font-size:12px;font-family:OpenSans;fill:#ffffff;" text-anchor="middle" x="23.157895" y="16.000000">LRR_8</text></a></g>
<g transform="translate(238.859649,57.000000)"><a xlink:href="https://www.ebi.ac.uk/interpro/entry/pfam/PF07679" xlink:title="Immunoglobulin I-set domain"><rect fill="#5B5BFF" x="0" y="0" width="66.385965" height="24.000000" filter="url(#ds)"/><text style="font-size:12px;font-family:OpenSans;fill:#ffffff;" text-anchor="middle" x="33.192982" y="16.000000">I-set</text></a></g>
<g transform="translate(339.210526,57.000000)"><a xlink:href="https://www.ebi.ac.uk/interpro/entry/pfam/PF00041" xlink:title="Fibronectin type III domain"><rect fill="#EBD61D" x="0" y="0" width="57.122807" height="24.000000" filter="url(#ds)"/><text style="font-size:12px;font-family:OpenSans;fill:#ffffff;" text-anchor="middle" x="28.561404" y="16.000000">fn3</text></a></g>
<g class="axis">
<line x1="15.000000" x2="624.052632" y1="91.000000" y2="91.000000" stroke="#AAAAAA" /><line x1="15.000000" x2="15.000000" y1="91.000000" y2="96.000000" stroke="#AAAAAA" /><line x1="15.000000" x2="15.000000" y1="91.000000" y2="96.000000" stroke="#AAAAAA" /><text style="font-size:10px;font-family:OpenSans;fill:#000000;" text-anchor="middle" x="15.000000" y="106.000000">0</text><line x1="61.315789" x2="61.315789" y1="91.000000" y2="96.000000" stroke="#AAAAAA" /><text style="font-size:10px;font-family:OpenSans;fill:#000000;" text-anchor="middle" x="61.315789" y="106.000000">60</text><line x1="101.456140" x2="101.456140" y1="91.000000" y2="96.000000" stroke="#AAAAAA" /><text style="font-size:10px;font-family:OpenSans;fill:#000000;" text-anchor="middle" x="101.456140" y="106.000000">112</text><line x1="160.894737" x2="160.894737" y1="91.000000" y2="96.000000" stroke="#AAAAAA" /><text style="font-size:10px;font-family:OpenSans;fill:#000000;" text-anchor="middle" x="160.894737" y="106.000000">189</text><line x1="238.859649" x2="238.859649" y1="91.000000" y2="96.000000" stroke="#AAAAAA" /><text style="font-size:10px;font-family:OpenSans;fill:#000000;" text-anchor="middle" x="238.859649" y="106.000000">290</text><line x1="305.245614" x2="305.245614" y1="91.000000" y2="96.000000" stroke="#AAAAAA" /><text style="font-size:10px;font-family:OpenSans;fill:#000000;" text-anchor="middle" x="305.245614" y="106.000000">376</text><line x1="339.210526" x2="339.210526" y1="91.000000" y2="96.000000" stroke="#AAAAAA" /><text style="font-size:10px;font-family:OpenSans;fill:#000000;" text-anchor="middle" x="339.210526" y="106.000000">420</text><line x1="396.333333" x2="396.333333" y1="91.000000" y2="96.000000" stroke="#AAAAAA" /><text style="font-size:10px;font-family:OpenSans;fill:#000000;" text-anchor="middle" x="396.333333" y="106.000000">494</text><line x1="479.701754" x2="479.701754" y1="91.000000" y2="96.000000" stroke="#AAAAAA" /><text style="font-size:10px;font-family:OpenSans;fill:#000000;" text-anchor="middle" x="479.701754" y="106.000000">602</text><line x1="624.052632" x2="624.052632" y1="91.000000" y2="96.000000" stroke="#AAAAAA" /><text style="font-size:10px;font-family:OpenSans;fill:#000000;" text-anchor="middle" x="624.052632" y="106.000000">789</text></g>
<rect fill="#FF5353" x="4" y="120.000000" width="12" height="12" filter="url(#ds)"/><text style="font-size:12px;font-family:OpenSans;fill:#000000;" text-anchor="start" x="20" y="132.000000">Leucine rich repeat</text><rect fill="#5B5BFF" x="4" y="134.000000" width="12" height="12" filter="url(#ds)"/><text style="font-size:12px;font-family:OpenSans;fill:#000000;" text-anchor="start" x="20" y="146.000000">Immunoglobulin I-set domain</text><rect fill="#EBD61D" x="4" y="148.000000" width="12" height="12" filter="url(#ds)"/><text style="font-size:12px;font-family:OpenSans;fill:#000000;" text-anchor="start" x="20" y="160.000000">Fibronectin type III domain</text></svg>
