<?xml version='1.0'?>
<svg xmlns="http://www.w3.org/2000/svg" xmlns:xlink="http://www.w3.org/1999/xlink" width="4131.628571" height="172.600000">
<defs>
  <filter id="ds" x="0" y="0">
    <feOffset in="SourceAlpha" dx="2" dy="2" />
    <feComponentTransfer><feFuncA type="linear" slope="0.2"/></feComponentTransfer>
    <feGaussianBlur result="blurOut" stdDeviation="1" />
    <feBlend in="SourceGraphic" in2="blurOut" mode="normal" />
  </filter>
  <pattern id="disordered-hatch" patternUnits="userSpaceOnUse" width="4" height="4">
    <path d="M-1,1 l2,-2 M0,4 l4,-4 M3,5 l2,-2" stroke="#000000" opacity="0.3" />
  </pattern>
</defs>
<line x1="223.514286" x2="223.514286" y1="34.000000" y2="62.000000" stroke="#BABDB6" stroke-width="2"/><a xlink:title="K82N"><circle cx="223.514286" cy="34.000000" r="4.000000" fill="#ff0000" /></a><g transform="translate(223.514286,34.000000) rotate(-30)"><text style="font-size:10px;font-family:OpenSans;fill:#555;" text-anchor="middle" x="0" y="-6.000000">K82N</text></g><line x1="337.942857" x2="337.942857" y1="34.000000" y2="62.000000" stroke="#BABDB6" stroke-width="2"/><a xlink:title="S127T"><circle cx="337.942857" cy="34.000000" r="4.000000" fill="#ff0000" /></a><g transform="translate(337.942857,34.000000) rotate(-30)"><text style="font-size:10px;font-family:OpenSans;fill:#555;" text-anchor="middle" x="0" y="-6.000000">S127T</text></g><line x1="1411.028571" x2="1411.028571" y1="34.000000" y2="62.000000" stroke="#BABDB6" stroke-width="2"/><a xlink:title="S549C"><circle cx="1411.028571" cy="34.000000" r="4.000000" fill="#ff0000" /></a><g transform="translate(1411.028571,34.000000) rotate(-30)"><text style="font-size:10px;font-family:OpenSans;fill:#555;" text-anchor="middle" x="0" y="-6.000000">S549C</text></g><line x1="1708.542857" x2="1708.542857" y1="34.000000" y2="62.000000" stroke="#BABDB6" stroke-width="2"/><a xlink:title="S666C"><circle cx="1708.542857" cy="34.000000" r="4.000000" fill="#ff0000" /></a><g transform="translate(1708.542857,34.000000) rotate(-30)"><text style="font-size:10px;font-family:OpenSans;fill:#555;" text-anchor="middle" x="0" y="-6.000000">S666C</text></g><line x1="1853.485714" x2="1853.485714" y1="34.000000" y2="62.000000" stroke="#BABDB6" stroke-width="2"/><a xlink:title="K723R"><circle cx="1853.485714" cy="34.000000" r="4.000000" fill="#ff0000" /></a><g transform="translate(1853.485714,34.000000) rotate(-30)"><text style="font-size:10px;font-family:OpenSans;fill:#555;" text-anchor="middle" x="0" y="-6.000000">K723R</text></g><line x1="2034.028571" x2="2034.028571" y1="34.000000" y2="62.000000" stroke="#BABDB6" stroke-width="2"/><a xlink:title="V794I"><circle cx="2034.028571" cy="34.000000" r="4.000000" fill="#ff0000" /></a><g transform="translate(2034.028571,34.000000) rotate(-30)"><text style="font-size:10px;font-family:OpenSans;fill:#555;" text-anchor="middle" x="0" y="-6.000000">V794I</text></g><line x1="2092.514286" x2="2092.514286" y1="34.000000" y2="62.000000" stroke="#BABDB6" stroke-width="2"/><a xlink:title="S817C"><circle cx="2092.514286" cy="34.000000" r="4.000000" fill="#ff0000" /></a><g transform="translate(2092.514286,34.000000) rotate(-30)"><text style="font-size:10px;font-family:OpenSans;fill:#555;" text-anchor="middle" x="0" y="-6.000000">S817C</text></g><line x1="2151.000000" x2="2151.000000" y1="34.000000" y2="62.000000" stroke="#BABDB6" stroke-width="2"/><a xlink:title="K840R"><circle cx="2151.000000" cy="34.000000" r="4.000000" fill="#ff0000" /></a><g transform="translate(2151.000000,34.000000) rotate(-30)"><text style="font-size:10px;font-family:OpenSans;fill:#555;" text-anchor="middle" x="0" y="-6.000000">K840R</text></g><line x1="2331.542857" x2="2331.542857" y1="34.000000" y2="62.000000" stroke="#BABDB6" stroke-width="2"/><a xlink:title="V911I"><circle cx="2331.542857" cy="34.000000" r="4.000000" fill="#ff0000" /></a><g transform="translate(2331.542857,34.000000) rotate(-30)"><text style="font-size:10px;font-family:OpenSans;fill:#555;" text-anchor="middle" x="0" y="-6.000000">V911I</text></g><line x1="2534.971429" x2="2534.971429" y1="34.000000" y2="62.000000" stroke="#BABDB6" stroke-width="2"/><a xlink:title="K991R"><circle cx="2534.971429" cy="34.000000" r="4.000000" fill="#ff0000" /></a><g transform="translate(2534.971429,34.000000) rotate(-30)"><text style="font-size:10px;font-family:OpenSans;fill:#555;" text-anchor="middle" x="0" y="-6.000000">K991R</text></g><line x1="2562.942857" x2="2562.942857" y1="34.000000" y2="62.000000" stroke="#BABDB6" stroke-width="2"/><a xlink:title="C1002C"><circle cx="2562.942857" cy="34.000000" r="4.000000" fill="#0000ff" /></a><g transform="translate(2562.942857,34.000000) rotate(-30)"><text style="font-size:10px;font-family:OpenSans;fill:#555;" text-anchor="middle" x="0" y="-6.000000">C1002C</text></g><line x1="2715.514286" x2="2715.514286" y1="34.000000" y2="62.000000" stroke="#BABDB6" stroke-width="2"/><a xlink:title="V1062I"><circle cx="2715.514286" cy="34.000000" r="4.000000" fill="#ff0000" /></a><g transform="translate(2715.514286,34.000000) rotate(-30)"><text style="font-size:10px;font-family:OpenSans;fill:#555;" text-anchor="middle" x="0" y="-6.000000">V1062I</text></g><line x1="2842.657143" x2="2842.657143" y1="34.000000" y2="62.000000" stroke="#BABDB6" stroke-width="2"/><a xlink:title="V1112I"><circle cx="2842.657143" cy="34.000000" r="4.000000" fill="#ff0000" /></a><g transform="translate(2842.657143,34.000000) rotate(-30)"><text style="font-size:10px;font-family:OpenSans;fill:#555;" text-anchor="middle" x="0" y="-6.000000">V1112I</text></g><line x1="2860.457143" x2="2860.457143" y1="34.000000" y2="62.000000" stroke="#BABDB6" stroke-width="2"/><a xlink:title="C1119C"><circle cx="2860.457143" cy="34.000000" r="4.000000" fill="#0000ff" /></a><g transform="translate(2860.457143,34.000000) rotate(-30)"><text style="font-size:10px;font-family:OpenSans;fill:#555;" text-anchor="middle" x="0" y="-6.000000">C1119C</text></g><line x1="3140.171429" x2="3140.171429" y1="34.000000" y2="62.000000" stroke="#BABDB6" stroke-width="2"/><a xlink:title="V1229I"><circle cx="3140.171429" cy="34.000000" r="4.000000" fill="#ff0000" /></a><g transform="translate(3140.171429,34.000000) rotate(-30)"><text style="font-size:10px;font-family:OpenSans;fill:#555;" text-anchor="middle" x="0" y="-6.000000">V1229I</text></g><line x1="3244.428571" x2="3244.428571" y1="34.000000" y2="62.000000" stroke="#BABDB6" stroke-width="2"/><a xlink:title="C1270C"><circle cx="3244.428571" cy="34.000000" r="4.000000" fill="#0000ff" /></a><g transform="translate(3244.428571,34.000000) rotate(-30)"><text style="font-size:10px;font-family:OpenSans;fill:#555;" text-anchor="middle" x="0" y="-6.000000">C1270C</text></g><line x1="3524.142857" x2="3524.142857" y1="34.000000" y2="62.000000" stroke="#BABDB6" stroke-width="2"/><a xlink:title="V1380I"><circle cx="3524.142857" cy="34.000000" r="4.000000" fill="#ff0000" /></a><g transform="translate(3524.142857,34.000000) rotate(-30)"><text style="font-size:10px;font-family:OpenSans;fill:#555;" text-anchor="middle" x="0" y="-6.000000">V1380I</text></g><a xlink:title=",  (1613aa)"><rect fill="#BABDB6" x="15.000000" y="62.000000" width="4101.628571" height="14.000000"/></a><g transform="translate(289.628571,57.000000)"><a xlink:href="https://www.ebi.ac.uk/interpro/entry/pfam/PF00058" xlink:title="Low-density lipoprotein receptor repeat class B"><rect fill="#2DCF00" x="0" y="0" width="99.171429" height="24.000000" filter="url(#ds)"/><text style="font-size:12px;font-family:OpenSans;fill:#ffffff;" text-anchor="middle" x="49.585714" y="16.000000">Ldl_recept_b</text></a></g>
<g transform="translate(396.428571,57.000000)"><a xlink:href="https://www.ebi.ac.uk/interpro/entry/pfam/PF00058" xlink:title="Low-density lipoprotein receptor repeat class B"><rect fill="#FF5353" x="0" y="0" width="104.257143" height="24.000000" filter="url(#ds)"/><text style="font-size:12px;font-family:OpenSans;fill:#ffffff;" text-anchor="middle" x="52.128571" y="16.000000">Ldl_recept_b</text></a></g>
<g transform="translate(508.314286,57.000000)"><a xlink:href="https://www.ebi.ac.uk/interpro/entry/pfam/PF00058" xlink:title="Low-density lipoprotein receptor repeat class B"><rect fill="#5B5BFF" x="0" y="0" width="99.171429" height="24.000000" filter="url(#ds)"/><text style="font-size:12px;font-family:OpenSans;fill:#ffffff;" text-anchor="middle" x="49.585714" y="16.000000">Ldl_recept_b</text></a></g>
<g transform="translate(742.257143,57.000000)"><a xlink:href="https://www.ebi.ac.uk/interpro/entry/pfam/PF14670" xlink:title="Coagulation Factor Xa inhibitory site"><rect fill="#EBD61D" x="0" y="0" width="94.085714" height="24.000000" filter="url(#ds)"/><text style="font-size:12px;font-family:OpenSans;fill:#ffffff;" text-anchor="middle" x="47.042857" y="16.000000">FXa_inhibition</text></a></g>
<g transform="translate(960.942857,57.000000)"><a xlink:href="https://www.ebi.ac.uk/interpro/entry/pfam/PF00058" xlink:title="Low-density lipoprotein receptor repeat class B"><rect fill="#BA21E0" x="0" y="0" width="101.714286" height="24.000000" filter="url(#ds)"/><text style="font-size:12px;font-family:OpenSans;fill:#ffffff;" text-anchor="middle" x="50.857143" y="16.000000">Ldl_recept_b</text></a></g>
<g transform="translate(1072.828571,57.000000)"><a xlink:href="https://www.ebi.ac.uk/interpro/entry/pfam/PF00058" xlink:title="Low-density lipoprotein receptor repeat class B"><rect fill="#FF9C42" x="0" y="0" width="99.171429" height="24.000000" filter="url(#ds)"/><text style="font-size:12px;font-family:OpenSans;fill:#ffffff;" text-anchor="middle" x="49.585714" y="16.000000">Ldl_recept_b</text></a></g>
<g transform="translate(1179.628571,57.000000)"><a xlink:href="https://www.ebi.ac.uk/interpro/entry/pfam/PF00058" xlink:title="Low-density lipoprotein receptor repeat class B"><rect fill="#FF7DFF" x="0" y="0" width="104.257143" height="24.000000" filter="url(#ds)"/><text style="font-size:12px;font-family:OpenSans;fill:#ffffff;" text-anchor="middle" x="52.128571" y="16.000000">Ldl_recept_b</text></a></g>
<g transform="translate(1520.371429,57.000000)"><a xlink:href="https://www.ebi.ac.uk/interpro/entry/pfam/PF14670" xlink:title="Coagulation Factor Xa inhibitory site"><rect fill="#B9264F" x="0" y="0" width="89.000000" height="24.000000" filter="url(#ds)"/><text style="font-size:12px;font-family:OpenSans;fill:#ffffff;" text-anchor="middle" x="44.500000" y="16.000000">FXa_inhibition</text></a></g>
<g transform="translate(1728.885714,57.000000)"><a xlink:href="https://www.ebi.ac.uk/interpro/entry/pfam/PF00058" xlink:title="Low-density lipoprotein receptor repeat class B"><rect fill="#BABA21" x="0" y="0" width="101.714286" height="24.000000" filter="url(#ds)"/><text style="font-size:12px;font-family:OpenSans;fill:#ffffff;" text-anchor="middle" x="50.857143" y="16.000000">Ldl_recept_b</text></a></g>
<g transform="translate(1840.771429,57.000000)"><a xlink:href="https://www.ebi.ac.uk/interpro/entry/pfam/PF00058" xlink:title="Low-density lipoprotein receptor repeat class B"><rect fill="#C48484" x="0" y="0" width="99.171429" height="24.000000" filter="url(#ds)"/><text style="font-size:12px;font-family:OpenSans;fill:#ffffff;" text-anchor="middle" x="49.585714" y="16.000000">Ldl_recept_b</text></a></g>
<g transform="translate(1947.571429,57.000000)"><a xlink:href="https://www.ebi.ac.uk/interpro/entry/pfam/PF00058" xlink:title="Low-density lipoprotein receptor repeat class B"><rect fill="#1F88A7" x="0" y="0" width="101.714286" height="24.000000" filter="url(#ds)"/><text style="font-size:12px;font-family:OpenSans;fill:#ffffff;" text-anchor="middle" x="50.857143" y="16.000000">Ldl_recept_b</text></a></g>
<g transform="translate(2285.771429,57.000000)"><a xlink:href="https://www.ebi.ac.uk/interpro/entry/pfam/PF14670" xlink:title="Coagulation Factor Xa inhibitory site"><rect fill="#CAFEB8" x="0" y="0" width="91.542857" height="24.000000" filter="url(#ds)"/><text style="font-size:12px;font-family:OpenSans;fill:#ffffff;" text-anchor="middle" x="45.771429" y="16.000000">FXa_inhibition</text></a></g>
<g transform="translate(2733.314286,57.000000)"><a xlink:href="https://www.ebi.ac.uk/interpro/entry/pfam/PF00058" xlink:title="Low-density lipoprotein receptor repeat class B"><rect fill="#4A9586" x="0" y="0" width="104.257143" height="24.000000" filter="url(#ds)"/><text style="font-size:12px;font-family:OpenSans;fill:#ffffff;" text-anchor="middle" x="52.128571" y="16.000000">Ldl_recept_b</text></a></g>
<g transform="translate(2847.742857,57.000000)"><a xlink:href="https://www.ebi.ac.uk/interpro/entry/pfam/PF00058" xlink:title="Low-density lipoprotein receptor repeat class B"><rect fill="#CEB86C" x="0" y="0" width="99.171429" height="24.000000" filter="url(#ds)"/><text style="font-size:12px;font-family:OpenSans;fill:#ffffff;" text-anchor="middle" x="49.585714" y="16.000000">Ldl_recept_b</text></a></g>
<g transform="translate(3084.228571,57.000000)"><a xlink:href="https://www.ebi.ac.uk/interpro/entry/pfam/PF14670" xlink:title="Coagulation Factor Xa inhibitory site"><rect fill="#2DCF00" x="0" y="0" width="91.542857" height="24.000000" filter="url(#ds)"/><text style="font-size:12px;font-family:OpenSans;fill:#ffffff;" text-anchor="middle" x="45.771429" y="16.000000">FXa_inhibition</text></a></g>
<g transform="translate(3188.485714,57.000000)"><a xlink:href="https://www.ebi.ac.uk/interpro/entry/pfam/PF00057" xlink:title="Low-density lipoprotein receptor domain class A"><rect fill="#FF5353" x="0" y="0" width="94.085714" height="24.000000" filter="url(#ds)"/><text style="font-size:12px;font-family:OpenSans;fill:#ffffff;" text-anchor="middle" x="47.042857" y="16.000000">Ldl_recept_a</text></a></g>
<g transform="translate(3290.200000,57.000000)"><a xlink:href="https://www.ebi.ac.uk/interpro/entry/pfam/PF00057" xlink:title="Low-density lipoprotein receptor domain class A"><rect fill="#5B5BFF" x="0" y="0" width="86.457143" height="24.000000" filter="url(#ds)"/><text style="font-size:12px;font-family:OpenSans;fill:#ffffff;" text-anchor="middle" x="43.228571" y="16.000000">Ldl_recept_a</text></a></g>
<g transform="translate(3386.828571,57.000000)"><a xlink:href="https://www.ebi.ac.uk/interpro/entry/pfam/PF00057" xlink:title="Low-density lipoprotein receptor domain class A"><rect fill="#EBD61D" x="0" y="0" width="86.457143" height="24.000000" filter="url(#ds)"/><text style="font-size:12px;font-family:OpenSans;fill:#ffffff;" text-anchor="middle" x="43.228571" y="16.000000">Ldl_recept_a</text></a></g>
<g class="axis">
<line x1="15.000000" x2="4116.628571" y1="91.000000" y2="91.000000" stroke="#AAAAAA" /><line x1="15.000000" x2="15.000000" y1="91.000000" y2="96.000000" stroke="#AAAAAA" /><line x1="15.000000" x2="15.000000" y1="91.000000" y2="96.000000" stroke="#AAAAAA" /><text style="font-size:10px;font-family:OpenSans;fill:#000000;" text-anchor="middle" x="15.000000" y="106.000000">0</text><line x1="223.514286" x2="223.514286" y1="91.000000" y2="96.000000" stroke="#AAAAAA" /><text style="font-size:10px;font-family:OpenSans;fill:#000000;" text-anchor="middle" x="223.514286" y="106.000000">82</text><line x1="289.628571" x2="289.628571" y1="91.000000" y2="96.000000" stroke="#AAAAAA" /><text style="font-size:10px;font-family:OpenSans;fill:#000000;" text-anchor="middle" x="289.628571" y="106.000000">108</text><line x1="337.942857" x2="337.942857" y1="91.000000" y2="96.000000" stroke="#AAAAAA" /><text style="font-size:10px;font-family:OpenSans;fill:#000000;" text-anchor="middle" x="337.942857" y="106.000000">127</text><line x1="388.800000" x2="388.800000" y1="91.000000" y2="96.000000" stroke="#AAAAAA" /><text style="font-size:10px;font-family:OpenSans;fill:#000000;" text-anchor="middle" x="388.800000" y="106.000000">147</text><line x1="500.685714" x2="500.685714" y1="91.000000" y2="96.000000" stroke="#AAAAAA" /><text style="font-size:10px;font-family:OpenSans;fill:#000000;" text-anchor="middle" x="500.685714" y="106.000000">191</text><line x1="607.485714" x2="607.485714" y1="91.000000" y2="96.000000" stroke="#AAAAAA" /><text style="font-size:10px;font-family:OpenSans;fill:#000000;" text-anchor="middle" x="607.485714" y="106.000000">233</text><line x1="742.257143" x2="742.257143" y1="91.000000" y2="96.000000" stroke="#AAAAAA" /><text style="font-size:10px;font-family:OpenSans;fill:#000000;" text-anchor="middle" x="742.257143" y="106.000000">286</text><line x1="836.342857" x2="836.342857" y1="91.000000" y2="96.000000" stroke="#AAAAAA" /><text style="font-size:10px;font-family:OpenSans;fill:#000000;" text-anchor="middle" x="836.342857" y="106.000000">323</text><line x1="960.942857" x2="960.942857" y1="91.000000" y2="96.000000" stroke="#AAAAAA" /><text style="font-size:10px;font-family:OpenSans;fill:#000000;" text-anchor="middle" x="960.942857" y="106.000000">372</text><line x1="1062.657143" x2="1062.657143" y1="91.000000" y2="96.000000" stroke="#AAAAAA" /><text style="font-size:10px;font-family:OpenSans;fill:#000000;" text-anchor="middle" x="1062.657143" y="106.000000">412</text><line x1="1172.000000" x2="1172.000000" y1="91.000000" y2="96.000000" stroke="#AAAAAA" /><text style="font-size:10px;font-family:OpenSans;fill:#000000;" text-anchor="middle" x="1172.000000" y="106.000000">455</text><line x1="1283.885714" x2="1283.885714" y1="91.000000" y2="96.000000" stroke="#AAAAAA" /><text style="font-size:10px;font-family:OpenSans;fill:#000000;" text-anchor="middle" x="1283.885714" y="106.000000">499</text><line x1="1411.028571" x2="1411.028571" y1="91.000000" y2="96.000000" stroke="#AAAAAA" /><text style="font-size:10px;font-family:OpenSans;fill:#000000;" text-anchor="middle" x="1411.028571" y="106.000000">549</text><line x1="1520.371429" x2="1520.371429" y1="91.000000" y2="96.000000" stroke="#AAAAAA" /><text style="font-size:10px;font-family:OpenSans;fill:#000000;" text-anchor="middle" x="1520.371429" y="106.000000">592</text><line x1="1609.371429" x2="1609.371429" y1="91.000000" y2="96.000000" stroke="#AAAAAA" /><text style="font-size:10px;font-family:OpenSans;fill:#000000;" text-anchor="middle" x="1609.371429" y="106.000000">627</text><line x1="1708.542857" x2="1708.542857" y1="91.000000" y2="96.000000" stroke="#AAAAAA" /><text style="font-size:10px;font-family:OpenSans;fill:#000000;" text-anchor="middle" x="1708.542857" y="106.000000">666</text><line x1="1728.885714" x2="1728.885714" y1="91.000000" y2="96.000000" stroke="#AAAAAA" /><text style="font-size:10px;font-family:OpenSans;fill:#000000;" text-anchor="middle" x="1728.885714" y="106.000000">674</text><line x1="1830.600000" x2="1830.600000" y1="91.000000" y2="96.000000" stroke="#AAAAAA" /><text style="font-size:10px;font-family:OpenSans;fill:#000000;" text-anchor="middle" x="1830.600000" y="106.000000">714</text><line x1="1853.485714" x2="1853.485714" y1="91.000000" y2="96.000000" stroke="#AAAAAA" /><text style="font-size:10px;font-family:OpenSans;fill:#000000;" text-anchor="middle" x="1853.485714" y="106.000000">723</text><line x1="1939.942857" x2="1939.942857" y1="91.000000" y2="96.000000" stroke="#AAAAAA" /><text style="font-size:10px;font-family:OpenSans;fill:#000000;" text-anchor="middle" x="1939.942857" y="106.000000">757</text><line x1="2034.028571" x2="2034.028571" y1="91.000000" y2="96.000000" stroke="#AAAAAA" /><text style="font-size:10px;font-family:OpenSans;fill:#000000;" text-anchor="middle" x="2034.028571" y="106.000000">794</text><line x1="2092.514286" x2="2092.514286" y1="91.000000" y2="96.000000" stroke="#AAAAAA" /><text style="font-size:10px;font-family:OpenSans;fill:#000000;" text-anchor="middle" x="2092.514286" y="106.000000">817</text><line x1="2151.000000" x2="2151.000000" y1="91.000000" y2="96.000000" stroke="#AAAAAA" /><text style="font-size:10px;font-family:OpenSans;fill:#000000;" text-anchor="middle" x="2151.000000" y="106.000000">840</text><line x1="2285.771429" x2="2285.771429" y1="91.000000" y2="96.000000" stroke="#AAAAAA" /><text style="font-size:10px;font-family:OpenSans;fill:#000000;" text-anchor="middle" x="2285.771429" y="106.000000">893</text><line x1="2331.542857" x2="2331.542857" y1="91.000000" y2="96.000000" stroke="#AAAAAA" /><text style="font-size:10px;font-family:OpenSans;fill:#000000;" text-anchor="middle" x="2331.542857" y="106.000000">911</text><line x1="2377.314286" x2="2377.314286" y1="91.000000" y2="96.000000" stroke="#AAAAAA" /><text style="font-size:10px;font-family:OpenSans;fill:#000000;" text-anchor="middle" x="2377.314286" y="106.000000">929</text><line x1="2534.971429" x2="2534.971429" y1="91.000000" y2="96.000000" stroke="#AAAAAA" /><text style="font-size:10px;font-family:OpenSans;fill:#000000;" text-anchor="middle" x="2534.971429" y="106.000000">991</text><line x1="2562.942857" x2="2562.942857" y1="91.000000" y2="96.000000" stroke="#AAAAAA" /><text style="font-size:10px;font-family:OpenSans;fill:#000000;" text-anchor="middle" x="2562.942857" y="106.000000">1002</text><line x1="2715.514286" x2="2715.514286" y1="91.000000" y2="96.000000" stroke="#AAAAAA" /><text style="font-size:10px;font-family:OpenSans;fill:#000000;" text-anchor="middle" x="2715.514286" y="106.000000">1062</text><line x1="2733.314286" x2="2733.314286" y1="91.000000" y2="96.000000" stroke="#AAAAAA" /><text style="font-size:10px;font-family:OpenSans;fill:#000000;" text-anchor="middle" x="2733.314286" y="106.000000">1069</text><line x1="2842.657143" x2="2842.657143" y1="91.000000" y2="96.000000" stroke="#AAAAAA" /><text style="font-size:10px;font-family:OpenSans;fill:#000000;" text-anchor="middle" x="2842.657143" y="106.000000">1112</text><line x1="2860.457143" x2="2860.457143" y1="91.000000" y2="96.000000" stroke="#AAAAAA" /><text style="font-size:10px;font-family:OpenSans;fill:#000000;" text-anchor="middle" x="2860.457143" y="106.000000">1119</text><line x1="2946.914286" x2="2946.914286" y1="91.000000" y2="96.000000" stroke="#AAAAAA" /><text style="font-size:10px;font-family:OpenSans;fill:#000000;" text-anchor="middle" x="2946.914286" y="106.000000">1153</text><line x1="3084.228571" x2="3084.228571" y1="91.000000" y2="96.000000" stroke="#AAAAAA" /><text style="font-size:10px;font-family:OpenSans;fill:#000000;" text-anchor="middle" x="3084.228571" y="106.000000">1207</text><line x1="3140.171429" x2="3140.171429" y1="91.000000" y2="96.000000" stroke="#AAAAAA" /><text style="font-size:10px;font-family:OpenSans;fill:#000000;" text-anchor="middle" x="3140.171429" y="106.000000">1229</text><line x1="3175.771429" x2="3175.771429" y1="91.000000" y2="96.000000" stroke="#AAAAAA" /><text style="font-size:10px;font-family:OpenSans;fill:#000000;" text-anchor="middle" x="3175.771429" y="106.000000">1243</text><line x1="3244.428571" x2="3244.428571" y1="91.000000" y2="96.000000" stroke="#AAAAAA" /><text style="font-size:10px;font-family:OpenSans;fill:#000000;" text-anchor="middle" x="3244.428571" y="106.000000">1270</text><line x1="3282.571429" x2="3282.571429" y1="91.000000" y2="96.000000" stroke="#AAAAAA" /><text style="font-size:10px;font-family:OpenSans;fill:#000000;" text-anchor="middle" x="3282.571429" y="106.000000">1285</text><line x1="3376.657143" x2="3376.657143" y1="91.000000" y2="96.000000" stroke="#AAAAAA" /><text style="font-size:10px;font-family:OpenSans;fill:#000000;" text-anchor="middle" x="3376.657143" y="106.000000">1322</text><line x1="3473.285714" x2="3473.285714" y1="91.000000" y2="96.000000" stroke="#AAAAAA" /><text style="font-size:10px;font-family:OpenSans;fill:#000000;" text-anchor="middle" x="3473.285714" y="106.000000">1360</text><line x1="3524.142857" x2="3524.142857" y1="91.000000" y2="96.000000" stroke="#AAAAAA" /><text style="font-size:10px;font-family:OpenSans;fill:#000000;" text-anchor="middle" x="3524.142857" y="106.000000">1380</text><line x1="4116.628571" x2="4116.628571" y1="91.000000" y2="96.000000" stroke="#AAAAAA" /><text style="font-size:10px;font-family:OpenSans;fill:#000000;" text-anchor="middle" x="4116.628571" y="106.000000">1613</text></g>
<rect fill="#CEB86C" x="4" y="120.000000" width="12" height="12" filter="url(#ds)"/><text style="font-size:12px;font-family:OpenSans;fill:#000000;" text-anchor="start" x="20" y="132.000000">Low-density lipoprotein receptor repeat class B</text><rect fill="#2DCF00" x="4" y="134.000000" width="12" height="12" filter="url(#ds)"/><text style="font-size:12px;font-family:OpenSans;fill:#000000;" text-anchor="start" x="20" y="146.000000">Coagulation Factor Xa inhibitory site</text><rect fill="#EBD61D" x="4" y="148.000000" width="12" height="12" filter="url(#ds)"/><text style="font-size:12px;font-family:OpenSans;fill:#000000;" text-anchor="start" x="20" y="160.000000">Low-density lipoprotein receptor domain class A</text></svg>
