<?xml version='1.0'?>
<svg xmlns="http://www.w3.org/2000/svg" xmlns:xlink="http://www.w3.org/1999/xlink" width="892.400000" height="146.200000">
<defs>
  <filter id="ds" x="0" y="0">
    <feOffset in="SourceAlpha" dx="2" dy="2" />
    <feComponentTransfer><feFuncA type="linear" slope="0.2"/></feComponentTransfer>
    <feGaussianBlur result="blurOut" stdDeviation="1" />
    <feBlend in="SourceGraphic" in2="blurOut" mode="normal" />
  </filter>
  <pattern id="disordered-hatch" patternUnits="userSpaceOnUse" width="4" height="4">
    <path d="M-1,1 l2,-2 M0,4 l4,-4 M3,5 l2,-2" stroke="#000000" opacity="0.3" />
  </pattern>
</defs>
<line x1="659.600000" x2="659.600000" y1="34.000000" y2="62.000000" stroke="#BABDB6" stroke-width="2"/><a xlink:title="L293P"><circle cx="659.600000" cy="34.000000" r="4.000000" fill="#ff0000" /></a><g transform="translate(659.600000,34.000000) rotate(-30)"><text style="font-size:10px;font-family:OpenSans;fill:#555;" text-anchor="middle" x="0" y="-6.000000">L293P</text></g><line x1="877.400000" x2="877.400000" y1="34.000000" y2="62.000000" stroke="#BABDB6" stroke-width="2"/><a xlink:title="K392T"><circle cx="877.400000" cy="34.000000" r="4.000000" fill="#ff0000" /></a><g transform="translate(877.400000,34.000000) rotate(-30)"><text style="font-size:10px;font-family:OpenSans;fill:#555;" text-anchor="middle" x="0" y="-6.000000">K392T</text></g><line x1="48001.400000" x2="48001.400000" y1="34.000000" y2="62.000000" stroke="#BABDB6" stroke-width="2"/><a xlink:title="*21812r12"><circle cx="48001.400000" cy="34.000000" r="4.000000" fill="#ff0000" /></a><g transform="translate(48001.400000,34.000000) rotate(-30)"><text style="font-size:10px;font-family:OpenSans;fill:#555;" text-anchor="middle" x="0" y="-6.000000">*21812r12</text></g><a xlink:title=",  (392aa)"><rect fill="#BABDB6" x="15.000000" y="62.000000" width="862.400000" height="14.000000"/></a><g transform="translate(246.000000,57.000000)"><a xlink:href="https://www.ebi.ac.uk/interpro/entry/pfam/PF13516" xlink:title="Leucine Rich repeat"><rect fill="#2DCF00" x="0" y="0" width="50.600000" height="24.000000" filter="url(#ds)"/><text style="font-size:12px;font-family:OpenSans;fill:#ffffff;" text-anchor="middle" x="25.300000" y="16.000000">LRR_6</text></a></g>
<g transform="translate(309.800000,57.000000)"><a xlink:href="https://www.ebi.ac.uk/interpro/entry/pfam/PF13516" xlink:title="Leucine Rich repeat"><rect fill="#FF5353" x="0" y="0" width="48.400000" height="24.000000" filter="url(#ds)"/><text style="font-size:12px;font-family:OpenSans;fill:#ffffff;" text-anchor="middle" x="24.200000" y="16.000000">LRR_6</text></a></g>
<g transform="translate(435.200000,57.000000)"><a xlink:href="https://www.ebi.ac.uk/interpro/entry/pfam/PF13516" xlink:title="Leucine Rich repeat"><rect fill="#5B5BFF" x="0" y="0" width="44.000000" height="24.000000" filter="url(#ds)"/><text style="font-size:12px;font-family:OpenSans;fill:#ffffff;" text-anchor="middle" x="22.000000" y="16.000000">LRR_6</text></a></g>
<g transform="translate(494.600000,57.000000)"><a xlink:href="https://www.ebi.ac.uk/interpro/entry/pfam/PF13516" xlink:title="Leucine Rich repeat"><rect fill="#EBD61D" x="0" y="0" width="48.400000" height="24.000000" filter="url(#ds)"/><text style="font-size:12px;font-family:OpenSans;fill:#ffffff;" text-anchor="middle" x="24.200000" y="16.000000">LRR_6</text></a></g>
<g transform="translate(556.200000,57.000000)"><a xlink:href="https://www.ebi.ac.uk/interpro/entry/pfam/PF13516" xlink:title="Leucine Rich repeat"><rect fill="#BA21E0" x="0" y="0" width="46.200000" height="24.000000" filter="url(#ds)"/><text style="font-size:12px;font-family:OpenSans;fill:#ffffff;" text-anchor="middle" x="23.100000" y="16.000000">LRR_6</text></a></g>
<g transform="translate(617.800000,57.000000)"><a xlink:href="https://www.ebi.ac.uk/interpro/entry/pfam/PF13516" xlink:title="Leucine Rich repeat"><rect fill="#FF9C42" x="0" y="0" width="46.200000" height="24.000000" filter="url(#ds)"/><text style="font-size:12px;font-family:OpenSans;fill:#ffffff;" text-anchor="middle" x="23.100000" y="16.000000">LRR_6</text></a></g>
<g transform="translate(677.200000,57.000000)"><a xlink:href="https://www.ebi.ac.uk/interpro/entry/pfam/PF13516" xlink:title="Leucine Rich repeat"><rect fill="#FF7DFF" x="0" y="0" width="48.400000" height="24.000000" filter="url(#ds)"/><text style="font-size:12px;font-family:OpenSans;fill:#ffffff;" text-anchor="middle" x="24.200000" y="16.000000">LRR_6</text></a></g>
<g class="axis">
<line x1="15.000000" x2="877.400000" y1="91.000000" y2="91.000000" stroke="#AAAAAA" /><line x1="15.000000" x2="15.000000" y1="91.000000" y2="96.000000" stroke="#AAAAAA" /><line x1="15.000000" x2="15.000000" y1="91.000000" y2="96.000000" stroke="#AAAAAA" /><text style="font-size:10px;font-family:OpenSans;fill:#000000;" text-anchor="middle" x="15.000000" y="106.000000">0</text><line x1="246.000000" x2="246.000000" y1="91.000000" y2="96.000000" stroke="#AAAAAA" /><text style="font-size:10px;font-family:OpenSans;fill:#000000;" text-anchor="middle" x="246.000000" y="106.000000">105</text><line x1="296.600000" x2="296.600000" y1="91.000000" y2="96.000000" stroke="#AAAAAA" /><text style="font-size:10px;font-family:OpenSans;fill:#000000;" text-anchor="middle" x="296.600000" y="106.000000">128</text><line x1="358.200000" x2="358.200000" y1="91.000000" y2="96.000000" stroke="#AAAAAA" /><text style="font-size:10px;font-family:OpenSans;fill:#000000;" text-anchor="middle" x="358.200000" y="106.000000">156</text><line x1="435.200000" x2="435.200000" y1="91.000000" y2="96.000000" stroke="#AAAAAA" /><text style="font-size:10px;font-family:OpenSans;fill:#000000;" text-anchor="middle" x="435.200000" y="106.000000">191</text><line x1="479.200000" x2="479.200000" y1="91.000000" y2="96.000000" stroke="#AAAAAA" /><text style="font-size:10px;font-family:OpenSans;fill:#000000;" text-anchor="middle" x="479.200000" y="106.000000">211</text><line x1="543.000000" x2="543.000000" y1="91.000000" y2="96.000000" stroke="#AAAAAA" /><text style="font-size:10px;font-family:OpenSans;fill:#000000;" text-anchor="middle" x="543.000000" y="106.000000">240</text><line x1="602.400000" x2="602.400000" y1="91.000000" y2="96.000000" stroke="#AAAAAA" /><text style="font-size:10px;font-family:OpenSans;fill:#000000;" text-anchor="middle" x="602.400000" y="106.000000">267</text><line x1="659.600000" x2="659.600000" y1="91.000000" y2="96.000000" stroke="#AAAAAA" /><text style="font-size:10px;font-family:OpenSans;fill:#000000;" text-anchor="middle" x="659.600000" y="106.000000">293</text><line x1="725.600000" x2="725.600000" y1="91.000000" y2="96.000000" stroke="#AAAAAA" /><text style="font-size:10px;font-family:OpenSans;fill:#000000;" text-anchor="middle" x="725.600000" y="106.000000">323</text><line x1="877.400000" x2="877.400000" y1="91.000000" y2="96.000000" stroke="#AAAAAA" /><text style="font-size:10px;font-family:OpenSans;fill:#000000;" text-anchor="middle" x="877.400000" y="106.000000">392</text><line x1="48001.400000" x2="48001.400000" y1="91.000000" y2="96.000000" stroke="#AAAAAA" /><text style="font-size:10px;font-family:OpenSans;fill:#000000;" text-anchor="middle" x="48001.400000" y="106.000000">21812</text></g>
<rect fill="#FF7DFF" x="4" y="120.000000" width="12" height="12" filter="url(#ds)"/><text style="font-size:12px;font-family:OpenSans;fill:#000000;" text-anchor="start" x="20" y="132.000000">Leucine Rich repeat</text></svg>
