<?xml version='1.0'?>
<svg xmlns="http://www.w3.org/2000/svg" xmlns:xlink="http://www.w3.org/1999/xlink" width="2853.166667" height="172.600000">
<defs>
  <filter id="ds" x="0" y="0">
    <feOffset in="SourceAlpha" dx="2" dy="2" />
    <feComponentTransfer><feFuncA type="linear" slope="0.2"/></feComponentTransfer>
    <feGaussianBlur result="blurOut" stdDeviation="1" />
    <feBlend in="SourceGraphic" in2="blurOut" mode="normal" />
  </filter>
  <pattern id="disordered-hatch" patternUnits="userSpaceOnUse" width="4" height="4">
    <path d="M-1,1 l2,-2 M0,4 l4,-4 M3,5 l2,-2" stroke="#000000" opacity="0.3" />
  </pattern>
</defs>
<line x1="95.166667" x2="95.166667" y1="34.000000" y2="62.000000" stroke="#BABDB6" stroke-width="2"/><a xlink:title="S37A"><circle cx="95.166667" cy="34.000000" r="4.000000" fill="#ff0000" /></a><g transform="translate(95.166667,34.000000) rotate(-30)"><text style="font-size:10px;font-family:OpenSans;fill:#555;" text-anchor="middle" x="0" y="-6.000000">S37A</text></g><line x1="348.666667" x2="348.666667" y1="34.000000" y2="62.000000" stroke="#BABDB6" stroke-width="2"/><a xlink:title="S154A"><circle cx="348.666667" cy="34.000000" r="4.000000" fill="#ff0000" /></a><g transform="translate(348.666667,34.000000) rotate(-30)"><text style="font-size:10px;font-family:OpenSans;fill:#555;" text-anchor="middle" x="0" y="-6.000000">S154A</text></g><line x1="476.500000" x2="476.500000" y1="34.000000" y2="62.000000" stroke="#BABDB6" stroke-width="2"/><a xlink:title="P213L"><circle cx="476.500000" cy="34.000000" r="4.000000" fill="#ff0000" /></a><g transform="translate(476.500000,34.000000) rotate(-30)"><text style="font-size:10px;font-family:OpenSans;fill:#555;" text-anchor="middle" x="0" y="-6.000000">P213L</text></g><line x1="730.000000" x2="730.000000" y1="34.000000" y2="62.000000" stroke="#BABDB6" stroke-width="2"/><a xlink:title="P330L"><circle cx="730.000000" cy="34.000000" r="4.000000" fill="#ff0000" /></a><g transform="translate(730.000000,34.000000) rotate(-30)"><text style="font-size:10px;font-family:OpenSans;fill:#555;" text-anchor="middle" x="0" y="-6.000000">P330L</text></g><a xlink:title=",  (1303aa)"><rect fill="#BABDB6" x="15.000000" y="62.000000" width="2823.166667" height="14.000000"/></a><g transform="translate(268.500000,57.000000)"><a xlink:href="https://www.ebi.ac.uk/interpro/entry/pfam/PF12661" xlink:title="Human growth factor-like EGF"><rect fill="#2DCF00" x="0" y="0" width="39.000000" height="24.000000" filter="url(#ds)"/><text style="font-size:12px;font-family:OpenSans;fill:#ffffff;" text-anchor="middle" x="19.500000" y="16.000000">hEGF</text></a></g>
<g transform="translate(645.500000,57.000000)"><a xlink:href="https://www.ebi.ac.uk/interpro/entry/pfam/PF00683" xlink:title="TB domain"><rect fill="#FF5353" x="0" y="0" width="71.500000" height="24.000000" filter="url(#ds)"/><text style="font-size:12px;font-family:OpenSans;fill:#ffffff;" text-anchor="middle" x="35.750000" y="16.000000">TB domain</text></a></g>
<g transform="translate(784.166667,57.000000)"><a xlink:href="https://www.ebi.ac.uk/interpro/entry/pfam/PF07645" xlink:title="Calcium-binding EGF domain"><rect fill="#5B5BFF" x="0" y="0" width="84.500000" height="24.000000" filter="url(#ds)"/><text style="font-size:12px;font-family:OpenSans;fill:#ffffff;" text-anchor="middle" x="42.250000" y="16.000000">EGF_CA</text></a></g>
<g transform="translate(912.000000,57.000000)"><a xlink:href="https://www.ebi.ac.uk/interpro/entry/pfam/PF00683" xlink:title="TB domain"><rect fill="#EBD61D" x="0" y="0" width="88.833333" height="24.000000" filter="url(#ds)"/><text style="font-size:12px;font-family:OpenSans;fill:#ffffff;" text-anchor="middle" x="44.416667" y="16.000000">TB domain</text></a></g>
<g transform="translate(1349.666667,57.000000)"><a xlink:href="https://www.ebi.ac.uk/interpro/entry/pfam/PF07645" xlink:title="Calcium-binding EGF domain"><rect fill="#BA21E0" x="0" y="0" width="91.000000" height="24.000000" filter="url(#ds)"/><text style="font-size:12px;font-family:OpenSans;fill:#ffffff;" text-anchor="middle" x="45.500000" y="16.000000">EGF_CA</text></a></g>
<g transform="translate(1445.000000,57.000000)"><a xlink:href="https://www.ebi.ac.uk/interpro/entry/pfam/PF07645" xlink:title="Calcium-binding EGF domain"><rect fill="#FF9C42" x="0" y="0" width="73.666667" height="24.000000" filter="url(#ds)"/><text style="font-size:12px;font-family:OpenSans;fill:#ffffff;" text-anchor="middle" x="36.833333" y="16.000000">EGF_CA</text></a></g>
<g transform="translate(1538.166667,57.000000)"><a xlink:href="https://www.ebi.ac.uk/interpro/entry/pfam/PF07645" xlink:title="Calcium-binding EGF domain"><rect fill="#FF7DFF" x="0" y="0" width="84.500000" height="24.000000" filter="url(#ds)"/><text style="font-size:12px;font-family:OpenSans;fill:#ffffff;" text-anchor="middle" x="42.250000" y="16.000000">EGF_CA</text></a></g>
<g transform="translate(1672.500000,57.000000)"><a xlink:href="https://www.ebi.ac.uk/interpro/entry/pfam/PF12662" xlink:title="Complement Clr-like EGF-like"><rect fill="#B9264F" x="0" y="0" width="49.833333" height="24.000000" filter="url(#ds)"/><text style="font-size:12px;font-family:OpenSans;fill:#ffffff;" text-anchor="middle" x="24.916667" y="16.000000">cEGF</text></a></g>
<g transform="translate(1737.500000,57.000000)"><a xlink:href="https://www.ebi.ac.uk/interpro/entry/pfam/PF12661" xlink:title="Human growth factor-like EGF"><rect fill="#BABA21" x="0" y="0" width="43.333333" height="24.000000" filter="url(#ds)"/><text style="font-size:12px;font-family:OpenSans;fill:#ffffff;" text-anchor="middle" x="21.666667" y="16.000000">hEGF</text></a></g>
<g transform="translate(1804.666667,57.000000)"><a xlink:href="https://www.ebi.ac.uk/interpro/entry/pfam/PF07645" xlink:title="Calcium-binding EGF domain"><rect fill="#C48484" x="0" y="0" width="67.166667" height="24.000000" filter="url(#ds)"/><text style="font-size:12px;font-family:OpenSans;fill:#ffffff;" text-anchor="middle" x="33.583333" y="16.000000">EGF_CA</text></a></g>
<g transform="translate(1891.333333,57.000000)"><a xlink:href="https://www.ebi.ac.uk/interpro/entry/pfam/PF07645" xlink:title="Calcium-binding EGF domain"><rect fill="#1F88A7" x="0" y="0" width="88.833333" height="24.000000" filter="url(#ds)"/><text style="font-size:12px;font-family:OpenSans;fill:#ffffff;" text-anchor="middle" x="44.416667" y="16.000000">EGF_CA</text></a></g>
<g transform="translate(2027.833333,57.000000)"><a xlink:href="https://www.ebi.ac.uk/interpro/entry/pfam/PF00683" xlink:title="TB domain"><rect fill="#CAFEB8" x="0" y="0" width="91.000000" height="24.000000" filter="url(#ds)"/><text style="font-size:12px;font-family:OpenSans;fill:#ffffff;" text-anchor="middle" x="45.500000" y="16.000000">TB domain</text></a></g>
<g transform="translate(2166.500000,57.000000)"><a xlink:href="https://www.ebi.ac.uk/interpro/entry/pfam/PF07645" xlink:title="Calcium-binding EGF domain"><rect fill="#4A9586" x="0" y="0" width="71.500000" height="24.000000" filter="url(#ds)"/><text style="font-size:12px;font-family:OpenSans;fill:#ffffff;" text-anchor="middle" x="35.750000" y="16.000000">EGF_CA</text></a></g>
<g transform="translate(2259.666667,57.000000)"><a xlink:href="https://www.ebi.ac.uk/interpro/entry/pfam/PF07645" xlink:title="Calcium-binding EGF domain"><rect fill="#CEB86C" x="0" y="0" width="84.500000" height="24.000000" filter="url(#ds)"/><text style="font-size:12px;font-family:OpenSans;fill:#ffffff;" text-anchor="middle" x="42.250000" y="16.000000">EGF_CA</text></a></g>
<g transform="translate(2359.333333,57.000000)"><a xlink:href="https://www.ebi.ac.uk/interpro/entry/pfam/PF07645" xlink:title="Calcium-binding EGF domain"><rect fill="#2DCF00" x="0" y="0" width="84.500000" height="24.000000" filter="url(#ds)"/><text style="font-size:12px;font-family:OpenSans;fill:#ffffff;" text-anchor="middle" x="42.250000" y="16.000000">EGF_CA</text></a></g>
<g transform="translate(2498.000000,57.000000)"><a xlink:href="https://www.ebi.ac.uk/interpro/entry/pfam/PF00683" xlink:title="TB domain"><rect fill="#FF5353" x="0" y="0" width="78.000000" height="24.000000" filter="url(#ds)"/><text style="font-size:12px;font-family:OpenSans;fill:#ffffff;" text-anchor="middle" x="39.000000" y="16.000000">TB domain</text></a></g>
<g transform="translate(2732.000000,57.000000)"><a xlink:href="https://www.ebi.ac.uk/interpro/entry/pfam/PF07645" xlink:title="Calcium-binding EGF domain"><rect fill="#5B5BFF" x="0" y="0" width="93.166667" height="24.000000" filter="url(#ds)"/><text style="font-size:12px;font-family:OpenSans;fill:#ffffff;" text-anchor="middle" x="46.583333" y="16.000000">EGF_CA</text></a></g>
<g class="axis">
<line x1="15.000000" x2="2838.166667" y1="91.000000" y2="91.000000" stroke="#AAAAAA" /><line x1="15.000000" x2="15.000000" y1="91.000000" y2="96.000000" stroke="#AAAAAA" /><line x1="15.000000" x2="15.000000" y1="91.000000" y2="96.000000" stroke="#AAAAAA" /><text style="font-size:10px;font-family:OpenSans;fill:#000000;" text-anchor="middle" x="15.000000" y="106.000000">0</text><line x1="95.166667" x2="95.166667" y1="91.000000" y2="96.000000" stroke="#AAAAAA" /><text style="font-size:10px;font-family:OpenSans;fill:#000000;" text-anchor="middle" x="95.166667" y="106.000000">37</text><line x1="268.500000" x2="268.500000" y1="91.000000" y2="96.000000" stroke="#AAAAAA" /><text style="font-size:10px;font-family:OpenSans;fill:#000000;" text-anchor="middle" x="268.500000" y="106.000000">117</text><line x1="307.500000" x2="307.500000" y1="91.000000" y2="96.000000" stroke="#AAAAAA" /><text style="font-size:10px;font-family:OpenSans;fill:#000000;" text-anchor="middle" x="307.500000" y="106.000000">135</text><line x1="348.666667" x2="348.666667" y1="91.000000" y2="96.000000" stroke="#AAAAAA" /><text style="font-size:10px;font-family:OpenSans;fill:#000000;" text-anchor="middle" x="348.666667" y="106.000000">154</text><line x1="476.500000" x2="476.500000" y1="91.000000" y2="96.000000" stroke="#AAAAAA" /><text style="font-size:10px;font-family:OpenSans;fill:#000000;" text-anchor="middle" x="476.500000" y="106.000000">213</text><line x1="645.500000" x2="645.500000" y1="91.000000" y2="96.000000" stroke="#AAAAAA" /><text style="font-size:10px;font-family:OpenSans;fill:#000000;" text-anchor="middle" x="645.500000" y="106.000000">291</text><line x1="730.000000" x2="730.000000" y1="91.000000" y2="96.000000" stroke="#AAAAAA" /><text style="font-size:10px;font-family:OpenSans;fill:#000000;" text-anchor="middle" x="730.000000" y="106.000000">330</text><line x1="784.166667" x2="784.166667" y1="91.000000" y2="96.000000" stroke="#AAAAAA" /><text style="font-size:10px;font-family:OpenSans;fill:#000000;" text-anchor="middle" x="784.166667" y="106.000000">355</text><line x1="868.666667" x2="868.666667" y1="91.000000" y2="96.000000" stroke="#AAAAAA" /><text style="font-size:10px;font-family:OpenSans;fill:#000000;" text-anchor="middle" x="868.666667" y="106.000000">394</text><line x1="912.000000" x2="912.000000" y1="91.000000" y2="96.000000" stroke="#AAAAAA" /><text style="font-size:10px;font-family:OpenSans;fill:#000000;" text-anchor="middle" x="912.000000" y="106.000000">414</text><line x1="1000.833333" x2="1000.833333" y1="91.000000" y2="96.000000" stroke="#AAAAAA" /><text style="font-size:10px;font-family:OpenSans;fill:#000000;" text-anchor="middle" x="1000.833333" y="106.000000">455</text><line x1="1349.666667" x2="1349.666667" y1="91.000000" y2="96.000000" stroke="#AAAAAA" /><text style="font-size:10px;font-family:OpenSans;fill:#000000;" text-anchor="middle" x="1349.666667" y="106.000000">616</text><line x1="1440.666667" x2="1440.666667" y1="91.000000" y2="96.000000" stroke="#AAAAAA" /><text style="font-size:10px;font-family:OpenSans;fill:#000000;" text-anchor="middle" x="1440.666667" y="106.000000">658</text><line x1="1518.666667" x2="1518.666667" y1="91.000000" y2="96.000000" stroke="#AAAAAA" /><text style="font-size:10px;font-family:OpenSans;fill:#000000;" text-anchor="middle" x="1518.666667" y="106.000000">694</text><line x1="1538.166667" x2="1538.166667" y1="91.000000" y2="96.000000" stroke="#AAAAAA" /><text style="font-size:10px;font-family:OpenSans;fill:#000000;" text-anchor="middle" x="1538.166667" y="106.000000">703</text><line x1="1622.666667" x2="1622.666667" y1="91.000000" y2="96.000000" stroke="#AAAAAA" /><text style="font-size:10px;font-family:OpenSans;fill:#000000;" text-anchor="middle" x="1622.666667" y="106.000000">742</text><line x1="1672.500000" x2="1672.500000" y1="91.000000" y2="96.000000" stroke="#AAAAAA" /><text style="font-size:10px;font-family:OpenSans;fill:#000000;" text-anchor="middle" x="1672.500000" y="106.000000">765</text><line x1="1722.333333" x2="1722.333333" y1="91.000000" y2="96.000000" stroke="#AAAAAA" /><text style="font-size:10px;font-family:OpenSans;fill:#000000;" text-anchor="middle" x="1722.333333" y="106.000000">788</text><line x1="1780.833333" x2="1780.833333" y1="91.000000" y2="96.000000" stroke="#AAAAAA" /><text style="font-size:10px;font-family:OpenSans;fill:#000000;" text-anchor="middle" x="1780.833333" y="106.000000">815</text><line x1="1804.666667" x2="1804.666667" y1="91.000000" y2="96.000000" stroke="#AAAAAA" /><text style="font-size:10px;font-family:OpenSans;fill:#000000;" text-anchor="middle" x="1804.666667" y="106.000000">826</text><line x1="1871.833333" x2="1871.833333" y1="91.000000" y2="96.000000" stroke="#AAAAAA" /><text style="font-size:10px;font-family:OpenSans;fill:#000000;" text-anchor="middle" x="1871.833333" y="106.000000">857</text><line x1="1891.333333" x2="1891.333333" y1="91.000000" y2="96.000000" stroke="#AAAAAA" /><text style="font-size:10px;font-family:OpenSans;fill:#000000;" text-anchor="middle" x="1891.333333" y="106.000000">866</text><line x1="1980.166667" x2="1980.166667" y1="91.000000" y2="96.000000" stroke="#AAAAAA" /><text style="font-size:10px;font-family:OpenSans;fill:#000000;" text-anchor="middle" x="1980.166667" y="106.000000">907</text><line x1="2027.833333" x2="2027.833333" y1="91.000000" y2="96.000000" stroke="#AAAAAA" /><text style="font-size:10px;font-family:OpenSans;fill:#000000;" text-anchor="middle" x="2027.833333" y="106.000000">929</text><line x1="2118.833333" x2="2118.833333" y1="91.000000" y2="96.000000" stroke="#AAAAAA" /><text style="font-size:10px;font-family:OpenSans;fill:#000000;" text-anchor="middle" x="2118.833333" y="106.000000">971</text><line x1="2166.500000" x2="2166.500000" y1="91.000000" y2="96.000000" stroke="#AAAAAA" /><text style="font-size:10px;font-family:OpenSans;fill:#000000;" text-anchor="middle" x="2166.500000" y="106.000000">993</text><line x1="2238.000000" x2="2238.000000" y1="91.000000" y2="96.000000" stroke="#AAAAAA" /><text style="font-size:10px;font-family:OpenSans;fill:#000000;" text-anchor="middle" x="2238.000000" y="106.000000">1026</text><line x1="2259.666667" x2="2259.666667" y1="91.000000" y2="96.000000" stroke="#AAAAAA" /><text style="font-size:10px;font-family:OpenSans;fill:#000000;" text-anchor="middle" x="2259.666667" y="106.000000">1036</text><line x1="2344.166667" x2="2344.166667" y1="91.000000" y2="96.000000" stroke="#AAAAAA" /><text style="font-size:10px;font-family:OpenSans;fill:#000000;" text-anchor="middle" x="2344.166667" y="106.000000">1075</text><line x1="2443.833333" x2="2443.833333" y1="91.000000" y2="96.000000" stroke="#AAAAAA" /><text style="font-size:10px;font-family:OpenSans;fill:#000000;" text-anchor="middle" x="2443.833333" y="106.000000">1121</text><line x1="2498.000000" x2="2498.000000" y1="91.000000" y2="96.000000" stroke="#AAAAAA" /><text style="font-size:10px;font-family:OpenSans;fill:#000000;" text-anchor="middle" x="2498.000000" y="106.000000">1146</text><line x1="2576.000000" x2="2576.000000" y1="91.000000" y2="96.000000" stroke="#AAAAAA" /><text style="font-size:10px;font-family:OpenSans;fill:#000000;" text-anchor="middle" x="2576.000000" y="106.000000">1182</text><line x1="2732.000000" x2="2732.000000" y1="91.000000" y2="96.000000" stroke="#AAAAAA" /><text style="font-size:10px;font-family:OpenSans;fill:#000000;" text-anchor="middle" x="2732.000000" y="106.000000">1254</text><line x1="2838.166667" x2="2838.166667" y1="91.000000" y2="96.000000" stroke="#AAAAAA" /><text style="font-size:10px;font-family:OpenSans;fill:#000000;" text-anchor="middle" x="2838.166667" y="106.000000">1303</text></g>
<rect fill="#BABA21" x="4" y="120.000000" width="12" height="12" filter="url(#ds)"/><text style="font-size:12px;font-family:OpenSans;fill:#000000;" text-anchor="start" x="20" y="132.000000">Human growth factor-like EGF</text><rect fill="#5B5BFF" x="4" y="134.000000" width="12" height="12" filter="url(#ds)"/><text style="font-size:12px;font-family:OpenSans;fill:#000000;" text-anchor="start" x="20" y="146.000000">Calcium-binding EGF domain</text><rect fill="#B9264F" x="4" y="148.000000" width="12" height="12" filter="url(#ds)"/><text style="font-size:12px;font-family:OpenSans;fill:#000000;" text-anchor="start" x="20" y="160.000000">Complement Clr-like EGF-like</text></svg>
