<?xml version='1.0'?>
<svg xmlns="http://www.w3.org/2000/svg" xmlns:xlink="http://www.w3.org/1999/xlink" width="430.000000" height="146.200000">
<defs>
  <filter id="ds" x="0" y="0">
    <feOffset in="SourceAlpha" dx="2" dy="2" />
    <feComponentTransfer><feFuncA type="linear" slope="0.2"/></feComponentTransfer>
    <feGaussianBlur result="blurOut" stdDeviation="1" />
    <feBlend in="SourceGraphic" in2="blurOut" mode="normal" />
  </filter>
  <pattern id="disordered-hatch" patternUnits="userSpaceOnUse" width="4" height="4">
    <path d="M-1,1 l2,-2 M0,4 l4,-4 M3,5 l2,-2" stroke="#000000" opacity="0.3" />
  </pattern>
</defs>
<line x1="167.941176" x2="167.941176" y1="34.000000" y2="62.000000" stroke="#BABDB6" stroke-width="2"/><a xlink:title="L130S"><circle cx="167.941176" cy="34.000000" r="4.000000" fill="#ff0000" /></a><g transform="translate(167.941176,34.000000) rotate(-30)"><text style="font-size:10px;font-family:OpenSans;fill:#555;" text-anchor="middle" x="0" y="-6.000000">L130S</text></g><line x1="175.000000" x2="175.000000" y1="34.000000" y2="62.000000" stroke="#BABDB6" stroke-width="2"/><a xlink:title="T136M"><circle cx="175.000000" cy="34.000000" r="4.000000" fill="#ff0000" /></a><g transform="translate(175.000000,34.000000) rotate(-30)"><text style="font-size:10px;font-family:OpenSans;fill:#555;" text-anchor="middle" x="0" y="-6.000000">T136M</text></g><line x1="191.470588" x2="191.470588" y1="34.000000" y2="62.000000" stroke="#BABDB6" stroke-width="2"/><a xlink:title="T150I"><circle cx="191.470588" cy="34.000000" r="4.000000" fill="#ff0000" /></a><g transform="translate(191.470588,34.000000) rotate(-30)"><text style="font-size:10px;font-family:OpenSans;fill:#555;" text-anchor="middle" x="0" y="-6.000000">T150I</text></g><line x1="199.705882" x2="199.705882" y1="34.000000" y2="62.000000" stroke="#BABDB6" stroke-width="2"/><a xlink:title="L157S"><circle cx="199.705882" cy="34.000000" r="4.000000" fill="#ff0000" /></a><g transform="translate(199.705882,34.000000) rotate(-30)"><text style="font-size:10px;font-family:OpenSans;fill:#555;" text-anchor="middle" x="0" y="-6.000000">L157S</text></g><line x1="206.764706" x2="206.764706" y1="34.000000" y2="62.000000" stroke="#BABDB6" stroke-width="2"/><a xlink:title="T163M"><circle cx="206.764706" cy="34.000000" r="4.000000" fill="#ff0000" /></a><g transform="translate(206.764706,34.000000) rotate(-30)"><text style="font-size:10px;font-family:OpenSans;fill:#555;" text-anchor="middle" x="0" y="-6.000000">T163M</text></g><line x1="223.235294" x2="223.235294" y1="34.000000" y2="62.000000" stroke="#BABDB6" stroke-width="2"/><a xlink:title="T177I"><circle cx="223.235294" cy="34.000000" r="4.000000" fill="#ff0000" /></a><g transform="translate(223.235294,34.000000) rotate(-30)"><text style="font-size:10px;font-family:OpenSans;fill:#555;" text-anchor="middle" x="0" y="-6.000000">T177I</text></g><line x1="277.352941" x2="277.352941" y1="34.000000" y2="62.000000" stroke="#BABDB6" stroke-width="2"/><a xlink:title="P223P"><circle cx="277.352941" cy="34.000000" r="4.000000" fill="#0000ff" /></a><g transform="translate(277.352941,34.000000) rotate(-30)"><text style="font-size:10px;font-family:OpenSans;fill:#555;" text-anchor="middle" x="0" y="-6.000000">P223P</text></g><line x1="287.941176" x2="287.941176" y1="34.000000" y2="62.000000" stroke="#BABDB6" stroke-width="2"/><a xlink:title="L232L"><circle cx="287.941176" cy="34.000000" r="4.000000" fill="#0000ff" /></a><g transform="translate(287.941176,34.000000) rotate(-30)"><text style="font-size:10px;font-family:OpenSans;fill:#555;" text-anchor="middle" x="0" y="-6.000000">L232L</text></g><line x1="309.117647" x2="309.117647" y1="34.000000" y2="62.000000" stroke="#BABDB6" stroke-width="2"/><a xlink:title="P250P"><circle cx="309.117647" cy="34.000000" r="4.000000" fill="#0000ff" /></a><g transform="translate(309.117647,34.000000) rotate(-30)"><text style="font-size:10px;font-family:OpenSans;fill:#555;" text-anchor="middle" x="0" y="-6.000000">P250P</text></g><line x1="319.705882" x2="319.705882" y1="34.000000" y2="62.000000" stroke="#BABDB6" stroke-width="2"/><a xlink:title="L259L"><circle cx="319.705882" cy="34.000000" r="4.000000" fill="#0000ff" /></a><g transform="translate(319.705882,34.000000) rotate(-30)"><text style="font-size:10px;font-family:OpenSans;fill:#555;" text-anchor="middle" x="0" y="-6.000000">L259L</text></g><line x1="366.764706" x2="366.764706" y1="34.000000" y2="62.000000" stroke="#BABDB6" stroke-width="2"/><a xlink:title="S299T"><circle cx="366.764706" cy="34.000000" r="4.000000" fill="#ff0000" /></a><g transform="translate(366.764706,34.000000) rotate(-30)"><text style="font-size:10px;font-family:OpenSans;fill:#555;" text-anchor="middle" x="0" y="-6.000000">S299T</text></g><line x1="398.529412" x2="398.529412" y1="34.000000" y2="62.000000" stroke="#BABDB6" stroke-width="2"/><a xlink:title="S326T"><circle cx="398.529412" cy="34.000000" r="4.000000" fill="#ff0000" /></a><g transform="translate(398.529412,34.000000) rotate(-30)"><text style="font-size:10px;font-family:OpenSans;fill:#555;" text-anchor="middle" x="0" y="-6.000000">S326T</text></g><a xlink:title=",  (340aa)"><rect fill="#BABDB6" x="15.000000" y="62.000000" width="400.000000" height="14.000000"/></a><g transform="translate(63.235294,57.000000)"><a xlink:href="https://www.ebi.ac.uk/interpro/entry/pfam/PF07502" xlink:title="MANEC domain"><rect fill="#2DCF00" x="0" y="0" width="78.823529" height="24.000000" filter="url(#ds)"/><text style="font-size:12px;font-family:OpenSans;fill:#ffffff;" text-anchor="middle" x="39.411765" y="16.000000">MANEC</text></a></g>
<g class="axis">
<line x1="15.000000" x2="415.000000" y1="91.000000" y2="91.000000" stroke="#AAAAAA" /><line x1="15.000000" x2="15.000000" y1="91.000000" y2="96.000000" stroke="#AAAAAA" /><line x1="15.000000" x2="15.000000" y1="91.000000" y2="96.000000" stroke="#AAAAAA" /><text style="font-size:10px;font-family:OpenSans;fill:#000000;" text-anchor="middle" x="15.000000" y="106.000000">0</text><line x1="63.235294" x2="63.235294" y1="91.000000" y2="96.000000" stroke="#AAAAAA" /><text style="font-size:10px;font-family:OpenSans;fill:#000000;" text-anchor="middle" x="63.235294" y="106.000000">41</text><line x1="142.058824" x2="142.058824" y1="91.000000" y2="96.000000" stroke="#AAAAAA" /><text style="font-size:10px;font-family:OpenSans;fill:#000000;" text-anchor="middle" x="142.058824" y="106.000000">108</text><line x1="167.941176" x2="167.941176" y1="91.000000" y2="96.000000" stroke="#AAAAAA" /><text style="font-size:10px;font-family:OpenSans;fill:#000000;" text-anchor="middle" x="167.941176" y="106.000000">130</text><line x1="191.470588" x2="191.470588" y1="91.000000" y2="96.000000" stroke="#AAAAAA" /><text style="font-size:10px;font-family:OpenSans;fill:#000000;" text-anchor="middle" x="191.470588" y="106.000000">150</text><line x1="223.235294" x2="223.235294" y1="91.000000" y2="96.000000" stroke="#AAAAAA" /><text style="font-size:10px;font-family:OpenSans;fill:#000000;" text-anchor="middle" x="223.235294" y="106.000000">177</text><line x1="277.352941" x2="277.352941" y1="91.000000" y2="96.000000" stroke="#AAAAAA" /><text style="font-size:10px;font-family:OpenSans;fill:#000000;" text-anchor="middle" x="277.352941" y="106.000000">223</text><line x1="309.117647" x2="309.117647" y1="91.000000" y2="96.000000" stroke="#AAAAAA" /><text style="font-size:10px;font-family:OpenSans;fill:#000000;" text-anchor="middle" x="309.117647" y="106.000000">250</text><line x1="366.764706" x2="366.764706" y1="91.000000" y2="96.000000" stroke="#AAAAAA" /><text style="font-size:10px;font-family:OpenSans;fill:#000000;" text-anchor="middle" x="366.764706" y="106.000000">299</text><line x1="415.000000" x2="415.000000" y1="91.000000" y2="96.000000" stroke="#AAAAAA" /><text style="font-size:10px;font-family:OpenSans;fill:#000000;" text-anchor="middle" x="415.000000" y="106.000000">340</text></g>
<rect fill="#2DCF00" x="4" y="120.000000" width="12" height="12" filter="url(#ds)"/><text style="font-size:12px;font-family:OpenSans;fill:#000000;" text-anchor="start" x="20" y="132.000000">MANEC domain</text></svg>
