<?xml version='1.0'?>
<svg xmlns="http://www.w3.org/2000/svg" xmlns:xlink="http://www.w3.org/1999/xlink" width="430.000000" height="158.700000">
<defs>
  <filter id="ds" x="0" y="0">
    <feOffset in="SourceAlpha" dx="2" dy="2" />
    <feComponentTransfer><feFuncA type="linear" slope="0.2"/></feComponentTransfer>
    <feGaussianBlur result="blurOut" stdDeviation="1" />
    <feBlend in="SourceGraphic" in2="blurOut" mode="normal" />
  </filter>
  <pattern id="disordered-hatch" patternUnits="userSpaceOnUse" width="4" height="4">
    <path d="M-1,1 l2,-2 M0,4 l4,-4 M3,5 l2,-2" stroke="#000000" opacity="0.3" />
  </pattern>
</defs>
<line x1="187.651605" x2="187.651605" y1="34.000000" y2="74.500000" stroke="#BABDB6" stroke-width="2"/><a xlink:title="P363P"><circle cx="187.651605" cy="34.000000" r="4.000000" fill="#0000ff" /></a><g transform="translate(187.651605,34.000000) rotate(-30)"><text style="font-size:10px;font-family:OpenSans;fill:#555;" text-anchor="middle" x="0" y="-6.000000">P363P</text></g><line x1="190.029727" x2="190.029727" y1="46.500000" y2="74.500000" stroke="#BABDB6" stroke-width="2"/><a xlink:title="P368P"><circle cx="190.029727" cy="46.500000" r="4.000000" fill="#0000ff" /></a><g transform="translate(190.029727,46.500000) rotate(-30)"><text style="font-size:10px;font-family:OpenSans;fill:#555;" text-anchor="middle" x="0" y="-6.000000">P368P</text></g><line x1="205.249703" x2="205.249703" y1="46.500000" y2="74.500000" stroke="#BABDB6" stroke-width="2"/><a xlink:title="P400P"><circle cx="205.249703" cy="46.500000" r="4.000000" fill="#0000ff" /></a><g transform="translate(205.249703,46.500000) rotate(-30)"><text style="font-size:10px;font-family:OpenSans;fill:#555;" text-anchor="middle" x="0" y="-6.000000">P400P</text></g><line x1="261.373365" x2="261.373365" y1="34.000000" y2="74.500000" stroke="#BABDB6" stroke-width="2"/><a xlink:title="P518P"><circle cx="261.373365" cy="34.000000" r="4.000000" fill="#0000ff" /></a><g transform="translate(261.373365,34.000000) rotate(-30)"><text style="font-size:10px;font-family:OpenSans;fill:#555;" text-anchor="middle" x="0" y="-6.000000">P518P</text></g><line x1="263.751486" x2="263.751486" y1="46.500000" y2="74.500000" stroke="#BABDB6" stroke-width="2"/><a xlink:title="P523P"><circle cx="263.751486" cy="46.500000" r="4.000000" fill="#0000ff" /></a><g transform="translate(263.751486,46.500000) rotate(-30)"><text style="font-size:10px;font-family:OpenSans;fill:#555;" text-anchor="middle" x="0" y="-6.000000">P523P</text></g><line x1="278.971463" x2="278.971463" y1="46.500000" y2="74.500000" stroke="#BABDB6" stroke-width="2"/><a xlink:title="P555P"><circle cx="278.971463" cy="46.500000" r="4.000000" fill="#0000ff" /></a><g transform="translate(278.971463,46.500000) rotate(-30)"><text style="font-size:10px;font-family:OpenSans;fill:#555;" text-anchor="middle" x="0" y="-6.000000">P555P</text></g><line x1="368.864447" x2="368.864447" y1="34.000000" y2="74.500000" stroke="#BABDB6" stroke-width="2"/><a xlink:title="A744A"><circle cx="368.864447" cy="34.000000" r="4.000000" fill="#0000ff" /></a><g transform="translate(368.864447,34.000000) rotate(-30)"><text style="font-size:10px;font-family:OpenSans;fill:#555;" text-anchor="middle" x="0" y="-6.000000">A744A</text></g><line x1="371.242568" x2="371.242568" y1="46.500000" y2="74.500000" stroke="#BABDB6" stroke-width="2"/><a xlink:title="A749A"><circle cx="371.242568" cy="46.500000" r="4.000000" fill="#0000ff" /></a><g transform="translate(371.242568,46.500000) rotate(-30)"><text style="font-size:10px;font-family:OpenSans;fill:#555;" text-anchor="middle" x="0" y="-6.000000">A749A</text></g><line x1="386.462545" x2="386.462545" y1="34.000000" y2="74.500000" stroke="#BABDB6" stroke-width="2"/><a xlink:title="A781A"><circle cx="386.462545" cy="34.000000" r="4.000000" fill="#0000ff" /></a><g transform="translate(386.462545,34.000000) rotate(-30)"><text style="font-size:10px;font-family:OpenSans;fill:#555;" text-anchor="middle" x="0" y="-6.000000">A781A</text></g><line x1="386.938169" x2="386.938169" y1="46.500000" y2="74.500000" stroke="#BABDB6" stroke-width="2"/><a xlink:title="A782A"><circle cx="386.938169" cy="46.500000" r="4.000000" fill="#0000ff" /></a><g transform="translate(386.938169,46.500000) rotate(-30)"><text style="font-size:10px;font-family:OpenSans;fill:#555;" text-anchor="middle" x="0" y="-6.000000">A782A</text></g><a xlink:title=",  (841aa)"><rect fill="#BABDB6" x="15.000000" y="74.500000" width="400.000000" height="14.000000"/></a><g transform="translate(294.667063,69.500000)"><a xlink:href="https://www.ebi.ac.uk/interpro/entry/pfam/PF05672" xlink:title="MAP7 (E-MAP-115) family"><rect fill="#2DCF00" x="0" y="0" width="65.160523" height="24.000000" filter="url(#ds)"/><text style="font-size:12px;font-family:OpenSans;fill:#ffffff;" text-anchor="middle" x="32.580262" y="16.000000">MAP7</text></a></g>
<g class="axis">
<line x1="15.000000" x2="415.000000" y1="103.500000" y2="103.500000" stroke="#AAAAAA" /><line x1="15.000000" x2="15.000000" y1="103.500000" y2="108.500000" stroke="#AAAAAA" /><line x1="15.000000" x2="15.000000" y1="103.500000" y2="108.500000" stroke="#AAAAAA" /><text style="font-size:10px;font-family:OpenSans;fill:#000000;" text-anchor="middle" x="15.000000" y="118.500000">0</text><line x1="187.651605" x2="187.651605" y1="103.500000" y2="108.500000" stroke="#AAAAAA" /><text style="font-size:10px;font-family:OpenSans;fill:#000000;" text-anchor="middle" x="187.651605" y="118.500000">363</text><line x1="261.373365" x2="261.373365" y1="103.500000" y2="108.500000" stroke="#AAAAAA" /><text style="font-size:10px;font-family:OpenSans;fill:#000000;" text-anchor="middle" x="261.373365" y="118.500000">518</text><line x1="294.667063" x2="294.667063" y1="103.500000" y2="108.500000" stroke="#AAAAAA" /><text style="font-size:10px;font-family:OpenSans;fill:#000000;" text-anchor="middle" x="294.667063" y="118.500000">588</text><line x1="368.864447" x2="368.864447" y1="103.500000" y2="108.500000" stroke="#AAAAAA" /><text style="font-size:10px;font-family:OpenSans;fill:#000000;" text-anchor="middle" x="368.864447" y="118.500000">744</text><line x1="415.000000" x2="415.000000" y1="103.500000" y2="108.500000" stroke="#AAAAAA" /><text style="font-size:10px;font-family:OpenSans;fill:#000000;" text-anchor="middle" x="415.000000" y="118.500000">841</text></g>
<rect fill="#2DCF00" x="4" y="132.500000" width="12" height="12" filter="url(#ds)"/><text style="font-size:12px;font-family:OpenSans;fill:#000000;" text-anchor="start" x="20" y="144.500000">MAP7 (E-MAP-115) family</text></svg>
