<?xml version='1.0'?>
<svg xmlns="http://www.w3.org/2000/svg" xmlns:xlink="http://www.w3.org/1999/xlink" width="430.000000" height="171.200000">
<defs>
  <filter id="ds" x="0" y="0">
    <feOffset in="SourceAlpha" dx="2" dy="2" />
    <feComponentTransfer><feFuncA type="linear" slope="0.2"/></feComponentTransfer>
    <feGaussianBlur result="blurOut" stdDeviation="1" />
    <feBlend in="SourceGraphic" in2="blurOut" mode="normal" />
  </filter>
  <pattern id="disordered-hatch" patternUnits="userSpaceOnUse" width="4" height="4">
    <path d="M-1,1 l2,-2 M0,4 l4,-4 M3,5 l2,-2" stroke="#000000" opacity="0.3" />
  </pattern>
</defs>
<line x1="141.460481" x2="141.460481" y1="59.000000" y2="87.000000" stroke="#BABDB6" stroke-width="2"/><a xlink:title="P92S"><circle cx="141.460481" cy="59.000000" r="4.000000" fill="#ff0000" /></a><g transform="translate(141.460481,59.000000) rotate(-30)"><text style="font-size:10px;font-family:OpenSans;fill:#555;" text-anchor="middle" x="0" y="-6.000000">P92S</text></g><line x1="153.831615" x2="153.831615" y1="59.000000" y2="87.000000" stroke="#BABDB6" stroke-width="2"/><a xlink:title="S101L"><circle cx="153.831615" cy="59.000000" r="4.000000" fill="#ff0000" /></a><g transform="translate(153.831615,59.000000) rotate(-30)"><text style="font-size:10px;font-family:OpenSans;fill:#555;" text-anchor="middle" x="0" y="-6.000000">S101L</text></g><line x1="360.017182" x2="360.017182" y1="59.000000" y2="87.000000" stroke="#BABDB6" stroke-width="2"/><a xlink:title="A251T"><circle cx="360.017182" cy="59.000000" r="4.000000" fill="#ff0000" /></a><g transform="translate(360.017182,59.000000) rotate(-30)"><text style="font-size:10px;font-family:OpenSans;fill:#555;" text-anchor="middle" x="0" y="-6.000000">A251T</text></g><line x1="380.635739" x2="380.635739" y1="34.000000" y2="87.000000" stroke="#BABDB6" stroke-width="2"/><a xlink:title="Y266H"><circle cx="380.635739" cy="34.000000" r="4.000000" fill="#ff0000" /></a><g transform="translate(380.635739,34.000000) rotate(-30)"><text style="font-size:10px;font-family:OpenSans;fill:#555;" text-anchor="middle" x="0" y="-6.000000">Y266H</text></g><line x1="384.759450" x2="384.759450" y1="46.500000" y2="87.000000" stroke="#BABDB6" stroke-width="2"/><a xlink:title="L269W"><circle cx="384.759450" cy="46.500000" r="4.000000" fill="#ff0000" /></a><g transform="translate(384.759450,46.500000) rotate(-30)"><text style="font-size:10px;font-family:OpenSans;fill:#555;" text-anchor="middle" x="0" y="-6.000000">L269W</text></g><line x1="384.759450" x2="384.759450" y1="59.000000" y2="87.000000" stroke="#BABDB6" stroke-width="2"/><a xlink:title="L269S"><circle cx="384.759450" cy="59.000000" r="4.000000" fill="#ff0000" /></a><g transform="translate(384.759450,59.000000) rotate(-30)"><text style="font-size:10px;font-family:OpenSans;fill:#555;" text-anchor="middle" x="0" y="-6.000000">L269S</text></g><line x1="395.756014" x2="395.756014" y1="59.000000" y2="87.000000" stroke="#BABDB6" stroke-width="2"/><a xlink:title="F277L"><circle cx="395.756014" cy="59.000000" r="4.000000" fill="#ff0000" /></a><g transform="translate(395.756014,59.000000) rotate(-30)"><text style="font-size:10px;font-family:OpenSans;fill:#555;" text-anchor="middle" x="0" y="-6.000000">F277L</text></g><line x1="478.230241" x2="478.230241" y1="59.000000" y2="87.000000" stroke="#BABDB6" stroke-width="2"/><a xlink:title="S337S"><circle cx="478.230241" cy="59.000000" r="4.000000" fill="#0000ff" /></a><g transform="translate(478.230241,59.000000) rotate(-30)"><text style="font-size:10px;font-family:OpenSans;fill:#555;" text-anchor="middle" x="0" y="-6.000000">S337S</text></g><line x1="529.089347" x2="529.089347" y1="59.000000" y2="87.000000" stroke="#BABDB6" stroke-width="2"/><a xlink:title="P374S"><circle cx="529.089347" cy="59.000000" r="4.000000" fill="#ff0000" /></a><g transform="translate(529.089347,59.000000) rotate(-30)"><text style="font-size:10px;font-family:OpenSans;fill:#555;" text-anchor="middle" x="0" y="-6.000000">P374S</text></g><line x1="768.264605" x2="768.264605" y1="59.000000" y2="87.000000" stroke="#BABDB6" stroke-width="2"/><a xlink:title="Y548H"><circle cx="768.264605" cy="59.000000" r="4.000000" fill="#ff0000" /></a><g transform="translate(768.264605,59.000000) rotate(-30)"><text style="font-size:10px;font-family:OpenSans;fill:#555;" text-anchor="middle" x="0" y="-6.000000">Y548H</text></g><a xlink:title=",  (291aa)"><rect fill="#BABDB6" x="15.000000" y="87.000000" width="400.000000" height="14.000000"/></a><g transform="translate(124.965636,82.000000)"><a xlink:href="https://www.ebi.ac.uk/interpro/entry/pfam/PF12906" xlink:title="RING-variant domain"><rect fill="#2DCF00" x="0" y="0" width="63.230241" height="24.000000" filter="url(#ds)"/><text style="font-size:12px;font-family:OpenSans;fill:#ffffff;" text-anchor="middle" x="31.615120" y="16.000000">RINGv</text></a></g>
<g class="axis">
<line x1="15.000000" x2="415.000000" y1="116.000000" y2="116.000000" stroke="#AAAAAA" /><line x1="15.000000" x2="15.000000" y1="116.000000" y2="121.000000" stroke="#AAAAAA" /><line x1="15.000000" x2="15.000000" y1="116.000000" y2="121.000000" stroke="#AAAAAA" /><text style="font-size:10px;font-family:OpenSans;fill:#000000;" text-anchor="middle" x="15.000000" y="131.000000">0</text><line x1="141.460481" x2="141.460481" y1="116.000000" y2="121.000000" stroke="#AAAAAA" /><text style="font-size:10px;font-family:OpenSans;fill:#000000;" text-anchor="middle" x="141.460481" y="131.000000">92</text><line x1="188.195876" x2="188.195876" y1="116.000000" y2="121.000000" stroke="#AAAAAA" /><text style="font-size:10px;font-family:OpenSans;fill:#000000;" text-anchor="middle" x="188.195876" y="131.000000">126</text><line x1="360.017182" x2="360.017182" y1="116.000000" y2="121.000000" stroke="#AAAAAA" /><text style="font-size:10px;font-family:OpenSans;fill:#000000;" text-anchor="middle" x="360.017182" y="131.000000">251</text><line x1="380.635739" x2="380.635739" y1="116.000000" y2="121.000000" stroke="#AAAAAA" /><text style="font-size:10px;font-family:OpenSans;fill:#000000;" text-anchor="middle" x="380.635739" y="131.000000">266</text><line x1="415.000000" x2="415.000000" y1="116.000000" y2="121.000000" stroke="#AAAAAA" /><text style="font-size:10px;font-family:OpenSans;fill:#000000;" text-anchor="middle" x="415.000000" y="131.000000">291</text><line x1="478.230241" x2="478.230241" y1="116.000000" y2="121.000000" stroke="#AAAAAA" /><text style="font-size:10px;font-family:OpenSans;fill:#000000;" text-anchor="middle" x="478.230241" y="131.000000">337</text><line x1="529.089347" x2="529.089347" y1="116.000000" y2="121.000000" stroke="#AAAAAA" /><text style="font-size:10px;font-family:OpenSans;fill:#000000;" text-anchor="middle" x="529.089347" y="131.000000">374</text><line x1="768.264605" x2="768.264605" y1="116.000000" y2="121.000000" stroke="#AAAAAA" /><text style="font-size:10px;font-family:OpenSans;fill:#000000;" text-anchor="middle" x="768.264605" y="131.000000">548</text></g>
<rect fill="#2DCF00" x="4" y="145.000000" width="12" height="12" filter="url(#ds)"/><text style="font-size:12px;font-family:OpenSans;fill:#000000;" text-anchor="start" x="20" y="157.000000">RING-variant domain</text></svg>
