<?xml version='1.0'?>
<svg xmlns="http://www.w3.org/2000/svg" xmlns:xlink="http://www.w3.org/1999/xlink" width="430.000000" height="171.900000">
<defs>
  <filter id="ds" x="0" y="0">
    <feOffset in="SourceAlpha" dx="2" dy="2" />
    <feComponentTransfer><feFuncA type="linear" slope="0.2"/></feComponentTransfer>
    <feGaussianBlur result="blurOut" stdDeviation="1" />
    <feBlend in="SourceGraphic" in2="blurOut" mode="normal" />
  </filter>
  <pattern id="disordered-hatch" patternUnits="userSpaceOnUse" width="4" height="4">
    <path d="M-1,1 l2,-2 M0,4 l4,-4 M3,5 l2,-2" stroke="#000000" opacity="0.3" />
  </pattern>
</defs>
<line x1="74.225513" x2="74.225513" y1="46.500000" y2="74.500000" stroke="#BABDB6" stroke-width="2"/><a xlink:title="R130*"><circle cx="74.225513" cy="46.500000" r="4.000000" fill="#0000ff" /></a><g transform="translate(74.225513,46.500000) rotate(-30)"><text style="font-size:10px;font-family:OpenSans;fill:#555;" text-anchor="middle" x="0" y="-6.000000">R130*</text></g><line x1="120.694761" x2="120.694761" y1="46.500000" y2="74.500000" stroke="#BABDB6" stroke-width="2"/><a xlink:title="P232P"><circle cx="120.694761" cy="46.500000" r="4.000000" fill="#0000ff" /></a><g transform="translate(120.694761,46.500000) rotate(-30)"><text style="font-size:10px;font-family:OpenSans;fill:#555;" text-anchor="middle" x="0" y="-6.000000">P232P</text></g><line x1="148.029613" x2="148.029613" y1="34.000000" y2="74.500000" stroke="#BABDB6" stroke-width="2"/><a xlink:title="P292P"><circle cx="148.029613" cy="34.000000" r="4.000000" fill="#0000ff" /></a><g transform="translate(148.029613,34.000000) rotate(-30)"><text style="font-size:10px;font-family:OpenSans;fill:#555;" text-anchor="middle" x="0" y="-6.000000">P292P</text></g><line x1="153.496583" x2="153.496583" y1="46.500000" y2="74.500000" stroke="#BABDB6" stroke-width="2"/><a xlink:title="P304P"><circle cx="153.496583" cy="46.500000" r="4.000000" fill="#0000ff" /></a><g transform="translate(153.496583,46.500000) rotate(-30)"><text style="font-size:10px;font-family:OpenSans;fill:#555;" text-anchor="middle" x="0" y="-6.000000">P304P</text></g><line x1="186.298405" x2="186.298405" y1="34.000000" y2="74.500000" stroke="#BABDB6" stroke-width="2"/><a xlink:title="R376*"><circle cx="186.298405" cy="34.000000" r="4.000000" fill="#0000ff" /></a><g transform="translate(186.298405,34.000000) rotate(-30)"><text style="font-size:10px;font-family:OpenSans;fill:#555;" text-anchor="middle" x="0" y="-6.000000">R376*</text></g><line x1="189.943052" x2="189.943052" y1="46.500000" y2="74.500000" stroke="#BABDB6" stroke-width="2"/><a xlink:title="L384V"><circle cx="189.943052" cy="46.500000" r="4.000000" fill="#ff0000" /></a><g transform="translate(189.943052,46.500000) rotate(-30)"><text style="font-size:10px;font-family:OpenSans;fill:#555;" text-anchor="middle" x="0" y="-6.000000">L384V</text></g><line x1="196.321185" x2="196.321185" y1="46.500000" y2="74.500000" stroke="#BABDB6" stroke-width="2"/><a xlink:title="P398P"><circle cx="196.321185" cy="46.500000" r="4.000000" fill="#0000ff" /></a><g transform="translate(196.321185,46.500000) rotate(-30)"><text style="font-size:10px;font-family:OpenSans;fill:#555;" text-anchor="middle" x="0" y="-6.000000">P398P</text></g><line x1="202.699317" x2="202.699317" y1="46.500000" y2="74.500000" stroke="#BABDB6" stroke-width="2"/><a xlink:title="G412G"><circle cx="202.699317" cy="46.500000" r="4.000000" fill="#0000ff" /></a><g transform="translate(202.699317,46.500000) rotate(-30)"><text style="font-size:10px;font-family:OpenSans;fill:#555;" text-anchor="middle" x="0" y="-6.000000">G412G</text></g><line x1="213.633257" x2="213.633257" y1="34.000000" y2="74.500000" stroke="#BABDB6" stroke-width="2"/><a xlink:title="R436*"><circle cx="213.633257" cy="34.000000" r="4.000000" fill="#0000ff" /></a><g transform="translate(213.633257,34.000000) rotate(-30)"><text style="font-size:10px;font-family:OpenSans;fill:#555;" text-anchor="middle" x="0" y="-6.000000">R436*</text></g><line x1="219.100228" x2="219.100228" y1="46.500000" y2="74.500000" stroke="#BABDB6" stroke-width="2"/><a xlink:title="R448*"><circle cx="219.100228" cy="46.500000" r="4.000000" fill="#0000ff" /></a><g transform="translate(219.100228,46.500000) rotate(-30)"><text style="font-size:10px;font-family:OpenSans;fill:#555;" text-anchor="middle" x="0" y="-6.000000">R448*</text></g><line x1="261.924829" x2="261.924829" y1="46.500000" y2="74.500000" stroke="#BABDB6" stroke-width="2"/><a xlink:title="R542*"><circle cx="261.924829" cy="46.500000" r="4.000000" fill="#0000ff" /></a><g transform="translate(261.924829,46.500000) rotate(-30)"><text style="font-size:10px;font-family:OpenSans;fill:#555;" text-anchor="middle" x="0" y="-6.000000">R542*</text></g><line x1="276.958998" x2="276.958998" y1="46.500000" y2="74.500000" stroke="#BABDB6" stroke-width="2"/><a xlink:title="L575V"><circle cx="276.958998" cy="46.500000" r="4.000000" fill="#ff0000" /></a><g transform="translate(276.958998,46.500000) rotate(-30)"><text style="font-size:10px;font-family:OpenSans;fill:#555;" text-anchor="middle" x="0" y="-6.000000">L575V</text></g><line x1="289.715262" x2="289.715262" y1="46.500000" y2="74.500000" stroke="#BABDB6" stroke-width="2"/><a xlink:title="G603G"><circle cx="289.715262" cy="46.500000" r="4.000000" fill="#0000ff" /></a><g transform="translate(289.715262,46.500000) rotate(-30)"><text style="font-size:10px;font-family:OpenSans;fill:#555;" text-anchor="middle" x="0" y="-6.000000">G603G</text></g><line x1="302.015945" x2="302.015945" y1="46.500000" y2="74.500000" stroke="#BABDB6" stroke-width="2"/><a xlink:title="L630V"><circle cx="302.015945" cy="46.500000" r="4.000000" fill="#ff0000" /></a><g transform="translate(302.015945,46.500000) rotate(-30)"><text style="font-size:10px;font-family:OpenSans;fill:#555;" text-anchor="middle" x="0" y="-6.000000">L630V</text></g><line x1="314.772210" x2="314.772210" y1="46.500000" y2="74.500000" stroke="#BABDB6" stroke-width="2"/><a xlink:title="G658G"><circle cx="314.772210" cy="46.500000" r="4.000000" fill="#0000ff" /></a><g transform="translate(314.772210,46.500000) rotate(-30)"><text style="font-size:10px;font-family:OpenSans;fill:#555;" text-anchor="middle" x="0" y="-6.000000">G658G</text></g><line x1="334.817768" x2="334.817768" y1="46.500000" y2="74.500000" stroke="#BABDB6" stroke-width="2"/><a xlink:title="L702V"><circle cx="334.817768" cy="46.500000" r="4.000000" fill="#ff0000" /></a><g transform="translate(334.817768,46.500000) rotate(-30)"><text style="font-size:10px;font-family:OpenSans;fill:#555;" text-anchor="middle" x="0" y="-6.000000">L702V</text></g><line x1="347.574032" x2="347.574032" y1="34.000000" y2="74.500000" stroke="#BABDB6" stroke-width="2"/><a xlink:title="G730G"><circle cx="347.574032" cy="34.000000" r="4.000000" fill="#0000ff" /></a><g transform="translate(347.574032,34.000000) rotate(-30)"><text style="font-size:10px;font-family:OpenSans;fill:#555;" text-anchor="middle" x="0" y="-6.000000">G730G</text></g><line x1="352.585421" x2="352.585421" y1="46.500000" y2="74.500000" stroke="#BABDB6" stroke-width="2"/><a xlink:title="L741V"><circle cx="352.585421" cy="46.500000" r="4.000000" fill="#ff0000" /></a><g transform="translate(352.585421,46.500000) rotate(-30)"><text style="font-size:10px;font-family:OpenSans;fill:#555;" text-anchor="middle" x="0" y="-6.000000">L741V</text></g><line x1="358.963554" x2="358.963554" y1="46.500000" y2="74.500000" stroke="#BABDB6" stroke-width="2"/><a xlink:title="L755V"><circle cx="358.963554" cy="46.500000" r="4.000000" fill="#ff0000" /></a><g transform="translate(358.963554,46.500000) rotate(-30)"><text style="font-size:10px;font-family:OpenSans;fill:#555;" text-anchor="middle" x="0" y="-6.000000">L755V</text></g><line x1="365.341686" x2="365.341686" y1="34.000000" y2="74.500000" stroke="#BABDB6" stroke-width="2"/><a xlink:title="G769G"><circle cx="365.341686" cy="34.000000" r="4.000000" fill="#0000ff" /></a><g transform="translate(365.341686,34.000000) rotate(-30)"><text style="font-size:10px;font-family:OpenSans;fill:#555;" text-anchor="middle" x="0" y="-6.000000">G769G</text></g><line x1="371.264237" x2="371.264237" y1="34.000000" y2="74.500000" stroke="#BABDB6" stroke-width="2"/><a xlink:title="L782V"><circle cx="371.264237" cy="34.000000" r="4.000000" fill="#ff0000" /></a><g transform="translate(371.264237,34.000000) rotate(-30)"><text style="font-size:10px;font-family:OpenSans;fill:#555;" text-anchor="middle" x="0" y="-6.000000">L782V</text></g><line x1="371.719818" x2="371.719818" y1="34.000000" y2="74.500000" stroke="#BABDB6" stroke-width="2"/><a xlink:title="G783G"><circle cx="371.719818" cy="34.000000" r="4.000000" fill="#0000ff" /></a><g transform="translate(371.719818,34.000000) rotate(-30)"><text style="font-size:10px;font-family:OpenSans;fill:#555;" text-anchor="middle" x="0" y="-6.000000">G783G</text></g><line x1="377.642369" x2="377.642369" y1="46.500000" y2="74.500000" stroke="#BABDB6" stroke-width="2"/><a xlink:title="L796V"><circle cx="377.642369" cy="46.500000" r="4.000000" fill="#ff0000" /></a><g transform="translate(377.642369,46.500000) rotate(-30)"><text style="font-size:10px;font-family:OpenSans;fill:#555;" text-anchor="middle" x="0" y="-6.000000">L796V</text></g><line x1="384.020501" x2="384.020501" y1="46.500000" y2="74.500000" stroke="#BABDB6" stroke-width="2"/><a xlink:title="G810G"><circle cx="384.020501" cy="46.500000" r="4.000000" fill="#0000ff" /></a><g transform="translate(384.020501,46.500000) rotate(-30)"><text style="font-size:10px;font-family:OpenSans;fill:#555;" text-anchor="middle" x="0" y="-6.000000">G810G</text></g><line x1="390.398633" x2="390.398633" y1="46.500000" y2="74.500000" stroke="#BABDB6" stroke-width="2"/><a xlink:title="G824G"><circle cx="390.398633" cy="46.500000" r="4.000000" fill="#0000ff" /></a><g transform="translate(390.398633,46.500000) rotate(-30)"><text style="font-size:10px;font-family:OpenSans;fill:#555;" text-anchor="middle" x="0" y="-6.000000">G824G</text></g><a xlink:title=",  (878aa)"><rect fill="#BABDB6" x="15.000000" y="74.500000" width="400.000000" height="14.000000"/></a><g transform="translate(104.293850,69.500000)"><a xlink:href="https://www.ebi.ac.uk/interpro/entry/pfam/PF00168" xlink:title="C2 domain"><rect fill="#2DCF00" x="0" y="0" width="44.191344" height="24.000000" filter="url(#ds)"/><text style="font-size:12px;font-family:OpenSans;fill:#ffffff;" text-anchor="middle" x="22.095672" y="16.000000">C2</text></a></g>
<g transform="translate(178.097950,69.500000)"><a xlink:href="https://www.ebi.ac.uk/interpro/entry/pfam/PF00168" xlink:title="C2 domain"><rect fill="#FF5353" x="0" y="0" width="41.002278" height="24.000000" filter="url(#ds)"/><text style="font-size:12px;font-family:OpenSans;fill:#ffffff;" text-anchor="middle" x="20.501139" y="16.000000">C2</text></a></g>
<g transform="translate(246.890661,69.500000)"><a xlink:href="https://www.ebi.ac.uk/interpro/entry/pfam/PF00168" xlink:title="C2 domain"><rect fill="#5B5BFF" x="0" y="0" width="42.369021" height="24.000000" filter="url(#ds)"/><text style="font-size:12px;font-family:OpenSans;fill:#ffffff;" text-anchor="middle" x="21.184510" y="16.000000">C2</text></a></g>
<g transform="translate(348.029613,69.500000)"><a xlink:href="https://www.ebi.ac.uk/interpro/entry/pfam/PF08372" xlink:title="Plant phosphoribosyltransferase C-terminal"><rect fill="#EBD61D" x="0" y="0" width="56.036446" height="24.000000" filter="url(#ds)"/><text style="font-size:12px;font-family:OpenSans;fill:#ffffff;" text-anchor="middle" x="28.018223" y="16.000000">PRT_C</text></a></g>
<g class="axis">
<line x1="15.000000" x2="415.000000" y1="103.500000" y2="103.500000" stroke="#AAAAAA" /><line x1="15.000000" x2="15.000000" y1="103.500000" y2="108.500000" stroke="#AAAAAA" /><line x1="15.000000" x2="15.000000" y1="103.500000" y2="108.500000" stroke="#AAAAAA" /><text style="font-size:10px;font-family:OpenSans;fill:#000000;" text-anchor="middle" x="15.000000" y="118.500000">0</text><line x1="74.225513" x2="74.225513" y1="103.500000" y2="108.500000" stroke="#AAAAAA" /><text style="font-size:10px;font-family:OpenSans;fill:#000000;" text-anchor="middle" x="74.225513" y="118.500000">130</text><line x1="120.694761" x2="120.694761" y1="103.500000" y2="108.500000" stroke="#AAAAAA" /><text style="font-size:10px;font-family:OpenSans;fill:#000000;" text-anchor="middle" x="120.694761" y="118.500000">232</text><line x1="148.029613" x2="148.029613" y1="103.500000" y2="108.500000" stroke="#AAAAAA" /><text style="font-size:10px;font-family:OpenSans;fill:#000000;" text-anchor="middle" x="148.029613" y="118.500000">292</text><line x1="186.298405" x2="186.298405" y1="103.500000" y2="108.500000" stroke="#AAAAAA" /><text style="font-size:10px;font-family:OpenSans;fill:#000000;" text-anchor="middle" x="186.298405" y="118.500000">376</text><line x1="213.633257" x2="213.633257" y1="103.500000" y2="108.500000" stroke="#AAAAAA" /><text style="font-size:10px;font-family:OpenSans;fill:#000000;" text-anchor="middle" x="213.633257" y="118.500000">436</text><line x1="261.924829" x2="261.924829" y1="103.500000" y2="108.500000" stroke="#AAAAAA" /><text style="font-size:10px;font-family:OpenSans;fill:#000000;" text-anchor="middle" x="261.924829" y="118.500000">542</text><line x1="289.715262" x2="289.715262" y1="103.500000" y2="108.500000" stroke="#AAAAAA" /><text style="font-size:10px;font-family:OpenSans;fill:#000000;" text-anchor="middle" x="289.715262" y="118.500000">603</text><line x1="314.772210" x2="314.772210" y1="103.500000" y2="108.500000" stroke="#AAAAAA" /><text style="font-size:10px;font-family:OpenSans;fill:#000000;" text-anchor="middle" x="314.772210" y="118.500000">658</text><line x1="334.817768" x2="334.817768" y1="103.500000" y2="108.500000" stroke="#AAAAAA" /><text style="font-size:10px;font-family:OpenSans;fill:#000000;" text-anchor="middle" x="334.817768" y="118.500000">702</text><line x1="358.963554" x2="358.963554" y1="103.500000" y2="108.500000" stroke="#AAAAAA" /><text style="font-size:10px;font-family:OpenSans;fill:#000000;" text-anchor="middle" x="358.963554" y="118.500000">755</text><line x1="384.020501" x2="384.020501" y1="103.500000" y2="108.500000" stroke="#AAAAAA" /><text style="font-size:10px;font-family:OpenSans;fill:#000000;" text-anchor="middle" x="384.020501" y="118.500000">810</text><line x1="415.000000" x2="415.000000" y1="103.500000" y2="108.500000" stroke="#AAAAAA" /><text style="font-size:10px;font-family:OpenSans;fill:#000000;" text-anchor="middle" x="415.000000" y="118.500000">878</text></g>
<rect fill="#5B5BFF" x="4" y="132.500000" width="12" height="12" filter="url(#ds)"/><text style="font-size:12px;font-family:OpenSans;fill:#000000;" text-anchor="start" x="20" y="144.500000">C2 domain</text><rect fill="#EBD61D" x="4" y="146.500000" width="12" height="12" filter="url(#ds)"/><text style="font-size:12px;font-family:OpenSans;fill:#000000;" text-anchor="start" x="20" y="158.500000">Plant phosphoribosyltransferase C-terminal</text></svg>
