<?xml version='1.0'?>
<svg xmlns="http://www.w3.org/2000/svg" xmlns:xlink="http://www.w3.org/1999/xlink" width="545.741379" height="184.400000">
<defs>
  <filter id="ds" x="0" y="0">
    <feOffset in="SourceAlpha" dx="2" dy="2" />
    <feComponentTransfer><feFuncA type="linear" slope="0.2"/></feComponentTransfer>
    <feGaussianBlur result="blurOut" stdDeviation="1" />
    <feBlend in="SourceGraphic" in2="blurOut" mode="normal" />
  </filter>
  <pattern id="disordered-hatch" patternUnits="userSpaceOnUse" width="4" height="4">
    <path d="M-1,1 l2,-2 M0,4 l4,-4 M3,5 l2,-2" stroke="#000000" opacity="0.3" />
  </pattern>
</defs>
<line x1="174.706897" x2="174.706897" y1="59.000000" y2="87.000000" stroke="#BABDB6" stroke-width="2"/><a xlink:title="P157P"><circle cx="174.706897" cy="59.000000" r="4.000000" fill="#0000ff" /></a><g transform="translate(174.706897,59.000000) rotate(-30)"><text style="font-size:10px;font-family:OpenSans;fill:#555;" text-anchor="middle" x="0" y="-6.000000">P157P</text></g><line x1="333.396552" x2="333.396552" y1="59.000000" y2="87.000000" stroke="#BABDB6" stroke-width="2"/><a xlink:title="P313P"><circle cx="333.396552" cy="59.000000" r="4.000000" fill="#0000ff" /></a><g transform="translate(333.396552,59.000000) rotate(-30)"><text style="font-size:10px;font-family:OpenSans;fill:#555;" text-anchor="middle" x="0" y="-6.000000">P313P</text></g><line x1="340.517241" x2="340.517241" y1="59.000000" y2="87.000000" stroke="#BABDB6" stroke-width="2"/><a xlink:title="P320P"><circle cx="340.517241" cy="59.000000" r="4.000000" fill="#0000ff" /></a><g transform="translate(340.517241,59.000000) rotate(-30)"><text style="font-size:10px;font-family:OpenSans;fill:#555;" text-anchor="middle" x="0" y="-6.000000">P320P</text></g><line x1="378.155172" x2="378.155172" y1="46.500000" y2="87.000000" stroke="#BABDB6" stroke-width="2"/><a xlink:title="P357P"><circle cx="378.155172" cy="46.500000" r="4.000000" fill="#0000ff" /></a><g transform="translate(378.155172,46.500000) rotate(-30)"><text style="font-size:10px;font-family:OpenSans;fill:#555;" text-anchor="middle" x="0" y="-6.000000">P357P</text></g><line x1="380.189655" x2="380.189655" y1="59.000000" y2="87.000000" stroke="#BABDB6" stroke-width="2"/><a xlink:title="P359P"><circle cx="380.189655" cy="59.000000" r="4.000000" fill="#0000ff" /></a><g transform="translate(380.189655,59.000000) rotate(-30)"><text style="font-size:10px;font-family:OpenSans;fill:#555;" text-anchor="middle" x="0" y="-6.000000">P359P</text></g><line x1="386.293103" x2="386.293103" y1="46.500000" y2="87.000000" stroke="#BABDB6" stroke-width="2"/><a xlink:title="P365P"><circle cx="386.293103" cy="46.500000" r="4.000000" fill="#0000ff" /></a><g transform="translate(386.293103,46.500000) rotate(-30)"><text style="font-size:10px;font-family:OpenSans;fill:#555;" text-anchor="middle" x="0" y="-6.000000">P365P</text></g><line x1="388.327586" x2="388.327586" y1="46.500000" y2="87.000000" stroke="#BABDB6" stroke-width="2"/><a xlink:title="P367P"><circle cx="388.327586" cy="46.500000" r="4.000000" fill="#0000ff" /></a><g transform="translate(388.327586,46.500000) rotate(-30)"><text style="font-size:10px;font-family:OpenSans;fill:#555;" text-anchor="middle" x="0" y="-6.000000">P367P</text></g><line x1="392.396552" x2="392.396552" y1="59.000000" y2="87.000000" stroke="#BABDB6" stroke-width="2"/><a xlink:title="P371P"><circle cx="392.396552" cy="59.000000" r="4.000000" fill="#0000ff" /></a><g transform="translate(392.396552,59.000000) rotate(-30)"><text style="font-size:10px;font-family:OpenSans;fill:#555;" text-anchor="middle" x="0" y="-6.000000">P371P</text></g><line x1="447.327586" x2="447.327586" y1="46.500000" y2="87.000000" stroke="#BABDB6" stroke-width="2"/><a xlink:title="P425P"><circle cx="447.327586" cy="46.500000" r="4.000000" fill="#0000ff" /></a><g transform="translate(447.327586,46.500000) rotate(-30)"><text style="font-size:10px;font-family:OpenSans;fill:#555;" text-anchor="middle" x="0" y="-6.000000">P425P</text></g><line x1="449.362069" x2="449.362069" y1="46.500000" y2="87.000000" stroke="#BABDB6" stroke-width="2"/><a xlink:title="P427P"><circle cx="449.362069" cy="46.500000" r="4.000000" fill="#0000ff" /></a><g transform="translate(449.362069,46.500000) rotate(-30)"><text style="font-size:10px;font-family:OpenSans;fill:#555;" text-anchor="middle" x="0" y="-6.000000">P427P</text></g><line x1="453.431034" x2="453.431034" y1="34.000000" y2="87.000000" stroke="#BABDB6" stroke-width="2"/><a xlink:title="P431P"><circle cx="453.431034" cy="34.000000" r="4.000000" fill="#0000ff" /></a><g transform="translate(453.431034,34.000000) rotate(-30)"><text style="font-size:10px;font-family:OpenSans;fill:#555;" text-anchor="middle" x="0" y="-6.000000">P431P</text></g><line x1="455.465517" x2="455.465517" y1="46.500000" y2="87.000000" stroke="#BABDB6" stroke-width="2"/><a xlink:title="P433P"><circle cx="455.465517" cy="46.500000" r="4.000000" fill="#0000ff" /></a><g transform="translate(455.465517,46.500000) rotate(-30)"><text style="font-size:10px;font-family:OpenSans;fill:#555;" text-anchor="middle" x="0" y="-6.000000">P433P</text></g><line x1="457.500000" x2="457.500000" y1="46.500000" y2="87.000000" stroke="#BABDB6" stroke-width="2"/><a xlink:title="P435P"><circle cx="457.500000" cy="46.500000" r="4.000000" fill="#0000ff" /></a><g transform="translate(457.500000,46.500000) rotate(-30)"><text style="font-size:10px;font-family:OpenSans;fill:#555;" text-anchor="middle" x="0" y="-6.000000">P435P</text></g><line x1="461.568966" x2="461.568966" y1="59.000000" y2="87.000000" stroke="#BABDB6" stroke-width="2"/><a xlink:title="P439P"><circle cx="461.568966" cy="59.000000" r="4.000000" fill="#0000ff" /></a><g transform="translate(461.568966,59.000000) rotate(-30)"><text style="font-size:10px;font-family:OpenSans;fill:#555;" text-anchor="middle" x="0" y="-6.000000">P439P</text></g><line x1="494.120690" x2="494.120690" y1="59.000000" y2="87.000000" stroke="#BABDB6" stroke-width="2"/><a xlink:title="P471P"><circle cx="494.120690" cy="59.000000" r="4.000000" fill="#0000ff" /></a><g transform="translate(494.120690,59.000000) rotate(-30)"><text style="font-size:10px;font-family:OpenSans;fill:#555;" text-anchor="middle" x="0" y="-6.000000">P471P</text></g><a xlink:title=",  (507aa)"><rect fill="#BABDB6" x="15.000000" y="87.000000" width="515.741379" height="14.000000"/></a><g transform="translate(25.172414,82.000000)"><a xlink:href="https://www.ebi.ac.uk/interpro/entry/pfam/PF00319" xlink:title="SRF-type transcription factor (DNA-binding and dimerisation domain)"><rect fill="#2DCF00" x="0" y="0" width="47.810345" height="24.000000" filter="url(#ds)"/><text style="font-size:12px;font-family:OpenSans;fill:#ffffff;" text-anchor="middle" x="23.905172" y="16.000000">SRF-TF</text></a></g>
<g transform="translate(111.637931,82.000000)"><a xlink:href="https://www.ebi.ac.uk/interpro/entry/pfam/PF12347" xlink:title="Holliday junction regulator protein family C-terminal repeat"><rect fill="#FF5353" x="0" y="0" width="59.000000" height="24.000000" filter="url(#ds)"/><text style="font-size:12px;font-family:OpenSans;fill:#ffffff;" text-anchor="middle" x="29.500000" y="16.000000">HJURP_C</text></a></g>
<g class="axis">
<line x1="15.000000" x2="530.741379" y1="116.000000" y2="116.000000" stroke="#AAAAAA" /><line x1="15.000000" x2="15.000000" y1="116.000000" y2="121.000000" stroke="#AAAAAA" /><line x1="25.172414" x2="25.172414" y1="116.000000" y2="121.000000" stroke="#AAAAAA" /><text style="font-size:10px;font-family:OpenSans;fill:#000000;" text-anchor="middle" x="25.172414" y="131.000000">10</text><line x1="72.982759" x2="72.982759" y1="116.000000" y2="121.000000" stroke="#AAAAAA" /><text style="font-size:10px;font-family:OpenSans;fill:#000000;" text-anchor="middle" x="72.982759" y="131.000000">57</text><line x1="111.637931" x2="111.637931" y1="116.000000" y2="121.000000" stroke="#AAAAAA" /><text style="font-size:10px;font-family:OpenSans;fill:#000000;" text-anchor="middle" x="111.637931" y="131.000000">95</text><line x1="174.706897" x2="174.706897" y1="116.000000" y2="121.000000" stroke="#AAAAAA" /><text style="font-size:10px;font-family:OpenSans;fill:#000000;" text-anchor="middle" x="174.706897" y="131.000000">157</text><line x1="333.396552" x2="333.396552" y1="116.000000" y2="121.000000" stroke="#AAAAAA" /><text style="font-size:10px;font-family:OpenSans;fill:#000000;" text-anchor="middle" x="333.396552" y="131.000000">313</text><line x1="378.155172" x2="378.155172" y1="116.000000" y2="121.000000" stroke="#AAAAAA" /><text style="font-size:10px;font-family:OpenSans;fill:#000000;" text-anchor="middle" x="378.155172" y="131.000000">357</text><line x1="447.327586" x2="447.327586" y1="116.000000" y2="121.000000" stroke="#AAAAAA" /><text style="font-size:10px;font-family:OpenSans;fill:#000000;" text-anchor="middle" x="447.327586" y="131.000000">425</text><line x1="494.120690" x2="494.120690" y1="116.000000" y2="121.000000" stroke="#AAAAAA" /><text style="font-size:10px;font-family:OpenSans;fill:#000000;" text-anchor="middle" x="494.120690" y="131.000000">471</text><line x1="530.741379" x2="530.741379" y1="116.000000" y2="121.000000" stroke="#AAAAAA" /><text style="font-size:10px;font-family:OpenSans;fill:#000000;" text-anchor="middle" x="530.741379" y="131.000000">507</text></g>
<rect fill="#2DCF00" x="4" y="145.000000" width="12" height="12" filter="url(#ds)"/><text style="font-size:12px;font-family:OpenSans;fill:#000000;" text-anchor="start" x="20" y="157.000000">SRF-type transcription factor (DNA-binding and dimerisation domain)</text><rect fill="#FF5353" x="4" y="159.000000" width="12" height="12" filter="url(#ds)"/><text style="font-size:12px;font-family:OpenSans;fill:#000000;" text-anchor="start" x="20" y="171.000000">Holliday junction regulator protein family C-terminal repeat</text></svg>
