<?xml version='1.0'?>
<svg xmlns="http://www.w3.org/2000/svg" xmlns:xlink="http://www.w3.org/1999/xlink" width="430.000000" height="171.200000">
<defs>
  <filter id="ds" x="0" y="0">
    <feOffset in="SourceAlpha" dx="2" dy="2" />
    <feComponentTransfer><feFuncA type="linear" slope="0.2"/></feComponentTransfer>
    <feGaussianBlur result="blurOut" stdDeviation="1" />
    <feBlend in="SourceGraphic" in2="blurOut" mode="normal" />
  </filter>
  <pattern id="disordered-hatch" patternUnits="userSpaceOnUse" width="4" height="4">
    <path d="M-1,1 l2,-2 M0,4 l4,-4 M3,5 l2,-2" stroke="#000000" opacity="0.3" />
  </pattern>
</defs>
<line x1="67.611219" x2="67.611219" y1="59.000000" y2="87.000000" stroke="#BABDB6" stroke-width="2"/><a xlink:title="P68P"><circle cx="67.611219" cy="59.000000" r="4.000000" fill="#0000ff" /></a><g transform="translate(67.611219,59.000000) rotate(-30)"><text style="font-size:10px;font-family:OpenSans;fill:#555;" text-anchor="middle" x="0" y="-6.000000">P68P</text></g><line x1="79.990329" x2="79.990329" y1="34.000000" y2="87.000000" stroke="#BABDB6" stroke-width="2"/><a xlink:title="R84W"><circle cx="79.990329" cy="34.000000" r="4.000000" fill="#ff0000" /></a><g transform="translate(79.990329,34.000000) rotate(-30)"><text style="font-size:10px;font-family:OpenSans;fill:#555;" text-anchor="middle" x="0" y="-6.000000">R84W</text></g><line x1="79.990329" x2="79.990329" y1="46.500000" y2="87.000000" stroke="#BABDB6" stroke-width="2"/><a xlink:title="R84C"><circle cx="79.990329" cy="46.500000" r="4.000000" fill="#ff0000" /></a><g transform="translate(79.990329,46.500000) rotate(-30)"><text style="font-size:10px;font-family:OpenSans;fill:#555;" text-anchor="middle" x="0" y="-6.000000">R84C</text></g><line x1="83.858801" x2="83.858801" y1="34.000000" y2="87.000000" stroke="#BABDB6" stroke-width="2"/><a xlink:title="L89L"><circle cx="83.858801" cy="34.000000" r="4.000000" fill="#0000ff" /></a><g transform="translate(83.858801,34.000000) rotate(-30)"><text style="font-size:10px;font-family:OpenSans;fill:#555;" text-anchor="middle" x="0" y="-6.000000">L89L</text></g><line x1="86.179884" x2="86.179884" y1="46.500000" y2="87.000000" stroke="#BABDB6" stroke-width="2"/><a xlink:title="V92V"><circle cx="86.179884" cy="46.500000" r="4.000000" fill="#0000ff" /></a><g transform="translate(86.179884,46.500000) rotate(-30)"><text style="font-size:10px;font-family:OpenSans;fill:#555;" text-anchor="middle" x="0" y="-6.000000">V92V</text></g><line x1="87.727273" x2="87.727273" y1="59.000000" y2="87.000000" stroke="#BABDB6" stroke-width="2"/><a xlink:title="A94V"><circle cx="87.727273" cy="59.000000" r="4.000000" fill="#ff0000" /></a><g transform="translate(87.727273,59.000000) rotate(-30)"><text style="font-size:10px;font-family:OpenSans;fill:#555;" text-anchor="middle" x="0" y="-6.000000">A94V</text></g><line x1="180.570600" x2="180.570600" y1="59.000000" y2="87.000000" stroke="#BABDB6" stroke-width="2"/><a xlink:title="A214V"><circle cx="180.570600" cy="59.000000" r="4.000000" fill="#ff0000" /></a><g transform="translate(180.570600,59.000000) rotate(-30)"><text style="font-size:10px;font-family:OpenSans;fill:#555;" text-anchor="middle" x="0" y="-6.000000">A214V</text></g><line x1="203.007737" x2="203.007737" y1="59.000000" y2="87.000000" stroke="#BABDB6" stroke-width="2"/><a xlink:title="V243V"><circle cx="203.007737" cy="59.000000" r="4.000000" fill="#0000ff" /></a><g transform="translate(203.007737,59.000000) rotate(-30)"><text style="font-size:10px;font-family:OpenSans;fill:#555;" text-anchor="middle" x="0" y="-6.000000">V243V</text></g><line x1="297.398453" x2="297.398453" y1="59.000000" y2="87.000000" stroke="#BABDB6" stroke-width="2"/><a xlink:title="A365V"><circle cx="297.398453" cy="59.000000" r="4.000000" fill="#ff0000" /></a><g transform="translate(297.398453,59.000000) rotate(-30)"><text style="font-size:10px;font-family:OpenSans;fill:#555;" text-anchor="middle" x="0" y="-6.000000">A365V</text></g><a xlink:title=",  (517aa)"><rect fill="#BABDB6" x="15.000000" y="87.000000" width="400.000000" height="14.000000"/></a><g transform="translate(32.794971,82.000000)"><a xlink:href="https://www.ebi.ac.uk/interpro/entry/pfam/PF13347" xlink:title="MFS/sugar transport protein"><rect fill="#2DCF00" x="0" y="0" width="137.717602" height="24.000000" filter="url(#ds)"/><text style="font-size:12px;font-family:OpenSans;fill:#ffffff;" text-anchor="middle" x="68.858801" y="16.000000">MFS_2</text></a></g>
<g transform="translate(206.102515,82.000000)"><a xlink:href="https://www.ebi.ac.uk/interpro/entry/pfam/PF13347" xlink:title="MFS/sugar transport protein"><rect fill="#FF5353" x="0" y="0" width="187.234043" height="24.000000" filter="url(#ds)"/><text style="font-size:12px;font-family:OpenSans;fill:#ffffff;" text-anchor="middle" x="93.617021" y="16.000000">MFS/sugar transport protein</text></a></g>
<g class="axis">
<line x1="15.000000" x2="415.000000" y1="116.000000" y2="116.000000" stroke="#AAAAAA" /><line x1="15.000000" x2="15.000000" y1="116.000000" y2="121.000000" stroke="#AAAAAA" /><line x1="32.794971" x2="32.794971" y1="116.000000" y2="121.000000" stroke="#AAAAAA" /><text style="font-size:10px;font-family:OpenSans;fill:#000000;" text-anchor="middle" x="32.794971" y="131.000000">23</text><line x1="67.611219" x2="67.611219" y1="116.000000" y2="121.000000" stroke="#AAAAAA" /><text style="font-size:10px;font-family:OpenSans;fill:#000000;" text-anchor="middle" x="67.611219" y="131.000000">68</text><line x1="87.727273" x2="87.727273" y1="116.000000" y2="121.000000" stroke="#AAAAAA" /><text style="font-size:10px;font-family:OpenSans;fill:#000000;" text-anchor="middle" x="87.727273" y="131.000000">94</text><line x1="180.570600" x2="180.570600" y1="116.000000" y2="121.000000" stroke="#AAAAAA" /><text style="font-size:10px;font-family:OpenSans;fill:#000000;" text-anchor="middle" x="180.570600" y="131.000000">214</text><line x1="203.007737" x2="203.007737" y1="116.000000" y2="121.000000" stroke="#AAAAAA" /><text style="font-size:10px;font-family:OpenSans;fill:#000000;" text-anchor="middle" x="203.007737" y="131.000000">243</text><line x1="297.398453" x2="297.398453" y1="116.000000" y2="121.000000" stroke="#AAAAAA" /><text style="font-size:10px;font-family:OpenSans;fill:#000000;" text-anchor="middle" x="297.398453" y="131.000000">365</text><line x1="393.336557" x2="393.336557" y1="116.000000" y2="121.000000" stroke="#AAAAAA" /><text style="font-size:10px;font-family:OpenSans;fill:#000000;" text-anchor="middle" x="393.336557" y="131.000000">489</text><line x1="415.000000" x2="415.000000" y1="116.000000" y2="121.000000" stroke="#AAAAAA" /><text style="font-size:10px;font-family:OpenSans;fill:#000000;" text-anchor="middle" x="415.000000" y="131.000000">517</text></g>
<rect fill="#2DCF00" x="4" y="145.000000" width="12" height="12" filter="url(#ds)"/><text style="font-size:12px;font-family:OpenSans;fill:#000000;" text-anchor="start" x="20" y="157.000000">MFS/sugar transport protein</text></svg>
