<?xml version='1.0'?>
<svg xmlns="http://www.w3.org/2000/svg" xmlns:xlink="http://www.w3.org/1999/xlink" width="588.961832" height="172.600000">
<defs>
  <filter id="ds" x="0" y="0">
    <feOffset in="SourceAlpha" dx="2" dy="2" />
    <feComponentTransfer><feFuncA type="linear" slope="0.2"/></feComponentTransfer>
    <feGaussianBlur result="blurOut" stdDeviation="1" />
    <feBlend in="SourceGraphic" in2="blurOut" mode="normal" />
  </filter>
  <pattern id="disordered-hatch" patternUnits="userSpaceOnUse" width="4" height="4">
    <path d="M-1,1 l2,-2 M0,4 l4,-4 M3,5 l2,-2" stroke="#000000" opacity="0.3" />
  </pattern>
</defs>
<line x1="27.366412" x2="27.366412" y1="34.000000" y2="62.000000" stroke="#BABDB6" stroke-width="2"/><a xlink:title="D20E"><circle cx="27.366412" cy="34.000000" r="4.000000" fill="#ff0000" /></a><g transform="translate(27.366412,34.000000) rotate(-30)"><text style="font-size:10px;font-family:OpenSans;fill:#555;" text-anchor="middle" x="0" y="-6.000000">D20E</text></g><line x1="151.030534" x2="151.030534" y1="34.000000" y2="62.000000" stroke="#BABDB6" stroke-width="2"/><a xlink:title="A220T"><circle cx="151.030534" cy="34.000000" r="4.000000" fill="#ff0000" /></a><g transform="translate(151.030534,34.000000) rotate(-30)"><text style="font-size:10px;font-family:OpenSans;fill:#555;" text-anchor="middle" x="0" y="-6.000000">A220T</text></g><line x1="177.000000" x2="177.000000" y1="34.000000" y2="62.000000" stroke="#BABDB6" stroke-width="2"/><a xlink:title="A262T"><circle cx="177.000000" cy="34.000000" r="4.000000" fill="#ff0000" /></a><g transform="translate(177.000000,34.000000) rotate(-30)"><text style="font-size:10px;font-family:OpenSans;fill:#555;" text-anchor="middle" x="0" y="-6.000000">A262T</text></g><line x1="184.419847" x2="184.419847" y1="34.000000" y2="62.000000" stroke="#BABDB6" stroke-width="2"/><a xlink:title="V274M"><circle cx="184.419847" cy="34.000000" r="4.000000" fill="#ff0000" /></a><g transform="translate(184.419847,34.000000) rotate(-30)"><text style="font-size:10px;font-family:OpenSans;fill:#555;" text-anchor="middle" x="0" y="-6.000000">V274M</text></g><line x1="210.389313" x2="210.389313" y1="34.000000" y2="62.000000" stroke="#BABDB6" stroke-width="2"/><a xlink:title="V316M"><circle cx="210.389313" cy="34.000000" r="4.000000" fill="#ff0000" /></a><g transform="translate(210.389313,34.000000) rotate(-30)"><text style="font-size:10px;font-family:OpenSans;fill:#555;" text-anchor="middle" x="0" y="-6.000000">V316M</text></g><line x1="222.755725" x2="222.755725" y1="34.000000" y2="62.000000" stroke="#BABDB6" stroke-width="2"/><a xlink:title="I336I"><circle cx="222.755725" cy="34.000000" r="4.000000" fill="#0000ff" /></a><g transform="translate(222.755725,34.000000) rotate(-30)"><text style="font-size:10px;font-family:OpenSans;fill:#555;" text-anchor="middle" x="0" y="-6.000000">I336I</text></g><line x1="246.870229" x2="246.870229" y1="34.000000" y2="62.000000" stroke="#BABDB6" stroke-width="2"/><a xlink:title="H375H"><circle cx="246.870229" cy="34.000000" r="4.000000" fill="#0000ff" /></a><g transform="translate(246.870229,34.000000) rotate(-30)"><text style="font-size:10px;font-family:OpenSans;fill:#555;" text-anchor="middle" x="0" y="-6.000000">H375H</text></g><line x1="259.854962" x2="259.854962" y1="34.000000" y2="62.000000" stroke="#BABDB6" stroke-width="2"/><a xlink:title="T396T"><circle cx="259.854962" cy="34.000000" r="4.000000" fill="#0000ff" /></a><g transform="translate(259.854962,34.000000) rotate(-30)"><text style="font-size:10px;font-family:OpenSans;fill:#555;" text-anchor="middle" x="0" y="-6.000000">T396T</text></g><line x1="285.824427" x2="285.824427" y1="34.000000" y2="62.000000" stroke="#BABDB6" stroke-width="2"/><a xlink:title="T438T"><circle cx="285.824427" cy="34.000000" r="4.000000" fill="#0000ff" /></a><g transform="translate(285.824427,34.000000) rotate(-30)"><text style="font-size:10px;font-family:OpenSans;fill:#555;" text-anchor="middle" x="0" y="-6.000000">T438T</text></g><line x1="476.885496" x2="476.885496" y1="34.000000" y2="62.000000" stroke="#BABDB6" stroke-width="2"/><a xlink:title="I747I"><circle cx="476.885496" cy="34.000000" r="4.000000" fill="#0000ff" /></a><g transform="translate(476.885496,34.000000) rotate(-30)"><text style="font-size:10px;font-family:OpenSans;fill:#555;" text-anchor="middle" x="0" y="-6.000000">I747I</text></g><line x1="501.000000" x2="501.000000" y1="34.000000" y2="62.000000" stroke="#BABDB6" stroke-width="2"/><a xlink:title="H786H"><circle cx="501.000000" cy="34.000000" r="4.000000" fill="#0000ff" /></a><g transform="translate(501.000000,34.000000) rotate(-30)"><text style="font-size:10px;font-family:OpenSans;fill:#555;" text-anchor="middle" x="0" y="-6.000000">H786H</text></g><a xlink:title=",  (904aa)"><rect fill="#BABDB6" x="15.000000" y="62.000000" width="558.961832" height="14.000000"/></a><g transform="translate(18.091603,57.000000)"><a xlink:href="https://www.ebi.ac.uk/interpro/entry/pfam/PF00307" xlink:title="Calponin homology (CH) domain"><rect fill="#2DCF00" x="0" y="0" width="63.068702" height="24.000000" filter="url(#ds)"/><text style="font-size:12px;font-family:OpenSans;fill:#ffffff;" text-anchor="middle" x="31.534351" y="16.000000">CH</text></a></g>
<g transform="translate(131.244275,57.000000)"><a xlink:href="https://www.ebi.ac.uk/interpro/entry/pfam/PF00412" xlink:title="LIM domain"><rect fill="#FF5353" x="0" y="0" width="32.770992" height="24.000000" filter="url(#ds)"/><text style="font-size:12px;font-family:OpenSans;fill:#ffffff;" text-anchor="middle" x="16.385496" y="16.000000">LIM</text></a></g>
<g transform="translate(472.557252,57.000000)"><a xlink:href="https://www.ebi.ac.uk/interpro/entry/pfam/PF12130" xlink:title="Bivalent Mical/EHBP Rab binding domain"><rect fill="#5B5BFF" x="0" y="0" width="81.000000" height="24.000000" filter="url(#ds)"/><text style="font-size:12px;font-family:OpenSans;fill:#ffffff;" text-anchor="middle" x="40.500000" y="16.000000">bMERB_dom</text></a></g>
<g class="axis">
<line x1="15.000000" x2="573.961832" y1="91.000000" y2="91.000000" stroke="#AAAAAA" /><line x1="15.000000" x2="15.000000" y1="91.000000" y2="96.000000" stroke="#AAAAAA" /><line x1="27.366412" x2="27.366412" y1="91.000000" y2="96.000000" stroke="#AAAAAA" /><text style="font-size:10px;font-family:OpenSans;fill:#000000;" text-anchor="middle" x="27.366412" y="106.000000">20</text><line x1="81.160305" x2="81.160305" y1="91.000000" y2="96.000000" stroke="#AAAAAA" /><text style="font-size:10px;font-family:OpenSans;fill:#000000;" text-anchor="middle" x="81.160305" y="106.000000">107</text><line x1="151.030534" x2="151.030534" y1="91.000000" y2="96.000000" stroke="#AAAAAA" /><text style="font-size:10px;font-family:OpenSans;fill:#000000;" text-anchor="middle" x="151.030534" y="106.000000">220</text><line x1="177.000000" x2="177.000000" y1="91.000000" y2="96.000000" stroke="#AAAAAA" /><text style="font-size:10px;font-family:OpenSans;fill:#000000;" text-anchor="middle" x="177.000000" y="106.000000">262</text><line x1="210.389313" x2="210.389313" y1="91.000000" y2="96.000000" stroke="#AAAAAA" /><text style="font-size:10px;font-family:OpenSans;fill:#000000;" text-anchor="middle" x="210.389313" y="106.000000">316</text><line x1="246.870229" x2="246.870229" y1="91.000000" y2="96.000000" stroke="#AAAAAA" /><text style="font-size:10px;font-family:OpenSans;fill:#000000;" text-anchor="middle" x="246.870229" y="106.000000">375</text><line x1="285.824427" x2="285.824427" y1="91.000000" y2="96.000000" stroke="#AAAAAA" /><text style="font-size:10px;font-family:OpenSans;fill:#000000;" text-anchor="middle" x="285.824427" y="106.000000">438</text><line x1="476.885496" x2="476.885496" y1="91.000000" y2="96.000000" stroke="#AAAAAA" /><text style="font-size:10px;font-family:OpenSans;fill:#000000;" text-anchor="middle" x="476.885496" y="106.000000">747</text><line x1="501.000000" x2="501.000000" y1="91.000000" y2="96.000000" stroke="#AAAAAA" /><text style="font-size:10px;font-family:OpenSans;fill:#000000;" text-anchor="middle" x="501.000000" y="106.000000">786</text><line x1="553.557252" x2="553.557252" y1="91.000000" y2="96.000000" stroke="#AAAAAA" /><text style="font-size:10px;font-family:OpenSans;fill:#000000;" text-anchor="middle" x="553.557252" y="106.000000">871</text><line x1="573.961832" x2="573.961832" y1="91.000000" y2="96.000000" stroke="#AAAAAA" /><text style="font-size:10px;font-family:OpenSans;fill:#000000;" text-anchor="middle" x="573.961832" y="106.000000">904</text></g>
<rect fill="#FF5353" x="4" y="120.000000" width="12" height="12" filter="url(#ds)"/><text style="font-size:12px;font-family:OpenSans;fill:#000000;" text-anchor="start" x="20" y="132.000000">LIM domain</text><rect fill="#5B5BFF" x="4" y="134.000000" width="12" height="12" filter="url(#ds)"/><text style="font-size:12px;font-family:OpenSans;fill:#000000;" text-anchor="start" x="20" y="146.000000">Bivalent Mical/EHBP Rab binding domain</text><rect fill="#2DCF00" x="4" y="148.000000" width="12" height="12" filter="url(#ds)"/><text style="font-size:12px;font-family:OpenSans;fill:#000000;" text-anchor="start" x="20" y="160.000000">Calponin homology (CH) domain</text></svg>
