<?xml version='1.0'?>
<svg xmlns="http://www.w3.org/2000/svg" xmlns:xlink="http://www.w3.org/1999/xlink" width="477.794872" height="171.900000">
<defs>
  <filter id="ds" x="0" y="0">
    <feOffset in="SourceAlpha" dx="2" dy="2" />
    <feComponentTransfer><feFuncA type="linear" slope="0.2"/></feComponentTransfer>
    <feGaussianBlur result="blurOut" stdDeviation="1" />
    <feBlend in="SourceGraphic" in2="blurOut" mode="normal" />
  </filter>
  <pattern id="disordered-hatch" patternUnits="userSpaceOnUse" width="4" height="4">
    <path d="M-1,1 l2,-2 M0,4 l4,-4 M3,5 l2,-2" stroke="#000000" opacity="0.3" />
  </pattern>
</defs>
<line x1="26.094017" x2="26.094017" y1="46.500000" y2="74.500000" stroke="#BABDB6" stroke-width="2"/><a xlink:title="S22R"><circle cx="26.094017" cy="46.500000" r="4.000000" fill="#ff0000" /></a><g transform="translate(26.094017,46.500000) rotate(-30)"><text style="font-size:10px;font-family:OpenSans;fill:#555;" text-anchor="middle" x="0" y="-6.000000">S22R</text></g><line x1="56.854701" x2="56.854701" y1="46.500000" y2="74.500000" stroke="#BABDB6" stroke-width="2"/><a xlink:title="Q83E"><circle cx="56.854701" cy="46.500000" r="4.000000" fill="#ff0000" /></a><g transform="translate(56.854701,46.500000) rotate(-30)"><text style="font-size:10px;font-family:OpenSans;fill:#555;" text-anchor="middle" x="0" y="-6.000000">Q83E</text></g><line x1="75.512821" x2="75.512821" y1="46.500000" y2="74.500000" stroke="#BABDB6" stroke-width="2"/><a xlink:title="S120N"><circle cx="75.512821" cy="46.500000" r="4.000000" fill="#ff0000" /></a><g transform="translate(75.512821,46.500000) rotate(-30)"><text style="font-size:10px;font-family:OpenSans;fill:#555;" text-anchor="middle" x="0" y="-6.000000">S120N</text></g><line x1="95.179487" x2="95.179487" y1="34.000000" y2="74.500000" stroke="#BABDB6" stroke-width="2"/><a xlink:title="R159R"><circle cx="95.179487" cy="34.000000" r="4.000000" fill="#0000ff" /></a><g transform="translate(95.179487,34.000000) rotate(-30)"><text style="font-size:10px;font-family:OpenSans;fill:#555;" text-anchor="middle" x="0" y="-6.000000">R159R</text></g><line x1="100.726496" x2="100.726496" y1="46.500000" y2="74.500000" stroke="#BABDB6" stroke-width="2"/><a xlink:title="T170I"><circle cx="100.726496" cy="46.500000" r="4.000000" fill="#ff0000" /></a><g transform="translate(100.726496,46.500000) rotate(-30)"><text style="font-size:10px;font-family:OpenSans;fill:#555;" text-anchor="middle" x="0" y="-6.000000">T170I</text></g><line x1="107.786325" x2="107.786325" y1="46.500000" y2="74.500000" stroke="#BABDB6" stroke-width="2"/><a xlink:title="S184G"><circle cx="107.786325" cy="46.500000" r="4.000000" fill="#ff0000" /></a><g transform="translate(107.786325,46.500000) rotate(-30)"><text style="font-size:10px;font-family:OpenSans;fill:#555;" text-anchor="middle" x="0" y="-6.000000">S184G</text></g><line x1="128.461538" x2="128.461538" y1="46.500000" y2="74.500000" stroke="#BABDB6" stroke-width="2"/><a xlink:title="H225R"><circle cx="128.461538" cy="46.500000" r="4.000000" fill="#ff0000" /></a><g transform="translate(128.461538,46.500000) rotate(-30)"><text style="font-size:10px;font-family:OpenSans;fill:#555;" text-anchor="middle" x="0" y="-6.000000">H225R</text></g><line x1="194.017094" x2="194.017094" y1="34.000000" y2="74.500000" stroke="#BABDB6" stroke-width="2"/><a xlink:title="Y355S"><circle cx="194.017094" cy="34.000000" r="4.000000" fill="#ff0000" /></a><g transform="translate(194.017094,34.000000) rotate(-30)"><text style="font-size:10px;font-family:OpenSans;fill:#555;" text-anchor="middle" x="0" y="-6.000000">Y355S</text></g><line x1="195.529915" x2="195.529915" y1="46.500000" y2="74.500000" stroke="#BABDB6" stroke-width="2"/><a xlink:title="V358M"><circle cx="195.529915" cy="46.500000" r="4.000000" fill="#ff0000" /></a><g transform="translate(195.529915,46.500000) rotate(-30)"><text style="font-size:10px;font-family:OpenSans;fill:#555;" text-anchor="middle" x="0" y="-6.000000">V358M</text></g><line x1="210.658120" x2="210.658120" y1="46.500000" y2="74.500000" stroke="#BABDB6" stroke-width="2"/><a xlink:title="P388P"><circle cx="210.658120" cy="46.500000" r="4.000000" fill="#0000ff" /></a><g transform="translate(210.658120,46.500000) rotate(-30)"><text style="font-size:10px;font-family:OpenSans;fill:#555;" text-anchor="middle" x="0" y="-6.000000">P388P</text></g><line x1="297.897436" x2="297.897436" y1="46.500000" y2="74.500000" stroke="#BABDB6" stroke-width="2"/><a xlink:title="A561T"><circle cx="297.897436" cy="46.500000" r="4.000000" fill="#ff0000" /></a><g transform="translate(297.897436,46.500000) rotate(-30)"><text style="font-size:10px;font-family:OpenSans;fill:#555;" text-anchor="middle" x="0" y="-6.000000">A561T</text></g><line x1="369.504274" x2="369.504274" y1="46.500000" y2="74.500000" stroke="#BABDB6" stroke-width="2"/><a xlink:title="H703N"><circle cx="369.504274" cy="46.500000" r="4.000000" fill="#ff0000" /></a><g transform="translate(369.504274,46.500000) rotate(-30)"><text style="font-size:10px;font-family:OpenSans;fill:#555;" text-anchor="middle" x="0" y="-6.000000">H703N</text></g><line x1="452.205128" x2="452.205128" y1="46.500000" y2="74.500000" stroke="#BABDB6" stroke-width="2"/><a xlink:title="V867A"><circle cx="452.205128" cy="46.500000" r="4.000000" fill="#ff0000" /></a><g transform="translate(452.205128,46.500000) rotate(-30)"><text style="font-size:10px;font-family:OpenSans;fill:#555;" text-anchor="middle" x="0" y="-6.000000">V867A</text></g><a xlink:title=",  (888aa)"><rect fill="#BABDB6" x="15.000000" y="74.500000" width="447.794872" height="14.000000"/></a><g transform="translate(40.213675,69.500000)"><a xlink:href="https://www.ebi.ac.uk/interpro/entry/pfam/PF00266" xlink:title="Aminotransferase class-V"><rect fill="#2DCF00" x="0" y="0" width="217.341880" height="24.000000" filter="url(#ds)"/><text style="font-size:12px;font-family:OpenSans;fill:#ffffff;" text-anchor="middle" x="108.670940" y="16.000000">Aminotransferase class-V</text></a></g>
<g transform="translate(309.495726,69.500000)"><a xlink:href="https://www.ebi.ac.uk/interpro/entry/pfam/PF03476" xlink:title="MOSC N-terminal beta barrel domain"><rect fill="#FF5353" x="0" y="0" width="59.000000" height="24.000000" filter="url(#ds)"/><text style="font-size:12px;font-family:OpenSans;fill:#ffffff;" text-anchor="middle" x="29.500000" y="16.000000">MOSC_N</text></a></g>
<g transform="translate(384.128205,69.500000)"><a xlink:href="https://www.ebi.ac.uk/interpro/entry/pfam/PF03473" xlink:title="MOSC domain"><rect fill="#5B5BFF" x="0" y="0" width="65.555556" height="24.000000" filter="url(#ds)"/><text style="font-size:12px;font-family:OpenSans;fill:#ffffff;" text-anchor="middle" x="32.777778" y="16.000000">MOSC</text></a></g>
<g class="axis">
<line x1="15.000000" x2="462.794872" y1="103.500000" y2="103.500000" stroke="#AAAAAA" /><line x1="15.000000" x2="15.000000" y1="103.500000" y2="108.500000" stroke="#AAAAAA" /><line x1="26.094017" x2="26.094017" y1="103.500000" y2="108.500000" stroke="#AAAAAA" /><text style="font-size:10px;font-family:OpenSans;fill:#000000;" text-anchor="middle" x="26.094017" y="118.500000">22</text><line x1="56.854701" x2="56.854701" y1="103.500000" y2="108.500000" stroke="#AAAAAA" /><text style="font-size:10px;font-family:OpenSans;fill:#000000;" text-anchor="middle" x="56.854701" y="118.500000">83</text><line x1="95.179487" x2="95.179487" y1="103.500000" y2="108.500000" stroke="#AAAAAA" /><text style="font-size:10px;font-family:OpenSans;fill:#000000;" text-anchor="middle" x="95.179487" y="118.500000">159</text><line x1="128.461538" x2="128.461538" y1="103.500000" y2="108.500000" stroke="#AAAAAA" /><text style="font-size:10px;font-family:OpenSans;fill:#000000;" text-anchor="middle" x="128.461538" y="118.500000">225</text><line x1="194.017094" x2="194.017094" y1="103.500000" y2="108.500000" stroke="#AAAAAA" /><text style="font-size:10px;font-family:OpenSans;fill:#000000;" text-anchor="middle" x="194.017094" y="118.500000">355</text><line x1="257.555556" x2="257.555556" y1="103.500000" y2="108.500000" stroke="#AAAAAA" /><text style="font-size:10px;font-family:OpenSans;fill:#000000;" text-anchor="middle" x="257.555556" y="118.500000">481</text><line x1="297.897436" x2="297.897436" y1="103.500000" y2="108.500000" stroke="#AAAAAA" /><text style="font-size:10px;font-family:OpenSans;fill:#000000;" text-anchor="middle" x="297.897436" y="118.500000">561</text><line x1="369.504274" x2="369.504274" y1="103.500000" y2="108.500000" stroke="#AAAAAA" /><text style="font-size:10px;font-family:OpenSans;fill:#000000;" text-anchor="middle" x="369.504274" y="118.500000">703</text><line x1="462.794872" x2="462.794872" y1="103.500000" y2="108.500000" stroke="#AAAAAA" /><text style="font-size:10px;font-family:OpenSans;fill:#000000;" text-anchor="middle" x="462.794872" y="118.500000">888</text></g>
<rect fill="#FF5353" x="4" y="132.500000" width="12" height="12" filter="url(#ds)"/><text style="font-size:12px;font-family:OpenSans;fill:#000000;" text-anchor="start" x="20" y="144.500000">MOSC N-terminal beta barrel domain</text><rect fill="#5B5BFF" x="4" y="146.500000" width="12" height="12" filter="url(#ds)"/><text style="font-size:12px;font-family:OpenSans;fill:#000000;" text-anchor="start" x="20" y="158.500000">MOSC domain</text></svg>
