<?xml version='1.0'?>
<svg xmlns="http://www.w3.org/2000/svg" xmlns:xlink="http://www.w3.org/1999/xlink" width="560.194175" height="146.200000">
<defs>
  <filter id="ds" x="0" y="0">
    <feOffset in="SourceAlpha" dx="2" dy="2" />
    <feComponentTransfer><feFuncA type="linear" slope="0.2"/></feComponentTransfer>
    <feGaussianBlur result="blurOut" stdDeviation="1" />
    <feBlend in="SourceGraphic" in2="blurOut" mode="normal" />
  </filter>
  <pattern id="disordered-hatch" patternUnits="userSpaceOnUse" width="4" height="4">
    <path d="M-1,1 l2,-2 M0,4 l4,-4 M3,5 l2,-2" stroke="#000000" opacity="0.3" />
  </pattern>
</defs>
<line x1="207.038835" x2="207.038835" y1="34.000000" y2="62.000000" stroke="#BABDB6" stroke-width="2"/><a xlink:title="E230E"><circle cx="207.038835" cy="34.000000" r="4.000000" fill="#0000ff" /></a><g transform="translate(207.038835,34.000000) rotate(-30)"><text style="font-size:10px;font-family:OpenSans;fill:#555;" text-anchor="middle" x="0" y="-6.000000">E230E</text></g><line x1="236.262136" x2="236.262136" y1="34.000000" y2="62.000000" stroke="#BABDB6" stroke-width="2"/><a xlink:title="L265F"><circle cx="236.262136" cy="34.000000" r="4.000000" fill="#ff0000" /></a><g transform="translate(236.262136,34.000000) rotate(-30)"><text style="font-size:10px;font-family:OpenSans;fill:#555;" text-anchor="middle" x="0" y="-6.000000">L265F</text></g><line x1="283.019417" x2="283.019417" y1="34.000000" y2="62.000000" stroke="#BABDB6" stroke-width="2"/><a xlink:title="R321Q"><circle cx="283.019417" cy="34.000000" r="4.000000" fill="#ff0000" /></a><g transform="translate(283.019417,34.000000) rotate(-30)"><text style="font-size:10px;font-family:OpenSans;fill:#555;" text-anchor="middle" x="0" y="-6.000000">R321Q</text></g><line x1="327.271845" x2="327.271845" y1="34.000000" y2="62.000000" stroke="#BABDB6" stroke-width="2"/><a xlink:title="T374A"><circle cx="327.271845" cy="34.000000" r="4.000000" fill="#ff0000" /></a><g transform="translate(327.271845,34.000000) rotate(-30)"><text style="font-size:10px;font-family:OpenSans;fill:#555;" text-anchor="middle" x="0" y="-6.000000">T374A</text></g><a xlink:title=",  (635aa)"><rect fill="#BABDB6" x="15.000000" y="62.000000" width="530.194175" height="14.000000"/></a><g transform="translate(35.873786,57.000000)"><a xlink:href="https://www.ebi.ac.uk/interpro/entry/pfam/PF09067" xlink:title="Erythropoietin receptor, ligand binding"><rect fill="#2DCF00" x="0" y="0" width="86.000000" height="24.000000" filter="url(#ds)"/><text style="font-size:12px;font-family:OpenSans;fill:#ffffff;" text-anchor="middle" x="43.000000" y="16.000000">EpoR_lig-bind</text></a></g>
<g class="axis">
<line x1="15.000000" x2="545.194175" y1="91.000000" y2="91.000000" stroke="#AAAAAA" /><line x1="15.000000" x2="15.000000" y1="91.000000" y2="96.000000" stroke="#AAAAAA" /><line x1="15.000000" x2="15.000000" y1="91.000000" y2="96.000000" stroke="#AAAAAA" /><text style="font-size:10px;font-family:OpenSans;fill:#000000;" text-anchor="middle" x="15.000000" y="106.000000">0</text><line x1="35.873786" x2="35.873786" y1="91.000000" y2="96.000000" stroke="#AAAAAA" /><text style="font-size:10px;font-family:OpenSans;fill:#000000;" text-anchor="middle" x="35.873786" y="106.000000">25</text><line x1="121.873786" x2="121.873786" y1="91.000000" y2="96.000000" stroke="#AAAAAA" /><text style="font-size:10px;font-family:OpenSans;fill:#000000;" text-anchor="middle" x="121.873786" y="106.000000">128</text><line x1="207.038835" x2="207.038835" y1="91.000000" y2="96.000000" stroke="#AAAAAA" /><text style="font-size:10px;font-family:OpenSans;fill:#000000;" text-anchor="middle" x="207.038835" y="106.000000">230</text><line x1="236.262136" x2="236.262136" y1="91.000000" y2="96.000000" stroke="#AAAAAA" /><text style="font-size:10px;font-family:OpenSans;fill:#000000;" text-anchor="middle" x="236.262136" y="106.000000">265</text><line x1="283.019417" x2="283.019417" y1="91.000000" y2="96.000000" stroke="#AAAAAA" /><text style="font-size:10px;font-family:OpenSans;fill:#000000;" text-anchor="middle" x="283.019417" y="106.000000">321</text><line x1="327.271845" x2="327.271845" y1="91.000000" y2="96.000000" stroke="#AAAAAA" /><text style="font-size:10px;font-family:OpenSans;fill:#000000;" text-anchor="middle" x="327.271845" y="106.000000">374</text><line x1="545.194175" x2="545.194175" y1="91.000000" y2="96.000000" stroke="#AAAAAA" /><text style="font-size:10px;font-family:OpenSans;fill:#000000;" text-anchor="middle" x="545.194175" y="106.000000">635</text></g>
<rect fill="#2DCF00" x="4" y="120.000000" width="12" height="12" filter="url(#ds)"/><text style="font-size:12px;font-family:OpenSans;fill:#000000;" text-anchor="start" x="20" y="132.000000">Erythropoietin receptor, ligand binding</text></svg>
