<?xml version='1.0'?>
<svg xmlns="http://www.w3.org/2000/svg" xmlns:xlink="http://www.w3.org/1999/xlink" width="2786.166667" height="171.900000">
<defs>
  <filter id="ds" x="0" y="0">
    <feOffset in="SourceAlpha" dx="2" dy="2" />
    <feComponentTransfer><feFuncA type="linear" slope="0.2"/></feComponentTransfer>
    <feGaussianBlur result="blurOut" stdDeviation="1" />
    <feBlend in="SourceGraphic" in2="blurOut" mode="normal" />
  </filter>
  <pattern id="disordered-hatch" patternUnits="userSpaceOnUse" width="4" height="4">
    <path d="M-1,1 l2,-2 M0,4 l4,-4 M3,5 l2,-2" stroke="#000000" opacity="0.3" />
  </pattern>
</defs>
<line x1="618.111111" x2="618.111111" y1="46.500000" y2="74.500000" stroke="#BABDB6" stroke-width="2"/><a xlink:title="S472S"><circle cx="618.111111" cy="46.500000" r="4.000000" fill="#0000ff" /></a><g transform="translate(618.111111,46.500000) rotate(-30)"><text style="font-size:10px;font-family:OpenSans;fill:#555;" text-anchor="middle" x="0" y="-6.000000">S472S</text></g><line x1="1093.444444" x2="1093.444444" y1="46.500000" y2="74.500000" stroke="#BABDB6" stroke-width="2"/><a xlink:title="K844R"><circle cx="1093.444444" cy="46.500000" r="4.000000" fill="#ff0000" /></a><g transform="translate(1093.444444,46.500000) rotate(-30)"><text style="font-size:10px;font-family:OpenSans;fill:#555;" text-anchor="middle" x="0" y="-6.000000">K844R</text></g><line x1="1131.777778" x2="1131.777778" y1="46.500000" y2="74.500000" stroke="#BABDB6" stroke-width="2"/><a xlink:title="K874R"><circle cx="1131.777778" cy="46.500000" r="4.000000" fill="#ff0000" /></a><g transform="translate(1131.777778,46.500000) rotate(-30)"><text style="font-size:10px;font-family:OpenSans;fill:#555;" text-anchor="middle" x="0" y="-6.000000">K874R</text></g><line x1="2313.722222" x2="2313.722222" y1="34.000000" y2="74.500000" stroke="#BABDB6" stroke-width="2"/><a xlink:title="K1799K"><circle cx="2313.722222" cy="34.000000" r="4.000000" fill="#0000ff" /></a><g transform="translate(2313.722222,34.000000) rotate(-30)"><text style="font-size:10px;font-family:OpenSans;fill:#555;" text-anchor="middle" x="0" y="-6.000000">K1799K</text></g><line x1="2315.000000" x2="2315.000000" y1="46.500000" y2="74.500000" stroke="#BABDB6" stroke-width="2"/><a xlink:title="K1800K"><circle cx="2315.000000" cy="46.500000" r="4.000000" fill="#0000ff" /></a><g transform="translate(2315.000000,46.500000) rotate(-30)"><text style="font-size:10px;font-family:OpenSans;fill:#555;" text-anchor="middle" x="0" y="-6.000000">K1800K</text></g><line x1="2353.333333" x2="2353.333333" y1="46.500000" y2="74.500000" stroke="#BABDB6" stroke-width="2"/><a xlink:title="K1830K"><circle cx="2353.333333" cy="46.500000" r="4.000000" fill="#0000ff" /></a><g transform="translate(2353.333333,46.500000) rotate(-30)"><text style="font-size:10px;font-family:OpenSans;fill:#555;" text-anchor="middle" x="0" y="-6.000000">K1830K</text></g><a xlink:title=",  (2157aa)"><rect fill="#BABDB6" x="15.000000" y="74.500000" width="2756.166667" height="14.000000"/></a><g transform="translate(38.000000,69.500000)"><a xlink:href="https://www.ebi.ac.uk/interpro/entry/pfam/PF00788" xlink:title="Ras association (RalGDS/AF-6) domain"><rect fill="#2DCF00" x="0" y="0" width="121.388889" height="24.000000" filter="url(#ds)"/><text style="font-size:12px;font-family:OpenSans;fill:#ffffff;" text-anchor="middle" x="60.694444" y="16.000000">RA</text></a></g>
<g transform="translate(205.388889,69.500000)"><a xlink:href="https://www.ebi.ac.uk/interpro/entry/pfam/PF00063" xlink:title="Myosin head (motor domain)"><rect fill="#FF5353" x="0" y="0" width="673.388889" height="24.000000" filter="url(#ds)"/><text style="font-size:12px;font-family:OpenSans;fill:#ffffff;" text-anchor="middle" x="336.694444" y="16.000000">Myosin head (motor domain)</text></a></g>
<g transform="translate(1050.000000,69.500000)"><a xlink:href="https://www.ebi.ac.uk/interpro/entry/pfam/PF00063" xlink:title="Myosin head (motor domain)"><rect fill="#5B5BFF" x="0" y="0" width="167.388889" height="24.000000" filter="url(#ds)"/><text style="font-size:12px;font-family:OpenSans;fill:#ffffff;" text-anchor="middle" x="83.694444" y="16.000000">Myosin head (motor domain)</text></a></g>
<g transform="translate(1239.111111,69.500000)"><a xlink:href="https://www.ebi.ac.uk/interpro/entry/pfam/PF00612" xlink:title="IQ calmodulin-binding motif"><rect fill="#EBD61D" x="0" y="0" width="23.000000" height="24.000000" filter="url(#ds)"/><text style="font-size:12px;font-family:OpenSans;fill:#ffffff;" text-anchor="middle" x="11.500000" y="16.000000">IQ</text></a></g>
<g transform="translate(1268.500000,69.500000)"><a xlink:href="https://www.ebi.ac.uk/interpro/entry/pfam/PF00612" xlink:title="IQ calmodulin-binding motif"><rect fill="#BA21E0" x="0" y="0" width="23.000000" height="24.000000" filter="url(#ds)"/><text style="font-size:12px;font-family:OpenSans;fill:#ffffff;" text-anchor="middle" x="11.500000" y="16.000000">IQ</text></a></g>
<g transform="translate(1295.333333,69.500000)"><a xlink:href="https://www.ebi.ac.uk/interpro/entry/pfam/PF00612" xlink:title="IQ calmodulin-binding motif"><rect fill="#FF9C42" x="0" y="0" width="25.555556" height="24.000000" filter="url(#ds)"/><text style="font-size:12px;font-family:OpenSans;fill:#ffffff;" text-anchor="middle" x="12.777778" y="16.000000">IQ</text></a></g>
<g transform="translate(1326.000000,69.500000)"><a xlink:href="https://www.ebi.ac.uk/interpro/entry/pfam/PF00612" xlink:title="IQ calmodulin-binding motif"><rect fill="#FF7DFF" x="0" y="0" width="23.000000" height="24.000000" filter="url(#ds)"/><text style="font-size:12px;font-family:OpenSans;fill:#ffffff;" text-anchor="middle" x="11.500000" y="16.000000">IQ</text></a></g>
<g transform="translate(2203.833333,69.500000)"><a xlink:href="https://www.ebi.ac.uk/interpro/entry/pfam/PF00620" xlink:title="RhoGAP domain"><rect fill="#B9264F" x="0" y="0" width="186.555556" height="24.000000" filter="url(#ds)"/><text style="font-size:12px;font-family:OpenSans;fill:#ffffff;" text-anchor="middle" x="93.277778" y="16.000000">RhoGAP domain</text></a></g>
<g class="axis">
<line x1="15.000000" x2="2771.166667" y1="103.500000" y2="103.500000" stroke="#AAAAAA" /><line x1="15.000000" x2="15.000000" y1="103.500000" y2="108.500000" stroke="#AAAAAA" /><line x1="15.000000" x2="15.000000" y1="103.500000" y2="108.500000" stroke="#AAAAAA" /><text style="font-size:10px;font-family:OpenSans;fill:#000000;" text-anchor="middle" x="15.000000" y="118.500000">0</text><line x1="38.000000" x2="38.000000" y1="103.500000" y2="108.500000" stroke="#AAAAAA" /><text style="font-size:10px;font-family:OpenSans;fill:#000000;" text-anchor="middle" x="38.000000" y="118.500000">18</text><line x1="159.388889" x2="159.388889" y1="103.500000" y2="108.500000" stroke="#AAAAAA" /><text style="font-size:10px;font-family:OpenSans;fill:#000000;" text-anchor="middle" x="159.388889" y="118.500000">113</text><line x1="205.388889" x2="205.388889" y1="103.500000" y2="108.500000" stroke="#AAAAAA" /><text style="font-size:10px;font-family:OpenSans;fill:#000000;" text-anchor="middle" x="205.388889" y="118.500000">149</text><line x1="618.111111" x2="618.111111" y1="103.500000" y2="108.500000" stroke="#AAAAAA" /><text style="font-size:10px;font-family:OpenSans;fill:#000000;" text-anchor="middle" x="618.111111" y="118.500000">472</text><line x1="878.777778" x2="878.777778" y1="103.500000" y2="108.500000" stroke="#AAAAAA" /><text style="font-size:10px;font-family:OpenSans;fill:#000000;" text-anchor="middle" x="878.777778" y="118.500000">676</text><line x1="1050.000000" x2="1050.000000" y1="103.500000" y2="108.500000" stroke="#AAAAAA" /><text style="font-size:10px;font-family:OpenSans;fill:#000000;" text-anchor="middle" x="1050.000000" y="118.500000">810</text><line x1="1093.444444" x2="1093.444444" y1="103.500000" y2="108.500000" stroke="#AAAAAA" /><text style="font-size:10px;font-family:OpenSans;fill:#000000;" text-anchor="middle" x="1093.444444" y="118.500000">844</text><line x1="1131.777778" x2="1131.777778" y1="103.500000" y2="108.500000" stroke="#AAAAAA" /><text style="font-size:10px;font-family:OpenSans;fill:#000000;" text-anchor="middle" x="1131.777778" y="118.500000">874</text><line x1="1217.388889" x2="1217.388889" y1="103.500000" y2="108.500000" stroke="#AAAAAA" /><text style="font-size:10px;font-family:OpenSans;fill:#000000;" text-anchor="middle" x="1217.388889" y="118.500000">941</text><line x1="1239.111111" x2="1239.111111" y1="103.500000" y2="108.500000" stroke="#AAAAAA" /><text style="font-size:10px;font-family:OpenSans;fill:#000000;" text-anchor="middle" x="1239.111111" y="118.500000">958</text><line x1="1262.111111" x2="1262.111111" y1="103.500000" y2="108.500000" stroke="#AAAAAA" /><text style="font-size:10px;font-family:OpenSans;fill:#000000;" text-anchor="middle" x="1262.111111" y="118.500000">976</text><line x1="1291.500000" x2="1291.500000" y1="103.500000" y2="108.500000" stroke="#AAAAAA" /><text style="font-size:10px;font-family:OpenSans;fill:#000000;" text-anchor="middle" x="1291.500000" y="118.500000">999</text><line x1="1320.888889" x2="1320.888889" y1="103.500000" y2="108.500000" stroke="#AAAAAA" /><text style="font-size:10px;font-family:OpenSans;fill:#000000;" text-anchor="middle" x="1320.888889" y="118.500000">1022</text><line x1="1349.000000" x2="1349.000000" y1="103.500000" y2="108.500000" stroke="#AAAAAA" /><text style="font-size:10px;font-family:OpenSans;fill:#000000;" text-anchor="middle" x="1349.000000" y="118.500000">1044</text><line x1="2203.833333" x2="2203.833333" y1="103.500000" y2="108.500000" stroke="#AAAAAA" /><text style="font-size:10px;font-family:OpenSans;fill:#000000;" text-anchor="middle" x="2203.833333" y="118.500000">1713</text><line x1="2313.722222" x2="2313.722222" y1="103.500000" y2="108.500000" stroke="#AAAAAA" /><text style="font-size:10px;font-family:OpenSans;fill:#000000;" text-anchor="middle" x="2313.722222" y="118.500000">1799</text><line x1="2353.333333" x2="2353.333333" y1="103.500000" y2="108.500000" stroke="#AAAAAA" /><text style="font-size:10px;font-family:OpenSans;fill:#000000;" text-anchor="middle" x="2353.333333" y="118.500000">1830</text><line x1="2390.388889" x2="2390.388889" y1="103.500000" y2="108.500000" stroke="#AAAAAA" /><text style="font-size:10px;font-family:OpenSans;fill:#000000;" text-anchor="middle" x="2390.388889" y="118.500000">1859</text><line x1="2771.166667" x2="2771.166667" y1="103.500000" y2="108.500000" stroke="#AAAAAA" /><text style="font-size:10px;font-family:OpenSans;fill:#000000;" text-anchor="middle" x="2771.166667" y="118.500000">2157</text></g>
<rect fill="#2DCF00" x="4" y="132.500000" width="12" height="12" filter="url(#ds)"/><text style="font-size:12px;font-family:OpenSans;fill:#000000;" text-anchor="start" x="20" y="144.500000">Ras association (RalGDS/AF-6) domain</text><rect fill="#FF7DFF" x="4" y="146.500000" width="12" height="12" filter="url(#ds)"/><text style="font-size:12px;font-family:OpenSans;fill:#000000;" text-anchor="start" x="20" y="158.500000">IQ calmodulin-binding motif</text></svg>
