<?xml version='1.0'?>
<svg xmlns="http://www.w3.org/2000/svg" xmlns:xlink="http://www.w3.org/1999/xlink" width="432.242991" height="171.900000">
<defs>
  <filter id="ds" x="0" y="0">
    <feOffset in="SourceAlpha" dx="2" dy="2" />
    <feComponentTransfer><feFuncA type="linear" slope="0.2"/></feComponentTransfer>
    <feGaussianBlur result="blurOut" stdDeviation="1" />
    <feBlend in="SourceGraphic" in2="blurOut" mode="normal" />
  </filter>
  <pattern id="disordered-hatch" patternUnits="userSpaceOnUse" width="4" height="4">
    <path d="M-1,1 l2,-2 M0,4 l4,-4 M3,5 l2,-2" stroke="#000000" opacity="0.3" />
  </pattern>
</defs>
<line x1="72.570093" x2="72.570093" y1="46.500000" y2="74.500000" stroke="#BABDB6" stroke-width="2"/><a xlink:title="L77L"><circle cx="72.570093" cy="46.500000" r="4.000000" fill="#0000ff" /></a><g transform="translate(72.570093,46.500000) rotate(-30)"><text style="font-size:10px;font-family:OpenSans;fill:#555;" text-anchor="middle" x="0" y="-6.000000">L77L</text></g><line x1="88.271028" x2="88.271028" y1="46.500000" y2="74.500000" stroke="#BABDB6" stroke-width="2"/><a xlink:title="A98A"><circle cx="88.271028" cy="46.500000" r="4.000000" fill="#0000ff" /></a><g transform="translate(88.271028,46.500000) rotate(-30)"><text style="font-size:10px;font-family:OpenSans;fill:#555;" text-anchor="middle" x="0" y="-6.000000">A98A</text></g><line x1="118.925234" x2="118.925234" y1="46.500000" y2="74.500000" stroke="#BABDB6" stroke-width="2"/><a xlink:title="A139T"><circle cx="118.925234" cy="46.500000" r="4.000000" fill="#ff0000" /></a><g transform="translate(118.925234,46.500000) rotate(-30)"><text style="font-size:10px;font-family:OpenSans;fill:#555;" text-anchor="middle" x="0" y="-6.000000">A139T</text></g><line x1="138.364486" x2="138.364486" y1="46.500000" y2="74.500000" stroke="#BABDB6" stroke-width="2"/><a xlink:title="G165G"><circle cx="138.364486" cy="46.500000" r="4.000000" fill="#0000ff" /></a><g transform="translate(138.364486,46.500000) rotate(-30)"><text style="font-size:10px;font-family:OpenSans;fill:#555;" text-anchor="middle" x="0" y="-6.000000">G165G</text></g><line x1="164.532710" x2="164.532710" y1="46.500000" y2="74.500000" stroke="#BABDB6" stroke-width="2"/><a xlink:title="G200G"><circle cx="164.532710" cy="46.500000" r="4.000000" fill="#0000ff" /></a><g transform="translate(164.532710,46.500000) rotate(-30)"><text style="font-size:10px;font-family:OpenSans;fill:#555;" text-anchor="middle" x="0" y="-6.000000">G200G</text></g><line x1="226.588785" x2="226.588785" y1="46.500000" y2="74.500000" stroke="#BABDB6" stroke-width="2"/><a xlink:title="L283L"><circle cx="226.588785" cy="46.500000" r="4.000000" fill="#0000ff" /></a><g transform="translate(226.588785,46.500000) rotate(-30)"><text style="font-size:10px;font-family:OpenSans;fill:#555;" text-anchor="middle" x="0" y="-6.000000">L283L</text></g><line x1="233.317757" x2="233.317757" y1="46.500000" y2="74.500000" stroke="#BABDB6" stroke-width="2"/><a xlink:title="G292R"><circle cx="233.317757" cy="46.500000" r="4.000000" fill="#ff0000" /></a><g transform="translate(233.317757,46.500000) rotate(-30)"><text style="font-size:10px;font-family:OpenSans;fill:#555;" text-anchor="middle" x="0" y="-6.000000">G292R</text></g><line x1="243.037383" x2="243.037383" y1="46.500000" y2="74.500000" stroke="#BABDB6" stroke-width="2"/><a xlink:title="L305L"><circle cx="243.037383" cy="46.500000" r="4.000000" fill="#0000ff" /></a><g transform="translate(243.037383,46.500000) rotate(-30)"><text style="font-size:10px;font-family:OpenSans;fill:#555;" text-anchor="middle" x="0" y="-6.000000">L305L</text></g><line x1="271.448598" x2="271.448598" y1="46.500000" y2="74.500000" stroke="#BABDB6" stroke-width="2"/><a xlink:title="A343V"><circle cx="271.448598" cy="46.500000" r="4.000000" fill="#ff0000" /></a><g transform="translate(271.448598,46.500000) rotate(-30)"><text style="font-size:10px;font-family:OpenSans;fill:#555;" text-anchor="middle" x="0" y="-6.000000">A343V</text></g><line x1="289.392523" x2="289.392523" y1="46.500000" y2="74.500000" stroke="#BABDB6" stroke-width="2"/><a xlink:title="A367T"><circle cx="289.392523" cy="46.500000" r="4.000000" fill="#ff0000" /></a><g transform="translate(289.392523,46.500000) rotate(-30)"><text style="font-size:10px;font-family:OpenSans;fill:#555;" text-anchor="middle" x="0" y="-6.000000">A367T</text></g><line x1="308.831776" x2="308.831776" y1="34.000000" y2="74.500000" stroke="#BABDB6" stroke-width="2"/><a xlink:title="G393G"><circle cx="308.831776" cy="34.000000" r="4.000000" fill="#0000ff" /></a><g transform="translate(308.831776,34.000000) rotate(-30)"><text style="font-size:10px;font-family:OpenSans;fill:#555;" text-anchor="middle" x="0" y="-6.000000">G393G</text></g><line x1="314.813084" x2="314.813084" y1="46.500000" y2="74.500000" stroke="#BABDB6" stroke-width="2"/><a xlink:title="G401G"><circle cx="314.813084" cy="46.500000" r="4.000000" fill="#0000ff" /></a><g transform="translate(314.813084,46.500000) rotate(-30)"><text style="font-size:10px;font-family:OpenSans;fill:#555;" text-anchor="middle" x="0" y="-6.000000">G401G</text></g><line x1="335.000000" x2="335.000000" y1="46.500000" y2="74.500000" stroke="#BABDB6" stroke-width="2"/><a xlink:title="G428G"><circle cx="335.000000" cy="46.500000" r="4.000000" fill="#0000ff" /></a><g transform="translate(335.000000,46.500000) rotate(-30)"><text style="font-size:10px;font-family:OpenSans;fill:#555;" text-anchor="middle" x="0" y="-6.000000">G428G</text></g><line x1="376.869159" x2="376.869159" y1="46.500000" y2="74.500000" stroke="#BABDB6" stroke-width="2"/><a xlink:title="L484L"><circle cx="376.869159" cy="46.500000" r="4.000000" fill="#0000ff" /></a><g transform="translate(376.869159,46.500000) rotate(-30)"><text style="font-size:10px;font-family:OpenSans;fill:#555;" text-anchor="middle" x="0" y="-6.000000">L484L</text></g><line x1="387.336449" x2="387.336449" y1="46.500000" y2="74.500000" stroke="#BABDB6" stroke-width="2"/><a xlink:title="L498L"><circle cx="387.336449" cy="46.500000" r="4.000000" fill="#0000ff" /></a><g transform="translate(387.336449,46.500000) rotate(-30)"><text style="font-size:10px;font-family:OpenSans;fill:#555;" text-anchor="middle" x="0" y="-6.000000">L498L</text></g><line x1="397.056075" x2="397.056075" y1="46.500000" y2="74.500000" stroke="#BABDB6" stroke-width="2"/><a xlink:title="L511L"><circle cx="397.056075" cy="46.500000" r="4.000000" fill="#0000ff" /></a><g transform="translate(397.056075,46.500000) rotate(-30)"><text style="font-size:10px;font-family:OpenSans;fill:#555;" text-anchor="middle" x="0" y="-6.000000">L511L</text></g><line x1="29194.065421" x2="29194.065421" y1="46.500000" y2="74.500000" stroke="#BABDB6" stroke-width="2"/><a xlink:title="*39027r27"><circle cx="29194.065421" cy="46.500000" r="4.000000" fill="#ff0000" /></a><g transform="translate(29194.065421,46.500000) rotate(-30)"><text style="font-size:10px;font-family:OpenSans;fill:#555;" text-anchor="middle" x="0" y="-6.000000">*39027r27</text></g><a xlink:title=",  (538aa)"><rect fill="#BABDB6" x="15.000000" y="74.500000" width="402.242991" height="14.000000"/></a><g transform="translate(26.962617,69.500000)"><a xlink:href="https://www.ebi.ac.uk/interpro/entry/pfam/PF17767" xlink:title="Nicotinate phosphoribosyltransferase (NAPRTase) N-terminal domain"><rect fill="#2DCF00" x="0" y="0" width="94.953271" height="24.000000" filter="url(#ds)"/><text style="font-size:12px;font-family:OpenSans;fill:#ffffff;" text-anchor="middle" x="47.476636" y="16.000000">NAPRTase_N</text></a></g>
<g transform="translate(329.766355,69.500000)"><a xlink:href="https://www.ebi.ac.uk/interpro/entry/pfam/PF17956" xlink:title="Nicotinate phosphoribosyltransferase C-terminal domain"><rect fill="#FF5353" x="0" y="0" width="80.000000" height="24.000000" filter="url(#ds)"/><text style="font-size:12px;font-family:OpenSans;fill:#ffffff;" text-anchor="middle" x="40.000000" y="16.000000">NAPRTase_C</text></a></g>
<g class="axis">
<line x1="15.000000" x2="417.242991" y1="103.500000" y2="103.500000" stroke="#AAAAAA" /><line x1="15.000000" x2="15.000000" y1="103.500000" y2="108.500000" stroke="#AAAAAA" /><line x1="26.962617" x2="26.962617" y1="103.500000" y2="108.500000" stroke="#AAAAAA" /><text style="font-size:10px;font-family:OpenSans;fill:#000000;" text-anchor="middle" x="26.962617" y="118.500000">16</text><line x1="72.570093" x2="72.570093" y1="103.500000" y2="108.500000" stroke="#AAAAAA" /><text style="font-size:10px;font-family:OpenSans;fill:#000000;" text-anchor="middle" x="72.570093" y="118.500000">77</text><line x1="118.925234" x2="118.925234" y1="103.500000" y2="108.500000" stroke="#AAAAAA" /><text style="font-size:10px;font-family:OpenSans;fill:#000000;" text-anchor="middle" x="118.925234" y="118.500000">139</text><line x1="138.364486" x2="138.364486" y1="103.500000" y2="108.500000" stroke="#AAAAAA" /><text style="font-size:10px;font-family:OpenSans;fill:#000000;" text-anchor="middle" x="138.364486" y="118.500000">165</text><line x1="164.532710" x2="164.532710" y1="103.500000" y2="108.500000" stroke="#AAAAAA" /><text style="font-size:10px;font-family:OpenSans;fill:#000000;" text-anchor="middle" x="164.532710" y="118.500000">200</text><line x1="226.588785" x2="226.588785" y1="103.500000" y2="108.500000" stroke="#AAAAAA" /><text style="font-size:10px;font-family:OpenSans;fill:#000000;" text-anchor="middle" x="226.588785" y="118.500000">283</text><line x1="271.448598" x2="271.448598" y1="103.500000" y2="108.500000" stroke="#AAAAAA" /><text style="font-size:10px;font-family:OpenSans;fill:#000000;" text-anchor="middle" x="271.448598" y="118.500000">343</text><line x1="308.831776" x2="308.831776" y1="103.500000" y2="108.500000" stroke="#AAAAAA" /><text style="font-size:10px;font-family:OpenSans;fill:#000000;" text-anchor="middle" x="308.831776" y="118.500000">393</text><line x1="335.000000" x2="335.000000" y1="103.500000" y2="108.500000" stroke="#AAAAAA" /><text style="font-size:10px;font-family:OpenSans;fill:#000000;" text-anchor="middle" x="335.000000" y="118.500000">428</text><line x1="376.869159" x2="376.869159" y1="103.500000" y2="108.500000" stroke="#AAAAAA" /><text style="font-size:10px;font-family:OpenSans;fill:#000000;" text-anchor="middle" x="376.869159" y="118.500000">484</text><line x1="397.056075" x2="397.056075" y1="103.500000" y2="108.500000" stroke="#AAAAAA" /><text style="font-size:10px;font-family:OpenSans;fill:#000000;" text-anchor="middle" x="397.056075" y="118.500000">511</text><line x1="417.242991" x2="417.242991" y1="103.500000" y2="108.500000" stroke="#AAAAAA" /><text style="font-size:10px;font-family:OpenSans;fill:#000000;" text-anchor="middle" x="417.242991" y="118.500000">538</text><line x1="29194.065421" x2="29194.065421" y1="103.500000" y2="108.500000" stroke="#AAAAAA" /><text style="font-size:10px;font-family:OpenSans;fill:#000000;" text-anchor="middle" x="29194.065421" y="118.500000">39027</text></g>
<rect fill="#2DCF00" x="4" y="132.500000" width="12" height="12" filter="url(#ds)"/><text style="font-size:12px;font-family:OpenSans;fill:#000000;" text-anchor="start" x="20" y="144.500000">Nicotinate phosphoribosyltransferase (NAPRTase) N-terminal domain</text><rect fill="#FF5353" x="4" y="146.500000" width="12" height="12" filter="url(#ds)"/><text style="font-size:12px;font-family:OpenSans;fill:#000000;" text-anchor="start" x="20" y="158.500000">Nicotinate phosphoribosyltransferase C-terminal domain</text></svg>
