<?xml version='1.0'?>
<svg xmlns="http://www.w3.org/2000/svg" xmlns:xlink="http://www.w3.org/1999/xlink" width="980.625000" height="159.400000">
<defs>
  <filter id="ds" x="0" y="0">
    <feOffset in="SourceAlpha" dx="2" dy="2" />
    <feComponentTransfer><feFuncA type="linear" slope="0.2"/></feComponentTransfer>
    <feGaussianBlur result="blurOut" stdDeviation="1" />
    <feBlend in="SourceGraphic" in2="blurOut" mode="normal" />
  </filter>
  <pattern id="disordered-hatch" patternUnits="userSpaceOnUse" width="4" height="4">
    <path d="M-1,1 l2,-2 M0,4 l4,-4 M3,5 l2,-2" stroke="#000000" opacity="0.3" />
  </pattern>
</defs>
<line x1="256.312500" x2="256.312500" y1="34.000000" y2="62.000000" stroke="#BABDB6" stroke-width="2"/><a xlink:title="S99G"><circle cx="256.312500" cy="34.000000" r="4.000000" fill="#ff0000" /></a><g transform="translate(256.312500,34.000000) rotate(-30)"><text style="font-size:10px;font-family:OpenSans;fill:#555;" text-anchor="middle" x="0" y="-6.000000">S99G</text></g><a xlink:title=",  (390aa)"><rect fill="#BABDB6" x="15.000000" y="62.000000" width="950.625000" height="14.000000"/></a><g transform="translate(90.562500,57.000000)"><a xlink:href="https://www.ebi.ac.uk/interpro/entry/pfam/PF00787" xlink:title="PX domain"><rect fill="#2DCF00" x="0" y="0" width="216.937500" height="24.000000" filter="url(#ds)"/><text style="font-size:12px;font-family:OpenSans;fill:#ffffff;" text-anchor="middle" x="108.468750" y="16.000000">PX domain</text></a></g>
<g transform="translate(409.875000,57.000000)"><a xlink:href="https://www.ebi.ac.uk/interpro/entry/pfam/PF00018" xlink:title="SH3 domain"><rect fill="#FF5353" x="0" y="0" width="109.687500" height="24.000000" filter="url(#ds)"/><text style="font-size:12px;font-family:OpenSans;fill:#ffffff;" text-anchor="middle" x="54.843750" y="16.000000">SH3 domain</text></a></g>
<g transform="translate(580.500000,57.000000)"><a xlink:href="https://www.ebi.ac.uk/interpro/entry/pfam/PF00018" xlink:title="SH3 domain"><rect fill="#5B5BFF" x="0" y="0" width="109.687500" height="24.000000" filter="url(#ds)"/><text style="font-size:12px;font-family:OpenSans;fill:#ffffff;" text-anchor="middle" x="54.843750" y="16.000000">SH3 domain</text></a></g>
<g transform="translate(726.750000,57.000000)"><a xlink:href="https://www.ebi.ac.uk/interpro/entry/pfam/PF16621" xlink:title="Neutrophil cytosol factor 1, PBR/AIR"><rect fill="#EBD61D" x="0" y="0" width="114.562500" height="24.000000" filter="url(#ds)"/><text style="font-size:12px;font-family:OpenSans;fill:#ffffff;" text-anchor="middle" x="57.281250" y="16.000000">NCF1_PBR_AIR</text></a></g>
<g transform="translate(887.625000,57.000000)"><a xlink:href="https://www.ebi.ac.uk/interpro/entry/pfam/PF08944" xlink:title="NADPH oxidase subunit p47Phox, C terminal domain"><rect fill="#BA21E0" x="0" y="0" width="78.000000" height="24.000000" filter="url(#ds)"/><text style="font-size:12px;font-family:OpenSans;fill:#ffffff;" text-anchor="middle" x="39.000000" y="16.000000">p47_phox_C</text></a></g>
<g class="axis">
<line x1="15.000000" x2="965.625000" y1="91.000000" y2="91.000000" stroke="#AAAAAA" /><line x1="15.000000" x2="15.000000" y1="91.000000" y2="96.000000" stroke="#AAAAAA" /><line x1="15.000000" x2="15.000000" y1="91.000000" y2="96.000000" stroke="#AAAAAA" /><text style="font-size:10px;font-family:OpenSans;fill:#000000;" text-anchor="middle" x="15.000000" y="106.000000">0</text><line x1="90.562500" x2="90.562500" y1="91.000000" y2="96.000000" stroke="#AAAAAA" /><text style="font-size:10px;font-family:OpenSans;fill:#000000;" text-anchor="middle" x="90.562500" y="106.000000">31</text><line x1="256.312500" x2="256.312500" y1="91.000000" y2="96.000000" stroke="#AAAAAA" /><text style="font-size:10px;font-family:OpenSans;fill:#000000;" text-anchor="middle" x="256.312500" y="106.000000">99</text><line x1="307.500000" x2="307.500000" y1="91.000000" y2="96.000000" stroke="#AAAAAA" /><text style="font-size:10px;font-family:OpenSans;fill:#000000;" text-anchor="middle" x="307.500000" y="106.000000">120</text><line x1="409.875000" x2="409.875000" y1="91.000000" y2="96.000000" stroke="#AAAAAA" /><text style="font-size:10px;font-family:OpenSans;fill:#000000;" text-anchor="middle" x="409.875000" y="106.000000">162</text><line x1="519.562500" x2="519.562500" y1="91.000000" y2="96.000000" stroke="#AAAAAA" /><text style="font-size:10px;font-family:OpenSans;fill:#000000;" text-anchor="middle" x="519.562500" y="106.000000">207</text><line x1="580.500000" x2="580.500000" y1="91.000000" y2="96.000000" stroke="#AAAAAA" /><text style="font-size:10px;font-family:OpenSans;fill:#000000;" text-anchor="middle" x="580.500000" y="106.000000">232</text><line x1="690.187500" x2="690.187500" y1="91.000000" y2="96.000000" stroke="#AAAAAA" /><text style="font-size:10px;font-family:OpenSans;fill:#000000;" text-anchor="middle" x="690.187500" y="106.000000">277</text><line x1="726.750000" x2="726.750000" y1="91.000000" y2="96.000000" stroke="#AAAAAA" /><text style="font-size:10px;font-family:OpenSans;fill:#000000;" text-anchor="middle" x="726.750000" y="106.000000">292</text><line x1="841.312500" x2="841.312500" y1="91.000000" y2="96.000000" stroke="#AAAAAA" /><text style="font-size:10px;font-family:OpenSans;fill:#000000;" text-anchor="middle" x="841.312500" y="106.000000">339</text><line x1="887.625000" x2="887.625000" y1="91.000000" y2="96.000000" stroke="#AAAAAA" /><text style="font-size:10px;font-family:OpenSans;fill:#000000;" text-anchor="middle" x="887.625000" y="106.000000">358</text><line x1="965.625000" x2="965.625000" y1="91.000000" y2="96.000000" stroke="#AAAAAA" /><text style="font-size:10px;font-family:OpenSans;fill:#000000;" text-anchor="middle" x="965.625000" y="106.000000">390</text></g>
<rect fill="#EBD61D" x="4" y="120.000000" width="12" height="12" filter="url(#ds)"/><text style="font-size:12px;font-family:OpenSans;fill:#000000;" text-anchor="start" x="20" y="132.000000">Neutrophil cytosol factor 1, PBR/AIR</text><rect fill="#BA21E0" x="4" y="134.000000" width="12" height="12" filter="url(#ds)"/><text style="font-size:12px;font-family:OpenSans;fill:#000000;" text-anchor="start" x="20" y="146.000000">NADPH oxidase subunit p47Phox, C terminal domain</text></svg>
