<?xml version='1.0'?>
<svg xmlns="http://www.w3.org/2000/svg" xmlns:xlink="http://www.w3.org/1999/xlink" width="3040.088889" height="172.600000">
<defs>
  <filter id="ds" x="0" y="0">
    <feOffset in="SourceAlpha" dx="2" dy="2" />
    <feComponentTransfer><feFuncA type="linear" slope="0.2"/></feComponentTransfer>
    <feGaussianBlur result="blurOut" stdDeviation="1" />
    <feBlend in="SourceGraphic" in2="blurOut" mode="normal" />
  </filter>
  <pattern id="disordered-hatch" patternUnits="userSpaceOnUse" width="4" height="4">
    <path d="M-1,1 l2,-2 M0,4 l4,-4 M3,5 l2,-2" stroke="#000000" opacity="0.3" />
  </pattern>
</defs>
<line x1="1767.577778" x2="1767.577778" y1="34.000000" y2="62.000000" stroke="#BABDB6" stroke-width="2"/><a xlink:title="A839V"><circle cx="1767.577778" cy="34.000000" r="4.000000" fill="#ff0000" /></a><g transform="translate(1767.577778,34.000000) rotate(-30)"><text style="font-size:10px;font-family:OpenSans;fill:#555;" text-anchor="middle" x="0" y="-6.000000">A839V</text></g><a xlink:title=",  (1441aa)"><rect fill="#BABDB6" x="15.000000" y="62.000000" width="3010.088889" height="14.000000"/></a><g transform="translate(255.222222,57.000000)"><a xlink:href="https://www.ebi.ac.uk/interpro/entry/pfam/PF00989" xlink:title="PAS fold"><rect fill="#2DCF00" x="0" y="0" width="119.066667" height="24.000000" filter="url(#ds)"/><text style="font-size:12px;font-family:OpenSans;fill:#ffffff;" text-anchor="middle" x="59.533333" y="16.000000">PAS fold</text></a></g>
<g transform="translate(558.111111,57.000000)"><a xlink:href="https://www.ebi.ac.uk/interpro/entry/pfam/PF14598" xlink:title="PAS domain"><rect fill="#FF5353" x="0" y="0" width="227.688889" height="24.000000" filter="url(#ds)"/><text style="font-size:12px;font-family:OpenSans;fill:#ffffff;" text-anchor="middle" x="113.844444" y="16.000000">PAS domain</text></a></g>
<g transform="translate(992.600000,57.000000)"><a xlink:href="https://www.ebi.ac.uk/interpro/entry/pfam/PF16665" xlink:title="Unstructured region on nuclear receptor coactivator protein"><rect fill="#5B5BFF" x="0" y="0" width="252.755556" height="24.000000" filter="url(#ds)"/><text style="font-size:12px;font-family:OpenSans;fill:#ffffff;" text-anchor="middle" x="126.377778" y="16.000000">NCOA_u2</text></a></g>
<g transform="translate(1331.000000,57.000000)"><a xlink:href="https://www.ebi.ac.uk/interpro/entry/pfam/PF08832" xlink:title="Steroid receptor coactivator"><rect fill="#EBD61D" x="0" y="0" width="162.933333" height="24.000000" filter="url(#ds)"/><text style="font-size:12px;font-family:OpenSans;fill:#ffffff;" text-anchor="middle" x="81.466667" y="16.000000">Steroid receptor coactivator</text></a></g>
<g transform="translate(1945.133333,57.000000)"><a xlink:href="https://www.ebi.ac.uk/interpro/entry/pfam/PF08815" xlink:title="Nuclear receptor coactivator"><rect fill="#BA21E0" x="0" y="0" width="94.000000" height="24.000000" filter="url(#ds)"/><text style="font-size:12px;font-family:OpenSans;fill:#ffffff;" text-anchor="middle" x="47.000000" y="16.000000">Nuc_rec_co-act</text></a></g>
<g transform="translate(2415.133333,57.000000)"><a xlink:href="https://www.ebi.ac.uk/interpro/entry/pfam/PF07469" xlink:title="Nuclear receptor coactivator, DUF1518"><rect fill="#FF9C42" x="0" y="0" width="116.977778" height="24.000000" filter="url(#ds)"/><text style="font-size:12px;font-family:OpenSans;fill:#ffffff;" text-anchor="middle" x="58.488889" y="16.000000">DUF1518</text></a></g>
<g transform="translate(2546.733333,57.000000)"><a xlink:href="https://www.ebi.ac.uk/interpro/entry/pfam/PF07469" xlink:title="Nuclear receptor coactivator, DUF1518"><rect fill="#FF7DFF" x="0" y="0" width="116.977778" height="24.000000" filter="url(#ds)"/><text style="font-size:12px;font-family:OpenSans;fill:#ffffff;" text-anchor="middle" x="58.488889" y="16.000000">DUF1518</text></a></g>
<g class="axis">
<line x1="15.000000" x2="3025.088889" y1="91.000000" y2="91.000000" stroke="#AAAAAA" /><line x1="15.000000" x2="15.000000" y1="91.000000" y2="96.000000" stroke="#AAAAAA" /><line x1="15.000000" x2="15.000000" y1="91.000000" y2="96.000000" stroke="#AAAAAA" /><text style="font-size:10px;font-family:OpenSans;fill:#000000;" text-anchor="middle" x="15.000000" y="106.000000">0</text><line x1="255.222222" x2="255.222222" y1="91.000000" y2="96.000000" stroke="#AAAAAA" /><text style="font-size:10px;font-family:OpenSans;fill:#000000;" text-anchor="middle" x="255.222222" y="106.000000">115</text><line x1="374.288889" x2="374.288889" y1="91.000000" y2="96.000000" stroke="#AAAAAA" /><text style="font-size:10px;font-family:OpenSans;fill:#000000;" text-anchor="middle" x="374.288889" y="106.000000">172</text><line x1="558.111111" x2="558.111111" y1="91.000000" y2="96.000000" stroke="#AAAAAA" /><text style="font-size:10px;font-family:OpenSans;fill:#000000;" text-anchor="middle" x="558.111111" y="106.000000">260</text><line x1="785.800000" x2="785.800000" y1="91.000000" y2="96.000000" stroke="#AAAAAA" /><text style="font-size:10px;font-family:OpenSans;fill:#000000;" text-anchor="middle" x="785.800000" y="106.000000">369</text><line x1="992.600000" x2="992.600000" y1="91.000000" y2="96.000000" stroke="#AAAAAA" /><text style="font-size:10px;font-family:OpenSans;fill:#000000;" text-anchor="middle" x="992.600000" y="106.000000">468</text><line x1="1245.355556" x2="1245.355556" y1="91.000000" y2="96.000000" stroke="#AAAAAA" /><text style="font-size:10px;font-family:OpenSans;fill:#000000;" text-anchor="middle" x="1245.355556" y="106.000000">589</text><line x1="1331.000000" x2="1331.000000" y1="91.000000" y2="96.000000" stroke="#AAAAAA" /><text style="font-size:10px;font-family:OpenSans;fill:#000000;" text-anchor="middle" x="1331.000000" y="106.000000">630</text><line x1="1493.933333" x2="1493.933333" y1="91.000000" y2="96.000000" stroke="#AAAAAA" /><text style="font-size:10px;font-family:OpenSans;fill:#000000;" text-anchor="middle" x="1493.933333" y="106.000000">708</text><line x1="1767.577778" x2="1767.577778" y1="91.000000" y2="96.000000" stroke="#AAAAAA" /><text style="font-size:10px;font-family:OpenSans;fill:#000000;" text-anchor="middle" x="1767.577778" y="106.000000">839</text><line x1="1945.133333" x2="1945.133333" y1="91.000000" y2="96.000000" stroke="#AAAAAA" /><text style="font-size:10px;font-family:OpenSans;fill:#000000;" text-anchor="middle" x="1945.133333" y="106.000000">924</text><line x1="2039.133333" x2="2039.133333" y1="91.000000" y2="96.000000" stroke="#AAAAAA" /><text style="font-size:10px;font-family:OpenSans;fill:#000000;" text-anchor="middle" x="2039.133333" y="106.000000">969</text><line x1="2415.133333" x2="2415.133333" y1="91.000000" y2="96.000000" stroke="#AAAAAA" /><text style="font-size:10px;font-family:OpenSans;fill:#000000;" text-anchor="middle" x="2415.133333" y="106.000000">1149</text><line x1="2532.111111" x2="2532.111111" y1="91.000000" y2="96.000000" stroke="#AAAAAA" /><text style="font-size:10px;font-family:OpenSans;fill:#000000;" text-anchor="middle" x="2532.111111" y="106.000000">1205</text><line x1="2663.711111" x2="2663.711111" y1="91.000000" y2="96.000000" stroke="#AAAAAA" /><text style="font-size:10px;font-family:OpenSans;fill:#000000;" text-anchor="middle" x="2663.711111" y="106.000000">1268</text><line x1="3025.088889" x2="3025.088889" y1="91.000000" y2="96.000000" stroke="#AAAAAA" /><text style="font-size:10px;font-family:OpenSans;fill:#000000;" text-anchor="middle" x="3025.088889" y="106.000000">1441</text></g>
<rect fill="#5B5BFF" x="4" y="120.000000" width="12" height="12" filter="url(#ds)"/><text style="font-size:12px;font-family:OpenSans;fill:#000000;" text-anchor="start" x="20" y="132.000000">Unstructured region on nuclear receptor coactivator protein</text><rect fill="#BA21E0" x="4" y="134.000000" width="12" height="12" filter="url(#ds)"/><text style="font-size:12px;font-family:OpenSans;fill:#000000;" text-anchor="start" x="20" y="146.000000">Nuclear receptor coactivator</text><rect fill="#FF7DFF" x="4" y="148.000000" width="12" height="12" filter="url(#ds)"/><text style="font-size:12px;font-family:OpenSans;fill:#000000;" text-anchor="start" x="20" y="160.000000">Nuclear receptor coactivator, DUF1518</text></svg>
