<?xml version='1.0'?>
<svg xmlns="http://www.w3.org/2000/svg" xmlns:xlink="http://www.w3.org/1999/xlink" width="430.000000" height="158.700000">
<defs>
  <filter id="ds" x="0" y="0">
    <feOffset in="SourceAlpha" dx="2" dy="2" />
    <feComponentTransfer><feFuncA type="linear" slope="0.2"/></feComponentTransfer>
    <feGaussianBlur result="blurOut" stdDeviation="1" />
    <feBlend in="SourceGraphic" in2="blurOut" mode="normal" />
  </filter>
  <pattern id="disordered-hatch" patternUnits="userSpaceOnUse" width="4" height="4">
    <path d="M-1,1 l2,-2 M0,4 l4,-4 M3,5 l2,-2" stroke="#000000" opacity="0.3" />
  </pattern>
</defs>
<line x1="32.278618" x2="32.278618" y1="46.500000" y2="74.500000" stroke="#BABDB6" stroke-width="2"/><a xlink:title="P20T"><circle cx="32.278618" cy="46.500000" r="4.000000" fill="#ff0000" /></a><g transform="translate(32.278618,46.500000) rotate(-30)"><text style="font-size:10px;font-family:OpenSans;fill:#555;" text-anchor="middle" x="0" y="-6.000000">P20T</text></g><line x1="234.438445" x2="234.438445" y1="46.500000" y2="74.500000" stroke="#BABDB6" stroke-width="2"/><a xlink:title="P254A"><circle cx="234.438445" cy="46.500000" r="4.000000" fill="#ff0000" /></a><g transform="translate(234.438445,46.500000) rotate(-30)"><text style="font-size:10px;font-family:OpenSans;fill:#555;" text-anchor="middle" x="0" y="-6.000000">P254A</text></g><line x1="296.641469" x2="296.641469" y1="34.000000" y2="74.500000" stroke="#BABDB6" stroke-width="2"/><a xlink:title="P326A"><circle cx="296.641469" cy="34.000000" r="4.000000" fill="#ff0000" /></a><g transform="translate(296.641469,34.000000) rotate(-30)"><text style="font-size:10px;font-family:OpenSans;fill:#555;" text-anchor="middle" x="0" y="-6.000000">P326A</text></g><line x1="301.825054" x2="301.825054" y1="46.500000" y2="74.500000" stroke="#BABDB6" stroke-width="2"/><a xlink:title="A332A"><circle cx="301.825054" cy="46.500000" r="4.000000" fill="#0000ff" /></a><g transform="translate(301.825054,46.500000) rotate(-30)"><text style="font-size:10px;font-family:OpenSans;fill:#555;" text-anchor="middle" x="0" y="-6.000000">A332A</text></g><line x1="312.192225" x2="312.192225" y1="46.500000" y2="74.500000" stroke="#BABDB6" stroke-width="2"/><a xlink:title="H344Y"><circle cx="312.192225" cy="46.500000" r="4.000000" fill="#ff0000" /></a><g transform="translate(312.192225,46.500000) rotate(-30)"><text style="font-size:10px;font-family:OpenSans;fill:#555;" text-anchor="middle" x="0" y="-6.000000">H344Y</text></g><line x1="319.103672" x2="319.103672" y1="46.500000" y2="74.500000" stroke="#BABDB6" stroke-width="2"/><a xlink:title="P352A"><circle cx="319.103672" cy="46.500000" r="4.000000" fill="#ff0000" /></a><g transform="translate(319.103672,46.500000) rotate(-30)"><text style="font-size:10px;font-family:OpenSans;fill:#555;" text-anchor="middle" x="0" y="-6.000000">P352A</text></g><line x1="364.028078" x2="364.028078" y1="46.500000" y2="74.500000" stroke="#BABDB6" stroke-width="2"/><a xlink:title="A404A"><circle cx="364.028078" cy="46.500000" r="4.000000" fill="#0000ff" /></a><g transform="translate(364.028078,46.500000) rotate(-30)"><text style="font-size:10px;font-family:OpenSans;fill:#555;" text-anchor="middle" x="0" y="-6.000000">A404A</text></g><line x1="374.395248" x2="374.395248" y1="46.500000" y2="74.500000" stroke="#BABDB6" stroke-width="2"/><a xlink:title="H416Y"><circle cx="374.395248" cy="46.500000" r="4.000000" fill="#ff0000" /></a><g transform="translate(374.395248,46.500000) rotate(-30)"><text style="font-size:10px;font-family:OpenSans;fill:#555;" text-anchor="middle" x="0" y="-6.000000">H416Y</text></g><line x1="386.490281" x2="386.490281" y1="46.500000" y2="74.500000" stroke="#BABDB6" stroke-width="2"/><a xlink:title="A430A"><circle cx="386.490281" cy="46.500000" r="4.000000" fill="#0000ff" /></a><g transform="translate(386.490281,46.500000) rotate(-30)"><text style="font-size:10px;font-family:OpenSans;fill:#555;" text-anchor="middle" x="0" y="-6.000000">A430A</text></g><line x1="396.857451" x2="396.857451" y1="46.500000" y2="74.500000" stroke="#BABDB6" stroke-width="2"/><a xlink:title="H442Y"><circle cx="396.857451" cy="46.500000" r="4.000000" fill="#ff0000" /></a><g transform="translate(396.857451,46.500000) rotate(-30)"><text style="font-size:10px;font-family:OpenSans;fill:#555;" text-anchor="middle" x="0" y="-6.000000">H442Y</text></g><a xlink:title=",  (463aa)"><rect fill="#BABDB6" x="15.000000" y="74.500000" width="400.000000" height="14.000000"/></a><g transform="translate(181.738661,69.500000)"><a xlink:href="https://www.ebi.ac.uk/interpro/entry/pfam/PF00346" xlink:title="Respiratory-chain NADH dehydrogenase, 49 Kd subunit"><rect fill="#2DCF00" x="0" y="0" width="233.261339" height="24.000000" filter="url(#ds)"/><text style="font-size:12px;font-family:OpenSans;fill:#ffffff;" text-anchor="middle" x="116.630670" y="16.000000">Complex1_49kDa</text></a></g>
<g class="axis">
<line x1="15.000000" x2="415.000000" y1="103.500000" y2="103.500000" stroke="#AAAAAA" /><line x1="15.000000" x2="15.000000" y1="103.500000" y2="108.500000" stroke="#AAAAAA" /><line x1="32.278618" x2="32.278618" y1="103.500000" y2="108.500000" stroke="#AAAAAA" /><text style="font-size:10px;font-family:OpenSans;fill:#000000;" text-anchor="middle" x="32.278618" y="118.500000">20</text><line x1="181.738661" x2="181.738661" y1="103.500000" y2="108.500000" stroke="#AAAAAA" /><text style="font-size:10px;font-family:OpenSans;fill:#000000;" text-anchor="middle" x="181.738661" y="118.500000">193</text><line x1="234.438445" x2="234.438445" y1="103.500000" y2="108.500000" stroke="#AAAAAA" /><text style="font-size:10px;font-family:OpenSans;fill:#000000;" text-anchor="middle" x="234.438445" y="118.500000">254</text><line x1="296.641469" x2="296.641469" y1="103.500000" y2="108.500000" stroke="#AAAAAA" /><text style="font-size:10px;font-family:OpenSans;fill:#000000;" text-anchor="middle" x="296.641469" y="118.500000">326</text><line x1="319.103672" x2="319.103672" y1="103.500000" y2="108.500000" stroke="#AAAAAA" /><text style="font-size:10px;font-family:OpenSans;fill:#000000;" text-anchor="middle" x="319.103672" y="118.500000">352</text><line x1="364.028078" x2="364.028078" y1="103.500000" y2="108.500000" stroke="#AAAAAA" /><text style="font-size:10px;font-family:OpenSans;fill:#000000;" text-anchor="middle" x="364.028078" y="118.500000">404</text><line x1="386.490281" x2="386.490281" y1="103.500000" y2="108.500000" stroke="#AAAAAA" /><text style="font-size:10px;font-family:OpenSans;fill:#000000;" text-anchor="middle" x="386.490281" y="118.500000">430</text><line x1="415.000000" x2="415.000000" y1="103.500000" y2="108.500000" stroke="#AAAAAA" /><text style="font-size:10px;font-family:OpenSans;fill:#000000;" text-anchor="middle" x="415.000000" y="118.500000">463</text></g>
<rect fill="#2DCF00" x="4" y="132.500000" width="12" height="12" filter="url(#ds)"/><text style="font-size:12px;font-family:OpenSans;fill:#000000;" text-anchor="start" x="20" y="144.500000">Respiratory-chain NADH dehydrogenase, 49 Kd subunit</text></svg>
