<?xml version='1.0'?>
<svg xmlns="http://www.w3.org/2000/svg" xmlns:xlink="http://www.w3.org/1999/xlink" width="430.000000" height="146.200000">
<defs>
  <filter id="ds" x="0" y="0">
    <feOffset in="SourceAlpha" dx="2" dy="2" />
    <feComponentTransfer><feFuncA type="linear" slope="0.2"/></feComponentTransfer>
    <feGaussianBlur result="blurOut" stdDeviation="1" />
    <feBlend in="SourceGraphic" in2="blurOut" mode="normal" />
  </filter>
  <pattern id="disordered-hatch" patternUnits="userSpaceOnUse" width="4" height="4">
    <path d="M-1,1 l2,-2 M0,4 l4,-4 M3,5 l2,-2" stroke="#000000" opacity="0.3" />
  </pattern>
</defs>
<line x1="433.518519" x2="433.518519" y1="34.000000" y2="62.000000" stroke="#BABDB6" stroke-width="2"/><a xlink:title="P113P"><circle cx="433.518519" cy="34.000000" r="4.000000" fill="#0000ff" /></a><g transform="translate(433.518519,34.000000) rotate(-30)"><text style="font-size:10px;font-family:OpenSans;fill:#555;" text-anchor="middle" x="0" y="-6.000000">P113P</text></g><line x1="592.777778" x2="592.777778" y1="34.000000" y2="62.000000" stroke="#BABDB6" stroke-width="2"/><a xlink:title="S156S"><circle cx="592.777778" cy="34.000000" r="4.000000" fill="#0000ff" /></a><g transform="translate(592.777778,34.000000) rotate(-30)"><text style="font-size:10px;font-family:OpenSans;fill:#555;" text-anchor="middle" x="0" y="-6.000000">S156S</text></g><line x1="755.740741" x2="755.740741" y1="34.000000" y2="62.000000" stroke="#BABDB6" stroke-width="2"/><a xlink:title="R200*"><circle cx="755.740741" cy="34.000000" r="4.000000" fill="#0000ff" /></a><g transform="translate(755.740741,34.000000) rotate(-30)"><text style="font-size:10px;font-family:OpenSans;fill:#555;" text-anchor="middle" x="0" y="-6.000000">R200*</text></g><line x1="1552.037037" x2="1552.037037" y1="34.000000" y2="62.000000" stroke="#BABDB6" stroke-width="2"/><a xlink:title="D415N"><circle cx="1552.037037" cy="34.000000" r="4.000000" fill="#ff0000" /></a><g transform="translate(1552.037037,34.000000) rotate(-30)"><text style="font-size:10px;font-family:OpenSans;fill:#555;" text-anchor="middle" x="0" y="-6.000000">D415N</text></g><a xlink:title=",  (108aa)"><rect fill="#BABDB6" x="15.000000" y="62.000000" width="400.000000" height="14.000000"/></a><g transform="translate(263.148148,57.000000)"><a xlink:href="https://www.ebi.ac.uk/interpro/entry/pfam/PF15880" xlink:title="NADH dehydrogenase [ubiquinone] flavoprotein 3, mitochondrial"><rect fill="#2DCF00" x="0" y="0" width="125.925926" height="24.000000" filter="url(#ds)"/><text style="font-size:12px;font-family:OpenSans;fill:#ffffff;" text-anchor="middle" x="62.962963" y="16.000000">NDUFV3</text></a></g>
<g class="axis">
<line x1="15.000000" x2="415.000000" y1="91.000000" y2="91.000000" stroke="#AAAAAA" /><line x1="15.000000" x2="15.000000" y1="91.000000" y2="96.000000" stroke="#AAAAAA" /><line x1="15.000000" x2="15.000000" y1="91.000000" y2="96.000000" stroke="#AAAAAA" /><text style="font-size:10px;font-family:OpenSans;fill:#000000;" text-anchor="middle" x="15.000000" y="106.000000">0</text><line x1="263.148148" x2="263.148148" y1="91.000000" y2="96.000000" stroke="#AAAAAA" /><text style="font-size:10px;font-family:OpenSans;fill:#000000;" text-anchor="middle" x="263.148148" y="106.000000">67</text><line x1="389.074074" x2="389.074074" y1="91.000000" y2="96.000000" stroke="#AAAAAA" /><text style="font-size:10px;font-family:OpenSans;fill:#000000;" text-anchor="middle" x="389.074074" y="106.000000">101</text><line x1="415.000000" x2="415.000000" y1="91.000000" y2="96.000000" stroke="#AAAAAA" /><text style="font-size:10px;font-family:OpenSans;fill:#000000;" text-anchor="middle" x="415.000000" y="106.000000">108</text><line x1="433.518519" x2="433.518519" y1="91.000000" y2="96.000000" stroke="#AAAAAA" /><text style="font-size:10px;font-family:OpenSans;fill:#000000;" text-anchor="middle" x="433.518519" y="106.000000">113</text><line x1="592.777778" x2="592.777778" y1="91.000000" y2="96.000000" stroke="#AAAAAA" /><text style="font-size:10px;font-family:OpenSans;fill:#000000;" text-anchor="middle" x="592.777778" y="106.000000">156</text><line x1="755.740741" x2="755.740741" y1="91.000000" y2="96.000000" stroke="#AAAAAA" /><text style="font-size:10px;font-family:OpenSans;fill:#000000;" text-anchor="middle" x="755.740741" y="106.000000">200</text><line x1="1552.037037" x2="1552.037037" y1="91.000000" y2="96.000000" stroke="#AAAAAA" /><text style="font-size:10px;font-family:OpenSans;fill:#000000;" text-anchor="middle" x="1552.037037" y="106.000000">415</text></g>
<rect fill="#2DCF00" x="4" y="120.000000" width="12" height="12" filter="url(#ds)"/><text style="font-size:12px;font-family:OpenSans;fill:#000000;" text-anchor="start" x="20" y="132.000000">NADH dehydrogenase [ubiquinone] flavoprotein 3, mitochondrial</text></svg>
