<?xml version='1.0'?>
<svg xmlns="http://www.w3.org/2000/svg" xmlns:xlink="http://www.w3.org/1999/xlink" width="718.123711" height="159.400000">
<defs>
  <filter id="ds" x="0" y="0">
    <feOffset in="SourceAlpha" dx="2" dy="2" />
    <feComponentTransfer><feFuncA type="linear" slope="0.2"/></feComponentTransfer>
    <feGaussianBlur result="blurOut" stdDeviation="1" />
    <feBlend in="SourceGraphic" in2="blurOut" mode="normal" />
  </filter>
  <pattern id="disordered-hatch" patternUnits="userSpaceOnUse" width="4" height="4">
    <path d="M-1,1 l2,-2 M0,4 l4,-4 M3,5 l2,-2" stroke="#000000" opacity="0.3" />
  </pattern>
</defs>
<line x1="24.917526" x2="24.917526" y1="34.000000" y2="62.000000" stroke="#BABDB6" stroke-width="2"/><a xlink:title="T13T"><circle cx="24.917526" cy="34.000000" r="4.000000" fill="#0000ff" /></a><g transform="translate(24.917526,34.000000) rotate(-30)"><text style="font-size:10px;font-family:OpenSans;fill:#555;" text-anchor="middle" x="0" y="-6.000000">T13T</text></g><a xlink:title=",  (902aa)"><rect fill="#BABDB6" x="15.000000" y="62.000000" width="688.123711" height="14.000000"/></a><g transform="translate(334.649485,57.000000)"><a xlink:href="https://www.ebi.ac.uk/interpro/entry/pfam/PF00554" xlink:title="Rel homology DNA-binding domain"><rect fill="#2DCF00" x="0" y="0" width="121.298969" height="24.000000" filter="url(#ds)"/><text style="font-size:12px;font-family:OpenSans;fill:#ffffff;" text-anchor="middle" x="60.649485" y="16.000000">RHD_DNA_bind</text></a></g>
<g transform="translate(463.577320,57.000000)"><a xlink:href="https://www.ebi.ac.uk/interpro/entry/pfam/PF16179" xlink:title="Rel homology dimerisation domain"><rect fill="#FF5353" x="0" y="0" width="74.000000" height="24.000000" filter="url(#ds)"/><text style="font-size:12px;font-family:OpenSans;fill:#ffffff;" text-anchor="middle" x="37.000000" y="16.000000">RHD_dimer</text></a></g>
<g class="axis">
<line x1="15.000000" x2="703.123711" y1="91.000000" y2="91.000000" stroke="#AAAAAA" /><line x1="15.000000" x2="15.000000" y1="91.000000" y2="96.000000" stroke="#AAAAAA" /><line x1="24.917526" x2="24.917526" y1="91.000000" y2="96.000000" stroke="#AAAAAA" /><text style="font-size:10px;font-family:OpenSans;fill:#000000;" text-anchor="middle" x="24.917526" y="106.000000">13</text><line x1="334.649485" x2="334.649485" y1="91.000000" y2="96.000000" stroke="#AAAAAA" /><text style="font-size:10px;font-family:OpenSans;fill:#000000;" text-anchor="middle" x="334.649485" y="106.000000">419</text><line x1="455.948454" x2="455.948454" y1="91.000000" y2="96.000000" stroke="#AAAAAA" /><text style="font-size:10px;font-family:OpenSans;fill:#000000;" text-anchor="middle" x="455.948454" y="106.000000">578</text><line x1="537.577320" x2="537.577320" y1="91.000000" y2="96.000000" stroke="#AAAAAA" /><text style="font-size:10px;font-family:OpenSans;fill:#000000;" text-anchor="middle" x="537.577320" y="106.000000">685</text><line x1="703.123711" x2="703.123711" y1="91.000000" y2="96.000000" stroke="#AAAAAA" /><text style="font-size:10px;font-family:OpenSans;fill:#000000;" text-anchor="middle" x="703.123711" y="106.000000">902</text></g>
<rect fill="#FF5353" x="4" y="120.000000" width="12" height="12" filter="url(#ds)"/><text style="font-size:12px;font-family:OpenSans;fill:#000000;" text-anchor="start" x="20" y="132.000000">Rel homology dimerisation domain</text><rect fill="#2DCF00" x="4" y="134.000000" width="12" height="12" filter="url(#ds)"/><text style="font-size:12px;font-family:OpenSans;fill:#000000;" text-anchor="start" x="20" y="146.000000">Rel homology DNA-binding domain</text></svg>
