<?xml version='1.0'?>
<svg xmlns="http://www.w3.org/2000/svg" xmlns:xlink="http://www.w3.org/1999/xlink" width="709.591837" height="185.800000">
<defs>
  <filter id="ds" x="0" y="0">
    <feOffset in="SourceAlpha" dx="2" dy="2" />
    <feComponentTransfer><feFuncA type="linear" slope="0.2"/></feComponentTransfer>
    <feGaussianBlur result="blurOut" stdDeviation="1" />
    <feBlend in="SourceGraphic" in2="blurOut" mode="normal" />
  </filter>
  <pattern id="disordered-hatch" patternUnits="userSpaceOnUse" width="4" height="4">
    <path d="M-1,1 l2,-2 M0,4 l4,-4 M3,5 l2,-2" stroke="#000000" opacity="0.3" />
  </pattern>
</defs>
<line x1="288.346939" x2="288.346939" y1="34.000000" y2="62.000000" stroke="#BABDB6" stroke-width="2"/><a xlink:title="G362G"><circle cx="288.346939" cy="34.000000" r="4.000000" fill="#0000ff" /></a><g transform="translate(288.346939,34.000000) rotate(-30)"><text style="font-size:10px;font-family:OpenSans;fill:#555;" text-anchor="middle" x="0" y="-6.000000">G362G</text></g><line x1="302.693878" x2="302.693878" y1="34.000000" y2="62.000000" stroke="#BABDB6" stroke-width="2"/><a xlink:title="P381P"><circle cx="302.693878" cy="34.000000" r="4.000000" fill="#0000ff" /></a><g transform="translate(302.693878,34.000000) rotate(-30)"><text style="font-size:10px;font-family:OpenSans;fill:#555;" text-anchor="middle" x="0" y="-6.000000">P381P</text></g><line x1="309.489796" x2="309.489796" y1="34.000000" y2="62.000000" stroke="#BABDB6" stroke-width="2"/><a xlink:title="C390C"><circle cx="309.489796" cy="34.000000" r="4.000000" fill="#0000ff" /></a><g transform="translate(309.489796,34.000000) rotate(-30)"><text style="font-size:10px;font-family:OpenSans;fill:#555;" text-anchor="middle" x="0" y="-6.000000">C390C</text></g><line x1="320.061224" x2="320.061224" y1="34.000000" y2="62.000000" stroke="#BABDB6" stroke-width="2"/><a xlink:title="G404G"><circle cx="320.061224" cy="34.000000" r="4.000000" fill="#0000ff" /></a><g transform="translate(320.061224,34.000000) rotate(-30)"><text style="font-size:10px;font-family:OpenSans;fill:#555;" text-anchor="middle" x="0" y="-6.000000">G404G</text></g><line x1="334.408163" x2="334.408163" y1="34.000000" y2="62.000000" stroke="#BABDB6" stroke-width="2"/><a xlink:title="P423P"><circle cx="334.408163" cy="34.000000" r="4.000000" fill="#0000ff" /></a><g transform="translate(334.408163,34.000000) rotate(-30)"><text style="font-size:10px;font-family:OpenSans;fill:#555;" text-anchor="middle" x="0" y="-6.000000">P423P</text></g><line x1="341.204082" x2="341.204082" y1="34.000000" y2="62.000000" stroke="#BABDB6" stroke-width="2"/><a xlink:title="C432C"><circle cx="341.204082" cy="34.000000" r="4.000000" fill="#0000ff" /></a><g transform="translate(341.204082,34.000000) rotate(-30)"><text style="font-size:10px;font-family:OpenSans;fill:#555;" text-anchor="middle" x="0" y="-6.000000">C432C</text></g><line x1="441.632653" x2="441.632653" y1="34.000000" y2="62.000000" stroke="#BABDB6" stroke-width="2"/><a xlink:title="A565A"><circle cx="441.632653" cy="34.000000" r="4.000000" fill="#0000ff" /></a><g transform="translate(441.632653,34.000000) rotate(-30)"><text style="font-size:10px;font-family:OpenSans;fill:#555;" text-anchor="middle" x="0" y="-6.000000">A565A</text></g><line x1="473.346939" x2="473.346939" y1="34.000000" y2="62.000000" stroke="#BABDB6" stroke-width="2"/><a xlink:title="A607A"><circle cx="473.346939" cy="34.000000" r="4.000000" fill="#0000ff" /></a><g transform="translate(473.346939,34.000000) rotate(-30)"><text style="font-size:10px;font-family:OpenSans;fill:#555;" text-anchor="middle" x="0" y="-6.000000">A607A</text></g><line x1="510.346939" x2="510.346939" y1="34.000000" y2="62.000000" stroke="#BABDB6" stroke-width="2"/><a xlink:title="N656N"><circle cx="510.346939" cy="34.000000" r="4.000000" fill="#0000ff" /></a><g transform="translate(510.346939,34.000000) rotate(-30)"><text style="font-size:10px;font-family:OpenSans;fill:#555;" text-anchor="middle" x="0" y="-6.000000">N656N</text></g><line x1="542.061224" x2="542.061224" y1="34.000000" y2="62.000000" stroke="#BABDB6" stroke-width="2"/><a xlink:title="N698N"><circle cx="542.061224" cy="34.000000" r="4.000000" fill="#0000ff" /></a><g transform="translate(542.061224,34.000000) rotate(-30)"><text style="font-size:10px;font-family:OpenSans;fill:#555;" text-anchor="middle" x="0" y="-6.000000">N698N</text></g><a xlink:title=",  (900aa)"><rect fill="#BABDB6" x="15.000000" y="62.000000" width="679.591837" height="14.000000"/></a><g transform="translate(45.204082,57.000000)"><a xlink:href="https://www.ebi.ac.uk/interpro/entry/pfam/PF00554" xlink:title="Rel homology DNA-binding domain"><rect fill="#2DCF00" x="0" y="0" width="135.918367" height="24.000000" filter="url(#ds)"/><text style="font-size:12px;font-family:OpenSans;fill:#ffffff;" text-anchor="middle" x="67.959184" y="16.000000">RHD_DNA_bind</text></a></g>
<g transform="translate(187.918367,57.000000)"><a xlink:href="https://www.ebi.ac.uk/interpro/entry/pfam/PF16179" xlink:title="Rel homology dimerisation domain"><rect fill="#FF5353" x="0" y="0" width="74.000000" height="24.000000" filter="url(#ds)"/><text style="font-size:12px;font-family:OpenSans;fill:#ffffff;" text-anchor="middle" x="37.000000" y="16.000000">RHD_dimer</text></a></g>
<g transform="translate(372.163265,57.000000)"><a xlink:href="https://www.ebi.ac.uk/interpro/entry/pfam/PF12796" xlink:title="Ankyrin repeats (3 copies)"><rect fill="#5B5BFF" x="0" y="0" width="60.408163" height="24.000000" filter="url(#ds)"/><text style="font-size:12px;font-family:OpenSans;fill:#ffffff;" text-anchor="middle" x="30.204082" y="16.000000">Ank_2</text></a></g>
<g transform="translate(471.836735,57.000000)"><a xlink:href="https://www.ebi.ac.uk/interpro/entry/pfam/PF12796" xlink:title="Ankyrin repeats (3 copies)"><rect fill="#EBD61D" x="0" y="0" width="69.469388" height="24.000000" filter="url(#ds)"/><text style="font-size:12px;font-family:OpenSans;fill:#ffffff;" text-anchor="middle" x="34.734694" y="16.000000">Ank_2</text></a></g>
<g transform="translate(600.959184,57.000000)"><a xlink:href="https://www.ebi.ac.uk/interpro/entry/pfam/PF00531" xlink:title="Death domain"><rect fill="#BA21E0" x="0" y="0" width="54.367347" height="24.000000" filter="url(#ds)"/><text style="font-size:12px;font-family:OpenSans;fill:#ffffff;" text-anchor="middle" x="27.183673" y="16.000000">Death</text></a></g>
<g class="axis">
<line x1="15.000000" x2="694.591837" y1="91.000000" y2="91.000000" stroke="#AAAAAA" /><line x1="15.000000" x2="15.000000" y1="91.000000" y2="96.000000" stroke="#AAAAAA" /><line x1="15.000000" x2="15.000000" y1="91.000000" y2="96.000000" stroke="#AAAAAA" /><text style="font-size:10px;font-family:OpenSans;fill:#000000;" text-anchor="middle" x="15.000000" y="106.000000">0</text><line x1="45.204082" x2="45.204082" y1="91.000000" y2="96.000000" stroke="#AAAAAA" /><text style="font-size:10px;font-family:OpenSans;fill:#000000;" text-anchor="middle" x="45.204082" y="106.000000">40</text><line x1="181.122449" x2="181.122449" y1="91.000000" y2="96.000000" stroke="#AAAAAA" /><text style="font-size:10px;font-family:OpenSans;fill:#000000;" text-anchor="middle" x="181.122449" y="106.000000">220</text><line x1="261.918367" x2="261.918367" y1="91.000000" y2="96.000000" stroke="#AAAAAA" /><text style="font-size:10px;font-family:OpenSans;fill:#000000;" text-anchor="middle" x="261.918367" y="106.000000">327</text><line x1="288.346939" x2="288.346939" y1="91.000000" y2="96.000000" stroke="#AAAAAA" /><text style="font-size:10px;font-family:OpenSans;fill:#000000;" text-anchor="middle" x="288.346939" y="106.000000">362</text><line x1="309.489796" x2="309.489796" y1="91.000000" y2="96.000000" stroke="#AAAAAA" /><text style="font-size:10px;font-family:OpenSans;fill:#000000;" text-anchor="middle" x="309.489796" y="106.000000">390</text><line x1="334.408163" x2="334.408163" y1="91.000000" y2="96.000000" stroke="#AAAAAA" /><text style="font-size:10px;font-family:OpenSans;fill:#000000;" text-anchor="middle" x="334.408163" y="106.000000">423</text><line x1="372.163265" x2="372.163265" y1="91.000000" y2="96.000000" stroke="#AAAAAA" /><text style="font-size:10px;font-family:OpenSans;fill:#000000;" text-anchor="middle" x="372.163265" y="106.000000">473</text><line x1="441.632653" x2="441.632653" y1="91.000000" y2="96.000000" stroke="#AAAAAA" /><text style="font-size:10px;font-family:OpenSans;fill:#000000;" text-anchor="middle" x="441.632653" y="106.000000">565</text><line x1="473.346939" x2="473.346939" y1="91.000000" y2="96.000000" stroke="#AAAAAA" /><text style="font-size:10px;font-family:OpenSans;fill:#000000;" text-anchor="middle" x="473.346939" y="106.000000">607</text><line x1="510.346939" x2="510.346939" y1="91.000000" y2="96.000000" stroke="#AAAAAA" /><text style="font-size:10px;font-family:OpenSans;fill:#000000;" text-anchor="middle" x="510.346939" y="106.000000">656</text><line x1="542.061224" x2="542.061224" y1="91.000000" y2="96.000000" stroke="#AAAAAA" /><text style="font-size:10px;font-family:OpenSans;fill:#000000;" text-anchor="middle" x="542.061224" y="106.000000">698</text><line x1="600.959184" x2="600.959184" y1="91.000000" y2="96.000000" stroke="#AAAAAA" /><text style="font-size:10px;font-family:OpenSans;fill:#000000;" text-anchor="middle" x="600.959184" y="106.000000">776</text><line x1="655.326531" x2="655.326531" y1="91.000000" y2="96.000000" stroke="#AAAAAA" /><text style="font-size:10px;font-family:OpenSans;fill:#000000;" text-anchor="middle" x="655.326531" y="106.000000">848</text><line x1="694.591837" x2="694.591837" y1="91.000000" y2="96.000000" stroke="#AAAAAA" /><text style="font-size:10px;font-family:OpenSans;fill:#000000;" text-anchor="middle" x="694.591837" y="106.000000">900</text></g>
<rect fill="#2DCF00" x="4" y="120.000000" width="12" height="12" filter="url(#ds)"/><text style="font-size:12px;font-family:OpenSans;fill:#000000;" text-anchor="start" x="20" y="132.000000">Rel homology DNA-binding domain</text><rect fill="#FF5353" x="4" y="134.000000" width="12" height="12" filter="url(#ds)"/><text style="font-size:12px;font-family:OpenSans;fill:#000000;" text-anchor="start" x="20" y="146.000000">Rel homology dimerisation domain</text><rect fill="#EBD61D" x="4" y="148.000000" width="12" height="12" filter="url(#ds)"/><text style="font-size:12px;font-family:OpenSans;fill:#000000;" text-anchor="start" x="20" y="160.000000">Ankyrin repeats (3 copies)</text><rect fill="#BA21E0" x="4" y="162.000000" width="12" height="12" filter="url(#ds)"/><text style="font-size:12px;font-family:OpenSans;fill:#000000;" text-anchor="start" x="20" y="174.000000">Death domain</text></svg>
