<?xml version='1.0'?>
<svg xmlns="http://www.w3.org/2000/svg" xmlns:xlink="http://www.w3.org/1999/xlink" width="1263.393939" height="158.700000">
<defs>
  <filter id="ds" x="0" y="0">
    <feOffset in="SourceAlpha" dx="2" dy="2" />
    <feComponentTransfer><feFuncA type="linear" slope="0.2"/></feComponentTransfer>
    <feGaussianBlur result="blurOut" stdDeviation="1" />
    <feBlend in="SourceGraphic" in2="blurOut" mode="normal" />
  </filter>
  <pattern id="disordered-hatch" patternUnits="userSpaceOnUse" width="4" height="4">
    <path d="M-1,1 l2,-2 M0,4 l4,-4 M3,5 l2,-2" stroke="#000000" opacity="0.3" />
  </pattern>
</defs>
<line x1="240.979798" x2="240.979798" y1="46.500000" y2="74.500000" stroke="#BABDB6" stroke-width="2"/><a xlink:title="T238T"><circle cx="240.979798" cy="46.500000" r="4.000000" fill="#0000ff" /></a><g transform="translate(240.979798,46.500000) rotate(-30)"><text style="font-size:10px;font-family:OpenSans;fill:#555;" text-anchor="middle" x="0" y="-6.000000">T238T</text></g><line x1="248.575758" x2="248.575758" y1="46.500000" y2="74.500000" stroke="#BABDB6" stroke-width="2"/><a xlink:title="T246T"><circle cx="248.575758" cy="46.500000" r="4.000000" fill="#0000ff" /></a><g transform="translate(248.575758,46.500000) rotate(-30)"><text style="font-size:10px;font-family:OpenSans;fill:#555;" text-anchor="middle" x="0" y="-6.000000">T246T</text></g><line x1="264.717172" x2="264.717172" y1="46.500000" y2="74.500000" stroke="#BABDB6" stroke-width="2"/><a xlink:title="T263T"><circle cx="264.717172" cy="46.500000" r="4.000000" fill="#0000ff" /></a><g transform="translate(264.717172,46.500000) rotate(-30)"><text style="font-size:10px;font-family:OpenSans;fill:#555;" text-anchor="middle" x="0" y="-6.000000">T263T</text></g><line x1="272.313131" x2="272.313131" y1="46.500000" y2="74.500000" stroke="#BABDB6" stroke-width="2"/><a xlink:title="T271T"><circle cx="272.313131" cy="46.500000" r="4.000000" fill="#0000ff" /></a><g transform="translate(272.313131,46.500000) rotate(-30)"><text style="font-size:10px;font-family:OpenSans;fill:#555;" text-anchor="middle" x="0" y="-6.000000">T271T</text></g><line x1="283.707071" x2="283.707071" y1="46.500000" y2="74.500000" stroke="#BABDB6" stroke-width="2"/><a xlink:title="T283S"><circle cx="283.707071" cy="46.500000" r="4.000000" fill="#ff0000" /></a><g transform="translate(283.707071,46.500000) rotate(-30)"><text style="font-size:10px;font-family:OpenSans;fill:#555;" text-anchor="middle" x="0" y="-6.000000">T283S</text></g><line x1="307.444444" x2="307.444444" y1="46.500000" y2="74.500000" stroke="#BABDB6" stroke-width="2"/><a xlink:title="T308S"><circle cx="307.444444" cy="46.500000" r="4.000000" fill="#ff0000" /></a><g transform="translate(307.444444,46.500000) rotate(-30)"><text style="font-size:10px;font-family:OpenSans;fill:#555;" text-anchor="middle" x="0" y="-6.000000">T308S</text></g><line x1="325.484848" x2="325.484848" y1="46.500000" y2="74.500000" stroke="#BABDB6" stroke-width="2"/><a xlink:title="K327K"><circle cx="325.484848" cy="46.500000" r="4.000000" fill="#0000ff" /></a><g transform="translate(325.484848,46.500000) rotate(-30)"><text style="font-size:10px;font-family:OpenSans;fill:#555;" text-anchor="middle" x="0" y="-6.000000">K327K</text></g><line x1="349.222222" x2="349.222222" y1="46.500000" y2="74.500000" stroke="#BABDB6" stroke-width="2"/><a xlink:title="K352K"><circle cx="349.222222" cy="46.500000" r="4.000000" fill="#0000ff" /></a><g transform="translate(349.222222,46.500000) rotate(-30)"><text style="font-size:10px;font-family:OpenSans;fill:#555;" text-anchor="middle" x="0" y="-6.000000">K352K</text></g><line x1="539.121212" x2="539.121212" y1="46.500000" y2="74.500000" stroke="#BABDB6" stroke-width="2"/><a xlink:title="G552G"><circle cx="539.121212" cy="46.500000" r="4.000000" fill="#0000ff" /></a><g transform="translate(539.121212,46.500000) rotate(-30)"><text style="font-size:10px;font-family:OpenSans;fill:#555;" text-anchor="middle" x="0" y="-6.000000">G552G</text></g><line x1="562.858586" x2="562.858586" y1="46.500000" y2="74.500000" stroke="#BABDB6" stroke-width="2"/><a xlink:title="G577G"><circle cx="562.858586" cy="46.500000" r="4.000000" fill="#0000ff" /></a><g transform="translate(562.858586,46.500000) rotate(-30)"><text style="font-size:10px;font-family:OpenSans;fill:#555;" text-anchor="middle" x="0" y="-6.000000">G577G</text></g><line x1="843.909091" x2="843.909091" y1="46.500000" y2="74.500000" stroke="#BABDB6" stroke-width="2"/><a xlink:title="G873E"><circle cx="843.909091" cy="46.500000" r="4.000000" fill="#ff0000" /></a><g transform="translate(843.909091,46.500000) rotate(-30)"><text style="font-size:10px;font-family:OpenSans;fill:#555;" text-anchor="middle" x="0" y="-6.000000">G873E</text></g><line x1="867.646465" x2="867.646465" y1="34.000000" y2="74.500000" stroke="#BABDB6" stroke-width="2"/><a xlink:title="G898E"><circle cx="867.646465" cy="34.000000" r="4.000000" fill="#ff0000" /></a><g transform="translate(867.646465,34.000000) rotate(-30)"><text style="font-size:10px;font-family:OpenSans;fill:#555;" text-anchor="middle" x="0" y="-6.000000">G898E</text></g><line x1="871.444444" x2="871.444444" y1="46.500000" y2="74.500000" stroke="#BABDB6" stroke-width="2"/><a xlink:title="P902R"><circle cx="871.444444" cy="46.500000" r="4.000000" fill="#ff0000" /></a><g transform="translate(871.444444,46.500000) rotate(-30)"><text style="font-size:10px;font-family:OpenSans;fill:#555;" text-anchor="middle" x="0" y="-6.000000">P902R</text></g><line x1="895.181818" x2="895.181818" y1="46.500000" y2="74.500000" stroke="#BABDB6" stroke-width="2"/><a xlink:title="P927R"><circle cx="895.181818" cy="46.500000" r="4.000000" fill="#ff0000" /></a><g transform="translate(895.181818,46.500000) rotate(-30)"><text style="font-size:10px;font-family:OpenSans;fill:#555;" text-anchor="middle" x="0" y="-6.000000">P927R</text></g><line x1="1001.525253" x2="1001.525253" y1="46.500000" y2="74.500000" stroke="#BABDB6" stroke-width="2"/><a xlink:title="T1039S"><circle cx="1001.525253" cy="46.500000" r="4.000000" fill="#ff0000" /></a><g transform="translate(1001.525253,46.500000) rotate(-30)"><text style="font-size:10px;font-family:OpenSans;fill:#555;" text-anchor="middle" x="0" y="-6.000000">T1039S</text></g><line x1="1025.262626" x2="1025.262626" y1="46.500000" y2="74.500000" stroke="#BABDB6" stroke-width="2"/><a xlink:title="T1064S"><circle cx="1025.262626" cy="46.500000" r="4.000000" fill="#ff0000" /></a><g transform="translate(1025.262626,46.500000) rotate(-30)"><text style="font-size:10px;font-family:OpenSans;fill:#555;" text-anchor="middle" x="0" y="-6.000000">T1064S</text></g><a xlink:title=",  (1299aa)"><rect fill="#BABDB6" x="15.000000" y="74.500000" width="1233.393939" height="14.000000"/></a><g transform="translate(374.858586,69.500000)"><a xlink:href="https://www.ebi.ac.uk/interpro/entry/pfam/PF14465" xlink:title="NFRKB Winged Helix-like"><rect fill="#2DCF00" x="0" y="0" width="94.000000" height="24.000000" filter="url(#ds)"/><text style="font-size:12px;font-family:OpenSans;fill:#ffffff;" text-anchor="middle" x="47.000000" y="16.000000">NFRKB_winged</text></a></g>
<g class="axis">
<line x1="15.000000" x2="1248.393939" y1="103.500000" y2="103.500000" stroke="#AAAAAA" /><line x1="15.000000" x2="15.000000" y1="103.500000" y2="108.500000" stroke="#AAAAAA" /><line x1="15.000000" x2="15.000000" y1="103.500000" y2="108.500000" stroke="#AAAAAA" /><text style="font-size:10px;font-family:OpenSans;fill:#000000;" text-anchor="middle" x="15.000000" y="118.500000">0</text><line x1="240.979798" x2="240.979798" y1="103.500000" y2="108.500000" stroke="#AAAAAA" /><text style="font-size:10px;font-family:OpenSans;fill:#000000;" text-anchor="middle" x="240.979798" y="118.500000">238</text><line x1="264.717172" x2="264.717172" y1="103.500000" y2="108.500000" stroke="#AAAAAA" /><text style="font-size:10px;font-family:OpenSans;fill:#000000;" text-anchor="middle" x="264.717172" y="118.500000">263</text><line x1="307.444444" x2="307.444444" y1="103.500000" y2="108.500000" stroke="#AAAAAA" /><text style="font-size:10px;font-family:OpenSans;fill:#000000;" text-anchor="middle" x="307.444444" y="118.500000">308</text><line x1="349.222222" x2="349.222222" y1="103.500000" y2="108.500000" stroke="#AAAAAA" /><text style="font-size:10px;font-family:OpenSans;fill:#000000;" text-anchor="middle" x="349.222222" y="118.500000">352</text><line x1="374.858586" x2="374.858586" y1="103.500000" y2="108.500000" stroke="#AAAAAA" /><text style="font-size:10px;font-family:OpenSans;fill:#000000;" text-anchor="middle" x="374.858586" y="118.500000">379</text><line x1="468.858586" x2="468.858586" y1="103.500000" y2="108.500000" stroke="#AAAAAA" /><text style="font-size:10px;font-family:OpenSans;fill:#000000;" text-anchor="middle" x="468.858586" y="118.500000">478</text><line x1="539.121212" x2="539.121212" y1="103.500000" y2="108.500000" stroke="#AAAAAA" /><text style="font-size:10px;font-family:OpenSans;fill:#000000;" text-anchor="middle" x="539.121212" y="118.500000">552</text><line x1="562.858586" x2="562.858586" y1="103.500000" y2="108.500000" stroke="#AAAAAA" /><text style="font-size:10px;font-family:OpenSans;fill:#000000;" text-anchor="middle" x="562.858586" y="118.500000">577</text><line x1="843.909091" x2="843.909091" y1="103.500000" y2="108.500000" stroke="#AAAAAA" /><text style="font-size:10px;font-family:OpenSans;fill:#000000;" text-anchor="middle" x="843.909091" y="118.500000">873</text><line x1="867.646465" x2="867.646465" y1="103.500000" y2="108.500000" stroke="#AAAAAA" /><text style="font-size:10px;font-family:OpenSans;fill:#000000;" text-anchor="middle" x="867.646465" y="118.500000">898</text><line x1="895.181818" x2="895.181818" y1="103.500000" y2="108.500000" stroke="#AAAAAA" /><text style="font-size:10px;font-family:OpenSans;fill:#000000;" text-anchor="middle" x="895.181818" y="118.500000">927</text><line x1="1001.525253" x2="1001.525253" y1="103.500000" y2="108.500000" stroke="#AAAAAA" /><text style="font-size:10px;font-family:OpenSans;fill:#000000;" text-anchor="middle" x="1001.525253" y="118.500000">1039</text><line x1="1025.262626" x2="1025.262626" y1="103.500000" y2="108.500000" stroke="#AAAAAA" /><text style="font-size:10px;font-family:OpenSans;fill:#000000;" text-anchor="middle" x="1025.262626" y="118.500000">1064</text><line x1="1248.393939" x2="1248.393939" y1="103.500000" y2="108.500000" stroke="#AAAAAA" /><text style="font-size:10px;font-family:OpenSans;fill:#000000;" text-anchor="middle" x="1248.393939" y="118.500000">1299</text></g>
<rect fill="#2DCF00" x="4" y="132.500000" width="12" height="12" filter="url(#ds)"/><text style="font-size:12px;font-family:OpenSans;fill:#000000;" text-anchor="start" x="20" y="144.500000">NFRKB Winged Helix-like</text></svg>
