<?xml version='1.0'?>
<svg xmlns="http://www.w3.org/2000/svg" xmlns:xlink="http://www.w3.org/1999/xlink" width="1202.134831" height="235.800000">
<defs>
  <filter id="ds" x="0" y="0">
    <feOffset in="SourceAlpha" dx="2" dy="2" />
    <feComponentTransfer><feFuncA type="linear" slope="0.2"/></feComponentTransfer>
    <feGaussianBlur result="blurOut" stdDeviation="1" />
    <feBlend in="SourceGraphic" in2="blurOut" mode="normal" />
  </filter>
  <pattern id="disordered-hatch" patternUnits="userSpaceOnUse" width="4" height="4">
    <path d="M-1,1 l2,-2 M0,4 l4,-4 M3,5 l2,-2" stroke="#000000" opacity="0.3" />
  </pattern>
</defs>
<line x1="672.977528" x2="672.977528" y1="84.000000" y2="112.000000" stroke="#BABDB6" stroke-width="2"/><a xlink:title="A732A"><circle cx="672.977528" cy="84.000000" r="4.000000" fill="#0000ff" /></a><g transform="translate(672.977528,84.000000) rotate(-30)"><text style="font-size:10px;font-family:OpenSans;fill:#555;" text-anchor="middle" x="0" y="-6.000000">A732A</text></g><line x1="855.449438" x2="855.449438" y1="71.500000" y2="112.000000" stroke="#BABDB6" stroke-width="2"/><a xlink:title="A935A"><circle cx="855.449438" cy="71.500000" r="4.000000" fill="#0000ff" /></a><g transform="translate(855.449438,71.500000) rotate(-30)"><text style="font-size:10px;font-family:OpenSans;fill:#555;" text-anchor="middle" x="0" y="-6.000000">A935A</text></g><line x1="859.044944" x2="859.044944" y1="71.500000" y2="112.000000" stroke="#BABDB6" stroke-width="2"/><a xlink:title="A939A"><circle cx="859.044944" cy="71.500000" r="4.000000" fill="#0000ff" /></a><g transform="translate(859.044944,71.500000) rotate(-30)"><text style="font-size:10px;font-family:OpenSans;fill:#555;" text-anchor="middle" x="0" y="-6.000000">A939A</text></g><line x1="864.438202" x2="864.438202" y1="71.500000" y2="112.000000" stroke="#BABDB6" stroke-width="2"/><a xlink:title="A945A"><circle cx="864.438202" cy="71.500000" r="4.000000" fill="#0000ff" /></a><g transform="translate(864.438202,71.500000) rotate(-30)"><text style="font-size:10px;font-family:OpenSans;fill:#555;" text-anchor="middle" x="0" y="-6.000000">A945A</text></g><line x1="867.134831" x2="867.134831" y1="84.000000" y2="112.000000" stroke="#BABDB6" stroke-width="2"/><a xlink:title="A948A"><circle cx="867.134831" cy="84.000000" r="4.000000" fill="#0000ff" /></a><g transform="translate(867.134831,84.000000) rotate(-30)"><text style="font-size:10px;font-family:OpenSans;fill:#555;" text-anchor="middle" x="0" y="-6.000000">A948A</text></g><line x1="889.606742" x2="889.606742" y1="84.000000" y2="112.000000" stroke="#BABDB6" stroke-width="2"/><a xlink:title="T973T"><circle cx="889.606742" cy="84.000000" r="4.000000" fill="#0000ff" /></a><g transform="translate(889.606742,84.000000) rotate(-30)"><text style="font-size:10px;font-family:OpenSans;fill:#555;" text-anchor="middle" x="0" y="-6.000000">T973T</text></g><line x1="928.258427" x2="928.258427" y1="59.000000" y2="112.000000" stroke="#BABDB6" stroke-width="2"/><a xlink:title="A1016A"><circle cx="928.258427" cy="59.000000" r="4.000000" fill="#0000ff" /></a><g transform="translate(928.258427,59.000000) rotate(-30)"><text style="font-size:10px;font-family:OpenSans;fill:#555;" text-anchor="middle" x="0" y="-6.000000">A1016A</text></g><line x1="930.955056" x2="930.955056" y1="59.000000" y2="112.000000" stroke="#BABDB6" stroke-width="2"/><a xlink:title="A1019A"><circle cx="930.955056" cy="59.000000" r="4.000000" fill="#0000ff" /></a><g transform="translate(930.955056,59.000000) rotate(-30)"><text style="font-size:10px;font-family:OpenSans;fill:#555;" text-anchor="middle" x="0" y="-6.000000">A1019A</text></g><line x1="933.651685" x2="933.651685" y1="46.500000" y2="112.000000" stroke="#BABDB6" stroke-width="2"/><a xlink:title="A1022A"><circle cx="933.651685" cy="46.500000" r="4.000000" fill="#0000ff" /></a><g transform="translate(933.651685,46.500000) rotate(-30)"><text style="font-size:10px;font-family:OpenSans;fill:#555;" text-anchor="middle" x="0" y="-6.000000">A1022A</text></g><line x1="936.348315" x2="936.348315" y1="59.000000" y2="112.000000" stroke="#BABDB6" stroke-width="2"/><a xlink:title="A1025A"><circle cx="936.348315" cy="59.000000" r="4.000000" fill="#0000ff" /></a><g transform="translate(936.348315,59.000000) rotate(-30)"><text style="font-size:10px;font-family:OpenSans;fill:#555;" text-anchor="middle" x="0" y="-6.000000">A1025A</text></g><line x1="937.247191" x2="937.247191" y1="59.000000" y2="112.000000" stroke="#BABDB6" stroke-width="2"/><a xlink:title="A1026A"><circle cx="937.247191" cy="59.000000" r="4.000000" fill="#0000ff" /></a><g transform="translate(937.247191,59.000000) rotate(-30)"><text style="font-size:10px;font-family:OpenSans;fill:#555;" text-anchor="middle" x="0" y="-6.000000">A1026A</text></g><line x1="939.044944" x2="939.044944" y1="59.000000" y2="112.000000" stroke="#BABDB6" stroke-width="2"/><a xlink:title="A1028A"><circle cx="939.044944" cy="59.000000" r="4.000000" fill="#0000ff" /></a><g transform="translate(939.044944,59.000000) rotate(-30)"><text style="font-size:10px;font-family:OpenSans;fill:#555;" text-anchor="middle" x="0" y="-6.000000">A1028A</text></g><line x1="942.640449" x2="942.640449" y1="34.000000" y2="112.000000" stroke="#BABDB6" stroke-width="2"/><a xlink:title="A1032A"><circle cx="942.640449" cy="34.000000" r="4.000000" fill="#0000ff" /></a><g transform="translate(942.640449,34.000000) rotate(-30)"><text style="font-size:10px;font-family:OpenSans;fill:#555;" text-anchor="middle" x="0" y="-6.000000">A1032A</text></g><line x1="944.438202" x2="944.438202" y1="46.500000" y2="112.000000" stroke="#BABDB6" stroke-width="2"/><a xlink:title="A1034A"><circle cx="944.438202" cy="46.500000" r="4.000000" fill="#0000ff" /></a><g transform="translate(944.438202,46.500000) rotate(-30)"><text style="font-size:10px;font-family:OpenSans;fill:#555;" text-anchor="middle" x="0" y="-6.000000">A1034A</text></g><line x1="945.337079" x2="945.337079" y1="46.500000" y2="112.000000" stroke="#BABDB6" stroke-width="2"/><a xlink:title="A1035A"><circle cx="945.337079" cy="46.500000" r="4.000000" fill="#0000ff" /></a><g transform="translate(945.337079,46.500000) rotate(-30)"><text style="font-size:10px;font-family:OpenSans;fill:#555;" text-anchor="middle" x="0" y="-6.000000">A1035A</text></g><line x1="946.235955" x2="946.235955" y1="59.000000" y2="112.000000" stroke="#BABDB6" stroke-width="2"/><a xlink:title="A1036A"><circle cx="946.235955" cy="59.000000" r="4.000000" fill="#0000ff" /></a><g transform="translate(946.235955,59.000000) rotate(-30)"><text style="font-size:10px;font-family:OpenSans;fill:#555;" text-anchor="middle" x="0" y="-6.000000">A1036A</text></g><line x1="948.033708" x2="948.033708" y1="59.000000" y2="112.000000" stroke="#BABDB6" stroke-width="2"/><a xlink:title="A1038A"><circle cx="948.033708" cy="59.000000" r="4.000000" fill="#0000ff" /></a><g transform="translate(948.033708,59.000000) rotate(-30)"><text style="font-size:10px;font-family:OpenSans;fill:#555;" text-anchor="middle" x="0" y="-6.000000">A1038A</text></g><line x1="950.730337" x2="950.730337" y1="46.500000" y2="112.000000" stroke="#BABDB6" stroke-width="2"/><a xlink:title="A1041A"><circle cx="950.730337" cy="46.500000" r="4.000000" fill="#0000ff" /></a><g transform="translate(950.730337,46.500000) rotate(-30)"><text style="font-size:10px;font-family:OpenSans;fill:#555;" text-anchor="middle" x="0" y="-6.000000">A1041A</text></g><line x1="953.426966" x2="953.426966" y1="59.000000" y2="112.000000" stroke="#BABDB6" stroke-width="2"/><a xlink:title="A1044A"><circle cx="953.426966" cy="59.000000" r="4.000000" fill="#0000ff" /></a><g transform="translate(953.426966,59.000000) rotate(-30)"><text style="font-size:10px;font-family:OpenSans;fill:#555;" text-anchor="middle" x="0" y="-6.000000">A1044A</text></g><line x1="954.325843" x2="954.325843" y1="59.000000" y2="112.000000" stroke="#BABDB6" stroke-width="2"/><a xlink:title="A1045A"><circle cx="954.325843" cy="59.000000" r="4.000000" fill="#0000ff" /></a><g transform="translate(954.325843,59.000000) rotate(-30)"><text style="font-size:10px;font-family:OpenSans;fill:#555;" text-anchor="middle" x="0" y="-6.000000">A1045A</text></g><line x1="956.123596" x2="956.123596" y1="59.000000" y2="112.000000" stroke="#BABDB6" stroke-width="2"/><a xlink:title="A1047A"><circle cx="956.123596" cy="59.000000" r="4.000000" fill="#0000ff" /></a><g transform="translate(956.123596,59.000000) rotate(-30)"><text style="font-size:10px;font-family:OpenSans;fill:#555;" text-anchor="middle" x="0" y="-6.000000">A1047A</text></g><line x1="959.719101" x2="959.719101" y1="46.500000" y2="112.000000" stroke="#BABDB6" stroke-width="2"/><a xlink:title="A1051A"><circle cx="959.719101" cy="46.500000" r="4.000000" fill="#0000ff" /></a><g transform="translate(959.719101,46.500000) rotate(-30)"><text style="font-size:10px;font-family:OpenSans;fill:#555;" text-anchor="middle" x="0" y="-6.000000">A1051A</text></g><line x1="961.516854" x2="961.516854" y1="59.000000" y2="112.000000" stroke="#BABDB6" stroke-width="2"/><a xlink:title="A1053A"><circle cx="961.516854" cy="59.000000" r="4.000000" fill="#0000ff" /></a><g transform="translate(961.516854,59.000000) rotate(-30)"><text style="font-size:10px;font-family:OpenSans;fill:#555;" text-anchor="middle" x="0" y="-6.000000">A1053A</text></g><line x1="962.415730" x2="962.415730" y1="71.500000" y2="112.000000" stroke="#BABDB6" stroke-width="2"/><a xlink:title="A1054A"><circle cx="962.415730" cy="71.500000" r="4.000000" fill="#0000ff" /></a><g transform="translate(962.415730,71.500000) rotate(-30)"><text style="font-size:10px;font-family:OpenSans;fill:#555;" text-anchor="middle" x="0" y="-6.000000">A1054A</text></g><line x1="963.314607" x2="963.314607" y1="84.000000" y2="112.000000" stroke="#BABDB6" stroke-width="2"/><a xlink:title="A1055A"><circle cx="963.314607" cy="84.000000" r="4.000000" fill="#0000ff" /></a><g transform="translate(963.314607,84.000000) rotate(-30)"><text style="font-size:10px;font-family:OpenSans;fill:#555;" text-anchor="middle" x="0" y="-6.000000">A1055A</text></g><line x1="969.606742" x2="969.606742" y1="59.000000" y2="112.000000" stroke="#BABDB6" stroke-width="2"/><a xlink:title="A1062A"><circle cx="969.606742" cy="59.000000" r="4.000000" fill="#0000ff" /></a><g transform="translate(969.606742,59.000000) rotate(-30)"><text style="font-size:10px;font-family:OpenSans;fill:#555;" text-anchor="middle" x="0" y="-6.000000">A1062A</text></g><line x1="970.505618" x2="970.505618" y1="71.500000" y2="112.000000" stroke="#BABDB6" stroke-width="2"/><a xlink:title="A1063A"><circle cx="970.505618" cy="71.500000" r="4.000000" fill="#0000ff" /></a><g transform="translate(970.505618,71.500000) rotate(-30)"><text style="font-size:10px;font-family:OpenSans;fill:#555;" text-anchor="middle" x="0" y="-6.000000">A1063A</text></g><line x1="973.202247" x2="973.202247" y1="84.000000" y2="112.000000" stroke="#BABDB6" stroke-width="2"/><a xlink:title="A1066A"><circle cx="973.202247" cy="84.000000" r="4.000000" fill="#0000ff" /></a><g transform="translate(973.202247,84.000000) rotate(-30)"><text style="font-size:10px;font-family:OpenSans;fill:#555;" text-anchor="middle" x="0" y="-6.000000">A1066A</text></g><line x1="980.393258" x2="980.393258" y1="71.500000" y2="112.000000" stroke="#BABDB6" stroke-width="2"/><a xlink:title="T1074T"><circle cx="980.393258" cy="71.500000" r="4.000000" fill="#0000ff" /></a><g transform="translate(980.393258,71.500000) rotate(-30)"><text style="font-size:10px;font-family:OpenSans;fill:#555;" text-anchor="middle" x="0" y="-6.000000">T1074T</text></g><line x1="983.089888" x2="983.089888" y1="84.000000" y2="112.000000" stroke="#BABDB6" stroke-width="2"/><a xlink:title="T1077T"><circle cx="983.089888" cy="84.000000" r="4.000000" fill="#0000ff" /></a><g transform="translate(983.089888,84.000000) rotate(-30)"><text style="font-size:10px;font-family:OpenSans;fill:#555;" text-anchor="middle" x="0" y="-6.000000">T1077T</text></g><line x1="991.179775" x2="991.179775" y1="84.000000" y2="112.000000" stroke="#BABDB6" stroke-width="2"/><a xlink:title="T1086T"><circle cx="991.179775" cy="84.000000" r="4.000000" fill="#0000ff" /></a><g transform="translate(991.179775,84.000000) rotate(-30)"><text style="font-size:10px;font-family:OpenSans;fill:#555;" text-anchor="middle" x="0" y="-6.000000">T1086T</text></g><line x1="999.269663" x2="999.269663" y1="84.000000" y2="112.000000" stroke="#BABDB6" stroke-width="2"/><a xlink:title="A1095A"><circle cx="999.269663" cy="84.000000" r="4.000000" fill="#0000ff" /></a><g transform="translate(999.269663,84.000000) rotate(-30)"><text style="font-size:10px;font-family:OpenSans;fill:#555;" text-anchor="middle" x="0" y="-6.000000">A1095A</text></g><line x1="1005.561798" x2="1005.561798" y1="84.000000" y2="112.000000" stroke="#BABDB6" stroke-width="2"/><a xlink:title="A1102A"><circle cx="1005.561798" cy="84.000000" r="4.000000" fill="#0000ff" /></a><g transform="translate(1005.561798,84.000000) rotate(-30)"><text style="font-size:10px;font-family:OpenSans;fill:#555;" text-anchor="middle" x="0" y="-6.000000">A1102A</text></g><line x1="1026.235955" x2="1026.235955" y1="71.500000" y2="112.000000" stroke="#BABDB6" stroke-width="2"/><a xlink:title="A1125A"><circle cx="1026.235955" cy="71.500000" r="4.000000" fill="#0000ff" /></a><g transform="translate(1026.235955,71.500000) rotate(-30)"><text style="font-size:10px;font-family:OpenSans;fill:#555;" text-anchor="middle" x="0" y="-6.000000">A1125A</text></g><line x1="1030.730337" x2="1030.730337" y1="71.500000" y2="112.000000" stroke="#BABDB6" stroke-width="2"/><a xlink:title="A1130A"><circle cx="1030.730337" cy="71.500000" r="4.000000" fill="#0000ff" /></a><g transform="translate(1030.730337,71.500000) rotate(-30)"><text style="font-size:10px;font-family:OpenSans;fill:#555;" text-anchor="middle" x="0" y="-6.000000">A1130A</text></g><line x1="1034.325843" x2="1034.325843" y1="59.000000" y2="112.000000" stroke="#BABDB6" stroke-width="2"/><a xlink:title="A1134A"><circle cx="1034.325843" cy="59.000000" r="4.000000" fill="#0000ff" /></a><g transform="translate(1034.325843,59.000000) rotate(-30)"><text style="font-size:10px;font-family:OpenSans;fill:#555;" text-anchor="middle" x="0" y="-6.000000">A1134A</text></g><line x1="1037.022472" x2="1037.022472" y1="59.000000" y2="112.000000" stroke="#BABDB6" stroke-width="2"/><a xlink:title="A1137A"><circle cx="1037.022472" cy="59.000000" r="4.000000" fill="#0000ff" /></a><g transform="translate(1037.022472,59.000000) rotate(-30)"><text style="font-size:10px;font-family:OpenSans;fill:#555;" text-anchor="middle" x="0" y="-6.000000">A1137A</text></g><line x1="1039.719101" x2="1039.719101" y1="46.500000" y2="112.000000" stroke="#BABDB6" stroke-width="2"/><a xlink:title="A1140A"><circle cx="1039.719101" cy="46.500000" r="4.000000" fill="#0000ff" /></a><g transform="translate(1039.719101,46.500000) rotate(-30)"><text style="font-size:10px;font-family:OpenSans;fill:#555;" text-anchor="middle" x="0" y="-6.000000">A1140A</text></g><line x1="1042.415730" x2="1042.415730" y1="46.500000" y2="112.000000" stroke="#BABDB6" stroke-width="2"/><a xlink:title="A1143A"><circle cx="1042.415730" cy="46.500000" r="4.000000" fill="#0000ff" /></a><g transform="translate(1042.415730,46.500000) rotate(-30)"><text style="font-size:10px;font-family:OpenSans;fill:#555;" text-anchor="middle" x="0" y="-6.000000">A1143A</text></g><line x1="1043.314607" x2="1043.314607" y1="59.000000" y2="112.000000" stroke="#BABDB6" stroke-width="2"/><a xlink:title="A1144A"><circle cx="1043.314607" cy="59.000000" r="4.000000" fill="#0000ff" /></a><g transform="translate(1043.314607,59.000000) rotate(-30)"><text style="font-size:10px;font-family:OpenSans;fill:#555;" text-anchor="middle" x="0" y="-6.000000">A1144A</text></g><line x1="1045.112360" x2="1045.112360" y1="71.500000" y2="112.000000" stroke="#BABDB6" stroke-width="2"/><a xlink:title="A1146A"><circle cx="1045.112360" cy="71.500000" r="4.000000" fill="#0000ff" /></a><g transform="translate(1045.112360,71.500000) rotate(-30)"><text style="font-size:10px;font-family:OpenSans;fill:#555;" text-anchor="middle" x="0" y="-6.000000">A1146A</text></g><line x1="1047.808989" x2="1047.808989" y1="71.500000" y2="112.000000" stroke="#BABDB6" stroke-width="2"/><a xlink:title="A1149A"><circle cx="1047.808989" cy="71.500000" r="4.000000" fill="#0000ff" /></a><g transform="translate(1047.808989,71.500000) rotate(-30)"><text style="font-size:10px;font-family:OpenSans;fill:#555;" text-anchor="middle" x="0" y="-6.000000">A1149A</text></g><line x1="1051.404494" x2="1051.404494" y1="59.000000" y2="112.000000" stroke="#BABDB6" stroke-width="2"/><a xlink:title="A1153A"><circle cx="1051.404494" cy="59.000000" r="4.000000" fill="#0000ff" /></a><g transform="translate(1051.404494,59.000000) rotate(-30)"><text style="font-size:10px;font-family:OpenSans;fill:#555;" text-anchor="middle" x="0" y="-6.000000">A1153A</text></g><line x1="1054.101124" x2="1054.101124" y1="71.500000" y2="112.000000" stroke="#BABDB6" stroke-width="2"/><a xlink:title="A1156A"><circle cx="1054.101124" cy="71.500000" r="4.000000" fill="#0000ff" /></a><g transform="translate(1054.101124,71.500000) rotate(-30)"><text style="font-size:10px;font-family:OpenSans;fill:#555;" text-anchor="middle" x="0" y="-6.000000">A1156A</text></g><line x1="1056.797753" x2="1056.797753" y1="84.000000" y2="112.000000" stroke="#BABDB6" stroke-width="2"/><a xlink:title="A1159A"><circle cx="1056.797753" cy="84.000000" r="4.000000" fill="#0000ff" /></a><g transform="translate(1056.797753,84.000000) rotate(-30)"><text style="font-size:10px;font-family:OpenSans;fill:#555;" text-anchor="middle" x="0" y="-6.000000">A1159A</text></g><a xlink:title=",  (1304aa)"><rect fill="#BABDB6" x="15.000000" y="112.000000" width="1172.134831" height="14.000000"/></a><g transform="translate(55.449438,107.000000)"><a xlink:href="https://www.ebi.ac.uk/interpro/entry/pfam/PF13927" xlink:title="Immunoglobulin domain"><rect fill="#2DCF00" x="0" y="0" width="73.707865" height="24.000000" filter="url(#ds)"/><text style="font-size:12px;font-family:OpenSans;fill:#ffffff;" text-anchor="middle" x="36.853933" y="16.000000">Ig_3</text></a></g>
<g transform="translate(264.887640,107.000000)"><a xlink:href="https://www.ebi.ac.uk/interpro/entry/pfam/PF13927" xlink:title="Immunoglobulin domain"><rect fill="#FF5353" x="0" y="0" width="59.325843" height="24.000000" filter="url(#ds)"/><text style="font-size:12px;font-family:OpenSans;fill:#ffffff;" text-anchor="middle" x="29.662921" y="16.000000">Ig_3</text></a></g>
<g transform="translate(343.089888,107.000000)"><a xlink:href="https://www.ebi.ac.uk/interpro/entry/pfam/PF13927" xlink:title="Immunoglobulin domain"><rect fill="#5B5BFF" x="0" y="0" width="63.820225" height="24.000000" filter="url(#ds)"/><text style="font-size:12px;font-family:OpenSans;fill:#ffffff;" text-anchor="middle" x="31.910112" y="16.000000">Ig_3</text></a></g>
<g transform="translate(432.977528,107.000000)"><a xlink:href="https://www.ebi.ac.uk/interpro/entry/pfam/PF07679" xlink:title="Immunoglobulin I-set domain"><rect fill="#EBD61D" x="0" y="0" width="69.213483" height="24.000000" filter="url(#ds)"/><text style="font-size:12px;font-family:OpenSans;fill:#ffffff;" text-anchor="middle" x="34.606742" y="16.000000">I-set</text></a></g>
<g transform="translate(507.584270,107.000000)"><a xlink:href="https://www.ebi.ac.uk/interpro/entry/pfam/PF07679" xlink:title="Immunoglobulin I-set domain"><rect fill="#BA21E0" x="0" y="0" width="76.404494" height="24.000000" filter="url(#ds)"/><text style="font-size:12px;font-family:OpenSans;fill:#ffffff;" text-anchor="middle" x="38.202247" y="16.000000">I-set</text></a></g>
<g transform="translate(598.370787,107.000000)"><a xlink:href="https://www.ebi.ac.uk/interpro/entry/pfam/PF00041" xlink:title="Fibronectin type III domain"><rect fill="#FF9C42" x="0" y="0" width="79.101124" height="24.000000" filter="url(#ds)"/><text style="font-size:12px;font-family:OpenSans;fill:#ffffff;" text-anchor="middle" x="39.550562" y="16.000000">fn3</text></a></g>
<g transform="translate(689.157303,107.000000)"><a xlink:href="https://www.ebi.ac.uk/interpro/entry/pfam/PF00041" xlink:title="Fibronectin type III domain"><rect fill="#FF7DFF" x="0" y="0" width="73.707865" height="24.000000" filter="url(#ds)"/><text style="font-size:12px;font-family:OpenSans;fill:#ffffff;" text-anchor="middle" x="36.853933" y="16.000000">fn3</text></a></g>
<g transform="translate(777.247191,107.000000)"><a xlink:href="https://www.ebi.ac.uk/interpro/entry/pfam/PF00041" xlink:title="Fibronectin type III domain"><rect fill="#B9264F" x="0" y="0" width="83.595506" height="24.000000" filter="url(#ds)"/><text style="font-size:12px;font-family:OpenSans;fill:#ffffff;" text-anchor="middle" x="41.797753" y="16.000000">fn3</text></a></g>
<g transform="translate(871.629213,107.000000)"><a xlink:href="https://www.ebi.ac.uk/interpro/entry/pfam/PF00041" xlink:title="Fibronectin type III domain"><rect fill="#BABA21" x="0" y="0" width="80.898876" height="24.000000" filter="url(#ds)"/><text style="font-size:12px;font-family:OpenSans;fill:#ffffff;" text-anchor="middle" x="40.449438" y="16.000000">fn3</text></a></g>
<g transform="translate(1085.561798,107.000000)"><a xlink:href="https://www.ebi.ac.uk/interpro/entry/pfam/PF13882" xlink:title="Bravo-like intracellular region"><rect fill="#C48484" x="0" y="0" width="80.000000" height="24.000000" filter="url(#ds)"/><text style="font-size:12px;font-family:OpenSans;fill:#ffffff;" text-anchor="middle" x="40.000000" y="16.000000">Bravo_FIGEY</text></a></g>
<g class="axis">
<line x1="15.000000" x2="1187.134831" y1="141.000000" y2="141.000000" stroke="#AAAAAA" /><line x1="15.000000" x2="15.000000" y1="141.000000" y2="146.000000" stroke="#AAAAAA" /><line x1="15.000000" x2="15.000000" y1="141.000000" y2="146.000000" stroke="#AAAAAA" /><text style="font-size:10px;font-family:OpenSans;fill:#000000;" text-anchor="middle" x="15.000000" y="156.000000">0</text><line x1="55.449438" x2="55.449438" y1="141.000000" y2="146.000000" stroke="#AAAAAA" /><text style="font-size:10px;font-family:OpenSans;fill:#000000;" text-anchor="middle" x="55.449438" y="156.000000">45</text><line x1="129.157303" x2="129.157303" y1="141.000000" y2="146.000000" stroke="#AAAAAA" /><text style="font-size:10px;font-family:OpenSans;fill:#000000;" text-anchor="middle" x="129.157303" y="156.000000">127</text><line x1="264.887640" x2="264.887640" y1="141.000000" y2="146.000000" stroke="#AAAAAA" /><text style="font-size:10px;font-family:OpenSans;fill:#000000;" text-anchor="middle" x="264.887640" y="156.000000">278</text><line x1="324.213483" x2="324.213483" y1="141.000000" y2="146.000000" stroke="#AAAAAA" /><text style="font-size:10px;font-family:OpenSans;fill:#000000;" text-anchor="middle" x="324.213483" y="156.000000">344</text><line x1="406.910112" x2="406.910112" y1="141.000000" y2="146.000000" stroke="#AAAAAA" /><text style="font-size:10px;font-family:OpenSans;fill:#000000;" text-anchor="middle" x="406.910112" y="156.000000">436</text><line x1="432.977528" x2="432.977528" y1="141.000000" y2="146.000000" stroke="#AAAAAA" /><text style="font-size:10px;font-family:OpenSans;fill:#000000;" text-anchor="middle" x="432.977528" y="156.000000">465</text><line x1="502.191011" x2="502.191011" y1="141.000000" y2="146.000000" stroke="#AAAAAA" /><text style="font-size:10px;font-family:OpenSans;fill:#000000;" text-anchor="middle" x="502.191011" y="156.000000">542</text><line x1="583.988764" x2="583.988764" y1="141.000000" y2="146.000000" stroke="#AAAAAA" /><text style="font-size:10px;font-family:OpenSans;fill:#000000;" text-anchor="middle" x="583.988764" y="156.000000">633</text><line x1="672.977528" x2="672.977528" y1="141.000000" y2="146.000000" stroke="#AAAAAA" /><text style="font-size:10px;font-family:OpenSans;fill:#000000;" text-anchor="middle" x="672.977528" y="156.000000">732</text><line x1="762.865169" x2="762.865169" y1="141.000000" y2="146.000000" stroke="#AAAAAA" /><text style="font-size:10px;font-family:OpenSans;fill:#000000;" text-anchor="middle" x="762.865169" y="156.000000">832</text><line x1="855.449438" x2="855.449438" y1="141.000000" y2="146.000000" stroke="#AAAAAA" /><text style="font-size:10px;font-family:OpenSans;fill:#000000;" text-anchor="middle" x="855.449438" y="156.000000">935</text><line x1="889.606742" x2="889.606742" y1="141.000000" y2="146.000000" stroke="#AAAAAA" /><text style="font-size:10px;font-family:OpenSans;fill:#000000;" text-anchor="middle" x="889.606742" y="156.000000">973</text><line x1="928.258427" x2="928.258427" y1="141.000000" y2="146.000000" stroke="#AAAAAA" /><text style="font-size:10px;font-family:OpenSans;fill:#000000;" text-anchor="middle" x="928.258427" y="156.000000">1016</text><line x1="948.033708" x2="948.033708" y1="141.000000" y2="146.000000" stroke="#AAAAAA" /><text style="font-size:10px;font-family:OpenSans;fill:#000000;" text-anchor="middle" x="948.033708" y="156.000000">1038</text><line x1="969.606742" x2="969.606742" y1="141.000000" y2="146.000000" stroke="#AAAAAA" /><text style="font-size:10px;font-family:OpenSans;fill:#000000;" text-anchor="middle" x="969.606742" y="156.000000">1062</text><line x1="991.179775" x2="991.179775" y1="141.000000" y2="146.000000" stroke="#AAAAAA" /><text style="font-size:10px;font-family:OpenSans;fill:#000000;" text-anchor="middle" x="991.179775" y="156.000000">1086</text><line x1="1026.235955" x2="1026.235955" y1="141.000000" y2="146.000000" stroke="#AAAAAA" /><text style="font-size:10px;font-family:OpenSans;fill:#000000;" text-anchor="middle" x="1026.235955" y="156.000000">1125</text><line x1="1047.808989" x2="1047.808989" y1="141.000000" y2="146.000000" stroke="#AAAAAA" /><text style="font-size:10px;font-family:OpenSans;fill:#000000;" text-anchor="middle" x="1047.808989" y="156.000000">1149</text><line x1="1085.561798" x2="1085.561798" y1="141.000000" y2="146.000000" stroke="#AAAAAA" /><text style="font-size:10px;font-family:OpenSans;fill:#000000;" text-anchor="middle" x="1085.561798" y="156.000000">1191</text><line x1="1165.561798" x2="1165.561798" y1="141.000000" y2="146.000000" stroke="#AAAAAA" /><text style="font-size:10px;font-family:OpenSans;fill:#000000;" text-anchor="middle" x="1165.561798" y="156.000000">1280</text><line x1="1187.134831" x2="1187.134831" y1="141.000000" y2="146.000000" stroke="#AAAAAA" /><text style="font-size:10px;font-family:OpenSans;fill:#000000;" text-anchor="middle" x="1187.134831" y="156.000000">1304</text></g>
<rect fill="#5B5BFF" x="4" y="170.000000" width="12" height="12" filter="url(#ds)"/><text style="font-size:12px;font-family:OpenSans;fill:#000000;" text-anchor="start" x="20" y="182.000000">Immunoglobulin domain</text><rect fill="#BA21E0" x="4" y="184.000000" width="12" height="12" filter="url(#ds)"/><text style="font-size:12px;font-family:OpenSans;fill:#000000;" text-anchor="start" x="20" y="196.000000">Immunoglobulin I-set domain</text><rect fill="#BABA21" x="4" y="198.000000" width="12" height="12" filter="url(#ds)"/><text style="font-size:12px;font-family:OpenSans;fill:#000000;" text-anchor="start" x="20" y="210.000000">Fibronectin type III domain</text><rect fill="#C48484" x="4" y="212.000000" width="12" height="12" filter="url(#ds)"/><text style="font-size:12px;font-family:OpenSans;fill:#000000;" text-anchor="start" x="20" y="224.000000">Bravo-like intracellular region</text></svg>
