<?xml version='1.0'?>
<svg xmlns="http://www.w3.org/2000/svg" xmlns:xlink="http://www.w3.org/1999/xlink" width="1607.320000" height="210.800000">
<defs>
  <filter id="ds" x="0" y="0">
    <feOffset in="SourceAlpha" dx="2" dy="2" />
    <feComponentTransfer><feFuncA type="linear" slope="0.2"/></feComponentTransfer>
    <feGaussianBlur result="blurOut" stdDeviation="1" />
    <feBlend in="SourceGraphic" in2="blurOut" mode="normal" />
  </filter>
  <pattern id="disordered-hatch" patternUnits="userSpaceOnUse" width="4" height="4">
    <path d="M-1,1 l2,-2 M0,4 l4,-4 M3,5 l2,-2" stroke="#000000" opacity="0.3" />
  </pattern>
</defs>
<line x1="52.600000" x2="52.600000" y1="59.000000" y2="87.000000" stroke="#BABDB6" stroke-width="2"/><a xlink:title="A20V"><circle cx="52.600000" cy="59.000000" r="4.000000" fill="#ff0000" /></a><g transform="translate(52.600000,59.000000) rotate(-30)"><text style="font-size:10px;font-family:OpenSans;fill:#555;" text-anchor="middle" x="0" y="-6.000000">A20V</text></g><line x1="189.840000" x2="189.840000" y1="59.000000" y2="87.000000" stroke="#BABDB6" stroke-width="2"/><a xlink:title="N93N"><circle cx="189.840000" cy="59.000000" r="4.000000" fill="#0000ff" /></a><g transform="translate(189.840000,59.000000) rotate(-30)"><text style="font-size:10px;font-family:OpenSans;fill:#555;" text-anchor="middle" x="0" y="-6.000000">N93N</text></g><line x1="238.720000" x2="238.720000" y1="59.000000" y2="87.000000" stroke="#BABDB6" stroke-width="2"/><a xlink:title="A119A"><circle cx="238.720000" cy="59.000000" r="4.000000" fill="#0000ff" /></a><g transform="translate(238.720000,59.000000) rotate(-30)"><text style="font-size:10px;font-family:OpenSans;fill:#555;" text-anchor="middle" x="0" y="-6.000000">A119A</text></g><line x1="253.760000" x2="253.760000" y1="34.000000" y2="87.000000" stroke="#BABDB6" stroke-width="2"/><a xlink:title="A127A"><circle cx="253.760000" cy="34.000000" r="4.000000" fill="#0000ff" /></a><g transform="translate(253.760000,34.000000) rotate(-30)"><text style="font-size:10px;font-family:OpenSans;fill:#555;" text-anchor="middle" x="0" y="-6.000000">A127A</text></g><line x1="255.640000" x2="255.640000" y1="46.500000" y2="87.000000" stroke="#BABDB6" stroke-width="2"/><a xlink:title="N128N"><circle cx="255.640000" cy="46.500000" r="4.000000" fill="#0000ff" /></a><g transform="translate(255.640000,46.500000) rotate(-30)"><text style="font-size:10px;font-family:OpenSans;fill:#555;" text-anchor="middle" x="0" y="-6.000000">N128N</text></g><line x1="257.520000" x2="257.520000" y1="59.000000" y2="87.000000" stroke="#BABDB6" stroke-width="2"/><a xlink:title="N129N"><circle cx="257.520000" cy="59.000000" r="4.000000" fill="#0000ff" /></a><g transform="translate(257.520000,59.000000) rotate(-30)"><text style="font-size:10px;font-family:OpenSans;fill:#555;" text-anchor="middle" x="0" y="-6.000000">N129N</text></g><line x1="323.320000" x2="323.320000" y1="59.000000" y2="87.000000" stroke="#BABDB6" stroke-width="2"/><a xlink:title="N164N"><circle cx="323.320000" cy="59.000000" r="4.000000" fill="#0000ff" /></a><g transform="translate(323.320000,59.000000) rotate(-30)"><text style="font-size:10px;font-family:OpenSans;fill:#555;" text-anchor="middle" x="0" y="-6.000000">N164N</text></g><line x1="374.080000" x2="374.080000" y1="59.000000" y2="87.000000" stroke="#BABDB6" stroke-width="2"/><a xlink:title="N191N"><circle cx="374.080000" cy="59.000000" r="4.000000" fill="#0000ff" /></a><g transform="translate(374.080000,59.000000) rotate(-30)"><text style="font-size:10px;font-family:OpenSans;fill:#555;" text-anchor="middle" x="0" y="-6.000000">N191N</text></g><line x1="413.560000" x2="413.560000" y1="59.000000" y2="87.000000" stroke="#BABDB6" stroke-width="2"/><a xlink:title="A212A"><circle cx="413.560000" cy="59.000000" r="4.000000" fill="#0000ff" /></a><g transform="translate(413.560000,59.000000) rotate(-30)"><text style="font-size:10px;font-family:OpenSans;fill:#555;" text-anchor="middle" x="0" y="-6.000000">A212A</text></g><line x1="428.600000" x2="428.600000" y1="59.000000" y2="87.000000" stroke="#BABDB6" stroke-width="2"/><a xlink:title="A220A"><circle cx="428.600000" cy="59.000000" r="4.000000" fill="#0000ff" /></a><g transform="translate(428.600000,59.000000) rotate(-30)"><text style="font-size:10px;font-family:OpenSans;fill:#555;" text-anchor="middle" x="0" y="-6.000000">A220A</text></g><line x1="439.880000" x2="439.880000" y1="59.000000" y2="87.000000" stroke="#BABDB6" stroke-width="2"/><a xlink:title="N226N"><circle cx="439.880000" cy="59.000000" r="4.000000" fill="#0000ff" /></a><g transform="translate(439.880000,59.000000) rotate(-30)"><text style="font-size:10px;font-family:OpenSans;fill:#555;" text-anchor="middle" x="0" y="-6.000000">N226N</text></g><line x1="763.240000" x2="763.240000" y1="59.000000" y2="87.000000" stroke="#BABDB6" stroke-width="2"/><a xlink:title="A398A"><circle cx="763.240000" cy="59.000000" r="4.000000" fill="#0000ff" /></a><g transform="translate(763.240000,59.000000) rotate(-30)"><text style="font-size:10px;font-family:OpenSans;fill:#555;" text-anchor="middle" x="0" y="-6.000000">A398A</text></g><line x1="830.920000" x2="830.920000" y1="59.000000" y2="87.000000" stroke="#BABDB6" stroke-width="2"/><a xlink:title="A434A"><circle cx="830.920000" cy="59.000000" r="4.000000" fill="#0000ff" /></a><g transform="translate(830.920000,59.000000) rotate(-30)"><text style="font-size:10px;font-family:OpenSans;fill:#555;" text-anchor="middle" x="0" y="-6.000000">A434A</text></g><line x1="932.440000" x2="932.440000" y1="46.500000" y2="87.000000" stroke="#BABDB6" stroke-width="2"/><a xlink:title="A488A"><circle cx="932.440000" cy="46.500000" r="4.000000" fill="#0000ff" /></a><g transform="translate(932.440000,46.500000) rotate(-30)"><text style="font-size:10px;font-family:OpenSans;fill:#555;" text-anchor="middle" x="0" y="-6.000000">A488A</text></g><line x1="938.080000" x2="938.080000" y1="59.000000" y2="87.000000" stroke="#BABDB6" stroke-width="2"/><a xlink:title="A491A"><circle cx="938.080000" cy="59.000000" r="4.000000" fill="#0000ff" /></a><g transform="translate(938.080000,59.000000) rotate(-30)"><text style="font-size:10px;font-family:OpenSans;fill:#555;" text-anchor="middle" x="0" y="-6.000000">A491A</text></g><line x1="947.480000" x2="947.480000" y1="59.000000" y2="87.000000" stroke="#BABDB6" stroke-width="2"/><a xlink:title="A496A"><circle cx="947.480000" cy="59.000000" r="4.000000" fill="#0000ff" /></a><g transform="translate(947.480000,59.000000) rotate(-30)"><text style="font-size:10px;font-family:OpenSans;fill:#555;" text-anchor="middle" x="0" y="-6.000000">A496A</text></g><line x1="1005.760000" x2="1005.760000" y1="59.000000" y2="87.000000" stroke="#BABDB6" stroke-width="2"/><a xlink:title="A527A"><circle cx="1005.760000" cy="59.000000" r="4.000000" fill="#0000ff" /></a><g transform="translate(1005.760000,59.000000) rotate(-30)"><text style="font-size:10px;font-family:OpenSans;fill:#555;" text-anchor="middle" x="0" y="-6.000000">A527A</text></g><line x1="1045.240000" x2="1045.240000" y1="59.000000" y2="87.000000" stroke="#BABDB6" stroke-width="2"/><a xlink:title="A548V"><circle cx="1045.240000" cy="59.000000" r="4.000000" fill="#ff0000" /></a><g transform="translate(1045.240000,59.000000) rotate(-30)"><text style="font-size:10px;font-family:OpenSans;fill:#555;" text-anchor="middle" x="0" y="-6.000000">A548V</text></g><line x1="1107.280000" x2="1107.280000" y1="59.000000" y2="87.000000" stroke="#BABDB6" stroke-width="2"/><a xlink:title="A581A"><circle cx="1107.280000" cy="59.000000" r="4.000000" fill="#0000ff" /></a><g transform="translate(1107.280000,59.000000) rotate(-30)"><text style="font-size:10px;font-family:OpenSans;fill:#555;" text-anchor="middle" x="0" y="-6.000000">A581A</text></g><line x1="1122.320000" x2="1122.320000" y1="59.000000" y2="87.000000" stroke="#BABDB6" stroke-width="2"/><a xlink:title="A589A"><circle cx="1122.320000" cy="59.000000" r="4.000000" fill="#0000ff" /></a><g transform="translate(1122.320000,59.000000) rotate(-30)"><text style="font-size:10px;font-family:OpenSans;fill:#555;" text-anchor="middle" x="0" y="-6.000000">A589A</text></g><line x1="1370.480000" x2="1370.480000" y1="59.000000" y2="87.000000" stroke="#BABDB6" stroke-width="2"/><a xlink:title="S721S"><circle cx="1370.480000" cy="59.000000" r="4.000000" fill="#0000ff" /></a><g transform="translate(1370.480000,59.000000) rotate(-30)"><text style="font-size:10px;font-family:OpenSans;fill:#555;" text-anchor="middle" x="0" y="-6.000000">S721S</text></g><a xlink:title=",  (839aa)"><rect fill="#BABDB6" x="15.000000" y="87.000000" width="1577.320000" height="14.000000"/></a><g transform="translate(73.280000,82.000000)"><a xlink:href="https://www.ebi.ac.uk/interpro/entry/pfam/PF01462" xlink:title="Leucine rich repeat N-terminal domain"><rect fill="#2DCF00" x="0" y="0" width="47.000000" height="24.000000" filter="url(#ds)"/><text style="font-size:12px;font-family:OpenSans;fill:#ffffff;" text-anchor="middle" x="23.500000" y="16.000000">LRRNT</text></a></g>
<g transform="translate(210.520000,82.000000)"><a xlink:href="https://www.ebi.ac.uk/interpro/entry/pfam/PF13855" xlink:title="Leucine rich repeat"><rect fill="#FF5353" x="0" y="0" width="105.280000" height="24.000000" filter="url(#ds)"/><text style="font-size:12px;font-family:OpenSans;fill:#ffffff;" text-anchor="middle" x="52.640000" y="16.000000">LRR_8</text></a></g>
<g transform="translate(321.440000,82.000000)"><a xlink:href="https://www.ebi.ac.uk/interpro/entry/pfam/PF16920" xlink:title="Leucine rich repeat C-terminal motif"><rect fill="#5B5BFF" x="0" y="0" width="84.600000" height="24.000000" filter="url(#ds)"/><text style="font-size:12px;font-family:OpenSans;fill:#ffffff;" text-anchor="middle" x="42.300000" y="16.000000">LRRCT_2</text></a></g>
<g transform="translate(424.840000,82.000000)"><a xlink:href="https://www.ebi.ac.uk/interpro/entry/pfam/PF00047" xlink:title="Immunoglobulin domain"><rect fill="#EBD61D" x="0" y="0" width="146.640000" height="24.000000" filter="url(#ds)"/><text style="font-size:12px;font-family:OpenSans;fill:#ffffff;" text-anchor="middle" x="73.320000" y="16.000000">Immunoglobulin domain</text></a></g>
<g transform="translate(622.240000,82.000000)"><a xlink:href="https://www.ebi.ac.uk/interpro/entry/pfam/PF07679" xlink:title="Immunoglobulin I-set domain"><rect fill="#BA21E0" x="0" y="0" width="127.840000" height="24.000000" filter="url(#ds)"/><text style="font-size:12px;font-family:OpenSans;fill:#ffffff;" text-anchor="middle" x="63.920000" y="16.000000">I-set</text></a></g>
<g transform="translate(1028.320000,82.000000)"><a xlink:href="https://www.ebi.ac.uk/interpro/entry/pfam/PF07714" xlink:title="Protein tyrosine and serine/threonine kinase"><rect fill="#FF9C42" x="0" y="0" width="533.920000" height="24.000000" filter="url(#ds)"/><text style="font-size:12px;font-family:OpenSans;fill:#ffffff;" text-anchor="middle" x="266.960000" y="16.000000">Protein tyrosine and serine/threonine kinase</text></a></g>
<g class="axis">
<line x1="15.000000" x2="1592.320000" y1="116.000000" y2="116.000000" stroke="#AAAAAA" /><line x1="15.000000" x2="15.000000" y1="116.000000" y2="121.000000" stroke="#AAAAAA" /><line x1="15.000000" x2="15.000000" y1="116.000000" y2="121.000000" stroke="#AAAAAA" /><text style="font-size:10px;font-family:OpenSans;fill:#000000;" text-anchor="middle" x="15.000000" y="131.000000">0</text><line x1="52.600000" x2="52.600000" y1="116.000000" y2="121.000000" stroke="#AAAAAA" /><text style="font-size:10px;font-family:OpenSans;fill:#000000;" text-anchor="middle" x="52.600000" y="131.000000">20</text><line x1="73.280000" x2="73.280000" y1="116.000000" y2="121.000000" stroke="#AAAAAA" /><text style="font-size:10px;font-family:OpenSans;fill:#000000;" text-anchor="middle" x="73.280000" y="131.000000">31</text><line x1="120.280000" x2="120.280000" y1="116.000000" y2="121.000000" stroke="#AAAAAA" /><text style="font-size:10px;font-family:OpenSans;fill:#000000;" text-anchor="middle" x="120.280000" y="131.000000">56</text><line x1="189.840000" x2="189.840000" y1="116.000000" y2="121.000000" stroke="#AAAAAA" /><text style="font-size:10px;font-family:OpenSans;fill:#000000;" text-anchor="middle" x="189.840000" y="131.000000">93</text><line x1="210.520000" x2="210.520000" y1="116.000000" y2="121.000000" stroke="#AAAAAA" /><text style="font-size:10px;font-family:OpenSans;fill:#000000;" text-anchor="middle" x="210.520000" y="131.000000">104</text><line x1="238.720000" x2="238.720000" y1="116.000000" y2="121.000000" stroke="#AAAAAA" /><text style="font-size:10px;font-family:OpenSans;fill:#000000;" text-anchor="middle" x="238.720000" y="131.000000">119</text><line x1="257.520000" x2="257.520000" y1="116.000000" y2="121.000000" stroke="#AAAAAA" /><text style="font-size:10px;font-family:OpenSans;fill:#000000;" text-anchor="middle" x="257.520000" y="131.000000">129</text><line x1="323.320000" x2="323.320000" y1="116.000000" y2="121.000000" stroke="#AAAAAA" /><text style="font-size:10px;font-family:OpenSans;fill:#000000;" text-anchor="middle" x="323.320000" y="131.000000">164</text><line x1="374.080000" x2="374.080000" y1="116.000000" y2="121.000000" stroke="#AAAAAA" /><text style="font-size:10px;font-family:OpenSans;fill:#000000;" text-anchor="middle" x="374.080000" y="131.000000">191</text><line x1="413.560000" x2="413.560000" y1="116.000000" y2="121.000000" stroke="#AAAAAA" /><text style="font-size:10px;font-family:OpenSans;fill:#000000;" text-anchor="middle" x="413.560000" y="131.000000">212</text><line x1="439.880000" x2="439.880000" y1="116.000000" y2="121.000000" stroke="#AAAAAA" /><text style="font-size:10px;font-family:OpenSans;fill:#000000;" text-anchor="middle" x="439.880000" y="131.000000">226</text><line x1="571.480000" x2="571.480000" y1="116.000000" y2="121.000000" stroke="#AAAAAA" /><text style="font-size:10px;font-family:OpenSans;fill:#000000;" text-anchor="middle" x="571.480000" y="131.000000">296</text><line x1="622.240000" x2="622.240000" y1="116.000000" y2="121.000000" stroke="#AAAAAA" /><text style="font-size:10px;font-family:OpenSans;fill:#000000;" text-anchor="middle" x="622.240000" y="131.000000">323</text><line x1="763.240000" x2="763.240000" y1="116.000000" y2="121.000000" stroke="#AAAAAA" /><text style="font-size:10px;font-family:OpenSans;fill:#000000;" text-anchor="middle" x="763.240000" y="131.000000">398</text><line x1="830.920000" x2="830.920000" y1="116.000000" y2="121.000000" stroke="#AAAAAA" /><text style="font-size:10px;font-family:OpenSans;fill:#000000;" text-anchor="middle" x="830.920000" y="131.000000">434</text><line x1="932.440000" x2="932.440000" y1="116.000000" y2="121.000000" stroke="#AAAAAA" /><text style="font-size:10px;font-family:OpenSans;fill:#000000;" text-anchor="middle" x="932.440000" y="131.000000">488</text><line x1="1005.760000" x2="1005.760000" y1="116.000000" y2="121.000000" stroke="#AAAAAA" /><text style="font-size:10px;font-family:OpenSans;fill:#000000;" text-anchor="middle" x="1005.760000" y="131.000000">527</text><line x1="1045.240000" x2="1045.240000" y1="116.000000" y2="121.000000" stroke="#AAAAAA" /><text style="font-size:10px;font-family:OpenSans;fill:#000000;" text-anchor="middle" x="1045.240000" y="131.000000">548</text><line x1="1107.280000" x2="1107.280000" y1="116.000000" y2="121.000000" stroke="#AAAAAA" /><text style="font-size:10px;font-family:OpenSans;fill:#000000;" text-anchor="middle" x="1107.280000" y="131.000000">581</text><line x1="1370.480000" x2="1370.480000" y1="116.000000" y2="121.000000" stroke="#AAAAAA" /><text style="font-size:10px;font-family:OpenSans;fill:#000000;" text-anchor="middle" x="1370.480000" y="131.000000">721</text><line x1="1562.240000" x2="1562.240000" y1="116.000000" y2="121.000000" stroke="#AAAAAA" /><text style="font-size:10px;font-family:OpenSans;fill:#000000;" text-anchor="middle" x="1562.240000" y="131.000000">823</text><line x1="1592.320000" x2="1592.320000" y1="116.000000" y2="121.000000" stroke="#AAAAAA" /><text style="font-size:10px;font-family:OpenSans;fill:#000000;" text-anchor="middle" x="1592.320000" y="131.000000">839</text></g>
<rect fill="#2DCF00" x="4" y="145.000000" width="12" height="12" filter="url(#ds)"/><text style="font-size:12px;font-family:OpenSans;fill:#000000;" text-anchor="start" x="20" y="157.000000">Leucine rich repeat N-terminal domain</text><rect fill="#FF5353" x="4" y="159.000000" width="12" height="12" filter="url(#ds)"/><text style="font-size:12px;font-family:OpenSans;fill:#000000;" text-anchor="start" x="20" y="171.000000">Leucine rich repeat</text><rect fill="#5B5BFF" x="4" y="173.000000" width="12" height="12" filter="url(#ds)"/><text style="font-size:12px;font-family:OpenSans;fill:#000000;" text-anchor="start" x="20" y="185.000000">Leucine rich repeat C-terminal motif</text><rect fill="#BA21E0" x="4" y="187.000000" width="12" height="12" filter="url(#ds)"/><text style="font-size:12px;font-family:OpenSans;fill:#000000;" text-anchor="start" x="20" y="199.000000">Immunoglobulin I-set domain</text></svg>
