<?xml version='1.0'?>
<svg xmlns="http://www.w3.org/2000/svg" xmlns:xlink="http://www.w3.org/1999/xlink" width="4285.605263" height="158.700000">
<defs>
  <filter id="ds" x="0" y="0">
    <feOffset in="SourceAlpha" dx="2" dy="2" />
    <feComponentTransfer><feFuncA type="linear" slope="0.2"/></feComponentTransfer>
    <feGaussianBlur result="blurOut" stdDeviation="1" />
    <feBlend in="SourceGraphic" in2="blurOut" mode="normal" />
  </filter>
  <pattern id="disordered-hatch" patternUnits="userSpaceOnUse" width="4" height="4">
    <path d="M-1,1 l2,-2 M0,4 l4,-4 M3,5 l2,-2" stroke="#000000" opacity="0.3" />
  </pattern>
</defs>
<line x1="2010.473684" x2="2010.473684" y1="34.000000" y2="74.500000" stroke="#BABDB6" stroke-width="2"/><a xlink:title="T852T"><circle cx="2010.473684" cy="34.000000" r="4.000000" fill="#0000ff" /></a><g transform="translate(2010.473684,34.000000) rotate(-30)"><text style="font-size:10px;font-family:OpenSans;fill:#555;" text-anchor="middle" x="0" y="-6.000000">T852T</text></g><line x1="2010.473684" x2="2010.473684" y1="46.500000" y2="74.500000" stroke="#BABDB6" stroke-width="2"/><a xlink:title="T852M"><circle cx="2010.473684" cy="46.500000" r="4.000000" fill="#ff0000" /></a><g transform="translate(2010.473684,46.500000) rotate(-30)"><text style="font-size:10px;font-family:OpenSans;fill:#555;" text-anchor="middle" x="0" y="-6.000000">T852M</text></g><line x1="2080.736842" x2="2080.736842" y1="34.000000" y2="74.500000" stroke="#BABDB6" stroke-width="2"/><a xlink:title="T882T"><circle cx="2080.736842" cy="34.000000" r="4.000000" fill="#0000ff" /></a><g transform="translate(2080.736842,34.000000) rotate(-30)"><text style="font-size:10px;font-family:OpenSans;fill:#555;" text-anchor="middle" x="0" y="-6.000000">T882T</text></g><line x1="2080.736842" x2="2080.736842" y1="46.500000" y2="74.500000" stroke="#BABDB6" stroke-width="2"/><a xlink:title="T882M"><circle cx="2080.736842" cy="46.500000" r="4.000000" fill="#ff0000" /></a><g transform="translate(2080.736842,46.500000) rotate(-30)"><text style="font-size:10px;font-family:OpenSans;fill:#555;" text-anchor="middle" x="0" y="-6.000000">T882M</text></g><line x1="2101.815789" x2="2101.815789" y1="34.000000" y2="74.500000" stroke="#BABDB6" stroke-width="2"/><a xlink:title="T891T"><circle cx="2101.815789" cy="34.000000" r="4.000000" fill="#0000ff" /></a><g transform="translate(2101.815789,34.000000) rotate(-30)"><text style="font-size:10px;font-family:OpenSans;fill:#555;" text-anchor="middle" x="0" y="-6.000000">T891T</text></g><line x1="2101.815789" x2="2101.815789" y1="46.500000" y2="74.500000" stroke="#BABDB6" stroke-width="2"/><a xlink:title="T891M"><circle cx="2101.815789" cy="46.500000" r="4.000000" fill="#ff0000" /></a><g transform="translate(2101.815789,46.500000) rotate(-30)"><text style="font-size:10px;font-family:OpenSans;fill:#555;" text-anchor="middle" x="0" y="-6.000000">T891M</text></g><line x1="2120.552632" x2="2120.552632" y1="46.500000" y2="74.500000" stroke="#BABDB6" stroke-width="2"/><a xlink:title="T899M"><circle cx="2120.552632" cy="46.500000" r="4.000000" fill="#ff0000" /></a><g transform="translate(2120.552632,46.500000) rotate(-30)"><text style="font-size:10px;font-family:OpenSans;fill:#555;" text-anchor="middle" x="0" y="-6.000000">T899M</text></g><line x1="2120.552632" x2="2120.552632" y1="34.000000" y2="74.500000" stroke="#BABDB6" stroke-width="2"/><a xlink:title="T899T"><circle cx="2120.552632" cy="34.000000" r="4.000000" fill="#0000ff" /></a><g transform="translate(2120.552632,34.000000) rotate(-30)"><text style="font-size:10px;font-family:OpenSans;fill:#555;" text-anchor="middle" x="0" y="-6.000000">T899T</text></g><line x1="2160.368421" x2="2160.368421" y1="34.000000" y2="74.500000" stroke="#BABDB6" stroke-width="2"/><a xlink:title="T916T"><circle cx="2160.368421" cy="34.000000" r="4.000000" fill="#0000ff" /></a><g transform="translate(2160.368421,34.000000) rotate(-30)"><text style="font-size:10px;font-family:OpenSans;fill:#555;" text-anchor="middle" x="0" y="-6.000000">T916T</text></g><line x1="2160.368421" x2="2160.368421" y1="46.500000" y2="74.500000" stroke="#BABDB6" stroke-width="2"/><a xlink:title="T916M"><circle cx="2160.368421" cy="46.500000" r="4.000000" fill="#ff0000" /></a><g transform="translate(2160.368421,46.500000) rotate(-30)"><text style="font-size:10px;font-family:OpenSans;fill:#555;" text-anchor="middle" x="0" y="-6.000000">T916M</text></g><line x1="2464.842105" x2="2464.842105" y1="46.500000" y2="74.500000" stroke="#BABDB6" stroke-width="2"/><a xlink:title="D1046E"><circle cx="2464.842105" cy="46.500000" r="4.000000" fill="#ff0000" /></a><g transform="translate(2464.842105,46.500000) rotate(-30)"><text style="font-size:10px;font-family:OpenSans;fill:#555;" text-anchor="middle" x="0" y="-6.000000">D1046E</text></g><line x1="2776.342105" x2="2776.342105" y1="46.500000" y2="74.500000" stroke="#BABDB6" stroke-width="2"/><a xlink:title="V1179V"><circle cx="2776.342105" cy="46.500000" r="4.000000" fill="#0000ff" /></a><g transform="translate(2776.342105,46.500000) rotate(-30)"><text style="font-size:10px;font-family:OpenSans;fill:#555;" text-anchor="middle" x="0" y="-6.000000">V1179V</text></g><line x1="2846.605263" x2="2846.605263" y1="46.500000" y2="74.500000" stroke="#BABDB6" stroke-width="2"/><a xlink:title="V1209V"><circle cx="2846.605263" cy="46.500000" r="4.000000" fill="#0000ff" /></a><g transform="translate(2846.605263,46.500000) rotate(-30)"><text style="font-size:10px;font-family:OpenSans;fill:#555;" text-anchor="middle" x="0" y="-6.000000">V1209V</text></g><line x1="2867.684211" x2="2867.684211" y1="46.500000" y2="74.500000" stroke="#BABDB6" stroke-width="2"/><a xlink:title="V1218V"><circle cx="2867.684211" cy="46.500000" r="4.000000" fill="#0000ff" /></a><g transform="translate(2867.684211,46.500000) rotate(-30)"><text style="font-size:10px;font-family:OpenSans;fill:#555;" text-anchor="middle" x="0" y="-6.000000">V1218V</text></g><line x1="2886.421053" x2="2886.421053" y1="46.500000" y2="74.500000" stroke="#BABDB6" stroke-width="2"/><a xlink:title="V1226V"><circle cx="2886.421053" cy="46.500000" r="4.000000" fill="#0000ff" /></a><g transform="translate(2886.421053,46.500000) rotate(-30)"><text style="font-size:10px;font-family:OpenSans;fill:#555;" text-anchor="middle" x="0" y="-6.000000">V1226V</text></g><line x1="2926.236842" x2="2926.236842" y1="46.500000" y2="74.500000" stroke="#BABDB6" stroke-width="2"/><a xlink:title="V1243V"><circle cx="2926.236842" cy="46.500000" r="4.000000" fill="#0000ff" /></a><g transform="translate(2926.236842,46.500000) rotate(-30)"><text style="font-size:10px;font-family:OpenSans;fill:#555;" text-anchor="middle" x="0" y="-6.000000">V1243V</text></g><line x1="2959.026316" x2="2959.026316" y1="46.500000" y2="74.500000" stroke="#BABDB6" stroke-width="2"/><a xlink:title="V1257V"><circle cx="2959.026316" cy="46.500000" r="4.000000" fill="#0000ff" /></a><g transform="translate(2959.026316,46.500000) rotate(-30)"><text style="font-size:10px;font-family:OpenSans;fill:#555;" text-anchor="middle" x="0" y="-6.000000">V1257V</text></g><line x1="3249.447368" x2="3249.447368" y1="46.500000" y2="74.500000" stroke="#BABDB6" stroke-width="2"/><a xlink:title="A1381A"><circle cx="3249.447368" cy="46.500000" r="4.000000" fill="#0000ff" /></a><g transform="translate(3249.447368,46.500000) rotate(-30)"><text style="font-size:10px;font-family:OpenSans;fill:#555;" text-anchor="middle" x="0" y="-6.000000">A1381A</text></g><line x1="3319.710526" x2="3319.710526" y1="46.500000" y2="74.500000" stroke="#BABDB6" stroke-width="2"/><a xlink:title="A1411A"><circle cx="3319.710526" cy="46.500000" r="4.000000" fill="#0000ff" /></a><g transform="translate(3319.710526,46.500000) rotate(-30)"><text style="font-size:10px;font-family:OpenSans;fill:#555;" text-anchor="middle" x="0" y="-6.000000">A1411A</text></g><line x1="3340.789474" x2="3340.789474" y1="46.500000" y2="74.500000" stroke="#BABDB6" stroke-width="2"/><a xlink:title="A1420A"><circle cx="3340.789474" cy="46.500000" r="4.000000" fill="#0000ff" /></a><g transform="translate(3340.789474,46.500000) rotate(-30)"><text style="font-size:10px;font-family:OpenSans;fill:#555;" text-anchor="middle" x="0" y="-6.000000">A1420A</text></g><line x1="3359.526316" x2="3359.526316" y1="46.500000" y2="74.500000" stroke="#BABDB6" stroke-width="2"/><a xlink:title="A1428A"><circle cx="3359.526316" cy="46.500000" r="4.000000" fill="#0000ff" /></a><g transform="translate(3359.526316,46.500000) rotate(-30)"><text style="font-size:10px;font-family:OpenSans;fill:#555;" text-anchor="middle" x="0" y="-6.000000">A1428A</text></g><line x1="3399.342105" x2="3399.342105" y1="46.500000" y2="74.500000" stroke="#BABDB6" stroke-width="2"/><a xlink:title="A1445A"><circle cx="3399.342105" cy="46.500000" r="4.000000" fill="#0000ff" /></a><g transform="translate(3399.342105,46.500000) rotate(-30)"><text style="font-size:10px;font-family:OpenSans;fill:#555;" text-anchor="middle" x="0" y="-6.000000">A1445A</text></g><line x1="3432.131579" x2="3432.131579" y1="46.500000" y2="74.500000" stroke="#BABDB6" stroke-width="2"/><a xlink:title="A1459A"><circle cx="3432.131579" cy="46.500000" r="4.000000" fill="#0000ff" /></a><g transform="translate(3432.131579,46.500000) rotate(-30)"><text style="font-size:10px;font-family:OpenSans;fill:#555;" text-anchor="middle" x="0" y="-6.000000">A1459A</text></g><line x1="3661.657895" x2="3661.657895" y1="46.500000" y2="74.500000" stroke="#BABDB6" stroke-width="2"/><a xlink:title="K1557Q"><circle cx="3661.657895" cy="46.500000" r="4.000000" fill="#ff0000" /></a><g transform="translate(3661.657895,46.500000) rotate(-30)"><text style="font-size:10px;font-family:OpenSans;fill:#555;" text-anchor="middle" x="0" y="-6.000000">K1557Q</text></g><line x1="3724.894737" x2="3724.894737" y1="46.500000" y2="74.500000" stroke="#BABDB6" stroke-width="2"/><a xlink:title="K1584Q"><circle cx="3724.894737" cy="46.500000" r="4.000000" fill="#ff0000" /></a><g transform="translate(3724.894737,46.500000) rotate(-30)"><text style="font-size:10px;font-family:OpenSans;fill:#555;" text-anchor="middle" x="0" y="-6.000000">K1584Q</text></g><line x1="3795.157895" x2="3795.157895" y1="46.500000" y2="74.500000" stroke="#BABDB6" stroke-width="2"/><a xlink:title="K1614Q"><circle cx="3795.157895" cy="46.500000" r="4.000000" fill="#ff0000" /></a><g transform="translate(3795.157895,46.500000) rotate(-30)"><text style="font-size:10px;font-family:OpenSans;fill:#555;" text-anchor="middle" x="0" y="-6.000000">K1614Q</text></g><line x1="3816.236842" x2="3816.236842" y1="46.500000" y2="74.500000" stroke="#BABDB6" stroke-width="2"/><a xlink:title="K1623Q"><circle cx="3816.236842" cy="46.500000" r="4.000000" fill="#ff0000" /></a><g transform="translate(3816.236842,46.500000) rotate(-30)"><text style="font-size:10px;font-family:OpenSans;fill:#555;" text-anchor="middle" x="0" y="-6.000000">K1623Q</text></g><line x1="3834.973684" x2="3834.973684" y1="46.500000" y2="74.500000" stroke="#BABDB6" stroke-width="2"/><a xlink:title="K1631Q"><circle cx="3834.973684" cy="46.500000" r="4.000000" fill="#ff0000" /></a><g transform="translate(3834.973684,46.500000) rotate(-30)"><text style="font-size:10px;font-family:OpenSans;fill:#555;" text-anchor="middle" x="0" y="-6.000000">K1631Q</text></g><line x1="3874.789474" x2="3874.789474" y1="46.500000" y2="74.500000" stroke="#BABDB6" stroke-width="2"/><a xlink:title="K1648Q"><circle cx="3874.789474" cy="46.500000" r="4.000000" fill="#ff0000" /></a><g transform="translate(3874.789474,46.500000) rotate(-30)"><text style="font-size:10px;font-family:OpenSans;fill:#555;" text-anchor="middle" x="0" y="-6.000000">K1648Q</text></g><line x1="3900.552632" x2="3900.552632" y1="46.500000" y2="74.500000" stroke="#BABDB6" stroke-width="2"/><a xlink:title="R1659H"><circle cx="3900.552632" cy="46.500000" r="4.000000" fill="#ff0000" /></a><g transform="translate(3900.552632,46.500000) rotate(-30)"><text style="font-size:10px;font-family:OpenSans;fill:#555;" text-anchor="middle" x="0" y="-6.000000">R1659H</text></g><line x1="3907.578947" x2="3907.578947" y1="46.500000" y2="74.500000" stroke="#BABDB6" stroke-width="2"/><a xlink:title="K1662Q"><circle cx="3907.578947" cy="46.500000" r="4.000000" fill="#ff0000" /></a><g transform="translate(3907.578947,46.500000) rotate(-30)"><text style="font-size:10px;font-family:OpenSans;fill:#555;" text-anchor="middle" x="0" y="-6.000000">K1662Q</text></g><line x1="3963.789474" x2="3963.789474" y1="46.500000" y2="74.500000" stroke="#BABDB6" stroke-width="2"/><a xlink:title="R1686H"><circle cx="3963.789474" cy="46.500000" r="4.000000" fill="#ff0000" /></a><g transform="translate(3963.789474,46.500000) rotate(-30)"><text style="font-size:10px;font-family:OpenSans;fill:#555;" text-anchor="middle" x="0" y="-6.000000">R1686H</text></g><line x1="4034.052632" x2="4034.052632" y1="46.500000" y2="74.500000" stroke="#BABDB6" stroke-width="2"/><a xlink:title="R1716H"><circle cx="4034.052632" cy="46.500000" r="4.000000" fill="#ff0000" /></a><g transform="translate(4034.052632,46.500000) rotate(-30)"><text style="font-size:10px;font-family:OpenSans;fill:#555;" text-anchor="middle" x="0" y="-6.000000">R1716H</text></g><line x1="4055.131579" x2="4055.131579" y1="46.500000" y2="74.500000" stroke="#BABDB6" stroke-width="2"/><a xlink:title="R1725H"><circle cx="4055.131579" cy="46.500000" r="4.000000" fill="#ff0000" /></a><g transform="translate(4055.131579,46.500000) rotate(-30)"><text style="font-size:10px;font-family:OpenSans;fill:#555;" text-anchor="middle" x="0" y="-6.000000">R1725H</text></g><line x1="4073.868421" x2="4073.868421" y1="46.500000" y2="74.500000" stroke="#BABDB6" stroke-width="2"/><a xlink:title="R1733H"><circle cx="4073.868421" cy="46.500000" r="4.000000" fill="#ff0000" /></a><g transform="translate(4073.868421,46.500000) rotate(-30)"><text style="font-size:10px;font-family:OpenSans;fill:#555;" text-anchor="middle" x="0" y="-6.000000">R1733H</text></g><line x1="4113.684211" x2="4113.684211" y1="46.500000" y2="74.500000" stroke="#BABDB6" stroke-width="2"/><a xlink:title="R1750H"><circle cx="4113.684211" cy="46.500000" r="4.000000" fill="#ff0000" /></a><g transform="translate(4113.684211,46.500000) rotate(-30)"><text style="font-size:10px;font-family:OpenSans;fill:#555;" text-anchor="middle" x="0" y="-6.000000">R1750H</text></g><line x1="4146.473684" x2="4146.473684" y1="46.500000" y2="74.500000" stroke="#BABDB6" stroke-width="2"/><a xlink:title="R1764H"><circle cx="4146.473684" cy="46.500000" r="4.000000" fill="#ff0000" /></a><g transform="translate(4146.473684,46.500000) rotate(-30)"><text style="font-size:10px;font-family:OpenSans;fill:#555;" text-anchor="middle" x="0" y="-6.000000">R1764H</text></g><a xlink:title=",  (1817aa)"><rect fill="#BABDB6" x="15.000000" y="74.500000" width="4255.605263" height="14.000000"/></a><g transform="translate(413.157895,69.500000)"><a xlink:href="https://www.ebi.ac.uk/interpro/entry/pfam/PF21240" xlink:title="Nup98, Gle2-binding sequence"><rect fill="#2DCF00" x="0" y="0" width="89.000000" height="24.000000" filter="url(#ds)"/><text style="font-size:12px;font-family:OpenSans;fill:#ffffff;" text-anchor="middle" x="44.500000" y="16.000000">Nup98_GLEBS</text></a></g>
<g transform="translate(1745.815789,69.500000)"><a xlink:href="https://www.ebi.ac.uk/interpro/entry/pfam/PF04096" xlink:title="Nucleoporin autopeptidase"><rect fill="#FF5353" x="0" y="0" width="341.947368" height="24.000000" filter="url(#ds)"/><text style="font-size:12px;font-family:OpenSans;fill:#ffffff;" text-anchor="middle" x="170.973684" y="16.000000">Nucleoporin autopeptidase</text></a></g>
<g transform="translate(3134.684211,69.500000)"><a xlink:href="https://www.ebi.ac.uk/interpro/entry/pfam/PF12110" xlink:title="Nuclear protein 96"><rect fill="#5B5BFF" x="0" y="0" width="681.552632" height="24.000000" filter="url(#ds)"/><text style="font-size:12px;font-family:OpenSans;fill:#ffffff;" text-anchor="middle" x="340.776316" y="16.000000">Nuclear protein 96</text></a></g>
<g class="axis">
<line x1="15.000000" x2="4270.605263" y1="103.500000" y2="103.500000" stroke="#AAAAAA" /><line x1="15.000000" x2="15.000000" y1="103.500000" y2="108.500000" stroke="#AAAAAA" /><line x1="15.000000" x2="15.000000" y1="103.500000" y2="108.500000" stroke="#AAAAAA" /><text style="font-size:10px;font-family:OpenSans;fill:#000000;" text-anchor="middle" x="15.000000" y="118.500000">0</text><line x1="413.157895" x2="413.157895" y1="103.500000" y2="108.500000" stroke="#AAAAAA" /><text style="font-size:10px;font-family:OpenSans;fill:#000000;" text-anchor="middle" x="413.157895" y="118.500000">170</text><line x1="502.157895" x2="502.157895" y1="103.500000" y2="108.500000" stroke="#AAAAAA" /><text style="font-size:10px;font-family:OpenSans;fill:#000000;" text-anchor="middle" x="502.157895" y="118.500000">208</text><line x1="1745.815789" x2="1745.815789" y1="103.500000" y2="108.500000" stroke="#AAAAAA" /><text style="font-size:10px;font-family:OpenSans;fill:#000000;" text-anchor="middle" x="1745.815789" y="118.500000">739</text><line x1="2010.473684" x2="2010.473684" y1="103.500000" y2="108.500000" stroke="#AAAAAA" /><text style="font-size:10px;font-family:OpenSans;fill:#000000;" text-anchor="middle" x="2010.473684" y="118.500000">852</text><line x1="2080.736842" x2="2080.736842" y1="103.500000" y2="108.500000" stroke="#AAAAAA" /><text style="font-size:10px;font-family:OpenSans;fill:#000000;" text-anchor="middle" x="2080.736842" y="118.500000">882</text><line x1="2101.815789" x2="2101.815789" y1="103.500000" y2="108.500000" stroke="#AAAAAA" /><text style="font-size:10px;font-family:OpenSans;fill:#000000;" text-anchor="middle" x="2101.815789" y="118.500000">891</text><line x1="2120.552632" x2="2120.552632" y1="103.500000" y2="108.500000" stroke="#AAAAAA" /><text style="font-size:10px;font-family:OpenSans;fill:#000000;" text-anchor="middle" x="2120.552632" y="118.500000">899</text><line x1="2160.368421" x2="2160.368421" y1="103.500000" y2="108.500000" stroke="#AAAAAA" /><text style="font-size:10px;font-family:OpenSans;fill:#000000;" text-anchor="middle" x="2160.368421" y="118.500000">916</text><line x1="2464.842105" x2="2464.842105" y1="103.500000" y2="108.500000" stroke="#AAAAAA" /><text style="font-size:10px;font-family:OpenSans;fill:#000000;" text-anchor="middle" x="2464.842105" y="118.500000">1046</text><line x1="2776.342105" x2="2776.342105" y1="103.500000" y2="108.500000" stroke="#AAAAAA" /><text style="font-size:10px;font-family:OpenSans;fill:#000000;" text-anchor="middle" x="2776.342105" y="118.500000">1179</text><line x1="2846.605263" x2="2846.605263" y1="103.500000" y2="108.500000" stroke="#AAAAAA" /><text style="font-size:10px;font-family:OpenSans;fill:#000000;" text-anchor="middle" x="2846.605263" y="118.500000">1209</text><line x1="2867.684211" x2="2867.684211" y1="103.500000" y2="108.500000" stroke="#AAAAAA" /><text style="font-size:10px;font-family:OpenSans;fill:#000000;" text-anchor="middle" x="2867.684211" y="118.500000">1218</text><line x1="2886.421053" x2="2886.421053" y1="103.500000" y2="108.500000" stroke="#AAAAAA" /><text style="font-size:10px;font-family:OpenSans;fill:#000000;" text-anchor="middle" x="2886.421053" y="118.500000">1226</text><line x1="2926.236842" x2="2926.236842" y1="103.500000" y2="108.500000" stroke="#AAAAAA" /><text style="font-size:10px;font-family:OpenSans;fill:#000000;" text-anchor="middle" x="2926.236842" y="118.500000">1243</text><line x1="2959.026316" x2="2959.026316" y1="103.500000" y2="108.500000" stroke="#AAAAAA" /><text style="font-size:10px;font-family:OpenSans;fill:#000000;" text-anchor="middle" x="2959.026316" y="118.500000">1257</text><line x1="3134.684211" x2="3134.684211" y1="103.500000" y2="108.500000" stroke="#AAAAAA" /><text style="font-size:10px;font-family:OpenSans;fill:#000000;" text-anchor="middle" x="3134.684211" y="118.500000">1332</text><line x1="3249.447368" x2="3249.447368" y1="103.500000" y2="108.500000" stroke="#AAAAAA" /><text style="font-size:10px;font-family:OpenSans;fill:#000000;" text-anchor="middle" x="3249.447368" y="118.500000">1381</text><line x1="3319.710526" x2="3319.710526" y1="103.500000" y2="108.500000" stroke="#AAAAAA" /><text style="font-size:10px;font-family:OpenSans;fill:#000000;" text-anchor="middle" x="3319.710526" y="118.500000">1411</text><line x1="3340.789474" x2="3340.789474" y1="103.500000" y2="108.500000" stroke="#AAAAAA" /><text style="font-size:10px;font-family:OpenSans;fill:#000000;" text-anchor="middle" x="3340.789474" y="118.500000">1420</text><line x1="3359.526316" x2="3359.526316" y1="103.500000" y2="108.500000" stroke="#AAAAAA" /><text style="font-size:10px;font-family:OpenSans;fill:#000000;" text-anchor="middle" x="3359.526316" y="118.500000">1428</text><line x1="3399.342105" x2="3399.342105" y1="103.500000" y2="108.500000" stroke="#AAAAAA" /><text style="font-size:10px;font-family:OpenSans;fill:#000000;" text-anchor="middle" x="3399.342105" y="118.500000">1445</text><line x1="3432.131579" x2="3432.131579" y1="103.500000" y2="108.500000" stroke="#AAAAAA" /><text style="font-size:10px;font-family:OpenSans;fill:#000000;" text-anchor="middle" x="3432.131579" y="118.500000">1459</text><line x1="3661.657895" x2="3661.657895" y1="103.500000" y2="108.500000" stroke="#AAAAAA" /><text style="font-size:10px;font-family:OpenSans;fill:#000000;" text-anchor="middle" x="3661.657895" y="118.500000">1557</text><line x1="3724.894737" x2="3724.894737" y1="103.500000" y2="108.500000" stroke="#AAAAAA" /><text style="font-size:10px;font-family:OpenSans;fill:#000000;" text-anchor="middle" x="3724.894737" y="118.500000">1584</text><line x1="3795.157895" x2="3795.157895" y1="103.500000" y2="108.500000" stroke="#AAAAAA" /><text style="font-size:10px;font-family:OpenSans;fill:#000000;" text-anchor="middle" x="3795.157895" y="118.500000">1614</text><line x1="3816.236842" x2="3816.236842" y1="103.500000" y2="108.500000" stroke="#AAAAAA" /><text style="font-size:10px;font-family:OpenSans;fill:#000000;" text-anchor="middle" x="3816.236842" y="118.500000">1623</text><line x1="3834.973684" x2="3834.973684" y1="103.500000" y2="108.500000" stroke="#AAAAAA" /><text style="font-size:10px;font-family:OpenSans;fill:#000000;" text-anchor="middle" x="3834.973684" y="118.500000">1631</text><line x1="3874.789474" x2="3874.789474" y1="103.500000" y2="108.500000" stroke="#AAAAAA" /><text style="font-size:10px;font-family:OpenSans;fill:#000000;" text-anchor="middle" x="3874.789474" y="118.500000">1648</text><line x1="3900.552632" x2="3900.552632" y1="103.500000" y2="108.500000" stroke="#AAAAAA" /><text style="font-size:10px;font-family:OpenSans;fill:#000000;" text-anchor="middle" x="3900.552632" y="118.500000">1659</text><line x1="3963.789474" x2="3963.789474" y1="103.500000" y2="108.500000" stroke="#AAAAAA" /><text style="font-size:10px;font-family:OpenSans;fill:#000000;" text-anchor="middle" x="3963.789474" y="118.500000">1686</text><line x1="4034.052632" x2="4034.052632" y1="103.500000" y2="108.500000" stroke="#AAAAAA" /><text style="font-size:10px;font-family:OpenSans;fill:#000000;" text-anchor="middle" x="4034.052632" y="118.500000">1716</text><line x1="4055.131579" x2="4055.131579" y1="103.500000" y2="108.500000" stroke="#AAAAAA" /><text style="font-size:10px;font-family:OpenSans;fill:#000000;" text-anchor="middle" x="4055.131579" y="118.500000">1725</text><line x1="4073.868421" x2="4073.868421" y1="103.500000" y2="108.500000" stroke="#AAAAAA" /><text style="font-size:10px;font-family:OpenSans;fill:#000000;" text-anchor="middle" x="4073.868421" y="118.500000">1733</text><line x1="4113.684211" x2="4113.684211" y1="103.500000" y2="108.500000" stroke="#AAAAAA" /><text style="font-size:10px;font-family:OpenSans;fill:#000000;" text-anchor="middle" x="4113.684211" y="118.500000">1750</text><line x1="4146.473684" x2="4146.473684" y1="103.500000" y2="108.500000" stroke="#AAAAAA" /><text style="font-size:10px;font-family:OpenSans;fill:#000000;" text-anchor="middle" x="4146.473684" y="118.500000">1764</text><line x1="4270.605263" x2="4270.605263" y1="103.500000" y2="108.500000" stroke="#AAAAAA" /><text style="font-size:10px;font-family:OpenSans;fill:#000000;" text-anchor="middle" x="4270.605263" y="118.500000">1817</text></g>
<rect fill="#2DCF00" x="4" y="132.500000" width="12" height="12" filter="url(#ds)"/><text style="font-size:12px;font-family:OpenSans;fill:#000000;" text-anchor="start" x="20" y="144.500000">Nup98, Gle2-binding sequence</text></svg>
