<?xml version='1.0'?>
<svg xmlns="http://www.w3.org/2000/svg" xmlns:xlink="http://www.w3.org/1999/xlink" width="430.000000" height="145.500000">
<defs>
  <filter id="ds" x="0" y="0">
    <feOffset in="SourceAlpha" dx="2" dy="2" />
    <feComponentTransfer><feFuncA type="linear" slope="0.2"/></feComponentTransfer>
    <feGaussianBlur result="blurOut" stdDeviation="1" />
    <feBlend in="SourceGraphic" in2="blurOut" mode="normal" />
  </filter>
  <pattern id="disordered-hatch" patternUnits="userSpaceOnUse" width="4" height="4">
    <path d="M-1,1 l2,-2 M0,4 l4,-4 M3,5 l2,-2" stroke="#000000" opacity="0.3" />
  </pattern>
</defs>
<line x1="53.338658" x2="53.338658" y1="34.000000" y2="74.500000" stroke="#BABDB6" stroke-width="2"/><a xlink:title="G30E"><circle cx="53.338658" cy="34.000000" r="4.000000" fill="#ff0000" /></a><g transform="translate(53.338658,34.000000) rotate(-30)"><text style="font-size:10px;font-family:OpenSans;fill:#555;" text-anchor="middle" x="0" y="-6.000000">G30E</text></g><line x1="55.894569" x2="55.894569" y1="46.500000" y2="74.500000" stroke="#BABDB6" stroke-width="2"/><a xlink:title="P32P"><circle cx="55.894569" cy="46.500000" r="4.000000" fill="#0000ff" /></a><g transform="translate(55.894569,46.500000) rotate(-30)"><text style="font-size:10px;font-family:OpenSans;fill:#555;" text-anchor="middle" x="0" y="-6.000000">P32P</text></g><line x1="140.239617" x2="140.239617" y1="46.500000" y2="74.500000" stroke="#BABDB6" stroke-width="2"/><a xlink:title="G98D"><circle cx="140.239617" cy="46.500000" r="4.000000" fill="#ff0000" /></a><g transform="translate(140.239617,46.500000) rotate(-30)"><text style="font-size:10px;font-family:OpenSans;fill:#555;" text-anchor="middle" x="0" y="-6.000000">G98D</text></g><line x1="190.079872" x2="190.079872" y1="46.500000" y2="74.500000" stroke="#BABDB6" stroke-width="2"/><a xlink:title="I137I"><circle cx="190.079872" cy="46.500000" r="4.000000" fill="#0000ff" /></a><g transform="translate(190.079872,46.500000) rotate(-30)"><text style="font-size:10px;font-family:OpenSans;fill:#555;" text-anchor="middle" x="0" y="-6.000000">I137I</text></g><line x1="236.086262" x2="236.086262" y1="46.500000" y2="74.500000" stroke="#BABDB6" stroke-width="2"/><a xlink:title="H173P"><circle cx="236.086262" cy="46.500000" r="4.000000" fill="#ff0000" /></a><g transform="translate(236.086262,46.500000) rotate(-30)"><text style="font-size:10px;font-family:OpenSans;fill:#555;" text-anchor="middle" x="0" y="-6.000000">H173P</text></g><line x1="255.255591" x2="255.255591" y1="46.500000" y2="74.500000" stroke="#BABDB6" stroke-width="2"/><a xlink:title="R188P"><circle cx="255.255591" cy="46.500000" r="4.000000" fill="#ff0000" /></a><g transform="translate(255.255591,46.500000) rotate(-30)"><text style="font-size:10px;font-family:OpenSans;fill:#555;" text-anchor="middle" x="0" y="-6.000000">R188P</text></g><line x1="335.766773" x2="335.766773" y1="46.500000" y2="74.500000" stroke="#BABDB6" stroke-width="2"/><a xlink:title="A251A"><circle cx="335.766773" cy="46.500000" r="4.000000" fill="#0000ff" /></a><g transform="translate(335.766773,46.500000) rotate(-30)"><text style="font-size:10px;font-family:OpenSans;fill:#555;" text-anchor="middle" x="0" y="-6.000000">A251A</text></g><line x1="416.277955" x2="416.277955" y1="46.500000" y2="74.500000" stroke="#BABDB6" stroke-width="2"/><a xlink:title="*314er?"><circle cx="416.277955" cy="46.500000" r="4.000000" fill="#ff0000" /></a><g transform="translate(416.277955,46.500000) rotate(-30)"><text style="font-size:10px;font-family:OpenSans;fill:#555;" text-anchor="middle" x="0" y="-6.000000">*314er?</text></g><a xlink:title=",  (313aa)"><rect fill="#BABDB6" x="15.000000" y="74.500000" width="400.000000" height="14.000000"/></a><g transform="translate(57.172524,69.500000)"><a xlink:href="https://www.ebi.ac.uk/interpro/entry/pfam/PF13853" xlink:title="Olfactory receptor"><rect fill="#2DCF00" x="0" y="0" width="353.993610" height="24.000000" filter="url(#ds)"/><text style="font-size:12px;font-family:OpenSans;fill:#ffffff;" text-anchor="middle" x="176.996805" y="16.000000">Olfactory receptor</text></a></g>
<g class="axis">
<line x1="15.000000" x2="415.000000" y1="103.500000" y2="103.500000" stroke="#AAAAAA" /><line x1="15.000000" x2="15.000000" y1="103.500000" y2="108.500000" stroke="#AAAAAA" /><line x1="15.000000" x2="15.000000" y1="103.500000" y2="108.500000" stroke="#AAAAAA" /><text style="font-size:10px;font-family:OpenSans;fill:#000000;" text-anchor="middle" x="15.000000" y="118.500000">0</text><line x1="53.338658" x2="53.338658" y1="103.500000" y2="108.500000" stroke="#AAAAAA" /><text style="font-size:10px;font-family:OpenSans;fill:#000000;" text-anchor="middle" x="53.338658" y="118.500000">30</text><line x1="140.239617" x2="140.239617" y1="103.500000" y2="108.500000" stroke="#AAAAAA" /><text style="font-size:10px;font-family:OpenSans;fill:#000000;" text-anchor="middle" x="140.239617" y="118.500000">98</text><line x1="190.079872" x2="190.079872" y1="103.500000" y2="108.500000" stroke="#AAAAAA" /><text style="font-size:10px;font-family:OpenSans;fill:#000000;" text-anchor="middle" x="190.079872" y="118.500000">137</text><line x1="236.086262" x2="236.086262" y1="103.500000" y2="108.500000" stroke="#AAAAAA" /><text style="font-size:10px;font-family:OpenSans;fill:#000000;" text-anchor="middle" x="236.086262" y="118.500000">173</text><line x1="255.255591" x2="255.255591" y1="103.500000" y2="108.500000" stroke="#AAAAAA" /><text style="font-size:10px;font-family:OpenSans;fill:#000000;" text-anchor="middle" x="255.255591" y="118.500000">188</text><line x1="335.766773" x2="335.766773" y1="103.500000" y2="108.500000" stroke="#AAAAAA" /><text style="font-size:10px;font-family:OpenSans;fill:#000000;" text-anchor="middle" x="335.766773" y="118.500000">251</text><line x1="415.000000" x2="415.000000" y1="103.500000" y2="108.500000" stroke="#AAAAAA" /><text style="font-size:10px;font-family:OpenSans;fill:#000000;" text-anchor="middle" x="415.000000" y="118.500000">313</text></g>
</svg>
