<?xml version='1.0'?>
<svg xmlns="http://www.w3.org/2000/svg" xmlns:xlink="http://www.w3.org/1999/xlink" width="1269.406780" height="210.800000">
<defs>
  <filter id="ds" x="0" y="0">
    <feOffset in="SourceAlpha" dx="2" dy="2" />
    <feComponentTransfer><feFuncA type="linear" slope="0.2"/></feComponentTransfer>
    <feGaussianBlur result="blurOut" stdDeviation="1" />
    <feBlend in="SourceGraphic" in2="blurOut" mode="normal" />
  </filter>
  <pattern id="disordered-hatch" patternUnits="userSpaceOnUse" width="4" height="4">
    <path d="M-1,1 l2,-2 M0,4 l4,-4 M3,5 l2,-2" stroke="#000000" opacity="0.3" />
  </pattern>
</defs>
<line x1="39.152542" x2="39.152542" y1="59.000000" y2="87.000000" stroke="#BABDB6" stroke-width="2"/><a xlink:title="A57S"><circle cx="39.152542" cy="59.000000" r="4.000000" fill="#ff0000" /></a><g transform="translate(39.152542,59.000000) rotate(-30)"><text style="font-size:10px;font-family:OpenSans;fill:#555;" text-anchor="middle" x="0" y="-6.000000">A57S</text></g><line x1="175.169492" x2="175.169492" y1="46.500000" y2="87.000000" stroke="#BABDB6" stroke-width="2"/><a xlink:title="R378Q"><circle cx="175.169492" cy="46.500000" r="4.000000" fill="#ff0000" /></a><g transform="translate(175.169492,46.500000) rotate(-30)"><text style="font-size:10px;font-family:OpenSans;fill:#555;" text-anchor="middle" x="0" y="-6.000000">R378Q</text></g><line x1="180.254237" x2="180.254237" y1="59.000000" y2="87.000000" stroke="#BABDB6" stroke-width="2"/><a xlink:title="R390Q"><circle cx="180.254237" cy="59.000000" r="4.000000" fill="#ff0000" /></a><g transform="translate(180.254237,59.000000) rotate(-30)"><text style="font-size:10px;font-family:OpenSans;fill:#555;" text-anchor="middle" x="0" y="-6.000000">R390Q</text></g><line x1="289.152542" x2="289.152542" y1="46.500000" y2="87.000000" stroke="#BABDB6" stroke-width="2"/><a xlink:title="T647M"><circle cx="289.152542" cy="46.500000" r="4.000000" fill="#ff0000" /></a><g transform="translate(289.152542,46.500000) rotate(-30)"><text style="font-size:10px;font-family:OpenSans;fill:#555;" text-anchor="middle" x="0" y="-6.000000">T647M</text></g><line x1="294.237288" x2="294.237288" y1="59.000000" y2="87.000000" stroke="#BABDB6" stroke-width="2"/><a xlink:title="T659M"><circle cx="294.237288" cy="59.000000" r="4.000000" fill="#ff0000" /></a><g transform="translate(294.237288,59.000000) rotate(-30)"><text style="font-size:10px;font-family:OpenSans;fill:#555;" text-anchor="middle" x="0" y="-6.000000">T659M</text></g><line x1="464.152542" x2="464.152542" y1="46.500000" y2="87.000000" stroke="#BABDB6" stroke-width="2"/><a xlink:title="H1060Y"><circle cx="464.152542" cy="46.500000" r="4.000000" fill="#ff0000" /></a><g transform="translate(464.152542,46.500000) rotate(-30)"><text style="font-size:10px;font-family:OpenSans;fill:#555;" text-anchor="middle" x="0" y="-6.000000">H1060Y</text></g><line x1="469.237288" x2="469.237288" y1="59.000000" y2="87.000000" stroke="#BABDB6" stroke-width="2"/><a xlink:title="H1072Y"><circle cx="469.237288" cy="59.000000" r="4.000000" fill="#ff0000" /></a><g transform="translate(469.237288,59.000000) rotate(-30)"><text style="font-size:10px;font-family:OpenSans;fill:#555;" text-anchor="middle" x="0" y="-6.000000">H1072Y</text></g><line x1="525.593220" x2="525.593220" y1="46.500000" y2="87.000000" stroke="#BABDB6" stroke-width="2"/><a xlink:title="V1205I"><circle cx="525.593220" cy="46.500000" r="4.000000" fill="#ff0000" /></a><g transform="translate(525.593220,46.500000) rotate(-30)"><text style="font-size:10px;font-family:OpenSans;fill:#555;" text-anchor="middle" x="0" y="-6.000000">V1205I</text></g><line x1="530.677966" x2="530.677966" y1="59.000000" y2="87.000000" stroke="#BABDB6" stroke-width="2"/><a xlink:title="V1217I"><circle cx="530.677966" cy="59.000000" r="4.000000" fill="#ff0000" /></a><g transform="translate(530.677966,59.000000) rotate(-30)"><text style="font-size:10px;font-family:OpenSans;fill:#555;" text-anchor="middle" x="0" y="-6.000000">V1217I</text></g><line x1="706.525424" x2="706.525424" y1="46.500000" y2="87.000000" stroke="#BABDB6" stroke-width="2"/><a xlink:title="T1632T"><circle cx="706.525424" cy="46.500000" r="4.000000" fill="#0000ff" /></a><g transform="translate(706.525424,46.500000) rotate(-30)"><text style="font-size:10px;font-family:OpenSans;fill:#555;" text-anchor="middle" x="0" y="-6.000000">T1632T</text></g><line x1="711.610169" x2="711.610169" y1="59.000000" y2="87.000000" stroke="#BABDB6" stroke-width="2"/><a xlink:title="T1644T"><circle cx="711.610169" cy="59.000000" r="4.000000" fill="#0000ff" /></a><g transform="translate(711.610169,59.000000) rotate(-30)"><text style="font-size:10px;font-family:OpenSans;fill:#555;" text-anchor="middle" x="0" y="-6.000000">T1644T</text></g><line x1="747.203390" x2="747.203390" y1="46.500000" y2="87.000000" stroke="#BABDB6" stroke-width="2"/><a xlink:title="A1728A"><circle cx="747.203390" cy="46.500000" r="4.000000" fill="#0000ff" /></a><g transform="translate(747.203390,46.500000) rotate(-30)"><text style="font-size:10px;font-family:OpenSans;fill:#555;" text-anchor="middle" x="0" y="-6.000000">A1728A</text></g><line x1="752.288136" x2="752.288136" y1="59.000000" y2="87.000000" stroke="#BABDB6" stroke-width="2"/><a xlink:title="A1740A"><circle cx="752.288136" cy="59.000000" r="4.000000" fill="#0000ff" /></a><g transform="translate(752.288136,59.000000) rotate(-30)"><text style="font-size:10px;font-family:OpenSans;fill:#555;" text-anchor="middle" x="0" y="-6.000000">A1740A</text></g><line x1="786.186441" x2="786.186441" y1="46.500000" y2="87.000000" stroke="#BABDB6" stroke-width="2"/><a xlink:title="A1820V"><circle cx="786.186441" cy="46.500000" r="4.000000" fill="#ff0000" /></a><g transform="translate(786.186441,46.500000) rotate(-30)"><text style="font-size:10px;font-family:OpenSans;fill:#555;" text-anchor="middle" x="0" y="-6.000000">A1820V</text></g><line x1="791.271186" x2="791.271186" y1="59.000000" y2="87.000000" stroke="#BABDB6" stroke-width="2"/><a xlink:title="A1832V"><circle cx="791.271186" cy="59.000000" r="4.000000" fill="#ff0000" /></a><g transform="translate(791.271186,59.000000) rotate(-30)"><text style="font-size:10px;font-family:OpenSans;fill:#555;" text-anchor="middle" x="0" y="-6.000000">A1832V</text></g><line x1="827.288136" x2="827.288136" y1="46.500000" y2="87.000000" stroke="#BABDB6" stroke-width="2"/><a xlink:title="V1917A"><circle cx="827.288136" cy="46.500000" r="4.000000" fill="#ff0000" /></a><g transform="translate(827.288136,46.500000) rotate(-30)"><text style="font-size:10px;font-family:OpenSans;fill:#555;" text-anchor="middle" x="0" y="-6.000000">V1917A</text></g><line x1="832.372881" x2="832.372881" y1="59.000000" y2="87.000000" stroke="#BABDB6" stroke-width="2"/><a xlink:title="V1929A"><circle cx="832.372881" cy="59.000000" r="4.000000" fill="#ff0000" /></a><g transform="translate(832.372881,59.000000) rotate(-30)"><text style="font-size:10px;font-family:OpenSans;fill:#555;" text-anchor="middle" x="0" y="-6.000000">V1929A</text></g><line x1="859.915254" x2="859.915254" y1="46.500000" y2="87.000000" stroke="#BABDB6" stroke-width="2"/><a xlink:title="A1994V"><circle cx="859.915254" cy="46.500000" r="4.000000" fill="#ff0000" /></a><g transform="translate(859.915254,46.500000) rotate(-30)"><text style="font-size:10px;font-family:OpenSans;fill:#555;" text-anchor="middle" x="0" y="-6.000000">A1994V</text></g><line x1="865.000000" x2="865.000000" y1="59.000000" y2="87.000000" stroke="#BABDB6" stroke-width="2"/><a xlink:title="A2006V"><circle cx="865.000000" cy="59.000000" r="4.000000" fill="#ff0000" /></a><g transform="translate(865.000000,59.000000) rotate(-30)"><text style="font-size:10px;font-family:OpenSans;fill:#555;" text-anchor="middle" x="0" y="-6.000000">A2006V</text></g><line x1="961.610169" x2="961.610169" y1="46.500000" y2="87.000000" stroke="#BABDB6" stroke-width="2"/><a xlink:title="H2234R"><circle cx="961.610169" cy="46.500000" r="4.000000" fill="#ff0000" /></a><g transform="translate(961.610169,46.500000) rotate(-30)"><text style="font-size:10px;font-family:OpenSans;fill:#555;" text-anchor="middle" x="0" y="-6.000000">H2234R</text></g><line x1="966.694915" x2="966.694915" y1="59.000000" y2="87.000000" stroke="#BABDB6" stroke-width="2"/><a xlink:title="H2246R"><circle cx="966.694915" cy="59.000000" r="4.000000" fill="#ff0000" /></a><g transform="translate(966.694915,59.000000) rotate(-30)"><text style="font-size:10px;font-family:OpenSans;fill:#555;" text-anchor="middle" x="0" y="-6.000000">H2246R</text></g><line x1="1016.694915" x2="1016.694915" y1="46.500000" y2="87.000000" stroke="#BABDB6" stroke-width="2"/><a xlink:title="D2364N"><circle cx="1016.694915" cy="46.500000" r="4.000000" fill="#ff0000" /></a><g transform="translate(1016.694915,46.500000) rotate(-30)"><text style="font-size:10px;font-family:OpenSans;fill:#555;" text-anchor="middle" x="0" y="-6.000000">D2364N</text></g><line x1="1021.779661" x2="1021.779661" y1="59.000000" y2="87.000000" stroke="#BABDB6" stroke-width="2"/><a xlink:title="D2376N"><circle cx="1021.779661" cy="59.000000" r="4.000000" fill="#ff0000" /></a><g transform="translate(1021.779661,59.000000) rotate(-30)"><text style="font-size:10px;font-family:OpenSans;fill:#555;" text-anchor="middle" x="0" y="-6.000000">D2376N</text></g><line x1="1060.338983" x2="1060.338983" y1="46.500000" y2="87.000000" stroke="#BABDB6" stroke-width="2"/><a xlink:title="R2467H"><circle cx="1060.338983" cy="46.500000" r="4.000000" fill="#ff0000" /></a><g transform="translate(1060.338983,46.500000) rotate(-30)"><text style="font-size:10px;font-family:OpenSans;fill:#555;" text-anchor="middle" x="0" y="-6.000000">R2467H</text></g><line x1="1065.423729" x2="1065.423729" y1="59.000000" y2="87.000000" stroke="#BABDB6" stroke-width="2"/><a xlink:title="R2479H"><circle cx="1065.423729" cy="59.000000" r="4.000000" fill="#ff0000" /></a><g transform="translate(1065.423729,59.000000) rotate(-30)"><text style="font-size:10px;font-family:OpenSans;fill:#555;" text-anchor="middle" x="0" y="-6.000000">R2479H</text></g><line x1="1085.338983" x2="1085.338983" y1="46.500000" y2="87.000000" stroke="#BABDB6" stroke-width="2"/><a xlink:title="Y2526F"><circle cx="1085.338983" cy="46.500000" r="4.000000" fill="#ff0000" /></a><g transform="translate(1085.338983,46.500000) rotate(-30)"><text style="font-size:10px;font-family:OpenSans;fill:#555;" text-anchor="middle" x="0" y="-6.000000">Y2526F</text></g><line x1="1090.423729" x2="1090.423729" y1="59.000000" y2="87.000000" stroke="#BABDB6" stroke-width="2"/><a xlink:title="Y2538F"><circle cx="1090.423729" cy="59.000000" r="4.000000" fill="#ff0000" /></a><g transform="translate(1090.423729,59.000000) rotate(-30)"><text style="font-size:10px;font-family:OpenSans;fill:#555;" text-anchor="middle" x="0" y="-6.000000">Y2538F</text></g><line x1="1175.169492" x2="1175.169492" y1="34.000000" y2="87.000000" stroke="#BABDB6" stroke-width="2"/><a xlink:title="R2738Q"><circle cx="1175.169492" cy="34.000000" r="4.000000" fill="#ff0000" /></a><g transform="translate(1175.169492,34.000000) rotate(-30)"><text style="font-size:10px;font-family:OpenSans;fill:#555;" text-anchor="middle" x="0" y="-6.000000">R2738Q</text></g><line x1="1179.830508" x2="1179.830508" y1="34.000000" y2="87.000000" stroke="#BABDB6" stroke-width="2"/><a xlink:title="N2749N"><circle cx="1179.830508" cy="34.000000" r="4.000000" fill="#0000ff" /></a><g transform="translate(1179.830508,34.000000) rotate(-30)"><text style="font-size:10px;font-family:OpenSans;fill:#555;" text-anchor="middle" x="0" y="-6.000000">N2749N</text></g><line x1="1180.254237" x2="1180.254237" y1="46.500000" y2="87.000000" stroke="#BABDB6" stroke-width="2"/><a xlink:title="R2750Q"><circle cx="1180.254237" cy="46.500000" r="4.000000" fill="#ff0000" /></a><g transform="translate(1180.254237,46.500000) rotate(-30)"><text style="font-size:10px;font-family:OpenSans;fill:#555;" text-anchor="middle" x="0" y="-6.000000">R2750Q</text></g><line x1="1184.915254" x2="1184.915254" y1="59.000000" y2="87.000000" stroke="#BABDB6" stroke-width="2"/><a xlink:title="N2761N"><circle cx="1184.915254" cy="59.000000" r="4.000000" fill="#0000ff" /></a><g transform="translate(1184.915254,59.000000) rotate(-30)"><text style="font-size:10px;font-family:OpenSans;fill:#555;" text-anchor="middle" x="0" y="-6.000000">N2761N</text></g><a xlink:title=",  (2925aa)"><rect fill="#BABDB6" x="15.000000" y="87.000000" width="1239.406780" height="14.000000"/></a><g transform="translate(79.406780,82.000000)"><a xlink:href="https://www.ebi.ac.uk/interpro/entry/pfam/PF00094" xlink:title="von Willebrand factor type D domain"><rect fill="#2DCF00" x="0" y="0" width="63.559322" height="24.000000" filter="url(#ds)"/><text style="font-size:12px;font-family:OpenSans;fill:#ffffff;" text-anchor="middle" x="31.779661" y="16.000000">VWD</text></a></g>
<g transform="translate(162.881356,82.000000)"><a xlink:href="https://www.ebi.ac.uk/interpro/entry/pfam/PF08742" xlink:title="C8 domain"><rect fill="#FF5353" x="0" y="0" width="28.389831" height="24.000000" filter="url(#ds)"/><text style="font-size:12px;font-family:OpenSans;fill:#ffffff;" text-anchor="middle" x="14.194915" y="16.000000">C8</text></a></g>
<g transform="translate(232.796610,82.000000)"><a xlink:href="https://www.ebi.ac.uk/interpro/entry/pfam/PF00094" xlink:title="von Willebrand factor type D domain"><rect fill="#5B5BFF" x="0" y="0" width="65.254237" height="24.000000" filter="url(#ds)"/><text style="font-size:12px;font-family:OpenSans;fill:#ffffff;" text-anchor="middle" x="32.627119" y="16.000000">VWD</text></a></g>
<g transform="translate(317.118644,82.000000)"><a xlink:href="https://www.ebi.ac.uk/interpro/entry/pfam/PF08742" xlink:title="C8 domain"><rect fill="#EBD61D" x="0" y="0" width="25.000000" height="24.000000" filter="url(#ds)"/><text style="font-size:12px;font-family:OpenSans;fill:#ffffff;" text-anchor="middle" x="12.500000" y="16.000000">C8</text></a></g>
<g transform="translate(345.508475,82.000000)"><a xlink:href="https://www.ebi.ac.uk/interpro/entry/pfam/PF01826" xlink:title="Trypsin Inhibitor like cysteine rich domain"><rect fill="#BA21E0" x="0" y="0" width="27.118644" height="24.000000" filter="url(#ds)"/><text style="font-size:12px;font-family:OpenSans;fill:#ffffff;" text-anchor="middle" x="13.559322" y="16.000000">TIL</text></a></g>
<g transform="translate(432.796610,82.000000)"><a xlink:href="https://www.ebi.ac.uk/interpro/entry/pfam/PF00094" xlink:title="von Willebrand factor type D domain"><rect fill="#FF9C42" x="0" y="0" width="61.440678" height="24.000000" filter="url(#ds)"/><text style="font-size:12px;font-family:OpenSans;fill:#ffffff;" text-anchor="middle" x="30.720339" y="16.000000">VWD</text></a></g>
<g transform="translate(512.033898,82.000000)"><a xlink:href="https://www.ebi.ac.uk/interpro/entry/pfam/PF08742" xlink:title="C8 domain"><rect fill="#FF7DFF" x="0" y="0" width="28.389831" height="24.000000" filter="url(#ds)"/><text style="font-size:12px;font-family:OpenSans;fill:#ffffff;" text-anchor="middle" x="14.194915" y="16.000000">C8</text></a></g>
<g transform="translate(567.966102,82.000000)"><a xlink:href="https://www.ebi.ac.uk/interpro/entry/pfam/PF05270" xlink:title="Alpha-L-arabinofuranosidase B (ABFB) domain"><rect fill="#B9264F" x="0" y="0" width="37.711864" height="24.000000" filter="url(#ds)"/><text style="font-size:12px;font-family:OpenSans;fill:#ffffff;" text-anchor="middle" x="18.855932" y="16.000000">AbfB</text></a></g>
<g transform="translate(909.915254,82.000000)"><a xlink:href="https://www.ebi.ac.uk/interpro/entry/pfam/PF00094" xlink:title="von Willebrand factor type D domain"><rect fill="#BABA21" x="0" y="0" width="64.830508" height="24.000000" filter="url(#ds)"/><text style="font-size:12px;font-family:OpenSans;fill:#ffffff;" text-anchor="middle" x="32.415254" y="16.000000">VWD</text></a></g>
<g transform="translate(992.966102,82.000000)"><a xlink:href="https://www.ebi.ac.uk/interpro/entry/pfam/PF08742" xlink:title="C8 domain"><rect fill="#C48484" x="0" y="0" width="26.271186" height="24.000000" filter="url(#ds)"/><text style="font-size:12px;font-family:OpenSans;fill:#ffffff;" text-anchor="middle" x="13.135593" y="16.000000">C8</text></a></g>
<g class="axis">
<line x1="15.000000" x2="1254.406780" y1="116.000000" y2="116.000000" stroke="#AAAAAA" /><line x1="15.000000" x2="15.000000" y1="116.000000" y2="121.000000" stroke="#AAAAAA" /><line x1="15.000000" x2="15.000000" y1="116.000000" y2="121.000000" stroke="#AAAAAA" /><text style="font-size:10px;font-family:OpenSans;fill:#000000;" text-anchor="middle" x="15.000000" y="131.000000">0</text><line x1="39.152542" x2="39.152542" y1="116.000000" y2="121.000000" stroke="#AAAAAA" /><text style="font-size:10px;font-family:OpenSans;fill:#000000;" text-anchor="middle" x="39.152542" y="131.000000">57</text><line x1="79.406780" x2="79.406780" y1="116.000000" y2="121.000000" stroke="#AAAAAA" /><text style="font-size:10px;font-family:OpenSans;fill:#000000;" text-anchor="middle" x="79.406780" y="131.000000">152</text><line x1="142.966102" x2="142.966102" y1="116.000000" y2="121.000000" stroke="#AAAAAA" /><text style="font-size:10px;font-family:OpenSans;fill:#000000;" text-anchor="middle" x="142.966102" y="131.000000">302</text><line x1="175.169492" x2="175.169492" y1="116.000000" y2="121.000000" stroke="#AAAAAA" /><text style="font-size:10px;font-family:OpenSans;fill:#000000;" text-anchor="middle" x="175.169492" y="131.000000">378</text><line x1="232.796610" x2="232.796610" y1="116.000000" y2="121.000000" stroke="#AAAAAA" /><text style="font-size:10px;font-family:OpenSans;fill:#000000;" text-anchor="middle" x="232.796610" y="131.000000">514</text><line x1="289.152542" x2="289.152542" y1="116.000000" y2="121.000000" stroke="#AAAAAA" /><text style="font-size:10px;font-family:OpenSans;fill:#000000;" text-anchor="middle" x="289.152542" y="131.000000">647</text><line x1="317.118644" x2="317.118644" y1="116.000000" y2="121.000000" stroke="#AAAAAA" /><text style="font-size:10px;font-family:OpenSans;fill:#000000;" text-anchor="middle" x="317.118644" y="131.000000">713</text><line x1="342.118644" x2="342.118644" y1="116.000000" y2="121.000000" stroke="#AAAAAA" /><text style="font-size:10px;font-family:OpenSans;fill:#000000;" text-anchor="middle" x="342.118644" y="131.000000">772</text><line x1="372.627119" x2="372.627119" y1="116.000000" y2="121.000000" stroke="#AAAAAA" /><text style="font-size:10px;font-family:OpenSans;fill:#000000;" text-anchor="middle" x="372.627119" y="131.000000">844</text><line x1="432.796610" x2="432.796610" y1="116.000000" y2="121.000000" stroke="#AAAAAA" /><text style="font-size:10px;font-family:OpenSans;fill:#000000;" text-anchor="middle" x="432.796610" y="131.000000">986</text><line x1="464.152542" x2="464.152542" y1="116.000000" y2="121.000000" stroke="#AAAAAA" /><text style="font-size:10px;font-family:OpenSans;fill:#000000;" text-anchor="middle" x="464.152542" y="131.000000">1060</text><line x1="494.237288" x2="494.237288" y1="116.000000" y2="121.000000" stroke="#AAAAAA" /><text style="font-size:10px;font-family:OpenSans;fill:#000000;" text-anchor="middle" x="494.237288" y="131.000000">1131</text><line x1="525.593220" x2="525.593220" y1="116.000000" y2="121.000000" stroke="#AAAAAA" /><text style="font-size:10px;font-family:OpenSans;fill:#000000;" text-anchor="middle" x="525.593220" y="131.000000">1205</text><line x1="567.966102" x2="567.966102" y1="116.000000" y2="121.000000" stroke="#AAAAAA" /><text style="font-size:10px;font-family:OpenSans;fill:#000000;" text-anchor="middle" x="567.966102" y="131.000000">1305</text><line x1="605.677966" x2="605.677966" y1="116.000000" y2="121.000000" stroke="#AAAAAA" /><text style="font-size:10px;font-family:OpenSans;fill:#000000;" text-anchor="middle" x="605.677966" y="131.000000">1394</text><line x1="706.525424" x2="706.525424" y1="116.000000" y2="121.000000" stroke="#AAAAAA" /><text style="font-size:10px;font-family:OpenSans;fill:#000000;" text-anchor="middle" x="706.525424" y="131.000000">1632</text><line x1="747.203390" x2="747.203390" y1="116.000000" y2="121.000000" stroke="#AAAAAA" /><text style="font-size:10px;font-family:OpenSans;fill:#000000;" text-anchor="middle" x="747.203390" y="131.000000">1728</text><line x1="786.186441" x2="786.186441" y1="116.000000" y2="121.000000" stroke="#AAAAAA" /><text style="font-size:10px;font-family:OpenSans;fill:#000000;" text-anchor="middle" x="786.186441" y="131.000000">1820</text><line x1="827.288136" x2="827.288136" y1="116.000000" y2="121.000000" stroke="#AAAAAA" /><text style="font-size:10px;font-family:OpenSans;fill:#000000;" text-anchor="middle" x="827.288136" y="131.000000">1917</text><line x1="859.915254" x2="859.915254" y1="116.000000" y2="121.000000" stroke="#AAAAAA" /><text style="font-size:10px;font-family:OpenSans;fill:#000000;" text-anchor="middle" x="859.915254" y="131.000000">1994</text><line x1="909.915254" x2="909.915254" y1="116.000000" y2="121.000000" stroke="#AAAAAA" /><text style="font-size:10px;font-family:OpenSans;fill:#000000;" text-anchor="middle" x="909.915254" y="131.000000">2112</text><line x1="961.610169" x2="961.610169" y1="116.000000" y2="121.000000" stroke="#AAAAAA" /><text style="font-size:10px;font-family:OpenSans;fill:#000000;" text-anchor="middle" x="961.610169" y="131.000000">2234</text><line x1="992.966102" x2="992.966102" y1="116.000000" y2="121.000000" stroke="#AAAAAA" /><text style="font-size:10px;font-family:OpenSans;fill:#000000;" text-anchor="middle" x="992.966102" y="131.000000">2308</text><line x1="1016.694915" x2="1016.694915" y1="116.000000" y2="121.000000" stroke="#AAAAAA" /><text style="font-size:10px;font-family:OpenSans;fill:#000000;" text-anchor="middle" x="1016.694915" y="131.000000">2364</text><line x1="1060.338983" x2="1060.338983" y1="116.000000" y2="121.000000" stroke="#AAAAAA" /><text style="font-size:10px;font-family:OpenSans;fill:#000000;" text-anchor="middle" x="1060.338983" y="131.000000">2467</text><line x1="1085.338983" x2="1085.338983" y1="116.000000" y2="121.000000" stroke="#AAAAAA" /><text style="font-size:10px;font-family:OpenSans;fill:#000000;" text-anchor="middle" x="1085.338983" y="131.000000">2526</text><line x1="1175.169492" x2="1175.169492" y1="116.000000" y2="121.000000" stroke="#AAAAAA" /><text style="font-size:10px;font-family:OpenSans;fill:#000000;" text-anchor="middle" x="1175.169492" y="131.000000">2738</text><line x1="1254.406780" x2="1254.406780" y1="116.000000" y2="121.000000" stroke="#AAAAAA" /><text style="font-size:10px;font-family:OpenSans;fill:#000000;" text-anchor="middle" x="1254.406780" y="131.000000">2925</text></g>
<rect fill="#C48484" x="4" y="145.000000" width="12" height="12" filter="url(#ds)"/><text style="font-size:12px;font-family:OpenSans;fill:#000000;" text-anchor="start" x="20" y="157.000000">C8 domain</text><rect fill="#BA21E0" x="4" y="159.000000" width="12" height="12" filter="url(#ds)"/><text style="font-size:12px;font-family:OpenSans;fill:#000000;" text-anchor="start" x="20" y="171.000000">Trypsin Inhibitor like cysteine rich domain</text><rect fill="#B9264F" x="4" y="173.000000" width="12" height="12" filter="url(#ds)"/><text style="font-size:12px;font-family:OpenSans;fill:#000000;" text-anchor="start" x="20" y="185.000000">Alpha-L-arabinofuranosidase B (ABFB) domain</text><rect fill="#BABA21" x="4" y="187.000000" width="12" height="12" filter="url(#ds)"/><text style="font-size:12px;font-family:OpenSans;fill:#000000;" text-anchor="start" x="20" y="199.000000">von Willebrand factor type D domain</text></svg>
