<?xml version='1.0'?>
<svg xmlns="http://www.w3.org/2000/svg" xmlns:xlink="http://www.w3.org/1999/xlink" width="814.000000" height="158.700000">
<defs>
  <filter id="ds" x="0" y="0">
    <feOffset in="SourceAlpha" dx="2" dy="2" />
    <feComponentTransfer><feFuncA type="linear" slope="0.2"/></feComponentTransfer>
    <feGaussianBlur result="blurOut" stdDeviation="1" />
    <feBlend in="SourceGraphic" in2="blurOut" mode="normal" />
  </filter>
  <pattern id="disordered-hatch" patternUnits="userSpaceOnUse" width="4" height="4">
    <path d="M-1,1 l2,-2 M0,4 l4,-4 M3,5 l2,-2" stroke="#000000" opacity="0.3" />
  </pattern>
</defs>
<line x1="20.326087" x2="20.326087" y1="46.500000" y2="74.500000" stroke="#BABDB6" stroke-width="2"/><a xlink:title="L5L"><circle cx="20.326087" cy="46.500000" r="4.000000" fill="#0000ff" /></a><g transform="translate(20.326087,46.500000) rotate(-30)"><text style="font-size:10px;font-family:OpenSans;fill:#555;" text-anchor="middle" x="0" y="-6.000000">L5L</text></g><line x1="197.152174" x2="197.152174" y1="46.500000" y2="74.500000" stroke="#BABDB6" stroke-width="2"/><a xlink:title="N171N"><circle cx="197.152174" cy="46.500000" r="4.000000" fill="#0000ff" /></a><g transform="translate(197.152174,46.500000) rotate(-30)"><text style="font-size:10px;font-family:OpenSans;fill:#555;" text-anchor="middle" x="0" y="-6.000000">N171N</text></g><line x1="242.956522" x2="242.956522" y1="34.000000" y2="74.500000" stroke="#BABDB6" stroke-width="2"/><a xlink:title="N214N"><circle cx="242.956522" cy="34.000000" r="4.000000" fill="#0000ff" /></a><g transform="translate(242.956522,34.000000) rotate(-30)"><text style="font-size:10px;font-family:OpenSans;fill:#555;" text-anchor="middle" x="0" y="-6.000000">N214N</text></g><line x1="244.021739" x2="244.021739" y1="46.500000" y2="74.500000" stroke="#BABDB6" stroke-width="2"/><a xlink:title="N215N"><circle cx="244.021739" cy="46.500000" r="4.000000" fill="#0000ff" /></a><g transform="translate(244.021739,46.500000) rotate(-30)"><text style="font-size:10px;font-family:OpenSans;fill:#555;" text-anchor="middle" x="0" y="-6.000000">N215N</text></g><line x1="358.000000" x2="358.000000" y1="46.500000" y2="74.500000" stroke="#BABDB6" stroke-width="2"/><a xlink:title="A322V"><circle cx="358.000000" cy="46.500000" r="4.000000" fill="#ff0000" /></a><g transform="translate(358.000000,46.500000) rotate(-30)"><text style="font-size:10px;font-family:OpenSans;fill:#555;" text-anchor="middle" x="0" y="-6.000000">A322V</text></g><line x1="386.760870" x2="386.760870" y1="46.500000" y2="74.500000" stroke="#BABDB6" stroke-width="2"/><a xlink:title="G349R"><circle cx="386.760870" cy="46.500000" r="4.000000" fill="#ff0000" /></a><g transform="translate(386.760870,46.500000) rotate(-30)"><text style="font-size:10px;font-family:OpenSans;fill:#555;" text-anchor="middle" x="0" y="-6.000000">G349R</text></g><line x1="403.804348" x2="403.804348" y1="34.000000" y2="74.500000" stroke="#BABDB6" stroke-width="2"/><a xlink:title="A365V"><circle cx="403.804348" cy="34.000000" r="4.000000" fill="#ff0000" /></a><g transform="translate(403.804348,34.000000) rotate(-30)"><text style="font-size:10px;font-family:OpenSans;fill:#555;" text-anchor="middle" x="0" y="-6.000000">A365V</text></g><line x1="404.869565" x2="404.869565" y1="46.500000" y2="74.500000" stroke="#BABDB6" stroke-width="2"/><a xlink:title="A366V"><circle cx="404.869565" cy="46.500000" r="4.000000" fill="#ff0000" /></a><g transform="translate(404.869565,46.500000) rotate(-30)"><text style="font-size:10px;font-family:OpenSans;fill:#555;" text-anchor="middle" x="0" y="-6.000000">A366V</text></g><line x1="458.130435" x2="458.130435" y1="46.500000" y2="74.500000" stroke="#BABDB6" stroke-width="2"/><a xlink:title="P416A"><circle cx="458.130435" cy="46.500000" r="4.000000" fill="#ff0000" /></a><g transform="translate(458.130435,46.500000) rotate(-30)"><text style="font-size:10px;font-family:OpenSans;fill:#555;" text-anchor="middle" x="0" y="-6.000000">P416A</text></g><line x1="503.934783" x2="503.934783" y1="34.000000" y2="74.500000" stroke="#BABDB6" stroke-width="2"/><a xlink:title="P459A"><circle cx="503.934783" cy="34.000000" r="4.000000" fill="#ff0000" /></a><g transform="translate(503.934783,34.000000) rotate(-30)"><text style="font-size:10px;font-family:OpenSans;fill:#555;" text-anchor="middle" x="0" y="-6.000000">P459A</text></g><line x1="505.000000" x2="505.000000" y1="46.500000" y2="74.500000" stroke="#BABDB6" stroke-width="2"/><a xlink:title="P460A"><circle cx="505.000000" cy="46.500000" r="4.000000" fill="#ff0000" /></a><g transform="translate(505.000000,46.500000) rotate(-30)"><text style="font-size:10px;font-family:OpenSans;fill:#555;" text-anchor="middle" x="0" y="-6.000000">P460A</text></g><line x1="590.217391" x2="590.217391" y1="46.500000" y2="74.500000" stroke="#BABDB6" stroke-width="2"/><a xlink:title="N540N"><circle cx="590.217391" cy="46.500000" r="4.000000" fill="#0000ff" /></a><g transform="translate(590.217391,46.500000) rotate(-30)"><text style="font-size:10px;font-family:OpenSans;fill:#555;" text-anchor="middle" x="0" y="-6.000000">N540N</text></g><line x1="751.065217" x2="751.065217" y1="46.500000" y2="74.500000" stroke="#BABDB6" stroke-width="2"/><a xlink:title="A691V"><circle cx="751.065217" cy="46.500000" r="4.000000" fill="#ff0000" /></a><g transform="translate(751.065217,46.500000) rotate(-30)"><text style="font-size:10px;font-family:OpenSans;fill:#555;" text-anchor="middle" x="0" y="-6.000000">A691V</text></g><line x1="779.826087" x2="779.826087" y1="46.500000" y2="74.500000" stroke="#BABDB6" stroke-width="2"/><a xlink:title="P718A"><circle cx="779.826087" cy="46.500000" r="4.000000" fill="#ff0000" /></a><g transform="translate(779.826087,46.500000) rotate(-30)"><text style="font-size:10px;font-family:OpenSans;fill:#555;" text-anchor="middle" x="0" y="-6.000000">P718A</text></g><line x1="838.413043" x2="838.413043" y1="46.500000" y2="74.500000" stroke="#BABDB6" stroke-width="2"/><a xlink:title="T773I"><circle cx="838.413043" cy="46.500000" r="4.000000" fill="#ff0000" /></a><g transform="translate(838.413043,46.500000) rotate(-30)"><text style="font-size:10px;font-family:OpenSans;fill:#555;" text-anchor="middle" x="0" y="-6.000000">T773I</text></g><line x1="851.195652" x2="851.195652" y1="46.500000" y2="74.500000" stroke="#BABDB6" stroke-width="2"/><a xlink:title="P785A"><circle cx="851.195652" cy="46.500000" r="4.000000" fill="#ff0000" /></a><g transform="translate(851.195652,46.500000) rotate(-30)"><text style="font-size:10px;font-family:OpenSans;fill:#555;" text-anchor="middle" x="0" y="-6.000000">P785A</text></g><a xlink:title=",  (736aa)"><rect fill="#BABDB6" x="15.000000" y="74.500000" width="784.000000" height="14.000000"/></a><g transform="translate(637.086957,69.500000)"><a xlink:href="https://www.ebi.ac.uk/interpro/entry/pfam/PF13640" xlink:title="2OG-Fe(II) oxygenase superfamily"><rect fill="#2DCF00" x="0" y="0" width="98.000000" height="24.000000" filter="url(#ds)"/><text style="font-size:12px;font-family:OpenSans;fill:#ffffff;" text-anchor="middle" x="49.000000" y="16.000000">2OG-FeII_Oxy_3</text></a></g>
<g class="axis">
<line x1="15.000000" x2="799.000000" y1="103.500000" y2="103.500000" stroke="#AAAAAA" /><line x1="15.000000" x2="15.000000" y1="103.500000" y2="108.500000" stroke="#AAAAAA" /><line x1="20.326087" x2="20.326087" y1="103.500000" y2="108.500000" stroke="#AAAAAA" /><text style="font-size:10px;font-family:OpenSans;fill:#000000;" text-anchor="middle" x="20.326087" y="118.500000">5</text><line x1="197.152174" x2="197.152174" y1="103.500000" y2="108.500000" stroke="#AAAAAA" /><text style="font-size:10px;font-family:OpenSans;fill:#000000;" text-anchor="middle" x="197.152174" y="118.500000">171</text><line x1="242.956522" x2="242.956522" y1="103.500000" y2="108.500000" stroke="#AAAAAA" /><text style="font-size:10px;font-family:OpenSans;fill:#000000;" text-anchor="middle" x="242.956522" y="118.500000">214</text><line x1="358.000000" x2="358.000000" y1="103.500000" y2="108.500000" stroke="#AAAAAA" /><text style="font-size:10px;font-family:OpenSans;fill:#000000;" text-anchor="middle" x="358.000000" y="118.500000">322</text><line x1="386.760870" x2="386.760870" y1="103.500000" y2="108.500000" stroke="#AAAAAA" /><text style="font-size:10px;font-family:OpenSans;fill:#000000;" text-anchor="middle" x="386.760870" y="118.500000">349</text><line x1="458.130435" x2="458.130435" y1="103.500000" y2="108.500000" stroke="#AAAAAA" /><text style="font-size:10px;font-family:OpenSans;fill:#000000;" text-anchor="middle" x="458.130435" y="118.500000">416</text><line x1="503.934783" x2="503.934783" y1="103.500000" y2="108.500000" stroke="#AAAAAA" /><text style="font-size:10px;font-family:OpenSans;fill:#000000;" text-anchor="middle" x="503.934783" y="118.500000">459</text><line x1="590.217391" x2="590.217391" y1="103.500000" y2="108.500000" stroke="#AAAAAA" /><text style="font-size:10px;font-family:OpenSans;fill:#000000;" text-anchor="middle" x="590.217391" y="118.500000">540</text><line x1="637.086957" x2="637.086957" y1="103.500000" y2="108.500000" stroke="#AAAAAA" /><text style="font-size:10px;font-family:OpenSans;fill:#000000;" text-anchor="middle" x="637.086957" y="118.500000">584</text><line x1="751.065217" x2="751.065217" y1="103.500000" y2="108.500000" stroke="#AAAAAA" /><text style="font-size:10px;font-family:OpenSans;fill:#000000;" text-anchor="middle" x="751.065217" y="118.500000">691</text><line x1="799.000000" x2="799.000000" y1="103.500000" y2="108.500000" stroke="#AAAAAA" /><text style="font-size:10px;font-family:OpenSans;fill:#000000;" text-anchor="middle" x="799.000000" y="118.500000">736</text><line x1="838.413043" x2="838.413043" y1="103.500000" y2="108.500000" stroke="#AAAAAA" /><text style="font-size:10px;font-family:OpenSans;fill:#000000;" text-anchor="middle" x="838.413043" y="118.500000">773</text></g>
<rect fill="#2DCF00" x="4" y="132.500000" width="12" height="12" filter="url(#ds)"/><text style="font-size:12px;font-family:OpenSans;fill:#000000;" text-anchor="start" x="20" y="144.500000">2OG-Fe(II) oxygenase superfamily</text></svg>
