<?xml version='1.0'?>
<svg xmlns="http://www.w3.org/2000/svg" xmlns:xlink="http://www.w3.org/1999/xlink" width="430.000000" height="146.200000">
<defs>
  <filter id="ds" x="0" y="0">
    <feOffset in="SourceAlpha" dx="2" dy="2" />
    <feComponentTransfer><feFuncA type="linear" slope="0.2"/></feComponentTransfer>
    <feGaussianBlur result="blurOut" stdDeviation="1" />
    <feBlend in="SourceGraphic" in2="blurOut" mode="normal" />
  </filter>
  <pattern id="disordered-hatch" patternUnits="userSpaceOnUse" width="4" height="4">
    <path d="M-1,1 l2,-2 M0,4 l4,-4 M3,5 l2,-2" stroke="#000000" opacity="0.3" />
  </pattern>
</defs>
<line x1="48.783784" x2="48.783784" y1="34.000000" y2="62.000000" stroke="#BABDB6" stroke-width="2"/><a xlink:title="A25A"><circle cx="48.783784" cy="34.000000" r="4.000000" fill="#0000ff" /></a><g transform="translate(48.783784,34.000000) rotate(-30)"><text style="font-size:10px;font-family:OpenSans;fill:#555;" text-anchor="middle" x="0" y="-6.000000">A25A</text></g><line x1="163.648649" x2="163.648649" y1="34.000000" y2="62.000000" stroke="#BABDB6" stroke-width="2"/><a xlink:title="R110Q"><circle cx="163.648649" cy="34.000000" r="4.000000" fill="#ff0000" /></a><g transform="translate(163.648649,34.000000) rotate(-30)"><text style="font-size:10px;font-family:OpenSans;fill:#555;" text-anchor="middle" x="0" y="-6.000000">R110Q</text></g><line x1="248.783784" x2="248.783784" y1="34.000000" y2="62.000000" stroke="#BABDB6" stroke-width="2"/><a xlink:title="L173L"><circle cx="248.783784" cy="34.000000" r="4.000000" fill="#0000ff" /></a><g transform="translate(248.783784,34.000000) rotate(-30)"><text style="font-size:10px;font-family:OpenSans;fill:#555;" text-anchor="middle" x="0" y="-6.000000">L173L</text></g><line x1="256.891892" x2="256.891892" y1="34.000000" y2="62.000000" stroke="#BABDB6" stroke-width="2"/><a xlink:title="W179*"><circle cx="256.891892" cy="34.000000" r="4.000000" fill="#0000ff" /></a><g transform="translate(256.891892,34.000000) rotate(-30)"><text style="font-size:10px;font-family:OpenSans;fill:#555;" text-anchor="middle" x="0" y="-6.000000">W179*</text></g><line x1="323.108108" x2="323.108108" y1="34.000000" y2="62.000000" stroke="#BABDB6" stroke-width="2"/><a xlink:title="R228Q"><circle cx="323.108108" cy="34.000000" r="4.000000" fill="#ff0000" /></a><g transform="translate(323.108108,34.000000) rotate(-30)"><text style="font-size:10px;font-family:OpenSans;fill:#555;" text-anchor="middle" x="0" y="-6.000000">R228Q</text></g><line x1="342.027027" x2="342.027027" y1="34.000000" y2="62.000000" stroke="#BABDB6" stroke-width="2"/><a xlink:title="I242V"><circle cx="342.027027" cy="34.000000" r="4.000000" fill="#ff0000" /></a><g transform="translate(342.027027,34.000000) rotate(-30)"><text style="font-size:10px;font-family:OpenSans;fill:#555;" text-anchor="middle" x="0" y="-6.000000">I242V</text></g><line x1="365.000000" x2="365.000000" y1="34.000000" y2="62.000000" stroke="#BABDB6" stroke-width="2"/><a xlink:title="L259F"><circle cx="365.000000" cy="34.000000" r="4.000000" fill="#ff0000" /></a><g transform="translate(365.000000,34.000000) rotate(-30)"><text style="font-size:10px;font-family:OpenSans;fill:#555;" text-anchor="middle" x="0" y="-6.000000">L259F</text></g><line x1="408.243243" x2="408.243243" y1="34.000000" y2="62.000000" stroke="#BABDB6" stroke-width="2"/><a xlink:title="L291L"><circle cx="408.243243" cy="34.000000" r="4.000000" fill="#0000ff" /></a><g transform="translate(408.243243,34.000000) rotate(-30)"><text style="font-size:10px;font-family:OpenSans;fill:#555;" text-anchor="middle" x="0" y="-6.000000">L291L</text></g><line x1="416.351351" x2="416.351351" y1="34.000000" y2="62.000000" stroke="#BABDB6" stroke-width="2"/><a xlink:title="W297*"><circle cx="416.351351" cy="34.000000" r="4.000000" fill="#0000ff" /></a><g transform="translate(416.351351,34.000000) rotate(-30)"><text style="font-size:10px;font-family:OpenSans;fill:#555;" text-anchor="middle" x="0" y="-6.000000">W297*</text></g><a xlink:title=",  (296aa)"><rect fill="#BABDB6" x="15.000000" y="62.000000" width="400.000000" height="14.000000"/></a><g transform="translate(109.594595,57.000000)"><a xlink:href="https://www.ebi.ac.uk/interpro/entry/pfam/PF10274" xlink:title="Parkin co-regulated protein"><rect fill="#2DCF00" x="0" y="0" width="182.432432" height="24.000000" filter="url(#ds)"/><text style="font-size:12px;font-family:OpenSans;fill:#ffffff;" text-anchor="middle" x="91.216216" y="16.000000">Parkin co-regulated protein</text></a></g>
<g transform="translate(340.675676,57.000000)"><a xlink:href="https://www.ebi.ac.uk/interpro/entry/pfam/PF10274" xlink:title="Parkin co-regulated protein"><rect fill="#FF5353" x="0" y="0" width="68.918919" height="24.000000" filter="url(#ds)"/><text style="font-size:12px;font-family:OpenSans;fill:#ffffff;" text-anchor="middle" x="34.459459" y="16.000000">ParcG</text></a></g>
<g class="axis">
<line x1="15.000000" x2="415.000000" y1="91.000000" y2="91.000000" stroke="#AAAAAA" /><line x1="15.000000" x2="15.000000" y1="91.000000" y2="96.000000" stroke="#AAAAAA" /><line x1="15.000000" x2="15.000000" y1="91.000000" y2="96.000000" stroke="#AAAAAA" /><text style="font-size:10px;font-family:OpenSans;fill:#000000;" text-anchor="middle" x="15.000000" y="106.000000">0</text><line x1="48.783784" x2="48.783784" y1="91.000000" y2="96.000000" stroke="#AAAAAA" /><text style="font-size:10px;font-family:OpenSans;fill:#000000;" text-anchor="middle" x="48.783784" y="106.000000">25</text><line x1="109.594595" x2="109.594595" y1="91.000000" y2="96.000000" stroke="#AAAAAA" /><text style="font-size:10px;font-family:OpenSans;fill:#000000;" text-anchor="middle" x="109.594595" y="106.000000">70</text><line x1="163.648649" x2="163.648649" y1="91.000000" y2="96.000000" stroke="#AAAAAA" /><text style="font-size:10px;font-family:OpenSans;fill:#000000;" text-anchor="middle" x="163.648649" y="106.000000">110</text><line x1="248.783784" x2="248.783784" y1="91.000000" y2="96.000000" stroke="#AAAAAA" /><text style="font-size:10px;font-family:OpenSans;fill:#000000;" text-anchor="middle" x="248.783784" y="106.000000">173</text><line x1="292.027027" x2="292.027027" y1="91.000000" y2="96.000000" stroke="#AAAAAA" /><text style="font-size:10px;font-family:OpenSans;fill:#000000;" text-anchor="middle" x="292.027027" y="106.000000">205</text><line x1="323.108108" x2="323.108108" y1="91.000000" y2="96.000000" stroke="#AAAAAA" /><text style="font-size:10px;font-family:OpenSans;fill:#000000;" text-anchor="middle" x="323.108108" y="106.000000">228</text><line x1="342.027027" x2="342.027027" y1="91.000000" y2="96.000000" stroke="#AAAAAA" /><text style="font-size:10px;font-family:OpenSans;fill:#000000;" text-anchor="middle" x="342.027027" y="106.000000">242</text><line x1="365.000000" x2="365.000000" y1="91.000000" y2="96.000000" stroke="#AAAAAA" /><text style="font-size:10px;font-family:OpenSans;fill:#000000;" text-anchor="middle" x="365.000000" y="106.000000">259</text><line x1="415.000000" x2="415.000000" y1="91.000000" y2="96.000000" stroke="#AAAAAA" /><text style="font-size:10px;font-family:OpenSans;fill:#000000;" text-anchor="middle" x="415.000000" y="106.000000">296</text></g>
<rect fill="#FF5353" x="4" y="120.000000" width="12" height="12" filter="url(#ds)"/><text style="font-size:12px;font-family:OpenSans;fill:#000000;" text-anchor="start" x="20" y="132.000000">Parkin co-regulated protein</text></svg>
