<?xml version='1.0'?>
<svg xmlns="http://www.w3.org/2000/svg" xmlns:xlink="http://www.w3.org/1999/xlink" width="850.000000" height="171.900000">
<defs>
  <filter id="ds" x="0" y="0">
    <feOffset in="SourceAlpha" dx="2" dy="2" />
    <feComponentTransfer><feFuncA type="linear" slope="0.2"/></feComponentTransfer>
    <feGaussianBlur result="blurOut" stdDeviation="1" />
    <feBlend in="SourceGraphic" in2="blurOut" mode="normal" />
  </filter>
  <pattern id="disordered-hatch" patternUnits="userSpaceOnUse" width="4" height="4">
    <path d="M-1,1 l2,-2 M0,4 l4,-4 M3,5 l2,-2" stroke="#000000" opacity="0.3" />
  </pattern>
</defs>
<line x1="79.916667" x2="79.916667" y1="46.500000" y2="74.500000" stroke="#BABDB6" stroke-width="2"/><a xlink:title="G57G"><circle cx="79.916667" cy="46.500000" r="4.000000" fill="#0000ff" /></a><g transform="translate(79.916667,46.500000) rotate(-30)"><text style="font-size:10px;font-family:OpenSans;fill:#555;" text-anchor="middle" x="0" y="-6.000000">G57G</text></g><line x1="125.472222" x2="125.472222" y1="46.500000" y2="74.500000" stroke="#BABDB6" stroke-width="2"/><a xlink:title="G97G"><circle cx="125.472222" cy="46.500000" r="4.000000" fill="#0000ff" /></a><g transform="translate(125.472222,46.500000) rotate(-30)"><text style="font-size:10px;font-family:OpenSans;fill:#555;" text-anchor="middle" x="0" y="-6.000000">G97G</text></g><line x1="163.055556" x2="163.055556" y1="46.500000" y2="74.500000" stroke="#BABDB6" stroke-width="2"/><a xlink:title="S130S"><circle cx="163.055556" cy="46.500000" r="4.000000" fill="#0000ff" /></a><g transform="translate(163.055556,46.500000) rotate(-30)"><text style="font-size:10px;font-family:OpenSans;fill:#555;" text-anchor="middle" x="0" y="-6.000000">S130S</text></g><line x1="208.611111" x2="208.611111" y1="46.500000" y2="74.500000" stroke="#BABDB6" stroke-width="2"/><a xlink:title="S170S"><circle cx="208.611111" cy="46.500000" r="4.000000" fill="#0000ff" /></a><g transform="translate(208.611111,46.500000) rotate(-30)"><text style="font-size:10px;font-family:OpenSans;fill:#555;" text-anchor="middle" x="0" y="-6.000000">S170S</text></g><line x1="246.194444" x2="246.194444" y1="46.500000" y2="74.500000" stroke="#BABDB6" stroke-width="2"/><a xlink:title="F203F"><circle cx="246.194444" cy="46.500000" r="4.000000" fill="#0000ff" /></a><g transform="translate(246.194444,46.500000) rotate(-30)"><text style="font-size:10px;font-family:OpenSans;fill:#555;" text-anchor="middle" x="0" y="-6.000000">F203F</text></g><line x1="327.055556" x2="327.055556" y1="46.500000" y2="74.500000" stroke="#BABDB6" stroke-width="2"/><a xlink:title="F274F"><circle cx="327.055556" cy="46.500000" r="4.000000" fill="#0000ff" /></a><g transform="translate(327.055556,46.500000) rotate(-30)"><text style="font-size:10px;font-family:OpenSans;fill:#555;" text-anchor="middle" x="0" y="-6.000000">F274F</text></g><line x1="372.611111" x2="372.611111" y1="46.500000" y2="74.500000" stroke="#BABDB6" stroke-width="2"/><a xlink:title="F314F"><circle cx="372.611111" cy="46.500000" r="4.000000" fill="#0000ff" /></a><g transform="translate(372.611111,46.500000) rotate(-30)"><text style="font-size:10px;font-family:OpenSans;fill:#555;" text-anchor="middle" x="0" y="-6.000000">F314F</text></g><line x1="391.972222" x2="391.972222" y1="46.500000" y2="74.500000" stroke="#BABDB6" stroke-width="2"/><a xlink:title="F331F"><circle cx="391.972222" cy="46.500000" r="4.000000" fill="#0000ff" /></a><g transform="translate(391.972222,46.500000) rotate(-30)"><text style="font-size:10px;font-family:OpenSans;fill:#555;" text-anchor="middle" x="0" y="-6.000000">F331F</text></g><line x1="454.611111" x2="454.611111" y1="46.500000" y2="74.500000" stroke="#BABDB6" stroke-width="2"/><a xlink:title="R386H"><circle cx="454.611111" cy="46.500000" r="4.000000" fill="#ff0000" /></a><g transform="translate(454.611111,46.500000) rotate(-30)"><text style="font-size:10px;font-family:OpenSans;fill:#555;" text-anchor="middle" x="0" y="-6.000000">R386H</text></g><line x1="470.555556" x2="470.555556" y1="46.500000" y2="74.500000" stroke="#BABDB6" stroke-width="2"/><a xlink:title="K400K"><circle cx="470.555556" cy="46.500000" r="4.000000" fill="#0000ff" /></a><g transform="translate(470.555556,46.500000) rotate(-30)"><text style="font-size:10px;font-family:OpenSans;fill:#555;" text-anchor="middle" x="0" y="-6.000000">K400K</text></g><line x1="505.861111" x2="505.861111" y1="46.500000" y2="74.500000" stroke="#BABDB6" stroke-width="2"/><a xlink:title="Q431R"><circle cx="505.861111" cy="46.500000" r="4.000000" fill="#ff0000" /></a><g transform="translate(505.861111,46.500000) rotate(-30)"><text style="font-size:10px;font-family:OpenSans;fill:#555;" text-anchor="middle" x="0" y="-6.000000">Q431R</text></g><line x1="535.472222" x2="535.472222" y1="46.500000" y2="74.500000" stroke="#BABDB6" stroke-width="2"/><a xlink:title="R457H"><circle cx="535.472222" cy="46.500000" r="4.000000" fill="#ff0000" /></a><g transform="translate(535.472222,46.500000) rotate(-30)"><text style="font-size:10px;font-family:OpenSans;fill:#555;" text-anchor="middle" x="0" y="-6.000000">R457H</text></g><line x1="551.416667" x2="551.416667" y1="46.500000" y2="74.500000" stroke="#BABDB6" stroke-width="2"/><a xlink:title="K471K"><circle cx="551.416667" cy="46.500000" r="4.000000" fill="#0000ff" /></a><g transform="translate(551.416667,46.500000) rotate(-30)"><text style="font-size:10px;font-family:OpenSans;fill:#555;" text-anchor="middle" x="0" y="-6.000000">K471K</text></g><line x1="581.027778" x2="581.027778" y1="34.000000" y2="74.500000" stroke="#BABDB6" stroke-width="2"/><a xlink:title="R497H"><circle cx="581.027778" cy="34.000000" r="4.000000" fill="#ff0000" /></a><g transform="translate(581.027778,34.000000) rotate(-30)"><text style="font-size:10px;font-family:OpenSans;fill:#555;" text-anchor="middle" x="0" y="-6.000000">R497H</text></g><line x1="586.722222" x2="586.722222" y1="46.500000" y2="74.500000" stroke="#BABDB6" stroke-width="2"/><a xlink:title="Q502R"><circle cx="586.722222" cy="46.500000" r="4.000000" fill="#ff0000" /></a><g transform="translate(586.722222,46.500000) rotate(-30)"><text style="font-size:10px;font-family:OpenSans;fill:#555;" text-anchor="middle" x="0" y="-6.000000">Q502R</text></g><line x1="596.972222" x2="596.972222" y1="34.000000" y2="74.500000" stroke="#BABDB6" stroke-width="2"/><a xlink:title="K511K"><circle cx="596.972222" cy="34.000000" r="4.000000" fill="#0000ff" /></a><g transform="translate(596.972222,34.000000) rotate(-30)"><text style="font-size:10px;font-family:OpenSans;fill:#555;" text-anchor="middle" x="0" y="-6.000000">K511K</text></g><line x1="600.388889" x2="600.388889" y1="46.500000" y2="74.500000" stroke="#BABDB6" stroke-width="2"/><a xlink:title="R514H"><circle cx="600.388889" cy="46.500000" r="4.000000" fill="#ff0000" /></a><g transform="translate(600.388889,46.500000) rotate(-30)"><text style="font-size:10px;font-family:OpenSans;fill:#555;" text-anchor="middle" x="0" y="-6.000000">R514H</text></g><line x1="616.333333" x2="616.333333" y1="46.500000" y2="74.500000" stroke="#BABDB6" stroke-width="2"/><a xlink:title="K528K"><circle cx="616.333333" cy="46.500000" r="4.000000" fill="#0000ff" /></a><g transform="translate(616.333333,46.500000) rotate(-30)"><text style="font-size:10px;font-family:OpenSans;fill:#555;" text-anchor="middle" x="0" y="-6.000000">K528K</text></g><line x1="632.277778" x2="632.277778" y1="46.500000" y2="74.500000" stroke="#BABDB6" stroke-width="2"/><a xlink:title="Q542R"><circle cx="632.277778" cy="46.500000" r="4.000000" fill="#ff0000" /></a><g transform="translate(632.277778,46.500000) rotate(-30)"><text style="font-size:10px;font-family:OpenSans;fill:#555;" text-anchor="middle" x="0" y="-6.000000">Q542R</text></g><line x1="651.638889" x2="651.638889" y1="46.500000" y2="74.500000" stroke="#BABDB6" stroke-width="2"/><a xlink:title="Q559R"><circle cx="651.638889" cy="46.500000" r="4.000000" fill="#ff0000" /></a><g transform="translate(651.638889,46.500000) rotate(-30)"><text style="font-size:10px;font-family:OpenSans;fill:#555;" text-anchor="middle" x="0" y="-6.000000">Q559R</text></g><a xlink:title=",  (720aa)"><rect fill="#BABDB6" x="15.000000" y="74.500000" width="820.000000" height="14.000000"/></a><g transform="translate(160.777778,69.500000)"><a xlink:href="https://www.ebi.ac.uk/interpro/entry/pfam/PF00431" xlink:title="CUB domain"><rect fill="#2DCF00" x="0" y="0" width="119.583333" height="24.000000" filter="url(#ds)"/><text style="font-size:12px;font-family:OpenSans;fill:#ffffff;" text-anchor="middle" x="59.791667" y="16.000000">CUB domain</text></a></g>
<g transform="translate(287.194444,69.500000)"><a xlink:href="https://www.ebi.ac.uk/interpro/entry/pfam/PF00008" xlink:title="EGF-like domain"><rect fill="#FF5353" x="0" y="0" width="35.305556" height="24.000000" filter="url(#ds)"/><text style="font-size:12px;font-family:OpenSans;fill:#ffffff;" text-anchor="middle" x="17.652778" y="16.000000">EGF</text></a></g>
<g transform="translate(350.972222,69.500000)"><a xlink:href="https://www.ebi.ac.uk/interpro/entry/pfam/PF00084" xlink:title="Sushi repeat (SCR repeat)"><rect fill="#5B5BFF" x="0" y="0" width="53.527778" height="24.000000" filter="url(#ds)"/><text style="font-size:12px;font-family:OpenSans;fill:#ffffff;" text-anchor="middle" x="26.763889" y="16.000000">Sushi</text></a></g>
<g transform="translate(477.388889,69.500000)"><a xlink:href="https://www.ebi.ac.uk/interpro/entry/pfam/PF00084" xlink:title="Sushi repeat (SCR repeat)"><rect fill="#EBD61D" x="0" y="0" width="41.000000" height="24.000000" filter="url(#ds)"/><text style="font-size:12px;font-family:OpenSans;fill:#ffffff;" text-anchor="middle" x="20.500000" y="16.000000">Sushi</text></a></g>
<g transform="translate(536.611111,69.500000)"><a xlink:href="https://www.ebi.ac.uk/interpro/entry/pfam/PF00089" xlink:title="Trypsin"><rect fill="#BA21E0" x="0" y="0" width="292.694444" height="24.000000" filter="url(#ds)"/><text style="font-size:12px;font-family:OpenSans;fill:#ffffff;" text-anchor="middle" x="146.347222" y="16.000000">Trypsin</text></a></g>
<g class="axis">
<line x1="15.000000" x2="835.000000" y1="103.500000" y2="103.500000" stroke="#AAAAAA" /><line x1="15.000000" x2="15.000000" y1="103.500000" y2="108.500000" stroke="#AAAAAA" /><line x1="15.000000" x2="15.000000" y1="103.500000" y2="108.500000" stroke="#AAAAAA" /><text style="font-size:10px;font-family:OpenSans;fill:#000000;" text-anchor="middle" x="15.000000" y="118.500000">0</text><line x1="79.916667" x2="79.916667" y1="103.500000" y2="108.500000" stroke="#AAAAAA" /><text style="font-size:10px;font-family:OpenSans;fill:#000000;" text-anchor="middle" x="79.916667" y="118.500000">57</text><line x1="125.472222" x2="125.472222" y1="103.500000" y2="108.500000" stroke="#AAAAAA" /><text style="font-size:10px;font-family:OpenSans;fill:#000000;" text-anchor="middle" x="125.472222" y="118.500000">97</text><line x1="163.055556" x2="163.055556" y1="103.500000" y2="108.500000" stroke="#AAAAAA" /><text style="font-size:10px;font-family:OpenSans;fill:#000000;" text-anchor="middle" x="163.055556" y="118.500000">130</text><line x1="208.611111" x2="208.611111" y1="103.500000" y2="108.500000" stroke="#AAAAAA" /><text style="font-size:10px;font-family:OpenSans;fill:#000000;" text-anchor="middle" x="208.611111" y="118.500000">170</text><line x1="246.194444" x2="246.194444" y1="103.500000" y2="108.500000" stroke="#AAAAAA" /><text style="font-size:10px;font-family:OpenSans;fill:#000000;" text-anchor="middle" x="246.194444" y="118.500000">203</text><line x1="280.361111" x2="280.361111" y1="103.500000" y2="108.500000" stroke="#AAAAAA" /><text style="font-size:10px;font-family:OpenSans;fill:#000000;" text-anchor="middle" x="280.361111" y="118.500000">233</text><line x1="327.055556" x2="327.055556" y1="103.500000" y2="108.500000" stroke="#AAAAAA" /><text style="font-size:10px;font-family:OpenSans;fill:#000000;" text-anchor="middle" x="327.055556" y="118.500000">274</text><line x1="350.972222" x2="350.972222" y1="103.500000" y2="108.500000" stroke="#AAAAAA" /><text style="font-size:10px;font-family:OpenSans;fill:#000000;" text-anchor="middle" x="350.972222" y="118.500000">295</text><line x1="372.611111" x2="372.611111" y1="103.500000" y2="108.500000" stroke="#AAAAAA" /><text style="font-size:10px;font-family:OpenSans;fill:#000000;" text-anchor="middle" x="372.611111" y="118.500000">314</text><line x1="391.972222" x2="391.972222" y1="103.500000" y2="108.500000" stroke="#AAAAAA" /><text style="font-size:10px;font-family:OpenSans;fill:#000000;" text-anchor="middle" x="391.972222" y="118.500000">331</text><line x1="454.611111" x2="454.611111" y1="103.500000" y2="108.500000" stroke="#AAAAAA" /><text style="font-size:10px;font-family:OpenSans;fill:#000000;" text-anchor="middle" x="454.611111" y="118.500000">386</text><line x1="477.388889" x2="477.388889" y1="103.500000" y2="108.500000" stroke="#AAAAAA" /><text style="font-size:10px;font-family:OpenSans;fill:#000000;" text-anchor="middle" x="477.388889" y="118.500000">406</text><line x1="505.861111" x2="505.861111" y1="103.500000" y2="108.500000" stroke="#AAAAAA" /><text style="font-size:10px;font-family:OpenSans;fill:#000000;" text-anchor="middle" x="505.861111" y="118.500000">431</text><line x1="535.472222" x2="535.472222" y1="103.500000" y2="108.500000" stroke="#AAAAAA" /><text style="font-size:10px;font-family:OpenSans;fill:#000000;" text-anchor="middle" x="535.472222" y="118.500000">457</text><line x1="581.027778" x2="581.027778" y1="103.500000" y2="108.500000" stroke="#AAAAAA" /><text style="font-size:10px;font-family:OpenSans;fill:#000000;" text-anchor="middle" x="581.027778" y="118.500000">497</text><line x1="600.388889" x2="600.388889" y1="103.500000" y2="108.500000" stroke="#AAAAAA" /><text style="font-size:10px;font-family:OpenSans;fill:#000000;" text-anchor="middle" x="600.388889" y="118.500000">514</text><line x1="632.277778" x2="632.277778" y1="103.500000" y2="108.500000" stroke="#AAAAAA" /><text style="font-size:10px;font-family:OpenSans;fill:#000000;" text-anchor="middle" x="632.277778" y="118.500000">542</text><line x1="651.638889" x2="651.638889" y1="103.500000" y2="108.500000" stroke="#AAAAAA" /><text style="font-size:10px;font-family:OpenSans;fill:#000000;" text-anchor="middle" x="651.638889" y="118.500000">559</text><line x1="835.000000" x2="835.000000" y1="103.500000" y2="108.500000" stroke="#AAAAAA" /><text style="font-size:10px;font-family:OpenSans;fill:#000000;" text-anchor="middle" x="835.000000" y="118.500000">720</text></g>
<rect fill="#FF5353" x="4" y="132.500000" width="12" height="12" filter="url(#ds)"/><text style="font-size:12px;font-family:OpenSans;fill:#000000;" text-anchor="start" x="20" y="144.500000">EGF-like domain</text><rect fill="#EBD61D" x="4" y="146.500000" width="12" height="12" filter="url(#ds)"/><text style="font-size:12px;font-family:OpenSans;fill:#000000;" text-anchor="start" x="20" y="158.500000">Sushi repeat (SCR repeat)</text></svg>
