<?xml version='1.0'?>
<svg xmlns="http://www.w3.org/2000/svg" xmlns:xlink="http://www.w3.org/1999/xlink" width="1865.560976" height="158.700000">
<defs>
  <filter id="ds" x="0" y="0">
    <feOffset in="SourceAlpha" dx="2" dy="2" />
    <feComponentTransfer><feFuncA type="linear" slope="0.2"/></feComponentTransfer>
    <feGaussianBlur result="blurOut" stdDeviation="1" />
    <feBlend in="SourceGraphic" in2="blurOut" mode="normal" />
  </filter>
  <pattern id="disordered-hatch" patternUnits="userSpaceOnUse" width="4" height="4">
    <path d="M-1,1 l2,-2 M0,4 l4,-4 M3,5 l2,-2" stroke="#000000" opacity="0.3" />
  </pattern>
</defs>
<line x1="716.195122" x2="716.195122" y1="46.500000" y2="74.500000" stroke="#BABDB6" stroke-width="2"/><a xlink:title="D518N"><circle cx="716.195122" cy="46.500000" r="4.000000" fill="#ff0000" /></a><g transform="translate(716.195122,46.500000) rotate(-30)"><text style="font-size:10px;font-family:OpenSans;fill:#555;" text-anchor="middle" x="0" y="-6.000000">D518N</text></g><line x1="775.756098" x2="775.756098" y1="46.500000" y2="74.500000" stroke="#BABDB6" stroke-width="2"/><a xlink:title="D562N"><circle cx="775.756098" cy="46.500000" r="4.000000" fill="#ff0000" /></a><g transform="translate(775.756098,46.500000) rotate(-30)"><text style="font-size:10px;font-family:OpenSans;fill:#555;" text-anchor="middle" x="0" y="-6.000000">D562N</text></g><line x1="793.353659" x2="793.353659" y1="46.500000" y2="74.500000" stroke="#BABDB6" stroke-width="2"/><a xlink:title="D575N"><circle cx="793.353659" cy="46.500000" r="4.000000" fill="#ff0000" /></a><g transform="translate(793.353659,46.500000) rotate(-30)"><text style="font-size:10px;font-family:OpenSans;fill:#555;" text-anchor="middle" x="0" y="-6.000000">D575N</text></g><line x1="1479.658537" x2="1479.658537" y1="46.500000" y2="74.500000" stroke="#BABDB6" stroke-width="2"/><a xlink:title="R1082R"><circle cx="1479.658537" cy="46.500000" r="4.000000" fill="#0000ff" /></a><g transform="translate(1479.658537,46.500000) rotate(-30)"><text style="font-size:10px;font-family:OpenSans;fill:#555;" text-anchor="middle" x="0" y="-6.000000">R1082R</text></g><line x1="1509.439024" x2="1509.439024" y1="46.500000" y2="74.500000" stroke="#BABDB6" stroke-width="2"/><a xlink:title="R1104R"><circle cx="1509.439024" cy="46.500000" r="4.000000" fill="#0000ff" /></a><g transform="translate(1509.439024,46.500000) rotate(-30)"><text style="font-size:10px;font-family:OpenSans;fill:#555;" text-anchor="middle" x="0" y="-6.000000">R1104R</text></g><line x1="1518.914634" x2="1518.914634" y1="46.500000" y2="74.500000" stroke="#BABDB6" stroke-width="2"/><a xlink:title="R1111R"><circle cx="1518.914634" cy="46.500000" r="4.000000" fill="#0000ff" /></a><g transform="translate(1518.914634,46.500000) rotate(-30)"><text style="font-size:10px;font-family:OpenSans;fill:#555;" text-anchor="middle" x="0" y="-6.000000">R1111R</text></g><line x1="1569.000000" x2="1569.000000" y1="46.500000" y2="74.500000" stroke="#BABDB6" stroke-width="2"/><a xlink:title="R1148R"><circle cx="1569.000000" cy="46.500000" r="4.000000" fill="#0000ff" /></a><g transform="translate(1569.000000,46.500000) rotate(-30)"><text style="font-size:10px;font-family:OpenSans;fill:#555;" text-anchor="middle" x="0" y="-6.000000">R1148R</text></g><line x1="1581.182927" x2="1581.182927" y1="46.500000" y2="74.500000" stroke="#BABDB6" stroke-width="2"/><a xlink:title="R1157R"><circle cx="1581.182927" cy="46.500000" r="4.000000" fill="#0000ff" /></a><g transform="translate(1581.182927,46.500000) rotate(-30)"><text style="font-size:10px;font-family:OpenSans;fill:#555;" text-anchor="middle" x="0" y="-6.000000">R1157R</text></g><line x1="1609.609756" x2="1609.609756" y1="46.500000" y2="74.500000" stroke="#BABDB6" stroke-width="2"/><a xlink:title="R1178R"><circle cx="1609.609756" cy="46.500000" r="4.000000" fill="#0000ff" /></a><g transform="translate(1609.609756,46.500000) rotate(-30)"><text style="font-size:10px;font-family:OpenSans;fill:#555;" text-anchor="middle" x="0" y="-6.000000">R1178R</text></g><line x1="1627.207317" x2="1627.207317" y1="34.000000" y2="74.500000" stroke="#BABDB6" stroke-width="2"/><a xlink:title="R1191R"><circle cx="1627.207317" cy="34.000000" r="4.000000" fill="#0000ff" /></a><g transform="translate(1627.207317,34.000000) rotate(-30)"><text style="font-size:10px;font-family:OpenSans;fill:#555;" text-anchor="middle" x="0" y="-6.000000">R1191R</text></g><line x1="1631.268293" x2="1631.268293" y1="46.500000" y2="74.500000" stroke="#BABDB6" stroke-width="2"/><a xlink:title="R1194R"><circle cx="1631.268293" cy="46.500000" r="4.000000" fill="#0000ff" /></a><g transform="translate(1631.268293,46.500000) rotate(-30)"><text style="font-size:10px;font-family:OpenSans;fill:#555;" text-anchor="middle" x="0" y="-6.000000">R1194R</text></g><a xlink:title=",  (1356aa)"><rect fill="#BABDB6" x="15.000000" y="74.500000" width="1835.560976" height="14.000000"/></a><g transform="translate(16.353659,69.500000)"><a xlink:href="https://www.ebi.ac.uk/interpro/entry/pfam/PF12053" xlink:title="N-terminal of Par3 and HAL proteins"><rect fill="#2DCF00" x="0" y="0" width="111.000000" height="24.000000" filter="url(#ds)"/><text style="font-size:12px;font-family:OpenSans;fill:#ffffff;" text-anchor="middle" x="55.500000" y="16.000000">Par3_HAL_N_term</text></a></g>
<g transform="translate(640.390244,69.500000)"><a xlink:href="https://www.ebi.ac.uk/interpro/entry/pfam/PF00595" xlink:title="PDZ domain"><rect fill="#FF5353" x="0" y="0" width="111.000000" height="24.000000" filter="url(#ds)"/><text style="font-size:12px;font-family:OpenSans;fill:#ffffff;" text-anchor="middle" x="55.500000" y="16.000000">PDZ domain</text></a></g>
<g transform="translate(819.073171,69.500000)"><a xlink:href="https://www.ebi.ac.uk/interpro/entry/pfam/PF00595" xlink:title="PDZ domain"><rect fill="#5B5BFF" x="0" y="0" width="96.109756" height="24.000000" filter="url(#ds)"/><text style="font-size:12px;font-family:OpenSans;fill:#ffffff;" text-anchor="middle" x="48.054878" y="16.000000">PDZ domain</text></a></g>
<g class="axis">
<line x1="15.000000" x2="1850.560976" y1="103.500000" y2="103.500000" stroke="#AAAAAA" /><line x1="15.000000" x2="15.000000" y1="103.500000" y2="108.500000" stroke="#AAAAAA" /><line x1="16.353659" x2="16.353659" y1="103.500000" y2="108.500000" stroke="#AAAAAA" /><text style="font-size:10px;font-family:OpenSans;fill:#000000;" text-anchor="middle" x="16.353659" y="118.500000">1</text><line x1="127.353659" x2="127.353659" y1="103.500000" y2="108.500000" stroke="#AAAAAA" /><text style="font-size:10px;font-family:OpenSans;fill:#000000;" text-anchor="middle" x="127.353659" y="118.500000">83</text><line x1="640.390244" x2="640.390244" y1="103.500000" y2="108.500000" stroke="#AAAAAA" /><text style="font-size:10px;font-family:OpenSans;fill:#000000;" text-anchor="middle" x="640.390244" y="118.500000">462</text><line x1="716.195122" x2="716.195122" y1="103.500000" y2="108.500000" stroke="#AAAAAA" /><text style="font-size:10px;font-family:OpenSans;fill:#000000;" text-anchor="middle" x="716.195122" y="118.500000">518</text><line x1="751.390244" x2="751.390244" y1="103.500000" y2="108.500000" stroke="#AAAAAA" /><text style="font-size:10px;font-family:OpenSans;fill:#000000;" text-anchor="middle" x="751.390244" y="118.500000">544</text><line x1="775.756098" x2="775.756098" y1="103.500000" y2="108.500000" stroke="#AAAAAA" /><text style="font-size:10px;font-family:OpenSans;fill:#000000;" text-anchor="middle" x="775.756098" y="118.500000">562</text><line x1="819.073171" x2="819.073171" y1="103.500000" y2="108.500000" stroke="#AAAAAA" /><text style="font-size:10px;font-family:OpenSans;fill:#000000;" text-anchor="middle" x="819.073171" y="118.500000">594</text><line x1="915.182927" x2="915.182927" y1="103.500000" y2="108.500000" stroke="#AAAAAA" /><text style="font-size:10px;font-family:OpenSans;fill:#000000;" text-anchor="middle" x="915.182927" y="118.500000">665</text><line x1="1479.658537" x2="1479.658537" y1="103.500000" y2="108.500000" stroke="#AAAAAA" /><text style="font-size:10px;font-family:OpenSans;fill:#000000;" text-anchor="middle" x="1479.658537" y="118.500000">1082</text><line x1="1509.439024" x2="1509.439024" y1="103.500000" y2="108.500000" stroke="#AAAAAA" /><text style="font-size:10px;font-family:OpenSans;fill:#000000;" text-anchor="middle" x="1509.439024" y="118.500000">1104</text><line x1="1569.000000" x2="1569.000000" y1="103.500000" y2="108.500000" stroke="#AAAAAA" /><text style="font-size:10px;font-family:OpenSans;fill:#000000;" text-anchor="middle" x="1569.000000" y="118.500000">1148</text><line x1="1609.609756" x2="1609.609756" y1="103.500000" y2="108.500000" stroke="#AAAAAA" /><text style="font-size:10px;font-family:OpenSans;fill:#000000;" text-anchor="middle" x="1609.609756" y="118.500000">1178</text><line x1="1631.268293" x2="1631.268293" y1="103.500000" y2="108.500000" stroke="#AAAAAA" /><text style="font-size:10px;font-family:OpenSans;fill:#000000;" text-anchor="middle" x="1631.268293" y="118.500000">1194</text><line x1="1850.560976" x2="1850.560976" y1="103.500000" y2="108.500000" stroke="#AAAAAA" /><text style="font-size:10px;font-family:OpenSans;fill:#000000;" text-anchor="middle" x="1850.560976" y="118.500000">1356</text></g>
<rect fill="#2DCF00" x="4" y="132.500000" width="12" height="12" filter="url(#ds)"/><text style="font-size:12px;font-family:OpenSans;fill:#000000;" text-anchor="start" x="20" y="144.500000">N-terminal of Par3 and HAL proteins</text></svg>
