<?xml version='1.0'?>
<svg xmlns="http://www.w3.org/2000/svg" xmlns:xlink="http://www.w3.org/1999/xlink" width="430.000000" height="172.600000">
<defs>
  <filter id="ds" x="0" y="0">
    <feOffset in="SourceAlpha" dx="2" dy="2" />
    <feComponentTransfer><feFuncA type="linear" slope="0.2"/></feComponentTransfer>
    <feGaussianBlur result="blurOut" stdDeviation="1" />
    <feBlend in="SourceGraphic" in2="blurOut" mode="normal" />
  </filter>
  <pattern id="disordered-hatch" patternUnits="userSpaceOnUse" width="4" height="4">
    <path d="M-1,1 l2,-2 M0,4 l4,-4 M3,5 l2,-2" stroke="#000000" opacity="0.3" />
  </pattern>
</defs>
<line x1="69.202401" x2="69.202401" y1="34.000000" y2="62.000000" stroke="#BABDB6" stroke-width="2"/><a xlink:title="Y79Y"><circle cx="69.202401" cy="34.000000" r="4.000000" fill="#0000ff" /></a><g transform="translate(69.202401,34.000000) rotate(-30)"><text style="font-size:10px;font-family:OpenSans;fill:#555;" text-anchor="middle" x="0" y="-6.000000">Y79Y</text></g><line x1="264.742710" x2="264.742710" y1="34.000000" y2="62.000000" stroke="#BABDB6" stroke-width="2"/><a xlink:title="Y364Y"><circle cx="264.742710" cy="34.000000" r="4.000000" fill="#0000ff" /></a><g transform="translate(264.742710,34.000000) rotate(-30)"><text style="font-size:10px;font-family:OpenSans;fill:#555;" text-anchor="middle" x="0" y="-6.000000">Y364Y</text></g><line x1="273.662093" x2="273.662093" y1="34.000000" y2="62.000000" stroke="#BABDB6" stroke-width="2"/><a xlink:title="Y377Y"><circle cx="273.662093" cy="34.000000" r="4.000000" fill="#0000ff" /></a><g transform="translate(273.662093,34.000000) rotate(-30)"><text style="font-size:10px;font-family:OpenSans;fill:#555;" text-anchor="middle" x="0" y="-6.000000">Y377Y</text></g><a xlink:title=",  (583aa)"><rect fill="#BABDB6" x="15.000000" y="62.000000" width="400.000000" height="14.000000"/></a><g transform="translate(93.902230,57.000000)"><a xlink:href="https://www.ebi.ac.uk/interpro/entry/pfam/PF05406" xlink:title="WGR domain"><rect fill="#2DCF00" x="0" y="0" width="54.202401" height="24.000000" filter="url(#ds)"/><text style="font-size:12px;font-family:OpenSans;fill:#ffffff;" text-anchor="middle" x="27.101201" y="16.000000">WGR</text></a></g>
<g transform="translate(174.176672,57.000000)"><a xlink:href="https://www.ebi.ac.uk/interpro/entry/pfam/PF02877" xlink:title="Poly(ADP-ribose) polymerase, regulatory domain"><rect fill="#FF5353" x="0" y="0" width="89.193825" height="24.000000" filter="url(#ds)"/><text style="font-size:12px;font-family:OpenSans;fill:#ffffff;" text-anchor="middle" x="44.596913" y="16.000000">PARP_reg</text></a></g>
<g transform="translate(272.975986,57.000000)"><a xlink:href="https://www.ebi.ac.uk/interpro/entry/pfam/PF00644" xlink:title="Poly(ADP-ribose) polymerase catalytic domain"><rect fill="#5B5BFF" x="0" y="0" width="137.907376" height="24.000000" filter="url(#ds)"/><text style="font-size:12px;font-family:OpenSans;fill:#ffffff;" text-anchor="middle" x="68.953688" y="16.000000">PARP</text></a></g>
<g class="axis">
<line x1="15.000000" x2="415.000000" y1="91.000000" y2="91.000000" stroke="#AAAAAA" /><line x1="15.000000" x2="15.000000" y1="91.000000" y2="96.000000" stroke="#AAAAAA" /><line x1="15.000000" x2="15.000000" y1="91.000000" y2="96.000000" stroke="#AAAAAA" /><text style="font-size:10px;font-family:OpenSans;fill:#000000;" text-anchor="middle" x="15.000000" y="106.000000">0</text><line x1="69.202401" x2="69.202401" y1="91.000000" y2="96.000000" stroke="#AAAAAA" /><text style="font-size:10px;font-family:OpenSans;fill:#000000;" text-anchor="middle" x="69.202401" y="106.000000">79</text><line x1="93.902230" x2="93.902230" y1="91.000000" y2="96.000000" stroke="#AAAAAA" /><text style="font-size:10px;font-family:OpenSans;fill:#000000;" text-anchor="middle" x="93.902230" y="106.000000">115</text><line x1="148.104631" x2="148.104631" y1="91.000000" y2="96.000000" stroke="#AAAAAA" /><text style="font-size:10px;font-family:OpenSans;fill:#000000;" text-anchor="middle" x="148.104631" y="106.000000">194</text><line x1="174.176672" x2="174.176672" y1="91.000000" y2="96.000000" stroke="#AAAAAA" /><text style="font-size:10px;font-family:OpenSans;fill:#000000;" text-anchor="middle" x="174.176672" y="106.000000">232</text><line x1="264.742710" x2="264.742710" y1="91.000000" y2="96.000000" stroke="#AAAAAA" /><text style="font-size:10px;font-family:OpenSans;fill:#000000;" text-anchor="middle" x="264.742710" y="106.000000">364</text><line x1="415.000000" x2="415.000000" y1="91.000000" y2="96.000000" stroke="#AAAAAA" /><text style="font-size:10px;font-family:OpenSans;fill:#000000;" text-anchor="middle" x="415.000000" y="106.000000">583</text></g>
<rect fill="#5B5BFF" x="4" y="120.000000" width="12" height="12" filter="url(#ds)"/><text style="font-size:12px;font-family:OpenSans;fill:#000000;" text-anchor="start" x="20" y="132.000000">Poly(ADP-ribose) polymerase catalytic domain</text><rect fill="#2DCF00" x="4" y="134.000000" width="12" height="12" filter="url(#ds)"/><text style="font-size:12px;font-family:OpenSans;fill:#000000;" text-anchor="start" x="20" y="146.000000">WGR domain</text><rect fill="#FF5353" x="4" y="148.000000" width="12" height="12" filter="url(#ds)"/><text style="font-size:12px;font-family:OpenSans;fill:#000000;" text-anchor="start" x="20" y="160.000000">Poly(ADP-ribose) polymerase, regulatory domain</text></svg>
