<?xml version='1.0'?>
<svg xmlns="http://www.w3.org/2000/svg" xmlns:xlink="http://www.w3.org/1999/xlink" width="751.236364" height="170.500000">
<defs>
  <filter id="ds" x="0" y="0">
    <feOffset in="SourceAlpha" dx="2" dy="2" />
    <feComponentTransfer><feFuncA type="linear" slope="0.2"/></feComponentTransfer>
    <feGaussianBlur result="blurOut" stdDeviation="1" />
    <feBlend in="SourceGraphic" in2="blurOut" mode="normal" />
  </filter>
  <pattern id="disordered-hatch" patternUnits="userSpaceOnUse" width="4" height="4">
    <path d="M-1,1 l2,-2 M0,4 l4,-4 M3,5 l2,-2" stroke="#000000" opacity="0.3" />
  </pattern>
</defs>
<line x1="392.709091" x2="392.709091" y1="59.000000" y2="99.500000" stroke="#BABDB6" stroke-width="2"/><a xlink:title="Q221H"><circle cx="392.709091" cy="59.000000" r="4.000000" fill="#ff0000" /></a><g transform="translate(392.709091,59.000000) rotate(-30)"><text style="font-size:10px;font-family:OpenSans;fill:#555;" text-anchor="middle" x="0" y="-6.000000">Q221H</text></g><line x1="392.709091" x2="392.709091" y1="71.500000" y2="99.500000" stroke="#BABDB6" stroke-width="2"/><a xlink:title="Q221K"><circle cx="392.709091" cy="71.500000" r="4.000000" fill="#ff0000" /></a><g transform="translate(392.709091,71.500000) rotate(-30)"><text style="font-size:10px;font-family:OpenSans;fill:#555;" text-anchor="middle" x="0" y="-6.000000">Q221K</text></g><line x1="416.636364" x2="416.636364" y1="59.000000" y2="99.500000" stroke="#BABDB6" stroke-width="2"/><a xlink:title="Y235*"><circle cx="416.636364" cy="59.000000" r="4.000000" fill="#0000ff" /></a><g transform="translate(416.636364,59.000000) rotate(-30)"><text style="font-size:10px;font-family:OpenSans;fill:#555;" text-anchor="middle" x="0" y="-6.000000">Y235*</text></g><line x1="418.345455" x2="418.345455" y1="71.500000" y2="99.500000" stroke="#BABDB6" stroke-width="2"/><a xlink:title="S236I"><circle cx="418.345455" cy="71.500000" r="4.000000" fill="#ff0000" /></a><g transform="translate(418.345455,71.500000) rotate(-30)"><text style="font-size:10px;font-family:OpenSans;fill:#555;" text-anchor="middle" x="0" y="-6.000000">S236I</text></g><line x1="503.800000" x2="503.800000" y1="59.000000" y2="99.500000" stroke="#BABDB6" stroke-width="2"/><a xlink:title="Q286H"><circle cx="503.800000" cy="59.000000" r="4.000000" fill="#ff0000" /></a><g transform="translate(503.800000,59.000000) rotate(-30)"><text style="font-size:10px;font-family:OpenSans;fill:#555;" text-anchor="middle" x="0" y="-6.000000">Q286H</text></g><line x1="503.800000" x2="503.800000" y1="71.500000" y2="99.500000" stroke="#BABDB6" stroke-width="2"/><a xlink:title="Q286K"><circle cx="503.800000" cy="71.500000" r="4.000000" fill="#ff0000" /></a><g transform="translate(503.800000,71.500000) rotate(-30)"><text style="font-size:10px;font-family:OpenSans;fill:#555;" text-anchor="middle" x="0" y="-6.000000">Q286K</text></g><line x1="558.490909" x2="558.490909" y1="59.000000" y2="99.500000" stroke="#BABDB6" stroke-width="2"/><a xlink:title="Y318*"><circle cx="558.490909" cy="59.000000" r="4.000000" fill="#0000ff" /></a><g transform="translate(558.490909,59.000000) rotate(-30)"><text style="font-size:10px;font-family:OpenSans;fill:#555;" text-anchor="middle" x="0" y="-6.000000">Y318*</text></g><line x1="560.200000" x2="560.200000" y1="71.500000" y2="99.500000" stroke="#BABDB6" stroke-width="2"/><a xlink:title="S319I"><circle cx="560.200000" cy="71.500000" r="4.000000" fill="#ff0000" /></a><g transform="translate(560.200000,71.500000) rotate(-30)"><text style="font-size:10px;font-family:OpenSans;fill:#555;" text-anchor="middle" x="0" y="-6.000000">S319I</text></g><line x1="621.727273" x2="621.727273" y1="71.500000" y2="99.500000" stroke="#BABDB6" stroke-width="2"/><a xlink:title="Q355K"><circle cx="621.727273" cy="71.500000" r="4.000000" fill="#ff0000" /></a><g transform="translate(621.727273,71.500000) rotate(-30)"><text style="font-size:10px;font-family:OpenSans;fill:#555;" text-anchor="middle" x="0" y="-6.000000">Q355K</text></g><line x1="621.727273" x2="621.727273" y1="59.000000" y2="99.500000" stroke="#BABDB6" stroke-width="2"/><a xlink:title="Q355H"><circle cx="621.727273" cy="59.000000" r="4.000000" fill="#ff0000" /></a><g transform="translate(621.727273,59.000000) rotate(-30)"><text style="font-size:10px;font-family:OpenSans;fill:#555;" text-anchor="middle" x="0" y="-6.000000">Q355H</text></g><line x1="645.654545" x2="645.654545" y1="34.000000" y2="99.500000" stroke="#BABDB6" stroke-width="2"/><a xlink:title="Q369H"><circle cx="645.654545" cy="34.000000" r="4.000000" fill="#ff0000" /></a><g transform="translate(645.654545,34.000000) rotate(-30)"><text style="font-size:10px;font-family:OpenSans;fill:#555;" text-anchor="middle" x="0" y="-6.000000">Q369H</text></g><line x1="645.654545" x2="645.654545" y1="46.500000" y2="99.500000" stroke="#BABDB6" stroke-width="2"/><a xlink:title="Q369K"><circle cx="645.654545" cy="46.500000" r="4.000000" fill="#ff0000" /></a><g transform="translate(645.654545,46.500000) rotate(-30)"><text style="font-size:10px;font-family:OpenSans;fill:#555;" text-anchor="middle" x="0" y="-6.000000">Q369K</text></g><line x1="649.072727" x2="649.072727" y1="59.000000" y2="99.500000" stroke="#BABDB6" stroke-width="2"/><a xlink:title="Y371*"><circle cx="649.072727" cy="59.000000" r="4.000000" fill="#0000ff" /></a><g transform="translate(649.072727,59.000000) rotate(-30)"><text style="font-size:10px;font-family:OpenSans;fill:#555;" text-anchor="middle" x="0" y="-6.000000">Y371*</text></g><line x1="650.781818" x2="650.781818" y1="71.500000" y2="99.500000" stroke="#BABDB6" stroke-width="2"/><a xlink:title="S372I"><circle cx="650.781818" cy="71.500000" r="4.000000" fill="#ff0000" /></a><g transform="translate(650.781818,71.500000) rotate(-30)"><text style="font-size:10px;font-family:OpenSans;fill:#555;" text-anchor="middle" x="0" y="-6.000000">S372I</text></g><line x1="664.454545" x2="664.454545" y1="71.500000" y2="99.500000" stroke="#BABDB6" stroke-width="2"/><a xlink:title="S380L"><circle cx="664.454545" cy="71.500000" r="4.000000" fill="#ff0000" /></a><g transform="translate(664.454545,71.500000) rotate(-30)"><text style="font-size:10px;font-family:OpenSans;fill:#555;" text-anchor="middle" x="0" y="-6.000000">S380L</text></g><line x1="673.000000" x2="673.000000" y1="34.000000" y2="99.500000" stroke="#BABDB6" stroke-width="2"/><a xlink:title="Y385*"><circle cx="673.000000" cy="34.000000" r="4.000000" fill="#0000ff" /></a><g transform="translate(673.000000,34.000000) rotate(-30)"><text style="font-size:10px;font-family:OpenSans;fill:#555;" text-anchor="middle" x="0" y="-6.000000">Y385*</text></g><line x1="674.709091" x2="674.709091" y1="59.000000" y2="99.500000" stroke="#BABDB6" stroke-width="2"/><a xlink:title="Y386*"><circle cx="674.709091" cy="59.000000" r="4.000000" fill="#0000ff" /></a><g transform="translate(674.709091,59.000000) rotate(-30)"><text style="font-size:10px;font-family:OpenSans;fill:#555;" text-anchor="middle" x="0" y="-6.000000">Y386*</text></g><line x1="674.709091" x2="674.709091" y1="46.500000" y2="99.500000" stroke="#BABDB6" stroke-width="2"/><a xlink:title="S386I"><circle cx="674.709091" cy="46.500000" r="4.000000" fill="#ff0000" /></a><g transform="translate(674.709091,46.500000) rotate(-30)"><text style="font-size:10px;font-family:OpenSans;fill:#555;" text-anchor="middle" x="0" y="-6.000000">S386I</text></g><line x1="676.418182" x2="676.418182" y1="71.500000" y2="99.500000" stroke="#BABDB6" stroke-width="2"/><a xlink:title="S387I"><circle cx="676.418182" cy="71.500000" r="4.000000" fill="#ff0000" /></a><g transform="translate(676.418182,71.500000) rotate(-30)"><text style="font-size:10px;font-family:OpenSans;fill:#555;" text-anchor="middle" x="0" y="-6.000000">S387I</text></g><line x1="736.236364" x2="736.236364" y1="59.000000" y2="99.500000" stroke="#BABDB6" stroke-width="2"/><a xlink:title="Q422H"><circle cx="736.236364" cy="59.000000" r="4.000000" fill="#ff0000" /></a><g transform="translate(736.236364,59.000000) rotate(-30)"><text style="font-size:10px;font-family:OpenSans;fill:#555;" text-anchor="middle" x="0" y="-6.000000">Q422H</text></g><line x1="736.236364" x2="736.236364" y1="71.500000" y2="99.500000" stroke="#BABDB6" stroke-width="2"/><a xlink:title="Q422K"><circle cx="736.236364" cy="71.500000" r="4.000000" fill="#ff0000" /></a><g transform="translate(736.236364,71.500000) rotate(-30)"><text style="font-size:10px;font-family:OpenSans;fill:#555;" text-anchor="middle" x="0" y="-6.000000">Q422K</text></g><line x1="760.163636" x2="760.163636" y1="59.000000" y2="99.500000" stroke="#BABDB6" stroke-width="2"/><a xlink:title="Q436H"><circle cx="760.163636" cy="59.000000" r="4.000000" fill="#ff0000" /></a><g transform="translate(760.163636,59.000000) rotate(-30)"><text style="font-size:10px;font-family:OpenSans;fill:#555;" text-anchor="middle" x="0" y="-6.000000">Q436H</text></g><line x1="760.163636" x2="760.163636" y1="71.500000" y2="99.500000" stroke="#BABDB6" stroke-width="2"/><a xlink:title="Q436K"><circle cx="760.163636" cy="71.500000" r="4.000000" fill="#ff0000" /></a><g transform="translate(760.163636,71.500000) rotate(-30)"><text style="font-size:10px;font-family:OpenSans;fill:#555;" text-anchor="middle" x="0" y="-6.000000">Q436K</text></g><line x1="778.963636" x2="778.963636" y1="71.500000" y2="99.500000" stroke="#BABDB6" stroke-width="2"/><a xlink:title="Q447K"><circle cx="778.963636" cy="71.500000" r="4.000000" fill="#ff0000" /></a><g transform="translate(778.963636,71.500000) rotate(-30)"><text style="font-size:10px;font-family:OpenSans;fill:#555;" text-anchor="middle" x="0" y="-6.000000">Q447K</text></g><line x1="778.963636" x2="778.963636" y1="59.000000" y2="99.500000" stroke="#BABDB6" stroke-width="2"/><a xlink:title="Q447H"><circle cx="778.963636" cy="59.000000" r="4.000000" fill="#ff0000" /></a><g transform="translate(778.963636,59.000000) rotate(-30)"><text style="font-size:10px;font-family:OpenSans;fill:#555;" text-anchor="middle" x="0" y="-6.000000">Q447H</text></g><line x1="802.890909" x2="802.890909" y1="71.500000" y2="99.500000" stroke="#BABDB6" stroke-width="2"/><a xlink:title="Q461K"><circle cx="802.890909" cy="71.500000" r="4.000000" fill="#ff0000" /></a><g transform="translate(802.890909,71.500000) rotate(-30)"><text style="font-size:10px;font-family:OpenSans;fill:#555;" text-anchor="middle" x="0" y="-6.000000">Q461K</text></g><line x1="802.890909" x2="802.890909" y1="59.000000" y2="99.500000" stroke="#BABDB6" stroke-width="2"/><a xlink:title="Q461H"><circle cx="802.890909" cy="59.000000" r="4.000000" fill="#ff0000" /></a><g transform="translate(802.890909,59.000000) rotate(-30)"><text style="font-size:10px;font-family:OpenSans;fill:#555;" text-anchor="middle" x="0" y="-6.000000">Q461H</text></g><line x1="874.672727" x2="874.672727" y1="71.500000" y2="99.500000" stroke="#BABDB6" stroke-width="2"/><a xlink:title="Q503K"><circle cx="874.672727" cy="71.500000" r="4.000000" fill="#ff0000" /></a><g transform="translate(874.672727,71.500000) rotate(-30)"><text style="font-size:10px;font-family:OpenSans;fill:#555;" text-anchor="middle" x="0" y="-6.000000">Q503K</text></g><line x1="874.672727" x2="874.672727" y1="59.000000" y2="99.500000" stroke="#BABDB6" stroke-width="2"/><a xlink:title="Q503H"><circle cx="874.672727" cy="59.000000" r="4.000000" fill="#ff0000" /></a><g transform="translate(874.672727,59.000000) rotate(-30)"><text style="font-size:10px;font-family:OpenSans;fill:#555;" text-anchor="middle" x="0" y="-6.000000">Q503H</text></g><a xlink:title=",  (422aa)"><rect fill="#BABDB6" x="15.000000" y="99.500000" width="721.236364" height="14.000000"/></a><g transform="translate(21.836364,94.500000)"><a xlink:href="https://www.ebi.ac.uk/interpro/entry/pfam/PF00292" xlink:title="'Paired box' domain"><rect fill="#2DCF00" x="0" y="0" width="211.927273" height="24.000000" filter="url(#ds)"/><text style="font-size:12px;font-family:OpenSans;fill:#ffffff;" text-anchor="middle" x="105.963636" y="16.000000">'Paired box' domain</text></a></g>
<g transform="translate(377.327273,94.500000)"><a xlink:href="https://www.ebi.ac.uk/interpro/entry/pfam/PF00046" xlink:title="Homeodomain"><rect fill="#FF5353" x="0" y="0" width="94.000000" height="24.000000" filter="url(#ds)"/><text style="font-size:12px;font-family:OpenSans;fill:#ffffff;" text-anchor="middle" x="47.000000" y="16.000000">Homeodomain</text></a></g>
<g class="axis">
<line x1="15.000000" x2="736.236364" y1="128.500000" y2="128.500000" stroke="#AAAAAA" /><line x1="15.000000" x2="15.000000" y1="128.500000" y2="133.500000" stroke="#AAAAAA" /><line x1="21.836364" x2="21.836364" y1="128.500000" y2="133.500000" stroke="#AAAAAA" /><text style="font-size:10px;font-family:OpenSans;fill:#000000;" text-anchor="middle" x="21.836364" y="143.500000">4</text><line x1="233.763636" x2="233.763636" y1="128.500000" y2="133.500000" stroke="#AAAAAA" /><text style="font-size:10px;font-family:OpenSans;fill:#000000;" text-anchor="middle" x="233.763636" y="143.500000">128</text><line x1="392.709091" x2="392.709091" y1="128.500000" y2="133.500000" stroke="#AAAAAA" /><text style="font-size:10px;font-family:OpenSans;fill:#000000;" text-anchor="middle" x="392.709091" y="143.500000">221</text><line x1="416.636364" x2="416.636364" y1="128.500000" y2="133.500000" stroke="#AAAAAA" /><text style="font-size:10px;font-family:OpenSans;fill:#000000;" text-anchor="middle" x="416.636364" y="143.500000">235</text><line x1="471.327273" x2="471.327273" y1="128.500000" y2="133.500000" stroke="#AAAAAA" /><text style="font-size:10px;font-family:OpenSans;fill:#000000;" text-anchor="middle" x="471.327273" y="143.500000">267</text><line x1="503.800000" x2="503.800000" y1="128.500000" y2="133.500000" stroke="#AAAAAA" /><text style="font-size:10px;font-family:OpenSans;fill:#000000;" text-anchor="middle" x="503.800000" y="143.500000">286</text><line x1="558.490909" x2="558.490909" y1="128.500000" y2="133.500000" stroke="#AAAAAA" /><text style="font-size:10px;font-family:OpenSans;fill:#000000;" text-anchor="middle" x="558.490909" y="143.500000">318</text><line x1="621.727273" x2="621.727273" y1="128.500000" y2="133.500000" stroke="#AAAAAA" /><text style="font-size:10px;font-family:OpenSans;fill:#000000;" text-anchor="middle" x="621.727273" y="143.500000">355</text><line x1="645.654545" x2="645.654545" y1="128.500000" y2="133.500000" stroke="#AAAAAA" /><text style="font-size:10px;font-family:OpenSans;fill:#000000;" text-anchor="middle" x="645.654545" y="143.500000">369</text><line x1="664.454545" x2="664.454545" y1="128.500000" y2="133.500000" stroke="#AAAAAA" /><text style="font-size:10px;font-family:OpenSans;fill:#000000;" text-anchor="middle" x="664.454545" y="143.500000">380</text><line x1="736.236364" x2="736.236364" y1="128.500000" y2="133.500000" stroke="#AAAAAA" /><text style="font-size:10px;font-family:OpenSans;fill:#000000;" text-anchor="middle" x="736.236364" y="143.500000">422</text><line x1="760.163636" x2="760.163636" y1="128.500000" y2="133.500000" stroke="#AAAAAA" /><text style="font-size:10px;font-family:OpenSans;fill:#000000;" text-anchor="middle" x="760.163636" y="143.500000">436</text><line x1="778.963636" x2="778.963636" y1="128.500000" y2="133.500000" stroke="#AAAAAA" /><text style="font-size:10px;font-family:OpenSans;fill:#000000;" text-anchor="middle" x="778.963636" y="143.500000">447</text><line x1="802.890909" x2="802.890909" y1="128.500000" y2="133.500000" stroke="#AAAAAA" /><text style="font-size:10px;font-family:OpenSans;fill:#000000;" text-anchor="middle" x="802.890909" y="143.500000">461</text><line x1="874.672727" x2="874.672727" y1="128.500000" y2="133.500000" stroke="#AAAAAA" /><text style="font-size:10px;font-family:OpenSans;fill:#000000;" text-anchor="middle" x="874.672727" y="143.500000">503</text></g>
</svg>
