<?xml version='1.0'?>
<svg xmlns="http://www.w3.org/2000/svg" xmlns:xlink="http://www.w3.org/1999/xlink" width="877.678571" height="158.700000">
<defs>
  <filter id="ds" x="0" y="0">
    <feOffset in="SourceAlpha" dx="2" dy="2" />
    <feComponentTransfer><feFuncA type="linear" slope="0.2"/></feComponentTransfer>
    <feGaussianBlur result="blurOut" stdDeviation="1" />
    <feBlend in="SourceGraphic" in2="blurOut" mode="normal" />
  </filter>
  <pattern id="disordered-hatch" patternUnits="userSpaceOnUse" width="4" height="4">
    <path d="M-1,1 l2,-2 M0,4 l4,-4 M3,5 l2,-2" stroke="#000000" opacity="0.3" />
  </pattern>
</defs>
<line x1="446.392857" x2="446.392857" y1="34.000000" y2="74.500000" stroke="#BABDB6" stroke-width="2"/><a xlink:title="A257A"><circle cx="446.392857" cy="34.000000" r="4.000000" fill="#0000ff" /></a><g transform="translate(446.392857,34.000000) rotate(-30)"><text style="font-size:10px;font-family:OpenSans;fill:#555;" text-anchor="middle" x="0" y="-6.000000">A257A</text></g><line x1="449.750000" x2="449.750000" y1="46.500000" y2="74.500000" stroke="#BABDB6" stroke-width="2"/><a xlink:title="A259A"><circle cx="449.750000" cy="46.500000" r="4.000000" fill="#0000ff" /></a><g transform="translate(449.750000,46.500000) rotate(-30)"><text style="font-size:10px;font-family:OpenSans;fill:#555;" text-anchor="middle" x="0" y="-6.000000">A259A</text></g><line x1="463.178571" x2="463.178571" y1="34.000000" y2="74.500000" stroke="#BABDB6" stroke-width="2"/><a xlink:title="R267R"><circle cx="463.178571" cy="34.000000" r="4.000000" fill="#0000ff" /></a><g transform="translate(463.178571,34.000000) rotate(-30)"><text style="font-size:10px;font-family:OpenSans;fill:#555;" text-anchor="middle" x="0" y="-6.000000">R267R</text></g><line x1="466.535714" x2="466.535714" y1="46.500000" y2="74.500000" stroke="#BABDB6" stroke-width="2"/><a xlink:title="R269R"><circle cx="466.535714" cy="46.500000" r="4.000000" fill="#0000ff" /></a><g transform="translate(466.535714,46.500000) rotate(-30)"><text style="font-size:10px;font-family:OpenSans;fill:#555;" text-anchor="middle" x="0" y="-6.000000">R269R</text></g><a xlink:title=",  (505aa)"><rect fill="#BABDB6" x="15.000000" y="74.500000" width="847.678571" height="14.000000"/></a><g transform="translate(72.071429,69.500000)"><a xlink:href="https://www.ebi.ac.uk/interpro/entry/pfam/PF00292" xlink:title="'Paired box' domain"><rect fill="#2DCF00" x="0" y="0" width="213.178571" height="24.000000" filter="url(#ds)"/><text style="font-size:12px;font-family:OpenSans;fill:#ffffff;" text-anchor="middle" x="106.589286" y="16.000000">'Paired box' domain</text></a></g>
<g transform="translate(380.928571,69.500000)"><a xlink:href="https://www.ebi.ac.uk/interpro/entry/pfam/PF00046" xlink:title="Homeodomain"><rect fill="#FF5353" x="0" y="0" width="94.000000" height="24.000000" filter="url(#ds)"/><text style="font-size:12px;font-family:OpenSans;fill:#ffffff;" text-anchor="middle" x="47.000000" y="16.000000">Homeodomain</text></a></g>
<g transform="translate(595.785714,69.500000)"><a xlink:href="https://www.ebi.ac.uk/interpro/entry/pfam/PF12360" xlink:title="Paired box protein 7"><rect fill="#5B5BFF" x="0" y="0" width="65.464286" height="24.000000" filter="url(#ds)"/><text style="font-size:12px;font-family:OpenSans;fill:#ffffff;" text-anchor="middle" x="32.732143" y="16.000000">Pax7</text></a></g>
<g class="axis">
<line x1="15.000000" x2="862.678571" y1="103.500000" y2="103.500000" stroke="#AAAAAA" /><line x1="15.000000" x2="15.000000" y1="103.500000" y2="108.500000" stroke="#AAAAAA" /><line x1="15.000000" x2="15.000000" y1="103.500000" y2="108.500000" stroke="#AAAAAA" /><text style="font-size:10px;font-family:OpenSans;fill:#000000;" text-anchor="middle" x="15.000000" y="118.500000">0</text><line x1="72.071429" x2="72.071429" y1="103.500000" y2="108.500000" stroke="#AAAAAA" /><text style="font-size:10px;font-family:OpenSans;fill:#000000;" text-anchor="middle" x="72.071429" y="118.500000">34</text><line x1="285.250000" x2="285.250000" y1="103.500000" y2="108.500000" stroke="#AAAAAA" /><text style="font-size:10px;font-family:OpenSans;fill:#000000;" text-anchor="middle" x="285.250000" y="118.500000">161</text><line x1="380.928571" x2="380.928571" y1="103.500000" y2="108.500000" stroke="#AAAAAA" /><text style="font-size:10px;font-family:OpenSans;fill:#000000;" text-anchor="middle" x="380.928571" y="118.500000">218</text><line x1="446.392857" x2="446.392857" y1="103.500000" y2="108.500000" stroke="#AAAAAA" /><text style="font-size:10px;font-family:OpenSans;fill:#000000;" text-anchor="middle" x="446.392857" y="118.500000">257</text><line x1="466.535714" x2="466.535714" y1="103.500000" y2="108.500000" stroke="#AAAAAA" /><text style="font-size:10px;font-family:OpenSans;fill:#000000;" text-anchor="middle" x="466.535714" y="118.500000">269</text><line x1="595.785714" x2="595.785714" y1="103.500000" y2="108.500000" stroke="#AAAAAA" /><text style="font-size:10px;font-family:OpenSans;fill:#000000;" text-anchor="middle" x="595.785714" y="118.500000">346</text><line x1="661.250000" x2="661.250000" y1="103.500000" y2="108.500000" stroke="#AAAAAA" /><text style="font-size:10px;font-family:OpenSans;fill:#000000;" text-anchor="middle" x="661.250000" y="118.500000">385</text><line x1="862.678571" x2="862.678571" y1="103.500000" y2="108.500000" stroke="#AAAAAA" /><text style="font-size:10px;font-family:OpenSans;fill:#000000;" text-anchor="middle" x="862.678571" y="118.500000">505</text></g>
<rect fill="#5B5BFF" x="4" y="132.500000" width="12" height="12" filter="url(#ds)"/><text style="font-size:12px;font-family:OpenSans;fill:#000000;" text-anchor="start" x="20" y="144.500000">Paired box protein 7</text></svg>
