<?xml version='1.0'?>
<svg xmlns="http://www.w3.org/2000/svg" xmlns:xlink="http://www.w3.org/1999/xlink" width="890.363636" height="211.500000">
<defs>
  <filter id="ds" x="0" y="0">
    <feOffset in="SourceAlpha" dx="2" dy="2" />
    <feComponentTransfer><feFuncA type="linear" slope="0.2"/></feComponentTransfer>
    <feGaussianBlur result="blurOut" stdDeviation="1" />
    <feBlend in="SourceGraphic" in2="blurOut" mode="normal" />
  </filter>
  <pattern id="disordered-hatch" patternUnits="userSpaceOnUse" width="4" height="4">
    <path d="M-1,1 l2,-2 M0,4 l4,-4 M3,5 l2,-2" stroke="#000000" opacity="0.3" />
  </pattern>
</defs>
<line x1="24.454545" x2="24.454545" y1="46.500000" y2="74.500000" stroke="#BABDB6" stroke-width="2"/><a xlink:title="T8T"><circle cx="24.454545" cy="46.500000" r="4.000000" fill="#0000ff" /></a><g transform="translate(24.454545,46.500000) rotate(-30)"><text style="font-size:10px;font-family:OpenSans;fill:#555;" text-anchor="middle" x="0" y="-6.000000">T8T</text></g><line x1="143.818182" x2="143.818182" y1="46.500000" y2="74.500000" stroke="#BABDB6" stroke-width="2"/><a xlink:title="I109V"><circle cx="143.818182" cy="46.500000" r="4.000000" fill="#ff0000" /></a><g transform="translate(143.818182,46.500000) rotate(-30)"><text style="font-size:10px;font-family:OpenSans;fill:#555;" text-anchor="middle" x="0" y="-6.000000">I109V</text></g><line x1="169.818182" x2="169.818182" y1="46.500000" y2="74.500000" stroke="#BABDB6" stroke-width="2"/><a xlink:title="I131V"><circle cx="169.818182" cy="46.500000" r="4.000000" fill="#ff0000" /></a><g transform="translate(169.818182,46.500000) rotate(-30)"><text style="font-size:10px;font-family:OpenSans;fill:#555;" text-anchor="middle" x="0" y="-6.000000">I131V</text></g><line x1="178.090909" x2="178.090909" y1="46.500000" y2="74.500000" stroke="#BABDB6" stroke-width="2"/><a xlink:title="I138V"><circle cx="178.090909" cy="46.500000" r="4.000000" fill="#ff0000" /></a><g transform="translate(178.090909,46.500000) rotate(-30)"><text style="font-size:10px;font-family:OpenSans;fill:#555;" text-anchor="middle" x="0" y="-6.000000">I138V</text></g><line x1="208.818182" x2="208.818182" y1="46.500000" y2="74.500000" stroke="#BABDB6" stroke-width="2"/><a xlink:title="I164V"><circle cx="208.818182" cy="46.500000" r="4.000000" fill="#ff0000" /></a><g transform="translate(208.818182,46.500000) rotate(-30)"><text style="font-size:10px;font-family:OpenSans;fill:#555;" text-anchor="middle" x="0" y="-6.000000">I164V</text></g><line x1="237.181818" x2="237.181818" y1="46.500000" y2="74.500000" stroke="#BABDB6" stroke-width="2"/><a xlink:title="V188I"><circle cx="237.181818" cy="46.500000" r="4.000000" fill="#ff0000" /></a><g transform="translate(237.181818,46.500000) rotate(-30)"><text style="font-size:10px;font-family:OpenSans;fill:#555;" text-anchor="middle" x="0" y="-6.000000">V188I</text></g><line x1="293.909091" x2="293.909091" y1="46.500000" y2="74.500000" stroke="#BABDB6" stroke-width="2"/><a xlink:title="V236I"><circle cx="293.909091" cy="46.500000" r="4.000000" fill="#ff0000" /></a><g transform="translate(293.909091,46.500000) rotate(-30)"><text style="font-size:10px;font-family:OpenSans;fill:#555;" text-anchor="middle" x="0" y="-6.000000">V236I</text></g><line x1="410.909091" x2="410.909091" y1="46.500000" y2="74.500000" stroke="#BABDB6" stroke-width="2"/><a xlink:title="V335I"><circle cx="410.909091" cy="46.500000" r="4.000000" fill="#ff0000" /></a><g transform="translate(410.909091,46.500000) rotate(-30)"><text style="font-size:10px;font-family:OpenSans;fill:#555;" text-anchor="middle" x="0" y="-6.000000">V335I</text></g><line x1="485.363636" x2="485.363636" y1="46.500000" y2="74.500000" stroke="#BABDB6" stroke-width="2"/><a xlink:title="I398V"><circle cx="485.363636" cy="46.500000" r="4.000000" fill="#ff0000" /></a><g transform="translate(485.363636,46.500000) rotate(-30)"><text style="font-size:10px;font-family:OpenSans;fill:#555;" text-anchor="middle" x="0" y="-6.000000">I398V</text></g><line x1="578.727273" x2="578.727273" y1="46.500000" y2="74.500000" stroke="#BABDB6" stroke-width="2"/><a xlink:title="V477I"><circle cx="578.727273" cy="46.500000" r="4.000000" fill="#ff0000" /></a><g transform="translate(578.727273,46.500000) rotate(-30)"><text style="font-size:10px;font-family:OpenSans;fill:#555;" text-anchor="middle" x="0" y="-6.000000">V477I</text></g><line x1="601.181818" x2="601.181818" y1="34.000000" y2="74.500000" stroke="#BABDB6" stroke-width="2"/><a xlink:title="V496I"><circle cx="601.181818" cy="34.000000" r="4.000000" fill="#ff0000" /></a><g transform="translate(601.181818,34.000000) rotate(-30)"><text style="font-size:10px;font-family:OpenSans;fill:#555;" text-anchor="middle" x="0" y="-6.000000">V496I</text></g><line x1="602.363636" x2="602.363636" y1="46.500000" y2="74.500000" stroke="#BABDB6" stroke-width="2"/><a xlink:title="I497V"><circle cx="602.363636" cy="46.500000" r="4.000000" fill="#ff0000" /></a><g transform="translate(602.363636,46.500000) rotate(-30)"><text style="font-size:10px;font-family:OpenSans;fill:#555;" text-anchor="middle" x="0" y="-6.000000">I497V</text></g><line x1="609.454545" x2="609.454545" y1="46.500000" y2="74.500000" stroke="#BABDB6" stroke-width="2"/><a xlink:title="V503I"><circle cx="609.454545" cy="46.500000" r="4.000000" fill="#ff0000" /></a><g transform="translate(609.454545,46.500000) rotate(-30)"><text style="font-size:10px;font-family:OpenSans;fill:#555;" text-anchor="middle" x="0" y="-6.000000">V503I</text></g><line x1="627.181818" x2="627.181818" y1="46.500000" y2="74.500000" stroke="#BABDB6" stroke-width="2"/><a xlink:title="V518I"><circle cx="627.181818" cy="46.500000" r="4.000000" fill="#ff0000" /></a><g transform="translate(627.181818,46.500000) rotate(-30)"><text style="font-size:10px;font-family:OpenSans;fill:#555;" text-anchor="middle" x="0" y="-6.000000">V518I</text></g><line x1="635.454545" x2="635.454545" y1="46.500000" y2="74.500000" stroke="#BABDB6" stroke-width="2"/><a xlink:title="V525I"><circle cx="635.454545" cy="46.500000" r="4.000000" fill="#ff0000" /></a><g transform="translate(635.454545,46.500000) rotate(-30)"><text style="font-size:10px;font-family:OpenSans;fill:#555;" text-anchor="middle" x="0" y="-6.000000">V525I</text></g><line x1="666.181818" x2="666.181818" y1="46.500000" y2="74.500000" stroke="#BABDB6" stroke-width="2"/><a xlink:title="V551I"><circle cx="666.181818" cy="46.500000" r="4.000000" fill="#ff0000" /></a><g transform="translate(666.181818,46.500000) rotate(-30)"><text style="font-size:10px;font-family:OpenSans;fill:#555;" text-anchor="middle" x="0" y="-6.000000">V551I</text></g><line x1="792.636364" x2="792.636364" y1="46.500000" y2="74.500000" stroke="#BABDB6" stroke-width="2"/><a xlink:title="I658V"><circle cx="792.636364" cy="46.500000" r="4.000000" fill="#ff0000" /></a><g transform="translate(792.636364,46.500000) rotate(-30)"><text style="font-size:10px;font-family:OpenSans;fill:#555;" text-anchor="middle" x="0" y="-6.000000">I658V</text></g><line x1="818.636364" x2="818.636364" y1="46.500000" y2="74.500000" stroke="#BABDB6" stroke-width="2"/><a xlink:title="I680V"><circle cx="818.636364" cy="46.500000" r="4.000000" fill="#ff0000" /></a><g transform="translate(818.636364,46.500000) rotate(-30)"><text style="font-size:10px;font-family:OpenSans;fill:#555;" text-anchor="middle" x="0" y="-6.000000">I680V</text></g><line x1="826.909091" x2="826.909091" y1="46.500000" y2="74.500000" stroke="#BABDB6" stroke-width="2"/><a xlink:title="I687V"><circle cx="826.909091" cy="46.500000" r="4.000000" fill="#ff0000" /></a><g transform="translate(826.909091,46.500000) rotate(-30)"><text style="font-size:10px;font-family:OpenSans;fill:#555;" text-anchor="middle" x="0" y="-6.000000">I687V</text></g><line x1="857.636364" x2="857.636364" y1="46.500000" y2="74.500000" stroke="#BABDB6" stroke-width="2"/><a xlink:title="I713V"><circle cx="857.636364" cy="46.500000" r="4.000000" fill="#ff0000" /></a><g transform="translate(857.636364,46.500000) rotate(-30)"><text style="font-size:10px;font-family:OpenSans;fill:#555;" text-anchor="middle" x="0" y="-6.000000">I713V</text></g><a xlink:title=",  (728aa)"><rect fill="#BABDB6" x="15.000000" y="74.500000" width="860.363636" height="14.000000"/></a><g transform="translate(89.454545,69.500000)"><a xlink:href="https://www.ebi.ac.uk/interpro/entry/pfam/PF00289" xlink:title="Biotin carboxylase, N-terminal domain"><rect fill="#2DCF00" x="0" y="0" width="127.636364" height="24.000000" filter="url(#ds)"/><text style="font-size:12px;font-family:OpenSans;fill:#ffffff;" text-anchor="middle" x="63.818182" y="16.000000">Biotin_carb_N</text></a></g>
<g transform="translate(223.000000,69.500000)"><a xlink:href="https://www.ebi.ac.uk/interpro/entry/pfam/PF02786" xlink:title="Carbamoyl-phosphate synthase L chain, ATP binding domain"><rect fill="#FF5353" x="0" y="0" width="245.818182" height="24.000000" filter="url(#ds)"/><text style="font-size:12px;font-family:OpenSans;fill:#ffffff;" text-anchor="middle" x="122.909091" y="16.000000">CPSase_L_D2</text></a></g>
<g transform="translate(484.181818,69.500000)"><a xlink:href="https://www.ebi.ac.uk/interpro/entry/pfam/PF02785" xlink:title="Biotin carboxylase C-terminal domain"><rect fill="#5B5BFF" x="0" y="0" width="127.636364" height="24.000000" filter="url(#ds)"/><text style="font-size:12px;font-family:OpenSans;fill:#ffffff;" text-anchor="middle" x="63.818182" y="16.000000">Biotin_carb_C</text></a></g>
<g transform="translate(635.454545,69.500000)"><a xlink:href="https://www.ebi.ac.uk/interpro/entry/pfam/PF18140" xlink:title="Propionyl-coenzyme A carboxylase BT domain"><rect fill="#EBD61D" x="0" y="0" width="151.272727" height="24.000000" filter="url(#ds)"/><text style="font-size:12px;font-family:OpenSans;fill:#ffffff;" text-anchor="middle" x="75.636364" y="16.000000">PCC_BT</text></a></g>
<g transform="translate(796.181818,69.500000)"><a xlink:href="https://www.ebi.ac.uk/interpro/entry/pfam/PF00364" xlink:title="Biotin-requiring enzyme"><rect fill="#BA21E0" x="0" y="0" width="78.000000" height="24.000000" filter="url(#ds)"/><text style="font-size:12px;font-family:OpenSans;fill:#ffffff;" text-anchor="middle" x="39.000000" y="16.000000">Biotin_lipoyl</text></a></g>
<g class="axis">
<line x1="15.000000" x2="875.363636" y1="103.500000" y2="103.500000" stroke="#AAAAAA" /><line x1="15.000000" x2="15.000000" y1="103.500000" y2="108.500000" stroke="#AAAAAA" /><line x1="24.454545" x2="24.454545" y1="103.500000" y2="108.500000" stroke="#AAAAAA" /><text style="font-size:10px;font-family:OpenSans;fill:#000000;" text-anchor="middle" x="24.454545" y="118.500000">8</text><line x1="89.454545" x2="89.454545" y1="103.500000" y2="108.500000" stroke="#AAAAAA" /><text style="font-size:10px;font-family:OpenSans;fill:#000000;" text-anchor="middle" x="89.454545" y="118.500000">63</text><line x1="143.818182" x2="143.818182" y1="103.500000" y2="108.500000" stroke="#AAAAAA" /><text style="font-size:10px;font-family:OpenSans;fill:#000000;" text-anchor="middle" x="143.818182" y="118.500000">109</text><line x1="169.818182" x2="169.818182" y1="103.500000" y2="108.500000" stroke="#AAAAAA" /><text style="font-size:10px;font-family:OpenSans;fill:#000000;" text-anchor="middle" x="169.818182" y="118.500000">131</text><line x1="208.818182" x2="208.818182" y1="103.500000" y2="108.500000" stroke="#AAAAAA" /><text style="font-size:10px;font-family:OpenSans;fill:#000000;" text-anchor="middle" x="208.818182" y="118.500000">164</text><line x1="237.181818" x2="237.181818" y1="103.500000" y2="108.500000" stroke="#AAAAAA" /><text style="font-size:10px;font-family:OpenSans;fill:#000000;" text-anchor="middle" x="237.181818" y="118.500000">188</text><line x1="293.909091" x2="293.909091" y1="103.500000" y2="108.500000" stroke="#AAAAAA" /><text style="font-size:10px;font-family:OpenSans;fill:#000000;" text-anchor="middle" x="293.909091" y="118.500000">236</text><line x1="410.909091" x2="410.909091" y1="103.500000" y2="108.500000" stroke="#AAAAAA" /><text style="font-size:10px;font-family:OpenSans;fill:#000000;" text-anchor="middle" x="410.909091" y="118.500000">335</text><line x1="485.363636" x2="485.363636" y1="103.500000" y2="108.500000" stroke="#AAAAAA" /><text style="font-size:10px;font-family:OpenSans;fill:#000000;" text-anchor="middle" x="485.363636" y="118.500000">398</text><line x1="578.727273" x2="578.727273" y1="103.500000" y2="108.500000" stroke="#AAAAAA" /><text style="font-size:10px;font-family:OpenSans;fill:#000000;" text-anchor="middle" x="578.727273" y="118.500000">477</text><line x1="601.181818" x2="601.181818" y1="103.500000" y2="108.500000" stroke="#AAAAAA" /><text style="font-size:10px;font-family:OpenSans;fill:#000000;" text-anchor="middle" x="601.181818" y="118.500000">496</text><line x1="627.181818" x2="627.181818" y1="103.500000" y2="108.500000" stroke="#AAAAAA" /><text style="font-size:10px;font-family:OpenSans;fill:#000000;" text-anchor="middle" x="627.181818" y="118.500000">518</text><line x1="666.181818" x2="666.181818" y1="103.500000" y2="108.500000" stroke="#AAAAAA" /><text style="font-size:10px;font-family:OpenSans;fill:#000000;" text-anchor="middle" x="666.181818" y="118.500000">551</text><line x1="792.636364" x2="792.636364" y1="103.500000" y2="108.500000" stroke="#AAAAAA" /><text style="font-size:10px;font-family:OpenSans;fill:#000000;" text-anchor="middle" x="792.636364" y="118.500000">658</text><line x1="818.636364" x2="818.636364" y1="103.500000" y2="108.500000" stroke="#AAAAAA" /><text style="font-size:10px;font-family:OpenSans;fill:#000000;" text-anchor="middle" x="818.636364" y="118.500000">680</text><line x1="875.363636" x2="875.363636" y1="103.500000" y2="108.500000" stroke="#AAAAAA" /><text style="font-size:10px;font-family:OpenSans;fill:#000000;" text-anchor="middle" x="875.363636" y="118.500000">728</text></g>
<rect fill="#2DCF00" x="4" y="132.500000" width="12" height="12" filter="url(#ds)"/><text style="font-size:12px;font-family:OpenSans;fill:#000000;" text-anchor="start" x="20" y="144.500000">Biotin carboxylase, N-terminal domain</text><rect fill="#FF5353" x="4" y="146.500000" width="12" height="12" filter="url(#ds)"/><text style="font-size:12px;font-family:OpenSans;fill:#000000;" text-anchor="start" x="20" y="158.500000">Carbamoyl-phosphate synthase L chain, ATP binding domain</text><rect fill="#5B5BFF" x="4" y="160.500000" width="12" height="12" filter="url(#ds)"/><text style="font-size:12px;font-family:OpenSans;fill:#000000;" text-anchor="start" x="20" y="172.500000">Biotin carboxylase C-terminal domain</text><rect fill="#EBD61D" x="4" y="174.500000" width="12" height="12" filter="url(#ds)"/><text style="font-size:12px;font-family:OpenSans;fill:#000000;" text-anchor="start" x="20" y="186.500000">Propionyl-coenzyme A carboxylase BT domain</text><rect fill="#BA21E0" x="4" y="188.500000" width="12" height="12" filter="url(#ds)"/><text style="font-size:12px;font-family:OpenSans;fill:#000000;" text-anchor="start" x="20" y="200.500000">Biotin-requiring enzyme</text></svg>
