<?xml version='1.0'?>
<svg xmlns="http://www.w3.org/2000/svg" xmlns:xlink="http://www.w3.org/1999/xlink" width="1016.345679" height="172.600000">
<defs>
  <filter id="ds" x="0" y="0">
    <feOffset in="SourceAlpha" dx="2" dy="2" />
    <feComponentTransfer><feFuncA type="linear" slope="0.2"/></feComponentTransfer>
    <feGaussianBlur result="blurOut" stdDeviation="1" />
    <feBlend in="SourceGraphic" in2="blurOut" mode="normal" />
  </filter>
  <pattern id="disordered-hatch" patternUnits="userSpaceOnUse" width="4" height="4">
    <path d="M-1,1 l2,-2 M0,4 l4,-4 M3,5 l2,-2" stroke="#000000" opacity="0.3" />
  </pattern>
</defs>
<line x1="438.629630" x2="438.629630" y1="34.000000" y2="62.000000" stroke="#BABDB6" stroke-width="2"/><a xlink:title="N399Y"><circle cx="438.629630" cy="34.000000" r="4.000000" fill="#ff0000" /></a><g transform="translate(438.629630,34.000000) rotate(-30)"><text style="font-size:10px;font-family:OpenSans;fill:#555;" text-anchor="middle" x="0" y="-6.000000">N399Y</text></g><line x1="979.049383" x2="979.049383" y1="34.000000" y2="62.000000" stroke="#BABDB6" stroke-width="2"/><a xlink:title="R908Q"><circle cx="979.049383" cy="34.000000" r="4.000000" fill="#ff0000" /></a><g transform="translate(979.049383,34.000000) rotate(-30)"><text style="font-size:10px;font-family:OpenSans;fill:#555;" text-anchor="middle" x="0" y="-6.000000">R908Q</text></g><a xlink:title=",  (929aa)"><rect fill="#BABDB6" x="15.000000" y="62.000000" width="986.345679" height="14.000000"/></a><g transform="translate(50.037037,57.000000)"><a xlink:href="https://www.ebi.ac.uk/interpro/entry/pfam/PF08266" xlink:title="Cadherin-like"><rect fill="#2DCF00" x="0" y="0" width="83.876543" height="24.000000" filter="url(#ds)"/><text style="font-size:12px;font-family:OpenSans;fill:#ffffff;" text-anchor="middle" x="41.938272" y="16.000000">Cadherin-like</text></a></g>
<g transform="translate(164.703704,57.000000)"><a xlink:href="https://www.ebi.ac.uk/interpro/entry/pfam/PF00028" xlink:title="Cadherin domain"><rect fill="#FF5353" x="0" y="0" width="96.617284" height="24.000000" filter="url(#ds)"/><text style="font-size:12px;font-family:OpenSans;fill:#ffffff;" text-anchor="middle" x="48.308642" y="16.000000">Cadherin</text></a></g>
<g transform="translate(277.246914,57.000000)"><a xlink:href="https://www.ebi.ac.uk/interpro/entry/pfam/PF00028" xlink:title="Cadherin domain"><rect fill="#5B5BFF" x="0" y="0" width="95.555556" height="24.000000" filter="url(#ds)"/><text style="font-size:12px;font-family:OpenSans;fill:#ffffff;" text-anchor="middle" x="47.777778" y="16.000000">Cadherin</text></a></g>
<g transform="translate(391.913580,57.000000)"><a xlink:href="https://www.ebi.ac.uk/interpro/entry/pfam/PF00028" xlink:title="Cadherin domain"><rect fill="#EBD61D" x="0" y="0" width="93.432099" height="24.000000" filter="url(#ds)"/><text style="font-size:12px;font-family:OpenSans;fill:#ffffff;" text-anchor="middle" x="46.716049" y="16.000000">Cadherin</text></a></g>
<g transform="translate(500.209877,57.000000)"><a xlink:href="https://www.ebi.ac.uk/interpro/entry/pfam/PF00028" xlink:title="Cadherin domain"><rect fill="#BA21E0" x="0" y="0" width="100.864198" height="24.000000" filter="url(#ds)"/><text style="font-size:12px;font-family:OpenSans;fill:#ffffff;" text-anchor="middle" x="50.432099" y="16.000000">Cadherin</text></a></g>
<g transform="translate(631.864198,57.000000)"><a xlink:href="https://www.ebi.ac.uk/interpro/entry/pfam/PF00028" xlink:title="Cadherin domain"><rect fill="#FF9C42" x="0" y="0" width="84.938272" height="24.000000" filter="url(#ds)"/><text style="font-size:12px;font-family:OpenSans;fill:#ffffff;" text-anchor="middle" x="42.469136" y="16.000000">Cadherin</text></a></g>
<g transform="translate(744.407407,57.000000)"><a xlink:href="https://www.ebi.ac.uk/interpro/entry/pfam/PF16492" xlink:title="Cadherin cytoplasmic C-terminal"><rect fill="#FF7DFF" x="0" y="0" width="86.000000" height="24.000000" filter="url(#ds)"/><text style="font-size:12px;font-family:OpenSans;fill:#ffffff;" text-anchor="middle" x="43.000000" y="16.000000">Cadherin_C_2</text></a></g>
<g transform="translate(872.876543,57.000000)"><a xlink:href="https://www.ebi.ac.uk/interpro/entry/pfam/PF15974" xlink:title="Cadherin C-terminal cytoplasmic tail, catenin-binding region"><rect fill="#B9264F" x="0" y="0" width="128.469136" height="24.000000" filter="url(#ds)"/><text style="font-size:12px;font-family:OpenSans;fill:#ffffff;" text-anchor="middle" x="64.234568" y="16.000000">Cadherin_tail</text></a></g>
<g class="axis">
<line x1="15.000000" x2="1001.345679" y1="91.000000" y2="91.000000" stroke="#AAAAAA" /><line x1="15.000000" x2="15.000000" y1="91.000000" y2="96.000000" stroke="#AAAAAA" /><line x1="15.000000" x2="15.000000" y1="91.000000" y2="96.000000" stroke="#AAAAAA" /><text style="font-size:10px;font-family:OpenSans;fill:#000000;" text-anchor="middle" x="15.000000" y="106.000000">0</text><line x1="50.037037" x2="50.037037" y1="91.000000" y2="96.000000" stroke="#AAAAAA" /><text style="font-size:10px;font-family:OpenSans;fill:#000000;" text-anchor="middle" x="50.037037" y="106.000000">33</text><line x1="133.913580" x2="133.913580" y1="91.000000" y2="96.000000" stroke="#AAAAAA" /><text style="font-size:10px;font-family:OpenSans;fill:#000000;" text-anchor="middle" x="133.913580" y="106.000000">112</text><line x1="164.703704" x2="164.703704" y1="91.000000" y2="96.000000" stroke="#AAAAAA" /><text style="font-size:10px;font-family:OpenSans;fill:#000000;" text-anchor="middle" x="164.703704" y="106.000000">141</text><line x1="261.320988" x2="261.320988" y1="91.000000" y2="96.000000" stroke="#AAAAAA" /><text style="font-size:10px;font-family:OpenSans;fill:#000000;" text-anchor="middle" x="261.320988" y="106.000000">232</text><line x1="372.802469" x2="372.802469" y1="91.000000" y2="96.000000" stroke="#AAAAAA" /><text style="font-size:10px;font-family:OpenSans;fill:#000000;" text-anchor="middle" x="372.802469" y="106.000000">337</text><line x1="391.913580" x2="391.913580" y1="91.000000" y2="96.000000" stroke="#AAAAAA" /><text style="font-size:10px;font-family:OpenSans;fill:#000000;" text-anchor="middle" x="391.913580" y="106.000000">355</text><line x1="438.629630" x2="438.629630" y1="91.000000" y2="96.000000" stroke="#AAAAAA" /><text style="font-size:10px;font-family:OpenSans;fill:#000000;" text-anchor="middle" x="438.629630" y="106.000000">399</text><line x1="485.345679" x2="485.345679" y1="91.000000" y2="96.000000" stroke="#AAAAAA" /><text style="font-size:10px;font-family:OpenSans;fill:#000000;" text-anchor="middle" x="485.345679" y="106.000000">443</text><line x1="601.074074" x2="601.074074" y1="91.000000" y2="96.000000" stroke="#AAAAAA" /><text style="font-size:10px;font-family:OpenSans;fill:#000000;" text-anchor="middle" x="601.074074" y="106.000000">552</text><line x1="631.864198" x2="631.864198" y1="91.000000" y2="96.000000" stroke="#AAAAAA" /><text style="font-size:10px;font-family:OpenSans;fill:#000000;" text-anchor="middle" x="631.864198" y="106.000000">581</text><line x1="716.802469" x2="716.802469" y1="91.000000" y2="96.000000" stroke="#AAAAAA" /><text style="font-size:10px;font-family:OpenSans;fill:#000000;" text-anchor="middle" x="716.802469" y="106.000000">661</text><line x1="744.407407" x2="744.407407" y1="91.000000" y2="96.000000" stroke="#AAAAAA" /><text style="font-size:10px;font-family:OpenSans;fill:#000000;" text-anchor="middle" x="744.407407" y="106.000000">687</text><line x1="830.407407" x2="830.407407" y1="91.000000" y2="96.000000" stroke="#AAAAAA" /><text style="font-size:10px;font-family:OpenSans;fill:#000000;" text-anchor="middle" x="830.407407" y="106.000000">768</text><line x1="872.876543" x2="872.876543" y1="91.000000" y2="96.000000" stroke="#AAAAAA" /><text style="font-size:10px;font-family:OpenSans;fill:#000000;" text-anchor="middle" x="872.876543" y="106.000000">808</text><line x1="979.049383" x2="979.049383" y1="91.000000" y2="96.000000" stroke="#AAAAAA" /><text style="font-size:10px;font-family:OpenSans;fill:#000000;" text-anchor="middle" x="979.049383" y="106.000000">908</text><line x1="1001.345679" x2="1001.345679" y1="91.000000" y2="96.000000" stroke="#AAAAAA" /><text style="font-size:10px;font-family:OpenSans;fill:#000000;" text-anchor="middle" x="1001.345679" y="106.000000">929</text></g>
<rect fill="#FF9C42" x="4" y="120.000000" width="12" height="12" filter="url(#ds)"/><text style="font-size:12px;font-family:OpenSans;fill:#000000;" text-anchor="start" x="20" y="132.000000">Cadherin domain</text><rect fill="#FF7DFF" x="4" y="134.000000" width="12" height="12" filter="url(#ds)"/><text style="font-size:12px;font-family:OpenSans;fill:#000000;" text-anchor="start" x="20" y="146.000000">Cadherin cytoplasmic C-terminal</text><rect fill="#B9264F" x="4" y="148.000000" width="12" height="12" filter="url(#ds)"/><text style="font-size:12px;font-family:OpenSans;fill:#000000;" text-anchor="start" x="20" y="160.000000">Cadherin C-terminal cytoplasmic tail, catenin-binding region</text></svg>
