<?xml version='1.0'?>
<svg xmlns="http://www.w3.org/2000/svg" xmlns:xlink="http://www.w3.org/1999/xlink" width="852.698795" height="171.900000">
<defs>
  <filter id="ds" x="0" y="0">
    <feOffset in="SourceAlpha" dx="2" dy="2" />
    <feComponentTransfer><feFuncA type="linear" slope="0.2"/></feComponentTransfer>
    <feGaussianBlur result="blurOut" stdDeviation="1" />
    <feBlend in="SourceGraphic" in2="blurOut" mode="normal" />
  </filter>
  <pattern id="disordered-hatch" patternUnits="userSpaceOnUse" width="4" height="4">
    <path d="M-1,1 l2,-2 M0,4 l4,-4 M3,5 l2,-2" stroke="#000000" opacity="0.3" />
  </pattern>
</defs>
<line x1="113.433735" x2="113.433735" y1="46.500000" y2="74.500000" stroke="#BABDB6" stroke-width="2"/><a xlink:title="V95I"><circle cx="113.433735" cy="46.500000" r="4.000000" fill="#ff0000" /></a><g transform="translate(113.433735,46.500000) rotate(-30)"><text style="font-size:10px;font-family:OpenSans;fill:#555;" text-anchor="middle" x="0" y="-6.000000">V95I</text></g><line x1="224.301205" x2="224.301205" y1="46.500000" y2="74.500000" stroke="#BABDB6" stroke-width="2"/><a xlink:title="V202V"><circle cx="224.301205" cy="46.500000" r="4.000000" fill="#0000ff" /></a><g transform="translate(224.301205,46.500000) rotate(-30)"><text style="font-size:10px;font-family:OpenSans;fill:#555;" text-anchor="middle" x="0" y="-6.000000">V202V</text></g><line x1="254.349398" x2="254.349398" y1="46.500000" y2="74.500000" stroke="#BABDB6" stroke-width="2"/><a xlink:title="V231I"><circle cx="254.349398" cy="46.500000" r="4.000000" fill="#ff0000" /></a><g transform="translate(254.349398,46.500000) rotate(-30)"><text style="font-size:10px;font-family:OpenSans;fill:#555;" text-anchor="middle" x="0" y="-6.000000">V231I</text></g><line x1="365.216867" x2="365.216867" y1="46.500000" y2="74.500000" stroke="#BABDB6" stroke-width="2"/><a xlink:title="V338V"><circle cx="365.216867" cy="46.500000" r="4.000000" fill="#0000ff" /></a><g transform="translate(365.216867,46.500000) rotate(-30)"><text style="font-size:10px;font-family:OpenSans;fill:#555;" text-anchor="middle" x="0" y="-6.000000">V338V</text></g><line x1="533.072289" x2="533.072289" y1="46.500000" y2="74.500000" stroke="#BABDB6" stroke-width="2"/><a xlink:title="H500Q"><circle cx="533.072289" cy="46.500000" r="4.000000" fill="#ff0000" /></a><g transform="translate(533.072289,46.500000) rotate(-30)"><text style="font-size:10px;font-family:OpenSans;fill:#555;" text-anchor="middle" x="0" y="-6.000000">H500Q</text></g><line x1="673.987952" x2="673.987952" y1="34.000000" y2="74.500000" stroke="#BABDB6" stroke-width="2"/><a xlink:title="H636Q"><circle cx="673.987952" cy="34.000000" r="4.000000" fill="#ff0000" /></a><g transform="translate(673.987952,34.000000) rotate(-30)"><text style="font-size:10px;font-family:OpenSans;fill:#555;" text-anchor="middle" x="0" y="-6.000000">H636Q</text></g><line x1="678.132530" x2="678.132530" y1="46.500000" y2="74.500000" stroke="#BABDB6" stroke-width="2"/><a xlink:title="G640D"><circle cx="678.132530" cy="46.500000" r="4.000000" fill="#ff0000" /></a><g transform="translate(678.132530,46.500000) rotate(-30)"><text style="font-size:10px;font-family:OpenSans;fill:#555;" text-anchor="middle" x="0" y="-6.000000">G640D</text></g><line x1="819.048193" x2="819.048193" y1="46.500000" y2="74.500000" stroke="#BABDB6" stroke-width="2"/><a xlink:title="G776D"><circle cx="819.048193" cy="46.500000" r="4.000000" fill="#ff0000" /></a><g transform="translate(819.048193,46.500000) rotate(-30)"><text style="font-size:10px;font-family:OpenSans;fill:#555;" text-anchor="middle" x="0" y="-6.000000">G776D</text></g><a xlink:title=",  (794aa)"><rect fill="#BABDB6" x="15.000000" y="74.500000" width="822.698795" height="14.000000"/></a><g transform="translate(46.084337,69.500000)"><a xlink:href="https://www.ebi.ac.uk/interpro/entry/pfam/PF08266" xlink:title="Cadherin-like"><rect fill="#2DCF00" x="0" y="0" width="83.927711" height="24.000000" filter="url(#ds)"/><text style="font-size:12px;font-family:OpenSans;fill:#ffffff;" text-anchor="middle" x="41.963855" y="16.000000">Cadherin-like</text></a></g>
<g transform="translate(175.602410,69.500000)"><a xlink:href="https://www.ebi.ac.uk/interpro/entry/pfam/PF00028" xlink:title="Cadherin domain"><rect fill="#FF5353" x="0" y="0" width="79.783133" height="24.000000" filter="url(#ds)"/><text style="font-size:12px;font-family:OpenSans;fill:#ffffff;" text-anchor="middle" x="39.891566" y="16.000000">Cadherin</text></a></g>
<g transform="translate(269.891566,69.500000)"><a xlink:href="https://www.ebi.ac.uk/interpro/entry/pfam/PF00028" xlink:title="Cadherin domain"><rect fill="#5B5BFF" x="0" y="0" width="93.253012" height="24.000000" filter="url(#ds)"/><text style="font-size:12px;font-family:OpenSans;fill:#ffffff;" text-anchor="middle" x="46.626506" y="16.000000">Cadherin</text></a></g>
<g transform="translate(381.795181,69.500000)"><a xlink:href="https://www.ebi.ac.uk/interpro/entry/pfam/PF00028" xlink:title="Cadherin domain"><rect fill="#EBD61D" x="0" y="0" width="88.072289" height="24.000000" filter="url(#ds)"/><text style="font-size:12px;font-family:OpenSans;fill:#ffffff;" text-anchor="middle" x="44.036145" y="16.000000">Cadherin</text></a></g>
<g transform="translate(485.409639,69.500000)"><a xlink:href="https://www.ebi.ac.uk/interpro/entry/pfam/PF00028" xlink:title="Cadherin domain"><rect fill="#BA21E0" x="0" y="0" width="98.433735" height="24.000000" filter="url(#ds)"/><text style="font-size:12px;font-family:OpenSans;fill:#ffffff;" text-anchor="middle" x="49.216867" y="16.000000">Cadherin</text></a></g>
<g transform="translate(613.891566,69.500000)"><a xlink:href="https://www.ebi.ac.uk/interpro/entry/pfam/PF00028" xlink:title="Cadherin domain"><rect fill="#FF9C42" x="0" y="0" width="83.927711" height="24.000000" filter="url(#ds)"/><text style="font-size:12px;font-family:OpenSans;fill:#ffffff;" text-anchor="middle" x="41.963855" y="16.000000">Cadherin</text></a></g>
<g transform="translate(722.686747,69.500000)"><a xlink:href="https://www.ebi.ac.uk/interpro/entry/pfam/PF16492" xlink:title="Cadherin cytoplasmic C-terminal"><rect fill="#FF7DFF" x="0" y="0" width="86.000000" height="24.000000" filter="url(#ds)"/><text style="font-size:12px;font-family:OpenSans;fill:#ffffff;" text-anchor="middle" x="43.000000" y="16.000000">Cadherin_C_2</text></a></g>
<g class="axis">
<line x1="15.000000" x2="837.698795" y1="103.500000" y2="103.500000" stroke="#AAAAAA" /><line x1="15.000000" x2="15.000000" y1="103.500000" y2="108.500000" stroke="#AAAAAA" /><line x1="15.000000" x2="15.000000" y1="103.500000" y2="108.500000" stroke="#AAAAAA" /><text style="font-size:10px;font-family:OpenSans;fill:#000000;" text-anchor="middle" x="15.000000" y="118.500000">0</text><line x1="46.084337" x2="46.084337" y1="103.500000" y2="108.500000" stroke="#AAAAAA" /><text style="font-size:10px;font-family:OpenSans;fill:#000000;" text-anchor="middle" x="46.084337" y="118.500000">30</text><line x1="113.433735" x2="113.433735" y1="103.500000" y2="108.500000" stroke="#AAAAAA" /><text style="font-size:10px;font-family:OpenSans;fill:#000000;" text-anchor="middle" x="113.433735" y="118.500000">95</text><line x1="175.602410" x2="175.602410" y1="103.500000" y2="108.500000" stroke="#AAAAAA" /><text style="font-size:10px;font-family:OpenSans;fill:#000000;" text-anchor="middle" x="175.602410" y="118.500000">155</text><line x1="224.301205" x2="224.301205" y1="103.500000" y2="108.500000" stroke="#AAAAAA" /><text style="font-size:10px;font-family:OpenSans;fill:#000000;" text-anchor="middle" x="224.301205" y="118.500000">202</text><line x1="254.349398" x2="254.349398" y1="103.500000" y2="108.500000" stroke="#AAAAAA" /><text style="font-size:10px;font-family:OpenSans;fill:#000000;" text-anchor="middle" x="254.349398" y="118.500000">231</text><line x1="365.216867" x2="365.216867" y1="103.500000" y2="108.500000" stroke="#AAAAAA" /><text style="font-size:10px;font-family:OpenSans;fill:#000000;" text-anchor="middle" x="365.216867" y="118.500000">338</text><line x1="469.867470" x2="469.867470" y1="103.500000" y2="108.500000" stroke="#AAAAAA" /><text style="font-size:10px;font-family:OpenSans;fill:#000000;" text-anchor="middle" x="469.867470" y="118.500000">439</text><line x1="533.072289" x2="533.072289" y1="103.500000" y2="108.500000" stroke="#AAAAAA" /><text style="font-size:10px;font-family:OpenSans;fill:#000000;" text-anchor="middle" x="533.072289" y="118.500000">500</text><line x1="583.843373" x2="583.843373" y1="103.500000" y2="108.500000" stroke="#AAAAAA" /><text style="font-size:10px;font-family:OpenSans;fill:#000000;" text-anchor="middle" x="583.843373" y="118.500000">549</text><line x1="613.891566" x2="613.891566" y1="103.500000" y2="108.500000" stroke="#AAAAAA" /><text style="font-size:10px;font-family:OpenSans;fill:#000000;" text-anchor="middle" x="613.891566" y="118.500000">578</text><line x1="673.987952" x2="673.987952" y1="103.500000" y2="108.500000" stroke="#AAAAAA" /><text style="font-size:10px;font-family:OpenSans;fill:#000000;" text-anchor="middle" x="673.987952" y="118.500000">636</text><line x1="697.819277" x2="697.819277" y1="103.500000" y2="108.500000" stroke="#AAAAAA" /><text style="font-size:10px;font-family:OpenSans;fill:#000000;" text-anchor="middle" x="697.819277" y="118.500000">659</text><line x1="722.686747" x2="722.686747" y1="103.500000" y2="108.500000" stroke="#AAAAAA" /><text style="font-size:10px;font-family:OpenSans;fill:#000000;" text-anchor="middle" x="722.686747" y="118.500000">683</text><line x1="837.698795" x2="837.698795" y1="103.500000" y2="108.500000" stroke="#AAAAAA" /><text style="font-size:10px;font-family:OpenSans;fill:#000000;" text-anchor="middle" x="837.698795" y="118.500000">794</text></g>
<rect fill="#FF9C42" x="4" y="132.500000" width="12" height="12" filter="url(#ds)"/><text style="font-size:12px;font-family:OpenSans;fill:#000000;" text-anchor="start" x="20" y="144.500000">Cadherin domain</text><rect fill="#FF7DFF" x="4" y="146.500000" width="12" height="12" filter="url(#ds)"/><text style="font-size:12px;font-family:OpenSans;fill:#000000;" text-anchor="start" x="20" y="158.500000">Cadherin cytoplasmic C-terminal</text></svg>
