<?xml version='1.0'?>
<svg xmlns="http://www.w3.org/2000/svg" xmlns:xlink="http://www.w3.org/1999/xlink" width="1241.250000" height="185.100000">
<defs>
  <filter id="ds" x="0" y="0">
    <feOffset in="SourceAlpha" dx="2" dy="2" />
    <feComponentTransfer><feFuncA type="linear" slope="0.2"/></feComponentTransfer>
    <feGaussianBlur result="blurOut" stdDeviation="1" />
    <feBlend in="SourceGraphic" in2="blurOut" mode="normal" />
  </filter>
  <pattern id="disordered-hatch" patternUnits="userSpaceOnUse" width="4" height="4">
    <path d="M-1,1 l2,-2 M0,4 l4,-4 M3,5 l2,-2" stroke="#000000" opacity="0.3" />
  </pattern>
</defs>
<line x1="58.750000" x2="58.750000" y1="46.500000" y2="74.500000" stroke="#BABDB6" stroke-width="2"/><a xlink:title="G35G"><circle cx="58.750000" cy="46.500000" r="4.000000" fill="#0000ff" /></a><g transform="translate(58.750000,46.500000) rotate(-30)"><text style="font-size:10px;font-family:OpenSans;fill:#555;" text-anchor="middle" x="0" y="-6.000000">G35G</text></g><line x1="131.250000" x2="131.250000" y1="46.500000" y2="74.500000" stroke="#BABDB6" stroke-width="2"/><a xlink:title="G93G"><circle cx="131.250000" cy="46.500000" r="4.000000" fill="#0000ff" /></a><g transform="translate(131.250000,46.500000) rotate(-30)"><text style="font-size:10px;font-family:OpenSans;fill:#555;" text-anchor="middle" x="0" y="-6.000000">G93G</text></g><line x1="216.250000" x2="216.250000" y1="46.500000" y2="74.500000" stroke="#BABDB6" stroke-width="2"/><a xlink:title="N161N"><circle cx="216.250000" cy="46.500000" r="4.000000" fill="#0000ff" /></a><g transform="translate(216.250000,46.500000) rotate(-30)"><text style="font-size:10px;font-family:OpenSans;fill:#555;" text-anchor="middle" x="0" y="-6.000000">N161N</text></g><line x1="548.750000" x2="548.750000" y1="46.500000" y2="74.500000" stroke="#BABDB6" stroke-width="2"/><a xlink:title="A427A"><circle cx="548.750000" cy="46.500000" r="4.000000" fill="#0000ff" /></a><g transform="translate(548.750000,46.500000) rotate(-30)"><text style="font-size:10px;font-family:OpenSans;fill:#555;" text-anchor="middle" x="0" y="-6.000000">A427A</text></g><line x1="596.250000" x2="596.250000" y1="34.000000" y2="74.500000" stroke="#BABDB6" stroke-width="2"/><a xlink:title="V465V"><circle cx="596.250000" cy="34.000000" r="4.000000" fill="#0000ff" /></a><g transform="translate(596.250000,34.000000) rotate(-30)"><text style="font-size:10px;font-family:OpenSans;fill:#555;" text-anchor="middle" x="0" y="-6.000000">V465V</text></g><line x1="598.750000" x2="598.750000" y1="46.500000" y2="74.500000" stroke="#BABDB6" stroke-width="2"/><a xlink:title="H467H"><circle cx="598.750000" cy="46.500000" r="4.000000" fill="#0000ff" /></a><g transform="translate(598.750000,46.500000) rotate(-30)"><text style="font-size:10px;font-family:OpenSans;fill:#555;" text-anchor="middle" x="0" y="-6.000000">H467H</text></g><line x1="636.250000" x2="636.250000" y1="46.500000" y2="74.500000" stroke="#BABDB6" stroke-width="2"/><a xlink:title="L497L"><circle cx="636.250000" cy="46.500000" r="4.000000" fill="#0000ff" /></a><g transform="translate(636.250000,46.500000) rotate(-30)"><text style="font-size:10px;font-family:OpenSans;fill:#555;" text-anchor="middle" x="0" y="-6.000000">L497L</text></g><line x1="642.500000" x2="642.500000" y1="46.500000" y2="74.500000" stroke="#BABDB6" stroke-width="2"/><a xlink:title="C502C"><circle cx="642.500000" cy="46.500000" r="4.000000" fill="#0000ff" /></a><g transform="translate(642.500000,46.500000) rotate(-30)"><text style="font-size:10px;font-family:OpenSans;fill:#555;" text-anchor="middle" x="0" y="-6.000000">C502C</text></g><line x1="691.250000" x2="691.250000" y1="46.500000" y2="74.500000" stroke="#BABDB6" stroke-width="2"/><a xlink:title="H541H"><circle cx="691.250000" cy="46.500000" r="4.000000" fill="#0000ff" /></a><g transform="translate(691.250000,46.500000) rotate(-30)"><text style="font-size:10px;font-family:OpenSans;fill:#555;" text-anchor="middle" x="0" y="-6.000000">H541H</text></g><line x1="728.750000" x2="728.750000" y1="46.500000" y2="74.500000" stroke="#BABDB6" stroke-width="2"/><a xlink:title="L571L"><circle cx="728.750000" cy="46.500000" r="4.000000" fill="#0000ff" /></a><g transform="translate(728.750000,46.500000) rotate(-30)"><text style="font-size:10px;font-family:OpenSans;fill:#555;" text-anchor="middle" x="0" y="-6.000000">L571L</text></g><line x1="793.750000" x2="793.750000" y1="46.500000" y2="74.500000" stroke="#BABDB6" stroke-width="2"/><a xlink:title="P623L"><circle cx="793.750000" cy="46.500000" r="4.000000" fill="#ff0000" /></a><g transform="translate(793.750000,46.500000) rotate(-30)"><text style="font-size:10px;font-family:OpenSans;fill:#555;" text-anchor="middle" x="0" y="-6.000000">P623L</text></g><line x1="870.000000" x2="870.000000" y1="46.500000" y2="74.500000" stroke="#BABDB6" stroke-width="2"/><a xlink:title="P684L"><circle cx="870.000000" cy="46.500000" r="4.000000" fill="#ff0000" /></a><g transform="translate(870.000000,46.500000) rotate(-30)"><text style="font-size:10px;font-family:OpenSans;fill:#555;" text-anchor="middle" x="0" y="-6.000000">P684L</text></g><line x1="886.250000" x2="886.250000" y1="46.500000" y2="74.500000" stroke="#BABDB6" stroke-width="2"/><a xlink:title="P697L"><circle cx="886.250000" cy="46.500000" r="4.000000" fill="#ff0000" /></a><g transform="translate(886.250000,46.500000) rotate(-30)"><text style="font-size:10px;font-family:OpenSans;fill:#555;" text-anchor="middle" x="0" y="-6.000000">P697L</text></g><line x1="942.500000" x2="942.500000" y1="46.500000" y2="74.500000" stroke="#BABDB6" stroke-width="2"/><a xlink:title="V742L"><circle cx="942.500000" cy="46.500000" r="4.000000" fill="#ff0000" /></a><g transform="translate(942.500000,46.500000) rotate(-30)"><text style="font-size:10px;font-family:OpenSans;fill:#555;" text-anchor="middle" x="0" y="-6.000000">V742L</text></g><line x1="1018.750000" x2="1018.750000" y1="46.500000" y2="74.500000" stroke="#BABDB6" stroke-width="2"/><a xlink:title="V803L"><circle cx="1018.750000" cy="46.500000" r="4.000000" fill="#ff0000" /></a><g transform="translate(1018.750000,46.500000) rotate(-30)"><text style="font-size:10px;font-family:OpenSans;fill:#555;" text-anchor="middle" x="0" y="-6.000000">V803L</text></g><line x1="1035.000000" x2="1035.000000" y1="46.500000" y2="74.500000" stroke="#BABDB6" stroke-width="2"/><a xlink:title="V816L"><circle cx="1035.000000" cy="46.500000" r="4.000000" fill="#ff0000" /></a><g transform="translate(1035.000000,46.500000) rotate(-30)"><text style="font-size:10px;font-family:OpenSans;fill:#555;" text-anchor="middle" x="0" y="-6.000000">V816L</text></g><a xlink:title=",  (969aa)"><rect fill="#BABDB6" x="15.000000" y="74.500000" width="1211.250000" height="14.000000"/></a><g transform="translate(106.250000,69.500000)"><a xlink:href="https://www.ebi.ac.uk/interpro/entry/pfam/PF16470" xlink:title="Peptidase S8 pro-domain"><rect fill="#2DCF00" x="0" y="0" width="95.000000" height="24.000000" filter="url(#ds)"/><text style="font-size:12px;font-family:OpenSans;fill:#ffffff;" text-anchor="middle" x="47.500000" y="16.000000">S8_pro-domain</text></a></g>
<g transform="translate(260.000000,69.500000)"><a xlink:href="https://www.ebi.ac.uk/interpro/entry/pfam/PF00082" xlink:title="Subtilase family"><rect fill="#FF5353" x="0" y="0" width="353.750000" height="24.000000" filter="url(#ds)"/><text style="font-size:12px;font-family:OpenSans;fill:#ffffff;" text-anchor="middle" x="176.875000" y="16.000000">Subtilase family</text></a></g>
<g transform="translate(688.750000,69.500000)"><a xlink:href="https://www.ebi.ac.uk/interpro/entry/pfam/PF01483" xlink:title="Proprotein convertase P-domain"><rect fill="#5B5BFF" x="0" y="0" width="111.250000" height="24.000000" filter="url(#ds)"/><text style="font-size:12px;font-family:OpenSans;fill:#ffffff;" text-anchor="middle" x="55.625000" y="16.000000">P_proprotein</text></a></g>
<g transform="translate(882.500000,69.500000)"><a xlink:href="https://www.ebi.ac.uk/interpro/entry/pfam/PF14843" xlink:title="Growth factor receptor domain IV"><rect fill="#EBD61D" x="0" y="0" width="143.750000" height="24.000000" filter="url(#ds)"/><text style="font-size:12px;font-family:OpenSans;fill:#ffffff;" text-anchor="middle" x="71.875000" y="16.000000">GF_recep_IV</text></a></g>
<g class="axis">
<line x1="15.000000" x2="1226.250000" y1="103.500000" y2="103.500000" stroke="#AAAAAA" /><line x1="15.000000" x2="15.000000" y1="103.500000" y2="108.500000" stroke="#AAAAAA" /><line x1="15.000000" x2="15.000000" y1="103.500000" y2="108.500000" stroke="#AAAAAA" /><text style="font-size:10px;font-family:OpenSans;fill:#000000;" text-anchor="middle" x="15.000000" y="118.500000">0</text><line x1="58.750000" x2="58.750000" y1="103.500000" y2="108.500000" stroke="#AAAAAA" /><text style="font-size:10px;font-family:OpenSans;fill:#000000;" text-anchor="middle" x="58.750000" y="118.500000">35</text><line x1="106.250000" x2="106.250000" y1="103.500000" y2="108.500000" stroke="#AAAAAA" /><text style="font-size:10px;font-family:OpenSans;fill:#000000;" text-anchor="middle" x="106.250000" y="118.500000">73</text><line x1="131.250000" x2="131.250000" y1="103.500000" y2="108.500000" stroke="#AAAAAA" /><text style="font-size:10px;font-family:OpenSans;fill:#000000;" text-anchor="middle" x="131.250000" y="118.500000">93</text><line x1="216.250000" x2="216.250000" y1="103.500000" y2="108.500000" stroke="#AAAAAA" /><text style="font-size:10px;font-family:OpenSans;fill:#000000;" text-anchor="middle" x="216.250000" y="118.500000">161</text><line x1="260.000000" x2="260.000000" y1="103.500000" y2="108.500000" stroke="#AAAAAA" /><text style="font-size:10px;font-family:OpenSans;fill:#000000;" text-anchor="middle" x="260.000000" y="118.500000">196</text><line x1="548.750000" x2="548.750000" y1="103.500000" y2="108.500000" stroke="#AAAAAA" /><text style="font-size:10px;font-family:OpenSans;fill:#000000;" text-anchor="middle" x="548.750000" y="118.500000">427</text><line x1="596.250000" x2="596.250000" y1="103.500000" y2="108.500000" stroke="#AAAAAA" /><text style="font-size:10px;font-family:OpenSans;fill:#000000;" text-anchor="middle" x="596.250000" y="118.500000">465</text><line x1="636.250000" x2="636.250000" y1="103.500000" y2="108.500000" stroke="#AAAAAA" /><text style="font-size:10px;font-family:OpenSans;fill:#000000;" text-anchor="middle" x="636.250000" y="118.500000">497</text><line x1="691.250000" x2="691.250000" y1="103.500000" y2="108.500000" stroke="#AAAAAA" /><text style="font-size:10px;font-family:OpenSans;fill:#000000;" text-anchor="middle" x="691.250000" y="118.500000">541</text><line x1="728.750000" x2="728.750000" y1="103.500000" y2="108.500000" stroke="#AAAAAA" /><text style="font-size:10px;font-family:OpenSans;fill:#000000;" text-anchor="middle" x="728.750000" y="118.500000">571</text><line x1="793.750000" x2="793.750000" y1="103.500000" y2="108.500000" stroke="#AAAAAA" /><text style="font-size:10px;font-family:OpenSans;fill:#000000;" text-anchor="middle" x="793.750000" y="118.500000">623</text><line x1="870.000000" x2="870.000000" y1="103.500000" y2="108.500000" stroke="#AAAAAA" /><text style="font-size:10px;font-family:OpenSans;fill:#000000;" text-anchor="middle" x="870.000000" y="118.500000">684</text><line x1="942.500000" x2="942.500000" y1="103.500000" y2="108.500000" stroke="#AAAAAA" /><text style="font-size:10px;font-family:OpenSans;fill:#000000;" text-anchor="middle" x="942.500000" y="118.500000">742</text><line x1="1018.750000" x2="1018.750000" y1="103.500000" y2="108.500000" stroke="#AAAAAA" /><text style="font-size:10px;font-family:OpenSans;fill:#000000;" text-anchor="middle" x="1018.750000" y="118.500000">803</text><line x1="1226.250000" x2="1226.250000" y1="103.500000" y2="108.500000" stroke="#AAAAAA" /><text style="font-size:10px;font-family:OpenSans;fill:#000000;" text-anchor="middle" x="1226.250000" y="118.500000">969</text></g>
<rect fill="#2DCF00" x="4" y="132.500000" width="12" height="12" filter="url(#ds)"/><text style="font-size:12px;font-family:OpenSans;fill:#000000;" text-anchor="start" x="20" y="144.500000">Peptidase S8 pro-domain</text><rect fill="#5B5BFF" x="4" y="146.500000" width="12" height="12" filter="url(#ds)"/><text style="font-size:12px;font-family:OpenSans;fill:#000000;" text-anchor="start" x="20" y="158.500000">Proprotein convertase P-domain</text><rect fill="#EBD61D" x="4" y="160.500000" width="12" height="12" filter="url(#ds)"/><text style="font-size:12px;font-family:OpenSans;fill:#000000;" text-anchor="start" x="20" y="172.500000">Growth factor receptor domain IV</text></svg>
