<?xml version='1.0'?>
<svg xmlns="http://www.w3.org/2000/svg" xmlns:xlink="http://www.w3.org/1999/xlink" width="489.636364" height="159.400000">
<defs>
  <filter id="ds" x="0" y="0">
    <feOffset in="SourceAlpha" dx="2" dy="2" />
    <feComponentTransfer><feFuncA type="linear" slope="0.2"/></feComponentTransfer>
    <feGaussianBlur result="blurOut" stdDeviation="1" />
    <feBlend in="SourceGraphic" in2="blurOut" mode="normal" />
  </filter>
  <pattern id="disordered-hatch" patternUnits="userSpaceOnUse" width="4" height="4">
    <path d="M-1,1 l2,-2 M0,4 l4,-4 M3,5 l2,-2" stroke="#000000" opacity="0.3" />
  </pattern>
</defs>
<line x1="29.129870" x2="29.129870" y1="34.000000" y2="62.000000" stroke="#BABDB6" stroke-width="2"/><a xlink:title="V34V"><circle cx="29.129870" cy="34.000000" r="4.000000" fill="#0000ff" /></a><g transform="translate(29.129870,34.000000) rotate(-30)"><text style="font-size:10px;font-family:OpenSans;fill:#555;" text-anchor="middle" x="0" y="-6.000000">V34V</text></g><line x1="147.155844" x2="147.155844" y1="34.000000" y2="62.000000" stroke="#BABDB6" stroke-width="2"/><a xlink:title="N318N"><circle cx="147.155844" cy="34.000000" r="4.000000" fill="#0000ff" /></a><g transform="translate(147.155844,34.000000) rotate(-30)"><text style="font-size:10px;font-family:OpenSans;fill:#555;" text-anchor="middle" x="0" y="-6.000000">N318N</text></g><line x1="187.467532" x2="187.467532" y1="34.000000" y2="62.000000" stroke="#BABDB6" stroke-width="2"/><a xlink:title="N415N"><circle cx="187.467532" cy="34.000000" r="4.000000" fill="#0000ff" /></a><g transform="translate(187.467532,34.000000) rotate(-30)"><text style="font-size:10px;font-family:OpenSans;fill:#555;" text-anchor="middle" x="0" y="-6.000000">N415N</text></g><line x1="214.064935" x2="214.064935" y1="34.000000" y2="62.000000" stroke="#BABDB6" stroke-width="2"/><a xlink:title="N479N"><circle cx="214.064935" cy="34.000000" r="4.000000" fill="#0000ff" /></a><g transform="translate(214.064935,34.000000) rotate(-30)"><text style="font-size:10px;font-family:OpenSans;fill:#555;" text-anchor="middle" x="0" y="-6.000000">N479N</text></g><a xlink:title=",  (1106aa)"><rect fill="#BABDB6" x="15.000000" y="62.000000" width="459.636364" height="14.000000"/></a><g transform="translate(31.623377,57.000000)"><a xlink:href="https://www.ebi.ac.uk/interpro/entry/pfam/PF00047" xlink:title="Immunoglobulin domain"><rect fill="#2DCF00" x="0" y="0" width="29.090909" height="24.000000" filter="url(#ds)"/><text style="font-size:12px;font-family:OpenSans;fill:#ffffff;" text-anchor="middle" x="14.545455" y="16.000000">ig</text></a></g>
<g transform="translate(105.181818,57.000000)"><a xlink:href="https://www.ebi.ac.uk/interpro/entry/pfam/PF13927" xlink:title="Immunoglobulin domain"><rect fill="#FF5353" x="0" y="0" width="32.000000" height="24.000000" filter="url(#ds)"/><text style="font-size:12px;font-family:OpenSans;fill:#ffffff;" text-anchor="middle" x="16.000000" y="16.000000">Ig_3</text></a></g>
<g transform="translate(264.766234,57.000000)"><a xlink:href="https://www.ebi.ac.uk/interpro/entry/pfam/PF07714" xlink:title="Protein tyrosine and serine/threonine kinase"><rect fill="#5B5BFF" x="0" y="0" width="147.116883" height="24.000000" filter="url(#ds)"/><text style="font-size:12px;font-family:OpenSans;fill:#ffffff;" text-anchor="middle" x="73.558442" y="16.000000">PK_Tyr_Ser-Thr</text></a></g>
<g class="axis">
<line x1="15.000000" x2="474.636364" y1="91.000000" y2="91.000000" stroke="#AAAAAA" /><line x1="15.000000" x2="15.000000" y1="91.000000" y2="96.000000" stroke="#AAAAAA" /><line x1="29.129870" x2="29.129870" y1="91.000000" y2="96.000000" stroke="#AAAAAA" /><text style="font-size:10px;font-family:OpenSans;fill:#000000;" text-anchor="middle" x="29.129870" y="106.000000">34</text><line x1="60.714286" x2="60.714286" y1="91.000000" y2="96.000000" stroke="#AAAAAA" /><text style="font-size:10px;font-family:OpenSans;fill:#000000;" text-anchor="middle" x="60.714286" y="106.000000">110</text><line x1="105.181818" x2="105.181818" y1="91.000000" y2="96.000000" stroke="#AAAAAA" /><text style="font-size:10px;font-family:OpenSans;fill:#000000;" text-anchor="middle" x="105.181818" y="106.000000">217</text><line x1="147.155844" x2="147.155844" y1="91.000000" y2="96.000000" stroke="#AAAAAA" /><text style="font-size:10px;font-family:OpenSans;fill:#000000;" text-anchor="middle" x="147.155844" y="106.000000">318</text><line x1="187.467532" x2="187.467532" y1="91.000000" y2="96.000000" stroke="#AAAAAA" /><text style="font-size:10px;font-family:OpenSans;fill:#000000;" text-anchor="middle" x="187.467532" y="106.000000">415</text><line x1="214.064935" x2="214.064935" y1="91.000000" y2="96.000000" stroke="#AAAAAA" /><text style="font-size:10px;font-family:OpenSans;fill:#000000;" text-anchor="middle" x="214.064935" y="106.000000">479</text><line x1="264.766234" x2="264.766234" y1="91.000000" y2="96.000000" stroke="#AAAAAA" /><text style="font-size:10px;font-family:OpenSans;fill:#000000;" text-anchor="middle" x="264.766234" y="106.000000">601</text><line x1="411.883117" x2="411.883117" y1="91.000000" y2="96.000000" stroke="#AAAAAA" /><text style="font-size:10px;font-family:OpenSans;fill:#000000;" text-anchor="middle" x="411.883117" y="106.000000">955</text><line x1="474.636364" x2="474.636364" y1="91.000000" y2="96.000000" stroke="#AAAAAA" /><text style="font-size:10px;font-family:OpenSans;fill:#000000;" text-anchor="middle" x="474.636364" y="106.000000">1106</text></g>
<rect fill="#5B5BFF" x="4" y="120.000000" width="12" height="12" filter="url(#ds)"/><text style="font-size:12px;font-family:OpenSans;fill:#000000;" text-anchor="start" x="20" y="132.000000">Protein tyrosine and serine/threonine kinase</text><rect fill="#FF5353" x="4" y="134.000000" width="12" height="12" filter="url(#ds)"/><text style="font-size:12px;font-family:OpenSans;fill:#000000;" text-anchor="start" x="20" y="146.000000">Immunoglobulin domain</text></svg>
