<?xml version='1.0'?>
<svg xmlns="http://www.w3.org/2000/svg" xmlns:xlink="http://www.w3.org/1999/xlink" width="430.000000" height="159.400000">
<defs>
  <filter id="ds" x="0" y="0">
    <feOffset in="SourceAlpha" dx="2" dy="2" />
    <feComponentTransfer><feFuncA type="linear" slope="0.2"/></feComponentTransfer>
    <feGaussianBlur result="blurOut" stdDeviation="1" />
    <feBlend in="SourceGraphic" in2="blurOut" mode="normal" />
  </filter>
  <pattern id="disordered-hatch" patternUnits="userSpaceOnUse" width="4" height="4">
    <path d="M-1,1 l2,-2 M0,4 l4,-4 M3,5 l2,-2" stroke="#000000" opacity="0.3" />
  </pattern>
</defs>
<line x1="98.150985" x2="98.150985" y1="34.000000" y2="62.000000" stroke="#BABDB6" stroke-width="2"/><a xlink:title="Q95R"><circle cx="98.150985" cy="34.000000" r="4.000000" fill="#ff0000" /></a><g transform="translate(98.150985,34.000000) rotate(-30)"><text style="font-size:10px;font-family:OpenSans;fill:#555;" text-anchor="middle" x="0" y="-6.000000">Q95R</text></g><line x1="203.183807" x2="203.183807" y1="34.000000" y2="62.000000" stroke="#BABDB6" stroke-width="2"/><a xlink:title="P215P"><circle cx="203.183807" cy="34.000000" r="4.000000" fill="#0000ff" /></a><g transform="translate(203.183807,34.000000) rotate(-30)"><text style="font-size:10px;font-family:OpenSans;fill:#555;" text-anchor="middle" x="0" y="-6.000000">P215P</text></g><line x1="232.943107" x2="232.943107" y1="34.000000" y2="62.000000" stroke="#BABDB6" stroke-width="2"/><a xlink:title="P249P"><circle cx="232.943107" cy="34.000000" r="4.000000" fill="#0000ff" /></a><g transform="translate(232.943107,34.000000) rotate(-30)"><text style="font-size:10px;font-family:OpenSans;fill:#555;" text-anchor="middle" x="0" y="-6.000000">P249P</text></g><line x1="270.579869" x2="270.579869" y1="34.000000" y2="62.000000" stroke="#BABDB6" stroke-width="2"/><a xlink:title="A292T"><circle cx="270.579869" cy="34.000000" r="4.000000" fill="#ff0000" /></a><g transform="translate(270.579869,34.000000) rotate(-30)"><text style="font-size:10px;font-family:OpenSans;fill:#555;" text-anchor="middle" x="0" y="-6.000000">A292T</text></g><line x1="300.339168" x2="300.339168" y1="34.000000" y2="62.000000" stroke="#BABDB6" stroke-width="2"/><a xlink:title="A326T"><circle cx="300.339168" cy="34.000000" r="4.000000" fill="#ff0000" /></a><g transform="translate(300.339168,34.000000) rotate(-30)"><text style="font-size:10px;font-family:OpenSans;fill:#555;" text-anchor="middle" x="0" y="-6.000000">A326T</text></g><a xlink:title=",  (457aa)"><rect fill="#BABDB6" x="15.000000" y="62.000000" width="400.000000" height="14.000000"/></a><g transform="translate(22.877462,57.000000)"><a xlink:href="https://www.ebi.ac.uk/interpro/entry/pfam/PF00595" xlink:title="PDZ domain"><rect fill="#2DCF00" x="0" y="0" width="62.144420" height="24.000000" filter="url(#ds)"/><text style="font-size:12px;font-family:OpenSans;fill:#ffffff;" text-anchor="middle" x="31.072210" y="16.000000">PDZ</text></a></g>
<g transform="translate(261.827133,57.000000)"><a xlink:href="https://www.ebi.ac.uk/interpro/entry/pfam/PF00412" xlink:title="LIM domain"><rect fill="#FF5353" x="0" y="0" width="44.638950" height="24.000000" filter="url(#ds)"/><text style="font-size:12px;font-family:OpenSans;fill:#ffffff;" text-anchor="middle" x="22.319475" y="16.000000">LIM</text></a></g>
<g transform="translate(313.468271,57.000000)"><a xlink:href="https://www.ebi.ac.uk/interpro/entry/pfam/PF00412" xlink:title="LIM domain"><rect fill="#5B5BFF" x="0" y="0" width="48.140044" height="24.000000" filter="url(#ds)"/><text style="font-size:12px;font-family:OpenSans;fill:#ffffff;" text-anchor="middle" x="24.070022" y="16.000000">LIM</text></a></g>
<g transform="translate(365.109409,57.000000)"><a xlink:href="https://www.ebi.ac.uk/interpro/entry/pfam/PF00412" xlink:title="LIM domain"><rect fill="#EBD61D" x="0" y="0" width="45.514223" height="24.000000" filter="url(#ds)"/><text style="font-size:12px;font-family:OpenSans;fill:#ffffff;" text-anchor="middle" x="22.757112" y="16.000000">LIM</text></a></g>
<g class="axis">
<line x1="15.000000" x2="415.000000" y1="91.000000" y2="91.000000" stroke="#AAAAAA" /><line x1="15.000000" x2="15.000000" y1="91.000000" y2="96.000000" stroke="#AAAAAA" /><line x1="22.877462" x2="22.877462" y1="91.000000" y2="96.000000" stroke="#AAAAAA" /><text style="font-size:10px;font-family:OpenSans;fill:#000000;" text-anchor="middle" x="22.877462" y="106.000000">9</text><line x1="98.150985" x2="98.150985" y1="91.000000" y2="96.000000" stroke="#AAAAAA" /><text style="font-size:10px;font-family:OpenSans;fill:#000000;" text-anchor="middle" x="98.150985" y="106.000000">95</text><line x1="203.183807" x2="203.183807" y1="91.000000" y2="96.000000" stroke="#AAAAAA" /><text style="font-size:10px;font-family:OpenSans;fill:#000000;" text-anchor="middle" x="203.183807" y="106.000000">215</text><line x1="232.943107" x2="232.943107" y1="91.000000" y2="96.000000" stroke="#AAAAAA" /><text style="font-size:10px;font-family:OpenSans;fill:#000000;" text-anchor="middle" x="232.943107" y="106.000000">249</text><line x1="270.579869" x2="270.579869" y1="91.000000" y2="96.000000" stroke="#AAAAAA" /><text style="font-size:10px;font-family:OpenSans;fill:#000000;" text-anchor="middle" x="270.579869" y="106.000000">292</text><line x1="300.339168" x2="300.339168" y1="91.000000" y2="96.000000" stroke="#AAAAAA" /><text style="font-size:10px;font-family:OpenSans;fill:#000000;" text-anchor="middle" x="300.339168" y="106.000000">326</text><line x1="361.608315" x2="361.608315" y1="91.000000" y2="96.000000" stroke="#AAAAAA" /><text style="font-size:10px;font-family:OpenSans;fill:#000000;" text-anchor="middle" x="361.608315" y="106.000000">396</text><line x1="415.000000" x2="415.000000" y1="91.000000" y2="96.000000" stroke="#AAAAAA" /><text style="font-size:10px;font-family:OpenSans;fill:#000000;" text-anchor="middle" x="415.000000" y="106.000000">457</text></g>
<rect fill="#2DCF00" x="4" y="120.000000" width="12" height="12" filter="url(#ds)"/><text style="font-size:12px;font-family:OpenSans;fill:#000000;" text-anchor="start" x="20" y="132.000000">PDZ domain</text><rect fill="#EBD61D" x="4" y="134.000000" width="12" height="12" filter="url(#ds)"/><text style="font-size:12px;font-family:OpenSans;fill:#000000;" text-anchor="start" x="20" y="146.000000">LIM domain</text></svg>
