<?xml version='1.0'?>
<svg xmlns="http://www.w3.org/2000/svg" xmlns:xlink="http://www.w3.org/1999/xlink" width="829.090909" height="210.100000">
<defs>
  <filter id="ds" x="0" y="0">
    <feOffset in="SourceAlpha" dx="2" dy="2" />
    <feComponentTransfer><feFuncA type="linear" slope="0.2"/></feComponentTransfer>
    <feGaussianBlur result="blurOut" stdDeviation="1" />
    <feBlend in="SourceGraphic" in2="blurOut" mode="normal" />
  </filter>
  <pattern id="disordered-hatch" patternUnits="userSpaceOnUse" width="4" height="4">
    <path d="M-1,1 l2,-2 M0,4 l4,-4 M3,5 l2,-2" stroke="#000000" opacity="0.3" />
  </pattern>
</defs>
<line x1="37.727273" x2="37.727273" y1="46.500000" y2="99.500000" stroke="#BABDB6" stroke-width="2"/><a xlink:title="R25C"><circle cx="37.727273" cy="46.500000" r="4.000000" fill="#ff0000" /></a><g transform="translate(37.727273,46.500000) rotate(-30)"><text style="font-size:10px;font-family:OpenSans;fill:#555;" text-anchor="middle" x="0" y="-6.000000">R25C</text></g><line x1="39.545455" x2="39.545455" y1="59.000000" y2="99.500000" stroke="#BABDB6" stroke-width="2"/><a xlink:title="N27S"><circle cx="39.545455" cy="59.000000" r="4.000000" fill="#ff0000" /></a><g transform="translate(39.545455,59.000000) rotate(-30)"><text style="font-size:10px;font-family:OpenSans;fill:#555;" text-anchor="middle" x="0" y="-6.000000">N27S</text></g><line x1="41.363636" x2="41.363636" y1="71.500000" y2="99.500000" stroke="#BABDB6" stroke-width="2"/><a xlink:title="T29A"><circle cx="41.363636" cy="71.500000" r="4.000000" fill="#ff0000" /></a><g transform="translate(41.363636,71.500000) rotate(-30)"><text style="font-size:10px;font-family:OpenSans;fill:#555;" text-anchor="middle" x="0" y="-6.000000">T29A</text></g><line x1="108.636364" x2="108.636364" y1="46.500000" y2="99.500000" stroke="#BABDB6" stroke-width="2"/><a xlink:title="V103L"><circle cx="108.636364" cy="46.500000" r="4.000000" fill="#ff0000" /></a><g transform="translate(108.636364,46.500000) rotate(-30)"><text style="font-size:10px;font-family:OpenSans;fill:#555;" text-anchor="middle" x="0" y="-6.000000">V103L</text></g><line x1="110.454545" x2="110.454545" y1="59.000000" y2="99.500000" stroke="#BABDB6" stroke-width="2"/><a xlink:title="Q105H"><circle cx="110.454545" cy="59.000000" r="4.000000" fill="#ff0000" /></a><g transform="translate(110.454545,59.000000) rotate(-30)"><text style="font-size:10px;font-family:OpenSans;fill:#555;" text-anchor="middle" x="0" y="-6.000000">Q105H</text></g><line x1="111.363636" x2="111.363636" y1="71.500000" y2="99.500000" stroke="#BABDB6" stroke-width="2"/><a xlink:title="I106V"><circle cx="111.363636" cy="71.500000" r="4.000000" fill="#ff0000" /></a><g transform="translate(111.363636,71.500000) rotate(-30)"><text style="font-size:10px;font-family:OpenSans;fill:#555;" text-anchor="middle" x="0" y="-6.000000">I106V</text></g><line x1="155.909091" x2="155.909091" y1="59.000000" y2="99.500000" stroke="#BABDB6" stroke-width="2"/><a xlink:title="R155C"><circle cx="155.909091" cy="59.000000" r="4.000000" fill="#ff0000" /></a><g transform="translate(155.909091,59.000000) rotate(-30)"><text style="font-size:10px;font-family:OpenSans;fill:#555;" text-anchor="middle" x="0" y="-6.000000">R155C</text></g><line x1="156.818182" x2="156.818182" y1="71.500000" y2="99.500000" stroke="#BABDB6" stroke-width="2"/><a xlink:title="V156L"><circle cx="156.818182" cy="71.500000" r="4.000000" fill="#ff0000" /></a><g transform="translate(156.818182,71.500000) rotate(-30)"><text style="font-size:10px;font-family:OpenSans;fill:#555;" text-anchor="middle" x="0" y="-6.000000">V156L</text></g><line x1="201.363636" x2="201.363636" y1="34.000000" y2="99.500000" stroke="#BABDB6" stroke-width="2"/><a xlink:title="Q205H"><circle cx="201.363636" cy="34.000000" r="4.000000" fill="#ff0000" /></a><g transform="translate(201.363636,34.000000) rotate(-30)"><text style="font-size:10px;font-family:OpenSans;fill:#555;" text-anchor="middle" x="0" y="-6.000000">Q205H</text></g><line x1="202.272727" x2="202.272727" y1="46.500000" y2="99.500000" stroke="#BABDB6" stroke-width="2"/><a xlink:title="I206V"><circle cx="202.272727" cy="46.500000" r="4.000000" fill="#ff0000" /></a><g transform="translate(202.272727,46.500000) rotate(-30)"><text style="font-size:10px;font-family:OpenSans;fill:#555;" text-anchor="middle" x="0" y="-6.000000">I206V</text></g><line x1="204.090909" x2="204.090909" y1="59.000000" y2="99.500000" stroke="#BABDB6" stroke-width="2"/><a xlink:title="R208C"><circle cx="204.090909" cy="59.000000" r="4.000000" fill="#ff0000" /></a><g transform="translate(204.090909,59.000000) rotate(-30)"><text style="font-size:10px;font-family:OpenSans;fill:#555;" text-anchor="middle" x="0" y="-6.000000">R208C</text></g><line x1="205.000000" x2="205.000000" y1="71.500000" y2="99.500000" stroke="#BABDB6" stroke-width="2"/><a xlink:title="N209I"><circle cx="205.000000" cy="71.500000" r="4.000000" fill="#ff0000" /></a><g transform="translate(205.000000,71.500000) rotate(-30)"><text style="font-size:10px;font-family:OpenSans;fill:#555;" text-anchor="middle" x="0" y="-6.000000">N209I</text></g><line x1="231.363636" x2="231.363636" y1="71.500000" y2="99.500000" stroke="#BABDB6" stroke-width="2"/><a xlink:title="Y238F"><circle cx="231.363636" cy="71.500000" r="4.000000" fill="#ff0000" /></a><g transform="translate(231.363636,71.500000) rotate(-30)"><text style="font-size:10px;font-family:OpenSans;fill:#555;" text-anchor="middle" x="0" y="-6.000000">Y238F</text></g><line x1="246.818182" x2="246.818182" y1="59.000000" y2="99.500000" stroke="#BABDB6" stroke-width="2"/><a xlink:title="S255S"><circle cx="246.818182" cy="59.000000" r="4.000000" fill="#0000ff" /></a><g transform="translate(246.818182,59.000000) rotate(-30)"><text style="font-size:10px;font-family:OpenSans;fill:#555;" text-anchor="middle" x="0" y="-6.000000">S255S</text></g><line x1="251.363636" x2="251.363636" y1="71.500000" y2="99.500000" stroke="#BABDB6" stroke-width="2"/><a xlink:title="N260K"><circle cx="251.363636" cy="71.500000" r="4.000000" fill="#ff0000" /></a><g transform="translate(251.363636,71.500000) rotate(-30)"><text style="font-size:10px;font-family:OpenSans;fill:#555;" text-anchor="middle" x="0" y="-6.000000">N260K</text></g><line x1="265.000000" x2="265.000000" y1="71.500000" y2="99.500000" stroke="#BABDB6" stroke-width="2"/><a xlink:title="V275L"><circle cx="265.000000" cy="71.500000" r="4.000000" fill="#ff0000" /></a><g transform="translate(265.000000,71.500000) rotate(-30)"><text style="font-size:10px;font-family:OpenSans;fill:#555;" text-anchor="middle" x="0" y="-6.000000">V275L</text></g><line x1="283.181818" x2="283.181818" y1="71.500000" y2="99.500000" stroke="#BABDB6" stroke-width="2"/><a xlink:title="V295L"><circle cx="283.181818" cy="71.500000" r="4.000000" fill="#ff0000" /></a><g transform="translate(283.181818,71.500000) rotate(-30)"><text style="font-size:10px;font-family:OpenSans;fill:#555;" text-anchor="middle" x="0" y="-6.000000">V295L</text></g><line x1="312.272727" x2="312.272727" y1="71.500000" y2="99.500000" stroke="#BABDB6" stroke-width="2"/><a xlink:title="R327C"><circle cx="312.272727" cy="71.500000" r="4.000000" fill="#ff0000" /></a><g transform="translate(312.272727,71.500000) rotate(-30)"><text style="font-size:10px;font-family:OpenSans;fill:#555;" text-anchor="middle" x="0" y="-6.000000">R327C</text></g><line x1="323.181818" x2="323.181818" y1="71.500000" y2="99.500000" stroke="#BABDB6" stroke-width="2"/><a xlink:title="N339I"><circle cx="323.181818" cy="71.500000" r="4.000000" fill="#ff0000" /></a><g transform="translate(323.181818,71.500000) rotate(-30)"><text style="font-size:10px;font-family:OpenSans;fill:#555;" text-anchor="middle" x="0" y="-6.000000">N339I</text></g><line x1="330.454545" x2="330.454545" y1="59.000000" y2="99.500000" stroke="#BABDB6" stroke-width="2"/><a xlink:title="R347C"><circle cx="330.454545" cy="59.000000" r="4.000000" fill="#ff0000" /></a><g transform="translate(330.454545,59.000000) rotate(-30)"><text style="font-size:10px;font-family:OpenSans;fill:#555;" text-anchor="middle" x="0" y="-6.000000">R347C</text></g><line x1="334.090909" x2="334.090909" y1="71.500000" y2="99.500000" stroke="#BABDB6" stroke-width="2"/><a xlink:title="D351D"><circle cx="334.090909" cy="71.500000" r="4.000000" fill="#0000ff" /></a><g transform="translate(334.090909,71.500000) rotate(-30)"><text style="font-size:10px;font-family:OpenSans;fill:#555;" text-anchor="middle" x="0" y="-6.000000">D351D</text></g><line x1="349.545455" x2="349.545455" y1="71.500000" y2="99.500000" stroke="#BABDB6" stroke-width="2"/><a xlink:title="Y368F"><circle cx="349.545455" cy="71.500000" r="4.000000" fill="#ff0000" /></a><g transform="translate(349.545455,71.500000) rotate(-30)"><text style="font-size:10px;font-family:OpenSans;fill:#555;" text-anchor="middle" x="0" y="-6.000000">Y368F</text></g><line x1="355.909091" x2="355.909091" y1="71.500000" y2="99.500000" stroke="#BABDB6" stroke-width="2"/><a xlink:title="V375L"><circle cx="355.909091" cy="71.500000" r="4.000000" fill="#ff0000" /></a><g transform="translate(355.909091,71.500000) rotate(-30)"><text style="font-size:10px;font-family:OpenSans;fill:#555;" text-anchor="middle" x="0" y="-6.000000">V375L</text></g><line x1="365.000000" x2="365.000000" y1="59.000000" y2="99.500000" stroke="#BABDB6" stroke-width="2"/><a xlink:title="S385S"><circle cx="365.000000" cy="59.000000" r="4.000000" fill="#0000ff" /></a><g transform="translate(365.000000,59.000000) rotate(-30)"><text style="font-size:10px;font-family:OpenSans;fill:#555;" text-anchor="middle" x="0" y="-6.000000">S385S</text></g><line x1="369.545455" x2="369.545455" y1="59.000000" y2="99.500000" stroke="#BABDB6" stroke-width="2"/><a xlink:title="N390K"><circle cx="369.545455" cy="59.000000" r="4.000000" fill="#ff0000" /></a><g transform="translate(369.545455,59.000000) rotate(-30)"><text style="font-size:10px;font-family:OpenSans;fill:#555;" text-anchor="middle" x="0" y="-6.000000">N390K</text></g><line x1="371.363636" x2="371.363636" y1="71.500000" y2="99.500000" stroke="#BABDB6" stroke-width="2"/><a xlink:title="N392I"><circle cx="371.363636" cy="71.500000" r="4.000000" fill="#ff0000" /></a><g transform="translate(371.363636,71.500000) rotate(-30)"><text style="font-size:10px;font-family:OpenSans;fill:#555;" text-anchor="middle" x="0" y="-6.000000">N392I</text></g><line x1="397.727273" x2="397.727273" y1="59.000000" y2="99.500000" stroke="#BABDB6" stroke-width="2"/><a xlink:title="Y421F"><circle cx="397.727273" cy="59.000000" r="4.000000" fill="#ff0000" /></a><g transform="translate(397.727273,59.000000) rotate(-30)"><text style="font-size:10px;font-family:OpenSans;fill:#555;" text-anchor="middle" x="0" y="-6.000000">Y421F</text></g><line x1="403.181818" x2="403.181818" y1="71.500000" y2="99.500000" stroke="#BABDB6" stroke-width="2"/><a xlink:title="R427C"><circle cx="403.181818" cy="71.500000" r="4.000000" fill="#ff0000" /></a><g transform="translate(403.181818,71.500000) rotate(-30)"><text style="font-size:10px;font-family:OpenSans;fill:#555;" text-anchor="middle" x="0" y="-6.000000">R427C</text></g><line x1="413.181818" x2="413.181818" y1="59.000000" y2="99.500000" stroke="#BABDB6" stroke-width="2"/><a xlink:title="S438S"><circle cx="413.181818" cy="59.000000" r="4.000000" fill="#0000ff" /></a><g transform="translate(413.181818,59.000000) rotate(-30)"><text style="font-size:10px;font-family:OpenSans;fill:#555;" text-anchor="middle" x="0" y="-6.000000">S438S</text></g><line x1="417.727273" x2="417.727273" y1="71.500000" y2="99.500000" stroke="#BABDB6" stroke-width="2"/><a xlink:title="N443K"><circle cx="417.727273" cy="71.500000" r="4.000000" fill="#ff0000" /></a><g transform="translate(417.727273,71.500000) rotate(-30)"><text style="font-size:10px;font-family:OpenSans;fill:#555;" text-anchor="middle" x="0" y="-6.000000">N443K</text></g><line x1="452.272727" x2="452.272727" y1="71.500000" y2="99.500000" stroke="#BABDB6" stroke-width="2"/><a xlink:title="D481D"><circle cx="452.272727" cy="71.500000" r="4.000000" fill="#0000ff" /></a><g transform="translate(452.272727,71.500000) rotate(-30)"><text style="font-size:10px;font-family:OpenSans;fill:#555;" text-anchor="middle" x="0" y="-6.000000">D481D</text></g><line x1="479.545455" x2="479.545455" y1="71.500000" y2="99.500000" stroke="#BABDB6" stroke-width="2"/><a xlink:title="N511I"><circle cx="479.545455" cy="71.500000" r="4.000000" fill="#ff0000" /></a><g transform="translate(479.545455,71.500000) rotate(-30)"><text style="font-size:10px;font-family:OpenSans;fill:#555;" text-anchor="middle" x="0" y="-6.000000">N511I</text></g><line x1="497.727273" x2="497.727273" y1="59.000000" y2="99.500000" stroke="#BABDB6" stroke-width="2"/><a xlink:title="N531I"><circle cx="497.727273" cy="59.000000" r="4.000000" fill="#ff0000" /></a><g transform="translate(497.727273,59.000000) rotate(-30)"><text style="font-size:10px;font-family:OpenSans;fill:#555;" text-anchor="middle" x="0" y="-6.000000">N531I</text></g><line x1="500.454545" x2="500.454545" y1="59.000000" y2="99.500000" stroke="#BABDB6" stroke-width="2"/><a xlink:title="D534D"><circle cx="500.454545" cy="59.000000" r="4.000000" fill="#0000ff" /></a><g transform="translate(500.454545,59.000000) rotate(-30)"><text style="font-size:10px;font-family:OpenSans;fill:#555;" text-anchor="middle" x="0" y="-6.000000">D534D</text></g><line x1="505.909091" x2="505.909091" y1="71.500000" y2="99.500000" stroke="#BABDB6" stroke-width="2"/><a xlink:title="Y540F"><circle cx="505.909091" cy="71.500000" r="4.000000" fill="#ff0000" /></a><g transform="translate(505.909091,71.500000) rotate(-30)"><text style="font-size:10px;font-family:OpenSans;fill:#555;" text-anchor="middle" x="0" y="-6.000000">Y540F</text></g><line x1="521.363636" x2="521.363636" y1="46.500000" y2="99.500000" stroke="#BABDB6" stroke-width="2"/><a xlink:title="S557S"><circle cx="521.363636" cy="46.500000" r="4.000000" fill="#0000ff" /></a><g transform="translate(521.363636,46.500000) rotate(-30)"><text style="font-size:10px;font-family:OpenSans;fill:#555;" text-anchor="middle" x="0" y="-6.000000">S557S</text></g><line x1="524.090909" x2="524.090909" y1="59.000000" y2="99.500000" stroke="#BABDB6" stroke-width="2"/><a xlink:title="Y560F"><circle cx="524.090909" cy="59.000000" r="4.000000" fill="#ff0000" /></a><g transform="translate(524.090909,59.000000) rotate(-30)"><text style="font-size:10px;font-family:OpenSans;fill:#555;" text-anchor="middle" x="0" y="-6.000000">Y560F</text></g><line x1="525.909091" x2="525.909091" y1="71.500000" y2="99.500000" stroke="#BABDB6" stroke-width="2"/><a xlink:title="N562K"><circle cx="525.909091" cy="71.500000" r="4.000000" fill="#ff0000" /></a><g transform="translate(525.909091,71.500000) rotate(-30)"><text style="font-size:10px;font-family:OpenSans;fill:#555;" text-anchor="middle" x="0" y="-6.000000">N562K</text></g><line x1="539.545455" x2="539.545455" y1="59.000000" y2="99.500000" stroke="#BABDB6" stroke-width="2"/><a xlink:title="S577S"><circle cx="539.545455" cy="59.000000" r="4.000000" fill="#0000ff" /></a><g transform="translate(539.545455,59.000000) rotate(-30)"><text style="font-size:10px;font-family:OpenSans;fill:#555;" text-anchor="middle" x="0" y="-6.000000">S577S</text></g><line x1="544.090909" x2="544.090909" y1="71.500000" y2="99.500000" stroke="#BABDB6" stroke-width="2"/><a xlink:title="N582K"><circle cx="544.090909" cy="71.500000" r="4.000000" fill="#ff0000" /></a><g transform="translate(544.090909,71.500000) rotate(-30)"><text style="font-size:10px;font-family:OpenSans;fill:#555;" text-anchor="middle" x="0" y="-6.000000">N582K</text></g><line x1="570.454545" x2="570.454545" y1="59.000000" y2="99.500000" stroke="#BABDB6" stroke-width="2"/><a xlink:title="N611I"><circle cx="570.454545" cy="59.000000" r="4.000000" fill="#ff0000" /></a><g transform="translate(570.454545,59.000000) rotate(-30)"><text style="font-size:10px;font-family:OpenSans;fill:#555;" text-anchor="middle" x="0" y="-6.000000">N611I</text></g><line x1="571.363636" x2="571.363636" y1="71.500000" y2="99.500000" stroke="#BABDB6" stroke-width="2"/><a xlink:title="D612D"><circle cx="571.363636" cy="71.500000" r="4.000000" fill="#0000ff" /></a><g transform="translate(571.363636,71.500000) rotate(-30)"><text style="font-size:10px;font-family:OpenSans;fill:#555;" text-anchor="middle" x="0" y="-6.000000">D612D</text></g><line x1="596.818182" x2="596.818182" y1="71.500000" y2="99.500000" stroke="#BABDB6" stroke-width="2"/><a xlink:title="Y640F"><circle cx="596.818182" cy="71.500000" r="4.000000" fill="#ff0000" /></a><g transform="translate(596.818182,71.500000) rotate(-30)"><text style="font-size:10px;font-family:OpenSans;fill:#555;" text-anchor="middle" x="0" y="-6.000000">Y640F</text></g><line x1="608.636364" x2="608.636364" y1="59.000000" y2="99.500000" stroke="#BABDB6" stroke-width="2"/><a xlink:title="D653D"><circle cx="608.636364" cy="59.000000" r="4.000000" fill="#0000ff" /></a><g transform="translate(608.636364,59.000000) rotate(-30)"><text style="font-size:10px;font-family:OpenSans;fill:#555;" text-anchor="middle" x="0" y="-6.000000">D653D</text></g><line x1="612.272727" x2="612.272727" y1="59.000000" y2="99.500000" stroke="#BABDB6" stroke-width="2"/><a xlink:title="S657S"><circle cx="612.272727" cy="59.000000" r="4.000000" fill="#0000ff" /></a><g transform="translate(612.272727,59.000000) rotate(-30)"><text style="font-size:10px;font-family:OpenSans;fill:#555;" text-anchor="middle" x="0" y="-6.000000">S657S</text></g><line x1="616.818182" x2="616.818182" y1="71.500000" y2="99.500000" stroke="#BABDB6" stroke-width="2"/><a xlink:title="N662K"><circle cx="616.818182" cy="71.500000" r="4.000000" fill="#ff0000" /></a><g transform="translate(616.818182,71.500000) rotate(-30)"><text style="font-size:10px;font-family:OpenSans;fill:#555;" text-anchor="middle" x="0" y="-6.000000">N662K</text></g><line x1="626.818182" x2="626.818182" y1="71.500000" y2="99.500000" stroke="#BABDB6" stroke-width="2"/><a xlink:title="D673D"><circle cx="626.818182" cy="71.500000" r="4.000000" fill="#0000ff" /></a><g transform="translate(626.818182,71.500000) rotate(-30)"><text style="font-size:10px;font-family:OpenSans;fill:#555;" text-anchor="middle" x="0" y="-6.000000">D673D</text></g><line x1="644.090909" x2="644.090909" y1="71.500000" y2="99.500000" stroke="#BABDB6" stroke-width="2"/><a xlink:title="D692D"><circle cx="644.090909" cy="71.500000" r="4.000000" fill="#0000ff" /></a><g transform="translate(644.090909,71.500000) rotate(-30)"><text style="font-size:10px;font-family:OpenSans;fill:#555;" text-anchor="middle" x="0" y="-6.000000">D692D</text></g><line x1="699.545455" x2="699.545455" y1="71.500000" y2="99.500000" stroke="#BABDB6" stroke-width="2"/><a xlink:title="D753D"><circle cx="699.545455" cy="71.500000" r="4.000000" fill="#0000ff" /></a><g transform="translate(699.545455,71.500000) rotate(-30)"><text style="font-size:10px;font-family:OpenSans;fill:#555;" text-anchor="middle" x="0" y="-6.000000">D753D</text></g><a xlink:title=",  (879aa)"><rect fill="#BABDB6" x="15.000000" y="99.500000" width="799.090909" height="14.000000"/></a><g transform="translate(55.909091,94.500000)"><a xlink:href="https://www.ebi.ac.uk/interpro/entry/pfam/PF01266" xlink:title="FAD dependent oxidoreductase"><rect fill="#2DCF00" x="0" y="0" width="324.545455" height="24.000000" filter="url(#ds)"/><text style="font-size:12px;font-family:OpenSans;fill:#ffffff;" text-anchor="middle" x="162.272727" y="16.000000">FAD dependent oxidoreductase</text></a></g>
<g transform="translate(383.181818,94.500000)"><a xlink:href="https://www.ebi.ac.uk/interpro/entry/pfam/PF16350" xlink:title="FAD dependent oxidoreductase central domain"><rect fill="#FF5353" x="0" y="0" width="50.000000" height="24.000000" filter="url(#ds)"/><text style="font-size:12px;font-family:OpenSans;fill:#ffffff;" text-anchor="middle" x="25.000000" y="16.000000">FAO_M</text></a></g>
<g transform="translate(435.000000,94.500000)"><a xlink:href="https://www.ebi.ac.uk/interpro/entry/pfam/PF01571" xlink:title="Aminomethyltransferase folate-binding domain"><rect fill="#5B5BFF" x="0" y="0" width="249.090909" height="24.000000" filter="url(#ds)"/><text style="font-size:12px;font-family:OpenSans;fill:#ffffff;" text-anchor="middle" x="124.545455" y="16.000000">GCV_T</text></a></g>
<g transform="translate(710.454545,94.500000)"><a xlink:href="https://www.ebi.ac.uk/interpro/entry/pfam/PF08669" xlink:title="Glycine cleavage T-protein C-terminal barrel domain"><rect fill="#EBD61D" x="0" y="0" width="80.000000" height="24.000000" filter="url(#ds)"/><text style="font-size:12px;font-family:OpenSans;fill:#ffffff;" text-anchor="middle" x="40.000000" y="16.000000">GCV_T_C</text></a></g>
<g class="axis">
<line x1="15.000000" x2="814.090909" y1="128.500000" y2="128.500000" stroke="#AAAAAA" /><line x1="15.000000" x2="15.000000" y1="128.500000" y2="133.500000" stroke="#AAAAAA" /><line x1="15.000000" x2="15.000000" y1="128.500000" y2="133.500000" stroke="#AAAAAA" /><text style="font-size:10px;font-family:OpenSans;fill:#000000;" text-anchor="middle" x="15.000000" y="143.500000">0</text><line x1="37.727273" x2="37.727273" y1="128.500000" y2="133.500000" stroke="#AAAAAA" /><text style="font-size:10px;font-family:OpenSans;fill:#000000;" text-anchor="middle" x="37.727273" y="143.500000">25</text><line x1="108.636364" x2="108.636364" y1="128.500000" y2="133.500000" stroke="#AAAAAA" /><text style="font-size:10px;font-family:OpenSans;fill:#000000;" text-anchor="middle" x="108.636364" y="143.500000">103</text><line x1="155.909091" x2="155.909091" y1="128.500000" y2="133.500000" stroke="#AAAAAA" /><text style="font-size:10px;font-family:OpenSans;fill:#000000;" text-anchor="middle" x="155.909091" y="143.500000">155</text><line x1="201.363636" x2="201.363636" y1="128.500000" y2="133.500000" stroke="#AAAAAA" /><text style="font-size:10px;font-family:OpenSans;fill:#000000;" text-anchor="middle" x="201.363636" y="143.500000">205</text><line x1="231.363636" x2="231.363636" y1="128.500000" y2="133.500000" stroke="#AAAAAA" /><text style="font-size:10px;font-family:OpenSans;fill:#000000;" text-anchor="middle" x="231.363636" y="143.500000">238</text><line x1="251.363636" x2="251.363636" y1="128.500000" y2="133.500000" stroke="#AAAAAA" /><text style="font-size:10px;font-family:OpenSans;fill:#000000;" text-anchor="middle" x="251.363636" y="143.500000">260</text><line x1="283.181818" x2="283.181818" y1="128.500000" y2="133.500000" stroke="#AAAAAA" /><text style="font-size:10px;font-family:OpenSans;fill:#000000;" text-anchor="middle" x="283.181818" y="143.500000">295</text><line x1="312.272727" x2="312.272727" y1="128.500000" y2="133.500000" stroke="#AAAAAA" /><text style="font-size:10px;font-family:OpenSans;fill:#000000;" text-anchor="middle" x="312.272727" y="143.500000">327</text><line x1="334.090909" x2="334.090909" y1="128.500000" y2="133.500000" stroke="#AAAAAA" /><text style="font-size:10px;font-family:OpenSans;fill:#000000;" text-anchor="middle" x="334.090909" y="143.500000">351</text><line x1="355.909091" x2="355.909091" y1="128.500000" y2="133.500000" stroke="#AAAAAA" /><text style="font-size:10px;font-family:OpenSans;fill:#000000;" text-anchor="middle" x="355.909091" y="143.500000">375</text><line x1="397.727273" x2="397.727273" y1="128.500000" y2="133.500000" stroke="#AAAAAA" /><text style="font-size:10px;font-family:OpenSans;fill:#000000;" text-anchor="middle" x="397.727273" y="143.500000">421</text><line x1="417.727273" x2="417.727273" y1="128.500000" y2="133.500000" stroke="#AAAAAA" /><text style="font-size:10px;font-family:OpenSans;fill:#000000;" text-anchor="middle" x="417.727273" y="143.500000">443</text><line x1="452.272727" x2="452.272727" y1="128.500000" y2="133.500000" stroke="#AAAAAA" /><text style="font-size:10px;font-family:OpenSans;fill:#000000;" text-anchor="middle" x="452.272727" y="143.500000">481</text><line x1="479.545455" x2="479.545455" y1="128.500000" y2="133.500000" stroke="#AAAAAA" /><text style="font-size:10px;font-family:OpenSans;fill:#000000;" text-anchor="middle" x="479.545455" y="143.500000">511</text><line x1="500.454545" x2="500.454545" y1="128.500000" y2="133.500000" stroke="#AAAAAA" /><text style="font-size:10px;font-family:OpenSans;fill:#000000;" text-anchor="middle" x="500.454545" y="143.500000">534</text><line x1="521.363636" x2="521.363636" y1="128.500000" y2="133.500000" stroke="#AAAAAA" /><text style="font-size:10px;font-family:OpenSans;fill:#000000;" text-anchor="middle" x="521.363636" y="143.500000">557</text><line x1="544.090909" x2="544.090909" y1="128.500000" y2="133.500000" stroke="#AAAAAA" /><text style="font-size:10px;font-family:OpenSans;fill:#000000;" text-anchor="middle" x="544.090909" y="143.500000">582</text><line x1="570.454545" x2="570.454545" y1="128.500000" y2="133.500000" stroke="#AAAAAA" /><text style="font-size:10px;font-family:OpenSans;fill:#000000;" text-anchor="middle" x="570.454545" y="143.500000">611</text><line x1="596.818182" x2="596.818182" y1="128.500000" y2="133.500000" stroke="#AAAAAA" /><text style="font-size:10px;font-family:OpenSans;fill:#000000;" text-anchor="middle" x="596.818182" y="143.500000">640</text><line x1="616.818182" x2="616.818182" y1="128.500000" y2="133.500000" stroke="#AAAAAA" /><text style="font-size:10px;font-family:OpenSans;fill:#000000;" text-anchor="middle" x="616.818182" y="143.500000">662</text><line x1="644.090909" x2="644.090909" y1="128.500000" y2="133.500000" stroke="#AAAAAA" /><text style="font-size:10px;font-family:OpenSans;fill:#000000;" text-anchor="middle" x="644.090909" y="143.500000">692</text><line x1="699.545455" x2="699.545455" y1="128.500000" y2="133.500000" stroke="#AAAAAA" /><text style="font-size:10px;font-family:OpenSans;fill:#000000;" text-anchor="middle" x="699.545455" y="143.500000">753</text><line x1="790.454545" x2="790.454545" y1="128.500000" y2="133.500000" stroke="#AAAAAA" /><text style="font-size:10px;font-family:OpenSans;fill:#000000;" text-anchor="middle" x="790.454545" y="143.500000">853</text><line x1="814.090909" x2="814.090909" y1="128.500000" y2="133.500000" stroke="#AAAAAA" /><text style="font-size:10px;font-family:OpenSans;fill:#000000;" text-anchor="middle" x="814.090909" y="143.500000">879</text></g>
<rect fill="#EBD61D" x="4" y="157.500000" width="12" height="12" filter="url(#ds)"/><text style="font-size:12px;font-family:OpenSans;fill:#000000;" text-anchor="start" x="20" y="169.500000">Glycine cleavage T-protein C-terminal barrel domain</text><rect fill="#FF5353" x="4" y="171.500000" width="12" height="12" filter="url(#ds)"/><text style="font-size:12px;font-family:OpenSans;fill:#000000;" text-anchor="start" x="20" y="183.500000">FAD dependent oxidoreductase central domain</text><rect fill="#5B5BFF" x="4" y="185.500000" width="12" height="12" filter="url(#ds)"/><text style="font-size:12px;font-family:OpenSans;fill:#000000;" text-anchor="start" x="20" y="197.500000">Aminomethyltransferase folate-binding domain</text></svg>
