<?xml version='1.0'?>
<svg xmlns="http://www.w3.org/2000/svg" xmlns:xlink="http://www.w3.org/1999/xlink" width="430.000000" height="170.500000">
<defs>
  <filter id="ds" x="0" y="0">
    <feOffset in="SourceAlpha" dx="2" dy="2" />
    <feComponentTransfer><feFuncA type="linear" slope="0.2"/></feComponentTransfer>
    <feGaussianBlur result="blurOut" stdDeviation="1" />
    <feBlend in="SourceGraphic" in2="blurOut" mode="normal" />
  </filter>
  <pattern id="disordered-hatch" patternUnits="userSpaceOnUse" width="4" height="4">
    <path d="M-1,1 l2,-2 M0,4 l4,-4 M3,5 l2,-2" stroke="#000000" opacity="0.3" />
  </pattern>
</defs>
<line x1="19.010025" x2="19.010025" y1="71.500000" y2="99.500000" stroke="#BABDB6" stroke-width="2"/><a xlink:title="G4G"><circle cx="19.010025" cy="71.500000" r="4.000000" fill="#0000ff" /></a><g transform="translate(19.010025,71.500000) rotate(-30)"><text style="font-size:10px;font-family:OpenSans;fill:#555;" text-anchor="middle" x="0" y="-6.000000">G4G</text></g><line x1="63.120301" x2="63.120301" y1="71.500000" y2="99.500000" stroke="#BABDB6" stroke-width="2"/><a xlink:title="G48G"><circle cx="63.120301" cy="71.500000" r="4.000000" fill="#0000ff" /></a><g transform="translate(63.120301,71.500000) rotate(-30)"><text style="font-size:10px;font-family:OpenSans;fill:#555;" text-anchor="middle" x="0" y="-6.000000">G48G</text></g><line x1="113.245614" x2="113.245614" y1="71.500000" y2="99.500000" stroke="#BABDB6" stroke-width="2"/><a xlink:title="G98G"><circle cx="113.245614" cy="71.500000" r="4.000000" fill="#0000ff" /></a><g transform="translate(113.245614,71.500000) rotate(-30)"><text style="font-size:10px;font-family:OpenSans;fill:#555;" text-anchor="middle" x="0" y="-6.000000">G98G</text></g><line x1="154.348371" x2="154.348371" y1="71.500000" y2="99.500000" stroke="#BABDB6" stroke-width="2"/><a xlink:title="G139G"><circle cx="154.348371" cy="71.500000" r="4.000000" fill="#0000ff" /></a><g transform="translate(154.348371,71.500000) rotate(-30)"><text style="font-size:10px;font-family:OpenSans;fill:#555;" text-anchor="middle" x="0" y="-6.000000">G139G</text></g><line x1="184.423559" x2="184.423559" y1="59.000000" y2="99.500000" stroke="#BABDB6" stroke-width="2"/><a xlink:title="R169*"><circle cx="184.423559" cy="59.000000" r="4.000000" fill="#0000ff" /></a><g transform="translate(184.423559,59.000000) rotate(-30)"><text style="font-size:10px;font-family:OpenSans;fill:#555;" text-anchor="middle" x="0" y="-6.000000">R169*</text></g><line x1="187.431078" x2="187.431078" y1="71.500000" y2="99.500000" stroke="#BABDB6" stroke-width="2"/><a xlink:title="A172T"><circle cx="187.431078" cy="71.500000" r="4.000000" fill="#ff0000" /></a><g transform="translate(187.431078,71.500000) rotate(-30)"><text style="font-size:10px;font-family:OpenSans;fill:#555;" text-anchor="middle" x="0" y="-6.000000">A172T</text></g><line x1="199.461153" x2="199.461153" y1="71.500000" y2="99.500000" stroke="#BABDB6" stroke-width="2"/><a xlink:title="G184G"><circle cx="199.461153" cy="71.500000" r="4.000000" fill="#0000ff" /></a><g transform="translate(199.461153,71.500000) rotate(-30)"><text style="font-size:10px;font-family:OpenSans;fill:#555;" text-anchor="middle" x="0" y="-6.000000">G184G</text></g><line x1="213.496241" x2="213.496241" y1="71.500000" y2="99.500000" stroke="#BABDB6" stroke-width="2"/><a xlink:title="N198S"><circle cx="213.496241" cy="71.500000" r="4.000000" fill="#ff0000" /></a><g transform="translate(213.496241,71.500000) rotate(-30)"><text style="font-size:10px;font-family:OpenSans;fill:#555;" text-anchor="middle" x="0" y="-6.000000">N198S</text></g><line x1="228.533835" x2="228.533835" y1="59.000000" y2="99.500000" stroke="#BABDB6" stroke-width="2"/><a xlink:title="R213*"><circle cx="228.533835" cy="59.000000" r="4.000000" fill="#0000ff" /></a><g transform="translate(228.533835,59.000000) rotate(-30)"><text style="font-size:10px;font-family:OpenSans;fill:#555;" text-anchor="middle" x="0" y="-6.000000">R213*</text></g><line x1="231.541353" x2="231.541353" y1="71.500000" y2="99.500000" stroke="#BABDB6" stroke-width="2"/><a xlink:title="A216T"><circle cx="231.541353" cy="71.500000" r="4.000000" fill="#ff0000" /></a><g transform="translate(231.541353,71.500000) rotate(-30)"><text style="font-size:10px;font-family:OpenSans;fill:#555;" text-anchor="middle" x="0" y="-6.000000">A216T</text></g><line x1="251.591479" x2="251.591479" y1="71.500000" y2="99.500000" stroke="#BABDB6" stroke-width="2"/><a xlink:title="E236E"><circle cx="251.591479" cy="71.500000" r="4.000000" fill="#0000ff" /></a><g transform="translate(251.591479,71.500000) rotate(-30)"><text style="font-size:10px;font-family:OpenSans;fill:#555;" text-anchor="middle" x="0" y="-6.000000">E236E</text></g><line x1="257.606516" x2="257.606516" y1="59.000000" y2="99.500000" stroke="#BABDB6" stroke-width="2"/><a xlink:title="N242S"><circle cx="257.606516" cy="59.000000" r="4.000000" fill="#ff0000" /></a><g transform="translate(257.606516,59.000000) rotate(-30)"><text style="font-size:10px;font-family:OpenSans;fill:#555;" text-anchor="middle" x="0" y="-6.000000">N242S</text></g><line x1="262.619048" x2="262.619048" y1="59.000000" y2="99.500000" stroke="#BABDB6" stroke-width="2"/><a xlink:title="R247*"><circle cx="262.619048" cy="59.000000" r="4.000000" fill="#0000ff" /></a><g transform="translate(262.619048,59.000000) rotate(-30)"><text style="font-size:10px;font-family:OpenSans;fill:#555;" text-anchor="middle" x="0" y="-6.000000">R247*</text></g><line x1="265.626566" x2="265.626566" y1="71.500000" y2="99.500000" stroke="#BABDB6" stroke-width="2"/><a xlink:title="A250T"><circle cx="265.626566" cy="71.500000" r="4.000000" fill="#ff0000" /></a><g transform="translate(265.626566,71.500000) rotate(-30)"><text style="font-size:10px;font-family:OpenSans;fill:#555;" text-anchor="middle" x="0" y="-6.000000">A250T</text></g><line x1="284.674185" x2="284.674185" y1="71.500000" y2="99.500000" stroke="#BABDB6" stroke-width="2"/><a xlink:title="E269E"><circle cx="284.674185" cy="71.500000" r="4.000000" fill="#0000ff" /></a><g transform="translate(284.674185,71.500000) rotate(-30)"><text style="font-size:10px;font-family:OpenSans;fill:#555;" text-anchor="middle" x="0" y="-6.000000">E269E</text></g><line x1="291.691729" x2="291.691729" y1="59.000000" y2="99.500000" stroke="#BABDB6" stroke-width="2"/><a xlink:title="N276S"><circle cx="291.691729" cy="59.000000" r="4.000000" fill="#ff0000" /></a><g transform="translate(291.691729,59.000000) rotate(-30)"><text style="font-size:10px;font-family:OpenSans;fill:#555;" text-anchor="middle" x="0" y="-6.000000">N276S</text></g><line x1="296.704261" x2="296.704261" y1="71.500000" y2="99.500000" stroke="#BABDB6" stroke-width="2"/><a xlink:title="E281E"><circle cx="296.704261" cy="71.500000" r="4.000000" fill="#0000ff" /></a><g transform="translate(296.704261,71.500000) rotate(-30)"><text style="font-size:10px;font-family:OpenSans;fill:#555;" text-anchor="middle" x="0" y="-6.000000">E281E</text></g><line x1="309.736842" x2="309.736842" y1="59.000000" y2="99.500000" stroke="#BABDB6" stroke-width="2"/><a xlink:title="E294E"><circle cx="309.736842" cy="59.000000" r="4.000000" fill="#0000ff" /></a><g transform="translate(309.736842,59.000000) rotate(-30)"><text style="font-size:10px;font-family:OpenSans;fill:#555;" text-anchor="middle" x="0" y="-6.000000">E294E</text></g><line x1="312.744361" x2="312.744361" y1="71.500000" y2="99.500000" stroke="#BABDB6" stroke-width="2"/><a xlink:title="E297E"><circle cx="312.744361" cy="71.500000" r="4.000000" fill="#0000ff" /></a><g transform="translate(312.744361,71.500000) rotate(-30)"><text style="font-size:10px;font-family:OpenSans;fill:#555;" text-anchor="middle" x="0" y="-6.000000">E297E</text></g><line x1="319.761905" x2="319.761905" y1="34.000000" y2="99.500000" stroke="#BABDB6" stroke-width="2"/><a xlink:title="R304*"><circle cx="319.761905" cy="34.000000" r="4.000000" fill="#0000ff" /></a><g transform="translate(319.761905,34.000000) rotate(-30)"><text style="font-size:10px;font-family:OpenSans;fill:#555;" text-anchor="middle" x="0" y="-6.000000">R304*</text></g><line x1="320.764411" x2="320.764411" y1="46.500000" y2="99.500000" stroke="#BABDB6" stroke-width="2"/><a xlink:title="R305*"><circle cx="320.764411" cy="46.500000" r="4.000000" fill="#0000ff" /></a><g transform="translate(320.764411,46.500000) rotate(-30)"><text style="font-size:10px;font-family:OpenSans;fill:#555;" text-anchor="middle" x="0" y="-6.000000">R305*</text></g><line x1="322.769424" x2="322.769424" y1="59.000000" y2="99.500000" stroke="#BABDB6" stroke-width="2"/><a xlink:title="A307T"><circle cx="322.769424" cy="59.000000" r="4.000000" fill="#ff0000" /></a><g transform="translate(322.769424,59.000000) rotate(-30)"><text style="font-size:10px;font-family:OpenSans;fill:#555;" text-anchor="middle" x="0" y="-6.000000">A307T</text></g><line x1="323.771930" x2="323.771930" y1="59.000000" y2="99.500000" stroke="#BABDB6" stroke-width="2"/><a xlink:title="A308T"><circle cx="323.771930" cy="59.000000" r="4.000000" fill="#ff0000" /></a><g transform="translate(323.771930,59.000000) rotate(-30)"><text style="font-size:10px;font-family:OpenSans;fill:#555;" text-anchor="middle" x="0" y="-6.000000">A308T</text></g><line x1="328.784461" x2="328.784461" y1="71.500000" y2="99.500000" stroke="#BABDB6" stroke-width="2"/><a xlink:title="E313E"><circle cx="328.784461" cy="71.500000" r="4.000000" fill="#0000ff" /></a><g transform="translate(328.784461,71.500000) rotate(-30)"><text style="font-size:10px;font-family:OpenSans;fill:#555;" text-anchor="middle" x="0" y="-6.000000">E313E</text></g><line x1="348.834586" x2="348.834586" y1="46.500000" y2="99.500000" stroke="#BABDB6" stroke-width="2"/><a xlink:title="N333S"><circle cx="348.834586" cy="46.500000" r="4.000000" fill="#ff0000" /></a><g transform="translate(348.834586,46.500000) rotate(-30)"><text style="font-size:10px;font-family:OpenSans;fill:#555;" text-anchor="middle" x="0" y="-6.000000">N333S</text></g><line x1="349.837093" x2="349.837093" y1="46.500000" y2="99.500000" stroke="#BABDB6" stroke-width="2"/><a xlink:title="N334S"><circle cx="349.837093" cy="46.500000" r="4.000000" fill="#ff0000" /></a><g transform="translate(349.837093,46.500000) rotate(-30)"><text style="font-size:10px;font-family:OpenSans;fill:#555;" text-anchor="middle" x="0" y="-6.000000">N334S</text></g><line x1="353.847118" x2="353.847118" y1="59.000000" y2="99.500000" stroke="#BABDB6" stroke-width="2"/><a xlink:title="E338E"><circle cx="353.847118" cy="59.000000" r="4.000000" fill="#0000ff" /></a><g transform="translate(353.847118,59.000000) rotate(-30)"><text style="font-size:10px;font-family:OpenSans;fill:#555;" text-anchor="middle" x="0" y="-6.000000">E338E</text></g><line x1="354.849624" x2="354.849624" y1="71.500000" y2="99.500000" stroke="#BABDB6" stroke-width="2"/><a xlink:title="E339E"><circle cx="354.849624" cy="71.500000" r="4.000000" fill="#0000ff" /></a><g transform="translate(354.849624,71.500000) rotate(-30)"><text style="font-size:10px;font-family:OpenSans;fill:#555;" text-anchor="middle" x="0" y="-6.000000">E339E</text></g><line x1="362.869674" x2="362.869674" y1="46.500000" y2="99.500000" stroke="#BABDB6" stroke-width="2"/><a xlink:title="E347E"><circle cx="362.869674" cy="46.500000" r="4.000000" fill="#0000ff" /></a><g transform="translate(362.869674,46.500000) rotate(-30)"><text style="font-size:10px;font-family:OpenSans;fill:#555;" text-anchor="middle" x="0" y="-6.000000">E347E</text></g><line x1="364.874687" x2="364.874687" y1="59.000000" y2="99.500000" stroke="#BABDB6" stroke-width="2"/><a xlink:title="R349*"><circle cx="364.874687" cy="59.000000" r="4.000000" fill="#0000ff" /></a><g transform="translate(364.874687,59.000000) rotate(-30)"><text style="font-size:10px;font-family:OpenSans;fill:#555;" text-anchor="middle" x="0" y="-6.000000">R349*</text></g><line x1="367.882206" x2="367.882206" y1="71.500000" y2="99.500000" stroke="#BABDB6" stroke-width="2"/><a xlink:title="A352T"><circle cx="367.882206" cy="71.500000" r="4.000000" fill="#ff0000" /></a><g transform="translate(367.882206,71.500000) rotate(-30)"><text style="font-size:10px;font-family:OpenSans;fill:#555;" text-anchor="middle" x="0" y="-6.000000">A352T</text></g><line x1="393.947368" x2="393.947368" y1="59.000000" y2="99.500000" stroke="#BABDB6" stroke-width="2"/><a xlink:title="N378S"><circle cx="393.947368" cy="59.000000" r="4.000000" fill="#ff0000" /></a><g transform="translate(393.947368,59.000000) rotate(-30)"><text style="font-size:10px;font-family:OpenSans;fill:#555;" text-anchor="middle" x="0" y="-6.000000">N378S</text></g><line x1="398.959900" x2="398.959900" y1="71.500000" y2="99.500000" stroke="#BABDB6" stroke-width="2"/><a xlink:title="E383E"><circle cx="398.959900" cy="71.500000" r="4.000000" fill="#0000ff" /></a><g transform="translate(398.959900,71.500000) rotate(-30)"><text style="font-size:10px;font-family:OpenSans;fill:#555;" text-anchor="middle" x="0" y="-6.000000">E383E</text></g><line x1="420.012531" x2="420.012531" y1="59.000000" y2="99.500000" stroke="#BABDB6" stroke-width="2"/><a xlink:title="E404E"><circle cx="420.012531" cy="59.000000" r="4.000000" fill="#0000ff" /></a><g transform="translate(420.012531,59.000000) rotate(-30)"><text style="font-size:10px;font-family:OpenSans;fill:#555;" text-anchor="middle" x="0" y="-6.000000">E404E</text></g><line x1="421.015038" x2="421.015038" y1="71.500000" y2="99.500000" stroke="#BABDB6" stroke-width="2"/><a xlink:title="E405E"><circle cx="421.015038" cy="71.500000" r="4.000000" fill="#0000ff" /></a><g transform="translate(421.015038,71.500000) rotate(-30)"><text style="font-size:10px;font-family:OpenSans;fill:#555;" text-anchor="middle" x="0" y="-6.000000">E405E</text></g><line x1="465.125313" x2="465.125313" y1="71.500000" y2="99.500000" stroke="#BABDB6" stroke-width="2"/><a xlink:title="E449E"><circle cx="465.125313" cy="71.500000" r="4.000000" fill="#0000ff" /></a><g transform="translate(465.125313,71.500000) rotate(-30)"><text style="font-size:10px;font-family:OpenSans;fill:#555;" text-anchor="middle" x="0" y="-6.000000">E449E</text></g><a xlink:title=",  (399aa)"><rect fill="#BABDB6" x="15.000000" y="99.500000" width="400.000000" height="14.000000"/></a><g transform="translate(125.275689,94.500000)"><a xlink:href="https://www.ebi.ac.uk/interpro/entry/pfam/PF00348" xlink:title="Polyprenyl synthetase"><rect fill="#2DCF00" x="0" y="0" width="193.483709" height="24.000000" filter="url(#ds)"/><text style="font-size:12px;font-family:OpenSans;fill:#ffffff;" text-anchor="middle" x="96.741855" y="16.000000">Polyprenyl synthetase</text></a></g>
<g class="axis">
<line x1="15.000000" x2="415.000000" y1="128.500000" y2="128.500000" stroke="#AAAAAA" /><line x1="15.000000" x2="15.000000" y1="128.500000" y2="133.500000" stroke="#AAAAAA" /><line x1="19.010025" x2="19.010025" y1="128.500000" y2="133.500000" stroke="#AAAAAA" /><text style="font-size:10px;font-family:OpenSans;fill:#000000;" text-anchor="middle" x="19.010025" y="143.500000">4</text><line x1="63.120301" x2="63.120301" y1="128.500000" y2="133.500000" stroke="#AAAAAA" /><text style="font-size:10px;font-family:OpenSans;fill:#000000;" text-anchor="middle" x="63.120301" y="143.500000">48</text><line x1="113.245614" x2="113.245614" y1="128.500000" y2="133.500000" stroke="#AAAAAA" /><text style="font-size:10px;font-family:OpenSans;fill:#000000;" text-anchor="middle" x="113.245614" y="143.500000">98</text><line x1="154.348371" x2="154.348371" y1="128.500000" y2="133.500000" stroke="#AAAAAA" /><text style="font-size:10px;font-family:OpenSans;fill:#000000;" text-anchor="middle" x="154.348371" y="143.500000">139</text><line x1="184.423559" x2="184.423559" y1="128.500000" y2="133.500000" stroke="#AAAAAA" /><text style="font-size:10px;font-family:OpenSans;fill:#000000;" text-anchor="middle" x="184.423559" y="143.500000">169</text><line x1="213.496241" x2="213.496241" y1="128.500000" y2="133.500000" stroke="#AAAAAA" /><text style="font-size:10px;font-family:OpenSans;fill:#000000;" text-anchor="middle" x="213.496241" y="143.500000">198</text><line x1="251.591479" x2="251.591479" y1="128.500000" y2="133.500000" stroke="#AAAAAA" /><text style="font-size:10px;font-family:OpenSans;fill:#000000;" text-anchor="middle" x="251.591479" y="143.500000">236</text><line x1="284.674185" x2="284.674185" y1="128.500000" y2="133.500000" stroke="#AAAAAA" /><text style="font-size:10px;font-family:OpenSans;fill:#000000;" text-anchor="middle" x="284.674185" y="143.500000">269</text><line x1="309.736842" x2="309.736842" y1="128.500000" y2="133.500000" stroke="#AAAAAA" /><text style="font-size:10px;font-family:OpenSans;fill:#000000;" text-anchor="middle" x="309.736842" y="143.500000">294</text><line x1="328.784461" x2="328.784461" y1="128.500000" y2="133.500000" stroke="#AAAAAA" /><text style="font-size:10px;font-family:OpenSans;fill:#000000;" text-anchor="middle" x="328.784461" y="143.500000">313</text><line x1="348.834586" x2="348.834586" y1="128.500000" y2="133.500000" stroke="#AAAAAA" /><text style="font-size:10px;font-family:OpenSans;fill:#000000;" text-anchor="middle" x="348.834586" y="143.500000">333</text><line x1="367.882206" x2="367.882206" y1="128.500000" y2="133.500000" stroke="#AAAAAA" /><text style="font-size:10px;font-family:OpenSans;fill:#000000;" text-anchor="middle" x="367.882206" y="143.500000">352</text><line x1="393.947368" x2="393.947368" y1="128.500000" y2="133.500000" stroke="#AAAAAA" /><text style="font-size:10px;font-family:OpenSans;fill:#000000;" text-anchor="middle" x="393.947368" y="143.500000">378</text><line x1="415.000000" x2="415.000000" y1="128.500000" y2="133.500000" stroke="#AAAAAA" /><text style="font-size:10px;font-family:OpenSans;fill:#000000;" text-anchor="middle" x="415.000000" y="143.500000">399</text><line x1="465.125313" x2="465.125313" y1="128.500000" y2="133.500000" stroke="#AAAAAA" /><text style="font-size:10px;font-family:OpenSans;fill:#000000;" text-anchor="middle" x="465.125313" y="143.500000">449</text></g>
</svg>
