<?xml version='1.0'?>
<svg xmlns="http://www.w3.org/2000/svg" xmlns:xlink="http://www.w3.org/1999/xlink" width="430.000000" height="133.000000">
<defs>
  <filter id="ds" x="0" y="0">
    <feOffset in="SourceAlpha" dx="2" dy="2" />
    <feComponentTransfer><feFuncA type="linear" slope="0.2"/></feComponentTransfer>
    <feGaussianBlur result="blurOut" stdDeviation="1" />
    <feBlend in="SourceGraphic" in2="blurOut" mode="normal" />
  </filter>
  <pattern id="disordered-hatch" patternUnits="userSpaceOnUse" width="4" height="4">
    <path d="M-1,1 l2,-2 M0,4 l4,-4 M3,5 l2,-2" stroke="#000000" opacity="0.3" />
  </pattern>
</defs>
<line x1="49.854772" x2="49.854772" y1="34.000000" y2="62.000000" stroke="#BABDB6" stroke-width="2"/><a xlink:title="C21W"><circle cx="49.854772" cy="34.000000" r="4.000000" fill="#ff0000" /></a><g transform="translate(49.854772,34.000000) rotate(-30)"><text style="font-size:10px;font-family:OpenSans;fill:#555;" text-anchor="middle" x="0" y="-6.000000">C21W</text></g><line x1="86.369295" x2="86.369295" y1="34.000000" y2="62.000000" stroke="#BABDB6" stroke-width="2"/><a xlink:title="S43S"><circle cx="86.369295" cy="34.000000" r="4.000000" fill="#0000ff" /></a><g transform="translate(86.369295,34.000000) rotate(-30)"><text style="font-size:10px;font-family:OpenSans;fill:#555;" text-anchor="middle" x="0" y="-6.000000">S43S</text></g><line x1="166.037344" x2="166.037344" y1="34.000000" y2="62.000000" stroke="#BABDB6" stroke-width="2"/><a xlink:title="C91W"><circle cx="166.037344" cy="34.000000" r="4.000000" fill="#ff0000" /></a><g transform="translate(166.037344,34.000000) rotate(-30)"><text style="font-size:10px;font-family:OpenSans;fill:#555;" text-anchor="middle" x="0" y="-6.000000">C91W</text></g><line x1="263.962656" x2="263.962656" y1="34.000000" y2="62.000000" stroke="#BABDB6" stroke-width="2"/><a xlink:title="A150A"><circle cx="263.962656" cy="34.000000" r="4.000000" fill="#0000ff" /></a><g transform="translate(263.962656,34.000000) rotate(-30)"><text style="font-size:10px;font-family:OpenSans;fill:#555;" text-anchor="middle" x="0" y="-6.000000">A150A</text></g><line x1="275.580913" x2="275.580913" y1="34.000000" y2="62.000000" stroke="#BABDB6" stroke-width="2"/><a xlink:title="A157V"><circle cx="275.580913" cy="34.000000" r="4.000000" fill="#ff0000" /></a><g transform="translate(275.580913,34.000000) rotate(-30)"><text style="font-size:10px;font-family:OpenSans;fill:#555;" text-anchor="middle" x="0" y="-6.000000">A157V</text></g><line x1="283.879668" x2="283.879668" y1="34.000000" y2="62.000000" stroke="#BABDB6" stroke-width="2"/><a xlink:title="A162A"><circle cx="283.879668" cy="34.000000" r="4.000000" fill="#0000ff" /></a><g transform="translate(283.879668,34.000000) rotate(-30)"><text style="font-size:10px;font-family:OpenSans;fill:#555;" text-anchor="middle" x="0" y="-6.000000">A162A</text></g><line x1="298.817427" x2="298.817427" y1="34.000000" y2="62.000000" stroke="#BABDB6" stroke-width="2"/><a xlink:title="A171A"><circle cx="298.817427" cy="34.000000" r="4.000000" fill="#0000ff" /></a><g transform="translate(298.817427,34.000000) rotate(-30)"><text style="font-size:10px;font-family:OpenSans;fill:#555;" text-anchor="middle" x="0" y="-6.000000">A171A</text></g><line x1="318.734440" x2="318.734440" y1="34.000000" y2="62.000000" stroke="#BABDB6" stroke-width="2"/><a xlink:title="A183V"><circle cx="318.734440" cy="34.000000" r="4.000000" fill="#ff0000" /></a><g transform="translate(318.734440,34.000000) rotate(-30)"><text style="font-size:10px;font-family:OpenSans;fill:#555;" text-anchor="middle" x="0" y="-6.000000">A183V</text></g><line x1="335.331950" x2="335.331950" y1="34.000000" y2="62.000000" stroke="#BABDB6" stroke-width="2"/><a xlink:title="M193T"><circle cx="335.331950" cy="34.000000" r="4.000000" fill="#ff0000" /></a><g transform="translate(335.331950,34.000000) rotate(-30)"><text style="font-size:10px;font-family:OpenSans;fill:#555;" text-anchor="middle" x="0" y="-6.000000">M193T</text></g><line x1="365.207469" x2="365.207469" y1="34.000000" y2="62.000000" stroke="#BABDB6" stroke-width="2"/><a xlink:title="A211A"><circle cx="365.207469" cy="34.000000" r="4.000000" fill="#0000ff" /></a><g transform="translate(365.207469,34.000000) rotate(-30)"><text style="font-size:10px;font-family:OpenSans;fill:#555;" text-anchor="middle" x="0" y="-6.000000">A211A</text></g><line x1="378.485477" x2="378.485477" y1="34.000000" y2="62.000000" stroke="#BABDB6" stroke-width="2"/><a xlink:title="M219T"><circle cx="378.485477" cy="34.000000" r="4.000000" fill="#ff0000" /></a><g transform="translate(378.485477,34.000000) rotate(-30)"><text style="font-size:10px;font-family:OpenSans;fill:#555;" text-anchor="middle" x="0" y="-6.000000">M219T</text></g><line x1="400.062241" x2="400.062241" y1="34.000000" y2="62.000000" stroke="#BABDB6" stroke-width="2"/><a xlink:title="A232A"><circle cx="400.062241" cy="34.000000" r="4.000000" fill="#0000ff" /></a><g transform="translate(400.062241,34.000000) rotate(-30)"><text style="font-size:10px;font-family:OpenSans;fill:#555;" text-anchor="middle" x="0" y="-6.000000">A232A</text></g><a xlink:title=",  (241aa)"><rect fill="#BABDB6" x="15.000000" y="62.000000" width="400.000000" height="14.000000"/></a><g transform="translate(24.958506,57.000000)"><a xlink:href="https://www.ebi.ac.uk/interpro/entry/pfam/PF05648" xlink:title="Peroxisomal biogenesis factor 11 (PEX11)"><rect fill="#2DCF00" x="0" y="0" width="370.124481" height="24.000000" filter="url(#ds)"/><text style="font-size:12px;font-family:OpenSans;fill:#ffffff;" text-anchor="middle" x="185.062241" y="16.000000">Peroxisomal biogenesis factor 11 (PEX11)</text></a></g>
<g class="axis">
<line x1="15.000000" x2="415.000000" y1="91.000000" y2="91.000000" stroke="#AAAAAA" /><line x1="15.000000" x2="15.000000" y1="91.000000" y2="96.000000" stroke="#AAAAAA" /><line x1="24.958506" x2="24.958506" y1="91.000000" y2="96.000000" stroke="#AAAAAA" /><text style="font-size:10px;font-family:OpenSans;fill:#000000;" text-anchor="middle" x="24.958506" y="106.000000">6</text><line x1="49.854772" x2="49.854772" y1="91.000000" y2="96.000000" stroke="#AAAAAA" /><text style="font-size:10px;font-family:OpenSans;fill:#000000;" text-anchor="middle" x="49.854772" y="106.000000">21</text><line x1="86.369295" x2="86.369295" y1="91.000000" y2="96.000000" stroke="#AAAAAA" /><text style="font-size:10px;font-family:OpenSans;fill:#000000;" text-anchor="middle" x="86.369295" y="106.000000">43</text><line x1="166.037344" x2="166.037344" y1="91.000000" y2="96.000000" stroke="#AAAAAA" /><text style="font-size:10px;font-family:OpenSans;fill:#000000;" text-anchor="middle" x="166.037344" y="106.000000">91</text><line x1="263.962656" x2="263.962656" y1="91.000000" y2="96.000000" stroke="#AAAAAA" /><text style="font-size:10px;font-family:OpenSans;fill:#000000;" text-anchor="middle" x="263.962656" y="106.000000">150</text><line x1="283.879668" x2="283.879668" y1="91.000000" y2="96.000000" stroke="#AAAAAA" /><text style="font-size:10px;font-family:OpenSans;fill:#000000;" text-anchor="middle" x="283.879668" y="106.000000">162</text><line x1="318.734440" x2="318.734440" y1="91.000000" y2="96.000000" stroke="#AAAAAA" /><text style="font-size:10px;font-family:OpenSans;fill:#000000;" text-anchor="middle" x="318.734440" y="106.000000">183</text><line x1="365.207469" x2="365.207469" y1="91.000000" y2="96.000000" stroke="#AAAAAA" /><text style="font-size:10px;font-family:OpenSans;fill:#000000;" text-anchor="middle" x="365.207469" y="106.000000">211</text><line x1="415.000000" x2="415.000000" y1="91.000000" y2="96.000000" stroke="#AAAAAA" /><text style="font-size:10px;font-family:OpenSans;fill:#000000;" text-anchor="middle" x="415.000000" y="106.000000">241</text></g>
</svg>
