<?xml version='1.0'?>
<svg xmlns="http://www.w3.org/2000/svg" xmlns:xlink="http://www.w3.org/1999/xlink" width="470.056604" height="172.600000">
<defs>
  <filter id="ds" x="0" y="0">
    <feOffset in="SourceAlpha" dx="2" dy="2" />
    <feComponentTransfer><feFuncA type="linear" slope="0.2"/></feComponentTransfer>
    <feGaussianBlur result="blurOut" stdDeviation="1" />
    <feBlend in="SourceGraphic" in2="blurOut" mode="normal" />
  </filter>
  <pattern id="disordered-hatch" patternUnits="userSpaceOnUse" width="4" height="4">
    <path d="M-1,1 l2,-2 M0,4 l4,-4 M3,5 l2,-2" stroke="#000000" opacity="0.3" />
  </pattern>
</defs>
<line x1="83.905660" x2="83.905660" y1="34.000000" y2="62.000000" stroke="#BABDB6" stroke-width="2"/><a xlink:title="I88V"><circle cx="83.905660" cy="34.000000" r="4.000000" fill="#ff0000" /></a><g transform="translate(83.905660,34.000000) rotate(-30)"><text style="font-size:10px;font-family:OpenSans;fill:#555;" text-anchor="middle" x="0" y="-6.000000">I88V</text></g><line x1="98.000000" x2="98.000000" y1="34.000000" y2="62.000000" stroke="#BABDB6" stroke-width="2"/><a xlink:title="I106V"><circle cx="98.000000" cy="34.000000" r="4.000000" fill="#ff0000" /></a><g transform="translate(98.000000,34.000000) rotate(-30)"><text style="font-size:10px;font-family:OpenSans;fill:#555;" text-anchor="middle" x="0" y="-6.000000">I106V</text></g><line x1="118.358491" x2="118.358491" y1="34.000000" y2="62.000000" stroke="#BABDB6" stroke-width="2"/><a xlink:title="R132R"><circle cx="118.358491" cy="34.000000" r="4.000000" fill="#0000ff" /></a><g transform="translate(118.358491,34.000000) rotate(-30)"><text style="font-size:10px;font-family:OpenSans;fill:#555;" text-anchor="middle" x="0" y="-6.000000">R132R</text></g><line x1="209.971698" x2="209.971698" y1="34.000000" y2="62.000000" stroke="#BABDB6" stroke-width="2"/><a xlink:title="E249Q"><circle cx="209.971698" cy="34.000000" r="4.000000" fill="#ff0000" /></a><g transform="translate(209.971698,34.000000) rotate(-30)"><text style="font-size:10px;font-family:OpenSans;fill:#555;" text-anchor="middle" x="0" y="-6.000000">E249Q</text></g><line x1="272.613208" x2="272.613208" y1="34.000000" y2="62.000000" stroke="#BABDB6" stroke-width="2"/><a xlink:title="R329R"><circle cx="272.613208" cy="34.000000" r="4.000000" fill="#0000ff" /></a><g transform="translate(272.613208,34.000000) rotate(-30)"><text style="font-size:10px;font-family:OpenSans;fill:#555;" text-anchor="middle" x="0" y="-6.000000">R329R</text></g><line x1="286.707547" x2="286.707547" y1="34.000000" y2="62.000000" stroke="#BABDB6" stroke-width="2"/><a xlink:title="R347R"><circle cx="286.707547" cy="34.000000" r="4.000000" fill="#0000ff" /></a><g transform="translate(286.707547,34.000000) rotate(-30)"><text style="font-size:10px;font-family:OpenSans;fill:#555;" text-anchor="middle" x="0" y="-6.000000">R347R</text></g><line x1="364.226415" x2="364.226415" y1="34.000000" y2="62.000000" stroke="#BABDB6" stroke-width="2"/><a xlink:title="E446Q"><circle cx="364.226415" cy="34.000000" r="4.000000" fill="#ff0000" /></a><g transform="translate(364.226415,34.000000) rotate(-30)"><text style="font-size:10px;font-family:OpenSans;fill:#555;" text-anchor="middle" x="0" y="-6.000000">E446Q</text></g><line x1="378.320755" x2="378.320755" y1="34.000000" y2="62.000000" stroke="#BABDB6" stroke-width="2"/><a xlink:title="E464Q"><circle cx="378.320755" cy="34.000000" r="4.000000" fill="#ff0000" /></a><g transform="translate(378.320755,34.000000) rotate(-30)"><text style="font-size:10px;font-family:OpenSans;fill:#555;" text-anchor="middle" x="0" y="-6.000000">E464Q</text></g><a xlink:title=",  (562aa)"><rect fill="#BABDB6" x="15.000000" y="62.000000" width="440.056604" height="14.000000"/></a><g transform="translate(26.745283,57.000000)"><a xlink:href="https://www.ebi.ac.uk/interpro/entry/pfam/PF02878" xlink:title="Phosphoglucomutase/phosphomannomutase, alpha/beta/alpha domain I"><rect fill="#2DCF00" x="0" y="0" width="111.188679" height="24.000000" filter="url(#ds)"/><text style="font-size:12px;font-family:OpenSans;fill:#ffffff;" text-anchor="middle" x="55.594340" y="16.000000">PGM_PMM_I</text></a></g>
<g transform="translate(166.905660,57.000000)"><a xlink:href="https://www.ebi.ac.uk/interpro/entry/pfam/PF02879" xlink:title="Phosphoglucomutase/phosphomannomutase, alpha/beta/alpha domain II"><rect fill="#FF5353" x="0" y="0" width="83.000000" height="24.000000" filter="url(#ds)"/><text style="font-size:12px;font-family:OpenSans;fill:#ffffff;" text-anchor="middle" x="41.500000" y="16.000000">PGM_PMM_II</text></a></g>
<g transform="translate(255.386792,57.000000)"><a xlink:href="https://www.ebi.ac.uk/interpro/entry/pfam/PF02880" xlink:title="Phosphoglucomutase/phosphomannomutase, alpha/beta/alpha domain III"><rect fill="#5B5BFF" x="0" y="0" width="88.481132" height="24.000000" filter="url(#ds)"/><text style="font-size:12px;font-family:OpenSans;fill:#ffffff;" text-anchor="middle" x="44.240566" y="16.000000">PGM_PMM_III</text></a></g>
<g class="axis">
<line x1="15.000000" x2="455.056604" y1="91.000000" y2="91.000000" stroke="#AAAAAA" /><line x1="15.000000" x2="15.000000" y1="91.000000" y2="96.000000" stroke="#AAAAAA" /><line x1="26.745283" x2="26.745283" y1="91.000000" y2="96.000000" stroke="#AAAAAA" /><text style="font-size:10px;font-family:OpenSans;fill:#000000;" text-anchor="middle" x="26.745283" y="106.000000">15</text><line x1="83.905660" x2="83.905660" y1="91.000000" y2="96.000000" stroke="#AAAAAA" /><text style="font-size:10px;font-family:OpenSans;fill:#000000;" text-anchor="middle" x="83.905660" y="106.000000">88</text><line x1="118.358491" x2="118.358491" y1="91.000000" y2="96.000000" stroke="#AAAAAA" /><text style="font-size:10px;font-family:OpenSans;fill:#000000;" text-anchor="middle" x="118.358491" y="106.000000">132</text><line x1="137.933962" x2="137.933962" y1="91.000000" y2="96.000000" stroke="#AAAAAA" /><text style="font-size:10px;font-family:OpenSans;fill:#000000;" text-anchor="middle" x="137.933962" y="106.000000">157</text><line x1="166.905660" x2="166.905660" y1="91.000000" y2="96.000000" stroke="#AAAAAA" /><text style="font-size:10px;font-family:OpenSans;fill:#000000;" text-anchor="middle" x="166.905660" y="106.000000">194</text><line x1="209.971698" x2="209.971698" y1="91.000000" y2="96.000000" stroke="#AAAAAA" /><text style="font-size:10px;font-family:OpenSans;fill:#000000;" text-anchor="middle" x="209.971698" y="106.000000">249</text><line x1="249.905660" x2="249.905660" y1="91.000000" y2="96.000000" stroke="#AAAAAA" /><text style="font-size:10px;font-family:OpenSans;fill:#000000;" text-anchor="middle" x="249.905660" y="106.000000">300</text><line x1="272.613208" x2="272.613208" y1="91.000000" y2="96.000000" stroke="#AAAAAA" /><text style="font-size:10px;font-family:OpenSans;fill:#000000;" text-anchor="middle" x="272.613208" y="106.000000">329</text><line x1="343.867925" x2="343.867925" y1="91.000000" y2="96.000000" stroke="#AAAAAA" /><text style="font-size:10px;font-family:OpenSans;fill:#000000;" text-anchor="middle" x="343.867925" y="106.000000">420</text><line x1="364.226415" x2="364.226415" y1="91.000000" y2="96.000000" stroke="#AAAAAA" /><text style="font-size:10px;font-family:OpenSans;fill:#000000;" text-anchor="middle" x="364.226415" y="106.000000">446</text><line x1="455.056604" x2="455.056604" y1="91.000000" y2="96.000000" stroke="#AAAAAA" /><text style="font-size:10px;font-family:OpenSans;fill:#000000;" text-anchor="middle" x="455.056604" y="106.000000">562</text></g>
<rect fill="#2DCF00" x="4" y="120.000000" width="12" height="12" filter="url(#ds)"/><text style="font-size:12px;font-family:OpenSans;fill:#000000;" text-anchor="start" x="20" y="132.000000">Phosphoglucomutase/phosphomannomutase, alpha/beta/alpha domain I</text><rect fill="#FF5353" x="4" y="134.000000" width="12" height="12" filter="url(#ds)"/><text style="font-size:12px;font-family:OpenSans;fill:#000000;" text-anchor="start" x="20" y="146.000000">Phosphoglucomutase/phosphomannomutase, alpha/beta/alpha domain II</text><rect fill="#5B5BFF" x="4" y="148.000000" width="12" height="12" filter="url(#ds)"/><text style="font-size:12px;font-family:OpenSans;fill:#000000;" text-anchor="start" x="20" y="160.000000">Phosphoglucomutase/phosphomannomutase, alpha/beta/alpha domain III</text></svg>
