<?xml version='1.0'?>
<svg xmlns="http://www.w3.org/2000/svg" xmlns:xlink="http://www.w3.org/1999/xlink" width="1012.375000" height="185.800000">
<defs>
  <filter id="ds" x="0" y="0">
    <feOffset in="SourceAlpha" dx="2" dy="2" />
    <feComponentTransfer><feFuncA type="linear" slope="0.2"/></feComponentTransfer>
    <feGaussianBlur result="blurOut" stdDeviation="1" />
    <feBlend in="SourceGraphic" in2="blurOut" mode="normal" />
  </filter>
  <pattern id="disordered-hatch" patternUnits="userSpaceOnUse" width="4" height="4">
    <path d="M-1,1 l2,-2 M0,4 l4,-4 M3,5 l2,-2" stroke="#000000" opacity="0.3" />
  </pattern>
</defs>
<line x1="80.250000" x2="80.250000" y1="34.000000" y2="62.000000" stroke="#BABDB6" stroke-width="2"/><a xlink:title="L36M"><circle cx="80.250000" cy="34.000000" r="4.000000" fill="#ff0000" /></a><g transform="translate(80.250000,34.000000) rotate(-30)"><text style="font-size:10px;font-family:OpenSans;fill:#555;" text-anchor="middle" x="0" y="-6.000000">L36M</text></g><line x1="227.062500" x2="227.062500" y1="34.000000" y2="62.000000" stroke="#BABDB6" stroke-width="2"/><a xlink:title="L117M"><circle cx="227.062500" cy="34.000000" r="4.000000" fill="#ff0000" /></a><g transform="translate(227.062500,34.000000) rotate(-30)"><text style="font-size:10px;font-family:OpenSans;fill:#555;" text-anchor="middle" x="0" y="-6.000000">L117M</text></g><line x1="277.812500" x2="277.812500" y1="34.000000" y2="62.000000" stroke="#BABDB6" stroke-width="2"/><a xlink:title="L145M"><circle cx="277.812500" cy="34.000000" r="4.000000" fill="#ff0000" /></a><g transform="translate(277.812500,34.000000) rotate(-30)"><text style="font-size:10px;font-family:OpenSans;fill:#555;" text-anchor="middle" x="0" y="-6.000000">L145M</text></g><a xlink:title=",  (542aa)"><rect fill="#BABDB6" x="15.000000" y="62.000000" width="982.375000" height="14.000000"/></a><g transform="translate(107.437500,57.000000)"><a xlink:href="https://www.ebi.ac.uk/interpro/entry/pfam/PF02878" xlink:title="Phosphoglucomutase/phosphomannomutase, alpha/beta/alpha domain I"><rect fill="#2DCF00" x="0" y="0" width="83.375000" height="24.000000" filter="url(#ds)"/><text style="font-size:12px;font-family:OpenSans;fill:#ffffff;" text-anchor="middle" x="41.687500" y="16.000000">PGM_PMM_I</text></a></g>
<g transform="translate(228.875000,57.000000)"><a xlink:href="https://www.ebi.ac.uk/interpro/entry/pfam/PF02878" xlink:title="Phosphoglucomutase/phosphomannomutase, alpha/beta/alpha domain I"><rect fill="#FF5353" x="0" y="0" width="88.812500" height="24.000000" filter="url(#ds)"/><text style="font-size:12px;font-family:OpenSans;fill:#ffffff;" text-anchor="middle" x="44.406250" y="16.000000">PGM_PMM_I</text></a></g>
<g transform="translate(337.625000,57.000000)"><a xlink:href="https://www.ebi.ac.uk/interpro/entry/pfam/PF21405" xlink:title="Phosphoacetylglucosamine mutase AMG1, domain II"><rect fill="#5B5BFF" x="0" y="0" width="190.312500" height="24.000000" filter="url(#ds)"/><text style="font-size:12px;font-family:OpenSans;fill:#ffffff;" text-anchor="middle" x="95.156250" y="16.000000">AMG1_II</text></a></g>
<g transform="translate(553.312500,57.000000)"><a xlink:href="https://www.ebi.ac.uk/interpro/entry/pfam/PF21404" xlink:title="Phosphoacetylglucosamine mutase AMG1, domain III"><rect fill="#EBD61D" x="0" y="0" width="248.312500" height="24.000000" filter="url(#ds)"/><text style="font-size:12px;font-family:OpenSans;fill:#ffffff;" text-anchor="middle" x="124.156250" y="16.000000">AMG1_III</text></a></g>
<g transform="translate(877.750000,57.000000)"><a xlink:href="https://www.ebi.ac.uk/interpro/entry/pfam/PF00408" xlink:title="Phosphoglucomutase/phosphomannomutase, C-terminal domain"><rect fill="#BA21E0" x="0" y="0" width="87.000000" height="24.000000" filter="url(#ds)"/><text style="font-size:12px;font-family:OpenSans;fill:#ffffff;" text-anchor="middle" x="43.500000" y="16.000000">PGM_PMM_IV</text></a></g>
<g class="axis">
<line x1="15.000000" x2="997.375000" y1="91.000000" y2="91.000000" stroke="#AAAAAA" /><line x1="15.000000" x2="15.000000" y1="91.000000" y2="96.000000" stroke="#AAAAAA" /><line x1="15.000000" x2="15.000000" y1="91.000000" y2="96.000000" stroke="#AAAAAA" /><text style="font-size:10px;font-family:OpenSans;fill:#000000;" text-anchor="middle" x="15.000000" y="106.000000">0</text><line x1="80.250000" x2="80.250000" y1="91.000000" y2="96.000000" stroke="#AAAAAA" /><text style="font-size:10px;font-family:OpenSans;fill:#000000;" text-anchor="middle" x="80.250000" y="106.000000">36</text><line x1="107.437500" x2="107.437500" y1="91.000000" y2="96.000000" stroke="#AAAAAA" /><text style="font-size:10px;font-family:OpenSans;fill:#000000;" text-anchor="middle" x="107.437500" y="106.000000">51</text><line x1="190.812500" x2="190.812500" y1="91.000000" y2="96.000000" stroke="#AAAAAA" /><text style="font-size:10px;font-family:OpenSans;fill:#000000;" text-anchor="middle" x="190.812500" y="106.000000">97</text><line x1="227.062500" x2="227.062500" y1="91.000000" y2="96.000000" stroke="#AAAAAA" /><text style="font-size:10px;font-family:OpenSans;fill:#000000;" text-anchor="middle" x="227.062500" y="106.000000">117</text><line x1="277.812500" x2="277.812500" y1="91.000000" y2="96.000000" stroke="#AAAAAA" /><text style="font-size:10px;font-family:OpenSans;fill:#000000;" text-anchor="middle" x="277.812500" y="106.000000">145</text><line x1="317.687500" x2="317.687500" y1="91.000000" y2="96.000000" stroke="#AAAAAA" /><text style="font-size:10px;font-family:OpenSans;fill:#000000;" text-anchor="middle" x="317.687500" y="106.000000">167</text><line x1="337.625000" x2="337.625000" y1="91.000000" y2="96.000000" stroke="#AAAAAA" /><text style="font-size:10px;font-family:OpenSans;fill:#000000;" text-anchor="middle" x="337.625000" y="106.000000">178</text><line x1="527.937500" x2="527.937500" y1="91.000000" y2="96.000000" stroke="#AAAAAA" /><text style="font-size:10px;font-family:OpenSans;fill:#000000;" text-anchor="middle" x="527.937500" y="106.000000">283</text><line x1="553.312500" x2="553.312500" y1="91.000000" y2="96.000000" stroke="#AAAAAA" /><text style="font-size:10px;font-family:OpenSans;fill:#000000;" text-anchor="middle" x="553.312500" y="106.000000">297</text><line x1="801.625000" x2="801.625000" y1="91.000000" y2="96.000000" stroke="#AAAAAA" /><text style="font-size:10px;font-family:OpenSans;fill:#000000;" text-anchor="middle" x="801.625000" y="106.000000">434</text><line x1="877.750000" x2="877.750000" y1="91.000000" y2="96.000000" stroke="#AAAAAA" /><text style="font-size:10px;font-family:OpenSans;fill:#000000;" text-anchor="middle" x="877.750000" y="106.000000">476</text><line x1="964.750000" x2="964.750000" y1="91.000000" y2="96.000000" stroke="#AAAAAA" /><text style="font-size:10px;font-family:OpenSans;fill:#000000;" text-anchor="middle" x="964.750000" y="106.000000">524</text><line x1="997.375000" x2="997.375000" y1="91.000000" y2="96.000000" stroke="#AAAAAA" /><text style="font-size:10px;font-family:OpenSans;fill:#000000;" text-anchor="middle" x="997.375000" y="106.000000">542</text></g>
<rect fill="#FF5353" x="4" y="120.000000" width="12" height="12" filter="url(#ds)"/><text style="font-size:12px;font-family:OpenSans;fill:#000000;" text-anchor="start" x="20" y="132.000000">Phosphoglucomutase/phosphomannomutase, alpha/beta/alpha domain I</text><rect fill="#5B5BFF" x="4" y="134.000000" width="12" height="12" filter="url(#ds)"/><text style="font-size:12px;font-family:OpenSans;fill:#000000;" text-anchor="start" x="20" y="146.000000">Phosphoacetylglucosamine mutase AMG1, domain II</text><rect fill="#EBD61D" x="4" y="148.000000" width="12" height="12" filter="url(#ds)"/><text style="font-size:12px;font-family:OpenSans;fill:#000000;" text-anchor="start" x="20" y="160.000000">Phosphoacetylglucosamine mutase AMG1, domain III</text><rect fill="#BA21E0" x="4" y="162.000000" width="12" height="12" filter="url(#ds)"/><text style="font-size:12px;font-family:OpenSans;fill:#000000;" text-anchor="start" x="20" y="174.000000">Phosphoglucomutase/phosphomannomutase, C-terminal domain</text></svg>
