<?xml version='1.0'?>
<svg xmlns="http://www.w3.org/2000/svg" xmlns:xlink="http://www.w3.org/1999/xlink" width="1262.000000" height="172.600000">
<defs>
  <filter id="ds" x="0" y="0">
    <feOffset in="SourceAlpha" dx="2" dy="2" />
    <feComponentTransfer><feFuncA type="linear" slope="0.2"/></feComponentTransfer>
    <feGaussianBlur result="blurOut" stdDeviation="1" />
    <feBlend in="SourceGraphic" in2="blurOut" mode="normal" />
  </filter>
  <pattern id="disordered-hatch" patternUnits="userSpaceOnUse" width="4" height="4">
    <path d="M-1,1 l2,-2 M0,4 l4,-4 M3,5 l2,-2" stroke="#000000" opacity="0.3" />
  </pattern>
</defs>
<line x1="268.217391" x2="268.217391" y1="34.000000" y2="62.000000" stroke="#BABDB6" stroke-width="2"/><a xlink:title="D208E"><circle cx="268.217391" cy="34.000000" r="4.000000" fill="#ff0000" /></a><g transform="translate(268.217391,34.000000) rotate(-30)"><text style="font-size:10px;font-family:OpenSans;fill:#555;" text-anchor="middle" x="0" y="-6.000000">D208E</text></g><line x1="617.608696" x2="617.608696" y1="34.000000" y2="62.000000" stroke="#BABDB6" stroke-width="2"/><a xlink:title="D495E"><circle cx="617.608696" cy="34.000000" r="4.000000" fill="#ff0000" /></a><g transform="translate(617.608696,34.000000) rotate(-30)"><text style="font-size:10px;font-family:OpenSans;fill:#555;" text-anchor="middle" x="0" y="-6.000000">D495E</text></g><line x1="691.869565" x2="691.869565" y1="34.000000" y2="62.000000" stroke="#BABDB6" stroke-width="2"/><a xlink:title="D556E"><circle cx="691.869565" cy="34.000000" r="4.000000" fill="#ff0000" /></a><g transform="translate(691.869565,34.000000) rotate(-30)"><text style="font-size:10px;font-family:OpenSans;fill:#555;" text-anchor="middle" x="0" y="-6.000000">D556E</text></g><line x1="758.826087" x2="758.826087" y1="34.000000" y2="62.000000" stroke="#BABDB6" stroke-width="2"/><a xlink:title="D611E"><circle cx="758.826087" cy="34.000000" r="4.000000" fill="#ff0000" /></a><g transform="translate(758.826087,34.000000) rotate(-30)"><text style="font-size:10px;font-family:OpenSans;fill:#555;" text-anchor="middle" x="0" y="-6.000000">D611E</text></g><a xlink:title=",  (1012aa)"><rect fill="#BABDB6" x="15.000000" y="62.000000" width="1232.000000" height="14.000000"/></a><g transform="translate(124.565217,57.000000)"><a xlink:href="https://www.ebi.ac.uk/interpro/entry/pfam/PF18115" xlink:title="DNA repair protein Crb2 Tudor domain"><rect fill="#2DCF00" x="0" y="0" width="56.000000" height="24.000000" filter="url(#ds)"/><text style="font-size:12px;font-family:OpenSans;fill:#ffffff;" text-anchor="middle" x="28.000000" y="16.000000">Tudor_3</text></a></g>
<g transform="translate(229.260870,57.000000)"><a xlink:href="https://www.ebi.ac.uk/interpro/entry/pfam/PF12618" xlink:title="PHD finger protein 20, AT-hook"><rect fill="#FF5353" x="0" y="0" width="126.608696" height="24.000000" filter="url(#ds)"/><text style="font-size:12px;font-family:OpenSans;fill:#ffffff;" text-anchor="middle" x="63.304348" y="16.000000">PHF20_AT-hook</text></a></g>
<g transform="translate(800.217391,57.000000)"><a xlink:href="https://www.ebi.ac.uk/interpro/entry/pfam/PF20826" xlink:title="PhD finger domain"><rect fill="#5B5BFF" x="0" y="0" width="65.739130" height="24.000000" filter="url(#ds)"/><text style="font-size:12px;font-family:OpenSans;fill:#ffffff;" text-anchor="middle" x="32.869565" y="16.000000">PHD_5</text></a></g>
<g class="axis">
<line x1="15.000000" x2="1247.000000" y1="91.000000" y2="91.000000" stroke="#AAAAAA" /><line x1="15.000000" x2="15.000000" y1="91.000000" y2="96.000000" stroke="#AAAAAA" /><line x1="15.000000" x2="15.000000" y1="91.000000" y2="96.000000" stroke="#AAAAAA" /><text style="font-size:10px;font-family:OpenSans;fill:#000000;" text-anchor="middle" x="15.000000" y="106.000000">0</text><line x1="124.565217" x2="124.565217" y1="91.000000" y2="96.000000" stroke="#AAAAAA" /><text style="font-size:10px;font-family:OpenSans;fill:#000000;" text-anchor="middle" x="124.565217" y="106.000000">90</text><line x1="180.565217" x2="180.565217" y1="91.000000" y2="96.000000" stroke="#AAAAAA" /><text style="font-size:10px;font-family:OpenSans;fill:#000000;" text-anchor="middle" x="180.565217" y="106.000000">136</text><line x1="229.260870" x2="229.260870" y1="91.000000" y2="96.000000" stroke="#AAAAAA" /><text style="font-size:10px;font-family:OpenSans;fill:#000000;" text-anchor="middle" x="229.260870" y="106.000000">176</text><line x1="268.217391" x2="268.217391" y1="91.000000" y2="96.000000" stroke="#AAAAAA" /><text style="font-size:10px;font-family:OpenSans;fill:#000000;" text-anchor="middle" x="268.217391" y="106.000000">208</text><line x1="355.869565" x2="355.869565" y1="91.000000" y2="96.000000" stroke="#AAAAAA" /><text style="font-size:10px;font-family:OpenSans;fill:#000000;" text-anchor="middle" x="355.869565" y="106.000000">280</text><line x1="617.608696" x2="617.608696" y1="91.000000" y2="96.000000" stroke="#AAAAAA" /><text style="font-size:10px;font-family:OpenSans;fill:#000000;" text-anchor="middle" x="617.608696" y="106.000000">495</text><line x1="691.869565" x2="691.869565" y1="91.000000" y2="96.000000" stroke="#AAAAAA" /><text style="font-size:10px;font-family:OpenSans;fill:#000000;" text-anchor="middle" x="691.869565" y="106.000000">556</text><line x1="758.826087" x2="758.826087" y1="91.000000" y2="96.000000" stroke="#AAAAAA" /><text style="font-size:10px;font-family:OpenSans;fill:#000000;" text-anchor="middle" x="758.826087" y="106.000000">611</text><line x1="800.217391" x2="800.217391" y1="91.000000" y2="96.000000" stroke="#AAAAAA" /><text style="font-size:10px;font-family:OpenSans;fill:#000000;" text-anchor="middle" x="800.217391" y="106.000000">645</text><line x1="865.956522" x2="865.956522" y1="91.000000" y2="96.000000" stroke="#AAAAAA" /><text style="font-size:10px;font-family:OpenSans;fill:#000000;" text-anchor="middle" x="865.956522" y="106.000000">699</text><line x1="1247.000000" x2="1247.000000" y1="91.000000" y2="96.000000" stroke="#AAAAAA" /><text style="font-size:10px;font-family:OpenSans;fill:#000000;" text-anchor="middle" x="1247.000000" y="106.000000">1012</text></g>
<rect fill="#2DCF00" x="4" y="120.000000" width="12" height="12" filter="url(#ds)"/><text style="font-size:12px;font-family:OpenSans;fill:#000000;" text-anchor="start" x="20" y="132.000000">DNA repair protein Crb2 Tudor domain</text><rect fill="#FF5353" x="4" y="134.000000" width="12" height="12" filter="url(#ds)"/><text style="font-size:12px;font-family:OpenSans;fill:#000000;" text-anchor="start" x="20" y="146.000000">PHD finger protein 20, AT-hook</text><rect fill="#5B5BFF" x="4" y="148.000000" width="12" height="12" filter="url(#ds)"/><text style="font-size:12px;font-family:OpenSans;fill:#000000;" text-anchor="start" x="20" y="160.000000">PhD finger domain</text></svg>
