<?xml version='1.0'?>
<svg xmlns="http://www.w3.org/2000/svg" xmlns:xlink="http://www.w3.org/1999/xlink" width="430.000000" height="184.400000">
<defs>
  <filter id="ds" x="0" y="0">
    <feOffset in="SourceAlpha" dx="2" dy="2" />
    <feComponentTransfer><feFuncA type="linear" slope="0.2"/></feComponentTransfer>
    <feGaussianBlur result="blurOut" stdDeviation="1" />
    <feBlend in="SourceGraphic" in2="blurOut" mode="normal" />
  </filter>
  <pattern id="disordered-hatch" patternUnits="userSpaceOnUse" width="4" height="4">
    <path d="M-1,1 l2,-2 M0,4 l4,-4 M3,5 l2,-2" stroke="#000000" opacity="0.3" />
  </pattern>
</defs>
<line x1="59.253491" x2="59.253491" y1="59.000000" y2="87.000000" stroke="#BABDB6" stroke-width="2"/><a xlink:title="A103A"><circle cx="59.253491" cy="59.000000" r="4.000000" fill="#0000ff" /></a><g transform="translate(59.253491,59.000000) rotate(-30)"><text style="font-size:10px;font-family:OpenSans;fill:#555;" text-anchor="middle" x="0" y="-6.000000">A103A</text></g><line x1="84.602578" x2="84.602578" y1="59.000000" y2="87.000000" stroke="#BABDB6" stroke-width="2"/><a xlink:title="K162E"><circle cx="84.602578" cy="59.000000" r="4.000000" fill="#ff0000" /></a><g transform="translate(84.602578,59.000000) rotate(-30)"><text style="font-size:10px;font-family:OpenSans;fill:#555;" text-anchor="middle" x="0" y="-6.000000">K162E</text></g><line x1="113.388829" x2="113.388829" y1="59.000000" y2="87.000000" stroke="#BABDB6" stroke-width="2"/><a xlink:title="H229D"><circle cx="113.388829" cy="59.000000" r="4.000000" fill="#ff0000" /></a><g transform="translate(113.388829,59.000000) rotate(-30)"><text style="font-size:10px;font-family:OpenSans;fill:#555;" text-anchor="middle" x="0" y="-6.000000">H229D</text></g><line x1="121.122449" x2="121.122449" y1="59.000000" y2="87.000000" stroke="#BABDB6" stroke-width="2"/><a xlink:title="H247H"><circle cx="121.122449" cy="59.000000" r="4.000000" fill="#0000ff" /></a><g transform="translate(121.122449,59.000000) rotate(-30)"><text style="font-size:10px;font-family:OpenSans;fill:#555;" text-anchor="middle" x="0" y="-6.000000">H247H</text></g><line x1="149.479055" x2="149.479055" y1="59.000000" y2="87.000000" stroke="#BABDB6" stroke-width="2"/><a xlink:title="N313N"><circle cx="149.479055" cy="59.000000" r="4.000000" fill="#0000ff" /></a><g transform="translate(149.479055,59.000000) rotate(-30)"><text style="font-size:10px;font-family:OpenSans;fill:#555;" text-anchor="middle" x="0" y="-6.000000">N313N</text></g><line x1="173.109560" x2="173.109560" y1="59.000000" y2="87.000000" stroke="#BABDB6" stroke-width="2"/><a xlink:title="L368F"><circle cx="173.109560" cy="59.000000" r="4.000000" fill="#ff0000" /></a><g transform="translate(173.109560,59.000000) rotate(-30)"><text style="font-size:10px;font-family:OpenSans;fill:#555;" text-anchor="middle" x="0" y="-6.000000">L368F</text></g><line x1="193.302900" x2="193.302900" y1="59.000000" y2="87.000000" stroke="#BABDB6" stroke-width="2"/><a xlink:title="D415D"><circle cx="193.302900" cy="59.000000" r="4.000000" fill="#0000ff" /></a><g transform="translate(193.302900,59.000000) rotate(-30)"><text style="font-size:10px;font-family:OpenSans;fill:#555;" text-anchor="middle" x="0" y="-6.000000">D415D</text></g><line x1="208.340494" x2="208.340494" y1="46.500000" y2="87.000000" stroke="#BABDB6" stroke-width="2"/><a xlink:title="L450L"><circle cx="208.340494" cy="46.500000" r="4.000000" fill="#0000ff" /></a><g transform="translate(208.340494,46.500000) rotate(-30)"><text style="font-size:10px;font-family:OpenSans;fill:#555;" text-anchor="middle" x="0" y="-6.000000">L450L</text></g><line x1="212.207304" x2="212.207304" y1="34.000000" y2="87.000000" stroke="#BABDB6" stroke-width="2"/><a xlink:title="S459S"><circle cx="212.207304" cy="34.000000" r="4.000000" fill="#0000ff" /></a><g transform="translate(212.207304,34.000000) rotate(-30)"><text style="font-size:10px;font-family:OpenSans;fill:#555;" text-anchor="middle" x="0" y="-6.000000">S459S</text></g><line x1="215.214823" x2="215.214823" y1="46.500000" y2="87.000000" stroke="#BABDB6" stroke-width="2"/><a xlink:title="H466Y"><circle cx="215.214823" cy="46.500000" r="4.000000" fill="#ff0000" /></a><g transform="translate(215.214823,46.500000) rotate(-30)"><text style="font-size:10px;font-family:OpenSans;fill:#555;" text-anchor="middle" x="0" y="-6.000000">H466Y</text></g><line x1="216.933405" x2="216.933405" y1="59.000000" y2="87.000000" stroke="#BABDB6" stroke-width="2"/><a xlink:title="I470L"><circle cx="216.933405" cy="59.000000" r="4.000000" fill="#ff0000" /></a><g transform="translate(216.933405,59.000000) rotate(-30)"><text style="font-size:10px;font-family:OpenSans;fill:#555;" text-anchor="middle" x="0" y="-6.000000">I470L</text></g><line x1="228.104189" x2="228.104189" y1="59.000000" y2="87.000000" stroke="#BABDB6" stroke-width="2"/><a xlink:title="A496A"><circle cx="228.104189" cy="59.000000" r="4.000000" fill="#0000ff" /></a><g transform="translate(228.104189,59.000000) rotate(-30)"><text style="font-size:10px;font-family:OpenSans;fill:#555;" text-anchor="middle" x="0" y="-6.000000">A496A</text></g><line x1="238.415682" x2="238.415682" y1="59.000000" y2="87.000000" stroke="#BABDB6" stroke-width="2"/><a xlink:title="L520L"><circle cx="238.415682" cy="59.000000" r="4.000000" fill="#0000ff" /></a><g transform="translate(238.415682,59.000000) rotate(-30)"><text style="font-size:10px;font-family:OpenSans;fill:#555;" text-anchor="middle" x="0" y="-6.000000">L520L</text></g><line x1="245.290011" x2="245.290011" y1="59.000000" y2="87.000000" stroke="#BABDB6" stroke-width="2"/><a xlink:title="T536T"><circle cx="245.290011" cy="59.000000" r="4.000000" fill="#0000ff" /></a><g transform="translate(245.290011,59.000000) rotate(-30)"><text style="font-size:10px;font-family:OpenSans;fill:#555;" text-anchor="middle" x="0" y="-6.000000">T536T</text></g><line x1="265.912997" x2="265.912997" y1="59.000000" y2="87.000000" stroke="#BABDB6" stroke-width="2"/><a xlink:title="L584L"><circle cx="265.912997" cy="59.000000" r="4.000000" fill="#0000ff" /></a><g transform="translate(265.912997,59.000000) rotate(-30)"><text style="font-size:10px;font-family:OpenSans;fill:#555;" text-anchor="middle" x="0" y="-6.000000">L584L</text></g><line x1="295.988185" x2="295.988185" y1="59.000000" y2="87.000000" stroke="#BABDB6" stroke-width="2"/><a xlink:title="L654L"><circle cx="295.988185" cy="59.000000" r="4.000000" fill="#0000ff" /></a><g transform="translate(295.988185,59.000000) rotate(-30)"><text style="font-size:10px;font-family:OpenSans;fill:#555;" text-anchor="middle" x="0" y="-6.000000">L654L</text></g><line x1="302.862513" x2="302.862513" y1="59.000000" y2="87.000000" stroke="#BABDB6" stroke-width="2"/><a xlink:title="T670T"><circle cx="302.862513" cy="59.000000" r="4.000000" fill="#0000ff" /></a><g transform="translate(302.862513,59.000000) rotate(-30)"><text style="font-size:10px;font-family:OpenSans;fill:#555;" text-anchor="middle" x="0" y="-6.000000">T670T</text></g><line x1="340.671321" x2="340.671321" y1="46.500000" y2="87.000000" stroke="#BABDB6" stroke-width="2"/><a xlink:title="H758Q"><circle cx="340.671321" cy="46.500000" r="4.000000" fill="#ff0000" /></a><g transform="translate(340.671321,46.500000) rotate(-30)"><text style="font-size:10px;font-family:OpenSans;fill:#555;" text-anchor="middle" x="0" y="-6.000000">H758Q</text></g><line x1="340.671321" x2="340.671321" y1="59.000000" y2="87.000000" stroke="#BABDB6" stroke-width="2"/><a xlink:title="H758D"><circle cx="340.671321" cy="59.000000" r="4.000000" fill="#ff0000" /></a><g transform="translate(340.671321,59.000000) rotate(-30)"><text style="font-size:10px;font-family:OpenSans;fill:#555;" text-anchor="middle" x="0" y="-6.000000">H758D</text></g><line x1="349.693878" x2="349.693878" y1="59.000000" y2="87.000000" stroke="#BABDB6" stroke-width="2"/><a xlink:title="E779E"><circle cx="349.693878" cy="59.000000" r="4.000000" fill="#0000ff" /></a><g transform="translate(349.693878,59.000000) rotate(-30)"><text style="font-size:10px;font-family:OpenSans;fill:#555;" text-anchor="middle" x="0" y="-6.000000">E779E</text></g><line x1="398.243824" x2="398.243824" y1="46.500000" y2="87.000000" stroke="#BABDB6" stroke-width="2"/><a xlink:title="H892Q"><circle cx="398.243824" cy="46.500000" r="4.000000" fill="#ff0000" /></a><g transform="translate(398.243824,46.500000) rotate(-30)"><text style="font-size:10px;font-family:OpenSans;fill:#555;" text-anchor="middle" x="0" y="-6.000000">H892Q</text></g><line x1="398.243824" x2="398.243824" y1="59.000000" y2="87.000000" stroke="#BABDB6" stroke-width="2"/><a xlink:title="H892D"><circle cx="398.243824" cy="59.000000" r="4.000000" fill="#ff0000" /></a><g transform="translate(398.243824,59.000000) rotate(-30)"><text style="font-size:10px;font-family:OpenSans;fill:#555;" text-anchor="middle" x="0" y="-6.000000">H892D</text></g><line x1="407.266380" x2="407.266380" y1="59.000000" y2="87.000000" stroke="#BABDB6" stroke-width="2"/><a xlink:title="E913E"><circle cx="407.266380" cy="59.000000" r="4.000000" fill="#0000ff" /></a><g transform="translate(407.266380,59.000000) rotate(-30)"><text style="font-size:10px;font-family:OpenSans;fill:#555;" text-anchor="middle" x="0" y="-6.000000">E913E</text></g><a xlink:title=",  (931aa)"><rect fill="#BABDB6" x="15.000000" y="87.000000" width="400.000000" height="14.000000"/></a><g transform="translate(34.763695,82.000000)"><a xlink:href="https://www.ebi.ac.uk/interpro/entry/pfam/PF01663" xlink:title="Type I phosphodiesterase / nucleotide pyrophosphatase"><rect fill="#2DCF00" x="0" y="0" width="95.381310" height="24.000000" filter="url(#ds)"/><text style="font-size:12px;font-family:OpenSans;fill:#ffffff;" text-anchor="middle" x="47.690655" y="16.000000">Phosphodiest</text></a></g>
<g transform="translate(199.747583,82.000000)"><a xlink:href="https://www.ebi.ac.uk/interpro/entry/pfam/PF04987" xlink:title="Phosphatidylinositolglycan class N (PIG-N)"><rect fill="#FF5353" x="0" y="0" width="195.059076" height="24.000000" filter="url(#ds)"/><text style="font-size:12px;font-family:OpenSans;fill:#ffffff;" text-anchor="middle" x="97.529538" y="16.000000">PigN</text></a></g>
<g class="axis">
<line x1="15.000000" x2="415.000000" y1="116.000000" y2="116.000000" stroke="#AAAAAA" /><line x1="15.000000" x2="15.000000" y1="116.000000" y2="121.000000" stroke="#AAAAAA" /><line x1="34.763695" x2="34.763695" y1="116.000000" y2="121.000000" stroke="#AAAAAA" /><text style="font-size:10px;font-family:OpenSans;fill:#000000;" text-anchor="middle" x="34.763695" y="131.000000">46</text><line x1="59.253491" x2="59.253491" y1="116.000000" y2="121.000000" stroke="#AAAAAA" /><text style="font-size:10px;font-family:OpenSans;fill:#000000;" text-anchor="middle" x="59.253491" y="131.000000">103</text><line x1="84.602578" x2="84.602578" y1="116.000000" y2="121.000000" stroke="#AAAAAA" /><text style="font-size:10px;font-family:OpenSans;fill:#000000;" text-anchor="middle" x="84.602578" y="131.000000">162</text><line x1="113.388829" x2="113.388829" y1="116.000000" y2="121.000000" stroke="#AAAAAA" /><text style="font-size:10px;font-family:OpenSans;fill:#000000;" text-anchor="middle" x="113.388829" y="131.000000">229</text><line x1="149.479055" x2="149.479055" y1="116.000000" y2="121.000000" stroke="#AAAAAA" /><text style="font-size:10px;font-family:OpenSans;fill:#000000;" text-anchor="middle" x="149.479055" y="131.000000">313</text><line x1="173.109560" x2="173.109560" y1="116.000000" y2="121.000000" stroke="#AAAAAA" /><text style="font-size:10px;font-family:OpenSans;fill:#000000;" text-anchor="middle" x="173.109560" y="131.000000">368</text><line x1="193.302900" x2="193.302900" y1="116.000000" y2="121.000000" stroke="#AAAAAA" /><text style="font-size:10px;font-family:OpenSans;fill:#000000;" text-anchor="middle" x="193.302900" y="131.000000">415</text><line x1="215.214823" x2="215.214823" y1="116.000000" y2="121.000000" stroke="#AAAAAA" /><text style="font-size:10px;font-family:OpenSans;fill:#000000;" text-anchor="middle" x="215.214823" y="131.000000">466</text><line x1="238.415682" x2="238.415682" y1="116.000000" y2="121.000000" stroke="#AAAAAA" /><text style="font-size:10px;font-family:OpenSans;fill:#000000;" text-anchor="middle" x="238.415682" y="131.000000">520</text><line x1="265.912997" x2="265.912997" y1="116.000000" y2="121.000000" stroke="#AAAAAA" /><text style="font-size:10px;font-family:OpenSans;fill:#000000;" text-anchor="middle" x="265.912997" y="131.000000">584</text><line x1="295.988185" x2="295.988185" y1="116.000000" y2="121.000000" stroke="#AAAAAA" /><text style="font-size:10px;font-family:OpenSans;fill:#000000;" text-anchor="middle" x="295.988185" y="131.000000">654</text><line x1="340.671321" x2="340.671321" y1="116.000000" y2="121.000000" stroke="#AAAAAA" /><text style="font-size:10px;font-family:OpenSans;fill:#000000;" text-anchor="middle" x="340.671321" y="131.000000">758</text><line x1="415.000000" x2="415.000000" y1="116.000000" y2="121.000000" stroke="#AAAAAA" /><text style="font-size:10px;font-family:OpenSans;fill:#000000;" text-anchor="middle" x="415.000000" y="131.000000">931</text></g>
<rect fill="#2DCF00" x="4" y="145.000000" width="12" height="12" filter="url(#ds)"/><text style="font-size:12px;font-family:OpenSans;fill:#000000;" text-anchor="start" x="20" y="157.000000">Type I phosphodiesterase / nucleotide pyrophosphatase</text><rect fill="#FF5353" x="4" y="159.000000" width="12" height="12" filter="url(#ds)"/><text style="font-size:12px;font-family:OpenSans;fill:#000000;" text-anchor="start" x="20" y="171.000000">Phosphatidylinositolglycan class N (PIG-N)</text></svg>
