<?xml version='1.0'?>
<svg xmlns="http://www.w3.org/2000/svg" xmlns:xlink="http://www.w3.org/1999/xlink" width="430.000000" height="158.000000">
<defs>
  <filter id="ds" x="0" y="0">
    <feOffset in="SourceAlpha" dx="2" dy="2" />
    <feComponentTransfer><feFuncA type="linear" slope="0.2"/></feComponentTransfer>
    <feGaussianBlur result="blurOut" stdDeviation="1" />
    <feBlend in="SourceGraphic" in2="blurOut" mode="normal" />
  </filter>
  <pattern id="disordered-hatch" patternUnits="userSpaceOnUse" width="4" height="4">
    <path d="M-1,1 l2,-2 M0,4 l4,-4 M3,5 l2,-2" stroke="#000000" opacity="0.3" />
  </pattern>
</defs>
<line x1="166.136364" x2="166.136364" y1="59.000000" y2="87.000000" stroke="#BABDB6" stroke-width="2"/><a xlink:title="G133R"><circle cx="166.136364" cy="59.000000" r="4.000000" fill="#ff0000" /></a><g transform="translate(166.136364,59.000000) rotate(-30)"><text style="font-size:10px;font-family:OpenSans;fill:#555;" text-anchor="middle" x="0" y="-6.000000">G133R</text></g><line x1="187.727273" x2="187.727273" y1="46.500000" y2="87.000000" stroke="#BABDB6" stroke-width="2"/><a xlink:title="R152R"><circle cx="187.727273" cy="46.500000" r="4.000000" fill="#0000ff" /></a><g transform="translate(187.727273,46.500000) rotate(-30)"><text style="font-size:10px;font-family:OpenSans;fill:#555;" text-anchor="middle" x="0" y="-6.000000">R152R</text></g><line x1="191.136364" x2="191.136364" y1="59.000000" y2="87.000000" stroke="#BABDB6" stroke-width="2"/><a xlink:title="R155R"><circle cx="191.136364" cy="59.000000" r="4.000000" fill="#0000ff" /></a><g transform="translate(191.136364,59.000000) rotate(-30)"><text style="font-size:10px;font-family:OpenSans;fill:#555;" text-anchor="middle" x="0" y="-6.000000">R155R</text></g><line x1="227.500000" x2="227.500000" y1="59.000000" y2="87.000000" stroke="#BABDB6" stroke-width="2"/><a xlink:title="R187R"><circle cx="227.500000" cy="59.000000" r="4.000000" fill="#0000ff" /></a><g transform="translate(227.500000,59.000000) rotate(-30)"><text style="font-size:10px;font-family:OpenSans;fill:#555;" text-anchor="middle" x="0" y="-6.000000">R187R</text></g><line x1="346.818182" x2="346.818182" y1="34.000000" y2="87.000000" stroke="#BABDB6" stroke-width="2"/><a xlink:title="G292R"><circle cx="346.818182" cy="34.000000" r="4.000000" fill="#ff0000" /></a><g transform="translate(346.818182,34.000000) rotate(-30)"><text style="font-size:10px;font-family:OpenSans;fill:#555;" text-anchor="middle" x="0" y="-6.000000">G292R</text></g><line x1="349.090909" x2="349.090909" y1="46.500000" y2="87.000000" stroke="#BABDB6" stroke-width="2"/><a xlink:title="G294R"><circle cx="349.090909" cy="46.500000" r="4.000000" fill="#ff0000" /></a><g transform="translate(349.090909,46.500000) rotate(-30)"><text style="font-size:10px;font-family:OpenSans;fill:#555;" text-anchor="middle" x="0" y="-6.000000">G294R</text></g><line x1="350.227273" x2="350.227273" y1="59.000000" y2="87.000000" stroke="#BABDB6" stroke-width="2"/><a xlink:title="G295R"><circle cx="350.227273" cy="59.000000" r="4.000000" fill="#ff0000" /></a><g transform="translate(350.227273,59.000000) rotate(-30)"><text style="font-size:10px;font-family:OpenSans;fill:#555;" text-anchor="middle" x="0" y="-6.000000">G295R</text></g><line x1="386.590909" x2="386.590909" y1="59.000000" y2="87.000000" stroke="#BABDB6" stroke-width="2"/><a xlink:title="G327R"><circle cx="386.590909" cy="59.000000" r="4.000000" fill="#ff0000" /></a><g transform="translate(386.590909,59.000000) rotate(-30)"><text style="font-size:10px;font-family:OpenSans;fill:#555;" text-anchor="middle" x="0" y="-6.000000">G327R</text></g><a xlink:title=",  (352aa)"><rect fill="#BABDB6" x="15.000000" y="87.000000" width="400.000000" height="14.000000"/></a><g transform="translate(16.136364,82.000000)"><a xlink:href="https://www.ebi.ac.uk/interpro/entry/pfam/PF04598" xlink:title="Gasdermin pore forming domain"><rect fill="#2DCF00" x="0" y="0" width="265.909091" height="24.000000" filter="url(#ds)"/><text style="font-size:12px;font-family:OpenSans;fill:#ffffff;" text-anchor="middle" x="132.954545" y="16.000000">Gasdermin pore forming domain</text></a></g>
<g class="axis">
<line x1="15.000000" x2="415.000000" y1="116.000000" y2="116.000000" stroke="#AAAAAA" /><line x1="15.000000" x2="15.000000" y1="116.000000" y2="121.000000" stroke="#AAAAAA" /><line x1="16.136364" x2="16.136364" y1="116.000000" y2="121.000000" stroke="#AAAAAA" /><text style="font-size:10px;font-family:OpenSans;fill:#000000;" text-anchor="middle" x="16.136364" y="131.000000">1</text><line x1="166.136364" x2="166.136364" y1="116.000000" y2="121.000000" stroke="#AAAAAA" /><text style="font-size:10px;font-family:OpenSans;fill:#000000;" text-anchor="middle" x="166.136364" y="131.000000">133</text><line x1="187.727273" x2="187.727273" y1="116.000000" y2="121.000000" stroke="#AAAAAA" /><text style="font-size:10px;font-family:OpenSans;fill:#000000;" text-anchor="middle" x="187.727273" y="131.000000">152</text><line x1="227.500000" x2="227.500000" y1="116.000000" y2="121.000000" stroke="#AAAAAA" /><text style="font-size:10px;font-family:OpenSans;fill:#000000;" text-anchor="middle" x="227.500000" y="131.000000">187</text><line x1="282.045455" x2="282.045455" y1="116.000000" y2="121.000000" stroke="#AAAAAA" /><text style="font-size:10px;font-family:OpenSans;fill:#000000;" text-anchor="middle" x="282.045455" y="131.000000">235</text><line x1="346.818182" x2="346.818182" y1="116.000000" y2="121.000000" stroke="#AAAAAA" /><text style="font-size:10px;font-family:OpenSans;fill:#000000;" text-anchor="middle" x="346.818182" y="131.000000">292</text><line x1="386.590909" x2="386.590909" y1="116.000000" y2="121.000000" stroke="#AAAAAA" /><text style="font-size:10px;font-family:OpenSans;fill:#000000;" text-anchor="middle" x="386.590909" y="131.000000">327</text><line x1="415.000000" x2="415.000000" y1="116.000000" y2="121.000000" stroke="#AAAAAA" /><text style="font-size:10px;font-family:OpenSans;fill:#000000;" text-anchor="middle" x="415.000000" y="131.000000">352</text></g>
</svg>
