<?xml version='1.0'?>
<svg xmlns="http://www.w3.org/2000/svg" xmlns:xlink="http://www.w3.org/1999/xlink" width="430.000000" height="158.700000">
<defs>
  <filter id="ds" x="0" y="0">
    <feOffset in="SourceAlpha" dx="2" dy="2" />
    <feComponentTransfer><feFuncA type="linear" slope="0.2"/></feComponentTransfer>
    <feGaussianBlur result="blurOut" stdDeviation="1" />
    <feBlend in="SourceGraphic" in2="blurOut" mode="normal" />
  </filter>
  <pattern id="disordered-hatch" patternUnits="userSpaceOnUse" width="4" height="4">
    <path d="M-1,1 l2,-2 M0,4 l4,-4 M3,5 l2,-2" stroke="#000000" opacity="0.3" />
  </pattern>
</defs>
<line x1="29.419226" x2="29.419226" y1="46.500000" y2="74.500000" stroke="#BABDB6" stroke-width="2"/><a xlink:title="Y27Y"><circle cx="29.419226" cy="46.500000" r="4.000000" fill="#0000ff" /></a><g transform="translate(29.419226,46.500000) rotate(-30)"><text style="font-size:10px;font-family:OpenSans;fill:#555;" text-anchor="middle" x="0" y="-6.000000">Y27Y</text></g><line x1="102.583445" x2="102.583445" y1="46.500000" y2="74.500000" stroke="#BABDB6" stroke-width="2"/><a xlink:title="V164I"><circle cx="102.583445" cy="46.500000" r="4.000000" fill="#ff0000" /></a><g transform="translate(102.583445,46.500000) rotate(-30)"><text style="font-size:10px;font-family:OpenSans;fill:#555;" text-anchor="middle" x="0" y="-6.000000">V164I</text></g><line x1="134.626168" x2="134.626168" y1="34.000000" y2="74.500000" stroke="#BABDB6" stroke-width="2"/><a xlink:title="V224I"><circle cx="134.626168" cy="34.000000" r="4.000000" fill="#ff0000" /></a><g transform="translate(134.626168,34.000000) rotate(-30)"><text style="font-size:10px;font-family:OpenSans;fill:#555;" text-anchor="middle" x="0" y="-6.000000">V224I</text></g><line x1="137.296395" x2="137.296395" y1="46.500000" y2="74.500000" stroke="#BABDB6" stroke-width="2"/><a xlink:title="V229I"><circle cx="137.296395" cy="46.500000" r="4.000000" fill="#ff0000" /></a><g transform="translate(137.296395,46.500000) rotate(-30)"><text style="font-size:10px;font-family:OpenSans;fill:#555;" text-anchor="middle" x="0" y="-6.000000">V229I</text></g><line x1="332.222964" x2="332.222964" y1="46.500000" y2="74.500000" stroke="#BABDB6" stroke-width="2"/><a xlink:title="G594G"><circle cx="332.222964" cy="46.500000" r="4.000000" fill="#0000ff" /></a><g transform="translate(332.222964,46.500000) rotate(-30)"><text style="font-size:10px;font-family:OpenSans;fill:#555;" text-anchor="middle" x="0" y="-6.000000">G594G</text></g><line x1="364.265688" x2="364.265688" y1="34.000000" y2="74.500000" stroke="#BABDB6" stroke-width="2"/><a xlink:title="G654G"><circle cx="364.265688" cy="34.000000" r="4.000000" fill="#0000ff" /></a><g transform="translate(364.265688,34.000000) rotate(-30)"><text style="font-size:10px;font-family:OpenSans;fill:#555;" text-anchor="middle" x="0" y="-6.000000">G654G</text></g><line x1="366.935915" x2="366.935915" y1="46.500000" y2="74.500000" stroke="#BABDB6" stroke-width="2"/><a xlink:title="G659G"><circle cx="366.935915" cy="46.500000" r="4.000000" fill="#0000ff" /></a><g transform="translate(366.935915,46.500000) rotate(-30)"><text style="font-size:10px;font-family:OpenSans;fill:#555;" text-anchor="middle" x="0" y="-6.000000">G659G</text></g><a xlink:title=",  (749aa)"><rect fill="#BABDB6" x="15.000000" y="74.500000" width="400.000000" height="14.000000"/></a><g transform="translate(25.146862,69.500000)"><a xlink:href="https://www.ebi.ac.uk/interpro/entry/pfam/PF00168" xlink:title="C2 domain"><rect fill="#2DCF00" x="0" y="0" width="52.870494" height="24.000000" filter="url(#ds)"/><text style="font-size:12px;font-family:OpenSans;fill:#ffffff;" text-anchor="middle" x="26.435247" y="16.000000">C2</text></a></g>
<g transform="translate(116.468625,69.500000)"><a xlink:href="https://www.ebi.ac.uk/interpro/entry/pfam/PF01735" xlink:title="Lysophospholipase catalytic domain"><rect fill="#FF5353" x="0" y="0" width="258.477971" height="24.000000" filter="url(#ds)"/><text style="font-size:12px;font-family:OpenSans;fill:#ffffff;" text-anchor="middle" x="129.238985" y="16.000000">Lysophospholipase catalytic domain</text></a></g>
<g class="axis">
<line x1="15.000000" x2="415.000000" y1="103.500000" y2="103.500000" stroke="#AAAAAA" /><line x1="15.000000" x2="15.000000" y1="103.500000" y2="108.500000" stroke="#AAAAAA" /><line x1="29.419226" x2="29.419226" y1="103.500000" y2="108.500000" stroke="#AAAAAA" /><text style="font-size:10px;font-family:OpenSans;fill:#000000;" text-anchor="middle" x="29.419226" y="118.500000">27</text><line x1="78.017356" x2="78.017356" y1="103.500000" y2="108.500000" stroke="#AAAAAA" /><text style="font-size:10px;font-family:OpenSans;fill:#000000;" text-anchor="middle" x="78.017356" y="118.500000">118</text><line x1="102.583445" x2="102.583445" y1="103.500000" y2="108.500000" stroke="#AAAAAA" /><text style="font-size:10px;font-family:OpenSans;fill:#000000;" text-anchor="middle" x="102.583445" y="118.500000">164</text><line x1="134.626168" x2="134.626168" y1="103.500000" y2="108.500000" stroke="#AAAAAA" /><text style="font-size:10px;font-family:OpenSans;fill:#000000;" text-anchor="middle" x="134.626168" y="118.500000">224</text><line x1="332.222964" x2="332.222964" y1="103.500000" y2="108.500000" stroke="#AAAAAA" /><text style="font-size:10px;font-family:OpenSans;fill:#000000;" text-anchor="middle" x="332.222964" y="118.500000">594</text><line x1="364.265688" x2="364.265688" y1="103.500000" y2="108.500000" stroke="#AAAAAA" /><text style="font-size:10px;font-family:OpenSans;fill:#000000;" text-anchor="middle" x="364.265688" y="118.500000">654</text><line x1="415.000000" x2="415.000000" y1="103.500000" y2="108.500000" stroke="#AAAAAA" /><text style="font-size:10px;font-family:OpenSans;fill:#000000;" text-anchor="middle" x="415.000000" y="118.500000">749</text></g>
<rect fill="#2DCF00" x="4" y="132.500000" width="12" height="12" filter="url(#ds)"/><text style="font-size:12px;font-family:OpenSans;fill:#000000;" text-anchor="start" x="20" y="144.500000">C2 domain</text></svg>
