<?xml version='1.0'?>
<svg xmlns="http://www.w3.org/2000/svg" xmlns:xlink="http://www.w3.org/1999/xlink" width="430.000000" height="133.000000">
<defs>
  <filter id="ds" x="0" y="0">
    <feOffset in="SourceAlpha" dx="2" dy="2" />
    <feComponentTransfer><feFuncA type="linear" slope="0.2"/></feComponentTransfer>
    <feGaussianBlur result="blurOut" stdDeviation="1" />
    <feBlend in="SourceGraphic" in2="blurOut" mode="normal" />
  </filter>
  <pattern id="disordered-hatch" patternUnits="userSpaceOnUse" width="4" height="4">
    <path d="M-1,1 l2,-2 M0,4 l4,-4 M3,5 l2,-2" stroke="#000000" opacity="0.3" />
  </pattern>
</defs>
<line x1="26.573237" x2="26.573237" y1="34.000000" y2="62.000000" stroke="#BABDB6" stroke-width="2"/><a xlink:title="P16P"><circle cx="26.573237" cy="34.000000" r="4.000000" fill="#0000ff" /></a><g transform="translate(26.573237,34.000000) rotate(-30)"><text style="font-size:10px;font-family:OpenSans;fill:#555;" text-anchor="middle" x="0" y="-6.000000">P16P</text></g><line x1="33.806510" x2="33.806510" y1="34.000000" y2="62.000000" stroke="#BABDB6" stroke-width="2"/><a xlink:title="P26Q"><circle cx="33.806510" cy="34.000000" r="4.000000" fill="#ff0000" /></a><g transform="translate(33.806510,34.000000) rotate(-30)"><text style="font-size:10px;font-family:OpenSans;fill:#555;" text-anchor="middle" x="0" y="-6.000000">P26Q</text></g><line x1="62.016275" x2="62.016275" y1="34.000000" y2="62.000000" stroke="#BABDB6" stroke-width="2"/><a xlink:title="D65D"><circle cx="62.016275" cy="34.000000" r="4.000000" fill="#0000ff" /></a><g transform="translate(62.016275,34.000000) rotate(-30)"><text style="font-size:10px;font-family:OpenSans;fill:#555;" text-anchor="middle" x="0" y="-6.000000">D65D</text></g><line x1="206.681736" x2="206.681736" y1="34.000000" y2="62.000000" stroke="#BABDB6" stroke-width="2"/><a xlink:title="V265I"><circle cx="206.681736" cy="34.000000" r="4.000000" fill="#ff0000" /></a><g transform="translate(206.681736,34.000000) rotate(-30)"><text style="font-size:10px;font-family:OpenSans;fill:#555;" text-anchor="middle" x="0" y="-6.000000">V265I</text></g><line x1="231.274864" x2="231.274864" y1="34.000000" y2="62.000000" stroke="#BABDB6" stroke-width="2"/><a xlink:title="L299L"><circle cx="231.274864" cy="34.000000" r="4.000000" fill="#0000ff" /></a><g transform="translate(231.274864,34.000000) rotate(-30)"><text style="font-size:10px;font-family:OpenSans;fill:#555;" text-anchor="middle" x="0" y="-6.000000">L299L</text></g><line x1="287.694394" x2="287.694394" y1="34.000000" y2="62.000000" stroke="#BABDB6" stroke-width="2"/><a xlink:title="V377A"><circle cx="287.694394" cy="34.000000" r="4.000000" fill="#ff0000" /></a><g transform="translate(287.694394,34.000000) rotate(-30)"><text style="font-size:10px;font-family:OpenSans;fill:#555;" text-anchor="middle" x="0" y="-6.000000">V377A</text></g><line x1="401.256781" x2="401.256781" y1="34.000000" y2="62.000000" stroke="#BABDB6" stroke-width="2"/><a xlink:title="P534A"><circle cx="401.256781" cy="34.000000" r="4.000000" fill="#ff0000" /></a><g transform="translate(401.256781,34.000000) rotate(-30)"><text style="font-size:10px;font-family:OpenSans;fill:#555;" text-anchor="middle" x="0" y="-6.000000">P534A</text></g><a xlink:title=",  (553aa)"><rect fill="#BABDB6" x="15.000000" y="62.000000" width="400.000000" height="14.000000"/></a><g transform="translate(62.739602,57.000000)"><a xlink:href="https://www.ebi.ac.uk/interpro/entry/pfam/PF04916" xlink:title="Phospholipase B"><rect fill="#2DCF00" x="0" y="0" width="345.750452" height="24.000000" filter="url(#ds)"/><text style="font-size:12px;font-family:OpenSans;fill:#ffffff;" text-anchor="middle" x="172.875226" y="16.000000">Phospholipase B</text></a></g>
<g class="axis">
<line x1="15.000000" x2="415.000000" y1="91.000000" y2="91.000000" stroke="#AAAAAA" /><line x1="15.000000" x2="15.000000" y1="91.000000" y2="96.000000" stroke="#AAAAAA" /><line x1="26.573237" x2="26.573237" y1="91.000000" y2="96.000000" stroke="#AAAAAA" /><text style="font-size:10px;font-family:OpenSans;fill:#000000;" text-anchor="middle" x="26.573237" y="106.000000">16</text><line x1="62.016275" x2="62.016275" y1="91.000000" y2="96.000000" stroke="#AAAAAA" /><text style="font-size:10px;font-family:OpenSans;fill:#000000;" text-anchor="middle" x="62.016275" y="106.000000">65</text><line x1="206.681736" x2="206.681736" y1="91.000000" y2="96.000000" stroke="#AAAAAA" /><text style="font-size:10px;font-family:OpenSans;fill:#000000;" text-anchor="middle" x="206.681736" y="106.000000">265</text><line x1="231.274864" x2="231.274864" y1="91.000000" y2="96.000000" stroke="#AAAAAA" /><text style="font-size:10px;font-family:OpenSans;fill:#000000;" text-anchor="middle" x="231.274864" y="106.000000">299</text><line x1="287.694394" x2="287.694394" y1="91.000000" y2="96.000000" stroke="#AAAAAA" /><text style="font-size:10px;font-family:OpenSans;fill:#000000;" text-anchor="middle" x="287.694394" y="106.000000">377</text><line x1="415.000000" x2="415.000000" y1="91.000000" y2="96.000000" stroke="#AAAAAA" /><text style="font-size:10px;font-family:OpenSans;fill:#000000;" text-anchor="middle" x="415.000000" y="106.000000">553</text></g>
</svg>
