<?xml version='1.0'?>
<svg xmlns="http://www.w3.org/2000/svg" xmlns:xlink="http://www.w3.org/1999/xlink" width="430.000000" height="159.400000">
<defs>
  <filter id="ds" x="0" y="0">
    <feOffset in="SourceAlpha" dx="2" dy="2" />
    <feComponentTransfer><feFuncA type="linear" slope="0.2"/></feComponentTransfer>
    <feGaussianBlur result="blurOut" stdDeviation="1" />
    <feBlend in="SourceGraphic" in2="blurOut" mode="normal" />
  </filter>
  <pattern id="disordered-hatch" patternUnits="userSpaceOnUse" width="4" height="4">
    <path d="M-1,1 l2,-2 M0,4 l4,-4 M3,5 l2,-2" stroke="#000000" opacity="0.3" />
  </pattern>
</defs>
<line x1="74.428571" x2="74.428571" y1="34.000000" y2="62.000000" stroke="#BABDB6" stroke-width="2"/><a xlink:title="H78H"><circle cx="74.428571" cy="34.000000" r="4.000000" fill="#0000ff" /></a><g transform="translate(74.428571,34.000000) rotate(-30)"><text style="font-size:10px;font-family:OpenSans;fill:#555;" text-anchor="middle" x="0" y="-6.000000">H78H</text></g><line x1="113.285714" x2="113.285714" y1="34.000000" y2="62.000000" stroke="#BABDB6" stroke-width="2"/><a xlink:title="H129H"><circle cx="113.285714" cy="34.000000" r="4.000000" fill="#0000ff" /></a><g transform="translate(113.285714,34.000000) rotate(-30)"><text style="font-size:10px;font-family:OpenSans;fill:#555;" text-anchor="middle" x="0" y="-6.000000">H129H</text></g><line x1="136.904762" x2="136.904762" y1="34.000000" y2="62.000000" stroke="#BABDB6" stroke-width="2"/><a xlink:title="H160H"><circle cx="136.904762" cy="34.000000" r="4.000000" fill="#0000ff" /></a><g transform="translate(136.904762,34.000000) rotate(-30)"><text style="font-size:10px;font-family:OpenSans;fill:#555;" text-anchor="middle" x="0" y="-6.000000">H160H</text></g><line x1="213.095238" x2="213.095238" y1="34.000000" y2="62.000000" stroke="#BABDB6" stroke-width="2"/><a xlink:title="H260H"><circle cx="213.095238" cy="34.000000" r="4.000000" fill="#0000ff" /></a><g transform="translate(213.095238,34.000000) rotate(-30)"><text style="font-size:10px;font-family:OpenSans;fill:#555;" text-anchor="middle" x="0" y="-6.000000">H260H</text></g><line x1="229.857143" x2="229.857143" y1="34.000000" y2="62.000000" stroke="#BABDB6" stroke-width="2"/><a xlink:title="E282K"><circle cx="229.857143" cy="34.000000" r="4.000000" fill="#ff0000" /></a><g transform="translate(229.857143,34.000000) rotate(-30)"><text style="font-size:10px;font-family:OpenSans;fill:#555;" text-anchor="middle" x="0" y="-6.000000">E282K</text></g><line x1="268.714286" x2="268.714286" y1="34.000000" y2="62.000000" stroke="#BABDB6" stroke-width="2"/><a xlink:title="E333K"><circle cx="268.714286" cy="34.000000" r="4.000000" fill="#ff0000" /></a><g transform="translate(268.714286,34.000000) rotate(-30)"><text style="font-size:10px;font-family:OpenSans;fill:#555;" text-anchor="middle" x="0" y="-6.000000">E333K</text></g><line x1="292.333333" x2="292.333333" y1="34.000000" y2="62.000000" stroke="#BABDB6" stroke-width="2"/><a xlink:title="E364K"><circle cx="292.333333" cy="34.000000" r="4.000000" fill="#ff0000" /></a><g transform="translate(292.333333,34.000000) rotate(-30)"><text style="font-size:10px;font-family:OpenSans;fill:#555;" text-anchor="middle" x="0" y="-6.000000">E364K</text></g><line x1="368.523810" x2="368.523810" y1="34.000000" y2="62.000000" stroke="#BABDB6" stroke-width="2"/><a xlink:title="E464K"><circle cx="368.523810" cy="34.000000" r="4.000000" fill="#ff0000" /></a><g transform="translate(368.523810,34.000000) rotate(-30)"><text style="font-size:10px;font-family:OpenSans;fill:#555;" text-anchor="middle" x="0" y="-6.000000">E464K</text></g><a xlink:title=",  (525aa)"><rect fill="#BABDB6" x="15.000000" y="62.000000" width="400.000000" height="14.000000"/></a><g transform="translate(73.666667,57.000000)"><a xlink:href="https://www.ebi.ac.uk/interpro/entry/pfam/PF00675" xlink:title="Insulinase (Peptidase family M16)"><rect fill="#2DCF00" x="0" y="0" width="114.285714" height="24.000000" filter="url(#ds)"/><text style="font-size:12px;font-family:OpenSans;fill:#ffffff;" text-anchor="middle" x="57.142857" y="16.000000">Peptidase_M16</text></a></g>
<g transform="translate(191.761905,57.000000)"><a xlink:href="https://www.ebi.ac.uk/interpro/entry/pfam/PF05193" xlink:title="Peptidase M16 inactive domain"><rect fill="#FF5353" x="0" y="0" width="151.619048" height="24.000000" filter="url(#ds)"/><text style="font-size:12px;font-family:OpenSans;fill:#ffffff;" text-anchor="middle" x="75.809524" y="16.000000">Peptidase_M16_C</text></a></g>
<g class="axis">
<line x1="15.000000" x2="415.000000" y1="91.000000" y2="91.000000" stroke="#AAAAAA" /><line x1="15.000000" x2="15.000000" y1="91.000000" y2="96.000000" stroke="#AAAAAA" /><line x1="15.000000" x2="15.000000" y1="91.000000" y2="96.000000" stroke="#AAAAAA" /><text style="font-size:10px;font-family:OpenSans;fill:#000000;" text-anchor="middle" x="15.000000" y="106.000000">0</text><line x1="74.428571" x2="74.428571" y1="91.000000" y2="96.000000" stroke="#AAAAAA" /><text style="font-size:10px;font-family:OpenSans;fill:#000000;" text-anchor="middle" x="74.428571" y="106.000000">78</text><line x1="113.285714" x2="113.285714" y1="91.000000" y2="96.000000" stroke="#AAAAAA" /><text style="font-size:10px;font-family:OpenSans;fill:#000000;" text-anchor="middle" x="113.285714" y="106.000000">129</text><line x1="136.904762" x2="136.904762" y1="91.000000" y2="96.000000" stroke="#AAAAAA" /><text style="font-size:10px;font-family:OpenSans;fill:#000000;" text-anchor="middle" x="136.904762" y="106.000000">160</text><line x1="187.952381" x2="187.952381" y1="91.000000" y2="96.000000" stroke="#AAAAAA" /><text style="font-size:10px;font-family:OpenSans;fill:#000000;" text-anchor="middle" x="187.952381" y="106.000000">227</text><line x1="213.095238" x2="213.095238" y1="91.000000" y2="96.000000" stroke="#AAAAAA" /><text style="font-size:10px;font-family:OpenSans;fill:#000000;" text-anchor="middle" x="213.095238" y="106.000000">260</text><line x1="268.714286" x2="268.714286" y1="91.000000" y2="96.000000" stroke="#AAAAAA" /><text style="font-size:10px;font-family:OpenSans;fill:#000000;" text-anchor="middle" x="268.714286" y="106.000000">333</text><line x1="292.333333" x2="292.333333" y1="91.000000" y2="96.000000" stroke="#AAAAAA" /><text style="font-size:10px;font-family:OpenSans;fill:#000000;" text-anchor="middle" x="292.333333" y="106.000000">364</text><line x1="343.380952" x2="343.380952" y1="91.000000" y2="96.000000" stroke="#AAAAAA" /><text style="font-size:10px;font-family:OpenSans;fill:#000000;" text-anchor="middle" x="343.380952" y="106.000000">431</text><line x1="368.523810" x2="368.523810" y1="91.000000" y2="96.000000" stroke="#AAAAAA" /><text style="font-size:10px;font-family:OpenSans;fill:#000000;" text-anchor="middle" x="368.523810" y="106.000000">464</text><line x1="415.000000" x2="415.000000" y1="91.000000" y2="96.000000" stroke="#AAAAAA" /><text style="font-size:10px;font-family:OpenSans;fill:#000000;" text-anchor="middle" x="415.000000" y="106.000000">525</text></g>
<rect fill="#2DCF00" x="4" y="120.000000" width="12" height="12" filter="url(#ds)"/><text style="font-size:12px;font-family:OpenSans;fill:#000000;" text-anchor="start" x="20" y="132.000000">Insulinase (Peptidase family M16)</text><rect fill="#FF5353" x="4" y="134.000000" width="12" height="12" filter="url(#ds)"/><text style="font-size:12px;font-family:OpenSans;fill:#000000;" text-anchor="start" x="20" y="146.000000">Peptidase M16 inactive domain</text></svg>
