<?xml version='1.0'?>
<svg xmlns="http://www.w3.org/2000/svg" xmlns:xlink="http://www.w3.org/1999/xlink" width="430.000000" height="145.500000">
<defs>
  <filter id="ds" x="0" y="0">
    <feOffset in="SourceAlpha" dx="2" dy="2" />
    <feComponentTransfer><feFuncA type="linear" slope="0.2"/></feComponentTransfer>
    <feGaussianBlur result="blurOut" stdDeviation="1" />
    <feBlend in="SourceGraphic" in2="blurOut" mode="normal" />
  </filter>
  <pattern id="disordered-hatch" patternUnits="userSpaceOnUse" width="4" height="4">
    <path d="M-1,1 l2,-2 M0,4 l4,-4 M3,5 l2,-2" stroke="#000000" opacity="0.3" />
  </pattern>
</defs>
<line x1="305.769231" x2="305.769231" y1="46.500000" y2="74.500000" stroke="#BABDB6" stroke-width="2"/><a xlink:title="N378N"><circle cx="305.769231" cy="46.500000" r="4.000000" fill="#0000ff" /></a><g transform="translate(305.769231,46.500000) rotate(-30)"><text style="font-size:10px;font-family:OpenSans;fill:#555;" text-anchor="middle" x="0" y="-6.000000">N378N</text></g><line x1="365.769231" x2="365.769231" y1="46.500000" y2="74.500000" stroke="#BABDB6" stroke-width="2"/><a xlink:title="N456N"><circle cx="365.769231" cy="46.500000" r="4.000000" fill="#0000ff" /></a><g transform="translate(365.769231,46.500000) rotate(-30)"><text style="font-size:10px;font-family:OpenSans;fill:#555;" text-anchor="middle" x="0" y="-6.000000">N456N</text></g><line x1="374.230769" x2="374.230769" y1="46.500000" y2="74.500000" stroke="#BABDB6" stroke-width="2"/><a xlink:title="N467N"><circle cx="374.230769" cy="46.500000" r="4.000000" fill="#0000ff" /></a><g transform="translate(374.230769,46.500000) rotate(-30)"><text style="font-size:10px;font-family:OpenSans;fill:#555;" text-anchor="middle" x="0" y="-6.000000">N467N</text></g><line x1="391.153846" x2="391.153846" y1="34.000000" y2="74.500000" stroke="#BABDB6" stroke-width="2"/><a xlink:title="N489N"><circle cx="391.153846" cy="34.000000" r="4.000000" fill="#0000ff" /></a><g transform="translate(391.153846,34.000000) rotate(-30)"><text style="font-size:10px;font-family:OpenSans;fill:#555;" text-anchor="middle" x="0" y="-6.000000">N489N</text></g><line x1="395.000000" x2="395.000000" y1="34.000000" y2="74.500000" stroke="#BABDB6" stroke-width="2"/><a xlink:title="N494N"><circle cx="395.000000" cy="34.000000" r="4.000000" fill="#0000ff" /></a><g transform="translate(395.000000,34.000000) rotate(-30)"><text style="font-size:10px;font-family:OpenSans;fill:#555;" text-anchor="middle" x="0" y="-6.000000">N494N</text></g><line x1="398.846154" x2="398.846154" y1="34.000000" y2="74.500000" stroke="#BABDB6" stroke-width="2"/><a xlink:title="N499N"><circle cx="398.846154" cy="34.000000" r="4.000000" fill="#0000ff" /></a><g transform="translate(398.846154,34.000000) rotate(-30)"><text style="font-size:10px;font-family:OpenSans;fill:#555;" text-anchor="middle" x="0" y="-6.000000">N499N</text></g><line x1="403.461538" x2="403.461538" y1="46.500000" y2="74.500000" stroke="#BABDB6" stroke-width="2"/><a xlink:title="N505N"><circle cx="403.461538" cy="46.500000" r="4.000000" fill="#0000ff" /></a><g transform="translate(403.461538,46.500000) rotate(-30)"><text style="font-size:10px;font-family:OpenSans;fill:#555;" text-anchor="middle" x="0" y="-6.000000">N505N</text></g><line x1="428.076923" x2="428.076923" y1="46.500000" y2="74.500000" stroke="#BABDB6" stroke-width="2"/><a xlink:title="N537N"><circle cx="428.076923" cy="46.500000" r="4.000000" fill="#0000ff" /></a><g transform="translate(428.076923,46.500000) rotate(-30)"><text style="font-size:10px;font-family:OpenSans;fill:#555;" text-anchor="middle" x="0" y="-6.000000">N537N</text></g><a xlink:title=",  (520aa)"><rect fill="#BABDB6" x="15.000000" y="74.500000" width="400.000000" height="14.000000"/></a><g transform="translate(26.538462,69.500000)"><a xlink:href="https://www.ebi.ac.uk/interpro/entry/pfam/PF04857" xlink:title="CAF1 family ribonuclease"><rect fill="#2DCF00" x="0" y="0" width="266.923077" height="24.000000" filter="url(#ds)"/><text style="font-size:12px;font-family:OpenSans;fill:#ffffff;" text-anchor="middle" x="133.461538" y="16.000000">CAF1 family ribonuclease</text></a></g>
<g class="axis">
<line x1="15.000000" x2="415.000000" y1="103.500000" y2="103.500000" stroke="#AAAAAA" /><line x1="15.000000" x2="15.000000" y1="103.500000" y2="108.500000" stroke="#AAAAAA" /><line x1="26.538462" x2="26.538462" y1="103.500000" y2="108.500000" stroke="#AAAAAA" /><text style="font-size:10px;font-family:OpenSans;fill:#000000;" text-anchor="middle" x="26.538462" y="118.500000">15</text><line x1="305.769231" x2="305.769231" y1="103.500000" y2="108.500000" stroke="#AAAAAA" /><text style="font-size:10px;font-family:OpenSans;fill:#000000;" text-anchor="middle" x="305.769231" y="118.500000">378</text><line x1="365.769231" x2="365.769231" y1="103.500000" y2="108.500000" stroke="#AAAAAA" /><text style="font-size:10px;font-family:OpenSans;fill:#000000;" text-anchor="middle" x="365.769231" y="118.500000">456</text><line x1="391.153846" x2="391.153846" y1="103.500000" y2="108.500000" stroke="#AAAAAA" /><text style="font-size:10px;font-family:OpenSans;fill:#000000;" text-anchor="middle" x="391.153846" y="118.500000">489</text><line x1="415.000000" x2="415.000000" y1="103.500000" y2="108.500000" stroke="#AAAAAA" /><text style="font-size:10px;font-family:OpenSans;fill:#000000;" text-anchor="middle" x="415.000000" y="118.500000">520</text></g>
</svg>
