<?xml version='1.0'?>
<svg xmlns="http://www.w3.org/2000/svg" xmlns:xlink="http://www.w3.org/1999/xlink" width="583.806452" height="158.700000">
<defs>
  <filter id="ds" x="0" y="0">
    <feOffset in="SourceAlpha" dx="2" dy="2" />
    <feComponentTransfer><feFuncA type="linear" slope="0.2"/></feComponentTransfer>
    <feGaussianBlur result="blurOut" stdDeviation="1" />
    <feBlend in="SourceGraphic" in2="blurOut" mode="normal" />
  </filter>
  <pattern id="disordered-hatch" patternUnits="userSpaceOnUse" width="4" height="4">
    <path d="M-1,1 l2,-2 M0,4 l4,-4 M3,5 l2,-2" stroke="#000000" opacity="0.3" />
  </pattern>
</defs>
<line x1="20.612903" x2="20.612903" y1="34.000000" y2="74.500000" stroke="#BABDB6" stroke-width="2"/><a xlink:title="A3S"><circle cx="20.612903" cy="34.000000" r="4.000000" fill="#ff0000" /></a><g transform="translate(20.612903,34.000000) rotate(-30)"><text style="font-size:10px;font-family:OpenSans;fill:#555;" text-anchor="middle" x="0" y="-6.000000">A3S</text></g><line x1="26.225806" x2="26.225806" y1="46.500000" y2="74.500000" stroke="#BABDB6" stroke-width="2"/><a xlink:title="P6P"><circle cx="26.225806" cy="46.500000" r="4.000000" fill="#0000ff" /></a><g transform="translate(26.225806,46.500000) rotate(-30)"><text style="font-size:10px;font-family:OpenSans;fill:#555;" text-anchor="middle" x="0" y="-6.000000">P6P</text></g><line x1="54.290323" x2="54.290323" y1="46.500000" y2="74.500000" stroke="#BABDB6" stroke-width="2"/><a xlink:title="P21T"><circle cx="54.290323" cy="46.500000" r="4.000000" fill="#ff0000" /></a><g transform="translate(54.290323,46.500000) rotate(-30)"><text style="font-size:10px;font-family:OpenSans;fill:#555;" text-anchor="middle" x="0" y="-6.000000">P21T</text></g><line x1="106.677419" x2="106.677419" y1="46.500000" y2="74.500000" stroke="#BABDB6" stroke-width="2"/><a xlink:title="R49H"><circle cx="106.677419" cy="46.500000" r="4.000000" fill="#ff0000" /></a><g transform="translate(106.677419,46.500000) rotate(-30)"><text style="font-size:10px;font-family:OpenSans;fill:#555;" text-anchor="middle" x="0" y="-6.000000">R49H</text></g><line x1="134.741935" x2="134.741935" y1="46.500000" y2="74.500000" stroke="#BABDB6" stroke-width="2"/><a xlink:title="Q64E"><circle cx="134.741935" cy="46.500000" r="4.000000" fill="#ff0000" /></a><g transform="translate(134.741935,46.500000) rotate(-30)"><text style="font-size:10px;font-family:OpenSans;fill:#555;" text-anchor="middle" x="0" y="-6.000000">Q64E</text></g><line x1="144.096774" x2="144.096774" y1="46.500000" y2="74.500000" stroke="#BABDB6" stroke-width="2"/><a xlink:title="G69G"><circle cx="144.096774" cy="46.500000" r="4.000000" fill="#0000ff" /></a><g transform="translate(144.096774,46.500000) rotate(-30)"><text style="font-size:10px;font-family:OpenSans;fill:#555;" text-anchor="middle" x="0" y="-6.000000">G69G</text></g><line x1="207.709677" x2="207.709677" y1="46.500000" y2="74.500000" stroke="#BABDB6" stroke-width="2"/><a xlink:title="P103P"><circle cx="207.709677" cy="46.500000" r="4.000000" fill="#0000ff" /></a><g transform="translate(207.709677,46.500000) rotate(-30)"><text style="font-size:10px;font-family:OpenSans;fill:#555;" text-anchor="middle" x="0" y="-6.000000">P103P</text></g><line x1="284.419355" x2="284.419355" y1="46.500000" y2="74.500000" stroke="#BABDB6" stroke-width="2"/><a xlink:title="P144S"><circle cx="284.419355" cy="46.500000" r="4.000000" fill="#ff0000" /></a><g transform="translate(284.419355,46.500000) rotate(-30)"><text style="font-size:10px;font-family:OpenSans;fill:#555;" text-anchor="middle" x="0" y="-6.000000">P144S</text></g><line x1="377.967742" x2="377.967742" y1="46.500000" y2="74.500000" stroke="#BABDB6" stroke-width="2"/><a xlink:title="G194G"><circle cx="377.967742" cy="46.500000" r="4.000000" fill="#0000ff" /></a><g transform="translate(377.967742,46.500000) rotate(-30)"><text style="font-size:10px;font-family:OpenSans;fill:#555;" text-anchor="middle" x="0" y="-6.000000">G194G</text></g><line x1="460.290323" x2="460.290323" y1="46.500000" y2="74.500000" stroke="#BABDB6" stroke-width="2"/><a xlink:title="P238P"><circle cx="460.290323" cy="46.500000" r="4.000000" fill="#0000ff" /></a><g transform="translate(460.290323,46.500000) rotate(-30)"><text style="font-size:10px;font-family:OpenSans;fill:#555;" text-anchor="middle" x="0" y="-6.000000">P238P</text></g><a xlink:title=",  (296aa)"><rect fill="#BABDB6" x="15.000000" y="74.500000" width="553.806452" height="14.000000"/></a><g transform="translate(406.032258,69.500000)"><a xlink:href="https://www.ebi.ac.uk/interpro/entry/pfam/PF15229" xlink:title="POM121 family"><rect fill="#2DCF00" x="0" y="0" width="58.000000" height="24.000000" filter="url(#ds)"/><text style="font-size:12px;font-family:OpenSans;fill:#ffffff;" text-anchor="middle" x="29.000000" y="16.000000">POM121</text></a></g>
<g class="axis">
<line x1="15.000000" x2="568.806452" y1="103.500000" y2="103.500000" stroke="#AAAAAA" /><line x1="15.000000" x2="15.000000" y1="103.500000" y2="108.500000" stroke="#AAAAAA" /><line x1="20.612903" x2="20.612903" y1="103.500000" y2="108.500000" stroke="#AAAAAA" /><text style="font-size:10px;font-family:OpenSans;fill:#000000;" text-anchor="middle" x="20.612903" y="118.500000">3</text><line x1="54.290323" x2="54.290323" y1="103.500000" y2="108.500000" stroke="#AAAAAA" /><text style="font-size:10px;font-family:OpenSans;fill:#000000;" text-anchor="middle" x="54.290323" y="118.500000">21</text><line x1="106.677419" x2="106.677419" y1="103.500000" y2="108.500000" stroke="#AAAAAA" /><text style="font-size:10px;font-family:OpenSans;fill:#000000;" text-anchor="middle" x="106.677419" y="118.500000">49</text><line x1="134.741935" x2="134.741935" y1="103.500000" y2="108.500000" stroke="#AAAAAA" /><text style="font-size:10px;font-family:OpenSans;fill:#000000;" text-anchor="middle" x="134.741935" y="118.500000">64</text><line x1="207.709677" x2="207.709677" y1="103.500000" y2="108.500000" stroke="#AAAAAA" /><text style="font-size:10px;font-family:OpenSans;fill:#000000;" text-anchor="middle" x="207.709677" y="118.500000">103</text><line x1="284.419355" x2="284.419355" y1="103.500000" y2="108.500000" stroke="#AAAAAA" /><text style="font-size:10px;font-family:OpenSans;fill:#000000;" text-anchor="middle" x="284.419355" y="118.500000">144</text><line x1="377.967742" x2="377.967742" y1="103.500000" y2="108.500000" stroke="#AAAAAA" /><text style="font-size:10px;font-family:OpenSans;fill:#000000;" text-anchor="middle" x="377.967742" y="118.500000">194</text><line x1="406.032258" x2="406.032258" y1="103.500000" y2="108.500000" stroke="#AAAAAA" /><text style="font-size:10px;font-family:OpenSans;fill:#000000;" text-anchor="middle" x="406.032258" y="118.500000">209</text><line x1="460.290323" x2="460.290323" y1="103.500000" y2="108.500000" stroke="#AAAAAA" /><text style="font-size:10px;font-family:OpenSans;fill:#000000;" text-anchor="middle" x="460.290323" y="118.500000">238</text><line x1="568.806452" x2="568.806452" y1="103.500000" y2="108.500000" stroke="#AAAAAA" /><text style="font-size:10px;font-family:OpenSans;fill:#000000;" text-anchor="middle" x="568.806452" y="118.500000">296</text></g>
<rect fill="#2DCF00" x="4" y="132.500000" width="12" height="12" filter="url(#ds)"/><text style="font-size:12px;font-family:OpenSans;fill:#000000;" text-anchor="start" x="20" y="144.500000">POM121 family</text></svg>
