<?xml version='1.0'?>
<svg xmlns="http://www.w3.org/2000/svg" xmlns:xlink="http://www.w3.org/1999/xlink" width="1207.058824" height="146.200000">
<defs>
  <filter id="ds" x="0" y="0">
    <feOffset in="SourceAlpha" dx="2" dy="2" />
    <feComponentTransfer><feFuncA type="linear" slope="0.2"/></feComponentTransfer>
    <feGaussianBlur result="blurOut" stdDeviation="1" />
    <feBlend in="SourceGraphic" in2="blurOut" mode="normal" />
  </filter>
  <pattern id="disordered-hatch" patternUnits="userSpaceOnUse" width="4" height="4">
    <path d="M-1,1 l2,-2 M0,4 l4,-4 M3,5 l2,-2" stroke="#000000" opacity="0.3" />
  </pattern>
</defs>
<line x1="43.431373" x2="43.431373" y1="34.000000" y2="62.000000" stroke="#BABDB6" stroke-width="2"/><a xlink:title="R25G"><circle cx="43.431373" cy="34.000000" r="4.000000" fill="#ff0000" /></a><g transform="translate(43.431373,34.000000) rotate(-30)"><text style="font-size:10px;font-family:OpenSans;fill:#555;" text-anchor="middle" x="0" y="-6.000000">R25G</text></g><line x1="52.529412" x2="52.529412" y1="34.000000" y2="62.000000" stroke="#BABDB6" stroke-width="2"/><a xlink:title="Q33R"><circle cx="52.529412" cy="34.000000" r="4.000000" fill="#ff0000" /></a><g transform="translate(52.529412,34.000000) rotate(-30)"><text style="font-size:10px;font-family:OpenSans;fill:#555;" text-anchor="middle" x="0" y="-6.000000">Q33R</text></g><line x1="82.098039" x2="82.098039" y1="34.000000" y2="62.000000" stroke="#BABDB6" stroke-width="2"/><a xlink:title="R59Q"><circle cx="82.098039" cy="34.000000" r="4.000000" fill="#ff0000" /></a><g transform="translate(82.098039,34.000000) rotate(-30)"><text style="font-size:10px;font-family:OpenSans;fill:#555;" text-anchor="middle" x="0" y="-6.000000">R59Q</text></g><line x1="135.549020" x2="135.549020" y1="34.000000" y2="62.000000" stroke="#BABDB6" stroke-width="2"/><a xlink:title="W106C"><circle cx="135.549020" cy="34.000000" r="4.000000" fill="#ff0000" /></a><g transform="translate(135.549020,34.000000) rotate(-30)"><text style="font-size:10px;font-family:OpenSans;fill:#555;" text-anchor="middle" x="0" y="-6.000000">W106C</text></g><line x1="747.392157" x2="747.392157" y1="34.000000" y2="62.000000" stroke="#BABDB6" stroke-width="2"/><a xlink:title="G644C"><circle cx="747.392157" cy="34.000000" r="4.000000" fill="#ff0000" /></a><g transform="translate(747.392157,34.000000) rotate(-30)"><text style="font-size:10px;font-family:OpenSans;fill:#555;" text-anchor="middle" x="0" y="-6.000000">G644C</text></g><line x1="881.588235" x2="881.588235" y1="34.000000" y2="62.000000" stroke="#BABDB6" stroke-width="2"/><a xlink:title="P762L"><circle cx="881.588235" cy="34.000000" r="4.000000" fill="#ff0000" /></a><g transform="translate(881.588235,34.000000) rotate(-30)"><text style="font-size:10px;font-family:OpenSans;fill:#555;" text-anchor="middle" x="0" y="-6.000000">P762L</text></g><line x1="902.058824" x2="902.058824" y1="34.000000" y2="62.000000" stroke="#BABDB6" stroke-width="2"/><a xlink:title="N780N"><circle cx="902.058824" cy="34.000000" r="4.000000" fill="#0000ff" /></a><g transform="translate(902.058824,34.000000) rotate(-30)"><text style="font-size:10px;font-family:OpenSans;fill:#555;" text-anchor="middle" x="0" y="-6.000000">N780N</text></g><line x1="981.666667" x2="981.666667" y1="34.000000" y2="62.000000" stroke="#BABDB6" stroke-width="2"/><a xlink:title="G850S"><circle cx="981.666667" cy="34.000000" r="4.000000" fill="#ff0000" /></a><g transform="translate(981.666667,34.000000) rotate(-30)"><text style="font-size:10px;font-family:OpenSans;fill:#555;" text-anchor="middle" x="0" y="-6.000000">G850S</text></g><line x1="995.313725" x2="995.313725" y1="34.000000" y2="62.000000" stroke="#BABDB6" stroke-width="2"/><a xlink:title="T862I"><circle cx="995.313725" cy="34.000000" r="4.000000" fill="#ff0000" /></a><g transform="translate(995.313725,34.000000) rotate(-30)"><text style="font-size:10px;font-family:OpenSans;fill:#555;" text-anchor="middle" x="0" y="-6.000000">T862I</text></g><line x1="1114.725490" x2="1114.725490" y1="34.000000" y2="62.000000" stroke="#BABDB6" stroke-width="2"/><a xlink:title="A967T"><circle cx="1114.725490" cy="34.000000" r="4.000000" fill="#ff0000" /></a><g transform="translate(1114.725490,34.000000) rotate(-30)"><text style="font-size:10px;font-family:OpenSans;fill:#555;" text-anchor="middle" x="0" y="-6.000000">A967T</text></g><a xlink:title=",  (1035aa)"><rect fill="#BABDB6" x="15.000000" y="62.000000" width="1177.058824" height="14.000000"/></a><g transform="translate(201.509804,57.000000)"><a xlink:href="https://www.ebi.ac.uk/interpro/entry/pfam/PF15229" xlink:title="POM121 family"><rect fill="#2DCF00" x="0" y="0" width="161.490196" height="24.000000" filter="url(#ds)"/><text style="font-size:12px;font-family:OpenSans;fill:#ffffff;" text-anchor="middle" x="80.745098" y="16.000000">POM121 family</text></a></g>
<g transform="translate(368.686275,57.000000)"><a xlink:href="https://www.ebi.ac.uk/interpro/entry/pfam/PF15229" xlink:title="POM121 family"><rect fill="#FF5353" x="0" y="0" width="58.000000" height="24.000000" filter="url(#ds)"/><text style="font-size:12px;font-family:OpenSans;fill:#ffffff;" text-anchor="middle" x="29.000000" y="16.000000">POM121</text></a></g>
<g class="axis">
<line x1="15.000000" x2="1192.058824" y1="91.000000" y2="91.000000" stroke="#AAAAAA" /><line x1="15.000000" x2="15.000000" y1="91.000000" y2="96.000000" stroke="#AAAAAA" /><line x1="15.000000" x2="15.000000" y1="91.000000" y2="96.000000" stroke="#AAAAAA" /><text style="font-size:10px;font-family:OpenSans;fill:#000000;" text-anchor="middle" x="15.000000" y="106.000000">0</text><line x1="43.431373" x2="43.431373" y1="91.000000" y2="96.000000" stroke="#AAAAAA" /><text style="font-size:10px;font-family:OpenSans;fill:#000000;" text-anchor="middle" x="43.431373" y="106.000000">25</text><line x1="82.098039" x2="82.098039" y1="91.000000" y2="96.000000" stroke="#AAAAAA" /><text style="font-size:10px;font-family:OpenSans;fill:#000000;" text-anchor="middle" x="82.098039" y="106.000000">59</text><line x1="135.549020" x2="135.549020" y1="91.000000" y2="96.000000" stroke="#AAAAAA" /><text style="font-size:10px;font-family:OpenSans;fill:#000000;" text-anchor="middle" x="135.549020" y="106.000000">106</text><line x1="201.509804" x2="201.509804" y1="91.000000" y2="96.000000" stroke="#AAAAAA" /><text style="font-size:10px;font-family:OpenSans;fill:#000000;" text-anchor="middle" x="201.509804" y="106.000000">164</text><line x1="363.000000" x2="363.000000" y1="91.000000" y2="96.000000" stroke="#AAAAAA" /><text style="font-size:10px;font-family:OpenSans;fill:#000000;" text-anchor="middle" x="363.000000" y="106.000000">306</text><line x1="426.686275" x2="426.686275" y1="91.000000" y2="96.000000" stroke="#AAAAAA" /><text style="font-size:10px;font-family:OpenSans;fill:#000000;" text-anchor="middle" x="426.686275" y="106.000000">362</text><line x1="747.392157" x2="747.392157" y1="91.000000" y2="96.000000" stroke="#AAAAAA" /><text style="font-size:10px;font-family:OpenSans;fill:#000000;" text-anchor="middle" x="747.392157" y="106.000000">644</text><line x1="881.588235" x2="881.588235" y1="91.000000" y2="96.000000" stroke="#AAAAAA" /><text style="font-size:10px;font-family:OpenSans;fill:#000000;" text-anchor="middle" x="881.588235" y="106.000000">762</text><line x1="902.058824" x2="902.058824" y1="91.000000" y2="96.000000" stroke="#AAAAAA" /><text style="font-size:10px;font-family:OpenSans;fill:#000000;" text-anchor="middle" x="902.058824" y="106.000000">780</text><line x1="981.666667" x2="981.666667" y1="91.000000" y2="96.000000" stroke="#AAAAAA" /><text style="font-size:10px;font-family:OpenSans;fill:#000000;" text-anchor="middle" x="981.666667" y="106.000000">850</text><line x1="1114.725490" x2="1114.725490" y1="91.000000" y2="96.000000" stroke="#AAAAAA" /><text style="font-size:10px;font-family:OpenSans;fill:#000000;" text-anchor="middle" x="1114.725490" y="106.000000">967</text><line x1="1192.058824" x2="1192.058824" y1="91.000000" y2="96.000000" stroke="#AAAAAA" /><text style="font-size:10px;font-family:OpenSans;fill:#000000;" text-anchor="middle" x="1192.058824" y="106.000000">1035</text></g>
<rect fill="#FF5353" x="4" y="120.000000" width="12" height="12" filter="url(#ds)"/><text style="font-size:12px;font-family:OpenSans;fill:#000000;" text-anchor="start" x="20" y="132.000000">POM121 family</text></svg>
