<?xml version='1.0'?>
<svg xmlns="http://www.w3.org/2000/svg" xmlns:xlink="http://www.w3.org/1999/xlink" width="1013.560976" height="146.200000">
<defs>
  <filter id="ds" x="0" y="0">
    <feOffset in="SourceAlpha" dx="2" dy="2" />
    <feComponentTransfer><feFuncA type="linear" slope="0.2"/></feComponentTransfer>
    <feGaussianBlur result="blurOut" stdDeviation="1" />
    <feBlend in="SourceGraphic" in2="blurOut" mode="normal" />
  </filter>
  <pattern id="disordered-hatch" patternUnits="userSpaceOnUse" width="4" height="4">
    <path d="M-1,1 l2,-2 M0,4 l4,-4 M3,5 l2,-2" stroke="#000000" opacity="0.3" />
  </pattern>
</defs>
<line x1="912.951220" x2="912.951220" y1="34.000000" y2="62.000000" stroke="#BABDB6" stroke-width="2"/><a xlink:title="G472G"><circle cx="912.951220" cy="34.000000" r="4.000000" fill="#0000ff" /></a><g transform="translate(912.951220,34.000000) rotate(-30)"><text style="font-size:10px;font-family:OpenSans;fill:#555;" text-anchor="middle" x="0" y="-6.000000">G472G</text></g><a xlink:title=",  (517aa)"><rect fill="#BABDB6" x="15.000000" y="62.000000" width="983.560976" height="14.000000"/></a><g transform="translate(178.609756,57.000000)"><a xlink:href="https://www.ebi.ac.uk/interpro/entry/pfam/PF13522" xlink:title="Glutamine amidotransferase domain"><rect fill="#2DCF00" x="0" y="0" width="234.000000" height="24.000000" filter="url(#ds)"/><text style="font-size:12px;font-family:OpenSans;fill:#ffffff;" text-anchor="middle" x="117.000000" y="16.000000">Glutamine amidotransferase domain</text></a></g>
<g transform="translate(730.317073,57.000000)"><a xlink:href="https://www.ebi.ac.uk/interpro/entry/pfam/PF00156" xlink:title="Phosphoribosyl transferase domain"><rect fill="#FF5353" x="0" y="0" width="78.000000" height="24.000000" filter="url(#ds)"/><text style="font-size:12px;font-family:OpenSans;fill:#ffffff;" text-anchor="middle" x="39.000000" y="16.000000">Pribosyltran</text></a></g>
<g class="axis">
<line x1="15.000000" x2="998.560976" y1="91.000000" y2="91.000000" stroke="#AAAAAA" /><line x1="15.000000" x2="15.000000" y1="91.000000" y2="96.000000" stroke="#AAAAAA" /><line x1="15.000000" x2="15.000000" y1="91.000000" y2="96.000000" stroke="#AAAAAA" /><text style="font-size:10px;font-family:OpenSans;fill:#000000;" text-anchor="middle" x="15.000000" y="106.000000">0</text><line x1="178.609756" x2="178.609756" y1="91.000000" y2="96.000000" stroke="#AAAAAA" /><text style="font-size:10px;font-family:OpenSans;fill:#000000;" text-anchor="middle" x="178.609756" y="106.000000">86</text><line x1="412.609756" x2="412.609756" y1="91.000000" y2="96.000000" stroke="#AAAAAA" /><text style="font-size:10px;font-family:OpenSans;fill:#000000;" text-anchor="middle" x="412.609756" y="106.000000">209</text><line x1="730.317073" x2="730.317073" y1="91.000000" y2="96.000000" stroke="#AAAAAA" /><text style="font-size:10px;font-family:OpenSans;fill:#000000;" text-anchor="middle" x="730.317073" y="106.000000">376</text><line x1="808.317073" x2="808.317073" y1="91.000000" y2="96.000000" stroke="#AAAAAA" /><text style="font-size:10px;font-family:OpenSans;fill:#000000;" text-anchor="middle" x="808.317073" y="106.000000">417</text><line x1="912.951220" x2="912.951220" y1="91.000000" y2="96.000000" stroke="#AAAAAA" /><text style="font-size:10px;font-family:OpenSans;fill:#000000;" text-anchor="middle" x="912.951220" y="106.000000">472</text><line x1="998.560976" x2="998.560976" y1="91.000000" y2="96.000000" stroke="#AAAAAA" /><text style="font-size:10px;font-family:OpenSans;fill:#000000;" text-anchor="middle" x="998.560976" y="106.000000">517</text></g>
<rect fill="#FF5353" x="4" y="120.000000" width="12" height="12" filter="url(#ds)"/><text style="font-size:12px;font-family:OpenSans;fill:#000000;" text-anchor="start" x="20" y="132.000000">Phosphoribosyl transferase domain</text></svg>
