<?xml version='1.0'?>
<svg xmlns="http://www.w3.org/2000/svg" xmlns:xlink="http://www.w3.org/1999/xlink" width="767.684211" height="158.700000">
<defs>
  <filter id="ds" x="0" y="0">
    <feOffset in="SourceAlpha" dx="2" dy="2" />
    <feComponentTransfer><feFuncA type="linear" slope="0.2"/></feComponentTransfer>
    <feGaussianBlur result="blurOut" stdDeviation="1" />
    <feBlend in="SourceGraphic" in2="blurOut" mode="normal" />
  </filter>
  <pattern id="disordered-hatch" patternUnits="userSpaceOnUse" width="4" height="4">
    <path d="M-1,1 l2,-2 M0,4 l4,-4 M3,5 l2,-2" stroke="#000000" opacity="0.3" />
  </pattern>
</defs>
<line x1="646.578947" x2="646.578947" y1="46.500000" y2="74.500000" stroke="#BABDB6" stroke-width="2"/><a xlink:title="P750L"><circle cx="646.578947" cy="46.500000" r="4.000000" fill="#ff0000" /></a><g transform="translate(646.578947,46.500000) rotate(-30)"><text style="font-size:10px;font-family:OpenSans;fill:#555;" text-anchor="middle" x="0" y="-6.000000">P750L</text></g><line x1="656.684211" x2="656.684211" y1="34.000000" y2="74.500000" stroke="#BABDB6" stroke-width="2"/><a xlink:title="P762L"><circle cx="656.684211" cy="34.000000" r="4.000000" fill="#ff0000" /></a><g transform="translate(656.684211,34.000000) rotate(-30)"><text style="font-size:10px;font-family:OpenSans;fill:#555;" text-anchor="middle" x="0" y="-6.000000">P762L</text></g><line x1="659.210526" x2="659.210526" y1="46.500000" y2="74.500000" stroke="#BABDB6" stroke-width="2"/><a xlink:title="P765L"><circle cx="659.210526" cy="46.500000" r="4.000000" fill="#ff0000" /></a><g transform="translate(659.210526,46.500000) rotate(-30)"><text style="font-size:10px;font-family:OpenSans;fill:#555;" text-anchor="middle" x="0" y="-6.000000">P765L</text></g><line x1="668.473684" x2="668.473684" y1="46.500000" y2="74.500000" stroke="#BABDB6" stroke-width="2"/><a xlink:title="P776L"><circle cx="668.473684" cy="46.500000" r="4.000000" fill="#ff0000" /></a><g transform="translate(668.473684,46.500000) rotate(-30)"><text style="font-size:10px;font-family:OpenSans;fill:#555;" text-anchor="middle" x="0" y="-6.000000">P776L</text></g><line x1="685.315789" x2="685.315789" y1="46.500000" y2="74.500000" stroke="#BABDB6" stroke-width="2"/><a xlink:title="P796L"><circle cx="685.315789" cy="46.500000" r="4.000000" fill="#ff0000" /></a><g transform="translate(685.315789,46.500000) rotate(-30)"><text style="font-size:10px;font-family:OpenSans;fill:#555;" text-anchor="middle" x="0" y="-6.000000">P796L</text></g><line x1="694.578947" x2="694.578947" y1="46.500000" y2="74.500000" stroke="#BABDB6" stroke-width="2"/><a xlink:title="P807L"><circle cx="694.578947" cy="46.500000" r="4.000000" fill="#ff0000" /></a><g transform="translate(694.578947,46.500000) rotate(-30)"><text style="font-size:10px;font-family:OpenSans;fill:#555;" text-anchor="middle" x="0" y="-6.000000">P807L</text></g><line x1="714.789474" x2="714.789474" y1="46.500000" y2="74.500000" stroke="#BABDB6" stroke-width="2"/><a xlink:title="P831L"><circle cx="714.789474" cy="46.500000" r="4.000000" fill="#ff0000" /></a><g transform="translate(714.789474,46.500000) rotate(-30)"><text style="font-size:10px;font-family:OpenSans;fill:#555;" text-anchor="middle" x="0" y="-6.000000">P831L</text></g><line x1="721.526316" x2="721.526316" y1="34.000000" y2="74.500000" stroke="#BABDB6" stroke-width="2"/><a xlink:title="P839L"><circle cx="721.526316" cy="34.000000" r="4.000000" fill="#ff0000" /></a><g transform="translate(721.526316,34.000000) rotate(-30)"><text style="font-size:10px;font-family:OpenSans;fill:#555;" text-anchor="middle" x="0" y="-6.000000">P839L</text></g><line x1="724.052632" x2="724.052632" y1="46.500000" y2="74.500000" stroke="#BABDB6" stroke-width="2"/><a xlink:title="P842L"><circle cx="724.052632" cy="46.500000" r="4.000000" fill="#ff0000" /></a><g transform="translate(724.052632,46.500000) rotate(-30)"><text style="font-size:10px;font-family:OpenSans;fill:#555;" text-anchor="middle" x="0" y="-6.000000">P842L</text></g><line x1="730.789474" x2="730.789474" y1="46.500000" y2="74.500000" stroke="#BABDB6" stroke-width="2"/><a xlink:title="P850L"><circle cx="730.789474" cy="46.500000" r="4.000000" fill="#ff0000" /></a><g transform="translate(730.789474,46.500000) rotate(-30)"><text style="font-size:10px;font-family:OpenSans;fill:#555;" text-anchor="middle" x="0" y="-6.000000">P850L</text></g><line x1="779.631579" x2="779.631579" y1="46.500000" y2="74.500000" stroke="#BABDB6" stroke-width="2"/><a xlink:title="P908L"><circle cx="779.631579" cy="46.500000" r="4.000000" fill="#ff0000" /></a><g transform="translate(779.631579,46.500000) rotate(-30)"><text style="font-size:10px;font-family:OpenSans;fill:#555;" text-anchor="middle" x="0" y="-6.000000">P908L</text></g><line x1="788.894737" x2="788.894737" y1="46.500000" y2="74.500000" stroke="#BABDB6" stroke-width="2"/><a xlink:title="P919L"><circle cx="788.894737" cy="46.500000" r="4.000000" fill="#ff0000" /></a><g transform="translate(788.894737,46.500000) rotate(-30)"><text style="font-size:10px;font-family:OpenSans;fill:#555;" text-anchor="middle" x="0" y="-6.000000">P919L</text></g><a xlink:title=",  (876aa)"><rect fill="#BABDB6" x="15.000000" y="74.500000" width="737.684211" height="14.000000"/></a><g transform="translate(484.052632,69.500000)"><a xlink:href="https://www.ebi.ac.uk/interpro/entry/pfam/PF00536" xlink:title="SAM domain (Sterile alpha motif)"><rect fill="#2DCF00" x="0" y="0" width="51.368421" height="24.000000" filter="url(#ds)"/><text style="font-size:12px;font-family:OpenSans;fill:#ffffff;" text-anchor="middle" x="25.684211" y="16.000000">SAM_1</text></a></g>
<g transform="translate(548.052632,69.500000)"><a xlink:href="https://www.ebi.ac.uk/interpro/entry/pfam/PF00536" xlink:title="SAM domain (Sterile alpha motif)"><rect fill="#FF5353" x="0" y="0" width="48.000000" height="24.000000" filter="url(#ds)"/><text style="font-size:12px;font-family:OpenSans;fill:#ffffff;" text-anchor="middle" x="24.000000" y="16.000000">SAM_1</text></a></g>
<g transform="translate(617.947368,69.500000)"><a xlink:href="https://www.ebi.ac.uk/interpro/entry/pfam/PF07647" xlink:title="SAM domain (Sterile alpha motif)"><rect fill="#5B5BFF" x="0" y="0" width="57.263158" height="24.000000" filter="url(#ds)"/><text style="font-size:12px;font-family:OpenSans;fill:#ffffff;" text-anchor="middle" x="28.631579" y="16.000000">SAM_2</text></a></g>
<g class="axis">
<line x1="15.000000" x2="752.684211" y1="103.500000" y2="103.500000" stroke="#AAAAAA" /><line x1="15.000000" x2="15.000000" y1="103.500000" y2="108.500000" stroke="#AAAAAA" /><line x1="15.000000" x2="15.000000" y1="103.500000" y2="108.500000" stroke="#AAAAAA" /><text style="font-size:10px;font-family:OpenSans;fill:#000000;" text-anchor="middle" x="15.000000" y="118.500000">0</text><line x1="484.052632" x2="484.052632" y1="103.500000" y2="108.500000" stroke="#AAAAAA" /><text style="font-size:10px;font-family:OpenSans;fill:#000000;" text-anchor="middle" x="484.052632" y="118.500000">557</text><line x1="535.421053" x2="535.421053" y1="103.500000" y2="108.500000" stroke="#AAAAAA" /><text style="font-size:10px;font-family:OpenSans;fill:#000000;" text-anchor="middle" x="535.421053" y="118.500000">618</text><line x1="596.052632" x2="596.052632" y1="103.500000" y2="108.500000" stroke="#AAAAAA" /><text style="font-size:10px;font-family:OpenSans;fill:#000000;" text-anchor="middle" x="596.052632" y="118.500000">690</text><line x1="617.947368" x2="617.947368" y1="103.500000" y2="108.500000" stroke="#AAAAAA" /><text style="font-size:10px;font-family:OpenSans;fill:#000000;" text-anchor="middle" x="617.947368" y="118.500000">716</text><line x1="646.578947" x2="646.578947" y1="103.500000" y2="108.500000" stroke="#AAAAAA" /><text style="font-size:10px;font-family:OpenSans;fill:#000000;" text-anchor="middle" x="646.578947" y="118.500000">750</text><line x1="668.473684" x2="668.473684" y1="103.500000" y2="108.500000" stroke="#AAAAAA" /><text style="font-size:10px;font-family:OpenSans;fill:#000000;" text-anchor="middle" x="668.473684" y="118.500000">776</text><line x1="694.578947" x2="694.578947" y1="103.500000" y2="108.500000" stroke="#AAAAAA" /><text style="font-size:10px;font-family:OpenSans;fill:#000000;" text-anchor="middle" x="694.578947" y="118.500000">807</text><line x1="714.789474" x2="714.789474" y1="103.500000" y2="108.500000" stroke="#AAAAAA" /><text style="font-size:10px;font-family:OpenSans;fill:#000000;" text-anchor="middle" x="714.789474" y="118.500000">831</text><line x1="752.684211" x2="752.684211" y1="103.500000" y2="108.500000" stroke="#AAAAAA" /><text style="font-size:10px;font-family:OpenSans;fill:#000000;" text-anchor="middle" x="752.684211" y="118.500000">876</text><line x1="779.631579" x2="779.631579" y1="103.500000" y2="108.500000" stroke="#AAAAAA" /><text style="font-size:10px;font-family:OpenSans;fill:#000000;" text-anchor="middle" x="779.631579" y="118.500000">908</text></g>
<rect fill="#5B5BFF" x="4" y="132.500000" width="12" height="12" filter="url(#ds)"/><text style="font-size:12px;font-family:OpenSans;fill:#000000;" text-anchor="start" x="20" y="144.500000">SAM domain (Sterile alpha motif)</text></svg>
