<?xml version='1.0'?>
<svg xmlns="http://www.w3.org/2000/svg" xmlns:xlink="http://www.w3.org/1999/xlink" width="430.000000" height="159.400000">
<defs>
  <filter id="ds" x="0" y="0">
    <feOffset in="SourceAlpha" dx="2" dy="2" />
    <feComponentTransfer><feFuncA type="linear" slope="0.2"/></feComponentTransfer>
    <feGaussianBlur result="blurOut" stdDeviation="1" />
    <feBlend in="SourceGraphic" in2="blurOut" mode="normal" />
  </filter>
  <pattern id="disordered-hatch" patternUnits="userSpaceOnUse" width="4" height="4">
    <path d="M-1,1 l2,-2 M0,4 l4,-4 M3,5 l2,-2" stroke="#000000" opacity="0.3" />
  </pattern>
</defs>
<line x1="95.000000" x2="95.000000" y1="34.000000" y2="62.000000" stroke="#BABDB6" stroke-width="2"/><a xlink:title="A72A"><circle cx="95.000000" cy="34.000000" r="4.000000" fill="#0000ff" /></a><g transform="translate(95.000000,34.000000) rotate(-30)"><text style="font-size:10px;font-family:OpenSans;fill:#555;" text-anchor="middle" x="0" y="-6.000000">A72A</text></g><line x1="105.000000" x2="105.000000" y1="34.000000" y2="62.000000" stroke="#BABDB6" stroke-width="2"/><a xlink:title="A81A"><circle cx="105.000000" cy="34.000000" r="4.000000" fill="#0000ff" /></a><g transform="translate(105.000000,34.000000) rotate(-30)"><text style="font-size:10px;font-family:OpenSans;fill:#555;" text-anchor="middle" x="0" y="-6.000000">A81A</text></g><line x1="122.777778" x2="122.777778" y1="34.000000" y2="62.000000" stroke="#BABDB6" stroke-width="2"/><a xlink:title="A97A"><circle cx="122.777778" cy="34.000000" r="4.000000" fill="#0000ff" /></a><g transform="translate(122.777778,34.000000) rotate(-30)"><text style="font-size:10px;font-family:OpenSans;fill:#555;" text-anchor="middle" x="0" y="-6.000000">A97A</text></g><line x1="152.777778" x2="152.777778" y1="34.000000" y2="62.000000" stroke="#BABDB6" stroke-width="2"/><a xlink:title="A124A"><circle cx="152.777778" cy="34.000000" r="4.000000" fill="#0000ff" /></a><g transform="translate(152.777778,34.000000) rotate(-30)"><text style="font-size:10px;font-family:OpenSans;fill:#555;" text-anchor="middle" x="0" y="-6.000000">A124A</text></g><line x1="170.555556" x2="170.555556" y1="34.000000" y2="62.000000" stroke="#BABDB6" stroke-width="2"/><a xlink:title="A140A"><circle cx="170.555556" cy="34.000000" r="4.000000" fill="#0000ff" /></a><g transform="translate(170.555556,34.000000) rotate(-30)"><text style="font-size:10px;font-family:OpenSans;fill:#555;" text-anchor="middle" x="0" y="-6.000000">A140A</text></g><line x1="253.888889" x2="253.888889" y1="34.000000" y2="62.000000" stroke="#BABDB6" stroke-width="2"/><a xlink:title="V215G"><circle cx="253.888889" cy="34.000000" r="4.000000" fill="#ff0000" /></a><g transform="translate(253.888889,34.000000) rotate(-30)"><text style="font-size:10px;font-family:OpenSans;fill:#555;" text-anchor="middle" x="0" y="-6.000000">V215G</text></g><line x1="271.666667" x2="271.666667" y1="34.000000" y2="62.000000" stroke="#BABDB6" stroke-width="2"/><a xlink:title="V231G"><circle cx="271.666667" cy="34.000000" r="4.000000" fill="#ff0000" /></a><g transform="translate(271.666667,34.000000) rotate(-30)"><text style="font-size:10px;font-family:OpenSans;fill:#555;" text-anchor="middle" x="0" y="-6.000000">V231G</text></g><line x1="301.666667" x2="301.666667" y1="34.000000" y2="62.000000" stroke="#BABDB6" stroke-width="2"/><a xlink:title="V258G"><circle cx="301.666667" cy="34.000000" r="4.000000" fill="#ff0000" /></a><g transform="translate(301.666667,34.000000) rotate(-30)"><text style="font-size:10px;font-family:OpenSans;fill:#555;" text-anchor="middle" x="0" y="-6.000000">V258G</text></g><line x1="319.444444" x2="319.444444" y1="34.000000" y2="62.000000" stroke="#BABDB6" stroke-width="2"/><a xlink:title="V274G"><circle cx="319.444444" cy="34.000000" r="4.000000" fill="#ff0000" /></a><g transform="translate(319.444444,34.000000) rotate(-30)"><text style="font-size:10px;font-family:OpenSans;fill:#555;" text-anchor="middle" x="0" y="-6.000000">V274G</text></g><a xlink:title=",  (360aa)"><rect fill="#BABDB6" x="15.000000" y="62.000000" width="400.000000" height="14.000000"/></a><g transform="translate(148.333333,57.000000)"><a xlink:href="https://www.ebi.ac.uk/interpro/entry/pfam/PF12799" xlink:title="Leucine Rich repeats (2 copies)"><rect fill="#2DCF00" x="0" y="0" width="44.444444" height="24.000000" filter="url(#ds)"/><text style="font-size:12px;font-family:OpenSans;fill:#ffffff;" text-anchor="middle" x="22.222222" y="16.000000">LRR_4</text></a></g>
<g transform="translate(197.222222,57.000000)"><a xlink:href="https://www.ebi.ac.uk/interpro/entry/pfam/PF12799" xlink:title="Leucine Rich repeats (2 copies)"><rect fill="#FF5353" x="0" y="0" width="44.444444" height="24.000000" filter="url(#ds)"/><text style="font-size:12px;font-family:OpenSans;fill:#ffffff;" text-anchor="middle" x="22.222222" y="16.000000">LRR_4</text></a></g>
<g transform="translate(246.111111,57.000000)"><a xlink:href="https://www.ebi.ac.uk/interpro/entry/pfam/PF12799" xlink:title="Leucine Rich repeats (2 copies)"><rect fill="#5B5BFF" x="0" y="0" width="46.666667" height="24.000000" filter="url(#ds)"/><text style="font-size:12px;font-family:OpenSans;fill:#ffffff;" text-anchor="middle" x="23.333333" y="16.000000">LRR_4</text></a></g>
<g transform="translate(301.666667,57.000000)"><a xlink:href="https://www.ebi.ac.uk/interpro/entry/pfam/PF14580" xlink:title="Leucine-rich repeat"><rect fill="#EBD61D" x="0" y="0" width="110.000000" height="24.000000" filter="url(#ds)"/><text style="font-size:12px;font-family:OpenSans;fill:#ffffff;" text-anchor="middle" x="55.000000" y="16.000000">LRR_9</text></a></g>
<g class="axis">
<line x1="15.000000" x2="415.000000" y1="91.000000" y2="91.000000" stroke="#AAAAAA" /><line x1="15.000000" x2="15.000000" y1="91.000000" y2="96.000000" stroke="#AAAAAA" /><line x1="15.000000" x2="15.000000" y1="91.000000" y2="96.000000" stroke="#AAAAAA" /><text style="font-size:10px;font-family:OpenSans;fill:#000000;" text-anchor="middle" x="15.000000" y="106.000000">0</text><line x1="95.000000" x2="95.000000" y1="91.000000" y2="96.000000" stroke="#AAAAAA" /><text style="font-size:10px;font-family:OpenSans;fill:#000000;" text-anchor="middle" x="95.000000" y="106.000000">72</text><line x1="122.777778" x2="122.777778" y1="91.000000" y2="96.000000" stroke="#AAAAAA" /><text style="font-size:10px;font-family:OpenSans;fill:#000000;" text-anchor="middle" x="122.777778" y="106.000000">97</text><line x1="152.777778" x2="152.777778" y1="91.000000" y2="96.000000" stroke="#AAAAAA" /><text style="font-size:10px;font-family:OpenSans;fill:#000000;" text-anchor="middle" x="152.777778" y="106.000000">124</text><line x1="192.777778" x2="192.777778" y1="91.000000" y2="96.000000" stroke="#AAAAAA" /><text style="font-size:10px;font-family:OpenSans;fill:#000000;" text-anchor="middle" x="192.777778" y="106.000000">160</text><line x1="253.888889" x2="253.888889" y1="91.000000" y2="96.000000" stroke="#AAAAAA" /><text style="font-size:10px;font-family:OpenSans;fill:#000000;" text-anchor="middle" x="253.888889" y="106.000000">215</text><line x1="301.666667" x2="301.666667" y1="91.000000" y2="96.000000" stroke="#AAAAAA" /><text style="font-size:10px;font-family:OpenSans;fill:#000000;" text-anchor="middle" x="301.666667" y="106.000000">258</text><line x1="415.000000" x2="415.000000" y1="91.000000" y2="96.000000" stroke="#AAAAAA" /><text style="font-size:10px;font-family:OpenSans;fill:#000000;" text-anchor="middle" x="415.000000" y="106.000000">360</text></g>
<rect fill="#5B5BFF" x="4" y="120.000000" width="12" height="12" filter="url(#ds)"/><text style="font-size:12px;font-family:OpenSans;fill:#000000;" text-anchor="start" x="20" y="132.000000">Leucine Rich repeats (2 copies)</text><rect fill="#EBD61D" x="4" y="134.000000" width="12" height="12" filter="url(#ds)"/><text style="font-size:12px;font-family:OpenSans;fill:#000000;" text-anchor="start" x="20" y="146.000000">Leucine-rich repeat</text></svg>
