<?xml version='1.0'?>
<svg xmlns="http://www.w3.org/2000/svg" xmlns:xlink="http://www.w3.org/1999/xlink" width="430.000000" height="171.200000">
<defs>
  <filter id="ds" x="0" y="0">
    <feOffset in="SourceAlpha" dx="2" dy="2" />
    <feComponentTransfer><feFuncA type="linear" slope="0.2"/></feComponentTransfer>
    <feGaussianBlur result="blurOut" stdDeviation="1" />
    <feBlend in="SourceGraphic" in2="blurOut" mode="normal" />
  </filter>
  <pattern id="disordered-hatch" patternUnits="userSpaceOnUse" width="4" height="4">
    <path d="M-1,1 l2,-2 M0,4 l4,-4 M3,5 l2,-2" stroke="#000000" opacity="0.3" />
  </pattern>
</defs>
<line x1="24.011264" x2="24.011264" y1="59.000000" y2="87.000000" stroke="#BABDB6" stroke-width="2"/><a xlink:title="L18L"><circle cx="24.011264" cy="59.000000" r="4.000000" fill="#0000ff" /></a><g transform="translate(24.011264,59.000000) rotate(-30)"><text style="font-size:10px;font-family:OpenSans;fill:#555;" text-anchor="middle" x="0" y="-6.000000">L18L</text></g><line x1="141.658323" x2="141.658323" y1="59.000000" y2="87.000000" stroke="#BABDB6" stroke-width="2"/><a xlink:title="A253V"><circle cx="141.658323" cy="59.000000" r="4.000000" fill="#ff0000" /></a><g transform="translate(141.658323,59.000000) rotate(-30)"><text style="font-size:10px;font-family:OpenSans;fill:#555;" text-anchor="middle" x="0" y="-6.000000">A253V</text></g><line x1="154.674593" x2="154.674593" y1="59.000000" y2="87.000000" stroke="#BABDB6" stroke-width="2"/><a xlink:title="G279G"><circle cx="154.674593" cy="59.000000" r="4.000000" fill="#0000ff" /></a><g transform="translate(154.674593,59.000000) rotate(-30)"><text style="font-size:10px;font-family:OpenSans;fill:#555;" text-anchor="middle" x="0" y="-6.000000">G279G</text></g><line x1="182.209011" x2="182.209011" y1="34.000000" y2="87.000000" stroke="#BABDB6" stroke-width="2"/><a xlink:title="R334H"><circle cx="182.209011" cy="34.000000" r="4.000000" fill="#ff0000" /></a><g transform="translate(182.209011,34.000000) rotate(-30)"><text style="font-size:10px;font-family:OpenSans;fill:#555;" text-anchor="middle" x="0" y="-6.000000">R334H</text></g><line x1="182.209011" x2="182.209011" y1="46.500000" y2="87.000000" stroke="#BABDB6" stroke-width="2"/><a xlink:title="G334G"><circle cx="182.209011" cy="46.500000" r="4.000000" fill="#0000ff" /></a><g transform="translate(182.209011,46.500000) rotate(-30)"><text style="font-size:10px;font-family:OpenSans;fill:#555;" text-anchor="middle" x="0" y="-6.000000">G334G</text></g><line x1="182.709637" x2="182.709637" y1="59.000000" y2="87.000000" stroke="#BABDB6" stroke-width="2"/><a xlink:title="G335G"><circle cx="182.709637" cy="59.000000" r="4.000000" fill="#0000ff" /></a><g transform="translate(182.709637,59.000000) rotate(-30)"><text style="font-size:10px;font-family:OpenSans;fill:#555;" text-anchor="middle" x="0" y="-6.000000">G335G</text></g><line x1="327.390488" x2="327.390488" y1="46.500000" y2="87.000000" stroke="#BABDB6" stroke-width="2"/><a xlink:title="G624G"><circle cx="327.390488" cy="46.500000" r="4.000000" fill="#0000ff" /></a><g transform="translate(327.390488,46.500000) rotate(-30)"><text style="font-size:10px;font-family:OpenSans;fill:#555;" text-anchor="middle" x="0" y="-6.000000">G624G</text></g><line x1="327.891114" x2="327.891114" y1="59.000000" y2="87.000000" stroke="#BABDB6" stroke-width="2"/><a xlink:title="G625G"><circle cx="327.891114" cy="59.000000" r="4.000000" fill="#0000ff" /></a><g transform="translate(327.891114,59.000000) rotate(-30)"><text style="font-size:10px;font-family:OpenSans;fill:#555;" text-anchor="middle" x="0" y="-6.000000">G625G</text></g><a xlink:title=",  (799aa)"><rect fill="#BABDB6" x="15.000000" y="87.000000" width="400.000000" height="14.000000"/></a><g transform="translate(96.602003,82.000000)"><a xlink:href="https://www.ebi.ac.uk/interpro/entry/pfam/PF03370" xlink:title="Carbohydrate/starch-binding module (family 21)"><rect fill="#2DCF00" x="0" y="0" width="60.075094" height="24.000000" filter="url(#ds)"/><text style="font-size:12px;font-family:OpenSans;fill:#ffffff;" text-anchor="middle" x="30.037547" y="16.000000">CBM_21</text></a></g>
<g class="axis">
<line x1="15.000000" x2="415.000000" y1="116.000000" y2="116.000000" stroke="#AAAAAA" /><line x1="15.000000" x2="15.000000" y1="116.000000" y2="121.000000" stroke="#AAAAAA" /><line x1="24.011264" x2="24.011264" y1="116.000000" y2="121.000000" stroke="#AAAAAA" /><text style="font-size:10px;font-family:OpenSans;fill:#000000;" text-anchor="middle" x="24.011264" y="131.000000">18</text><line x1="96.602003" x2="96.602003" y1="116.000000" y2="121.000000" stroke="#AAAAAA" /><text style="font-size:10px;font-family:OpenSans;fill:#000000;" text-anchor="middle" x="96.602003" y="131.000000">163</text><line x1="141.658323" x2="141.658323" y1="116.000000" y2="121.000000" stroke="#AAAAAA" /><text style="font-size:10px;font-family:OpenSans;fill:#000000;" text-anchor="middle" x="141.658323" y="131.000000">253</text><line x1="182.209011" x2="182.209011" y1="116.000000" y2="121.000000" stroke="#AAAAAA" /><text style="font-size:10px;font-family:OpenSans;fill:#000000;" text-anchor="middle" x="182.209011" y="131.000000">334</text><line x1="327.390488" x2="327.390488" y1="116.000000" y2="121.000000" stroke="#AAAAAA" /><text style="font-size:10px;font-family:OpenSans;fill:#000000;" text-anchor="middle" x="327.390488" y="131.000000">624</text><line x1="415.000000" x2="415.000000" y1="116.000000" y2="121.000000" stroke="#AAAAAA" /><text style="font-size:10px;font-family:OpenSans;fill:#000000;" text-anchor="middle" x="415.000000" y="131.000000">799</text></g>
<rect fill="#2DCF00" x="4" y="145.000000" width="12" height="12" filter="url(#ds)"/><text style="font-size:12px;font-family:OpenSans;fill:#000000;" text-anchor="start" x="20" y="157.000000">Carbohydrate/starch-binding module (family 21)</text></svg>
