<?xml version='1.0'?>
<svg xmlns="http://www.w3.org/2000/svg" xmlns:xlink="http://www.w3.org/1999/xlink" width="716.125000" height="171.900000">
<defs>
  <filter id="ds" x="0" y="0">
    <feOffset in="SourceAlpha" dx="2" dy="2" />
    <feComponentTransfer><feFuncA type="linear" slope="0.2"/></feComponentTransfer>
    <feGaussianBlur result="blurOut" stdDeviation="1" />
    <feBlend in="SourceGraphic" in2="blurOut" mode="normal" />
  </filter>
  <pattern id="disordered-hatch" patternUnits="userSpaceOnUse" width="4" height="4">
    <path d="M-1,1 l2,-2 M0,4 l4,-4 M3,5 l2,-2" stroke="#000000" opacity="0.3" />
  </pattern>
</defs>
<line x1="75.500000" x2="75.500000" y1="34.000000" y2="74.500000" stroke="#BABDB6" stroke-width="2"/><a xlink:title="Y44Y"><circle cx="75.500000" cy="34.000000" r="4.000000" fill="#0000ff" /></a><g transform="translate(75.500000,34.000000) rotate(-30)"><text style="font-size:10px;font-family:OpenSans;fill:#555;" text-anchor="middle" x="0" y="-6.000000">Y44Y</text></g><line x1="78.250000" x2="78.250000" y1="46.500000" y2="74.500000" stroke="#BABDB6" stroke-width="2"/><a xlink:title="N46N"><circle cx="78.250000" cy="46.500000" r="4.000000" fill="#0000ff" /></a><g transform="translate(78.250000,46.500000) rotate(-30)"><text style="font-size:10px;font-family:OpenSans;fill:#555;" text-anchor="middle" x="0" y="-6.000000">N46N</text></g><line x1="240.500000" x2="240.500000" y1="46.500000" y2="74.500000" stroke="#BABDB6" stroke-width="2"/><a xlink:title="S164S"><circle cx="240.500000" cy="46.500000" r="4.000000" fill="#0000ff" /></a><g transform="translate(240.500000,46.500000) rotate(-30)"><text style="font-size:10px;font-family:OpenSans;fill:#555;" text-anchor="middle" x="0" y="-6.000000">S164S</text></g><line x1="571.875000" x2="571.875000" y1="46.500000" y2="74.500000" stroke="#BABDB6" stroke-width="2"/><a xlink:title="H405H"><circle cx="571.875000" cy="46.500000" r="4.000000" fill="#0000ff" /></a><g transform="translate(571.875000,46.500000) rotate(-30)"><text style="font-size:10px;font-family:OpenSans;fill:#555;" text-anchor="middle" x="0" y="-6.000000">H405H</text></g><line x1="591.125000" x2="591.125000" y1="46.500000" y2="74.500000" stroke="#BABDB6" stroke-width="2"/><a xlink:title="R419C"><circle cx="591.125000" cy="46.500000" r="4.000000" fill="#ff0000" /></a><g transform="translate(591.125000,46.500000) rotate(-30)"><text style="font-size:10px;font-family:OpenSans;fill:#555;" text-anchor="middle" x="0" y="-6.000000">R419C</text></g><line x1="602.125000" x2="602.125000" y1="46.500000" y2="74.500000" stroke="#BABDB6" stroke-width="2"/><a xlink:title="H427H"><circle cx="602.125000" cy="46.500000" r="4.000000" fill="#0000ff" /></a><g transform="translate(602.125000,46.500000) rotate(-30)"><text style="font-size:10px;font-family:OpenSans;fill:#555;" text-anchor="middle" x="0" y="-6.000000">H427H</text></g><line x1="621.375000" x2="621.375000" y1="46.500000" y2="74.500000" stroke="#BABDB6" stroke-width="2"/><a xlink:title="R441C"><circle cx="621.375000" cy="46.500000" r="4.000000" fill="#ff0000" /></a><g transform="translate(621.375000,46.500000) rotate(-30)"><text style="font-size:10px;font-family:OpenSans;fill:#555;" text-anchor="middle" x="0" y="-6.000000">R441C</text></g><a xlink:title=",  (499aa)"><rect fill="#BABDB6" x="15.000000" y="74.500000" width="686.125000" height="14.000000"/></a><g transform="translate(54.875000,69.500000)"><a xlink:href="https://www.ebi.ac.uk/interpro/entry/pfam/PF00515" xlink:title="Tetratricopeptide repeat"><rect fill="#2DCF00" x="0" y="0" width="44.000000" height="24.000000" filter="url(#ds)"/><text style="font-size:12px;font-family:OpenSans;fill:#ffffff;" text-anchor="middle" x="22.000000" y="16.000000">TPR_1</text></a></g>
<g transform="translate(202.000000,69.500000)"><a xlink:href="https://www.ebi.ac.uk/interpro/entry/pfam/PF08321" xlink:title="PPP5 TPR repeat region"><rect fill="#FF5353" x="0" y="0" width="126.500000" height="24.000000" filter="url(#ds)"/><text style="font-size:12px;font-family:OpenSans;fill:#ffffff;" text-anchor="middle" x="63.250000" y="16.000000">PPP5</text></a></g>
<g transform="translate(339.500000,69.500000)"><a xlink:href="https://www.ebi.ac.uk/interpro/entry/pfam/PF00149" xlink:title="Calcineurin-like phosphoesterase"><rect fill="#5B5BFF" x="0" y="0" width="265.375000" height="24.000000" filter="url(#ds)"/><text style="font-size:12px;font-family:OpenSans;fill:#ffffff;" text-anchor="middle" x="132.687500" y="16.000000">Calcineurin-like phosphoesterase</text></a></g>
<g class="axis">
<line x1="15.000000" x2="701.125000" y1="103.500000" y2="103.500000" stroke="#AAAAAA" /><line x1="15.000000" x2="15.000000" y1="103.500000" y2="108.500000" stroke="#AAAAAA" /><line x1="15.000000" x2="15.000000" y1="103.500000" y2="108.500000" stroke="#AAAAAA" /><text style="font-size:10px;font-family:OpenSans;fill:#000000;" text-anchor="middle" x="15.000000" y="118.500000">0</text><line x1="54.875000" x2="54.875000" y1="103.500000" y2="108.500000" stroke="#AAAAAA" /><text style="font-size:10px;font-family:OpenSans;fill:#000000;" text-anchor="middle" x="54.875000" y="118.500000">29</text><line x1="75.500000" x2="75.500000" y1="103.500000" y2="108.500000" stroke="#AAAAAA" /><text style="font-size:10px;font-family:OpenSans;fill:#000000;" text-anchor="middle" x="75.500000" y="118.500000">44</text><line x1="98.875000" x2="98.875000" y1="103.500000" y2="108.500000" stroke="#AAAAAA" /><text style="font-size:10px;font-family:OpenSans;fill:#000000;" text-anchor="middle" x="98.875000" y="118.500000">61</text><line x1="202.000000" x2="202.000000" y1="103.500000" y2="108.500000" stroke="#AAAAAA" /><text style="font-size:10px;font-family:OpenSans;fill:#000000;" text-anchor="middle" x="202.000000" y="118.500000">136</text><line x1="240.500000" x2="240.500000" y1="103.500000" y2="108.500000" stroke="#AAAAAA" /><text style="font-size:10px;font-family:OpenSans;fill:#000000;" text-anchor="middle" x="240.500000" y="118.500000">164</text><line x1="328.500000" x2="328.500000" y1="103.500000" y2="108.500000" stroke="#AAAAAA" /><text style="font-size:10px;font-family:OpenSans;fill:#000000;" text-anchor="middle" x="328.500000" y="118.500000">228</text><line x1="571.875000" x2="571.875000" y1="103.500000" y2="108.500000" stroke="#AAAAAA" /><text style="font-size:10px;font-family:OpenSans;fill:#000000;" text-anchor="middle" x="571.875000" y="118.500000">405</text><line x1="591.125000" x2="591.125000" y1="103.500000" y2="108.500000" stroke="#AAAAAA" /><text style="font-size:10px;font-family:OpenSans;fill:#000000;" text-anchor="middle" x="591.125000" y="118.500000">419</text><line x1="621.375000" x2="621.375000" y1="103.500000" y2="108.500000" stroke="#AAAAAA" /><text style="font-size:10px;font-family:OpenSans;fill:#000000;" text-anchor="middle" x="621.375000" y="118.500000">441</text><line x1="701.125000" x2="701.125000" y1="103.500000" y2="108.500000" stroke="#AAAAAA" /><text style="font-size:10px;font-family:OpenSans;fill:#000000;" text-anchor="middle" x="701.125000" y="118.500000">499</text></g>
<rect fill="#2DCF00" x="4" y="132.500000" width="12" height="12" filter="url(#ds)"/><text style="font-size:12px;font-family:OpenSans;fill:#000000;" text-anchor="start" x="20" y="144.500000">Tetratricopeptide repeat</text><rect fill="#FF5353" x="4" y="146.500000" width="12" height="12" filter="url(#ds)"/><text style="font-size:12px;font-family:OpenSans;fill:#000000;" text-anchor="start" x="20" y="158.500000">PPP5 TPR repeat region</text></svg>
