<?xml version='1.0'?>
<svg xmlns="http://www.w3.org/2000/svg" xmlns:xlink="http://www.w3.org/1999/xlink" width="1431.263158" height="183.700000">
<defs>
  <filter id="ds" x="0" y="0">
    <feOffset in="SourceAlpha" dx="2" dy="2" />
    <feComponentTransfer><feFuncA type="linear" slope="0.2"/></feComponentTransfer>
    <feGaussianBlur result="blurOut" stdDeviation="1" />
    <feBlend in="SourceGraphic" in2="blurOut" mode="normal" />
  </filter>
  <pattern id="disordered-hatch" patternUnits="userSpaceOnUse" width="4" height="4">
    <path d="M-1,1 l2,-2 M0,4 l4,-4 M3,5 l2,-2" stroke="#000000" opacity="0.3" />
  </pattern>
</defs>
<line x1="381.315789" x2="381.315789" y1="71.500000" y2="99.500000" stroke="#BABDB6" stroke-width="2"/><a xlink:title="V435V"><circle cx="381.315789" cy="71.500000" r="4.000000" fill="#0000ff" /></a><g transform="translate(381.315789,71.500000) rotate(-30)"><text style="font-size:10px;font-family:OpenSans;fill:#555;" text-anchor="middle" x="0" y="-6.000000">V435V</text></g><line x1="416.684211" x2="416.684211" y1="71.500000" y2="99.500000" stroke="#BABDB6" stroke-width="2"/><a xlink:title="V477V"><circle cx="416.684211" cy="71.500000" r="4.000000" fill="#0000ff" /></a><g transform="translate(416.684211,71.500000) rotate(-30)"><text style="font-size:10px;font-family:OpenSans;fill:#555;" text-anchor="middle" x="0" y="-6.000000">V477V</text></g><line x1="447.842105" x2="447.842105" y1="59.000000" y2="99.500000" stroke="#BABDB6" stroke-width="2"/><a xlink:title="V514V"><circle cx="447.842105" cy="59.000000" r="4.000000" fill="#0000ff" /></a><g transform="translate(447.842105,59.000000) rotate(-30)"><text style="font-size:10px;font-family:OpenSans;fill:#555;" text-anchor="middle" x="0" y="-6.000000">V514V</text></g><line x1="451.210526" x2="451.210526" y1="71.500000" y2="99.500000" stroke="#BABDB6" stroke-width="2"/><a xlink:title="V518V"><circle cx="451.210526" cy="71.500000" r="4.000000" fill="#0000ff" /></a><g transform="translate(451.210526,71.500000) rotate(-30)"><text style="font-size:10px;font-family:OpenSans;fill:#555;" text-anchor="middle" x="0" y="-6.000000">V518V</text></g><line x1="517.736842" x2="517.736842" y1="71.500000" y2="99.500000" stroke="#BABDB6" stroke-width="2"/><a xlink:title="V597V"><circle cx="517.736842" cy="71.500000" r="4.000000" fill="#0000ff" /></a><g transform="translate(517.736842,71.500000) rotate(-30)"><text style="font-size:10px;font-family:OpenSans;fill:#555;" text-anchor="middle" x="0" y="-6.000000">V597V</text></g><line x1="562.368421" x2="562.368421" y1="71.500000" y2="99.500000" stroke="#BABDB6" stroke-width="2"/><a xlink:title="V650V"><circle cx="562.368421" cy="71.500000" r="4.000000" fill="#0000ff" /></a><g transform="translate(562.368421,71.500000) rotate(-30)"><text style="font-size:10px;font-family:OpenSans;fill:#555;" text-anchor="middle" x="0" y="-6.000000">V650V</text></g><line x1="845.315789" x2="845.315789" y1="71.500000" y2="99.500000" stroke="#BABDB6" stroke-width="2"/><a xlink:title="T986T"><circle cx="845.315789" cy="71.500000" r="4.000000" fill="#0000ff" /></a><g transform="translate(845.315789,71.500000) rotate(-30)"><text style="font-size:10px;font-family:OpenSans;fill:#555;" text-anchor="middle" x="0" y="-6.000000">T986T</text></g><line x1="880.684211" x2="880.684211" y1="71.500000" y2="99.500000" stroke="#BABDB6" stroke-width="2"/><a xlink:title="T1028T"><circle cx="880.684211" cy="71.500000" r="4.000000" fill="#0000ff" /></a><g transform="translate(880.684211,71.500000) rotate(-30)"><text style="font-size:10px;font-family:OpenSans;fill:#555;" text-anchor="middle" x="0" y="-6.000000">T1028T</text></g><line x1="911.842105" x2="911.842105" y1="59.000000" y2="99.500000" stroke="#BABDB6" stroke-width="2"/><a xlink:title="T1065T"><circle cx="911.842105" cy="59.000000" r="4.000000" fill="#0000ff" /></a><g transform="translate(911.842105,59.000000) rotate(-30)"><text style="font-size:10px;font-family:OpenSans;fill:#555;" text-anchor="middle" x="0" y="-6.000000">T1065T</text></g><line x1="915.210526" x2="915.210526" y1="71.500000" y2="99.500000" stroke="#BABDB6" stroke-width="2"/><a xlink:title="T1069T"><circle cx="915.210526" cy="71.500000" r="4.000000" fill="#0000ff" /></a><g transform="translate(915.210526,71.500000) rotate(-30)"><text style="font-size:10px;font-family:OpenSans;fill:#555;" text-anchor="middle" x="0" y="-6.000000">T1069T</text></g><line x1="927.000000" x2="927.000000" y1="71.500000" y2="99.500000" stroke="#BABDB6" stroke-width="2"/><a xlink:title="V1083L"><circle cx="927.000000" cy="71.500000" r="4.000000" fill="#ff0000" /></a><g transform="translate(927.000000,71.500000) rotate(-30)"><text style="font-size:10px;font-family:OpenSans;fill:#555;" text-anchor="middle" x="0" y="-6.000000">V1083L</text></g><line x1="942.157895" x2="942.157895" y1="71.500000" y2="99.500000" stroke="#BABDB6" stroke-width="2"/><a xlink:title="V1101L"><circle cx="942.157895" cy="71.500000" r="4.000000" fill="#ff0000" /></a><g transform="translate(942.157895,71.500000) rotate(-30)"><text style="font-size:10px;font-family:OpenSans;fill:#555;" text-anchor="middle" x="0" y="-6.000000">V1101L</text></g><line x1="957.315789" x2="957.315789" y1="59.000000" y2="99.500000" stroke="#BABDB6" stroke-width="2"/><a xlink:title="V1119L"><circle cx="957.315789" cy="59.000000" r="4.000000" fill="#ff0000" /></a><g transform="translate(957.315789,59.000000) rotate(-30)"><text style="font-size:10px;font-family:OpenSans;fill:#555;" text-anchor="middle" x="0" y="-6.000000">V1119L</text></g><line x1="962.368421" x2="962.368421" y1="71.500000" y2="99.500000" stroke="#BABDB6" stroke-width="2"/><a xlink:title="V1125L"><circle cx="962.368421" cy="71.500000" r="4.000000" fill="#ff0000" /></a><g transform="translate(962.368421,71.500000) rotate(-30)"><text style="font-size:10px;font-family:OpenSans;fill:#555;" text-anchor="middle" x="0" y="-6.000000">V1125L</text></g><line x1="976.684211" x2="976.684211" y1="59.000000" y2="99.500000" stroke="#BABDB6" stroke-width="2"/><a xlink:title="T1142T"><circle cx="976.684211" cy="59.000000" r="4.000000" fill="#0000ff" /></a><g transform="translate(976.684211,59.000000) rotate(-30)"><text style="font-size:10px;font-family:OpenSans;fill:#555;" text-anchor="middle" x="0" y="-6.000000">T1142T</text></g><line x1="981.736842" x2="981.736842" y1="71.500000" y2="99.500000" stroke="#BABDB6" stroke-width="2"/><a xlink:title="T1148T"><circle cx="981.736842" cy="71.500000" r="4.000000" fill="#0000ff" /></a><g transform="translate(981.736842,71.500000) rotate(-30)"><text style="font-size:10px;font-family:OpenSans;fill:#555;" text-anchor="middle" x="0" y="-6.000000">T1148T</text></g><line x1="991.842105" x2="991.842105" y1="46.500000" y2="99.500000" stroke="#BABDB6" stroke-width="2"/><a xlink:title="T1160T"><circle cx="991.842105" cy="46.500000" r="4.000000" fill="#0000ff" /></a><g transform="translate(991.842105,46.500000) rotate(-30)"><text style="font-size:10px;font-family:OpenSans;fill:#555;" text-anchor="middle" x="0" y="-6.000000">T1160T</text></g><line x1="993.526316" x2="993.526316" y1="59.000000" y2="99.500000" stroke="#BABDB6" stroke-width="2"/><a xlink:title="V1162L"><circle cx="993.526316" cy="59.000000" r="4.000000" fill="#ff0000" /></a><g transform="translate(993.526316,59.000000) rotate(-30)"><text style="font-size:10px;font-family:OpenSans;fill:#555;" text-anchor="middle" x="0" y="-6.000000">V1162L</text></g><line x1="996.894737" x2="996.894737" y1="71.500000" y2="99.500000" stroke="#BABDB6" stroke-width="2"/><a xlink:title="V1166L"><circle cx="996.894737" cy="71.500000" r="4.000000" fill="#ff0000" /></a><g transform="translate(996.894737,71.500000) rotate(-30)"><text style="font-size:10px;font-family:OpenSans;fill:#555;" text-anchor="middle" x="0" y="-6.000000">V1166L</text></g><line x1="1007.000000" x2="1007.000000" y1="46.500000" y2="99.500000" stroke="#BABDB6" stroke-width="2"/><a xlink:title="T1178T"><circle cx="1007.000000" cy="46.500000" r="4.000000" fill="#0000ff" /></a><g transform="translate(1007.000000,46.500000) rotate(-30)"><text style="font-size:10px;font-family:OpenSans;fill:#555;" text-anchor="middle" x="0" y="-6.000000">T1178T</text></g><line x1="1012.052632" x2="1012.052632" y1="46.500000" y2="99.500000" stroke="#BABDB6" stroke-width="2"/><a xlink:title="V1184L"><circle cx="1012.052632" cy="46.500000" r="4.000000" fill="#ff0000" /></a><g transform="translate(1012.052632,46.500000) rotate(-30)"><text style="font-size:10px;font-family:OpenSans;fill:#555;" text-anchor="middle" x="0" y="-6.000000">V1184L</text></g><line x1="1012.052632" x2="1012.052632" y1="59.000000" y2="99.500000" stroke="#BABDB6" stroke-width="2"/><a xlink:title="T1184T"><circle cx="1012.052632" cy="59.000000" r="4.000000" fill="#0000ff" /></a><g transform="translate(1012.052632,59.000000) rotate(-30)"><text style="font-size:10px;font-family:OpenSans;fill:#555;" text-anchor="middle" x="0" y="-6.000000">T1184T</text></g><line x1="1017.947368" x2="1017.947368" y1="71.500000" y2="99.500000" stroke="#BABDB6" stroke-width="2"/><a xlink:title="P1191L"><circle cx="1017.947368" cy="71.500000" r="4.000000" fill="#ff0000" /></a><g transform="translate(1017.947368,71.500000) rotate(-30)"><text style="font-size:10px;font-family:OpenSans;fill:#555;" text-anchor="middle" x="0" y="-6.000000">P1191L</text></g><line x1="1026.368421" x2="1026.368421" y1="59.000000" y2="99.500000" stroke="#BABDB6" stroke-width="2"/><a xlink:title="T1201T"><circle cx="1026.368421" cy="59.000000" r="4.000000" fill="#0000ff" /></a><g transform="translate(1026.368421,59.000000) rotate(-30)"><text style="font-size:10px;font-family:OpenSans;fill:#555;" text-anchor="middle" x="0" y="-6.000000">T1201T</text></g><line x1="1027.210526" x2="1027.210526" y1="59.000000" y2="99.500000" stroke="#BABDB6" stroke-width="2"/><a xlink:title="V1202L"><circle cx="1027.210526" cy="59.000000" r="4.000000" fill="#ff0000" /></a><g transform="translate(1027.210526,59.000000) rotate(-30)"><text style="font-size:10px;font-family:OpenSans;fill:#555;" text-anchor="middle" x="0" y="-6.000000">V1202L</text></g><line x1="1033.105263" x2="1033.105263" y1="71.500000" y2="99.500000" stroke="#BABDB6" stroke-width="2"/><a xlink:title="P1209L"><circle cx="1033.105263" cy="71.500000" r="4.000000" fill="#ff0000" /></a><g transform="translate(1033.105263,71.500000) rotate(-30)"><text style="font-size:10px;font-family:OpenSans;fill:#555;" text-anchor="middle" x="0" y="-6.000000">P1209L</text></g><line x1="1043.210526" x2="1043.210526" y1="34.000000" y2="99.500000" stroke="#BABDB6" stroke-width="2"/><a xlink:title="C1221S"><circle cx="1043.210526" cy="34.000000" r="4.000000" fill="#ff0000" /></a><g transform="translate(1043.210526,34.000000) rotate(-30)"><text style="font-size:10px;font-family:OpenSans;fill:#555;" text-anchor="middle" x="0" y="-6.000000">C1221S</text></g><line x1="1043.210526" x2="1043.210526" y1="46.500000" y2="99.500000" stroke="#BABDB6" stroke-width="2"/><a xlink:title="T1221T"><circle cx="1043.210526" cy="46.500000" r="4.000000" fill="#0000ff" /></a><g transform="translate(1043.210526,46.500000) rotate(-30)"><text style="font-size:10px;font-family:OpenSans;fill:#555;" text-anchor="middle" x="0" y="-6.000000">T1221T</text></g><line x1="1046.578947" x2="1046.578947" y1="59.000000" y2="99.500000" stroke="#BABDB6" stroke-width="2"/><a xlink:title="T1225T"><circle cx="1046.578947" cy="59.000000" r="4.000000" fill="#0000ff" /></a><g transform="translate(1046.578947,59.000000) rotate(-30)"><text style="font-size:10px;font-family:OpenSans;fill:#555;" text-anchor="middle" x="0" y="-6.000000">T1225T</text></g><line x1="1048.263158" x2="1048.263158" y1="59.000000" y2="99.500000" stroke="#BABDB6" stroke-width="2"/><a xlink:title="P1227L"><circle cx="1048.263158" cy="59.000000" r="4.000000" fill="#ff0000" /></a><g transform="translate(1048.263158,59.000000) rotate(-30)"><text style="font-size:10px;font-family:OpenSans;fill:#555;" text-anchor="middle" x="0" y="-6.000000">P1227L</text></g><line x1="1053.315789" x2="1053.315789" y1="71.500000" y2="99.500000" stroke="#BABDB6" stroke-width="2"/><a xlink:title="P1233L"><circle cx="1053.315789" cy="71.500000" r="4.000000" fill="#ff0000" /></a><g transform="translate(1053.315789,71.500000) rotate(-30)"><text style="font-size:10px;font-family:OpenSans;fill:#555;" text-anchor="middle" x="0" y="-6.000000">P1233L</text></g><line x1="1061.736842" x2="1061.736842" y1="59.000000" y2="99.500000" stroke="#BABDB6" stroke-width="2"/><a xlink:title="T1243T"><circle cx="1061.736842" cy="59.000000" r="4.000000" fill="#0000ff" /></a><g transform="translate(1061.736842,59.000000) rotate(-30)"><text style="font-size:10px;font-family:OpenSans;fill:#555;" text-anchor="middle" x="0" y="-6.000000">T1243T</text></g><line x1="1063.421053" x2="1063.421053" y1="59.000000" y2="99.500000" stroke="#BABDB6" stroke-width="2"/><a xlink:title="V1245L"><circle cx="1063.421053" cy="59.000000" r="4.000000" fill="#ff0000" /></a><g transform="translate(1063.421053,59.000000) rotate(-30)"><text style="font-size:10px;font-family:OpenSans;fill:#555;" text-anchor="middle" x="0" y="-6.000000">V1245L</text></g><line x1="1068.473684" x2="1068.473684" y1="71.500000" y2="99.500000" stroke="#BABDB6" stroke-width="2"/><a xlink:title="S1251I"><circle cx="1068.473684" cy="71.500000" r="4.000000" fill="#ff0000" /></a><g transform="translate(1068.473684,71.500000) rotate(-30)"><text style="font-size:10px;font-family:OpenSans;fill:#555;" text-anchor="middle" x="0" y="-6.000000">S1251I</text></g><line x1="1076.894737" x2="1076.894737" y1="71.500000" y2="99.500000" stroke="#BABDB6" stroke-width="2"/><a xlink:title="T1261T"><circle cx="1076.894737" cy="71.500000" r="4.000000" fill="#0000ff" /></a><g transform="translate(1076.894737,71.500000) rotate(-30)"><text style="font-size:10px;font-family:OpenSans;fill:#555;" text-anchor="middle" x="0" y="-6.000000">T1261T</text></g><line x1="1083.631579" x2="1083.631579" y1="46.500000" y2="99.500000" stroke="#BABDB6" stroke-width="2"/><a xlink:title="S1269I"><circle cx="1083.631579" cy="46.500000" r="4.000000" fill="#ff0000" /></a><g transform="translate(1083.631579,46.500000) rotate(-30)"><text style="font-size:10px;font-family:OpenSans;fill:#555;" text-anchor="middle" x="0" y="-6.000000">S1269I</text></g><line x1="1084.473684" x2="1084.473684" y1="59.000000" y2="99.500000" stroke="#BABDB6" stroke-width="2"/><a xlink:title="P1270L"><circle cx="1084.473684" cy="59.000000" r="4.000000" fill="#ff0000" /></a><g transform="translate(1084.473684,59.000000) rotate(-30)"><text style="font-size:10px;font-family:OpenSans;fill:#555;" text-anchor="middle" x="0" y="-6.000000">P1270L</text></g><line x1="1087.842105" x2="1087.842105" y1="71.500000" y2="99.500000" stroke="#BABDB6" stroke-width="2"/><a xlink:title="P1274L"><circle cx="1087.842105" cy="71.500000" r="4.000000" fill="#ff0000" /></a><g transform="translate(1087.842105,71.500000) rotate(-30)"><text style="font-size:10px;font-family:OpenSans;fill:#555;" text-anchor="middle" x="0" y="-6.000000">P1274L</text></g><line x1="1098.789474" x2="1098.789474" y1="46.500000" y2="99.500000" stroke="#BABDB6" stroke-width="2"/><a xlink:title="S1287I"><circle cx="1098.789474" cy="46.500000" r="4.000000" fill="#ff0000" /></a><g transform="translate(1098.789474,46.500000) rotate(-30)"><text style="font-size:10px;font-family:OpenSans;fill:#555;" text-anchor="middle" x="0" y="-6.000000">S1287I</text></g><line x1="1103.000000" x2="1103.000000" y1="46.500000" y2="99.500000" stroke="#BABDB6" stroke-width="2"/><a xlink:title="P1292L"><circle cx="1103.000000" cy="46.500000" r="4.000000" fill="#ff0000" /></a><g transform="translate(1103.000000,46.500000) rotate(-30)"><text style="font-size:10px;font-family:OpenSans;fill:#555;" text-anchor="middle" x="0" y="-6.000000">P1292L</text></g><line x1="1103.842105" x2="1103.842105" y1="59.000000" y2="99.500000" stroke="#BABDB6" stroke-width="2"/><a xlink:title="S1293I"><circle cx="1103.842105" cy="59.000000" r="4.000000" fill="#ff0000" /></a><g transform="translate(1103.842105,59.000000) rotate(-30)"><text style="font-size:10px;font-family:OpenSans;fill:#555;" text-anchor="middle" x="0" y="-6.000000">S1293I</text></g><line x1="1108.052632" x2="1108.052632" y1="59.000000" y2="99.500000" stroke="#BABDB6" stroke-width="2"/><a xlink:title="V1298L"><circle cx="1108.052632" cy="59.000000" r="4.000000" fill="#ff0000" /></a><g transform="translate(1108.052632,59.000000) rotate(-30)"><text style="font-size:10px;font-family:OpenSans;fill:#555;" text-anchor="middle" x="0" y="-6.000000">V1298L</text></g><line x1="1113.105263" x2="1113.105263" y1="59.000000" y2="99.500000" stroke="#BABDB6" stroke-width="2"/><a xlink:title="T1304T"><circle cx="1113.105263" cy="59.000000" r="4.000000" fill="#0000ff" /></a><g transform="translate(1113.105263,59.000000) rotate(-30)"><text style="font-size:10px;font-family:OpenSans;fill:#555;" text-anchor="middle" x="0" y="-6.000000">T1304T</text></g><line x1="1118.157895" x2="1118.157895" y1="71.500000" y2="99.500000" stroke="#BABDB6" stroke-width="2"/><a xlink:title="P1310L"><circle cx="1118.157895" cy="71.500000" r="4.000000" fill="#ff0000" /></a><g transform="translate(1118.157895,71.500000) rotate(-30)"><text style="font-size:10px;font-family:OpenSans;fill:#555;" text-anchor="middle" x="0" y="-6.000000">P1310L</text></g><line x1="1135.000000" x2="1135.000000" y1="59.000000" y2="99.500000" stroke="#BABDB6" stroke-width="2"/><a xlink:title="S1330I"><circle cx="1135.000000" cy="59.000000" r="4.000000" fill="#ff0000" /></a><g transform="translate(1135.000000,59.000000) rotate(-30)"><text style="font-size:10px;font-family:OpenSans;fill:#555;" text-anchor="middle" x="0" y="-6.000000">S1330I</text></g><line x1="1138.368421" x2="1138.368421" y1="71.500000" y2="99.500000" stroke="#BABDB6" stroke-width="2"/><a xlink:title="S1334I"><circle cx="1138.368421" cy="71.500000" r="4.000000" fill="#ff0000" /></a><g transform="translate(1138.368421,71.500000) rotate(-30)"><text style="font-size:10px;font-family:OpenSans;fill:#555;" text-anchor="middle" x="0" y="-6.000000">S1334I</text></g><line x1="1153.526316" x2="1153.526316" y1="46.500000" y2="99.500000" stroke="#BABDB6" stroke-width="2"/><a xlink:title="S1352I"><circle cx="1153.526316" cy="46.500000" r="4.000000" fill="#ff0000" /></a><g transform="translate(1153.526316,46.500000) rotate(-30)"><text style="font-size:10px;font-family:OpenSans;fill:#555;" text-anchor="middle" x="0" y="-6.000000">S1352I</text></g><line x1="1154.368421" x2="1154.368421" y1="59.000000" y2="99.500000" stroke="#BABDB6" stroke-width="2"/><a xlink:title="P1353L"><circle cx="1154.368421" cy="59.000000" r="4.000000" fill="#ff0000" /></a><g transform="translate(1154.368421,59.000000) rotate(-30)"><text style="font-size:10px;font-family:OpenSans;fill:#555;" text-anchor="middle" x="0" y="-6.000000">P1353L</text></g><line x1="1157.736842" x2="1157.736842" y1="71.500000" y2="99.500000" stroke="#BABDB6" stroke-width="2"/><a xlink:title="T1357T"><circle cx="1157.736842" cy="71.500000" r="4.000000" fill="#0000ff" /></a><g transform="translate(1157.736842,71.500000) rotate(-30)"><text style="font-size:10px;font-family:OpenSans;fill:#555;" text-anchor="middle" x="0" y="-6.000000">T1357T</text></g><line x1="1168.684211" x2="1168.684211" y1="71.500000" y2="99.500000" stroke="#BABDB6" stroke-width="2"/><a xlink:title="S1370I"><circle cx="1168.684211" cy="71.500000" r="4.000000" fill="#ff0000" /></a><g transform="translate(1168.684211,71.500000) rotate(-30)"><text style="font-size:10px;font-family:OpenSans;fill:#555;" text-anchor="middle" x="0" y="-6.000000">S1370I</text></g><line x1="1199.000000" x2="1199.000000" y1="59.000000" y2="99.500000" stroke="#BABDB6" stroke-width="2"/><a xlink:title="P1406L"><circle cx="1199.000000" cy="59.000000" r="4.000000" fill="#ff0000" /></a><g transform="translate(1199.000000,59.000000) rotate(-30)"><text style="font-size:10px;font-family:OpenSans;fill:#555;" text-anchor="middle" x="0" y="-6.000000">P1406L</text></g><line x1="1204.894737" x2="1204.894737" y1="71.500000" y2="99.500000" stroke="#BABDB6" stroke-width="2"/><a xlink:title="S1413I"><circle cx="1204.894737" cy="71.500000" r="4.000000" fill="#ff0000" /></a><g transform="translate(1204.894737,71.500000) rotate(-30)"><text style="font-size:10px;font-family:OpenSans;fill:#555;" text-anchor="middle" x="0" y="-6.000000">S1413I</text></g><line x1="1249.526316" x2="1249.526316" y1="71.500000" y2="99.500000" stroke="#BABDB6" stroke-width="2"/><a xlink:title="S1466I"><circle cx="1249.526316" cy="71.500000" r="4.000000" fill="#ff0000" /></a><g transform="translate(1249.526316,71.500000) rotate(-30)"><text style="font-size:10px;font-family:OpenSans;fill:#555;" text-anchor="middle" x="0" y="-6.000000">S1466I</text></g><a xlink:title=",  (1664aa)"><rect fill="#BABDB6" x="15.000000" y="99.500000" width="1401.263158" height="14.000000"/></a><g transform="translate(1316.052632,94.500000)"><a xlink:href="https://www.ebi.ac.uk/interpro/entry/pfam/PF00076" xlink:title="RNA recognition motif"><rect fill="#2DCF00" x="0" y="0" width="48.000000" height="24.000000" filter="url(#ds)"/><text style="font-size:12px;font-family:OpenSans;fill:#ffffff;" text-anchor="middle" x="24.000000" y="16.000000">RRM_1</text></a></g>
<g class="axis">
<line x1="15.000000" x2="1416.263158" y1="128.500000" y2="128.500000" stroke="#AAAAAA" /><line x1="15.000000" x2="15.000000" y1="128.500000" y2="133.500000" stroke="#AAAAAA" /><line x1="15.000000" x2="15.000000" y1="128.500000" y2="133.500000" stroke="#AAAAAA" /><text style="font-size:10px;font-family:OpenSans;fill:#000000;" text-anchor="middle" x="15.000000" y="143.500000">0</text><line x1="381.315789" x2="381.315789" y1="128.500000" y2="133.500000" stroke="#AAAAAA" /><text style="font-size:10px;font-family:OpenSans;fill:#000000;" text-anchor="middle" x="381.315789" y="143.500000">435</text><line x1="416.684211" x2="416.684211" y1="128.500000" y2="133.500000" stroke="#AAAAAA" /><text style="font-size:10px;font-family:OpenSans;fill:#000000;" text-anchor="middle" x="416.684211" y="143.500000">477</text><line x1="447.842105" x2="447.842105" y1="128.500000" y2="133.500000" stroke="#AAAAAA" /><text style="font-size:10px;font-family:OpenSans;fill:#000000;" text-anchor="middle" x="447.842105" y="143.500000">514</text><line x1="517.736842" x2="517.736842" y1="128.500000" y2="133.500000" stroke="#AAAAAA" /><text style="font-size:10px;font-family:OpenSans;fill:#000000;" text-anchor="middle" x="517.736842" y="143.500000">597</text><line x1="562.368421" x2="562.368421" y1="128.500000" y2="133.500000" stroke="#AAAAAA" /><text style="font-size:10px;font-family:OpenSans;fill:#000000;" text-anchor="middle" x="562.368421" y="143.500000">650</text><line x1="845.315789" x2="845.315789" y1="128.500000" y2="133.500000" stroke="#AAAAAA" /><text style="font-size:10px;font-family:OpenSans;fill:#000000;" text-anchor="middle" x="845.315789" y="143.500000">986</text><line x1="880.684211" x2="880.684211" y1="128.500000" y2="133.500000" stroke="#AAAAAA" /><text style="font-size:10px;font-family:OpenSans;fill:#000000;" text-anchor="middle" x="880.684211" y="143.500000">1028</text><line x1="911.842105" x2="911.842105" y1="128.500000" y2="133.500000" stroke="#AAAAAA" /><text style="font-size:10px;font-family:OpenSans;fill:#000000;" text-anchor="middle" x="911.842105" y="143.500000">1065</text><line x1="942.157895" x2="942.157895" y1="128.500000" y2="133.500000" stroke="#AAAAAA" /><text style="font-size:10px;font-family:OpenSans;fill:#000000;" text-anchor="middle" x="942.157895" y="143.500000">1101</text><line x1="962.368421" x2="962.368421" y1="128.500000" y2="133.500000" stroke="#AAAAAA" /><text style="font-size:10px;font-family:OpenSans;fill:#000000;" text-anchor="middle" x="962.368421" y="143.500000">1125</text><line x1="981.736842" x2="981.736842" y1="128.500000" y2="133.500000" stroke="#AAAAAA" /><text style="font-size:10px;font-family:OpenSans;fill:#000000;" text-anchor="middle" x="981.736842" y="143.500000">1148</text><line x1="1007.000000" x2="1007.000000" y1="128.500000" y2="133.500000" stroke="#AAAAAA" /><text style="font-size:10px;font-family:OpenSans;fill:#000000;" text-anchor="middle" x="1007.000000" y="143.500000">1178</text><line x1="1026.368421" x2="1026.368421" y1="128.500000" y2="133.500000" stroke="#AAAAAA" /><text style="font-size:10px;font-family:OpenSans;fill:#000000;" text-anchor="middle" x="1026.368421" y="143.500000">1201</text><line x1="1046.578947" x2="1046.578947" y1="128.500000" y2="133.500000" stroke="#AAAAAA" /><text style="font-size:10px;font-family:OpenSans;fill:#000000;" text-anchor="middle" x="1046.578947" y="143.500000">1225</text><line x1="1068.473684" x2="1068.473684" y1="128.500000" y2="133.500000" stroke="#AAAAAA" /><text style="font-size:10px;font-family:OpenSans;fill:#000000;" text-anchor="middle" x="1068.473684" y="143.500000">1251</text><line x1="1087.842105" x2="1087.842105" y1="128.500000" y2="133.500000" stroke="#AAAAAA" /><text style="font-size:10px;font-family:OpenSans;fill:#000000;" text-anchor="middle" x="1087.842105" y="143.500000">1274</text><line x1="1108.052632" x2="1108.052632" y1="128.500000" y2="133.500000" stroke="#AAAAAA" /><text style="font-size:10px;font-family:OpenSans;fill:#000000;" text-anchor="middle" x="1108.052632" y="143.500000">1298</text><line x1="1135.000000" x2="1135.000000" y1="128.500000" y2="133.500000" stroke="#AAAAAA" /><text style="font-size:10px;font-family:OpenSans;fill:#000000;" text-anchor="middle" x="1135.000000" y="143.500000">1330</text><line x1="1154.368421" x2="1154.368421" y1="128.500000" y2="133.500000" stroke="#AAAAAA" /><text style="font-size:10px;font-family:OpenSans;fill:#000000;" text-anchor="middle" x="1154.368421" y="143.500000">1353</text><line x1="1199.000000" x2="1199.000000" y1="128.500000" y2="133.500000" stroke="#AAAAAA" /><text style="font-size:10px;font-family:OpenSans;fill:#000000;" text-anchor="middle" x="1199.000000" y="143.500000">1406</text><line x1="1249.526316" x2="1249.526316" y1="128.500000" y2="133.500000" stroke="#AAAAAA" /><text style="font-size:10px;font-family:OpenSans;fill:#000000;" text-anchor="middle" x="1249.526316" y="143.500000">1466</text><line x1="1316.052632" x2="1316.052632" y1="128.500000" y2="133.500000" stroke="#AAAAAA" /><text style="font-size:10px;font-family:OpenSans;fill:#000000;" text-anchor="middle" x="1316.052632" y="143.500000">1545</text><line x1="1364.052632" x2="1364.052632" y1="128.500000" y2="133.500000" stroke="#AAAAAA" /><text style="font-size:10px;font-family:OpenSans;fill:#000000;" text-anchor="middle" x="1364.052632" y="143.500000">1602</text><line x1="1416.263158" x2="1416.263158" y1="128.500000" y2="133.500000" stroke="#AAAAAA" /><text style="font-size:10px;font-family:OpenSans;fill:#000000;" text-anchor="middle" x="1416.263158" y="143.500000">1664</text></g>
<rect fill="#2DCF00" x="4" y="157.500000" width="12" height="12" filter="url(#ds)"/><text style="font-size:12px;font-family:OpenSans;fill:#000000;" text-anchor="start" x="20" y="169.500000">RNA recognition motif</text></svg>
