<?xml version='1.0'?>
<svg xmlns="http://www.w3.org/2000/svg" xmlns:xlink="http://www.w3.org/1999/xlink" width="430.000000" height="171.900000">
<defs>
  <filter id="ds" x="0" y="0">
    <feOffset in="SourceAlpha" dx="2" dy="2" />
    <feComponentTransfer><feFuncA type="linear" slope="0.2"/></feComponentTransfer>
    <feGaussianBlur result="blurOut" stdDeviation="1" />
    <feBlend in="SourceGraphic" in2="blurOut" mode="normal" />
  </filter>
  <pattern id="disordered-hatch" patternUnits="userSpaceOnUse" width="4" height="4">
    <path d="M-1,1 l2,-2 M0,4 l4,-4 M3,5 l2,-2" stroke="#000000" opacity="0.3" />
  </pattern>
</defs>
<line x1="223.528198" x2="223.528198" y1="46.500000" y2="74.500000" stroke="#BABDB6" stroke-width="2"/><a xlink:title="D379H"><circle cx="223.528198" cy="46.500000" r="4.000000" fill="#ff0000" /></a><g transform="translate(223.528198,46.500000) rotate(-30)"><text style="font-size:10px;font-family:OpenSans;fill:#555;" text-anchor="middle" x="0" y="-6.000000">D379H</text></g><line x1="236.182944" x2="236.182944" y1="34.000000" y2="74.500000" stroke="#BABDB6" stroke-width="2"/><a xlink:title="D402H"><circle cx="236.182944" cy="34.000000" r="4.000000" fill="#ff0000" /></a><g transform="translate(236.182944,34.000000) rotate(-30)"><text style="font-size:10px;font-family:OpenSans;fill:#555;" text-anchor="middle" x="0" y="-6.000000">D402H</text></g><line x1="238.383769" x2="238.383769" y1="46.500000" y2="74.500000" stroke="#BABDB6" stroke-width="2"/><a xlink:title="D406H"><circle cx="238.383769" cy="46.500000" r="4.000000" fill="#ff0000" /></a><g transform="translate(238.383769,46.500000) rotate(-30)"><text style="font-size:10px;font-family:OpenSans;fill:#555;" text-anchor="middle" x="0" y="-6.000000">D406H</text></g><line x1="272.496561" x2="272.496561" y1="46.500000" y2="74.500000" stroke="#BABDB6" stroke-width="2"/><a xlink:title="D468H"><circle cx="272.496561" cy="46.500000" r="4.000000" fill="#ff0000" /></a><g transform="translate(272.496561,46.500000) rotate(-30)"><text style="font-size:10px;font-family:OpenSans;fill:#555;" text-anchor="middle" x="0" y="-6.000000">D468H</text></g><a xlink:title=",  (727aa)"><rect fill="#BABDB6" x="15.000000" y="74.500000" width="400.000000" height="14.000000"/></a><g transform="translate(74.422283,69.500000)"><a xlink:href="https://www.ebi.ac.uk/interpro/entry/pfam/PF02897" xlink:title="Prolyl oligopeptidase, N-terminal beta-propeller domain"><rect fill="#2DCF00" x="0" y="0" width="174.965612" height="24.000000" filter="url(#ds)"/><text style="font-size:12px;font-family:OpenSans;fill:#ffffff;" text-anchor="middle" x="87.482806" y="16.000000">Peptidase_S9_N</text></a></g>
<g transform="translate(284.601100,69.500000)"><a xlink:href="https://www.ebi.ac.uk/interpro/entry/pfam/PF00326" xlink:title="Prolyl oligopeptidase family"><rect fill="#FF5353" x="0" y="0" width="117.744154" height="24.000000" filter="url(#ds)"/><text style="font-size:12px;font-family:OpenSans;fill:#ffffff;" text-anchor="middle" x="58.872077" y="16.000000">Peptidase_S9</text></a></g>
<g class="axis">
<line x1="15.000000" x2="415.000000" y1="103.500000" y2="103.500000" stroke="#AAAAAA" /><line x1="15.000000" x2="15.000000" y1="103.500000" y2="108.500000" stroke="#AAAAAA" /><line x1="15.000000" x2="15.000000" y1="103.500000" y2="108.500000" stroke="#AAAAAA" /><text style="font-size:10px;font-family:OpenSans;fill:#000000;" text-anchor="middle" x="15.000000" y="118.500000">0</text><line x1="74.422283" x2="74.422283" y1="103.500000" y2="108.500000" stroke="#AAAAAA" /><text style="font-size:10px;font-family:OpenSans;fill:#000000;" text-anchor="middle" x="74.422283" y="118.500000">108</text><line x1="223.528198" x2="223.528198" y1="103.500000" y2="108.500000" stroke="#AAAAAA" /><text style="font-size:10px;font-family:OpenSans;fill:#000000;" text-anchor="middle" x="223.528198" y="118.500000">379</text><line x1="249.387895" x2="249.387895" y1="103.500000" y2="108.500000" stroke="#AAAAAA" /><text style="font-size:10px;font-family:OpenSans;fill:#000000;" text-anchor="middle" x="249.387895" y="118.500000">426</text><line x1="272.496561" x2="272.496561" y1="103.500000" y2="108.500000" stroke="#AAAAAA" /><text style="font-size:10px;font-family:OpenSans;fill:#000000;" text-anchor="middle" x="272.496561" y="118.500000">468</text><line x1="415.000000" x2="415.000000" y1="103.500000" y2="108.500000" stroke="#AAAAAA" /><text style="font-size:10px;font-family:OpenSans;fill:#000000;" text-anchor="middle" x="415.000000" y="118.500000">727</text></g>
<rect fill="#FF5353" x="4" y="132.500000" width="12" height="12" filter="url(#ds)"/><text style="font-size:12px;font-family:OpenSans;fill:#000000;" text-anchor="start" x="20" y="144.500000">Prolyl oligopeptidase family</text><rect fill="#2DCF00" x="4" y="146.500000" width="12" height="12" filter="url(#ds)"/><text style="font-size:12px;font-family:OpenSans;fill:#000000;" text-anchor="start" x="20" y="158.500000">Prolyl oligopeptidase, N-terminal beta-propeller domain</text></svg>
