<?xml version='1.0'?>
<svg xmlns="http://www.w3.org/2000/svg" xmlns:xlink="http://www.w3.org/1999/xlink" width="1318.000000" height="159.400000">
<defs>
  <filter id="ds" x="0" y="0">
    <feOffset in="SourceAlpha" dx="2" dy="2" />
    <feComponentTransfer><feFuncA type="linear" slope="0.2"/></feComponentTransfer>
    <feGaussianBlur result="blurOut" stdDeviation="1" />
    <feBlend in="SourceGraphic" in2="blurOut" mode="normal" />
  </filter>
  <pattern id="disordered-hatch" patternUnits="userSpaceOnUse" width="4" height="4">
    <path d="M-1,1 l2,-2 M0,4 l4,-4 M3,5 l2,-2" stroke="#000000" opacity="0.3" />
  </pattern>
</defs>
<line x1="78.000000" x2="78.000000" y1="34.000000" y2="62.000000" stroke="#BABDB6" stroke-width="2"/><a xlink:title="R27R"><circle cx="78.000000" cy="34.000000" r="4.000000" fill="#0000ff" /></a><g transform="translate(78.000000,34.000000) rotate(-30)"><text style="font-size:10px;font-family:OpenSans;fill:#555;" text-anchor="middle" x="0" y="-6.000000">R27R</text></g><line x1="155.000000" x2="155.000000" y1="34.000000" y2="62.000000" stroke="#BABDB6" stroke-width="2"/><a xlink:title="H60H"><circle cx="155.000000" cy="34.000000" r="4.000000" fill="#0000ff" /></a><g transform="translate(155.000000,34.000000) rotate(-30)"><text style="font-size:10px;font-family:OpenSans;fill:#555;" text-anchor="middle" x="0" y="-6.000000">H60H</text></g><line x1="288.000000" x2="288.000000" y1="34.000000" y2="62.000000" stroke="#BABDB6" stroke-width="2"/><a xlink:title="R117R"><circle cx="288.000000" cy="34.000000" r="4.000000" fill="#0000ff" /></a><g transform="translate(288.000000,34.000000) rotate(-30)"><text style="font-size:10px;font-family:OpenSans;fill:#555;" text-anchor="middle" x="0" y="-6.000000">R117R</text></g><line x1="365.000000" x2="365.000000" y1="34.000000" y2="62.000000" stroke="#BABDB6" stroke-width="2"/><a xlink:title="H150H"><circle cx="365.000000" cy="34.000000" r="4.000000" fill="#0000ff" /></a><g transform="translate(365.000000,34.000000) rotate(-30)"><text style="font-size:10px;font-family:OpenSans;fill:#555;" text-anchor="middle" x="0" y="-6.000000">H150H</text></g><line x1="894.666667" x2="894.666667" y1="34.000000" y2="62.000000" stroke="#BABDB6" stroke-width="2"/><a xlink:title="L377L"><circle cx="894.666667" cy="34.000000" r="4.000000" fill="#0000ff" /></a><g transform="translate(894.666667,34.000000) rotate(-30)"><text style="font-size:10px;font-family:OpenSans;fill:#555;" text-anchor="middle" x="0" y="-6.000000">L377L</text></g><line x1="1104.666667" x2="1104.666667" y1="34.000000" y2="62.000000" stroke="#BABDB6" stroke-width="2"/><a xlink:title="L467L"><circle cx="1104.666667" cy="34.000000" r="4.000000" fill="#0000ff" /></a><g transform="translate(1104.666667,34.000000) rotate(-30)"><text style="font-size:10px;font-family:OpenSans;fill:#555;" text-anchor="middle" x="0" y="-6.000000">L467L</text></g><a xlink:title=",  (552aa)"><rect fill="#BABDB6" x="15.000000" y="62.000000" width="1288.000000" height="14.000000"/></a><g transform="translate(52.333333,57.000000)"><a xlink:href="https://www.ebi.ac.uk/interpro/entry/pfam/PF00069" xlink:title="Protein kinase domain"><rect fill="#2DCF00" x="0" y="0" width="588.000000" height="24.000000" filter="url(#ds)"/><text style="font-size:12px;font-family:OpenSans;fill:#ffffff;" text-anchor="middle" x="294.000000" y="16.000000">Protein kinase domain</text></a></g>
<g transform="translate(687.000000,57.000000)"><a xlink:href="https://www.ebi.ac.uk/interpro/entry/pfam/PF21147" xlink:title="AMP-activated protein kinase, alpha subunit, autoinhibitory domain"><rect fill="#FF5353" x="0" y="0" width="105.000000" height="24.000000" filter="url(#ds)"/><text style="font-size:12px;font-family:OpenSans;fill:#ffffff;" text-anchor="middle" x="52.500000" y="16.000000">AMPK_alpha_AID</text></a></g>
<g transform="translate(950.666667,57.000000)"><a xlink:href="https://www.ebi.ac.uk/interpro/entry/pfam/PF16579" xlink:title="Adenylate sensor of SNF1-like protein kinase"><rect fill="#5B5BFF" x="0" y="0" width="184.333333" height="24.000000" filter="url(#ds)"/><text style="font-size:12px;font-family:OpenSans;fill:#ffffff;" text-anchor="middle" x="92.166667" y="16.000000">AdenylateSensor</text></a></g>
<g class="axis">
<line x1="15.000000" x2="1303.000000" y1="91.000000" y2="91.000000" stroke="#AAAAAA" /><line x1="15.000000" x2="15.000000" y1="91.000000" y2="96.000000" stroke="#AAAAAA" /><line x1="15.000000" x2="15.000000" y1="91.000000" y2="96.000000" stroke="#AAAAAA" /><text style="font-size:10px;font-family:OpenSans;fill:#000000;" text-anchor="middle" x="15.000000" y="106.000000">0</text><line x1="52.333333" x2="52.333333" y1="91.000000" y2="96.000000" stroke="#AAAAAA" /><text style="font-size:10px;font-family:OpenSans;fill:#000000;" text-anchor="middle" x="52.333333" y="106.000000">16</text><line x1="78.000000" x2="78.000000" y1="91.000000" y2="96.000000" stroke="#AAAAAA" /><text style="font-size:10px;font-family:OpenSans;fill:#000000;" text-anchor="middle" x="78.000000" y="106.000000">27</text><line x1="155.000000" x2="155.000000" y1="91.000000" y2="96.000000" stroke="#AAAAAA" /><text style="font-size:10px;font-family:OpenSans;fill:#000000;" text-anchor="middle" x="155.000000" y="106.000000">60</text><line x1="288.000000" x2="288.000000" y1="91.000000" y2="96.000000" stroke="#AAAAAA" /><text style="font-size:10px;font-family:OpenSans;fill:#000000;" text-anchor="middle" x="288.000000" y="106.000000">117</text><line x1="365.000000" x2="365.000000" y1="91.000000" y2="96.000000" stroke="#AAAAAA" /><text style="font-size:10px;font-family:OpenSans;fill:#000000;" text-anchor="middle" x="365.000000" y="106.000000">150</text><line x1="640.333333" x2="640.333333" y1="91.000000" y2="96.000000" stroke="#AAAAAA" /><text style="font-size:10px;font-family:OpenSans;fill:#000000;" text-anchor="middle" x="640.333333" y="106.000000">268</text><line x1="687.000000" x2="687.000000" y1="91.000000" y2="96.000000" stroke="#AAAAAA" /><text style="font-size:10px;font-family:OpenSans;fill:#000000;" text-anchor="middle" x="687.000000" y="106.000000">288</text><line x1="792.000000" x2="792.000000" y1="91.000000" y2="96.000000" stroke="#AAAAAA" /><text style="font-size:10px;font-family:OpenSans;fill:#000000;" text-anchor="middle" x="792.000000" y="106.000000">333</text><line x1="894.666667" x2="894.666667" y1="91.000000" y2="96.000000" stroke="#AAAAAA" /><text style="font-size:10px;font-family:OpenSans;fill:#000000;" text-anchor="middle" x="894.666667" y="106.000000">377</text><line x1="950.666667" x2="950.666667" y1="91.000000" y2="96.000000" stroke="#AAAAAA" /><text style="font-size:10px;font-family:OpenSans;fill:#000000;" text-anchor="middle" x="950.666667" y="106.000000">401</text><line x1="1104.666667" x2="1104.666667" y1="91.000000" y2="96.000000" stroke="#AAAAAA" /><text style="font-size:10px;font-family:OpenSans;fill:#000000;" text-anchor="middle" x="1104.666667" y="106.000000">467</text><line x1="1135.000000" x2="1135.000000" y1="91.000000" y2="96.000000" stroke="#AAAAAA" /><text style="font-size:10px;font-family:OpenSans;fill:#000000;" text-anchor="middle" x="1135.000000" y="106.000000">480</text><line x1="1303.000000" x2="1303.000000" y1="91.000000" y2="96.000000" stroke="#AAAAAA" /><text style="font-size:10px;font-family:OpenSans;fill:#000000;" text-anchor="middle" x="1303.000000" y="106.000000">552</text></g>
<rect fill="#FF5353" x="4" y="120.000000" width="12" height="12" filter="url(#ds)"/><text style="font-size:12px;font-family:OpenSans;fill:#000000;" text-anchor="start" x="20" y="132.000000">AMP-activated protein kinase, alpha subunit, autoinhibitory domain</text><rect fill="#5B5BFF" x="4" y="134.000000" width="12" height="12" filter="url(#ds)"/><text style="font-size:12px;font-family:OpenSans;fill:#000000;" text-anchor="start" x="20" y="146.000000">Adenylate sensor of SNF1-like protein kinase</text></svg>
