<?xml version='1.0'?>
<svg xmlns="http://www.w3.org/2000/svg" xmlns:xlink="http://www.w3.org/1999/xlink" width="430.000000" height="158.000000">
<defs>
  <filter id="ds" x="0" y="0">
    <feOffset in="SourceAlpha" dx="2" dy="2" />
    <feComponentTransfer><feFuncA type="linear" slope="0.2"/></feComponentTransfer>
    <feGaussianBlur result="blurOut" stdDeviation="1" />
    <feBlend in="SourceGraphic" in2="blurOut" mode="normal" />
  </filter>
  <pattern id="disordered-hatch" patternUnits="userSpaceOnUse" width="4" height="4">
    <path d="M-1,1 l2,-2 M0,4 l4,-4 M3,5 l2,-2" stroke="#000000" opacity="0.3" />
  </pattern>
</defs>
<line x1="18.236994" x2="18.236994" y1="59.000000" y2="87.000000" stroke="#BABDB6" stroke-width="2"/><a xlink:title="L7L"><circle cx="18.236994" cy="59.000000" r="4.000000" fill="#0000ff" /></a><g transform="translate(18.236994,59.000000) rotate(-30)"><text style="font-size:10px;font-family:OpenSans;fill:#555;" text-anchor="middle" x="0" y="-6.000000">L7L</text></g><line x1="50.144509" x2="50.144509" y1="59.000000" y2="87.000000" stroke="#BABDB6" stroke-width="2"/><a xlink:title="L76L"><circle cx="50.144509" cy="59.000000" r="4.000000" fill="#0000ff" /></a><g transform="translate(50.144509,59.000000) rotate(-30)"><text style="font-size:10px;font-family:OpenSans;fill:#555;" text-anchor="middle" x="0" y="-6.000000">L76L</text></g><line x1="83.439306" x2="83.439306" y1="46.500000" y2="87.000000" stroke="#BABDB6" stroke-width="2"/><a xlink:title="A148A"><circle cx="83.439306" cy="46.500000" r="4.000000" fill="#0000ff" /></a><g transform="translate(83.439306,46.500000) rotate(-30)"><text style="font-size:10px;font-family:OpenSans;fill:#555;" text-anchor="middle" x="0" y="-6.000000">A148A</text></g><line x1="87.601156" x2="87.601156" y1="59.000000" y2="87.000000" stroke="#BABDB6" stroke-width="2"/><a xlink:title="A157A"><circle cx="87.601156" cy="59.000000" r="4.000000" fill="#0000ff" /></a><g transform="translate(87.601156,59.000000) rotate(-30)"><text style="font-size:10px;font-family:OpenSans;fill:#555;" text-anchor="middle" x="0" y="-6.000000">A157A</text></g><line x1="100.086705" x2="100.086705" y1="46.500000" y2="87.000000" stroke="#BABDB6" stroke-width="2"/><a xlink:title="A184A"><circle cx="100.086705" cy="46.500000" r="4.000000" fill="#0000ff" /></a><g transform="translate(100.086705,46.500000) rotate(-30)"><text style="font-size:10px;font-family:OpenSans;fill:#555;" text-anchor="middle" x="0" y="-6.000000">A184A</text></g><line x1="104.248555" x2="104.248555" y1="59.000000" y2="87.000000" stroke="#BABDB6" stroke-width="2"/><a xlink:title="A193A"><circle cx="104.248555" cy="59.000000" r="4.000000" fill="#0000ff" /></a><g transform="translate(104.248555,59.000000) rotate(-30)"><text style="font-size:10px;font-family:OpenSans;fill:#555;" text-anchor="middle" x="0" y="-6.000000">A193A</text></g><line x1="113.034682" x2="113.034682" y1="34.000000" y2="87.000000" stroke="#BABDB6" stroke-width="2"/><a xlink:title="S212R"><circle cx="113.034682" cy="34.000000" r="4.000000" fill="#ff0000" /></a><g transform="translate(113.034682,34.000000) rotate(-30)"><text style="font-size:10px;font-family:OpenSans;fill:#555;" text-anchor="middle" x="0" y="-6.000000">S212R</text></g><line x1="115.346821" x2="115.346821" y1="34.000000" y2="87.000000" stroke="#BABDB6" stroke-width="2"/><a xlink:title="A217A"><circle cx="115.346821" cy="34.000000" r="4.000000" fill="#0000ff" /></a><g transform="translate(115.346821,34.000000) rotate(-30)"><text style="font-size:10px;font-family:OpenSans;fill:#555;" text-anchor="middle" x="0" y="-6.000000">A217A</text></g><line x1="117.196532" x2="117.196532" y1="46.500000" y2="87.000000" stroke="#BABDB6" stroke-width="2"/><a xlink:title="S221R"><circle cx="117.196532" cy="46.500000" r="4.000000" fill="#ff0000" /></a><g transform="translate(117.196532,46.500000) rotate(-30)"><text style="font-size:10px;font-family:OpenSans;fill:#555;" text-anchor="middle" x="0" y="-6.000000">S221R</text></g><line x1="119.508671" x2="119.508671" y1="59.000000" y2="87.000000" stroke="#BABDB6" stroke-width="2"/><a xlink:title="A226A"><circle cx="119.508671" cy="59.000000" r="4.000000" fill="#0000ff" /></a><g transform="translate(119.508671,59.000000) rotate(-30)"><text style="font-size:10px;font-family:OpenSans;fill:#555;" text-anchor="middle" x="0" y="-6.000000">A226A</text></g><line x1="131.994220" x2="131.994220" y1="46.500000" y2="87.000000" stroke="#BABDB6" stroke-width="2"/><a xlink:title="A253A"><circle cx="131.994220" cy="46.500000" r="4.000000" fill="#0000ff" /></a><g transform="translate(131.994220,46.500000) rotate(-30)"><text style="font-size:10px;font-family:OpenSans;fill:#555;" text-anchor="middle" x="0" y="-6.000000">A253A</text></g><line x1="136.156069" x2="136.156069" y1="59.000000" y2="87.000000" stroke="#BABDB6" stroke-width="2"/><a xlink:title="A262A"><circle cx="136.156069" cy="59.000000" r="4.000000" fill="#0000ff" /></a><g transform="translate(136.156069,59.000000) rotate(-30)"><text style="font-size:10px;font-family:OpenSans;fill:#555;" text-anchor="middle" x="0" y="-6.000000">A262A</text></g><line x1="144.942197" x2="144.942197" y1="46.500000" y2="87.000000" stroke="#BABDB6" stroke-width="2"/><a xlink:title="S281R"><circle cx="144.942197" cy="46.500000" r="4.000000" fill="#ff0000" /></a><g transform="translate(144.942197,46.500000) rotate(-30)"><text style="font-size:10px;font-family:OpenSans;fill:#555;" text-anchor="middle" x="0" y="-6.000000">S281R</text></g><line x1="149.104046" x2="149.104046" y1="59.000000" y2="87.000000" stroke="#BABDB6" stroke-width="2"/><a xlink:title="S290R"><circle cx="149.104046" cy="59.000000" r="4.000000" fill="#ff0000" /></a><g transform="translate(149.104046,59.000000) rotate(-30)"><text style="font-size:10px;font-family:OpenSans;fill:#555;" text-anchor="middle" x="0" y="-6.000000">S290R</text></g><line x1="333.612717" x2="333.612717" y1="46.500000" y2="87.000000" stroke="#BABDB6" stroke-width="2"/><a xlink:title="S689S"><circle cx="333.612717" cy="46.500000" r="4.000000" fill="#0000ff" /></a><g transform="translate(333.612717,46.500000) rotate(-30)"><text style="font-size:10px;font-family:OpenSans;fill:#555;" text-anchor="middle" x="0" y="-6.000000">S689S</text></g><line x1="337.774566" x2="337.774566" y1="46.500000" y2="87.000000" stroke="#BABDB6" stroke-width="2"/><a xlink:title="S698S"><circle cx="337.774566" cy="46.500000" r="4.000000" fill="#0000ff" /></a><g transform="translate(337.774566,46.500000) rotate(-30)"><text style="font-size:10px;font-family:OpenSans;fill:#555;" text-anchor="middle" x="0" y="-6.000000">S698S</text></g><line x1="343.323699" x2="343.323699" y1="46.500000" y2="87.000000" stroke="#BABDB6" stroke-width="2"/><a xlink:title="I710I"><circle cx="343.323699" cy="46.500000" r="4.000000" fill="#0000ff" /></a><g transform="translate(343.323699,46.500000) rotate(-30)"><text style="font-size:10px;font-family:OpenSans;fill:#555;" text-anchor="middle" x="0" y="-6.000000">I710I</text></g><line x1="347.485549" x2="347.485549" y1="59.000000" y2="87.000000" stroke="#BABDB6" stroke-width="2"/><a xlink:title="I719I"><circle cx="347.485549" cy="59.000000" r="4.000000" fill="#0000ff" /></a><g transform="translate(347.485549,59.000000) rotate(-30)"><text style="font-size:10px;font-family:OpenSans;fill:#555;" text-anchor="middle" x="0" y="-6.000000">I719I</text></g><line x1="365.520231" x2="365.520231" y1="46.500000" y2="87.000000" stroke="#BABDB6" stroke-width="2"/><a xlink:title="S758S"><circle cx="365.520231" cy="46.500000" r="4.000000" fill="#0000ff" /></a><g transform="translate(365.520231,46.500000) rotate(-30)"><text style="font-size:10px;font-family:OpenSans;fill:#555;" text-anchor="middle" x="0" y="-6.000000">S758S</text></g><line x1="369.682081" x2="369.682081" y1="46.500000" y2="87.000000" stroke="#BABDB6" stroke-width="2"/><a xlink:title="S767S"><circle cx="369.682081" cy="46.500000" r="4.000000" fill="#0000ff" /></a><g transform="translate(369.682081,46.500000) rotate(-30)"><text style="font-size:10px;font-family:OpenSans;fill:#555;" text-anchor="middle" x="0" y="-6.000000">S767S</text></g><line x1="375.231214" x2="375.231214" y1="46.500000" y2="87.000000" stroke="#BABDB6" stroke-width="2"/><a xlink:title="I779I"><circle cx="375.231214" cy="46.500000" r="4.000000" fill="#0000ff" /></a><g transform="translate(375.231214,46.500000) rotate(-30)"><text style="font-size:10px;font-family:OpenSans;fill:#555;" text-anchor="middle" x="0" y="-6.000000">I779I</text></g><line x1="379.393064" x2="379.393064" y1="59.000000" y2="87.000000" stroke="#BABDB6" stroke-width="2"/><a xlink:title="I788I"><circle cx="379.393064" cy="59.000000" r="4.000000" fill="#0000ff" /></a><g transform="translate(379.393064,59.000000) rotate(-30)"><text style="font-size:10px;font-family:OpenSans;fill:#555;" text-anchor="middle" x="0" y="-6.000000">I788I</text></g><a xlink:title=",  (865aa)"><rect fill="#BABDB6" x="15.000000" y="87.000000" width="400.000000" height="14.000000"/></a><g transform="translate(23.786127,82.000000)"><a xlink:href="https://www.ebi.ac.uk/interpro/entry/pfam/PF05478" xlink:title="Prominin"><rect fill="#2DCF00" x="0" y="0" width="370.404624" height="24.000000" filter="url(#ds)"/><text style="font-size:12px;font-family:OpenSans;fill:#ffffff;" text-anchor="middle" x="185.202312" y="16.000000">Prominin</text></a></g>
<g class="axis">
<line x1="15.000000" x2="415.000000" y1="116.000000" y2="116.000000" stroke="#AAAAAA" /><line x1="15.000000" x2="15.000000" y1="116.000000" y2="121.000000" stroke="#AAAAAA" /><line x1="18.236994" x2="18.236994" y1="116.000000" y2="121.000000" stroke="#AAAAAA" /><text style="font-size:10px;font-family:OpenSans;fill:#000000;" text-anchor="middle" x="18.236994" y="131.000000">7</text><line x1="50.144509" x2="50.144509" y1="116.000000" y2="121.000000" stroke="#AAAAAA" /><text style="font-size:10px;font-family:OpenSans;fill:#000000;" text-anchor="middle" x="50.144509" y="131.000000">76</text><line x1="83.439306" x2="83.439306" y1="116.000000" y2="121.000000" stroke="#AAAAAA" /><text style="font-size:10px;font-family:OpenSans;fill:#000000;" text-anchor="middle" x="83.439306" y="131.000000">148</text><line x1="104.248555" x2="104.248555" y1="116.000000" y2="121.000000" stroke="#AAAAAA" /><text style="font-size:10px;font-family:OpenSans;fill:#000000;" text-anchor="middle" x="104.248555" y="131.000000">193</text><line x1="131.994220" x2="131.994220" y1="116.000000" y2="121.000000" stroke="#AAAAAA" /><text style="font-size:10px;font-family:OpenSans;fill:#000000;" text-anchor="middle" x="131.994220" y="131.000000">253</text><line x1="333.612717" x2="333.612717" y1="116.000000" y2="121.000000" stroke="#AAAAAA" /><text style="font-size:10px;font-family:OpenSans;fill:#000000;" text-anchor="middle" x="333.612717" y="131.000000">689</text><line x1="365.520231" x2="365.520231" y1="116.000000" y2="121.000000" stroke="#AAAAAA" /><text style="font-size:10px;font-family:OpenSans;fill:#000000;" text-anchor="middle" x="365.520231" y="131.000000">758</text><line x1="394.190751" x2="394.190751" y1="116.000000" y2="121.000000" stroke="#AAAAAA" /><text style="font-size:10px;font-family:OpenSans;fill:#000000;" text-anchor="middle" x="394.190751" y="131.000000">820</text><line x1="415.000000" x2="415.000000" y1="116.000000" y2="121.000000" stroke="#AAAAAA" /><text style="font-size:10px;font-family:OpenSans;fill:#000000;" text-anchor="middle" x="415.000000" y="131.000000">865</text></g>
</svg>
