<?xml version='1.0'?>
<svg xmlns="http://www.w3.org/2000/svg" xmlns:xlink="http://www.w3.org/1999/xlink" width="1179.720000" height="171.200000">
<defs>
  <filter id="ds" x="0" y="0">
    <feOffset in="SourceAlpha" dx="2" dy="2" />
    <feComponentTransfer><feFuncA type="linear" slope="0.2"/></feComponentTransfer>
    <feGaussianBlur result="blurOut" stdDeviation="1" />
    <feBlend in="SourceGraphic" in2="blurOut" mode="normal" />
  </filter>
  <pattern id="disordered-hatch" patternUnits="userSpaceOnUse" width="4" height="4">
    <path d="M-1,1 l2,-2 M0,4 l4,-4 M3,5 l2,-2" stroke="#000000" opacity="0.3" />
  </pattern>
</defs>
<line x1="414.960000" x2="414.960000" y1="59.000000" y2="87.000000" stroke="#BABDB6" stroke-width="2"/><a xlink:title="E303E"><circle cx="414.960000" cy="59.000000" r="4.000000" fill="#0000ff" /></a><g transform="translate(414.960000,59.000000) rotate(-30)"><text style="font-size:10px;font-family:OpenSans;fill:#555;" text-anchor="middle" x="0" y="-6.000000">E303E</text></g><line x1="450.600000" x2="450.600000" y1="59.000000" y2="87.000000" stroke="#BABDB6" stroke-width="2"/><a xlink:title="E330E"><circle cx="450.600000" cy="59.000000" r="4.000000" fill="#0000ff" /></a><g transform="translate(450.600000,59.000000) rotate(-30)"><text style="font-size:10px;font-family:OpenSans;fill:#555;" text-anchor="middle" x="0" y="-6.000000">E330E</text></g><line x1="462.480000" x2="462.480000" y1="46.500000" y2="87.000000" stroke="#BABDB6" stroke-width="2"/><a xlink:title="E339E"><circle cx="462.480000" cy="46.500000" r="4.000000" fill="#0000ff" /></a><g transform="translate(462.480000,46.500000) rotate(-30)"><text style="font-size:10px;font-family:OpenSans;fill:#555;" text-anchor="middle" x="0" y="-6.000000">E339E</text></g><line x1="463.800000" x2="463.800000" y1="59.000000" y2="87.000000" stroke="#BABDB6" stroke-width="2"/><a xlink:title="E340E"><circle cx="463.800000" cy="59.000000" r="4.000000" fill="#0000ff" /></a><g transform="translate(463.800000,59.000000) rotate(-30)"><text style="font-size:10px;font-family:OpenSans;fill:#555;" text-anchor="middle" x="0" y="-6.000000">E340E</text></g><line x1="486.240000" x2="486.240000" y1="59.000000" y2="87.000000" stroke="#BABDB6" stroke-width="2"/><a xlink:title="E357E"><circle cx="486.240000" cy="59.000000" r="4.000000" fill="#0000ff" /></a><g transform="translate(486.240000,59.000000) rotate(-30)"><text style="font-size:10px;font-family:OpenSans;fill:#555;" text-anchor="middle" x="0" y="-6.000000">E357E</text></g><line x1="499.440000" x2="499.440000" y1="59.000000" y2="87.000000" stroke="#BABDB6" stroke-width="2"/><a xlink:title="E367E"><circle cx="499.440000" cy="59.000000" r="4.000000" fill="#0000ff" /></a><g transform="translate(499.440000,59.000000) rotate(-30)"><text style="font-size:10px;font-family:OpenSans;fill:#555;" text-anchor="middle" x="0" y="-6.000000">E367E</text></g><line x1="510.000000" x2="510.000000" y1="59.000000" y2="87.000000" stroke="#BABDB6" stroke-width="2"/><a xlink:title="E375E"><circle cx="510.000000" cy="59.000000" r="4.000000" fill="#0000ff" /></a><g transform="translate(510.000000,59.000000) rotate(-30)"><text style="font-size:10px;font-family:OpenSans;fill:#555;" text-anchor="middle" x="0" y="-6.000000">E375E</text></g><line x1="581.280000" x2="581.280000" y1="59.000000" y2="87.000000" stroke="#BABDB6" stroke-width="2"/><a xlink:title="E429E"><circle cx="581.280000" cy="59.000000" r="4.000000" fill="#0000ff" /></a><g transform="translate(581.280000,59.000000) rotate(-30)"><text style="font-size:10px;font-family:OpenSans;fill:#555;" text-anchor="middle" x="0" y="-6.000000">E429E</text></g><line x1="840.000000" x2="840.000000" y1="59.000000" y2="87.000000" stroke="#BABDB6" stroke-width="2"/><a xlink:title="L625L"><circle cx="840.000000" cy="59.000000" r="4.000000" fill="#0000ff" /></a><g transform="translate(840.000000,59.000000) rotate(-30)"><text style="font-size:10px;font-family:OpenSans;fill:#555;" text-anchor="middle" x="0" y="-6.000000">L625L</text></g><line x1="912.600000" x2="912.600000" y1="46.500000" y2="87.000000" stroke="#BABDB6" stroke-width="2"/><a xlink:title="L680L"><circle cx="912.600000" cy="46.500000" r="4.000000" fill="#0000ff" /></a><g transform="translate(912.600000,46.500000) rotate(-30)"><text style="font-size:10px;font-family:OpenSans;fill:#555;" text-anchor="middle" x="0" y="-6.000000">L680L</text></g><line x1="913.920000" x2="913.920000" y1="59.000000" y2="87.000000" stroke="#BABDB6" stroke-width="2"/><a xlink:title="L681L"><circle cx="913.920000" cy="59.000000" r="4.000000" fill="#0000ff" /></a><g transform="translate(913.920000,59.000000) rotate(-30)"><text style="font-size:10px;font-family:OpenSans;fill:#555;" text-anchor="middle" x="0" y="-6.000000">L681L</text></g><line x1="948.240000" x2="948.240000" y1="34.000000" y2="87.000000" stroke="#BABDB6" stroke-width="2"/><a xlink:title="L707L"><circle cx="948.240000" cy="34.000000" r="4.000000" fill="#0000ff" /></a><g transform="translate(948.240000,34.000000) rotate(-30)"><text style="font-size:10px;font-family:OpenSans;fill:#555;" text-anchor="middle" x="0" y="-6.000000">L707L</text></g><line x1="949.560000" x2="949.560000" y1="46.500000" y2="87.000000" stroke="#BABDB6" stroke-width="2"/><a xlink:title="L708L"><circle cx="949.560000" cy="46.500000" r="4.000000" fill="#0000ff" /></a><g transform="translate(949.560000,46.500000) rotate(-30)"><text style="font-size:10px;font-family:OpenSans;fill:#555;" text-anchor="middle" x="0" y="-6.000000">L708L</text></g><line x1="952.200000" x2="952.200000" y1="59.000000" y2="87.000000" stroke="#BABDB6" stroke-width="2"/><a xlink:title="L710L"><circle cx="952.200000" cy="59.000000" r="4.000000" fill="#0000ff" /></a><g transform="translate(952.200000,59.000000) rotate(-30)"><text style="font-size:10px;font-family:OpenSans;fill:#555;" text-anchor="middle" x="0" y="-6.000000">L710L</text></g><line x1="960.120000" x2="960.120000" y1="34.000000" y2="87.000000" stroke="#BABDB6" stroke-width="2"/><a xlink:title="L716L"><circle cx="960.120000" cy="34.000000" r="4.000000" fill="#0000ff" /></a><g transform="translate(960.120000,34.000000) rotate(-30)"><text style="font-size:10px;font-family:OpenSans;fill:#555;" text-anchor="middle" x="0" y="-6.000000">L716L</text></g><line x1="961.440000" x2="961.440000" y1="46.500000" y2="87.000000" stroke="#BABDB6" stroke-width="2"/><a xlink:title="L717L"><circle cx="961.440000" cy="46.500000" r="4.000000" fill="#0000ff" /></a><g transform="translate(961.440000,46.500000) rotate(-30)"><text style="font-size:10px;font-family:OpenSans;fill:#555;" text-anchor="middle" x="0" y="-6.000000">L717L</text></g><line x1="962.760000" x2="962.760000" y1="59.000000" y2="87.000000" stroke="#BABDB6" stroke-width="2"/><a xlink:title="L718L"><circle cx="962.760000" cy="59.000000" r="4.000000" fill="#0000ff" /></a><g transform="translate(962.760000,59.000000) rotate(-30)"><text style="font-size:10px;font-family:OpenSans;fill:#555;" text-anchor="middle" x="0" y="-6.000000">L718L</text></g><line x1="983.880000" x2="983.880000" y1="59.000000" y2="87.000000" stroke="#BABDB6" stroke-width="2"/><a xlink:title="L734L"><circle cx="983.880000" cy="59.000000" r="4.000000" fill="#0000ff" /></a><g transform="translate(983.880000,59.000000) rotate(-30)"><text style="font-size:10px;font-family:OpenSans;fill:#555;" text-anchor="middle" x="0" y="-6.000000">L734L</text></g><line x1="997.080000" x2="997.080000" y1="46.500000" y2="87.000000" stroke="#BABDB6" stroke-width="2"/><a xlink:title="L744L"><circle cx="997.080000" cy="46.500000" r="4.000000" fill="#0000ff" /></a><g transform="translate(997.080000,46.500000) rotate(-30)"><text style="font-size:10px;font-family:OpenSans;fill:#555;" text-anchor="middle" x="0" y="-6.000000">L744L</text></g><line x1="998.400000" x2="998.400000" y1="59.000000" y2="87.000000" stroke="#BABDB6" stroke-width="2"/><a xlink:title="L745L"><circle cx="998.400000" cy="59.000000" r="4.000000" fill="#0000ff" /></a><g transform="translate(998.400000,59.000000) rotate(-30)"><text style="font-size:10px;font-family:OpenSans;fill:#555;" text-anchor="middle" x="0" y="-6.000000">L745L</text></g><line x1="1007.640000" x2="1007.640000" y1="46.500000" y2="87.000000" stroke="#BABDB6" stroke-width="2"/><a xlink:title="L752L"><circle cx="1007.640000" cy="46.500000" r="4.000000" fill="#0000ff" /></a><g transform="translate(1007.640000,46.500000) rotate(-30)"><text style="font-size:10px;font-family:OpenSans;fill:#555;" text-anchor="middle" x="0" y="-6.000000">L752L</text></g><line x1="1008.960000" x2="1008.960000" y1="59.000000" y2="87.000000" stroke="#BABDB6" stroke-width="2"/><a xlink:title="L753L"><circle cx="1008.960000" cy="59.000000" r="4.000000" fill="#0000ff" /></a><g transform="translate(1008.960000,59.000000) rotate(-30)"><text style="font-size:10px;font-family:OpenSans;fill:#555;" text-anchor="middle" x="0" y="-6.000000">L753L</text></g><line x1="1078.920000" x2="1078.920000" y1="46.500000" y2="87.000000" stroke="#BABDB6" stroke-width="2"/><a xlink:title="L806L"><circle cx="1078.920000" cy="46.500000" r="4.000000" fill="#0000ff" /></a><g transform="translate(1078.920000,46.500000) rotate(-30)"><text style="font-size:10px;font-family:OpenSans;fill:#555;" text-anchor="middle" x="0" y="-6.000000">L806L</text></g><line x1="1080.240000" x2="1080.240000" y1="59.000000" y2="87.000000" stroke="#BABDB6" stroke-width="2"/><a xlink:title="L807L"><circle cx="1080.240000" cy="59.000000" r="4.000000" fill="#0000ff" /></a><g transform="translate(1080.240000,59.000000) rotate(-30)"><text style="font-size:10px;font-family:OpenSans;fill:#555;" text-anchor="middle" x="0" y="-6.000000">L807L</text></g><a xlink:title=",  (871aa)"><rect fill="#BABDB6" x="15.000000" y="87.000000" width="1149.720000" height="14.000000"/></a><g transform="translate(144.360000,82.000000)"><a xlink:href="https://www.ebi.ac.uk/interpro/entry/pfam/PF00397" xlink:title="WW domain"><rect fill="#2DCF00" x="0" y="0" width="33.000000" height="24.000000" filter="url(#ds)"/><text style="font-size:12px;font-family:OpenSans;fill:#ffffff;" text-anchor="middle" x="16.500000" y="16.000000">WW</text></a></g>
<g transform="translate(195.840000,82.000000)"><a xlink:href="https://www.ebi.ac.uk/interpro/entry/pfam/PF00397" xlink:title="WW domain"><rect fill="#FF5353" x="0" y="0" width="35.640000" height="24.000000" filter="url(#ds)"/><text style="font-size:12px;font-family:OpenSans;fill:#ffffff;" text-anchor="middle" x="17.820000" y="16.000000">WW</text></a></g>
<g transform="translate(381.960000,82.000000)"><a xlink:href="https://www.ebi.ac.uk/interpro/entry/pfam/PF01846" xlink:title="FF domain"><rect fill="#5B5BFF" x="0" y="0" width="64.680000" height="24.000000" filter="url(#ds)"/><text style="font-size:12px;font-family:OpenSans;fill:#ffffff;" text-anchor="middle" x="32.340000" y="16.000000">FF domain</text></a></g>
<g transform="translate(664.440000,82.000000)"><a xlink:href="https://www.ebi.ac.uk/interpro/entry/pfam/PF01846" xlink:title="FF domain"><rect fill="#EBD61D" x="0" y="0" width="72.600000" height="24.000000" filter="url(#ds)"/><text style="font-size:12px;font-family:OpenSans;fill:#ffffff;" text-anchor="middle" x="36.300000" y="16.000000">FF domain</text></a></g>
<g transform="translate(845.280000,82.000000)"><a xlink:href="https://www.ebi.ac.uk/interpro/entry/pfam/PF01846" xlink:title="FF domain"><rect fill="#BA21E0" x="0" y="0" width="66.000000" height="24.000000" filter="url(#ds)"/><text style="font-size:12px;font-family:OpenSans;fill:#ffffff;" text-anchor="middle" x="33.000000" y="16.000000">FF domain</text></a></g>
<g class="axis">
<line x1="15.000000" x2="1164.720000" y1="116.000000" y2="116.000000" stroke="#AAAAAA" /><line x1="15.000000" x2="15.000000" y1="116.000000" y2="121.000000" stroke="#AAAAAA" /><line x1="15.000000" x2="15.000000" y1="116.000000" y2="121.000000" stroke="#AAAAAA" /><text style="font-size:10px;font-family:OpenSans;fill:#000000;" text-anchor="middle" x="15.000000" y="131.000000">0</text><line x1="144.360000" x2="144.360000" y1="116.000000" y2="121.000000" stroke="#AAAAAA" /><text style="font-size:10px;font-family:OpenSans;fill:#000000;" text-anchor="middle" x="144.360000" y="131.000000">98</text><line x1="177.360000" x2="177.360000" y1="116.000000" y2="121.000000" stroke="#AAAAAA" /><text style="font-size:10px;font-family:OpenSans;fill:#000000;" text-anchor="middle" x="177.360000" y="131.000000">123</text><line x1="231.480000" x2="231.480000" y1="116.000000" y2="121.000000" stroke="#AAAAAA" /><text style="font-size:10px;font-family:OpenSans;fill:#000000;" text-anchor="middle" x="231.480000" y="131.000000">164</text><line x1="381.960000" x2="381.960000" y1="116.000000" y2="121.000000" stroke="#AAAAAA" /><text style="font-size:10px;font-family:OpenSans;fill:#000000;" text-anchor="middle" x="381.960000" y="131.000000">278</text><line x1="414.960000" x2="414.960000" y1="116.000000" y2="121.000000" stroke="#AAAAAA" /><text style="font-size:10px;font-family:OpenSans;fill:#000000;" text-anchor="middle" x="414.960000" y="131.000000">303</text><line x1="450.600000" x2="450.600000" y1="116.000000" y2="121.000000" stroke="#AAAAAA" /><text style="font-size:10px;font-family:OpenSans;fill:#000000;" text-anchor="middle" x="450.600000" y="131.000000">330</text><line x1="486.240000" x2="486.240000" y1="116.000000" y2="121.000000" stroke="#AAAAAA" /><text style="font-size:10px;font-family:OpenSans;fill:#000000;" text-anchor="middle" x="486.240000" y="131.000000">357</text><line x1="510.000000" x2="510.000000" y1="116.000000" y2="121.000000" stroke="#AAAAAA" /><text style="font-size:10px;font-family:OpenSans;fill:#000000;" text-anchor="middle" x="510.000000" y="131.000000">375</text><line x1="581.280000" x2="581.280000" y1="116.000000" y2="121.000000" stroke="#AAAAAA" /><text style="font-size:10px;font-family:OpenSans;fill:#000000;" text-anchor="middle" x="581.280000" y="131.000000">429</text><line x1="664.440000" x2="664.440000" y1="116.000000" y2="121.000000" stroke="#AAAAAA" /><text style="font-size:10px;font-family:OpenSans;fill:#000000;" text-anchor="middle" x="664.440000" y="131.000000">492</text><line x1="737.040000" x2="737.040000" y1="116.000000" y2="121.000000" stroke="#AAAAAA" /><text style="font-size:10px;font-family:OpenSans;fill:#000000;" text-anchor="middle" x="737.040000" y="131.000000">547</text><line x1="840.000000" x2="840.000000" y1="116.000000" y2="121.000000" stroke="#AAAAAA" /><text style="font-size:10px;font-family:OpenSans;fill:#000000;" text-anchor="middle" x="840.000000" y="131.000000">625</text><line x1="912.600000" x2="912.600000" y1="116.000000" y2="121.000000" stroke="#AAAAAA" /><text style="font-size:10px;font-family:OpenSans;fill:#000000;" text-anchor="middle" x="912.600000" y="131.000000">680</text><line x1="948.240000" x2="948.240000" y1="116.000000" y2="121.000000" stroke="#AAAAAA" /><text style="font-size:10px;font-family:OpenSans;fill:#000000;" text-anchor="middle" x="948.240000" y="131.000000">707</text><line x1="983.880000" x2="983.880000" y1="116.000000" y2="121.000000" stroke="#AAAAAA" /><text style="font-size:10px;font-family:OpenSans;fill:#000000;" text-anchor="middle" x="983.880000" y="131.000000">734</text><line x1="1007.640000" x2="1007.640000" y1="116.000000" y2="121.000000" stroke="#AAAAAA" /><text style="font-size:10px;font-family:OpenSans;fill:#000000;" text-anchor="middle" x="1007.640000" y="131.000000">752</text><line x1="1078.920000" x2="1078.920000" y1="116.000000" y2="121.000000" stroke="#AAAAAA" /><text style="font-size:10px;font-family:OpenSans;fill:#000000;" text-anchor="middle" x="1078.920000" y="131.000000">806</text><line x1="1164.720000" x2="1164.720000" y1="116.000000" y2="121.000000" stroke="#AAAAAA" /><text style="font-size:10px;font-family:OpenSans;fill:#000000;" text-anchor="middle" x="1164.720000" y="131.000000">871</text></g>
<rect fill="#FF5353" x="4" y="145.000000" width="12" height="12" filter="url(#ds)"/><text style="font-size:12px;font-family:OpenSans;fill:#000000;" text-anchor="start" x="20" y="157.000000">WW domain</text></svg>
