<?xml version='1.0'?>
<svg xmlns="http://www.w3.org/2000/svg" xmlns:xlink="http://www.w3.org/1999/xlink" width="673.668449" height="158.700000">
<defs>
  <filter id="ds" x="0" y="0">
    <feOffset in="SourceAlpha" dx="2" dy="2" />
    <feComponentTransfer><feFuncA type="linear" slope="0.2"/></feComponentTransfer>
    <feGaussianBlur result="blurOut" stdDeviation="1" />
    <feBlend in="SourceGraphic" in2="blurOut" mode="normal" />
  </filter>
  <pattern id="disordered-hatch" patternUnits="userSpaceOnUse" width="4" height="4">
    <path d="M-1,1 l2,-2 M0,4 l4,-4 M3,5 l2,-2" stroke="#000000" opacity="0.3" />
  </pattern>
</defs>
<line x1="203.278075" x2="203.278075" y1="46.500000" y2="74.500000" stroke="#BABDB6" stroke-width="2"/><a xlink:title="P652P"><circle cx="203.278075" cy="46.500000" r="4.000000" fill="#0000ff" /></a><g transform="translate(203.278075,46.500000) rotate(-30)"><text style="font-size:10px;font-family:OpenSans;fill:#555;" text-anchor="middle" x="0" y="-6.000000">P652P</text></g><line x1="261.898396" x2="261.898396" y1="46.500000" y2="74.500000" stroke="#BABDB6" stroke-width="2"/><a xlink:title="G855R"><circle cx="261.898396" cy="46.500000" r="4.000000" fill="#ff0000" /></a><g transform="translate(261.898396,46.500000) rotate(-30)"><text style="font-size:10px;font-family:OpenSans;fill:#555;" text-anchor="middle" x="0" y="-6.000000">G855R</text></g><line x1="336.112299" x2="336.112299" y1="46.500000" y2="74.500000" stroke="#BABDB6" stroke-width="2"/><a xlink:title="L1112P"><circle cx="336.112299" cy="46.500000" r="4.000000" fill="#ff0000" /></a><g transform="translate(336.112299,46.500000) rotate(-30)"><text style="font-size:10px;font-family:OpenSans;fill:#555;" text-anchor="middle" x="0" y="-6.000000">L1112P</text></g><line x1="441.224599" x2="441.224599" y1="46.500000" y2="74.500000" stroke="#BABDB6" stroke-width="2"/><a xlink:title="E1476D"><circle cx="441.224599" cy="46.500000" r="4.000000" fill="#ff0000" /></a><g transform="translate(441.224599,46.500000) rotate(-30)"><text style="font-size:10px;font-family:OpenSans;fill:#555;" text-anchor="middle" x="0" y="-6.000000">E1476D</text></g><line x1="462.304813" x2="462.304813" y1="46.500000" y2="74.500000" stroke="#BABDB6" stroke-width="2"/><a xlink:title="G1549R"><circle cx="462.304813" cy="46.500000" r="4.000000" fill="#ff0000" /></a><g transform="translate(462.304813,46.500000) rotate(-30)"><text style="font-size:10px;font-family:OpenSans;fill:#555;" text-anchor="middle" x="0" y="-6.000000">G1549R</text></g><line x1="641.342246" x2="641.342246" y1="46.500000" y2="74.500000" stroke="#BABDB6" stroke-width="2"/><a xlink:title="E2169D"><circle cx="641.342246" cy="46.500000" r="4.000000" fill="#ff0000" /></a><g transform="translate(641.342246,46.500000) rotate(-30)"><text style="font-size:10px;font-family:OpenSans;fill:#555;" text-anchor="middle" x="0" y="-6.000000">E2169D</text></g><line x1="649.427807" x2="649.427807" y1="34.000000" y2="74.500000" stroke="#BABDB6" stroke-width="2"/><a xlink:title="A2197P"><circle cx="649.427807" cy="34.000000" r="4.000000" fill="#ff0000" /></a><g transform="translate(649.427807,34.000000) rotate(-30)"><text style="font-size:10px;font-family:OpenSans;fill:#555;" text-anchor="middle" x="0" y="-6.000000">A2197P</text></g><line x1="649.716578" x2="649.716578" y1="46.500000" y2="74.500000" stroke="#BABDB6" stroke-width="2"/><a xlink:title="A2198P"><circle cx="649.716578" cy="46.500000" r="4.000000" fill="#ff0000" /></a><g transform="translate(649.716578,46.500000) rotate(-30)"><text style="font-size:10px;font-family:OpenSans;fill:#555;" text-anchor="middle" x="0" y="-6.000000">A2198P</text></g><a xlink:title=",  (2229aa)"><rect fill="#BABDB6" x="15.000000" y="74.500000" width="643.668449" height="14.000000"/></a><g transform="translate(15.288770,69.500000)"><a xlink:href="https://www.ebi.ac.uk/interpro/entry/pfam/PF07001" xlink:title="BAT2 N-terminus"><rect fill="#2DCF00" x="0" y="0" width="54.000000" height="24.000000" filter="url(#ds)"/><text style="font-size:12px;font-family:OpenSans;fill:#ffffff;" text-anchor="middle" x="27.000000" y="16.000000">BAT2_N</text></a></g>
<g class="axis">
<line x1="15.000000" x2="658.668449" y1="103.500000" y2="103.500000" stroke="#AAAAAA" /><line x1="15.000000" x2="15.000000" y1="103.500000" y2="108.500000" stroke="#AAAAAA" /><line x1="15.288770" x2="15.288770" y1="103.500000" y2="108.500000" stroke="#AAAAAA" /><text style="font-size:10px;font-family:OpenSans;fill:#000000;" text-anchor="middle" x="15.288770" y="118.500000">1</text><line x1="69.288770" x2="69.288770" y1="103.500000" y2="108.500000" stroke="#AAAAAA" /><text style="font-size:10px;font-family:OpenSans;fill:#000000;" text-anchor="middle" x="69.288770" y="118.500000">188</text><line x1="203.278075" x2="203.278075" y1="103.500000" y2="108.500000" stroke="#AAAAAA" /><text style="font-size:10px;font-family:OpenSans;fill:#000000;" text-anchor="middle" x="203.278075" y="118.500000">652</text><line x1="261.898396" x2="261.898396" y1="103.500000" y2="108.500000" stroke="#AAAAAA" /><text style="font-size:10px;font-family:OpenSans;fill:#000000;" text-anchor="middle" x="261.898396" y="118.500000">855</text><line x1="336.112299" x2="336.112299" y1="103.500000" y2="108.500000" stroke="#AAAAAA" /><text style="font-size:10px;font-family:OpenSans;fill:#000000;" text-anchor="middle" x="336.112299" y="118.500000">1112</text><line x1="441.224599" x2="441.224599" y1="103.500000" y2="108.500000" stroke="#AAAAAA" /><text style="font-size:10px;font-family:OpenSans;fill:#000000;" text-anchor="middle" x="441.224599" y="118.500000">1476</text><line x1="462.304813" x2="462.304813" y1="103.500000" y2="108.500000" stroke="#AAAAAA" /><text style="font-size:10px;font-family:OpenSans;fill:#000000;" text-anchor="middle" x="462.304813" y="118.500000">1549</text><line x1="658.668449" x2="658.668449" y1="103.500000" y2="108.500000" stroke="#AAAAAA" /><text style="font-size:10px;font-family:OpenSans;fill:#000000;" text-anchor="middle" x="658.668449" y="118.500000">2229</text></g>
<rect fill="#2DCF00" x="4" y="132.500000" width="12" height="12" filter="url(#ds)"/><text style="font-size:12px;font-family:OpenSans;fill:#000000;" text-anchor="start" x="20" y="144.500000">BAT2 N-terminus</text></svg>
