<?xml version='1.0'?>
<svg xmlns="http://www.w3.org/2000/svg" xmlns:xlink="http://www.w3.org/1999/xlink" width="461.808511" height="159.400000">
<defs>
  <filter id="ds" x="0" y="0">
    <feOffset in="SourceAlpha" dx="2" dy="2" />
    <feComponentTransfer><feFuncA type="linear" slope="0.2"/></feComponentTransfer>
    <feGaussianBlur result="blurOut" stdDeviation="1" />
    <feBlend in="SourceGraphic" in2="blurOut" mode="normal" />
  </filter>
  <pattern id="disordered-hatch" patternUnits="userSpaceOnUse" width="4" height="4">
    <path d="M-1,1 l2,-2 M0,4 l4,-4 M3,5 l2,-2" stroke="#000000" opacity="0.3" />
  </pattern>
</defs>
<line x1="76.276596" x2="76.276596" y1="34.000000" y2="62.000000" stroke="#BABDB6" stroke-width="2"/><a xlink:title="R64W"><circle cx="76.276596" cy="34.000000" r="4.000000" fill="#ff0000" /></a><g transform="translate(76.276596,34.000000) rotate(-30)"><text style="font-size:10px;font-family:OpenSans;fill:#555;" text-anchor="middle" x="0" y="-6.000000">R64W</text></g><line x1="120.319149" x2="120.319149" y1="34.000000" y2="62.000000" stroke="#BABDB6" stroke-width="2"/><a xlink:title="P110P"><circle cx="120.319149" cy="34.000000" r="4.000000" fill="#0000ff" /></a><g transform="translate(120.319149,34.000000) rotate(-30)"><text style="font-size:10px;font-family:OpenSans;fill:#555;" text-anchor="middle" x="0" y="-6.000000">P110P</text></g><line x1="133.723404" x2="133.723404" y1="34.000000" y2="62.000000" stroke="#BABDB6" stroke-width="2"/><a xlink:title="A124V"><circle cx="133.723404" cy="34.000000" r="4.000000" fill="#ff0000" /></a><g transform="translate(133.723404,34.000000) rotate(-30)"><text style="font-size:10px;font-family:OpenSans;fill:#555;" text-anchor="middle" x="0" y="-6.000000">A124V</text></g><line x1="172.978723" x2="172.978723" y1="34.000000" y2="62.000000" stroke="#BABDB6" stroke-width="2"/><a xlink:title="R165W"><circle cx="172.978723" cy="34.000000" r="4.000000" fill="#ff0000" /></a><g transform="translate(172.978723,34.000000) rotate(-30)"><text style="font-size:10px;font-family:OpenSans;fill:#555;" text-anchor="middle" x="0" y="-6.000000">R165W</text></g><line x1="257.234043" x2="257.234043" y1="34.000000" y2="62.000000" stroke="#BABDB6" stroke-width="2"/><a xlink:title="T253T"><circle cx="257.234043" cy="34.000000" r="4.000000" fill="#0000ff" /></a><g transform="translate(257.234043,34.000000) rotate(-30)"><text style="font-size:10px;font-family:OpenSans;fill:#555;" text-anchor="middle" x="0" y="-6.000000">T253T</text></g><line x1="353.936170" x2="353.936170" y1="34.000000" y2="62.000000" stroke="#BABDB6" stroke-width="2"/><a xlink:title="T354T"><circle cx="353.936170" cy="34.000000" r="4.000000" fill="#0000ff" /></a><g transform="translate(353.936170,34.000000) rotate(-30)"><text style="font-size:10px;font-family:OpenSans;fill:#555;" text-anchor="middle" x="0" y="-6.000000">T354T</text></g><a xlink:title=",  (451aa)"><rect fill="#BABDB6" x="15.000000" y="62.000000" width="431.808511" height="14.000000"/></a><g transform="translate(30.319149,57.000000)"><a xlink:href="https://www.ebi.ac.uk/interpro/entry/pfam/PF00018" xlink:title="SH3 domain"><rect fill="#2DCF00" x="0" y="0" width="45.000000" height="24.000000" filter="url(#ds)"/><text style="font-size:12px;font-family:OpenSans;fill:#ffffff;" text-anchor="middle" x="22.500000" y="16.000000">SH3_1</text></a></g>
<g transform="translate(89.680851,57.000000)"><a xlink:href="https://www.ebi.ac.uk/interpro/entry/pfam/PF00017" xlink:title="SH2 domain"><rect fill="#FF5353" x="0" y="0" width="73.723404" height="24.000000" filter="url(#ds)"/><text style="font-size:12px;font-family:OpenSans;fill:#ffffff;" text-anchor="middle" x="36.861702" y="16.000000">SH2 domain</text></a></g>
<g transform="translate(198.829787,57.000000)"><a xlink:href="https://www.ebi.ac.uk/interpro/entry/pfam/PF07714" xlink:title="Protein tyrosine and serine/threonine kinase"><rect fill="#5B5BFF" x="0" y="0" width="238.404255" height="24.000000" filter="url(#ds)"/><text style="font-size:12px;font-family:OpenSans;fill:#ffffff;" text-anchor="middle" x="119.202128" y="16.000000">PK_Tyr_Ser-Thr</text></a></g>
<g class="axis">
<line x1="15.000000" x2="446.808511" y1="91.000000" y2="91.000000" stroke="#AAAAAA" /><line x1="15.000000" x2="15.000000" y1="91.000000" y2="96.000000" stroke="#AAAAAA" /><line x1="30.319149" x2="30.319149" y1="91.000000" y2="96.000000" stroke="#AAAAAA" /><text style="font-size:10px;font-family:OpenSans;fill:#000000;" text-anchor="middle" x="30.319149" y="106.000000">16</text><line x1="76.276596" x2="76.276596" y1="91.000000" y2="96.000000" stroke="#AAAAAA" /><text style="font-size:10px;font-family:OpenSans;fill:#000000;" text-anchor="middle" x="76.276596" y="106.000000">64</text><line x1="120.319149" x2="120.319149" y1="91.000000" y2="96.000000" stroke="#AAAAAA" /><text style="font-size:10px;font-family:OpenSans;fill:#000000;" text-anchor="middle" x="120.319149" y="106.000000">110</text><line x1="172.978723" x2="172.978723" y1="91.000000" y2="96.000000" stroke="#AAAAAA" /><text style="font-size:10px;font-family:OpenSans;fill:#000000;" text-anchor="middle" x="172.978723" y="106.000000">165</text><line x1="198.829787" x2="198.829787" y1="91.000000" y2="96.000000" stroke="#AAAAAA" /><text style="font-size:10px;font-family:OpenSans;fill:#000000;" text-anchor="middle" x="198.829787" y="106.000000">192</text><line x1="257.234043" x2="257.234043" y1="91.000000" y2="96.000000" stroke="#AAAAAA" /><text style="font-size:10px;font-family:OpenSans;fill:#000000;" text-anchor="middle" x="257.234043" y="106.000000">253</text><line x1="353.936170" x2="353.936170" y1="91.000000" y2="96.000000" stroke="#AAAAAA" /><text style="font-size:10px;font-family:OpenSans;fill:#000000;" text-anchor="middle" x="353.936170" y="106.000000">354</text><line x1="446.808511" x2="446.808511" y1="91.000000" y2="96.000000" stroke="#AAAAAA" /><text style="font-size:10px;font-family:OpenSans;fill:#000000;" text-anchor="middle" x="446.808511" y="106.000000">451</text></g>
<rect fill="#2DCF00" x="4" y="120.000000" width="12" height="12" filter="url(#ds)"/><text style="font-size:12px;font-family:OpenSans;fill:#000000;" text-anchor="start" x="20" y="132.000000">SH3 domain</text><rect fill="#5B5BFF" x="4" y="134.000000" width="12" height="12" filter="url(#ds)"/><text style="font-size:12px;font-family:OpenSans;fill:#000000;" text-anchor="start" x="20" y="146.000000">Protein tyrosine and serine/threonine kinase</text></svg>
