<?xml version='1.0'?>
<svg xmlns="http://www.w3.org/2000/svg" xmlns:xlink="http://www.w3.org/1999/xlink" width="629.739130" height="185.800000">
<defs>
  <filter id="ds" x="0" y="0">
    <feOffset in="SourceAlpha" dx="2" dy="2" />
    <feComponentTransfer><feFuncA type="linear" slope="0.2"/></feComponentTransfer>
    <feGaussianBlur result="blurOut" stdDeviation="1" />
    <feBlend in="SourceGraphic" in2="blurOut" mode="normal" />
  </filter>
  <pattern id="disordered-hatch" patternUnits="userSpaceOnUse" width="4" height="4">
    <path d="M-1,1 l2,-2 M0,4 l4,-4 M3,5 l2,-2" stroke="#000000" opacity="0.3" />
  </pattern>
</defs>
<line x1="16.652174" x2="16.652174" y1="34.000000" y2="62.000000" stroke="#BABDB6" stroke-width="2"/><a xlink:title="L4L"><circle cx="16.652174" cy="34.000000" r="4.000000" fill="#0000ff" /></a><g transform="translate(16.652174,34.000000) rotate(-30)"><text style="font-size:10px;font-family:OpenSans;fill:#555;" text-anchor="middle" x="0" y="-6.000000">L4L</text></g><line x1="55.065217" x2="55.065217" y1="34.000000" y2="62.000000" stroke="#BABDB6" stroke-width="2"/><a xlink:title="I97I"><circle cx="55.065217" cy="34.000000" r="4.000000" fill="#0000ff" /></a><g transform="translate(55.065217,34.000000) rotate(-30)"><text style="font-size:10px;font-family:OpenSans;fill:#555;" text-anchor="middle" x="0" y="-6.000000">I97I</text></g><line x1="65.391304" x2="65.391304" y1="34.000000" y2="62.000000" stroke="#BABDB6" stroke-width="2"/><a xlink:title="I122I"><circle cx="65.391304" cy="34.000000" r="4.000000" fill="#0000ff" /></a><g transform="translate(65.391304,34.000000) rotate(-30)"><text style="font-size:10px;font-family:OpenSans;fill:#555;" text-anchor="middle" x="0" y="-6.000000">I122I</text></g><line x1="348.739130" x2="348.739130" y1="34.000000" y2="62.000000" stroke="#BABDB6" stroke-width="2"/><a xlink:title="R808*"><circle cx="348.739130" cy="34.000000" r="4.000000" fill="#0000ff" /></a><g transform="translate(348.739130,34.000000) rotate(-30)"><text style="font-size:10px;font-family:OpenSans;fill:#555;" text-anchor="middle" x="0" y="-6.000000">R808*</text></g><line x1="359.065217" x2="359.065217" y1="34.000000" y2="62.000000" stroke="#BABDB6" stroke-width="2"/><a xlink:title="R833*"><circle cx="359.065217" cy="34.000000" r="4.000000" fill="#0000ff" /></a><g transform="translate(359.065217,34.000000) rotate(-30)"><text style="font-size:10px;font-family:OpenSans;fill:#555;" text-anchor="middle" x="0" y="-6.000000">R833*</text></g><line x1="369.391304" x2="369.391304" y1="34.000000" y2="62.000000" stroke="#BABDB6" stroke-width="2"/><a xlink:title="R858*"><circle cx="369.391304" cy="34.000000" r="4.000000" fill="#0000ff" /></a><g transform="translate(369.391304,34.000000) rotate(-30)"><text style="font-size:10px;font-family:OpenSans;fill:#555;" text-anchor="middle" x="0" y="-6.000000">R858*</text></g><a xlink:title=",  (1452aa)"><rect fill="#BABDB6" x="15.000000" y="62.000000" width="599.739130" height="14.000000"/></a><g transform="translate(26.152174,57.000000)"><a xlink:href="https://www.ebi.ac.uk/interpro/entry/pfam/PF00629" xlink:title="MAM domain, meprin/A5/mu"><rect fill="#2DCF00" x="0" y="0" width="64.021739" height="24.000000" filter="url(#ds)"/><text style="font-size:12px;font-family:OpenSans;fill:#ffffff;" text-anchor="middle" x="32.010870" y="16.000000">MAM</text></a></g>
<g transform="translate(94.304348,57.000000)"><a xlink:href="https://www.ebi.ac.uk/interpro/entry/pfam/PF00047" xlink:title="Immunoglobulin domain"><rect fill="#FF5353" x="0" y="0" width="31.804348" height="24.000000" filter="url(#ds)"/><text style="font-size:12px;font-family:OpenSans;fill:#ffffff;" text-anchor="middle" x="15.902174" y="16.000000">ig</text></a></g>
<g transform="translate(220.695652,57.000000)"><a xlink:href="https://www.ebi.ac.uk/interpro/entry/pfam/PF00041" xlink:title="Fibronectin type III domain"><rect fill="#5B5BFF" x="0" y="0" width="32.630435" height="24.000000" filter="url(#ds)"/><text style="font-size:12px;font-family:OpenSans;fill:#ffffff;" text-anchor="middle" x="16.315217" y="16.000000">fn3</text></a></g>
<g transform="translate(396.239130,57.000000)"><a xlink:href="https://www.ebi.ac.uk/interpro/entry/pfam/PF00102" xlink:title="Protein-tyrosine phosphatase"><rect fill="#EBD61D" x="0" y="0" width="95.000000" height="24.000000" filter="url(#ds)"/><text style="font-size:12px;font-family:OpenSans;fill:#ffffff;" text-anchor="middle" x="47.500000" y="16.000000">Y_phosphatase</text></a></g>
<g transform="translate(516.021739,57.000000)"><a xlink:href="https://www.ebi.ac.uk/interpro/entry/pfam/PF00102" xlink:title="Protein-tyrosine phosphatase"><rect fill="#BA21E0" x="0" y="0" width="96.652174" height="24.000000" filter="url(#ds)"/><text style="font-size:12px;font-family:OpenSans;fill:#ffffff;" text-anchor="middle" x="48.326087" y="16.000000">Y_phosphatase</text></a></g>
<g class="axis">
<line x1="15.000000" x2="614.739130" y1="91.000000" y2="91.000000" stroke="#AAAAAA" /><line x1="15.000000" x2="15.000000" y1="91.000000" y2="96.000000" stroke="#AAAAAA" /><line x1="16.652174" x2="16.652174" y1="91.000000" y2="96.000000" stroke="#AAAAAA" /><text style="font-size:10px;font-family:OpenSans;fill:#000000;" text-anchor="middle" x="16.652174" y="106.000000">4</text><line x1="55.065217" x2="55.065217" y1="91.000000" y2="96.000000" stroke="#AAAAAA" /><text style="font-size:10px;font-family:OpenSans;fill:#000000;" text-anchor="middle" x="55.065217" y="106.000000">97</text><line x1="90.173913" x2="90.173913" y1="91.000000" y2="96.000000" stroke="#AAAAAA" /><text style="font-size:10px;font-family:OpenSans;fill:#000000;" text-anchor="middle" x="90.173913" y="106.000000">182</text><line x1="126.108696" x2="126.108696" y1="91.000000" y2="96.000000" stroke="#AAAAAA" /><text style="font-size:10px;font-family:OpenSans;fill:#000000;" text-anchor="middle" x="126.108696" y="106.000000">269</text><line x1="220.695652" x2="220.695652" y1="91.000000" y2="96.000000" stroke="#AAAAAA" /><text style="font-size:10px;font-family:OpenSans;fill:#000000;" text-anchor="middle" x="220.695652" y="106.000000">498</text><line x1="253.326087" x2="253.326087" y1="91.000000" y2="96.000000" stroke="#AAAAAA" /><text style="font-size:10px;font-family:OpenSans;fill:#000000;" text-anchor="middle" x="253.326087" y="106.000000">577</text><line x1="348.739130" x2="348.739130" y1="91.000000" y2="96.000000" stroke="#AAAAAA" /><text style="font-size:10px;font-family:OpenSans;fill:#000000;" text-anchor="middle" x="348.739130" y="106.000000">808</text><line x1="369.391304" x2="369.391304" y1="91.000000" y2="96.000000" stroke="#AAAAAA" /><text style="font-size:10px;font-family:OpenSans;fill:#000000;" text-anchor="middle" x="369.391304" y="106.000000">858</text><line x1="396.239130" x2="396.239130" y1="91.000000" y2="96.000000" stroke="#AAAAAA" /><text style="font-size:10px;font-family:OpenSans;fill:#000000;" text-anchor="middle" x="396.239130" y="106.000000">923</text><line x1="491.239130" x2="491.239130" y1="91.000000" y2="96.000000" stroke="#AAAAAA" /><text style="font-size:10px;font-family:OpenSans;fill:#000000;" text-anchor="middle" x="491.239130" y="106.000000">1153</text><line x1="516.021739" x2="516.021739" y1="91.000000" y2="96.000000" stroke="#AAAAAA" /><text style="font-size:10px;font-family:OpenSans;fill:#000000;" text-anchor="middle" x="516.021739" y="106.000000">1213</text><line x1="614.739130" x2="614.739130" y1="91.000000" y2="96.000000" stroke="#AAAAAA" /><text style="font-size:10px;font-family:OpenSans;fill:#000000;" text-anchor="middle" x="614.739130" y="106.000000">1452</text></g>
<rect fill="#2DCF00" x="4" y="120.000000" width="12" height="12" filter="url(#ds)"/><text style="font-size:12px;font-family:OpenSans;fill:#000000;" text-anchor="start" x="20" y="132.000000">MAM domain, meprin/A5/mu</text><rect fill="#FF5353" x="4" y="134.000000" width="12" height="12" filter="url(#ds)"/><text style="font-size:12px;font-family:OpenSans;fill:#000000;" text-anchor="start" x="20" y="146.000000">Immunoglobulin domain</text><rect fill="#5B5BFF" x="4" y="148.000000" width="12" height="12" filter="url(#ds)"/><text style="font-size:12px;font-family:OpenSans;fill:#000000;" text-anchor="start" x="20" y="160.000000">Fibronectin type III domain</text><rect fill="#BA21E0" x="4" y="162.000000" width="12" height="12" filter="url(#ds)"/><text style="font-size:12px;font-family:OpenSans;fill:#000000;" text-anchor="start" x="20" y="174.000000">Protein-tyrosine phosphatase</text></svg>
