<?xml version='1.0'?>
<svg xmlns="http://www.w3.org/2000/svg" xmlns:xlink="http://www.w3.org/1999/xlink" width="993.217391" height="171.900000">
<defs>
  <filter id="ds" x="0" y="0">
    <feOffset in="SourceAlpha" dx="2" dy="2" />
    <feComponentTransfer><feFuncA type="linear" slope="0.2"/></feComponentTransfer>
    <feGaussianBlur result="blurOut" stdDeviation="1" />
    <feBlend in="SourceGraphic" in2="blurOut" mode="normal" />
  </filter>
  <pattern id="disordered-hatch" patternUnits="userSpaceOnUse" width="4" height="4">
    <path d="M-1,1 l2,-2 M0,4 l4,-4 M3,5 l2,-2" stroke="#000000" opacity="0.3" />
  </pattern>
</defs>
<line x1="22.021739" x2="22.021739" y1="46.500000" y2="74.500000" stroke="#BABDB6" stroke-width="2"/><a xlink:title="T17I"><circle cx="22.021739" cy="46.500000" r="4.000000" fill="#ff0000" /></a><g transform="translate(22.021739,46.500000) rotate(-30)"><text style="font-size:10px;font-family:OpenSans;fill:#555;" text-anchor="middle" x="0" y="-6.000000">T17I</text></g><line x1="28.630435" x2="28.630435" y1="46.500000" y2="74.500000" stroke="#BABDB6" stroke-width="2"/><a xlink:title="T33I"><circle cx="28.630435" cy="46.500000" r="4.000000" fill="#ff0000" /></a><g transform="translate(28.630435,46.500000) rotate(-30)"><text style="font-size:10px;font-family:OpenSans;fill:#555;" text-anchor="middle" x="0" y="-6.000000">T33I</text></g><line x1="193.021739" x2="193.021739" y1="46.500000" y2="74.500000" stroke="#BABDB6" stroke-width="2"/><a xlink:title="R431Q"><circle cx="193.021739" cy="46.500000" r="4.000000" fill="#ff0000" /></a><g transform="translate(193.021739,46.500000) rotate(-30)"><text style="font-size:10px;font-family:OpenSans;fill:#555;" text-anchor="middle" x="0" y="-6.000000">R431Q</text></g><line x1="307.847826" x2="307.847826" y1="46.500000" y2="74.500000" stroke="#BABDB6" stroke-width="2"/><a xlink:title="L709L"><circle cx="307.847826" cy="46.500000" r="4.000000" fill="#0000ff" /></a><g transform="translate(307.847826,46.500000) rotate(-30)"><text style="font-size:10px;font-family:OpenSans;fill:#555;" text-anchor="middle" x="0" y="-6.000000">L709L</text></g><line x1="353.282609" x2="353.282609" y1="34.000000" y2="74.500000" stroke="#BABDB6" stroke-width="2"/><a xlink:title="V819G"><circle cx="353.282609" cy="34.000000" r="4.000000" fill="#ff0000" /></a><g transform="translate(353.282609,34.000000) rotate(-30)"><text style="font-size:10px;font-family:OpenSans;fill:#555;" text-anchor="middle" x="0" y="-6.000000">V819G</text></g><line x1="357.826087" x2="357.826087" y1="46.500000" y2="74.500000" stroke="#BABDB6" stroke-width="2"/><a xlink:title="V830A"><circle cx="357.826087" cy="46.500000" r="4.000000" fill="#ff0000" /></a><g transform="translate(357.826087,46.500000) rotate(-30)"><text style="font-size:10px;font-family:OpenSans;fill:#555;" text-anchor="middle" x="0" y="-6.000000">V830A</text></g><line x1="433.826087" x2="433.826087" y1="46.500000" y2="74.500000" stroke="#BABDB6" stroke-width="2"/><a xlink:title="I1014V"><circle cx="433.826087" cy="46.500000" r="4.000000" fill="#ff0000" /></a><g transform="translate(433.826087,46.500000) rotate(-30)"><text style="font-size:10px;font-family:OpenSans;fill:#555;" text-anchor="middle" x="0" y="-6.000000">I1014V</text></g><line x1="460.260870" x2="460.260870" y1="46.500000" y2="74.500000" stroke="#BABDB6" stroke-width="2"/><a xlink:title="A1078P"><circle cx="460.260870" cy="46.500000" r="4.000000" fill="#ff0000" /></a><g transform="translate(460.260870,46.500000) rotate(-30)"><text style="font-size:10px;font-family:OpenSans;fill:#555;" text-anchor="middle" x="0" y="-6.000000">A1078P</text></g><line x1="528.000000" x2="528.000000" y1="46.500000" y2="74.500000" stroke="#BABDB6" stroke-width="2"/><a xlink:title="P1242P"><circle cx="528.000000" cy="46.500000" r="4.000000" fill="#0000ff" /></a><g transform="translate(528.000000,46.500000) rotate(-30)"><text style="font-size:10px;font-family:OpenSans;fill:#555;" text-anchor="middle" x="0" y="-6.000000">P1242P</text></g><line x1="928.239130" x2="928.239130" y1="46.500000" y2="74.500000" stroke="#BABDB6" stroke-width="2"/><a xlink:title="I2211V"><circle cx="928.239130" cy="46.500000" r="4.000000" fill="#ff0000" /></a><g transform="translate(928.239130,46.500000) rotate(-30)"><text style="font-size:10px;font-family:OpenSans;fill:#555;" text-anchor="middle" x="0" y="-6.000000">I2211V</text></g><a xlink:title=",  (2332aa)"><rect fill="#BABDB6" x="15.000000" y="74.500000" width="963.217391" height="14.000000"/></a><g transform="translate(19.130435,69.500000)"><a xlink:href="https://www.ebi.ac.uk/interpro/entry/pfam/PF00041" xlink:title="Fibronectin type III domain"><rect fill="#2DCF00" x="0" y="0" width="33.869565" height="24.000000" filter="url(#ds)"/><text style="font-size:12px;font-family:OpenSans;fill:#ffffff;" text-anchor="middle" x="16.934783" y="16.000000">fn3</text></a></g>
<g transform="translate(57.130435,69.500000)"><a xlink:href="https://www.ebi.ac.uk/interpro/entry/pfam/PF00041" xlink:title="Fibronectin type III domain"><rect fill="#FF5353" x="0" y="0" width="35.521739" height="24.000000" filter="url(#ds)"/><text style="font-size:12px;font-family:OpenSans;fill:#ffffff;" text-anchor="middle" x="17.760870" y="16.000000">fn3</text></a></g>
<g transform="translate(159.565217,69.500000)"><a xlink:href="https://www.ebi.ac.uk/interpro/entry/pfam/PF00041" xlink:title="Fibronectin type III domain"><rect fill="#5B5BFF" x="0" y="0" width="33.869565" height="24.000000" filter="url(#ds)"/><text style="font-size:12px;font-family:OpenSans;fill:#ffffff;" text-anchor="middle" x="16.934783" y="16.000000">fn3</text></a></g>
<g transform="translate(270.673913,69.500000)"><a xlink:href="https://www.ebi.ac.uk/interpro/entry/pfam/PF00041" xlink:title="Fibronectin type III domain"><rect fill="#EBD61D" x="0" y="0" width="30.978261" height="24.000000" filter="url(#ds)"/><text style="font-size:12px;font-family:OpenSans;fill:#ffffff;" text-anchor="middle" x="15.489130" y="16.000000">fn3</text></a></g>
<g transform="translate(307.847826,69.500000)"><a xlink:href="https://www.ebi.ac.uk/interpro/entry/pfam/PF00041" xlink:title="Fibronectin type III domain"><rect fill="#BA21E0" x="0" y="0" width="33.043478" height="24.000000" filter="url(#ds)"/><text style="font-size:12px;font-family:OpenSans;fill:#ffffff;" text-anchor="middle" x="16.521739" y="16.000000">fn3</text></a></g>
<g transform="translate(346.673913,69.500000)"><a xlink:href="https://www.ebi.ac.uk/interpro/entry/pfam/PF00041" xlink:title="Fibronectin type III domain"><rect fill="#FF9C42" x="0" y="0" width="35.108696" height="24.000000" filter="url(#ds)"/><text style="font-size:12px;font-family:OpenSans;fill:#ffffff;" text-anchor="middle" x="17.554348" y="16.000000">fn3</text></a></g>
<g transform="translate(385.913043,69.500000)"><a xlink:href="https://www.ebi.ac.uk/interpro/entry/pfam/PF00041" xlink:title="Fibronectin type III domain"><rect fill="#FF7DFF" x="0" y="0" width="35.108696" height="24.000000" filter="url(#ds)"/><text style="font-size:12px;font-family:OpenSans;fill:#ffffff;" text-anchor="middle" x="17.554348" y="16.000000">fn3</text></a></g>
<g transform="translate(424.739130,69.500000)"><a xlink:href="https://www.ebi.ac.uk/interpro/entry/pfam/PF00041" xlink:title="Fibronectin type III domain"><rect fill="#B9264F" x="0" y="0" width="38.826087" height="24.000000" filter="url(#ds)"/><text style="font-size:12px;font-family:OpenSans;fill:#ffffff;" text-anchor="middle" x="19.413043" y="16.000000">fn3</text></a></g>
<g transform="translate(510.652174,69.500000)"><a xlink:href="https://www.ebi.ac.uk/interpro/entry/pfam/PF00041" xlink:title="Fibronectin type III domain"><rect fill="#BABA21" x="0" y="0" width="30.152174" height="24.000000" filter="url(#ds)"/><text style="font-size:12px;font-family:OpenSans;fill:#ffffff;" text-anchor="middle" x="15.076087" y="16.000000">fn3</text></a></g>
<g transform="translate(546.586957,69.500000)"><a xlink:href="https://www.ebi.ac.uk/interpro/entry/pfam/PF00041" xlink:title="Fibronectin type III domain"><rect fill="#C48484" x="0" y="0" width="36.347826" height="24.000000" filter="url(#ds)"/><text style="font-size:12px;font-family:OpenSans;fill:#ffffff;" text-anchor="middle" x="18.173913" y="16.000000">fn3</text></a></g>
<g transform="translate(587.065217,69.500000)"><a xlink:href="https://www.ebi.ac.uk/interpro/entry/pfam/PF00041" xlink:title="Fibronectin type III domain"><rect fill="#1F88A7" x="0" y="0" width="31.391304" height="24.000000" filter="url(#ds)"/><text style="font-size:12px;font-family:OpenSans;fill:#ffffff;" text-anchor="middle" x="15.695652" y="16.000000">fn3</text></a></g>
<g transform="translate(623.826087,69.500000)"><a xlink:href="https://www.ebi.ac.uk/interpro/entry/pfam/PF00041" xlink:title="Fibronectin type III domain"><rect fill="#CAFEB8" x="0" y="0" width="40.891304" height="24.000000" filter="url(#ds)"/><text style="font-size:12px;font-family:OpenSans;fill:#ffffff;" text-anchor="middle" x="20.445652" y="16.000000">fn3</text></a></g>
<g transform="translate(668.847826,69.500000)"><a xlink:href="https://www.ebi.ac.uk/interpro/entry/pfam/PF00041" xlink:title="Fibronectin type III domain"><rect fill="#4A9586" x="0" y="0" width="31.804348" height="24.000000" filter="url(#ds)"/><text style="font-size:12px;font-family:OpenSans;fill:#ffffff;" text-anchor="middle" x="15.902174" y="16.000000">fn3</text></a></g>
<g transform="translate(710.978261,69.500000)"><a xlink:href="https://www.ebi.ac.uk/interpro/entry/pfam/PF00041" xlink:title="Fibronectin type III domain"><rect fill="#CEB86C" x="0" y="0" width="36.760870" height="24.000000" filter="url(#ds)"/><text style="font-size:12px;font-family:OpenSans;fill:#ffffff;" text-anchor="middle" x="18.380435" y="16.000000">fn3</text></a></g>
<g transform="translate(865.869565,69.500000)"><a xlink:href="https://www.ebi.ac.uk/interpro/entry/pfam/PF00102" xlink:title="Protein-tyrosine phosphatase"><rect fill="#2DCF00" x="0" y="0" width="95.000000" height="24.000000" filter="url(#ds)"/><text style="font-size:12px;font-family:OpenSans;fill:#ffffff;" text-anchor="middle" x="47.500000" y="16.000000">Y_phosphatase</text></a></g>
<g class="axis">
<line x1="15.000000" x2="978.217391" y1="103.500000" y2="103.500000" stroke="#AAAAAA" /><line x1="15.000000" x2="15.000000" y1="103.500000" y2="108.500000" stroke="#AAAAAA" /><line x1="22.021739" x2="22.021739" y1="103.500000" y2="108.500000" stroke="#AAAAAA" /><text style="font-size:10px;font-family:OpenSans;fill:#000000;" text-anchor="middle" x="22.021739" y="118.500000">17</text><line x1="53.000000" x2="53.000000" y1="103.500000" y2="108.500000" stroke="#AAAAAA" /><text style="font-size:10px;font-family:OpenSans;fill:#000000;" text-anchor="middle" x="53.000000" y="118.500000">92</text><line x1="92.652174" x2="92.652174" y1="103.500000" y2="108.500000" stroke="#AAAAAA" /><text style="font-size:10px;font-family:OpenSans;fill:#000000;" text-anchor="middle" x="92.652174" y="118.500000">188</text><line x1="159.565217" x2="159.565217" y1="103.500000" y2="108.500000" stroke="#AAAAAA" /><text style="font-size:10px;font-family:OpenSans;fill:#000000;" text-anchor="middle" x="159.565217" y="118.500000">350</text><line x1="193.021739" x2="193.021739" y1="103.500000" y2="108.500000" stroke="#AAAAAA" /><text style="font-size:10px;font-family:OpenSans;fill:#000000;" text-anchor="middle" x="193.021739" y="118.500000">431</text><line x1="270.673913" x2="270.673913" y1="103.500000" y2="108.500000" stroke="#AAAAAA" /><text style="font-size:10px;font-family:OpenSans;fill:#000000;" text-anchor="middle" x="270.673913" y="118.500000">619</text><line x1="307.847826" x2="307.847826" y1="103.500000" y2="108.500000" stroke="#AAAAAA" /><text style="font-size:10px;font-family:OpenSans;fill:#000000;" text-anchor="middle" x="307.847826" y="118.500000">709</text><line x1="353.282609" x2="353.282609" y1="103.500000" y2="108.500000" stroke="#AAAAAA" /><text style="font-size:10px;font-family:OpenSans;fill:#000000;" text-anchor="middle" x="353.282609" y="118.500000">819</text><line x1="381.782609" x2="381.782609" y1="103.500000" y2="108.500000" stroke="#AAAAAA" /><text style="font-size:10px;font-family:OpenSans;fill:#000000;" text-anchor="middle" x="381.782609" y="118.500000">888</text><line x1="433.826087" x2="433.826087" y1="103.500000" y2="108.500000" stroke="#AAAAAA" /><text style="font-size:10px;font-family:OpenSans;fill:#000000;" text-anchor="middle" x="433.826087" y="118.500000">1014</text><line x1="460.260870" x2="460.260870" y1="103.500000" y2="108.500000" stroke="#AAAAAA" /><text style="font-size:10px;font-family:OpenSans;fill:#000000;" text-anchor="middle" x="460.260870" y="118.500000">1078</text><line x1="528.000000" x2="528.000000" y1="103.500000" y2="108.500000" stroke="#AAAAAA" /><text style="font-size:10px;font-family:OpenSans;fill:#000000;" text-anchor="middle" x="528.000000" y="118.500000">1242</text><line x1="582.934783" x2="582.934783" y1="103.500000" y2="108.500000" stroke="#AAAAAA" /><text style="font-size:10px;font-family:OpenSans;fill:#000000;" text-anchor="middle" x="582.934783" y="118.500000">1375</text><line x1="618.456522" x2="618.456522" y1="103.500000" y2="108.500000" stroke="#AAAAAA" /><text style="font-size:10px;font-family:OpenSans;fill:#000000;" text-anchor="middle" x="618.456522" y="118.500000">1461</text><line x1="664.717391" x2="664.717391" y1="103.500000" y2="108.500000" stroke="#AAAAAA" /><text style="font-size:10px;font-family:OpenSans;fill:#000000;" text-anchor="middle" x="664.717391" y="118.500000">1573</text><line x1="700.652174" x2="700.652174" y1="103.500000" y2="108.500000" stroke="#AAAAAA" /><text style="font-size:10px;font-family:OpenSans;fill:#000000;" text-anchor="middle" x="700.652174" y="118.500000">1660</text><line x1="747.739130" x2="747.739130" y1="103.500000" y2="108.500000" stroke="#AAAAAA" /><text style="font-size:10px;font-family:OpenSans;fill:#000000;" text-anchor="middle" x="747.739130" y="118.500000">1774</text><line x1="865.869565" x2="865.869565" y1="103.500000" y2="108.500000" stroke="#AAAAAA" /><text style="font-size:10px;font-family:OpenSans;fill:#000000;" text-anchor="middle" x="865.869565" y="118.500000">2060</text><line x1="928.239130" x2="928.239130" y1="103.500000" y2="108.500000" stroke="#AAAAAA" /><text style="font-size:10px;font-family:OpenSans;fill:#000000;" text-anchor="middle" x="928.239130" y="118.500000">2211</text><line x1="978.217391" x2="978.217391" y1="103.500000" y2="108.500000" stroke="#AAAAAA" /><text style="font-size:10px;font-family:OpenSans;fill:#000000;" text-anchor="middle" x="978.217391" y="118.500000">2332</text></g>
<rect fill="#CEB86C" x="4" y="132.500000" width="12" height="12" filter="url(#ds)"/><text style="font-size:12px;font-family:OpenSans;fill:#000000;" text-anchor="start" x="20" y="144.500000">Fibronectin type III domain</text><rect fill="#2DCF00" x="4" y="146.500000" width="12" height="12" filter="url(#ds)"/><text style="font-size:12px;font-family:OpenSans;fill:#000000;" text-anchor="start" x="20" y="158.500000">Protein-tyrosine phosphatase</text></svg>
