<?xml version='1.0'?>
<svg xmlns="http://www.w3.org/2000/svg" xmlns:xlink="http://www.w3.org/1999/xlink" width="916.724638" height="323.300000">
<defs>
  <filter id="ds" x="0" y="0">
    <feOffset in="SourceAlpha" dx="2" dy="2" />
    <feComponentTransfer><feFuncA type="linear" slope="0.2"/></feComponentTransfer>
    <feGaussianBlur result="blurOut" stdDeviation="1" />
    <feBlend in="SourceGraphic" in2="blurOut" mode="normal" />
  </filter>
  <pattern id="disordered-hatch" patternUnits="userSpaceOnUse" width="4" height="4">
    <path d="M-1,1 l2,-2 M0,4 l4,-4 M3,5 l2,-2" stroke="#000000" opacity="0.3" />
  </pattern>
</defs>
<line x1="450.942029" x2="450.942029" y1="134.000000" y2="199.500000" stroke="#BABDB6" stroke-width="2"/><a xlink:title="N940N"><circle cx="450.942029" cy="134.000000" r="4.000000" fill="#0000ff" /></a><g transform="translate(450.942029,134.000000) rotate(-30)"><text style="font-size:10px;font-family:OpenSans;fill:#555;" text-anchor="middle" x="0" y="-6.000000">N940N</text></g><line x1="451.405797" x2="451.405797" y1="134.000000" y2="199.500000" stroke="#BABDB6" stroke-width="2"/><a xlink:title="I941I"><circle cx="451.405797" cy="134.000000" r="4.000000" fill="#0000ff" /></a><g transform="translate(451.405797,134.000000) rotate(-30)"><text style="font-size:10px;font-family:OpenSans;fill:#555;" text-anchor="middle" x="0" y="-6.000000">I941I</text></g><line x1="455.115942" x2="455.115942" y1="34.000000" y2="199.500000" stroke="#BABDB6" stroke-width="2"/><a xlink:title="N949N"><circle cx="455.115942" cy="34.000000" r="4.000000" fill="#0000ff" /></a><g transform="translate(455.115942,34.000000) rotate(-30)"><text style="font-size:10px;font-family:OpenSans;fill:#555;" text-anchor="middle" x="0" y="-6.000000">N949N</text></g><line x1="455.579710" x2="455.579710" y1="34.000000" y2="199.500000" stroke="#BABDB6" stroke-width="2"/><a xlink:title="I950I"><circle cx="455.579710" cy="34.000000" r="4.000000" fill="#0000ff" /></a><g transform="translate(455.579710,34.000000) rotate(-30)"><text style="font-size:10px;font-family:OpenSans;fill:#555;" text-anchor="middle" x="0" y="-6.000000">I950I</text></g><line x1="456.971014" x2="456.971014" y1="34.000000" y2="199.500000" stroke="#BABDB6" stroke-width="2"/><a xlink:title="N953N"><circle cx="456.971014" cy="34.000000" r="4.000000" fill="#0000ff" /></a><g transform="translate(456.971014,34.000000) rotate(-30)"><text style="font-size:10px;font-family:OpenSans;fill:#555;" text-anchor="middle" x="0" y="-6.000000">N953N</text></g><line x1="457.434783" x2="457.434783" y1="46.500000" y2="199.500000" stroke="#BABDB6" stroke-width="2"/><a xlink:title="I954I"><circle cx="457.434783" cy="46.500000" r="4.000000" fill="#0000ff" /></a><g transform="translate(457.434783,46.500000) rotate(-30)"><text style="font-size:10px;font-family:OpenSans;fill:#555;" text-anchor="middle" x="0" y="-6.000000">I954I</text></g><line x1="457.898551" x2="457.898551" y1="59.000000" y2="199.500000" stroke="#BABDB6" stroke-width="2"/><a xlink:title="N955N"><circle cx="457.898551" cy="59.000000" r="4.000000" fill="#0000ff" /></a><g transform="translate(457.898551,59.000000) rotate(-30)"><text style="font-size:10px;font-family:OpenSans;fill:#555;" text-anchor="middle" x="0" y="-6.000000">N955N</text></g><line x1="458.362319" x2="458.362319" y1="71.500000" y2="199.500000" stroke="#BABDB6" stroke-width="2"/><a xlink:title="I956I"><circle cx="458.362319" cy="71.500000" r="4.000000" fill="#0000ff" /></a><g transform="translate(458.362319,71.500000) rotate(-30)"><text style="font-size:10px;font-family:OpenSans;fill:#555;" text-anchor="middle" x="0" y="-6.000000">I956I</text></g><line x1="458.362319" x2="458.362319" y1="84.000000" y2="199.500000" stroke="#BABDB6" stroke-width="2"/><a xlink:title="N956N"><circle cx="458.362319" cy="84.000000" r="4.000000" fill="#0000ff" /></a><g transform="translate(458.362319,84.000000) rotate(-30)"><text style="font-size:10px;font-family:OpenSans;fill:#555;" text-anchor="middle" x="0" y="-6.000000">N956N</text></g><line x1="458.826087" x2="458.826087" y1="96.500000" y2="199.500000" stroke="#BABDB6" stroke-width="2"/><a xlink:title="I957I"><circle cx="458.826087" cy="96.500000" r="4.000000" fill="#0000ff" /></a><g transform="translate(458.826087,96.500000) rotate(-30)"><text style="font-size:10px;font-family:OpenSans;fill:#555;" text-anchor="middle" x="0" y="-6.000000">I957I</text></g><line x1="459.289855" x2="459.289855" y1="109.000000" y2="199.500000" stroke="#BABDB6" stroke-width="2"/><a xlink:title="N958N"><circle cx="459.289855" cy="109.000000" r="4.000000" fill="#0000ff" /></a><g transform="translate(459.289855,109.000000) rotate(-30)"><text style="font-size:10px;font-family:OpenSans;fill:#555;" text-anchor="middle" x="0" y="-6.000000">N958N</text></g><line x1="459.753623" x2="459.753623" y1="134.000000" y2="199.500000" stroke="#BABDB6" stroke-width="2"/><a xlink:title="N959N"><circle cx="459.753623" cy="134.000000" r="4.000000" fill="#0000ff" /></a><g transform="translate(459.753623,134.000000) rotate(-30)"><text style="font-size:10px;font-family:OpenSans;fill:#555;" text-anchor="middle" x="0" y="-6.000000">N959N</text></g><line x1="459.753623" x2="459.753623" y1="121.500000" y2="199.500000" stroke="#BABDB6" stroke-width="2"/><a xlink:title="I959I"><circle cx="459.753623" cy="121.500000" r="4.000000" fill="#0000ff" /></a><g transform="translate(459.753623,121.500000) rotate(-30)"><text style="font-size:10px;font-family:OpenSans;fill:#555;" text-anchor="middle" x="0" y="-6.000000">I959I</text></g><line x1="460.217391" x2="460.217391" y1="146.500000" y2="199.500000" stroke="#BABDB6" stroke-width="2"/><a xlink:title="I960I"><circle cx="460.217391" cy="146.500000" r="4.000000" fill="#0000ff" /></a><g transform="translate(460.217391,146.500000) rotate(-30)"><text style="font-size:10px;font-family:OpenSans;fill:#555;" text-anchor="middle" x="0" y="-6.000000">I960I</text></g><line x1="461.144928" x2="461.144928" y1="159.000000" y2="199.500000" stroke="#BABDB6" stroke-width="2"/><a xlink:title="N962N"><circle cx="461.144928" cy="159.000000" r="4.000000" fill="#0000ff" /></a><g transform="translate(461.144928,159.000000) rotate(-30)"><text style="font-size:10px;font-family:OpenSans;fill:#555;" text-anchor="middle" x="0" y="-6.000000">N962N</text></g><line x1="461.608696" x2="461.608696" y1="171.500000" y2="199.500000" stroke="#BABDB6" stroke-width="2"/><a xlink:title="I963I"><circle cx="461.608696" cy="171.500000" r="4.000000" fill="#0000ff" /></a><g transform="translate(461.608696,171.500000) rotate(-30)"><text style="font-size:10px;font-family:OpenSans;fill:#555;" text-anchor="middle" x="0" y="-6.000000">I963I</text></g><a xlink:title=",  (1912aa)"><rect fill="#BABDB6" x="15.000000" y="199.500000" width="886.724638" height="14.000000"/></a><g transform="translate(26.130435,194.500000)"><a xlink:href="https://www.ebi.ac.uk/interpro/entry/pfam/PF07679" xlink:title="Immunoglobulin I-set domain"><rect fill="#2DCF00" x="0" y="0" width="42.202899" height="24.000000" filter="url(#ds)"/><text style="font-size:12px;font-family:OpenSans;fill:#ffffff;" text-anchor="middle" x="21.101449" y="16.000000">I-set</text></a></g>
<g transform="translate(73.898551,194.500000)"><a xlink:href="https://www.ebi.ac.uk/interpro/entry/pfam/PF07679" xlink:title="Immunoglobulin I-set domain"><rect fill="#FF5353" x="0" y="0" width="41.275362" height="24.000000" filter="url(#ds)"/><text style="font-size:12px;font-family:OpenSans;fill:#ffffff;" text-anchor="middle" x="20.637681" y="16.000000">I-set</text></a></g>
<g transform="translate(123.985507,194.500000)"><a xlink:href="https://www.ebi.ac.uk/interpro/entry/pfam/PF13927" xlink:title="Immunoglobulin domain"><rect fill="#5B5BFF" x="0" y="0" width="32.000000" height="24.000000" filter="url(#ds)"/><text style="font-size:12px;font-family:OpenSans;fill:#ffffff;" text-anchor="middle" x="16.000000" y="16.000000">Ig_3</text></a></g>
<g transform="translate(165.724638,194.500000)"><a xlink:href="https://www.ebi.ac.uk/interpro/entry/pfam/PF00041" xlink:title="Fibronectin type III domain"><rect fill="#EBD61D" x="0" y="0" width="38.956522" height="24.000000" filter="url(#ds)"/><text style="font-size:12px;font-family:OpenSans;fill:#ffffff;" text-anchor="middle" x="19.478261" y="16.000000">fn3</text></a></g>
<g transform="translate(209.318841,194.500000)"><a xlink:href="https://www.ebi.ac.uk/interpro/entry/pfam/PF00041" xlink:title="Fibronectin type III domain"><rect fill="#BA21E0" x="0" y="0" width="41.739130" height="24.000000" filter="url(#ds)"/><text style="font-size:12px;font-family:OpenSans;fill:#ffffff;" text-anchor="middle" x="20.869565" y="16.000000">fn3</text></a></g>
<g transform="translate(255.231884,194.500000)"><a xlink:href="https://www.ebi.ac.uk/interpro/entry/pfam/PF00041" xlink:title="Fibronectin type III domain"><rect fill="#FF9C42" x="0" y="0" width="38.492754" height="24.000000" filter="url(#ds)"/><text style="font-size:12px;font-family:OpenSans;fill:#ffffff;" text-anchor="middle" x="19.246377" y="16.000000">fn3</text></a></g>
<g transform="translate(298.826087,194.500000)"><a xlink:href="https://www.ebi.ac.uk/interpro/entry/pfam/PF00041" xlink:title="Fibronectin type III domain"><rect fill="#FF7DFF" x="0" y="0" width="41.275362" height="24.000000" filter="url(#ds)"/><text style="font-size:12px;font-family:OpenSans;fill:#ffffff;" text-anchor="middle" x="20.637681" y="16.000000">fn3</text></a></g>
<g transform="translate(346.130435,194.500000)"><a xlink:href="https://www.ebi.ac.uk/interpro/entry/pfam/PF00041" xlink:title="Fibronectin type III domain"><rect fill="#B9264F" x="0" y="0" width="46.376812" height="24.000000" filter="url(#ds)"/><text style="font-size:12px;font-family:OpenSans;fill:#ffffff;" text-anchor="middle" x="23.188406" y="16.000000">fn3</text></a></g>
<g transform="translate(399.927536,194.500000)"><a xlink:href="https://www.ebi.ac.uk/interpro/entry/pfam/PF00041" xlink:title="Fibronectin type III domain"><rect fill="#BABA21" x="0" y="0" width="35.246377" height="24.000000" filter="url(#ds)"/><text style="font-size:12px;font-family:OpenSans;fill:#ffffff;" text-anchor="middle" x="17.623188" y="16.000000">fn3</text></a></g>
<g transform="translate(442.594203,194.500000)"><a xlink:href="https://www.ebi.ac.uk/interpro/entry/pfam/PF00041" xlink:title="Fibronectin type III domain"><rect fill="#C48484" x="0" y="0" width="41.275362" height="24.000000" filter="url(#ds)"/><text style="font-size:12px;font-family:OpenSans;fill:#ffffff;" text-anchor="middle" x="20.637681" y="16.000000">fn3</text></a></g>
<g transform="translate(655.000000,194.500000)"><a xlink:href="https://www.ebi.ac.uk/interpro/entry/pfam/PF00102" xlink:title="Protein-tyrosine phosphatase"><rect fill="#1F88A7" x="0" y="0" width="107.130435" height="24.000000" filter="url(#ds)"/><text style="font-size:12px;font-family:OpenSans;fill:#ffffff;" text-anchor="middle" x="53.565217" y="16.000000">Y_phosphatase</text></a></g>
<g transform="translate(789.028986,194.500000)"><a xlink:href="https://www.ebi.ac.uk/interpro/entry/pfam/PF00102" xlink:title="Protein-tyrosine phosphatase"><rect fill="#CAFEB8" x="0" y="0" width="108.057971" height="24.000000" filter="url(#ds)"/><text style="font-size:12px;font-family:OpenSans;fill:#ffffff;" text-anchor="middle" x="54.028986" y="16.000000">Y_phosphatase</text></a></g>
<g class="axis">
<line x1="15.000000" x2="901.724638" y1="228.500000" y2="228.500000" stroke="#AAAAAA" /><line x1="15.000000" x2="15.000000" y1="228.500000" y2="233.500000" stroke="#AAAAAA" /><line x1="26.130435" x2="26.130435" y1="228.500000" y2="233.500000" stroke="#AAAAAA" /><text style="font-size:10px;font-family:OpenSans;fill:#000000;" text-anchor="middle" x="26.130435" y="243.500000">24</text><line x1="68.333333" x2="68.333333" y1="228.500000" y2="233.500000" stroke="#AAAAAA" /><text style="font-size:10px;font-family:OpenSans;fill:#000000;" text-anchor="middle" x="68.333333" y="243.500000">115</text><line x1="115.173913" x2="115.173913" y1="228.500000" y2="233.500000" stroke="#AAAAAA" /><text style="font-size:10px;font-family:OpenSans;fill:#000000;" text-anchor="middle" x="115.173913" y="243.500000">216</text><line x1="155.985507" x2="155.985507" y1="228.500000" y2="233.500000" stroke="#AAAAAA" /><text style="font-size:10px;font-family:OpenSans;fill:#000000;" text-anchor="middle" x="155.985507" y="243.500000">304</text><line x1="204.681159" x2="204.681159" y1="228.500000" y2="233.500000" stroke="#AAAAAA" /><text style="font-size:10px;font-family:OpenSans;fill:#000000;" text-anchor="middle" x="204.681159" y="243.500000">409</text><line x1="251.057971" x2="251.057971" y1="228.500000" y2="233.500000" stroke="#AAAAAA" /><text style="font-size:10px;font-family:OpenSans;fill:#000000;" text-anchor="middle" x="251.057971" y="243.500000">509</text><line x1="293.724638" x2="293.724638" y1="228.500000" y2="233.500000" stroke="#AAAAAA" /><text style="font-size:10px;font-family:OpenSans;fill:#000000;" text-anchor="middle" x="293.724638" y="243.500000">601</text><line x1="340.101449" x2="340.101449" y1="228.500000" y2="233.500000" stroke="#AAAAAA" /><text style="font-size:10px;font-family:OpenSans;fill:#000000;" text-anchor="middle" x="340.101449" y="243.500000">701</text><line x1="392.507246" x2="392.507246" y1="228.500000" y2="233.500000" stroke="#AAAAAA" /><text style="font-size:10px;font-family:OpenSans;fill:#000000;" text-anchor="middle" x="392.507246" y="243.500000">814</text><line x1="450.942029" x2="450.942029" y1="228.500000" y2="233.500000" stroke="#AAAAAA" /><text style="font-size:10px;font-family:OpenSans;fill:#000000;" text-anchor="middle" x="450.942029" y="243.500000">940</text><line x1="483.869565" x2="483.869565" y1="228.500000" y2="233.500000" stroke="#AAAAAA" /><text style="font-size:10px;font-family:OpenSans;fill:#000000;" text-anchor="middle" x="483.869565" y="243.500000">1011</text><line x1="655.000000" x2="655.000000" y1="228.500000" y2="233.500000" stroke="#AAAAAA" /><text style="font-size:10px;font-family:OpenSans;fill:#000000;" text-anchor="middle" x="655.000000" y="243.500000">1380</text><line x1="762.130435" x2="762.130435" y1="228.500000" y2="233.500000" stroke="#AAAAAA" /><text style="font-size:10px;font-family:OpenSans;fill:#000000;" text-anchor="middle" x="762.130435" y="243.500000">1611</text><line x1="789.028986" x2="789.028986" y1="228.500000" y2="233.500000" stroke="#AAAAAA" /><text style="font-size:10px;font-family:OpenSans;fill:#000000;" text-anchor="middle" x="789.028986" y="243.500000">1669</text><line x1="901.724638" x2="901.724638" y1="228.500000" y2="233.500000" stroke="#AAAAAA" /><text style="font-size:10px;font-family:OpenSans;fill:#000000;" text-anchor="middle" x="901.724638" y="243.500000">1912</text></g>
<rect fill="#CAFEB8" x="4" y="257.500000" width="12" height="12" filter="url(#ds)"/><text style="font-size:12px;font-family:OpenSans;fill:#000000;" text-anchor="start" x="20" y="269.500000">Protein-tyrosine phosphatase</text><rect fill="#FF5353" x="4" y="271.500000" width="12" height="12" filter="url(#ds)"/><text style="font-size:12px;font-family:OpenSans;fill:#000000;" text-anchor="start" x="20" y="283.500000">Immunoglobulin I-set domain</text><rect fill="#5B5BFF" x="4" y="285.500000" width="12" height="12" filter="url(#ds)"/><text style="font-size:12px;font-family:OpenSans;fill:#000000;" text-anchor="start" x="20" y="297.500000">Immunoglobulin domain</text><rect fill="#C48484" x="4" y="299.500000" width="12" height="12" filter="url(#ds)"/><text style="font-size:12px;font-family:OpenSans;fill:#000000;" text-anchor="start" x="20" y="311.500000">Fibronectin type III domain</text></svg>
