<?xml version='1.0'?>
<svg xmlns="http://www.w3.org/2000/svg" xmlns:xlink="http://www.w3.org/1999/xlink" width="1242.545455" height="249.700000">
<defs>
  <filter id="ds" x="0" y="0">
    <feOffset in="SourceAlpha" dx="2" dy="2" />
    <feComponentTransfer><feFuncA type="linear" slope="0.2"/></feComponentTransfer>
    <feGaussianBlur result="blurOut" stdDeviation="1" />
    <feBlend in="SourceGraphic" in2="blurOut" mode="normal" />
  </filter>
  <pattern id="disordered-hatch" patternUnits="userSpaceOnUse" width="4" height="4">
    <path d="M-1,1 l2,-2 M0,4 l4,-4 M3,5 l2,-2" stroke="#000000" opacity="0.3" />
  </pattern>
</defs>
<line x1="18.272727" x2="18.272727" y1="59.000000" y2="99.500000" stroke="#BABDB6" stroke-width="2"/><a xlink:title="S4C"><circle cx="18.272727" cy="59.000000" r="4.000000" fill="#ff0000" /></a><g transform="translate(18.272727,59.000000) rotate(-30)"><text style="font-size:10px;font-family:OpenSans;fill:#555;" text-anchor="middle" x="0" y="-6.000000">S4C</text></g><line x1="18.272727" x2="18.272727" y1="71.500000" y2="99.500000" stroke="#BABDB6" stroke-width="2"/><a xlink:title="S4R"><circle cx="18.272727" cy="71.500000" r="4.000000" fill="#ff0000" /></a><g transform="translate(18.272727,71.500000) rotate(-30)"><text style="font-size:10px;font-family:OpenSans;fill:#555;" text-anchor="middle" x="0" y="-6.000000">S4R</text></g><line x1="25.636364" x2="25.636364" y1="71.500000" y2="99.500000" stroke="#BABDB6" stroke-width="2"/><a xlink:title="R13R"><circle cx="25.636364" cy="71.500000" r="4.000000" fill="#0000ff" /></a><g transform="translate(25.636364,71.500000) rotate(-30)"><text style="font-size:10px;font-family:OpenSans;fill:#555;" text-anchor="middle" x="0" y="-6.000000">R13R</text></g><line x1="42.000000" x2="42.000000" y1="71.500000" y2="99.500000" stroke="#BABDB6" stroke-width="2"/><a xlink:title="I33T"><circle cx="42.000000" cy="71.500000" r="4.000000" fill="#ff0000" /></a><g transform="translate(42.000000,71.500000) rotate(-30)"><text style="font-size:10px;font-family:OpenSans;fill:#555;" text-anchor="middle" x="0" y="-6.000000">I33T</text></g><line x1="96.000000" x2="96.000000" y1="59.000000" y2="99.500000" stroke="#BABDB6" stroke-width="2"/><a xlink:title="S99S"><circle cx="96.000000" cy="59.000000" r="4.000000" fill="#0000ff" /></a><g transform="translate(96.000000,59.000000) rotate(-30)"><text style="font-size:10px;font-family:OpenSans;fill:#555;" text-anchor="middle" x="0" y="-6.000000">S99S</text></g><line x1="96.818182" x2="96.818182" y1="71.500000" y2="99.500000" stroke="#BABDB6" stroke-width="2"/><a xlink:title="S100S"><circle cx="96.818182" cy="71.500000" r="4.000000" fill="#0000ff" /></a><g transform="translate(96.818182,71.500000) rotate(-30)"><text style="font-size:10px;font-family:OpenSans;fill:#555;" text-anchor="middle" x="0" y="-6.000000">S100S</text></g><line x1="149.181818" x2="149.181818" y1="71.500000" y2="99.500000" stroke="#BABDB6" stroke-width="2"/><a xlink:title="I164T"><circle cx="149.181818" cy="71.500000" r="4.000000" fill="#ff0000" /></a><g transform="translate(149.181818,71.500000) rotate(-30)"><text style="font-size:10px;font-family:OpenSans;fill:#555;" text-anchor="middle" x="0" y="-6.000000">I164T</text></g><line x1="159.818182" x2="159.818182" y1="59.000000" y2="99.500000" stroke="#BABDB6" stroke-width="2"/><a xlink:title="N177S"><circle cx="159.818182" cy="59.000000" r="4.000000" fill="#ff0000" /></a><g transform="translate(159.818182,59.000000) rotate(-30)"><text style="font-size:10px;font-family:OpenSans;fill:#555;" text-anchor="middle" x="0" y="-6.000000">N177S</text></g><line x1="160.636364" x2="160.636364" y1="71.500000" y2="99.500000" stroke="#BABDB6" stroke-width="2"/><a xlink:title="N178S"><circle cx="160.636364" cy="71.500000" r="4.000000" fill="#ff0000" /></a><g transform="translate(160.636364,71.500000) rotate(-30)"><text style="font-size:10px;font-family:OpenSans;fill:#555;" text-anchor="middle" x="0" y="-6.000000">N178S</text></g><line x1="214.636364" x2="214.636364" y1="46.500000" y2="99.500000" stroke="#BABDB6" stroke-width="2"/><a xlink:title="S244S"><circle cx="214.636364" cy="46.500000" r="4.000000" fill="#0000ff" /></a><g transform="translate(214.636364,46.500000) rotate(-30)"><text style="font-size:10px;font-family:OpenSans;fill:#555;" text-anchor="middle" x="0" y="-6.000000">S244S</text></g><line x1="215.454545" x2="215.454545" y1="59.000000" y2="99.500000" stroke="#BABDB6" stroke-width="2"/><a xlink:title="S245S"><circle cx="215.454545" cy="59.000000" r="4.000000" fill="#0000ff" /></a><g transform="translate(215.454545,59.000000) rotate(-30)"><text style="font-size:10px;font-family:OpenSans;fill:#555;" text-anchor="middle" x="0" y="-6.000000">S245S</text></g><line x1="217.909091" x2="217.909091" y1="71.500000" y2="99.500000" stroke="#BABDB6" stroke-width="2"/><a xlink:title="L248V"><circle cx="217.909091" cy="71.500000" r="4.000000" fill="#ff0000" /></a><g transform="translate(217.909091,71.500000) rotate(-30)"><text style="font-size:10px;font-family:OpenSans;fill:#555;" text-anchor="middle" x="0" y="-6.000000">L248V</text></g><line x1="267.000000" x2="267.000000" y1="71.500000" y2="99.500000" stroke="#BABDB6" stroke-width="2"/><a xlink:title="G308G"><circle cx="267.000000" cy="71.500000" r="4.000000" fill="#0000ff" /></a><g transform="translate(267.000000,71.500000) rotate(-30)"><text style="font-size:10px;font-family:OpenSans;fill:#555;" text-anchor="middle" x="0" y="-6.000000">G308G</text></g><line x1="279.272727" x2="279.272727" y1="59.000000" y2="99.500000" stroke="#BABDB6" stroke-width="2"/><a xlink:title="T323M"><circle cx="279.272727" cy="59.000000" r="4.000000" fill="#ff0000" /></a><g transform="translate(279.272727,59.000000) rotate(-30)"><text style="font-size:10px;font-family:OpenSans;fill:#555;" text-anchor="middle" x="0" y="-6.000000">T323M</text></g><line x1="280.090909" x2="280.090909" y1="71.500000" y2="99.500000" stroke="#BABDB6" stroke-width="2"/><a xlink:title="T324M"><circle cx="280.090909" cy="71.500000" r="4.000000" fill="#ff0000" /></a><g transform="translate(280.090909,71.500000) rotate(-30)"><text style="font-size:10px;font-family:OpenSans;fill:#555;" text-anchor="middle" x="0" y="-6.000000">T324M</text></g><line x1="314.454545" x2="314.454545" y1="71.500000" y2="99.500000" stroke="#BABDB6" stroke-width="2"/><a xlink:title="A366A"><circle cx="314.454545" cy="71.500000" r="4.000000" fill="#0000ff" /></a><g transform="translate(314.454545,71.500000) rotate(-30)"><text style="font-size:10px;font-family:OpenSans;fill:#555;" text-anchor="middle" x="0" y="-6.000000">A366A</text></g><line x1="325.090909" x2="325.090909" y1="71.500000" y2="99.500000" stroke="#BABDB6" stroke-width="2"/><a xlink:title="L379V"><circle cx="325.090909" cy="71.500000" r="4.000000" fill="#ff0000" /></a><g transform="translate(325.090909,71.500000) rotate(-30)"><text style="font-size:10px;font-family:OpenSans;fill:#555;" text-anchor="middle" x="0" y="-6.000000">L379V</text></g><line x1="368.454545" x2="368.454545" y1="59.000000" y2="99.500000" stroke="#BABDB6" stroke-width="2"/><a xlink:title="K432K"><circle cx="368.454545" cy="59.000000" r="4.000000" fill="#0000ff" /></a><g transform="translate(368.454545,59.000000) rotate(-30)"><text style="font-size:10px;font-family:OpenSans;fill:#555;" text-anchor="middle" x="0" y="-6.000000">K432K</text></g><line x1="374.181818" x2="374.181818" y1="71.500000" y2="99.500000" stroke="#BABDB6" stroke-width="2"/><a xlink:title="G439G"><circle cx="374.181818" cy="71.500000" r="4.000000" fill="#0000ff" /></a><g transform="translate(374.181818,71.500000) rotate(-30)"><text style="font-size:10px;font-family:OpenSans;fill:#555;" text-anchor="middle" x="0" y="-6.000000">G439G</text></g><line x1="397.090909" x2="397.090909" y1="71.500000" y2="99.500000" stroke="#BABDB6" stroke-width="2"/><a xlink:title="Q467*"><circle cx="397.090909" cy="71.500000" r="4.000000" fill="#0000ff" /></a><g transform="translate(397.090909,71.500000) rotate(-30)"><text style="font-size:10px;font-family:OpenSans;fill:#555;" text-anchor="middle" x="0" y="-6.000000">Q467*</text></g><line x1="421.636364" x2="421.636364" y1="71.500000" y2="99.500000" stroke="#BABDB6" stroke-width="2"/><a xlink:title="A497A"><circle cx="421.636364" cy="71.500000" r="4.000000" fill="#0000ff" /></a><g transform="translate(421.636364,71.500000) rotate(-30)"><text style="font-size:10px;font-family:OpenSans;fill:#555;" text-anchor="middle" x="0" y="-6.000000">A497A</text></g><line x1="440.454545" x2="440.454545" y1="34.000000" y2="99.500000" stroke="#BABDB6" stroke-width="2"/><a xlink:title="G520A"><circle cx="440.454545" cy="34.000000" r="4.000000" fill="#ff0000" /></a><g transform="translate(440.454545,34.000000) rotate(-30)"><text style="font-size:10px;font-family:OpenSans;fill:#555;" text-anchor="middle" x="0" y="-6.000000">G520A</text></g><line x1="441.272727" x2="441.272727" y1="46.500000" y2="99.500000" stroke="#BABDB6" stroke-width="2"/><a xlink:title="G521A"><circle cx="441.272727" cy="46.500000" r="4.000000" fill="#ff0000" /></a><g transform="translate(441.272727,46.500000) rotate(-30)"><text style="font-size:10px;font-family:OpenSans;fill:#555;" text-anchor="middle" x="0" y="-6.000000">G521A</text></g><line x1="444.545455" x2="444.545455" y1="59.000000" y2="99.500000" stroke="#BABDB6" stroke-width="2"/><a xlink:title="T525P"><circle cx="444.545455" cy="59.000000" r="4.000000" fill="#ff0000" /></a><g transform="translate(444.545455,59.000000) rotate(-30)"><text style="font-size:10px;font-family:OpenSans;fill:#555;" text-anchor="middle" x="0" y="-6.000000">T525P</text></g><line x1="445.363636" x2="445.363636" y1="71.500000" y2="99.500000" stroke="#BABDB6" stroke-width="2"/><a xlink:title="T526P"><circle cx="445.363636" cy="71.500000" r="4.000000" fill="#ff0000" /></a><g transform="translate(445.363636,71.500000) rotate(-30)"><text style="font-size:10px;font-family:OpenSans;fill:#555;" text-anchor="middle" x="0" y="-6.000000">T526P</text></g><line x1="473.181818" x2="473.181818" y1="59.000000" y2="99.500000" stroke="#BABDB6" stroke-width="2"/><a xlink:title="V560M"><circle cx="473.181818" cy="59.000000" r="4.000000" fill="#ff0000" /></a><g transform="translate(473.181818,59.000000) rotate(-30)"><text style="font-size:10px;font-family:OpenSans;fill:#555;" text-anchor="middle" x="0" y="-6.000000">V560M</text></g><line x1="475.636364" x2="475.636364" y1="71.500000" y2="99.500000" stroke="#BABDB6" stroke-width="2"/><a xlink:title="K563K"><circle cx="475.636364" cy="71.500000" r="4.000000" fill="#0000ff" /></a><g transform="translate(475.636364,71.500000) rotate(-30)"><text style="font-size:10px;font-family:OpenSans;fill:#555;" text-anchor="middle" x="0" y="-6.000000">K563K</text></g><line x1="504.272727" x2="504.272727" y1="71.500000" y2="99.500000" stroke="#BABDB6" stroke-width="2"/><a xlink:title="Q598*"><circle cx="504.272727" cy="71.500000" r="4.000000" fill="#0000ff" /></a><g transform="translate(504.272727,71.500000) rotate(-30)"><text style="font-size:10px;font-family:OpenSans;fill:#555;" text-anchor="middle" x="0" y="-6.000000">Q598*</text></g><line x1="545.181818" x2="545.181818" y1="71.500000" y2="99.500000" stroke="#BABDB6" stroke-width="2"/><a xlink:title="S648S"><circle cx="545.181818" cy="71.500000" r="4.000000" fill="#0000ff" /></a><g transform="translate(545.181818,71.500000) rotate(-30)"><text style="font-size:10px;font-family:OpenSans;fill:#555;" text-anchor="middle" x="0" y="-6.000000">S648S</text></g><line x1="568.090909" x2="568.090909" y1="59.000000" y2="99.500000" stroke="#BABDB6" stroke-width="2"/><a xlink:title="Q676Q"><circle cx="568.090909" cy="59.000000" r="4.000000" fill="#0000ff" /></a><g transform="translate(568.090909,59.000000) rotate(-30)"><text style="font-size:10px;font-family:OpenSans;fill:#555;" text-anchor="middle" x="0" y="-6.000000">Q676Q</text></g><line x1="568.909091" x2="568.909091" y1="71.500000" y2="99.500000" stroke="#BABDB6" stroke-width="2"/><a xlink:title="Q677Q"><circle cx="568.909091" cy="71.500000" r="4.000000" fill="#0000ff" /></a><g transform="translate(568.909091,71.500000) rotate(-30)"><text style="font-size:10px;font-family:OpenSans;fill:#555;" text-anchor="middle" x="0" y="-6.000000">Q677Q</text></g><line x1="580.363636" x2="580.363636" y1="71.500000" y2="99.500000" stroke="#BABDB6" stroke-width="2"/><a xlink:title="V691M"><circle cx="580.363636" cy="71.500000" r="4.000000" fill="#ff0000" /></a><g transform="translate(580.363636,71.500000) rotate(-30)"><text style="font-size:10px;font-family:OpenSans;fill:#555;" text-anchor="middle" x="0" y="-6.000000">V691M</text></g><line x1="595.909091" x2="595.909091" y1="71.500000" y2="99.500000" stroke="#BABDB6" stroke-width="2"/><a xlink:title="S710S"><circle cx="595.909091" cy="71.500000" r="4.000000" fill="#0000ff" /></a><g transform="translate(595.909091,71.500000) rotate(-30)"><text style="font-size:10px;font-family:OpenSans;fill:#555;" text-anchor="middle" x="0" y="-6.000000">S710S</text></g><line x1="639.272727" x2="639.272727" y1="59.000000" y2="99.500000" stroke="#BABDB6" stroke-width="2"/><a xlink:title="I763N"><circle cx="639.272727" cy="59.000000" r="4.000000" fill="#ff0000" /></a><g transform="translate(639.272727,59.000000) rotate(-30)"><text style="font-size:10px;font-family:OpenSans;fill:#555;" text-anchor="middle" x="0" y="-6.000000">I763N</text></g><line x1="640.090909" x2="640.090909" y1="71.500000" y2="99.500000" stroke="#BABDB6" stroke-width="2"/><a xlink:title="I764N"><circle cx="640.090909" cy="71.500000" r="4.000000" fill="#ff0000" /></a><g transform="translate(640.090909,71.500000) rotate(-30)"><text style="font-size:10px;font-family:OpenSans;fill:#555;" text-anchor="middle" x="0" y="-6.000000">I764N</text></g><line x1="652.363636" x2="652.363636" y1="71.500000" y2="99.500000" stroke="#BABDB6" stroke-width="2"/><a xlink:title="S779S"><circle cx="652.363636" cy="71.500000" r="4.000000" fill="#0000ff" /></a><g transform="translate(652.363636,71.500000) rotate(-30)"><text style="font-size:10px;font-family:OpenSans;fill:#555;" text-anchor="middle" x="0" y="-6.000000">S779S</text></g><line x1="660.545455" x2="660.545455" y1="46.500000" y2="99.500000" stroke="#BABDB6" stroke-width="2"/><a xlink:title="T789M"><circle cx="660.545455" cy="46.500000" r="4.000000" fill="#ff0000" /></a><g transform="translate(660.545455,46.500000) rotate(-30)"><text style="font-size:10px;font-family:OpenSans;fill:#555;" text-anchor="middle" x="0" y="-6.000000">T789M</text></g><line x1="661.363636" x2="661.363636" y1="59.000000" y2="99.500000" stroke="#BABDB6" stroke-width="2"/><a xlink:title="S790P"><circle cx="661.363636" cy="59.000000" r="4.000000" fill="#ff0000" /></a><g transform="translate(661.363636,59.000000) rotate(-30)"><text style="font-size:10px;font-family:OpenSans;fill:#555;" text-anchor="middle" x="0" y="-6.000000">S790P</text></g><line x1="662.181818" x2="662.181818" y1="71.500000" y2="99.500000" stroke="#BABDB6" stroke-width="2"/><a xlink:title="S791P"><circle cx="662.181818" cy="71.500000" r="4.000000" fill="#ff0000" /></a><g transform="translate(662.181818,71.500000) rotate(-30)"><text style="font-size:10px;font-family:OpenSans;fill:#555;" text-anchor="middle" x="0" y="-6.000000">S791P</text></g><line x1="676.090909" x2="676.090909" y1="34.000000" y2="99.500000" stroke="#BABDB6" stroke-width="2"/><a xlink:title="G808E"><circle cx="676.090909" cy="34.000000" r="4.000000" fill="#ff0000" /></a><g transform="translate(676.090909,34.000000) rotate(-30)"><text style="font-size:10px;font-family:OpenSans;fill:#555;" text-anchor="middle" x="0" y="-6.000000">G808E</text></g><line x1="676.909091" x2="676.909091" y1="46.500000" y2="99.500000" stroke="#BABDB6" stroke-width="2"/><a xlink:title="G809E"><circle cx="676.909091" cy="46.500000" r="4.000000" fill="#ff0000" /></a><g transform="translate(676.909091,46.500000) rotate(-30)"><text style="font-size:10px;font-family:OpenSans;fill:#555;" text-anchor="middle" x="0" y="-6.000000">G809E</text></g><line x1="681.000000" x2="681.000000" y1="59.000000" y2="99.500000" stroke="#BABDB6" stroke-width="2"/><a xlink:title="S814L"><circle cx="681.000000" cy="59.000000" r="4.000000" fill="#ff0000" /></a><g transform="translate(681.000000,59.000000) rotate(-30)"><text style="font-size:10px;font-family:OpenSans;fill:#555;" text-anchor="middle" x="0" y="-6.000000">S814L</text></g><line x1="681.818182" x2="681.818182" y1="71.500000" y2="99.500000" stroke="#BABDB6" stroke-width="2"/><a xlink:title="S815L"><circle cx="681.818182" cy="71.500000" r="4.000000" fill="#ff0000" /></a><g transform="translate(681.818182,71.500000) rotate(-30)"><text style="font-size:10px;font-family:OpenSans;fill:#555;" text-anchor="middle" x="0" y="-6.000000">S815L</text></g><line x1="703.090909" x2="703.090909" y1="71.500000" y2="99.500000" stroke="#BABDB6" stroke-width="2"/><a xlink:title="S841S"><circle cx="703.090909" cy="71.500000" r="4.000000" fill="#0000ff" /></a><g transform="translate(703.090909,71.500000) rotate(-30)"><text style="font-size:10px;font-family:OpenSans;fill:#555;" text-anchor="middle" x="0" y="-6.000000">S841S</text></g><line x1="716.181818" x2="716.181818" y1="71.500000" y2="99.500000" stroke="#BABDB6" stroke-width="2"/><a xlink:title="N857S"><circle cx="716.181818" cy="71.500000" r="4.000000" fill="#ff0000" /></a><g transform="translate(716.181818,71.500000) rotate(-30)"><text style="font-size:10px;font-family:OpenSans;fill:#555;" text-anchor="middle" x="0" y="-6.000000">N857S</text></g><line x1="767.727273" x2="767.727273" y1="59.000000" y2="99.500000" stroke="#BABDB6" stroke-width="2"/><a xlink:title="T920M"><circle cx="767.727273" cy="59.000000" r="4.000000" fill="#ff0000" /></a><g transform="translate(767.727273,59.000000) rotate(-30)"><text style="font-size:10px;font-family:OpenSans;fill:#555;" text-anchor="middle" x="0" y="-6.000000">T920M</text></g><line x1="771.000000" x2="771.000000" y1="71.500000" y2="99.500000" stroke="#BABDB6" stroke-width="2"/><a xlink:title="S924S"><circle cx="771.000000" cy="71.500000" r="4.000000" fill="#0000ff" /></a><g transform="translate(771.000000,71.500000) rotate(-30)"><text style="font-size:10px;font-family:OpenSans;fill:#555;" text-anchor="middle" x="0" y="-6.000000">S924S</text></g><line x1="821.727273" x2="821.727273" y1="59.000000" y2="99.500000" stroke="#BABDB6" stroke-width="2"/><a xlink:title="G986A"><circle cx="821.727273" cy="59.000000" r="4.000000" fill="#ff0000" /></a><g transform="translate(821.727273,59.000000) rotate(-30)"><text style="font-size:10px;font-family:OpenSans;fill:#555;" text-anchor="middle" x="0" y="-6.000000">G986A</text></g><line x1="825.818182" x2="825.818182" y1="71.500000" y2="99.500000" stroke="#BABDB6" stroke-width="2"/><a xlink:title="T991P"><circle cx="825.818182" cy="71.500000" r="4.000000" fill="#ff0000" /></a><g transform="translate(825.818182,71.500000) rotate(-30)"><text style="font-size:10px;font-family:OpenSans;fill:#555;" text-anchor="middle" x="0" y="-6.000000">T991P</text></g><line x1="835.636364" x2="835.636364" y1="71.500000" y2="99.500000" stroke="#BABDB6" stroke-width="2"/><a xlink:title="T1003M"><circle cx="835.636364" cy="71.500000" r="4.000000" fill="#ff0000" /></a><g transform="translate(835.636364,71.500000) rotate(-30)"><text style="font-size:10px;font-family:OpenSans;fill:#555;" text-anchor="middle" x="0" y="-6.000000">T1003M</text></g><line x1="928.909091" x2="928.909091" y1="59.000000" y2="99.500000" stroke="#BABDB6" stroke-width="2"/><a xlink:title="G1117A"><circle cx="928.909091" cy="59.000000" r="4.000000" fill="#ff0000" /></a><g transform="translate(928.909091,59.000000) rotate(-30)"><text style="font-size:10px;font-family:OpenSans;fill:#555;" text-anchor="middle" x="0" y="-6.000000">G1117A</text></g><line x1="933.000000" x2="933.000000" y1="71.500000" y2="99.500000" stroke="#BABDB6" stroke-width="2"/><a xlink:title="T1122P"><circle cx="933.000000" cy="71.500000" r="4.000000" fill="#ff0000" /></a><g transform="translate(933.000000,71.500000) rotate(-30)"><text style="font-size:10px;font-family:OpenSans;fill:#555;" text-anchor="middle" x="0" y="-6.000000">T1122P</text></g><line x1="949.363636" x2="949.363636" y1="71.500000" y2="99.500000" stroke="#BABDB6" stroke-width="2"/><a xlink:title="Q1142Q"><circle cx="949.363636" cy="71.500000" r="4.000000" fill="#0000ff" /></a><g transform="translate(949.363636,71.500000) rotate(-30)"><text style="font-size:10px;font-family:OpenSans;fill:#555;" text-anchor="middle" x="0" y="-6.000000">Q1142Q</text></g><line x1="996.818182" x2="996.818182" y1="59.000000" y2="99.500000" stroke="#BABDB6" stroke-width="2"/><a xlink:title="G1200A"><circle cx="996.818182" cy="59.000000" r="4.000000" fill="#ff0000" /></a><g transform="translate(996.818182,59.000000) rotate(-30)"><text style="font-size:10px;font-family:OpenSans;fill:#555;" text-anchor="middle" x="0" y="-6.000000">G1200A</text></g><line x1="1000.909091" x2="1000.909091" y1="71.500000" y2="99.500000" stroke="#BABDB6" stroke-width="2"/><a xlink:title="T1205P"><circle cx="1000.909091" cy="71.500000" r="4.000000" fill="#ff0000" /></a><g transform="translate(1000.909091,71.500000) rotate(-30)"><text style="font-size:10px;font-family:OpenSans;fill:#555;" text-anchor="middle" x="0" y="-6.000000">T1205P</text></g><line x1="1020.545455" x2="1020.545455" y1="71.500000" y2="99.500000" stroke="#BABDB6" stroke-width="2"/><a xlink:title="I1229N"><circle cx="1020.545455" cy="71.500000" r="4.000000" fill="#ff0000" /></a><g transform="translate(1020.545455,71.500000) rotate(-30)"><text style="font-size:10px;font-family:OpenSans;fill:#555;" text-anchor="middle" x="0" y="-6.000000">I1229N</text></g><line x1="1052.454545" x2="1052.454545" y1="59.000000" y2="99.500000" stroke="#BABDB6" stroke-width="2"/><a xlink:title="V1268A"><circle cx="1052.454545" cy="59.000000" r="4.000000" fill="#ff0000" /></a><g transform="translate(1052.454545,59.000000) rotate(-30)"><text style="font-size:10px;font-family:OpenSans;fill:#555;" text-anchor="middle" x="0" y="-6.000000">V1268A</text></g><line x1="1056.545455" x2="1056.545455" y1="71.500000" y2="99.500000" stroke="#BABDB6" stroke-width="2"/><a xlink:title="Q1273Q"><circle cx="1056.545455" cy="71.500000" r="4.000000" fill="#0000ff" /></a><g transform="translate(1056.545455,71.500000) rotate(-30)"><text style="font-size:10px;font-family:OpenSans;fill:#555;" text-anchor="middle" x="0" y="-6.000000">Q1273Q</text></g><line x1="1124.454545" x2="1124.454545" y1="59.000000" y2="99.500000" stroke="#BABDB6" stroke-width="2"/><a xlink:title="Q1356Q"><circle cx="1124.454545" cy="59.000000" r="4.000000" fill="#0000ff" /></a><g transform="translate(1124.454545,59.000000) rotate(-30)"><text style="font-size:10px;font-family:OpenSans;fill:#555;" text-anchor="middle" x="0" y="-6.000000">Q1356Q</text></g><line x1="1127.727273" x2="1127.727273" y1="71.500000" y2="99.500000" stroke="#BABDB6" stroke-width="2"/><a xlink:title="I1360N"><circle cx="1127.727273" cy="71.500000" r="4.000000" fill="#ff0000" /></a><g transform="translate(1127.727273,71.500000) rotate(-30)"><text style="font-size:10px;font-family:OpenSans;fill:#555;" text-anchor="middle" x="0" y="-6.000000">I1360N</text></g><line x1="1149.818182" x2="1149.818182" y1="71.500000" y2="99.500000" stroke="#BABDB6" stroke-width="2"/><a xlink:title="S1387P"><circle cx="1149.818182" cy="71.500000" r="4.000000" fill="#ff0000" /></a><g transform="translate(1149.818182,71.500000) rotate(-30)"><text style="font-size:10px;font-family:OpenSans;fill:#555;" text-anchor="middle" x="0" y="-6.000000">S1387P</text></g><line x1="1164.545455" x2="1164.545455" y1="59.000000" y2="99.500000" stroke="#BABDB6" stroke-width="2"/><a xlink:title="G1405E"><circle cx="1164.545455" cy="59.000000" r="4.000000" fill="#ff0000" /></a><g transform="translate(1164.545455,59.000000) rotate(-30)"><text style="font-size:10px;font-family:OpenSans;fill:#555;" text-anchor="middle" x="0" y="-6.000000">G1405E</text></g><line x1="1169.454545" x2="1169.454545" y1="71.500000" y2="99.500000" stroke="#BABDB6" stroke-width="2"/><a xlink:title="S1411L"><circle cx="1169.454545" cy="71.500000" r="4.000000" fill="#ff0000" /></a><g transform="translate(1169.454545,71.500000) rotate(-30)"><text style="font-size:10px;font-family:OpenSans;fill:#555;" text-anchor="middle" x="0" y="-6.000000">S1411L</text></g><line x1="1195.636364" x2="1195.636364" y1="71.500000" y2="99.500000" stroke="#BABDB6" stroke-width="2"/><a xlink:title="I1443N"><circle cx="1195.636364" cy="71.500000" r="4.000000" fill="#ff0000" /></a><g transform="translate(1195.636364,71.500000) rotate(-30)"><text style="font-size:10px;font-family:OpenSans;fill:#555;" text-anchor="middle" x="0" y="-6.000000">I1443N</text></g><line x1="1217.727273" x2="1217.727273" y1="71.500000" y2="99.500000" stroke="#BABDB6" stroke-width="2"/><a xlink:title="S1470P"><circle cx="1217.727273" cy="71.500000" r="4.000000" fill="#ff0000" /></a><g transform="translate(1217.727273,71.500000) rotate(-30)"><text style="font-size:10px;font-family:OpenSans;fill:#555;" text-anchor="middle" x="0" y="-6.000000">S1470P</text></g><line x1="1227.545455" x2="1227.545455" y1="59.000000" y2="99.500000" stroke="#BABDB6" stroke-width="2"/><a xlink:title="V1482A"><circle cx="1227.545455" cy="59.000000" r="4.000000" fill="#ff0000" /></a><g transform="translate(1227.545455,59.000000) rotate(-30)"><text style="font-size:10px;font-family:OpenSans;fill:#555;" text-anchor="middle" x="0" y="-6.000000">V1482A</text></g><line x1="1232.454545" x2="1232.454545" y1="59.000000" y2="99.500000" stroke="#BABDB6" stroke-width="2"/><a xlink:title="G1488E"><circle cx="1232.454545" cy="59.000000" r="4.000000" fill="#ff0000" /></a><g transform="translate(1232.454545,59.000000) rotate(-30)"><text style="font-size:10px;font-family:OpenSans;fill:#555;" text-anchor="middle" x="0" y="-6.000000">G1488E</text></g><line x1="1237.363636" x2="1237.363636" y1="71.500000" y2="99.500000" stroke="#BABDB6" stroke-width="2"/><a xlink:title="S1494L"><circle cx="1237.363636" cy="71.500000" r="4.000000" fill="#ff0000" /></a><g transform="translate(1237.363636,71.500000) rotate(-30)"><text style="font-size:10px;font-family:OpenSans;fill:#555;" text-anchor="middle" x="0" y="-6.000000">S1494L</text></g><a xlink:title=",  (1482aa)"><rect fill="#BABDB6" x="15.000000" y="99.500000" width="1212.545455" height="14.000000"/></a><g transform="translate(119.727273,94.500000)"><a xlink:href="https://www.ebi.ac.uk/interpro/entry/pfam/PF01835" xlink:title="MG2 domain"><rect fill="#2DCF00" x="0" y="0" width="75.272727" height="24.000000" filter="url(#ds)"/><text style="font-size:12px;font-family:OpenSans;fill:#ffffff;" text-anchor="middle" x="37.636364" y="16.000000">MG2</text></a></g>
<g transform="translate(196.636364,94.500000)"><a xlink:href="https://www.ebi.ac.uk/interpro/entry/pfam/PF17791" xlink:title="Macroglobulin domain MG3"><rect fill="#FF5353" x="0" y="0" width="70.363636" height="24.000000" filter="url(#ds)"/><text style="font-size:12px;font-family:OpenSans;fill:#ffffff;" text-anchor="middle" x="35.181818" y="16.000000">MG3</text></a></g>
<g transform="translate(298.090909,94.500000)"><a xlink:href="https://www.ebi.ac.uk/interpro/entry/pfam/PF17789" xlink:title="Macroglobulin domain MG4"><rect fill="#5B5BFF" x="0" y="0" width="75.272727" height="24.000000" filter="url(#ds)"/><text style="font-size:12px;font-family:OpenSans;fill:#ffffff;" text-anchor="middle" x="37.636364" y="16.000000">MG4</text></a></g>
<g transform="translate(387.272727,94.500000)"><a xlink:href="https://www.ebi.ac.uk/interpro/entry/pfam/PF07703" xlink:title="Alpha-2-macroglobulin bait region domain"><rect fill="#EBD61D" x="0" y="0" width="121.090909" height="24.000000" filter="url(#ds)"/><text style="font-size:12px;font-family:OpenSans;fill:#ffffff;" text-anchor="middle" x="60.545455" y="16.000000">A2M_BRD</text></a></g>
<g transform="translate(623.727273,94.500000)"><a xlink:href="https://www.ebi.ac.uk/interpro/entry/pfam/PF00207" xlink:title="Alpha-2-macroglobulin family"><rect fill="#BA21E0" x="0" y="0" width="73.636364" height="24.000000" filter="url(#ds)"/><text style="font-size:12px;font-family:OpenSans;fill:#ffffff;" text-anchor="middle" x="36.818182" y="16.000000">A2M</text></a></g>
<g transform="translate(795.545455,94.500000)"><a xlink:href="https://www.ebi.ac.uk/interpro/entry/pfam/PF07678" xlink:title="A-macroglobulin TED domain"><rect fill="#FF9C42" x="0" y="0" width="258.545455" height="24.000000" filter="url(#ds)"/><text style="font-size:12px;font-family:OpenSans;fill:#ffffff;" text-anchor="middle" x="129.272727" y="16.000000">A-macroglobulin TED domain</text></a></g>
<g transform="translate(1144.909091,94.500000)"><a xlink:href="https://www.ebi.ac.uk/interpro/entry/pfam/PF07677" xlink:title="A-macroglobulin receptor binding domain"><rect fill="#FF7DFF" x="0" y="0" width="72.000000" height="24.000000" filter="url(#ds)"/><text style="font-size:12px;font-family:OpenSans;fill:#ffffff;" text-anchor="middle" x="36.000000" y="16.000000">A2M_recep</text></a></g>
<g class="axis">
<line x1="15.000000" x2="1227.545455" y1="128.500000" y2="128.500000" stroke="#AAAAAA" /><line x1="15.000000" x2="15.000000" y1="128.500000" y2="133.500000" stroke="#AAAAAA" /><line x1="18.272727" x2="18.272727" y1="128.500000" y2="133.500000" stroke="#AAAAAA" /><text style="font-size:10px;font-family:OpenSans;fill:#000000;" text-anchor="middle" x="18.272727" y="143.500000">4</text><line x1="42.000000" x2="42.000000" y1="128.500000" y2="133.500000" stroke="#AAAAAA" /><text style="font-size:10px;font-family:OpenSans;fill:#000000;" text-anchor="middle" x="42.000000" y="143.500000">33</text><line x1="96.000000" x2="96.000000" y1="128.500000" y2="133.500000" stroke="#AAAAAA" /><text style="font-size:10px;font-family:OpenSans;fill:#000000;" text-anchor="middle" x="96.000000" y="143.500000">99</text><line x1="119.727273" x2="119.727273" y1="128.500000" y2="133.500000" stroke="#AAAAAA" /><text style="font-size:10px;font-family:OpenSans;fill:#000000;" text-anchor="middle" x="119.727273" y="143.500000">128</text><line x1="149.181818" x2="149.181818" y1="128.500000" y2="133.500000" stroke="#AAAAAA" /><text style="font-size:10px;font-family:OpenSans;fill:#000000;" text-anchor="middle" x="149.181818" y="143.500000">164</text><line x1="214.636364" x2="214.636364" y1="128.500000" y2="133.500000" stroke="#AAAAAA" /><text style="font-size:10px;font-family:OpenSans;fill:#000000;" text-anchor="middle" x="214.636364" y="143.500000">244</text><line x1="267.000000" x2="267.000000" y1="128.500000" y2="133.500000" stroke="#AAAAAA" /><text style="font-size:10px;font-family:OpenSans;fill:#000000;" text-anchor="middle" x="267.000000" y="143.500000">308</text><line x1="314.454545" x2="314.454545" y1="128.500000" y2="133.500000" stroke="#AAAAAA" /><text style="font-size:10px;font-family:OpenSans;fill:#000000;" text-anchor="middle" x="314.454545" y="143.500000">366</text><line x1="368.454545" x2="368.454545" y1="128.500000" y2="133.500000" stroke="#AAAAAA" /><text style="font-size:10px;font-family:OpenSans;fill:#000000;" text-anchor="middle" x="368.454545" y="143.500000">432</text><line x1="397.090909" x2="397.090909" y1="128.500000" y2="133.500000" stroke="#AAAAAA" /><text style="font-size:10px;font-family:OpenSans;fill:#000000;" text-anchor="middle" x="397.090909" y="143.500000">467</text><line x1="421.636364" x2="421.636364" y1="128.500000" y2="133.500000" stroke="#AAAAAA" /><text style="font-size:10px;font-family:OpenSans;fill:#000000;" text-anchor="middle" x="421.636364" y="143.500000">497</text><line x1="441.272727" x2="441.272727" y1="128.500000" y2="133.500000" stroke="#AAAAAA" /><text style="font-size:10px;font-family:OpenSans;fill:#000000;" text-anchor="middle" x="441.272727" y="143.500000">521</text><line x1="473.181818" x2="473.181818" y1="128.500000" y2="133.500000" stroke="#AAAAAA" /><text style="font-size:10px;font-family:OpenSans;fill:#000000;" text-anchor="middle" x="473.181818" y="143.500000">560</text><line x1="504.272727" x2="504.272727" y1="128.500000" y2="133.500000" stroke="#AAAAAA" /><text style="font-size:10px;font-family:OpenSans;fill:#000000;" text-anchor="middle" x="504.272727" y="143.500000">598</text><line x1="545.181818" x2="545.181818" y1="128.500000" y2="133.500000" stroke="#AAAAAA" /><text style="font-size:10px;font-family:OpenSans;fill:#000000;" text-anchor="middle" x="545.181818" y="143.500000">648</text><line x1="568.090909" x2="568.090909" y1="128.500000" y2="133.500000" stroke="#AAAAAA" /><text style="font-size:10px;font-family:OpenSans;fill:#000000;" text-anchor="middle" x="568.090909" y="143.500000">676</text><line x1="595.909091" x2="595.909091" y1="128.500000" y2="133.500000" stroke="#AAAAAA" /><text style="font-size:10px;font-family:OpenSans;fill:#000000;" text-anchor="middle" x="595.909091" y="143.500000">710</text><line x1="639.272727" x2="639.272727" y1="128.500000" y2="133.500000" stroke="#AAAAAA" /><text style="font-size:10px;font-family:OpenSans;fill:#000000;" text-anchor="middle" x="639.272727" y="143.500000">763</text><line x1="660.545455" x2="660.545455" y1="128.500000" y2="133.500000" stroke="#AAAAAA" /><text style="font-size:10px;font-family:OpenSans;fill:#000000;" text-anchor="middle" x="660.545455" y="143.500000">789</text><line x1="681.000000" x2="681.000000" y1="128.500000" y2="133.500000" stroke="#AAAAAA" /><text style="font-size:10px;font-family:OpenSans;fill:#000000;" text-anchor="middle" x="681.000000" y="143.500000">814</text><line x1="703.090909" x2="703.090909" y1="128.500000" y2="133.500000" stroke="#AAAAAA" /><text style="font-size:10px;font-family:OpenSans;fill:#000000;" text-anchor="middle" x="703.090909" y="143.500000">841</text><line x1="767.727273" x2="767.727273" y1="128.500000" y2="133.500000" stroke="#AAAAAA" /><text style="font-size:10px;font-family:OpenSans;fill:#000000;" text-anchor="middle" x="767.727273" y="143.500000">920</text><line x1="795.545455" x2="795.545455" y1="128.500000" y2="133.500000" stroke="#AAAAAA" /><text style="font-size:10px;font-family:OpenSans;fill:#000000;" text-anchor="middle" x="795.545455" y="143.500000">954</text><line x1="821.727273" x2="821.727273" y1="128.500000" y2="133.500000" stroke="#AAAAAA" /><text style="font-size:10px;font-family:OpenSans;fill:#000000;" text-anchor="middle" x="821.727273" y="143.500000">986</text><line x1="928.909091" x2="928.909091" y1="128.500000" y2="133.500000" stroke="#AAAAAA" /><text style="font-size:10px;font-family:OpenSans;fill:#000000;" text-anchor="middle" x="928.909091" y="143.500000">1117</text><line x1="949.363636" x2="949.363636" y1="128.500000" y2="133.500000" stroke="#AAAAAA" /><text style="font-size:10px;font-family:OpenSans;fill:#000000;" text-anchor="middle" x="949.363636" y="143.500000">1142</text><line x1="996.818182" x2="996.818182" y1="128.500000" y2="133.500000" stroke="#AAAAAA" /><text style="font-size:10px;font-family:OpenSans;fill:#000000;" text-anchor="middle" x="996.818182" y="143.500000">1200</text><line x1="1020.545455" x2="1020.545455" y1="128.500000" y2="133.500000" stroke="#AAAAAA" /><text style="font-size:10px;font-family:OpenSans;fill:#000000;" text-anchor="middle" x="1020.545455" y="143.500000">1229</text><line x1="1052.454545" x2="1052.454545" y1="128.500000" y2="133.500000" stroke="#AAAAAA" /><text style="font-size:10px;font-family:OpenSans;fill:#000000;" text-anchor="middle" x="1052.454545" y="143.500000">1268</text><line x1="1124.454545" x2="1124.454545" y1="128.500000" y2="133.500000" stroke="#AAAAAA" /><text style="font-size:10px;font-family:OpenSans;fill:#000000;" text-anchor="middle" x="1124.454545" y="143.500000">1356</text><line x1="1149.818182" x2="1149.818182" y1="128.500000" y2="133.500000" stroke="#AAAAAA" /><text style="font-size:10px;font-family:OpenSans;fill:#000000;" text-anchor="middle" x="1149.818182" y="143.500000">1387</text><line x1="1169.454545" x2="1169.454545" y1="128.500000" y2="133.500000" stroke="#AAAAAA" /><text style="font-size:10px;font-family:OpenSans;fill:#000000;" text-anchor="middle" x="1169.454545" y="143.500000">1411</text><line x1="1195.636364" x2="1195.636364" y1="128.500000" y2="133.500000" stroke="#AAAAAA" /><text style="font-size:10px;font-family:OpenSans;fill:#000000;" text-anchor="middle" x="1195.636364" y="143.500000">1443</text><line x1="1227.545455" x2="1227.545455" y1="128.500000" y2="133.500000" stroke="#AAAAAA" /><text style="font-size:10px;font-family:OpenSans;fill:#000000;" text-anchor="middle" x="1227.545455" y="143.500000">1482</text></g>
<rect fill="#BA21E0" x="4" y="157.500000" width="12" height="12" filter="url(#ds)"/><text style="font-size:12px;font-family:OpenSans;fill:#000000;" text-anchor="start" x="20" y="169.500000">Alpha-2-macroglobulin family</text><rect fill="#FF7DFF" x="4" y="171.500000" width="12" height="12" filter="url(#ds)"/><text style="font-size:12px;font-family:OpenSans;fill:#000000;" text-anchor="start" x="20" y="183.500000">A-macroglobulin receptor binding domain</text><rect fill="#2DCF00" x="4" y="185.500000" width="12" height="12" filter="url(#ds)"/><text style="font-size:12px;font-family:OpenSans;fill:#000000;" text-anchor="start" x="20" y="197.500000">MG2 domain</text><rect fill="#FF5353" x="4" y="199.500000" width="12" height="12" filter="url(#ds)"/><text style="font-size:12px;font-family:OpenSans;fill:#000000;" text-anchor="start" x="20" y="211.500000">Macroglobulin domain MG3</text><rect fill="#5B5BFF" x="4" y="213.500000" width="12" height="12" filter="url(#ds)"/><text style="font-size:12px;font-family:OpenSans;fill:#000000;" text-anchor="start" x="20" y="225.500000">Macroglobulin domain MG4</text><rect fill="#EBD61D" x="4" y="227.500000" width="12" height="12" filter="url(#ds)"/><text style="font-size:12px;font-family:OpenSans;fill:#000000;" text-anchor="start" x="20" y="239.500000">Alpha-2-macroglobulin bait region domain</text></svg>
