<?xml version='1.0'?>
<svg xmlns="http://www.w3.org/2000/svg" xmlns:xlink="http://www.w3.org/1999/xlink" width="1202.528455" height="146.200000">
<defs>
  <filter id="ds" x="0" y="0">
    <feOffset in="SourceAlpha" dx="2" dy="2" />
    <feComponentTransfer><feFuncA type="linear" slope="0.2"/></feComponentTransfer>
    <feGaussianBlur result="blurOut" stdDeviation="1" />
    <feBlend in="SourceGraphic" in2="blurOut" mode="normal" />
  </filter>
  <pattern id="disordered-hatch" patternUnits="userSpaceOnUse" width="4" height="4">
    <path d="M-1,1 l2,-2 M0,4 l4,-4 M3,5 l2,-2" stroke="#000000" opacity="0.3" />
  </pattern>
</defs>
<line x1="22.512195" x2="22.512195" y1="34.000000" y2="62.000000" stroke="#BABDB6" stroke-width="2"/><a xlink:title="K12K"><circle cx="22.512195" cy="34.000000" r="4.000000" fill="#0000ff" /></a><g transform="translate(22.512195,34.000000) rotate(-30)"><text style="font-size:10px;font-family:OpenSans;fill:#555;" text-anchor="middle" x="0" y="-6.000000">K12K</text></g><line x1="672.317073" x2="672.317073" y1="34.000000" y2="62.000000" stroke="#BABDB6" stroke-width="2"/><a xlink:title="D1050E"><circle cx="672.317073" cy="34.000000" r="4.000000" fill="#ff0000" /></a><g transform="translate(672.317073,34.000000) rotate(-30)"><text style="font-size:10px;font-family:OpenSans;fill:#555;" text-anchor="middle" x="0" y="-6.000000">D1050E</text></g><line x1="689.219512" x2="689.219512" y1="34.000000" y2="62.000000" stroke="#BABDB6" stroke-width="2"/><a xlink:title="D1077E"><circle cx="689.219512" cy="34.000000" r="4.000000" fill="#ff0000" /></a><g transform="translate(689.219512,34.000000) rotate(-30)"><text style="font-size:10px;font-family:OpenSans;fill:#555;" text-anchor="middle" x="0" y="-6.000000">D1077E</text></g><line x1="701.739837" x2="701.739837" y1="34.000000" y2="62.000000" stroke="#BABDB6" stroke-width="2"/><a xlink:title="D1097E"><circle cx="701.739837" cy="34.000000" r="4.000000" fill="#ff0000" /></a><g transform="translate(701.739837,34.000000) rotate(-30)"><text style="font-size:10px;font-family:OpenSans;fill:#555;" text-anchor="middle" x="0" y="-6.000000">D1097E</text></g><line x1="718.642276" x2="718.642276" y1="34.000000" y2="62.000000" stroke="#BABDB6" stroke-width="2"/><a xlink:title="D1124E"><circle cx="718.642276" cy="34.000000" r="4.000000" fill="#ff0000" /></a><g transform="translate(718.642276,34.000000) rotate(-30)"><text style="font-size:10px;font-family:OpenSans;fill:#555;" text-anchor="middle" x="0" y="-6.000000">D1124E</text></g><line x1="992.211382" x2="992.211382" y1="34.000000" y2="62.000000" stroke="#BABDB6" stroke-width="2"/><a xlink:title="D1561E"><circle cx="992.211382" cy="34.000000" r="4.000000" fill="#ff0000" /></a><g transform="translate(992.211382,34.000000) rotate(-30)"><text style="font-size:10px;font-family:OpenSans;fill:#555;" text-anchor="middle" x="0" y="-6.000000">D1561E</text></g><line x1="1064.203252" x2="1064.203252" y1="34.000000" y2="62.000000" stroke="#BABDB6" stroke-width="2"/><a xlink:title="D1676E"><circle cx="1064.203252" cy="34.000000" r="4.000000" fill="#ff0000" /></a><g transform="translate(1064.203252,34.000000) rotate(-30)"><text style="font-size:10px;font-family:OpenSans;fill:#555;" text-anchor="middle" x="0" y="-6.000000">D1676E</text></g><line x1="1093.626016" x2="1093.626016" y1="34.000000" y2="62.000000" stroke="#BABDB6" stroke-width="2"/><a xlink:title="D1723E"><circle cx="1093.626016" cy="34.000000" r="4.000000" fill="#ff0000" /></a><g transform="translate(1093.626016,34.000000) rotate(-30)"><text style="font-size:10px;font-family:OpenSans;fill:#555;" text-anchor="middle" x="0" y="-6.000000">D1723E</text></g><a xlink:title=",  (1873aa)"><rect fill="#BABDB6" x="15.000000" y="62.000000" width="1172.528455" height="14.000000"/></a><g transform="translate(349.918699,57.000000)"><a xlink:href="https://www.ebi.ac.uk/interpro/entry/pfam/PF20412" xlink:title="RALGAPB N-terminal domain"><rect fill="#2DCF00" x="0" y="0" width="77.000000" height="24.000000" filter="url(#ds)"/><text style="font-size:12px;font-family:OpenSans;fill:#ffffff;" text-anchor="middle" x="38.500000" y="16.000000">RALGAPB_N</text></a></g>
<g transform="translate(1056.691057,57.000000)"><a xlink:href="https://www.ebi.ac.uk/interpro/entry/pfam/PF02145" xlink:title="Rap/ran-GAP"><rect fill="#FF5353" x="0" y="0" width="107.048780" height="24.000000" filter="url(#ds)"/><text style="font-size:12px;font-family:OpenSans;fill:#ffffff;" text-anchor="middle" x="53.524390" y="16.000000">Rap/ran-GAP</text></a></g>
<g class="axis">
<line x1="15.000000" x2="1187.528455" y1="91.000000" y2="91.000000" stroke="#AAAAAA" /><line x1="15.000000" x2="15.000000" y1="91.000000" y2="96.000000" stroke="#AAAAAA" /><line x1="22.512195" x2="22.512195" y1="91.000000" y2="96.000000" stroke="#AAAAAA" /><text style="font-size:10px;font-family:OpenSans;fill:#000000;" text-anchor="middle" x="22.512195" y="106.000000">12</text><line x1="349.918699" x2="349.918699" y1="91.000000" y2="96.000000" stroke="#AAAAAA" /><text style="font-size:10px;font-family:OpenSans;fill:#000000;" text-anchor="middle" x="349.918699" y="106.000000">535</text><line x1="426.918699" x2="426.918699" y1="91.000000" y2="96.000000" stroke="#AAAAAA" /><text style="font-size:10px;font-family:OpenSans;fill:#000000;" text-anchor="middle" x="426.918699" y="106.000000">658</text><line x1="672.317073" x2="672.317073" y1="91.000000" y2="96.000000" stroke="#AAAAAA" /><text style="font-size:10px;font-family:OpenSans;fill:#000000;" text-anchor="middle" x="672.317073" y="106.000000">1050</text><line x1="701.739837" x2="701.739837" y1="91.000000" y2="96.000000" stroke="#AAAAAA" /><text style="font-size:10px;font-family:OpenSans;fill:#000000;" text-anchor="middle" x="701.739837" y="106.000000">1097</text><line x1="992.211382" x2="992.211382" y1="91.000000" y2="96.000000" stroke="#AAAAAA" /><text style="font-size:10px;font-family:OpenSans;fill:#000000;" text-anchor="middle" x="992.211382" y="106.000000">1561</text><line x1="1064.203252" x2="1064.203252" y1="91.000000" y2="96.000000" stroke="#AAAAAA" /><text style="font-size:10px;font-family:OpenSans;fill:#000000;" text-anchor="middle" x="1064.203252" y="106.000000">1676</text><line x1="1093.626016" x2="1093.626016" y1="91.000000" y2="96.000000" stroke="#AAAAAA" /><text style="font-size:10px;font-family:OpenSans;fill:#000000;" text-anchor="middle" x="1093.626016" y="106.000000">1723</text><line x1="1163.739837" x2="1163.739837" y1="91.000000" y2="96.000000" stroke="#AAAAAA" /><text style="font-size:10px;font-family:OpenSans;fill:#000000;" text-anchor="middle" x="1163.739837" y="106.000000">1835</text><line x1="1187.528455" x2="1187.528455" y1="91.000000" y2="96.000000" stroke="#AAAAAA" /><text style="font-size:10px;font-family:OpenSans;fill:#000000;" text-anchor="middle" x="1187.528455" y="106.000000">1873</text></g>
<rect fill="#2DCF00" x="4" y="120.000000" width="12" height="12" filter="url(#ds)"/><text style="font-size:12px;font-family:OpenSans;fill:#000000;" text-anchor="start" x="20" y="132.000000">RALGAPB N-terminal domain</text></svg>
