<?xml version='1.0'?>
<svg xmlns="http://www.w3.org/2000/svg" xmlns:xlink="http://www.w3.org/1999/xlink" width="430.000000" height="158.700000">
<defs>
  <filter id="ds" x="0" y="0">
    <feOffset in="SourceAlpha" dx="2" dy="2" />
    <feComponentTransfer><feFuncA type="linear" slope="0.2"/></feComponentTransfer>
    <feGaussianBlur result="blurOut" stdDeviation="1" />
    <feBlend in="SourceGraphic" in2="blurOut" mode="normal" />
  </filter>
  <pattern id="disordered-hatch" patternUnits="userSpaceOnUse" width="4" height="4">
    <path d="M-1,1 l2,-2 M0,4 l4,-4 M3,5 l2,-2" stroke="#000000" opacity="0.3" />
  </pattern>
</defs>
<line x1="17.076125" x2="17.076125" y1="34.000000" y2="74.500000" stroke="#BABDB6" stroke-width="2"/><a xlink:title="C3W"><circle cx="17.076125" cy="34.000000" r="4.000000" fill="#ff0000" /></a><g transform="translate(17.076125,34.000000) rotate(-30)"><text style="font-size:10px;font-family:OpenSans;fill:#555;" text-anchor="middle" x="0" y="-6.000000">C3W</text></g><line x1="19.152249" x2="19.152249" y1="46.500000" y2="74.500000" stroke="#BABDB6" stroke-width="2"/><a xlink:title="R6C"><circle cx="19.152249" cy="46.500000" r="4.000000" fill="#ff0000" /></a><g transform="translate(19.152249,46.500000) rotate(-30)"><text style="font-size:10px;font-family:OpenSans;fill:#555;" text-anchor="middle" x="0" y="-6.000000">R6C</text></g><line x1="167.941176" x2="167.941176" y1="46.500000" y2="74.500000" stroke="#BABDB6" stroke-width="2"/><a xlink:title="V221A"><circle cx="167.941176" cy="46.500000" r="4.000000" fill="#ff0000" /></a><g transform="translate(167.941176,46.500000) rotate(-30)"><text style="font-size:10px;font-family:OpenSans;fill:#555;" text-anchor="middle" x="0" y="-6.000000">V221A</text></g><line x1="289.048443" x2="289.048443" y1="34.000000" y2="74.500000" stroke="#BABDB6" stroke-width="2"/><a xlink:title="V396A"><circle cx="289.048443" cy="34.000000" r="4.000000" fill="#ff0000" /></a><g transform="translate(289.048443,34.000000) rotate(-30)"><text style="font-size:10px;font-family:OpenSans;fill:#555;" text-anchor="middle" x="0" y="-6.000000">V396A</text></g><line x1="290.432526" x2="290.432526" y1="46.500000" y2="74.500000" stroke="#BABDB6" stroke-width="2"/><a xlink:title="T398I"><circle cx="290.432526" cy="46.500000" r="4.000000" fill="#ff0000" /></a><g transform="translate(290.432526,46.500000) rotate(-30)"><text style="font-size:10px;font-family:OpenSans;fill:#555;" text-anchor="middle" x="0" y="-6.000000">T398I</text></g><line x1="411.539792" x2="411.539792" y1="46.500000" y2="74.500000" stroke="#BABDB6" stroke-width="2"/><a xlink:title="T573I"><circle cx="411.539792" cy="46.500000" r="4.000000" fill="#ff0000" /></a><g transform="translate(411.539792,46.500000) rotate(-30)"><text style="font-size:10px;font-family:OpenSans;fill:#555;" text-anchor="middle" x="0" y="-6.000000">T573I</text></g><a xlink:title=",  (578aa)"><rect fill="#BABDB6" x="15.000000" y="74.500000" width="400.000000" height="14.000000"/></a><g transform="translate(100.121107,69.500000)"><a xlink:href="https://www.ebi.ac.uk/interpro/entry/pfam/PF00750" xlink:title="tRNA synthetases class I (R)"><rect fill="#2DCF00" x="0" y="0" width="225.605536" height="24.000000" filter="url(#ds)"/><text style="font-size:12px;font-family:OpenSans;fill:#ffffff;" text-anchor="middle" x="112.802768" y="16.000000">tRNA synthetases class I (R)</text></a></g>
<g transform="translate(335.415225,69.500000)"><a xlink:href="https://www.ebi.ac.uk/interpro/entry/pfam/PF05746" xlink:title="DALR anticodon binding domain"><rect fill="#FF5353" x="0" y="0" width="79.584775" height="24.000000" filter="url(#ds)"/><text style="font-size:12px;font-family:OpenSans;fill:#ffffff;" text-anchor="middle" x="39.792388" y="16.000000">DALR_1</text></a></g>
<g class="axis">
<line x1="15.000000" x2="415.000000" y1="103.500000" y2="103.500000" stroke="#AAAAAA" /><line x1="15.000000" x2="15.000000" y1="103.500000" y2="108.500000" stroke="#AAAAAA" /><line x1="17.076125" x2="17.076125" y1="103.500000" y2="108.500000" stroke="#AAAAAA" /><text style="font-size:10px;font-family:OpenSans;fill:#000000;" text-anchor="middle" x="17.076125" y="118.500000">3</text><line x1="100.121107" x2="100.121107" y1="103.500000" y2="108.500000" stroke="#AAAAAA" /><text style="font-size:10px;font-family:OpenSans;fill:#000000;" text-anchor="middle" x="100.121107" y="118.500000">123</text><line x1="167.941176" x2="167.941176" y1="103.500000" y2="108.500000" stroke="#AAAAAA" /><text style="font-size:10px;font-family:OpenSans;fill:#000000;" text-anchor="middle" x="167.941176" y="118.500000">221</text><line x1="289.048443" x2="289.048443" y1="103.500000" y2="108.500000" stroke="#AAAAAA" /><text style="font-size:10px;font-family:OpenSans;fill:#000000;" text-anchor="middle" x="289.048443" y="118.500000">396</text><line x1="325.726644" x2="325.726644" y1="103.500000" y2="108.500000" stroke="#AAAAAA" /><text style="font-size:10px;font-family:OpenSans;fill:#000000;" text-anchor="middle" x="325.726644" y="118.500000">449</text><line x1="415.000000" x2="415.000000" y1="103.500000" y2="108.500000" stroke="#AAAAAA" /><text style="font-size:10px;font-family:OpenSans;fill:#000000;" text-anchor="middle" x="415.000000" y="118.500000">578</text></g>
<rect fill="#FF5353" x="4" y="132.500000" width="12" height="12" filter="url(#ds)"/><text style="font-size:12px;font-family:OpenSans;fill:#000000;" text-anchor="start" x="20" y="144.500000">DALR anticodon binding domain</text></svg>
