<?xml version='1.0'?>
<svg xmlns="http://www.w3.org/2000/svg" xmlns:xlink="http://www.w3.org/1999/xlink" width="853.153846" height="159.400000">
<defs>
  <filter id="ds" x="0" y="0">
    <feOffset in="SourceAlpha" dx="2" dy="2" />
    <feComponentTransfer><feFuncA type="linear" slope="0.2"/></feComponentTransfer>
    <feGaussianBlur result="blurOut" stdDeviation="1" />
    <feBlend in="SourceGraphic" in2="blurOut" mode="normal" />
  </filter>
  <pattern id="disordered-hatch" patternUnits="userSpaceOnUse" width="4" height="4">
    <path d="M-1,1 l2,-2 M0,4 l4,-4 M3,5 l2,-2" stroke="#000000" opacity="0.3" />
  </pattern>
</defs>
<line x1="75.230769" x2="75.230769" y1="34.000000" y2="62.000000" stroke="#BABDB6" stroke-width="2"/><a xlink:title="L27P"><circle cx="75.230769" cy="34.000000" r="4.000000" fill="#ff0000" /></a><g transform="translate(75.230769,34.000000) rotate(-30)"><text style="font-size:10px;font-family:OpenSans;fill:#555;" text-anchor="middle" x="0" y="-6.000000">L27P</text></g><a xlink:title=",  (369aa)"><rect fill="#BABDB6" x="15.000000" y="62.000000" width="823.153846" height="14.000000"/></a><g transform="translate(505.769231,57.000000)"><a xlink:href="https://www.ebi.ac.uk/interpro/entry/pfam/PF00788" xlink:title="Ras association (RalGDS/AF-6) domain"><rect fill="#2DCF00" x="0" y="0" width="189.615385" height="24.000000" filter="url(#ds)"/><text style="font-size:12px;font-family:OpenSans;fill:#ffffff;" text-anchor="middle" x="94.807692" y="16.000000">RA</text></a></g>
<g transform="translate(724.384615,57.000000)"><a xlink:href="https://www.ebi.ac.uk/interpro/entry/pfam/PF16517" xlink:title="Novel Ras effector 1 C-terminal SARAH (Sav/Rassf/Hpo) domain"><rect fill="#FF5353" x="0" y="0" width="87.000000" height="24.000000" filter="url(#ds)"/><text style="font-size:12px;font-family:OpenSans;fill:#ffffff;" text-anchor="middle" x="43.500000" y="16.000000">Nore1-SARAH</text></a></g>
<g class="axis">
<line x1="15.000000" x2="838.153846" y1="91.000000" y2="91.000000" stroke="#AAAAAA" /><line x1="15.000000" x2="15.000000" y1="91.000000" y2="96.000000" stroke="#AAAAAA" /><line x1="15.000000" x2="15.000000" y1="91.000000" y2="96.000000" stroke="#AAAAAA" /><text style="font-size:10px;font-family:OpenSans;fill:#000000;" text-anchor="middle" x="15.000000" y="106.000000">0</text><line x1="75.230769" x2="75.230769" y1="91.000000" y2="96.000000" stroke="#AAAAAA" /><text style="font-size:10px;font-family:OpenSans;fill:#000000;" text-anchor="middle" x="75.230769" y="106.000000">27</text><line x1="505.769231" x2="505.769231" y1="91.000000" y2="96.000000" stroke="#AAAAAA" /><text style="font-size:10px;font-family:OpenSans;fill:#000000;" text-anchor="middle" x="505.769231" y="106.000000">220</text><line x1="695.384615" x2="695.384615" y1="91.000000" y2="96.000000" stroke="#AAAAAA" /><text style="font-size:10px;font-family:OpenSans;fill:#000000;" text-anchor="middle" x="695.384615" y="106.000000">305</text><line x1="724.384615" x2="724.384615" y1="91.000000" y2="96.000000" stroke="#AAAAAA" /><text style="font-size:10px;font-family:OpenSans;fill:#000000;" text-anchor="middle" x="724.384615" y="106.000000">318</text><line x1="811.384615" x2="811.384615" y1="91.000000" y2="96.000000" stroke="#AAAAAA" /><text style="font-size:10px;font-family:OpenSans;fill:#000000;" text-anchor="middle" x="811.384615" y="106.000000">357</text><line x1="838.153846" x2="838.153846" y1="91.000000" y2="96.000000" stroke="#AAAAAA" /><text style="font-size:10px;font-family:OpenSans;fill:#000000;" text-anchor="middle" x="838.153846" y="106.000000">369</text></g>
<rect fill="#2DCF00" x="4" y="120.000000" width="12" height="12" filter="url(#ds)"/><text style="font-size:12px;font-family:OpenSans;fill:#000000;" text-anchor="start" x="20" y="132.000000">Ras association (RalGDS/AF-6) domain</text><rect fill="#FF5353" x="4" y="134.000000" width="12" height="12" filter="url(#ds)"/><text style="font-size:12px;font-family:OpenSans;fill:#000000;" text-anchor="start" x="20" y="146.000000">Novel Ras effector 1 C-terminal SARAH (Sav/Rassf/Hpo) domain</text></svg>
