<?xml version='1.0'?>
<svg xmlns="http://www.w3.org/2000/svg" xmlns:xlink="http://www.w3.org/1999/xlink" width="811.016949" height="171.200000">
<defs>
  <filter id="ds" x="0" y="0">
    <feOffset in="SourceAlpha" dx="2" dy="2" />
    <feComponentTransfer><feFuncA type="linear" slope="0.2"/></feComponentTransfer>
    <feGaussianBlur result="blurOut" stdDeviation="1" />
    <feBlend in="SourceGraphic" in2="blurOut" mode="normal" />
  </filter>
  <pattern id="disordered-hatch" patternUnits="userSpaceOnUse" width="4" height="4">
    <path d="M-1,1 l2,-2 M0,4 l4,-4 M3,5 l2,-2" stroke="#000000" opacity="0.3" />
  </pattern>
</defs>
<line x1="193.983051" x2="193.983051" y1="59.000000" y2="87.000000" stroke="#BABDB6" stroke-width="2"/><a xlink:title="S220L"><circle cx="193.983051" cy="59.000000" r="4.000000" fill="#ff0000" /></a><g transform="translate(193.983051,59.000000) rotate(-30)"><text style="font-size:10px;font-family:OpenSans;fill:#555;" text-anchor="middle" x="0" y="-6.000000">S220L</text></g><line x1="225.711864" x2="225.711864" y1="59.000000" y2="87.000000" stroke="#BABDB6" stroke-width="2"/><a xlink:title="K259R"><circle cx="225.711864" cy="59.000000" r="4.000000" fill="#ff0000" /></a><g transform="translate(225.711864,59.000000) rotate(-30)"><text style="font-size:10px;font-family:OpenSans;fill:#555;" text-anchor="middle" x="0" y="-6.000000">K259R</text></g><line x1="341.237288" x2="341.237288" y1="59.000000" y2="87.000000" stroke="#BABDB6" stroke-width="2"/><a xlink:title="Y401Y"><circle cx="341.237288" cy="59.000000" r="4.000000" fill="#0000ff" /></a><g transform="translate(341.237288,59.000000) rotate(-30)"><text style="font-size:10px;font-family:OpenSans;fill:#555;" text-anchor="middle" x="0" y="-6.000000">Y401Y</text></g><line x1="360.762712" x2="360.762712" y1="59.000000" y2="87.000000" stroke="#BABDB6" stroke-width="2"/><a xlink:title="Y425Y"><circle cx="360.762712" cy="59.000000" r="4.000000" fill="#0000ff" /></a><g transform="translate(360.762712,59.000000) rotate(-30)"><text style="font-size:10px;font-family:OpenSans;fill:#555;" text-anchor="middle" x="0" y="-6.000000">Y425Y</text></g><line x1="431.542373" x2="431.542373" y1="59.000000" y2="87.000000" stroke="#BABDB6" stroke-width="2"/><a xlink:title="K512K"><circle cx="431.542373" cy="59.000000" r="4.000000" fill="#0000ff" /></a><g transform="translate(431.542373,59.000000) rotate(-30)"><text style="font-size:10px;font-family:OpenSans;fill:#555;" text-anchor="middle" x="0" y="-6.000000">K512K</text></g><line x1="451.067797" x2="451.067797" y1="59.000000" y2="87.000000" stroke="#BABDB6" stroke-width="2"/><a xlink:title="K536K"><circle cx="451.067797" cy="59.000000" r="4.000000" fill="#0000ff" /></a><g transform="translate(451.067797,59.000000) rotate(-30)"><text style="font-size:10px;font-family:OpenSans;fill:#555;" text-anchor="middle" x="0" y="-6.000000">K536K</text></g><line x1="485.237288" x2="485.237288" y1="34.000000" y2="87.000000" stroke="#BABDB6" stroke-width="2"/><a xlink:title="Q578E"><circle cx="485.237288" cy="34.000000" r="4.000000" fill="#ff0000" /></a><g transform="translate(485.237288,34.000000) rotate(-30)"><text style="font-size:10px;font-family:OpenSans;fill:#555;" text-anchor="middle" x="0" y="-6.000000">Q578E</text></g><line x1="488.491525" x2="488.491525" y1="46.500000" y2="87.000000" stroke="#BABDB6" stroke-width="2"/><a xlink:title="T582T"><circle cx="488.491525" cy="46.500000" r="4.000000" fill="#0000ff" /></a><g transform="translate(488.491525,46.500000) rotate(-30)"><text style="font-size:10px;font-family:OpenSans;fill:#555;" text-anchor="middle" x="0" y="-6.000000">T582T</text></g><line x1="490.932203" x2="490.932203" y1="59.000000" y2="87.000000" stroke="#BABDB6" stroke-width="2"/><a xlink:title="H585R"><circle cx="490.932203" cy="59.000000" r="4.000000" fill="#ff0000" /></a><g transform="translate(490.932203,59.000000) rotate(-30)"><text style="font-size:10px;font-family:OpenSans;fill:#555;" text-anchor="middle" x="0" y="-6.000000">H585R</text></g><line x1="502.322034" x2="502.322034" y1="34.000000" y2="87.000000" stroke="#BABDB6" stroke-width="2"/><a xlink:title="I599T"><circle cx="502.322034" cy="34.000000" r="4.000000" fill="#ff0000" /></a><g transform="translate(502.322034,34.000000) rotate(-30)"><text style="font-size:10px;font-family:OpenSans;fill:#555;" text-anchor="middle" x="0" y="-6.000000">I599T</text></g><line x1="504.762712" x2="504.762712" y1="34.000000" y2="87.000000" stroke="#BABDB6" stroke-width="2"/><a xlink:title="Q602E"><circle cx="504.762712" cy="34.000000" r="4.000000" fill="#ff0000" /></a><g transform="translate(504.762712,34.000000) rotate(-30)"><text style="font-size:10px;font-family:OpenSans;fill:#555;" text-anchor="middle" x="0" y="-6.000000">Q602E</text></g><line x1="508.016949" x2="508.016949" y1="46.500000" y2="87.000000" stroke="#BABDB6" stroke-width="2"/><a xlink:title="T606T"><circle cx="508.016949" cy="46.500000" r="4.000000" fill="#0000ff" /></a><g transform="translate(508.016949,46.500000) rotate(-30)"><text style="font-size:10px;font-family:OpenSans;fill:#555;" text-anchor="middle" x="0" y="-6.000000">T606T</text></g><line x1="510.457627" x2="510.457627" y1="59.000000" y2="87.000000" stroke="#BABDB6" stroke-width="2"/><a xlink:title="H609R"><circle cx="510.457627" cy="59.000000" r="4.000000" fill="#ff0000" /></a><g transform="translate(510.457627,59.000000) rotate(-30)"><text style="font-size:10px;font-family:OpenSans;fill:#555;" text-anchor="middle" x="0" y="-6.000000">H609R</text></g><line x1="521.847458" x2="521.847458" y1="59.000000" y2="87.000000" stroke="#BABDB6" stroke-width="2"/><a xlink:title="I623T"><circle cx="521.847458" cy="59.000000" r="4.000000" fill="#ff0000" /></a><g transform="translate(521.847458,59.000000) rotate(-30)"><text style="font-size:10px;font-family:OpenSans;fill:#555;" text-anchor="middle" x="0" y="-6.000000">I623T</text></g><line x1="536.491525" x2="536.491525" y1="59.000000" y2="87.000000" stroke="#BABDB6" stroke-width="2"/><a xlink:title="T641A"><circle cx="536.491525" cy="59.000000" r="4.000000" fill="#ff0000" /></a><g transform="translate(536.491525,59.000000) rotate(-30)"><text style="font-size:10px;font-family:OpenSans;fill:#555;" text-anchor="middle" x="0" y="-6.000000">T641A</text></g><line x1="556.016949" x2="556.016949" y1="59.000000" y2="87.000000" stroke="#BABDB6" stroke-width="2"/><a xlink:title="T665A"><circle cx="556.016949" cy="59.000000" r="4.000000" fill="#ff0000" /></a><g transform="translate(556.016949,59.000000) rotate(-30)"><text style="font-size:10px;font-family:OpenSans;fill:#555;" text-anchor="middle" x="0" y="-6.000000">T665A</text></g><line x1="744.762712" x2="744.762712" y1="59.000000" y2="87.000000" stroke="#BABDB6" stroke-width="2"/><a xlink:title="R897Q"><circle cx="744.762712" cy="59.000000" r="4.000000" fill="#ff0000" /></a><g transform="translate(744.762712,59.000000) rotate(-30)"><text style="font-size:10px;font-family:OpenSans;fill:#555;" text-anchor="middle" x="0" y="-6.000000">R897Q</text></g><line x1="764.288136" x2="764.288136" y1="59.000000" y2="87.000000" stroke="#BABDB6" stroke-width="2"/><a xlink:title="R921Q"><circle cx="764.288136" cy="59.000000" r="4.000000" fill="#ff0000" /></a><g transform="translate(764.288136,59.000000) rotate(-30)"><text style="font-size:10px;font-family:OpenSans;fill:#555;" text-anchor="middle" x="0" y="-6.000000">R921Q</text></g><line x1="770.796610" x2="770.796610" y1="59.000000" y2="87.000000" stroke="#BABDB6" stroke-width="2"/><a xlink:title="S929S"><circle cx="770.796610" cy="59.000000" r="4.000000" fill="#0000ff" /></a><g transform="translate(770.796610,59.000000) rotate(-30)"><text style="font-size:10px;font-family:OpenSans;fill:#555;" text-anchor="middle" x="0" y="-6.000000">S929S</text></g><line x1="790.322034" x2="790.322034" y1="59.000000" y2="87.000000" stroke="#BABDB6" stroke-width="2"/><a xlink:title="S953S"><circle cx="790.322034" cy="59.000000" r="4.000000" fill="#0000ff" /></a><g transform="translate(790.322034,59.000000) rotate(-30)"><text style="font-size:10px;font-family:OpenSans;fill:#555;" text-anchor="middle" x="0" y="-6.000000">S953S</text></g><a xlink:title=",  (960aa)"><rect fill="#BABDB6" x="15.000000" y="87.000000" width="781.016949" height="14.000000"/></a><g transform="translate(18.254237,82.000000)"><a xlink:href="https://www.ebi.ac.uk/interpro/entry/pfam/PF00076" xlink:title="RNA recognition motif"><rect fill="#2DCF00" x="0" y="0" width="55.322034" height="24.000000" filter="url(#ds)"/><text style="font-size:12px;font-family:OpenSans;fill:#ffffff;" text-anchor="middle" x="27.661017" y="16.000000">RRM_1</text></a></g>
<g transform="translate(260.694915,82.000000)"><a xlink:href="https://www.ebi.ac.uk/interpro/entry/pfam/PF00076" xlink:title="RNA recognition motif"><rect fill="#FF5353" x="0" y="0" width="48.813559" height="24.000000" filter="url(#ds)"/><text style="font-size:12px;font-family:OpenSans;fill:#ffffff;" text-anchor="middle" x="24.406780" y="16.000000">RRM_1</text></a></g>
<g transform="translate(343.677966,82.000000)"><a xlink:href="https://www.ebi.ac.uk/interpro/entry/pfam/PF00076" xlink:title="RNA recognition motif"><rect fill="#5B5BFF" x="0" y="0" width="56.135593" height="24.000000" filter="url(#ds)"/><text style="font-size:12px;font-family:OpenSans;fill:#ffffff;" text-anchor="middle" x="28.067797" y="16.000000">RRM_1</text></a></g>
<g transform="translate(494.186441,82.000000)"><a xlink:href="https://www.ebi.ac.uk/interpro/entry/pfam/PF00076" xlink:title="RNA recognition motif"><rect fill="#EBD61D" x="0" y="0" width="48.000000" height="24.000000" filter="url(#ds)"/><text style="font-size:12px;font-family:OpenSans;fill:#ffffff;" text-anchor="middle" x="24.000000" y="16.000000">RRM_1</text></a></g>
<g transform="translate(610.525424,82.000000)"><a xlink:href="https://www.ebi.ac.uk/interpro/entry/pfam/PF00076" xlink:title="RNA recognition motif"><rect fill="#BA21E0" x="0" y="0" width="58.576271" height="24.000000" filter="url(#ds)"/><text style="font-size:12px;font-family:OpenSans;fill:#ffffff;" text-anchor="middle" x="29.288136" y="16.000000">RRM_1</text></a></g>
<g transform="translate(693.508475,82.000000)"><a xlink:href="https://www.ebi.ac.uk/interpro/entry/pfam/PF00076" xlink:title="RNA recognition motif"><rect fill="#FF9C42" x="0" y="0" width="57.762712" height="24.000000" filter="url(#ds)"/><text style="font-size:12px;font-family:OpenSans;fill:#ffffff;" text-anchor="middle" x="28.881356" y="16.000000">RRM_1</text></a></g>
<g class="axis">
<line x1="15.000000" x2="796.016949" y1="116.000000" y2="116.000000" stroke="#AAAAAA" /><line x1="15.000000" x2="15.000000" y1="116.000000" y2="121.000000" stroke="#AAAAAA" /><line x1="18.254237" x2="18.254237" y1="116.000000" y2="121.000000" stroke="#AAAAAA" /><text style="font-size:10px;font-family:OpenSans;fill:#000000;" text-anchor="middle" x="18.254237" y="131.000000">4</text><line x1="73.576271" x2="73.576271" y1="116.000000" y2="121.000000" stroke="#AAAAAA" /><text style="font-size:10px;font-family:OpenSans;fill:#000000;" text-anchor="middle" x="73.576271" y="131.000000">72</text><line x1="193.983051" x2="193.983051" y1="116.000000" y2="121.000000" stroke="#AAAAAA" /><text style="font-size:10px;font-family:OpenSans;fill:#000000;" text-anchor="middle" x="193.983051" y="131.000000">220</text><line x1="225.711864" x2="225.711864" y1="116.000000" y2="121.000000" stroke="#AAAAAA" /><text style="font-size:10px;font-family:OpenSans;fill:#000000;" text-anchor="middle" x="225.711864" y="131.000000">259</text><line x1="260.694915" x2="260.694915" y1="116.000000" y2="121.000000" stroke="#AAAAAA" /><text style="font-size:10px;font-family:OpenSans;fill:#000000;" text-anchor="middle" x="260.694915" y="131.000000">302</text><line x1="309.508475" x2="309.508475" y1="116.000000" y2="121.000000" stroke="#AAAAAA" /><text style="font-size:10px;font-family:OpenSans;fill:#000000;" text-anchor="middle" x="309.508475" y="131.000000">362</text><line x1="341.237288" x2="341.237288" y1="116.000000" y2="121.000000" stroke="#AAAAAA" /><text style="font-size:10px;font-family:OpenSans;fill:#000000;" text-anchor="middle" x="341.237288" y="131.000000">401</text><line x1="360.762712" x2="360.762712" y1="116.000000" y2="121.000000" stroke="#AAAAAA" /><text style="font-size:10px;font-family:OpenSans;fill:#000000;" text-anchor="middle" x="360.762712" y="131.000000">425</text><line x1="399.813559" x2="399.813559" y1="116.000000" y2="121.000000" stroke="#AAAAAA" /><text style="font-size:10px;font-family:OpenSans;fill:#000000;" text-anchor="middle" x="399.813559" y="131.000000">473</text><line x1="431.542373" x2="431.542373" y1="116.000000" y2="121.000000" stroke="#AAAAAA" /><text style="font-size:10px;font-family:OpenSans;fill:#000000;" text-anchor="middle" x="431.542373" y="131.000000">512</text><line x1="451.067797" x2="451.067797" y1="116.000000" y2="121.000000" stroke="#AAAAAA" /><text style="font-size:10px;font-family:OpenSans;fill:#000000;" text-anchor="middle" x="451.067797" y="131.000000">536</text><line x1="485.237288" x2="485.237288" y1="116.000000" y2="121.000000" stroke="#AAAAAA" /><text style="font-size:10px;font-family:OpenSans;fill:#000000;" text-anchor="middle" x="485.237288" y="131.000000">578</text><line x1="504.762712" x2="504.762712" y1="116.000000" y2="121.000000" stroke="#AAAAAA" /><text style="font-size:10px;font-family:OpenSans;fill:#000000;" text-anchor="middle" x="504.762712" y="131.000000">602</text><line x1="536.491525" x2="536.491525" y1="116.000000" y2="121.000000" stroke="#AAAAAA" /><text style="font-size:10px;font-family:OpenSans;fill:#000000;" text-anchor="middle" x="536.491525" y="131.000000">641</text><line x1="556.016949" x2="556.016949" y1="116.000000" y2="121.000000" stroke="#AAAAAA" /><text style="font-size:10px;font-family:OpenSans;fill:#000000;" text-anchor="middle" x="556.016949" y="131.000000">665</text><line x1="610.525424" x2="610.525424" y1="116.000000" y2="121.000000" stroke="#AAAAAA" /><text style="font-size:10px;font-family:OpenSans;fill:#000000;" text-anchor="middle" x="610.525424" y="131.000000">732</text><line x1="669.101695" x2="669.101695" y1="116.000000" y2="121.000000" stroke="#AAAAAA" /><text style="font-size:10px;font-family:OpenSans;fill:#000000;" text-anchor="middle" x="669.101695" y="131.000000">804</text><line x1="693.508475" x2="693.508475" y1="116.000000" y2="121.000000" stroke="#AAAAAA" /><text style="font-size:10px;font-family:OpenSans;fill:#000000;" text-anchor="middle" x="693.508475" y="131.000000">834</text><line x1="744.762712" x2="744.762712" y1="116.000000" y2="121.000000" stroke="#AAAAAA" /><text style="font-size:10px;font-family:OpenSans;fill:#000000;" text-anchor="middle" x="744.762712" y="131.000000">897</text><line x1="764.288136" x2="764.288136" y1="116.000000" y2="121.000000" stroke="#AAAAAA" /><text style="font-size:10px;font-family:OpenSans;fill:#000000;" text-anchor="middle" x="764.288136" y="131.000000">921</text><line x1="796.016949" x2="796.016949" y1="116.000000" y2="121.000000" stroke="#AAAAAA" /><text style="font-size:10px;font-family:OpenSans;fill:#000000;" text-anchor="middle" x="796.016949" y="131.000000">960</text></g>
<rect fill="#FF9C42" x="4" y="145.000000" width="12" height="12" filter="url(#ds)"/><text style="font-size:12px;font-family:OpenSans;fill:#000000;" text-anchor="start" x="20" y="157.000000">RNA recognition motif</text></svg>
