<?xml version='1.0'?>
<svg xmlns="http://www.w3.org/2000/svg" xmlns:xlink="http://www.w3.org/1999/xlink" width="509.973333" height="184.400000">
<defs>
  <filter id="ds" x="0" y="0">
    <feOffset in="SourceAlpha" dx="2" dy="2" />
    <feComponentTransfer><feFuncA type="linear" slope="0.2"/></feComponentTransfer>
    <feGaussianBlur result="blurOut" stdDeviation="1" />
    <feBlend in="SourceGraphic" in2="blurOut" mode="normal" />
  </filter>
  <pattern id="disordered-hatch" patternUnits="userSpaceOnUse" width="4" height="4">
    <path d="M-1,1 l2,-2 M0,4 l4,-4 M3,5 l2,-2" stroke="#000000" opacity="0.3" />
  </pattern>
</defs>
<line x1="40.146667" x2="40.146667" y1="59.000000" y2="87.000000" stroke="#BABDB6" stroke-width="2"/><a xlink:title="R23H"><circle cx="40.146667" cy="59.000000" r="4.000000" fill="#ff0000" /></a><g transform="translate(40.146667,59.000000) rotate(-30)"><text style="font-size:10px;font-family:OpenSans;fill:#555;" text-anchor="middle" x="0" y="-6.000000">R23H</text></g><line x1="62.013333" x2="62.013333" y1="59.000000" y2="87.000000" stroke="#BABDB6" stroke-width="2"/><a xlink:title="S43R"><circle cx="62.013333" cy="59.000000" r="4.000000" fill="#ff0000" /></a><g transform="translate(62.013333,59.000000) rotate(-30)"><text style="font-size:10px;font-family:OpenSans;fill:#555;" text-anchor="middle" x="0" y="-6.000000">S43R</text></g><line x1="81.693333" x2="81.693333" y1="59.000000" y2="87.000000" stroke="#BABDB6" stroke-width="2"/><a xlink:title="S61R"><circle cx="81.693333" cy="59.000000" r="4.000000" fill="#ff0000" /></a><g transform="translate(81.693333,59.000000) rotate(-30)"><text style="font-size:10px;font-family:OpenSans;fill:#555;" text-anchor="middle" x="0" y="-6.000000">S61R</text></g><line x1="110.120000" x2="110.120000" y1="59.000000" y2="87.000000" stroke="#BABDB6" stroke-width="2"/><a xlink:title="S87R"><circle cx="110.120000" cy="59.000000" r="4.000000" fill="#ff0000" /></a><g transform="translate(110.120000,59.000000) rotate(-30)"><text style="font-size:10px;font-family:OpenSans;fill:#555;" text-anchor="middle" x="0" y="-6.000000">S87R</text></g><line x1="176.813333" x2="176.813333" y1="59.000000" y2="87.000000" stroke="#BABDB6" stroke-width="2"/><a xlink:title="R148W"><circle cx="176.813333" cy="59.000000" r="4.000000" fill="#ff0000" /></a><g transform="translate(176.813333,59.000000) rotate(-30)"><text style="font-size:10px;font-family:OpenSans;fill:#555;" text-anchor="middle" x="0" y="-6.000000">R148W</text></g><line x1="188.840000" x2="188.840000" y1="59.000000" y2="87.000000" stroke="#BABDB6" stroke-width="2"/><a xlink:title="R159H"><circle cx="188.840000" cy="59.000000" r="4.000000" fill="#ff0000" /></a><g transform="translate(188.840000,59.000000) rotate(-30)"><text style="font-size:10px;font-family:OpenSans;fill:#555;" text-anchor="middle" x="0" y="-6.000000">R159H</text></g><line x1="208.520000" x2="208.520000" y1="59.000000" y2="87.000000" stroke="#BABDB6" stroke-width="2"/><a xlink:title="R177H"><circle cx="208.520000" cy="59.000000" r="4.000000" fill="#ff0000" /></a><g transform="translate(208.520000,59.000000) rotate(-30)"><text style="font-size:10px;font-family:OpenSans;fill:#555;" text-anchor="middle" x="0" y="-6.000000">R177H</text></g><line x1="226.013333" x2="226.013333" y1="46.500000" y2="87.000000" stroke="#BABDB6" stroke-width="2"/><a xlink:title="R193H"><circle cx="226.013333" cy="46.500000" r="4.000000" fill="#ff0000" /></a><g transform="translate(226.013333,46.500000) rotate(-30)"><text style="font-size:10px;font-family:OpenSans;fill:#555;" text-anchor="middle" x="0" y="-6.000000">R193H</text></g><line x1="228.200000" x2="228.200000" y1="59.000000" y2="87.000000" stroke="#BABDB6" stroke-width="2"/><a xlink:title="R195H"><circle cx="228.200000" cy="59.000000" r="4.000000" fill="#ff0000" /></a><g transform="translate(228.200000,59.000000) rotate(-30)"><text style="font-size:10px;font-family:OpenSans;fill:#555;" text-anchor="middle" x="0" y="-6.000000">R195H</text></g><line x1="236.946667" x2="236.946667" y1="59.000000" y2="87.000000" stroke="#BABDB6" stroke-width="2"/><a xlink:title="R203H"><circle cx="236.946667" cy="59.000000" r="4.000000" fill="#ff0000" /></a><g transform="translate(236.946667,59.000000) rotate(-30)"><text style="font-size:10px;font-family:OpenSans;fill:#555;" text-anchor="middle" x="0" y="-6.000000">R203H</text></g><line x1="248.973333" x2="248.973333" y1="46.500000" y2="87.000000" stroke="#BABDB6" stroke-width="2"/><a xlink:title="T214A"><circle cx="248.973333" cy="46.500000" r="4.000000" fill="#ff0000" /></a><g transform="translate(248.973333,46.500000) rotate(-30)"><text style="font-size:10px;font-family:OpenSans;fill:#555;" text-anchor="middle" x="0" y="-6.000000">T214A</text></g><line x1="254.440000" x2="254.440000" y1="34.000000" y2="87.000000" stroke="#BABDB6" stroke-width="2"/><a xlink:title="R219H"><circle cx="254.440000" cy="34.000000" r="4.000000" fill="#ff0000" /></a><g transform="translate(254.440000,34.000000) rotate(-30)"><text style="font-size:10px;font-family:OpenSans;fill:#555;" text-anchor="middle" x="0" y="-6.000000">R219H</text></g><line x1="256.626667" x2="256.626667" y1="46.500000" y2="87.000000" stroke="#BABDB6" stroke-width="2"/><a xlink:title="R221H"><circle cx="256.626667" cy="46.500000" r="4.000000" fill="#ff0000" /></a><g transform="translate(256.626667,46.500000) rotate(-30)"><text style="font-size:10px;font-family:OpenSans;fill:#555;" text-anchor="middle" x="0" y="-6.000000">R221H</text></g><line x1="257.720000" x2="257.720000" y1="59.000000" y2="87.000000" stroke="#BABDB6" stroke-width="2"/><a xlink:title="A222A"><circle cx="257.720000" cy="59.000000" r="4.000000" fill="#0000ff" /></a><g transform="translate(257.720000,59.000000) rotate(-30)"><text style="font-size:10px;font-family:OpenSans;fill:#555;" text-anchor="middle" x="0" y="-6.000000">A222A</text></g><line x1="274.120000" x2="274.120000" y1="59.000000" y2="87.000000" stroke="#BABDB6" stroke-width="2"/><a xlink:title="R237H"><circle cx="274.120000" cy="59.000000" r="4.000000" fill="#ff0000" /></a><g transform="translate(274.120000,59.000000) rotate(-30)"><text style="font-size:10px;font-family:OpenSans;fill:#555;" text-anchor="middle" x="0" y="-6.000000">R237H</text></g><line x1="325.506667" x2="325.506667" y1="59.000000" y2="87.000000" stroke="#BABDB6" stroke-width="2"/><a xlink:title="R284W"><circle cx="325.506667" cy="59.000000" r="4.000000" fill="#ff0000" /></a><g transform="translate(325.506667,59.000000) rotate(-30)"><text style="font-size:10px;font-family:OpenSans;fill:#555;" text-anchor="middle" x="0" y="-6.000000">R284W</text></g><line x1="345.186667" x2="345.186667" y1="59.000000" y2="87.000000" stroke="#BABDB6" stroke-width="2"/><a xlink:title="R302W"><circle cx="345.186667" cy="59.000000" r="4.000000" fill="#ff0000" /></a><g transform="translate(345.186667,59.000000) rotate(-30)"><text style="font-size:10px;font-family:OpenSans;fill:#555;" text-anchor="middle" x="0" y="-6.000000">R302W</text></g><line x1="362.680000" x2="362.680000" y1="46.500000" y2="87.000000" stroke="#BABDB6" stroke-width="2"/><a xlink:title="R318W"><circle cx="362.680000" cy="46.500000" r="4.000000" fill="#ff0000" /></a><g transform="translate(362.680000,46.500000) rotate(-30)"><text style="font-size:10px;font-family:OpenSans;fill:#555;" text-anchor="middle" x="0" y="-6.000000">R318W</text></g><line x1="364.866667" x2="364.866667" y1="59.000000" y2="87.000000" stroke="#BABDB6" stroke-width="2"/><a xlink:title="R320W"><circle cx="364.866667" cy="59.000000" r="4.000000" fill="#ff0000" /></a><g transform="translate(364.866667,59.000000) rotate(-30)"><text style="font-size:10px;font-family:OpenSans;fill:#555;" text-anchor="middle" x="0" y="-6.000000">R320W</text></g><line x1="373.613333" x2="373.613333" y1="59.000000" y2="87.000000" stroke="#BABDB6" stroke-width="2"/><a xlink:title="R328W"><circle cx="373.613333" cy="59.000000" r="4.000000" fill="#ff0000" /></a><g transform="translate(373.613333,59.000000) rotate(-30)"><text style="font-size:10px;font-family:OpenSans;fill:#555;" text-anchor="middle" x="0" y="-6.000000">R328W</text></g><line x1="391.106667" x2="391.106667" y1="46.500000" y2="87.000000" stroke="#BABDB6" stroke-width="2"/><a xlink:title="R344W"><circle cx="391.106667" cy="46.500000" r="4.000000" fill="#ff0000" /></a><g transform="translate(391.106667,46.500000) rotate(-30)"><text style="font-size:10px;font-family:OpenSans;fill:#555;" text-anchor="middle" x="0" y="-6.000000">R344W</text></g><line x1="393.293333" x2="393.293333" y1="46.500000" y2="87.000000" stroke="#BABDB6" stroke-width="2"/><a xlink:title="R346W"><circle cx="393.293333" cy="46.500000" r="4.000000" fill="#ff0000" /></a><g transform="translate(393.293333,46.500000) rotate(-30)"><text style="font-size:10px;font-family:OpenSans;fill:#555;" text-anchor="middle" x="0" y="-6.000000">R346W</text></g><line x1="397.666667" x2="397.666667" y1="59.000000" y2="87.000000" stroke="#BABDB6" stroke-width="2"/><a xlink:title="T350A"><circle cx="397.666667" cy="59.000000" r="4.000000" fill="#ff0000" /></a><g transform="translate(397.666667,59.000000) rotate(-30)"><text style="font-size:10px;font-family:OpenSans;fill:#555;" text-anchor="middle" x="0" y="-6.000000">T350A</text></g><line x1="406.413333" x2="406.413333" y1="46.500000" y2="87.000000" stroke="#BABDB6" stroke-width="2"/><a xlink:title="A358A"><circle cx="406.413333" cy="46.500000" r="4.000000" fill="#0000ff" /></a><g transform="translate(406.413333,46.500000) rotate(-30)"><text style="font-size:10px;font-family:OpenSans;fill:#555;" text-anchor="middle" x="0" y="-6.000000">A358A</text></g><line x1="410.786667" x2="410.786667" y1="59.000000" y2="87.000000" stroke="#BABDB6" stroke-width="2"/><a xlink:title="R362W"><circle cx="410.786667" cy="59.000000" r="4.000000" fill="#ff0000" /></a><g transform="translate(410.786667,59.000000) rotate(-30)"><text style="font-size:10px;font-family:OpenSans;fill:#555;" text-anchor="middle" x="0" y="-6.000000">R362W</text></g><line x1="417.346667" x2="417.346667" y1="59.000000" y2="87.000000" stroke="#BABDB6" stroke-width="2"/><a xlink:title="T368A"><circle cx="417.346667" cy="59.000000" r="4.000000" fill="#ff0000" /></a><g transform="translate(417.346667,59.000000) rotate(-30)"><text style="font-size:10px;font-family:OpenSans;fill:#555;" text-anchor="middle" x="0" y="-6.000000">T368A</text></g><line x1="426.093333" x2="426.093333" y1="59.000000" y2="87.000000" stroke="#BABDB6" stroke-width="2"/><a xlink:title="A376A"><circle cx="426.093333" cy="59.000000" r="4.000000" fill="#0000ff" /></a><g transform="translate(426.093333,59.000000) rotate(-30)"><text style="font-size:10px;font-family:OpenSans;fill:#555;" text-anchor="middle" x="0" y="-6.000000">A376A</text></g><line x1="434.840000" x2="434.840000" y1="46.500000" y2="87.000000" stroke="#BABDB6" stroke-width="2"/><a xlink:title="T384A"><circle cx="434.840000" cy="46.500000" r="4.000000" fill="#ff0000" /></a><g transform="translate(434.840000,46.500000) rotate(-30)"><text style="font-size:10px;font-family:OpenSans;fill:#555;" text-anchor="middle" x="0" y="-6.000000">T384A</text></g><line x1="437.026667" x2="437.026667" y1="59.000000" y2="87.000000" stroke="#BABDB6" stroke-width="2"/><a xlink:title="T386A"><circle cx="437.026667" cy="59.000000" r="4.000000" fill="#ff0000" /></a><g transform="translate(437.026667,59.000000) rotate(-30)"><text style="font-size:10px;font-family:OpenSans;fill:#555;" text-anchor="middle" x="0" y="-6.000000">T386A</text></g><line x1="443.586667" x2="443.586667" y1="34.000000" y2="87.000000" stroke="#BABDB6" stroke-width="2"/><a xlink:title="A392A"><circle cx="443.586667" cy="34.000000" r="4.000000" fill="#0000ff" /></a><g transform="translate(443.586667,34.000000) rotate(-30)"><text style="font-size:10px;font-family:OpenSans;fill:#555;" text-anchor="middle" x="0" y="-6.000000">A392A</text></g><line x1="445.773333" x2="445.773333" y1="59.000000" y2="87.000000" stroke="#BABDB6" stroke-width="2"/><a xlink:title="T394A"><circle cx="445.773333" cy="59.000000" r="4.000000" fill="#ff0000" /></a><g transform="translate(445.773333,59.000000) rotate(-30)"><text style="font-size:10px;font-family:OpenSans;fill:#555;" text-anchor="middle" x="0" y="-6.000000">T394A</text></g><line x1="445.773333" x2="445.773333" y1="46.500000" y2="87.000000" stroke="#BABDB6" stroke-width="2"/><a xlink:title="A394A"><circle cx="445.773333" cy="46.500000" r="4.000000" fill="#0000ff" /></a><g transform="translate(445.773333,46.500000) rotate(-30)"><text style="font-size:10px;font-family:OpenSans;fill:#555;" text-anchor="middle" x="0" y="-6.000000">A394A</text></g><line x1="454.520000" x2="454.520000" y1="59.000000" y2="87.000000" stroke="#BABDB6" stroke-width="2"/><a xlink:title="A402A"><circle cx="454.520000" cy="59.000000" r="4.000000" fill="#0000ff" /></a><g transform="translate(454.520000,59.000000) rotate(-30)"><text style="font-size:10px;font-family:OpenSans;fill:#555;" text-anchor="middle" x="0" y="-6.000000">A402A</text></g><line x1="463.266667" x2="463.266667" y1="46.500000" y2="87.000000" stroke="#BABDB6" stroke-width="2"/><a xlink:title="T410A"><circle cx="463.266667" cy="46.500000" r="4.000000" fill="#ff0000" /></a><g transform="translate(463.266667,46.500000) rotate(-30)"><text style="font-size:10px;font-family:OpenSans;fill:#555;" text-anchor="middle" x="0" y="-6.000000">T410A</text></g><line x1="465.453333" x2="465.453333" y1="59.000000" y2="87.000000" stroke="#BABDB6" stroke-width="2"/><a xlink:title="T412A"><circle cx="465.453333" cy="59.000000" r="4.000000" fill="#ff0000" /></a><g transform="translate(465.453333,59.000000) rotate(-30)"><text style="font-size:10px;font-family:OpenSans;fill:#555;" text-anchor="middle" x="0" y="-6.000000">T412A</text></g><line x1="472.013333" x2="472.013333" y1="46.500000" y2="87.000000" stroke="#BABDB6" stroke-width="2"/><a xlink:title="A418A"><circle cx="472.013333" cy="46.500000" r="4.000000" fill="#0000ff" /></a><g transform="translate(472.013333,46.500000) rotate(-30)"><text style="font-size:10px;font-family:OpenSans;fill:#555;" text-anchor="middle" x="0" y="-6.000000">A418A</text></g><line x1="474.200000" x2="474.200000" y1="59.000000" y2="87.000000" stroke="#BABDB6" stroke-width="2"/><a xlink:title="A420A"><circle cx="474.200000" cy="59.000000" r="4.000000" fill="#0000ff" /></a><g transform="translate(474.200000,59.000000) rotate(-30)"><text style="font-size:10px;font-family:OpenSans;fill:#555;" text-anchor="middle" x="0" y="-6.000000">A420A</text></g><line x1="482.946667" x2="482.946667" y1="59.000000" y2="87.000000" stroke="#BABDB6" stroke-width="2"/><a xlink:title="T428A"><circle cx="482.946667" cy="59.000000" r="4.000000" fill="#ff0000" /></a><g transform="translate(482.946667,59.000000) rotate(-30)"><text style="font-size:10px;font-family:OpenSans;fill:#555;" text-anchor="middle" x="0" y="-6.000000">T428A</text></g><line x1="491.693333" x2="491.693333" y1="59.000000" y2="87.000000" stroke="#BABDB6" stroke-width="2"/><a xlink:title="A436A"><circle cx="491.693333" cy="59.000000" r="4.000000" fill="#0000ff" /></a><g transform="translate(491.693333,59.000000) rotate(-30)"><text style="font-size:10px;font-family:OpenSans;fill:#555;" text-anchor="middle" x="0" y="-6.000000">A436A</text></g><a xlink:title=",  (439aa)"><rect fill="#BABDB6" x="15.000000" y="87.000000" width="479.973333" height="14.000000"/></a><g transform="translate(198.680000,82.000000)"><a xlink:href="https://www.ebi.ac.uk/interpro/entry/pfam/PF00076" xlink:title="RNA recognition motif"><rect fill="#2DCF00" x="0" y="0" width="69.973333" height="24.000000" filter="url(#ds)"/><text style="font-size:12px;font-family:OpenSans;fill:#ffffff;" text-anchor="middle" x="34.986667" y="16.000000">RRM_1</text></a></g>
<g transform="translate(304.733333,82.000000)"><a xlink:href="https://www.ebi.ac.uk/interpro/entry/pfam/PF00076" xlink:title="RNA recognition motif"><rect fill="#FF5353" x="0" y="0" width="75.440000" height="24.000000" filter="url(#ds)"/><text style="font-size:12px;font-family:OpenSans;fill:#ffffff;" text-anchor="middle" x="37.720000" y="16.000000">RRM_1</text></a></g>
<g transform="translate(411.880000,82.000000)"><a xlink:href="https://www.ebi.ac.uk/interpro/entry/pfam/PF15519" xlink:title="linker between RRM2 and RRM3 domains in RBM39 protein"><rect fill="#5B5BFF" x="0" y="0" width="82.000000" height="24.000000" filter="url(#ds)"/><text style="font-size:12px;font-family:OpenSans;fill:#ffffff;" text-anchor="middle" x="41.000000" y="16.000000">RBM39linker</text></a></g>
<g class="axis">
<line x1="15.000000" x2="494.973333" y1="116.000000" y2="116.000000" stroke="#AAAAAA" /><line x1="15.000000" x2="15.000000" y1="116.000000" y2="121.000000" stroke="#AAAAAA" /><line x1="15.000000" x2="15.000000" y1="116.000000" y2="121.000000" stroke="#AAAAAA" /><text style="font-size:10px;font-family:OpenSans;fill:#000000;" text-anchor="middle" x="15.000000" y="131.000000">0</text><line x1="40.146667" x2="40.146667" y1="116.000000" y2="121.000000" stroke="#AAAAAA" /><text style="font-size:10px;font-family:OpenSans;fill:#000000;" text-anchor="middle" x="40.146667" y="131.000000">23</text><line x1="62.013333" x2="62.013333" y1="116.000000" y2="121.000000" stroke="#AAAAAA" /><text style="font-size:10px;font-family:OpenSans;fill:#000000;" text-anchor="middle" x="62.013333" y="131.000000">43</text><line x1="81.693333" x2="81.693333" y1="116.000000" y2="121.000000" stroke="#AAAAAA" /><text style="font-size:10px;font-family:OpenSans;fill:#000000;" text-anchor="middle" x="81.693333" y="131.000000">61</text><line x1="110.120000" x2="110.120000" y1="116.000000" y2="121.000000" stroke="#AAAAAA" /><text style="font-size:10px;font-family:OpenSans;fill:#000000;" text-anchor="middle" x="110.120000" y="131.000000">87</text><line x1="176.813333" x2="176.813333" y1="116.000000" y2="121.000000" stroke="#AAAAAA" /><text style="font-size:10px;font-family:OpenSans;fill:#000000;" text-anchor="middle" x="176.813333" y="131.000000">148</text><line x1="208.520000" x2="208.520000" y1="116.000000" y2="121.000000" stroke="#AAAAAA" /><text style="font-size:10px;font-family:OpenSans;fill:#000000;" text-anchor="middle" x="208.520000" y="131.000000">177</text><line x1="228.200000" x2="228.200000" y1="116.000000" y2="121.000000" stroke="#AAAAAA" /><text style="font-size:10px;font-family:OpenSans;fill:#000000;" text-anchor="middle" x="228.200000" y="131.000000">195</text><line x1="248.973333" x2="248.973333" y1="116.000000" y2="121.000000" stroke="#AAAAAA" /><text style="font-size:10px;font-family:OpenSans;fill:#000000;" text-anchor="middle" x="248.973333" y="131.000000">214</text><line x1="274.120000" x2="274.120000" y1="116.000000" y2="121.000000" stroke="#AAAAAA" /><text style="font-size:10px;font-family:OpenSans;fill:#000000;" text-anchor="middle" x="274.120000" y="131.000000">237</text><line x1="304.733333" x2="304.733333" y1="116.000000" y2="121.000000" stroke="#AAAAAA" /><text style="font-size:10px;font-family:OpenSans;fill:#000000;" text-anchor="middle" x="304.733333" y="131.000000">265</text><line x1="325.506667" x2="325.506667" y1="116.000000" y2="121.000000" stroke="#AAAAAA" /><text style="font-size:10px;font-family:OpenSans;fill:#000000;" text-anchor="middle" x="325.506667" y="131.000000">284</text><line x1="345.186667" x2="345.186667" y1="116.000000" y2="121.000000" stroke="#AAAAAA" /><text style="font-size:10px;font-family:OpenSans;fill:#000000;" text-anchor="middle" x="345.186667" y="131.000000">302</text><line x1="364.866667" x2="364.866667" y1="116.000000" y2="121.000000" stroke="#AAAAAA" /><text style="font-size:10px;font-family:OpenSans;fill:#000000;" text-anchor="middle" x="364.866667" y="131.000000">320</text><line x1="391.106667" x2="391.106667" y1="116.000000" y2="121.000000" stroke="#AAAAAA" /><text style="font-size:10px;font-family:OpenSans;fill:#000000;" text-anchor="middle" x="391.106667" y="131.000000">344</text><line x1="410.786667" x2="410.786667" y1="116.000000" y2="121.000000" stroke="#AAAAAA" /><text style="font-size:10px;font-family:OpenSans;fill:#000000;" text-anchor="middle" x="410.786667" y="131.000000">362</text><line x1="434.840000" x2="434.840000" y1="116.000000" y2="121.000000" stroke="#AAAAAA" /><text style="font-size:10px;font-family:OpenSans;fill:#000000;" text-anchor="middle" x="434.840000" y="131.000000">384</text><line x1="454.520000" x2="454.520000" y1="116.000000" y2="121.000000" stroke="#AAAAAA" /><text style="font-size:10px;font-family:OpenSans;fill:#000000;" text-anchor="middle" x="454.520000" y="131.000000">402</text><line x1="474.200000" x2="474.200000" y1="116.000000" y2="121.000000" stroke="#AAAAAA" /><text style="font-size:10px;font-family:OpenSans;fill:#000000;" text-anchor="middle" x="474.200000" y="131.000000">420</text><line x1="494.973333" x2="494.973333" y1="116.000000" y2="121.000000" stroke="#AAAAAA" /><text style="font-size:10px;font-family:OpenSans;fill:#000000;" text-anchor="middle" x="494.973333" y="131.000000">439</text></g>
<rect fill="#FF5353" x="4" y="145.000000" width="12" height="12" filter="url(#ds)"/><text style="font-size:12px;font-family:OpenSans;fill:#000000;" text-anchor="start" x="20" y="157.000000">RNA recognition motif</text><rect fill="#5B5BFF" x="4" y="159.000000" width="12" height="12" filter="url(#ds)"/><text style="font-size:12px;font-family:OpenSans;fill:#000000;" text-anchor="start" x="20" y="171.000000">linker between RRM2 and RRM3 domains in RBM39 protein</text></svg>
