<?xml version='1.0'?>
<svg xmlns="http://www.w3.org/2000/svg" xmlns:xlink="http://www.w3.org/1999/xlink" width="1918.411765" height="159.400000">
<defs>
  <filter id="ds" x="0" y="0">
    <feOffset in="SourceAlpha" dx="2" dy="2" />
    <feComponentTransfer><feFuncA type="linear" slope="0.2"/></feComponentTransfer>
    <feGaussianBlur result="blurOut" stdDeviation="1" />
    <feBlend in="SourceGraphic" in2="blurOut" mode="normal" />
  </filter>
  <pattern id="disordered-hatch" patternUnits="userSpaceOnUse" width="4" height="4">
    <path d="M-1,1 l2,-2 M0,4 l4,-4 M3,5 l2,-2" stroke="#000000" opacity="0.3" />
  </pattern>
</defs>
<line x1="570.911765" x2="570.911765" y1="34.000000" y2="62.000000" stroke="#BABDB6" stroke-width="2"/><a xlink:title="P461P"><circle cx="570.911765" cy="34.000000" r="4.000000" fill="#0000ff" /></a><g transform="translate(570.911765,34.000000) rotate(-30)"><text style="font-size:10px;font-family:OpenSans;fill:#555;" text-anchor="middle" x="0" y="-6.000000">P461P</text></g><line x1="824.147059" x2="824.147059" y1="34.000000" y2="62.000000" stroke="#BABDB6" stroke-width="2"/><a xlink:title="P671P"><circle cx="824.147059" cy="34.000000" r="4.000000" fill="#0000ff" /></a><g transform="translate(824.147059,34.000000) rotate(-30)"><text style="font-size:10px;font-family:OpenSans;fill:#555;" text-anchor="middle" x="0" y="-6.000000">P671P</text></g><line x1="1238.970588" x2="1238.970588" y1="34.000000" y2="62.000000" stroke="#BABDB6" stroke-width="2"/><a xlink:title="P1015P"><circle cx="1238.970588" cy="34.000000" r="4.000000" fill="#0000ff" /></a><g transform="translate(1238.970588,34.000000) rotate(-30)"><text style="font-size:10px;font-family:OpenSans;fill:#555;" text-anchor="middle" x="0" y="-6.000000">P1015P</text></g><line x1="1492.205882" x2="1492.205882" y1="34.000000" y2="62.000000" stroke="#BABDB6" stroke-width="2"/><a xlink:title="P1225P"><circle cx="1492.205882" cy="34.000000" r="4.000000" fill="#0000ff" /></a><g transform="translate(1492.205882,34.000000) rotate(-30)"><text style="font-size:10px;font-family:OpenSans;fill:#555;" text-anchor="middle" x="0" y="-6.000000">P1225P</text></g><a xlink:title=",  (1566aa)"><rect fill="#BABDB6" x="15.000000" y="62.000000" width="1888.411765" height="14.000000"/></a><g transform="translate(140.411765,57.000000)"><a xlink:href="https://www.ebi.ac.uk/interpro/entry/pfam/PF01426" xlink:title="BAH domain"><rect fill="#2DCF00" x="0" y="0" width="213.441176" height="24.000000" filter="url(#ds)"/><text style="font-size:12px;font-family:OpenSans;fill:#ffffff;" text-anchor="middle" x="106.720588" y="16.000000">BAH domain</text></a></g>
<g transform="translate(359.882353,57.000000)"><a xlink:href="https://www.ebi.ac.uk/interpro/entry/pfam/PF01448" xlink:title="ELM2 domain"><rect fill="#FF5353" x="0" y="0" width="60.294118" height="24.000000" filter="url(#ds)"/><text style="font-size:12px;font-family:OpenSans;fill:#ffffff;" text-anchor="middle" x="30.147059" y="16.000000">ELM2</text></a></g>
<g transform="translate(626.382353,57.000000)"><a xlink:href="https://www.ebi.ac.uk/interpro/entry/pfam/PF00320" xlink:title="GATA zinc finger"><rect fill="#5B5BFF" x="0" y="0" width="41.000000" height="24.000000" filter="url(#ds)"/><text style="font-size:12px;font-family:OpenSans;fill:#ffffff;" text-anchor="middle" x="20.500000" y="16.000000">GATA</text></a></g>
<g transform="translate(699.941176,57.000000)"><a xlink:href="https://www.ebi.ac.uk/interpro/entry/pfam/PF03154" xlink:title="Atrophin-1 family"><rect fill="#EBD61D" x="0" y="0" width="1202.264706" height="24.000000" filter="url(#ds)"/><text style="font-size:12px;font-family:OpenSans;fill:#ffffff;" text-anchor="middle" x="601.132353" y="16.000000">Atrophin-1 family</text></a></g>
<g class="axis">
<line x1="15.000000" x2="1903.411765" y1="91.000000" y2="91.000000" stroke="#AAAAAA" /><line x1="15.000000" x2="15.000000" y1="91.000000" y2="96.000000" stroke="#AAAAAA" /><line x1="15.000000" x2="15.000000" y1="91.000000" y2="96.000000" stroke="#AAAAAA" /><text style="font-size:10px;font-family:OpenSans;fill:#000000;" text-anchor="middle" x="15.000000" y="106.000000">0</text><line x1="140.411765" x2="140.411765" y1="91.000000" y2="96.000000" stroke="#AAAAAA" /><text style="font-size:10px;font-family:OpenSans;fill:#000000;" text-anchor="middle" x="140.411765" y="106.000000">104</text><line x1="353.852941" x2="353.852941" y1="91.000000" y2="96.000000" stroke="#AAAAAA" /><text style="font-size:10px;font-family:OpenSans;fill:#000000;" text-anchor="middle" x="353.852941" y="106.000000">281</text><line x1="420.176471" x2="420.176471" y1="91.000000" y2="96.000000" stroke="#AAAAAA" /><text style="font-size:10px;font-family:OpenSans;fill:#000000;" text-anchor="middle" x="420.176471" y="106.000000">336</text><line x1="570.911765" x2="570.911765" y1="91.000000" y2="96.000000" stroke="#AAAAAA" /><text style="font-size:10px;font-family:OpenSans;fill:#000000;" text-anchor="middle" x="570.911765" y="106.000000">461</text><line x1="626.382353" x2="626.382353" y1="91.000000" y2="96.000000" stroke="#AAAAAA" /><text style="font-size:10px;font-family:OpenSans;fill:#000000;" text-anchor="middle" x="626.382353" y="106.000000">507</text><line x1="667.382353" x2="667.382353" y1="91.000000" y2="96.000000" stroke="#AAAAAA" /><text style="font-size:10px;font-family:OpenSans;fill:#000000;" text-anchor="middle" x="667.382353" y="106.000000">541</text><line x1="699.941176" x2="699.941176" y1="91.000000" y2="96.000000" stroke="#AAAAAA" /><text style="font-size:10px;font-family:OpenSans;fill:#000000;" text-anchor="middle" x="699.941176" y="106.000000">568</text><line x1="824.147059" x2="824.147059" y1="91.000000" y2="96.000000" stroke="#AAAAAA" /><text style="font-size:10px;font-family:OpenSans;fill:#000000;" text-anchor="middle" x="824.147059" y="106.000000">671</text><line x1="1238.970588" x2="1238.970588" y1="91.000000" y2="96.000000" stroke="#AAAAAA" /><text style="font-size:10px;font-family:OpenSans;fill:#000000;" text-anchor="middle" x="1238.970588" y="106.000000">1015</text><line x1="1492.205882" x2="1492.205882" y1="91.000000" y2="96.000000" stroke="#AAAAAA" /><text style="font-size:10px;font-family:OpenSans;fill:#000000;" text-anchor="middle" x="1492.205882" y="106.000000">1225</text><line x1="1903.411765" x2="1903.411765" y1="91.000000" y2="96.000000" stroke="#AAAAAA" /><text style="font-size:10px;font-family:OpenSans;fill:#000000;" text-anchor="middle" x="1903.411765" y="106.000000">1566</text></g>
<rect fill="#5B5BFF" x="4" y="120.000000" width="12" height="12" filter="url(#ds)"/><text style="font-size:12px;font-family:OpenSans;fill:#000000;" text-anchor="start" x="20" y="132.000000">GATA zinc finger</text><rect fill="#FF5353" x="4" y="134.000000" width="12" height="12" filter="url(#ds)"/><text style="font-size:12px;font-family:OpenSans;fill:#000000;" text-anchor="start" x="20" y="146.000000">ELM2 domain</text></svg>
