<?xml version='1.0'?>
<svg xmlns="http://www.w3.org/2000/svg" xmlns:xlink="http://www.w3.org/1999/xlink" width="562.543860" height="210.800000">
<defs>
  <filter id="ds" x="0" y="0">
    <feOffset in="SourceAlpha" dx="2" dy="2" />
    <feComponentTransfer><feFuncA type="linear" slope="0.2"/></feComponentTransfer>
    <feGaussianBlur result="blurOut" stdDeviation="1" />
    <feBlend in="SourceGraphic" in2="blurOut" mode="normal" />
  </filter>
  <pattern id="disordered-hatch" patternUnits="userSpaceOnUse" width="4" height="4">
    <path d="M-1,1 l2,-2 M0,4 l4,-4 M3,5 l2,-2" stroke="#000000" opacity="0.3" />
  </pattern>
</defs>
<line x1="29.824561" x2="29.824561" y1="59.000000" y2="87.000000" stroke="#BABDB6" stroke-width="2"/><a xlink:title="R13R"><circle cx="29.824561" cy="59.000000" r="4.000000" fill="#0000ff" /></a><g transform="translate(29.824561,59.000000) rotate(-30)"><text style="font-size:10px;font-family:OpenSans;fill:#555;" text-anchor="middle" x="0" y="-6.000000">R13R</text></g><line x1="67.456140" x2="67.456140" y1="46.500000" y2="87.000000" stroke="#BABDB6" stroke-width="2"/><a xlink:title="D46D"><circle cx="67.456140" cy="46.500000" r="4.000000" fill="#0000ff" /></a><g transform="translate(67.456140,46.500000) rotate(-30)"><text style="font-size:10px;font-family:OpenSans;fill:#555;" text-anchor="middle" x="0" y="-6.000000">D46D</text></g><line x1="68.596491" x2="68.596491" y1="59.000000" y2="87.000000" stroke="#BABDB6" stroke-width="2"/><a xlink:title="S47S"><circle cx="68.596491" cy="59.000000" r="4.000000" fill="#0000ff" /></a><g transform="translate(68.596491,59.000000) rotate(-30)"><text style="font-size:10px;font-family:OpenSans;fill:#555;" text-anchor="middle" x="0" y="-6.000000">S47S</text></g><line x1="92.543860" x2="92.543860" y1="59.000000" y2="87.000000" stroke="#BABDB6" stroke-width="2"/><a xlink:title="S68S"><circle cx="92.543860" cy="59.000000" r="4.000000" fill="#0000ff" /></a><g transform="translate(92.543860,59.000000) rotate(-30)"><text style="font-size:10px;font-family:OpenSans;fill:#555;" text-anchor="middle" x="0" y="-6.000000">S68S</text></g><line x1="135.877193" x2="135.877193" y1="59.000000" y2="87.000000" stroke="#BABDB6" stroke-width="2"/><a xlink:title="V106A"><circle cx="135.877193" cy="59.000000" r="4.000000" fill="#ff0000" /></a><g transform="translate(135.877193,59.000000) rotate(-30)"><text style="font-size:10px;font-family:OpenSans;fill:#555;" text-anchor="middle" x="0" y="-6.000000">V106A</text></g><line x1="150.701754" x2="150.701754" y1="59.000000" y2="87.000000" stroke="#BABDB6" stroke-width="2"/><a xlink:title="D119D"><circle cx="150.701754" cy="59.000000" r="4.000000" fill="#0000ff" /></a><g transform="translate(150.701754,59.000000) rotate(-30)"><text style="font-size:10px;font-family:OpenSans;fill:#555;" text-anchor="middle" x="0" y="-6.000000">D119D</text></g><line x1="159.824561" x2="159.824561" y1="46.500000" y2="87.000000" stroke="#BABDB6" stroke-width="2"/><a xlink:title="V127A"><circle cx="159.824561" cy="46.500000" r="4.000000" fill="#ff0000" /></a><g transform="translate(159.824561,46.500000) rotate(-30)"><text style="font-size:10px;font-family:OpenSans;fill:#555;" text-anchor="middle" x="0" y="-6.000000">V127A</text></g><line x1="162.105263" x2="162.105263" y1="59.000000" y2="87.000000" stroke="#BABDB6" stroke-width="2"/><a xlink:title="D129D"><circle cx="162.105263" cy="59.000000" r="4.000000" fill="#0000ff" /></a><g transform="translate(162.105263,59.000000) rotate(-30)"><text style="font-size:10px;font-family:OpenSans;fill:#555;" text-anchor="middle" x="0" y="-6.000000">D129D</text></g><line x1="174.649123" x2="174.649123" y1="59.000000" y2="87.000000" stroke="#BABDB6" stroke-width="2"/><a xlink:title="D140D"><circle cx="174.649123" cy="59.000000" r="4.000000" fill="#0000ff" /></a><g transform="translate(174.649123,59.000000) rotate(-30)"><text style="font-size:10px;font-family:OpenSans;fill:#555;" text-anchor="middle" x="0" y="-6.000000">D140D</text></g><line x1="187.192982" x2="187.192982" y1="59.000000" y2="87.000000" stroke="#BABDB6" stroke-width="2"/><a xlink:title="D151D"><circle cx="187.192982" cy="59.000000" r="4.000000" fill="#0000ff" /></a><g transform="translate(187.192982,59.000000) rotate(-30)"><text style="font-size:10px;font-family:OpenSans;fill:#555;" text-anchor="middle" x="0" y="-6.000000">D151D</text></g><line x1="205.438596" x2="205.438596" y1="46.500000" y2="87.000000" stroke="#BABDB6" stroke-width="2"/><a xlink:title="V167M"><circle cx="205.438596" cy="46.500000" r="4.000000" fill="#ff0000" /></a><g transform="translate(205.438596,46.500000) rotate(-30)"><text style="font-size:10px;font-family:OpenSans;fill:#555;" text-anchor="middle" x="0" y="-6.000000">V167M</text></g><line x1="211.140351" x2="211.140351" y1="59.000000" y2="87.000000" stroke="#BABDB6" stroke-width="2"/><a xlink:title="D172D"><circle cx="211.140351" cy="59.000000" r="4.000000" fill="#0000ff" /></a><g transform="translate(211.140351,59.000000) rotate(-30)"><text style="font-size:10px;font-family:OpenSans;fill:#555;" text-anchor="middle" x="0" y="-6.000000">D172D</text></g><line x1="225.964912" x2="225.964912" y1="59.000000" y2="87.000000" stroke="#BABDB6" stroke-width="2"/><a xlink:title="I185I"><circle cx="225.964912" cy="59.000000" r="4.000000" fill="#0000ff" /></a><g transform="translate(225.964912,59.000000) rotate(-30)"><text style="font-size:10px;font-family:OpenSans;fill:#555;" text-anchor="middle" x="0" y="-6.000000">I185I</text></g><line x1="278.421053" x2="278.421053" y1="59.000000" y2="87.000000" stroke="#BABDB6" stroke-width="2"/><a xlink:title="K231R"><circle cx="278.421053" cy="59.000000" r="4.000000" fill="#ff0000" /></a><g transform="translate(278.421053,59.000000) rotate(-30)"><text style="font-size:10px;font-family:OpenSans;fill:#555;" text-anchor="middle" x="0" y="-6.000000">K231R</text></g><line x1="286.403509" x2="286.403509" y1="46.500000" y2="87.000000" stroke="#BABDB6" stroke-width="2"/><a xlink:title="S238R"><circle cx="286.403509" cy="46.500000" r="4.000000" fill="#ff0000" /></a><g transform="translate(286.403509,46.500000) rotate(-30)"><text style="font-size:10px;font-family:OpenSans;fill:#555;" text-anchor="middle" x="0" y="-6.000000">S238R</text></g><line x1="292.105263" x2="292.105263" y1="59.000000" y2="87.000000" stroke="#BABDB6" stroke-width="2"/><a xlink:title="M243T"><circle cx="292.105263" cy="59.000000" r="4.000000" fill="#ff0000" /></a><g transform="translate(292.105263,59.000000) rotate(-30)"><text style="font-size:10px;font-family:OpenSans;fill:#555;" text-anchor="middle" x="0" y="-6.000000">M243T</text></g><line x1="308.070175" x2="308.070175" y1="59.000000" y2="87.000000" stroke="#BABDB6" stroke-width="2"/><a xlink:title="V257M"><circle cx="308.070175" cy="59.000000" r="4.000000" fill="#ff0000" /></a><g transform="translate(308.070175,59.000000) rotate(-30)"><text style="font-size:10px;font-family:OpenSans;fill:#555;" text-anchor="middle" x="0" y="-6.000000">V257M</text></g><line x1="322.894737" x2="322.894737" y1="46.500000" y2="87.000000" stroke="#BABDB6" stroke-width="2"/><a xlink:title="S270R"><circle cx="322.894737" cy="46.500000" r="4.000000" fill="#ff0000" /></a><g transform="translate(322.894737,46.500000) rotate(-30)"><text style="font-size:10px;font-family:OpenSans;fill:#555;" text-anchor="middle" x="0" y="-6.000000">S270R</text></g><line x1="328.596491" x2="328.596491" y1="59.000000" y2="87.000000" stroke="#BABDB6" stroke-width="2"/><a xlink:title="I275I"><circle cx="328.596491" cy="59.000000" r="4.000000" fill="#0000ff" /></a><g transform="translate(328.596491,59.000000) rotate(-30)"><text style="font-size:10px;font-family:OpenSans;fill:#555;" text-anchor="middle" x="0" y="-6.000000">I275I</text></g><line x1="343.421053" x2="343.421053" y1="59.000000" y2="87.000000" stroke="#BABDB6" stroke-width="2"/><a xlink:title="A288G"><circle cx="343.421053" cy="59.000000" r="4.000000" fill="#ff0000" /></a><g transform="translate(343.421053,59.000000) rotate(-30)"><text style="font-size:10px;font-family:OpenSans;fill:#555;" text-anchor="middle" x="0" y="-6.000000">A288G</text></g><line x1="381.052632" x2="381.052632" y1="46.500000" y2="87.000000" stroke="#BABDB6" stroke-width="2"/><a xlink:title="K321R"><circle cx="381.052632" cy="46.500000" r="4.000000" fill="#ff0000" /></a><g transform="translate(381.052632,46.500000) rotate(-30)"><text style="font-size:10px;font-family:OpenSans;fill:#555;" text-anchor="middle" x="0" y="-6.000000">K321R</text></g><line x1="384.473684" x2="384.473684" y1="59.000000" y2="87.000000" stroke="#BABDB6" stroke-width="2"/><a xlink:title="S324S"><circle cx="384.473684" cy="59.000000" r="4.000000" fill="#0000ff" /></a><g transform="translate(384.473684,59.000000) rotate(-30)"><text style="font-size:10px;font-family:OpenSans;fill:#555;" text-anchor="middle" x="0" y="-6.000000">S324S</text></g><line x1="391.315789" x2="391.315789" y1="46.500000" y2="87.000000" stroke="#BABDB6" stroke-width="2"/><a xlink:title="V330M"><circle cx="391.315789" cy="46.500000" r="4.000000" fill="#ff0000" /></a><g transform="translate(391.315789,46.500000) rotate(-30)"><text style="font-size:10px;font-family:OpenSans;fill:#555;" text-anchor="middle" x="0" y="-6.000000">V330M</text></g><line x1="394.736842" x2="394.736842" y1="59.000000" y2="87.000000" stroke="#BABDB6" stroke-width="2"/><a xlink:title="M333T"><circle cx="394.736842" cy="59.000000" r="4.000000" fill="#ff0000" /></a><g transform="translate(394.736842,59.000000) rotate(-30)"><text style="font-size:10px;font-family:OpenSans;fill:#555;" text-anchor="middle" x="0" y="-6.000000">M333T</text></g><line x1="402.719298" x2="402.719298" y1="59.000000" y2="87.000000" stroke="#BABDB6" stroke-width="2"/><a xlink:title="V340M"><circle cx="402.719298" cy="59.000000" r="4.000000" fill="#ff0000" /></a><g transform="translate(402.719298,59.000000) rotate(-30)"><text style="font-size:10px;font-family:OpenSans;fill:#555;" text-anchor="middle" x="0" y="-6.000000">V340M</text></g><line x1="411.842105" x2="411.842105" y1="46.500000" y2="87.000000" stroke="#BABDB6" stroke-width="2"/><a xlink:title="I348I"><circle cx="411.842105" cy="46.500000" r="4.000000" fill="#0000ff" /></a><g transform="translate(411.842105,46.500000) rotate(-30)"><text style="font-size:10px;font-family:OpenSans;fill:#555;" text-anchor="middle" x="0" y="-6.000000">I348I</text></g><line x1="415.263158" x2="415.263158" y1="59.000000" y2="87.000000" stroke="#BABDB6" stroke-width="2"/><a xlink:title="V351M"><circle cx="415.263158" cy="59.000000" r="4.000000" fill="#ff0000" /></a><g transform="translate(415.263158,59.000000) rotate(-30)"><text style="font-size:10px;font-family:OpenSans;fill:#555;" text-anchor="middle" x="0" y="-6.000000">V351M</text></g><line x1="423.245614" x2="423.245614" y1="46.500000" y2="87.000000" stroke="#BABDB6" stroke-width="2"/><a xlink:title="I358I"><circle cx="423.245614" cy="46.500000" r="4.000000" fill="#0000ff" /></a><g transform="translate(423.245614,46.500000) rotate(-30)"><text style="font-size:10px;font-family:OpenSans;fill:#555;" text-anchor="middle" x="0" y="-6.000000">I358I</text></g><line x1="427.807018" x2="427.807018" y1="59.000000" y2="87.000000" stroke="#BABDB6" stroke-width="2"/><a xlink:title="V362M"><circle cx="427.807018" cy="59.000000" r="4.000000" fill="#ff0000" /></a><g transform="translate(427.807018,59.000000) rotate(-30)"><text style="font-size:10px;font-family:OpenSans;fill:#555;" text-anchor="middle" x="0" y="-6.000000">V362M</text></g><line x1="435.789474" x2="435.789474" y1="59.000000" y2="87.000000" stroke="#BABDB6" stroke-width="2"/><a xlink:title="I369I"><circle cx="435.789474" cy="59.000000" r="4.000000" fill="#0000ff" /></a><g transform="translate(435.789474,59.000000) rotate(-30)"><text style="font-size:10px;font-family:OpenSans;fill:#555;" text-anchor="middle" x="0" y="-6.000000">I369I</text></g><line x1="448.333333" x2="448.333333" y1="46.500000" y2="87.000000" stroke="#BABDB6" stroke-width="2"/><a xlink:title="I380I"><circle cx="448.333333" cy="46.500000" r="4.000000" fill="#0000ff" /></a><g transform="translate(448.333333,46.500000) rotate(-30)"><text style="font-size:10px;font-family:OpenSans;fill:#555;" text-anchor="middle" x="0" y="-6.000000">I380I</text></g><line x1="451.754386" x2="451.754386" y1="46.500000" y2="87.000000" stroke="#BABDB6" stroke-width="2"/><a xlink:title="V383M"><circle cx="451.754386" cy="46.500000" r="4.000000" fill="#ff0000" /></a><g transform="translate(451.754386,46.500000) rotate(-30)"><text style="font-size:10px;font-family:OpenSans;fill:#555;" text-anchor="middle" x="0" y="-6.000000">V383M</text></g><line x1="457.456140" x2="457.456140" y1="59.000000" y2="87.000000" stroke="#BABDB6" stroke-width="2"/><a xlink:title="W388*"><circle cx="457.456140" cy="59.000000" r="4.000000" fill="#0000ff" /></a><g transform="translate(457.456140,59.000000) rotate(-30)"><text style="font-size:10px;font-family:OpenSans;fill:#555;" text-anchor="middle" x="0" y="-6.000000">W388*</text></g><line x1="464.298246" x2="464.298246" y1="59.000000" y2="87.000000" stroke="#BABDB6" stroke-width="2"/><a xlink:title="K394R"><circle cx="464.298246" cy="59.000000" r="4.000000" fill="#ff0000" /></a><g transform="translate(464.298246,59.000000) rotate(-30)"><text style="font-size:10px;font-family:OpenSans;fill:#555;" text-anchor="middle" x="0" y="-6.000000">K394R</text></g><line x1="472.280702" x2="472.280702" y1="34.000000" y2="87.000000" stroke="#BABDB6" stroke-width="2"/><a xlink:title="I401I"><circle cx="472.280702" cy="34.000000" r="4.000000" fill="#0000ff" /></a><g transform="translate(472.280702,34.000000) rotate(-30)"><text style="font-size:10px;font-family:OpenSans;fill:#555;" text-anchor="middle" x="0" y="-6.000000">I401I</text></g><line x1="475.701754" x2="475.701754" y1="34.000000" y2="87.000000" stroke="#BABDB6" stroke-width="2"/><a xlink:title="K404R"><circle cx="475.701754" cy="34.000000" r="4.000000" fill="#ff0000" /></a><g transform="translate(475.701754,34.000000) rotate(-30)"><text style="font-size:10px;font-family:OpenSans;fill:#555;" text-anchor="middle" x="0" y="-6.000000">K404R</text></g><line x1="477.982456" x2="477.982456" y1="46.500000" y2="87.000000" stroke="#BABDB6" stroke-width="2"/><a xlink:title="M406T"><circle cx="477.982456" cy="46.500000" r="4.000000" fill="#ff0000" /></a><g transform="translate(477.982456,46.500000) rotate(-30)"><text style="font-size:10px;font-family:OpenSans;fill:#555;" text-anchor="middle" x="0" y="-6.000000">M406T</text></g><line x1="479.122807" x2="479.122807" y1="59.000000" y2="87.000000" stroke="#BABDB6" stroke-width="2"/><a xlink:title="S407*"><circle cx="479.122807" cy="59.000000" r="4.000000" fill="#0000ff" /></a><g transform="translate(479.122807,59.000000) rotate(-30)"><text style="font-size:10px;font-family:OpenSans;fill:#555;" text-anchor="middle" x="0" y="-6.000000">S407*</text></g><line x1="488.245614" x2="488.245614" y1="46.500000" y2="87.000000" stroke="#BABDB6" stroke-width="2"/><a xlink:title="K415R"><circle cx="488.245614" cy="46.500000" r="4.000000" fill="#ff0000" /></a><g transform="translate(488.245614,46.500000) rotate(-30)"><text style="font-size:10px;font-family:OpenSans;fill:#555;" text-anchor="middle" x="0" y="-6.000000">K415R</text></g><line x1="489.385965" x2="489.385965" y1="59.000000" y2="87.000000" stroke="#BABDB6" stroke-width="2"/><a xlink:title="M416T"><circle cx="489.385965" cy="59.000000" r="4.000000" fill="#ff0000" /></a><g transform="translate(489.385965,59.000000) rotate(-30)"><text style="font-size:10px;font-family:OpenSans;fill:#555;" text-anchor="middle" x="0" y="-6.000000">M416T</text></g><line x1="500.789474" x2="500.789474" y1="46.500000" y2="87.000000" stroke="#BABDB6" stroke-width="2"/><a xlink:title="K426R"><circle cx="500.789474" cy="46.500000" r="4.000000" fill="#ff0000" /></a><g transform="translate(500.789474,46.500000) rotate(-30)"><text style="font-size:10px;font-family:OpenSans;fill:#555;" text-anchor="middle" x="0" y="-6.000000">K426R</text></g><line x1="501.929825" x2="501.929825" y1="59.000000" y2="87.000000" stroke="#BABDB6" stroke-width="2"/><a xlink:title="M427T"><circle cx="501.929825" cy="59.000000" r="4.000000" fill="#ff0000" /></a><g transform="translate(501.929825,59.000000) rotate(-30)"><text style="font-size:10px;font-family:OpenSans;fill:#555;" text-anchor="middle" x="0" y="-6.000000">M427T</text></g><line x1="514.473684" x2="514.473684" y1="59.000000" y2="87.000000" stroke="#BABDB6" stroke-width="2"/><a xlink:title="M438T"><circle cx="514.473684" cy="59.000000" r="4.000000" fill="#ff0000" /></a><g transform="translate(514.473684,59.000000) rotate(-30)"><text style="font-size:10px;font-family:OpenSans;fill:#555;" text-anchor="middle" x="0" y="-6.000000">M438T</text></g><line x1="524.736842" x2="524.736842" y1="59.000000" y2="87.000000" stroke="#BABDB6" stroke-width="2"/><a xlink:title="K447R"><circle cx="524.736842" cy="59.000000" r="4.000000" fill="#ff0000" /></a><g transform="translate(524.736842,59.000000) rotate(-30)"><text style="font-size:10px;font-family:OpenSans;fill:#555;" text-anchor="middle" x="0" y="-6.000000">K447R</text></g><line x1="538.421053" x2="538.421053" y1="59.000000" y2="87.000000" stroke="#BABDB6" stroke-width="2"/><a xlink:title="M459T"><circle cx="538.421053" cy="59.000000" r="4.000000" fill="#ff0000" /></a><g transform="translate(538.421053,59.000000) rotate(-30)"><text style="font-size:10px;font-family:OpenSans;fill:#555;" text-anchor="middle" x="0" y="-6.000000">M459T</text></g><a xlink:title=",  (467aa)"><rect fill="#BABDB6" x="15.000000" y="87.000000" width="532.543860" height="14.000000"/></a><g transform="translate(54.912281,82.000000)"><a xlink:href="https://www.ebi.ac.uk/interpro/entry/pfam/PF00610" xlink:title="Domain found in Dishevelled, Egl-10, and Pleckstrin (DEP)"><rect fill="#2DCF00" x="0" y="0" width="79.824561" height="24.000000" filter="url(#ds)"/><text style="font-size:12px;font-family:OpenSans;fill:#ffffff;" text-anchor="middle" x="39.912281" y="16.000000">DEP</text></a></g>
<g transform="translate(138.157895,82.000000)"><a xlink:href="https://www.ebi.ac.uk/interpro/entry/pfam/PF18148" xlink:title="Regulator of G-protein signalling DHEX domain"><rect fill="#FF5353" x="0" y="0" width="111.754386" height="24.000000" filter="url(#ds)"/><text style="font-size:12px;font-family:OpenSans;fill:#ffffff;" text-anchor="middle" x="55.877193" y="16.000000">RGS_DHEX</text></a></g>
<g transform="translate(273.859649,82.000000)"><a xlink:href="https://www.ebi.ac.uk/interpro/entry/pfam/PF00631" xlink:title="GGL domain"><rect fill="#5B5BFF" x="0" y="0" width="65.000000" height="24.000000" filter="url(#ds)"/><text style="font-size:12px;font-family:OpenSans;fill:#ffffff;" text-anchor="middle" x="32.500000" y="16.000000">G-gamma</text></a></g>
<g transform="translate(360.526316,82.000000)"><a xlink:href="https://www.ebi.ac.uk/interpro/entry/pfam/PF00615" xlink:title="Regulator of G protein signaling domain"><rect fill="#EBD61D" x="0" y="0" width="128.859649" height="24.000000" filter="url(#ds)"/><text style="font-size:12px;font-family:OpenSans;fill:#ffffff;" text-anchor="middle" x="64.429825" y="16.000000">RGS</text></a></g>
<g class="axis">
<line x1="15.000000" x2="547.543860" y1="116.000000" y2="116.000000" stroke="#AAAAAA" /><line x1="15.000000" x2="15.000000" y1="116.000000" y2="121.000000" stroke="#AAAAAA" /><line x1="29.824561" x2="29.824561" y1="116.000000" y2="121.000000" stroke="#AAAAAA" /><text style="font-size:10px;font-family:OpenSans;fill:#000000;" text-anchor="middle" x="29.824561" y="131.000000">13</text><line x1="67.456140" x2="67.456140" y1="116.000000" y2="121.000000" stroke="#AAAAAA" /><text style="font-size:10px;font-family:OpenSans;fill:#000000;" text-anchor="middle" x="67.456140" y="131.000000">46</text><line x1="92.543860" x2="92.543860" y1="116.000000" y2="121.000000" stroke="#AAAAAA" /><text style="font-size:10px;font-family:OpenSans;fill:#000000;" text-anchor="middle" x="92.543860" y="131.000000">68</text><line x1="135.877193" x2="135.877193" y1="116.000000" y2="121.000000" stroke="#AAAAAA" /><text style="font-size:10px;font-family:OpenSans;fill:#000000;" text-anchor="middle" x="135.877193" y="131.000000">106</text><line x1="159.824561" x2="159.824561" y1="116.000000" y2="121.000000" stroke="#AAAAAA" /><text style="font-size:10px;font-family:OpenSans;fill:#000000;" text-anchor="middle" x="159.824561" y="131.000000">127</text><line x1="187.192982" x2="187.192982" y1="116.000000" y2="121.000000" stroke="#AAAAAA" /><text style="font-size:10px;font-family:OpenSans;fill:#000000;" text-anchor="middle" x="187.192982" y="131.000000">151</text><line x1="211.140351" x2="211.140351" y1="116.000000" y2="121.000000" stroke="#AAAAAA" /><text style="font-size:10px;font-family:OpenSans;fill:#000000;" text-anchor="middle" x="211.140351" y="131.000000">172</text><line x1="249.912281" x2="249.912281" y1="116.000000" y2="121.000000" stroke="#AAAAAA" /><text style="font-size:10px;font-family:OpenSans;fill:#000000;" text-anchor="middle" x="249.912281" y="131.000000">206</text><line x1="278.421053" x2="278.421053" y1="116.000000" y2="121.000000" stroke="#AAAAAA" /><text style="font-size:10px;font-family:OpenSans;fill:#000000;" text-anchor="middle" x="278.421053" y="131.000000">231</text><line x1="308.070175" x2="308.070175" y1="116.000000" y2="121.000000" stroke="#AAAAAA" /><text style="font-size:10px;font-family:OpenSans;fill:#000000;" text-anchor="middle" x="308.070175" y="131.000000">257</text><line x1="328.596491" x2="328.596491" y1="116.000000" y2="121.000000" stroke="#AAAAAA" /><text style="font-size:10px;font-family:OpenSans;fill:#000000;" text-anchor="middle" x="328.596491" y="131.000000">275</text><line x1="360.526316" x2="360.526316" y1="116.000000" y2="121.000000" stroke="#AAAAAA" /><text style="font-size:10px;font-family:OpenSans;fill:#000000;" text-anchor="middle" x="360.526316" y="131.000000">303</text><line x1="381.052632" x2="381.052632" y1="116.000000" y2="121.000000" stroke="#AAAAAA" /><text style="font-size:10px;font-family:OpenSans;fill:#000000;" text-anchor="middle" x="381.052632" y="131.000000">321</text><line x1="402.719298" x2="402.719298" y1="116.000000" y2="121.000000" stroke="#AAAAAA" /><text style="font-size:10px;font-family:OpenSans;fill:#000000;" text-anchor="middle" x="402.719298" y="131.000000">340</text><line x1="423.245614" x2="423.245614" y1="116.000000" y2="121.000000" stroke="#AAAAAA" /><text style="font-size:10px;font-family:OpenSans;fill:#000000;" text-anchor="middle" x="423.245614" y="131.000000">358</text><line x1="448.333333" x2="448.333333" y1="116.000000" y2="121.000000" stroke="#AAAAAA" /><text style="font-size:10px;font-family:OpenSans;fill:#000000;" text-anchor="middle" x="448.333333" y="131.000000">380</text><line x1="472.280702" x2="472.280702" y1="116.000000" y2="121.000000" stroke="#AAAAAA" /><text style="font-size:10px;font-family:OpenSans;fill:#000000;" text-anchor="middle" x="472.280702" y="131.000000">401</text><line x1="500.789474" x2="500.789474" y1="116.000000" y2="121.000000" stroke="#AAAAAA" /><text style="font-size:10px;font-family:OpenSans;fill:#000000;" text-anchor="middle" x="500.789474" y="131.000000">426</text><line x1="524.736842" x2="524.736842" y1="116.000000" y2="121.000000" stroke="#AAAAAA" /><text style="font-size:10px;font-family:OpenSans;fill:#000000;" text-anchor="middle" x="524.736842" y="131.000000">447</text><line x1="547.543860" x2="547.543860" y1="116.000000" y2="121.000000" stroke="#AAAAAA" /><text style="font-size:10px;font-family:OpenSans;fill:#000000;" text-anchor="middle" x="547.543860" y="131.000000">467</text></g>
<rect fill="#FF5353" x="4" y="145.000000" width="12" height="12" filter="url(#ds)"/><text style="font-size:12px;font-family:OpenSans;fill:#000000;" text-anchor="start" x="20" y="157.000000">Regulator of G-protein signalling DHEX domain</text><rect fill="#5B5BFF" x="4" y="159.000000" width="12" height="12" filter="url(#ds)"/><text style="font-size:12px;font-family:OpenSans;fill:#000000;" text-anchor="start" x="20" y="171.000000">GGL domain</text><rect fill="#EBD61D" x="4" y="173.000000" width="12" height="12" filter="url(#ds)"/><text style="font-size:12px;font-family:OpenSans;fill:#000000;" text-anchor="start" x="20" y="185.000000">Regulator of G protein signaling domain</text><rect fill="#2DCF00" x="4" y="187.000000" width="12" height="12" filter="url(#ds)"/><text style="font-size:12px;font-family:OpenSans;fill:#000000;" text-anchor="start" x="20" y="199.000000">Domain found in Dishevelled, Egl-10, and Pleckstrin (DEP)</text></svg>
