<?xml version='1.0'?>
<svg xmlns="http://www.w3.org/2000/svg" xmlns:xlink="http://www.w3.org/1999/xlink" width="532.950820" height="210.800000">
<defs>
  <filter id="ds" x="0" y="0">
    <feOffset in="SourceAlpha" dx="2" dy="2" />
    <feComponentTransfer><feFuncA type="linear" slope="0.2"/></feComponentTransfer>
    <feGaussianBlur result="blurOut" stdDeviation="1" />
    <feBlend in="SourceGraphic" in2="blurOut" mode="normal" />
  </filter>
  <pattern id="disordered-hatch" patternUnits="userSpaceOnUse" width="4" height="4">
    <path d="M-1,1 l2,-2 M0,4 l4,-4 M3,5 l2,-2" stroke="#000000" opacity="0.3" />
  </pattern>
</defs>
<line x1="365.573770" x2="365.573770" y1="59.000000" y2="87.000000" stroke="#BABDB6" stroke-width="2"/><a xlink:title="V329I"><circle cx="365.573770" cy="59.000000" r="4.000000" fill="#ff0000" /></a><g transform="translate(365.573770,59.000000) rotate(-30)"><text style="font-size:10px;font-family:OpenSans;fill:#555;" text-anchor="middle" x="0" y="-6.000000">V329I</text></g><line x1="445.491803" x2="445.491803" y1="59.000000" y2="87.000000" stroke="#BABDB6" stroke-width="2"/><a xlink:title="V404I"><circle cx="445.491803" cy="59.000000" r="4.000000" fill="#ff0000" /></a><g transform="translate(445.491803,59.000000) rotate(-30)"><text style="font-size:10px;font-family:OpenSans;fill:#555;" text-anchor="middle" x="0" y="-6.000000">V404I</text></g><line x1="472.131148" x2="472.131148" y1="59.000000" y2="87.000000" stroke="#BABDB6" stroke-width="2"/><a xlink:title="S429S"><circle cx="472.131148" cy="59.000000" r="4.000000" fill="#0000ff" /></a><g transform="translate(472.131148,59.000000) rotate(-30)"><text style="font-size:10px;font-family:OpenSans;fill:#555;" text-anchor="middle" x="0" y="-6.000000">S429S</text></g><line x1="489.180328" x2="489.180328" y1="59.000000" y2="87.000000" stroke="#BABDB6" stroke-width="2"/><a xlink:title="V445I"><circle cx="489.180328" cy="59.000000" r="4.000000" fill="#ff0000" /></a><g transform="translate(489.180328,59.000000) rotate(-30)"><text style="font-size:10px;font-family:OpenSans;fill:#555;" text-anchor="middle" x="0" y="-6.000000">V445I</text></g><line x1="520.081967" x2="520.081967" y1="46.500000" y2="87.000000" stroke="#BABDB6" stroke-width="2"/><a xlink:title="V474I"><circle cx="520.081967" cy="46.500000" r="4.000000" fill="#ff0000" /></a><g transform="translate(520.081967,46.500000) rotate(-30)"><text style="font-size:10px;font-family:OpenSans;fill:#555;" text-anchor="middle" x="0" y="-6.000000">V474I</text></g><line x1="524.344262" x2="524.344262" y1="46.500000" y2="87.000000" stroke="#BABDB6" stroke-width="2"/><a xlink:title="V478I"><circle cx="524.344262" cy="46.500000" r="4.000000" fill="#ff0000" /></a><g transform="translate(524.344262,46.500000) rotate(-30)"><text style="font-size:10px;font-family:OpenSans;fill:#555;" text-anchor="middle" x="0" y="-6.000000">V478I</text></g><line x1="529.672131" x2="529.672131" y1="59.000000" y2="87.000000" stroke="#BABDB6" stroke-width="2"/><a xlink:title="V483I"><circle cx="529.672131" cy="59.000000" r="4.000000" fill="#ff0000" /></a><g transform="translate(529.672131,59.000000) rotate(-30)"><text style="font-size:10px;font-family:OpenSans;fill:#555;" text-anchor="middle" x="0" y="-6.000000">V483I</text></g><line x1="548.852459" x2="548.852459" y1="34.000000" y2="87.000000" stroke="#BABDB6" stroke-width="2"/><a xlink:title="V501I"><circle cx="548.852459" cy="34.000000" r="4.000000" fill="#ff0000" /></a><g transform="translate(548.852459,34.000000) rotate(-30)"><text style="font-size:10px;font-family:OpenSans;fill:#555;" text-anchor="middle" x="0" y="-6.000000">V501I</text></g><line x1="552.049180" x2="552.049180" y1="46.500000" y2="87.000000" stroke="#BABDB6" stroke-width="2"/><a xlink:title="S504S"><circle cx="552.049180" cy="46.500000" r="4.000000" fill="#0000ff" /></a><g transform="translate(552.049180,46.500000) rotate(-30)"><text style="font-size:10px;font-family:OpenSans;fill:#555;" text-anchor="middle" x="0" y="-6.000000">S504S</text></g><line x1="554.180328" x2="554.180328" y1="59.000000" y2="87.000000" stroke="#BABDB6" stroke-width="2"/><a xlink:title="V506I"><circle cx="554.180328" cy="59.000000" r="4.000000" fill="#ff0000" /></a><g transform="translate(554.180328,59.000000) rotate(-30)"><text style="font-size:10px;font-family:OpenSans;fill:#555;" text-anchor="middle" x="0" y="-6.000000">V506I</text></g><line x1="560.573770" x2="560.573770" y1="46.500000" y2="87.000000" stroke="#BABDB6" stroke-width="2"/><a xlink:title="V512I"><circle cx="560.573770" cy="46.500000" r="4.000000" fill="#ff0000" /></a><g transform="translate(560.573770,46.500000) rotate(-30)"><text style="font-size:10px;font-family:OpenSans;fill:#555;" text-anchor="middle" x="0" y="-6.000000">V512I</text></g><line x1="563.770492" x2="563.770492" y1="59.000000" y2="87.000000" stroke="#BABDB6" stroke-width="2"/><a xlink:title="V515I"><circle cx="563.770492" cy="59.000000" r="4.000000" fill="#ff0000" /></a><g transform="translate(563.770492,59.000000) rotate(-30)"><text style="font-size:10px;font-family:OpenSans;fill:#555;" text-anchor="middle" x="0" y="-6.000000">V515I</text></g><line x1="593.606557" x2="593.606557" y1="59.000000" y2="87.000000" stroke="#BABDB6" stroke-width="2"/><a xlink:title="V543I"><circle cx="593.606557" cy="59.000000" r="4.000000" fill="#ff0000" /></a><g transform="translate(593.606557,59.000000) rotate(-30)"><text style="font-size:10px;font-family:OpenSans;fill:#555;" text-anchor="middle" x="0" y="-6.000000">V543I</text></g><line x1="626.639344" x2="626.639344" y1="59.000000" y2="87.000000" stroke="#BABDB6" stroke-width="2"/><a xlink:title="S574S"><circle cx="626.639344" cy="59.000000" r="4.000000" fill="#0000ff" /></a><g transform="translate(626.639344,59.000000) rotate(-30)"><text style="font-size:10px;font-family:OpenSans;fill:#555;" text-anchor="middle" x="0" y="-6.000000">S574S</text></g><line x1="636.229508" x2="636.229508" y1="59.000000" y2="87.000000" stroke="#BABDB6" stroke-width="2"/><a xlink:title="S583S"><circle cx="636.229508" cy="59.000000" r="4.000000" fill="#0000ff" /></a><g transform="translate(636.229508,59.000000) rotate(-30)"><text style="font-size:10px;font-family:OpenSans;fill:#555;" text-anchor="middle" x="0" y="-6.000000">S583S</text></g><line x1="660.737705" x2="660.737705" y1="59.000000" y2="87.000000" stroke="#BABDB6" stroke-width="2"/><a xlink:title="S606S"><circle cx="660.737705" cy="59.000000" r="4.000000" fill="#0000ff" /></a><g transform="translate(660.737705,59.000000) rotate(-30)"><text style="font-size:10px;font-family:OpenSans;fill:#555;" text-anchor="middle" x="0" y="-6.000000">S606S</text></g><line x1="670.327869" x2="670.327869" y1="59.000000" y2="87.000000" stroke="#BABDB6" stroke-width="2"/><a xlink:title="S615S"><circle cx="670.327869" cy="59.000000" r="4.000000" fill="#0000ff" /></a><g transform="translate(670.327869,59.000000) rotate(-30)"><text style="font-size:10px;font-family:OpenSans;fill:#555;" text-anchor="middle" x="0" y="-6.000000">S615S</text></g><line x1="700.163934" x2="700.163934" y1="59.000000" y2="87.000000" stroke="#BABDB6" stroke-width="2"/><a xlink:title="S643S"><circle cx="700.163934" cy="59.000000" r="4.000000" fill="#0000ff" /></a><g transform="translate(700.163934,59.000000) rotate(-30)"><text style="font-size:10px;font-family:OpenSans;fill:#555;" text-anchor="middle" x="0" y="-6.000000">S643S</text></g><a xlink:title=",  (472aa)"><rect fill="#BABDB6" x="15.000000" y="87.000000" width="502.950820" height="14.000000"/></a><g transform="translate(60.819672,82.000000)"><a xlink:href="https://www.ebi.ac.uk/interpro/entry/pfam/PF00610" xlink:title="Domain found in Dishevelled, Egl-10, and Pleckstrin (DEP)"><rect fill="#2DCF00" x="0" y="0" width="74.590164" height="24.000000" filter="url(#ds)"/><text style="font-size:12px;font-family:OpenSans;fill:#ffffff;" text-anchor="middle" x="37.295082" y="16.000000">DEP</text></a></g>
<g transform="translate(138.606557,82.000000)"><a xlink:href="https://www.ebi.ac.uk/interpro/entry/pfam/PF18148" xlink:title="Regulator of G-protein signalling DHEX domain"><rect fill="#FF5353" x="0" y="0" width="107.622951" height="24.000000" filter="url(#ds)"/><text style="font-size:12px;font-family:OpenSans;fill:#ffffff;" text-anchor="middle" x="53.811475" y="16.000000">RGS_DHEX</text></a></g>
<g transform="translate(287.786885,82.000000)"><a xlink:href="https://www.ebi.ac.uk/interpro/entry/pfam/PF00631" xlink:title="GGL domain"><rect fill="#5B5BFF" x="0" y="0" width="65.000000" height="24.000000" filter="url(#ds)"/><text style="font-size:12px;font-family:OpenSans;fill:#ffffff;" text-anchor="middle" x="32.500000" y="16.000000">G-gamma</text></a></g>
<g transform="translate(373.032787,82.000000)"><a xlink:href="https://www.ebi.ac.uk/interpro/entry/pfam/PF00615" xlink:title="Regulator of G protein signaling domain"><rect fill="#EBD61D" x="0" y="0" width="121.475410" height="24.000000" filter="url(#ds)"/><text style="font-size:12px;font-family:OpenSans;fill:#ffffff;" text-anchor="middle" x="60.737705" y="16.000000">RGS</text></a></g>
<g class="axis">
<line x1="15.000000" x2="517.950820" y1="116.000000" y2="116.000000" stroke="#AAAAAA" /><line x1="15.000000" x2="15.000000" y1="116.000000" y2="121.000000" stroke="#AAAAAA" /><line x1="15.000000" x2="15.000000" y1="116.000000" y2="121.000000" stroke="#AAAAAA" /><text style="font-size:10px;font-family:OpenSans;fill:#000000;" text-anchor="middle" x="15.000000" y="131.000000">0</text><line x1="60.819672" x2="60.819672" y1="116.000000" y2="121.000000" stroke="#AAAAAA" /><text style="font-size:10px;font-family:OpenSans;fill:#000000;" text-anchor="middle" x="60.819672" y="131.000000">43</text><line x1="135.409836" x2="135.409836" y1="116.000000" y2="121.000000" stroke="#AAAAAA" /><text style="font-size:10px;font-family:OpenSans;fill:#000000;" text-anchor="middle" x="135.409836" y="131.000000">113</text><line x1="246.229508" x2="246.229508" y1="116.000000" y2="121.000000" stroke="#AAAAAA" /><text style="font-size:10px;font-family:OpenSans;fill:#000000;" text-anchor="middle" x="246.229508" y="131.000000">217</text><line x1="287.786885" x2="287.786885" y1="116.000000" y2="121.000000" stroke="#AAAAAA" /><text style="font-size:10px;font-family:OpenSans;fill:#000000;" text-anchor="middle" x="287.786885" y="131.000000">256</text><line x1="365.573770" x2="365.573770" y1="116.000000" y2="121.000000" stroke="#AAAAAA" /><text style="font-size:10px;font-family:OpenSans;fill:#000000;" text-anchor="middle" x="365.573770" y="131.000000">329</text><line x1="445.491803" x2="445.491803" y1="116.000000" y2="121.000000" stroke="#AAAAAA" /><text style="font-size:10px;font-family:OpenSans;fill:#000000;" text-anchor="middle" x="445.491803" y="131.000000">404</text><line x1="472.131148" x2="472.131148" y1="116.000000" y2="121.000000" stroke="#AAAAAA" /><text style="font-size:10px;font-family:OpenSans;fill:#000000;" text-anchor="middle" x="472.131148" y="131.000000">429</text><line x1="494.508197" x2="494.508197" y1="116.000000" y2="121.000000" stroke="#AAAAAA" /><text style="font-size:10px;font-family:OpenSans;fill:#000000;" text-anchor="middle" x="494.508197" y="131.000000">450</text><line x1="517.950820" x2="517.950820" y1="116.000000" y2="121.000000" stroke="#AAAAAA" /><text style="font-size:10px;font-family:OpenSans;fill:#000000;" text-anchor="middle" x="517.950820" y="131.000000">472</text><line x1="548.852459" x2="548.852459" y1="116.000000" y2="121.000000" stroke="#AAAAAA" /><text style="font-size:10px;font-family:OpenSans;fill:#000000;" text-anchor="middle" x="548.852459" y="131.000000">501</text><line x1="593.606557" x2="593.606557" y1="116.000000" y2="121.000000" stroke="#AAAAAA" /><text style="font-size:10px;font-family:OpenSans;fill:#000000;" text-anchor="middle" x="593.606557" y="131.000000">543</text><line x1="626.639344" x2="626.639344" y1="116.000000" y2="121.000000" stroke="#AAAAAA" /><text style="font-size:10px;font-family:OpenSans;fill:#000000;" text-anchor="middle" x="626.639344" y="131.000000">574</text><line x1="660.737705" x2="660.737705" y1="116.000000" y2="121.000000" stroke="#AAAAAA" /><text style="font-size:10px;font-family:OpenSans;fill:#000000;" text-anchor="middle" x="660.737705" y="131.000000">606</text><line x1="700.163934" x2="700.163934" y1="116.000000" y2="121.000000" stroke="#AAAAAA" /><text style="font-size:10px;font-family:OpenSans;fill:#000000;" text-anchor="middle" x="700.163934" y="131.000000">643</text></g>
<rect fill="#2DCF00" x="4" y="145.000000" width="12" height="12" filter="url(#ds)"/><text style="font-size:12px;font-family:OpenSans;fill:#000000;" text-anchor="start" x="20" y="157.000000">Domain found in Dishevelled, Egl-10, and Pleckstrin (DEP)</text><rect fill="#FF5353" x="4" y="159.000000" width="12" height="12" filter="url(#ds)"/><text style="font-size:12px;font-family:OpenSans;fill:#000000;" text-anchor="start" x="20" y="171.000000">Regulator of G-protein signalling DHEX domain</text><rect fill="#5B5BFF" x="4" y="173.000000" width="12" height="12" filter="url(#ds)"/><text style="font-size:12px;font-family:OpenSans;fill:#000000;" text-anchor="start" x="20" y="185.000000">GGL domain</text><rect fill="#EBD61D" x="4" y="187.000000" width="12" height="12" filter="url(#ds)"/><text style="font-size:12px;font-family:OpenSans;fill:#000000;" text-anchor="start" x="20" y="199.000000">Regulator of G protein signaling domain</text></svg>
