<?xml version='1.0'?>
<svg xmlns="http://www.w3.org/2000/svg" xmlns:xlink="http://www.w3.org/1999/xlink" width="1184.634146" height="171.900000">
<defs>
  <filter id="ds" x="0" y="0">
    <feOffset in="SourceAlpha" dx="2" dy="2" />
    <feComponentTransfer><feFuncA type="linear" slope="0.2"/></feComponentTransfer>
    <feGaussianBlur result="blurOut" stdDeviation="1" />
    <feBlend in="SourceGraphic" in2="blurOut" mode="normal" />
  </filter>
  <pattern id="disordered-hatch" patternUnits="userSpaceOnUse" width="4" height="4">
    <path d="M-1,1 l2,-2 M0,4 l4,-4 M3,5 l2,-2" stroke="#000000" opacity="0.3" />
  </pattern>
</defs>
<line x1="113.780488" x2="113.780488" y1="46.500000" y2="74.500000" stroke="#BABDB6" stroke-width="2"/><a xlink:title="P90P"><circle cx="113.780488" cy="46.500000" r="4.000000" fill="#0000ff" /></a><g transform="translate(113.780488,46.500000) rotate(-30)"><text style="font-size:10px;font-family:OpenSans;fill:#555;" text-anchor="middle" x="0" y="-6.000000">P90P</text></g><line x1="879.878049" x2="879.878049" y1="46.500000" y2="74.500000" stroke="#BABDB6" stroke-width="2"/><a xlink:title="D788D"><circle cx="879.878049" cy="46.500000" r="4.000000" fill="#0000ff" /></a><g transform="translate(879.878049,46.500000) rotate(-30)"><text style="font-size:10px;font-family:OpenSans;fill:#555;" text-anchor="middle" x="0" y="-6.000000">D788D</text></g><line x1="919.390244" x2="919.390244" y1="46.500000" y2="74.500000" stroke="#BABDB6" stroke-width="2"/><a xlink:title="D824D"><circle cx="919.390244" cy="46.500000" r="4.000000" fill="#0000ff" /></a><g transform="translate(919.390244,46.500000) rotate(-30)"><text style="font-size:10px;font-family:OpenSans;fill:#555;" text-anchor="middle" x="0" y="-6.000000">D824D</text></g><line x1="938.048780" x2="938.048780" y1="46.500000" y2="74.500000" stroke="#BABDB6" stroke-width="2"/><a xlink:title="D841D"><circle cx="938.048780" cy="46.500000" r="4.000000" fill="#0000ff" /></a><g transform="translate(938.048780,46.500000) rotate(-30)"><text style="font-size:10px;font-family:OpenSans;fill:#555;" text-anchor="middle" x="0" y="-6.000000">D841D</text></g><line x1="998.414634" x2="998.414634" y1="46.500000" y2="74.500000" stroke="#BABDB6" stroke-width="2"/><a xlink:title="H896D"><circle cx="998.414634" cy="46.500000" r="4.000000" fill="#ff0000" /></a><g transform="translate(998.414634,46.500000) rotate(-30)"><text style="font-size:10px;font-family:OpenSans;fill:#555;" text-anchor="middle" x="0" y="-6.000000">H896D</text></g><line x1="1012.682927" x2="1012.682927" y1="46.500000" y2="74.500000" stroke="#BABDB6" stroke-width="2"/><a xlink:title="D909D"><circle cx="1012.682927" cy="46.500000" r="4.000000" fill="#0000ff" /></a><g transform="translate(1012.682927,46.500000) rotate(-30)"><text style="font-size:10px;font-family:OpenSans;fill:#555;" text-anchor="middle" x="0" y="-6.000000">D909D</text></g><line x1="1064.268293" x2="1064.268293" y1="46.500000" y2="74.500000" stroke="#BABDB6" stroke-width="2"/><a xlink:title="P956L"><circle cx="1064.268293" cy="46.500000" r="4.000000" fill="#ff0000" /></a><g transform="translate(1064.268293,46.500000) rotate(-30)"><text style="font-size:10px;font-family:OpenSans;fill:#555;" text-anchor="middle" x="0" y="-6.000000">P956L</text></g><line x1="1070.853659" x2="1070.853659" y1="46.500000" y2="74.500000" stroke="#BABDB6" stroke-width="2"/><a xlink:title="D962D"><circle cx="1070.853659" cy="46.500000" r="4.000000" fill="#0000ff" /></a><g transform="translate(1070.853659,46.500000) rotate(-30)"><text style="font-size:10px;font-family:OpenSans;fill:#555;" text-anchor="middle" x="0" y="-6.000000">D962D</text></g><line x1="1131.219512" x2="1131.219512" y1="46.500000" y2="74.500000" stroke="#BABDB6" stroke-width="2"/><a xlink:title="H1017D"><circle cx="1131.219512" cy="46.500000" r="4.000000" fill="#ff0000" /></a><g transform="translate(1131.219512,46.500000) rotate(-30)"><text style="font-size:10px;font-family:OpenSans;fill:#555;" text-anchor="middle" x="0" y="-6.000000">H1017D</text></g><line x1="1197.073171" x2="1197.073171" y1="34.000000" y2="74.500000" stroke="#BABDB6" stroke-width="2"/><a xlink:title="P1077L"><circle cx="1197.073171" cy="34.000000" r="4.000000" fill="#ff0000" /></a><g transform="translate(1197.073171,34.000000) rotate(-30)"><text style="font-size:10px;font-family:OpenSans;fill:#555;" text-anchor="middle" x="0" y="-6.000000">P1077L</text></g><line x1="1200.365854" x2="1200.365854" y1="46.500000" y2="74.500000" stroke="#BABDB6" stroke-width="2"/><a xlink:title="D1080D"><circle cx="1200.365854" cy="46.500000" r="4.000000" fill="#0000ff" /></a><g transform="translate(1200.365854,46.500000) rotate(-30)"><text style="font-size:10px;font-family:OpenSans;fill:#555;" text-anchor="middle" x="0" y="-6.000000">D1080D</text></g><line x1="1333.170732" x2="1333.170732" y1="46.500000" y2="74.500000" stroke="#BABDB6" stroke-width="2"/><a xlink:title="D1201D"><circle cx="1333.170732" cy="46.500000" r="4.000000" fill="#0000ff" /></a><g transform="translate(1333.170732,46.500000) rotate(-30)"><text style="font-size:10px;font-family:OpenSans;fill:#555;" text-anchor="middle" x="0" y="-6.000000">D1201D</text></g><a xlink:title=",  (1052aa)"><rect fill="#BABDB6" x="15.000000" y="74.500000" width="1154.634146" height="14.000000"/></a><g transform="translate(222.439024,69.500000)"><a xlink:href="https://www.ebi.ac.uk/interpro/entry/pfam/PF14604" xlink:title="Variant SH3 domain"><rect fill="#2DCF00" x="0" y="0" width="45.000000" height="24.000000" filter="url(#ds)"/><text style="font-size:12px;font-family:OpenSans;fill:#ffffff;" text-anchor="middle" x="22.500000" y="16.000000">SH3_9</text></a></g>
<g transform="translate(446.341463,69.500000)"><a xlink:href="https://www.ebi.ac.uk/interpro/entry/pfam/PF00041" xlink:title="Fibronectin type III domain"><rect fill="#FF5353" x="0" y="0" width="81.219512" height="24.000000" filter="url(#ds)"/><text style="font-size:12px;font-family:OpenSans;fill:#ffffff;" text-anchor="middle" x="40.609756" y="16.000000">fn3</text></a></g>
<g transform="translate(951.219512,69.500000)"><a xlink:href="https://www.ebi.ac.uk/interpro/entry/pfam/PF07653" xlink:title="Variant SH3 domain"><rect fill="#5B5BFF" x="0" y="0" width="66.951220" height="24.000000" filter="url(#ds)"/><text style="font-size:12px;font-family:OpenSans;fill:#ffffff;" text-anchor="middle" x="33.475610" y="16.000000">SH3_2</text></a></g>
<g transform="translate(1065.365854,69.500000)"><a xlink:href="https://www.ebi.ac.uk/interpro/entry/pfam/PF07653" xlink:title="Variant SH3 domain"><rect fill="#EBD61D" x="0" y="0" width="65.853659" height="24.000000" filter="url(#ds)"/><text style="font-size:12px;font-family:OpenSans;fill:#ffffff;" text-anchor="middle" x="32.926829" y="16.000000">SH3_2</text></a></g>
<g class="axis">
<line x1="15.000000" x2="1169.634146" y1="103.500000" y2="103.500000" stroke="#AAAAAA" /><line x1="15.000000" x2="15.000000" y1="103.500000" y2="108.500000" stroke="#AAAAAA" /><line x1="15.000000" x2="15.000000" y1="103.500000" y2="108.500000" stroke="#AAAAAA" /><text style="font-size:10px;font-family:OpenSans;fill:#000000;" text-anchor="middle" x="15.000000" y="118.500000">0</text><line x1="113.780488" x2="113.780488" y1="103.500000" y2="108.500000" stroke="#AAAAAA" /><text style="font-size:10px;font-family:OpenSans;fill:#000000;" text-anchor="middle" x="113.780488" y="118.500000">90</text><line x1="222.439024" x2="222.439024" y1="103.500000" y2="108.500000" stroke="#AAAAAA" /><text style="font-size:10px;font-family:OpenSans;fill:#000000;" text-anchor="middle" x="222.439024" y="118.500000">189</text><line x1="267.439024" x2="267.439024" y1="103.500000" y2="108.500000" stroke="#AAAAAA" /><text style="font-size:10px;font-family:OpenSans;fill:#000000;" text-anchor="middle" x="267.439024" y="118.500000">230</text><line x1="446.341463" x2="446.341463" y1="103.500000" y2="108.500000" stroke="#AAAAAA" /><text style="font-size:10px;font-family:OpenSans;fill:#000000;" text-anchor="middle" x="446.341463" y="118.500000">393</text><line x1="527.560976" x2="527.560976" y1="103.500000" y2="108.500000" stroke="#AAAAAA" /><text style="font-size:10px;font-family:OpenSans;fill:#000000;" text-anchor="middle" x="527.560976" y="118.500000">467</text><line x1="879.878049" x2="879.878049" y1="103.500000" y2="108.500000" stroke="#AAAAAA" /><text style="font-size:10px;font-family:OpenSans;fill:#000000;" text-anchor="middle" x="879.878049" y="118.500000">788</text><line x1="919.390244" x2="919.390244" y1="103.500000" y2="108.500000" stroke="#AAAAAA" /><text style="font-size:10px;font-family:OpenSans;fill:#000000;" text-anchor="middle" x="919.390244" y="118.500000">824</text><line x1="951.219512" x2="951.219512" y1="103.500000" y2="108.500000" stroke="#AAAAAA" /><text style="font-size:10px;font-family:OpenSans;fill:#000000;" text-anchor="middle" x="951.219512" y="118.500000">853</text><line x1="998.414634" x2="998.414634" y1="103.500000" y2="108.500000" stroke="#AAAAAA" /><text style="font-size:10px;font-family:OpenSans;fill:#000000;" text-anchor="middle" x="998.414634" y="118.500000">896</text><line x1="1018.170732" x2="1018.170732" y1="103.500000" y2="108.500000" stroke="#AAAAAA" /><text style="font-size:10px;font-family:OpenSans;fill:#000000;" text-anchor="middle" x="1018.170732" y="118.500000">914</text><line x1="1064.268293" x2="1064.268293" y1="103.500000" y2="108.500000" stroke="#AAAAAA" /><text style="font-size:10px;font-family:OpenSans;fill:#000000;" text-anchor="middle" x="1064.268293" y="118.500000">956</text><line x1="1131.219512" x2="1131.219512" y1="103.500000" y2="108.500000" stroke="#AAAAAA" /><text style="font-size:10px;font-family:OpenSans;fill:#000000;" text-anchor="middle" x="1131.219512" y="118.500000">1017</text><line x1="1169.634146" x2="1169.634146" y1="103.500000" y2="108.500000" stroke="#AAAAAA" /><text style="font-size:10px;font-family:OpenSans;fill:#000000;" text-anchor="middle" x="1169.634146" y="118.500000">1052</text><line x1="1197.073171" x2="1197.073171" y1="103.500000" y2="108.500000" stroke="#AAAAAA" /><text style="font-size:10px;font-family:OpenSans;fill:#000000;" text-anchor="middle" x="1197.073171" y="118.500000">1077</text><line x1="1333.170732" x2="1333.170732" y1="103.500000" y2="108.500000" stroke="#AAAAAA" /><text style="font-size:10px;font-family:OpenSans;fill:#000000;" text-anchor="middle" x="1333.170732" y="118.500000">1201</text></g>
<rect fill="#EBD61D" x="4" y="132.500000" width="12" height="12" filter="url(#ds)"/><text style="font-size:12px;font-family:OpenSans;fill:#000000;" text-anchor="start" x="20" y="144.500000">Variant SH3 domain</text><rect fill="#FF5353" x="4" y="146.500000" width="12" height="12" filter="url(#ds)"/><text style="font-size:12px;font-family:OpenSans;fill:#000000;" text-anchor="start" x="20" y="158.500000">Fibronectin type III domain</text></svg>
