<?xml version='1.0'?>
<svg xmlns="http://www.w3.org/2000/svg" xmlns:xlink="http://www.w3.org/1999/xlink" width="1132.000000" height="146.200000">
<defs>
  <filter id="ds" x="0" y="0">
    <feOffset in="SourceAlpha" dx="2" dy="2" />
    <feComponentTransfer><feFuncA type="linear" slope="0.2"/></feComponentTransfer>
    <feGaussianBlur result="blurOut" stdDeviation="1" />
    <feBlend in="SourceGraphic" in2="blurOut" mode="normal" />
  </filter>
  <pattern id="disordered-hatch" patternUnits="userSpaceOnUse" width="4" height="4">
    <path d="M-1,1 l2,-2 M0,4 l4,-4 M3,5 l2,-2" stroke="#000000" opacity="0.3" />
  </pattern>
</defs>
<line x1="102.400000" x2="102.400000" y1="34.000000" y2="62.000000" stroke="#BABDB6" stroke-width="2"/><a xlink:title="N46K"><circle cx="102.400000" cy="34.000000" r="4.000000" fill="#ff0000" /></a><g transform="translate(102.400000,34.000000) rotate(-30)"><text style="font-size:10px;font-family:OpenSans;fill:#555;" text-anchor="middle" x="0" y="-6.000000">N46K</text></g><a xlink:title=",  (580aa)"><rect fill="#BABDB6" x="15.000000" y="62.000000" width="1102.000000" height="14.000000"/></a><g transform="translate(281.000000,57.000000)"><a xlink:href="https://www.ebi.ac.uk/interpro/entry/pfam/PF02755" xlink:title="RPEL repeat"><rect fill="#2DCF00" x="0" y="0" width="39.900000" height="24.000000" filter="url(#ds)"/><text style="font-size:12px;font-family:OpenSans;fill:#ffffff;" text-anchor="middle" x="19.950000" y="16.000000">RPEL</text></a></g>
<g transform="translate(818.700000,57.000000)"><a xlink:href="https://www.ebi.ac.uk/interpro/entry/pfam/PF02755" xlink:title="RPEL repeat"><rect fill="#FF5353" x="0" y="0" width="41.800000" height="24.000000" filter="url(#ds)"/><text style="font-size:12px;font-family:OpenSans;fill:#ffffff;" text-anchor="middle" x="20.900000" y="16.000000">RPEL</text></a></g>
<g transform="translate(890.900000,57.000000)"><a xlink:href="https://www.ebi.ac.uk/interpro/entry/pfam/PF02755" xlink:title="RPEL repeat"><rect fill="#5B5BFF" x="0" y="0" width="41.800000" height="24.000000" filter="url(#ds)"/><text style="font-size:12px;font-family:OpenSans;fill:#ffffff;" text-anchor="middle" x="20.900000" y="16.000000">RPEL</text></a></g>
<g transform="translate(963.100000,57.000000)"><a xlink:href="https://www.ebi.ac.uk/interpro/entry/pfam/PF02755" xlink:title="RPEL repeat"><rect fill="#EBD61D" x="0" y="0" width="38.000000" height="24.000000" filter="url(#ds)"/><text style="font-size:12px;font-family:OpenSans;fill:#ffffff;" text-anchor="middle" x="19.000000" y="16.000000">RPEL</text></a></g>
<g class="axis">
<line x1="15.000000" x2="1117.000000" y1="91.000000" y2="91.000000" stroke="#AAAAAA" /><line x1="15.000000" x2="15.000000" y1="91.000000" y2="96.000000" stroke="#AAAAAA" /><line x1="15.000000" x2="15.000000" y1="91.000000" y2="96.000000" stroke="#AAAAAA" /><text style="font-size:10px;font-family:OpenSans;fill:#000000;" text-anchor="middle" x="15.000000" y="106.000000">0</text><line x1="102.400000" x2="102.400000" y1="91.000000" y2="96.000000" stroke="#AAAAAA" /><text style="font-size:10px;font-family:OpenSans;fill:#000000;" text-anchor="middle" x="102.400000" y="106.000000">46</text><line x1="281.000000" x2="281.000000" y1="91.000000" y2="96.000000" stroke="#AAAAAA" /><text style="font-size:10px;font-family:OpenSans;fill:#000000;" text-anchor="middle" x="281.000000" y="106.000000">140</text><line x1="320.900000" x2="320.900000" y1="91.000000" y2="96.000000" stroke="#AAAAAA" /><text style="font-size:10px;font-family:OpenSans;fill:#000000;" text-anchor="middle" x="320.900000" y="106.000000">161</text><line x1="818.700000" x2="818.700000" y1="91.000000" y2="96.000000" stroke="#AAAAAA" /><text style="font-size:10px;font-family:OpenSans;fill:#000000;" text-anchor="middle" x="818.700000" y="106.000000">423</text><line x1="860.500000" x2="860.500000" y1="91.000000" y2="96.000000" stroke="#AAAAAA" /><text style="font-size:10px;font-family:OpenSans;fill:#000000;" text-anchor="middle" x="860.500000" y="106.000000">445</text><line x1="890.900000" x2="890.900000" y1="91.000000" y2="96.000000" stroke="#AAAAAA" /><text style="font-size:10px;font-family:OpenSans;fill:#000000;" text-anchor="middle" x="890.900000" y="106.000000">461</text><line x1="932.700000" x2="932.700000" y1="91.000000" y2="96.000000" stroke="#AAAAAA" /><text style="font-size:10px;font-family:OpenSans;fill:#000000;" text-anchor="middle" x="932.700000" y="106.000000">483</text><line x1="963.100000" x2="963.100000" y1="91.000000" y2="96.000000" stroke="#AAAAAA" /><text style="font-size:10px;font-family:OpenSans;fill:#000000;" text-anchor="middle" x="963.100000" y="106.000000">499</text><line x1="1001.100000" x2="1001.100000" y1="91.000000" y2="96.000000" stroke="#AAAAAA" /><text style="font-size:10px;font-family:OpenSans;fill:#000000;" text-anchor="middle" x="1001.100000" y="106.000000">519</text><line x1="1117.000000" x2="1117.000000" y1="91.000000" y2="96.000000" stroke="#AAAAAA" /><text style="font-size:10px;font-family:OpenSans;fill:#000000;" text-anchor="middle" x="1117.000000" y="106.000000">580</text></g>
<rect fill="#EBD61D" x="4" y="120.000000" width="12" height="12" filter="url(#ds)"/><text style="font-size:12px;font-family:OpenSans;fill:#000000;" text-anchor="start" x="20" y="132.000000">RPEL repeat</text></svg>
