<?xml version='1.0'?>
<svg xmlns="http://www.w3.org/2000/svg" xmlns:xlink="http://www.w3.org/1999/xlink" width="2351.739130" height="159.400000">
<defs>
  <filter id="ds" x="0" y="0">
    <feOffset in="SourceAlpha" dx="2" dy="2" />
    <feComponentTransfer><feFuncA type="linear" slope="0.2"/></feComponentTransfer>
    <feGaussianBlur result="blurOut" stdDeviation="1" />
    <feBlend in="SourceGraphic" in2="blurOut" mode="normal" />
  </filter>
  <pattern id="disordered-hatch" patternUnits="userSpaceOnUse" width="4" height="4">
    <path d="M-1,1 l2,-2 M0,4 l4,-4 M3,5 l2,-2" stroke="#000000" opacity="0.3" />
  </pattern>
</defs>
<line x1="67.173913" x2="67.173913" y1="34.000000" y2="62.000000" stroke="#BABDB6" stroke-width="2"/><a xlink:title="F30F"><circle cx="67.173913" cy="34.000000" r="4.000000" fill="#0000ff" /></a><g transform="translate(67.173913,34.000000) rotate(-30)"><text style="font-size:10px;font-family:OpenSans;fill:#555;" text-anchor="middle" x="0" y="-6.000000">F30F</text></g><line x1="150.652174" x2="150.652174" y1="34.000000" y2="62.000000" stroke="#BABDB6" stroke-width="2"/><a xlink:title="T78T"><circle cx="150.652174" cy="34.000000" r="4.000000" fill="#0000ff" /></a><g transform="translate(150.652174,34.000000) rotate(-30)"><text style="font-size:10px;font-family:OpenSans;fill:#555;" text-anchor="middle" x="0" y="-6.000000">T78T</text></g><line x1="750.652174" x2="750.652174" y1="34.000000" y2="62.000000" stroke="#BABDB6" stroke-width="2"/><a xlink:title="G423G"><circle cx="750.652174" cy="34.000000" r="4.000000" fill="#0000ff" /></a><g transform="translate(750.652174,34.000000) rotate(-30)"><text style="font-size:10px;font-family:OpenSans;fill:#555;" text-anchor="middle" x="0" y="-6.000000">G423G</text></g><line x1="776.739130" x2="776.739130" y1="34.000000" y2="62.000000" stroke="#BABDB6" stroke-width="2"/><a xlink:title="Q438Q"><circle cx="776.739130" cy="34.000000" r="4.000000" fill="#0000ff" /></a><g transform="translate(776.739130,34.000000) rotate(-30)"><text style="font-size:10px;font-family:OpenSans;fill:#555;" text-anchor="middle" x="0" y="-6.000000">Q438Q</text></g><line x1="895.000000" x2="895.000000" y1="34.000000" y2="62.000000" stroke="#BABDB6" stroke-width="2"/><a xlink:title="Q506Q"><circle cx="895.000000" cy="34.000000" r="4.000000" fill="#0000ff" /></a><g transform="translate(895.000000,34.000000) rotate(-30)"><text style="font-size:10px;font-family:OpenSans;fill:#555;" text-anchor="middle" x="0" y="-6.000000">Q506Q</text></g><line x1="905.434783" x2="905.434783" y1="34.000000" y2="62.000000" stroke="#BABDB6" stroke-width="2"/><a xlink:title="L512L"><circle cx="905.434783" cy="34.000000" r="4.000000" fill="#0000ff" /></a><g transform="translate(905.434783,34.000000) rotate(-30)"><text style="font-size:10px;font-family:OpenSans;fill:#555;" text-anchor="middle" x="0" y="-6.000000">L512L</text></g><line x1="954.130435" x2="954.130435" y1="34.000000" y2="62.000000" stroke="#BABDB6" stroke-width="2"/><a xlink:title="A540A"><circle cx="954.130435" cy="34.000000" r="4.000000" fill="#0000ff" /></a><g transform="translate(954.130435,34.000000) rotate(-30)"><text style="font-size:10px;font-family:OpenSans;fill:#555;" text-anchor="middle" x="0" y="-6.000000">A540A</text></g><line x1="1041.086957" x2="1041.086957" y1="34.000000" y2="62.000000" stroke="#BABDB6" stroke-width="2"/><a xlink:title="S590S"><circle cx="1041.086957" cy="34.000000" r="4.000000" fill="#0000ff" /></a><g transform="translate(1041.086957,34.000000) rotate(-30)"><text style="font-size:10px;font-family:OpenSans;fill:#555;" text-anchor="middle" x="0" y="-6.000000">S590S</text></g><line x1="1180.217391" x2="1180.217391" y1="34.000000" y2="62.000000" stroke="#BABDB6" stroke-width="2"/><a xlink:title="L670L"><circle cx="1180.217391" cy="34.000000" r="4.000000" fill="#0000ff" /></a><g transform="translate(1180.217391,34.000000) rotate(-30)"><text style="font-size:10px;font-family:OpenSans;fill:#555;" text-anchor="middle" x="0" y="-6.000000">L670L</text></g><line x1="1204.565217" x2="1204.565217" y1="34.000000" y2="62.000000" stroke="#BABDB6" stroke-width="2"/><a xlink:title="T684T"><circle cx="1204.565217" cy="34.000000" r="4.000000" fill="#0000ff" /></a><g transform="translate(1204.565217,34.000000) rotate(-30)"><text style="font-size:10px;font-family:OpenSans;fill:#555;" text-anchor="middle" x="0" y="-6.000000">T684T</text></g><line x1="1228.913043" x2="1228.913043" y1="34.000000" y2="62.000000" stroke="#BABDB6" stroke-width="2"/><a xlink:title="A698A"><circle cx="1228.913043" cy="34.000000" r="4.000000" fill="#0000ff" /></a><g transform="translate(1228.913043,34.000000) rotate(-30)"><text style="font-size:10px;font-family:OpenSans;fill:#555;" text-anchor="middle" x="0" y="-6.000000">A698A</text></g><line x1="1479.347826" x2="1479.347826" y1="34.000000" y2="62.000000" stroke="#BABDB6" stroke-width="2"/><a xlink:title="T842T"><circle cx="1479.347826" cy="34.000000" r="4.000000" fill="#0000ff" /></a><g transform="translate(1479.347826,34.000000) rotate(-30)"><text style="font-size:10px;font-family:OpenSans;fill:#555;" text-anchor="middle" x="0" y="-6.000000">T842T</text></g><line x1="1547.173913" x2="1547.173913" y1="34.000000" y2="62.000000" stroke="#BABDB6" stroke-width="2"/><a xlink:title="A881A"><circle cx="1547.173913" cy="34.000000" r="4.000000" fill="#0000ff" /></a><g transform="translate(1547.173913,34.000000) rotate(-30)"><text style="font-size:10px;font-family:OpenSans;fill:#555;" text-anchor="middle" x="0" y="-6.000000">A881A</text></g><line x1="1613.260870" x2="1613.260870" y1="34.000000" y2="62.000000" stroke="#BABDB6" stroke-width="2"/><a xlink:title="N919N"><circle cx="1613.260870" cy="34.000000" r="4.000000" fill="#0000ff" /></a><g transform="translate(1613.260870,34.000000) rotate(-30)"><text style="font-size:10px;font-family:OpenSans;fill:#555;" text-anchor="middle" x="0" y="-6.000000">N919N</text></g><line x1="1821.956522" x2="1821.956522" y1="34.000000" y2="62.000000" stroke="#BABDB6" stroke-width="2"/><a xlink:title="A1039A"><circle cx="1821.956522" cy="34.000000" r="4.000000" fill="#0000ff" /></a><g transform="translate(1821.956522,34.000000) rotate(-30)"><text style="font-size:10px;font-family:OpenSans;fill:#555;" text-anchor="middle" x="0" y="-6.000000">A1039A</text></g><line x1="1832.391304" x2="1832.391304" y1="34.000000" y2="62.000000" stroke="#BABDB6" stroke-width="2"/><a xlink:title="R1045R"><circle cx="1832.391304" cy="34.000000" r="4.000000" fill="#0000ff" /></a><g transform="translate(1832.391304,34.000000) rotate(-30)"><text style="font-size:10px;font-family:OpenSans;fill:#555;" text-anchor="middle" x="0" y="-6.000000">R1045R</text></g><line x1="1888.043478" x2="1888.043478" y1="34.000000" y2="62.000000" stroke="#BABDB6" stroke-width="2"/><a xlink:title="N1077N"><circle cx="1888.043478" cy="34.000000" r="4.000000" fill="#0000ff" /></a><g transform="translate(1888.043478,34.000000) rotate(-30)"><text style="font-size:10px;font-family:OpenSans;fill:#555;" text-anchor="middle" x="0" y="-6.000000">N1077N</text></g><line x1="2107.173913" x2="2107.173913" y1="34.000000" y2="62.000000" stroke="#BABDB6" stroke-width="2"/><a xlink:title="R1203R"><circle cx="2107.173913" cy="34.000000" r="4.000000" fill="#0000ff" /></a><g transform="translate(2107.173913,34.000000) rotate(-30)"><text style="font-size:10px;font-family:OpenSans;fill:#555;" text-anchor="middle" x="0" y="-6.000000">R1203R</text></g><a xlink:title=",  (1335aa)"><rect fill="#BABDB6" x="15.000000" y="62.000000" width="2321.739130" height="14.000000"/></a><g transform="translate(110.652174,57.000000)"><a xlink:href="https://www.ebi.ac.uk/interpro/entry/pfam/PF14538" xlink:title="Raptor N-terminal CASPase like domain"><rect fill="#2DCF00" x="0" y="0" width="262.608696" height="24.000000" filter="url(#ds)"/><text style="font-size:12px;font-family:OpenSans;fill:#ffffff;" text-anchor="middle" x="131.304348" y="16.000000">Raptor N-terminal CASPase like domain</text></a></g>
<g transform="translate(985.434783,57.000000)"><a xlink:href="https://www.ebi.ac.uk/interpro/entry/pfam/PF02985" xlink:title="HEAT repeat"><rect fill="#FF5353" x="0" y="0" width="50.434783" height="24.000000" filter="url(#ds)"/><text style="font-size:12px;font-family:OpenSans;fill:#ffffff;" text-anchor="middle" x="25.217391" y="16.000000">HEAT</text></a></g>
<g transform="translate(1065.434783,57.000000)"><a xlink:href="https://www.ebi.ac.uk/interpro/entry/pfam/PF02985" xlink:title="HEAT repeat"><rect fill="#5B5BFF" x="0" y="0" width="40.000000" height="24.000000" filter="url(#ds)"/><text style="font-size:12px;font-family:OpenSans;fill:#ffffff;" text-anchor="middle" x="20.000000" y="16.000000">HEAT</text></a></g>
<g transform="translate(2039.347826,57.000000)"><a xlink:href="https://www.ebi.ac.uk/interpro/entry/pfam/PF00400" xlink:title="WD domain, G-beta repeat"><rect fill="#EBD61D" x="0" y="0" width="52.173913" height="24.000000" filter="url(#ds)"/><text style="font-size:12px;font-family:OpenSans;fill:#ffffff;" text-anchor="middle" x="26.086957" y="16.000000">WD40</text></a></g>
<g class="axis">
<line x1="15.000000" x2="2336.739130" y1="91.000000" y2="91.000000" stroke="#AAAAAA" /><line x1="15.000000" x2="15.000000" y1="91.000000" y2="96.000000" stroke="#AAAAAA" /><line x1="15.000000" x2="15.000000" y1="91.000000" y2="96.000000" stroke="#AAAAAA" /><text style="font-size:10px;font-family:OpenSans;fill:#000000;" text-anchor="middle" x="15.000000" y="106.000000">0</text><line x1="67.173913" x2="67.173913" y1="91.000000" y2="96.000000" stroke="#AAAAAA" /><text style="font-size:10px;font-family:OpenSans;fill:#000000;" text-anchor="middle" x="67.173913" y="106.000000">30</text><line x1="110.652174" x2="110.652174" y1="91.000000" y2="96.000000" stroke="#AAAAAA" /><text style="font-size:10px;font-family:OpenSans;fill:#000000;" text-anchor="middle" x="110.652174" y="106.000000">55</text><line x1="150.652174" x2="150.652174" y1="91.000000" y2="96.000000" stroke="#AAAAAA" /><text style="font-size:10px;font-family:OpenSans;fill:#000000;" text-anchor="middle" x="150.652174" y="106.000000">78</text><line x1="373.260870" x2="373.260870" y1="91.000000" y2="96.000000" stroke="#AAAAAA" /><text style="font-size:10px;font-family:OpenSans;fill:#000000;" text-anchor="middle" x="373.260870" y="106.000000">206</text><line x1="750.652174" x2="750.652174" y1="91.000000" y2="96.000000" stroke="#AAAAAA" /><text style="font-size:10px;font-family:OpenSans;fill:#000000;" text-anchor="middle" x="750.652174" y="106.000000">423</text><line x1="776.739130" x2="776.739130" y1="91.000000" y2="96.000000" stroke="#AAAAAA" /><text style="font-size:10px;font-family:OpenSans;fill:#000000;" text-anchor="middle" x="776.739130" y="106.000000">438</text><line x1="895.000000" x2="895.000000" y1="91.000000" y2="96.000000" stroke="#AAAAAA" /><text style="font-size:10px;font-family:OpenSans;fill:#000000;" text-anchor="middle" x="895.000000" y="106.000000">506</text><line x1="954.130435" x2="954.130435" y1="91.000000" y2="96.000000" stroke="#AAAAAA" /><text style="font-size:10px;font-family:OpenSans;fill:#000000;" text-anchor="middle" x="954.130435" y="106.000000">540</text><line x1="985.434783" x2="985.434783" y1="91.000000" y2="96.000000" stroke="#AAAAAA" /><text style="font-size:10px;font-family:OpenSans;fill:#000000;" text-anchor="middle" x="985.434783" y="106.000000">558</text><line x1="1041.086957" x2="1041.086957" y1="91.000000" y2="96.000000" stroke="#AAAAAA" /><text style="font-size:10px;font-family:OpenSans;fill:#000000;" text-anchor="middle" x="1041.086957" y="106.000000">590</text><line x1="1065.434783" x2="1065.434783" y1="91.000000" y2="96.000000" stroke="#AAAAAA" /><text style="font-size:10px;font-family:OpenSans;fill:#000000;" text-anchor="middle" x="1065.434783" y="106.000000">604</text><line x1="1105.434783" x2="1105.434783" y1="91.000000" y2="96.000000" stroke="#AAAAAA" /><text style="font-size:10px;font-family:OpenSans;fill:#000000;" text-anchor="middle" x="1105.434783" y="106.000000">627</text><line x1="1180.217391" x2="1180.217391" y1="91.000000" y2="96.000000" stroke="#AAAAAA" /><text style="font-size:10px;font-family:OpenSans;fill:#000000;" text-anchor="middle" x="1180.217391" y="106.000000">670</text><line x1="1204.565217" x2="1204.565217" y1="91.000000" y2="96.000000" stroke="#AAAAAA" /><text style="font-size:10px;font-family:OpenSans;fill:#000000;" text-anchor="middle" x="1204.565217" y="106.000000">684</text><line x1="1228.913043" x2="1228.913043" y1="91.000000" y2="96.000000" stroke="#AAAAAA" /><text style="font-size:10px;font-family:OpenSans;fill:#000000;" text-anchor="middle" x="1228.913043" y="106.000000">698</text><line x1="1479.347826" x2="1479.347826" y1="91.000000" y2="96.000000" stroke="#AAAAAA" /><text style="font-size:10px;font-family:OpenSans;fill:#000000;" text-anchor="middle" x="1479.347826" y="106.000000">842</text><line x1="1547.173913" x2="1547.173913" y1="91.000000" y2="96.000000" stroke="#AAAAAA" /><text style="font-size:10px;font-family:OpenSans;fill:#000000;" text-anchor="middle" x="1547.173913" y="106.000000">881</text><line x1="1613.260870" x2="1613.260870" y1="91.000000" y2="96.000000" stroke="#AAAAAA" /><text style="font-size:10px;font-family:OpenSans;fill:#000000;" text-anchor="middle" x="1613.260870" y="106.000000">919</text><line x1="1821.956522" x2="1821.956522" y1="91.000000" y2="96.000000" stroke="#AAAAAA" /><text style="font-size:10px;font-family:OpenSans;fill:#000000;" text-anchor="middle" x="1821.956522" y="106.000000">1039</text><line x1="1888.043478" x2="1888.043478" y1="91.000000" y2="96.000000" stroke="#AAAAAA" /><text style="font-size:10px;font-family:OpenSans;fill:#000000;" text-anchor="middle" x="1888.043478" y="106.000000">1077</text><line x1="2039.347826" x2="2039.347826" y1="91.000000" y2="96.000000" stroke="#AAAAAA" /><text style="font-size:10px;font-family:OpenSans;fill:#000000;" text-anchor="middle" x="2039.347826" y="106.000000">1164</text><line x1="2107.173913" x2="2107.173913" y1="91.000000" y2="96.000000" stroke="#AAAAAA" /><text style="font-size:10px;font-family:OpenSans;fill:#000000;" text-anchor="middle" x="2107.173913" y="106.000000">1203</text><line x1="2336.739130" x2="2336.739130" y1="91.000000" y2="96.000000" stroke="#AAAAAA" /><text style="font-size:10px;font-family:OpenSans;fill:#000000;" text-anchor="middle" x="2336.739130" y="106.000000">1335</text></g>
<rect fill="#EBD61D" x="4" y="120.000000" width="12" height="12" filter="url(#ds)"/><text style="font-size:12px;font-family:OpenSans;fill:#000000;" text-anchor="start" x="20" y="132.000000">WD domain, G-beta repeat</text><rect fill="#5B5BFF" x="4" y="134.000000" width="12" height="12" filter="url(#ds)"/><text style="font-size:12px;font-family:OpenSans;fill:#000000;" text-anchor="start" x="20" y="146.000000">HEAT repeat</text></svg>
