<?xml version='1.0'?>
<svg xmlns="http://www.w3.org/2000/svg" xmlns:xlink="http://www.w3.org/1999/xlink" width="430.000000" height="133.000000">
<defs>
  <filter id="ds" x="0" y="0">
    <feOffset in="SourceAlpha" dx="2" dy="2" />
    <feComponentTransfer><feFuncA type="linear" slope="0.2"/></feComponentTransfer>
    <feGaussianBlur result="blurOut" stdDeviation="1" />
    <feBlend in="SourceGraphic" in2="blurOut" mode="normal" />
  </filter>
  <pattern id="disordered-hatch" patternUnits="userSpaceOnUse" width="4" height="4">
    <path d="M-1,1 l2,-2 M0,4 l4,-4 M3,5 l2,-2" stroke="#000000" opacity="0.3" />
  </pattern>
</defs>
<line x1="16.544402" x2="16.544402" y1="34.000000" y2="62.000000" stroke="#BABDB6" stroke-width="2"/><a xlink:title="M1t1?"><circle cx="16.544402" cy="34.000000" r="4.000000" fill="#ff0000" /></a><g transform="translate(16.544402,34.000000) rotate(-30)"><text style="font-size:10px;font-family:OpenSans;fill:#555;" text-anchor="middle" x="0" y="-6.000000">M1t1?</text></g><line x1="126.196911" x2="126.196911" y1="34.000000" y2="62.000000" stroke="#BABDB6" stroke-width="2"/><a xlink:title="N72N"><circle cx="126.196911" cy="34.000000" r="4.000000" fill="#0000ff" /></a><g transform="translate(126.196911,34.000000) rotate(-30)"><text style="font-size:10px;font-family:OpenSans;fill:#555;" text-anchor="middle" x="0" y="-6.000000">N72N</text></g><line x1="135.463320" x2="135.463320" y1="34.000000" y2="62.000000" stroke="#BABDB6" stroke-width="2"/><a xlink:title="A78G"><circle cx="135.463320" cy="34.000000" r="4.000000" fill="#ff0000" /></a><g transform="translate(135.463320,34.000000) rotate(-30)"><text style="font-size:10px;font-family:OpenSans;fill:#555;" text-anchor="middle" x="0" y="-6.000000">A78G</text></g><line x1="292.992278" x2="292.992278" y1="34.000000" y2="62.000000" stroke="#BABDB6" stroke-width="2"/><a xlink:title="R180Q"><circle cx="292.992278" cy="34.000000" r="4.000000" fill="#ff0000" /></a><g transform="translate(292.992278,34.000000) rotate(-30)"><text style="font-size:10px;font-family:OpenSans;fill:#555;" text-anchor="middle" x="0" y="-6.000000">R180Q</text></g><line x1="300.714286" x2="300.714286" y1="34.000000" y2="62.000000" stroke="#BABDB6" stroke-width="2"/><a xlink:title="R185Q"><circle cx="300.714286" cy="34.000000" r="4.000000" fill="#ff0000" /></a><g transform="translate(300.714286,34.000000) rotate(-30)"><text style="font-size:10px;font-family:OpenSans;fill:#555;" text-anchor="middle" x="0" y="-6.000000">R185Q</text></g><line x1="336.235521" x2="336.235521" y1="34.000000" y2="62.000000" stroke="#BABDB6" stroke-width="2"/><a xlink:title="K208K"><circle cx="336.235521" cy="34.000000" r="4.000000" fill="#0000ff" /></a><g transform="translate(336.235521,34.000000) rotate(-30)"><text style="font-size:10px;font-family:OpenSans;fill:#555;" text-anchor="middle" x="0" y="-6.000000">K208K</text></g><line x1="343.957529" x2="343.957529" y1="34.000000" y2="62.000000" stroke="#BABDB6" stroke-width="2"/><a xlink:title="K213K"><circle cx="343.957529" cy="34.000000" r="4.000000" fill="#0000ff" /></a><g transform="translate(343.957529,34.000000) rotate(-30)"><text style="font-size:10px;font-family:OpenSans;fill:#555;" text-anchor="middle" x="0" y="-6.000000">K213K</text></g><a xlink:title=",  (259aa)"><rect fill="#BABDB6" x="15.000000" y="62.000000" width="400.000000" height="14.000000"/></a><g transform="translate(153.996139,57.000000)"><a xlink:href="https://www.ebi.ac.uk/interpro/entry/pfam/PF06102" xlink:title="rRNA biogenesis protein RRP36"><rect fill="#2DCF00" x="0" y="0" width="250.193050" height="24.000000" filter="url(#ds)"/><text style="font-size:12px;font-family:OpenSans;fill:#ffffff;" text-anchor="middle" x="125.096525" y="16.000000">rRNA biogenesis protein RRP36</text></a></g>
<g class="axis">
<line x1="15.000000" x2="415.000000" y1="91.000000" y2="91.000000" stroke="#AAAAAA" /><line x1="15.000000" x2="15.000000" y1="91.000000" y2="96.000000" stroke="#AAAAAA" /><line x1="16.544402" x2="16.544402" y1="91.000000" y2="96.000000" stroke="#AAAAAA" /><text style="font-size:10px;font-family:OpenSans;fill:#000000;" text-anchor="middle" x="16.544402" y="106.000000">1</text><line x1="126.196911" x2="126.196911" y1="91.000000" y2="96.000000" stroke="#AAAAAA" /><text style="font-size:10px;font-family:OpenSans;fill:#000000;" text-anchor="middle" x="126.196911" y="106.000000">72</text><line x1="153.996139" x2="153.996139" y1="91.000000" y2="96.000000" stroke="#AAAAAA" /><text style="font-size:10px;font-family:OpenSans;fill:#000000;" text-anchor="middle" x="153.996139" y="106.000000">90</text><line x1="292.992278" x2="292.992278" y1="91.000000" y2="96.000000" stroke="#AAAAAA" /><text style="font-size:10px;font-family:OpenSans;fill:#000000;" text-anchor="middle" x="292.992278" y="106.000000">180</text><line x1="336.235521" x2="336.235521" y1="91.000000" y2="96.000000" stroke="#AAAAAA" /><text style="font-size:10px;font-family:OpenSans;fill:#000000;" text-anchor="middle" x="336.235521" y="106.000000">208</text><line x1="415.000000" x2="415.000000" y1="91.000000" y2="96.000000" stroke="#AAAAAA" /><text style="font-size:10px;font-family:OpenSans;fill:#000000;" text-anchor="middle" x="415.000000" y="106.000000">259</text></g>
</svg>
