<?xml version='1.0'?>
<svg xmlns="http://www.w3.org/2000/svg" xmlns:xlink="http://www.w3.org/1999/xlink" width="430.000000" height="158.000000">
<defs>
  <filter id="ds" x="0" y="0">
    <feOffset in="SourceAlpha" dx="2" dy="2" />
    <feComponentTransfer><feFuncA type="linear" slope="0.2"/></feComponentTransfer>
    <feGaussianBlur result="blurOut" stdDeviation="1" />
    <feBlend in="SourceGraphic" in2="blurOut" mode="normal" />
  </filter>
  <pattern id="disordered-hatch" patternUnits="userSpaceOnUse" width="4" height="4">
    <path d="M-1,1 l2,-2 M0,4 l4,-4 M3,5 l2,-2" stroke="#000000" opacity="0.3" />
  </pattern>
</defs>
<line x1="17.142857" x2="17.142857" y1="59.000000" y2="87.000000" stroke="#BABDB6" stroke-width="2"/><a xlink:title="S3S"><circle cx="17.142857" cy="59.000000" r="4.000000" fill="#0000ff" /></a><g transform="translate(17.142857,59.000000) rotate(-30)"><text style="font-size:10px;font-family:OpenSans;fill:#555;" text-anchor="middle" x="0" y="-6.000000">S3S</text></g><line x1="23.571429" x2="23.571429" y1="59.000000" y2="87.000000" stroke="#BABDB6" stroke-width="2"/><a xlink:title="A12V"><circle cx="23.571429" cy="59.000000" r="4.000000" fill="#ff0000" /></a><g transform="translate(23.571429,59.000000) rotate(-30)"><text style="font-size:10px;font-family:OpenSans;fill:#555;" text-anchor="middle" x="0" y="-6.000000">A12V</text></g><line x1="57.142857" x2="57.142857" y1="59.000000" y2="87.000000" stroke="#BABDB6" stroke-width="2"/><a xlink:title="N59S"><circle cx="57.142857" cy="59.000000" r="4.000000" fill="#ff0000" /></a><g transform="translate(57.142857,59.000000) rotate(-30)"><text style="font-size:10px;font-family:OpenSans;fill:#555;" text-anchor="middle" x="0" y="-6.000000">N59S</text></g><line x1="65.714286" x2="65.714286" y1="34.000000" y2="87.000000" stroke="#BABDB6" stroke-width="2"/><a xlink:title="R71Q"><circle cx="65.714286" cy="34.000000" r="4.000000" fill="#ff0000" /></a><g transform="translate(65.714286,34.000000) rotate(-30)"><text style="font-size:10px;font-family:OpenSans;fill:#555;" text-anchor="middle" x="0" y="-6.000000">R71Q</text></g><line x1="65.714286" x2="65.714286" y1="46.500000" y2="87.000000" stroke="#BABDB6" stroke-width="2"/><a xlink:title="R71W"><circle cx="65.714286" cy="46.500000" r="4.000000" fill="#ff0000" /></a><g transform="translate(65.714286,46.500000) rotate(-30)"><text style="font-size:10px;font-family:OpenSans;fill:#555;" text-anchor="middle" x="0" y="-6.000000">R71W</text></g><line x1="69.285714" x2="69.285714" y1="46.500000" y2="87.000000" stroke="#BABDB6" stroke-width="2"/><a xlink:title="A76P"><circle cx="69.285714" cy="46.500000" r="4.000000" fill="#ff0000" /></a><g transform="translate(69.285714,46.500000) rotate(-30)"><text style="font-size:10px;font-family:OpenSans;fill:#555;" text-anchor="middle" x="0" y="-6.000000">A76P</text></g><line x1="72.857143" x2="72.857143" y1="59.000000" y2="87.000000" stroke="#BABDB6" stroke-width="2"/><a xlink:title="R81R"><circle cx="72.857143" cy="59.000000" r="4.000000" fill="#0000ff" /></a><g transform="translate(72.857143,59.000000) rotate(-30)"><text style="font-size:10px;font-family:OpenSans;fill:#555;" text-anchor="middle" x="0" y="-6.000000">R81R</text></g><line x1="118.571429" x2="118.571429" y1="59.000000" y2="87.000000" stroke="#BABDB6" stroke-width="2"/><a xlink:title="S145S"><circle cx="118.571429" cy="59.000000" r="4.000000" fill="#0000ff" /></a><g transform="translate(118.571429,59.000000) rotate(-30)"><text style="font-size:10px;font-family:OpenSans;fill:#555;" text-anchor="middle" x="0" y="-6.000000">S145S</text></g><line x1="125.000000" x2="125.000000" y1="59.000000" y2="87.000000" stroke="#BABDB6" stroke-width="2"/><a xlink:title="A154V"><circle cx="125.000000" cy="59.000000" r="4.000000" fill="#ff0000" /></a><g transform="translate(125.000000,59.000000) rotate(-30)"><text style="font-size:10px;font-family:OpenSans;fill:#555;" text-anchor="middle" x="0" y="-6.000000">A154V</text></g><line x1="134.285714" x2="134.285714" y1="59.000000" y2="87.000000" stroke="#BABDB6" stroke-width="2"/><a xlink:title="M167T"><circle cx="134.285714" cy="59.000000" r="4.000000" fill="#ff0000" /></a><g transform="translate(134.285714,59.000000) rotate(-30)"><text style="font-size:10px;font-family:OpenSans;fill:#555;" text-anchor="middle" x="0" y="-6.000000">M167T</text></g><line x1="154.285714" x2="154.285714" y1="46.500000" y2="87.000000" stroke="#BABDB6" stroke-width="2"/><a xlink:title="R195R"><circle cx="154.285714" cy="46.500000" r="4.000000" fill="#0000ff" /></a><g transform="translate(154.285714,46.500000) rotate(-30)"><text style="font-size:10px;font-family:OpenSans;fill:#555;" text-anchor="middle" x="0" y="-6.000000">R195R</text></g><line x1="158.571429" x2="158.571429" y1="59.000000" y2="87.000000" stroke="#BABDB6" stroke-width="2"/><a xlink:title="N201S"><circle cx="158.571429" cy="59.000000" r="4.000000" fill="#ff0000" /></a><g transform="translate(158.571429,59.000000) rotate(-30)"><text style="font-size:10px;font-family:OpenSans;fill:#555;" text-anchor="middle" x="0" y="-6.000000">N201S</text></g><line x1="175.714286" x2="175.714286" y1="59.000000" y2="87.000000" stroke="#BABDB6" stroke-width="2"/><a xlink:title="L225L"><circle cx="175.714286" cy="59.000000" r="4.000000" fill="#0000ff" /></a><g transform="translate(175.714286,59.000000) rotate(-30)"><text style="font-size:10px;font-family:OpenSans;fill:#555;" text-anchor="middle" x="0" y="-6.000000">L225L</text></g><line x1="190.714286" x2="190.714286" y1="59.000000" y2="87.000000" stroke="#BABDB6" stroke-width="2"/><a xlink:title="G246D"><circle cx="190.714286" cy="59.000000" r="4.000000" fill="#ff0000" /></a><g transform="translate(190.714286,59.000000) rotate(-30)"><text style="font-size:10px;font-family:OpenSans;fill:#555;" text-anchor="middle" x="0" y="-6.000000">G246D</text></g><line x1="206.428571" x2="206.428571" y1="46.500000" y2="87.000000" stroke="#BABDB6" stroke-width="2"/><a xlink:title="E268E"><circle cx="206.428571" cy="46.500000" r="4.000000" fill="#0000ff" /></a><g transform="translate(206.428571,46.500000) rotate(-30)"><text style="font-size:10px;font-family:OpenSans;fill:#555;" text-anchor="middle" x="0" y="-6.000000">E268E</text></g><line x1="210.000000" x2="210.000000" y1="59.000000" y2="87.000000" stroke="#BABDB6" stroke-width="2"/><a xlink:title="D273N"><circle cx="210.000000" cy="59.000000" r="4.000000" fill="#ff0000" /></a><g transform="translate(210.000000,59.000000) rotate(-30)"><text style="font-size:10px;font-family:OpenSans;fill:#555;" text-anchor="middle" x="0" y="-6.000000">D273N</text></g><line x1="227.142857" x2="227.142857" y1="59.000000" y2="87.000000" stroke="#BABDB6" stroke-width="2"/><a xlink:title="M297T"><circle cx="227.142857" cy="59.000000" r="4.000000" fill="#ff0000" /></a><g transform="translate(227.142857,59.000000) rotate(-30)"><text style="font-size:10px;font-family:OpenSans;fill:#555;" text-anchor="middle" x="0" y="-6.000000">M297T</text></g><line x1="247.142857" x2="247.142857" y1="59.000000" y2="87.000000" stroke="#BABDB6" stroke-width="2"/><a xlink:title="R325R"><circle cx="247.142857" cy="59.000000" r="4.000000" fill="#0000ff" /></a><g transform="translate(247.142857,59.000000) rotate(-30)"><text style="font-size:10px;font-family:OpenSans;fill:#555;" text-anchor="middle" x="0" y="-6.000000">R325R</text></g><line x1="260.000000" x2="260.000000" y1="59.000000" y2="87.000000" stroke="#BABDB6" stroke-width="2"/><a xlink:title="M343T"><circle cx="260.000000" cy="59.000000" r="4.000000" fill="#ff0000" /></a><g transform="translate(260.000000,59.000000) rotate(-30)"><text style="font-size:10px;font-family:OpenSans;fill:#555;" text-anchor="middle" x="0" y="-6.000000">M343T</text></g><line x1="268.571429" x2="268.571429" y1="59.000000" y2="87.000000" stroke="#BABDB6" stroke-width="2"/><a xlink:title="L355L"><circle cx="268.571429" cy="59.000000" r="4.000000" fill="#0000ff" /></a><g transform="translate(268.571429,59.000000) rotate(-30)"><text style="font-size:10px;font-family:OpenSans;fill:#555;" text-anchor="middle" x="0" y="-6.000000">L355L</text></g><line x1="280.000000" x2="280.000000" y1="46.500000" y2="87.000000" stroke="#BABDB6" stroke-width="2"/><a xlink:title="R371R"><circle cx="280.000000" cy="46.500000" r="4.000000" fill="#0000ff" /></a><g transform="translate(280.000000,46.500000) rotate(-30)"><text style="font-size:10px;font-family:OpenSans;fill:#555;" text-anchor="middle" x="0" y="-6.000000">R371R</text></g><line x1="283.571429" x2="283.571429" y1="59.000000" y2="87.000000" stroke="#BABDB6" stroke-width="2"/><a xlink:title="G376D"><circle cx="283.571429" cy="59.000000" r="4.000000" fill="#ff0000" /></a><g transform="translate(283.571429,59.000000) rotate(-30)"><text style="font-size:10px;font-family:OpenSans;fill:#555;" text-anchor="middle" x="0" y="-6.000000">G376D</text></g><line x1="299.285714" x2="299.285714" y1="34.000000" y2="87.000000" stroke="#BABDB6" stroke-width="2"/><a xlink:title="E398E"><circle cx="299.285714" cy="34.000000" r="4.000000" fill="#0000ff" /></a><g transform="translate(299.285714,34.000000) rotate(-30)"><text style="font-size:10px;font-family:OpenSans;fill:#555;" text-anchor="middle" x="0" y="-6.000000">E398E</text></g><line x1="301.428571" x2="301.428571" y1="46.500000" y2="87.000000" stroke="#BABDB6" stroke-width="2"/><a xlink:title="L401L"><circle cx="301.428571" cy="46.500000" r="4.000000" fill="#0000ff" /></a><g transform="translate(301.428571,46.500000) rotate(-30)"><text style="font-size:10px;font-family:OpenSans;fill:#555;" text-anchor="middle" x="0" y="-6.000000">L401L</text></g><line x1="302.857143" x2="302.857143" y1="59.000000" y2="87.000000" stroke="#BABDB6" stroke-width="2"/><a xlink:title="D403N"><circle cx="302.857143" cy="59.000000" r="4.000000" fill="#ff0000" /></a><g transform="translate(302.857143,59.000000) rotate(-30)"><text style="font-size:10px;font-family:OpenSans;fill:#555;" text-anchor="middle" x="0" y="-6.000000">D403N</text></g><line x1="316.428571" x2="316.428571" y1="59.000000" y2="87.000000" stroke="#BABDB6" stroke-width="2"/><a xlink:title="G422D"><circle cx="316.428571" cy="59.000000" r="4.000000" fill="#ff0000" /></a><g transform="translate(316.428571,59.000000) rotate(-30)"><text style="font-size:10px;font-family:OpenSans;fill:#555;" text-anchor="middle" x="0" y="-6.000000">G422D</text></g><line x1="332.142857" x2="332.142857" y1="46.500000" y2="87.000000" stroke="#BABDB6" stroke-width="2"/><a xlink:title="E444E"><circle cx="332.142857" cy="46.500000" r="4.000000" fill="#0000ff" /></a><g transform="translate(332.142857,46.500000) rotate(-30)"><text style="font-size:10px;font-family:OpenSans;fill:#555;" text-anchor="middle" x="0" y="-6.000000">E444E</text></g><line x1="335.714286" x2="335.714286" y1="59.000000" y2="87.000000" stroke="#BABDB6" stroke-width="2"/><a xlink:title="D449N"><circle cx="335.714286" cy="59.000000" r="4.000000" fill="#ff0000" /></a><g transform="translate(335.714286,59.000000) rotate(-30)"><text style="font-size:10px;font-family:OpenSans;fill:#555;" text-anchor="middle" x="0" y="-6.000000">D449N</text></g><a xlink:title=",  (560aa)"><rect fill="#BABDB6" x="15.000000" y="87.000000" width="400.000000" height="14.000000"/></a><g transform="translate(190.000000,82.000000)"><a xlink:href="https://www.ebi.ac.uk/interpro/entry/pfam/PF06098" xlink:title="Radial spoke protein 3"><rect fill="#2DCF00" x="0" y="0" width="162.142857" height="24.000000" filter="url(#ds)"/><text style="font-size:12px;font-family:OpenSans;fill:#ffffff;" text-anchor="middle" x="81.071429" y="16.000000">Radial spoke protein 3</text></a></g>
<g class="axis">
<line x1="15.000000" x2="415.000000" y1="116.000000" y2="116.000000" stroke="#AAAAAA" /><line x1="15.000000" x2="15.000000" y1="116.000000" y2="121.000000" stroke="#AAAAAA" /><line x1="17.142857" x2="17.142857" y1="116.000000" y2="121.000000" stroke="#AAAAAA" /><text style="font-size:10px;font-family:OpenSans;fill:#000000;" text-anchor="middle" x="17.142857" y="131.000000">3</text><line x1="57.142857" x2="57.142857" y1="116.000000" y2="121.000000" stroke="#AAAAAA" /><text style="font-size:10px;font-family:OpenSans;fill:#000000;" text-anchor="middle" x="57.142857" y="131.000000">59</text><line x1="118.571429" x2="118.571429" y1="116.000000" y2="121.000000" stroke="#AAAAAA" /><text style="font-size:10px;font-family:OpenSans;fill:#000000;" text-anchor="middle" x="118.571429" y="131.000000">145</text><line x1="154.285714" x2="154.285714" y1="116.000000" y2="121.000000" stroke="#AAAAAA" /><text style="font-size:10px;font-family:OpenSans;fill:#000000;" text-anchor="middle" x="154.285714" y="131.000000">195</text><line x1="175.714286" x2="175.714286" y1="116.000000" y2="121.000000" stroke="#AAAAAA" /><text style="font-size:10px;font-family:OpenSans;fill:#000000;" text-anchor="middle" x="175.714286" y="131.000000">225</text><line x1="206.428571" x2="206.428571" y1="116.000000" y2="121.000000" stroke="#AAAAAA" /><text style="font-size:10px;font-family:OpenSans;fill:#000000;" text-anchor="middle" x="206.428571" y="131.000000">268</text><line x1="227.142857" x2="227.142857" y1="116.000000" y2="121.000000" stroke="#AAAAAA" /><text style="font-size:10px;font-family:OpenSans;fill:#000000;" text-anchor="middle" x="227.142857" y="131.000000">297</text><line x1="247.142857" x2="247.142857" y1="116.000000" y2="121.000000" stroke="#AAAAAA" /><text style="font-size:10px;font-family:OpenSans;fill:#000000;" text-anchor="middle" x="247.142857" y="131.000000">325</text><line x1="268.571429" x2="268.571429" y1="116.000000" y2="121.000000" stroke="#AAAAAA" /><text style="font-size:10px;font-family:OpenSans;fill:#000000;" text-anchor="middle" x="268.571429" y="131.000000">355</text><line x1="299.285714" x2="299.285714" y1="116.000000" y2="121.000000" stroke="#AAAAAA" /><text style="font-size:10px;font-family:OpenSans;fill:#000000;" text-anchor="middle" x="299.285714" y="131.000000">398</text><line x1="332.142857" x2="332.142857" y1="116.000000" y2="121.000000" stroke="#AAAAAA" /><text style="font-size:10px;font-family:OpenSans;fill:#000000;" text-anchor="middle" x="332.142857" y="131.000000">444</text><line x1="352.142857" x2="352.142857" y1="116.000000" y2="121.000000" stroke="#AAAAAA" /><text style="font-size:10px;font-family:OpenSans;fill:#000000;" text-anchor="middle" x="352.142857" y="131.000000">472</text><line x1="415.000000" x2="415.000000" y1="116.000000" y2="121.000000" stroke="#AAAAAA" /><text style="font-size:10px;font-family:OpenSans;fill:#000000;" text-anchor="middle" x="415.000000" y="131.000000">560</text></g>
</svg>
