<?xml version='1.0'?>
<svg xmlns="http://www.w3.org/2000/svg" xmlns:xlink="http://www.w3.org/1999/xlink" width="430.000000" height="158.700000">
<defs>
  <filter id="ds" x="0" y="0">
    <feOffset in="SourceAlpha" dx="2" dy="2" />
    <feComponentTransfer><feFuncA type="linear" slope="0.2"/></feComponentTransfer>
    <feGaussianBlur result="blurOut" stdDeviation="1" />
    <feBlend in="SourceGraphic" in2="blurOut" mode="normal" />
  </filter>
  <pattern id="disordered-hatch" patternUnits="userSpaceOnUse" width="4" height="4">
    <path d="M-1,1 l2,-2 M0,4 l4,-4 M3,5 l2,-2" stroke="#000000" opacity="0.3" />
  </pattern>
</defs>
<line x1="183.653422" x2="183.653422" y1="46.500000" y2="74.500000" stroke="#BABDB6" stroke-width="2"/><a xlink:title="C191C"><circle cx="183.653422" cy="46.500000" r="4.000000" fill="#0000ff" /></a><g transform="translate(183.653422,46.500000) rotate(-30)"><text style="font-size:10px;font-family:OpenSans;fill:#555;" text-anchor="middle" x="0" y="-6.000000">C191C</text></g><line x1="297.560706" x2="297.560706" y1="34.000000" y2="74.500000" stroke="#BABDB6" stroke-width="2"/><a xlink:title="Q320R"><circle cx="297.560706" cy="34.000000" r="4.000000" fill="#ff0000" /></a><g transform="translate(297.560706,34.000000) rotate(-30)"><text style="font-size:10px;font-family:OpenSans;fill:#555;" text-anchor="middle" x="0" y="-6.000000">Q320R</text></g><line x1="298.443709" x2="298.443709" y1="46.500000" y2="74.500000" stroke="#BABDB6" stroke-width="2"/><a xlink:title="Q321R"><circle cx="298.443709" cy="46.500000" r="4.000000" fill="#ff0000" /></a><g transform="translate(298.443709,46.500000) rotate(-30)"><text style="font-size:10px;font-family:OpenSans;fill:#555;" text-anchor="middle" x="0" y="-6.000000">Q321R</text></g><line x1="309.039735" x2="309.039735" y1="46.500000" y2="74.500000" stroke="#BABDB6" stroke-width="2"/><a xlink:title="Q333R"><circle cx="309.039735" cy="46.500000" r="4.000000" fill="#ff0000" /></a><g transform="translate(309.039735,46.500000) rotate(-30)"><text style="font-size:10px;font-family:OpenSans;fill:#555;" text-anchor="middle" x="0" y="-6.000000">Q333R</text></g><line x1="341.710817" x2="341.710817" y1="46.500000" y2="74.500000" stroke="#BABDB6" stroke-width="2"/><a xlink:title="Q370R"><circle cx="341.710817" cy="46.500000" r="4.000000" fill="#ff0000" /></a><g transform="translate(341.710817,46.500000) rotate(-30)"><text style="font-size:10px;font-family:OpenSans;fill:#555;" text-anchor="middle" x="0" y="-6.000000">Q370R</text></g><line x1="354.072848" x2="354.072848" y1="34.000000" y2="74.500000" stroke="#BABDB6" stroke-width="2"/><a xlink:title="Q384R"><circle cx="354.072848" cy="34.000000" r="4.000000" fill="#ff0000" /></a><g transform="translate(354.072848,34.000000) rotate(-30)"><text style="font-size:10px;font-family:OpenSans;fill:#555;" text-anchor="middle" x="0" y="-6.000000">Q384R</text></g><line x1="354.955850" x2="354.955850" y1="46.500000" y2="74.500000" stroke="#BABDB6" stroke-width="2"/><a xlink:title="Q385R"><circle cx="354.955850" cy="46.500000" r="4.000000" fill="#ff0000" /></a><g transform="translate(354.955850,46.500000) rotate(-30)"><text style="font-size:10px;font-family:OpenSans;fill:#555;" text-anchor="middle" x="0" y="-6.000000">Q385R</text></g><line x1="365.551876" x2="365.551876" y1="46.500000" y2="74.500000" stroke="#BABDB6" stroke-width="2"/><a xlink:title="Q397R"><circle cx="365.551876" cy="46.500000" r="4.000000" fill="#ff0000" /></a><g transform="translate(365.551876,46.500000) rotate(-30)"><text style="font-size:10px;font-family:OpenSans;fill:#555;" text-anchor="middle" x="0" y="-6.000000">Q397R</text></g><a xlink:title=",  (453aa)"><rect fill="#BABDB6" x="15.000000" y="74.500000" width="400.000000" height="14.000000"/></a><g transform="translate(60.916115,69.500000)"><a xlink:href="https://www.ebi.ac.uk/interpro/entry/pfam/PF00853" xlink:title="Runt domain"><rect fill="#2DCF00" x="0" y="0" width="112.141280" height="24.000000" filter="url(#ds)"/><text style="font-size:12px;font-family:OpenSans;fill:#ffffff;" text-anchor="middle" x="56.070640" y="16.000000">Runt domain</text></a></g>
<g transform="translate(334.646799,69.500000)"><a xlink:href="https://www.ebi.ac.uk/interpro/entry/pfam/PF08504" xlink:title="Runx inhibition domain"><rect fill="#FF5353" x="0" y="0" width="80.353201" height="24.000000" filter="url(#ds)"/><text style="font-size:12px;font-family:OpenSans;fill:#ffffff;" text-anchor="middle" x="40.176600" y="16.000000">RunxI</text></a></g>
<g class="axis">
<line x1="15.000000" x2="415.000000" y1="103.500000" y2="103.500000" stroke="#AAAAAA" /><line x1="15.000000" x2="15.000000" y1="103.500000" y2="108.500000" stroke="#AAAAAA" /><line x1="15.000000" x2="15.000000" y1="103.500000" y2="108.500000" stroke="#AAAAAA" /><text style="font-size:10px;font-family:OpenSans;fill:#000000;" text-anchor="middle" x="15.000000" y="118.500000">0</text><line x1="60.916115" x2="60.916115" y1="103.500000" y2="108.500000" stroke="#AAAAAA" /><text style="font-size:10px;font-family:OpenSans;fill:#000000;" text-anchor="middle" x="60.916115" y="118.500000">52</text><line x1="183.653422" x2="183.653422" y1="103.500000" y2="108.500000" stroke="#AAAAAA" /><text style="font-size:10px;font-family:OpenSans;fill:#000000;" text-anchor="middle" x="183.653422" y="118.500000">191</text><line x1="297.560706" x2="297.560706" y1="103.500000" y2="108.500000" stroke="#AAAAAA" /><text style="font-size:10px;font-family:OpenSans;fill:#000000;" text-anchor="middle" x="297.560706" y="118.500000">320</text><line x1="341.710817" x2="341.710817" y1="103.500000" y2="108.500000" stroke="#AAAAAA" /><text style="font-size:10px;font-family:OpenSans;fill:#000000;" text-anchor="middle" x="341.710817" y="118.500000">370</text><line x1="365.551876" x2="365.551876" y1="103.500000" y2="108.500000" stroke="#AAAAAA" /><text style="font-size:10px;font-family:OpenSans;fill:#000000;" text-anchor="middle" x="365.551876" y="118.500000">397</text><line x1="415.000000" x2="415.000000" y1="103.500000" y2="108.500000" stroke="#AAAAAA" /><text style="font-size:10px;font-family:OpenSans;fill:#000000;" text-anchor="middle" x="415.000000" y="118.500000">453</text></g>
<rect fill="#FF5353" x="4" y="132.500000" width="12" height="12" filter="url(#ds)"/><text style="font-size:12px;font-family:OpenSans;fill:#000000;" text-anchor="start" x="20" y="144.500000">Runx inhibition domain</text></svg>
