<?xml version='1.0'?>
<svg xmlns="http://www.w3.org/2000/svg" xmlns:xlink="http://www.w3.org/1999/xlink" width="891.176471" height="159.400000">
<defs>
  <filter id="ds" x="0" y="0">
    <feOffset in="SourceAlpha" dx="2" dy="2" />
    <feComponentTransfer><feFuncA type="linear" slope="0.2"/></feComponentTransfer>
    <feGaussianBlur result="blurOut" stdDeviation="1" />
    <feBlend in="SourceGraphic" in2="blurOut" mode="normal" />
  </filter>
  <pattern id="disordered-hatch" patternUnits="userSpaceOnUse" width="4" height="4">
    <path d="M-1,1 l2,-2 M0,4 l4,-4 M3,5 l2,-2" stroke="#000000" opacity="0.3" />
  </pattern>
</defs>
<line x1="412.176471" x2="412.176471" y1="34.000000" y2="62.000000" stroke="#BABDB6" stroke-width="2"/><a xlink:title="T422T"><circle cx="412.176471" cy="34.000000" r="4.000000" fill="#0000ff" /></a><g transform="translate(412.176471,34.000000) rotate(-30)"><text style="font-size:10px;font-family:OpenSans;fill:#555;" text-anchor="middle" x="0" y="-6.000000">T422T</text></g><line x1="495.000000" x2="495.000000" y1="34.000000" y2="62.000000" stroke="#BABDB6" stroke-width="2"/><a xlink:title="T510T"><circle cx="495.000000" cy="34.000000" r="4.000000" fill="#0000ff" /></a><g transform="translate(495.000000,34.000000) rotate(-30)"><text style="font-size:10px;font-family:OpenSans;fill:#555;" text-anchor="middle" x="0" y="-6.000000">T510T</text></g><line x1="559.941176" x2="559.941176" y1="34.000000" y2="62.000000" stroke="#BABDB6" stroke-width="2"/><a xlink:title="T579T"><circle cx="559.941176" cy="34.000000" r="4.000000" fill="#0000ff" /></a><g transform="translate(559.941176,34.000000) rotate(-30)"><text style="font-size:10px;font-family:OpenSans;fill:#555;" text-anchor="middle" x="0" y="-6.000000">T579T</text></g><a xlink:title=",  (915aa)"><rect fill="#BABDB6" x="15.000000" y="62.000000" width="861.176471" height="14.000000"/></a><g transform="translate(44.176471,57.000000)"><a xlink:href="https://www.ebi.ac.uk/interpro/entry/pfam/PF02037" xlink:title="SAP domain"><rect fill="#2DCF00" x="0" y="0" width="32.000000" height="24.000000" filter="url(#ds)"/><text style="font-size:12px;font-family:OpenSans;fill:#ffffff;" text-anchor="middle" x="16.000000" y="16.000000">SAP</text></a></g>
<g transform="translate(399.941176,57.000000)"><a xlink:href="https://www.ebi.ac.uk/interpro/entry/pfam/PF00076" xlink:title="RNA recognition motif"><rect fill="#FF5353" x="0" y="0" width="64.000000" height="24.000000" filter="url(#ds)"/><text style="font-size:12px;font-family:OpenSans;fill:#ffffff;" text-anchor="middle" x="32.000000" y="16.000000">RRM_1</text></a></g>
<g class="axis">
<line x1="15.000000" x2="876.176471" y1="91.000000" y2="91.000000" stroke="#AAAAAA" /><line x1="15.000000" x2="15.000000" y1="91.000000" y2="96.000000" stroke="#AAAAAA" /><line x1="15.000000" x2="15.000000" y1="91.000000" y2="96.000000" stroke="#AAAAAA" /><text style="font-size:10px;font-family:OpenSans;fill:#000000;" text-anchor="middle" x="15.000000" y="106.000000">0</text><line x1="44.176471" x2="44.176471" y1="91.000000" y2="96.000000" stroke="#AAAAAA" /><text style="font-size:10px;font-family:OpenSans;fill:#000000;" text-anchor="middle" x="44.176471" y="106.000000">31</text><line x1="76.176471" x2="76.176471" y1="91.000000" y2="96.000000" stroke="#AAAAAA" /><text style="font-size:10px;font-family:OpenSans;fill:#000000;" text-anchor="middle" x="76.176471" y="106.000000">65</text><line x1="412.176471" x2="412.176471" y1="91.000000" y2="96.000000" stroke="#AAAAAA" /><text style="font-size:10px;font-family:OpenSans;fill:#000000;" text-anchor="middle" x="412.176471" y="106.000000">422</text><line x1="463.941176" x2="463.941176" y1="91.000000" y2="96.000000" stroke="#AAAAAA" /><text style="font-size:10px;font-family:OpenSans;fill:#000000;" text-anchor="middle" x="463.941176" y="106.000000">477</text><line x1="495.000000" x2="495.000000" y1="91.000000" y2="96.000000" stroke="#AAAAAA" /><text style="font-size:10px;font-family:OpenSans;fill:#000000;" text-anchor="middle" x="495.000000" y="106.000000">510</text><line x1="559.941176" x2="559.941176" y1="91.000000" y2="96.000000" stroke="#AAAAAA" /><text style="font-size:10px;font-family:OpenSans;fill:#000000;" text-anchor="middle" x="559.941176" y="106.000000">579</text><line x1="876.176471" x2="876.176471" y1="91.000000" y2="96.000000" stroke="#AAAAAA" /><text style="font-size:10px;font-family:OpenSans;fill:#000000;" text-anchor="middle" x="876.176471" y="106.000000">915</text></g>
<rect fill="#2DCF00" x="4" y="120.000000" width="12" height="12" filter="url(#ds)"/><text style="font-size:12px;font-family:OpenSans;fill:#000000;" text-anchor="start" x="20" y="132.000000">SAP domain</text><rect fill="#FF5353" x="4" y="134.000000" width="12" height="12" filter="url(#ds)"/><text style="font-size:12px;font-family:OpenSans;fill:#000000;" text-anchor="start" x="20" y="146.000000">RNA recognition motif</text></svg>
