<?xml version='1.0'?>
<svg xmlns="http://www.w3.org/2000/svg" xmlns:xlink="http://www.w3.org/1999/xlink" width="689.483871" height="171.900000">
<defs>
  <filter id="ds" x="0" y="0">
    <feOffset in="SourceAlpha" dx="2" dy="2" />
    <feComponentTransfer><feFuncA type="linear" slope="0.2"/></feComponentTransfer>
    <feGaussianBlur result="blurOut" stdDeviation="1" />
    <feBlend in="SourceGraphic" in2="blurOut" mode="normal" />
  </filter>
  <pattern id="disordered-hatch" patternUnits="userSpaceOnUse" width="4" height="4">
    <path d="M-1,1 l2,-2 M0,4 l4,-4 M3,5 l2,-2" stroke="#000000" opacity="0.3" />
  </pattern>
</defs>
<line x1="32.161290" x2="32.161290" y1="34.000000" y2="74.500000" stroke="#BABDB6" stroke-width="2"/><a xlink:title="A14G"><circle cx="32.161290" cy="34.000000" r="4.000000" fill="#ff0000" /></a><g transform="translate(32.161290,34.000000) rotate(-30)"><text style="font-size:10px;font-family:OpenSans;fill:#555;" text-anchor="middle" x="0" y="-6.000000">A14G</text></g><line x1="35.838710" x2="35.838710" y1="34.000000" y2="74.500000" stroke="#BABDB6" stroke-width="2"/><a xlink:title="T17P"><circle cx="35.838710" cy="34.000000" r="4.000000" fill="#ff0000" /></a><g transform="translate(35.838710,34.000000) rotate(-30)"><text style="font-size:10px;font-family:OpenSans;fill:#555;" text-anchor="middle" x="0" y="-6.000000">T17P</text></g><line x1="40.741935" x2="40.741935" y1="46.500000" y2="74.500000" stroke="#BABDB6" stroke-width="2"/><a xlink:title="A21P"><circle cx="40.741935" cy="46.500000" r="4.000000" fill="#ff0000" /></a><g transform="translate(40.741935,46.500000) rotate(-30)"><text style="font-size:10px;font-family:OpenSans;fill:#555;" text-anchor="middle" x="0" y="-6.000000">A21P</text></g><line x1="431.774194" x2="431.774194" y1="46.500000" y2="74.500000" stroke="#BABDB6" stroke-width="2"/><a xlink:title="E340D"><circle cx="431.774194" cy="46.500000" r="4.000000" fill="#ff0000" /></a><g transform="translate(431.774194,46.500000) rotate(-30)"><text style="font-size:10px;font-family:OpenSans;fill:#555;" text-anchor="middle" x="0" y="-6.000000">E340D</text></g><a xlink:title=",  (538aa)"><rect fill="#BABDB6" x="15.000000" y="74.500000" width="659.483871" height="14.000000"/></a><g transform="translate(55.451613,69.500000)"><a xlink:href="https://www.ebi.ac.uk/interpro/entry/pfam/PF21524" xlink:title="SAM domain-containing protein 1, WH domain"><rect fill="#2DCF00" x="0" y="0" width="76.000000" height="24.000000" filter="url(#ds)"/><text style="font-size:12px;font-family:OpenSans;fill:#ffffff;" text-anchor="middle" x="38.000000" y="16.000000">SAMD1_WH</text></a></g>
<g transform="translate(580.096774,69.500000)"><a xlink:href="https://www.ebi.ac.uk/interpro/entry/pfam/PF00536" xlink:title="SAM domain (Sterile alpha motif)"><rect fill="#FF5353" x="0" y="0" width="67.419355" height="24.000000" filter="url(#ds)"/><text style="font-size:12px;font-family:OpenSans;fill:#ffffff;" text-anchor="middle" x="33.709677" y="16.000000">SAM_1</text></a></g>
<g class="axis">
<line x1="15.000000" x2="674.483871" y1="103.500000" y2="103.500000" stroke="#AAAAAA" /><line x1="15.000000" x2="15.000000" y1="103.500000" y2="108.500000" stroke="#AAAAAA" /><line x1="32.161290" x2="32.161290" y1="103.500000" y2="108.500000" stroke="#AAAAAA" /><text style="font-size:10px;font-family:OpenSans;fill:#000000;" text-anchor="middle" x="32.161290" y="118.500000">14</text><line x1="55.451613" x2="55.451613" y1="103.500000" y2="108.500000" stroke="#AAAAAA" /><text style="font-size:10px;font-family:OpenSans;fill:#000000;" text-anchor="middle" x="55.451613" y="118.500000">33</text><line x1="131.451613" x2="131.451613" y1="103.500000" y2="108.500000" stroke="#AAAAAA" /><text style="font-size:10px;font-family:OpenSans;fill:#000000;" text-anchor="middle" x="131.451613" y="118.500000">95</text><line x1="431.774194" x2="431.774194" y1="103.500000" y2="108.500000" stroke="#AAAAAA" /><text style="font-size:10px;font-family:OpenSans;fill:#000000;" text-anchor="middle" x="431.774194" y="118.500000">340</text><line x1="580.096774" x2="580.096774" y1="103.500000" y2="108.500000" stroke="#AAAAAA" /><text style="font-size:10px;font-family:OpenSans;fill:#000000;" text-anchor="middle" x="580.096774" y="118.500000">461</text><line x1="647.516129" x2="647.516129" y1="103.500000" y2="108.500000" stroke="#AAAAAA" /><text style="font-size:10px;font-family:OpenSans;fill:#000000;" text-anchor="middle" x="647.516129" y="118.500000">516</text><line x1="674.483871" x2="674.483871" y1="103.500000" y2="108.500000" stroke="#AAAAAA" /><text style="font-size:10px;font-family:OpenSans;fill:#000000;" text-anchor="middle" x="674.483871" y="118.500000">538</text></g>
<rect fill="#2DCF00" x="4" y="132.500000" width="12" height="12" filter="url(#ds)"/><text style="font-size:12px;font-family:OpenSans;fill:#000000;" text-anchor="start" x="20" y="144.500000">SAM domain-containing protein 1, WH domain</text><rect fill="#FF5353" x="4" y="146.500000" width="12" height="12" filter="url(#ds)"/><text style="font-size:12px;font-family:OpenSans;fill:#000000;" text-anchor="start" x="20" y="158.500000">SAM domain (Sterile alpha motif)</text></svg>
