<?xml version='1.0'?>
<svg xmlns="http://www.w3.org/2000/svg" xmlns:xlink="http://www.w3.org/1999/xlink" width="526.148148" height="158.700000">
<defs>
  <filter id="ds" x="0" y="0">
    <feOffset in="SourceAlpha" dx="2" dy="2" />
    <feComponentTransfer><feFuncA type="linear" slope="0.2"/></feComponentTransfer>
    <feGaussianBlur result="blurOut" stdDeviation="1" />
    <feBlend in="SourceGraphic" in2="blurOut" mode="normal" />
  </filter>
  <pattern id="disordered-hatch" patternUnits="userSpaceOnUse" width="4" height="4">
    <path d="M-1,1 l2,-2 M0,4 l4,-4 M3,5 l2,-2" stroke="#000000" opacity="0.3" />
  </pattern>
</defs>
<line x1="210.185185" x2="210.185185" y1="34.000000" y2="74.500000" stroke="#BABDB6" stroke-width="2"/><a xlink:title="A155T"><circle cx="210.185185" cy="34.000000" r="4.000000" fill="#ff0000" /></a><g transform="translate(210.185185,34.000000) rotate(-30)"><text style="font-size:10px;font-family:OpenSans;fill:#555;" text-anchor="middle" x="0" y="-6.000000">A155T</text></g><line x1="211.444444" x2="211.444444" y1="46.500000" y2="74.500000" stroke="#BABDB6" stroke-width="2"/><a xlink:title="R156G"><circle cx="211.444444" cy="46.500000" r="4.000000" fill="#ff0000" /></a><g transform="translate(211.444444,46.500000) rotate(-30)"><text style="font-size:10px;font-family:OpenSans;fill:#555;" text-anchor="middle" x="0" y="-6.000000">R156G</text></g><line x1="242.925926" x2="242.925926" y1="46.500000" y2="74.500000" stroke="#BABDB6" stroke-width="2"/><a xlink:title="A181A"><circle cx="242.925926" cy="46.500000" r="4.000000" fill="#0000ff" /></a><g transform="translate(242.925926,46.500000) rotate(-30)"><text style="font-size:10px;font-family:OpenSans;fill:#555;" text-anchor="middle" x="0" y="-6.000000">A181A</text></g><line x1="259.296296" x2="259.296296" y1="46.500000" y2="74.500000" stroke="#BABDB6" stroke-width="2"/><a xlink:title="A194A"><circle cx="259.296296" cy="46.500000" r="4.000000" fill="#0000ff" /></a><g transform="translate(259.296296,46.500000) rotate(-30)"><text style="font-size:10px;font-family:OpenSans;fill:#555;" text-anchor="middle" x="0" y="-6.000000">A194A</text></g><line x1="279.444444" x2="279.444444" y1="46.500000" y2="74.500000" stroke="#BABDB6" stroke-width="2"/><a xlink:title="R210C"><circle cx="279.444444" cy="46.500000" r="4.000000" fill="#ff0000" /></a><g transform="translate(279.444444,46.500000) rotate(-30)"><text style="font-size:10px;font-family:OpenSans;fill:#555;" text-anchor="middle" x="0" y="-6.000000">R210C</text></g><line x1="297.074074" x2="297.074074" y1="46.500000" y2="74.500000" stroke="#BABDB6" stroke-width="2"/><a xlink:title="A224A"><circle cx="297.074074" cy="46.500000" r="4.000000" fill="#0000ff" /></a><g transform="translate(297.074074,46.500000) rotate(-30)"><text style="font-size:10px;font-family:OpenSans;fill:#555;" text-anchor="middle" x="0" y="-6.000000">A224A</text></g><line x1="317.222222" x2="317.222222" y1="46.500000" y2="74.500000" stroke="#BABDB6" stroke-width="2"/><a xlink:title="R240C"><circle cx="317.222222" cy="46.500000" r="4.000000" fill="#ff0000" /></a><g transform="translate(317.222222,46.500000) rotate(-30)"><text style="font-size:10px;font-family:OpenSans;fill:#555;" text-anchor="middle" x="0" y="-6.000000">R240C</text></g><line x1="362.555556" x2="362.555556" y1="46.500000" y2="74.500000" stroke="#BABDB6" stroke-width="2"/><a xlink:title="S276S"><circle cx="362.555556" cy="46.500000" r="4.000000" fill="#0000ff" /></a><g transform="translate(362.555556,46.500000) rotate(-30)"><text style="font-size:10px;font-family:OpenSans;fill:#555;" text-anchor="middle" x="0" y="-6.000000">S276S</text></g><line x1="400.333333" x2="400.333333" y1="46.500000" y2="74.500000" stroke="#BABDB6" stroke-width="2"/><a xlink:title="S306S"><circle cx="400.333333" cy="46.500000" r="4.000000" fill="#0000ff" /></a><g transform="translate(400.333333,46.500000) rotate(-30)"><text style="font-size:10px;font-family:OpenSans;fill:#555;" text-anchor="middle" x="0" y="-6.000000">S306S</text></g><a xlink:title=",  (394aa)"><rect fill="#BABDB6" x="15.000000" y="74.500000" width="496.148148" height="14.000000"/></a><g transform="translate(298.333333,69.500000)"><a xlink:href="https://www.ebi.ac.uk/interpro/entry/pfam/PF11414" xlink:title="Adenomatous polyposis coli tumour suppressor protein"><rect fill="#2DCF00" x="0" y="0" width="102.000000" height="24.000000" filter="url(#ds)"/><text style="font-size:12px;font-family:OpenSans;fill:#ffffff;" text-anchor="middle" x="51.000000" y="16.000000">Suppressor_APC</text></a></g>
<g class="axis">
<line x1="15.000000" x2="511.148148" y1="103.500000" y2="103.500000" stroke="#AAAAAA" /><line x1="15.000000" x2="15.000000" y1="103.500000" y2="108.500000" stroke="#AAAAAA" /><line x1="15.000000" x2="15.000000" y1="103.500000" y2="108.500000" stroke="#AAAAAA" /><text style="font-size:10px;font-family:OpenSans;fill:#000000;" text-anchor="middle" x="15.000000" y="118.500000">0</text><line x1="210.185185" x2="210.185185" y1="103.500000" y2="108.500000" stroke="#AAAAAA" /><text style="font-size:10px;font-family:OpenSans;fill:#000000;" text-anchor="middle" x="210.185185" y="118.500000">155</text><line x1="242.925926" x2="242.925926" y1="103.500000" y2="108.500000" stroke="#AAAAAA" /><text style="font-size:10px;font-family:OpenSans;fill:#000000;" text-anchor="middle" x="242.925926" y="118.500000">181</text><line x1="279.444444" x2="279.444444" y1="103.500000" y2="108.500000" stroke="#AAAAAA" /><text style="font-size:10px;font-family:OpenSans;fill:#000000;" text-anchor="middle" x="279.444444" y="118.500000">210</text><line x1="317.222222" x2="317.222222" y1="103.500000" y2="108.500000" stroke="#AAAAAA" /><text style="font-size:10px;font-family:OpenSans;fill:#000000;" text-anchor="middle" x="317.222222" y="118.500000">240</text><line x1="362.555556" x2="362.555556" y1="103.500000" y2="108.500000" stroke="#AAAAAA" /><text style="font-size:10px;font-family:OpenSans;fill:#000000;" text-anchor="middle" x="362.555556" y="118.500000">276</text><line x1="400.333333" x2="400.333333" y1="103.500000" y2="108.500000" stroke="#AAAAAA" /><text style="font-size:10px;font-family:OpenSans;fill:#000000;" text-anchor="middle" x="400.333333" y="118.500000">306</text><line x1="511.148148" x2="511.148148" y1="103.500000" y2="108.500000" stroke="#AAAAAA" /><text style="font-size:10px;font-family:OpenSans;fill:#000000;" text-anchor="middle" x="511.148148" y="118.500000">394</text></g>
<rect fill="#2DCF00" x="4" y="132.500000" width="12" height="12" filter="url(#ds)"/><text style="font-size:12px;font-family:OpenSans;fill:#000000;" text-anchor="start" x="20" y="144.500000">Adenomatous polyposis coli tumour suppressor protein</text></svg>
