<?xml version='1.0'?>
<svg xmlns="http://www.w3.org/2000/svg" xmlns:xlink="http://www.w3.org/1999/xlink" width="923.939394" height="146.200000">
<defs>
  <filter id="ds" x="0" y="0">
    <feOffset in="SourceAlpha" dx="2" dy="2" />
    <feComponentTransfer><feFuncA type="linear" slope="0.2"/></feComponentTransfer>
    <feGaussianBlur result="blurOut" stdDeviation="1" />
    <feBlend in="SourceGraphic" in2="blurOut" mode="normal" />
  </filter>
  <pattern id="disordered-hatch" patternUnits="userSpaceOnUse" width="4" height="4">
    <path d="M-1,1 l2,-2 M0,4 l4,-4 M3,5 l2,-2" stroke="#000000" opacity="0.3" />
  </pattern>
</defs>
<line x1="240.757576" x2="240.757576" y1="34.000000" y2="62.000000" stroke="#BABDB6" stroke-width="2"/><a xlink:title="S149S"><circle cx="240.757576" cy="34.000000" r="4.000000" fill="#0000ff" /></a><g transform="translate(240.757576,34.000000) rotate(-30)"><text style="font-size:10px;font-family:OpenSans;fill:#555;" text-anchor="middle" x="0" y="-6.000000">S149S</text></g><line x1="358.939394" x2="358.939394" y1="34.000000" y2="62.000000" stroke="#BABDB6" stroke-width="2"/><a xlink:title="S227S"><circle cx="358.939394" cy="34.000000" r="4.000000" fill="#0000ff" /></a><g transform="translate(358.939394,34.000000) rotate(-30)"><text style="font-size:10px;font-family:OpenSans;fill:#555;" text-anchor="middle" x="0" y="-6.000000">S227S</text></g><line x1="421.060606" x2="421.060606" y1="34.000000" y2="62.000000" stroke="#BABDB6" stroke-width="2"/><a xlink:title="A268A"><circle cx="421.060606" cy="34.000000" r="4.000000" fill="#0000ff" /></a><g transform="translate(421.060606,34.000000) rotate(-30)"><text style="font-size:10px;font-family:OpenSans;fill:#555;" text-anchor="middle" x="0" y="-6.000000">A268A</text></g><line x1="448.333333" x2="448.333333" y1="34.000000" y2="62.000000" stroke="#BABDB6" stroke-width="2"/><a xlink:title="A286A"><circle cx="448.333333" cy="34.000000" r="4.000000" fill="#0000ff" /></a><g transform="translate(448.333333,34.000000) rotate(-30)"><text style="font-size:10px;font-family:OpenSans;fill:#555;" text-anchor="middle" x="0" y="-6.000000">A286A</text></g><line x1="475.606061" x2="475.606061" y1="34.000000" y2="62.000000" stroke="#BABDB6" stroke-width="2"/><a xlink:title="A304A"><circle cx="475.606061" cy="34.000000" r="4.000000" fill="#0000ff" /></a><g transform="translate(475.606061,34.000000) rotate(-30)"><text style="font-size:10px;font-family:OpenSans;fill:#555;" text-anchor="middle" x="0" y="-6.000000">A304A</text></g><line x1="595.303030" x2="595.303030" y1="34.000000" y2="62.000000" stroke="#BABDB6" stroke-width="2"/><a xlink:title="A383G"><circle cx="595.303030" cy="34.000000" r="4.000000" fill="#ff0000" /></a><g transform="translate(595.303030,34.000000) rotate(-30)"><text style="font-size:10px;font-family:OpenSans;fill:#555;" text-anchor="middle" x="0" y="-6.000000">A383G</text></g><line x1="622.575758" x2="622.575758" y1="34.000000" y2="62.000000" stroke="#BABDB6" stroke-width="2"/><a xlink:title="A401G"><circle cx="622.575758" cy="34.000000" r="4.000000" fill="#ff0000" /></a><g transform="translate(622.575758,34.000000) rotate(-30)"><text style="font-size:10px;font-family:OpenSans;fill:#555;" text-anchor="middle" x="0" y="-6.000000">A401G</text></g><line x1="649.848485" x2="649.848485" y1="34.000000" y2="62.000000" stroke="#BABDB6" stroke-width="2"/><a xlink:title="A419G"><circle cx="649.848485" cy="34.000000" r="4.000000" fill="#ff0000" /></a><g transform="translate(649.848485,34.000000) rotate(-30)"><text style="font-size:10px;font-family:OpenSans;fill:#555;" text-anchor="middle" x="0" y="-6.000000">A419G</text></g><line x1="824.090909" x2="824.090909" y1="34.000000" y2="62.000000" stroke="#BABDB6" stroke-width="2"/><a xlink:title="S534S"><circle cx="824.090909" cy="34.000000" r="4.000000" fill="#0000ff" /></a><g transform="translate(824.090909,34.000000) rotate(-30)"><text style="font-size:10px;font-family:OpenSans;fill:#555;" text-anchor="middle" x="0" y="-6.000000">S534S</text></g><line x1="851.363636" x2="851.363636" y1="34.000000" y2="62.000000" stroke="#BABDB6" stroke-width="2"/><a xlink:title="S552S"><circle cx="851.363636" cy="34.000000" r="4.000000" fill="#0000ff" /></a><g transform="translate(851.363636,34.000000) rotate(-30)"><text style="font-size:10px;font-family:OpenSans;fill:#555;" text-anchor="middle" x="0" y="-6.000000">S552S</text></g><line x1="878.636364" x2="878.636364" y1="34.000000" y2="62.000000" stroke="#BABDB6" stroke-width="2"/><a xlink:title="S570S"><circle cx="878.636364" cy="34.000000" r="4.000000" fill="#0000ff" /></a><g transform="translate(878.636364,34.000000) rotate(-30)"><text style="font-size:10px;font-family:OpenSans;fill:#555;" text-anchor="middle" x="0" y="-6.000000">S570S</text></g><a xlink:title=",  (590aa)"><rect fill="#BABDB6" x="15.000000" y="62.000000" width="893.939394" height="14.000000"/></a><g transform="translate(57.424242,57.000000)"><a xlink:href="https://www.ebi.ac.uk/interpro/entry/pfam/PF21009" xlink:title="Suprabasin, GxHH repeat"><rect fill="#2DCF00" x="0" y="0" width="100.000000" height="24.000000" filter="url(#ds)"/><text style="font-size:12px;font-family:OpenSans;fill:#ffffff;" text-anchor="middle" x="50.000000" y="16.000000">SBSN_GxHH_rpt</text></a></g>
<g transform="translate(160.454545,57.000000)"><a xlink:href="https://www.ebi.ac.uk/interpro/entry/pfam/PF21009" xlink:title="Suprabasin, GxHH repeat"><rect fill="#FF5353" x="0" y="0" width="580.303030" height="24.000000" filter="url(#ds)"/><text style="font-size:12px;font-family:OpenSans;fill:#ffffff;" text-anchor="middle" x="290.151515" y="16.000000">Suprabasin, GxHH repeat</text></a></g>
<g transform="translate(739.242424,57.000000)"><a xlink:href="https://www.ebi.ac.uk/interpro/entry/pfam/PF21009" xlink:title="Suprabasin, GxHH repeat"><rect fill="#5B5BFF" x="0" y="0" width="113.636364" height="24.000000" filter="url(#ds)"/><text style="font-size:12px;font-family:OpenSans;fill:#ffffff;" text-anchor="middle" x="56.818182" y="16.000000">SBSN_GxHH_rpt</text></a></g>
<g class="axis">
<line x1="15.000000" x2="908.939394" y1="91.000000" y2="91.000000" stroke="#AAAAAA" /><line x1="15.000000" x2="15.000000" y1="91.000000" y2="96.000000" stroke="#AAAAAA" /><line x1="15.000000" x2="15.000000" y1="91.000000" y2="96.000000" stroke="#AAAAAA" /><text style="font-size:10px;font-family:OpenSans;fill:#000000;" text-anchor="middle" x="15.000000" y="106.000000">0</text><line x1="57.424242" x2="57.424242" y1="91.000000" y2="96.000000" stroke="#AAAAAA" /><text style="font-size:10px;font-family:OpenSans;fill:#000000;" text-anchor="middle" x="57.424242" y="106.000000">28</text><line x1="157.424242" x2="157.424242" y1="91.000000" y2="96.000000" stroke="#AAAAAA" /><text style="font-size:10px;font-family:OpenSans;fill:#000000;" text-anchor="middle" x="157.424242" y="106.000000">94</text><line x1="240.757576" x2="240.757576" y1="91.000000" y2="96.000000" stroke="#AAAAAA" /><text style="font-size:10px;font-family:OpenSans;fill:#000000;" text-anchor="middle" x="240.757576" y="106.000000">149</text><line x1="358.939394" x2="358.939394" y1="91.000000" y2="96.000000" stroke="#AAAAAA" /><text style="font-size:10px;font-family:OpenSans;fill:#000000;" text-anchor="middle" x="358.939394" y="106.000000">227</text><line x1="421.060606" x2="421.060606" y1="91.000000" y2="96.000000" stroke="#AAAAAA" /><text style="font-size:10px;font-family:OpenSans;fill:#000000;" text-anchor="middle" x="421.060606" y="106.000000">268</text><line x1="448.333333" x2="448.333333" y1="91.000000" y2="96.000000" stroke="#AAAAAA" /><text style="font-size:10px;font-family:OpenSans;fill:#000000;" text-anchor="middle" x="448.333333" y="106.000000">286</text><line x1="475.606061" x2="475.606061" y1="91.000000" y2="96.000000" stroke="#AAAAAA" /><text style="font-size:10px;font-family:OpenSans;fill:#000000;" text-anchor="middle" x="475.606061" y="106.000000">304</text><line x1="595.303030" x2="595.303030" y1="91.000000" y2="96.000000" stroke="#AAAAAA" /><text style="font-size:10px;font-family:OpenSans;fill:#000000;" text-anchor="middle" x="595.303030" y="106.000000">383</text><line x1="622.575758" x2="622.575758" y1="91.000000" y2="96.000000" stroke="#AAAAAA" /><text style="font-size:10px;font-family:OpenSans;fill:#000000;" text-anchor="middle" x="622.575758" y="106.000000">401</text><line x1="649.848485" x2="649.848485" y1="91.000000" y2="96.000000" stroke="#AAAAAA" /><text style="font-size:10px;font-family:OpenSans;fill:#000000;" text-anchor="middle" x="649.848485" y="106.000000">419</text><line x1="739.242424" x2="739.242424" y1="91.000000" y2="96.000000" stroke="#AAAAAA" /><text style="font-size:10px;font-family:OpenSans;fill:#000000;" text-anchor="middle" x="739.242424" y="106.000000">478</text><line x1="824.090909" x2="824.090909" y1="91.000000" y2="96.000000" stroke="#AAAAAA" /><text style="font-size:10px;font-family:OpenSans;fill:#000000;" text-anchor="middle" x="824.090909" y="106.000000">534</text><line x1="851.363636" x2="851.363636" y1="91.000000" y2="96.000000" stroke="#AAAAAA" /><text style="font-size:10px;font-family:OpenSans;fill:#000000;" text-anchor="middle" x="851.363636" y="106.000000">552</text><line x1="878.636364" x2="878.636364" y1="91.000000" y2="96.000000" stroke="#AAAAAA" /><text style="font-size:10px;font-family:OpenSans;fill:#000000;" text-anchor="middle" x="878.636364" y="106.000000">570</text><line x1="908.939394" x2="908.939394" y1="91.000000" y2="96.000000" stroke="#AAAAAA" /><text style="font-size:10px;font-family:OpenSans;fill:#000000;" text-anchor="middle" x="908.939394" y="106.000000">590</text></g>
<rect fill="#5B5BFF" x="4" y="120.000000" width="12" height="12" filter="url(#ds)"/><text style="font-size:12px;font-family:OpenSans;fill:#000000;" text-anchor="start" x="20" y="132.000000">Suprabasin, GxHH repeat</text></svg>
