<?xml version='1.0'?>
<svg xmlns="http://www.w3.org/2000/svg" xmlns:xlink="http://www.w3.org/1999/xlink" width="2570.314286" height="185.800000">
<defs>
  <filter id="ds" x="0" y="0">
    <feOffset in="SourceAlpha" dx="2" dy="2" />
    <feComponentTransfer><feFuncA type="linear" slope="0.2"/></feComponentTransfer>
    <feGaussianBlur result="blurOut" stdDeviation="1" />
    <feBlend in="SourceGraphic" in2="blurOut" mode="normal" />
  </filter>
  <pattern id="disordered-hatch" patternUnits="userSpaceOnUse" width="4" height="4">
    <path d="M-1,1 l2,-2 M0,4 l4,-4 M3,5 l2,-2" stroke="#000000" opacity="0.3" />
  </pattern>
</defs>
<line x1="1166.914286" x2="1166.914286" y1="34.000000" y2="62.000000" stroke="#BABDB6" stroke-width="2"/><a xlink:title="S453C"><circle cx="1166.914286" cy="34.000000" r="4.000000" fill="#ff0000" /></a><g transform="translate(1166.914286,34.000000) rotate(-30)"><text style="font-size:10px;font-family:OpenSans;fill:#555;" text-anchor="middle" x="0" y="-6.000000">S453C</text></g><line x1="1271.171429" x2="1271.171429" y1="34.000000" y2="62.000000" stroke="#BABDB6" stroke-width="2"/><a xlink:title="S494C"><circle cx="1271.171429" cy="34.000000" r="4.000000" fill="#ff0000" /></a><g transform="translate(1271.171429,34.000000) rotate(-30)"><text style="font-size:10px;font-family:OpenSans;fill:#555;" text-anchor="middle" x="0" y="-6.000000">S494C</text></g><a xlink:title=",  (999aa)"><rect fill="#BABDB6" x="15.000000" y="62.000000" width="2540.314286" height="14.000000"/></a><g transform="translate(139.600000,57.000000)"><a xlink:href="https://www.ebi.ac.uk/interpro/entry/pfam/PF12947" xlink:title="EGF domain"><rect fill="#2DCF00" x="0" y="0" width="89.000000" height="24.000000" filter="url(#ds)"/><text style="font-size:12px;font-family:OpenSans;fill:#ffffff;" text-anchor="middle" x="44.500000" y="16.000000">EGF domain</text></a></g>
<g transform="translate(292.171429,57.000000)"><a xlink:href="https://www.ebi.ac.uk/interpro/entry/pfam/PF12662" xlink:title="Complement Clr-like EGF-like"><rect fill="#FF5353" x="0" y="0" width="55.942857" height="24.000000" filter="url(#ds)"/><text style="font-size:12px;font-family:OpenSans;fill:#ffffff;" text-anchor="middle" x="27.971429" y="16.000000">cEGF</text></a></g>
<g transform="translate(350.657143,57.000000)"><a xlink:href="https://www.ebi.ac.uk/interpro/entry/pfam/PF14670" xlink:title="Coagulation Factor Xa inhibitory site"><rect fill="#5B5BFF" x="0" y="0" width="89.000000" height="24.000000" filter="url(#ds)"/><text style="font-size:12px;font-family:OpenSans;fill:#ffffff;" text-anchor="middle" x="44.500000" y="16.000000">FXa_inhibition</text></a></g>
<g transform="translate(742.257143,57.000000)"><a xlink:href="https://www.ebi.ac.uk/interpro/entry/pfam/PF14670" xlink:title="Coagulation Factor Xa inhibitory site"><rect fill="#EBD61D" x="0" y="0" width="89.000000" height="24.000000" filter="url(#ds)"/><text style="font-size:12px;font-family:OpenSans;fill:#ffffff;" text-anchor="middle" x="44.500000" y="16.000000">FXa_inhibition</text></a></g>
<g transform="translate(846.514286,57.000000)"><a xlink:href="https://www.ebi.ac.uk/interpro/entry/pfam/PF14670" xlink:title="Coagulation Factor Xa inhibitory site"><rect fill="#BA21E0" x="0" y="0" width="89.000000" height="24.000000" filter="url(#ds)"/><text style="font-size:12px;font-family:OpenSans;fill:#ffffff;" text-anchor="middle" x="44.500000" y="16.000000">FXa_inhibition</text></a></g>
<g transform="translate(940.600000,57.000000)"><a xlink:href="https://www.ebi.ac.uk/interpro/entry/pfam/PF07645" xlink:title="Calcium-binding EGF domain"><rect fill="#FF9C42" x="0" y="0" width="76.285714" height="24.000000" filter="url(#ds)"/><text style="font-size:12px;font-family:OpenSans;fill:#ffffff;" text-anchor="middle" x="38.142857" y="16.000000">EGF_CA</text></a></g>
<g transform="translate(1049.942857,57.000000)"><a xlink:href="https://www.ebi.ac.uk/interpro/entry/pfam/PF14670" xlink:title="Coagulation Factor Xa inhibitory site"><rect fill="#FF7DFF" x="0" y="0" width="89.000000" height="24.000000" filter="url(#ds)"/><text style="font-size:12px;font-family:OpenSans;fill:#ffffff;" text-anchor="middle" x="44.500000" y="16.000000">FXa_inhibition</text></a></g>
<g transform="translate(1652.600000,57.000000)"><a xlink:href="https://www.ebi.ac.uk/interpro/entry/pfam/PF07699" xlink:title="Tyrosine-protein kinase ephrin type A/B receptor-like"><rect fill="#B9264F" x="0" y="0" width="127.142857" height="24.000000" filter="url(#ds)"/><text style="font-size:12px;font-family:OpenSans;fill:#ffffff;" text-anchor="middle" x="63.571429" y="16.000000">Ephrin_rec_like</text></a></g>
<g transform="translate(1797.542857,57.000000)"><a xlink:href="https://www.ebi.ac.uk/interpro/entry/pfam/PF07699" xlink:title="Tyrosine-protein kinase ephrin type A/B receptor-like"><rect fill="#BABA21" x="0" y="0" width="119.514286" height="24.000000" filter="url(#ds)"/><text style="font-size:12px;font-family:OpenSans;fill:#ffffff;" text-anchor="middle" x="59.757143" y="16.000000">Ephrin_rec_like</text></a></g>
<g transform="translate(1939.942857,57.000000)"><a xlink:href="https://www.ebi.ac.uk/interpro/entry/pfam/PF07699" xlink:title="Tyrosine-protein kinase ephrin type A/B receptor-like"><rect fill="#C48484" x="0" y="0" width="119.514286" height="24.000000" filter="url(#ds)"/><text style="font-size:12px;font-family:OpenSans;fill:#ffffff;" text-anchor="middle" x="59.757143" y="16.000000">Ephrin_rec_like</text></a></g>
<g transform="translate(2072.171429,57.000000)"><a xlink:href="https://www.ebi.ac.uk/interpro/entry/pfam/PF00431" xlink:title="CUB domain"><rect fill="#1F88A7" x="0" y="0" width="277.171429" height="24.000000" filter="url(#ds)"/><text style="font-size:12px;font-family:OpenSans;fill:#ffffff;" text-anchor="middle" x="138.585714" y="16.000000">CUB domain</text></a></g>
<g class="axis">
<line x1="15.000000" x2="2555.314286" y1="91.000000" y2="91.000000" stroke="#AAAAAA" /><line x1="15.000000" x2="15.000000" y1="91.000000" y2="96.000000" stroke="#AAAAAA" /><line x1="15.000000" x2="15.000000" y1="91.000000" y2="96.000000" stroke="#AAAAAA" /><text style="font-size:10px;font-family:OpenSans;fill:#000000;" text-anchor="middle" x="15.000000" y="106.000000">0</text><line x1="139.600000" x2="139.600000" y1="91.000000" y2="96.000000" stroke="#AAAAAA" /><text style="font-size:10px;font-family:OpenSans;fill:#000000;" text-anchor="middle" x="139.600000" y="106.000000">49</text><line x1="228.600000" x2="228.600000" y1="91.000000" y2="96.000000" stroke="#AAAAAA" /><text style="font-size:10px;font-family:OpenSans;fill:#000000;" text-anchor="middle" x="228.600000" y="106.000000">84</text><line x1="292.171429" x2="292.171429" y1="91.000000" y2="96.000000" stroke="#AAAAAA" /><text style="font-size:10px;font-family:OpenSans;fill:#000000;" text-anchor="middle" x="292.171429" y="106.000000">109</text><line x1="348.114286" x2="348.114286" y1="91.000000" y2="96.000000" stroke="#AAAAAA" /><text style="font-size:10px;font-family:OpenSans;fill:#000000;" text-anchor="middle" x="348.114286" y="106.000000">131</text><line x1="439.657143" x2="439.657143" y1="91.000000" y2="96.000000" stroke="#AAAAAA" /><text style="font-size:10px;font-family:OpenSans;fill:#000000;" text-anchor="middle" x="439.657143" y="106.000000">167</text><line x1="742.257143" x2="742.257143" y1="91.000000" y2="96.000000" stroke="#AAAAAA" /><text style="font-size:10px;font-family:OpenSans;fill:#000000;" text-anchor="middle" x="742.257143" y="106.000000">286</text><line x1="831.257143" x2="831.257143" y1="91.000000" y2="96.000000" stroke="#AAAAAA" /><text style="font-size:10px;font-family:OpenSans;fill:#000000;" text-anchor="middle" x="831.257143" y="106.000000">321</text><line x1="935.514286" x2="935.514286" y1="91.000000" y2="96.000000" stroke="#AAAAAA" /><text style="font-size:10px;font-family:OpenSans;fill:#000000;" text-anchor="middle" x="935.514286" y="106.000000">362</text><line x1="1016.885714" x2="1016.885714" y1="91.000000" y2="96.000000" stroke="#AAAAAA" /><text style="font-size:10px;font-family:OpenSans;fill:#000000;" text-anchor="middle" x="1016.885714" y="106.000000">394</text><line x1="1049.942857" x2="1049.942857" y1="91.000000" y2="96.000000" stroke="#AAAAAA" /><text style="font-size:10px;font-family:OpenSans;fill:#000000;" text-anchor="middle" x="1049.942857" y="106.000000">407</text><line x1="1138.942857" x2="1138.942857" y1="91.000000" y2="96.000000" stroke="#AAAAAA" /><text style="font-size:10px;font-family:OpenSans;fill:#000000;" text-anchor="middle" x="1138.942857" y="106.000000">442</text><line x1="1166.914286" x2="1166.914286" y1="91.000000" y2="96.000000" stroke="#AAAAAA" /><text style="font-size:10px;font-family:OpenSans;fill:#000000;" text-anchor="middle" x="1166.914286" y="106.000000">453</text><line x1="1271.171429" x2="1271.171429" y1="91.000000" y2="96.000000" stroke="#AAAAAA" /><text style="font-size:10px;font-family:OpenSans;fill:#000000;" text-anchor="middle" x="1271.171429" y="106.000000">494</text><line x1="1652.600000" x2="1652.600000" y1="91.000000" y2="96.000000" stroke="#AAAAAA" /><text style="font-size:10px;font-family:OpenSans;fill:#000000;" text-anchor="middle" x="1652.600000" y="106.000000">644</text><line x1="1779.742857" x2="1779.742857" y1="91.000000" y2="96.000000" stroke="#AAAAAA" /><text style="font-size:10px;font-family:OpenSans;fill:#000000;" text-anchor="middle" x="1779.742857" y="106.000000">694</text><line x1="1797.542857" x2="1797.542857" y1="91.000000" y2="96.000000" stroke="#AAAAAA" /><text style="font-size:10px;font-family:OpenSans;fill:#000000;" text-anchor="middle" x="1797.542857" y="106.000000">701</text><line x1="1917.057143" x2="1917.057143" y1="91.000000" y2="96.000000" stroke="#AAAAAA" /><text style="font-size:10px;font-family:OpenSans;fill:#000000;" text-anchor="middle" x="1917.057143" y="106.000000">748</text><line x1="1939.942857" x2="1939.942857" y1="91.000000" y2="96.000000" stroke="#AAAAAA" /><text style="font-size:10px;font-family:OpenSans;fill:#000000;" text-anchor="middle" x="1939.942857" y="106.000000">757</text><line x1="2059.457143" x2="2059.457143" y1="91.000000" y2="96.000000" stroke="#AAAAAA" /><text style="font-size:10px;font-family:OpenSans;fill:#000000;" text-anchor="middle" x="2059.457143" y="106.000000">804</text><line x1="2349.342857" x2="2349.342857" y1="91.000000" y2="96.000000" stroke="#AAAAAA" /><text style="font-size:10px;font-family:OpenSans;fill:#000000;" text-anchor="middle" x="2349.342857" y="106.000000">918</text><line x1="2555.314286" x2="2555.314286" y1="91.000000" y2="96.000000" stroke="#AAAAAA" /><text style="font-size:10px;font-family:OpenSans;fill:#000000;" text-anchor="middle" x="2555.314286" y="106.000000">999</text></g>
<rect fill="#FF5353" x="4" y="120.000000" width="12" height="12" filter="url(#ds)"/><text style="font-size:12px;font-family:OpenSans;fill:#000000;" text-anchor="start" x="20" y="132.000000">Complement Clr-like EGF-like</text><rect fill="#FF7DFF" x="4" y="134.000000" width="12" height="12" filter="url(#ds)"/><text style="font-size:12px;font-family:OpenSans;fill:#000000;" text-anchor="start" x="20" y="146.000000">Coagulation Factor Xa inhibitory site</text><rect fill="#FF9C42" x="4" y="148.000000" width="12" height="12" filter="url(#ds)"/><text style="font-size:12px;font-family:OpenSans;fill:#000000;" text-anchor="start" x="20" y="160.000000">Calcium-binding EGF domain</text><rect fill="#C48484" x="4" y="162.000000" width="12" height="12" filter="url(#ds)"/><text style="font-size:12px;font-family:OpenSans;fill:#000000;" text-anchor="start" x="20" y="174.000000">Tyrosine-protein kinase ephrin type A/B receptor-like</text></svg>
