<?xml version='1.0'?>
<svg xmlns="http://www.w3.org/2000/svg" xmlns:xlink="http://www.w3.org/1999/xlink" width="3376.111111" height="158.700000">
<defs>
  <filter id="ds" x="0" y="0">
    <feOffset in="SourceAlpha" dx="2" dy="2" />
    <feComponentTransfer><feFuncA type="linear" slope="0.2"/></feComponentTransfer>
    <feGaussianBlur result="blurOut" stdDeviation="1" />
    <feBlend in="SourceGraphic" in2="blurOut" mode="normal" />
  </filter>
  <pattern id="disordered-hatch" patternUnits="userSpaceOnUse" width="4" height="4">
    <path d="M-1,1 l2,-2 M0,4 l4,-4 M3,5 l2,-2" stroke="#000000" opacity="0.3" />
  </pattern>
</defs>
<line x1="28.194444" x2="28.194444" y1="46.500000" y2="74.500000" stroke="#BABDB6" stroke-width="2"/><a xlink:title="Y5C"><circle cx="28.194444" cy="46.500000" r="4.000000" fill="#ff0000" /></a><g transform="translate(28.194444,46.500000) rotate(-30)"><text style="font-size:10px;font-family:OpenSans;fill:#555;" text-anchor="middle" x="0" y="-6.000000">Y5C</text></g><line x1="524.305556" x2="524.305556" y1="46.500000" y2="74.500000" stroke="#BABDB6" stroke-width="2"/><a xlink:title="L193L"><circle cx="524.305556" cy="46.500000" r="4.000000" fill="#0000ff" /></a><g transform="translate(524.305556,46.500000) rotate(-30)"><text style="font-size:10px;font-family:OpenSans;fill:#555;" text-anchor="middle" x="0" y="-6.000000">L193L</text></g><line x1="585.000000" x2="585.000000" y1="46.500000" y2="74.500000" stroke="#BABDB6" stroke-width="2"/><a xlink:title="L216L"><circle cx="585.000000" cy="46.500000" r="4.000000" fill="#0000ff" /></a><g transform="translate(585.000000,46.500000) rotate(-30)"><text style="font-size:10px;font-family:OpenSans;fill:#555;" text-anchor="middle" x="0" y="-6.000000">L216L</text></g><line x1="592.916667" x2="592.916667" y1="46.500000" y2="74.500000" stroke="#BABDB6" stroke-width="2"/><a xlink:title="L219L"><circle cx="592.916667" cy="46.500000" r="4.000000" fill="#0000ff" /></a><g transform="translate(592.916667,46.500000) rotate(-30)"><text style="font-size:10px;font-family:OpenSans;fill:#555;" text-anchor="middle" x="0" y="-6.000000">L219L</text></g><line x1="608.750000" x2="608.750000" y1="46.500000" y2="74.500000" stroke="#BABDB6" stroke-width="2"/><a xlink:title="V225V"><circle cx="608.750000" cy="46.500000" r="4.000000" fill="#0000ff" /></a><g transform="translate(608.750000,46.500000) rotate(-30)"><text style="font-size:10px;font-family:OpenSans;fill:#555;" text-anchor="middle" x="0" y="-6.000000">V225V</text></g><line x1="656.250000" x2="656.250000" y1="46.500000" y2="74.500000" stroke="#BABDB6" stroke-width="2"/><a xlink:title="L243L"><circle cx="656.250000" cy="46.500000" r="4.000000" fill="#0000ff" /></a><g transform="translate(656.250000,46.500000) rotate(-30)"><text style="font-size:10px;font-family:OpenSans;fill:#555;" text-anchor="middle" x="0" y="-6.000000">L243L</text></g><line x1="738.055556" x2="738.055556" y1="46.500000" y2="74.500000" stroke="#BABDB6" stroke-width="2"/><a xlink:title="L274L"><circle cx="738.055556" cy="46.500000" r="4.000000" fill="#0000ff" /></a><g transform="translate(738.055556,46.500000) rotate(-30)"><text style="font-size:10px;font-family:OpenSans;fill:#555;" text-anchor="middle" x="0" y="-6.000000">L274L</text></g><line x1="912.222222" x2="912.222222" y1="46.500000" y2="74.500000" stroke="#BABDB6" stroke-width="2"/><a xlink:title="P340P"><circle cx="912.222222" cy="46.500000" r="4.000000" fill="#0000ff" /></a><g transform="translate(912.222222,46.500000) rotate(-30)"><text style="font-size:10px;font-family:OpenSans;fill:#555;" text-anchor="middle" x="0" y="-6.000000">P340P</text></g><line x1="1044.166667" x2="1044.166667" y1="46.500000" y2="74.500000" stroke="#BABDB6" stroke-width="2"/><a xlink:title="P390P"><circle cx="1044.166667" cy="46.500000" r="4.000000" fill="#0000ff" /></a><g transform="translate(1044.166667,46.500000) rotate(-30)"><text style="font-size:10px;font-family:OpenSans;fill:#555;" text-anchor="middle" x="0" y="-6.000000">P390P</text></g><line x1="1073.194444" x2="1073.194444" y1="46.500000" y2="74.500000" stroke="#BABDB6" stroke-width="2"/><a xlink:title="P401P"><circle cx="1073.194444" cy="46.500000" r="4.000000" fill="#0000ff" /></a><g transform="translate(1073.194444,46.500000) rotate(-30)"><text style="font-size:10px;font-family:OpenSans;fill:#555;" text-anchor="middle" x="0" y="-6.000000">P401P</text></g><line x1="1133.888889" x2="1133.888889" y1="46.500000" y2="74.500000" stroke="#BABDB6" stroke-width="2"/><a xlink:title="P424P"><circle cx="1133.888889" cy="46.500000" r="4.000000" fill="#0000ff" /></a><g transform="translate(1133.888889,46.500000) rotate(-30)"><text style="font-size:10px;font-family:OpenSans;fill:#555;" text-anchor="middle" x="0" y="-6.000000">P424P</text></g><line x1="1141.805556" x2="1141.805556" y1="46.500000" y2="74.500000" stroke="#BABDB6" stroke-width="2"/><a xlink:title="P427P"><circle cx="1141.805556" cy="46.500000" r="4.000000" fill="#0000ff" /></a><g transform="translate(1141.805556,46.500000) rotate(-30)"><text style="font-size:10px;font-family:OpenSans;fill:#555;" text-anchor="middle" x="0" y="-6.000000">P427P</text></g><line x1="1165.555556" x2="1165.555556" y1="46.500000" y2="74.500000" stroke="#BABDB6" stroke-width="2"/><a xlink:title="P436P"><circle cx="1165.555556" cy="46.500000" r="4.000000" fill="#0000ff" /></a><g transform="translate(1165.555556,46.500000) rotate(-30)"><text style="font-size:10px;font-family:OpenSans;fill:#555;" text-anchor="middle" x="0" y="-6.000000">P436P</text></g><line x1="1205.138889" x2="1205.138889" y1="46.500000" y2="74.500000" stroke="#BABDB6" stroke-width="2"/><a xlink:title="P451P"><circle cx="1205.138889" cy="46.500000" r="4.000000" fill="#0000ff" /></a><g transform="translate(1205.138889,46.500000) rotate(-30)"><text style="font-size:10px;font-family:OpenSans;fill:#555;" text-anchor="middle" x="0" y="-6.000000">P451P</text></g><line x1="1226.250000" x2="1226.250000" y1="46.500000" y2="74.500000" stroke="#BABDB6" stroke-width="2"/><a xlink:title="P459P"><circle cx="1226.250000" cy="46.500000" r="4.000000" fill="#0000ff" /></a><g transform="translate(1226.250000,46.500000) rotate(-30)"><text style="font-size:10px;font-family:OpenSans;fill:#555;" text-anchor="middle" x="0" y="-6.000000">P459P</text></g><line x1="1234.166667" x2="1234.166667" y1="46.500000" y2="74.500000" stroke="#BABDB6" stroke-width="2"/><a xlink:title="P462P"><circle cx="1234.166667" cy="46.500000" r="4.000000" fill="#0000ff" /></a><g transform="translate(1234.166667,46.500000) rotate(-30)"><text style="font-size:10px;font-family:OpenSans;fill:#555;" text-anchor="middle" x="0" y="-6.000000">P462P</text></g><line x1="1297.500000" x2="1297.500000" y1="46.500000" y2="74.500000" stroke="#BABDB6" stroke-width="2"/><a xlink:title="P486P"><circle cx="1297.500000" cy="46.500000" r="4.000000" fill="#0000ff" /></a><g transform="translate(1297.500000,46.500000) rotate(-30)"><text style="font-size:10px;font-family:OpenSans;fill:#555;" text-anchor="middle" x="0" y="-6.000000">P486P</text></g><line x1="1379.305556" x2="1379.305556" y1="46.500000" y2="74.500000" stroke="#BABDB6" stroke-width="2"/><a xlink:title="P517P"><circle cx="1379.305556" cy="46.500000" r="4.000000" fill="#0000ff" /></a><g transform="translate(1379.305556,46.500000) rotate(-30)"><text style="font-size:10px;font-family:OpenSans;fill:#555;" text-anchor="middle" x="0" y="-6.000000">P517P</text></g><line x1="1442.638889" x2="1442.638889" y1="46.500000" y2="74.500000" stroke="#BABDB6" stroke-width="2"/><a xlink:title="L541L"><circle cx="1442.638889" cy="46.500000" r="4.000000" fill="#0000ff" /></a><g transform="translate(1442.638889,46.500000) rotate(-30)"><text style="font-size:10px;font-family:OpenSans;fill:#555;" text-anchor="middle" x="0" y="-6.000000">L541L</text></g><line x1="1632.638889" x2="1632.638889" y1="34.000000" y2="74.500000" stroke="#BABDB6" stroke-width="2"/><a xlink:title="V613V"><circle cx="1632.638889" cy="34.000000" r="4.000000" fill="#0000ff" /></a><g transform="translate(1632.638889,34.000000) rotate(-30)"><text style="font-size:10px;font-family:OpenSans;fill:#555;" text-anchor="middle" x="0" y="-6.000000">V613V</text></g><line x1="1635.277778" x2="1635.277778" y1="46.500000" y2="74.500000" stroke="#BABDB6" stroke-width="2"/><a xlink:title="V614V"><circle cx="1635.277778" cy="46.500000" r="4.000000" fill="#0000ff" /></a><g transform="translate(1635.277778,46.500000) rotate(-30)"><text style="font-size:10px;font-family:OpenSans;fill:#555;" text-anchor="middle" x="0" y="-6.000000">V614V</text></g><line x1="1764.583333" x2="1764.583333" y1="34.000000" y2="74.500000" stroke="#BABDB6" stroke-width="2"/><a xlink:title="V663V"><circle cx="1764.583333" cy="34.000000" r="4.000000" fill="#0000ff" /></a><g transform="translate(1764.583333,34.000000) rotate(-30)"><text style="font-size:10px;font-family:OpenSans;fill:#555;" text-anchor="middle" x="0" y="-6.000000">V663V</text></g><line x1="1767.222222" x2="1767.222222" y1="46.500000" y2="74.500000" stroke="#BABDB6" stroke-width="2"/><a xlink:title="V664V"><circle cx="1767.222222" cy="46.500000" r="4.000000" fill="#0000ff" /></a><g transform="translate(1767.222222,46.500000) rotate(-30)"><text style="font-size:10px;font-family:OpenSans;fill:#555;" text-anchor="middle" x="0" y="-6.000000">V664V</text></g><line x1="1793.611111" x2="1793.611111" y1="34.000000" y2="74.500000" stroke="#BABDB6" stroke-width="2"/><a xlink:title="V674V"><circle cx="1793.611111" cy="34.000000" r="4.000000" fill="#0000ff" /></a><g transform="translate(1793.611111,34.000000) rotate(-30)"><text style="font-size:10px;font-family:OpenSans;fill:#555;" text-anchor="middle" x="0" y="-6.000000">V674V</text></g><line x1="1796.250000" x2="1796.250000" y1="46.500000" y2="74.500000" stroke="#BABDB6" stroke-width="2"/><a xlink:title="V675V"><circle cx="1796.250000" cy="46.500000" r="4.000000" fill="#0000ff" /></a><g transform="translate(1796.250000,46.500000) rotate(-30)"><text style="font-size:10px;font-family:OpenSans;fill:#555;" text-anchor="middle" x="0" y="-6.000000">V675V</text></g><line x1="1854.305556" x2="1854.305556" y1="34.000000" y2="74.500000" stroke="#BABDB6" stroke-width="2"/><a xlink:title="V697V"><circle cx="1854.305556" cy="34.000000" r="4.000000" fill="#0000ff" /></a><g transform="translate(1854.305556,34.000000) rotate(-30)"><text style="font-size:10px;font-family:OpenSans;fill:#555;" text-anchor="middle" x="0" y="-6.000000">V697V</text></g><line x1="1856.944444" x2="1856.944444" y1="46.500000" y2="74.500000" stroke="#BABDB6" stroke-width="2"/><a xlink:title="V698V"><circle cx="1856.944444" cy="46.500000" r="4.000000" fill="#0000ff" /></a><g transform="translate(1856.944444,46.500000) rotate(-30)"><text style="font-size:10px;font-family:OpenSans;fill:#555;" text-anchor="middle" x="0" y="-6.000000">V698V</text></g><line x1="1864.861111" x2="1864.861111" y1="46.500000" y2="74.500000" stroke="#BABDB6" stroke-width="2"/><a xlink:title="V701V"><circle cx="1864.861111" cy="46.500000" r="4.000000" fill="#0000ff" /></a><g transform="translate(1864.861111,46.500000) rotate(-30)"><text style="font-size:10px;font-family:OpenSans;fill:#555;" text-anchor="middle" x="0" y="-6.000000">V701V</text></g><line x1="1888.611111" x2="1888.611111" y1="46.500000" y2="74.500000" stroke="#BABDB6" stroke-width="2"/><a xlink:title="V710V"><circle cx="1888.611111" cy="46.500000" r="4.000000" fill="#0000ff" /></a><g transform="translate(1888.611111,46.500000) rotate(-30)"><text style="font-size:10px;font-family:OpenSans;fill:#555;" text-anchor="middle" x="0" y="-6.000000">V710V</text></g><line x1="1925.555556" x2="1925.555556" y1="34.000000" y2="74.500000" stroke="#BABDB6" stroke-width="2"/><a xlink:title="V724V"><circle cx="1925.555556" cy="34.000000" r="4.000000" fill="#0000ff" /></a><g transform="translate(1925.555556,34.000000) rotate(-30)"><text style="font-size:10px;font-family:OpenSans;fill:#555;" text-anchor="middle" x="0" y="-6.000000">V724V</text></g><line x1="1928.194444" x2="1928.194444" y1="46.500000" y2="74.500000" stroke="#BABDB6" stroke-width="2"/><a xlink:title="V725V"><circle cx="1928.194444" cy="46.500000" r="4.000000" fill="#0000ff" /></a><g transform="translate(1928.194444,46.500000) rotate(-30)"><text style="font-size:10px;font-family:OpenSans;fill:#555;" text-anchor="middle" x="0" y="-6.000000">V725V</text></g><line x1="1946.666667" x2="1946.666667" y1="34.000000" y2="74.500000" stroke="#BABDB6" stroke-width="2"/><a xlink:title="V732V"><circle cx="1946.666667" cy="34.000000" r="4.000000" fill="#0000ff" /></a><g transform="translate(1946.666667,34.000000) rotate(-30)"><text style="font-size:10px;font-family:OpenSans;fill:#555;" text-anchor="middle" x="0" y="-6.000000">V732V</text></g><line x1="1949.305556" x2="1949.305556" y1="46.500000" y2="74.500000" stroke="#BABDB6" stroke-width="2"/><a xlink:title="V733V"><circle cx="1949.305556" cy="46.500000" r="4.000000" fill="#0000ff" /></a><g transform="translate(1949.305556,46.500000) rotate(-30)"><text style="font-size:10px;font-family:OpenSans;fill:#555;" text-anchor="middle" x="0" y="-6.000000">V733V</text></g><line x1="1957.222222" x2="1957.222222" y1="46.500000" y2="74.500000" stroke="#BABDB6" stroke-width="2"/><a xlink:title="V736V"><circle cx="1957.222222" cy="46.500000" r="4.000000" fill="#0000ff" /></a><g transform="translate(1957.222222,46.500000) rotate(-30)"><text style="font-size:10px;font-family:OpenSans;fill:#555;" text-anchor="middle" x="0" y="-6.000000">V736V</text></g><line x1="2017.916667" x2="2017.916667" y1="34.000000" y2="74.500000" stroke="#BABDB6" stroke-width="2"/><a xlink:title="V759V"><circle cx="2017.916667" cy="34.000000" r="4.000000" fill="#0000ff" /></a><g transform="translate(2017.916667,34.000000) rotate(-30)"><text style="font-size:10px;font-family:OpenSans;fill:#555;" text-anchor="middle" x="0" y="-6.000000">V759V</text></g><line x1="2020.555556" x2="2020.555556" y1="46.500000" y2="74.500000" stroke="#BABDB6" stroke-width="2"/><a xlink:title="V760V"><circle cx="2020.555556" cy="46.500000" r="4.000000" fill="#0000ff" /></a><g transform="translate(2020.555556,46.500000) rotate(-30)"><text style="font-size:10px;font-family:OpenSans;fill:#555;" text-anchor="middle" x="0" y="-6.000000">V760V</text></g><line x1="2099.722222" x2="2099.722222" y1="46.500000" y2="74.500000" stroke="#BABDB6" stroke-width="2"/><a xlink:title="V790V"><circle cx="2099.722222" cy="46.500000" r="4.000000" fill="#0000ff" /></a><g transform="translate(2099.722222,46.500000) rotate(-30)"><text style="font-size:10px;font-family:OpenSans;fill:#555;" text-anchor="middle" x="0" y="-6.000000">V790V</text></g><line x1="2466.527778" x2="2466.527778" y1="34.000000" y2="74.500000" stroke="#BABDB6" stroke-width="2"/><a xlink:title="L929L"><circle cx="2466.527778" cy="34.000000" r="4.000000" fill="#0000ff" /></a><g transform="translate(2466.527778,34.000000) rotate(-30)"><text style="font-size:10px;font-family:OpenSans;fill:#555;" text-anchor="middle" x="0" y="-6.000000">L929L</text></g><line x1="2469.166667" x2="2469.166667" y1="46.500000" y2="74.500000" stroke="#BABDB6" stroke-width="2"/><a xlink:title="L930L"><circle cx="2469.166667" cy="46.500000" r="4.000000" fill="#0000ff" /></a><g transform="translate(2469.166667,46.500000) rotate(-30)"><text style="font-size:10px;font-family:OpenSans;fill:#555;" text-anchor="middle" x="0" y="-6.000000">L930L</text></g><line x1="2598.472222" x2="2598.472222" y1="34.000000" y2="74.500000" stroke="#BABDB6" stroke-width="2"/><a xlink:title="L979L"><circle cx="2598.472222" cy="34.000000" r="4.000000" fill="#0000ff" /></a><g transform="translate(2598.472222,34.000000) rotate(-30)"><text style="font-size:10px;font-family:OpenSans;fill:#555;" text-anchor="middle" x="0" y="-6.000000">L979L</text></g><line x1="2601.111111" x2="2601.111111" y1="46.500000" y2="74.500000" stroke="#BABDB6" stroke-width="2"/><a xlink:title="L980L"><circle cx="2601.111111" cy="46.500000" r="4.000000" fill="#0000ff" /></a><g transform="translate(2601.111111,46.500000) rotate(-30)"><text style="font-size:10px;font-family:OpenSans;fill:#555;" text-anchor="middle" x="0" y="-6.000000">L980L</text></g><line x1="2627.500000" x2="2627.500000" y1="34.000000" y2="74.500000" stroke="#BABDB6" stroke-width="2"/><a xlink:title="L990L"><circle cx="2627.500000" cy="34.000000" r="4.000000" fill="#0000ff" /></a><g transform="translate(2627.500000,34.000000) rotate(-30)"><text style="font-size:10px;font-family:OpenSans;fill:#555;" text-anchor="middle" x="0" y="-6.000000">L990L</text></g><line x1="2630.138889" x2="2630.138889" y1="46.500000" y2="74.500000" stroke="#BABDB6" stroke-width="2"/><a xlink:title="L991L"><circle cx="2630.138889" cy="46.500000" r="4.000000" fill="#0000ff" /></a><g transform="translate(2630.138889,46.500000) rotate(-30)"><text style="font-size:10px;font-family:OpenSans;fill:#555;" text-anchor="middle" x="0" y="-6.000000">L991L</text></g><line x1="2688.194444" x2="2688.194444" y1="34.000000" y2="74.500000" stroke="#BABDB6" stroke-width="2"/><a xlink:title="L1013L"><circle cx="2688.194444" cy="34.000000" r="4.000000" fill="#0000ff" /></a><g transform="translate(2688.194444,34.000000) rotate(-30)"><text style="font-size:10px;font-family:OpenSans;fill:#555;" text-anchor="middle" x="0" y="-6.000000">L1013L</text></g><line x1="2690.833333" x2="2690.833333" y1="46.500000" y2="74.500000" stroke="#BABDB6" stroke-width="2"/><a xlink:title="L1014L"><circle cx="2690.833333" cy="46.500000" r="4.000000" fill="#0000ff" /></a><g transform="translate(2690.833333,46.500000) rotate(-30)"><text style="font-size:10px;font-family:OpenSans;fill:#555;" text-anchor="middle" x="0" y="-6.000000">L1014L</text></g><line x1="2698.750000" x2="2698.750000" y1="46.500000" y2="74.500000" stroke="#BABDB6" stroke-width="2"/><a xlink:title="L1017L"><circle cx="2698.750000" cy="46.500000" r="4.000000" fill="#0000ff" /></a><g transform="translate(2698.750000,46.500000) rotate(-30)"><text style="font-size:10px;font-family:OpenSans;fill:#555;" text-anchor="middle" x="0" y="-6.000000">L1017L</text></g><line x1="2722.500000" x2="2722.500000" y1="46.500000" y2="74.500000" stroke="#BABDB6" stroke-width="2"/><a xlink:title="L1026L"><circle cx="2722.500000" cy="46.500000" r="4.000000" fill="#0000ff" /></a><g transform="translate(2722.500000,46.500000) rotate(-30)"><text style="font-size:10px;font-family:OpenSans;fill:#555;" text-anchor="middle" x="0" y="-6.000000">L1026L</text></g><line x1="2759.444444" x2="2759.444444" y1="34.000000" y2="74.500000" stroke="#BABDB6" stroke-width="2"/><a xlink:title="L1040L"><circle cx="2759.444444" cy="34.000000" r="4.000000" fill="#0000ff" /></a><g transform="translate(2759.444444,34.000000) rotate(-30)"><text style="font-size:10px;font-family:OpenSans;fill:#555;" text-anchor="middle" x="0" y="-6.000000">L1040L</text></g><line x1="2762.083333" x2="2762.083333" y1="46.500000" y2="74.500000" stroke="#BABDB6" stroke-width="2"/><a xlink:title="L1041L"><circle cx="2762.083333" cy="46.500000" r="4.000000" fill="#0000ff" /></a><g transform="translate(2762.083333,46.500000) rotate(-30)"><text style="font-size:10px;font-family:OpenSans;fill:#555;" text-anchor="middle" x="0" y="-6.000000">L1041L</text></g><line x1="2780.555556" x2="2780.555556" y1="34.000000" y2="74.500000" stroke="#BABDB6" stroke-width="2"/><a xlink:title="L1048L"><circle cx="2780.555556" cy="34.000000" r="4.000000" fill="#0000ff" /></a><g transform="translate(2780.555556,34.000000) rotate(-30)"><text style="font-size:10px;font-family:OpenSans;fill:#555;" text-anchor="middle" x="0" y="-6.000000">L1048L</text></g><line x1="2783.194444" x2="2783.194444" y1="46.500000" y2="74.500000" stroke="#BABDB6" stroke-width="2"/><a xlink:title="L1049L"><circle cx="2783.194444" cy="46.500000" r="4.000000" fill="#0000ff" /></a><g transform="translate(2783.194444,46.500000) rotate(-30)"><text style="font-size:10px;font-family:OpenSans;fill:#555;" text-anchor="middle" x="0" y="-6.000000">L1049L</text></g><line x1="2791.111111" x2="2791.111111" y1="46.500000" y2="74.500000" stroke="#BABDB6" stroke-width="2"/><a xlink:title="L1052L"><circle cx="2791.111111" cy="46.500000" r="4.000000" fill="#0000ff" /></a><g transform="translate(2791.111111,46.500000) rotate(-30)"><text style="font-size:10px;font-family:OpenSans;fill:#555;" text-anchor="middle" x="0" y="-6.000000">L1052L</text></g><line x1="2851.805556" x2="2851.805556" y1="34.000000" y2="74.500000" stroke="#BABDB6" stroke-width="2"/><a xlink:title="L1075L"><circle cx="2851.805556" cy="34.000000" r="4.000000" fill="#0000ff" /></a><g transform="translate(2851.805556,34.000000) rotate(-30)"><text style="font-size:10px;font-family:OpenSans;fill:#555;" text-anchor="middle" x="0" y="-6.000000">L1075L</text></g><line x1="2854.444444" x2="2854.444444" y1="46.500000" y2="74.500000" stroke="#BABDB6" stroke-width="2"/><a xlink:title="L1076L"><circle cx="2854.444444" cy="46.500000" r="4.000000" fill="#0000ff" /></a><g transform="translate(2854.444444,46.500000) rotate(-30)"><text style="font-size:10px;font-family:OpenSans;fill:#555;" text-anchor="middle" x="0" y="-6.000000">L1076L</text></g><line x1="2933.611111" x2="2933.611111" y1="46.500000" y2="74.500000" stroke="#BABDB6" stroke-width="2"/><a xlink:title="L1106L"><circle cx="2933.611111" cy="46.500000" r="4.000000" fill="#0000ff" /></a><g transform="translate(2933.611111,46.500000) rotate(-30)"><text style="font-size:10px;font-family:OpenSans;fill:#555;" text-anchor="middle" x="0" y="-6.000000">L1106L</text></g><a xlink:title=",  (1268aa)"><rect fill="#BABDB6" x="15.000000" y="74.500000" width="3346.111111" height="14.000000"/></a><g transform="translate(1603.611111,69.500000)"><a xlink:href="https://www.ebi.ac.uk/interpro/entry/pfam/PF04810" xlink:title="Sec23/Sec24 zinc finger"><rect fill="#2DCF00" x="0" y="0" width="95.000000" height="24.000000" filter="url(#ds)"/><text style="font-size:12px;font-family:OpenSans;fill:#ffffff;" text-anchor="middle" x="47.500000" y="16.000000">zf-Sec23_Sec24</text></a></g>
<g transform="translate(1796.250000,69.500000)"><a xlink:href="https://www.ebi.ac.uk/interpro/entry/pfam/PF04811" xlink:title="Sec23/Sec24 trunk domain"><rect fill="#FF5353" x="0" y="0" width="630.694444" height="24.000000" filter="url(#ds)"/><text style="font-size:12px;font-family:OpenSans;fill:#ffffff;" text-anchor="middle" x="315.347222" y="16.000000">Sec23/Sec24 trunk domain</text></a></g>
<g transform="translate(2440.138889,69.500000)"><a xlink:href="https://www.ebi.ac.uk/interpro/entry/pfam/PF08033" xlink:title="Sec23/Sec24 beta-sandwich domain"><rect fill="#5B5BFF" x="0" y="0" width="221.666667" height="24.000000" filter="url(#ds)"/><text style="font-size:12px;font-family:OpenSans;fill:#ffffff;" text-anchor="middle" x="110.833333" y="16.000000">Sec23/Sec24 beta-sandwich domain</text></a></g>
<g transform="translate(2690.833333,69.500000)"><a xlink:href="https://www.ebi.ac.uk/interpro/entry/pfam/PF04815" xlink:title="Sec23/Sec24 helical domain"><rect fill="#EBD61D" x="0" y="0" width="263.888889" height="24.000000" filter="url(#ds)"/><text style="font-size:12px;font-family:OpenSans;fill:#ffffff;" text-anchor="middle" x="131.944444" y="16.000000">Sec23/Sec24 helical domain</text></a></g>
<g transform="translate(3025.972222,69.500000)"><a xlink:href="https://www.ebi.ac.uk/interpro/entry/pfam/PF00626" xlink:title="Gelsolin repeat"><rect fill="#BA21E0" x="0" y="0" width="192.638889" height="24.000000" filter="url(#ds)"/><text style="font-size:12px;font-family:OpenSans;fill:#ffffff;" text-anchor="middle" x="96.319444" y="16.000000">Gelsolin repeat</text></a></g>
<g class="axis">
<line x1="15.000000" x2="3361.111111" y1="103.500000" y2="103.500000" stroke="#AAAAAA" /><line x1="15.000000" x2="15.000000" y1="103.500000" y2="108.500000" stroke="#AAAAAA" /><line x1="28.194444" x2="28.194444" y1="103.500000" y2="108.500000" stroke="#AAAAAA" /><text style="font-size:10px;font-family:OpenSans;fill:#000000;" text-anchor="middle" x="28.194444" y="118.500000">5</text><line x1="524.305556" x2="524.305556" y1="103.500000" y2="108.500000" stroke="#AAAAAA" /><text style="font-size:10px;font-family:OpenSans;fill:#000000;" text-anchor="middle" x="524.305556" y="118.500000">193</text><line x1="585.000000" x2="585.000000" y1="103.500000" y2="108.500000" stroke="#AAAAAA" /><text style="font-size:10px;font-family:OpenSans;fill:#000000;" text-anchor="middle" x="585.000000" y="118.500000">216</text><line x1="608.750000" x2="608.750000" y1="103.500000" y2="108.500000" stroke="#AAAAAA" /><text style="font-size:10px;font-family:OpenSans;fill:#000000;" text-anchor="middle" x="608.750000" y="118.500000">225</text><line x1="656.250000" x2="656.250000" y1="103.500000" y2="108.500000" stroke="#AAAAAA" /><text style="font-size:10px;font-family:OpenSans;fill:#000000;" text-anchor="middle" x="656.250000" y="118.500000">243</text><line x1="738.055556" x2="738.055556" y1="103.500000" y2="108.500000" stroke="#AAAAAA" /><text style="font-size:10px;font-family:OpenSans;fill:#000000;" text-anchor="middle" x="738.055556" y="118.500000">274</text><line x1="912.222222" x2="912.222222" y1="103.500000" y2="108.500000" stroke="#AAAAAA" /><text style="font-size:10px;font-family:OpenSans;fill:#000000;" text-anchor="middle" x="912.222222" y="118.500000">340</text><line x1="1044.166667" x2="1044.166667" y1="103.500000" y2="108.500000" stroke="#AAAAAA" /><text style="font-size:10px;font-family:OpenSans;fill:#000000;" text-anchor="middle" x="1044.166667" y="118.500000">390</text><line x1="1073.194444" x2="1073.194444" y1="103.500000" y2="108.500000" stroke="#AAAAAA" /><text style="font-size:10px;font-family:OpenSans;fill:#000000;" text-anchor="middle" x="1073.194444" y="118.500000">401</text><line x1="1133.888889" x2="1133.888889" y1="103.500000" y2="108.500000" stroke="#AAAAAA" /><text style="font-size:10px;font-family:OpenSans;fill:#000000;" text-anchor="middle" x="1133.888889" y="118.500000">424</text><line x1="1165.555556" x2="1165.555556" y1="103.500000" y2="108.500000" stroke="#AAAAAA" /><text style="font-size:10px;font-family:OpenSans;fill:#000000;" text-anchor="middle" x="1165.555556" y="118.500000">436</text><line x1="1205.138889" x2="1205.138889" y1="103.500000" y2="108.500000" stroke="#AAAAAA" /><text style="font-size:10px;font-family:OpenSans;fill:#000000;" text-anchor="middle" x="1205.138889" y="118.500000">451</text><line x1="1226.250000" x2="1226.250000" y1="103.500000" y2="108.500000" stroke="#AAAAAA" /><text style="font-size:10px;font-family:OpenSans;fill:#000000;" text-anchor="middle" x="1226.250000" y="118.500000">459</text><line x1="1297.500000" x2="1297.500000" y1="103.500000" y2="108.500000" stroke="#AAAAAA" /><text style="font-size:10px;font-family:OpenSans;fill:#000000;" text-anchor="middle" x="1297.500000" y="118.500000">486</text><line x1="1379.305556" x2="1379.305556" y1="103.500000" y2="108.500000" stroke="#AAAAAA" /><text style="font-size:10px;font-family:OpenSans;fill:#000000;" text-anchor="middle" x="1379.305556" y="118.500000">517</text><line x1="1442.638889" x2="1442.638889" y1="103.500000" y2="108.500000" stroke="#AAAAAA" /><text style="font-size:10px;font-family:OpenSans;fill:#000000;" text-anchor="middle" x="1442.638889" y="118.500000">541</text><line x1="1603.611111" x2="1603.611111" y1="103.500000" y2="108.500000" stroke="#AAAAAA" /><text style="font-size:10px;font-family:OpenSans;fill:#000000;" text-anchor="middle" x="1603.611111" y="118.500000">602</text><line x1="1632.638889" x2="1632.638889" y1="103.500000" y2="108.500000" stroke="#AAAAAA" /><text style="font-size:10px;font-family:OpenSans;fill:#000000;" text-anchor="middle" x="1632.638889" y="118.500000">613</text><line x1="1698.611111" x2="1698.611111" y1="103.500000" y2="108.500000" stroke="#AAAAAA" /><text style="font-size:10px;font-family:OpenSans;fill:#000000;" text-anchor="middle" x="1698.611111" y="118.500000">638</text><line x1="1764.583333" x2="1764.583333" y1="103.500000" y2="108.500000" stroke="#AAAAAA" /><text style="font-size:10px;font-family:OpenSans;fill:#000000;" text-anchor="middle" x="1764.583333" y="118.500000">663</text><line x1="1793.611111" x2="1793.611111" y1="103.500000" y2="108.500000" stroke="#AAAAAA" /><text style="font-size:10px;font-family:OpenSans;fill:#000000;" text-anchor="middle" x="1793.611111" y="118.500000">674</text><line x1="1854.305556" x2="1854.305556" y1="103.500000" y2="108.500000" stroke="#AAAAAA" /><text style="font-size:10px;font-family:OpenSans;fill:#000000;" text-anchor="middle" x="1854.305556" y="118.500000">697</text><line x1="1888.611111" x2="1888.611111" y1="103.500000" y2="108.500000" stroke="#AAAAAA" /><text style="font-size:10px;font-family:OpenSans;fill:#000000;" text-anchor="middle" x="1888.611111" y="118.500000">710</text><line x1="1925.555556" x2="1925.555556" y1="103.500000" y2="108.500000" stroke="#AAAAAA" /><text style="font-size:10px;font-family:OpenSans;fill:#000000;" text-anchor="middle" x="1925.555556" y="118.500000">724</text><line x1="1946.666667" x2="1946.666667" y1="103.500000" y2="108.500000" stroke="#AAAAAA" /><text style="font-size:10px;font-family:OpenSans;fill:#000000;" text-anchor="middle" x="1946.666667" y="118.500000">732</text><line x1="2017.916667" x2="2017.916667" y1="103.500000" y2="108.500000" stroke="#AAAAAA" /><text style="font-size:10px;font-family:OpenSans;fill:#000000;" text-anchor="middle" x="2017.916667" y="118.500000">759</text><line x1="2099.722222" x2="2099.722222" y1="103.500000" y2="108.500000" stroke="#AAAAAA" /><text style="font-size:10px;font-family:OpenSans;fill:#000000;" text-anchor="middle" x="2099.722222" y="118.500000">790</text><line x1="2426.944444" x2="2426.944444" y1="103.500000" y2="108.500000" stroke="#AAAAAA" /><text style="font-size:10px;font-family:OpenSans;fill:#000000;" text-anchor="middle" x="2426.944444" y="118.500000">914</text><line x1="2466.527778" x2="2466.527778" y1="103.500000" y2="108.500000" stroke="#AAAAAA" /><text style="font-size:10px;font-family:OpenSans;fill:#000000;" text-anchor="middle" x="2466.527778" y="118.500000">929</text><line x1="2598.472222" x2="2598.472222" y1="103.500000" y2="108.500000" stroke="#AAAAAA" /><text style="font-size:10px;font-family:OpenSans;fill:#000000;" text-anchor="middle" x="2598.472222" y="118.500000">979</text><line x1="2627.500000" x2="2627.500000" y1="103.500000" y2="108.500000" stroke="#AAAAAA" /><text style="font-size:10px;font-family:OpenSans;fill:#000000;" text-anchor="middle" x="2627.500000" y="118.500000">990</text><line x1="2661.805556" x2="2661.805556" y1="103.500000" y2="108.500000" stroke="#AAAAAA" /><text style="font-size:10px;font-family:OpenSans;fill:#000000;" text-anchor="middle" x="2661.805556" y="118.500000">1003</text><line x1="2688.194444" x2="2688.194444" y1="103.500000" y2="108.500000" stroke="#AAAAAA" /><text style="font-size:10px;font-family:OpenSans;fill:#000000;" text-anchor="middle" x="2688.194444" y="118.500000">1013</text><line x1="2722.500000" x2="2722.500000" y1="103.500000" y2="108.500000" stroke="#AAAAAA" /><text style="font-size:10px;font-family:OpenSans;fill:#000000;" text-anchor="middle" x="2722.500000" y="118.500000">1026</text><line x1="2759.444444" x2="2759.444444" y1="103.500000" y2="108.500000" stroke="#AAAAAA" /><text style="font-size:10px;font-family:OpenSans;fill:#000000;" text-anchor="middle" x="2759.444444" y="118.500000">1040</text><line x1="2780.555556" x2="2780.555556" y1="103.500000" y2="108.500000" stroke="#AAAAAA" /><text style="font-size:10px;font-family:OpenSans;fill:#000000;" text-anchor="middle" x="2780.555556" y="118.500000">1048</text><line x1="2851.805556" x2="2851.805556" y1="103.500000" y2="108.500000" stroke="#AAAAAA" /><text style="font-size:10px;font-family:OpenSans;fill:#000000;" text-anchor="middle" x="2851.805556" y="118.500000">1075</text><line x1="2933.611111" x2="2933.611111" y1="103.500000" y2="108.500000" stroke="#AAAAAA" /><text style="font-size:10px;font-family:OpenSans;fill:#000000;" text-anchor="middle" x="2933.611111" y="118.500000">1106</text><line x1="2954.722222" x2="2954.722222" y1="103.500000" y2="108.500000" stroke="#AAAAAA" /><text style="font-size:10px;font-family:OpenSans;fill:#000000;" text-anchor="middle" x="2954.722222" y="118.500000">1114</text><line x1="3025.972222" x2="3025.972222" y1="103.500000" y2="108.500000" stroke="#AAAAAA" /><text style="font-size:10px;font-family:OpenSans;fill:#000000;" text-anchor="middle" x="3025.972222" y="118.500000">1141</text><line x1="3218.611111" x2="3218.611111" y1="103.500000" y2="108.500000" stroke="#AAAAAA" /><text style="font-size:10px;font-family:OpenSans;fill:#000000;" text-anchor="middle" x="3218.611111" y="118.500000">1214</text><line x1="3361.111111" x2="3361.111111" y1="103.500000" y2="108.500000" stroke="#AAAAAA" /><text style="font-size:10px;font-family:OpenSans;fill:#000000;" text-anchor="middle" x="3361.111111" y="118.500000">1268</text></g>
<rect fill="#2DCF00" x="4" y="132.500000" width="12" height="12" filter="url(#ds)"/><text style="font-size:12px;font-family:OpenSans;fill:#000000;" text-anchor="start" x="20" y="144.500000">Sec23/Sec24 zinc finger</text></svg>
