<?xml version='1.0'?>
<svg xmlns="http://www.w3.org/2000/svg" xmlns:xlink="http://www.w3.org/1999/xlink" width="430.000000" height="158.700000">
<defs>
  <filter id="ds" x="0" y="0">
    <feOffset in="SourceAlpha" dx="2" dy="2" />
    <feComponentTransfer><feFuncA type="linear" slope="0.2"/></feComponentTransfer>
    <feGaussianBlur result="blurOut" stdDeviation="1" />
    <feBlend in="SourceGraphic" in2="blurOut" mode="normal" />
  </filter>
  <pattern id="disordered-hatch" patternUnits="userSpaceOnUse" width="4" height="4">
    <path d="M-1,1 l2,-2 M0,4 l4,-4 M3,5 l2,-2" stroke="#000000" opacity="0.3" />
  </pattern>
</defs>
<line x1="234.422572" x2="234.422572" y1="46.500000" y2="74.500000" stroke="#BABDB6" stroke-width="2"/><a xlink:title="V209M"><circle cx="234.422572" cy="46.500000" r="4.000000" fill="#ff0000" /></a><g transform="translate(234.422572,46.500000) rotate(-30)"><text style="font-size:10px;font-family:OpenSans;fill:#555;" text-anchor="middle" x="0" y="-6.000000">V209M</text></g><line x1="360.406824" x2="360.406824" y1="34.000000" y2="74.500000" stroke="#BABDB6" stroke-width="2"/><a xlink:title="A329T"><circle cx="360.406824" cy="34.000000" r="4.000000" fill="#ff0000" /></a><g transform="translate(360.406824,34.000000) rotate(-30)"><text style="font-size:10px;font-family:OpenSans;fill:#555;" text-anchor="middle" x="0" y="-6.000000">A329T</text></g><line x1="362.506562" x2="362.506562" y1="46.500000" y2="74.500000" stroke="#BABDB6" stroke-width="2"/><a xlink:title="S331N"><circle cx="362.506562" cy="46.500000" r="4.000000" fill="#ff0000" /></a><g transform="translate(362.506562,46.500000) rotate(-30)"><text style="font-size:10px;font-family:OpenSans;fill:#555;" text-anchor="middle" x="0" y="-6.000000">S331N</text></g><line x1="371.955381" x2="371.955381" y1="46.500000" y2="74.500000" stroke="#BABDB6" stroke-width="2"/><a xlink:title="P340L"><circle cx="371.955381" cy="46.500000" r="4.000000" fill="#ff0000" /></a><g transform="translate(371.955381,46.500000) rotate(-30)"><text style="font-size:10px;font-family:OpenSans;fill:#555;" text-anchor="middle" x="0" y="-6.000000">P340L</text></g><line x1="417.099738" x2="417.099738" y1="46.500000" y2="74.500000" stroke="#BABDB6" stroke-width="2"/><a xlink:title="A383G"><circle cx="417.099738" cy="46.500000" r="4.000000" fill="#ff0000" /></a><g transform="translate(417.099738,46.500000) rotate(-30)"><text style="font-size:10px;font-family:OpenSans;fill:#555;" text-anchor="middle" x="0" y="-6.000000">A383G</text></g><line x1="482.191601" x2="482.191601" y1="46.500000" y2="74.500000" stroke="#BABDB6" stroke-width="2"/><a xlink:title="A445G"><circle cx="482.191601" cy="46.500000" r="4.000000" fill="#ff0000" /></a><g transform="translate(482.191601,46.500000) rotate(-30)"><text style="font-size:10px;font-family:OpenSans;fill:#555;" text-anchor="middle" x="0" y="-6.000000">A445G</text></g><line x1="576.679790" x2="576.679790" y1="46.500000" y2="74.500000" stroke="#BABDB6" stroke-width="2"/><a xlink:title="T535T"><circle cx="576.679790" cy="46.500000" r="4.000000" fill="#0000ff" /></a><g transform="translate(576.679790,46.500000) rotate(-30)"><text style="font-size:10px;font-family:OpenSans;fill:#555;" text-anchor="middle" x="0" y="-6.000000">T535T</text></g><line x1="582.979003" x2="582.979003" y1="46.500000" y2="74.500000" stroke="#BABDB6" stroke-width="2"/><a xlink:title="D541N"><circle cx="582.979003" cy="46.500000" r="4.000000" fill="#ff0000" /></a><g transform="translate(582.979003,46.500000) rotate(-30)"><text style="font-size:10px;font-family:OpenSans;fill:#555;" text-anchor="middle" x="0" y="-6.000000">D541N</text></g><line x1="641.771654" x2="641.771654" y1="46.500000" y2="74.500000" stroke="#BABDB6" stroke-width="2"/><a xlink:title="T597T"><circle cx="641.771654" cy="46.500000" r="4.000000" fill="#0000ff" /></a><g transform="translate(641.771654,46.500000) rotate(-30)"><text style="font-size:10px;font-family:OpenSans;fill:#555;" text-anchor="middle" x="0" y="-6.000000">T597T</text></g><line x1="648.070866" x2="648.070866" y1="46.500000" y2="74.500000" stroke="#BABDB6" stroke-width="2"/><a xlink:title="D603N"><circle cx="648.070866" cy="46.500000" r="4.000000" fill="#ff0000" /></a><g transform="translate(648.070866,46.500000) rotate(-30)"><text style="font-size:10px;font-family:OpenSans;fill:#555;" text-anchor="middle" x="0" y="-6.000000">D603N</text></g><line x1="744.658793" x2="744.658793" y1="46.500000" y2="74.500000" stroke="#BABDB6" stroke-width="2"/><a xlink:title="T695T"><circle cx="744.658793" cy="46.500000" r="4.000000" fill="#0000ff" /></a><g transform="translate(744.658793,46.500000) rotate(-30)"><text style="font-size:10px;font-family:OpenSans;fill:#555;" text-anchor="middle" x="0" y="-6.000000">T695T</text></g><line x1="770.905512" x2="770.905512" y1="46.500000" y2="74.500000" stroke="#BABDB6" stroke-width="2"/><a xlink:title="T720T"><circle cx="770.905512" cy="46.500000" r="4.000000" fill="#0000ff" /></a><g transform="translate(770.905512,46.500000) rotate(-30)"><text style="font-size:10px;font-family:OpenSans;fill:#555;" text-anchor="middle" x="0" y="-6.000000">T720T</text></g><line x1="809.750656" x2="809.750656" y1="46.500000" y2="74.500000" stroke="#BABDB6" stroke-width="2"/><a xlink:title="T757T"><circle cx="809.750656" cy="46.500000" r="4.000000" fill="#0000ff" /></a><g transform="translate(809.750656,46.500000) rotate(-30)"><text style="font-size:10px;font-family:OpenSans;fill:#555;" text-anchor="middle" x="0" y="-6.000000">T757T</text></g><line x1="835.997375" x2="835.997375" y1="46.500000" y2="74.500000" stroke="#BABDB6" stroke-width="2"/><a xlink:title="T782T"><circle cx="835.997375" cy="46.500000" r="4.000000" fill="#0000ff" /></a><g transform="translate(835.997375,46.500000) rotate(-30)"><text style="font-size:10px;font-family:OpenSans;fill:#555;" text-anchor="middle" x="0" y="-6.000000">T782T</text></g><a xlink:title=",  (381aa)"><rect fill="#BABDB6" x="15.000000" y="74.500000" width="400.000000" height="14.000000"/></a><g transform="translate(39.146982,69.500000)"><a xlink:href="https://www.ebi.ac.uk/interpro/entry/pfam/PF04592" xlink:title="Selenoprotein P, N terminal region"><rect fill="#2DCF00" x="0" y="0" width="235.170604" height="24.000000" filter="url(#ds)"/><text style="font-size:12px;font-family:OpenSans;fill:#ffffff;" text-anchor="middle" x="117.585302" y="16.000000">Selenoprotein P, N terminal region</text></a></g>
<g transform="translate(278.517060,69.500000)"><a xlink:href="https://www.ebi.ac.uk/interpro/entry/pfam/PF04593" xlink:title="Selenoprotein P, C terminal region"><rect fill="#FF5353" x="0" y="0" width="136.482940" height="24.000000" filter="url(#ds)"/><text style="font-size:12px;font-family:OpenSans;fill:#ffffff;" text-anchor="middle" x="68.241470" y="16.000000">SelP_C</text></a></g>
<g class="axis">
<line x1="15.000000" x2="415.000000" y1="103.500000" y2="103.500000" stroke="#AAAAAA" /><line x1="15.000000" x2="15.000000" y1="103.500000" y2="108.500000" stroke="#AAAAAA" /><line x1="15.000000" x2="15.000000" y1="103.500000" y2="108.500000" stroke="#AAAAAA" /><text style="font-size:10px;font-family:OpenSans;fill:#000000;" text-anchor="middle" x="15.000000" y="118.500000">0</text><line x1="39.146982" x2="39.146982" y1="103.500000" y2="108.500000" stroke="#AAAAAA" /><text style="font-size:10px;font-family:OpenSans;fill:#000000;" text-anchor="middle" x="39.146982" y="118.500000">23</text><line x1="234.422572" x2="234.422572" y1="103.500000" y2="108.500000" stroke="#AAAAAA" /><text style="font-size:10px;font-family:OpenSans;fill:#000000;" text-anchor="middle" x="234.422572" y="118.500000">209</text><line x1="274.317585" x2="274.317585" y1="103.500000" y2="108.500000" stroke="#AAAAAA" /><text style="font-size:10px;font-family:OpenSans;fill:#000000;" text-anchor="middle" x="274.317585" y="118.500000">247</text><line x1="360.406824" x2="360.406824" y1="103.500000" y2="108.500000" stroke="#AAAAAA" /><text style="font-size:10px;font-family:OpenSans;fill:#000000;" text-anchor="middle" x="360.406824" y="118.500000">329</text><line x1="415.000000" x2="415.000000" y1="103.500000" y2="108.500000" stroke="#AAAAAA" /><text style="font-size:10px;font-family:OpenSans;fill:#000000;" text-anchor="middle" x="415.000000" y="118.500000">381</text><line x1="482.191601" x2="482.191601" y1="103.500000" y2="108.500000" stroke="#AAAAAA" /><text style="font-size:10px;font-family:OpenSans;fill:#000000;" text-anchor="middle" x="482.191601" y="118.500000">445</text><line x1="576.679790" x2="576.679790" y1="103.500000" y2="108.500000" stroke="#AAAAAA" /><text style="font-size:10px;font-family:OpenSans;fill:#000000;" text-anchor="middle" x="576.679790" y="118.500000">535</text><line x1="641.771654" x2="641.771654" y1="103.500000" y2="108.500000" stroke="#AAAAAA" /><text style="font-size:10px;font-family:OpenSans;fill:#000000;" text-anchor="middle" x="641.771654" y="118.500000">597</text><line x1="744.658793" x2="744.658793" y1="103.500000" y2="108.500000" stroke="#AAAAAA" /><text style="font-size:10px;font-family:OpenSans;fill:#000000;" text-anchor="middle" x="744.658793" y="118.500000">695</text><line x1="770.905512" x2="770.905512" y1="103.500000" y2="108.500000" stroke="#AAAAAA" /><text style="font-size:10px;font-family:OpenSans;fill:#000000;" text-anchor="middle" x="770.905512" y="118.500000">720</text><line x1="809.750656" x2="809.750656" y1="103.500000" y2="108.500000" stroke="#AAAAAA" /><text style="font-size:10px;font-family:OpenSans;fill:#000000;" text-anchor="middle" x="809.750656" y="118.500000">757</text><line x1="835.997375" x2="835.997375" y1="103.500000" y2="108.500000" stroke="#AAAAAA" /><text style="font-size:10px;font-family:OpenSans;fill:#000000;" text-anchor="middle" x="835.997375" y="118.500000">782</text></g>
<rect fill="#FF5353" x="4" y="132.500000" width="12" height="12" filter="url(#ds)"/><text style="font-size:12px;font-family:OpenSans;fill:#000000;" text-anchor="start" x="20" y="144.500000">Selenoprotein P, C terminal region</text></svg>
