<?xml version='1.0'?>
<svg xmlns="http://www.w3.org/2000/svg" xmlns:xlink="http://www.w3.org/1999/xlink" width="834.275862" height="146.200000">
<defs>
  <filter id="ds" x="0" y="0">
    <feOffset in="SourceAlpha" dx="2" dy="2" />
    <feComponentTransfer><feFuncA type="linear" slope="0.2"/></feComponentTransfer>
    <feGaussianBlur result="blurOut" stdDeviation="1" />
    <feBlend in="SourceGraphic" in2="blurOut" mode="normal" />
  </filter>
  <pattern id="disordered-hatch" patternUnits="userSpaceOnUse" width="4" height="4">
    <path d="M-1,1 l2,-2 M0,4 l4,-4 M3,5 l2,-2" stroke="#000000" opacity="0.3" />
  </pattern>
</defs>
<line x1="659.965517" x2="659.965517" y1="34.000000" y2="62.000000" stroke="#BABDB6" stroke-width="2"/><a xlink:title="L668L"><circle cx="659.965517" cy="34.000000" r="4.000000" fill="#0000ff" /></a><g transform="translate(659.965517,34.000000) rotate(-30)"><text style="font-size:10px;font-family:OpenSans;fill:#555;" text-anchor="middle" x="0" y="-6.000000">L668L</text></g><line x1="796.103448" x2="796.103448" y1="34.000000" y2="62.000000" stroke="#BABDB6" stroke-width="2"/><a xlink:title="L809L"><circle cx="796.103448" cy="34.000000" r="4.000000" fill="#0000ff" /></a><g transform="translate(796.103448,34.000000) rotate(-30)"><text style="font-size:10px;font-family:OpenSans;fill:#555;" text-anchor="middle" x="0" y="-6.000000">L809L</text></g><line x1="836.655172" x2="836.655172" y1="34.000000" y2="62.000000" stroke="#BABDB6" stroke-width="2"/><a xlink:title="L851L"><circle cx="836.655172" cy="34.000000" r="4.000000" fill="#0000ff" /></a><g transform="translate(836.655172,34.000000) rotate(-30)"><text style="font-size:10px;font-family:OpenSans;fill:#555;" text-anchor="middle" x="0" y="-6.000000">L851L</text></g><a xlink:title=",  (833aa)"><rect fill="#BABDB6" x="15.000000" y="62.000000" width="804.275862" height="14.000000"/></a><g transform="translate(301.758621,57.000000)"><a xlink:href="https://www.ebi.ac.uk/interpro/entry/pfam/PF01403" xlink:title="Sema domain"><rect fill="#2DCF00" x="0" y="0" width="175.724138" height="24.000000" filter="url(#ds)"/><text style="font-size:12px;font-family:OpenSans;fill:#ffffff;" text-anchor="middle" x="87.862069" y="16.000000">Sema domain</text></a></g>
<g transform="translate(496.793103,57.000000)"><a xlink:href="https://www.ebi.ac.uk/interpro/entry/pfam/PF01437" xlink:title="Plexin repeat"><rect fill="#FF5353" x="0" y="0" width="28.000000" height="24.000000" filter="url(#ds)"/><text style="font-size:12px;font-family:OpenSans;fill:#ffffff;" text-anchor="middle" x="14.000000" y="16.000000">PSI</text></a></g>
<g class="axis">
<line x1="15.000000" x2="819.275862" y1="91.000000" y2="91.000000" stroke="#AAAAAA" /><line x1="15.000000" x2="15.000000" y1="91.000000" y2="96.000000" stroke="#AAAAAA" /><line x1="15.000000" x2="15.000000" y1="91.000000" y2="96.000000" stroke="#AAAAAA" /><text style="font-size:10px;font-family:OpenSans;fill:#000000;" text-anchor="middle" x="15.000000" y="106.000000">0</text><line x1="301.758621" x2="301.758621" y1="91.000000" y2="96.000000" stroke="#AAAAAA" /><text style="font-size:10px;font-family:OpenSans;fill:#000000;" text-anchor="middle" x="301.758621" y="106.000000">297</text><line x1="477.482759" x2="477.482759" y1="91.000000" y2="96.000000" stroke="#AAAAAA" /><text style="font-size:10px;font-family:OpenSans;fill:#000000;" text-anchor="middle" x="477.482759" y="106.000000">479</text><line x1="496.793103" x2="496.793103" y1="91.000000" y2="96.000000" stroke="#AAAAAA" /><text style="font-size:10px;font-family:OpenSans;fill:#000000;" text-anchor="middle" x="496.793103" y="106.000000">499</text><line x1="524.793103" x2="524.793103" y1="91.000000" y2="96.000000" stroke="#AAAAAA" /><text style="font-size:10px;font-family:OpenSans;fill:#000000;" text-anchor="middle" x="524.793103" y="106.000000">528</text><line x1="659.965517" x2="659.965517" y1="91.000000" y2="96.000000" stroke="#AAAAAA" /><text style="font-size:10px;font-family:OpenSans;fill:#000000;" text-anchor="middle" x="659.965517" y="106.000000">668</text><line x1="796.103448" x2="796.103448" y1="91.000000" y2="96.000000" stroke="#AAAAAA" /><text style="font-size:10px;font-family:OpenSans;fill:#000000;" text-anchor="middle" x="796.103448" y="106.000000">809</text><line x1="819.275862" x2="819.275862" y1="91.000000" y2="96.000000" stroke="#AAAAAA" /><text style="font-size:10px;font-family:OpenSans;fill:#000000;" text-anchor="middle" x="819.275862" y="106.000000">833</text></g>
<rect fill="#FF5353" x="4" y="120.000000" width="12" height="12" filter="url(#ds)"/><text style="font-size:12px;font-family:OpenSans;fill:#000000;" text-anchor="start" x="20" y="132.000000">Plexin repeat</text></svg>
