<?xml version='1.0'?>
<svg xmlns="http://www.w3.org/2000/svg" xmlns:xlink="http://www.w3.org/1999/xlink" width="430.000000" height="158.700000">
<defs>
  <filter id="ds" x="0" y="0">
    <feOffset in="SourceAlpha" dx="2" dy="2" />
    <feComponentTransfer><feFuncA type="linear" slope="0.2"/></feComponentTransfer>
    <feGaussianBlur result="blurOut" stdDeviation="1" />
    <feBlend in="SourceGraphic" in2="blurOut" mode="normal" />
  </filter>
  <pattern id="disordered-hatch" patternUnits="userSpaceOnUse" width="4" height="4">
    <path d="M-1,1 l2,-2 M0,4 l4,-4 M3,5 l2,-2" stroke="#000000" opacity="0.3" />
  </pattern>
</defs>
<line x1="40.369979" x2="40.369979" y1="46.500000" y2="74.500000" stroke="#BABDB6" stroke-width="2"/><a xlink:title="E30K"><circle cx="40.369979" cy="46.500000" r="4.000000" fill="#ff0000" /></a><g transform="translate(40.369979,46.500000) rotate(-30)"><text style="font-size:10px;font-family:OpenSans;fill:#555;" text-anchor="middle" x="0" y="-6.000000">E30K</text></g><line x1="66.585624" x2="66.585624" y1="34.000000" y2="74.500000" stroke="#BABDB6" stroke-width="2"/><a xlink:title="A61A"><circle cx="66.585624" cy="34.000000" r="4.000000" fill="#0000ff" /></a><g transform="translate(66.585624,34.000000) rotate(-30)"><text style="font-size:10px;font-family:OpenSans;fill:#555;" text-anchor="middle" x="0" y="-6.000000">A61A</text></g><line x1="69.968288" x2="69.968288" y1="46.500000" y2="74.500000" stroke="#BABDB6" stroke-width="2"/><a xlink:title="L65L"><circle cx="69.968288" cy="46.500000" r="4.000000" fill="#0000ff" /></a><g transform="translate(69.968288,46.500000) rotate(-30)"><text style="font-size:10px;font-family:OpenSans;fill:#555;" text-anchor="middle" x="0" y="-6.000000">L65L</text></g><line x1="90.264271" x2="90.264271" y1="46.500000" y2="74.500000" stroke="#BABDB6" stroke-width="2"/><a xlink:title="L89L"><circle cx="90.264271" cy="46.500000" r="4.000000" fill="#0000ff" /></a><g transform="translate(90.264271,46.500000) rotate(-30)"><text style="font-size:10px;font-family:OpenSans;fill:#555;" text-anchor="middle" x="0" y="-6.000000">L89L</text></g><line x1="133.393235" x2="133.393235" y1="46.500000" y2="74.500000" stroke="#BABDB6" stroke-width="2"/><a xlink:title="V140A"><circle cx="133.393235" cy="46.500000" r="4.000000" fill="#ff0000" /></a><g transform="translate(133.393235,46.500000) rotate(-30)"><text style="font-size:10px;font-family:OpenSans;fill:#555;" text-anchor="middle" x="0" y="-6.000000">V140A</text></g><line x1="157.917548" x2="157.917548" y1="46.500000" y2="74.500000" stroke="#BABDB6" stroke-width="2"/><a xlink:title="L169L"><circle cx="157.917548" cy="46.500000" r="4.000000" fill="#0000ff" /></a><g transform="translate(157.917548,46.500000) rotate(-30)"><text style="font-size:10px;font-family:OpenSans;fill:#555;" text-anchor="middle" x="0" y="-6.000000">L169L</text></g><line x1="178.213531" x2="178.213531" y1="46.500000" y2="74.500000" stroke="#BABDB6" stroke-width="2"/><a xlink:title="L193L"><circle cx="178.213531" cy="46.500000" r="4.000000" fill="#0000ff" /></a><g transform="translate(178.213531,46.500000) rotate(-30)"><text style="font-size:10px;font-family:OpenSans;fill:#555;" text-anchor="middle" x="0" y="-6.000000">L193L</text></g><line x1="245.866808" x2="245.866808" y1="46.500000" y2="74.500000" stroke="#BABDB6" stroke-width="2"/><a xlink:title="*273*"><circle cx="245.866808" cy="46.500000" r="4.000000" fill="#0000ff" /></a><g transform="translate(245.866808,46.500000) rotate(-30)"><text style="font-size:10px;font-family:OpenSans;fill:#555;" text-anchor="middle" x="0" y="-6.000000">*273*</text></g><line x1="261.934461" x2="261.934461" y1="46.500000" y2="74.500000" stroke="#BABDB6" stroke-width="2"/><a xlink:title="V292V"><circle cx="261.934461" cy="46.500000" r="4.000000" fill="#0000ff" /></a><g transform="translate(261.934461,46.500000) rotate(-30)"><text style="font-size:10px;font-family:OpenSans;fill:#555;" text-anchor="middle" x="0" y="-6.000000">V292V</text></g><line x1="282.230444" x2="282.230444" y1="46.500000" y2="74.500000" stroke="#BABDB6" stroke-width="2"/><a xlink:title="V316V"><circle cx="282.230444" cy="46.500000" r="4.000000" fill="#0000ff" /></a><g transform="translate(282.230444,46.500000) rotate(-30)"><text style="font-size:10px;font-family:OpenSans;fill:#555;" text-anchor="middle" x="0" y="-6.000000">V316V</text></g><line x1="392.167019" x2="392.167019" y1="46.500000" y2="74.500000" stroke="#BABDB6" stroke-width="2"/><a xlink:title="E446E"><circle cx="392.167019" cy="46.500000" r="4.000000" fill="#0000ff" /></a><g transform="translate(392.167019,46.500000) rotate(-30)"><text style="font-size:10px;font-family:OpenSans;fill:#555;" text-anchor="middle" x="0" y="-6.000000">E446E</text></g><line x1="412.463002" x2="412.463002" y1="46.500000" y2="74.500000" stroke="#BABDB6" stroke-width="2"/><a xlink:title="E470E"><circle cx="412.463002" cy="46.500000" r="4.000000" fill="#0000ff" /></a><g transform="translate(412.463002,46.500000) rotate(-30)"><text style="font-size:10px;font-family:OpenSans;fill:#555;" text-anchor="middle" x="0" y="-6.000000">E470E</text></g><a xlink:title=",  (473aa)"><rect fill="#BABDB6" x="15.000000" y="74.500000" width="400.000000" height="14.000000"/></a><g transform="translate(77.579281,69.500000)"><a xlink:href="https://www.ebi.ac.uk/interpro/entry/pfam/PF00856" xlink:title="SET domain"><rect fill="#2DCF00" x="0" y="0" width="179.281184" height="24.000000" filter="url(#ds)"/><text style="font-size:12px;font-family:OpenSans;fill:#ffffff;" text-anchor="middle" x="89.640592" y="16.000000">SET domain</text></a></g>
<g transform="translate(295.761099,69.500000)"><a xlink:href="https://www.ebi.ac.uk/interpro/entry/pfam/PF09273" xlink:title="Rubisco LSMT substrate-binding"><rect fill="#FF5353" x="0" y="0" width="112.473573" height="24.000000" filter="url(#ds)"/><text style="font-size:12px;font-family:OpenSans;fill:#ffffff;" text-anchor="middle" x="56.236786" y="16.000000">Rubis-subs-bind</text></a></g>
<g class="axis">
<line x1="15.000000" x2="415.000000" y1="103.500000" y2="103.500000" stroke="#AAAAAA" /><line x1="15.000000" x2="15.000000" y1="103.500000" y2="108.500000" stroke="#AAAAAA" /><line x1="15.000000" x2="15.000000" y1="103.500000" y2="108.500000" stroke="#AAAAAA" /><text style="font-size:10px;font-family:OpenSans;fill:#000000;" text-anchor="middle" x="15.000000" y="118.500000">0</text><line x1="40.369979" x2="40.369979" y1="103.500000" y2="108.500000" stroke="#AAAAAA" /><text style="font-size:10px;font-family:OpenSans;fill:#000000;" text-anchor="middle" x="40.369979" y="118.500000">30</text><line x1="66.585624" x2="66.585624" y1="103.500000" y2="108.500000" stroke="#AAAAAA" /><text style="font-size:10px;font-family:OpenSans;fill:#000000;" text-anchor="middle" x="66.585624" y="118.500000">61</text><line x1="90.264271" x2="90.264271" y1="103.500000" y2="108.500000" stroke="#AAAAAA" /><text style="font-size:10px;font-family:OpenSans;fill:#000000;" text-anchor="middle" x="90.264271" y="118.500000">89</text><line x1="133.393235" x2="133.393235" y1="103.500000" y2="108.500000" stroke="#AAAAAA" /><text style="font-size:10px;font-family:OpenSans;fill:#000000;" text-anchor="middle" x="133.393235" y="118.500000">140</text><line x1="157.917548" x2="157.917548" y1="103.500000" y2="108.500000" stroke="#AAAAAA" /><text style="font-size:10px;font-family:OpenSans;fill:#000000;" text-anchor="middle" x="157.917548" y="118.500000">169</text><line x1="178.213531" x2="178.213531" y1="103.500000" y2="108.500000" stroke="#AAAAAA" /><text style="font-size:10px;font-family:OpenSans;fill:#000000;" text-anchor="middle" x="178.213531" y="118.500000">193</text><line x1="245.866808" x2="245.866808" y1="103.500000" y2="108.500000" stroke="#AAAAAA" /><text style="font-size:10px;font-family:OpenSans;fill:#000000;" text-anchor="middle" x="245.866808" y="118.500000">273</text><line x1="282.230444" x2="282.230444" y1="103.500000" y2="108.500000" stroke="#AAAAAA" /><text style="font-size:10px;font-family:OpenSans;fill:#000000;" text-anchor="middle" x="282.230444" y="118.500000">316</text><line x1="392.167019" x2="392.167019" y1="103.500000" y2="108.500000" stroke="#AAAAAA" /><text style="font-size:10px;font-family:OpenSans;fill:#000000;" text-anchor="middle" x="392.167019" y="118.500000">446</text><line x1="415.000000" x2="415.000000" y1="103.500000" y2="108.500000" stroke="#AAAAAA" /><text style="font-size:10px;font-family:OpenSans;fill:#000000;" text-anchor="middle" x="415.000000" y="118.500000">473</text></g>
<rect fill="#FF5353" x="4" y="132.500000" width="12" height="12" filter="url(#ds)"/><text style="font-size:12px;font-family:OpenSans;fill:#000000;" text-anchor="start" x="20" y="144.500000">Rubisco LSMT substrate-binding</text></svg>
