<?xml version='1.0'?>
<svg xmlns="http://www.w3.org/2000/svg" xmlns:xlink="http://www.w3.org/1999/xlink" width="454.117647" height="208.700000">
<defs>
  <filter id="ds" x="0" y="0">
    <feOffset in="SourceAlpha" dx="2" dy="2" />
    <feComponentTransfer><feFuncA type="linear" slope="0.2"/></feComponentTransfer>
    <feGaussianBlur result="blurOut" stdDeviation="1" />
    <feBlend in="SourceGraphic" in2="blurOut" mode="normal" />
  </filter>
  <pattern id="disordered-hatch" patternUnits="userSpaceOnUse" width="4" height="4">
    <path d="M-1,1 l2,-2 M0,4 l4,-4 M3,5 l2,-2" stroke="#000000" opacity="0.3" />
  </pattern>
</defs>
<line x1="22.647059" x2="22.647059" y1="84.000000" y2="124.500000" stroke="#BABDB6" stroke-width="2"/><a xlink:title="S26S"><circle cx="22.647059" cy="84.000000" r="4.000000" fill="#0000ff" /></a><g transform="translate(22.647059,84.000000) rotate(-30)"><text style="font-size:10px;font-family:OpenSans;fill:#555;" text-anchor="middle" x="0" y="-6.000000">S26S</text></g><line x1="27.058824" x2="27.058824" y1="84.000000" y2="124.500000" stroke="#BABDB6" stroke-width="2"/><a xlink:title="S41S"><circle cx="27.058824" cy="84.000000" r="4.000000" fill="#0000ff" /></a><g transform="translate(27.058824,84.000000) rotate(-30)"><text style="font-size:10px;font-family:OpenSans;fill:#555;" text-anchor="middle" x="0" y="-6.000000">S41S</text></g><line x1="29.117647" x2="29.117647" y1="96.500000" y2="124.500000" stroke="#BABDB6" stroke-width="2"/><a xlink:title="S48S"><circle cx="29.117647" cy="96.500000" r="4.000000" fill="#0000ff" /></a><g transform="translate(29.117647,96.500000) rotate(-30)"><text style="font-size:10px;font-family:OpenSans;fill:#555;" text-anchor="middle" x="0" y="-6.000000">S48S</text></g><line x1="342.647059" x2="342.647059" y1="71.500000" y2="124.500000" stroke="#BABDB6" stroke-width="2"/><a xlink:title="P1114R"><circle cx="342.647059" cy="71.500000" r="4.000000" fill="#ff0000" /></a><g transform="translate(342.647059,71.500000) rotate(-30)"><text style="font-size:10px;font-family:OpenSans;fill:#555;" text-anchor="middle" x="0" y="-6.000000">P1114R</text></g><line x1="344.411765" x2="344.411765" y1="84.000000" y2="124.500000" stroke="#BABDB6" stroke-width="2"/><a xlink:title="P1120R"><circle cx="344.411765" cy="84.000000" r="4.000000" fill="#ff0000" /></a><g transform="translate(344.411765,84.000000) rotate(-30)"><text style="font-size:10px;font-family:OpenSans;fill:#555;" text-anchor="middle" x="0" y="-6.000000">P1120R</text></g><line x1="348.235294" x2="348.235294" y1="96.500000" y2="124.500000" stroke="#BABDB6" stroke-width="2"/><a xlink:title="P1133R"><circle cx="348.235294" cy="96.500000" r="4.000000" fill="#ff0000" /></a><g transform="translate(348.235294,96.500000) rotate(-30)"><text style="font-size:10px;font-family:OpenSans;fill:#555;" text-anchor="middle" x="0" y="-6.000000">P1133R</text></g><line x1="365.882353" x2="365.882353" y1="84.000000" y2="124.500000" stroke="#BABDB6" stroke-width="2"/><a xlink:title="P1193R"><circle cx="365.882353" cy="84.000000" r="4.000000" fill="#ff0000" /></a><g transform="translate(365.882353,84.000000) rotate(-30)"><text style="font-size:10px;font-family:OpenSans;fill:#555;" text-anchor="middle" x="0" y="-6.000000">P1193R</text></g><line x1="371.470588" x2="371.470588" y1="34.000000" y2="124.500000" stroke="#BABDB6" stroke-width="2"/><a xlink:title="P1212R"><circle cx="371.470588" cy="34.000000" r="4.000000" fill="#ff0000" /></a><g transform="translate(371.470588,34.000000) rotate(-30)"><text style="font-size:10px;font-family:OpenSans;fill:#555;" text-anchor="middle" x="0" y="-6.000000">P1212R</text></g><line x1="373.529412" x2="373.529412" y1="34.000000" y2="124.500000" stroke="#BABDB6" stroke-width="2"/><a xlink:title="P1219R"><circle cx="373.529412" cy="34.000000" r="4.000000" fill="#ff0000" /></a><g transform="translate(373.529412,34.000000) rotate(-30)"><text style="font-size:10px;font-family:OpenSans;fill:#555;" text-anchor="middle" x="0" y="-6.000000">P1219R</text></g><line x1="375.294118" x2="375.294118" y1="34.000000" y2="124.500000" stroke="#BABDB6" stroke-width="2"/><a xlink:title="P1225R"><circle cx="375.294118" cy="34.000000" r="4.000000" fill="#ff0000" /></a><g transform="translate(375.294118,34.000000) rotate(-30)"><text style="font-size:10px;font-family:OpenSans;fill:#555;" text-anchor="middle" x="0" y="-6.000000">P1225R</text></g><line x1="376.470588" x2="376.470588" y1="46.500000" y2="124.500000" stroke="#BABDB6" stroke-width="2"/><a xlink:title="P1229R"><circle cx="376.470588" cy="46.500000" r="4.000000" fill="#ff0000" /></a><g transform="translate(376.470588,46.500000) rotate(-30)"><text style="font-size:10px;font-family:OpenSans;fill:#555;" text-anchor="middle" x="0" y="-6.000000">P1229R</text></g><line x1="377.058824" x2="377.058824" y1="34.000000" y2="124.500000" stroke="#BABDB6" stroke-width="2"/><a xlink:title="P1231R"><circle cx="377.058824" cy="34.000000" r="4.000000" fill="#ff0000" /></a><g transform="translate(377.058824,34.000000) rotate(-30)"><text style="font-size:10px;font-family:OpenSans;fill:#555;" text-anchor="middle" x="0" y="-6.000000">P1231R</text></g><line x1="377.352941" x2="377.352941" y1="46.500000" y2="124.500000" stroke="#BABDB6" stroke-width="2"/><a xlink:title="P1232R"><circle cx="377.352941" cy="46.500000" r="4.000000" fill="#ff0000" /></a><g transform="translate(377.352941,46.500000) rotate(-30)"><text style="font-size:10px;font-family:OpenSans;fill:#555;" text-anchor="middle" x="0" y="-6.000000">P1232R</text></g><line x1="379.117647" x2="379.117647" y1="46.500000" y2="124.500000" stroke="#BABDB6" stroke-width="2"/><a xlink:title="P1238R"><circle cx="379.117647" cy="46.500000" r="4.000000" fill="#ff0000" /></a><g transform="translate(379.117647,46.500000) rotate(-30)"><text style="font-size:10px;font-family:OpenSans;fill:#555;" text-anchor="middle" x="0" y="-6.000000">P1238R</text></g><line x1="380.882353" x2="380.882353" y1="46.500000" y2="124.500000" stroke="#BABDB6" stroke-width="2"/><a xlink:title="P1244R"><circle cx="380.882353" cy="46.500000" r="4.000000" fill="#ff0000" /></a><g transform="translate(380.882353,46.500000) rotate(-30)"><text style="font-size:10px;font-family:OpenSans;fill:#555;" text-anchor="middle" x="0" y="-6.000000">P1244R</text></g><line x1="382.647059" x2="382.647059" y1="46.500000" y2="124.500000" stroke="#BABDB6" stroke-width="2"/><a xlink:title="P1250R"><circle cx="382.647059" cy="46.500000" r="4.000000" fill="#ff0000" /></a><g transform="translate(382.647059,46.500000) rotate(-30)"><text style="font-size:10px;font-family:OpenSans;fill:#555;" text-anchor="middle" x="0" y="-6.000000">P1250R</text></g><line x1="382.941176" x2="382.941176" y1="59.000000" y2="124.500000" stroke="#BABDB6" stroke-width="2"/><a xlink:title="P1251R"><circle cx="382.941176" cy="59.000000" r="4.000000" fill="#ff0000" /></a><g transform="translate(382.941176,59.000000) rotate(-30)"><text style="font-size:10px;font-family:OpenSans;fill:#555;" text-anchor="middle" x="0" y="-6.000000">P1251R</text></g><line x1="384.705882" x2="384.705882" y1="71.500000" y2="124.500000" stroke="#BABDB6" stroke-width="2"/><a xlink:title="P1257R"><circle cx="384.705882" cy="71.500000" r="4.000000" fill="#ff0000" /></a><g transform="translate(384.705882,71.500000) rotate(-30)"><text style="font-size:10px;font-family:OpenSans;fill:#555;" text-anchor="middle" x="0" y="-6.000000">P1257R</text></g><line x1="386.470588" x2="386.470588" y1="84.000000" y2="124.500000" stroke="#BABDB6" stroke-width="2"/><a xlink:title="P1263R"><circle cx="386.470588" cy="84.000000" r="4.000000" fill="#ff0000" /></a><g transform="translate(386.470588,84.000000) rotate(-30)"><text style="font-size:10px;font-family:OpenSans;fill:#555;" text-anchor="middle" x="0" y="-6.000000">P1263R</text></g><line x1="388.529412" x2="388.529412" y1="96.500000" y2="124.500000" stroke="#BABDB6" stroke-width="2"/><a xlink:title="P1270R"><circle cx="388.529412" cy="96.500000" r="4.000000" fill="#ff0000" /></a><g transform="translate(388.529412,96.500000) rotate(-30)"><text style="font-size:10px;font-family:OpenSans;fill:#555;" text-anchor="middle" x="0" y="-6.000000">P1270R</text></g><a xlink:title=",  (1442aa)"><rect fill="#BABDB6" x="15.000000" y="124.500000" width="424.117647" height="14.000000"/></a><g transform="translate(99.117647,119.500000)"><a xlink:href="https://www.ebi.ac.uk/interpro/entry/pfam/PF00856" xlink:title="SET domain"><rect fill="#2DCF00" x="0" y="0" width="30.000000" height="24.000000" filter="url(#ds)"/><text style="font-size:12px;font-family:OpenSans;fill:#ffffff;" text-anchor="middle" x="15.000000" y="16.000000">SET</text></a></g>
<g class="axis">
<line x1="15.000000" x2="439.117647" y1="153.500000" y2="153.500000" stroke="#AAAAAA" /><line x1="15.000000" x2="15.000000" y1="153.500000" y2="158.500000" stroke="#AAAAAA" /><line x1="22.647059" x2="22.647059" y1="153.500000" y2="158.500000" stroke="#AAAAAA" /><text style="font-size:10px;font-family:OpenSans;fill:#000000;" text-anchor="middle" x="22.647059" y="168.500000">26</text><line x1="99.117647" x2="99.117647" y1="153.500000" y2="158.500000" stroke="#AAAAAA" /><text style="font-size:10px;font-family:OpenSans;fill:#000000;" text-anchor="middle" x="99.117647" y="168.500000">286</text><line x1="129.117647" x2="129.117647" y1="153.500000" y2="158.500000" stroke="#AAAAAA" /><text style="font-size:10px;font-family:OpenSans;fill:#000000;" text-anchor="middle" x="129.117647" y="168.500000">388</text><line x1="342.647059" x2="342.647059" y1="153.500000" y2="158.500000" stroke="#AAAAAA" /><text style="font-size:10px;font-family:OpenSans;fill:#000000;" text-anchor="middle" x="342.647059" y="168.500000">1114</text><line x1="365.882353" x2="365.882353" y1="153.500000" y2="158.500000" stroke="#AAAAAA" /><text style="font-size:10px;font-family:OpenSans;fill:#000000;" text-anchor="middle" x="365.882353" y="168.500000">1193</text><line x1="386.470588" x2="386.470588" y1="153.500000" y2="158.500000" stroke="#AAAAAA" /><text style="font-size:10px;font-family:OpenSans;fill:#000000;" text-anchor="middle" x="386.470588" y="168.500000">1263</text><line x1="439.117647" x2="439.117647" y1="153.500000" y2="158.500000" stroke="#AAAAAA" /><text style="font-size:10px;font-family:OpenSans;fill:#000000;" text-anchor="middle" x="439.117647" y="168.500000">1442</text></g>
<rect fill="#2DCF00" x="4" y="182.500000" width="12" height="12" filter="url(#ds)"/><text style="font-size:12px;font-family:OpenSans;fill:#000000;" text-anchor="start" x="20" y="194.500000">SET domain</text></svg>
