<?xml version='1.0'?>
<svg xmlns="http://www.w3.org/2000/svg" xmlns:xlink="http://www.w3.org/1999/xlink" width="793.345455" height="171.900000">
<defs>
  <filter id="ds" x="0" y="0">
    <feOffset in="SourceAlpha" dx="2" dy="2" />
    <feComponentTransfer><feFuncA type="linear" slope="0.2"/></feComponentTransfer>
    <feGaussianBlur result="blurOut" stdDeviation="1" />
    <feBlend in="SourceGraphic" in2="blurOut" mode="normal" />
  </filter>
  <pattern id="disordered-hatch" patternUnits="userSpaceOnUse" width="4" height="4">
    <path d="M-1,1 l2,-2 M0,4 l4,-4 M3,5 l2,-2" stroke="#000000" opacity="0.3" />
  </pattern>
</defs>
<line x1="46.309091" x2="46.309091" y1="46.500000" y2="74.500000" stroke="#BABDB6" stroke-width="2"/><a xlink:title="L42L"><circle cx="46.309091" cy="46.500000" r="4.000000" fill="#0000ff" /></a><g transform="translate(46.309091,46.500000) rotate(-30)"><text style="font-size:10px;font-family:OpenSans;fill:#555;" text-anchor="middle" x="0" y="-6.000000">L42L</text></g><line x1="90.290909" x2="90.290909" y1="46.500000" y2="74.500000" stroke="#BABDB6" stroke-width="2"/><a xlink:title="P101P"><circle cx="90.290909" cy="46.500000" r="4.000000" fill="#0000ff" /></a><g transform="translate(90.290909,46.500000) rotate(-30)"><text style="font-size:10px;font-family:OpenSans;fill:#555;" text-anchor="middle" x="0" y="-6.000000">P101P</text></g><line x1="155.145455" x2="155.145455" y1="46.500000" y2="74.500000" stroke="#BABDB6" stroke-width="2"/><a xlink:title="R188Q"><circle cx="155.145455" cy="46.500000" r="4.000000" fill="#ff0000" /></a><g transform="translate(155.145455,46.500000) rotate(-30)"><text style="font-size:10px;font-family:OpenSans;fill:#555;" text-anchor="middle" x="0" y="-6.000000">R188Q</text></g><line x1="335.545455" x2="335.545455" y1="46.500000" y2="74.500000" stroke="#BABDB6" stroke-width="2"/><a xlink:title="M430I"><circle cx="335.545455" cy="46.500000" r="4.000000" fill="#ff0000" /></a><g transform="translate(335.545455,46.500000) rotate(-30)"><text style="font-size:10px;font-family:OpenSans;fill:#555;" text-anchor="middle" x="0" y="-6.000000">M430I</text></g><line x1="367.600000" x2="367.600000" y1="46.500000" y2="74.500000" stroke="#BABDB6" stroke-width="2"/><a xlink:title="T473T"><circle cx="367.600000" cy="46.500000" r="4.000000" fill="#0000ff" /></a><g transform="translate(367.600000,46.500000) rotate(-30)"><text style="font-size:10px;font-family:OpenSans;fill:#555;" text-anchor="middle" x="0" y="-6.000000">T473T</text></g><line x1="592.727273" x2="592.727273" y1="46.500000" y2="74.500000" stroke="#BABDB6" stroke-width="2"/><a xlink:title="P775P"><circle cx="592.727273" cy="46.500000" r="4.000000" fill="#0000ff" /></a><g transform="translate(592.727273,46.500000) rotate(-30)"><text style="font-size:10px;font-family:OpenSans;fill:#555;" text-anchor="middle" x="0" y="-6.000000">P775P</text></g><line x1="627.763636" x2="627.763636" y1="34.000000" y2="74.500000" stroke="#BABDB6" stroke-width="2"/><a xlink:title="L822L"><circle cx="627.763636" cy="34.000000" r="4.000000" fill="#0000ff" /></a><g transform="translate(627.763636,34.000000) rotate(-30)"><text style="font-size:10px;font-family:OpenSans;fill:#555;" text-anchor="middle" x="0" y="-6.000000">L822L</text></g><line x1="629.254545" x2="629.254545" y1="46.500000" y2="74.500000" stroke="#BABDB6" stroke-width="2"/><a xlink:title="K824T"><circle cx="629.254545" cy="46.500000" r="4.000000" fill="#ff0000" /></a><g transform="translate(629.254545,46.500000) rotate(-30)"><text style="font-size:10px;font-family:OpenSans;fill:#555;" text-anchor="middle" x="0" y="-6.000000">K824T</text></g><line x1="647.145455" x2="647.145455" y1="46.500000" y2="74.500000" stroke="#BABDB6" stroke-width="2"/><a xlink:title="T848T"><circle cx="647.145455" cy="46.500000" r="4.000000" fill="#0000ff" /></a><g transform="translate(647.145455,46.500000) rotate(-30)"><text style="font-size:10px;font-family:OpenSans;fill:#555;" text-anchor="middle" x="0" y="-6.000000">T848T</text></g><line x1="675.472727" x2="675.472727" y1="34.000000" y2="74.500000" stroke="#BABDB6" stroke-width="2"/><a xlink:title="L886L"><circle cx="675.472727" cy="34.000000" r="4.000000" fill="#0000ff" /></a><g transform="translate(675.472727,34.000000) rotate(-30)"><text style="font-size:10px;font-family:OpenSans;fill:#555;" text-anchor="middle" x="0" y="-6.000000">L886L</text></g><line x1="676.963636" x2="676.963636" y1="46.500000" y2="74.500000" stroke="#BABDB6" stroke-width="2"/><a xlink:title="K888T"><circle cx="676.963636" cy="46.500000" r="4.000000" fill="#ff0000" /></a><g transform="translate(676.963636,46.500000) rotate(-30)"><text style="font-size:10px;font-family:OpenSans;fill:#555;" text-anchor="middle" x="0" y="-6.000000">K888T</text></g><line x1="694.854545" x2="694.854545" y1="46.500000" y2="74.500000" stroke="#BABDB6" stroke-width="2"/><a xlink:title="T912T"><circle cx="694.854545" cy="46.500000" r="4.000000" fill="#0000ff" /></a><g transform="translate(694.854545,46.500000) rotate(-30)"><text style="font-size:10px;font-family:OpenSans;fill:#555;" text-anchor="middle" x="0" y="-6.000000">T912T</text></g><a xlink:title=",  (1024aa)"><rect fill="#BABDB6" x="15.000000" y="74.500000" width="763.345455" height="14.000000"/></a><g transform="translate(307.963636,69.500000)"><a xlink:href="https://www.ebi.ac.uk/interpro/entry/pfam/PF00084" xlink:title="Sushi repeat (SCR repeat)"><rect fill="#2DCF00" x="0" y="0" width="41.000000" height="24.000000" filter="url(#ds)"/><text style="font-size:12px;font-family:OpenSans;fill:#ffffff;" text-anchor="middle" x="20.500000" y="16.000000">Sushi</text></a></g>
<g transform="translate(351.945455,69.500000)"><a xlink:href="https://www.ebi.ac.uk/interpro/entry/pfam/PF00431" xlink:title="CUB domain"><rect fill="#FF5353" x="0" y="0" width="79.763636" height="24.000000" filter="url(#ds)"/><text style="font-size:12px;font-family:OpenSans;fill:#ffffff;" text-anchor="middle" x="39.881818" y="16.000000">CUB domain</text></a></g>
<g transform="translate(437.672727,69.500000)"><a xlink:href="https://www.ebi.ac.uk/interpro/entry/pfam/PF00084" xlink:title="Sushi repeat (SCR repeat)"><rect fill="#5B5BFF" x="0" y="0" width="42.490909" height="24.000000" filter="url(#ds)"/><text style="font-size:12px;font-family:OpenSans;fill:#ffffff;" text-anchor="middle" x="21.245455" y="16.000000">Sushi</text></a></g>
<g transform="translate(483.145455,69.500000)"><a xlink:href="https://www.ebi.ac.uk/interpro/entry/pfam/PF00431" xlink:title="CUB domain"><rect fill="#EBD61D" x="0" y="0" width="70.072727" height="24.000000" filter="url(#ds)"/><text style="font-size:12px;font-family:OpenSans;fill:#ffffff;" text-anchor="middle" x="35.036364" y="16.000000">CUB</text></a></g>
<g transform="translate(570.363636,69.500000)"><a xlink:href="https://www.ebi.ac.uk/interpro/entry/pfam/PF00084" xlink:title="Sushi repeat (SCR repeat)"><rect fill="#BA21E0" x="0" y="0" width="41.000000" height="24.000000" filter="url(#ds)"/><text style="font-size:12px;font-family:OpenSans;fill:#ffffff;" text-anchor="middle" x="20.500000" y="16.000000">Sushi</text></a></g>
<g transform="translate(615.836364,69.500000)"><a xlink:href="https://www.ebi.ac.uk/interpro/entry/pfam/PF00084" xlink:title="Sushi repeat (SCR repeat)"><rect fill="#FF9C42" x="0" y="0" width="43.981818" height="24.000000" filter="url(#ds)"/><text style="font-size:12px;font-family:OpenSans;fill:#ffffff;" text-anchor="middle" x="21.990909" y="16.000000">Sushi</text></a></g>
<g transform="translate(665.781818,69.500000)"><a xlink:href="https://www.ebi.ac.uk/interpro/entry/pfam/PF00084" xlink:title="Sushi repeat (SCR repeat)"><rect fill="#FF7DFF" x="0" y="0" width="42.490909" height="24.000000" filter="url(#ds)"/><text style="font-size:12px;font-family:OpenSans;fill:#ffffff;" text-anchor="middle" x="21.245455" y="16.000000">Sushi</text></a></g>
<g class="axis">
<line x1="15.000000" x2="778.345455" y1="103.500000" y2="103.500000" stroke="#AAAAAA" /><line x1="15.000000" x2="15.000000" y1="103.500000" y2="108.500000" stroke="#AAAAAA" /><line x1="15.000000" x2="15.000000" y1="103.500000" y2="108.500000" stroke="#AAAAAA" /><text style="font-size:10px;font-family:OpenSans;fill:#000000;" text-anchor="middle" x="15.000000" y="118.500000">0</text><line x1="46.309091" x2="46.309091" y1="103.500000" y2="108.500000" stroke="#AAAAAA" /><text style="font-size:10px;font-family:OpenSans;fill:#000000;" text-anchor="middle" x="46.309091" y="118.500000">42</text><line x1="90.290909" x2="90.290909" y1="103.500000" y2="108.500000" stroke="#AAAAAA" /><text style="font-size:10px;font-family:OpenSans;fill:#000000;" text-anchor="middle" x="90.290909" y="118.500000">101</text><line x1="155.145455" x2="155.145455" y1="103.500000" y2="108.500000" stroke="#AAAAAA" /><text style="font-size:10px;font-family:OpenSans;fill:#000000;" text-anchor="middle" x="155.145455" y="118.500000">188</text><line x1="307.963636" x2="307.963636" y1="103.500000" y2="108.500000" stroke="#AAAAAA" /><text style="font-size:10px;font-family:OpenSans;fill:#000000;" text-anchor="middle" x="307.963636" y="118.500000">393</text><line x1="335.545455" x2="335.545455" y1="103.500000" y2="108.500000" stroke="#AAAAAA" /><text style="font-size:10px;font-family:OpenSans;fill:#000000;" text-anchor="middle" x="335.545455" y="118.500000">430</text><line x1="367.600000" x2="367.600000" y1="103.500000" y2="108.500000" stroke="#AAAAAA" /><text style="font-size:10px;font-family:OpenSans;fill:#000000;" text-anchor="middle" x="367.600000" y="118.500000">473</text><line x1="431.709091" x2="431.709091" y1="103.500000" y2="108.500000" stroke="#AAAAAA" /><text style="font-size:10px;font-family:OpenSans;fill:#000000;" text-anchor="middle" x="431.709091" y="118.500000">559</text><line x1="480.163636" x2="480.163636" y1="103.500000" y2="108.500000" stroke="#AAAAAA" /><text style="font-size:10px;font-family:OpenSans;fill:#000000;" text-anchor="middle" x="480.163636" y="118.500000">624</text><line x1="553.218182" x2="553.218182" y1="103.500000" y2="108.500000" stroke="#AAAAAA" /><text style="font-size:10px;font-family:OpenSans;fill:#000000;" text-anchor="middle" x="553.218182" y="118.500000">722</text><line x1="592.727273" x2="592.727273" y1="103.500000" y2="108.500000" stroke="#AAAAAA" /><text style="font-size:10px;font-family:OpenSans;fill:#000000;" text-anchor="middle" x="592.727273" y="118.500000">775</text><line x1="627.763636" x2="627.763636" y1="103.500000" y2="108.500000" stroke="#AAAAAA" /><text style="font-size:10px;font-family:OpenSans;fill:#000000;" text-anchor="middle" x="627.763636" y="118.500000">822</text><line x1="647.145455" x2="647.145455" y1="103.500000" y2="108.500000" stroke="#AAAAAA" /><text style="font-size:10px;font-family:OpenSans;fill:#000000;" text-anchor="middle" x="647.145455" y="118.500000">848</text><line x1="675.472727" x2="675.472727" y1="103.500000" y2="108.500000" stroke="#AAAAAA" /><text style="font-size:10px;font-family:OpenSans;fill:#000000;" text-anchor="middle" x="675.472727" y="118.500000">886</text><line x1="694.854545" x2="694.854545" y1="103.500000" y2="108.500000" stroke="#AAAAAA" /><text style="font-size:10px;font-family:OpenSans;fill:#000000;" text-anchor="middle" x="694.854545" y="118.500000">912</text><line x1="778.345455" x2="778.345455" y1="103.500000" y2="108.500000" stroke="#AAAAAA" /><text style="font-size:10px;font-family:OpenSans;fill:#000000;" text-anchor="middle" x="778.345455" y="118.500000">1024</text></g>
<rect fill="#FF7DFF" x="4" y="132.500000" width="12" height="12" filter="url(#ds)"/><text style="font-size:12px;font-family:OpenSans;fill:#000000;" text-anchor="start" x="20" y="144.500000">Sushi repeat (SCR repeat)</text><rect fill="#EBD61D" x="4" y="146.500000" width="12" height="12" filter="url(#ds)"/><text style="font-size:12px;font-family:OpenSans;fill:#000000;" text-anchor="start" x="20" y="158.500000">CUB domain</text></svg>
