<?xml version='1.0'?>
<svg xmlns="http://www.w3.org/2000/svg" xmlns:xlink="http://www.w3.org/1999/xlink" width="2191.000000" height="223.300000">
<defs>
  <filter id="ds" x="0" y="0">
    <feOffset in="SourceAlpha" dx="2" dy="2" />
    <feComponentTransfer><feFuncA type="linear" slope="0.2"/></feComponentTransfer>
    <feGaussianBlur result="blurOut" stdDeviation="1" />
    <feBlend in="SourceGraphic" in2="blurOut" mode="normal" />
  </filter>
  <pattern id="disordered-hatch" patternUnits="userSpaceOnUse" width="4" height="4">
    <path d="M-1,1 l2,-2 M0,4 l4,-4 M3,5 l2,-2" stroke="#000000" opacity="0.3" />
  </pattern>
</defs>
<line x1="28.000000" x2="28.000000" y1="71.500000" y2="99.500000" stroke="#BABDB6" stroke-width="2"/><a xlink:title="G13G"><circle cx="28.000000" cy="71.500000" r="4.000000" fill="#0000ff" /></a><g transform="translate(28.000000,71.500000) rotate(-30)"><text style="font-size:10px;font-family:OpenSans;fill:#555;" text-anchor="middle" x="0" y="-6.000000">G13G</text></g><line x1="38.000000" x2="38.000000" y1="71.500000" y2="99.500000" stroke="#BABDB6" stroke-width="2"/><a xlink:title="P23P"><circle cx="38.000000" cy="71.500000" r="4.000000" fill="#0000ff" /></a><g transform="translate(38.000000,71.500000) rotate(-30)"><text style="font-size:10px;font-family:OpenSans;fill:#555;" text-anchor="middle" x="0" y="-6.000000">P23P</text></g><line x1="110.000000" x2="110.000000" y1="71.500000" y2="99.500000" stroke="#BABDB6" stroke-width="2"/><a xlink:title="S95S"><circle cx="110.000000" cy="71.500000" r="4.000000" fill="#0000ff" /></a><g transform="translate(110.000000,71.500000) rotate(-30)"><text style="font-size:10px;font-family:OpenSans;fill:#555;" text-anchor="middle" x="0" y="-6.000000">S95S</text></g><line x1="203.000000" x2="203.000000" y1="71.500000" y2="99.500000" stroke="#BABDB6" stroke-width="2"/><a xlink:title="E188E"><circle cx="203.000000" cy="71.500000" r="4.000000" fill="#0000ff" /></a><g transform="translate(203.000000,71.500000) rotate(-30)"><text style="font-size:10px;font-family:OpenSans;fill:#555;" text-anchor="middle" x="0" y="-6.000000">E188E</text></g><line x1="238.000000" x2="238.000000" y1="71.500000" y2="99.500000" stroke="#BABDB6" stroke-width="2"/><a xlink:title="T223T"><circle cx="238.000000" cy="71.500000" r="4.000000" fill="#0000ff" /></a><g transform="translate(238.000000,71.500000) rotate(-30)"><text style="font-size:10px;font-family:OpenSans;fill:#555;" text-anchor="middle" x="0" y="-6.000000">T223T</text></g><line x1="303.000000" x2="303.000000" y1="71.500000" y2="99.500000" stroke="#BABDB6" stroke-width="2"/><a xlink:title="D288E"><circle cx="303.000000" cy="71.500000" r="4.000000" fill="#ff0000" /></a><g transform="translate(303.000000,71.500000) rotate(-30)"><text style="font-size:10px;font-family:OpenSans;fill:#555;" text-anchor="middle" x="0" y="-6.000000">D288E</text></g><line x1="348.000000" x2="348.000000" y1="71.500000" y2="99.500000" stroke="#BABDB6" stroke-width="2"/><a xlink:title="L333L"><circle cx="348.000000" cy="71.500000" r="4.000000" fill="#0000ff" /></a><g transform="translate(348.000000,71.500000) rotate(-30)"><text style="font-size:10px;font-family:OpenSans;fill:#555;" text-anchor="middle" x="0" y="-6.000000">L333L</text></g><line x1="357.000000" x2="357.000000" y1="71.500000" y2="99.500000" stroke="#BABDB6" stroke-width="2"/><a xlink:title="G342G"><circle cx="357.000000" cy="71.500000" r="4.000000" fill="#0000ff" /></a><g transform="translate(357.000000,71.500000) rotate(-30)"><text style="font-size:10px;font-family:OpenSans;fill:#555;" text-anchor="middle" x="0" y="-6.000000">G342G</text></g><line x1="403.000000" x2="403.000000" y1="59.000000" y2="99.500000" stroke="#BABDB6" stroke-width="2"/><a xlink:title="H388P"><circle cx="403.000000" cy="59.000000" r="4.000000" fill="#ff0000" /></a><g transform="translate(403.000000,59.000000) rotate(-30)"><text style="font-size:10px;font-family:OpenSans;fill:#555;" text-anchor="middle" x="0" y="-6.000000">H388P</text></g><line x1="404.000000" x2="404.000000" y1="71.500000" y2="99.500000" stroke="#BABDB6" stroke-width="2"/><a xlink:title="H389P"><circle cx="404.000000" cy="71.500000" r="4.000000" fill="#ff0000" /></a><g transform="translate(404.000000,71.500000) rotate(-30)"><text style="font-size:10px;font-family:OpenSans;fill:#555;" text-anchor="middle" x="0" y="-6.000000">H389P</text></g><line x1="415.000000" x2="415.000000" y1="71.500000" y2="99.500000" stroke="#BABDB6" stroke-width="2"/><a xlink:title="P400P"><circle cx="415.000000" cy="71.500000" r="4.000000" fill="#0000ff" /></a><g transform="translate(415.000000,71.500000) rotate(-30)"><text style="font-size:10px;font-family:OpenSans;fill:#555;" text-anchor="middle" x="0" y="-6.000000">P400P</text></g><line x1="456.000000" x2="456.000000" y1="71.500000" y2="99.500000" stroke="#BABDB6" stroke-width="2"/><a xlink:title="T441N"><circle cx="456.000000" cy="71.500000" r="4.000000" fill="#ff0000" /></a><g transform="translate(456.000000,71.500000) rotate(-30)"><text style="font-size:10px;font-family:OpenSans;fill:#555;" text-anchor="middle" x="0" y="-6.000000">T441N</text></g><line x1="526.000000" x2="526.000000" y1="71.500000" y2="99.500000" stroke="#BABDB6" stroke-width="2"/><a xlink:title="P511P"><circle cx="526.000000" cy="71.500000" r="4.000000" fill="#0000ff" /></a><g transform="translate(526.000000,71.500000) rotate(-30)"><text style="font-size:10px;font-family:OpenSans;fill:#555;" text-anchor="middle" x="0" y="-6.000000">P511P</text></g><line x1="589.000000" x2="589.000000" y1="59.000000" y2="99.500000" stroke="#BABDB6" stroke-width="2"/><a xlink:title="T574P"><circle cx="589.000000" cy="59.000000" r="4.000000" fill="#ff0000" /></a><g transform="translate(589.000000,59.000000) rotate(-30)"><text style="font-size:10px;font-family:OpenSans;fill:#555;" text-anchor="middle" x="0" y="-6.000000">T574P</text></g><line x1="590.000000" x2="590.000000" y1="71.500000" y2="99.500000" stroke="#BABDB6" stroke-width="2"/><a xlink:title="Q575P"><circle cx="590.000000" cy="71.500000" r="4.000000" fill="#ff0000" /></a><g transform="translate(590.000000,71.500000) rotate(-30)"><text style="font-size:10px;font-family:OpenSans;fill:#555;" text-anchor="middle" x="0" y="-6.000000">Q575P</text></g><line x1="640.000000" x2="640.000000" y1="71.500000" y2="99.500000" stroke="#BABDB6" stroke-width="2"/><a xlink:title="A625G"><circle cx="640.000000" cy="71.500000" r="4.000000" fill="#ff0000" /></a><g transform="translate(640.000000,71.500000) rotate(-30)"><text style="font-size:10px;font-family:OpenSans;fill:#555;" text-anchor="middle" x="0" y="-6.000000">A625G</text></g><line x1="710.000000" x2="710.000000" y1="71.500000" y2="99.500000" stroke="#BABDB6" stroke-width="2"/><a xlink:title="S695S"><circle cx="710.000000" cy="71.500000" r="4.000000" fill="#0000ff" /></a><g transform="translate(710.000000,71.500000) rotate(-30)"><text style="font-size:10px;font-family:OpenSans;fill:#555;" text-anchor="middle" x="0" y="-6.000000">S695S</text></g><line x1="719.000000" x2="719.000000" y1="71.500000" y2="99.500000" stroke="#BABDB6" stroke-width="2"/><a xlink:title="S704S"><circle cx="719.000000" cy="71.500000" r="4.000000" fill="#0000ff" /></a><g transform="translate(719.000000,71.500000) rotate(-30)"><text style="font-size:10px;font-family:OpenSans;fill:#555;" text-anchor="middle" x="0" y="-6.000000">S704S</text></g><line x1="729.000000" x2="729.000000" y1="71.500000" y2="99.500000" stroke="#BABDB6" stroke-width="2"/><a xlink:title="G714G"><circle cx="729.000000" cy="71.500000" r="4.000000" fill="#0000ff" /></a><g transform="translate(729.000000,71.500000) rotate(-30)"><text style="font-size:10px;font-family:OpenSans;fill:#555;" text-anchor="middle" x="0" y="-6.000000">G714G</text></g><line x1="749.000000" x2="749.000000" y1="71.500000" y2="99.500000" stroke="#BABDB6" stroke-width="2"/><a xlink:title="T734T"><circle cx="749.000000" cy="71.500000" r="4.000000" fill="#0000ff" /></a><g transform="translate(749.000000,71.500000) rotate(-30)"><text style="font-size:10px;font-family:OpenSans;fill:#555;" text-anchor="middle" x="0" y="-6.000000">T734T</text></g><line x1="776.000000" x2="776.000000" y1="59.000000" y2="99.500000" stroke="#BABDB6" stroke-width="2"/><a xlink:title="G761G"><circle cx="776.000000" cy="59.000000" r="4.000000" fill="#0000ff" /></a><g transform="translate(776.000000,59.000000) rotate(-30)"><text style="font-size:10px;font-family:OpenSans;fill:#555;" text-anchor="middle" x="0" y="-6.000000">G761G</text></g><line x1="777.000000" x2="777.000000" y1="71.500000" y2="99.500000" stroke="#BABDB6" stroke-width="2"/><a xlink:title="G762G"><circle cx="777.000000" cy="71.500000" r="4.000000" fill="#0000ff" /></a><g transform="translate(777.000000,71.500000) rotate(-30)"><text style="font-size:10px;font-family:OpenSans;fill:#555;" text-anchor="middle" x="0" y="-6.000000">G762G</text></g><line x1="794.000000" x2="794.000000" y1="59.000000" y2="99.500000" stroke="#BABDB6" stroke-width="2"/><a xlink:title="P779P"><circle cx="794.000000" cy="59.000000" r="4.000000" fill="#0000ff" /></a><g transform="translate(794.000000,59.000000) rotate(-30)"><text style="font-size:10px;font-family:OpenSans;fill:#555;" text-anchor="middle" x="0" y="-6.000000">P779P</text></g><line x1="795.000000" x2="795.000000" y1="71.500000" y2="99.500000" stroke="#BABDB6" stroke-width="2"/><a xlink:title="P780P"><circle cx="795.000000" cy="71.500000" r="4.000000" fill="#0000ff" /></a><g transform="translate(795.000000,71.500000) rotate(-30)"><text style="font-size:10px;font-family:OpenSans;fill:#555;" text-anchor="middle" x="0" y="-6.000000">P780P</text></g><line x1="803.000000" x2="803.000000" y1="71.500000" y2="99.500000" stroke="#BABDB6" stroke-width="2"/><a xlink:title="E788E"><circle cx="803.000000" cy="71.500000" r="4.000000" fill="#0000ff" /></a><g transform="translate(803.000000,71.500000) rotate(-30)"><text style="font-size:10px;font-family:OpenSans;fill:#555;" text-anchor="middle" x="0" y="-6.000000">E788E</text></g><line x1="812.000000" x2="812.000000" y1="71.500000" y2="99.500000" stroke="#BABDB6" stroke-width="2"/><a xlink:title="E797E"><circle cx="812.000000" cy="71.500000" r="4.000000" fill="#0000ff" /></a><g transform="translate(812.000000,71.500000) rotate(-30)"><text style="font-size:10px;font-family:OpenSans;fill:#555;" text-anchor="middle" x="0" y="-6.000000">E797E</text></g><line x1="820.000000" x2="820.000000" y1="71.500000" y2="99.500000" stroke="#BABDB6" stroke-width="2"/><a xlink:title="E805E"><circle cx="820.000000" cy="71.500000" r="4.000000" fill="#0000ff" /></a><g transform="translate(820.000000,71.500000) rotate(-30)"><text style="font-size:10px;font-family:OpenSans;fill:#555;" text-anchor="middle" x="0" y="-6.000000">E805E</text></g><line x1="866.000000" x2="866.000000" y1="71.500000" y2="99.500000" stroke="#BABDB6" stroke-width="2"/><a xlink:title="L851L"><circle cx="866.000000" cy="71.500000" r="4.000000" fill="#0000ff" /></a><g transform="translate(866.000000,71.500000) rotate(-30)"><text style="font-size:10px;font-family:OpenSans;fill:#555;" text-anchor="middle" x="0" y="-6.000000">L851L</text></g><line x1="888.000000" x2="888.000000" y1="71.500000" y2="99.500000" stroke="#BABDB6" stroke-width="2"/><a xlink:title="P873P"><circle cx="888.000000" cy="71.500000" r="4.000000" fill="#0000ff" /></a><g transform="translate(888.000000,71.500000) rotate(-30)"><text style="font-size:10px;font-family:OpenSans;fill:#555;" text-anchor="middle" x="0" y="-6.000000">P873P</text></g><line x1="903.000000" x2="903.000000" y1="71.500000" y2="99.500000" stroke="#BABDB6" stroke-width="2"/><a xlink:title="D888E"><circle cx="903.000000" cy="71.500000" r="4.000000" fill="#ff0000" /></a><g transform="translate(903.000000,71.500000) rotate(-30)"><text style="font-size:10px;font-family:OpenSans;fill:#555;" text-anchor="middle" x="0" y="-6.000000">D888E</text></g><line x1="910.000000" x2="910.000000" y1="59.000000" y2="99.500000" stroke="#BABDB6" stroke-width="2"/><a xlink:title="V895A"><circle cx="910.000000" cy="59.000000" r="4.000000" fill="#ff0000" /></a><g transform="translate(910.000000,59.000000) rotate(-30)"><text style="font-size:10px;font-family:OpenSans;fill:#555;" text-anchor="middle" x="0" y="-6.000000">V895A</text></g><line x1="912.000000" x2="912.000000" y1="71.500000" y2="99.500000" stroke="#BABDB6" stroke-width="2"/><a xlink:title="D897E"><circle cx="912.000000" cy="71.500000" r="4.000000" fill="#ff0000" /></a><g transform="translate(912.000000,71.500000) rotate(-30)"><text style="font-size:10px;font-family:OpenSans;fill:#555;" text-anchor="middle" x="0" y="-6.000000">D897E</text></g><line x1="920.000000" x2="920.000000" y1="71.500000" y2="99.500000" stroke="#BABDB6" stroke-width="2"/><a xlink:title="D905E"><circle cx="920.000000" cy="71.500000" r="4.000000" fill="#ff0000" /></a><g transform="translate(920.000000,71.500000) rotate(-30)"><text style="font-size:10px;font-family:OpenSans;fill:#555;" text-anchor="middle" x="0" y="-6.000000">D905E</text></g><line x1="957.000000" x2="957.000000" y1="71.500000" y2="99.500000" stroke="#BABDB6" stroke-width="2"/><a xlink:title="G942G"><circle cx="957.000000" cy="71.500000" r="4.000000" fill="#0000ff" /></a><g transform="translate(957.000000,71.500000) rotate(-30)"><text style="font-size:10px;font-family:OpenSans;fill:#555;" text-anchor="middle" x="0" y="-6.000000">G942G</text></g><line x1="966.000000" x2="966.000000" y1="71.500000" y2="99.500000" stroke="#BABDB6" stroke-width="2"/><a xlink:title="G951G"><circle cx="966.000000" cy="71.500000" r="4.000000" fill="#0000ff" /></a><g transform="translate(966.000000,71.500000) rotate(-30)"><text style="font-size:10px;font-family:OpenSans;fill:#555;" text-anchor="middle" x="0" y="-6.000000">G951G</text></g><line x1="974.000000" x2="974.000000" y1="71.500000" y2="99.500000" stroke="#BABDB6" stroke-width="2"/><a xlink:title="G959G"><circle cx="974.000000" cy="71.500000" r="4.000000" fill="#0000ff" /></a><g transform="translate(974.000000,71.500000) rotate(-30)"><text style="font-size:10px;font-family:OpenSans;fill:#555;" text-anchor="middle" x="0" y="-6.000000">G959G</text></g><line x1="1003.000000" x2="1003.000000" y1="59.000000" y2="99.500000" stroke="#BABDB6" stroke-width="2"/><a xlink:title="H988P"><circle cx="1003.000000" cy="59.000000" r="4.000000" fill="#ff0000" /></a><g transform="translate(1003.000000,59.000000) rotate(-30)"><text style="font-size:10px;font-family:OpenSans;fill:#555;" text-anchor="middle" x="0" y="-6.000000">H988P</text></g><line x1="1004.000000" x2="1004.000000" y1="71.500000" y2="99.500000" stroke="#BABDB6" stroke-width="2"/><a xlink:title="H989P"><circle cx="1004.000000" cy="71.500000" r="4.000000" fill="#ff0000" /></a><g transform="translate(1004.000000,71.500000) rotate(-30)"><text style="font-size:10px;font-family:OpenSans;fill:#555;" text-anchor="middle" x="0" y="-6.000000">H989P</text></g><line x1="1012.000000" x2="1012.000000" y1="46.500000" y2="99.500000" stroke="#BABDB6" stroke-width="2"/><a xlink:title="H997P"><circle cx="1012.000000" cy="46.500000" r="4.000000" fill="#ff0000" /></a><g transform="translate(1012.000000,46.500000) rotate(-30)"><text style="font-size:10px;font-family:OpenSans;fill:#555;" text-anchor="middle" x="0" y="-6.000000">H997P</text></g><line x1="1013.000000" x2="1013.000000" y1="59.000000" y2="99.500000" stroke="#BABDB6" stroke-width="2"/><a xlink:title="H998P"><circle cx="1013.000000" cy="59.000000" r="4.000000" fill="#ff0000" /></a><g transform="translate(1013.000000,59.000000) rotate(-30)"><text style="font-size:10px;font-family:OpenSans;fill:#555;" text-anchor="middle" x="0" y="-6.000000">H998P</text></g><line x1="1015.000000" x2="1015.000000" y1="46.500000" y2="99.500000" stroke="#BABDB6" stroke-width="2"/><a xlink:title="P1000P"><circle cx="1015.000000" cy="46.500000" r="4.000000" fill="#0000ff" /></a><g transform="translate(1015.000000,46.500000) rotate(-30)"><text style="font-size:10px;font-family:OpenSans;fill:#555;" text-anchor="middle" x="0" y="-6.000000">P1000P</text></g><line x1="1020.000000" x2="1020.000000" y1="46.500000" y2="99.500000" stroke="#BABDB6" stroke-width="2"/><a xlink:title="H1005P"><circle cx="1020.000000" cy="46.500000" r="4.000000" fill="#ff0000" /></a><g transform="translate(1020.000000,46.500000) rotate(-30)"><text style="font-size:10px;font-family:OpenSans;fill:#555;" text-anchor="middle" x="0" y="-6.000000">H1005P</text></g><line x1="1021.000000" x2="1021.000000" y1="59.000000" y2="99.500000" stroke="#BABDB6" stroke-width="2"/><a xlink:title="H1006P"><circle cx="1021.000000" cy="59.000000" r="4.000000" fill="#ff0000" /></a><g transform="translate(1021.000000,59.000000) rotate(-30)"><text style="font-size:10px;font-family:OpenSans;fill:#555;" text-anchor="middle" x="0" y="-6.000000">H1006P</text></g><line x1="1024.000000" x2="1024.000000" y1="71.500000" y2="99.500000" stroke="#BABDB6" stroke-width="2"/><a xlink:title="P1009P"><circle cx="1024.000000" cy="71.500000" r="4.000000" fill="#0000ff" /></a><g transform="translate(1024.000000,71.500000) rotate(-30)"><text style="font-size:10px;font-family:OpenSans;fill:#555;" text-anchor="middle" x="0" y="-6.000000">P1009P</text></g><line x1="1032.000000" x2="1032.000000" y1="71.500000" y2="99.500000" stroke="#BABDB6" stroke-width="2"/><a xlink:title="P1017P"><circle cx="1032.000000" cy="71.500000" r="4.000000" fill="#0000ff" /></a><g transform="translate(1032.000000,71.500000) rotate(-30)"><text style="font-size:10px;font-family:OpenSans;fill:#555;" text-anchor="middle" x="0" y="-6.000000">P1017P</text></g><line x1="1126.000000" x2="1126.000000" y1="71.500000" y2="99.500000" stroke="#BABDB6" stroke-width="2"/><a xlink:title="P1111P"><circle cx="1126.000000" cy="71.500000" r="4.000000" fill="#0000ff" /></a><g transform="translate(1126.000000,71.500000) rotate(-30)"><text style="font-size:10px;font-family:OpenSans;fill:#555;" text-anchor="middle" x="0" y="-6.000000">P1111P</text></g><line x1="1135.000000" x2="1135.000000" y1="71.500000" y2="99.500000" stroke="#BABDB6" stroke-width="2"/><a xlink:title="P1120P"><circle cx="1135.000000" cy="71.500000" r="4.000000" fill="#0000ff" /></a><g transform="translate(1135.000000,71.500000) rotate(-30)"><text style="font-size:10px;font-family:OpenSans;fill:#555;" text-anchor="middle" x="0" y="-6.000000">P1120P</text></g><line x1="1143.000000" x2="1143.000000" y1="71.500000" y2="99.500000" stroke="#BABDB6" stroke-width="2"/><a xlink:title="P1128P"><circle cx="1143.000000" cy="71.500000" r="4.000000" fill="#0000ff" /></a><g transform="translate(1143.000000,71.500000) rotate(-30)"><text style="font-size:10px;font-family:OpenSans;fill:#555;" text-anchor="middle" x="0" y="-6.000000">P1128P</text></g><line x1="1189.000000" x2="1189.000000" y1="59.000000" y2="99.500000" stroke="#BABDB6" stroke-width="2"/><a xlink:title="T1174P"><circle cx="1189.000000" cy="59.000000" r="4.000000" fill="#ff0000" /></a><g transform="translate(1189.000000,59.000000) rotate(-30)"><text style="font-size:10px;font-family:OpenSans;fill:#555;" text-anchor="middle" x="0" y="-6.000000">T1174P</text></g><line x1="1190.000000" x2="1190.000000" y1="71.500000" y2="99.500000" stroke="#BABDB6" stroke-width="2"/><a xlink:title="Q1175P"><circle cx="1190.000000" cy="71.500000" r="4.000000" fill="#ff0000" /></a><g transform="translate(1190.000000,71.500000) rotate(-30)"><text style="font-size:10px;font-family:OpenSans;fill:#555;" text-anchor="middle" x="0" y="-6.000000">Q1175P</text></g><line x1="1198.000000" x2="1198.000000" y1="59.000000" y2="99.500000" stroke="#BABDB6" stroke-width="2"/><a xlink:title="T1183P"><circle cx="1198.000000" cy="59.000000" r="4.000000" fill="#ff0000" /></a><g transform="translate(1198.000000,59.000000) rotate(-30)"><text style="font-size:10px;font-family:OpenSans;fill:#555;" text-anchor="middle" x="0" y="-6.000000">T1183P</text></g><line x1="1199.000000" x2="1199.000000" y1="71.500000" y2="99.500000" stroke="#BABDB6" stroke-width="2"/><a xlink:title="Q1184P"><circle cx="1199.000000" cy="71.500000" r="4.000000" fill="#ff0000" /></a><g transform="translate(1199.000000,71.500000) rotate(-30)"><text style="font-size:10px;font-family:OpenSans;fill:#555;" text-anchor="middle" x="0" y="-6.000000">Q1184P</text></g><line x1="1206.000000" x2="1206.000000" y1="59.000000" y2="99.500000" stroke="#BABDB6" stroke-width="2"/><a xlink:title="T1191P"><circle cx="1206.000000" cy="59.000000" r="4.000000" fill="#ff0000" /></a><g transform="translate(1206.000000,59.000000) rotate(-30)"><text style="font-size:10px;font-family:OpenSans;fill:#555;" text-anchor="middle" x="0" y="-6.000000">T1191P</text></g><line x1="1207.000000" x2="1207.000000" y1="71.500000" y2="99.500000" stroke="#BABDB6" stroke-width="2"/><a xlink:title="Q1192P"><circle cx="1207.000000" cy="71.500000" r="4.000000" fill="#ff0000" /></a><g transform="translate(1207.000000,71.500000) rotate(-30)"><text style="font-size:10px;font-family:OpenSans;fill:#555;" text-anchor="middle" x="0" y="-6.000000">Q1192P</text></g><line x1="1240.000000" x2="1240.000000" y1="71.500000" y2="99.500000" stroke="#BABDB6" stroke-width="2"/><a xlink:title="A1225G"><circle cx="1240.000000" cy="71.500000" r="4.000000" fill="#ff0000" /></a><g transform="translate(1240.000000,71.500000) rotate(-30)"><text style="font-size:10px;font-family:OpenSans;fill:#555;" text-anchor="middle" x="0" y="-6.000000">A1225G</text></g><line x1="1249.000000" x2="1249.000000" y1="71.500000" y2="99.500000" stroke="#BABDB6" stroke-width="2"/><a xlink:title="A1234G"><circle cx="1249.000000" cy="71.500000" r="4.000000" fill="#ff0000" /></a><g transform="translate(1249.000000,71.500000) rotate(-30)"><text style="font-size:10px;font-family:OpenSans;fill:#555;" text-anchor="middle" x="0" y="-6.000000">A1234G</text></g><line x1="1257.000000" x2="1257.000000" y1="71.500000" y2="99.500000" stroke="#BABDB6" stroke-width="2"/><a xlink:title="A1242G"><circle cx="1257.000000" cy="71.500000" r="4.000000" fill="#ff0000" /></a><g transform="translate(1257.000000,71.500000) rotate(-30)"><text style="font-size:10px;font-family:OpenSans;fill:#555;" text-anchor="middle" x="0" y="-6.000000">A1242G</text></g><line x1="1308.000000" x2="1308.000000" y1="71.500000" y2="99.500000" stroke="#BABDB6" stroke-width="2"/><a xlink:title="G1293R"><circle cx="1308.000000" cy="71.500000" r="4.000000" fill="#ff0000" /></a><g transform="translate(1308.000000,71.500000) rotate(-30)"><text style="font-size:10px;font-family:OpenSans;fill:#555;" text-anchor="middle" x="0" y="-6.000000">G1293R</text></g><line x1="1329.000000" x2="1329.000000" y1="71.500000" y2="99.500000" stroke="#BABDB6" stroke-width="2"/><a xlink:title="G1314G"><circle cx="1329.000000" cy="71.500000" r="4.000000" fill="#0000ff" /></a><g transform="translate(1329.000000,71.500000) rotate(-30)"><text style="font-size:10px;font-family:OpenSans;fill:#555;" text-anchor="middle" x="0" y="-6.000000">G1314G</text></g><line x1="1338.000000" x2="1338.000000" y1="71.500000" y2="99.500000" stroke="#BABDB6" stroke-width="2"/><a xlink:title="G1323G"><circle cx="1338.000000" cy="71.500000" r="4.000000" fill="#0000ff" /></a><g transform="translate(1338.000000,71.500000) rotate(-30)"><text style="font-size:10px;font-family:OpenSans;fill:#555;" text-anchor="middle" x="0" y="-6.000000">G1323G</text></g><line x1="1346.000000" x2="1346.000000" y1="59.000000" y2="99.500000" stroke="#BABDB6" stroke-width="2"/><a xlink:title="G1331G"><circle cx="1346.000000" cy="59.000000" r="4.000000" fill="#0000ff" /></a><g transform="translate(1346.000000,59.000000) rotate(-30)"><text style="font-size:10px;font-family:OpenSans;fill:#555;" text-anchor="middle" x="0" y="-6.000000">G1331G</text></g><line x1="1349.000000" x2="1349.000000" y1="71.500000" y2="99.500000" stroke="#BABDB6" stroke-width="2"/><a xlink:title="T1334T"><circle cx="1349.000000" cy="71.500000" r="4.000000" fill="#0000ff" /></a><g transform="translate(1349.000000,71.500000) rotate(-30)"><text style="font-size:10px;font-family:OpenSans;fill:#555;" text-anchor="middle" x="0" y="-6.000000">T1334T</text></g><line x1="1358.000000" x2="1358.000000" y1="71.500000" y2="99.500000" stroke="#BABDB6" stroke-width="2"/><a xlink:title="T1343T"><circle cx="1358.000000" cy="71.500000" r="4.000000" fill="#0000ff" /></a><g transform="translate(1358.000000,71.500000) rotate(-30)"><text style="font-size:10px;font-family:OpenSans;fill:#555;" text-anchor="middle" x="0" y="-6.000000">T1343T</text></g><line x1="1366.000000" x2="1366.000000" y1="71.500000" y2="99.500000" stroke="#BABDB6" stroke-width="2"/><a xlink:title="T1351T"><circle cx="1366.000000" cy="71.500000" r="4.000000" fill="#0000ff" /></a><g transform="translate(1366.000000,71.500000) rotate(-30)"><text style="font-size:10px;font-family:OpenSans;fill:#555;" text-anchor="middle" x="0" y="-6.000000">T1351T</text></g><line x1="1376.000000" x2="1376.000000" y1="59.000000" y2="99.500000" stroke="#BABDB6" stroke-width="2"/><a xlink:title="G1361G"><circle cx="1376.000000" cy="59.000000" r="4.000000" fill="#0000ff" /></a><g transform="translate(1376.000000,59.000000) rotate(-30)"><text style="font-size:10px;font-family:OpenSans;fill:#555;" text-anchor="middle" x="0" y="-6.000000">G1361G</text></g><line x1="1377.000000" x2="1377.000000" y1="71.500000" y2="99.500000" stroke="#BABDB6" stroke-width="2"/><a xlink:title="G1362G"><circle cx="1377.000000" cy="71.500000" r="4.000000" fill="#0000ff" /></a><g transform="translate(1377.000000,71.500000) rotate(-30)"><text style="font-size:10px;font-family:OpenSans;fill:#555;" text-anchor="middle" x="0" y="-6.000000">G1362G</text></g><line x1="1385.000000" x2="1385.000000" y1="59.000000" y2="99.500000" stroke="#BABDB6" stroke-width="2"/><a xlink:title="G1370G"><circle cx="1385.000000" cy="59.000000" r="4.000000" fill="#0000ff" /></a><g transform="translate(1385.000000,59.000000) rotate(-30)"><text style="font-size:10px;font-family:OpenSans;fill:#555;" text-anchor="middle" x="0" y="-6.000000">G1370G</text></g><line x1="1386.000000" x2="1386.000000" y1="71.500000" y2="99.500000" stroke="#BABDB6" stroke-width="2"/><a xlink:title="G1371G"><circle cx="1386.000000" cy="71.500000" r="4.000000" fill="#0000ff" /></a><g transform="translate(1386.000000,71.500000) rotate(-30)"><text style="font-size:10px;font-family:OpenSans;fill:#555;" text-anchor="middle" x="0" y="-6.000000">G1371G</text></g><line x1="1393.000000" x2="1393.000000" y1="34.000000" y2="99.500000" stroke="#BABDB6" stroke-width="2"/><a xlink:title="G1378G"><circle cx="1393.000000" cy="34.000000" r="4.000000" fill="#0000ff" /></a><g transform="translate(1393.000000,34.000000) rotate(-30)"><text style="font-size:10px;font-family:OpenSans;fill:#555;" text-anchor="middle" x="0" y="-6.000000">G1378G</text></g><line x1="1394.000000" x2="1394.000000" y1="46.500000" y2="99.500000" stroke="#BABDB6" stroke-width="2"/><a xlink:title="P1379P"><circle cx="1394.000000" cy="46.500000" r="4.000000" fill="#0000ff" /></a><g transform="translate(1394.000000,46.500000) rotate(-30)"><text style="font-size:10px;font-family:OpenSans;fill:#555;" text-anchor="middle" x="0" y="-6.000000">P1379P</text></g><line x1="1394.000000" x2="1394.000000" y1="59.000000" y2="99.500000" stroke="#BABDB6" stroke-width="2"/><a xlink:title="G1379G"><circle cx="1394.000000" cy="59.000000" r="4.000000" fill="#0000ff" /></a><g transform="translate(1394.000000,59.000000) rotate(-30)"><text style="font-size:10px;font-family:OpenSans;fill:#555;" text-anchor="middle" x="0" y="-6.000000">G1379G</text></g><line x1="1395.000000" x2="1395.000000" y1="71.500000" y2="99.500000" stroke="#BABDB6" stroke-width="2"/><a xlink:title="P1380P"><circle cx="1395.000000" cy="71.500000" r="4.000000" fill="#0000ff" /></a><g transform="translate(1395.000000,71.500000) rotate(-30)"><text style="font-size:10px;font-family:OpenSans;fill:#555;" text-anchor="middle" x="0" y="-6.000000">P1380P</text></g><line x1="1403.000000" x2="1403.000000" y1="59.000000" y2="99.500000" stroke="#BABDB6" stroke-width="2"/><a xlink:title="P1388P"><circle cx="1403.000000" cy="59.000000" r="4.000000" fill="#0000ff" /></a><g transform="translate(1403.000000,59.000000) rotate(-30)"><text style="font-size:10px;font-family:OpenSans;fill:#555;" text-anchor="middle" x="0" y="-6.000000">P1388P</text></g><line x1="1404.000000" x2="1404.000000" y1="71.500000" y2="99.500000" stroke="#BABDB6" stroke-width="2"/><a xlink:title="P1389P"><circle cx="1404.000000" cy="71.500000" r="4.000000" fill="#0000ff" /></a><g transform="translate(1404.000000,71.500000) rotate(-30)"><text style="font-size:10px;font-family:OpenSans;fill:#555;" text-anchor="middle" x="0" y="-6.000000">P1389P</text></g><line x1="1411.000000" x2="1411.000000" y1="59.000000" y2="99.500000" stroke="#BABDB6" stroke-width="2"/><a xlink:title="P1396P"><circle cx="1411.000000" cy="59.000000" r="4.000000" fill="#0000ff" /></a><g transform="translate(1411.000000,59.000000) rotate(-30)"><text style="font-size:10px;font-family:OpenSans;fill:#555;" text-anchor="middle" x="0" y="-6.000000">P1396P</text></g><line x1="1412.000000" x2="1412.000000" y1="71.500000" y2="99.500000" stroke="#BABDB6" stroke-width="2"/><a xlink:title="P1397P"><circle cx="1412.000000" cy="71.500000" r="4.000000" fill="#0000ff" /></a><g transform="translate(1412.000000,71.500000) rotate(-30)"><text style="font-size:10px;font-family:OpenSans;fill:#555;" text-anchor="middle" x="0" y="-6.000000">P1397P</text></g><line x1="1466.000000" x2="1466.000000" y1="71.500000" y2="99.500000" stroke="#BABDB6" stroke-width="2"/><a xlink:title="L1451L"><circle cx="1466.000000" cy="71.500000" r="4.000000" fill="#0000ff" /></a><g transform="translate(1466.000000,71.500000) rotate(-30)"><text style="font-size:10px;font-family:OpenSans;fill:#555;" text-anchor="middle" x="0" y="-6.000000">L1451L</text></g><line x1="1475.000000" x2="1475.000000" y1="71.500000" y2="99.500000" stroke="#BABDB6" stroke-width="2"/><a xlink:title="L1460L"><circle cx="1475.000000" cy="71.500000" r="4.000000" fill="#0000ff" /></a><g transform="translate(1475.000000,71.500000) rotate(-30)"><text style="font-size:10px;font-family:OpenSans;fill:#555;" text-anchor="middle" x="0" y="-6.000000">L1460L</text></g><line x1="1483.000000" x2="1483.000000" y1="59.000000" y2="99.500000" stroke="#BABDB6" stroke-width="2"/><a xlink:title="L1468L"><circle cx="1483.000000" cy="59.000000" r="4.000000" fill="#0000ff" /></a><g transform="translate(1483.000000,59.000000) rotate(-30)"><text style="font-size:10px;font-family:OpenSans;fill:#555;" text-anchor="middle" x="0" y="-6.000000">L1468L</text></g><line x1="1488.000000" x2="1488.000000" y1="71.500000" y2="99.500000" stroke="#BABDB6" stroke-width="2"/><a xlink:title="P1473P"><circle cx="1488.000000" cy="71.500000" r="4.000000" fill="#0000ff" /></a><g transform="translate(1488.000000,71.500000) rotate(-30)"><text style="font-size:10px;font-family:OpenSans;fill:#555;" text-anchor="middle" x="0" y="-6.000000">P1473P</text></g><line x1="1497.000000" x2="1497.000000" y1="71.500000" y2="99.500000" stroke="#BABDB6" stroke-width="2"/><a xlink:title="P1482P"><circle cx="1497.000000" cy="71.500000" r="4.000000" fill="#0000ff" /></a><g transform="translate(1497.000000,71.500000) rotate(-30)"><text style="font-size:10px;font-family:OpenSans;fill:#555;" text-anchor="middle" x="0" y="-6.000000">P1482P</text></g><line x1="1505.000000" x2="1505.000000" y1="59.000000" y2="99.500000" stroke="#BABDB6" stroke-width="2"/><a xlink:title="P1490P"><circle cx="1505.000000" cy="59.000000" r="4.000000" fill="#0000ff" /></a><g transform="translate(1505.000000,59.000000) rotate(-30)"><text style="font-size:10px;font-family:OpenSans;fill:#555;" text-anchor="middle" x="0" y="-6.000000">P1490P</text></g><line x1="1510.000000" x2="1510.000000" y1="71.500000" y2="99.500000" stroke="#BABDB6" stroke-width="2"/><a xlink:title="V1495A"><circle cx="1510.000000" cy="71.500000" r="4.000000" fill="#ff0000" /></a><g transform="translate(1510.000000,71.500000) rotate(-30)"><text style="font-size:10px;font-family:OpenSans;fill:#555;" text-anchor="middle" x="0" y="-6.000000">V1495A</text></g><line x1="1519.000000" x2="1519.000000" y1="71.500000" y2="99.500000" stroke="#BABDB6" stroke-width="2"/><a xlink:title="V1504A"><circle cx="1519.000000" cy="71.500000" r="4.000000" fill="#ff0000" /></a><g transform="translate(1519.000000,71.500000) rotate(-30)"><text style="font-size:10px;font-family:OpenSans;fill:#555;" text-anchor="middle" x="0" y="-6.000000">V1504A</text></g><line x1="1527.000000" x2="1527.000000" y1="71.500000" y2="99.500000" stroke="#BABDB6" stroke-width="2"/><a xlink:title="V1512A"><circle cx="1527.000000" cy="71.500000" r="4.000000" fill="#ff0000" /></a><g transform="translate(1527.000000,71.500000) rotate(-30)"><text style="font-size:10px;font-family:OpenSans;fill:#555;" text-anchor="middle" x="0" y="-6.000000">V1512A</text></g><line x1="1908.000000" x2="1908.000000" y1="71.500000" y2="99.500000" stroke="#BABDB6" stroke-width="2"/><a xlink:title="G1893R"><circle cx="1908.000000" cy="71.500000" r="4.000000" fill="#ff0000" /></a><g transform="translate(1908.000000,71.500000) rotate(-30)"><text style="font-size:10px;font-family:OpenSans;fill:#555;" text-anchor="middle" x="0" y="-6.000000">G1893R</text></g><line x1="1917.000000" x2="1917.000000" y1="71.500000" y2="99.500000" stroke="#BABDB6" stroke-width="2"/><a xlink:title="G1902R"><circle cx="1917.000000" cy="71.500000" r="4.000000" fill="#ff0000" /></a><g transform="translate(1917.000000,71.500000) rotate(-30)"><text style="font-size:10px;font-family:OpenSans;fill:#555;" text-anchor="middle" x="0" y="-6.000000">G1902R</text></g><line x1="1925.000000" x2="1925.000000" y1="71.500000" y2="99.500000" stroke="#BABDB6" stroke-width="2"/><a xlink:title="G1910R"><circle cx="1925.000000" cy="71.500000" r="4.000000" fill="#ff0000" /></a><g transform="translate(1925.000000,71.500000) rotate(-30)"><text style="font-size:10px;font-family:OpenSans;fill:#555;" text-anchor="middle" x="0" y="-6.000000">G1910R</text></g><a xlink:title=",  (2161aa)"><rect fill="#BABDB6" x="15.000000" y="99.500000" width="2161.000000" height="14.000000"/></a><g transform="translate(203.000000,94.500000)"><a xlink:href="https://www.ebi.ac.uk/interpro/entry/pfam/PF12796" xlink:title="Ankyrin repeats (3 copies)"><rect fill="#2DCF00" x="0" y="0" width="89.000000" height="24.000000" filter="url(#ds)"/><text style="font-size:12px;font-family:OpenSans;fill:#ffffff;" text-anchor="middle" x="44.500000" y="16.000000">Ank_2</text></a></g>
<g transform="translate(333.000000,94.500000)"><a xlink:href="https://www.ebi.ac.uk/interpro/entry/pfam/PF12796" xlink:title="Ankyrin repeats (3 copies)"><rect fill="#FF5353" x="0" y="0" width="83.000000" height="24.000000" filter="url(#ds)"/><text style="font-size:12px;font-family:OpenSans;fill:#ffffff;" text-anchor="middle" x="41.500000" y="16.000000">Ank_2</text></a></g>
<g transform="translate(576.000000,94.500000)"><a xlink:href="https://www.ebi.ac.uk/interpro/entry/pfam/PF07653" xlink:title="Variant SH3 domain"><rect fill="#5B5BFF" x="0" y="0" width="50.000000" height="24.000000" filter="url(#ds)"/><text style="font-size:12px;font-family:OpenSans;fill:#ffffff;" text-anchor="middle" x="25.000000" y="16.000000">SH3_2</text></a></g>
<g transform="translate(718.000000,94.500000)"><a xlink:href="https://www.ebi.ac.uk/interpro/entry/pfam/PF17820" xlink:title="PDZ domain"><rect fill="#EBD61D" x="0" y="0" width="45.000000" height="24.000000" filter="url(#ds)"/><text style="font-size:12px;font-family:OpenSans;fill:#ffffff;" text-anchor="middle" x="22.500000" y="16.000000">PDZ_6</text></a></g>
<g transform="translate(2112.000000,94.500000)"><a xlink:href="https://www.ebi.ac.uk/interpro/entry/pfam/PF00536" xlink:title="SAM domain (Sterile alpha motif)"><rect fill="#BA21E0" x="0" y="0" width="60.000000" height="24.000000" filter="url(#ds)"/><text style="font-size:12px;font-family:OpenSans;fill:#ffffff;" text-anchor="middle" x="30.000000" y="16.000000">SAM_1</text></a></g>
<g class="axis">
<line x1="15.000000" x2="2176.000000" y1="128.500000" y2="128.500000" stroke="#AAAAAA" /><line x1="15.000000" x2="15.000000" y1="128.500000" y2="133.500000" stroke="#AAAAAA" /><line x1="28.000000" x2="28.000000" y1="128.500000" y2="133.500000" stroke="#AAAAAA" /><text style="font-size:10px;font-family:OpenSans;fill:#000000;" text-anchor="middle" x="28.000000" y="143.500000">13</text><line x1="110.000000" x2="110.000000" y1="128.500000" y2="133.500000" stroke="#AAAAAA" /><text style="font-size:10px;font-family:OpenSans;fill:#000000;" text-anchor="middle" x="110.000000" y="143.500000">95</text><line x1="203.000000" x2="203.000000" y1="128.500000" y2="133.500000" stroke="#AAAAAA" /><text style="font-size:10px;font-family:OpenSans;fill:#000000;" text-anchor="middle" x="203.000000" y="143.500000">188</text><line x1="238.000000" x2="238.000000" y1="128.500000" y2="133.500000" stroke="#AAAAAA" /><text style="font-size:10px;font-family:OpenSans;fill:#000000;" text-anchor="middle" x="238.000000" y="143.500000">223</text><line x1="303.000000" x2="303.000000" y1="128.500000" y2="133.500000" stroke="#AAAAAA" /><text style="font-size:10px;font-family:OpenSans;fill:#000000;" text-anchor="middle" x="303.000000" y="143.500000">288</text><line x1="348.000000" x2="348.000000" y1="128.500000" y2="133.500000" stroke="#AAAAAA" /><text style="font-size:10px;font-family:OpenSans;fill:#000000;" text-anchor="middle" x="348.000000" y="143.500000">333</text><line x1="403.000000" x2="403.000000" y1="128.500000" y2="133.500000" stroke="#AAAAAA" /><text style="font-size:10px;font-family:OpenSans;fill:#000000;" text-anchor="middle" x="403.000000" y="143.500000">388</text><line x1="456.000000" x2="456.000000" y1="128.500000" y2="133.500000" stroke="#AAAAAA" /><text style="font-size:10px;font-family:OpenSans;fill:#000000;" text-anchor="middle" x="456.000000" y="143.500000">441</text><line x1="526.000000" x2="526.000000" y1="128.500000" y2="133.500000" stroke="#AAAAAA" /><text style="font-size:10px;font-family:OpenSans;fill:#000000;" text-anchor="middle" x="526.000000" y="143.500000">511</text><line x1="589.000000" x2="589.000000" y1="128.500000" y2="133.500000" stroke="#AAAAAA" /><text style="font-size:10px;font-family:OpenSans;fill:#000000;" text-anchor="middle" x="589.000000" y="143.500000">574</text><line x1="640.000000" x2="640.000000" y1="128.500000" y2="133.500000" stroke="#AAAAAA" /><text style="font-size:10px;font-family:OpenSans;fill:#000000;" text-anchor="middle" x="640.000000" y="143.500000">625</text><line x1="710.000000" x2="710.000000" y1="128.500000" y2="133.500000" stroke="#AAAAAA" /><text style="font-size:10px;font-family:OpenSans;fill:#000000;" text-anchor="middle" x="710.000000" y="143.500000">695</text><line x1="749.000000" x2="749.000000" y1="128.500000" y2="133.500000" stroke="#AAAAAA" /><text style="font-size:10px;font-family:OpenSans;fill:#000000;" text-anchor="middle" x="749.000000" y="143.500000">734</text><line x1="776.000000" x2="776.000000" y1="128.500000" y2="133.500000" stroke="#AAAAAA" /><text style="font-size:10px;font-family:OpenSans;fill:#000000;" text-anchor="middle" x="776.000000" y="143.500000">761</text><line x1="803.000000" x2="803.000000" y1="128.500000" y2="133.500000" stroke="#AAAAAA" /><text style="font-size:10px;font-family:OpenSans;fill:#000000;" text-anchor="middle" x="803.000000" y="143.500000">788</text><line x1="866.000000" x2="866.000000" y1="128.500000" y2="133.500000" stroke="#AAAAAA" /><text style="font-size:10px;font-family:OpenSans;fill:#000000;" text-anchor="middle" x="866.000000" y="143.500000">851</text><line x1="888.000000" x2="888.000000" y1="128.500000" y2="133.500000" stroke="#AAAAAA" /><text style="font-size:10px;font-family:OpenSans;fill:#000000;" text-anchor="middle" x="888.000000" y="143.500000">873</text><line x1="910.000000" x2="910.000000" y1="128.500000" y2="133.500000" stroke="#AAAAAA" /><text style="font-size:10px;font-family:OpenSans;fill:#000000;" text-anchor="middle" x="910.000000" y="143.500000">895</text><line x1="957.000000" x2="957.000000" y1="128.500000" y2="133.500000" stroke="#AAAAAA" /><text style="font-size:10px;font-family:OpenSans;fill:#000000;" text-anchor="middle" x="957.000000" y="143.500000">942</text><line x1="1003.000000" x2="1003.000000" y1="128.500000" y2="133.500000" stroke="#AAAAAA" /><text style="font-size:10px;font-family:OpenSans;fill:#000000;" text-anchor="middle" x="1003.000000" y="143.500000">988</text><line x1="1024.000000" x2="1024.000000" y1="128.500000" y2="133.500000" stroke="#AAAAAA" /><text style="font-size:10px;font-family:OpenSans;fill:#000000;" text-anchor="middle" x="1024.000000" y="143.500000">1009</text><line x1="1126.000000" x2="1126.000000" y1="128.500000" y2="133.500000" stroke="#AAAAAA" /><text style="font-size:10px;font-family:OpenSans;fill:#000000;" text-anchor="middle" x="1126.000000" y="143.500000">1111</text><line x1="1189.000000" x2="1189.000000" y1="128.500000" y2="133.500000" stroke="#AAAAAA" /><text style="font-size:10px;font-family:OpenSans;fill:#000000;" text-anchor="middle" x="1189.000000" y="143.500000">1174</text><line x1="1240.000000" x2="1240.000000" y1="128.500000" y2="133.500000" stroke="#AAAAAA" /><text style="font-size:10px;font-family:OpenSans;fill:#000000;" text-anchor="middle" x="1240.000000" y="143.500000">1225</text><line x1="1308.000000" x2="1308.000000" y1="128.500000" y2="133.500000" stroke="#AAAAAA" /><text style="font-size:10px;font-family:OpenSans;fill:#000000;" text-anchor="middle" x="1308.000000" y="143.500000">1293</text><line x1="1329.000000" x2="1329.000000" y1="128.500000" y2="133.500000" stroke="#AAAAAA" /><text style="font-size:10px;font-family:OpenSans;fill:#000000;" text-anchor="middle" x="1329.000000" y="143.500000">1314</text><line x1="1349.000000" x2="1349.000000" y1="128.500000" y2="133.500000" stroke="#AAAAAA" /><text style="font-size:10px;font-family:OpenSans;fill:#000000;" text-anchor="middle" x="1349.000000" y="143.500000">1334</text><line x1="1376.000000" x2="1376.000000" y1="128.500000" y2="133.500000" stroke="#AAAAAA" /><text style="font-size:10px;font-family:OpenSans;fill:#000000;" text-anchor="middle" x="1376.000000" y="143.500000">1361</text><line x1="1403.000000" x2="1403.000000" y1="128.500000" y2="133.500000" stroke="#AAAAAA" /><text style="font-size:10px;font-family:OpenSans;fill:#000000;" text-anchor="middle" x="1403.000000" y="143.500000">1388</text><line x1="1466.000000" x2="1466.000000" y1="128.500000" y2="133.500000" stroke="#AAAAAA" /><text style="font-size:10px;font-family:OpenSans;fill:#000000;" text-anchor="middle" x="1466.000000" y="143.500000">1451</text><line x1="1488.000000" x2="1488.000000" y1="128.500000" y2="133.500000" stroke="#AAAAAA" /><text style="font-size:10px;font-family:OpenSans;fill:#000000;" text-anchor="middle" x="1488.000000" y="143.500000">1473</text><line x1="1510.000000" x2="1510.000000" y1="128.500000" y2="133.500000" stroke="#AAAAAA" /><text style="font-size:10px;font-family:OpenSans;fill:#000000;" text-anchor="middle" x="1510.000000" y="143.500000">1495</text><line x1="1908.000000" x2="1908.000000" y1="128.500000" y2="133.500000" stroke="#AAAAAA" /><text style="font-size:10px;font-family:OpenSans;fill:#000000;" text-anchor="middle" x="1908.000000" y="143.500000">1893</text><line x1="2112.000000" x2="2112.000000" y1="128.500000" y2="133.500000" stroke="#AAAAAA" /><text style="font-size:10px;font-family:OpenSans;fill:#000000;" text-anchor="middle" x="2112.000000" y="143.500000">2097</text><line x1="2176.000000" x2="2176.000000" y1="128.500000" y2="133.500000" stroke="#AAAAAA" /><text style="font-size:10px;font-family:OpenSans;fill:#000000;" text-anchor="middle" x="2176.000000" y="143.500000">2161</text></g>
<rect fill="#5B5BFF" x="4" y="157.500000" width="12" height="12" filter="url(#ds)"/><text style="font-size:12px;font-family:OpenSans;fill:#000000;" text-anchor="start" x="20" y="169.500000">Variant SH3 domain</text><rect fill="#EBD61D" x="4" y="171.500000" width="12" height="12" filter="url(#ds)"/><text style="font-size:12px;font-family:OpenSans;fill:#000000;" text-anchor="start" x="20" y="183.500000">PDZ domain</text><rect fill="#BA21E0" x="4" y="185.500000" width="12" height="12" filter="url(#ds)"/><text style="font-size:12px;font-family:OpenSans;fill:#000000;" text-anchor="start" x="20" y="197.500000">SAM domain (Sterile alpha motif)</text><rect fill="#FF5353" x="4" y="199.500000" width="12" height="12" filter="url(#ds)"/><text style="font-size:12px;font-family:OpenSans;fill:#000000;" text-anchor="start" x="20" y="211.500000">Ankyrin repeats (3 copies)</text></svg>
