<?xml version='1.0'?>
<svg xmlns="http://www.w3.org/2000/svg" xmlns:xlink="http://www.w3.org/1999/xlink" width="430.000000" height="184.400000">
<defs>
  <filter id="ds" x="0" y="0">
    <feOffset in="SourceAlpha" dx="2" dy="2" />
    <feComponentTransfer><feFuncA type="linear" slope="0.2"/></feComponentTransfer>
    <feGaussianBlur result="blurOut" stdDeviation="1" />
    <feBlend in="SourceGraphic" in2="blurOut" mode="normal" />
  </filter>
  <pattern id="disordered-hatch" patternUnits="userSpaceOnUse" width="4" height="4">
    <path d="M-1,1 l2,-2 M0,4 l4,-4 M3,5 l2,-2" stroke="#000000" opacity="0.3" />
  </pattern>
</defs>
<line x1="99.507042" x2="99.507042" y1="59.000000" y2="87.000000" stroke="#BABDB6" stroke-width="2"/><a xlink:title="P180L"><circle cx="99.507042" cy="59.000000" r="4.000000" fill="#ff0000" /></a><g transform="translate(99.507042,59.000000) rotate(-30)"><text style="font-size:10px;font-family:OpenSans;fill:#555;" text-anchor="middle" x="0" y="-6.000000">P180L</text></g><line x1="185.422535" x2="185.422535" y1="59.000000" y2="87.000000" stroke="#BABDB6" stroke-width="2"/><a xlink:title="Q363Q"><circle cx="185.422535" cy="59.000000" r="4.000000" fill="#0000ff" /></a><g transform="translate(185.422535,59.000000) rotate(-30)"><text style="font-size:10px;font-family:OpenSans;fill:#555;" text-anchor="middle" x="0" y="-6.000000">Q363Q</text></g><line x1="217.816901" x2="217.816901" y1="59.000000" y2="87.000000" stroke="#BABDB6" stroke-width="2"/><a xlink:title="Q432Q"><circle cx="217.816901" cy="59.000000" r="4.000000" fill="#0000ff" /></a><g transform="translate(217.816901,59.000000) rotate(-30)"><text style="font-size:10px;font-family:OpenSans;fill:#555;" text-anchor="middle" x="0" y="-6.000000">Q432Q</text></g><line x1="258.192488" x2="258.192488" y1="59.000000" y2="87.000000" stroke="#BABDB6" stroke-width="2"/><a xlink:title="R518W"><circle cx="258.192488" cy="59.000000" r="4.000000" fill="#ff0000" /></a><g transform="translate(258.192488,59.000000) rotate(-30)"><text style="font-size:10px;font-family:OpenSans;fill:#555;" text-anchor="middle" x="0" y="-6.000000">R518W</text></g><line x1="276.032864" x2="276.032864" y1="59.000000" y2="87.000000" stroke="#BABDB6" stroke-width="2"/><a xlink:title="N556N"><circle cx="276.032864" cy="59.000000" r="4.000000" fill="#0000ff" /></a><g transform="translate(276.032864,59.000000) rotate(-30)"><text style="font-size:10px;font-family:OpenSans;fill:#555;" text-anchor="middle" x="0" y="-6.000000">N556N</text></g><line x1="290.586854" x2="290.586854" y1="46.500000" y2="87.000000" stroke="#BABDB6" stroke-width="2"/><a xlink:title="R587W"><circle cx="290.586854" cy="46.500000" r="4.000000" fill="#ff0000" /></a><g transform="translate(290.586854,46.500000) rotate(-30)"><text style="font-size:10px;font-family:OpenSans;fill:#555;" text-anchor="middle" x="0" y="-6.000000">R587W</text></g><line x1="295.751174" x2="295.751174" y1="46.500000" y2="87.000000" stroke="#BABDB6" stroke-width="2"/><a xlink:title="T598K"><circle cx="295.751174" cy="46.500000" r="4.000000" fill="#ff0000" /></a><g transform="translate(295.751174,46.500000) rotate(-30)"><text style="font-size:10px;font-family:OpenSans;fill:#555;" text-anchor="middle" x="0" y="-6.000000">T598K</text></g><line x1="300.915493" x2="300.915493" y1="59.000000" y2="87.000000" stroke="#BABDB6" stroke-width="2"/><a xlink:title="A609A"><circle cx="300.915493" cy="59.000000" r="4.000000" fill="#0000ff" /></a><g transform="translate(300.915493,59.000000) rotate(-30)"><text style="font-size:10px;font-family:OpenSans;fill:#555;" text-anchor="middle" x="0" y="-6.000000">A609A</text></g><line x1="308.427230" x2="308.427230" y1="59.000000" y2="87.000000" stroke="#BABDB6" stroke-width="2"/><a xlink:title="N625N"><circle cx="308.427230" cy="59.000000" r="4.000000" fill="#0000ff" /></a><g transform="translate(308.427230,59.000000) rotate(-30)"><text style="font-size:10px;font-family:OpenSans;fill:#555;" text-anchor="middle" x="0" y="-6.000000">N625N</text></g><line x1="328.145540" x2="328.145540" y1="34.000000" y2="87.000000" stroke="#BABDB6" stroke-width="2"/><a xlink:title="T667K"><circle cx="328.145540" cy="34.000000" r="4.000000" fill="#ff0000" /></a><g transform="translate(328.145540,34.000000) rotate(-30)"><text style="font-size:10px;font-family:OpenSans;fill:#555;" text-anchor="middle" x="0" y="-6.000000">T667K</text></g><line x1="329.084507" x2="329.084507" y1="46.500000" y2="87.000000" stroke="#BABDB6" stroke-width="2"/><a xlink:title="D669H"><circle cx="329.084507" cy="46.500000" r="4.000000" fill="#ff0000" /></a><g transform="translate(329.084507,46.500000) rotate(-30)"><text style="font-size:10px;font-family:OpenSans;fill:#555;" text-anchor="middle" x="0" y="-6.000000">D669H</text></g><line x1="333.309859" x2="333.309859" y1="59.000000" y2="87.000000" stroke="#BABDB6" stroke-width="2"/><a xlink:title="A678A"><circle cx="333.309859" cy="59.000000" r="4.000000" fill="#0000ff" /></a><g transform="translate(333.309859,59.000000) rotate(-30)"><text style="font-size:10px;font-family:OpenSans;fill:#555;" text-anchor="middle" x="0" y="-6.000000">A678A</text></g><line x1="361.478873" x2="361.478873" y1="59.000000" y2="87.000000" stroke="#BABDB6" stroke-width="2"/><a xlink:title="D738H"><circle cx="361.478873" cy="59.000000" r="4.000000" fill="#ff0000" /></a><g transform="translate(361.478873,59.000000) rotate(-30)"><text style="font-size:10px;font-family:OpenSans;fill:#555;" text-anchor="middle" x="0" y="-6.000000">D738H</text></g><a xlink:title=",  (852aa)"><rect fill="#BABDB6" x="15.000000" y="87.000000" width="400.000000" height="14.000000"/></a><g transform="translate(78.849765,82.000000)"><a xlink:href="https://www.ebi.ac.uk/interpro/entry/pfam/PF08688" xlink:title="Apx/Shroom domain ASD1"><rect fill="#2DCF00" x="0" y="0" width="46.948357" height="24.000000" filter="url(#ds)"/><text style="font-size:12px;font-family:OpenSans;fill:#ffffff;" text-anchor="middle" x="23.474178" y="16.000000">ASD1</text></a></g>
<g transform="translate(270.399061,82.000000)"><a xlink:href="https://www.ebi.ac.uk/interpro/entry/pfam/PF08687" xlink:title="Apx/Shroom domain ASD2"><rect fill="#FF5353" x="0" y="0" width="131.455399" height="24.000000" filter="url(#ds)"/><text style="font-size:12px;font-family:OpenSans;fill:#ffffff;" text-anchor="middle" x="65.727700" y="16.000000">ASD2</text></a></g>
<g class="axis">
<line x1="15.000000" x2="415.000000" y1="116.000000" y2="116.000000" stroke="#AAAAAA" /><line x1="15.000000" x2="15.000000" y1="116.000000" y2="121.000000" stroke="#AAAAAA" /><line x1="15.000000" x2="15.000000" y1="116.000000" y2="121.000000" stroke="#AAAAAA" /><text style="font-size:10px;font-family:OpenSans;fill:#000000;" text-anchor="middle" x="15.000000" y="131.000000">0</text><line x1="78.849765" x2="78.849765" y1="116.000000" y2="121.000000" stroke="#AAAAAA" /><text style="font-size:10px;font-family:OpenSans;fill:#000000;" text-anchor="middle" x="78.849765" y="131.000000">136</text><line x1="99.507042" x2="99.507042" y1="116.000000" y2="121.000000" stroke="#AAAAAA" /><text style="font-size:10px;font-family:OpenSans;fill:#000000;" text-anchor="middle" x="99.507042" y="131.000000">180</text><line x1="125.798122" x2="125.798122" y1="116.000000" y2="121.000000" stroke="#AAAAAA" /><text style="font-size:10px;font-family:OpenSans;fill:#000000;" text-anchor="middle" x="125.798122" y="131.000000">236</text><line x1="185.422535" x2="185.422535" y1="116.000000" y2="121.000000" stroke="#AAAAAA" /><text style="font-size:10px;font-family:OpenSans;fill:#000000;" text-anchor="middle" x="185.422535" y="131.000000">363</text><line x1="217.816901" x2="217.816901" y1="116.000000" y2="121.000000" stroke="#AAAAAA" /><text style="font-size:10px;font-family:OpenSans;fill:#000000;" text-anchor="middle" x="217.816901" y="131.000000">432</text><line x1="258.192488" x2="258.192488" y1="116.000000" y2="121.000000" stroke="#AAAAAA" /><text style="font-size:10px;font-family:OpenSans;fill:#000000;" text-anchor="middle" x="258.192488" y="131.000000">518</text><line x1="290.586854" x2="290.586854" y1="116.000000" y2="121.000000" stroke="#AAAAAA" /><text style="font-size:10px;font-family:OpenSans;fill:#000000;" text-anchor="middle" x="290.586854" y="131.000000">587</text><line x1="328.145540" x2="328.145540" y1="116.000000" y2="121.000000" stroke="#AAAAAA" /><text style="font-size:10px;font-family:OpenSans;fill:#000000;" text-anchor="middle" x="328.145540" y="131.000000">667</text><line x1="361.478873" x2="361.478873" y1="116.000000" y2="121.000000" stroke="#AAAAAA" /><text style="font-size:10px;font-family:OpenSans;fill:#000000;" text-anchor="middle" x="361.478873" y="131.000000">738</text><line x1="415.000000" x2="415.000000" y1="116.000000" y2="121.000000" stroke="#AAAAAA" /><text style="font-size:10px;font-family:OpenSans;fill:#000000;" text-anchor="middle" x="415.000000" y="131.000000">852</text></g>
<rect fill="#2DCF00" x="4" y="145.000000" width="12" height="12" filter="url(#ds)"/><text style="font-size:12px;font-family:OpenSans;fill:#000000;" text-anchor="start" x="20" y="157.000000">Apx/Shroom domain ASD1</text><rect fill="#FF5353" x="4" y="159.000000" width="12" height="12" filter="url(#ds)"/><text style="font-size:12px;font-family:OpenSans;fill:#000000;" text-anchor="start" x="20" y="171.000000">Apx/Shroom domain ASD2</text></svg>
