<?xml version='1.0'?>
<svg xmlns="http://www.w3.org/2000/svg" xmlns:xlink="http://www.w3.org/1999/xlink" width="430.000000" height="185.100000">
<defs>
  <filter id="ds" x="0" y="0">
    <feOffset in="SourceAlpha" dx="2" dy="2" />
    <feComponentTransfer><feFuncA type="linear" slope="0.2"/></feComponentTransfer>
    <feGaussianBlur result="blurOut" stdDeviation="1" />
    <feBlend in="SourceGraphic" in2="blurOut" mode="normal" />
  </filter>
  <pattern id="disordered-hatch" patternUnits="userSpaceOnUse" width="4" height="4">
    <path d="M-1,1 l2,-2 M0,4 l4,-4 M3,5 l2,-2" stroke="#000000" opacity="0.3" />
  </pattern>
</defs>
<line x1="251.644592" x2="251.644592" y1="46.500000" y2="74.500000" stroke="#BABDB6" stroke-width="2"/><a xlink:title="R268H"><circle cx="251.644592" cy="46.500000" r="4.000000" fill="#ff0000" /></a><g transform="translate(251.644592,46.500000) rotate(-30)"><text style="font-size:10px;font-family:OpenSans;fill:#555;" text-anchor="middle" x="0" y="-6.000000">R268H</text></g><line x1="265.772627" x2="265.772627" y1="46.500000" y2="74.500000" stroke="#BABDB6" stroke-width="2"/><a xlink:title="R284H"><circle cx="265.772627" cy="46.500000" r="4.000000" fill="#ff0000" /></a><g transform="translate(265.772627,46.500000) rotate(-30)"><text style="font-size:10px;font-family:OpenSans;fill:#555;" text-anchor="middle" x="0" y="-6.000000">R284H</text></g><line x1="275.485651" x2="275.485651" y1="46.500000" y2="74.500000" stroke="#BABDB6" stroke-width="2"/><a xlink:title="R295H"><circle cx="275.485651" cy="46.500000" r="4.000000" fill="#ff0000" /></a><g transform="translate(275.485651,46.500000) rotate(-30)"><text style="font-size:10px;font-family:OpenSans;fill:#555;" text-anchor="middle" x="0" y="-6.000000">R295H</text></g><line x1="283.432671" x2="283.432671" y1="34.000000" y2="74.500000" stroke="#BABDB6" stroke-width="2"/><a xlink:title="R304H"><circle cx="283.432671" cy="34.000000" r="4.000000" fill="#ff0000" /></a><g transform="translate(283.432671,34.000000) rotate(-30)"><text style="font-size:10px;font-family:OpenSans;fill:#555;" text-anchor="middle" x="0" y="-6.000000">R304H</text></g><line x1="287.847682" x2="287.847682" y1="46.500000" y2="74.500000" stroke="#BABDB6" stroke-width="2"/><a xlink:title="R309H"><circle cx="287.847682" cy="46.500000" r="4.000000" fill="#ff0000" /></a><g transform="translate(287.847682,46.500000) rotate(-30)"><text style="font-size:10px;font-family:OpenSans;fill:#555;" text-anchor="middle" x="0" y="-6.000000">R309H</text></g><line x1="297.560706" x2="297.560706" y1="46.500000" y2="74.500000" stroke="#BABDB6" stroke-width="2"/><a xlink:title="R320H"><circle cx="297.560706" cy="46.500000" r="4.000000" fill="#ff0000" /></a><g transform="translate(297.560706,46.500000) rotate(-30)"><text style="font-size:10px;font-family:OpenSans;fill:#555;" text-anchor="middle" x="0" y="-6.000000">R320H</text></g><line x1="307.273731" x2="307.273731" y1="46.500000" y2="74.500000" stroke="#BABDB6" stroke-width="2"/><a xlink:title="R331H"><circle cx="307.273731" cy="46.500000" r="4.000000" fill="#ff0000" /></a><g transform="translate(307.273731,46.500000) rotate(-30)"><text style="font-size:10px;font-family:OpenSans;fill:#555;" text-anchor="middle" x="0" y="-6.000000">R331H</text></g><a xlink:title=",  (453aa)"><rect fill="#BABDB6" x="15.000000" y="74.500000" width="400.000000" height="14.000000"/></a><g transform="translate(45.905077,69.500000)"><a xlink:href="https://www.ebi.ac.uk/interpro/entry/pfam/PF07686" xlink:title="Immunoglobulin V-set domain"><rect fill="#2DCF00" x="0" y="0" width="93.598234" height="24.000000" filter="url(#ds)"/><text style="font-size:12px;font-family:OpenSans;fill:#ffffff;" text-anchor="middle" x="46.799117" y="16.000000">V-set</text></a></g>
<g transform="translate(151.865342,69.500000)"><a xlink:href="https://www.ebi.ac.uk/interpro/entry/pfam/PF00047" xlink:title="Immunoglobulin domain"><rect fill="#FF5353" x="0" y="0" width="63.576159" height="24.000000" filter="url(#ds)"/><text style="font-size:12px;font-family:OpenSans;fill:#ffffff;" text-anchor="middle" x="31.788079" y="16.000000">ig</text></a></g>
<g transform="translate(239.282561,69.500000)"><a xlink:href="https://www.ebi.ac.uk/interpro/entry/pfam/PF07679" xlink:title="Immunoglobulin I-set domain"><rect fill="#5B5BFF" x="0" y="0" width="72.406181" height="24.000000" filter="url(#ds)"/><text style="font-size:12px;font-family:OpenSans;fill:#ffffff;" text-anchor="middle" x="36.203091" y="16.000000">I-set</text></a></g>
<g class="axis">
<line x1="15.000000" x2="415.000000" y1="103.500000" y2="103.500000" stroke="#AAAAAA" /><line x1="15.000000" x2="15.000000" y1="103.500000" y2="108.500000" stroke="#AAAAAA" /><line x1="15.000000" x2="15.000000" y1="103.500000" y2="108.500000" stroke="#AAAAAA" /><text style="font-size:10px;font-family:OpenSans;fill:#000000;" text-anchor="middle" x="15.000000" y="118.500000">0</text><line x1="45.905077" x2="45.905077" y1="103.500000" y2="108.500000" stroke="#AAAAAA" /><text style="font-size:10px;font-family:OpenSans;fill:#000000;" text-anchor="middle" x="45.905077" y="118.500000">35</text><line x1="139.503311" x2="139.503311" y1="103.500000" y2="108.500000" stroke="#AAAAAA" /><text style="font-size:10px;font-family:OpenSans;fill:#000000;" text-anchor="middle" x="139.503311" y="118.500000">141</text><line x1="215.441501" x2="215.441501" y1="103.500000" y2="108.500000" stroke="#AAAAAA" /><text style="font-size:10px;font-family:OpenSans;fill:#000000;" text-anchor="middle" x="215.441501" y="118.500000">227</text><line x1="251.644592" x2="251.644592" y1="103.500000" y2="108.500000" stroke="#AAAAAA" /><text style="font-size:10px;font-family:OpenSans;fill:#000000;" text-anchor="middle" x="251.644592" y="118.500000">268</text><line x1="275.485651" x2="275.485651" y1="103.500000" y2="108.500000" stroke="#AAAAAA" /><text style="font-size:10px;font-family:OpenSans;fill:#000000;" text-anchor="middle" x="275.485651" y="118.500000">295</text><line x1="297.560706" x2="297.560706" y1="103.500000" y2="108.500000" stroke="#AAAAAA" /><text style="font-size:10px;font-family:OpenSans;fill:#000000;" text-anchor="middle" x="297.560706" y="118.500000">320</text><line x1="415.000000" x2="415.000000" y1="103.500000" y2="108.500000" stroke="#AAAAAA" /><text style="font-size:10px;font-family:OpenSans;fill:#000000;" text-anchor="middle" x="415.000000" y="118.500000">453</text></g>
<rect fill="#2DCF00" x="4" y="132.500000" width="12" height="12" filter="url(#ds)"/><text style="font-size:12px;font-family:OpenSans;fill:#000000;" text-anchor="start" x="20" y="144.500000">Immunoglobulin V-set domain</text><rect fill="#FF5353" x="4" y="146.500000" width="12" height="12" filter="url(#ds)"/><text style="font-size:12px;font-family:OpenSans;fill:#000000;" text-anchor="start" x="20" y="158.500000">Immunoglobulin domain</text><rect fill="#5B5BFF" x="4" y="160.500000" width="12" height="12" filter="url(#ds)"/><text style="font-size:12px;font-family:OpenSans;fill:#000000;" text-anchor="start" x="20" y="172.500000">Immunoglobulin I-set domain</text></svg>
