<?xml version='1.0'?>
<svg xmlns="http://www.w3.org/2000/svg" xmlns:xlink="http://www.w3.org/1999/xlink" width="430.000000" height="171.200000">
<defs>
  <filter id="ds" x="0" y="0">
    <feOffset in="SourceAlpha" dx="2" dy="2" />
    <feComponentTransfer><feFuncA type="linear" slope="0.2"/></feComponentTransfer>
    <feGaussianBlur result="blurOut" stdDeviation="1" />
    <feBlend in="SourceGraphic" in2="blurOut" mode="normal" />
  </filter>
  <pattern id="disordered-hatch" patternUnits="userSpaceOnUse" width="4" height="4">
    <path d="M-1,1 l2,-2 M0,4 l4,-4 M3,5 l2,-2" stroke="#000000" opacity="0.3" />
  </pattern>
</defs>
<line x1="19.395604" x2="19.395604" y1="46.500000" y2="87.000000" stroke="#BABDB6" stroke-width="2"/><a xlink:title="E4V"><circle cx="19.395604" cy="46.500000" r="4.000000" fill="#ff0000" /></a><g transform="translate(19.395604,46.500000) rotate(-30)"><text style="font-size:10px;font-family:OpenSans;fill:#555;" text-anchor="middle" x="0" y="-6.000000">E4V</text></g><line x1="23.791209" x2="23.791209" y1="34.000000" y2="87.000000" stroke="#BABDB6" stroke-width="2"/><a xlink:title="A8A"><circle cx="23.791209" cy="34.000000" r="4.000000" fill="#0000ff" /></a><g transform="translate(23.791209,34.000000) rotate(-30)"><text style="font-size:10px;font-family:OpenSans;fill:#555;" text-anchor="middle" x="0" y="-6.000000">A8A</text></g><line x1="27.087912" x2="27.087912" y1="46.500000" y2="87.000000" stroke="#BABDB6" stroke-width="2"/><a xlink:title="V11G"><circle cx="27.087912" cy="46.500000" r="4.000000" fill="#ff0000" /></a><g transform="translate(27.087912,46.500000) rotate(-30)"><text style="font-size:10px;font-family:OpenSans;fill:#555;" text-anchor="middle" x="0" y="-6.000000">V11G</text></g><line x1="28.186813" x2="28.186813" y1="59.000000" y2="87.000000" stroke="#BABDB6" stroke-width="2"/><a xlink:title="A12G"><circle cx="28.186813" cy="59.000000" r="4.000000" fill="#ff0000" /></a><g transform="translate(28.186813,59.000000) rotate(-30)"><text style="font-size:10px;font-family:OpenSans;fill:#555;" text-anchor="middle" x="0" y="-6.000000">A12G</text></g><a xlink:title=",  (364aa)"><rect fill="#BABDB6" x="15.000000" y="87.000000" width="400.000000" height="14.000000"/></a><g transform="translate(93.021978,82.000000)"><a xlink:href="https://www.ebi.ac.uk/interpro/entry/pfam/PF00153" xlink:title="Mitochondrial carrier protein"><rect fill="#2DCF00" x="0" y="0" width="97.802198" height="24.000000" filter="url(#ds)"/><text style="font-size:12px;font-family:OpenSans;fill:#ffffff;" text-anchor="middle" x="48.901099" y="16.000000">Mito_carr</text></a></g>
<g transform="translate(201.813187,82.000000)"><a xlink:href="https://www.ebi.ac.uk/interpro/entry/pfam/PF00153" xlink:title="Mitochondrial carrier protein"><rect fill="#FF5353" x="0" y="0" width="92.307692" height="24.000000" filter="url(#ds)"/><text style="font-size:12px;font-family:OpenSans;fill:#ffffff;" text-anchor="middle" x="46.153846" y="16.000000">Mito_carr</text></a></g>
<g transform="translate(299.615385,82.000000)"><a xlink:href="https://www.ebi.ac.uk/interpro/entry/pfam/PF00153" xlink:title="Mitochondrial carrier protein"><rect fill="#5B5BFF" x="0" y="0" width="105.494505" height="24.000000" filter="url(#ds)"/><text style="font-size:12px;font-family:OpenSans;fill:#ffffff;" text-anchor="middle" x="52.747253" y="16.000000">Mito_carr</text></a></g>
<g class="axis">
<line x1="15.000000" x2="415.000000" y1="116.000000" y2="116.000000" stroke="#AAAAAA" /><line x1="15.000000" x2="15.000000" y1="116.000000" y2="121.000000" stroke="#AAAAAA" /><line x1="19.395604" x2="19.395604" y1="116.000000" y2="121.000000" stroke="#AAAAAA" /><text style="font-size:10px;font-family:OpenSans;fill:#000000;" text-anchor="middle" x="19.395604" y="131.000000">4</text><line x1="93.021978" x2="93.021978" y1="116.000000" y2="121.000000" stroke="#AAAAAA" /><text style="font-size:10px;font-family:OpenSans;fill:#000000;" text-anchor="middle" x="93.021978" y="131.000000">71</text><line x1="190.824176" x2="190.824176" y1="116.000000" y2="121.000000" stroke="#AAAAAA" /><text style="font-size:10px;font-family:OpenSans;fill:#000000;" text-anchor="middle" x="190.824176" y="131.000000">160</text><line x1="294.120879" x2="294.120879" y1="116.000000" y2="121.000000" stroke="#AAAAAA" /><text style="font-size:10px;font-family:OpenSans;fill:#000000;" text-anchor="middle" x="294.120879" y="131.000000">254</text><line x1="415.000000" x2="415.000000" y1="116.000000" y2="121.000000" stroke="#AAAAAA" /><text style="font-size:10px;font-family:OpenSans;fill:#000000;" text-anchor="middle" x="415.000000" y="131.000000">364</text></g>
<rect fill="#5B5BFF" x="4" y="145.000000" width="12" height="12" filter="url(#ds)"/><text style="font-size:12px;font-family:OpenSans;fill:#000000;" text-anchor="start" x="20" y="157.000000">Mitochondrial carrier protein</text></svg>
