<?xml version='1.0'?>
<svg xmlns="http://www.w3.org/2000/svg" xmlns:xlink="http://www.w3.org/1999/xlink" width="430.000000" height="133.000000">
<defs>
  <filter id="ds" x="0" y="0">
    <feOffset in="SourceAlpha" dx="2" dy="2" />
    <feComponentTransfer><feFuncA type="linear" slope="0.2"/></feComponentTransfer>
    <feGaussianBlur result="blurOut" stdDeviation="1" />
    <feBlend in="SourceGraphic" in2="blurOut" mode="normal" />
  </filter>
  <pattern id="disordered-hatch" patternUnits="userSpaceOnUse" width="4" height="4">
    <path d="M-1,1 l2,-2 M0,4 l4,-4 M3,5 l2,-2" stroke="#000000" opacity="0.3" />
  </pattern>
</defs>
<line x1="52.545126" x2="52.545126" y1="34.000000" y2="62.000000" stroke="#BABDB6" stroke-width="2"/><a xlink:title="S52S"><circle cx="52.545126" cy="34.000000" r="4.000000" fill="#0000ff" /></a><g transform="translate(52.545126,34.000000) rotate(-30)"><text style="font-size:10px;font-family:OpenSans;fill:#555;" text-anchor="middle" x="0" y="-6.000000">S52S</text></g><line x1="130.523466" x2="130.523466" y1="34.000000" y2="62.000000" stroke="#BABDB6" stroke-width="2"/><a xlink:title="L160F"><circle cx="130.523466" cy="34.000000" r="4.000000" fill="#ff0000" /></a><g transform="translate(130.523466,34.000000) rotate(-30)"><text style="font-size:10px;font-family:OpenSans;fill:#555;" text-anchor="middle" x="0" y="-6.000000">L160F</text></g><line x1="261.209386" x2="261.209386" y1="34.000000" y2="62.000000" stroke="#BABDB6" stroke-width="2"/><a xlink:title="P341L"><circle cx="261.209386" cy="34.000000" r="4.000000" fill="#ff0000" /></a><g transform="translate(261.209386,34.000000) rotate(-30)"><text style="font-size:10px;font-family:OpenSans;fill:#555;" text-anchor="middle" x="0" y="-6.000000">P341L</text></g><line x1="309.584838" x2="309.584838" y1="34.000000" y2="62.000000" stroke="#BABDB6" stroke-width="2"/><a xlink:title="M408V"><circle cx="309.584838" cy="34.000000" r="4.000000" fill="#ff0000" /></a><g transform="translate(309.584838,34.000000) rotate(-30)"><text style="font-size:10px;font-family:OpenSans;fill:#555;" text-anchor="middle" x="0" y="-6.000000">M408V</text></g><line x1="350.018051" x2="350.018051" y1="34.000000" y2="62.000000" stroke="#BABDB6" stroke-width="2"/><a xlink:title="V464I"><circle cx="350.018051" cy="34.000000" r="4.000000" fill="#ff0000" /></a><g transform="translate(350.018051,34.000000) rotate(-30)"><text style="font-size:10px;font-family:OpenSans;fill:#555;" text-anchor="middle" x="0" y="-6.000000">V464I</text></g><line x1="376.732852" x2="376.732852" y1="34.000000" y2="62.000000" stroke="#BABDB6" stroke-width="2"/><a xlink:title="V501V"><circle cx="376.732852" cy="34.000000" r="4.000000" fill="#0000ff" /></a><g transform="translate(376.732852,34.000000) rotate(-30)"><text style="font-size:10px;font-family:OpenSans;fill:#555;" text-anchor="middle" x="0" y="-6.000000">V501V</text></g><line x1="398.393502" x2="398.393502" y1="34.000000" y2="62.000000" stroke="#BABDB6" stroke-width="2"/><a xlink:title="V531I"><circle cx="398.393502" cy="34.000000" r="4.000000" fill="#ff0000" /></a><g transform="translate(398.393502,34.000000) rotate(-30)"><text style="font-size:10px;font-family:OpenSans;fill:#555;" text-anchor="middle" x="0" y="-6.000000">V531I</text></g><a xlink:title=",  (554aa)"><rect fill="#BABDB6" x="15.000000" y="62.000000" width="400.000000" height="14.000000"/></a><g transform="translate(121.859206,57.000000)"><a xlink:href="https://www.ebi.ac.uk/interpro/entry/pfam/PF00083" xlink:title="Sugar (and other) transporter"><rect fill="#2DCF00" x="0" y="0" width="270.758123" height="24.000000" filter="url(#ds)"/><text style="font-size:12px;font-family:OpenSans;fill:#ffffff;" text-anchor="middle" x="135.379061" y="16.000000">Sugar (and other) transporter</text></a></g>
<g class="axis">
<line x1="15.000000" x2="415.000000" y1="91.000000" y2="91.000000" stroke="#AAAAAA" /><line x1="15.000000" x2="15.000000" y1="91.000000" y2="96.000000" stroke="#AAAAAA" /><line x1="15.000000" x2="15.000000" y1="91.000000" y2="96.000000" stroke="#AAAAAA" /><text style="font-size:10px;font-family:OpenSans;fill:#000000;" text-anchor="middle" x="15.000000" y="106.000000">0</text><line x1="52.545126" x2="52.545126" y1="91.000000" y2="96.000000" stroke="#AAAAAA" /><text style="font-size:10px;font-family:OpenSans;fill:#000000;" text-anchor="middle" x="52.545126" y="106.000000">52</text><line x1="130.523466" x2="130.523466" y1="91.000000" y2="96.000000" stroke="#AAAAAA" /><text style="font-size:10px;font-family:OpenSans;fill:#000000;" text-anchor="middle" x="130.523466" y="106.000000">160</text><line x1="261.209386" x2="261.209386" y1="91.000000" y2="96.000000" stroke="#AAAAAA" /><text style="font-size:10px;font-family:OpenSans;fill:#000000;" text-anchor="middle" x="261.209386" y="106.000000">341</text><line x1="309.584838" x2="309.584838" y1="91.000000" y2="96.000000" stroke="#AAAAAA" /><text style="font-size:10px;font-family:OpenSans;fill:#000000;" text-anchor="middle" x="309.584838" y="106.000000">408</text><line x1="350.018051" x2="350.018051" y1="91.000000" y2="96.000000" stroke="#AAAAAA" /><text style="font-size:10px;font-family:OpenSans;fill:#000000;" text-anchor="middle" x="350.018051" y="106.000000">464</text><line x1="376.732852" x2="376.732852" y1="91.000000" y2="96.000000" stroke="#AAAAAA" /><text style="font-size:10px;font-family:OpenSans;fill:#000000;" text-anchor="middle" x="376.732852" y="106.000000">501</text><line x1="415.000000" x2="415.000000" y1="91.000000" y2="96.000000" stroke="#AAAAAA" /><text style="font-size:10px;font-family:OpenSans;fill:#000000;" text-anchor="middle" x="415.000000" y="106.000000">554</text></g>
</svg>
