<?xml version='1.0'?>
<svg xmlns="http://www.w3.org/2000/svg" xmlns:xlink="http://www.w3.org/1999/xlink" width="1111.888889" height="171.900000">
<defs>
  <filter id="ds" x="0" y="0">
    <feOffset in="SourceAlpha" dx="2" dy="2" />
    <feComponentTransfer><feFuncA type="linear" slope="0.2"/></feComponentTransfer>
    <feGaussianBlur result="blurOut" stdDeviation="1" />
    <feBlend in="SourceGraphic" in2="blurOut" mode="normal" />
  </filter>
  <pattern id="disordered-hatch" patternUnits="userSpaceOnUse" width="4" height="4">
    <path d="M-1,1 l2,-2 M0,4 l4,-4 M3,5 l2,-2" stroke="#000000" opacity="0.3" />
  </pattern>
</defs>
<line x1="130.818182" x2="130.818182" y1="46.500000" y2="74.500000" stroke="#BABDB6" stroke-width="2"/><a xlink:title="S126N"><circle cx="130.818182" cy="46.500000" r="4.000000" fill="#ff0000" /></a><g transform="translate(130.818182,46.500000) rotate(-30)"><text style="font-size:10px;font-family:OpenSans;fill:#555;" text-anchor="middle" x="0" y="-6.000000">S126N</text></g><line x1="170.343434" x2="170.343434" y1="46.500000" y2="74.500000" stroke="#BABDB6" stroke-width="2"/><a xlink:title="S169N"><circle cx="170.343434" cy="46.500000" r="4.000000" fill="#ff0000" /></a><g transform="translate(170.343434,46.500000) rotate(-30)"><text style="font-size:10px;font-family:OpenSans;fill:#555;" text-anchor="middle" x="0" y="-6.000000">S169N</text></g><line x1="223.656566" x2="223.656566" y1="46.500000" y2="74.500000" stroke="#BABDB6" stroke-width="2"/><a xlink:title="D227G"><circle cx="223.656566" cy="46.500000" r="4.000000" fill="#ff0000" /></a><g transform="translate(223.656566,46.500000) rotate(-30)"><text style="font-size:10px;font-family:OpenSans;fill:#555;" text-anchor="middle" x="0" y="-6.000000">D227G</text></g><line x1="289.838384" x2="289.838384" y1="34.000000" y2="74.500000" stroke="#BABDB6" stroke-width="2"/><a xlink:title="S299S"><circle cx="289.838384" cy="34.000000" r="4.000000" fill="#0000ff" /></a><g transform="translate(289.838384,34.000000) rotate(-30)"><text style="font-size:10px;font-family:OpenSans;fill:#555;" text-anchor="middle" x="0" y="-6.000000">S299S</text></g><line x1="295.353535" x2="295.353535" y1="34.000000" y2="74.500000" stroke="#BABDB6" stroke-width="2"/><a xlink:title="S305S"><circle cx="295.353535" cy="34.000000" r="4.000000" fill="#0000ff" /></a><g transform="translate(295.353535,34.000000) rotate(-30)"><text style="font-size:10px;font-family:OpenSans;fill:#555;" text-anchor="middle" x="0" y="-6.000000">S305S</text></g><line x1="299.949495" x2="299.949495" y1="46.500000" y2="74.500000" stroke="#BABDB6" stroke-width="2"/><a xlink:title="S310S"><circle cx="299.949495" cy="46.500000" r="4.000000" fill="#0000ff" /></a><g transform="translate(299.949495,46.500000) rotate(-30)"><text style="font-size:10px;font-family:OpenSans;fill:#555;" text-anchor="middle" x="0" y="-6.000000">S310S</text></g><line x1="339.474747" x2="339.474747" y1="46.500000" y2="74.500000" stroke="#BABDB6" stroke-width="2"/><a xlink:title="S353S"><circle cx="339.474747" cy="46.500000" r="4.000000" fill="#0000ff" /></a><g transform="translate(339.474747,46.500000) rotate(-30)"><text style="font-size:10px;font-family:OpenSans;fill:#555;" text-anchor="middle" x="0" y="-6.000000">S353S</text></g><line x1="374.404040" x2="374.404040" y1="46.500000" y2="74.500000" stroke="#BABDB6" stroke-width="2"/><a xlink:title="L391P"><circle cx="374.404040" cy="46.500000" r="4.000000" fill="#ff0000" /></a><g transform="translate(374.404040,46.500000) rotate(-30)"><text style="font-size:10px;font-family:OpenSans;fill:#555;" text-anchor="middle" x="0" y="-6.000000">L391P</text></g><line x1="605.121212" x2="605.121212" y1="34.000000" y2="74.500000" stroke="#BABDB6" stroke-width="2"/><a xlink:title="D642G"><circle cx="605.121212" cy="34.000000" r="4.000000" fill="#ff0000" /></a><g transform="translate(605.121212,34.000000) rotate(-30)"><text style="font-size:10px;font-family:OpenSans;fill:#555;" text-anchor="middle" x="0" y="-6.000000">D642G</text></g><line x1="610.636364" x2="610.636364" y1="34.000000" y2="74.500000" stroke="#BABDB6" stroke-width="2"/><a xlink:title="D648G"><circle cx="610.636364" cy="34.000000" r="4.000000" fill="#ff0000" /></a><g transform="translate(610.636364,34.000000) rotate(-30)"><text style="font-size:10px;font-family:OpenSans;fill:#555;" text-anchor="middle" x="0" y="-6.000000">D648G</text></g><line x1="615.232323" x2="615.232323" y1="46.500000" y2="74.500000" stroke="#BABDB6" stroke-width="2"/><a xlink:title="D653G"><circle cx="615.232323" cy="46.500000" r="4.000000" fill="#ff0000" /></a><g transform="translate(615.232323,46.500000) rotate(-30)"><text style="font-size:10px;font-family:OpenSans;fill:#555;" text-anchor="middle" x="0" y="-6.000000">D653G</text></g><line x1="654.757576" x2="654.757576" y1="46.500000" y2="74.500000" stroke="#BABDB6" stroke-width="2"/><a xlink:title="D696G"><circle cx="654.757576" cy="46.500000" r="4.000000" fill="#ff0000" /></a><g transform="translate(654.757576,46.500000) rotate(-30)"><text style="font-size:10px;font-family:OpenSans;fill:#555;" text-anchor="middle" x="0" y="-6.000000">D696G</text></g><line x1="748.515152" x2="748.515152" y1="46.500000" y2="74.500000" stroke="#BABDB6" stroke-width="2"/><a xlink:title="L798P"><circle cx="748.515152" cy="46.500000" r="4.000000" fill="#ff0000" /></a><g transform="translate(748.515152,46.500000) rotate(-30)"><text style="font-size:10px;font-family:OpenSans;fill:#555;" text-anchor="middle" x="0" y="-6.000000">L798P</text></g><line x1="755.868687" x2="755.868687" y1="34.000000" y2="74.500000" stroke="#BABDB6" stroke-width="2"/><a xlink:title="L806P"><circle cx="755.868687" cy="34.000000" r="4.000000" fill="#ff0000" /></a><g transform="translate(755.868687,34.000000) rotate(-30)"><text style="font-size:10px;font-family:OpenSans;fill:#555;" text-anchor="middle" x="0" y="-6.000000">L806P</text></g><line x1="761.383838" x2="761.383838" y1="34.000000" y2="74.500000" stroke="#BABDB6" stroke-width="2"/><a xlink:title="L812P"><circle cx="761.383838" cy="34.000000" r="4.000000" fill="#ff0000" /></a><g transform="translate(761.383838,34.000000) rotate(-30)"><text style="font-size:10px;font-family:OpenSans;fill:#555;" text-anchor="middle" x="0" y="-6.000000">L812P</text></g><line x1="765.979798" x2="765.979798" y1="46.500000" y2="74.500000" stroke="#BABDB6" stroke-width="2"/><a xlink:title="L817P"><circle cx="765.979798" cy="46.500000" r="4.000000" fill="#ff0000" /></a><g transform="translate(765.979798,46.500000) rotate(-30)"><text style="font-size:10px;font-family:OpenSans;fill:#555;" text-anchor="middle" x="0" y="-6.000000">L817P</text></g><line x1="805.505051" x2="805.505051" y1="46.500000" y2="74.500000" stroke="#BABDB6" stroke-width="2"/><a xlink:title="L860P"><circle cx="805.505051" cy="46.500000" r="4.000000" fill="#ff0000" /></a><g transform="translate(805.505051,46.500000) rotate(-30)"><text style="font-size:10px;font-family:OpenSans;fill:#555;" text-anchor="middle" x="0" y="-6.000000">L860P</text></g><a xlink:title=",  (1177aa)"><rect fill="#BABDB6" x="15.000000" y="74.500000" width="1081.888889" height="14.000000"/></a><g transform="translate(39.818182,69.500000)"><a xlink:href="https://www.ebi.ac.uk/interpro/entry/pfam/PF00999" xlink:title="Sodium/hydrogen exchanger family"><rect fill="#2DCF00" x="0" y="0" width="359.404040" height="24.000000" filter="url(#ds)"/><text style="font-size:12px;font-family:OpenSans;fill:#ffffff;" text-anchor="middle" x="179.702020" y="16.000000">Sodium/hydrogen exchanger family</text></a></g>
<g transform="translate(578.464646,69.500000)"><a xlink:href="https://www.ebi.ac.uk/interpro/entry/pfam/PF00520" xlink:title="Ion transport protein"><rect fill="#FF5353" x="0" y="0" width="103.868687" height="24.000000" filter="url(#ds)"/><text style="font-size:12px;font-family:OpenSans;fill:#ffffff;" text-anchor="middle" x="51.934343" y="16.000000">Ion_trans</text></a></g>
<g transform="translate(832.161616,69.500000)"><a xlink:href="https://www.ebi.ac.uk/interpro/entry/pfam/PF00027" xlink:title="Cyclic nucleotide-binding domain"><rect fill="#5B5BFF" x="0" y="0" width="91.000000" height="24.000000" filter="url(#ds)"/><text style="font-size:12px;font-family:OpenSans;fill:#ffffff;" text-anchor="middle" x="45.500000" y="16.000000">cNMP_binding</text></a></g>
<g class="axis">
<line x1="15.000000" x2="1096.888889" y1="103.500000" y2="103.500000" stroke="#AAAAAA" /><line x1="15.000000" x2="15.000000" y1="103.500000" y2="108.500000" stroke="#AAAAAA" /><line x1="15.000000" x2="15.000000" y1="103.500000" y2="108.500000" stroke="#AAAAAA" /><text style="font-size:10px;font-family:OpenSans;fill:#000000;" text-anchor="middle" x="15.000000" y="118.500000">0</text><line x1="39.818182" x2="39.818182" y1="103.500000" y2="108.500000" stroke="#AAAAAA" /><text style="font-size:10px;font-family:OpenSans;fill:#000000;" text-anchor="middle" x="39.818182" y="118.500000">27</text><line x1="130.818182" x2="130.818182" y1="103.500000" y2="108.500000" stroke="#AAAAAA" /><text style="font-size:10px;font-family:OpenSans;fill:#000000;" text-anchor="middle" x="130.818182" y="118.500000">126</text><line x1="170.343434" x2="170.343434" y1="103.500000" y2="108.500000" stroke="#AAAAAA" /><text style="font-size:10px;font-family:OpenSans;fill:#000000;" text-anchor="middle" x="170.343434" y="118.500000">169</text><line x1="223.656566" x2="223.656566" y1="103.500000" y2="108.500000" stroke="#AAAAAA" /><text style="font-size:10px;font-family:OpenSans;fill:#000000;" text-anchor="middle" x="223.656566" y="118.500000">227</text><line x1="289.838384" x2="289.838384" y1="103.500000" y2="108.500000" stroke="#AAAAAA" /><text style="font-size:10px;font-family:OpenSans;fill:#000000;" text-anchor="middle" x="289.838384" y="118.500000">299</text><line x1="339.474747" x2="339.474747" y1="103.500000" y2="108.500000" stroke="#AAAAAA" /><text style="font-size:10px;font-family:OpenSans;fill:#000000;" text-anchor="middle" x="339.474747" y="118.500000">353</text><line x1="374.404040" x2="374.404040" y1="103.500000" y2="108.500000" stroke="#AAAAAA" /><text style="font-size:10px;font-family:OpenSans;fill:#000000;" text-anchor="middle" x="374.404040" y="118.500000">391</text><line x1="399.222222" x2="399.222222" y1="103.500000" y2="108.500000" stroke="#AAAAAA" /><text style="font-size:10px;font-family:OpenSans;fill:#000000;" text-anchor="middle" x="399.222222" y="118.500000">418</text><line x1="578.464646" x2="578.464646" y1="103.500000" y2="108.500000" stroke="#AAAAAA" /><text style="font-size:10px;font-family:OpenSans;fill:#000000;" text-anchor="middle" x="578.464646" y="118.500000">613</text><line x1="605.121212" x2="605.121212" y1="103.500000" y2="108.500000" stroke="#AAAAAA" /><text style="font-size:10px;font-family:OpenSans;fill:#000000;" text-anchor="middle" x="605.121212" y="118.500000">642</text><line x1="654.757576" x2="654.757576" y1="103.500000" y2="108.500000" stroke="#AAAAAA" /><text style="font-size:10px;font-family:OpenSans;fill:#000000;" text-anchor="middle" x="654.757576" y="118.500000">696</text><line x1="682.333333" x2="682.333333" y1="103.500000" y2="108.500000" stroke="#AAAAAA" /><text style="font-size:10px;font-family:OpenSans;fill:#000000;" text-anchor="middle" x="682.333333" y="118.500000">726</text><line x1="748.515152" x2="748.515152" y1="103.500000" y2="108.500000" stroke="#AAAAAA" /><text style="font-size:10px;font-family:OpenSans;fill:#000000;" text-anchor="middle" x="748.515152" y="118.500000">798</text><line x1="805.505051" x2="805.505051" y1="103.500000" y2="108.500000" stroke="#AAAAAA" /><text style="font-size:10px;font-family:OpenSans;fill:#000000;" text-anchor="middle" x="805.505051" y="118.500000">860</text><line x1="832.161616" x2="832.161616" y1="103.500000" y2="108.500000" stroke="#AAAAAA" /><text style="font-size:10px;font-family:OpenSans;fill:#000000;" text-anchor="middle" x="832.161616" y="118.500000">889</text><line x1="923.161616" x2="923.161616" y1="103.500000" y2="108.500000" stroke="#AAAAAA" /><text style="font-size:10px;font-family:OpenSans;fill:#000000;" text-anchor="middle" x="923.161616" y="118.500000">988</text><line x1="1096.888889" x2="1096.888889" y1="103.500000" y2="108.500000" stroke="#AAAAAA" /><text style="font-size:10px;font-family:OpenSans;fill:#000000;" text-anchor="middle" x="1096.888889" y="118.500000">1177</text></g>
<rect fill="#5B5BFF" x="4" y="132.500000" width="12" height="12" filter="url(#ds)"/><text style="font-size:12px;font-family:OpenSans;fill:#000000;" text-anchor="start" x="20" y="144.500000">Cyclic nucleotide-binding domain</text><rect fill="#FF5353" x="4" y="146.500000" width="12" height="12" filter="url(#ds)"/><text style="font-size:12px;font-family:OpenSans;fill:#000000;" text-anchor="start" x="20" y="158.500000">Ion transport protein</text></svg>
