<?xml version='1.0'?>
<svg xmlns="http://www.w3.org/2000/svg" xmlns:xlink="http://www.w3.org/1999/xlink" width="759.600000" height="172.600000">
<defs>
  <filter id="ds" x="0" y="0">
    <feOffset in="SourceAlpha" dx="2" dy="2" />
    <feComponentTransfer><feFuncA type="linear" slope="0.2"/></feComponentTransfer>
    <feGaussianBlur result="blurOut" stdDeviation="1" />
    <feBlend in="SourceGraphic" in2="blurOut" mode="normal" />
  </filter>
  <pattern id="disordered-hatch" patternUnits="userSpaceOnUse" width="4" height="4">
    <path d="M-1,1 l2,-2 M0,4 l4,-4 M3,5 l2,-2" stroke="#000000" opacity="0.3" />
  </pattern>
</defs>
<line x1="23.800000" x2="23.800000" y1="34.000000" y2="62.000000" stroke="#BABDB6" stroke-width="2"/><a xlink:title="P11P"><circle cx="23.800000" cy="34.000000" r="4.000000" fill="#0000ff" /></a><g transform="translate(23.800000,34.000000) rotate(-30)"><text style="font-size:10px;font-family:OpenSans;fill:#555;" text-anchor="middle" x="0" y="-6.000000">P11P</text></g><line x1="631.000000" x2="631.000000" y1="34.000000" y2="62.000000" stroke="#BABDB6" stroke-width="2"/><a xlink:title="Y770F"><circle cx="631.000000" cy="34.000000" r="4.000000" fill="#ff0000" /></a><g transform="translate(631.000000,34.000000) rotate(-30)"><text style="font-size:10px;font-family:OpenSans;fill:#555;" text-anchor="middle" x="0" y="-6.000000">Y770F</text></g><line x1="741.400000" x2="741.400000" y1="34.000000" y2="62.000000" stroke="#BABDB6" stroke-width="2"/><a xlink:title="K908K"><circle cx="741.400000" cy="34.000000" r="4.000000" fill="#0000ff" /></a><g transform="translate(741.400000,34.000000) rotate(-30)"><text style="font-size:10px;font-family:OpenSans;fill:#555;" text-anchor="middle" x="0" y="-6.000000">K908K</text></g><a xlink:title=",  (912aa)"><rect fill="#BABDB6" x="15.000000" y="62.000000" width="729.600000" height="14.000000"/></a><g transform="translate(81.400000,57.000000)"><a xlink:href="https://www.ebi.ac.uk/interpro/entry/pfam/PF17057" xlink:title="Poxviridae B3 protein"><rect fill="#2DCF00" x="0" y="0" width="96.800000" height="24.000000" filter="url(#ds)"/><text style="font-size:12px;font-family:OpenSans;fill:#ffffff;" text-anchor="middle" x="48.400000" y="16.000000">B3R</text></a></g>
<g transform="translate(179.800000,57.000000)"><a xlink:href="https://www.ebi.ac.uk/interpro/entry/pfam/PF04326" xlink:title="Schlafen, AlbA_2"><rect fill="#FF5353" x="0" y="0" width="92.000000" height="24.000000" filter="url(#ds)"/><text style="font-size:12px;font-family:OpenSans;fill:#ffffff;" text-anchor="middle" x="46.000000" y="16.000000">SLFN_AlbA_2</text></a></g>
<g transform="translate(335.000000,57.000000)"><a xlink:href="https://www.ebi.ac.uk/interpro/entry/pfam/PF21026" xlink:title="Schlafen, GTPase-like domain"><rect fill="#5B5BFF" x="0" y="0" width="108.000000" height="24.000000" filter="url(#ds)"/><text style="font-size:12px;font-family:OpenSans;fill:#ffffff;" text-anchor="middle" x="54.000000" y="16.000000">SLFN_GTPase-like</text></a></g>
<g class="axis">
<line x1="15.000000" x2="744.600000" y1="91.000000" y2="91.000000" stroke="#AAAAAA" /><line x1="15.000000" x2="15.000000" y1="91.000000" y2="96.000000" stroke="#AAAAAA" /><line x1="23.800000" x2="23.800000" y1="91.000000" y2="96.000000" stroke="#AAAAAA" /><text style="font-size:10px;font-family:OpenSans;fill:#000000;" text-anchor="middle" x="23.800000" y="106.000000">11</text><line x1="81.400000" x2="81.400000" y1="91.000000" y2="96.000000" stroke="#AAAAAA" /><text style="font-size:10px;font-family:OpenSans;fill:#000000;" text-anchor="middle" x="81.400000" y="106.000000">83</text><line x1="178.200000" x2="178.200000" y1="91.000000" y2="96.000000" stroke="#AAAAAA" /><text style="font-size:10px;font-family:OpenSans;fill:#000000;" text-anchor="middle" x="178.200000" y="106.000000">204</text><line x1="271.800000" x2="271.800000" y1="91.000000" y2="96.000000" stroke="#AAAAAA" /><text style="font-size:10px;font-family:OpenSans;fill:#000000;" text-anchor="middle" x="271.800000" y="106.000000">321</text><line x1="335.000000" x2="335.000000" y1="91.000000" y2="96.000000" stroke="#AAAAAA" /><text style="font-size:10px;font-family:OpenSans;fill:#000000;" text-anchor="middle" x="335.000000" y="106.000000">400</text><line x1="443.000000" x2="443.000000" y1="91.000000" y2="96.000000" stroke="#AAAAAA" /><text style="font-size:10px;font-family:OpenSans;fill:#000000;" text-anchor="middle" x="443.000000" y="106.000000">535</text><line x1="631.000000" x2="631.000000" y1="91.000000" y2="96.000000" stroke="#AAAAAA" /><text style="font-size:10px;font-family:OpenSans;fill:#000000;" text-anchor="middle" x="631.000000" y="106.000000">770</text><line x1="744.600000" x2="744.600000" y1="91.000000" y2="96.000000" stroke="#AAAAAA" /><text style="font-size:10px;font-family:OpenSans;fill:#000000;" text-anchor="middle" x="744.600000" y="106.000000">912</text></g>
<rect fill="#FF5353" x="4" y="120.000000" width="12" height="12" filter="url(#ds)"/><text style="font-size:12px;font-family:OpenSans;fill:#000000;" text-anchor="start" x="20" y="132.000000">Schlafen, AlbA_2</text><rect fill="#5B5BFF" x="4" y="134.000000" width="12" height="12" filter="url(#ds)"/><text style="font-size:12px;font-family:OpenSans;fill:#000000;" text-anchor="start" x="20" y="146.000000">Schlafen, GTPase-like domain</text><rect fill="#2DCF00" x="4" y="148.000000" width="12" height="12" filter="url(#ds)"/><text style="font-size:12px;font-family:OpenSans;fill:#000000;" text-anchor="start" x="20" y="160.000000">Poxviridae B3 protein</text></svg>
