<?xml version='1.0'?>
<svg xmlns="http://www.w3.org/2000/svg" xmlns:xlink="http://www.w3.org/1999/xlink" width="430.000000" height="208.700000">
<defs>
  <filter id="ds" x="0" y="0">
    <feOffset in="SourceAlpha" dx="2" dy="2" />
    <feComponentTransfer><feFuncA type="linear" slope="0.2"/></feComponentTransfer>
    <feGaussianBlur result="blurOut" stdDeviation="1" />
    <feBlend in="SourceGraphic" in2="blurOut" mode="normal" />
  </filter>
  <pattern id="disordered-hatch" patternUnits="userSpaceOnUse" width="4" height="4">
    <path d="M-1,1 l2,-2 M0,4 l4,-4 M3,5 l2,-2" stroke="#000000" opacity="0.3" />
  </pattern>
</defs>
<line x1="71.521739" x2="71.521739" y1="96.500000" y2="124.500000" stroke="#BABDB6" stroke-width="2"/><a xlink:title="R117R"><circle cx="71.521739" cy="96.500000" r="4.000000" fill="#0000ff" /></a><g transform="translate(71.521739,96.500000) rotate(-30)"><text style="font-size:10px;font-family:OpenSans;fill:#555;" text-anchor="middle" x="0" y="-6.000000">R117R</text></g><line x1="83.599034" x2="83.599034" y1="96.500000" y2="124.500000" stroke="#BABDB6" stroke-width="2"/><a xlink:title="R142R"><circle cx="83.599034" cy="96.500000" r="4.000000" fill="#0000ff" /></a><g transform="translate(83.599034,96.500000) rotate(-30)"><text style="font-size:10px;font-family:OpenSans;fill:#555;" text-anchor="middle" x="0" y="-6.000000">R142R</text></g><line x1="103.405797" x2="103.405797" y1="96.500000" y2="124.500000" stroke="#BABDB6" stroke-width="2"/><a xlink:title="R183R"><circle cx="103.405797" cy="96.500000" r="4.000000" fill="#0000ff" /></a><g transform="translate(103.405797,96.500000) rotate(-30)"><text style="font-size:10px;font-family:OpenSans;fill:#555;" text-anchor="middle" x="0" y="-6.000000">R183R</text></g><line x1="115.483092" x2="115.483092" y1="96.500000" y2="124.500000" stroke="#BABDB6" stroke-width="2"/><a xlink:title="H208Q"><circle cx="115.483092" cy="96.500000" r="4.000000" fill="#ff0000" /></a><g transform="translate(115.483092,96.500000) rotate(-30)"><text style="font-size:10px;font-family:OpenSans;fill:#555;" text-anchor="middle" x="0" y="-6.000000">H208Q</text></g><line x1="272.971014" x2="272.971014" y1="96.500000" y2="124.500000" stroke="#BABDB6" stroke-width="2"/><a xlink:title="R534R"><circle cx="272.971014" cy="96.500000" r="4.000000" fill="#0000ff" /></a><g transform="translate(272.971014,96.500000) rotate(-30)"><text style="font-size:10px;font-family:OpenSans;fill:#555;" text-anchor="middle" x="0" y="-6.000000">R534R</text></g><line x1="290.362319" x2="290.362319" y1="84.000000" y2="124.500000" stroke="#BABDB6" stroke-width="2"/><a xlink:title="R570R"><circle cx="290.362319" cy="84.000000" r="4.000000" fill="#0000ff" /></a><g transform="translate(290.362319,84.000000) rotate(-30)"><text style="font-size:10px;font-family:OpenSans;fill:#555;" text-anchor="middle" x="0" y="-6.000000">R570R</text></g><line x1="291.328502" x2="291.328502" y1="96.500000" y2="124.500000" stroke="#BABDB6" stroke-width="2"/><a xlink:title="R572R"><circle cx="291.328502" cy="96.500000" r="4.000000" fill="#0000ff" /></a><g transform="translate(291.328502,96.500000) rotate(-30)"><text style="font-size:10px;font-family:OpenSans;fill:#555;" text-anchor="middle" x="0" y="-6.000000">R572R</text></g><line x1="298.574879" x2="298.574879" y1="71.500000" y2="124.500000" stroke="#BABDB6" stroke-width="2"/><a xlink:title="R587R"><circle cx="298.574879" cy="71.500000" r="4.000000" fill="#0000ff" /></a><g transform="translate(298.574879,71.500000) rotate(-30)"><text style="font-size:10px;font-family:OpenSans;fill:#555;" text-anchor="middle" x="0" y="-6.000000">R587R</text></g><line x1="299.541063" x2="299.541063" y1="84.000000" y2="124.500000" stroke="#BABDB6" stroke-width="2"/><a xlink:title="R589R"><circle cx="299.541063" cy="84.000000" r="4.000000" fill="#0000ff" /></a><g transform="translate(299.541063,84.000000) rotate(-30)"><text style="font-size:10px;font-family:OpenSans;fill:#555;" text-anchor="middle" x="0" y="-6.000000">R589R</text></g><line x1="300.507246" x2="300.507246" y1="96.500000" y2="124.500000" stroke="#BABDB6" stroke-width="2"/><a xlink:title="R591R"><circle cx="300.507246" cy="96.500000" r="4.000000" fill="#0000ff" /></a><g transform="translate(300.507246,96.500000) rotate(-30)"><text style="font-size:10px;font-family:OpenSans;fill:#555;" text-anchor="middle" x="0" y="-6.000000">R591R</text></g><line x1="306.787440" x2="306.787440" y1="46.500000" y2="124.500000" stroke="#BABDB6" stroke-width="2"/><a xlink:title="R604R"><circle cx="306.787440" cy="46.500000" r="4.000000" fill="#0000ff" /></a><g transform="translate(306.787440,46.500000) rotate(-30)"><text style="font-size:10px;font-family:OpenSans;fill:#555;" text-anchor="middle" x="0" y="-6.000000">R604R</text></g><line x1="308.719807" x2="308.719807" y1="59.000000" y2="124.500000" stroke="#BABDB6" stroke-width="2"/><a xlink:title="R608R"><circle cx="308.719807" cy="59.000000" r="4.000000" fill="#0000ff" /></a><g transform="translate(308.719807,59.000000) rotate(-30)"><text style="font-size:10px;font-family:OpenSans;fill:#555;" text-anchor="middle" x="0" y="-6.000000">R608R</text></g><line x1="309.685990" x2="309.685990" y1="71.500000" y2="124.500000" stroke="#BABDB6" stroke-width="2"/><a xlink:title="R610R"><circle cx="309.685990" cy="71.500000" r="4.000000" fill="#0000ff" /></a><g transform="translate(309.685990,71.500000) rotate(-30)"><text style="font-size:10px;font-family:OpenSans;fill:#555;" text-anchor="middle" x="0" y="-6.000000">R610R</text></g><line x1="310.169082" x2="310.169082" y1="84.000000" y2="124.500000" stroke="#BABDB6" stroke-width="2"/><a xlink:title="R611R"><circle cx="310.169082" cy="84.000000" r="4.000000" fill="#0000ff" /></a><g transform="translate(310.169082,84.000000) rotate(-30)"><text style="font-size:10px;font-family:OpenSans;fill:#555;" text-anchor="middle" x="0" y="-6.000000">R611R</text></g><line x1="311.135266" x2="311.135266" y1="84.000000" y2="124.500000" stroke="#BABDB6" stroke-width="2"/><a xlink:title="R613R"><circle cx="311.135266" cy="84.000000" r="4.000000" fill="#0000ff" /></a><g transform="translate(311.135266,84.000000) rotate(-30)"><text style="font-size:10px;font-family:OpenSans;fill:#555;" text-anchor="middle" x="0" y="-6.000000">R613R</text></g><line x1="316.932367" x2="316.932367" y1="34.000000" y2="124.500000" stroke="#BABDB6" stroke-width="2"/><a xlink:title="R625R"><circle cx="316.932367" cy="34.000000" r="4.000000" fill="#0000ff" /></a><g transform="translate(316.932367,34.000000) rotate(-30)"><text style="font-size:10px;font-family:OpenSans;fill:#555;" text-anchor="middle" x="0" y="-6.000000">R625R</text></g><line x1="317.898551" x2="317.898551" y1="46.500000" y2="124.500000" stroke="#BABDB6" stroke-width="2"/><a xlink:title="R627R"><circle cx="317.898551" cy="46.500000" r="4.000000" fill="#0000ff" /></a><g transform="translate(317.898551,46.500000) rotate(-30)"><text style="font-size:10px;font-family:OpenSans;fill:#555;" text-anchor="middle" x="0" y="-6.000000">R627R</text></g><line x1="318.381643" x2="318.381643" y1="59.000000" y2="124.500000" stroke="#BABDB6" stroke-width="2"/><a xlink:title="R628R"><circle cx="318.381643" cy="59.000000" r="4.000000" fill="#0000ff" /></a><g transform="translate(318.381643,59.000000) rotate(-30)"><text style="font-size:10px;font-family:OpenSans;fill:#555;" text-anchor="middle" x="0" y="-6.000000">R628R</text></g><line x1="319.347826" x2="319.347826" y1="71.500000" y2="124.500000" stroke="#BABDB6" stroke-width="2"/><a xlink:title="R630R"><circle cx="319.347826" cy="71.500000" r="4.000000" fill="#0000ff" /></a><g transform="translate(319.347826,71.500000) rotate(-30)"><text style="font-size:10px;font-family:OpenSans;fill:#555;" text-anchor="middle" x="0" y="-6.000000">R630R</text></g><line x1="320.314010" x2="320.314010" y1="84.000000" y2="124.500000" stroke="#BABDB6" stroke-width="2"/><a xlink:title="R632R"><circle cx="320.314010" cy="84.000000" r="4.000000" fill="#0000ff" /></a><g transform="translate(320.314010,84.000000) rotate(-30)"><text style="font-size:10px;font-family:OpenSans;fill:#555;" text-anchor="middle" x="0" y="-6.000000">R632R</text></g><line x1="321.280193" x2="321.280193" y1="84.000000" y2="124.500000" stroke="#BABDB6" stroke-width="2"/><a xlink:title="R634R"><circle cx="321.280193" cy="84.000000" r="4.000000" fill="#0000ff" /></a><g transform="translate(321.280193,84.000000) rotate(-30)"><text style="font-size:10px;font-family:OpenSans;fill:#555;" text-anchor="middle" x="0" y="-6.000000">R634R</text></g><line x1="326.594203" x2="326.594203" y1="59.000000" y2="124.500000" stroke="#BABDB6" stroke-width="2"/><a xlink:title="R645R"><circle cx="326.594203" cy="59.000000" r="4.000000" fill="#0000ff" /></a><g transform="translate(326.594203,59.000000) rotate(-30)"><text style="font-size:10px;font-family:OpenSans;fill:#555;" text-anchor="middle" x="0" y="-6.000000">R645R</text></g><line x1="327.560386" x2="327.560386" y1="71.500000" y2="124.500000" stroke="#BABDB6" stroke-width="2"/><a xlink:title="R647R"><circle cx="327.560386" cy="71.500000" r="4.000000" fill="#0000ff" /></a><g transform="translate(327.560386,71.500000) rotate(-30)"><text style="font-size:10px;font-family:OpenSans;fill:#555;" text-anchor="middle" x="0" y="-6.000000">R647R</text></g><line x1="328.526570" x2="328.526570" y1="84.000000" y2="124.500000" stroke="#BABDB6" stroke-width="2"/><a xlink:title="R649R"><circle cx="328.526570" cy="84.000000" r="4.000000" fill="#0000ff" /></a><g transform="translate(328.526570,84.000000) rotate(-30)"><text style="font-size:10px;font-family:OpenSans;fill:#555;" text-anchor="middle" x="0" y="-6.000000">R649R</text></g><line x1="329.492754" x2="329.492754" y1="96.500000" y2="124.500000" stroke="#BABDB6" stroke-width="2"/><a xlink:title="R651R"><circle cx="329.492754" cy="96.500000" r="4.000000" fill="#0000ff" /></a><g transform="translate(329.492754,96.500000) rotate(-30)"><text style="font-size:10px;font-family:OpenSans;fill:#555;" text-anchor="middle" x="0" y="-6.000000">R651R</text></g><line x1="336.739130" x2="336.739130" y1="71.500000" y2="124.500000" stroke="#BABDB6" stroke-width="2"/><a xlink:title="R666R"><circle cx="336.739130" cy="71.500000" r="4.000000" fill="#0000ff" /></a><g transform="translate(336.739130,71.500000) rotate(-30)"><text style="font-size:10px;font-family:OpenSans;fill:#555;" text-anchor="middle" x="0" y="-6.000000">R666R</text></g><line x1="337.705314" x2="337.705314" y1="84.000000" y2="124.500000" stroke="#BABDB6" stroke-width="2"/><a xlink:title="R668R"><circle cx="337.705314" cy="84.000000" r="4.000000" fill="#0000ff" /></a><g transform="translate(337.705314,84.000000) rotate(-30)"><text style="font-size:10px;font-family:OpenSans;fill:#555;" text-anchor="middle" x="0" y="-6.000000">R668R</text></g><line x1="340.120773" x2="340.120773" y1="96.500000" y2="124.500000" stroke="#BABDB6" stroke-width="2"/><a xlink:title="R673R"><circle cx="340.120773" cy="96.500000" r="4.000000" fill="#0000ff" /></a><g transform="translate(340.120773,96.500000) rotate(-30)"><text style="font-size:10px;font-family:OpenSans;fill:#555;" text-anchor="middle" x="0" y="-6.000000">R673R</text></g><a xlink:title=",  (828aa)"><rect fill="#BABDB6" x="15.000000" y="124.500000" width="400.000000" height="14.000000"/></a><g transform="translate(28.526570,119.500000)"><a xlink:href="https://www.ebi.ac.uk/interpro/entry/pfam/PF00498" xlink:title="FHA domain"><rect fill="#2DCF00" x="0" y="0" width="37.681159" height="24.000000" filter="url(#ds)"/><text style="font-size:12px;font-family:OpenSans;fill:#ffffff;" text-anchor="middle" x="18.840580" y="16.000000">FHA</text></a></g>
<g class="axis">
<line x1="15.000000" x2="415.000000" y1="153.500000" y2="153.500000" stroke="#AAAAAA" /><line x1="15.000000" x2="15.000000" y1="153.500000" y2="158.500000" stroke="#AAAAAA" /><line x1="28.526570" x2="28.526570" y1="153.500000" y2="158.500000" stroke="#AAAAAA" /><text style="font-size:10px;font-family:OpenSans;fill:#000000;" text-anchor="middle" x="28.526570" y="168.500000">28</text><line x1="71.521739" x2="71.521739" y1="153.500000" y2="158.500000" stroke="#AAAAAA" /><text style="font-size:10px;font-family:OpenSans;fill:#000000;" text-anchor="middle" x="71.521739" y="168.500000">117</text><line x1="103.405797" x2="103.405797" y1="153.500000" y2="158.500000" stroke="#AAAAAA" /><text style="font-size:10px;font-family:OpenSans;fill:#000000;" text-anchor="middle" x="103.405797" y="168.500000">183</text><line x1="272.971014" x2="272.971014" y1="153.500000" y2="158.500000" stroke="#AAAAAA" /><text style="font-size:10px;font-family:OpenSans;fill:#000000;" text-anchor="middle" x="272.971014" y="168.500000">534</text><line x1="298.574879" x2="298.574879" y1="153.500000" y2="158.500000" stroke="#AAAAAA" /><text style="font-size:10px;font-family:OpenSans;fill:#000000;" text-anchor="middle" x="298.574879" y="168.500000">587</text><line x1="318.381643" x2="318.381643" y1="153.500000" y2="158.500000" stroke="#AAAAAA" /><text style="font-size:10px;font-family:OpenSans;fill:#000000;" text-anchor="middle" x="318.381643" y="168.500000">628</text><line x1="340.120773" x2="340.120773" y1="153.500000" y2="158.500000" stroke="#AAAAAA" /><text style="font-size:10px;font-family:OpenSans;fill:#000000;" text-anchor="middle" x="340.120773" y="168.500000">673</text><line x1="415.000000" x2="415.000000" y1="153.500000" y2="158.500000" stroke="#AAAAAA" /><text style="font-size:10px;font-family:OpenSans;fill:#000000;" text-anchor="middle" x="415.000000" y="168.500000">828</text></g>
<rect fill="#2DCF00" x="4" y="182.500000" width="12" height="12" filter="url(#ds)"/><text style="font-size:12px;font-family:OpenSans;fill:#000000;" text-anchor="start" x="20" y="194.500000">FHA domain</text></svg>
