<?xml version='1.0'?>
<svg xmlns="http://www.w3.org/2000/svg" xmlns:xlink="http://www.w3.org/1999/xlink" width="3316.682927" height="171.900000">
<defs>
  <filter id="ds" x="0" y="0">
    <feOffset in="SourceAlpha" dx="2" dy="2" />
    <feComponentTransfer><feFuncA type="linear" slope="0.2"/></feComponentTransfer>
    <feGaussianBlur result="blurOut" stdDeviation="1" />
    <feBlend in="SourceGraphic" in2="blurOut" mode="normal" />
  </filter>
  <pattern id="disordered-hatch" patternUnits="userSpaceOnUse" width="4" height="4">
    <path d="M-1,1 l2,-2 M0,4 l4,-4 M3,5 l2,-2" stroke="#000000" opacity="0.3" />
  </pattern>
</defs>
<line x1="2053.609756" x2="2053.609756" y1="34.000000" y2="74.500000" stroke="#BABDB6" stroke-width="2"/><a xlink:title="S753C"><circle cx="2053.609756" cy="34.000000" r="4.000000" fill="#ff0000" /></a><g transform="translate(2053.609756,34.000000) rotate(-30)"><text style="font-size:10px;font-family:OpenSans;fill:#555;" text-anchor="middle" x="0" y="-6.000000">S753C</text></g><line x1="2056.317073" x2="2056.317073" y1="46.500000" y2="74.500000" stroke="#BABDB6" stroke-width="2"/><a xlink:title="S754C"><circle cx="2056.317073" cy="46.500000" r="4.000000" fill="#ff0000" /></a><g transform="translate(2056.317073,46.500000) rotate(-30)"><text style="font-size:10px;font-family:OpenSans;fill:#555;" text-anchor="middle" x="0" y="-6.000000">S754C</text></g><line x1="2137.536585" x2="2137.536585" y1="34.000000" y2="74.500000" stroke="#BABDB6" stroke-width="2"/><a xlink:title="S784C"><circle cx="2137.536585" cy="34.000000" r="4.000000" fill="#ff0000" /></a><g transform="translate(2137.536585,34.000000) rotate(-30)"><text style="font-size:10px;font-family:OpenSans;fill:#555;" text-anchor="middle" x="0" y="-6.000000">S784C</text></g><line x1="2140.243902" x2="2140.243902" y1="46.500000" y2="74.500000" stroke="#BABDB6" stroke-width="2"/><a xlink:title="S785C"><circle cx="2140.243902" cy="46.500000" r="4.000000" fill="#ff0000" /></a><g transform="translate(2140.243902,46.500000) rotate(-30)"><text style="font-size:10px;font-family:OpenSans;fill:#555;" text-anchor="middle" x="0" y="-6.000000">S785C</text></g><a xlink:title=",  (1214aa)"><rect fill="#BABDB6" x="15.000000" y="74.500000" width="3286.682927" height="14.000000"/></a><g transform="translate(25.829268,69.500000)"><a xlink:href="https://www.ebi.ac.uk/interpro/entry/pfam/PF16496" xlink:title="SWIRM-associated domain at the N-terminal"><rect fill="#2DCF00" x="0" y="0" width="360.073171" height="24.000000" filter="url(#ds)"/><text style="font-size:12px;font-family:OpenSans;fill:#ffffff;" text-anchor="middle" x="180.036585" y="16.000000">SWIRM-associated domain at the N-terminal</text></a></g>
<g transform="translate(1189.975610,69.500000)"><a xlink:href="https://www.ebi.ac.uk/interpro/entry/pfam/PF04433" xlink:title="SWIRM domain"><rect fill="#FF5353" x="0" y="0" width="211.170732" height="24.000000" filter="url(#ds)"/><text style="font-size:12px;font-family:OpenSans;fill:#ffffff;" text-anchor="middle" x="105.585366" y="16.000000">SWIRM domain</text></a></g>
<g transform="translate(1639.390244,69.500000)"><a xlink:href="https://www.ebi.ac.uk/interpro/entry/pfam/PF00249" xlink:title="Myb-like DNA-binding domain"><rect fill="#5B5BFF" x="0" y="0" width="111.000000" height="24.000000" filter="url(#ds)"/><text style="font-size:12px;font-family:OpenSans;fill:#ffffff;" text-anchor="middle" x="55.500000" y="16.000000">Myb_DNA-binding</text></a></g>
<g transform="translate(1866.804878,69.500000)"><a xlink:href="https://www.ebi.ac.uk/interpro/entry/pfam/PF16498" xlink:title="SWIRM-associated domain at the C-terminal"><rect fill="#EBD61D" x="0" y="0" width="175.975610" height="24.000000" filter="url(#ds)"/><text style="font-size:12px;font-family:OpenSans;fill:#ffffff;" text-anchor="middle" x="87.987805" y="16.000000">SWIRM-assoc_3</text></a></g>
<g transform="translate(2354.121951,69.500000)"><a xlink:href="https://www.ebi.ac.uk/interpro/entry/pfam/PF16495" xlink:title="SWIRM-associated region 1"><rect fill="#BA21E0" x="0" y="0" width="219.292683" height="24.000000" filter="url(#ds)"/><text style="font-size:12px;font-family:OpenSans;fill:#ffffff;" text-anchor="middle" x="109.646341" y="16.000000">SWIRM-associated region 1</text></a></g>
<g class="axis">
<line x1="15.000000" x2="3301.682927" y1="103.500000" y2="103.500000" stroke="#AAAAAA" /><line x1="15.000000" x2="15.000000" y1="103.500000" y2="108.500000" stroke="#AAAAAA" /><line x1="25.829268" x2="25.829268" y1="103.500000" y2="108.500000" stroke="#AAAAAA" /><text style="font-size:10px;font-family:OpenSans;fill:#000000;" text-anchor="middle" x="25.829268" y="118.500000">4</text><line x1="385.902439" x2="385.902439" y1="103.500000" y2="108.500000" stroke="#AAAAAA" /><text style="font-size:10px;font-family:OpenSans;fill:#000000;" text-anchor="middle" x="385.902439" y="118.500000">137</text><line x1="1189.975610" x2="1189.975610" y1="103.500000" y2="108.500000" stroke="#AAAAAA" /><text style="font-size:10px;font-family:OpenSans;fill:#000000;" text-anchor="middle" x="1189.975610" y="118.500000">434</text><line x1="1401.146341" x2="1401.146341" y1="103.500000" y2="108.500000" stroke="#AAAAAA" /><text style="font-size:10px;font-family:OpenSans;fill:#000000;" text-anchor="middle" x="1401.146341" y="118.500000">512</text><line x1="1639.390244" x2="1639.390244" y1="103.500000" y2="108.500000" stroke="#AAAAAA" /><text style="font-size:10px;font-family:OpenSans;fill:#000000;" text-anchor="middle" x="1639.390244" y="118.500000">600</text><line x1="1750.390244" x2="1750.390244" y1="103.500000" y2="108.500000" stroke="#AAAAAA" /><text style="font-size:10px;font-family:OpenSans;fill:#000000;" text-anchor="middle" x="1750.390244" y="118.500000">641</text><line x1="1866.804878" x2="1866.804878" y1="103.500000" y2="108.500000" stroke="#AAAAAA" /><text style="font-size:10px;font-family:OpenSans;fill:#000000;" text-anchor="middle" x="1866.804878" y="118.500000">684</text><line x1="2053.609756" x2="2053.609756" y1="103.500000" y2="108.500000" stroke="#AAAAAA" /><text style="font-size:10px;font-family:OpenSans;fill:#000000;" text-anchor="middle" x="2053.609756" y="118.500000">753</text><line x1="2137.536585" x2="2137.536585" y1="103.500000" y2="108.500000" stroke="#AAAAAA" /><text style="font-size:10px;font-family:OpenSans;fill:#000000;" text-anchor="middle" x="2137.536585" y="118.500000">784</text><line x1="2354.121951" x2="2354.121951" y1="103.500000" y2="108.500000" stroke="#AAAAAA" /><text style="font-size:10px;font-family:OpenSans;fill:#000000;" text-anchor="middle" x="2354.121951" y="118.500000">864</text><line x1="2573.414634" x2="2573.414634" y1="103.500000" y2="108.500000" stroke="#AAAAAA" /><text style="font-size:10px;font-family:OpenSans;fill:#000000;" text-anchor="middle" x="2573.414634" y="118.500000">945</text><line x1="3301.682927" x2="3301.682927" y1="103.500000" y2="108.500000" stroke="#AAAAAA" /><text style="font-size:10px;font-family:OpenSans;fill:#000000;" text-anchor="middle" x="3301.682927" y="118.500000">1214</text></g>
<rect fill="#5B5BFF" x="4" y="132.500000" width="12" height="12" filter="url(#ds)"/><text style="font-size:12px;font-family:OpenSans;fill:#000000;" text-anchor="start" x="20" y="144.500000">Myb-like DNA-binding domain</text><rect fill="#EBD61D" x="4" y="146.500000" width="12" height="12" filter="url(#ds)"/><text style="font-size:12px;font-family:OpenSans;fill:#000000;" text-anchor="start" x="20" y="158.500000">SWIRM-associated domain at the C-terminal</text></svg>
