<?xml version='1.0'?>
<svg xmlns="http://www.w3.org/2000/svg" xmlns:xlink="http://www.w3.org/1999/xlink" width="836.400000" height="158.700000">
<defs>
  <filter id="ds" x="0" y="0">
    <feOffset in="SourceAlpha" dx="2" dy="2" />
    <feComponentTransfer><feFuncA type="linear" slope="0.2"/></feComponentTransfer>
    <feGaussianBlur result="blurOut" stdDeviation="1" />
    <feBlend in="SourceGraphic" in2="blurOut" mode="normal" />
  </filter>
  <pattern id="disordered-hatch" patternUnits="userSpaceOnUse" width="4" height="4">
    <path d="M-1,1 l2,-2 M0,4 l4,-4 M3,5 l2,-2" stroke="#000000" opacity="0.3" />
  </pattern>
</defs>
<line x1="192.182609" x2="192.182609" y1="46.500000" y2="74.500000" stroke="#BABDB6" stroke-width="2"/><a xlink:title="S283T"><circle cx="192.182609" cy="46.500000" r="4.000000" fill="#ff0000" /></a><g transform="translate(192.182609,46.500000) rotate(-30)"><text style="font-size:10px;font-family:OpenSans;fill:#555;" text-anchor="middle" x="0" y="-6.000000">S283T</text></g><line x1="221.608696" x2="221.608696" y1="46.500000" y2="74.500000" stroke="#BABDB6" stroke-width="2"/><a xlink:title="S330T"><circle cx="221.608696" cy="46.500000" r="4.000000" fill="#ff0000" /></a><g transform="translate(221.608696,46.500000) rotate(-30)"><text style="font-size:10px;font-family:OpenSans;fill:#555;" text-anchor="middle" x="0" y="-6.000000">S330T</text></g><line x1="237.260870" x2="237.260870" y1="46.500000" y2="74.500000" stroke="#BABDB6" stroke-width="2"/><a xlink:title="S355T"><circle cx="237.260870" cy="46.500000" r="4.000000" fill="#ff0000" /></a><g transform="translate(237.260870,46.500000) rotate(-30)"><text style="font-size:10px;font-family:OpenSans;fill:#555;" text-anchor="middle" x="0" y="-6.000000">S355T</text></g><line x1="537.156522" x2="537.156522" y1="34.000000" y2="74.500000" stroke="#BABDB6" stroke-width="2"/><a xlink:title="Q834Q"><circle cx="537.156522" cy="34.000000" r="4.000000" fill="#0000ff" /></a><g transform="translate(537.156522,34.000000) rotate(-30)"><text style="font-size:10px;font-family:OpenSans;fill:#555;" text-anchor="middle" x="0" y="-6.000000">Q834Q</text></g><line x1="540.913043" x2="540.913043" y1="46.500000" y2="74.500000" stroke="#BABDB6" stroke-width="2"/><a xlink:title="Q840Q"><circle cx="540.913043" cy="46.500000" r="4.000000" fill="#0000ff" /></a><g transform="translate(540.913043,46.500000) rotate(-30)"><text style="font-size:10px;font-family:OpenSans;fill:#555;" text-anchor="middle" x="0" y="-6.000000">Q840Q</text></g><line x1="570.339130" x2="570.339130" y1="46.500000" y2="74.500000" stroke="#BABDB6" stroke-width="2"/><a xlink:title="Q887Q"><circle cx="570.339130" cy="46.500000" r="4.000000" fill="#0000ff" /></a><g transform="translate(570.339130,46.500000) rotate(-30)"><text style="font-size:10px;font-family:OpenSans;fill:#555;" text-anchor="middle" x="0" y="-6.000000">Q887Q</text></g><line x1="585.991304" x2="585.991304" y1="46.500000" y2="74.500000" stroke="#BABDB6" stroke-width="2"/><a xlink:title="Q912Q"><circle cx="585.991304" cy="46.500000" r="4.000000" fill="#0000ff" /></a><g transform="translate(585.991304,46.500000) rotate(-30)"><text style="font-size:10px;font-family:OpenSans;fill:#555;" text-anchor="middle" x="0" y="-6.000000">Q912Q</text></g><a xlink:title=",  (1288aa)"><rect fill="#BABDB6" x="15.000000" y="74.500000" width="806.400000" height="14.000000"/></a><g transform="translate(66.965217,69.500000)"><a xlink:href="https://www.ebi.ac.uk/interpro/entry/pfam/PF02463" xlink:title="RecF/RecN/SMC N terminal domain"><rect fill="#2DCF00" x="0" y="0" width="331.200000" height="24.000000" filter="url(#ds)"/><text style="font-size:12px;font-family:OpenSans;fill:#ffffff;" text-anchor="middle" x="165.600000" y="16.000000">RecF/RecN/SMC N terminal domain</text></a></g>
<g transform="translate(398.791304,69.500000)"><a xlink:href="https://www.ebi.ac.uk/interpro/entry/pfam/PF06470" xlink:title="SMC proteins Flexible Hinge Domain"><rect fill="#FF5353" x="0" y="0" width="72.000000" height="24.000000" filter="url(#ds)"/><text style="font-size:12px;font-family:OpenSans;fill:#ffffff;" text-anchor="middle" x="36.000000" y="16.000000">SMC_hinge</text></a></g>
<g transform="translate(471.417391,69.500000)"><a xlink:href="https://www.ebi.ac.uk/interpro/entry/pfam/PF02463" xlink:title="RecF/RecN/SMC N terminal domain"><rect fill="#5B5BFF" x="0" y="0" width="338.713043" height="24.000000" filter="url(#ds)"/><text style="font-size:12px;font-family:OpenSans;fill:#ffffff;" text-anchor="middle" x="169.356522" y="16.000000">RecF/RecN/SMC N terminal domain</text></a></g>
<g class="axis">
<line x1="15.000000" x2="821.400000" y1="103.500000" y2="103.500000" stroke="#AAAAAA" /><line x1="15.000000" x2="15.000000" y1="103.500000" y2="108.500000" stroke="#AAAAAA" /><line x1="15.000000" x2="15.000000" y1="103.500000" y2="108.500000" stroke="#AAAAAA" /><text style="font-size:10px;font-family:OpenSans;fill:#000000;" text-anchor="middle" x="15.000000" y="118.500000">0</text><line x1="66.965217" x2="66.965217" y1="103.500000" y2="108.500000" stroke="#AAAAAA" /><text style="font-size:10px;font-family:OpenSans;fill:#000000;" text-anchor="middle" x="66.965217" y="118.500000">83</text><line x1="192.182609" x2="192.182609" y1="103.500000" y2="108.500000" stroke="#AAAAAA" /><text style="font-size:10px;font-family:OpenSans;fill:#000000;" text-anchor="middle" x="192.182609" y="118.500000">283</text><line x1="221.608696" x2="221.608696" y1="103.500000" y2="108.500000" stroke="#AAAAAA" /><text style="font-size:10px;font-family:OpenSans;fill:#000000;" text-anchor="middle" x="221.608696" y="118.500000">330</text><line x1="398.165217" x2="398.165217" y1="103.500000" y2="108.500000" stroke="#AAAAAA" /><text style="font-size:10px;font-family:OpenSans;fill:#000000;" text-anchor="middle" x="398.165217" y="118.500000">612</text><line x1="470.791304" x2="470.791304" y1="103.500000" y2="108.500000" stroke="#AAAAAA" /><text style="font-size:10px;font-family:OpenSans;fill:#000000;" text-anchor="middle" x="470.791304" y="118.500000">728</text><line x1="537.156522" x2="537.156522" y1="103.500000" y2="108.500000" stroke="#AAAAAA" /><text style="font-size:10px;font-family:OpenSans;fill:#000000;" text-anchor="middle" x="537.156522" y="118.500000">834</text><line x1="570.339130" x2="570.339130" y1="103.500000" y2="108.500000" stroke="#AAAAAA" /><text style="font-size:10px;font-family:OpenSans;fill:#000000;" text-anchor="middle" x="570.339130" y="118.500000">887</text><line x1="821.400000" x2="821.400000" y1="103.500000" y2="108.500000" stroke="#AAAAAA" /><text style="font-size:10px;font-family:OpenSans;fill:#000000;" text-anchor="middle" x="821.400000" y="118.500000">1288</text></g>
<rect fill="#FF5353" x="4" y="132.500000" width="12" height="12" filter="url(#ds)"/><text style="font-size:12px;font-family:OpenSans;fill:#000000;" text-anchor="start" x="20" y="144.500000">SMC proteins Flexible Hinge Domain</text></svg>
