<?xml version='1.0'?>
<svg xmlns="http://www.w3.org/2000/svg" xmlns:xlink="http://www.w3.org/1999/xlink" width="430.000000" height="133.000000">
<defs>
  <filter id="ds" x="0" y="0">
    <feOffset in="SourceAlpha" dx="2" dy="2" />
    <feComponentTransfer><feFuncA type="linear" slope="0.2"/></feComponentTransfer>
    <feGaussianBlur result="blurOut" stdDeviation="1" />
    <feBlend in="SourceGraphic" in2="blurOut" mode="normal" />
  </filter>
  <pattern id="disordered-hatch" patternUnits="userSpaceOnUse" width="4" height="4">
    <path d="M-1,1 l2,-2 M0,4 l4,-4 M3,5 l2,-2" stroke="#000000" opacity="0.3" />
  </pattern>
</defs>
<line x1="245.508475" x2="245.508475" y1="34.000000" y2="62.000000" stroke="#BABDB6" stroke-width="2"/><a xlink:title="V34V"><circle cx="245.508475" cy="34.000000" r="4.000000" fill="#0000ff" /></a><g transform="translate(245.508475,34.000000) rotate(-30)"><text style="font-size:10px;font-family:OpenSans;fill:#555;" text-anchor="middle" x="0" y="-6.000000">V34V</text></g><line x1="265.847458" x2="265.847458" y1="34.000000" y2="62.000000" stroke="#BABDB6" stroke-width="2"/><a xlink:title="T37T"><circle cx="265.847458" cy="34.000000" r="4.000000" fill="#0000ff" /></a><g transform="translate(265.847458,34.000000) rotate(-30)"><text style="font-size:10px;font-family:OpenSans;fill:#555;" text-anchor="middle" x="0" y="-6.000000">T37T</text></g><line x1="326.864407" x2="326.864407" y1="34.000000" y2="62.000000" stroke="#BABDB6" stroke-width="2"/><a xlink:title="V46V"><circle cx="326.864407" cy="34.000000" r="4.000000" fill="#0000ff" /></a><g transform="translate(326.864407,34.000000) rotate(-30)"><text style="font-size:10px;font-family:OpenSans;fill:#555;" text-anchor="middle" x="0" y="-6.000000">V46V</text></g><line x1="618.389831" x2="618.389831" y1="34.000000" y2="62.000000" stroke="#BABDB6" stroke-width="2"/><a xlink:title="A89T"><circle cx="618.389831" cy="34.000000" r="4.000000" fill="#ff0000" /></a><g transform="translate(618.389831,34.000000) rotate(-30)"><text style="font-size:10px;font-family:OpenSans;fill:#555;" text-anchor="middle" x="0" y="-6.000000">A89T</text></g><line x1="638.728814" x2="638.728814" y1="34.000000" y2="62.000000" stroke="#BABDB6" stroke-width="2"/><a xlink:title="A92T"><circle cx="638.728814" cy="34.000000" r="4.000000" fill="#ff0000" /></a><g transform="translate(638.728814,34.000000) rotate(-30)"><text style="font-size:10px;font-family:OpenSans;fill:#555;" text-anchor="middle" x="0" y="-6.000000">A92T</text></g><line x1="652.288136" x2="652.288136" y1="34.000000" y2="62.000000" stroke="#BABDB6" stroke-width="2"/><a xlink:title="A94T"><circle cx="652.288136" cy="34.000000" r="4.000000" fill="#ff0000" /></a><g transform="translate(652.288136,34.000000) rotate(-30)"><text style="font-size:10px;font-family:OpenSans;fill:#555;" text-anchor="middle" x="0" y="-6.000000">A94T</text></g><line x1="672.627119" x2="672.627119" y1="34.000000" y2="62.000000" stroke="#BABDB6" stroke-width="2"/><a xlink:title="A97T"><circle cx="672.627119" cy="34.000000" r="4.000000" fill="#ff0000" /></a><g transform="translate(672.627119,34.000000) rotate(-30)"><text style="font-size:10px;font-family:OpenSans;fill:#555;" text-anchor="middle" x="0" y="-6.000000">A97T</text></g><line x1="699.745763" x2="699.745763" y1="34.000000" y2="62.000000" stroke="#BABDB6" stroke-width="2"/><a xlink:title="G101S"><circle cx="699.745763" cy="34.000000" r="4.000000" fill="#ff0000" /></a><g transform="translate(699.745763,34.000000) rotate(-30)"><text style="font-size:10px;font-family:OpenSans;fill:#555;" text-anchor="middle" x="0" y="-6.000000">G101S</text></g><line x1="733.644068" x2="733.644068" y1="34.000000" y2="62.000000" stroke="#BABDB6" stroke-width="2"/><a xlink:title="G106S"><circle cx="733.644068" cy="34.000000" r="4.000000" fill="#ff0000" /></a><g transform="translate(733.644068,34.000000) rotate(-30)"><text style="font-size:10px;font-family:OpenSans;fill:#555;" text-anchor="middle" x="0" y="-6.000000">G106S</text></g><line x1="828.559322" x2="828.559322" y1="34.000000" y2="62.000000" stroke="#BABDB6" stroke-width="2"/><a xlink:title="C120R"><circle cx="828.559322" cy="34.000000" r="4.000000" fill="#ff0000" /></a><g transform="translate(828.559322,34.000000) rotate(-30)"><text style="font-size:10px;font-family:OpenSans;fill:#555;" text-anchor="middle" x="0" y="-6.000000">C120R</text></g><line x1="848.898305" x2="848.898305" y1="34.000000" y2="62.000000" stroke="#BABDB6" stroke-width="2"/><a xlink:title="A123T"><circle cx="848.898305" cy="34.000000" r="4.000000" fill="#ff0000" /></a><g transform="translate(848.898305,34.000000) rotate(-30)"><text style="font-size:10px;font-family:OpenSans;fill:#555;" text-anchor="middle" x="0" y="-6.000000">A123T</text></g><line x1="862.457627" x2="862.457627" y1="34.000000" y2="62.000000" stroke="#BABDB6" stroke-width="2"/><a xlink:title="C125R"><circle cx="862.457627" cy="34.000000" r="4.000000" fill="#ff0000" /></a><g transform="translate(862.457627,34.000000) rotate(-30)"><text style="font-size:10px;font-family:OpenSans;fill:#555;" text-anchor="middle" x="0" y="-6.000000">C125R</text></g><line x1="869.237288" x2="869.237288" y1="34.000000" y2="62.000000" stroke="#BABDB6" stroke-width="2"/><a xlink:title="A126T"><circle cx="869.237288" cy="34.000000" r="4.000000" fill="#ff0000" /></a><g transform="translate(869.237288,34.000000) rotate(-30)"><text style="font-size:10px;font-family:OpenSans;fill:#555;" text-anchor="middle" x="0" y="-6.000000">A126T</text></g><line x1="882.796610" x2="882.796610" y1="34.000000" y2="62.000000" stroke="#BABDB6" stroke-width="2"/><a xlink:title="A128T"><circle cx="882.796610" cy="34.000000" r="4.000000" fill="#ff0000" /></a><g transform="translate(882.796610,34.000000) rotate(-30)"><text style="font-size:10px;font-family:OpenSans;fill:#555;" text-anchor="middle" x="0" y="-6.000000">A128T</text></g><line x1="903.135593" x2="903.135593" y1="34.000000" y2="62.000000" stroke="#BABDB6" stroke-width="2"/><a xlink:title="A131T"><circle cx="903.135593" cy="34.000000" r="4.000000" fill="#ff0000" /></a><g transform="translate(903.135593,34.000000) rotate(-30)"><text style="font-size:10px;font-family:OpenSans;fill:#555;" text-anchor="middle" x="0" y="-6.000000">A131T</text></g><line x1="930.254237" x2="930.254237" y1="34.000000" y2="62.000000" stroke="#BABDB6" stroke-width="2"/><a xlink:title="G135S"><circle cx="930.254237" cy="34.000000" r="4.000000" fill="#ff0000" /></a><g transform="translate(930.254237,34.000000) rotate(-30)"><text style="font-size:10px;font-family:OpenSans;fill:#555;" text-anchor="middle" x="0" y="-6.000000">G135S</text></g><line x1="964.152542" x2="964.152542" y1="34.000000" y2="62.000000" stroke="#BABDB6" stroke-width="2"/><a xlink:title="G140S"><circle cx="964.152542" cy="34.000000" r="4.000000" fill="#ff0000" /></a><g transform="translate(964.152542,34.000000) rotate(-30)"><text style="font-size:10px;font-family:OpenSans;fill:#555;" text-anchor="middle" x="0" y="-6.000000">G140S</text></g><line x1="1059.067797" x2="1059.067797" y1="34.000000" y2="62.000000" stroke="#BABDB6" stroke-width="2"/><a xlink:title="C154R"><circle cx="1059.067797" cy="34.000000" r="4.000000" fill="#ff0000" /></a><g transform="translate(1059.067797,34.000000) rotate(-30)"><text style="font-size:10px;font-family:OpenSans;fill:#555;" text-anchor="middle" x="0" y="-6.000000">C154R</text></g><line x1="1092.966102" x2="1092.966102" y1="34.000000" y2="62.000000" stroke="#BABDB6" stroke-width="2"/><a xlink:title="C159R"><circle cx="1092.966102" cy="34.000000" r="4.000000" fill="#ff0000" /></a><g transform="translate(1092.966102,34.000000) rotate(-30)"><text style="font-size:10px;font-family:OpenSans;fill:#555;" text-anchor="middle" x="0" y="-6.000000">C159R</text></g><a xlink:title=",  (59aa)"><rect fill="#BABDB6" x="15.000000" y="62.000000" width="400.000000" height="14.000000"/></a><g transform="translate(21.779661,57.000000)"><a xlink:href="https://www.ebi.ac.uk/interpro/entry/pfam/PF15012" xlink:title="Domain of unknown function (DUF4519)"><rect fill="#2DCF00" x="0" y="0" width="366.101695" height="24.000000" filter="url(#ds)"/><text style="font-size:12px;font-family:OpenSans;fill:#ffffff;" text-anchor="middle" x="183.050847" y="16.000000">Domain of unknown function (DUF4519)</text></a></g>
<g class="axis">
<line x1="15.000000" x2="415.000000" y1="91.000000" y2="91.000000" stroke="#AAAAAA" /><line x1="15.000000" x2="15.000000" y1="91.000000" y2="96.000000" stroke="#AAAAAA" /><line x1="21.779661" x2="21.779661" y1="91.000000" y2="96.000000" stroke="#AAAAAA" /><text style="font-size:10px;font-family:OpenSans;fill:#000000;" text-anchor="middle" x="21.779661" y="106.000000">1</text><line x1="245.508475" x2="245.508475" y1="91.000000" y2="96.000000" stroke="#AAAAAA" /><text style="font-size:10px;font-family:OpenSans;fill:#000000;" text-anchor="middle" x="245.508475" y="106.000000">34</text><line x1="265.847458" x2="265.847458" y1="91.000000" y2="96.000000" stroke="#AAAAAA" /><text style="font-size:10px;font-family:OpenSans;fill:#000000;" text-anchor="middle" x="265.847458" y="106.000000">37</text><line x1="326.864407" x2="326.864407" y1="91.000000" y2="96.000000" stroke="#AAAAAA" /><text style="font-size:10px;font-family:OpenSans;fill:#000000;" text-anchor="middle" x="326.864407" y="106.000000">46</text><line x1="387.881356" x2="387.881356" y1="91.000000" y2="96.000000" stroke="#AAAAAA" /><text style="font-size:10px;font-family:OpenSans;fill:#000000;" text-anchor="middle" x="387.881356" y="106.000000">55</text><line x1="415.000000" x2="415.000000" y1="91.000000" y2="96.000000" stroke="#AAAAAA" /><text style="font-size:10px;font-family:OpenSans;fill:#000000;" text-anchor="middle" x="415.000000" y="106.000000">59</text><line x1="618.389831" x2="618.389831" y1="91.000000" y2="96.000000" stroke="#AAAAAA" /><text style="font-size:10px;font-family:OpenSans;fill:#000000;" text-anchor="middle" x="618.389831" y="106.000000">89</text><line x1="638.728814" x2="638.728814" y1="91.000000" y2="96.000000" stroke="#AAAAAA" /><text style="font-size:10px;font-family:OpenSans;fill:#000000;" text-anchor="middle" x="638.728814" y="106.000000">92</text><line x1="652.288136" x2="652.288136" y1="91.000000" y2="96.000000" stroke="#AAAAAA" /><text style="font-size:10px;font-family:OpenSans;fill:#000000;" text-anchor="middle" x="652.288136" y="106.000000">94</text><line x1="672.627119" x2="672.627119" y1="91.000000" y2="96.000000" stroke="#AAAAAA" /><text style="font-size:10px;font-family:OpenSans;fill:#000000;" text-anchor="middle" x="672.627119" y="106.000000">97</text><line x1="699.745763" x2="699.745763" y1="91.000000" y2="96.000000" stroke="#AAAAAA" /><text style="font-size:10px;font-family:OpenSans;fill:#000000;" text-anchor="middle" x="699.745763" y="106.000000">101</text><line x1="733.644068" x2="733.644068" y1="91.000000" y2="96.000000" stroke="#AAAAAA" /><text style="font-size:10px;font-family:OpenSans;fill:#000000;" text-anchor="middle" x="733.644068" y="106.000000">106</text><line x1="828.559322" x2="828.559322" y1="91.000000" y2="96.000000" stroke="#AAAAAA" /><text style="font-size:10px;font-family:OpenSans;fill:#000000;" text-anchor="middle" x="828.559322" y="106.000000">120</text><line x1="848.898305" x2="848.898305" y1="91.000000" y2="96.000000" stroke="#AAAAAA" /><text style="font-size:10px;font-family:OpenSans;fill:#000000;" text-anchor="middle" x="848.898305" y="106.000000">123</text><line x1="862.457627" x2="862.457627" y1="91.000000" y2="96.000000" stroke="#AAAAAA" /><text style="font-size:10px;font-family:OpenSans;fill:#000000;" text-anchor="middle" x="862.457627" y="106.000000">125</text><line x1="882.796610" x2="882.796610" y1="91.000000" y2="96.000000" stroke="#AAAAAA" /><text style="font-size:10px;font-family:OpenSans;fill:#000000;" text-anchor="middle" x="882.796610" y="106.000000">128</text><line x1="903.135593" x2="903.135593" y1="91.000000" y2="96.000000" stroke="#AAAAAA" /><text style="font-size:10px;font-family:OpenSans;fill:#000000;" text-anchor="middle" x="903.135593" y="106.000000">131</text><line x1="930.254237" x2="930.254237" y1="91.000000" y2="96.000000" stroke="#AAAAAA" /><text style="font-size:10px;font-family:OpenSans;fill:#000000;" text-anchor="middle" x="930.254237" y="106.000000">135</text><line x1="964.152542" x2="964.152542" y1="91.000000" y2="96.000000" stroke="#AAAAAA" /><text style="font-size:10px;font-family:OpenSans;fill:#000000;" text-anchor="middle" x="964.152542" y="106.000000">140</text><line x1="1059.067797" x2="1059.067797" y1="91.000000" y2="96.000000" stroke="#AAAAAA" /><text style="font-size:10px;font-family:OpenSans;fill:#000000;" text-anchor="middle" x="1059.067797" y="106.000000">154</text><line x1="1092.966102" x2="1092.966102" y1="91.000000" y2="96.000000" stroke="#AAAAAA" /><text style="font-size:10px;font-family:OpenSans;fill:#000000;" text-anchor="middle" x="1092.966102" y="106.000000">159</text></g>
</svg>
