<?xml version='1.0'?>
<svg xmlns="http://www.w3.org/2000/svg" xmlns:xlink="http://www.w3.org/1999/xlink" width="549.177570" height="159.400000">
<defs>
  <filter id="ds" x="0" y="0">
    <feOffset in="SourceAlpha" dx="2" dy="2" />
    <feComponentTransfer><feFuncA type="linear" slope="0.2"/></feComponentTransfer>
    <feGaussianBlur result="blurOut" stdDeviation="1" />
    <feBlend in="SourceGraphic" in2="blurOut" mode="normal" />
  </filter>
  <pattern id="disordered-hatch" patternUnits="userSpaceOnUse" width="4" height="4">
    <path d="M-1,1 l2,-2 M0,4 l4,-4 M3,5 l2,-2" stroke="#000000" opacity="0.3" />
  </pattern>
</defs>
<line x1="15.523364" x2="15.523364" y1="34.000000" y2="62.000000" stroke="#BABDB6" stroke-width="2"/><a xlink:title="M1t1?"><circle cx="15.523364" cy="34.000000" r="4.000000" fill="#ff0000" /></a><g transform="translate(15.523364,34.000000) rotate(-30)"><text style="font-size:10px;font-family:OpenSans;fill:#555;" text-anchor="middle" x="0" y="-6.000000">M1t1?</text></g><line x1="77.803738" x2="77.803738" y1="34.000000" y2="62.000000" stroke="#BABDB6" stroke-width="2"/><a xlink:title="S120S"><circle cx="77.803738" cy="34.000000" r="4.000000" fill="#0000ff" /></a><g transform="translate(77.803738,34.000000) rotate(-30)"><text style="font-size:10px;font-family:OpenSans;fill:#555;" text-anchor="middle" x="0" y="-6.000000">S120S</text></g><line x1="232.719626" x2="232.719626" y1="34.000000" y2="62.000000" stroke="#BABDB6" stroke-width="2"/><a xlink:title="G416C"><circle cx="232.719626" cy="34.000000" r="4.000000" fill="#ff0000" /></a><g transform="translate(232.719626,34.000000) rotate(-30)"><text style="font-size:10px;font-family:OpenSans;fill:#555;" text-anchor="middle" x="0" y="-6.000000">G416C</text></g><a xlink:title=",  (992aa)"><rect fill="#BABDB6" x="15.000000" y="62.000000" width="519.177570" height="14.000000"/></a><g transform="translate(65.766355,57.000000)"><a xlink:href="https://www.ebi.ac.uk/interpro/entry/pfam/PF02194" xlink:title="PXA domain"><rect fill="#2DCF00" x="0" y="0" width="87.925234" height="24.000000" filter="url(#ds)"/><text style="font-size:12px;font-family:OpenSans;fill:#ffffff;" text-anchor="middle" x="43.962617" y="16.000000">PXA domain</text></a></g>
<g transform="translate(314.364486,57.000000)"><a xlink:href="https://www.ebi.ac.uk/interpro/entry/pfam/PF00787" xlink:title="PX domain"><rect fill="#FF5353" x="0" y="0" width="44.485981" height="24.000000" filter="url(#ds)"/><text style="font-size:12px;font-family:OpenSans;fill:#ffffff;" text-anchor="middle" x="22.242991" y="16.000000">PX</text></a></g>
<g transform="translate(453.579439,57.000000)"><a xlink:href="https://www.ebi.ac.uk/interpro/entry/pfam/PF08628" xlink:title="Sorting nexin C terminal"><rect fill="#5B5BFF" x="0" y="0" width="56.000000" height="24.000000" filter="url(#ds)"/><text style="font-size:12px;font-family:OpenSans;fill:#ffffff;" text-anchor="middle" x="28.000000" y="16.000000">Nexin_C</text></a></g>
<g class="axis">
<line x1="15.000000" x2="534.177570" y1="91.000000" y2="91.000000" stroke="#AAAAAA" /><line x1="15.000000" x2="15.000000" y1="91.000000" y2="96.000000" stroke="#AAAAAA" /><line x1="15.523364" x2="15.523364" y1="91.000000" y2="96.000000" stroke="#AAAAAA" /><text style="font-size:10px;font-family:OpenSans;fill:#000000;" text-anchor="middle" x="15.523364" y="106.000000">1</text><line x1="77.803738" x2="77.803738" y1="91.000000" y2="96.000000" stroke="#AAAAAA" /><text style="font-size:10px;font-family:OpenSans;fill:#000000;" text-anchor="middle" x="77.803738" y="106.000000">120</text><line x1="153.691589" x2="153.691589" y1="91.000000" y2="96.000000" stroke="#AAAAAA" /><text style="font-size:10px;font-family:OpenSans;fill:#000000;" text-anchor="middle" x="153.691589" y="106.000000">265</text><line x1="232.719626" x2="232.719626" y1="91.000000" y2="96.000000" stroke="#AAAAAA" /><text style="font-size:10px;font-family:OpenSans;fill:#000000;" text-anchor="middle" x="232.719626" y="106.000000">416</text><line x1="314.364486" x2="314.364486" y1="91.000000" y2="96.000000" stroke="#AAAAAA" /><text style="font-size:10px;font-family:OpenSans;fill:#000000;" text-anchor="middle" x="314.364486" y="106.000000">572</text><line x1="358.850467" x2="358.850467" y1="91.000000" y2="96.000000" stroke="#AAAAAA" /><text style="font-size:10px;font-family:OpenSans;fill:#000000;" text-anchor="middle" x="358.850467" y="106.000000">657</text><line x1="453.579439" x2="453.579439" y1="91.000000" y2="96.000000" stroke="#AAAAAA" /><text style="font-size:10px;font-family:OpenSans;fill:#000000;" text-anchor="middle" x="453.579439" y="106.000000">838</text><line x1="509.579439" x2="509.579439" y1="91.000000" y2="96.000000" stroke="#AAAAAA" /><text style="font-size:10px;font-family:OpenSans;fill:#000000;" text-anchor="middle" x="509.579439" y="106.000000">945</text><line x1="534.177570" x2="534.177570" y1="91.000000" y2="96.000000" stroke="#AAAAAA" /><text style="font-size:10px;font-family:OpenSans;fill:#000000;" text-anchor="middle" x="534.177570" y="106.000000">992</text></g>
<rect fill="#FF5353" x="4" y="120.000000" width="12" height="12" filter="url(#ds)"/><text style="font-size:12px;font-family:OpenSans;fill:#000000;" text-anchor="start" x="20" y="132.000000">PX domain</text><rect fill="#5B5BFF" x="4" y="134.000000" width="12" height="12" filter="url(#ds)"/><text style="font-size:12px;font-family:OpenSans;fill:#000000;" text-anchor="start" x="20" y="146.000000">Sorting nexin C terminal</text></svg>
