<?xml version='1.0'?>
<svg xmlns="http://www.w3.org/2000/svg" xmlns:xlink="http://www.w3.org/1999/xlink" width="504.771084" height="185.100000">
<defs>
  <filter id="ds" x="0" y="0">
    <feOffset in="SourceAlpha" dx="2" dy="2" />
    <feComponentTransfer><feFuncA type="linear" slope="0.2"/></feComponentTransfer>
    <feGaussianBlur result="blurOut" stdDeviation="1" />
    <feBlend in="SourceGraphic" in2="blurOut" mode="normal" />
  </filter>
  <pattern id="disordered-hatch" patternUnits="userSpaceOnUse" width="4" height="4">
    <path d="M-1,1 l2,-2 M0,4 l4,-4 M3,5 l2,-2" stroke="#000000" opacity="0.3" />
  </pattern>
</defs>
<line x1="47.361446" x2="47.361446" y1="46.500000" y2="74.500000" stroke="#BABDB6" stroke-width="2"/><a xlink:title="G79S"><circle cx="47.361446" cy="46.500000" r="4.000000" fill="#ff0000" /></a><g transform="translate(47.361446,46.500000) rotate(-30)"><text style="font-size:10px;font-family:OpenSans;fill:#555;" text-anchor="middle" x="0" y="-6.000000">G79S</text></g><line x1="72.349398" x2="72.349398" y1="46.500000" y2="74.500000" stroke="#BABDB6" stroke-width="2"/><a xlink:title="N140N"><circle cx="72.349398" cy="46.500000" r="4.000000" fill="#0000ff" /></a><g transform="translate(72.349398,46.500000) rotate(-30)"><text style="font-size:10px;font-family:OpenSans;fill:#555;" text-anchor="middle" x="0" y="-6.000000">N140N</text></g><line x1="208.349398" x2="208.349398" y1="46.500000" y2="74.500000" stroke="#BABDB6" stroke-width="2"/><a xlink:title="N472N"><circle cx="208.349398" cy="46.500000" r="4.000000" fill="#0000ff" /></a><g transform="translate(208.349398,46.500000) rotate(-30)"><text style="font-size:10px;font-family:OpenSans;fill:#555;" text-anchor="middle" x="0" y="-6.000000">N472N</text></g><line x1="228.012048" x2="228.012048" y1="46.500000" y2="74.500000" stroke="#BABDB6" stroke-width="2"/><a xlink:title="V520I"><circle cx="228.012048" cy="46.500000" r="4.000000" fill="#ff0000" /></a><g transform="translate(228.012048,46.500000) rotate(-30)"><text style="font-size:10px;font-family:OpenSans;fill:#555;" text-anchor="middle" x="0" y="-6.000000">V520I</text></g><line x1="324.277108" x2="324.277108" y1="46.500000" y2="74.500000" stroke="#BABDB6" stroke-width="2"/><a xlink:title="F755S"><circle cx="324.277108" cy="46.500000" r="4.000000" fill="#ff0000" /></a><g transform="translate(324.277108,46.500000) rotate(-30)"><text style="font-size:10px;font-family:OpenSans;fill:#555;" text-anchor="middle" x="0" y="-6.000000">F755S</text></g><line x1="364.012048" x2="364.012048" y1="46.500000" y2="74.500000" stroke="#BABDB6" stroke-width="2"/><a xlink:title="V852I"><circle cx="364.012048" cy="46.500000" r="4.000000" fill="#ff0000" /></a><g transform="translate(364.012048,46.500000) rotate(-30)"><text style="font-size:10px;font-family:OpenSans;fill:#555;" text-anchor="middle" x="0" y="-6.000000">V852I</text></g><line x1="460.277108" x2="460.277108" y1="46.500000" y2="74.500000" stroke="#BABDB6" stroke-width="2"/><a xlink:title="F1087S"><circle cx="460.277108" cy="46.500000" r="4.000000" fill="#ff0000" /></a><g transform="translate(460.277108,46.500000) rotate(-30)"><text style="font-size:10px;font-family:OpenSans;fill:#555;" text-anchor="middle" x="0" y="-6.000000">F1087S</text></g><line x1="487.722892" x2="487.722892" y1="34.000000" y2="74.500000" stroke="#BABDB6" stroke-width="2"/><a xlink:title="P1154R"><circle cx="487.722892" cy="34.000000" r="4.000000" fill="#ff0000" /></a><g transform="translate(487.722892,34.000000) rotate(-30)"><text style="font-size:10px;font-family:OpenSans;fill:#555;" text-anchor="middle" x="0" y="-6.000000">P1154R</text></g><line x1="488.132530" x2="488.132530" y1="46.500000" y2="74.500000" stroke="#BABDB6" stroke-width="2"/><a xlink:title="P1155R"><circle cx="488.132530" cy="46.500000" r="4.000000" fill="#ff0000" /></a><g transform="translate(488.132530,46.500000) rotate(-30)"><text style="font-size:10px;font-family:OpenSans;fill:#555;" text-anchor="middle" x="0" y="-6.000000">P1155R</text></g><a xlink:title=",  (1159aa)"><rect fill="#BABDB6" x="15.000000" y="74.500000" width="474.771084" height="14.000000"/></a><g transform="translate(88.734940,69.500000)"><a xlink:href="https://www.ebi.ac.uk/interpro/entry/pfam/PF15902" xlink:title="Sortilin, neurotensin receptor 3,"><rect fill="#2DCF00" x="0" y="0" width="176.554217" height="24.000000" filter="url(#ds)"/><text style="font-size:12px;font-family:OpenSans;fill:#ffffff;" text-anchor="middle" x="88.277108" y="16.000000">Sortilin-Vps10</text></a></g>
<g transform="translate(266.518072,69.500000)"><a xlink:href="https://www.ebi.ac.uk/interpro/entry/pfam/PF15901" xlink:title="Sortilin, neurotensin receptor 3, C-terminal"><rect fill="#FF5353" x="0" y="0" width="65.951807" height="24.000000" filter="url(#ds)"/><text style="font-size:12px;font-family:OpenSans;fill:#ffffff;" text-anchor="middle" x="32.975904" y="16.000000">Sortilin_C</text></a></g>
<g transform="translate(336.975904,69.500000)"><a xlink:href="https://www.ebi.ac.uk/interpro/entry/pfam/PF00801" xlink:title="PKD domain"><rect fill="#5B5BFF" x="0" y="0" width="34.000000" height="24.000000" filter="url(#ds)"/><text style="font-size:12px;font-family:OpenSans;fill:#ffffff;" text-anchor="middle" x="17.000000" y="16.000000">PKD</text></a></g>
<g class="axis">
<line x1="15.000000" x2="489.771084" y1="103.500000" y2="103.500000" stroke="#AAAAAA" /><line x1="15.000000" x2="15.000000" y1="103.500000" y2="108.500000" stroke="#AAAAAA" /><line x1="15.000000" x2="15.000000" y1="103.500000" y2="108.500000" stroke="#AAAAAA" /><text style="font-size:10px;font-family:OpenSans;fill:#000000;" text-anchor="middle" x="15.000000" y="118.500000">0</text><line x1="47.361446" x2="47.361446" y1="103.500000" y2="108.500000" stroke="#AAAAAA" /><text style="font-size:10px;font-family:OpenSans;fill:#000000;" text-anchor="middle" x="47.361446" y="118.500000">79</text><line x1="72.349398" x2="72.349398" y1="103.500000" y2="108.500000" stroke="#AAAAAA" /><text style="font-size:10px;font-family:OpenSans;fill:#000000;" text-anchor="middle" x="72.349398" y="118.500000">140</text><line x1="208.349398" x2="208.349398" y1="103.500000" y2="108.500000" stroke="#AAAAAA" /><text style="font-size:10px;font-family:OpenSans;fill:#000000;" text-anchor="middle" x="208.349398" y="118.500000">472</text><line x1="228.012048" x2="228.012048" y1="103.500000" y2="108.500000" stroke="#AAAAAA" /><text style="font-size:10px;font-family:OpenSans;fill:#000000;" text-anchor="middle" x="228.012048" y="118.500000">520</text><line x1="265.289157" x2="265.289157" y1="103.500000" y2="108.500000" stroke="#AAAAAA" /><text style="font-size:10px;font-family:OpenSans;fill:#000000;" text-anchor="middle" x="265.289157" y="118.500000">611</text><line x1="324.277108" x2="324.277108" y1="103.500000" y2="108.500000" stroke="#AAAAAA" /><text style="font-size:10px;font-family:OpenSans;fill:#000000;" text-anchor="middle" x="324.277108" y="118.500000">755</text><line x1="364.012048" x2="364.012048" y1="103.500000" y2="108.500000" stroke="#AAAAAA" /><text style="font-size:10px;font-family:OpenSans;fill:#000000;" text-anchor="middle" x="364.012048" y="118.500000">852</text><line x1="460.277108" x2="460.277108" y1="103.500000" y2="108.500000" stroke="#AAAAAA" /><text style="font-size:10px;font-family:OpenSans;fill:#000000;" text-anchor="middle" x="460.277108" y="118.500000">1087</text><line x1="489.771084" x2="489.771084" y1="103.500000" y2="108.500000" stroke="#AAAAAA" /><text style="font-size:10px;font-family:OpenSans;fill:#000000;" text-anchor="middle" x="489.771084" y="118.500000">1159</text></g>
<rect fill="#FF5353" x="4" y="132.500000" width="12" height="12" filter="url(#ds)"/><text style="font-size:12px;font-family:OpenSans;fill:#000000;" text-anchor="start" x="20" y="144.500000">Sortilin, neurotensin receptor 3, C-terminal</text><rect fill="#5B5BFF" x="4" y="146.500000" width="12" height="12" filter="url(#ds)"/><text style="font-size:12px;font-family:OpenSans;fill:#000000;" text-anchor="start" x="20" y="158.500000">PKD domain</text><rect fill="#2DCF00" x="4" y="160.500000" width="12" height="12" filter="url(#ds)"/><text style="font-size:12px;font-family:OpenSans;fill:#000000;" text-anchor="start" x="20" y="172.500000">Sortilin, neurotensin receptor 3,</text></svg>
