<?xml version='1.0'?>
<svg xmlns="http://www.w3.org/2000/svg" xmlns:xlink="http://www.w3.org/1999/xlink" width="1009.600000" height="171.200000">
<defs>
  <filter id="ds" x="0" y="0">
    <feOffset in="SourceAlpha" dx="2" dy="2" />
    <feComponentTransfer><feFuncA type="linear" slope="0.2"/></feComponentTransfer>
    <feGaussianBlur result="blurOut" stdDeviation="1" />
    <feBlend in="SourceGraphic" in2="blurOut" mode="normal" />
  </filter>
  <pattern id="disordered-hatch" patternUnits="userSpaceOnUse" width="4" height="4">
    <path d="M-1,1 l2,-2 M0,4 l4,-4 M3,5 l2,-2" stroke="#000000" opacity="0.3" />
  </pattern>
</defs>
<line x1="61.682353" x2="61.682353" y1="59.000000" y2="87.000000" stroke="#BABDB6" stroke-width="2"/><a xlink:title="R64H"><circle cx="61.682353" cy="59.000000" r="4.000000" fill="#ff0000" /></a><g transform="translate(61.682353,59.000000) rotate(-30)"><text style="font-size:10px;font-family:OpenSans;fill:#555;" text-anchor="middle" x="0" y="-6.000000">R64H</text></g><line x1="301.658824" x2="301.658824" y1="59.000000" y2="87.000000" stroke="#BABDB6" stroke-width="2"/><a xlink:title="P393P"><circle cx="301.658824" cy="59.000000" r="4.000000" fill="#0000ff" /></a><g transform="translate(301.658824,59.000000) rotate(-30)"><text style="font-size:10px;font-family:OpenSans;fill:#555;" text-anchor="middle" x="0" y="-6.000000">P393P</text></g><line x1="310.411765" x2="310.411765" y1="59.000000" y2="87.000000" stroke="#BABDB6" stroke-width="2"/><a xlink:title="P405P"><circle cx="310.411765" cy="59.000000" r="4.000000" fill="#0000ff" /></a><g transform="translate(310.411765,59.000000) rotate(-30)"><text style="font-size:10px;font-family:OpenSans;fill:#555;" text-anchor="middle" x="0" y="-6.000000">P405P</text></g><line x1="321.352941" x2="321.352941" y1="59.000000" y2="87.000000" stroke="#BABDB6" stroke-width="2"/><a xlink:title="P420L"><circle cx="321.352941" cy="59.000000" r="4.000000" fill="#ff0000" /></a><g transform="translate(321.352941,59.000000) rotate(-30)"><text style="font-size:10px;font-family:OpenSans;fill:#555;" text-anchor="middle" x="0" y="-6.000000">P420L</text></g><line x1="328.647059" x2="328.647059" y1="34.000000" y2="87.000000" stroke="#BABDB6" stroke-width="2"/><a xlink:title="N430N"><circle cx="328.647059" cy="34.000000" r="4.000000" fill="#0000ff" /></a><g transform="translate(328.647059,34.000000) rotate(-30)"><text style="font-size:10px;font-family:OpenSans;fill:#555;" text-anchor="middle" x="0" y="-6.000000">N430N</text></g><line x1="329.376471" x2="329.376471" y1="46.500000" y2="87.000000" stroke="#BABDB6" stroke-width="2"/><a xlink:title="A431A"><circle cx="329.376471" cy="46.500000" r="4.000000" fill="#0000ff" /></a><g transform="translate(329.376471,46.500000) rotate(-30)"><text style="font-size:10px;font-family:OpenSans;fill:#555;" text-anchor="middle" x="0" y="-6.000000">A431A</text></g><line x1="330.105882" x2="330.105882" y1="59.000000" y2="87.000000" stroke="#BABDB6" stroke-width="2"/><a xlink:title="P432L"><circle cx="330.105882" cy="59.000000" r="4.000000" fill="#ff0000" /></a><g transform="translate(330.105882,59.000000) rotate(-30)"><text style="font-size:10px;font-family:OpenSans;fill:#555;" text-anchor="middle" x="0" y="-6.000000">P432L</text></g><line x1="337.400000" x2="337.400000" y1="46.500000" y2="87.000000" stroke="#BABDB6" stroke-width="2"/><a xlink:title="N442N"><circle cx="337.400000" cy="46.500000" r="4.000000" fill="#0000ff" /></a><g transform="translate(337.400000,46.500000) rotate(-30)"><text style="font-size:10px;font-family:OpenSans;fill:#555;" text-anchor="middle" x="0" y="-6.000000">N442N</text></g><line x1="338.129412" x2="338.129412" y1="59.000000" y2="87.000000" stroke="#BABDB6" stroke-width="2"/><a xlink:title="A443A"><circle cx="338.129412" cy="59.000000" r="4.000000" fill="#0000ff" /></a><g transform="translate(338.129412,59.000000) rotate(-30)"><text style="font-size:10px;font-family:OpenSans;fill:#555;" text-anchor="middle" x="0" y="-6.000000">A443A</text></g><line x1="469.423529" x2="469.423529" y1="59.000000" y2="87.000000" stroke="#BABDB6" stroke-width="2"/><a xlink:title="R623G"><circle cx="469.423529" cy="59.000000" r="4.000000" fill="#ff0000" /></a><g transform="translate(469.423529,59.000000) rotate(-30)"><text style="font-size:10px;font-family:OpenSans;fill:#555;" text-anchor="middle" x="0" y="-6.000000">R623G</text></g><line x1="478.176471" x2="478.176471" y1="46.500000" y2="87.000000" stroke="#BABDB6" stroke-width="2"/><a xlink:title="R635G"><circle cx="478.176471" cy="46.500000" r="4.000000" fill="#ff0000" /></a><g transform="translate(478.176471,46.500000) rotate(-30)"><text style="font-size:10px;font-family:OpenSans;fill:#555;" text-anchor="middle" x="0" y="-6.000000">R635G</text></g><line x1="484.011765" x2="484.011765" y1="59.000000" y2="87.000000" stroke="#BABDB6" stroke-width="2"/><a xlink:title="T643M"><circle cx="484.011765" cy="59.000000" r="4.000000" fill="#ff0000" /></a><g transform="translate(484.011765,59.000000) rotate(-30)"><text style="font-size:10px;font-family:OpenSans;fill:#555;" text-anchor="middle" x="0" y="-6.000000">T643M</text></g><line x1="492.764706" x2="492.764706" y1="59.000000" y2="87.000000" stroke="#BABDB6" stroke-width="2"/><a xlink:title="T655M"><circle cx="492.764706" cy="59.000000" r="4.000000" fill="#ff0000" /></a><g transform="translate(492.764706,59.000000) rotate(-30)"><text style="font-size:10px;font-family:OpenSans;fill:#555;" text-anchor="middle" x="0" y="-6.000000">T655M</text></g><line x1="818.811765" x2="818.811765" y1="59.000000" y2="87.000000" stroke="#BABDB6" stroke-width="2"/><a xlink:title="P1102L"><circle cx="818.811765" cy="59.000000" r="4.000000" fill="#ff0000" /></a><g transform="translate(818.811765,59.000000) rotate(-30)"><text style="font-size:10px;font-family:OpenSans;fill:#555;" text-anchor="middle" x="0" y="-6.000000">P1102L</text></g><line x1="827.564706" x2="827.564706" y1="59.000000" y2="87.000000" stroke="#BABDB6" stroke-width="2"/><a xlink:title="P1114L"><circle cx="827.564706" cy="59.000000" r="4.000000" fill="#ff0000" /></a><g transform="translate(827.564706,59.000000) rotate(-30)"><text style="font-size:10px;font-family:OpenSans;fill:#555;" text-anchor="middle" x="0" y="-6.000000">P1114L</text></g><line x1="890.294118" x2="890.294118" y1="59.000000" y2="87.000000" stroke="#BABDB6" stroke-width="2"/><a xlink:title="A1200A"><circle cx="890.294118" cy="59.000000" r="4.000000" fill="#0000ff" /></a><g transform="translate(890.294118,59.000000) rotate(-30)"><text style="font-size:10px;font-family:OpenSans;fill:#555;" text-anchor="middle" x="0" y="-6.000000">A1200A</text></g><line x1="899.047059" x2="899.047059" y1="59.000000" y2="87.000000" stroke="#BABDB6" stroke-width="2"/><a xlink:title="A1212A"><circle cx="899.047059" cy="59.000000" r="4.000000" fill="#0000ff" /></a><g transform="translate(899.047059,59.000000) rotate(-30)"><text style="font-size:10px;font-family:OpenSans;fill:#555;" text-anchor="middle" x="0" y="-6.000000">A1212A</text></g><a xlink:title=",  (1343aa)"><rect fill="#BABDB6" x="15.000000" y="87.000000" width="979.600000" height="14.000000"/></a><g transform="translate(66.788235,82.000000)"><a xlink:href="https://www.ebi.ac.uk/interpro/entry/pfam/PF15371" xlink:title="Domain of unknown function (DUF4599)"><rect fill="#2DCF00" x="0" y="0" width="62.000000" height="24.000000" filter="url(#ds)"/><text style="font-size:12px;font-family:OpenSans;fill:#ffffff;" text-anchor="middle" x="31.000000" y="16.000000">DUF4599</text></a></g>
<g transform="translate(303.847059,82.000000)"><a xlink:href="https://www.ebi.ac.uk/interpro/entry/pfam/PF14650" xlink:title="FAM75 family"><rect fill="#FF5353" x="0" y="0" width="258.211765" height="24.000000" filter="url(#ds)"/><text style="font-size:12px;font-family:OpenSans;fill:#ffffff;" text-anchor="middle" x="129.105882" y="16.000000">FAM75 family</text></a></g>
<g class="axis">
<line x1="15.000000" x2="994.600000" y1="116.000000" y2="116.000000" stroke="#AAAAAA" /><line x1="15.000000" x2="15.000000" y1="116.000000" y2="121.000000" stroke="#AAAAAA" /><line x1="15.000000" x2="15.000000" y1="116.000000" y2="121.000000" stroke="#AAAAAA" /><text style="font-size:10px;font-family:OpenSans;fill:#000000;" text-anchor="middle" x="15.000000" y="131.000000">0</text><line x1="61.682353" x2="61.682353" y1="116.000000" y2="121.000000" stroke="#AAAAAA" /><text style="font-size:10px;font-family:OpenSans;fill:#000000;" text-anchor="middle" x="61.682353" y="131.000000">64</text><line x1="128.788235" x2="128.788235" y1="116.000000" y2="121.000000" stroke="#AAAAAA" /><text style="font-size:10px;font-family:OpenSans;fill:#000000;" text-anchor="middle" x="128.788235" y="131.000000">156</text><line x1="301.658824" x2="301.658824" y1="116.000000" y2="121.000000" stroke="#AAAAAA" /><text style="font-size:10px;font-family:OpenSans;fill:#000000;" text-anchor="middle" x="301.658824" y="131.000000">393</text><line x1="321.352941" x2="321.352941" y1="116.000000" y2="121.000000" stroke="#AAAAAA" /><text style="font-size:10px;font-family:OpenSans;fill:#000000;" text-anchor="middle" x="321.352941" y="131.000000">420</text><line x1="469.423529" x2="469.423529" y1="116.000000" y2="121.000000" stroke="#AAAAAA" /><text style="font-size:10px;font-family:OpenSans;fill:#000000;" text-anchor="middle" x="469.423529" y="131.000000">623</text><line x1="492.764706" x2="492.764706" y1="116.000000" y2="121.000000" stroke="#AAAAAA" /><text style="font-size:10px;font-family:OpenSans;fill:#000000;" text-anchor="middle" x="492.764706" y="131.000000">655</text><line x1="562.058824" x2="562.058824" y1="116.000000" y2="121.000000" stroke="#AAAAAA" /><text style="font-size:10px;font-family:OpenSans;fill:#000000;" text-anchor="middle" x="562.058824" y="131.000000">750</text><line x1="818.811765" x2="818.811765" y1="116.000000" y2="121.000000" stroke="#AAAAAA" /><text style="font-size:10px;font-family:OpenSans;fill:#000000;" text-anchor="middle" x="818.811765" y="131.000000">1102</text><line x1="890.294118" x2="890.294118" y1="116.000000" y2="121.000000" stroke="#AAAAAA" /><text style="font-size:10px;font-family:OpenSans;fill:#000000;" text-anchor="middle" x="890.294118" y="131.000000">1200</text><line x1="994.600000" x2="994.600000" y1="116.000000" y2="121.000000" stroke="#AAAAAA" /><text style="font-size:10px;font-family:OpenSans;fill:#000000;" text-anchor="middle" x="994.600000" y="131.000000">1343</text></g>
<rect fill="#2DCF00" x="4" y="145.000000" width="12" height="12" filter="url(#ds)"/><text style="font-size:12px;font-family:OpenSans;fill:#000000;" text-anchor="start" x="20" y="157.000000">Domain of unknown function (DUF4599)</text></svg>
