<?xml version='1.0'?>
<svg xmlns="http://www.w3.org/2000/svg" xmlns:xlink="http://www.w3.org/1999/xlink" width="430.000000" height="133.000000">
<defs>
  <filter id="ds" x="0" y="0">
    <feOffset in="SourceAlpha" dx="2" dy="2" />
    <feComponentTransfer><feFuncA type="linear" slope="0.2"/></feComponentTransfer>
    <feGaussianBlur result="blurOut" stdDeviation="1" />
    <feBlend in="SourceGraphic" in2="blurOut" mode="normal" />
  </filter>
  <pattern id="disordered-hatch" patternUnits="userSpaceOnUse" width="4" height="4">
    <path d="M-1,1 l2,-2 M0,4 l4,-4 M3,5 l2,-2" stroke="#000000" opacity="0.3" />
  </pattern>
</defs>
<line x1="30.625000" x2="30.625000" y1="34.000000" y2="62.000000" stroke="#BABDB6" stroke-width="2"/><a xlink:title="P20R"><circle cx="30.625000" cy="34.000000" r="4.000000" fill="#ff0000" /></a><g transform="translate(30.625000,34.000000) rotate(-30)"><text style="font-size:10px;font-family:OpenSans;fill:#555;" text-anchor="middle" x="0" y="-6.000000">P20R</text></g><line x1="51.718750" x2="51.718750" y1="34.000000" y2="62.000000" stroke="#BABDB6" stroke-width="2"/><a xlink:title="A47G"><circle cx="51.718750" cy="34.000000" r="4.000000" fill="#ff0000" /></a><g transform="translate(51.718750,34.000000) rotate(-30)"><text style="font-size:10px;font-family:OpenSans;fill:#555;" text-anchor="middle" x="0" y="-6.000000">A47G</text></g><line x1="61.875000" x2="61.875000" y1="34.000000" y2="62.000000" stroke="#BABDB6" stroke-width="2"/><a xlink:title="P60P"><circle cx="61.875000" cy="34.000000" r="4.000000" fill="#0000ff" /></a><g transform="translate(61.875000,34.000000) rotate(-30)"><text style="font-size:10px;font-family:OpenSans;fill:#555;" text-anchor="middle" x="0" y="-6.000000">P60P</text></g><line x1="97.812500" x2="97.812500" y1="34.000000" y2="62.000000" stroke="#BABDB6" stroke-width="2"/><a xlink:title="P106P"><circle cx="97.812500" cy="34.000000" r="4.000000" fill="#0000ff" /></a><g transform="translate(97.812500,34.000000) rotate(-30)"><text style="font-size:10px;font-family:OpenSans;fill:#555;" text-anchor="middle" x="0" y="-6.000000">P106P</text></g><line x1="118.906250" x2="118.906250" y1="34.000000" y2="62.000000" stroke="#BABDB6" stroke-width="2"/><a xlink:title="P133R"><circle cx="118.906250" cy="34.000000" r="4.000000" fill="#ff0000" /></a><g transform="translate(118.906250,34.000000) rotate(-30)"><text style="font-size:10px;font-family:OpenSans;fill:#555;" text-anchor="middle" x="0" y="-6.000000">P133R</text></g><line x1="151.718750" x2="151.718750" y1="34.000000" y2="62.000000" stroke="#BABDB6" stroke-width="2"/><a xlink:title="P175P"><circle cx="151.718750" cy="34.000000" r="4.000000" fill="#0000ff" /></a><g transform="translate(151.718750,34.000000) rotate(-30)"><text style="font-size:10px;font-family:OpenSans;fill:#555;" text-anchor="middle" x="0" y="-6.000000">P175P</text></g><line x1="162.656250" x2="162.656250" y1="34.000000" y2="62.000000" stroke="#BABDB6" stroke-width="2"/><a xlink:title="P189P"><circle cx="162.656250" cy="34.000000" r="4.000000" fill="#0000ff" /></a><g transform="translate(162.656250,34.000000) rotate(-30)"><text style="font-size:10px;font-family:OpenSans;fill:#555;" text-anchor="middle" x="0" y="-6.000000">P189P</text></g><line x1="250.937500" x2="250.937500" y1="34.000000" y2="62.000000" stroke="#BABDB6" stroke-width="2"/><a xlink:title="P302P"><circle cx="250.937500" cy="34.000000" r="4.000000" fill="#0000ff" /></a><g transform="translate(250.937500,34.000000) rotate(-30)"><text style="font-size:10px;font-family:OpenSans;fill:#555;" text-anchor="middle" x="0" y="-6.000000">P302P</text></g><a xlink:title=",  (512aa)"><rect fill="#BABDB6" x="15.000000" y="62.000000" width="400.000000" height="14.000000"/></a><g transform="translate(55.625000,57.000000)"><a xlink:href="https://www.ebi.ac.uk/interpro/entry/pfam/PF07690" xlink:title="Major Facilitator Superfamily"><rect fill="#2DCF00" x="0" y="0" width="282.031250" height="24.000000" filter="url(#ds)"/><text style="font-size:12px;font-family:OpenSans;fill:#ffffff;" text-anchor="middle" x="141.015625" y="16.000000">Major Facilitator Superfamily</text></a></g>
<g class="axis">
<line x1="15.000000" x2="415.000000" y1="91.000000" y2="91.000000" stroke="#AAAAAA" /><line x1="15.000000" x2="15.000000" y1="91.000000" y2="96.000000" stroke="#AAAAAA" /><line x1="30.625000" x2="30.625000" y1="91.000000" y2="96.000000" stroke="#AAAAAA" /><text style="font-size:10px;font-family:OpenSans;fill:#000000;" text-anchor="middle" x="30.625000" y="106.000000">20</text><line x1="51.718750" x2="51.718750" y1="91.000000" y2="96.000000" stroke="#AAAAAA" /><text style="font-size:10px;font-family:OpenSans;fill:#000000;" text-anchor="middle" x="51.718750" y="106.000000">47</text><line x1="97.812500" x2="97.812500" y1="91.000000" y2="96.000000" stroke="#AAAAAA" /><text style="font-size:10px;font-family:OpenSans;fill:#000000;" text-anchor="middle" x="97.812500" y="106.000000">106</text><line x1="118.906250" x2="118.906250" y1="91.000000" y2="96.000000" stroke="#AAAAAA" /><text style="font-size:10px;font-family:OpenSans;fill:#000000;" text-anchor="middle" x="118.906250" y="106.000000">133</text><line x1="151.718750" x2="151.718750" y1="91.000000" y2="96.000000" stroke="#AAAAAA" /><text style="font-size:10px;font-family:OpenSans;fill:#000000;" text-anchor="middle" x="151.718750" y="106.000000">175</text><line x1="250.937500" x2="250.937500" y1="91.000000" y2="96.000000" stroke="#AAAAAA" /><text style="font-size:10px;font-family:OpenSans;fill:#000000;" text-anchor="middle" x="250.937500" y="106.000000">302</text><line x1="337.656250" x2="337.656250" y1="91.000000" y2="96.000000" stroke="#AAAAAA" /><text style="font-size:10px;font-family:OpenSans;fill:#000000;" text-anchor="middle" x="337.656250" y="106.000000">413</text><line x1="415.000000" x2="415.000000" y1="91.000000" y2="96.000000" stroke="#AAAAAA" /><text style="font-size:10px;font-family:OpenSans;fill:#000000;" text-anchor="middle" x="415.000000" y="106.000000">512</text></g>
</svg>
