<?xml version='1.0'?>
<svg xmlns="http://www.w3.org/2000/svg" xmlns:xlink="http://www.w3.org/1999/xlink" width="430.000000" height="146.200000">
<defs>
  <filter id="ds" x="0" y="0">
    <feOffset in="SourceAlpha" dx="2" dy="2" />
    <feComponentTransfer><feFuncA type="linear" slope="0.2"/></feComponentTransfer>
    <feGaussianBlur result="blurOut" stdDeviation="1" />
    <feBlend in="SourceGraphic" in2="blurOut" mode="normal" />
  </filter>
  <pattern id="disordered-hatch" patternUnits="userSpaceOnUse" width="4" height="4">
    <path d="M-1,1 l2,-2 M0,4 l4,-4 M3,5 l2,-2" stroke="#000000" opacity="0.3" />
  </pattern>
</defs>
<line x1="187.072072" x2="187.072072" y1="34.000000" y2="62.000000" stroke="#BABDB6" stroke-width="2"/><a xlink:title="V191I"><circle cx="187.072072" cy="34.000000" r="4.000000" fill="#ff0000" /></a><g transform="translate(187.072072,34.000000) rotate(-30)"><text style="font-size:10px;font-family:OpenSans;fill:#555;" text-anchor="middle" x="0" y="-6.000000">V191I</text></g><line x1="205.990991" x2="205.990991" y1="34.000000" y2="62.000000" stroke="#BABDB6" stroke-width="2"/><a xlink:title="V212I"><circle cx="205.990991" cy="34.000000" r="4.000000" fill="#ff0000" /></a><g transform="translate(205.990991,34.000000) rotate(-30)"><text style="font-size:10px;font-family:OpenSans;fill:#555;" text-anchor="middle" x="0" y="-6.000000">V212I</text></g><line x1="216.801802" x2="216.801802" y1="34.000000" y2="62.000000" stroke="#BABDB6" stroke-width="2"/><a xlink:title="V224I"><circle cx="216.801802" cy="34.000000" r="4.000000" fill="#ff0000" /></a><g transform="translate(216.801802,34.000000) rotate(-30)"><text style="font-size:10px;font-family:OpenSans;fill:#555;" text-anchor="middle" x="0" y="-6.000000">V224I</text></g><line x1="260.045045" x2="260.045045" y1="34.000000" y2="62.000000" stroke="#BABDB6" stroke-width="2"/><a xlink:title="L272L"><circle cx="260.045045" cy="34.000000" r="4.000000" fill="#0000ff" /></a><g transform="translate(260.045045,34.000000) rotate(-30)"><text style="font-size:10px;font-family:OpenSans;fill:#555;" text-anchor="middle" x="0" y="-6.000000">L272L</text></g><line x1="278.963964" x2="278.963964" y1="34.000000" y2="62.000000" stroke="#BABDB6" stroke-width="2"/><a xlink:title="L293L"><circle cx="278.963964" cy="34.000000" r="4.000000" fill="#0000ff" /></a><g transform="translate(278.963964,34.000000) rotate(-30)"><text style="font-size:10px;font-family:OpenSans;fill:#555;" text-anchor="middle" x="0" y="-6.000000">L293L</text></g><line x1="289.774775" x2="289.774775" y1="34.000000" y2="62.000000" stroke="#BABDB6" stroke-width="2"/><a xlink:title="L305L"><circle cx="289.774775" cy="34.000000" r="4.000000" fill="#0000ff" /></a><g transform="translate(289.774775,34.000000) rotate(-30)"><text style="font-size:10px;font-family:OpenSans;fill:#555;" text-anchor="middle" x="0" y="-6.000000">L305L</text></g><a xlink:title=",  (444aa)"><rect fill="#BABDB6" x="15.000000" y="62.000000" width="400.000000" height="14.000000"/></a><g transform="translate(31.216216,57.000000)"><a xlink:href="https://www.ebi.ac.uk/interpro/entry/pfam/PF00568" xlink:title="WH1 domain"><rect fill="#2DCF00" x="0" y="0" width="89.189189" height="24.000000" filter="url(#ds)"/><text style="font-size:12px;font-family:OpenSans;fill:#ffffff;" text-anchor="middle" x="44.594595" y="16.000000">WH1 domain</text></a></g>
<g transform="translate(314.099099,57.000000)"><a xlink:href="https://www.ebi.ac.uk/interpro/entry/pfam/PF05210" xlink:title="Sprouty protein (Spry)"><rect fill="#FF5353" x="0" y="0" width="92.792793" height="24.000000" filter="url(#ds)"/><text style="font-size:12px;font-family:OpenSans;fill:#ffffff;" text-anchor="middle" x="46.396396" y="16.000000">Sprouty</text></a></g>
<g class="axis">
<line x1="15.000000" x2="415.000000" y1="91.000000" y2="91.000000" stroke="#AAAAAA" /><line x1="15.000000" x2="15.000000" y1="91.000000" y2="96.000000" stroke="#AAAAAA" /><line x1="31.216216" x2="31.216216" y1="91.000000" y2="96.000000" stroke="#AAAAAA" /><text style="font-size:10px;font-family:OpenSans;fill:#000000;" text-anchor="middle" x="31.216216" y="106.000000">18</text><line x1="120.405405" x2="120.405405" y1="91.000000" y2="96.000000" stroke="#AAAAAA" /><text style="font-size:10px;font-family:OpenSans;fill:#000000;" text-anchor="middle" x="120.405405" y="106.000000">117</text><line x1="187.072072" x2="187.072072" y1="91.000000" y2="96.000000" stroke="#AAAAAA" /><text style="font-size:10px;font-family:OpenSans;fill:#000000;" text-anchor="middle" x="187.072072" y="106.000000">191</text><line x1="216.801802" x2="216.801802" y1="91.000000" y2="96.000000" stroke="#AAAAAA" /><text style="font-size:10px;font-family:OpenSans;fill:#000000;" text-anchor="middle" x="216.801802" y="106.000000">224</text><line x1="260.045045" x2="260.045045" y1="91.000000" y2="96.000000" stroke="#AAAAAA" /><text style="font-size:10px;font-family:OpenSans;fill:#000000;" text-anchor="middle" x="260.045045" y="106.000000">272</text><line x1="289.774775" x2="289.774775" y1="91.000000" y2="96.000000" stroke="#AAAAAA" /><text style="font-size:10px;font-family:OpenSans;fill:#000000;" text-anchor="middle" x="289.774775" y="106.000000">305</text><line x1="314.099099" x2="314.099099" y1="91.000000" y2="96.000000" stroke="#AAAAAA" /><text style="font-size:10px;font-family:OpenSans;fill:#000000;" text-anchor="middle" x="314.099099" y="106.000000">332</text><line x1="415.000000" x2="415.000000" y1="91.000000" y2="96.000000" stroke="#AAAAAA" /><text style="font-size:10px;font-family:OpenSans;fill:#000000;" text-anchor="middle" x="415.000000" y="106.000000">444</text></g>
<rect fill="#FF5353" x="4" y="120.000000" width="12" height="12" filter="url(#ds)"/><text style="font-size:12px;font-family:OpenSans;fill:#000000;" text-anchor="start" x="20" y="132.000000">Sprouty protein (Spry)</text></svg>
