<?xml version='1.0'?>
<svg xmlns="http://www.w3.org/2000/svg" xmlns:xlink="http://www.w3.org/1999/xlink" width="1960.193548" height="159.400000">
<defs>
  <filter id="ds" x="0" y="0">
    <feOffset in="SourceAlpha" dx="2" dy="2" />
    <feComponentTransfer><feFuncA type="linear" slope="0.2"/></feComponentTransfer>
    <feGaussianBlur result="blurOut" stdDeviation="1" />
    <feBlend in="SourceGraphic" in2="blurOut" mode="normal" />
  </filter>
  <pattern id="disordered-hatch" patternUnits="userSpaceOnUse" width="4" height="4">
    <path d="M-1,1 l2,-2 M0,4 l4,-4 M3,5 l2,-2" stroke="#000000" opacity="0.3" />
  </pattern>
</defs>
<line x1="137.838710" x2="137.838710" y1="34.000000" y2="62.000000" stroke="#BABDB6" stroke-width="2"/><a xlink:title="H136H"><circle cx="137.838710" cy="34.000000" r="4.000000" fill="#0000ff" /></a><g transform="translate(137.838710,34.000000) rotate(-30)"><text style="font-size:10px;font-family:OpenSans;fill:#555;" text-anchor="middle" x="0" y="-6.000000">H136H</text></g><line x1="568.677419" x2="568.677419" y1="34.000000" y2="62.000000" stroke="#BABDB6" stroke-width="2"/><a xlink:title="S613I"><circle cx="568.677419" cy="34.000000" r="4.000000" fill="#ff0000" /></a><g transform="translate(568.677419,34.000000) rotate(-30)"><text style="font-size:10px;font-family:OpenSans;fill:#555;" text-anchor="middle" x="0" y="-6.000000">S613I</text></g><line x1="590.354839" x2="590.354839" y1="34.000000" y2="62.000000" stroke="#BABDB6" stroke-width="2"/><a xlink:title="K637T"><circle cx="590.354839" cy="34.000000" r="4.000000" fill="#ff0000" /></a><g transform="translate(590.354839,34.000000) rotate(-30)"><text style="font-size:10px;font-family:OpenSans;fill:#555;" text-anchor="middle" x="0" y="-6.000000">K637T</text></g><line x1="635.516129" x2="635.516129" y1="34.000000" y2="62.000000" stroke="#BABDB6" stroke-width="2"/><a xlink:title="R687H"><circle cx="635.516129" cy="34.000000" r="4.000000" fill="#ff0000" /></a><g transform="translate(635.516129,34.000000) rotate(-30)"><text style="font-size:10px;font-family:OpenSans;fill:#555;" text-anchor="middle" x="0" y="-6.000000">R687H</text></g><line x1="708.677419" x2="708.677419" y1="34.000000" y2="62.000000" stroke="#BABDB6" stroke-width="2"/><a xlink:title="G768D"><circle cx="708.677419" cy="34.000000" r="4.000000" fill="#ff0000" /></a><g transform="translate(708.677419,34.000000) rotate(-30)"><text style="font-size:10px;font-family:OpenSans;fill:#555;" text-anchor="middle" x="0" y="-6.000000">G768D</text></g><line x1="786.354839" x2="786.354839" y1="34.000000" y2="62.000000" stroke="#BABDB6" stroke-width="2"/><a xlink:title="F854F"><circle cx="786.354839" cy="34.000000" r="4.000000" fill="#0000ff" /></a><g transform="translate(786.354839,34.000000) rotate(-30)"><text style="font-size:10px;font-family:OpenSans;fill:#555;" text-anchor="middle" x="0" y="-6.000000">F854F</text></g><line x1="1282.225806" x2="1282.225806" y1="34.000000" y2="62.000000" stroke="#BABDB6" stroke-width="2"/><a xlink:title="R1403Q"><circle cx="1282.225806" cy="34.000000" r="4.000000" fill="#ff0000" /></a><g transform="translate(1282.225806,34.000000) rotate(-30)"><text style="font-size:10px;font-family:OpenSans;fill:#555;" text-anchor="middle" x="0" y="-6.000000">R1403Q</text></g><line x1="1445.709677" x2="1445.709677" y1="34.000000" y2="62.000000" stroke="#BABDB6" stroke-width="2"/><a xlink:title="N1584N"><circle cx="1445.709677" cy="34.000000" r="4.000000" fill="#0000ff" /></a><g transform="translate(1445.709677,34.000000) rotate(-30)"><text style="font-size:10px;font-family:OpenSans;fill:#555;" text-anchor="middle" x="0" y="-6.000000">N1584N</text></g><line x1="1453.838710" x2="1453.838710" y1="34.000000" y2="62.000000" stroke="#BABDB6" stroke-width="2"/><a xlink:title="A1593A"><circle cx="1453.838710" cy="34.000000" r="4.000000" fill="#0000ff" /></a><g transform="translate(1453.838710,34.000000) rotate(-30)"><text style="font-size:10px;font-family:OpenSans;fill:#555;" text-anchor="middle" x="0" y="-6.000000">A1593A</text></g><line x1="1465.580645" x2="1465.580645" y1="34.000000" y2="62.000000" stroke="#BABDB6" stroke-width="2"/><a xlink:title="Y1606Y"><circle cx="1465.580645" cy="34.000000" r="4.000000" fill="#0000ff" /></a><g transform="translate(1465.580645,34.000000) rotate(-30)"><text style="font-size:10px;font-family:OpenSans;fill:#555;" text-anchor="middle" x="0" y="-6.000000">Y1606Y</text></g><line x1="1681.451613" x2="1681.451613" y1="34.000000" y2="62.000000" stroke="#BABDB6" stroke-width="2"/><a xlink:title="L1845L"><circle cx="1681.451613" cy="34.000000" r="4.000000" fill="#0000ff" /></a><g transform="translate(1681.451613,34.000000) rotate(-30)"><text style="font-size:10px;font-family:OpenSans;fill:#555;" text-anchor="middle" x="0" y="-6.000000">L1845L</text></g><line x1="2076.161290" x2="2076.161290" y1="34.000000" y2="62.000000" stroke="#BABDB6" stroke-width="2"/><a xlink:title="G2282G"><circle cx="2076.161290" cy="34.000000" r="4.000000" fill="#0000ff" /></a><g transform="translate(2076.161290,34.000000) rotate(-30)"><text style="font-size:10px;font-family:OpenSans;fill:#555;" text-anchor="middle" x="0" y="-6.000000">G2282G</text></g><line x1="2089.709677" x2="2089.709677" y1="34.000000" y2="62.000000" stroke="#BABDB6" stroke-width="2"/><a xlink:title="A2297A"><circle cx="2089.709677" cy="34.000000" r="4.000000" fill="#0000ff" /></a><g transform="translate(2089.709677,34.000000) rotate(-30)"><text style="font-size:10px;font-family:OpenSans;fill:#555;" text-anchor="middle" x="0" y="-6.000000">A2297A</text></g><a xlink:title=",  (2137aa)"><rect fill="#BABDB6" x="15.000000" y="62.000000" width="1930.193548" height="14.000000"/></a><g transform="translate(65.580645,57.000000)"><a xlink:href="https://www.ebi.ac.uk/interpro/entry/pfam/PF00307" xlink:title="Calponin homology (CH) domain"><rect fill="#2DCF00" x="0" y="0" width="92.129032" height="24.000000" filter="url(#ds)"/><text style="font-size:12px;font-family:OpenSans;fill:#ffffff;" text-anchor="middle" x="46.064516" y="16.000000">CH</text></a></g>
<g transform="translate(172.161290,57.000000)"><a xlink:href="https://www.ebi.ac.uk/interpro/entry/pfam/PF00307" xlink:title="Calponin homology (CH) domain"><rect fill="#FF5353" x="0" y="0" width="93.935484" height="24.000000" filter="url(#ds)"/><text style="font-size:12px;font-family:OpenSans;fill:#ffffff;" text-anchor="middle" x="46.967742" y="16.000000">CH</text></a></g>
<g transform="translate(288.677419,57.000000)"><a xlink:href="https://www.ebi.ac.uk/interpro/entry/pfam/PF00435" xlink:title="Spectrin repeat"><rect fill="#5B5BFF" x="0" y="0" width="97.548387" height="24.000000" filter="url(#ds)"/><text style="font-size:12px;font-family:OpenSans;fill:#ffffff;" text-anchor="middle" x="48.774194" y="16.000000">Spectrin repeat</text></a></g>
<g transform="translate(397.064516,57.000000)"><a xlink:href="https://www.ebi.ac.uk/interpro/entry/pfam/PF00435" xlink:title="Spectrin repeat"><rect fill="#EBD61D" x="0" y="0" width="92.129032" height="24.000000" filter="url(#ds)"/><text style="font-size:12px;font-family:OpenSans;fill:#ffffff;" text-anchor="middle" x="46.064516" y="16.000000">Spectrin repeat</text></a></g>
<g transform="translate(492.806452,57.000000)"><a xlink:href="https://www.ebi.ac.uk/interpro/entry/pfam/PF00435" xlink:title="Spectrin repeat"><rect fill="#BA21E0" x="0" y="0" width="95.741935" height="24.000000" filter="url(#ds)"/><text style="font-size:12px;font-family:OpenSans;fill:#ffffff;" text-anchor="middle" x="47.870968" y="16.000000">Spectrin repeat</text></a></g>
<g transform="translate(590.354839,57.000000)"><a xlink:href="https://www.ebi.ac.uk/interpro/entry/pfam/PF00435" xlink:title="Spectrin repeat"><rect fill="#FF9C42" x="0" y="0" width="93.935484" height="24.000000" filter="url(#ds)"/><text style="font-size:12px;font-family:OpenSans;fill:#ffffff;" text-anchor="middle" x="46.967742" y="16.000000">Spectrin repeat</text></a></g>
<g transform="translate(687.000000,57.000000)"><a xlink:href="https://www.ebi.ac.uk/interpro/entry/pfam/PF00435" xlink:title="Spectrin repeat"><rect fill="#FF7DFF" x="0" y="0" width="92.129032" height="24.000000" filter="url(#ds)"/><text style="font-size:12px;font-family:OpenSans;fill:#ffffff;" text-anchor="middle" x="46.064516" y="16.000000">Spectrin repeat</text></a></g>
<g transform="translate(783.645161,57.000000)"><a xlink:href="https://www.ebi.ac.uk/interpro/entry/pfam/PF00435" xlink:title="Spectrin repeat"><rect fill="#B9264F" x="0" y="0" width="89.419355" height="24.000000" filter="url(#ds)"/><text style="font-size:12px;font-family:OpenSans;fill:#ffffff;" text-anchor="middle" x="44.709677" y="16.000000">Spectrin</text></a></g>
<g transform="translate(878.483871,57.000000)"><a xlink:href="https://www.ebi.ac.uk/interpro/entry/pfam/PF00435" xlink:title="Spectrin repeat"><rect fill="#BABA21" x="0" y="0" width="92.129032" height="24.000000" filter="url(#ds)"/><text style="font-size:12px;font-family:OpenSans;fill:#ffffff;" text-anchor="middle" x="46.064516" y="16.000000">Spectrin repeat</text></a></g>
<g transform="translate(974.225806,57.000000)"><a xlink:href="https://www.ebi.ac.uk/interpro/entry/pfam/PF00435" xlink:title="Spectrin repeat"><rect fill="#C48484" x="0" y="0" width="93.032258" height="24.000000" filter="url(#ds)"/><text style="font-size:12px;font-family:OpenSans;fill:#ffffff;" text-anchor="middle" x="46.516129" y="16.000000">Spectrin repeat</text></a></g>
<g transform="translate(1071.774194,57.000000)"><a xlink:href="https://www.ebi.ac.uk/interpro/entry/pfam/PF00435" xlink:title="Spectrin repeat"><rect fill="#1F88A7" x="0" y="0" width="79.483871" height="24.000000" filter="url(#ds)"/><text style="font-size:12px;font-family:OpenSans;fill:#ffffff;" text-anchor="middle" x="39.741935" y="16.000000">Spectrin</text></a></g>
<g transform="translate(1166.612903,57.000000)"><a xlink:href="https://www.ebi.ac.uk/interpro/entry/pfam/PF00435" xlink:title="Spectrin repeat"><rect fill="#CAFEB8" x="0" y="0" width="91.225806" height="24.000000" filter="url(#ds)"/><text style="font-size:12px;font-family:OpenSans;fill:#ffffff;" text-anchor="middle" x="45.612903" y="16.000000">Spectrin repeat</text></a></g>
<g transform="translate(1269.580645,57.000000)"><a xlink:href="https://www.ebi.ac.uk/interpro/entry/pfam/PF00435" xlink:title="Spectrin repeat"><rect fill="#4A9586" x="0" y="0" width="76.774194" height="24.000000" filter="url(#ds)"/><text style="font-size:12px;font-family:OpenSans;fill:#ffffff;" text-anchor="middle" x="38.387097" y="16.000000">Spectrin</text></a></g>
<g transform="translate(1353.580645,57.000000)"><a xlink:href="https://www.ebi.ac.uk/interpro/entry/pfam/PF00435" xlink:title="Spectrin repeat"><rect fill="#CEB86C" x="0" y="0" width="90.322581" height="24.000000" filter="url(#ds)"/><text style="font-size:12px;font-family:OpenSans;fill:#ffffff;" text-anchor="middle" x="45.161290" y="16.000000">Spectrin repeat</text></a></g>
<g transform="translate(1446.612903,57.000000)"><a xlink:href="https://www.ebi.ac.uk/interpro/entry/pfam/PF00435" xlink:title="Spectrin repeat"><rect fill="#2DCF00" x="0" y="0" width="93.032258" height="24.000000" filter="url(#ds)"/><text style="font-size:12px;font-family:OpenSans;fill:#ffffff;" text-anchor="middle" x="46.516129" y="16.000000">Spectrin repeat</text></a></g>
<g transform="translate(1541.451613,57.000000)"><a xlink:href="https://www.ebi.ac.uk/interpro/entry/pfam/PF00435" xlink:title="Spectrin repeat"><rect fill="#FF5353" x="0" y="0" width="93.032258" height="24.000000" filter="url(#ds)"/><text style="font-size:12px;font-family:OpenSans;fill:#ffffff;" text-anchor="middle" x="46.516129" y="16.000000">Spectrin repeat</text></a></g>
<g transform="translate(1638.096774,57.000000)"><a xlink:href="https://www.ebi.ac.uk/interpro/entry/pfam/PF00435" xlink:title="Spectrin repeat"><rect fill="#5B5BFF" x="0" y="0" width="93.032258" height="24.000000" filter="url(#ds)"/><text style="font-size:12px;font-family:OpenSans;fill:#ffffff;" text-anchor="middle" x="46.516129" y="16.000000">Spectrin repeat</text></a></g>
<g transform="translate(1736.548387,57.000000)"><a xlink:href="https://www.ebi.ac.uk/interpro/entry/pfam/PF00435" xlink:title="Spectrin repeat"><rect fill="#EBD61D" x="0" y="0" width="90.322581" height="24.000000" filter="url(#ds)"/><text style="font-size:12px;font-family:OpenSans;fill:#ffffff;" text-anchor="middle" x="45.161290" y="16.000000">Spectrin repeat</text></a></g>
<g transform="translate(1833.193548,57.000000)"><a xlink:href="https://www.ebi.ac.uk/interpro/entry/pfam/PF00435" xlink:title="Spectrin repeat"><rect fill="#BA21E0" x="0" y="0" width="56.000000" height="24.000000" filter="url(#ds)"/><text style="font-size:12px;font-family:OpenSans;fill:#ffffff;" text-anchor="middle" x="28.000000" y="16.000000">Spectrin</text></a></g>
<g class="axis">
<line x1="15.000000" x2="1945.193548" y1="91.000000" y2="91.000000" stroke="#AAAAAA" /><line x1="15.000000" x2="15.000000" y1="91.000000" y2="96.000000" stroke="#AAAAAA" /><line x1="15.000000" x2="15.000000" y1="91.000000" y2="96.000000" stroke="#AAAAAA" /><text style="font-size:10px;font-family:OpenSans;fill:#000000;" text-anchor="middle" x="15.000000" y="106.000000">0</text><line x1="65.580645" x2="65.580645" y1="91.000000" y2="96.000000" stroke="#AAAAAA" /><text style="font-size:10px;font-family:OpenSans;fill:#000000;" text-anchor="middle" x="65.580645" y="106.000000">56</text><line x1="137.838710" x2="137.838710" y1="91.000000" y2="96.000000" stroke="#AAAAAA" /><text style="font-size:10px;font-family:OpenSans;fill:#000000;" text-anchor="middle" x="137.838710" y="106.000000">136</text><line x1="157.709677" x2="157.709677" y1="91.000000" y2="96.000000" stroke="#AAAAAA" /><text style="font-size:10px;font-family:OpenSans;fill:#000000;" text-anchor="middle" x="157.709677" y="106.000000">158</text><line x1="266.096774" x2="266.096774" y1="91.000000" y2="96.000000" stroke="#AAAAAA" /><text style="font-size:10px;font-family:OpenSans;fill:#000000;" text-anchor="middle" x="266.096774" y="106.000000">278</text><line x1="288.677419" x2="288.677419" y1="91.000000" y2="96.000000" stroke="#AAAAAA" /><text style="font-size:10px;font-family:OpenSans;fill:#000000;" text-anchor="middle" x="288.677419" y="106.000000">303</text><line x1="386.225806" x2="386.225806" y1="91.000000" y2="96.000000" stroke="#AAAAAA" /><text style="font-size:10px;font-family:OpenSans;fill:#000000;" text-anchor="middle" x="386.225806" y="106.000000">411</text><line x1="489.193548" x2="489.193548" y1="91.000000" y2="96.000000" stroke="#AAAAAA" /><text style="font-size:10px;font-family:OpenSans;fill:#000000;" text-anchor="middle" x="489.193548" y="106.000000">525</text><line x1="568.677419" x2="568.677419" y1="91.000000" y2="96.000000" stroke="#AAAAAA" /><text style="font-size:10px;font-family:OpenSans;fill:#000000;" text-anchor="middle" x="568.677419" y="106.000000">613</text><line x1="590.354839" x2="590.354839" y1="91.000000" y2="96.000000" stroke="#AAAAAA" /><text style="font-size:10px;font-family:OpenSans;fill:#000000;" text-anchor="middle" x="590.354839" y="106.000000">637</text><line x1="635.516129" x2="635.516129" y1="91.000000" y2="96.000000" stroke="#AAAAAA" /><text style="font-size:10px;font-family:OpenSans;fill:#000000;" text-anchor="middle" x="635.516129" y="106.000000">687</text><line x1="684.290323" x2="684.290323" y1="91.000000" y2="96.000000" stroke="#AAAAAA" /><text style="font-size:10px;font-family:OpenSans;fill:#000000;" text-anchor="middle" x="684.290323" y="106.000000">741</text><line x1="708.677419" x2="708.677419" y1="91.000000" y2="96.000000" stroke="#AAAAAA" /><text style="font-size:10px;font-family:OpenSans;fill:#000000;" text-anchor="middle" x="708.677419" y="106.000000">768</text><line x1="786.354839" x2="786.354839" y1="91.000000" y2="96.000000" stroke="#AAAAAA" /><text style="font-size:10px;font-family:OpenSans;fill:#000000;" text-anchor="middle" x="786.354839" y="106.000000">854</text><line x1="873.064516" x2="873.064516" y1="91.000000" y2="96.000000" stroke="#AAAAAA" /><text style="font-size:10px;font-family:OpenSans;fill:#000000;" text-anchor="middle" x="873.064516" y="106.000000">950</text><line x1="970.612903" x2="970.612903" y1="91.000000" y2="96.000000" stroke="#AAAAAA" /><text style="font-size:10px;font-family:OpenSans;fill:#000000;" text-anchor="middle" x="970.612903" y="106.000000">1058</text><line x1="1067.258065" x2="1067.258065" y1="91.000000" y2="96.000000" stroke="#AAAAAA" /><text style="font-size:10px;font-family:OpenSans;fill:#000000;" text-anchor="middle" x="1067.258065" y="106.000000">1165</text><line x1="1151.258065" x2="1151.258065" y1="91.000000" y2="96.000000" stroke="#AAAAAA" /><text style="font-size:10px;font-family:OpenSans;fill:#000000;" text-anchor="middle" x="1151.258065" y="106.000000">1258</text><line x1="1257.838710" x2="1257.838710" y1="91.000000" y2="96.000000" stroke="#AAAAAA" /><text style="font-size:10px;font-family:OpenSans;fill:#000000;" text-anchor="middle" x="1257.838710" y="106.000000">1376</text><line x1="1282.225806" x2="1282.225806" y1="91.000000" y2="96.000000" stroke="#AAAAAA" /><text style="font-size:10px;font-family:OpenSans;fill:#000000;" text-anchor="middle" x="1282.225806" y="106.000000">1403</text><line x1="1346.354839" x2="1346.354839" y1="91.000000" y2="96.000000" stroke="#AAAAAA" /><text style="font-size:10px;font-family:OpenSans;fill:#000000;" text-anchor="middle" x="1346.354839" y="106.000000">1474</text><line x1="1445.709677" x2="1445.709677" y1="91.000000" y2="96.000000" stroke="#AAAAAA" /><text style="font-size:10px;font-family:OpenSans;fill:#000000;" text-anchor="middle" x="1445.709677" y="106.000000">1584</text><line x1="1465.580645" x2="1465.580645" y1="91.000000" y2="96.000000" stroke="#AAAAAA" /><text style="font-size:10px;font-family:OpenSans;fill:#000000;" text-anchor="middle" x="1465.580645" y="106.000000">1606</text><line x1="1539.645161" x2="1539.645161" y1="91.000000" y2="96.000000" stroke="#AAAAAA" /><text style="font-size:10px;font-family:OpenSans;fill:#000000;" text-anchor="middle" x="1539.645161" y="106.000000">1688</text><line x1="1634.483871" x2="1634.483871" y1="91.000000" y2="96.000000" stroke="#AAAAAA" /><text style="font-size:10px;font-family:OpenSans;fill:#000000;" text-anchor="middle" x="1634.483871" y="106.000000">1793</text><line x1="1681.451613" x2="1681.451613" y1="91.000000" y2="96.000000" stroke="#AAAAAA" /><text style="font-size:10px;font-family:OpenSans;fill:#000000;" text-anchor="middle" x="1681.451613" y="106.000000">1845</text><line x1="1731.129032" x2="1731.129032" y1="91.000000" y2="96.000000" stroke="#AAAAAA" /><text style="font-size:10px;font-family:OpenSans;fill:#000000;" text-anchor="middle" x="1731.129032" y="106.000000">1900</text><line x1="1826.870968" x2="1826.870968" y1="91.000000" y2="96.000000" stroke="#AAAAAA" /><text style="font-size:10px;font-family:OpenSans;fill:#000000;" text-anchor="middle" x="1826.870968" y="106.000000">2006</text><line x1="1889.193548" x2="1889.193548" y1="91.000000" y2="96.000000" stroke="#AAAAAA" /><text style="font-size:10px;font-family:OpenSans;fill:#000000;" text-anchor="middle" x="1889.193548" y="106.000000">2075</text><line x1="1945.193548" x2="1945.193548" y1="91.000000" y2="96.000000" stroke="#AAAAAA" /><text style="font-size:10px;font-family:OpenSans;fill:#000000;" text-anchor="middle" x="1945.193548" y="106.000000">2137</text><line x1="2076.161290" x2="2076.161290" y1="91.000000" y2="96.000000" stroke="#AAAAAA" /><text style="font-size:10px;font-family:OpenSans;fill:#000000;" text-anchor="middle" x="2076.161290" y="106.000000">2282</text></g>
<rect fill="#FF5353" x="4" y="120.000000" width="12" height="12" filter="url(#ds)"/><text style="font-size:12px;font-family:OpenSans;fill:#000000;" text-anchor="start" x="20" y="132.000000">Calponin homology (CH) domain</text><rect fill="#BA21E0" x="4" y="134.000000" width="12" height="12" filter="url(#ds)"/><text style="font-size:12px;font-family:OpenSans;fill:#000000;" text-anchor="start" x="20" y="146.000000">Spectrin repeat</text></svg>
