<?xml version='1.0'?>
<svg xmlns="http://www.w3.org/2000/svg" xmlns:xlink="http://www.w3.org/1999/xlink" width="590.111111" height="158.700000">
<defs>
  <filter id="ds" x="0" y="0">
    <feOffset in="SourceAlpha" dx="2" dy="2" />
    <feComponentTransfer><feFuncA type="linear" slope="0.2"/></feComponentTransfer>
    <feGaussianBlur result="blurOut" stdDeviation="1" />
    <feBlend in="SourceGraphic" in2="blurOut" mode="normal" />
  </filter>
  <pattern id="disordered-hatch" patternUnits="userSpaceOnUse" width="4" height="4">
    <path d="M-1,1 l2,-2 M0,4 l4,-4 M3,5 l2,-2" stroke="#000000" opacity="0.3" />
  </pattern>
</defs>
<line x1="75.481481" x2="75.481481" y1="46.500000" y2="74.500000" stroke="#BABDB6" stroke-width="2"/><a xlink:title="D46D"><circle cx="75.481481" cy="46.500000" r="4.000000" fill="#0000ff" /></a><g transform="translate(75.481481,46.500000) rotate(-30)"><text style="font-size:10px;font-family:OpenSans;fill:#555;" text-anchor="middle" x="0" y="-6.000000">D46D</text></g><line x1="97.833333" x2="97.833333" y1="34.000000" y2="74.500000" stroke="#BABDB6" stroke-width="2"/><a xlink:title="D63D"><circle cx="97.833333" cy="34.000000" r="4.000000" fill="#0000ff" /></a><g transform="translate(97.833333,34.000000) rotate(-30)"><text style="font-size:10px;font-family:OpenSans;fill:#555;" text-anchor="middle" x="0" y="-6.000000">D63D</text></g><line x1="101.777778" x2="101.777778" y1="46.500000" y2="74.500000" stroke="#BABDB6" stroke-width="2"/><a xlink:title="D66D"><circle cx="101.777778" cy="46.500000" r="4.000000" fill="#0000ff" /></a><g transform="translate(101.777778,46.500000) rotate(-30)"><text style="font-size:10px;font-family:OpenSans;fill:#555;" text-anchor="middle" x="0" y="-6.000000">D66D</text></g><line x1="199.074074" x2="199.074074" y1="46.500000" y2="74.500000" stroke="#BABDB6" stroke-width="2"/><a xlink:title="D140D"><circle cx="199.074074" cy="46.500000" r="4.000000" fill="#0000ff" /></a><g transform="translate(199.074074,46.500000) rotate(-30)"><text style="font-size:10px;font-family:OpenSans;fill:#555;" text-anchor="middle" x="0" y="-6.000000">D140D</text></g><a xlink:title=",  (426aa)"><rect fill="#BABDB6" x="15.000000" y="74.500000" width="560.111111" height="14.000000"/></a><g transform="translate(42.611111,69.500000)"><a xlink:href="https://www.ebi.ac.uk/interpro/entry/pfam/PF00069" xlink:title="Protein kinase domain"><rect fill="#2DCF00" x="0" y="0" width="327.388889" height="24.000000" filter="url(#ds)"/><text style="font-size:12px;font-family:OpenSans;fill:#ffffff;" text-anchor="middle" x="163.694444" y="16.000000">Protein kinase domain</text></a></g>
<g transform="translate(484.388889,69.500000)"><a xlink:href="https://www.ebi.ac.uk/interpro/entry/pfam/PF20929" xlink:title="Programmed cell death protein 10, dimerisation domain"><rect fill="#FF5353" x="0" y="0" width="71.000000" height="24.000000" filter="url(#ds)"/><text style="font-size:12px;font-family:OpenSans;fill:#ffffff;" text-anchor="middle" x="35.500000" y="16.000000">PDCD10_N</text></a></g>
<g class="axis">
<line x1="15.000000" x2="575.111111" y1="103.500000" y2="103.500000" stroke="#AAAAAA" /><line x1="15.000000" x2="15.000000" y1="103.500000" y2="108.500000" stroke="#AAAAAA" /><line x1="15.000000" x2="15.000000" y1="103.500000" y2="108.500000" stroke="#AAAAAA" /><text style="font-size:10px;font-family:OpenSans;fill:#000000;" text-anchor="middle" x="15.000000" y="118.500000">0</text><line x1="42.611111" x2="42.611111" y1="103.500000" y2="108.500000" stroke="#AAAAAA" /><text style="font-size:10px;font-family:OpenSans;fill:#000000;" text-anchor="middle" x="42.611111" y="118.500000">21</text><line x1="75.481481" x2="75.481481" y1="103.500000" y2="108.500000" stroke="#AAAAAA" /><text style="font-size:10px;font-family:OpenSans;fill:#000000;" text-anchor="middle" x="75.481481" y="118.500000">46</text><line x1="97.833333" x2="97.833333" y1="103.500000" y2="108.500000" stroke="#AAAAAA" /><text style="font-size:10px;font-family:OpenSans;fill:#000000;" text-anchor="middle" x="97.833333" y="118.500000">63</text><line x1="199.074074" x2="199.074074" y1="103.500000" y2="108.500000" stroke="#AAAAAA" /><text style="font-size:10px;font-family:OpenSans;fill:#000000;" text-anchor="middle" x="199.074074" y="118.500000">140</text><line x1="370.000000" x2="370.000000" y1="103.500000" y2="108.500000" stroke="#AAAAAA" /><text style="font-size:10px;font-family:OpenSans;fill:#000000;" text-anchor="middle" x="370.000000" y="118.500000">270</text><line x1="484.388889" x2="484.388889" y1="103.500000" y2="108.500000" stroke="#AAAAAA" /><text style="font-size:10px;font-family:OpenSans;fill:#000000;" text-anchor="middle" x="484.388889" y="118.500000">357</text><line x1="575.111111" x2="575.111111" y1="103.500000" y2="108.500000" stroke="#AAAAAA" /><text style="font-size:10px;font-family:OpenSans;fill:#000000;" text-anchor="middle" x="575.111111" y="118.500000">426</text></g>
<rect fill="#FF5353" x="4" y="132.500000" width="12" height="12" filter="url(#ds)"/><text style="font-size:12px;font-family:OpenSans;fill:#000000;" text-anchor="start" x="20" y="144.500000">Programmed cell death protein 10, dimerisation domain</text></svg>
