<?xml version='1.0'?>
<svg xmlns="http://www.w3.org/2000/svg" xmlns:xlink="http://www.w3.org/1999/xlink" width="430.000000" height="133.000000">
<defs>
  <filter id="ds" x="0" y="0">
    <feOffset in="SourceAlpha" dx="2" dy="2" />
    <feComponentTransfer><feFuncA type="linear" slope="0.2"/></feComponentTransfer>
    <feGaussianBlur result="blurOut" stdDeviation="1" />
    <feBlend in="SourceGraphic" in2="blurOut" mode="normal" />
  </filter>
  <pattern id="disordered-hatch" patternUnits="userSpaceOnUse" width="4" height="4">
    <path d="M-1,1 l2,-2 M0,4 l4,-4 M3,5 l2,-2" stroke="#000000" opacity="0.3" />
  </pattern>
</defs>
<line x1="16.764706" x2="16.764706" y1="34.000000" y2="62.000000" stroke="#BABDB6" stroke-width="2"/><a xlink:title="G3G"><circle cx="16.764706" cy="34.000000" r="4.000000" fill="#0000ff" /></a><g transform="translate(16.764706,34.000000) rotate(-30)"><text style="font-size:10px;font-family:OpenSans;fill:#555;" text-anchor="middle" x="0" y="-6.000000">G3G</text></g><line x1="33.235294" x2="33.235294" y1="34.000000" y2="62.000000" stroke="#BABDB6" stroke-width="2"/><a xlink:title="L31L"><circle cx="33.235294" cy="34.000000" r="4.000000" fill="#0000ff" /></a><g transform="translate(33.235294,34.000000) rotate(-30)"><text style="font-size:10px;font-family:OpenSans;fill:#555;" text-anchor="middle" x="0" y="-6.000000">L31L</text></g><line x1="159.705882" x2="159.705882" y1="34.000000" y2="62.000000" stroke="#BABDB6" stroke-width="2"/><a xlink:title="R246C"><circle cx="159.705882" cy="34.000000" r="4.000000" fill="#ff0000" /></a><g transform="translate(159.705882,34.000000) rotate(-30)"><text style="font-size:10px;font-family:OpenSans;fill:#555;" text-anchor="middle" x="0" y="-6.000000">R246C</text></g><line x1="195.000000" x2="195.000000" y1="34.000000" y2="62.000000" stroke="#BABDB6" stroke-width="2"/><a xlink:title="V306V"><circle cx="195.000000" cy="34.000000" r="4.000000" fill="#0000ff" /></a><g transform="translate(195.000000,34.000000) rotate(-30)"><text style="font-size:10px;font-family:OpenSans;fill:#555;" text-anchor="middle" x="0" y="-6.000000">V306V</text></g><line x1="248.529412" x2="248.529412" y1="34.000000" y2="62.000000" stroke="#BABDB6" stroke-width="2"/><a xlink:title="L397P"><circle cx="248.529412" cy="34.000000" r="4.000000" fill="#ff0000" /></a><g transform="translate(248.529412,34.000000) rotate(-30)"><text style="font-size:10px;font-family:OpenSans;fill:#555;" text-anchor="middle" x="0" y="-6.000000">L397P</text></g><line x1="283.823529" x2="283.823529" y1="34.000000" y2="62.000000" stroke="#BABDB6" stroke-width="2"/><a xlink:title="N457N"><circle cx="283.823529" cy="34.000000" r="4.000000" fill="#0000ff" /></a><g transform="translate(283.823529,34.000000) rotate(-30)"><text style="font-size:10px;font-family:OpenSans;fill:#555;" text-anchor="middle" x="0" y="-6.000000">N457N</text></g><line x1="293.235294" x2="293.235294" y1="34.000000" y2="62.000000" stroke="#BABDB6" stroke-width="2"/><a xlink:title="E473K"><circle cx="293.235294" cy="34.000000" r="4.000000" fill="#ff0000" /></a><g transform="translate(293.235294,34.000000) rotate(-30)"><text style="font-size:10px;font-family:OpenSans;fill:#555;" text-anchor="middle" x="0" y="-6.000000">E473K</text></g><line x1="321.470588" x2="321.470588" y1="34.000000" y2="62.000000" stroke="#BABDB6" stroke-width="2"/><a xlink:title="A521A"><circle cx="321.470588" cy="34.000000" r="4.000000" fill="#0000ff" /></a><g transform="translate(321.470588,34.000000) rotate(-30)"><text style="font-size:10px;font-family:OpenSans;fill:#555;" text-anchor="middle" x="0" y="-6.000000">A521A</text></g><line x1="329.705882" x2="329.705882" y1="34.000000" y2="62.000000" stroke="#BABDB6" stroke-width="2"/><a xlink:title="G535C"><circle cx="329.705882" cy="34.000000" r="4.000000" fill="#ff0000" /></a><g transform="translate(329.705882,34.000000) rotate(-30)"><text style="font-size:10px;font-family:OpenSans;fill:#555;" text-anchor="middle" x="0" y="-6.000000">G535C</text></g><line x1="349.117647" x2="349.117647" y1="34.000000" y2="62.000000" stroke="#BABDB6" stroke-width="2"/><a xlink:title="R568Q"><circle cx="349.117647" cy="34.000000" r="4.000000" fill="#ff0000" /></a><g transform="translate(349.117647,34.000000) rotate(-30)"><text style="font-size:10px;font-family:OpenSans;fill:#555;" text-anchor="middle" x="0" y="-6.000000">R568Q</text></g><line x1="387.941176" x2="387.941176" y1="34.000000" y2="62.000000" stroke="#BABDB6" stroke-width="2"/><a xlink:title="S634G"><circle cx="387.941176" cy="34.000000" r="4.000000" fill="#ff0000" /></a><g transform="translate(387.941176,34.000000) rotate(-30)"><text style="font-size:10px;font-family:OpenSans;fill:#555;" text-anchor="middle" x="0" y="-6.000000">S634G</text></g><a xlink:title=",  (680aa)"><rect fill="#BABDB6" x="15.000000" y="62.000000" width="400.000000" height="14.000000"/></a><g transform="translate(34.411765,57.000000)"><a xlink:href="https://www.ebi.ac.uk/interpro/entry/pfam/PF00069" xlink:title="Protein kinase domain"><rect fill="#2DCF00" x="0" y="0" width="154.705882" height="24.000000" filter="url(#ds)"/><text style="font-size:12px;font-family:OpenSans;fill:#ffffff;" text-anchor="middle" x="77.352941" y="16.000000">Protein kinase domain</text></a></g>
<g class="axis">
<line x1="15.000000" x2="415.000000" y1="91.000000" y2="91.000000" stroke="#AAAAAA" /><line x1="15.000000" x2="15.000000" y1="91.000000" y2="96.000000" stroke="#AAAAAA" /><line x1="16.764706" x2="16.764706" y1="91.000000" y2="96.000000" stroke="#AAAAAA" /><text style="font-size:10px;font-family:OpenSans;fill:#000000;" text-anchor="middle" x="16.764706" y="106.000000">3</text><line x1="159.705882" x2="159.705882" y1="91.000000" y2="96.000000" stroke="#AAAAAA" /><text style="font-size:10px;font-family:OpenSans;fill:#000000;" text-anchor="middle" x="159.705882" y="106.000000">246</text><line x1="195.000000" x2="195.000000" y1="91.000000" y2="96.000000" stroke="#AAAAAA" /><text style="font-size:10px;font-family:OpenSans;fill:#000000;" text-anchor="middle" x="195.000000" y="106.000000">306</text><line x1="248.529412" x2="248.529412" y1="91.000000" y2="96.000000" stroke="#AAAAAA" /><text style="font-size:10px;font-family:OpenSans;fill:#000000;" text-anchor="middle" x="248.529412" y="106.000000">397</text><line x1="283.823529" x2="283.823529" y1="91.000000" y2="96.000000" stroke="#AAAAAA" /><text style="font-size:10px;font-family:OpenSans;fill:#000000;" text-anchor="middle" x="283.823529" y="106.000000">457</text><line x1="321.470588" x2="321.470588" y1="91.000000" y2="96.000000" stroke="#AAAAAA" /><text style="font-size:10px;font-family:OpenSans;fill:#000000;" text-anchor="middle" x="321.470588" y="106.000000">521</text><line x1="349.117647" x2="349.117647" y1="91.000000" y2="96.000000" stroke="#AAAAAA" /><text style="font-size:10px;font-family:OpenSans;fill:#000000;" text-anchor="middle" x="349.117647" y="106.000000">568</text><line x1="387.941176" x2="387.941176" y1="91.000000" y2="96.000000" stroke="#AAAAAA" /><text style="font-size:10px;font-family:OpenSans;fill:#000000;" text-anchor="middle" x="387.941176" y="106.000000">634</text><line x1="415.000000" x2="415.000000" y1="91.000000" y2="96.000000" stroke="#AAAAAA" /><text style="font-size:10px;font-family:OpenSans;fill:#000000;" text-anchor="middle" x="415.000000" y="106.000000">680</text></g>
</svg>
