<?xml version='1.0'?>
<svg xmlns="http://www.w3.org/2000/svg" xmlns:xlink="http://www.w3.org/1999/xlink" width="430.000000" height="184.400000">
<defs>
  <filter id="ds" x="0" y="0">
    <feOffset in="SourceAlpha" dx="2" dy="2" />
    <feComponentTransfer><feFuncA type="linear" slope="0.2"/></feComponentTransfer>
    <feGaussianBlur result="blurOut" stdDeviation="1" />
    <feBlend in="SourceGraphic" in2="blurOut" mode="normal" />
  </filter>
  <pattern id="disordered-hatch" patternUnits="userSpaceOnUse" width="4" height="4">
    <path d="M-1,1 l2,-2 M0,4 l4,-4 M3,5 l2,-2" stroke="#000000" opacity="0.3" />
  </pattern>
</defs>
<line x1="24.090909" x2="24.090909" y1="46.500000" y2="87.000000" stroke="#BABDB6" stroke-width="2"/><a xlink:title="G11R"><circle cx="24.090909" cy="46.500000" r="4.000000" fill="#ff0000" /></a><g transform="translate(24.090909,46.500000) rotate(-30)"><text style="font-size:10px;font-family:OpenSans;fill:#555;" text-anchor="middle" x="0" y="-6.000000">G11R</text></g><line x1="26.570248" x2="26.570248" y1="59.000000" y2="87.000000" stroke="#BABDB6" stroke-width="2"/><a xlink:title="A14P"><circle cx="26.570248" cy="59.000000" r="4.000000" fill="#ff0000" /></a><g transform="translate(26.570248,59.000000) rotate(-30)"><text style="font-size:10px;font-family:OpenSans;fill:#555;" text-anchor="middle" x="0" y="-6.000000">A14P</text></g><line x1="329.049587" x2="329.049587" y1="59.000000" y2="87.000000" stroke="#BABDB6" stroke-width="2"/><a xlink:title="H380Y"><circle cx="329.049587" cy="59.000000" r="4.000000" fill="#ff0000" /></a><g transform="translate(329.049587,59.000000) rotate(-30)"><text style="font-size:10px;font-family:OpenSans;fill:#555;" text-anchor="middle" x="0" y="-6.000000">H380Y</text></g><line x1="340.619835" x2="340.619835" y1="59.000000" y2="87.000000" stroke="#BABDB6" stroke-width="2"/><a xlink:title="H394Y"><circle cx="340.619835" cy="59.000000" r="4.000000" fill="#ff0000" /></a><g transform="translate(340.619835,59.000000) rotate(-30)"><text style="font-size:10px;font-family:OpenSans;fill:#555;" text-anchor="middle" x="0" y="-6.000000">H394Y</text></g><line x1="348.884298" x2="348.884298" y1="34.000000" y2="87.000000" stroke="#BABDB6" stroke-width="2"/><a xlink:title="I404I"><circle cx="348.884298" cy="34.000000" r="4.000000" fill="#0000ff" /></a><g transform="translate(348.884298,34.000000) rotate(-30)"><text style="font-size:10px;font-family:OpenSans;fill:#555;" text-anchor="middle" x="0" y="-6.000000">I404I</text></g><line x1="351.363636" x2="351.363636" y1="46.500000" y2="87.000000" stroke="#BABDB6" stroke-width="2"/><a xlink:title="I407I"><circle cx="351.363636" cy="46.500000" r="4.000000" fill="#0000ff" /></a><g transform="translate(351.363636,46.500000) rotate(-30)"><text style="font-size:10px;font-family:OpenSans;fill:#555;" text-anchor="middle" x="0" y="-6.000000">I407I</text></g><line x1="352.190083" x2="352.190083" y1="59.000000" y2="87.000000" stroke="#BABDB6" stroke-width="2"/><a xlink:title="I408I"><circle cx="352.190083" cy="59.000000" r="4.000000" fill="#0000ff" /></a><g transform="translate(352.190083,59.000000) rotate(-30)"><text style="font-size:10px;font-family:OpenSans;fill:#555;" text-anchor="middle" x="0" y="-6.000000">I408I</text></g><line x1="360.454545" x2="360.454545" y1="59.000000" y2="87.000000" stroke="#BABDB6" stroke-width="2"/><a xlink:title="I418I"><circle cx="360.454545" cy="59.000000" r="4.000000" fill="#0000ff" /></a><g transform="translate(360.454545,59.000000) rotate(-30)"><text style="font-size:10px;font-family:OpenSans;fill:#555;" text-anchor="middle" x="0" y="-6.000000">I418I</text></g><line x1="367.066116" x2="367.066116" y1="46.500000" y2="87.000000" stroke="#BABDB6" stroke-width="2"/><a xlink:title="H426Y"><circle cx="367.066116" cy="46.500000" r="4.000000" fill="#ff0000" /></a><g transform="translate(367.066116,46.500000) rotate(-30)"><text style="font-size:10px;font-family:OpenSans;fill:#555;" text-anchor="middle" x="0" y="-6.000000">H426Y</text></g><line x1="372.851240" x2="372.851240" y1="46.500000" y2="87.000000" stroke="#BABDB6" stroke-width="2"/><a xlink:title="I433I"><circle cx="372.851240" cy="46.500000" r="4.000000" fill="#0000ff" /></a><g transform="translate(372.851240,46.500000) rotate(-30)"><text style="font-size:10px;font-family:OpenSans;fill:#555;" text-anchor="middle" x="0" y="-6.000000">I433I</text></g><line x1="373.677686" x2="373.677686" y1="59.000000" y2="87.000000" stroke="#BABDB6" stroke-width="2"/><a xlink:title="I434I"><circle cx="373.677686" cy="59.000000" r="4.000000" fill="#0000ff" /></a><g transform="translate(373.677686,59.000000) rotate(-30)"><text style="font-size:10px;font-family:OpenSans;fill:#555;" text-anchor="middle" x="0" y="-6.000000">I434I</text></g><line x1="386.900826" x2="386.900826" y1="34.000000" y2="87.000000" stroke="#BABDB6" stroke-width="2"/><a xlink:title="I450I"><circle cx="386.900826" cy="34.000000" r="4.000000" fill="#0000ff" /></a><g transform="translate(386.900826,34.000000) rotate(-30)"><text style="font-size:10px;font-family:OpenSans;fill:#555;" text-anchor="middle" x="0" y="-6.000000">I450I</text></g><line x1="387.727273" x2="387.727273" y1="46.500000" y2="87.000000" stroke="#BABDB6" stroke-width="2"/><a xlink:title="H451Y"><circle cx="387.727273" cy="46.500000" r="4.000000" fill="#ff0000" /></a><g transform="translate(387.727273,46.500000) rotate(-30)"><text style="font-size:10px;font-family:OpenSans;fill:#555;" text-anchor="middle" x="0" y="-6.000000">H451Y</text></g><line x1="388.553719" x2="388.553719" y1="59.000000" y2="87.000000" stroke="#BABDB6" stroke-width="2"/><a xlink:title="H452Y"><circle cx="388.553719" cy="59.000000" r="4.000000" fill="#ff0000" /></a><g transform="translate(388.553719,59.000000) rotate(-30)"><text style="font-size:10px;font-family:OpenSans;fill:#555;" text-anchor="middle" x="0" y="-6.000000">H452Y</text></g><line x1="407.561983" x2="407.561983" y1="46.500000" y2="87.000000" stroke="#BABDB6" stroke-width="2"/><a xlink:title="I475I"><circle cx="407.561983" cy="46.500000" r="4.000000" fill="#0000ff" /></a><g transform="translate(407.561983,46.500000) rotate(-30)"><text style="font-size:10px;font-family:OpenSans;fill:#555;" text-anchor="middle" x="0" y="-6.000000">I475I</text></g><line x1="408.388430" x2="408.388430" y1="59.000000" y2="87.000000" stroke="#BABDB6" stroke-width="2"/><a xlink:title="I476I"><circle cx="408.388430" cy="59.000000" r="4.000000" fill="#0000ff" /></a><g transform="translate(408.388430,59.000000) rotate(-30)"><text style="font-size:10px;font-family:OpenSans;fill:#555;" text-anchor="middle" x="0" y="-6.000000">I476I</text></g><a xlink:title=",  (484aa)"><rect fill="#BABDB6" x="15.000000" y="87.000000" width="400.000000" height="14.000000"/></a><g transform="translate(67.892562,82.000000)"><a xlink:href="https://www.ebi.ac.uk/interpro/entry/pfam/PF05076" xlink:title="Suppressor of fused protein (SUFU)"><rect fill="#2DCF00" x="0" y="0" width="145.454545" height="24.000000" filter="url(#ds)"/><text style="font-size:12px;font-family:OpenSans;fill:#ffffff;" text-anchor="middle" x="72.727273" y="16.000000">SUFU</text></a></g>
<g transform="translate(224.090909,82.000000)"><a xlink:href="https://www.ebi.ac.uk/interpro/entry/pfam/PF12470" xlink:title="Suppressor of Fused Gli/Ci N terminal binding domain"><rect fill="#FF5353" x="0" y="0" width="181.818182" height="24.000000" filter="url(#ds)"/><text style="font-size:12px;font-family:OpenSans;fill:#ffffff;" text-anchor="middle" x="90.909091" y="16.000000">SUFU_C</text></a></g>
<g class="axis">
<line x1="15.000000" x2="415.000000" y1="116.000000" y2="116.000000" stroke="#AAAAAA" /><line x1="15.000000" x2="15.000000" y1="116.000000" y2="121.000000" stroke="#AAAAAA" /><line x1="24.090909" x2="24.090909" y1="116.000000" y2="121.000000" stroke="#AAAAAA" /><text style="font-size:10px;font-family:OpenSans;fill:#000000;" text-anchor="middle" x="24.090909" y="131.000000">11</text><line x1="67.892562" x2="67.892562" y1="116.000000" y2="121.000000" stroke="#AAAAAA" /><text style="font-size:10px;font-family:OpenSans;fill:#000000;" text-anchor="middle" x="67.892562" y="131.000000">64</text><line x1="213.347107" x2="213.347107" y1="116.000000" y2="121.000000" stroke="#AAAAAA" /><text style="font-size:10px;font-family:OpenSans;fill:#000000;" text-anchor="middle" x="213.347107" y="131.000000">240</text><line x1="329.049587" x2="329.049587" y1="116.000000" y2="121.000000" stroke="#AAAAAA" /><text style="font-size:10px;font-family:OpenSans;fill:#000000;" text-anchor="middle" x="329.049587" y="131.000000">380</text><line x1="348.884298" x2="348.884298" y1="116.000000" y2="121.000000" stroke="#AAAAAA" /><text style="font-size:10px;font-family:OpenSans;fill:#000000;" text-anchor="middle" x="348.884298" y="131.000000">404</text><line x1="372.851240" x2="372.851240" y1="116.000000" y2="121.000000" stroke="#AAAAAA" /><text style="font-size:10px;font-family:OpenSans;fill:#000000;" text-anchor="middle" x="372.851240" y="131.000000">433</text><line x1="415.000000" x2="415.000000" y1="116.000000" y2="121.000000" stroke="#AAAAAA" /><text style="font-size:10px;font-family:OpenSans;fill:#000000;" text-anchor="middle" x="415.000000" y="131.000000">484</text></g>
<rect fill="#FF5353" x="4" y="145.000000" width="12" height="12" filter="url(#ds)"/><text style="font-size:12px;font-family:OpenSans;fill:#000000;" text-anchor="start" x="20" y="157.000000">Suppressor of Fused Gli/Ci N terminal binding domain</text><rect fill="#2DCF00" x="4" y="159.000000" width="12" height="12" filter="url(#ds)"/><text style="font-size:12px;font-family:OpenSans;fill:#000000;" text-anchor="start" x="20" y="171.000000">Suppressor of fused protein (SUFU)</text></svg>
