<?xml version='1.0'?>
<svg xmlns="http://www.w3.org/2000/svg" xmlns:xlink="http://www.w3.org/1999/xlink" width="1143.218750" height="146.200000">
<defs>
  <filter id="ds" x="0" y="0">
    <feOffset in="SourceAlpha" dx="2" dy="2" />
    <feComponentTransfer><feFuncA type="linear" slope="0.2"/></feComponentTransfer>
    <feGaussianBlur result="blurOut" stdDeviation="1" />
    <feBlend in="SourceGraphic" in2="blurOut" mode="normal" />
  </filter>
  <pattern id="disordered-hatch" patternUnits="userSpaceOnUse" width="4" height="4">
    <path d="M-1,1 l2,-2 M0,4 l4,-4 M3,5 l2,-2" stroke="#000000" opacity="0.3" />
  </pattern>
</defs>
<line x1="117.593750" x2="117.593750" y1="34.000000" y2="62.000000" stroke="#BABDB6" stroke-width="2"/><a xlink:title="T67T"><circle cx="117.593750" cy="34.000000" r="4.000000" fill="#0000ff" /></a><g transform="translate(117.593750,34.000000) rotate(-30)"><text style="font-size:10px;font-family:OpenSans;fill:#555;" text-anchor="middle" x="0" y="-6.000000">T67T</text></g><line x1="198.750000" x2="198.750000" y1="34.000000" y2="62.000000" stroke="#BABDB6" stroke-width="2"/><a xlink:title="R120R"><circle cx="198.750000" cy="34.000000" r="4.000000" fill="#0000ff" /></a><g transform="translate(198.750000,34.000000) rotate(-30)"><text style="font-size:10px;font-family:OpenSans;fill:#555;" text-anchor="middle" x="0" y="-6.000000">R120R</text></g><line x1="224.781250" x2="224.781250" y1="34.000000" y2="62.000000" stroke="#BABDB6" stroke-width="2"/><a xlink:title="T137S"><circle cx="224.781250" cy="34.000000" r="4.000000" fill="#ff0000" /></a><g transform="translate(224.781250,34.000000) rotate(-30)"><text style="font-size:10px;font-family:OpenSans;fill:#555;" text-anchor="middle" x="0" y="-6.000000">T137S</text></g><line x1="318.187500" x2="318.187500" y1="34.000000" y2="62.000000" stroke="#BABDB6" stroke-width="2"/><a xlink:title="D198N"><circle cx="318.187500" cy="34.000000" r="4.000000" fill="#ff0000" /></a><g transform="translate(318.187500,34.000000) rotate(-30)"><text style="font-size:10px;font-family:OpenSans;fill:#555;" text-anchor="middle" x="0" y="-6.000000">D198N</text></g><line x1="645.875000" x2="645.875000" y1="34.000000" y2="62.000000" stroke="#BABDB6" stroke-width="2"/><a xlink:title="T412T"><circle cx="645.875000" cy="34.000000" r="4.000000" fill="#0000ff" /></a><g transform="translate(645.875000,34.000000) rotate(-30)"><text style="font-size:10px;font-family:OpenSans;fill:#555;" text-anchor="middle" x="0" y="-6.000000">T412T</text></g><line x1="753.062500" x2="753.062500" y1="34.000000" y2="62.000000" stroke="#BABDB6" stroke-width="2"/><a xlink:title="T482S"><circle cx="753.062500" cy="34.000000" r="4.000000" fill="#ff0000" /></a><g transform="translate(753.062500,34.000000) rotate(-30)"><text style="font-size:10px;font-family:OpenSans;fill:#555;" text-anchor="middle" x="0" y="-6.000000">T482S</text></g><line x1="846.468750" x2="846.468750" y1="34.000000" y2="62.000000" stroke="#BABDB6" stroke-width="2"/><a xlink:title="D543N"><circle cx="846.468750" cy="34.000000" r="4.000000" fill="#ff0000" /></a><g transform="translate(846.468750,34.000000) rotate(-30)"><text style="font-size:10px;font-family:OpenSans;fill:#555;" text-anchor="middle" x="0" y="-6.000000">D543N</text></g><a xlink:title=",  (727aa)"><rect fill="#BABDB6" x="15.000000" y="62.000000" width="1113.218750" height="14.000000"/></a><g transform="translate(299.812500,57.000000)"><a xlink:href="https://www.ebi.ac.uk/interpro/entry/pfam/PF00083" xlink:title="Sugar (and other) transporter"><rect fill="#2DCF00" x="0" y="0" width="277.156250" height="24.000000" filter="url(#ds)"/><text style="font-size:12px;font-family:OpenSans;fill:#ffffff;" text-anchor="middle" x="138.578125" y="16.000000">Sugar (and other) transporter</text></a></g>
<g transform="translate(782.156250,57.000000)"><a xlink:href="https://www.ebi.ac.uk/interpro/entry/pfam/PF13599" xlink:title="Pentapeptide repeats (9 copies)"><rect fill="#FF5353" x="0" y="0" width="98.000000" height="24.000000" filter="url(#ds)"/><text style="font-size:12px;font-family:OpenSans;fill:#ffffff;" text-anchor="middle" x="49.000000" y="16.000000">Pentapeptide_4</text></a></g>
<g transform="translate(904.656250,57.000000)"><a xlink:href="https://www.ebi.ac.uk/interpro/entry/pfam/PF07690" xlink:title="Major Facilitator Superfamily"><rect fill="#5B5BFF" x="0" y="0" width="217.437500" height="24.000000" filter="url(#ds)"/><text style="font-size:12px;font-family:OpenSans;fill:#ffffff;" text-anchor="middle" x="108.718750" y="16.000000">Major Facilitator Superfamily</text></a></g>
<g class="axis">
<line x1="15.000000" x2="1128.218750" y1="91.000000" y2="91.000000" stroke="#AAAAAA" /><line x1="15.000000" x2="15.000000" y1="91.000000" y2="96.000000" stroke="#AAAAAA" /><line x1="15.000000" x2="15.000000" y1="91.000000" y2="96.000000" stroke="#AAAAAA" /><text style="font-size:10px;font-family:OpenSans;fill:#000000;" text-anchor="middle" x="15.000000" y="106.000000">0</text><line x1="117.593750" x2="117.593750" y1="91.000000" y2="96.000000" stroke="#AAAAAA" /><text style="font-size:10px;font-family:OpenSans;fill:#000000;" text-anchor="middle" x="117.593750" y="106.000000">67</text><line x1="198.750000" x2="198.750000" y1="91.000000" y2="96.000000" stroke="#AAAAAA" /><text style="font-size:10px;font-family:OpenSans;fill:#000000;" text-anchor="middle" x="198.750000" y="106.000000">120</text><line x1="224.781250" x2="224.781250" y1="91.000000" y2="96.000000" stroke="#AAAAAA" /><text style="font-size:10px;font-family:OpenSans;fill:#000000;" text-anchor="middle" x="224.781250" y="106.000000">137</text><line x1="318.187500" x2="318.187500" y1="91.000000" y2="96.000000" stroke="#AAAAAA" /><text style="font-size:10px;font-family:OpenSans;fill:#000000;" text-anchor="middle" x="318.187500" y="106.000000">198</text><line x1="576.968750" x2="576.968750" y1="91.000000" y2="96.000000" stroke="#AAAAAA" /><text style="font-size:10px;font-family:OpenSans;fill:#000000;" text-anchor="middle" x="576.968750" y="106.000000">367</text><line x1="645.875000" x2="645.875000" y1="91.000000" y2="96.000000" stroke="#AAAAAA" /><text style="font-size:10px;font-family:OpenSans;fill:#000000;" text-anchor="middle" x="645.875000" y="106.000000">412</text><line x1="753.062500" x2="753.062500" y1="91.000000" y2="96.000000" stroke="#AAAAAA" /><text style="font-size:10px;font-family:OpenSans;fill:#000000;" text-anchor="middle" x="753.062500" y="106.000000">482</text><line x1="782.156250" x2="782.156250" y1="91.000000" y2="96.000000" stroke="#AAAAAA" /><text style="font-size:10px;font-family:OpenSans;fill:#000000;" text-anchor="middle" x="782.156250" y="106.000000">501</text><line x1="846.468750" x2="846.468750" y1="91.000000" y2="96.000000" stroke="#AAAAAA" /><text style="font-size:10px;font-family:OpenSans;fill:#000000;" text-anchor="middle" x="846.468750" y="106.000000">543</text><line x1="880.156250" x2="880.156250" y1="91.000000" y2="96.000000" stroke="#AAAAAA" /><text style="font-size:10px;font-family:OpenSans;fill:#000000;" text-anchor="middle" x="880.156250" y="106.000000">565</text><line x1="904.656250" x2="904.656250" y1="91.000000" y2="96.000000" stroke="#AAAAAA" /><text style="font-size:10px;font-family:OpenSans;fill:#000000;" text-anchor="middle" x="904.656250" y="106.000000">581</text><line x1="1128.218750" x2="1128.218750" y1="91.000000" y2="96.000000" stroke="#AAAAAA" /><text style="font-size:10px;font-family:OpenSans;fill:#000000;" text-anchor="middle" x="1128.218750" y="106.000000">727</text></g>
<rect fill="#FF5353" x="4" y="120.000000" width="12" height="12" filter="url(#ds)"/><text style="font-size:12px;font-family:OpenSans;fill:#000000;" text-anchor="start" x="20" y="132.000000">Pentapeptide repeats (9 copies)</text></svg>
