<?xml version='1.0'?>
<svg xmlns="http://www.w3.org/2000/svg" xmlns:xlink="http://www.w3.org/1999/xlink" width="1022.432432" height="196.900000">
<defs>
  <filter id="ds" x="0" y="0">
    <feOffset in="SourceAlpha" dx="2" dy="2" />
    <feComponentTransfer><feFuncA type="linear" slope="0.2"/></feComponentTransfer>
    <feGaussianBlur result="blurOut" stdDeviation="1" />
    <feBlend in="SourceGraphic" in2="blurOut" mode="normal" />
  </filter>
  <pattern id="disordered-hatch" patternUnits="userSpaceOnUse" width="4" height="4">
    <path d="M-1,1 l2,-2 M0,4 l4,-4 M3,5 l2,-2" stroke="#000000" opacity="0.3" />
  </pattern>
</defs>
<line x1="80.513514" x2="80.513514" y1="34.000000" y2="99.500000" stroke="#BABDB6" stroke-width="2"/><a xlink:title="A101D"><circle cx="80.513514" cy="34.000000" r="4.000000" fill="#ff0000" /></a><g transform="translate(80.513514,34.000000) rotate(-30)"><text style="font-size:10px;font-family:OpenSans;fill:#555;" text-anchor="middle" x="0" y="-6.000000">A101D</text></g><line x1="81.162162" x2="81.162162" y1="46.500000" y2="99.500000" stroke="#BABDB6" stroke-width="2"/><a xlink:title="A102D"><circle cx="81.162162" cy="46.500000" r="4.000000" fill="#ff0000" /></a><g transform="translate(81.162162,46.500000) rotate(-30)"><text style="font-size:10px;font-family:OpenSans;fill:#555;" text-anchor="middle" x="0" y="-6.000000">A102D</text></g><line x1="85.054054" x2="85.054054" y1="59.000000" y2="99.500000" stroke="#BABDB6" stroke-width="2"/><a xlink:title="A108D"><circle cx="85.054054" cy="59.000000" r="4.000000" fill="#ff0000" /></a><g transform="translate(85.054054,59.000000) rotate(-30)"><text style="font-size:10px;font-family:OpenSans;fill:#555;" text-anchor="middle" x="0" y="-6.000000">A108D</text></g><line x1="85.702703" x2="85.702703" y1="71.500000" y2="99.500000" stroke="#BABDB6" stroke-width="2"/><a xlink:title="A109D"><circle cx="85.702703" cy="71.500000" r="4.000000" fill="#ff0000" /></a><g transform="translate(85.702703,71.500000) rotate(-30)"><text style="font-size:10px;font-family:OpenSans;fill:#555;" text-anchor="middle" x="0" y="-6.000000">A109D</text></g><line x1="688.945946" x2="688.945946" y1="71.500000" y2="99.500000" stroke="#BABDB6" stroke-width="2"/><a xlink:title="S1039Y"><circle cx="688.945946" cy="71.500000" r="4.000000" fill="#ff0000" /></a><g transform="translate(688.945946,71.500000) rotate(-30)"><text style="font-size:10px;font-family:OpenSans;fill:#555;" text-anchor="middle" x="0" y="-6.000000">S1039Y</text></g><line x1="763.540541" x2="763.540541" y1="71.500000" y2="99.500000" stroke="#BABDB6" stroke-width="2"/><a xlink:title="S1154Y"><circle cx="763.540541" cy="71.500000" r="4.000000" fill="#ff0000" /></a><g transform="translate(763.540541,71.500000) rotate(-30)"><text style="font-size:10px;font-family:OpenSans;fill:#555;" text-anchor="middle" x="0" y="-6.000000">S1154Y</text></g><line x1="795.324324" x2="795.324324" y1="34.000000" y2="99.500000" stroke="#BABDB6" stroke-width="2"/><a xlink:title="S1203Y"><circle cx="795.324324" cy="34.000000" r="4.000000" fill="#ff0000" /></a><g transform="translate(795.324324,34.000000) rotate(-30)"><text style="font-size:10px;font-family:OpenSans;fill:#555;" text-anchor="middle" x="0" y="-6.000000">S1203Y</text></g><line x1="795.972973" x2="795.972973" y1="46.500000" y2="99.500000" stroke="#BABDB6" stroke-width="2"/><a xlink:title="S1204Y"><circle cx="795.972973" cy="46.500000" r="4.000000" fill="#ff0000" /></a><g transform="translate(795.972973,46.500000) rotate(-30)"><text style="font-size:10px;font-family:OpenSans;fill:#555;" text-anchor="middle" x="0" y="-6.000000">S1204Y</text></g><line x1="799.864865" x2="799.864865" y1="59.000000" y2="99.500000" stroke="#BABDB6" stroke-width="2"/><a xlink:title="S1210Y"><circle cx="799.864865" cy="59.000000" r="4.000000" fill="#ff0000" /></a><g transform="translate(799.864865,59.000000) rotate(-30)"><text style="font-size:10px;font-family:OpenSans;fill:#555;" text-anchor="middle" x="0" y="-6.000000">S1210Y</text></g><line x1="800.513514" x2="800.513514" y1="71.500000" y2="99.500000" stroke="#BABDB6" stroke-width="2"/><a xlink:title="S1211Y"><circle cx="800.513514" cy="71.500000" r="4.000000" fill="#ff0000" /></a><g transform="translate(800.513514,71.500000) rotate(-30)"><text style="font-size:10px;font-family:OpenSans;fill:#555;" text-anchor="middle" x="0" y="-6.000000">S1211Y</text></g><a xlink:title=",  (1530aa)"><rect fill="#BABDB6" x="15.000000" y="99.500000" width="992.432432" height="14.000000"/></a><g transform="translate(20.837838,94.500000)"><a xlink:href="https://www.ebi.ac.uk/interpro/entry/pfam/PF18581" xlink:title="Synaptonemal complex 2 armadillo-repeat-like domain"><rect fill="#2DCF00" x="0" y="0" width="115.459459" height="24.000000" filter="url(#ds)"/><text style="font-size:12px;font-family:OpenSans;fill:#ffffff;" text-anchor="middle" x="57.729730" y="16.000000">SYCP2_ARLD</text></a></g>
<g transform="translate(195.324324,94.500000)"><a xlink:href="https://www.ebi.ac.uk/interpro/entry/pfam/PF18584" xlink:title="Synaptonemal complex 2 Spt16M-like domain"><rect fill="#FF5353" x="0" y="0" width="72.000000" height="24.000000" filter="url(#ds)"/><text style="font-size:12px;font-family:OpenSans;fill:#ffffff;" text-anchor="middle" x="36.000000" y="16.000000">SYCP2_SLD</text></a></g>
<g class="axis">
<line x1="15.000000" x2="1007.432432" y1="128.500000" y2="128.500000" stroke="#AAAAAA" /><line x1="15.000000" x2="15.000000" y1="128.500000" y2="133.500000" stroke="#AAAAAA" /><line x1="20.837838" x2="20.837838" y1="128.500000" y2="133.500000" stroke="#AAAAAA" /><text style="font-size:10px;font-family:OpenSans;fill:#000000;" text-anchor="middle" x="20.837838" y="143.500000">9</text><line x1="80.513514" x2="80.513514" y1="128.500000" y2="133.500000" stroke="#AAAAAA" /><text style="font-size:10px;font-family:OpenSans;fill:#000000;" text-anchor="middle" x="80.513514" y="143.500000">101</text><line x1="136.297297" x2="136.297297" y1="128.500000" y2="133.500000" stroke="#AAAAAA" /><text style="font-size:10px;font-family:OpenSans;fill:#000000;" text-anchor="middle" x="136.297297" y="143.500000">187</text><line x1="195.324324" x2="195.324324" y1="128.500000" y2="133.500000" stroke="#AAAAAA" /><text style="font-size:10px;font-family:OpenSans;fill:#000000;" text-anchor="middle" x="195.324324" y="143.500000">278</text><line x1="267.324324" x2="267.324324" y1="128.500000" y2="133.500000" stroke="#AAAAAA" /><text style="font-size:10px;font-family:OpenSans;fill:#000000;" text-anchor="middle" x="267.324324" y="143.500000">389</text><line x1="688.945946" x2="688.945946" y1="128.500000" y2="133.500000" stroke="#AAAAAA" /><text style="font-size:10px;font-family:OpenSans;fill:#000000;" text-anchor="middle" x="688.945946" y="143.500000">1039</text><line x1="763.540541" x2="763.540541" y1="128.500000" y2="133.500000" stroke="#AAAAAA" /><text style="font-size:10px;font-family:OpenSans;fill:#000000;" text-anchor="middle" x="763.540541" y="143.500000">1154</text><line x1="795.324324" x2="795.324324" y1="128.500000" y2="133.500000" stroke="#AAAAAA" /><text style="font-size:10px;font-family:OpenSans;fill:#000000;" text-anchor="middle" x="795.324324" y="143.500000">1203</text><line x1="1007.432432" x2="1007.432432" y1="128.500000" y2="133.500000" stroke="#AAAAAA" /><text style="font-size:10px;font-family:OpenSans;fill:#000000;" text-anchor="middle" x="1007.432432" y="143.500000">1530</text></g>
<rect fill="#2DCF00" x="4" y="157.500000" width="12" height="12" filter="url(#ds)"/><text style="font-size:12px;font-family:OpenSans;fill:#000000;" text-anchor="start" x="20" y="169.500000">Synaptonemal complex 2 armadillo-repeat-like domain</text><rect fill="#FF5353" x="4" y="171.500000" width="12" height="12" filter="url(#ds)"/><text style="font-size:12px;font-family:OpenSans;fill:#000000;" text-anchor="start" x="20" y="183.500000">Synaptonemal complex 2 Spt16M-like domain</text></svg>
