<?xml version='1.0'?>
<svg xmlns="http://www.w3.org/2000/svg" xmlns:xlink="http://www.w3.org/1999/xlink" width="430.000000" height="158.000000">
<defs>
  <filter id="ds" x="0" y="0">
    <feOffset in="SourceAlpha" dx="2" dy="2" />
    <feComponentTransfer><feFuncA type="linear" slope="0.2"/></feComponentTransfer>
    <feGaussianBlur result="blurOut" stdDeviation="1" />
    <feBlend in="SourceGraphic" in2="blurOut" mode="normal" />
  </filter>
  <pattern id="disordered-hatch" patternUnits="userSpaceOnUse" width="4" height="4">
    <path d="M-1,1 l2,-2 M0,4 l4,-4 M3,5 l2,-2" stroke="#000000" opacity="0.3" />
  </pattern>
</defs>
<line x1="97.687339" x2="97.687339" y1="59.000000" y2="87.000000" stroke="#BABDB6" stroke-width="2"/><a xlink:title="G80D"><circle cx="97.687339" cy="59.000000" r="4.000000" fill="#ff0000" /></a><g transform="translate(97.687339,59.000000) rotate(-30)"><text style="font-size:10px;font-family:OpenSans;fill:#555;" text-anchor="middle" x="0" y="-6.000000">G80D</text></g><line x1="111.124031" x2="111.124031" y1="34.000000" y2="87.000000" stroke="#BABDB6" stroke-width="2"/><a xlink:title="G93D"><circle cx="111.124031" cy="34.000000" r="4.000000" fill="#ff0000" /></a><g transform="translate(111.124031,34.000000) rotate(-30)"><text style="font-size:10px;font-family:OpenSans;fill:#555;" text-anchor="middle" x="0" y="-6.000000">G93D</text></g><line x1="112.157623" x2="112.157623" y1="46.500000" y2="87.000000" stroke="#BABDB6" stroke-width="2"/><a xlink:title="G94D"><circle cx="112.157623" cy="46.500000" r="4.000000" fill="#ff0000" /></a><g transform="translate(112.157623,46.500000) rotate(-30)"><text style="font-size:10px;font-family:OpenSans;fill:#555;" text-anchor="middle" x="0" y="-6.000000">G94D</text></g><line x1="113.191214" x2="113.191214" y1="59.000000" y2="87.000000" stroke="#BABDB6" stroke-width="2"/><a xlink:title="G95D"><circle cx="113.191214" cy="59.000000" r="4.000000" fill="#ff0000" /></a><g transform="translate(113.191214,59.000000) rotate(-30)"><text style="font-size:10px;font-family:OpenSans;fill:#555;" text-anchor="middle" x="0" y="-6.000000">G95D</text></g><line x1="388.126615" x2="388.126615" y1="59.000000" y2="87.000000" stroke="#BABDB6" stroke-width="2"/><a xlink:title="P361T"><circle cx="388.126615" cy="59.000000" r="4.000000" fill="#ff0000" /></a><g transform="translate(388.126615,59.000000) rotate(-30)"><text style="font-size:10px;font-family:OpenSans;fill:#555;" text-anchor="middle" x="0" y="-6.000000">P361T</text></g><line x1="401.563307" x2="401.563307" y1="34.000000" y2="87.000000" stroke="#BABDB6" stroke-width="2"/><a xlink:title="P374T"><circle cx="401.563307" cy="34.000000" r="4.000000" fill="#ff0000" /></a><g transform="translate(401.563307,34.000000) rotate(-30)"><text style="font-size:10px;font-family:OpenSans;fill:#555;" text-anchor="middle" x="0" y="-6.000000">P374T</text></g><line x1="402.596899" x2="402.596899" y1="46.500000" y2="87.000000" stroke="#BABDB6" stroke-width="2"/><a xlink:title="P375T"><circle cx="402.596899" cy="46.500000" r="4.000000" fill="#ff0000" /></a><g transform="translate(402.596899,46.500000) rotate(-30)"><text style="font-size:10px;font-family:OpenSans;fill:#555;" text-anchor="middle" x="0" y="-6.000000">P375T</text></g><line x1="403.630491" x2="403.630491" y1="59.000000" y2="87.000000" stroke="#BABDB6" stroke-width="2"/><a xlink:title="P376T"><circle cx="403.630491" cy="59.000000" r="4.000000" fill="#ff0000" /></a><g transform="translate(403.630491,59.000000) rotate(-30)"><text style="font-size:10px;font-family:OpenSans;fill:#555;" text-anchor="middle" x="0" y="-6.000000">P376T</text></g><a xlink:title=",  (387aa)"><rect fill="#BABDB6" x="15.000000" y="87.000000" width="400.000000" height="14.000000"/></a><g transform="translate(137.997416,82.000000)"><a xlink:href="https://www.ebi.ac.uk/interpro/entry/pfam/PF00168" xlink:title="C2 domain"><rect fill="#2DCF00" x="0" y="0" width="105.426357" height="24.000000" filter="url(#ds)"/><text style="font-size:12px;font-family:OpenSans;fill:#ffffff;" text-anchor="middle" x="52.713178" y="16.000000">C2 domain</text></a></g>
<g transform="translate(269.263566,82.000000)"><a xlink:href="https://www.ebi.ac.uk/interpro/entry/pfam/PF00168" xlink:title="C2 domain"><rect fill="#FF5353" x="0" y="0" width="104.392765" height="24.000000" filter="url(#ds)"/><text style="font-size:12px;font-family:OpenSans;fill:#ffffff;" text-anchor="middle" x="52.196382" y="16.000000">C2 domain</text></a></g>
<g class="axis">
<line x1="15.000000" x2="415.000000" y1="116.000000" y2="116.000000" stroke="#AAAAAA" /><line x1="15.000000" x2="15.000000" y1="116.000000" y2="121.000000" stroke="#AAAAAA" /><line x1="15.000000" x2="15.000000" y1="116.000000" y2="121.000000" stroke="#AAAAAA" /><text style="font-size:10px;font-family:OpenSans;fill:#000000;" text-anchor="middle" x="15.000000" y="131.000000">0</text><line x1="97.687339" x2="97.687339" y1="116.000000" y2="121.000000" stroke="#AAAAAA" /><text style="font-size:10px;font-family:OpenSans;fill:#000000;" text-anchor="middle" x="97.687339" y="131.000000">80</text><line x1="137.997416" x2="137.997416" y1="116.000000" y2="121.000000" stroke="#AAAAAA" /><text style="font-size:10px;font-family:OpenSans;fill:#000000;" text-anchor="middle" x="137.997416" y="131.000000">119</text><line x1="243.423773" x2="243.423773" y1="116.000000" y2="121.000000" stroke="#AAAAAA" /><text style="font-size:10px;font-family:OpenSans;fill:#000000;" text-anchor="middle" x="243.423773" y="131.000000">221</text><line x1="269.263566" x2="269.263566" y1="116.000000" y2="121.000000" stroke="#AAAAAA" /><text style="font-size:10px;font-family:OpenSans;fill:#000000;" text-anchor="middle" x="269.263566" y="131.000000">246</text><line x1="388.126615" x2="388.126615" y1="116.000000" y2="121.000000" stroke="#AAAAAA" /><text style="font-size:10px;font-family:OpenSans;fill:#000000;" text-anchor="middle" x="388.126615" y="131.000000">361</text><line x1="415.000000" x2="415.000000" y1="116.000000" y2="121.000000" stroke="#AAAAAA" /><text style="font-size:10px;font-family:OpenSans;fill:#000000;" text-anchor="middle" x="415.000000" y="131.000000">387</text></g>
</svg>
