<?xml version='1.0'?>
<svg xmlns="http://www.w3.org/2000/svg" xmlns:xlink="http://www.w3.org/1999/xlink" width="512.222222" height="171.900000">
<defs>
  <filter id="ds" x="0" y="0">
    <feOffset in="SourceAlpha" dx="2" dy="2" />
    <feComponentTransfer><feFuncA type="linear" slope="0.2"/></feComponentTransfer>
    <feGaussianBlur result="blurOut" stdDeviation="1" />
    <feBlend in="SourceGraphic" in2="blurOut" mode="normal" />
  </filter>
  <pattern id="disordered-hatch" patternUnits="userSpaceOnUse" width="4" height="4">
    <path d="M-1,1 l2,-2 M0,4 l4,-4 M3,5 l2,-2" stroke="#000000" opacity="0.3" />
  </pattern>
</defs>
<line x1="19.000000" x2="19.000000" y1="46.500000" y2="74.500000" stroke="#BABDB6" stroke-width="2"/><a xlink:title="G9G"><circle cx="19.000000" cy="46.500000" r="4.000000" fill="#0000ff" /></a><g transform="translate(19.000000,46.500000) rotate(-30)"><text style="font-size:10px;font-family:OpenSans;fill:#555;" text-anchor="middle" x="0" y="-6.000000">G9G</text></g><line x1="61.222222" x2="61.222222" y1="46.500000" y2="74.500000" stroke="#BABDB6" stroke-width="2"/><a xlink:title="R104H"><circle cx="61.222222" cy="46.500000" r="4.000000" fill="#ff0000" /></a><g transform="translate(61.222222,46.500000) rotate(-30)"><text style="font-size:10px;font-family:OpenSans;fill:#555;" text-anchor="middle" x="0" y="-6.000000">R104H</text></g><line x1="75.444444" x2="75.444444" y1="46.500000" y2="74.500000" stroke="#BABDB6" stroke-width="2"/><a xlink:title="S136A"><circle cx="75.444444" cy="46.500000" r="4.000000" fill="#ff0000" /></a><g transform="translate(75.444444,46.500000) rotate(-30)"><text style="font-size:10px;font-family:OpenSans;fill:#555;" text-anchor="middle" x="0" y="-6.000000">S136A</text></g><line x1="139.000000" x2="139.000000" y1="46.500000" y2="74.500000" stroke="#BABDB6" stroke-width="2"/><a xlink:title="T279T"><circle cx="139.000000" cy="46.500000" r="4.000000" fill="#0000ff" /></a><g transform="translate(139.000000,46.500000) rotate(-30)"><text style="font-size:10px;font-family:OpenSans;fill:#555;" text-anchor="middle" x="0" y="-6.000000">T279T</text></g><line x1="158.555556" x2="158.555556" y1="34.000000" y2="74.500000" stroke="#BABDB6" stroke-width="2"/><a xlink:title="A323A"><circle cx="158.555556" cy="34.000000" r="4.000000" fill="#0000ff" /></a><g transform="translate(158.555556,34.000000) rotate(-30)"><text style="font-size:10px;font-family:OpenSans;fill:#555;" text-anchor="middle" x="0" y="-6.000000">A323A</text></g><line x1="160.777778" x2="160.777778" y1="46.500000" y2="74.500000" stroke="#BABDB6" stroke-width="2"/><a xlink:title="Q328Q"><circle cx="160.777778" cy="46.500000" r="4.000000" fill="#0000ff" /></a><g transform="translate(160.777778,46.500000) rotate(-30)"><text style="font-size:10px;font-family:OpenSans;fill:#555;" text-anchor="middle" x="0" y="-6.000000">Q328Q</text></g><line x1="176.777778" x2="176.777778" y1="46.500000" y2="74.500000" stroke="#BABDB6" stroke-width="2"/><a xlink:title="G364G"><circle cx="176.777778" cy="46.500000" r="4.000000" fill="#0000ff" /></a><g transform="translate(176.777778,46.500000) rotate(-30)"><text style="font-size:10px;font-family:OpenSans;fill:#555;" text-anchor="middle" x="0" y="-6.000000">G364G</text></g><line x1="184.333333" x2="184.333333" y1="46.500000" y2="74.500000" stroke="#BABDB6" stroke-width="2"/><a xlink:title="G381G"><circle cx="184.333333" cy="46.500000" r="4.000000" fill="#0000ff" /></a><g transform="translate(184.333333,46.500000) rotate(-30)"><text style="font-size:10px;font-family:OpenSans;fill:#555;" text-anchor="middle" x="0" y="-6.000000">G381G</text></g><line x1="299.000000" x2="299.000000" y1="46.500000" y2="74.500000" stroke="#BABDB6" stroke-width="2"/><a xlink:title="A639A"><circle cx="299.000000" cy="46.500000" r="4.000000" fill="#0000ff" /></a><g transform="translate(299.000000,46.500000) rotate(-30)"><text style="font-size:10px;font-family:OpenSans;fill:#555;" text-anchor="middle" x="0" y="-6.000000">A639A</text></g><line x1="342.111111" x2="342.111111" y1="46.500000" y2="74.500000" stroke="#BABDB6" stroke-width="2"/><a xlink:title="G736G"><circle cx="342.111111" cy="46.500000" r="4.000000" fill="#0000ff" /></a><g transform="translate(342.111111,46.500000) rotate(-30)"><text style="font-size:10px;font-family:OpenSans;fill:#555;" text-anchor="middle" x="0" y="-6.000000">G736G</text></g><line x1="464.333333" x2="464.333333" y1="46.500000" y2="74.500000" stroke="#BABDB6" stroke-width="2"/><a xlink:title="A1011A"><circle cx="464.333333" cy="46.500000" r="4.000000" fill="#0000ff" /></a><g transform="translate(464.333333,46.500000) rotate(-30)"><text style="font-size:10px;font-family:OpenSans;fill:#555;" text-anchor="middle" x="0" y="-6.000000">A1011A</text></g><a xlink:title=",  (1085aa)"><rect fill="#BABDB6" x="15.000000" y="74.500000" width="482.222222" height="14.000000"/></a><g transform="translate(278.111111,69.500000)"><a xlink:href="https://www.ebi.ac.uk/interpro/entry/pfam/PF07531" xlink:title="NHR1 homology to TAF"><rect fill="#2DCF00" x="0" y="0" width="40.000000" height="24.000000" filter="url(#ds)"/><text style="font-size:12px;font-family:OpenSans;fill:#ffffff;" text-anchor="middle" x="20.000000" y="16.000000">TAFH</text></a></g>
<g transform="translate(385.666667,69.500000)"><a xlink:href="https://www.ebi.ac.uk/interpro/entry/pfam/PF05236" xlink:title="Transcription initiation factor TFIID component TAF4 family"><rect fill="#FF5353" x="0" y="0" width="110.222222" height="24.000000" filter="url(#ds)"/><text style="font-size:12px;font-family:OpenSans;fill:#ffffff;" text-anchor="middle" x="55.111111" y="16.000000">TAF4</text></a></g>
<g class="axis">
<line x1="15.000000" x2="497.222222" y1="103.500000" y2="103.500000" stroke="#AAAAAA" /><line x1="15.000000" x2="15.000000" y1="103.500000" y2="108.500000" stroke="#AAAAAA" /><line x1="19.000000" x2="19.000000" y1="103.500000" y2="108.500000" stroke="#AAAAAA" /><text style="font-size:10px;font-family:OpenSans;fill:#000000;" text-anchor="middle" x="19.000000" y="118.500000">9</text><line x1="61.222222" x2="61.222222" y1="103.500000" y2="108.500000" stroke="#AAAAAA" /><text style="font-size:10px;font-family:OpenSans;fill:#000000;" text-anchor="middle" x="61.222222" y="118.500000">104</text><line x1="139.000000" x2="139.000000" y1="103.500000" y2="108.500000" stroke="#AAAAAA" /><text style="font-size:10px;font-family:OpenSans;fill:#000000;" text-anchor="middle" x="139.000000" y="118.500000">279</text><line x1="160.777778" x2="160.777778" y1="103.500000" y2="108.500000" stroke="#AAAAAA" /><text style="font-size:10px;font-family:OpenSans;fill:#000000;" text-anchor="middle" x="160.777778" y="118.500000">328</text><line x1="184.333333" x2="184.333333" y1="103.500000" y2="108.500000" stroke="#AAAAAA" /><text style="font-size:10px;font-family:OpenSans;fill:#000000;" text-anchor="middle" x="184.333333" y="118.500000">381</text><line x1="278.111111" x2="278.111111" y1="103.500000" y2="108.500000" stroke="#AAAAAA" /><text style="font-size:10px;font-family:OpenSans;fill:#000000;" text-anchor="middle" x="278.111111" y="118.500000">592</text><line x1="299.000000" x2="299.000000" y1="103.500000" y2="108.500000" stroke="#AAAAAA" /><text style="font-size:10px;font-family:OpenSans;fill:#000000;" text-anchor="middle" x="299.000000" y="118.500000">639</text><line x1="342.111111" x2="342.111111" y1="103.500000" y2="108.500000" stroke="#AAAAAA" /><text style="font-size:10px;font-family:OpenSans;fill:#000000;" text-anchor="middle" x="342.111111" y="118.500000">736</text><line x1="385.666667" x2="385.666667" y1="103.500000" y2="108.500000" stroke="#AAAAAA" /><text style="font-size:10px;font-family:OpenSans;fill:#000000;" text-anchor="middle" x="385.666667" y="118.500000">834</text><line x1="464.333333" x2="464.333333" y1="103.500000" y2="108.500000" stroke="#AAAAAA" /><text style="font-size:10px;font-family:OpenSans;fill:#000000;" text-anchor="middle" x="464.333333" y="118.500000">1011</text><line x1="497.222222" x2="497.222222" y1="103.500000" y2="108.500000" stroke="#AAAAAA" /><text style="font-size:10px;font-family:OpenSans;fill:#000000;" text-anchor="middle" x="497.222222" y="118.500000">1085</text></g>
<rect fill="#FF5353" x="4" y="132.500000" width="12" height="12" filter="url(#ds)"/><text style="font-size:12px;font-family:OpenSans;fill:#000000;" text-anchor="start" x="20" y="144.500000">Transcription initiation factor TFIID component TAF4 family</text><rect fill="#2DCF00" x="4" y="146.500000" width="12" height="12" filter="url(#ds)"/><text style="font-size:12px;font-family:OpenSans;fill:#000000;" text-anchor="start" x="20" y="158.500000">NHR1 homology to TAF</text></svg>
