<?xml version='1.0'?>
<svg xmlns="http://www.w3.org/2000/svg" xmlns:xlink="http://www.w3.org/1999/xlink" width="430.000000" height="171.900000">
<defs>
  <filter id="ds" x="0" y="0">
    <feOffset in="SourceAlpha" dx="2" dy="2" />
    <feComponentTransfer><feFuncA type="linear" slope="0.2"/></feComponentTransfer>
    <feGaussianBlur result="blurOut" stdDeviation="1" />
    <feBlend in="SourceGraphic" in2="blurOut" mode="normal" />
  </filter>
  <pattern id="disordered-hatch" patternUnits="userSpaceOnUse" width="4" height="4">
    <path d="M-1,1 l2,-2 M0,4 l4,-4 M3,5 l2,-2" stroke="#000000" opacity="0.3" />
  </pattern>
</defs>
<line x1="23.746356" x2="23.746356" y1="46.500000" y2="74.500000" stroke="#BABDB6" stroke-width="2"/><a xlink:title="V15A"><circle cx="23.746356" cy="46.500000" r="4.000000" fill="#ff0000" /></a><g transform="translate(23.746356,46.500000) rotate(-30)"><text style="font-size:10px;font-family:OpenSans;fill:#555;" text-anchor="middle" x="0" y="-6.000000">V15A</text></g><line x1="46.486880" x2="46.486880" y1="46.500000" y2="74.500000" stroke="#BABDB6" stroke-width="2"/><a xlink:title="K54K"><circle cx="46.486880" cy="46.500000" r="4.000000" fill="#0000ff" /></a><g transform="translate(46.486880,46.500000) rotate(-30)"><text style="font-size:10px;font-family:OpenSans;fill:#555;" text-anchor="middle" x="0" y="-6.000000">K54K</text></g><line x1="70.393586" x2="70.393586" y1="46.500000" y2="74.500000" stroke="#BABDB6" stroke-width="2"/><a xlink:title="A95A"><circle cx="70.393586" cy="46.500000" r="4.000000" fill="#0000ff" /></a><g transform="translate(70.393586,46.500000) rotate(-30)"><text style="font-size:10px;font-family:OpenSans;fill:#555;" text-anchor="middle" x="0" y="-6.000000">A95A</text></g><line x1="80.306122" x2="80.306122" y1="46.500000" y2="74.500000" stroke="#BABDB6" stroke-width="2"/><a xlink:title="S112S"><circle cx="80.306122" cy="46.500000" r="4.000000" fill="#0000ff" /></a><g transform="translate(80.306122,46.500000) rotate(-30)"><text style="font-size:10px;font-family:OpenSans;fill:#555;" text-anchor="middle" x="0" y="-6.000000">S112S</text></g><line x1="109.460641" x2="109.460641" y1="46.500000" y2="74.500000" stroke="#BABDB6" stroke-width="2"/><a xlink:title="A162A"><circle cx="109.460641" cy="46.500000" r="4.000000" fill="#0000ff" /></a><g transform="translate(109.460641,46.500000) rotate(-30)"><text style="font-size:10px;font-family:OpenSans;fill:#555;" text-anchor="middle" x="0" y="-6.000000">A162A</text></g><line x1="206.253644" x2="206.253644" y1="46.500000" y2="74.500000" stroke="#BABDB6" stroke-width="2"/><a xlink:title="A328G"><circle cx="206.253644" cy="46.500000" r="4.000000" fill="#ff0000" /></a><g transform="translate(206.253644,46.500000) rotate(-30)"><text style="font-size:10px;font-family:OpenSans;fill:#555;" text-anchor="middle" x="0" y="-6.000000">A328G</text></g><line x1="235.991254" x2="235.991254" y1="34.000000" y2="74.500000" stroke="#BABDB6" stroke-width="2"/><a xlink:title="V379I"><circle cx="235.991254" cy="34.000000" r="4.000000" fill="#ff0000" /></a><g transform="translate(235.991254,34.000000) rotate(-30)"><text style="font-size:10px;font-family:OpenSans;fill:#555;" text-anchor="middle" x="0" y="-6.000000">V379I</text></g><line x1="240.072886" x2="240.072886" y1="46.500000" y2="74.500000" stroke="#BABDB6" stroke-width="2"/><a xlink:title="G386G"><circle cx="240.072886" cy="46.500000" r="4.000000" fill="#0000ff" /></a><g transform="translate(240.072886,46.500000) rotate(-30)"><text style="font-size:10px;font-family:OpenSans;fill:#555;" text-anchor="middle" x="0" y="-6.000000">G386G</text></g><line x1="269.227405" x2="269.227405" y1="46.500000" y2="74.500000" stroke="#BABDB6" stroke-width="2"/><a xlink:title="N436N"><circle cx="269.227405" cy="46.500000" r="4.000000" fill="#0000ff" /></a><g transform="translate(269.227405,46.500000) rotate(-30)"><text style="font-size:10px;font-family:OpenSans;fill:#555;" text-anchor="middle" x="0" y="-6.000000">N436N</text></g><line x1="344.446064" x2="344.446064" y1="46.500000" y2="74.500000" stroke="#BABDB6" stroke-width="2"/><a xlink:title="A565T"><circle cx="344.446064" cy="46.500000" r="4.000000" fill="#ff0000" /></a><g transform="translate(344.446064,46.500000) rotate(-30)"><text style="font-size:10px;font-family:OpenSans;fill:#555;" text-anchor="middle" x="0" y="-6.000000">A565T</text></g><line x1="351.443149" x2="351.443149" y1="46.500000" y2="74.500000" stroke="#BABDB6" stroke-width="2"/><a xlink:title="M577V"><circle cx="351.443149" cy="46.500000" r="4.000000" fill="#ff0000" /></a><g transform="translate(351.443149,46.500000) rotate(-30)"><text style="font-size:10px;font-family:OpenSans;fill:#555;" text-anchor="middle" x="0" y="-6.000000">M577V</text></g><line x1="364.854227" x2="364.854227" y1="34.000000" y2="74.500000" stroke="#BABDB6" stroke-width="2"/><a xlink:title="V600V"><circle cx="364.854227" cy="34.000000" r="4.000000" fill="#0000ff" /></a><g transform="translate(364.854227,34.000000) rotate(-30)"><text style="font-size:10px;font-family:OpenSans;fill:#555;" text-anchor="middle" x="0" y="-6.000000">V600V</text></g><line x1="367.186589" x2="367.186589" y1="46.500000" y2="74.500000" stroke="#BABDB6" stroke-width="2"/><a xlink:title="G604G"><circle cx="367.186589" cy="46.500000" r="4.000000" fill="#0000ff" /></a><g transform="translate(367.186589,46.500000) rotate(-30)"><text style="font-size:10px;font-family:OpenSans;fill:#555;" text-anchor="middle" x="0" y="-6.000000">G604G</text></g><line x1="392.259475" x2="392.259475" y1="34.000000" y2="74.500000" stroke="#BABDB6" stroke-width="2"/><a xlink:title="L647F"><circle cx="392.259475" cy="34.000000" r="4.000000" fill="#ff0000" /></a><g transform="translate(392.259475,34.000000) rotate(-30)"><text style="font-size:10px;font-family:OpenSans;fill:#555;" text-anchor="middle" x="0" y="-6.000000">L647F</text></g><line x1="394.591837" x2="394.591837" y1="46.500000" y2="74.500000" stroke="#BABDB6" stroke-width="2"/><a xlink:title="R651C"><circle cx="394.591837" cy="46.500000" r="4.000000" fill="#ff0000" /></a><g transform="translate(394.591837,46.500000) rotate(-30)"><text style="font-size:10px;font-family:OpenSans;fill:#555;" text-anchor="middle" x="0" y="-6.000000">R651C</text></g><line x1="402.755102" x2="402.755102" y1="46.500000" y2="74.500000" stroke="#BABDB6" stroke-width="2"/><a xlink:title="T665A"><circle cx="402.755102" cy="46.500000" r="4.000000" fill="#ff0000" /></a><g transform="translate(402.755102,46.500000) rotate(-30)"><text style="font-size:10px;font-family:OpenSans;fill:#555;" text-anchor="middle" x="0" y="-6.000000">T665A</text></g><line x1="40083.221574" x2="40083.221574" y1="46.500000" y2="74.500000" stroke="#BABDB6" stroke-width="2"/><a xlink:title="*68717r17"><circle cx="40083.221574" cy="46.500000" r="4.000000" fill="#ff0000" /></a><g transform="translate(40083.221574,46.500000) rotate(-30)"><text style="font-size:10px;font-family:OpenSans;fill:#555;" text-anchor="middle" x="0" y="-6.000000">*68717r17</text></g><a xlink:title=",  (686aa)"><rect fill="#BABDB6" x="15.000000" y="74.500000" width="400.000000" height="14.000000"/></a><g transform="translate(104.212828,69.500000)"><a xlink:href="https://www.ebi.ac.uk/interpro/entry/pfam/PF00664" xlink:title="ABC transporter transmembrane region"><rect fill="#2DCF00" x="0" y="0" width="153.352770" height="24.000000" filter="url(#ds)"/><text style="font-size:12px;font-family:OpenSans;fill:#ffffff;" text-anchor="middle" x="76.676385" y="16.000000">ABC_membrane</text></a></g>
<g transform="translate(298.381924,69.500000)"><a xlink:href="https://www.ebi.ac.uk/interpro/entry/pfam/PF00005" xlink:title="ABC transporter"><rect fill="#FF5353" x="0" y="0" width="86.880466" height="24.000000" filter="url(#ds)"/><text style="font-size:12px;font-family:OpenSans;fill:#ffffff;" text-anchor="middle" x="43.440233" y="16.000000">ABC_tran</text></a></g>
<g class="axis">
<line x1="15.000000" x2="415.000000" y1="103.500000" y2="103.500000" stroke="#AAAAAA" /><line x1="15.000000" x2="15.000000" y1="103.500000" y2="108.500000" stroke="#AAAAAA" /><line x1="23.746356" x2="23.746356" y1="103.500000" y2="108.500000" stroke="#AAAAAA" /><text style="font-size:10px;font-family:OpenSans;fill:#000000;" text-anchor="middle" x="23.746356" y="118.500000">15</text><line x1="46.486880" x2="46.486880" y1="103.500000" y2="108.500000" stroke="#AAAAAA" /><text style="font-size:10px;font-family:OpenSans;fill:#000000;" text-anchor="middle" x="46.486880" y="118.500000">54</text><line x1="70.393586" x2="70.393586" y1="103.500000" y2="108.500000" stroke="#AAAAAA" /><text style="font-size:10px;font-family:OpenSans;fill:#000000;" text-anchor="middle" x="70.393586" y="118.500000">95</text><line x1="109.460641" x2="109.460641" y1="103.500000" y2="108.500000" stroke="#AAAAAA" /><text style="font-size:10px;font-family:OpenSans;fill:#000000;" text-anchor="middle" x="109.460641" y="118.500000">162</text><line x1="206.253644" x2="206.253644" y1="103.500000" y2="108.500000" stroke="#AAAAAA" /><text style="font-size:10px;font-family:OpenSans;fill:#000000;" text-anchor="middle" x="206.253644" y="118.500000">328</text><line x1="235.991254" x2="235.991254" y1="103.500000" y2="108.500000" stroke="#AAAAAA" /><text style="font-size:10px;font-family:OpenSans;fill:#000000;" text-anchor="middle" x="235.991254" y="118.500000">379</text><line x1="269.227405" x2="269.227405" y1="103.500000" y2="108.500000" stroke="#AAAAAA" /><text style="font-size:10px;font-family:OpenSans;fill:#000000;" text-anchor="middle" x="269.227405" y="118.500000">436</text><line x1="298.381924" x2="298.381924" y1="103.500000" y2="108.500000" stroke="#AAAAAA" /><text style="font-size:10px;font-family:OpenSans;fill:#000000;" text-anchor="middle" x="298.381924" y="118.500000">486</text><line x1="344.446064" x2="344.446064" y1="103.500000" y2="108.500000" stroke="#AAAAAA" /><text style="font-size:10px;font-family:OpenSans;fill:#000000;" text-anchor="middle" x="344.446064" y="118.500000">565</text><line x1="364.854227" x2="364.854227" y1="103.500000" y2="108.500000" stroke="#AAAAAA" /><text style="font-size:10px;font-family:OpenSans;fill:#000000;" text-anchor="middle" x="364.854227" y="118.500000">600</text><line x1="392.259475" x2="392.259475" y1="103.500000" y2="108.500000" stroke="#AAAAAA" /><text style="font-size:10px;font-family:OpenSans;fill:#000000;" text-anchor="middle" x="392.259475" y="118.500000">647</text><line x1="415.000000" x2="415.000000" y1="103.500000" y2="108.500000" stroke="#AAAAAA" /><text style="font-size:10px;font-family:OpenSans;fill:#000000;" text-anchor="middle" x="415.000000" y="118.500000">686</text><line x1="40083.221574" x2="40083.221574" y1="103.500000" y2="108.500000" stroke="#AAAAAA" /><text style="font-size:10px;font-family:OpenSans;fill:#000000;" text-anchor="middle" x="40083.221574" y="118.500000">68717</text></g>
<rect fill="#2DCF00" x="4" y="132.500000" width="12" height="12" filter="url(#ds)"/><text style="font-size:12px;font-family:OpenSans;fill:#000000;" text-anchor="start" x="20" y="144.500000">ABC transporter transmembrane region</text><rect fill="#FF5353" x="4" y="146.500000" width="12" height="12" filter="url(#ds)"/><text style="font-size:12px;font-family:OpenSans;fill:#000000;" text-anchor="start" x="20" y="158.500000">ABC transporter</text></svg>
