<?xml version='1.0'?>
<svg xmlns="http://www.w3.org/2000/svg" xmlns:xlink="http://www.w3.org/1999/xlink" width="642.666667" height="171.900000">
<defs>
  <filter id="ds" x="0" y="0">
    <feOffset in="SourceAlpha" dx="2" dy="2" />
    <feComponentTransfer><feFuncA type="linear" slope="0.2"/></feComponentTransfer>
    <feGaussianBlur result="blurOut" stdDeviation="1" />
    <feBlend in="SourceGraphic" in2="blurOut" mode="normal" />
  </filter>
  <pattern id="disordered-hatch" patternUnits="userSpaceOnUse" width="4" height="4">
    <path d="M-1,1 l2,-2 M0,4 l4,-4 M3,5 l2,-2" stroke="#000000" opacity="0.3" />
  </pattern>
</defs>
<line x1="35.000000" x2="35.000000" y1="46.500000" y2="74.500000" stroke="#BABDB6" stroke-width="2"/><a xlink:title="C30R"><circle cx="35.000000" cy="46.500000" r="4.000000" fill="#ff0000" /></a><g transform="translate(35.000000,46.500000) rotate(-30)"><text style="font-size:10px;font-family:OpenSans;fill:#555;" text-anchor="middle" x="0" y="-6.000000">C30R</text></g><line x1="61.666667" x2="61.666667" y1="34.000000" y2="74.500000" stroke="#BABDB6" stroke-width="2"/><a xlink:title="S70S"><circle cx="61.666667" cy="34.000000" r="4.000000" fill="#0000ff" /></a><g transform="translate(61.666667,34.000000) rotate(-30)"><text style="font-size:10px;font-family:OpenSans;fill:#555;" text-anchor="middle" x="0" y="-6.000000">S70S</text></g><line x1="63.000000" x2="63.000000" y1="46.500000" y2="74.500000" stroke="#BABDB6" stroke-width="2"/><a xlink:title="T72A"><circle cx="63.000000" cy="46.500000" r="4.000000" fill="#ff0000" /></a><g transform="translate(63.000000,46.500000) rotate(-30)"><text style="font-size:10px;font-family:OpenSans;fill:#555;" text-anchor="middle" x="0" y="-6.000000">T72A</text></g><line x1="82.333333" x2="82.333333" y1="46.500000" y2="74.500000" stroke="#BABDB6" stroke-width="2"/><a xlink:title="R101W"><circle cx="82.333333" cy="46.500000" r="4.000000" fill="#ff0000" /></a><g transform="translate(82.333333,46.500000) rotate(-30)"><text style="font-size:10px;font-family:OpenSans;fill:#555;" text-anchor="middle" x="0" y="-6.000000">R101W</text></g><line x1="113.000000" x2="113.000000" y1="46.500000" y2="74.500000" stroke="#BABDB6" stroke-width="2"/><a xlink:title="C147R"><circle cx="113.000000" cy="46.500000" r="4.000000" fill="#ff0000" /></a><g transform="translate(113.000000,46.500000) rotate(-30)"><text style="font-size:10px;font-family:OpenSans;fill:#555;" text-anchor="middle" x="0" y="-6.000000">C147R</text></g><line x1="191.666667" x2="191.666667" y1="46.500000" y2="74.500000" stroke="#BABDB6" stroke-width="2"/><a xlink:title="R265W"><circle cx="191.666667" cy="46.500000" r="4.000000" fill="#ff0000" /></a><g transform="translate(191.666667,46.500000) rotate(-30)"><text style="font-size:10px;font-family:OpenSans;fill:#555;" text-anchor="middle" x="0" y="-6.000000">R265W</text></g><line x1="222.333333" x2="222.333333" y1="46.500000" y2="74.500000" stroke="#BABDB6" stroke-width="2"/><a xlink:title="C311R"><circle cx="222.333333" cy="46.500000" r="4.000000" fill="#ff0000" /></a><g transform="translate(222.333333,46.500000) rotate(-30)"><text style="font-size:10px;font-family:OpenSans;fill:#555;" text-anchor="middle" x="0" y="-6.000000">C311R</text></g><line x1="295.666667" x2="295.666667" y1="46.500000" y2="74.500000" stroke="#BABDB6" stroke-width="2"/><a xlink:title="A421A"><circle cx="295.666667" cy="46.500000" r="4.000000" fill="#0000ff" /></a><g transform="translate(295.666667,46.500000) rotate(-30)"><text style="font-size:10px;font-family:OpenSans;fill:#555;" text-anchor="middle" x="0" y="-6.000000">A421A</text></g><line x1="351.666667" x2="351.666667" y1="46.500000" y2="74.500000" stroke="#BABDB6" stroke-width="2"/><a xlink:title="V505M"><circle cx="351.666667" cy="46.500000" r="4.000000" fill="#ff0000" /></a><g transform="translate(351.666667,46.500000) rotate(-30)"><text style="font-size:10px;font-family:OpenSans;fill:#555;" text-anchor="middle" x="0" y="-6.000000">V505M</text></g><line x1="413.666667" x2="413.666667" y1="46.500000" y2="74.500000" stroke="#BABDB6" stroke-width="2"/><a xlink:title="A598A"><circle cx="413.666667" cy="46.500000" r="4.000000" fill="#0000ff" /></a><g transform="translate(413.666667,46.500000) rotate(-30)"><text style="font-size:10px;font-family:OpenSans;fill:#555;" text-anchor="middle" x="0" y="-6.000000">A598A</text></g><line x1="424.333333" x2="424.333333" y1="46.500000" y2="74.500000" stroke="#BABDB6" stroke-width="2"/><a xlink:title="S614S"><circle cx="424.333333" cy="46.500000" r="4.000000" fill="#0000ff" /></a><g transform="translate(424.333333,46.500000) rotate(-30)"><text style="font-size:10px;font-family:OpenSans;fill:#555;" text-anchor="middle" x="0" y="-6.000000">S614S</text></g><line x1="469.666667" x2="469.666667" y1="46.500000" y2="74.500000" stroke="#BABDB6" stroke-width="2"/><a xlink:title="V682M"><circle cx="469.666667" cy="46.500000" r="4.000000" fill="#ff0000" /></a><g transform="translate(469.666667,46.500000) rotate(-30)"><text style="font-size:10px;font-family:OpenSans;fill:#555;" text-anchor="middle" x="0" y="-6.000000">V682M</text></g><line x1="483.000000" x2="483.000000" y1="46.500000" y2="74.500000" stroke="#BABDB6" stroke-width="2"/><a xlink:title="A702A"><circle cx="483.000000" cy="46.500000" r="4.000000" fill="#0000ff" /></a><g transform="translate(483.000000,46.500000) rotate(-30)"><text style="font-size:10px;font-family:OpenSans;fill:#555;" text-anchor="middle" x="0" y="-6.000000">A702A</text></g><line x1="539.000000" x2="539.000000" y1="46.500000" y2="74.500000" stroke="#BABDB6" stroke-width="2"/><a xlink:title="V786M"><circle cx="539.000000" cy="46.500000" r="4.000000" fill="#ff0000" /></a><g transform="translate(539.000000,46.500000) rotate(-30)"><text style="font-size:10px;font-family:OpenSans;fill:#555;" text-anchor="middle" x="0" y="-6.000000">V786M</text></g><a xlink:title=",  (919aa)"><rect fill="#BABDB6" x="15.000000" y="74.500000" width="612.666667" height="14.000000"/></a><g transform="translate(364.333333,69.500000)"><a xlink:href="https://www.ebi.ac.uk/interpro/entry/pfam/PF17291" xlink:title="N-terminal domain of M60-like peptidases"><rect fill="#2DCF00" x="0" y="0" width="72.000000" height="24.000000" filter="url(#ds)"/><text style="font-size:12px;font-family:OpenSans;fill:#ffffff;" text-anchor="middle" x="36.000000" y="16.000000">M60-like_N</text></a></g>
<g transform="translate(437.000000,69.500000)"><a xlink:href="https://www.ebi.ac.uk/interpro/entry/pfam/PF13402" xlink:title="Peptidase M60, enhancin and enhancin-like"><rect fill="#FF5353" x="0" y="0" width="170.666667" height="24.000000" filter="url(#ds)"/><text style="font-size:12px;font-family:OpenSans;fill:#ffffff;" text-anchor="middle" x="85.333333" y="16.000000">Peptidase_M60</text></a></g>
<g class="axis">
<line x1="15.000000" x2="627.666667" y1="103.500000" y2="103.500000" stroke="#AAAAAA" /><line x1="15.000000" x2="15.000000" y1="103.500000" y2="108.500000" stroke="#AAAAAA" /><line x1="35.000000" x2="35.000000" y1="103.500000" y2="108.500000" stroke="#AAAAAA" /><text style="font-size:10px;font-family:OpenSans;fill:#000000;" text-anchor="middle" x="35.000000" y="118.500000">30</text><line x1="61.666667" x2="61.666667" y1="103.500000" y2="108.500000" stroke="#AAAAAA" /><text style="font-size:10px;font-family:OpenSans;fill:#000000;" text-anchor="middle" x="61.666667" y="118.500000">70</text><line x1="82.333333" x2="82.333333" y1="103.500000" y2="108.500000" stroke="#AAAAAA" /><text style="font-size:10px;font-family:OpenSans;fill:#000000;" text-anchor="middle" x="82.333333" y="118.500000">101</text><line x1="113.000000" x2="113.000000" y1="103.500000" y2="108.500000" stroke="#AAAAAA" /><text style="font-size:10px;font-family:OpenSans;fill:#000000;" text-anchor="middle" x="113.000000" y="118.500000">147</text><line x1="191.666667" x2="191.666667" y1="103.500000" y2="108.500000" stroke="#AAAAAA" /><text style="font-size:10px;font-family:OpenSans;fill:#000000;" text-anchor="middle" x="191.666667" y="118.500000">265</text><line x1="222.333333" x2="222.333333" y1="103.500000" y2="108.500000" stroke="#AAAAAA" /><text style="font-size:10px;font-family:OpenSans;fill:#000000;" text-anchor="middle" x="222.333333" y="118.500000">311</text><line x1="295.666667" x2="295.666667" y1="103.500000" y2="108.500000" stroke="#AAAAAA" /><text style="font-size:10px;font-family:OpenSans;fill:#000000;" text-anchor="middle" x="295.666667" y="118.500000">421</text><line x1="351.666667" x2="351.666667" y1="103.500000" y2="108.500000" stroke="#AAAAAA" /><text style="font-size:10px;font-family:OpenSans;fill:#000000;" text-anchor="middle" x="351.666667" y="118.500000">505</text><line x1="413.666667" x2="413.666667" y1="103.500000" y2="108.500000" stroke="#AAAAAA" /><text style="font-size:10px;font-family:OpenSans;fill:#000000;" text-anchor="middle" x="413.666667" y="118.500000">598</text><line x1="436.333333" x2="436.333333" y1="103.500000" y2="108.500000" stroke="#AAAAAA" /><text style="font-size:10px;font-family:OpenSans;fill:#000000;" text-anchor="middle" x="436.333333" y="118.500000">632</text><line x1="469.666667" x2="469.666667" y1="103.500000" y2="108.500000" stroke="#AAAAAA" /><text style="font-size:10px;font-family:OpenSans;fill:#000000;" text-anchor="middle" x="469.666667" y="118.500000">682</text><line x1="539.000000" x2="539.000000" y1="103.500000" y2="108.500000" stroke="#AAAAAA" /><text style="font-size:10px;font-family:OpenSans;fill:#000000;" text-anchor="middle" x="539.000000" y="118.500000">786</text><line x1="627.666667" x2="627.666667" y1="103.500000" y2="108.500000" stroke="#AAAAAA" /><text style="font-size:10px;font-family:OpenSans;fill:#000000;" text-anchor="middle" x="627.666667" y="118.500000">919</text></g>
<rect fill="#2DCF00" x="4" y="132.500000" width="12" height="12" filter="url(#ds)"/><text style="font-size:12px;font-family:OpenSans;fill:#000000;" text-anchor="start" x="20" y="144.500000">N-terminal domain of M60-like peptidases</text><rect fill="#FF5353" x="4" y="146.500000" width="12" height="12" filter="url(#ds)"/><text style="font-size:12px;font-family:OpenSans;fill:#000000;" text-anchor="start" x="20" y="158.500000">Peptidase M60, enhancin and enhancin-like</text></svg>
