<?xml version='1.0'?>
<svg xmlns="http://www.w3.org/2000/svg" xmlns:xlink="http://www.w3.org/1999/xlink" width="494.457143" height="146.200000">
<defs>
  <filter id="ds" x="0" y="0">
    <feOffset in="SourceAlpha" dx="2" dy="2" />
    <feComponentTransfer><feFuncA type="linear" slope="0.2"/></feComponentTransfer>
    <feGaussianBlur result="blurOut" stdDeviation="1" />
    <feBlend in="SourceGraphic" in2="blurOut" mode="normal" />
  </filter>
  <pattern id="disordered-hatch" patternUnits="userSpaceOnUse" width="4" height="4">
    <path d="M-1,1 l2,-2 M0,4 l4,-4 M3,5 l2,-2" stroke="#000000" opacity="0.3" />
  </pattern>
</defs>
<line x1="75.342857" x2="75.342857" y1="34.000000" y2="62.000000" stroke="#BABDB6" stroke-width="2"/><a xlink:title="A66G"><circle cx="75.342857" cy="34.000000" r="4.000000" fill="#ff0000" /></a><g transform="translate(75.342857,34.000000) rotate(-30)"><text style="font-size:10px;font-family:OpenSans;fill:#555;" text-anchor="middle" x="0" y="-6.000000">A66G</text></g><line x1="218.885714" x2="218.885714" y1="34.000000" y2="62.000000" stroke="#BABDB6" stroke-width="2"/><a xlink:title="C223R"><circle cx="218.885714" cy="34.000000" r="4.000000" fill="#ff0000" /></a><g transform="translate(218.885714,34.000000) rotate(-30)"><text style="font-size:10px;font-family:OpenSans;fill:#555;" text-anchor="middle" x="0" y="-6.000000">C223R</text></g><line x1="262.771429" x2="262.771429" y1="34.000000" y2="62.000000" stroke="#BABDB6" stroke-width="2"/><a xlink:title="T271P"><circle cx="262.771429" cy="34.000000" r="4.000000" fill="#ff0000" /></a><g transform="translate(262.771429,34.000000) rotate(-30)"><text style="font-size:10px;font-family:OpenSans;fill:#555;" text-anchor="middle" x="0" y="-6.000000">T271P</text></g><line x1="323.114286" x2="323.114286" y1="34.000000" y2="62.000000" stroke="#BABDB6" stroke-width="2"/><a xlink:title="T337P"><circle cx="323.114286" cy="34.000000" r="4.000000" fill="#ff0000" /></a><g transform="translate(323.114286,34.000000) rotate(-30)"><text style="font-size:10px;font-family:OpenSans;fill:#555;" text-anchor="middle" x="0" y="-6.000000">T337P</text></g><a xlink:title=",  (508aa)"><rect fill="#BABDB6" x="15.000000" y="62.000000" width="464.457143" height="14.000000"/></a><g transform="translate(351.457143,57.000000)"><a xlink:href="https://www.ebi.ac.uk/interpro/entry/pfam/PF03638" xlink:title="Tesmin/TSO1-like CXC domain, cysteine-rich domain"><rect fill="#2DCF00" x="0" y="0" width="32.000000" height="24.000000" filter="url(#ds)"/><text style="font-size:12px;font-family:OpenSans;fill:#ffffff;" text-anchor="middle" x="16.000000" y="16.000000">TCR</text></a></g>
<g class="axis">
<line x1="15.000000" x2="479.457143" y1="91.000000" y2="91.000000" stroke="#AAAAAA" /><line x1="15.000000" x2="15.000000" y1="91.000000" y2="96.000000" stroke="#AAAAAA" /><line x1="15.000000" x2="15.000000" y1="91.000000" y2="96.000000" stroke="#AAAAAA" /><text style="font-size:10px;font-family:OpenSans;fill:#000000;" text-anchor="middle" x="15.000000" y="106.000000">0</text><line x1="75.342857" x2="75.342857" y1="91.000000" y2="96.000000" stroke="#AAAAAA" /><text style="font-size:10px;font-family:OpenSans;fill:#000000;" text-anchor="middle" x="75.342857" y="106.000000">66</text><line x1="218.885714" x2="218.885714" y1="91.000000" y2="96.000000" stroke="#AAAAAA" /><text style="font-size:10px;font-family:OpenSans;fill:#000000;" text-anchor="middle" x="218.885714" y="106.000000">223</text><line x1="262.771429" x2="262.771429" y1="91.000000" y2="96.000000" stroke="#AAAAAA" /><text style="font-size:10px;font-family:OpenSans;fill:#000000;" text-anchor="middle" x="262.771429" y="106.000000">271</text><line x1="323.114286" x2="323.114286" y1="91.000000" y2="96.000000" stroke="#AAAAAA" /><text style="font-size:10px;font-family:OpenSans;fill:#000000;" text-anchor="middle" x="323.114286" y="106.000000">337</text><line x1="351.457143" x2="351.457143" y1="91.000000" y2="96.000000" stroke="#AAAAAA" /><text style="font-size:10px;font-family:OpenSans;fill:#000000;" text-anchor="middle" x="351.457143" y="106.000000">368</text><line x1="383.457143" x2="383.457143" y1="91.000000" y2="96.000000" stroke="#AAAAAA" /><text style="font-size:10px;font-family:OpenSans;fill:#000000;" text-anchor="middle" x="383.457143" y="106.000000">403</text><line x1="479.457143" x2="479.457143" y1="91.000000" y2="96.000000" stroke="#AAAAAA" /><text style="font-size:10px;font-family:OpenSans;fill:#000000;" text-anchor="middle" x="479.457143" y="106.000000">508</text></g>
<rect fill="#2DCF00" x="4" y="120.000000" width="12" height="12" filter="url(#ds)"/><text style="font-size:12px;font-family:OpenSans;fill:#000000;" text-anchor="start" x="20" y="132.000000">Tesmin/TSO1-like CXC domain, cysteine-rich domain</text></svg>
