<?xml version='1.0'?>
<svg xmlns="http://www.w3.org/2000/svg" xmlns:xlink="http://www.w3.org/1999/xlink" width="3286.272727" height="171.900000">
<defs>
  <filter id="ds" x="0" y="0">
    <feOffset in="SourceAlpha" dx="2" dy="2" />
    <feComponentTransfer><feFuncA type="linear" slope="0.2"/></feComponentTransfer>
    <feGaussianBlur result="blurOut" stdDeviation="1" />
    <feBlend in="SourceGraphic" in2="blurOut" mode="normal" />
  </filter>
  <pattern id="disordered-hatch" patternUnits="userSpaceOnUse" width="4" height="4">
    <path d="M-1,1 l2,-2 M0,4 l4,-4 M3,5 l2,-2" stroke="#000000" opacity="0.3" />
  </pattern>
</defs>
<line x1="18.606061" x2="18.606061" y1="46.500000" y2="74.500000" stroke="#BABDB6" stroke-width="2"/><a xlink:title="M1t1?"><circle cx="18.606061" cy="46.500000" r="4.000000" fill="#ff0000" /></a><g transform="translate(18.606061,46.500000) rotate(-30)"><text style="font-size:10px;font-family:OpenSans;fill:#555;" text-anchor="middle" x="0" y="-6.000000">M1t1?</text></g><line x1="72.696970" x2="72.696970" y1="46.500000" y2="74.500000" stroke="#BABDB6" stroke-width="2"/><a xlink:title="L16F"><circle cx="72.696970" cy="46.500000" r="4.000000" fill="#ff0000" /></a><g transform="translate(72.696970,46.500000) rotate(-30)"><text style="font-size:10px;font-family:OpenSans;fill:#555;" text-anchor="middle" x="0" y="-6.000000">L16F</text></g><line x1="501.818182" x2="501.818182" y1="46.500000" y2="74.500000" stroke="#BABDB6" stroke-width="2"/><a xlink:title="L135L"><circle cx="501.818182" cy="46.500000" r="4.000000" fill="#0000ff" /></a><g transform="translate(501.818182,46.500000) rotate(-30)"><text style="font-size:10px;font-family:OpenSans;fill:#555;" text-anchor="middle" x="0" y="-6.000000">L135L</text></g><line x1="519.848485" x2="519.848485" y1="46.500000" y2="74.500000" stroke="#BABDB6" stroke-width="2"/><a xlink:title="M140I"><circle cx="519.848485" cy="46.500000" r="4.000000" fill="#ff0000" /></a><g transform="translate(519.848485,46.500000) rotate(-30)"><text style="font-size:10px;font-family:OpenSans;fill:#555;" text-anchor="middle" x="0" y="-6.000000">M140I</text></g><line x1="573.939394" x2="573.939394" y1="46.500000" y2="74.500000" stroke="#BABDB6" stroke-width="2"/><a xlink:title="L155F"><circle cx="573.939394" cy="46.500000" r="4.000000" fill="#ff0000" /></a><g transform="translate(573.939394,46.500000) rotate(-30)"><text style="font-size:10px;font-family:OpenSans;fill:#555;" text-anchor="middle" x="0" y="-6.000000">L155F</text></g><line x1="959.787879" x2="959.787879" y1="46.500000" y2="74.500000" stroke="#BABDB6" stroke-width="2"/><a xlink:title="H262H"><circle cx="959.787879" cy="46.500000" r="4.000000" fill="#0000ff" /></a><g transform="translate(959.787879,46.500000) rotate(-30)"><text style="font-size:10px;font-family:OpenSans;fill:#555;" text-anchor="middle" x="0" y="-6.000000">H262H</text></g><line x1="1021.090909" x2="1021.090909" y1="46.500000" y2="74.500000" stroke="#BABDB6" stroke-width="2"/><a xlink:title="L279L"><circle cx="1021.090909" cy="46.500000" r="4.000000" fill="#0000ff" /></a><g transform="translate(1021.090909,46.500000) rotate(-30)"><text style="font-size:10px;font-family:OpenSans;fill:#555;" text-anchor="middle" x="0" y="-6.000000">L279L</text></g><line x1="1039.121212" x2="1039.121212" y1="46.500000" y2="74.500000" stroke="#BABDB6" stroke-width="2"/><a xlink:title="M284I"><circle cx="1039.121212" cy="46.500000" r="4.000000" fill="#ff0000" /></a><g transform="translate(1039.121212,46.500000) rotate(-30)"><text style="font-size:10px;font-family:OpenSans;fill:#555;" text-anchor="middle" x="0" y="-6.000000">M284I</text></g><line x1="1067.969697" x2="1067.969697" y1="46.500000" y2="74.500000" stroke="#BABDB6" stroke-width="2"/><a xlink:title="L292L"><circle cx="1067.969697" cy="46.500000" r="4.000000" fill="#0000ff" /></a><g transform="translate(1067.969697,46.500000) rotate(-30)"><text style="font-size:10px;font-family:OpenSans;fill:#555;" text-anchor="middle" x="0" y="-6.000000">L292L</text></g><line x1="1086.000000" x2="1086.000000" y1="46.500000" y2="74.500000" stroke="#BABDB6" stroke-width="2"/><a xlink:title="M297I"><circle cx="1086.000000" cy="46.500000" r="4.000000" fill="#ff0000" /></a><g transform="translate(1086.000000,46.500000) rotate(-30)"><text style="font-size:10px;font-family:OpenSans;fill:#555;" text-anchor="middle" x="0" y="-6.000000">M297I</text></g><line x1="1093.212121" x2="1093.212121" y1="46.500000" y2="74.500000" stroke="#BABDB6" stroke-width="2"/><a xlink:title="L299F"><circle cx="1093.212121" cy="46.500000" r="4.000000" fill="#ff0000" /></a><g transform="translate(1093.212121,46.500000) rotate(-30)"><text style="font-size:10px;font-family:OpenSans;fill:#555;" text-anchor="middle" x="0" y="-6.000000">L299F</text></g><line x1="1140.090909" x2="1140.090909" y1="46.500000" y2="74.500000" stroke="#BABDB6" stroke-width="2"/><a xlink:title="L312F"><circle cx="1140.090909" cy="46.500000" r="4.000000" fill="#ff0000" /></a><g transform="translate(1140.090909,46.500000) rotate(-30)"><text style="font-size:10px;font-family:OpenSans;fill:#555;" text-anchor="middle" x="0" y="-6.000000">L312F</text></g><line x1="1461.030303" x2="1461.030303" y1="46.500000" y2="74.500000" stroke="#BABDB6" stroke-width="2"/><a xlink:title="H401H"><circle cx="1461.030303" cy="46.500000" r="4.000000" fill="#0000ff" /></a><g transform="translate(1461.030303,46.500000) rotate(-30)"><text style="font-size:10px;font-family:OpenSans;fill:#555;" text-anchor="middle" x="0" y="-6.000000">H401H</text></g><line x1="1756.727273" x2="1756.727273" y1="46.500000" y2="74.500000" stroke="#BABDB6" stroke-width="2"/><a xlink:title="E483G"><circle cx="1756.727273" cy="46.500000" r="4.000000" fill="#ff0000" /></a><g transform="translate(1756.727273,46.500000) rotate(-30)"><text style="font-size:10px;font-family:OpenSans;fill:#555;" text-anchor="middle" x="0" y="-6.000000">E483G</text></g><line x1="1879.333333" x2="1879.333333" y1="46.500000" y2="74.500000" stroke="#BABDB6" stroke-width="2"/><a xlink:title="Q517R"><circle cx="1879.333333" cy="46.500000" r="4.000000" fill="#ff0000" /></a><g transform="translate(1879.333333,46.500000) rotate(-30)"><text style="font-size:10px;font-family:OpenSans;fill:#555;" text-anchor="middle" x="0" y="-6.000000">Q517R</text></g><line x1="1922.606061" x2="1922.606061" y1="46.500000" y2="74.500000" stroke="#BABDB6" stroke-width="2"/><a xlink:title="N529D"><circle cx="1922.606061" cy="46.500000" r="4.000000" fill="#ff0000" /></a><g transform="translate(1922.606061,46.500000) rotate(-30)"><text style="font-size:10px;font-family:OpenSans;fill:#555;" text-anchor="middle" x="0" y="-6.000000">N529D</text></g><line x1="1980.303030" x2="1980.303030" y1="46.500000" y2="74.500000" stroke="#BABDB6" stroke-width="2"/><a xlink:title="H545H"><circle cx="1980.303030" cy="46.500000" r="4.000000" fill="#0000ff" /></a><g transform="translate(1980.303030,46.500000) rotate(-30)"><text style="font-size:10px;font-family:OpenSans;fill:#555;" text-anchor="middle" x="0" y="-6.000000">H545H</text></g><line x1="2027.181818" x2="2027.181818" y1="46.500000" y2="74.500000" stroke="#BABDB6" stroke-width="2"/><a xlink:title="H558H"><circle cx="2027.181818" cy="46.500000" r="4.000000" fill="#0000ff" /></a><g transform="translate(2027.181818,46.500000) rotate(-30)"><text style="font-size:10px;font-family:OpenSans;fill:#555;" text-anchor="middle" x="0" y="-6.000000">H558H</text></g><line x1="2257.969697" x2="2257.969697" y1="46.500000" y2="74.500000" stroke="#BABDB6" stroke-width="2"/><a xlink:title="E622G"><circle cx="2257.969697" cy="46.500000" r="4.000000" fill="#ff0000" /></a><g transform="translate(2257.969697,46.500000) rotate(-30)"><text style="font-size:10px;font-family:OpenSans;fill:#555;" text-anchor="middle" x="0" y="-6.000000">E622G</text></g><line x1="2380.575758" x2="2380.575758" y1="46.500000" y2="74.500000" stroke="#BABDB6" stroke-width="2"/><a xlink:title="Q656R"><circle cx="2380.575758" cy="46.500000" r="4.000000" fill="#ff0000" /></a><g transform="translate(2380.575758,46.500000) rotate(-30)"><text style="font-size:10px;font-family:OpenSans;fill:#555;" text-anchor="middle" x="0" y="-6.000000">Q656R</text></g><line x1="2423.848485" x2="2423.848485" y1="46.500000" y2="74.500000" stroke="#BABDB6" stroke-width="2"/><a xlink:title="N668D"><circle cx="2423.848485" cy="46.500000" r="4.000000" fill="#ff0000" /></a><g transform="translate(2423.848485,46.500000) rotate(-30)"><text style="font-size:10px;font-family:OpenSans;fill:#555;" text-anchor="middle" x="0" y="-6.000000">N668D</text></g><line x1="2777.242424" x2="2777.242424" y1="46.500000" y2="74.500000" stroke="#BABDB6" stroke-width="2"/><a xlink:title="E766G"><circle cx="2777.242424" cy="46.500000" r="4.000000" fill="#ff0000" /></a><g transform="translate(2777.242424,46.500000) rotate(-30)"><text style="font-size:10px;font-family:OpenSans;fill:#555;" text-anchor="middle" x="0" y="-6.000000">E766G</text></g><line x1="2824.121212" x2="2824.121212" y1="46.500000" y2="74.500000" stroke="#BABDB6" stroke-width="2"/><a xlink:title="E779G"><circle cx="2824.121212" cy="46.500000" r="4.000000" fill="#ff0000" /></a><g transform="translate(2824.121212,46.500000) rotate(-30)"><text style="font-size:10px;font-family:OpenSans;fill:#555;" text-anchor="middle" x="0" y="-6.000000">E779G</text></g><line x1="2899.848485" x2="2899.848485" y1="46.500000" y2="74.500000" stroke="#BABDB6" stroke-width="2"/><a xlink:title="Q800R"><circle cx="2899.848485" cy="46.500000" r="4.000000" fill="#ff0000" /></a><g transform="translate(2899.848485,46.500000) rotate(-30)"><text style="font-size:10px;font-family:OpenSans;fill:#555;" text-anchor="middle" x="0" y="-6.000000">Q800R</text></g><line x1="2943.121212" x2="2943.121212" y1="34.000000" y2="74.500000" stroke="#BABDB6" stroke-width="2"/><a xlink:title="N812D"><circle cx="2943.121212" cy="34.000000" r="4.000000" fill="#ff0000" /></a><g transform="translate(2943.121212,34.000000) rotate(-30)"><text style="font-size:10px;font-family:OpenSans;fill:#555;" text-anchor="middle" x="0" y="-6.000000">N812D</text></g><line x1="2946.727273" x2="2946.727273" y1="46.500000" y2="74.500000" stroke="#BABDB6" stroke-width="2"/><a xlink:title="Q813R"><circle cx="2946.727273" cy="46.500000" r="4.000000" fill="#ff0000" /></a><g transform="translate(2946.727273,46.500000) rotate(-30)"><text style="font-size:10px;font-family:OpenSans;fill:#555;" text-anchor="middle" x="0" y="-6.000000">Q813R</text></g><line x1="2990.000000" x2="2990.000000" y1="46.500000" y2="74.500000" stroke="#BABDB6" stroke-width="2"/><a xlink:title="N825D"><circle cx="2990.000000" cy="46.500000" r="4.000000" fill="#ff0000" /></a><g transform="translate(2990.000000,46.500000) rotate(-30)"><text style="font-size:10px;font-family:OpenSans;fill:#555;" text-anchor="middle" x="0" y="-6.000000">N825D</text></g><a xlink:title=",  (903aa)"><rect fill="#BABDB6" x="15.000000" y="74.500000" width="3256.272727" height="14.000000"/></a><g transform="translate(33.030303,69.500000)"><a xlink:href="https://www.ebi.ac.uk/interpro/entry/pfam/PF05485" xlink:title="THAP domain"><rect fill="#2DCF00" x="0" y="0" width="299.303030" height="24.000000" filter="url(#ds)"/><text style="font-size:12px;font-family:OpenSans;fill:#ffffff;" text-anchor="middle" x="149.651515" y="16.000000">THAP domain</text></a></g>
<g transform="translate(642.454545,69.500000)"><a xlink:href="https://www.ebi.ac.uk/interpro/entry/pfam/PF12017" xlink:title="Transposable element P transposase-like, HTH domain"><rect fill="#FF5353" x="0" y="0" width="256.030303" height="24.000000" filter="url(#ds)"/><text style="font-size:12px;font-family:OpenSans;fill:#ffffff;" text-anchor="middle" x="128.015152" y="16.000000">Tnp_P_element</text></a></g>
<g transform="translate(923.727273,69.500000)"><a xlink:href="https://www.ebi.ac.uk/interpro/entry/pfam/PF21787" xlink:title="TNP-like, RNase H N-terminal domain"><rect fill="#5B5BFF" x="0" y="0" width="486.818182" height="24.000000" filter="url(#ds)"/><text style="font-size:12px;font-family:OpenSans;fill:#ffffff;" text-anchor="middle" x="243.409091" y="16.000000">TNP-like, RNase H N-terminal domain</text></a></g>
<g transform="translate(1515.121212,69.500000)"><a xlink:href="https://www.ebi.ac.uk/interpro/entry/pfam/PF21788" xlink:title="TNP-like, GTP-binding insertion domain"><rect fill="#EBD61D" x="0" y="0" width="425.515152" height="24.000000" filter="url(#ds)"/><text style="font-size:12px;font-family:OpenSans;fill:#ffffff;" text-anchor="middle" x="212.757576" y="16.000000">TNP-like, GTP-binding insertion domain</text></a></g>
<g transform="translate(2196.666667,69.500000)"><a xlink:href="https://www.ebi.ac.uk/interpro/entry/pfam/PF21789" xlink:title="TNP-like, RNase H C-terminal domain"><rect fill="#BA21E0" x="0" y="0" width="119.000000" height="24.000000" filter="url(#ds)"/><text style="font-size:12px;font-family:OpenSans;fill:#ffffff;" text-anchor="middle" x="59.500000" y="16.000000">TNP-like_RNaseH_C</text></a></g>
<g transform="translate(2467.121212,69.500000)"><a xlink:href="https://www.ebi.ac.uk/interpro/entry/pfam/PF22824" xlink:title="DNA transposase THAP9, C-terminal domain"><rect fill="#FF9C42" x="0" y="0" width="667.121212" height="24.000000" filter="url(#ds)"/><text style="font-size:12px;font-family:OpenSans;fill:#ffffff;" text-anchor="middle" x="333.560606" y="16.000000">DNA transposase THAP9, C-terminal domain</text></a></g>
<g class="axis">
<line x1="15.000000" x2="3271.272727" y1="103.500000" y2="103.500000" stroke="#AAAAAA" /><line x1="15.000000" x2="15.000000" y1="103.500000" y2="108.500000" stroke="#AAAAAA" /><line x1="18.606061" x2="18.606061" y1="103.500000" y2="108.500000" stroke="#AAAAAA" /><text style="font-size:10px;font-family:OpenSans;fill:#000000;" text-anchor="middle" x="18.606061" y="118.500000">1</text><line x1="72.696970" x2="72.696970" y1="103.500000" y2="108.500000" stroke="#AAAAAA" /><text style="font-size:10px;font-family:OpenSans;fill:#000000;" text-anchor="middle" x="72.696970" y="118.500000">16</text><line x1="332.333333" x2="332.333333" y1="103.500000" y2="108.500000" stroke="#AAAAAA" /><text style="font-size:10px;font-family:OpenSans;fill:#000000;" text-anchor="middle" x="332.333333" y="118.500000">88</text><line x1="501.818182" x2="501.818182" y1="103.500000" y2="108.500000" stroke="#AAAAAA" /><text style="font-size:10px;font-family:OpenSans;fill:#000000;" text-anchor="middle" x="501.818182" y="118.500000">135</text><line x1="519.848485" x2="519.848485" y1="103.500000" y2="108.500000" stroke="#AAAAAA" /><text style="font-size:10px;font-family:OpenSans;fill:#000000;" text-anchor="middle" x="519.848485" y="118.500000">140</text><line x1="573.939394" x2="573.939394" y1="103.500000" y2="108.500000" stroke="#AAAAAA" /><text style="font-size:10px;font-family:OpenSans;fill:#000000;" text-anchor="middle" x="573.939394" y="118.500000">155</text><line x1="642.454545" x2="642.454545" y1="103.500000" y2="108.500000" stroke="#AAAAAA" /><text style="font-size:10px;font-family:OpenSans;fill:#000000;" text-anchor="middle" x="642.454545" y="118.500000">174</text><line x1="898.484848" x2="898.484848" y1="103.500000" y2="108.500000" stroke="#AAAAAA" /><text style="font-size:10px;font-family:OpenSans;fill:#000000;" text-anchor="middle" x="898.484848" y="118.500000">245</text><line x1="923.727273" x2="923.727273" y1="103.500000" y2="108.500000" stroke="#AAAAAA" /><text style="font-size:10px;font-family:OpenSans;fill:#000000;" text-anchor="middle" x="923.727273" y="118.500000">252</text><line x1="959.787879" x2="959.787879" y1="103.500000" y2="108.500000" stroke="#AAAAAA" /><text style="font-size:10px;font-family:OpenSans;fill:#000000;" text-anchor="middle" x="959.787879" y="118.500000">262</text><line x1="1021.090909" x2="1021.090909" y1="103.500000" y2="108.500000" stroke="#AAAAAA" /><text style="font-size:10px;font-family:OpenSans;fill:#000000;" text-anchor="middle" x="1021.090909" y="118.500000">279</text><line x1="1039.121212" x2="1039.121212" y1="103.500000" y2="108.500000" stroke="#AAAAAA" /><text style="font-size:10px;font-family:OpenSans;fill:#000000;" text-anchor="middle" x="1039.121212" y="118.500000">284</text><line x1="1067.969697" x2="1067.969697" y1="103.500000" y2="108.500000" stroke="#AAAAAA" /><text style="font-size:10px;font-family:OpenSans;fill:#000000;" text-anchor="middle" x="1067.969697" y="118.500000">292</text><line x1="1086.000000" x2="1086.000000" y1="103.500000" y2="108.500000" stroke="#AAAAAA" /><text style="font-size:10px;font-family:OpenSans;fill:#000000;" text-anchor="middle" x="1086.000000" y="118.500000">297</text><line x1="1140.090909" x2="1140.090909" y1="103.500000" y2="108.500000" stroke="#AAAAAA" /><text style="font-size:10px;font-family:OpenSans;fill:#000000;" text-anchor="middle" x="1140.090909" y="118.500000">312</text><line x1="1410.545455" x2="1410.545455" y1="103.500000" y2="108.500000" stroke="#AAAAAA" /><text style="font-size:10px;font-family:OpenSans;fill:#000000;" text-anchor="middle" x="1410.545455" y="118.500000">387</text><line x1="1461.030303" x2="1461.030303" y1="103.500000" y2="108.500000" stroke="#AAAAAA" /><text style="font-size:10px;font-family:OpenSans;fill:#000000;" text-anchor="middle" x="1461.030303" y="118.500000">401</text><line x1="1515.121212" x2="1515.121212" y1="103.500000" y2="108.500000" stroke="#AAAAAA" /><text style="font-size:10px;font-family:OpenSans;fill:#000000;" text-anchor="middle" x="1515.121212" y="118.500000">416</text><line x1="1756.727273" x2="1756.727273" y1="103.500000" y2="108.500000" stroke="#AAAAAA" /><text style="font-size:10px;font-family:OpenSans;fill:#000000;" text-anchor="middle" x="1756.727273" y="118.500000">483</text><line x1="1879.333333" x2="1879.333333" y1="103.500000" y2="108.500000" stroke="#AAAAAA" /><text style="font-size:10px;font-family:OpenSans;fill:#000000;" text-anchor="middle" x="1879.333333" y="118.500000">517</text><line x1="1922.606061" x2="1922.606061" y1="103.500000" y2="108.500000" stroke="#AAAAAA" /><text style="font-size:10px;font-family:OpenSans;fill:#000000;" text-anchor="middle" x="1922.606061" y="118.500000">529</text><line x1="1940.636364" x2="1940.636364" y1="103.500000" y2="108.500000" stroke="#AAAAAA" /><text style="font-size:10px;font-family:OpenSans;fill:#000000;" text-anchor="middle" x="1940.636364" y="118.500000">534</text><line x1="1980.303030" x2="1980.303030" y1="103.500000" y2="108.500000" stroke="#AAAAAA" /><text style="font-size:10px;font-family:OpenSans;fill:#000000;" text-anchor="middle" x="1980.303030" y="118.500000">545</text><line x1="2027.181818" x2="2027.181818" y1="103.500000" y2="108.500000" stroke="#AAAAAA" /><text style="font-size:10px;font-family:OpenSans;fill:#000000;" text-anchor="middle" x="2027.181818" y="118.500000">558</text><line x1="2196.666667" x2="2196.666667" y1="103.500000" y2="108.500000" stroke="#AAAAAA" /><text style="font-size:10px;font-family:OpenSans;fill:#000000;" text-anchor="middle" x="2196.666667" y="118.500000">605</text><line x1="2257.969697" x2="2257.969697" y1="103.500000" y2="108.500000" stroke="#AAAAAA" /><text style="font-size:10px;font-family:OpenSans;fill:#000000;" text-anchor="middle" x="2257.969697" y="118.500000">622</text><line x1="2315.666667" x2="2315.666667" y1="103.500000" y2="108.500000" stroke="#AAAAAA" /><text style="font-size:10px;font-family:OpenSans;fill:#000000;" text-anchor="middle" x="2315.666667" y="118.500000">638</text><line x1="2380.575758" x2="2380.575758" y1="103.500000" y2="108.500000" stroke="#AAAAAA" /><text style="font-size:10px;font-family:OpenSans;fill:#000000;" text-anchor="middle" x="2380.575758" y="118.500000">656</text><line x1="2423.848485" x2="2423.848485" y1="103.500000" y2="108.500000" stroke="#AAAAAA" /><text style="font-size:10px;font-family:OpenSans;fill:#000000;" text-anchor="middle" x="2423.848485" y="118.500000">668</text><line x1="2467.121212" x2="2467.121212" y1="103.500000" y2="108.500000" stroke="#AAAAAA" /><text style="font-size:10px;font-family:OpenSans;fill:#000000;" text-anchor="middle" x="2467.121212" y="118.500000">680</text><line x1="2777.242424" x2="2777.242424" y1="103.500000" y2="108.500000" stroke="#AAAAAA" /><text style="font-size:10px;font-family:OpenSans;fill:#000000;" text-anchor="middle" x="2777.242424" y="118.500000">766</text><line x1="2824.121212" x2="2824.121212" y1="103.500000" y2="108.500000" stroke="#AAAAAA" /><text style="font-size:10px;font-family:OpenSans;fill:#000000;" text-anchor="middle" x="2824.121212" y="118.500000">779</text><line x1="2899.848485" x2="2899.848485" y1="103.500000" y2="108.500000" stroke="#AAAAAA" /><text style="font-size:10px;font-family:OpenSans;fill:#000000;" text-anchor="middle" x="2899.848485" y="118.500000">800</text><line x1="2943.121212" x2="2943.121212" y1="103.500000" y2="108.500000" stroke="#AAAAAA" /><text style="font-size:10px;font-family:OpenSans;fill:#000000;" text-anchor="middle" x="2943.121212" y="118.500000">812</text><line x1="2990.000000" x2="2990.000000" y1="103.500000" y2="108.500000" stroke="#AAAAAA" /><text style="font-size:10px;font-family:OpenSans;fill:#000000;" text-anchor="middle" x="2990.000000" y="118.500000">825</text><line x1="3134.242424" x2="3134.242424" y1="103.500000" y2="108.500000" stroke="#AAAAAA" /><text style="font-size:10px;font-family:OpenSans;fill:#000000;" text-anchor="middle" x="3134.242424" y="118.500000">865</text><line x1="3271.272727" x2="3271.272727" y1="103.500000" y2="108.500000" stroke="#AAAAAA" /><text style="font-size:10px;font-family:OpenSans;fill:#000000;" text-anchor="middle" x="3271.272727" y="118.500000">903</text></g>
<rect fill="#FF5353" x="4" y="132.500000" width="12" height="12" filter="url(#ds)"/><text style="font-size:12px;font-family:OpenSans;fill:#000000;" text-anchor="start" x="20" y="144.500000">Transposable element P transposase-like, HTH domain</text><rect fill="#BA21E0" x="4" y="146.500000" width="12" height="12" filter="url(#ds)"/><text style="font-size:12px;font-family:OpenSans;fill:#000000;" text-anchor="start" x="20" y="158.500000">TNP-like, RNase H C-terminal domain</text></svg>
