<?xml version='1.0'?>
<svg xmlns="http://www.w3.org/2000/svg" xmlns:xlink="http://www.w3.org/1999/xlink" width="1380.278351" height="172.600000">
<defs>
  <filter id="ds" x="0" y="0">
    <feOffset in="SourceAlpha" dx="2" dy="2" />
    <feComponentTransfer><feFuncA type="linear" slope="0.2"/></feComponentTransfer>
    <feGaussianBlur result="blurOut" stdDeviation="1" />
    <feBlend in="SourceGraphic" in2="blurOut" mode="normal" />
  </filter>
  <pattern id="disordered-hatch" patternUnits="userSpaceOnUse" width="4" height="4">
    <path d="M-1,1 l2,-2 M0,4 l4,-4 M3,5 l2,-2" stroke="#000000" opacity="0.3" />
  </pattern>
</defs>
<line x1="255.525773" x2="255.525773" y1="34.000000" y2="62.000000" stroke="#BABDB6" stroke-width="2"/><a xlink:title="R303W"><circle cx="255.525773" cy="34.000000" r="4.000000" fill="#ff0000" /></a><g transform="translate(255.525773,34.000000) rotate(-30)"><text style="font-size:10px;font-family:OpenSans;fill:#555;" text-anchor="middle" x="0" y="-6.000000">R303W</text></g><line x1="317.443299" x2="317.443299" y1="34.000000" y2="62.000000" stroke="#BABDB6" stroke-width="2"/><a xlink:title="E381E"><circle cx="317.443299" cy="34.000000" r="4.000000" fill="#0000ff" /></a><g transform="translate(317.443299,34.000000) rotate(-30)"><text style="font-size:10px;font-family:OpenSans;fill:#555;" text-anchor="middle" x="0" y="-6.000000">E381E</text></g><line x1="347.608247" x2="347.608247" y1="34.000000" y2="62.000000" stroke="#BABDB6" stroke-width="2"/><a xlink:title="D419D"><circle cx="347.608247" cy="34.000000" r="4.000000" fill="#0000ff" /></a><g transform="translate(347.608247,34.000000) rotate(-30)"><text style="font-size:10px;font-family:OpenSans;fill:#555;" text-anchor="middle" x="0" y="-6.000000">D419D</text></g><line x1="409.525773" x2="409.525773" y1="34.000000" y2="62.000000" stroke="#BABDB6" stroke-width="2"/><a xlink:title="D497E"><circle cx="409.525773" cy="34.000000" r="4.000000" fill="#ff0000" /></a><g transform="translate(409.525773,34.000000) rotate(-30)"><text style="font-size:10px;font-family:OpenSans;fill:#555;" text-anchor="middle" x="0" y="-6.000000">D497E</text></g><line x1="1108.876289" x2="1108.876289" y1="34.000000" y2="62.000000" stroke="#BABDB6" stroke-width="2"/><a xlink:title="R1378W"><circle cx="1108.876289" cy="34.000000" r="4.000000" fill="#ff0000" /></a><g transform="translate(1108.876289,34.000000) rotate(-30)"><text style="font-size:10px;font-family:OpenSans;fill:#555;" text-anchor="middle" x="0" y="-6.000000">R1378W</text></g><line x1="1170.793814" x2="1170.793814" y1="34.000000" y2="62.000000" stroke="#BABDB6" stroke-width="2"/><a xlink:title="E1456E"><circle cx="1170.793814" cy="34.000000" r="4.000000" fill="#0000ff" /></a><g transform="translate(1170.793814,34.000000) rotate(-30)"><text style="font-size:10px;font-family:OpenSans;fill:#555;" text-anchor="middle" x="0" y="-6.000000">E1456E</text></g><line x1="1262.876289" x2="1262.876289" y1="34.000000" y2="62.000000" stroke="#BABDB6" stroke-width="2"/><a xlink:title="D1572E"><circle cx="1262.876289" cy="34.000000" r="4.000000" fill="#ff0000" /></a><g transform="translate(1262.876289,34.000000) rotate(-30)"><text style="font-size:10px;font-family:OpenSans;fill:#555;" text-anchor="middle" x="0" y="-6.000000">D1572E</text></g><a xlink:title=",  (1701aa)"><rect fill="#BABDB6" x="15.000000" y="62.000000" width="1350.278351" height="14.000000"/></a><g transform="translate(419.051546,57.000000)"><a xlink:href="https://www.ebi.ac.uk/interpro/entry/pfam/PF00169" xlink:title="PH domain"><rect fill="#2DCF00" x="0" y="0" width="87.319588" height="24.000000" filter="url(#ds)"/><text style="font-size:12px;font-family:OpenSans;fill:#ffffff;" text-anchor="middle" x="43.659794" y="16.000000">PH domain</text></a></g>
<g transform="translate(527.010309,57.000000)"><a xlink:href="https://www.ebi.ac.uk/interpro/entry/pfam/PF18385" xlink:title="T-lymphoma invasion and metastasis CC-Ex domain"><rect fill="#FF5353" x="0" y="0" width="77.000000" height="24.000000" filter="url(#ds)"/><text style="font-size:12px;font-family:OpenSans;fill:#ffffff;" text-anchor="middle" x="38.500000" y="16.000000">Tiam_CC_Ex</text></a></g>
<g transform="translate(722.288660,57.000000)"><a xlink:href="https://www.ebi.ac.uk/interpro/entry/pfam/PF00595" xlink:title="PDZ domain"><rect fill="#5B5BFF" x="0" y="0" width="57.948454" height="24.000000" filter="url(#ds)"/><text style="font-size:12px;font-family:OpenSans;fill:#ffffff;" text-anchor="middle" x="28.974227" y="16.000000">PDZ</text></a></g>
<g transform="translate(890.577320,57.000000)"><a xlink:href="https://www.ebi.ac.uk/interpro/entry/pfam/PF00621" xlink:title="RhoGEF domain"><rect fill="#EBD61D" x="0" y="0" width="149.237113" height="24.000000" filter="url(#ds)"/><text style="font-size:12px;font-family:OpenSans;fill:#ffffff;" text-anchor="middle" x="74.618557" y="16.000000">RhoGEF domain</text></a></g>
<g transform="translate(1047.752577,57.000000)"><a xlink:href="https://www.ebi.ac.uk/interpro/entry/pfam/PF23014" xlink:title="Tiam1 second PH domain-like"><rect fill="#BA21E0" x="0" y="0" width="134.154639" height="24.000000" filter="url(#ds)"/><text style="font-size:12px;font-family:OpenSans;fill:#ffffff;" text-anchor="middle" x="67.077320" y="16.000000">PH_Tiam1</text></a></g>
<g class="axis">
<line x1="15.000000" x2="1365.278351" y1="91.000000" y2="91.000000" stroke="#AAAAAA" /><line x1="15.000000" x2="15.000000" y1="91.000000" y2="96.000000" stroke="#AAAAAA" /><line x1="15.000000" x2="15.000000" y1="91.000000" y2="96.000000" stroke="#AAAAAA" /><text style="font-size:10px;font-family:OpenSans;fill:#000000;" text-anchor="middle" x="15.000000" y="106.000000">0</text><line x1="255.525773" x2="255.525773" y1="91.000000" y2="96.000000" stroke="#AAAAAA" /><text style="font-size:10px;font-family:OpenSans;fill:#000000;" text-anchor="middle" x="255.525773" y="106.000000">303</text><line x1="317.443299" x2="317.443299" y1="91.000000" y2="96.000000" stroke="#AAAAAA" /><text style="font-size:10px;font-family:OpenSans;fill:#000000;" text-anchor="middle" x="317.443299" y="106.000000">381</text><line x1="347.608247" x2="347.608247" y1="91.000000" y2="96.000000" stroke="#AAAAAA" /><text style="font-size:10px;font-family:OpenSans;fill:#000000;" text-anchor="middle" x="347.608247" y="106.000000">419</text><line x1="409.525773" x2="409.525773" y1="91.000000" y2="96.000000" stroke="#AAAAAA" /><text style="font-size:10px;font-family:OpenSans;fill:#000000;" text-anchor="middle" x="409.525773" y="106.000000">497</text><line x1="506.371134" x2="506.371134" y1="91.000000" y2="96.000000" stroke="#AAAAAA" /><text style="font-size:10px;font-family:OpenSans;fill:#000000;" text-anchor="middle" x="506.371134" y="106.000000">619</text><line x1="527.010309" x2="527.010309" y1="91.000000" y2="96.000000" stroke="#AAAAAA" /><text style="font-size:10px;font-family:OpenSans;fill:#000000;" text-anchor="middle" x="527.010309" y="106.000000">645</text><line x1="604.010309" x2="604.010309" y1="91.000000" y2="96.000000" stroke="#AAAAAA" /><text style="font-size:10px;font-family:OpenSans;fill:#000000;" text-anchor="middle" x="604.010309" y="106.000000">742</text><line x1="722.288660" x2="722.288660" y1="91.000000" y2="96.000000" stroke="#AAAAAA" /><text style="font-size:10px;font-family:OpenSans;fill:#000000;" text-anchor="middle" x="722.288660" y="106.000000">891</text><line x1="780.237113" x2="780.237113" y1="91.000000" y2="96.000000" stroke="#AAAAAA" /><text style="font-size:10px;font-family:OpenSans;fill:#000000;" text-anchor="middle" x="780.237113" y="106.000000">964</text><line x1="890.577320" x2="890.577320" y1="91.000000" y2="96.000000" stroke="#AAAAAA" /><text style="font-size:10px;font-family:OpenSans;fill:#000000;" text-anchor="middle" x="890.577320" y="106.000000">1103</text><line x1="1039.814433" x2="1039.814433" y1="91.000000" y2="96.000000" stroke="#AAAAAA" /><text style="font-size:10px;font-family:OpenSans;fill:#000000;" text-anchor="middle" x="1039.814433" y="106.000000">1291</text><line x1="1108.876289" x2="1108.876289" y1="91.000000" y2="96.000000" stroke="#AAAAAA" /><text style="font-size:10px;font-family:OpenSans;fill:#000000;" text-anchor="middle" x="1108.876289" y="106.000000">1378</text><line x1="1170.793814" x2="1170.793814" y1="91.000000" y2="96.000000" stroke="#AAAAAA" /><text style="font-size:10px;font-family:OpenSans;fill:#000000;" text-anchor="middle" x="1170.793814" y="106.000000">1456</text><line x1="1262.876289" x2="1262.876289" y1="91.000000" y2="96.000000" stroke="#AAAAAA" /><text style="font-size:10px;font-family:OpenSans;fill:#000000;" text-anchor="middle" x="1262.876289" y="106.000000">1572</text><line x1="1365.278351" x2="1365.278351" y1="91.000000" y2="96.000000" stroke="#AAAAAA" /><text style="font-size:10px;font-family:OpenSans;fill:#000000;" text-anchor="middle" x="1365.278351" y="106.000000">1701</text></g>
<rect fill="#FF5353" x="4" y="120.000000" width="12" height="12" filter="url(#ds)"/><text style="font-size:12px;font-family:OpenSans;fill:#000000;" text-anchor="start" x="20" y="132.000000">T-lymphoma invasion and metastasis CC-Ex domain</text><rect fill="#5B5BFF" x="4" y="134.000000" width="12" height="12" filter="url(#ds)"/><text style="font-size:12px;font-family:OpenSans;fill:#000000;" text-anchor="start" x="20" y="146.000000">PDZ domain</text><rect fill="#BA21E0" x="4" y="148.000000" width="12" height="12" filter="url(#ds)"/><text style="font-size:12px;font-family:OpenSans;fill:#000000;" text-anchor="start" x="20" y="160.000000">Tiam1 second PH domain-like</text></svg>
