<?xml version='1.0'?>
<svg xmlns="http://www.w3.org/2000/svg" xmlns:xlink="http://www.w3.org/1999/xlink" width="566.250000" height="146.200000">
<defs>
  <filter id="ds" x="0" y="0">
    <feOffset in="SourceAlpha" dx="2" dy="2" />
    <feComponentTransfer><feFuncA type="linear" slope="0.2"/></feComponentTransfer>
    <feGaussianBlur result="blurOut" stdDeviation="1" />
    <feBlend in="SourceGraphic" in2="blurOut" mode="normal" />
  </filter>
  <pattern id="disordered-hatch" patternUnits="userSpaceOnUse" width="4" height="4">
    <path d="M-1,1 l2,-2 M0,4 l4,-4 M3,5 l2,-2" stroke="#000000" opacity="0.3" />
  </pattern>
</defs>
<line x1="106.250000" x2="106.250000" y1="34.000000" y2="62.000000" stroke="#BABDB6" stroke-width="2"/><a xlink:title="R73G"><circle cx="106.250000" cy="34.000000" r="4.000000" fill="#ff0000" /></a><g transform="translate(106.250000,34.000000) rotate(-30)"><text style="font-size:10px;font-family:OpenSans;fill:#555;" text-anchor="middle" x="0" y="-6.000000">R73G</text></g><line x1="192.500000" x2="192.500000" y1="34.000000" y2="62.000000" stroke="#BABDB6" stroke-width="2"/><a xlink:title="Q142H"><circle cx="192.500000" cy="34.000000" r="4.000000" fill="#ff0000" /></a><g transform="translate(192.500000,34.000000) rotate(-30)"><text style="font-size:10px;font-family:OpenSans;fill:#555;" text-anchor="middle" x="0" y="-6.000000">Q142H</text></g><line x1="200.000000" x2="200.000000" y1="34.000000" y2="62.000000" stroke="#BABDB6" stroke-width="2"/><a xlink:title="E148K"><circle cx="200.000000" cy="34.000000" r="4.000000" fill="#ff0000" /></a><g transform="translate(200.000000,34.000000) rotate(-30)"><text style="font-size:10px;font-family:OpenSans;fill:#555;" text-anchor="middle" x="0" y="-6.000000">E148K</text></g><line x1="326.250000" x2="326.250000" y1="34.000000" y2="62.000000" stroke="#BABDB6" stroke-width="2"/><a xlink:title="Q249H"><circle cx="326.250000" cy="34.000000" r="4.000000" fill="#ff0000" /></a><g transform="translate(326.250000,34.000000) rotate(-30)"><text style="font-size:10px;font-family:OpenSans;fill:#555;" text-anchor="middle" x="0" y="-6.000000">Q249H</text></g><line x1="333.750000" x2="333.750000" y1="34.000000" y2="62.000000" stroke="#BABDB6" stroke-width="2"/><a xlink:title="E255K"><circle cx="333.750000" cy="34.000000" r="4.000000" fill="#ff0000" /></a><g transform="translate(333.750000,34.000000) rotate(-30)"><text style="font-size:10px;font-family:OpenSans;fill:#555;" text-anchor="middle" x="0" y="-6.000000">E255K</text></g><a xlink:title=",  (429aa)"><rect fill="#BABDB6" x="15.000000" y="62.000000" width="536.250000" height="14.000000"/></a><g transform="translate(282.500000,57.000000)"><a xlink:href="https://www.ebi.ac.uk/interpro/entry/pfam/PF12180" xlink:title="TSG101 and ALIX binding domain of CEP55"><rect fill="#2DCF00" x="0" y="0" width="40.000000" height="24.000000" filter="url(#ds)"/><text style="font-size:12px;font-family:OpenSans;fill:#ffffff;" text-anchor="middle" x="20.000000" y="16.000000">EABR</text></a></g>
<g class="axis">
<line x1="15.000000" x2="551.250000" y1="91.000000" y2="91.000000" stroke="#AAAAAA" /><line x1="15.000000" x2="15.000000" y1="91.000000" y2="96.000000" stroke="#AAAAAA" /><line x1="15.000000" x2="15.000000" y1="91.000000" y2="96.000000" stroke="#AAAAAA" /><text style="font-size:10px;font-family:OpenSans;fill:#000000;" text-anchor="middle" x="15.000000" y="106.000000">0</text><line x1="106.250000" x2="106.250000" y1="91.000000" y2="96.000000" stroke="#AAAAAA" /><text style="font-size:10px;font-family:OpenSans;fill:#000000;" text-anchor="middle" x="106.250000" y="106.000000">73</text><line x1="192.500000" x2="192.500000" y1="91.000000" y2="96.000000" stroke="#AAAAAA" /><text style="font-size:10px;font-family:OpenSans;fill:#000000;" text-anchor="middle" x="192.500000" y="106.000000">142</text><line x1="282.500000" x2="282.500000" y1="91.000000" y2="96.000000" stroke="#AAAAAA" /><text style="font-size:10px;font-family:OpenSans;fill:#000000;" text-anchor="middle" x="282.500000" y="106.000000">214</text><line x1="326.250000" x2="326.250000" y1="91.000000" y2="96.000000" stroke="#AAAAAA" /><text style="font-size:10px;font-family:OpenSans;fill:#000000;" text-anchor="middle" x="326.250000" y="106.000000">249</text><line x1="551.250000" x2="551.250000" y1="91.000000" y2="96.000000" stroke="#AAAAAA" /><text style="font-size:10px;font-family:OpenSans;fill:#000000;" text-anchor="middle" x="551.250000" y="106.000000">429</text></g>
<rect fill="#2DCF00" x="4" y="120.000000" width="12" height="12" filter="url(#ds)"/><text style="font-size:12px;font-family:OpenSans;fill:#000000;" text-anchor="start" x="20" y="132.000000">TSG101 and ALIX binding domain of CEP55</text></svg>
