<?xml version='1.0'?>
<svg xmlns="http://www.w3.org/2000/svg" xmlns:xlink="http://www.w3.org/1999/xlink" width="1312.857143" height="172.600000">
<defs>
  <filter id="ds" x="0" y="0">
    <feOffset in="SourceAlpha" dx="2" dy="2" />
    <feComponentTransfer><feFuncA type="linear" slope="0.2"/></feComponentTransfer>
    <feGaussianBlur result="blurOut" stdDeviation="1" />
    <feBlend in="SourceGraphic" in2="blurOut" mode="normal" />
  </filter>
  <pattern id="disordered-hatch" patternUnits="userSpaceOnUse" width="4" height="4">
    <path d="M-1,1 l2,-2 M0,4 l4,-4 M3,5 l2,-2" stroke="#000000" opacity="0.3" />
  </pattern>
</defs>
<line x1="380.714286" x2="380.714286" y1="34.000000" y2="62.000000" stroke="#BABDB6" stroke-width="2"/><a xlink:title="P256S"><circle cx="380.714286" cy="34.000000" r="4.000000" fill="#ff0000" /></a><g transform="translate(380.714286,34.000000) rotate(-30)"><text style="font-size:10px;font-family:OpenSans;fill:#555;" text-anchor="middle" x="0" y="-6.000000">P256S</text></g><line x1="440.714286" x2="440.714286" y1="34.000000" y2="62.000000" stroke="#BABDB6" stroke-width="2"/><a xlink:title="P298S"><circle cx="440.714286" cy="34.000000" r="4.000000" fill="#ff0000" /></a><g transform="translate(440.714286,34.000000) rotate(-30)"><text style="font-size:10px;font-family:OpenSans;fill:#555;" text-anchor="middle" x="0" y="-6.000000">P298S</text></g><line x1="452.142857" x2="452.142857" y1="34.000000" y2="62.000000" stroke="#BABDB6" stroke-width="2"/><a xlink:title="P306S"><circle cx="452.142857" cy="34.000000" r="4.000000" fill="#ff0000" /></a><g transform="translate(452.142857,34.000000) rotate(-30)"><text style="font-size:10px;font-family:OpenSans;fill:#555;" text-anchor="middle" x="0" y="-6.000000">P306S</text></g><a xlink:title=",  (898aa)"><rect fill="#BABDB6" x="15.000000" y="62.000000" width="1282.857143" height="14.000000"/></a><g transform="translate(75.000000,57.000000)"><a xlink:href="https://www.ebi.ac.uk/interpro/entry/pfam/PF03810" xlink:title="Importin-beta N-terminal domain"><rect fill="#2DCF00" x="0" y="0" width="94.285714" height="24.000000" filter="url(#ds)"/><text style="font-size:12px;font-family:OpenSans;fill:#ffffff;" text-anchor="middle" x="47.142857" y="16.000000">IBN_N</text></a></g>
<g transform="translate(336.428571,57.000000)"><a xlink:href="https://www.ebi.ac.uk/interpro/entry/pfam/PF02985" xlink:title="HEAT repeat"><rect fill="#FF5353" x="0" y="0" width="40.000000" height="24.000000" filter="url(#ds)"/><text style="font-size:12px;font-family:OpenSans;fill:#ffffff;" text-anchor="middle" x="20.000000" y="16.000000">HEAT</text></a></g>
<g transform="translate(613.571429,57.000000)"><a xlink:href="https://www.ebi.ac.uk/interpro/entry/pfam/PF13513" xlink:title="HEAT-like repeat"><rect fill="#5B5BFF" x="0" y="0" width="77.142857" height="24.000000" filter="url(#ds)"/><text style="font-size:12px;font-family:OpenSans;fill:#ffffff;" text-anchor="middle" x="38.571429" y="16.000000">HEAT_EZ</text></a></g>
<g class="axis">
<line x1="15.000000" x2="1297.857143" y1="91.000000" y2="91.000000" stroke="#AAAAAA" /><line x1="15.000000" x2="15.000000" y1="91.000000" y2="96.000000" stroke="#AAAAAA" /><line x1="15.000000" x2="15.000000" y1="91.000000" y2="96.000000" stroke="#AAAAAA" /><text style="font-size:10px;font-family:OpenSans;fill:#000000;" text-anchor="middle" x="15.000000" y="106.000000">0</text><line x1="75.000000" x2="75.000000" y1="91.000000" y2="96.000000" stroke="#AAAAAA" /><text style="font-size:10px;font-family:OpenSans;fill:#000000;" text-anchor="middle" x="75.000000" y="106.000000">42</text><line x1="169.285714" x2="169.285714" y1="91.000000" y2="96.000000" stroke="#AAAAAA" /><text style="font-size:10px;font-family:OpenSans;fill:#000000;" text-anchor="middle" x="169.285714" y="106.000000">108</text><line x1="336.428571" x2="336.428571" y1="91.000000" y2="96.000000" stroke="#AAAAAA" /><text style="font-size:10px;font-family:OpenSans;fill:#000000;" text-anchor="middle" x="336.428571" y="106.000000">225</text><line x1="380.714286" x2="380.714286" y1="91.000000" y2="96.000000" stroke="#AAAAAA" /><text style="font-size:10px;font-family:OpenSans;fill:#000000;" text-anchor="middle" x="380.714286" y="106.000000">256</text><line x1="440.714286" x2="440.714286" y1="91.000000" y2="96.000000" stroke="#AAAAAA" /><text style="font-size:10px;font-family:OpenSans;fill:#000000;" text-anchor="middle" x="440.714286" y="106.000000">298</text><line x1="613.571429" x2="613.571429" y1="91.000000" y2="96.000000" stroke="#AAAAAA" /><text style="font-size:10px;font-family:OpenSans;fill:#000000;" text-anchor="middle" x="613.571429" y="106.000000">419</text><line x1="690.714286" x2="690.714286" y1="91.000000" y2="96.000000" stroke="#AAAAAA" /><text style="font-size:10px;font-family:OpenSans;fill:#000000;" text-anchor="middle" x="690.714286" y="106.000000">473</text><line x1="1297.857143" x2="1297.857143" y1="91.000000" y2="96.000000" stroke="#AAAAAA" /><text style="font-size:10px;font-family:OpenSans;fill:#000000;" text-anchor="middle" x="1297.857143" y="106.000000">898</text></g>
<rect fill="#2DCF00" x="4" y="120.000000" width="12" height="12" filter="url(#ds)"/><text style="font-size:12px;font-family:OpenSans;fill:#000000;" text-anchor="start" x="20" y="132.000000">Importin-beta N-terminal domain</text><rect fill="#FF5353" x="4" y="134.000000" width="12" height="12" filter="url(#ds)"/><text style="font-size:12px;font-family:OpenSans;fill:#000000;" text-anchor="start" x="20" y="146.000000">HEAT repeat</text><rect fill="#5B5BFF" x="4" y="148.000000" width="12" height="12" filter="url(#ds)"/><text style="font-size:12px;font-family:OpenSans;fill:#000000;" text-anchor="start" x="20" y="160.000000">HEAT-like repeat</text></svg>
