<?xml version='1.0'?>
<svg xmlns="http://www.w3.org/2000/svg" xmlns:xlink="http://www.w3.org/1999/xlink" width="4574.076923" height="159.400000">
<defs>
  <filter id="ds" x="0" y="0">
    <feOffset in="SourceAlpha" dx="2" dy="2" />
    <feComponentTransfer><feFuncA type="linear" slope="0.2"/></feComponentTransfer>
    <feGaussianBlur result="blurOut" stdDeviation="1" />
    <feBlend in="SourceGraphic" in2="blurOut" mode="normal" />
  </filter>
  <pattern id="disordered-hatch" patternUnits="userSpaceOnUse" width="4" height="4">
    <path d="M-1,1 l2,-2 M0,4 l4,-4 M3,5 l2,-2" stroke="#000000" opacity="0.3" />
  </pattern>
</defs>
<line x1="61.846154" x2="61.846154" y1="34.000000" y2="62.000000" stroke="#BABDB6" stroke-width="2"/><a xlink:title="A14A"><circle cx="61.846154" cy="34.000000" r="4.000000" fill="#0000ff" /></a><g transform="translate(61.846154,34.000000) rotate(-30)"><text style="font-size:10px;font-family:OpenSans;fill:#555;" text-anchor="middle" x="0" y="-6.000000">A14A</text></g><line x1="71.884615" x2="71.884615" y1="34.000000" y2="62.000000" stroke="#BABDB6" stroke-width="2"/><a xlink:title="I17V"><circle cx="71.884615" cy="34.000000" r="4.000000" fill="#ff0000" /></a><g transform="translate(71.884615,34.000000) rotate(-30)"><text style="font-size:10px;font-family:OpenSans;fill:#555;" text-anchor="middle" x="0" y="-6.000000">I17V</text></g><line x1="202.384615" x2="202.384615" y1="34.000000" y2="62.000000" stroke="#BABDB6" stroke-width="2"/><a xlink:title="T56T"><circle cx="202.384615" cy="34.000000" r="4.000000" fill="#0000ff" /></a><g transform="translate(202.384615,34.000000) rotate(-30)"><text style="font-size:10px;font-family:OpenSans;fill:#555;" text-anchor="middle" x="0" y="-6.000000">T56T</text></g><line x1="255.923077" x2="255.923077" y1="34.000000" y2="62.000000" stroke="#BABDB6" stroke-width="2"/><a xlink:title="N72N"><circle cx="255.923077" cy="34.000000" r="4.000000" fill="#0000ff" /></a><g transform="translate(255.923077,34.000000) rotate(-30)"><text style="font-size:10px;font-family:OpenSans;fill:#555;" text-anchor="middle" x="0" y="-6.000000">N72N</text></g><line x1="443.307692" x2="443.307692" y1="34.000000" y2="62.000000" stroke="#BABDB6" stroke-width="2"/><a xlink:title="A128S"><circle cx="443.307692" cy="34.000000" r="4.000000" fill="#ff0000" /></a><g transform="translate(443.307692,34.000000) rotate(-30)"><text style="font-size:10px;font-family:OpenSans;fill:#555;" text-anchor="middle" x="0" y="-6.000000">A128S</text></g><line x1="634.038462" x2="634.038462" y1="34.000000" y2="62.000000" stroke="#BABDB6" stroke-width="2"/><a xlink:title="T185T"><circle cx="634.038462" cy="34.000000" r="4.000000" fill="#0000ff" /></a><g transform="translate(634.038462,34.000000) rotate(-30)"><text style="font-size:10px;font-family:OpenSans;fill:#555;" text-anchor="middle" x="0" y="-6.000000">T185T</text></g><line x1="828.115385" x2="828.115385" y1="34.000000" y2="62.000000" stroke="#BABDB6" stroke-width="2"/><a xlink:title="A243A"><circle cx="828.115385" cy="34.000000" r="4.000000" fill="#0000ff" /></a><g transform="translate(828.115385,34.000000) rotate(-30)"><text style="font-size:10px;font-family:OpenSans;fill:#555;" text-anchor="middle" x="0" y="-6.000000">A243A</text></g><line x1="1052.307692" x2="1052.307692" y1="34.000000" y2="62.000000" stroke="#BABDB6" stroke-width="2"/><a xlink:title="R310K"><circle cx="1052.307692" cy="34.000000" r="4.000000" fill="#ff0000" /></a><g transform="translate(1052.307692,34.000000) rotate(-30)"><text style="font-size:10px;font-family:OpenSans;fill:#555;" text-anchor="middle" x="0" y="-6.000000">R310K</text></g><line x1="1062.346154" x2="1062.346154" y1="34.000000" y2="62.000000" stroke="#BABDB6" stroke-width="2"/><a xlink:title="V313I"><circle cx="1062.346154" cy="34.000000" r="4.000000" fill="#ff0000" /></a><g transform="translate(1062.346154,34.000000) rotate(-30)"><text style="font-size:10px;font-family:OpenSans;fill:#555;" text-anchor="middle" x="0" y="-6.000000">V313I</text></g><line x1="1196.192308" x2="1196.192308" y1="34.000000" y2="62.000000" stroke="#BABDB6" stroke-width="2"/><a xlink:title="T353T"><circle cx="1196.192308" cy="34.000000" r="4.000000" fill="#0000ff" /></a><g transform="translate(1196.192308,34.000000) rotate(-30)"><text style="font-size:10px;font-family:OpenSans;fill:#555;" text-anchor="middle" x="0" y="-6.000000">T353T</text></g><line x1="1236.346154" x2="1236.346154" y1="34.000000" y2="62.000000" stroke="#BABDB6" stroke-width="2"/><a xlink:title="S365S"><circle cx="1236.346154" cy="34.000000" r="4.000000" fill="#0000ff" /></a><g transform="translate(1236.346154,34.000000) rotate(-30)"><text style="font-size:10px;font-family:OpenSans;fill:#555;" text-anchor="middle" x="0" y="-6.000000">S365S</text></g><line x1="1748.307692" x2="1748.307692" y1="34.000000" y2="62.000000" stroke="#BABDB6" stroke-width="2"/><a xlink:title="T518T"><circle cx="1748.307692" cy="34.000000" r="4.000000" fill="#0000ff" /></a><g transform="translate(1748.307692,34.000000) rotate(-30)"><text style="font-size:10px;font-family:OpenSans;fill:#555;" text-anchor="middle" x="0" y="-6.000000">T518T</text></g><line x1="1942.384615" x2="1942.384615" y1="34.000000" y2="62.000000" stroke="#BABDB6" stroke-width="2"/><a xlink:title="A576A"><circle cx="1942.384615" cy="34.000000" r="4.000000" fill="#0000ff" /></a><g transform="translate(1942.384615,34.000000) rotate(-30)"><text style="font-size:10px;font-family:OpenSans;fill:#555;" text-anchor="middle" x="0" y="-6.000000">A576A</text></g><line x1="2166.576923" x2="2166.576923" y1="34.000000" y2="62.000000" stroke="#BABDB6" stroke-width="2"/><a xlink:title="R643K"><circle cx="2166.576923" cy="34.000000" r="4.000000" fill="#ff0000" /></a><g transform="translate(2166.576923,34.000000) rotate(-30)"><text style="font-size:10px;font-family:OpenSans;fill:#555;" text-anchor="middle" x="0" y="-6.000000">R643K</text></g><line x1="2350.615385" x2="2350.615385" y1="34.000000" y2="62.000000" stroke="#BABDB6" stroke-width="2"/><a xlink:title="S698S"><circle cx="2350.615385" cy="34.000000" r="4.000000" fill="#0000ff" /></a><g transform="translate(2350.615385,34.000000) rotate(-30)"><text style="font-size:10px;font-family:OpenSans;fill:#555;" text-anchor="middle" x="0" y="-6.000000">S698S</text></g><line x1="2444.307692" x2="2444.307692" y1="34.000000" y2="62.000000" stroke="#BABDB6" stroke-width="2"/><a xlink:title="I726I"><circle cx="2444.307692" cy="34.000000" r="4.000000" fill="#0000ff" /></a><g transform="translate(2444.307692,34.000000) rotate(-30)"><text style="font-size:10px;font-family:OpenSans;fill:#555;" text-anchor="middle" x="0" y="-6.000000">I726I</text></g><line x1="2511.230769" x2="2511.230769" y1="34.000000" y2="62.000000" stroke="#BABDB6" stroke-width="2"/><a xlink:title="D746D"><circle cx="2511.230769" cy="34.000000" r="4.000000" fill="#0000ff" /></a><g transform="translate(2511.230769,34.000000) rotate(-30)"><text style="font-size:10px;font-family:OpenSans;fill:#555;" text-anchor="middle" x="0" y="-6.000000">D746D</text></g><line x1="3029.884615" x2="3029.884615" y1="34.000000" y2="62.000000" stroke="#BABDB6" stroke-width="2"/><a xlink:title="Q901Q"><circle cx="3029.884615" cy="34.000000" r="4.000000" fill="#0000ff" /></a><g transform="translate(3029.884615,34.000000) rotate(-30)"><text style="font-size:10px;font-family:OpenSans;fill:#555;" text-anchor="middle" x="0" y="-6.000000">Q901Q</text></g><line x1="3558.576923" x2="3558.576923" y1="34.000000" y2="62.000000" stroke="#BABDB6" stroke-width="2"/><a xlink:title="I1059I"><circle cx="3558.576923" cy="34.000000" r="4.000000" fill="#0000ff" /></a><g transform="translate(3558.576923,34.000000) rotate(-30)"><text style="font-size:10px;font-family:OpenSans;fill:#555;" text-anchor="middle" x="0" y="-6.000000">I1059I</text></g><line x1="3625.500000" x2="3625.500000" y1="34.000000" y2="62.000000" stroke="#BABDB6" stroke-width="2"/><a xlink:title="D1079D"><circle cx="3625.500000" cy="34.000000" r="4.000000" fill="#0000ff" /></a><g transform="translate(3625.500000,34.000000) rotate(-30)"><text style="font-size:10px;font-family:OpenSans;fill:#555;" text-anchor="middle" x="0" y="-6.000000">D1079D</text></g><line x1="4144.153846" x2="4144.153846" y1="34.000000" y2="62.000000" stroke="#BABDB6" stroke-width="2"/><a xlink:title="Q1234Q"><circle cx="4144.153846" cy="34.000000" r="4.000000" fill="#0000ff" /></a><g transform="translate(4144.153846,34.000000) rotate(-30)"><text style="font-size:10px;font-family:OpenSans;fill:#555;" text-anchor="middle" x="0" y="-6.000000">Q1234Q</text></g><a xlink:title=",  (1358aa)"><rect fill="#BABDB6" x="15.000000" y="62.000000" width="4544.076923" height="14.000000"/></a><g transform="translate(694.269231,57.000000)"><a xlink:href="https://www.ebi.ac.uk/interpro/entry/pfam/PF18720" xlink:title="Tenascin EGF domain"><rect fill="#2DCF00" x="0" y="0" width="93.692308" height="24.000000" filter="url(#ds)"/><text style="font-size:12px;font-family:OpenSans;fill:#ffffff;" text-anchor="middle" x="46.846154" y="16.000000">EGF_Tenascin</text></a></g>
<g transform="translate(801.346154,57.000000)"><a xlink:href="https://www.ebi.ac.uk/interpro/entry/pfam/PF18720" xlink:title="Tenascin EGF domain"><rect fill="#FF5353" x="0" y="0" width="87.000000" height="24.000000" filter="url(#ds)"/><text style="font-size:12px;font-family:OpenSans;fill:#ffffff;" text-anchor="middle" x="43.500000" y="16.000000">EGF_Tenascin</text></a></g>
<g transform="translate(1015.500000,57.000000)"><a xlink:href="https://www.ebi.ac.uk/interpro/entry/pfam/PF07974" xlink:title="EGF-like domain"><rect fill="#5B5BFF" x="0" y="0" width="80.307692" height="24.000000" filter="url(#ds)"/><text style="font-size:12px;font-family:OpenSans;fill:#ffffff;" text-anchor="middle" x="40.153846" y="16.000000">EGF_2</text></a></g>
<g transform="translate(1112.538462,57.000000)"><a xlink:href="https://www.ebi.ac.uk/interpro/entry/pfam/PF00041" xlink:title="Fibronectin type III domain"><rect fill="#EBD61D" x="0" y="0" width="267.692308" height="24.000000" filter="url(#ds)"/><text style="font-size:12px;font-family:OpenSans;fill:#ffffff;" text-anchor="middle" x="133.846154" y="16.000000">Fibronectin type III domain</text></a></g>
<g transform="translate(1407.000000,57.000000)"><a xlink:href="https://www.ebi.ac.uk/interpro/entry/pfam/PF00041" xlink:title="Fibronectin type III domain"><rect fill="#BA21E0" x="0" y="0" width="271.038462" height="24.000000" filter="url(#ds)"/><text style="font-size:12px;font-family:OpenSans;fill:#ffffff;" text-anchor="middle" x="135.519231" y="16.000000">Fibronectin type III domain</text></a></g>
<g transform="translate(1711.500000,57.000000)"><a xlink:href="https://www.ebi.ac.uk/interpro/entry/pfam/PF00041" xlink:title="Fibronectin type III domain"><rect fill="#FF9C42" x="0" y="0" width="267.692308" height="24.000000" filter="url(#ds)"/><text style="font-size:12px;font-family:OpenSans;fill:#ffffff;" text-anchor="middle" x="133.846154" y="16.000000">Fibronectin type III domain</text></a></g>
<g transform="translate(2005.961538,57.000000)"><a xlink:href="https://www.ebi.ac.uk/interpro/entry/pfam/PF00041" xlink:title="Fibronectin type III domain"><rect fill="#FF7DFF" x="0" y="0" width="277.730769" height="24.000000" filter="url(#ds)"/><text style="font-size:12px;font-family:OpenSans;fill:#ffffff;" text-anchor="middle" x="138.865385" y="16.000000">Fibronectin type III domain</text></a></g>
<g transform="translate(2313.807692,57.000000)"><a xlink:href="https://www.ebi.ac.uk/interpro/entry/pfam/PF00041" xlink:title="Fibronectin type III domain"><rect fill="#B9264F" x="0" y="0" width="267.692308" height="24.000000" filter="url(#ds)"/><text style="font-size:12px;font-family:OpenSans;fill:#ffffff;" text-anchor="middle" x="133.846154" y="16.000000">Fibronectin type III domain</text></a></g>
<g transform="translate(2611.615385,57.000000)"><a xlink:href="https://www.ebi.ac.uk/interpro/entry/pfam/PF00041" xlink:title="Fibronectin type III domain"><rect fill="#BABA21" x="0" y="0" width="267.692308" height="24.000000" filter="url(#ds)"/><text style="font-size:12px;font-family:OpenSans;fill:#ffffff;" text-anchor="middle" x="133.846154" y="16.000000">Fibronectin type III domain</text></a></g>
<g transform="translate(2909.423077,57.000000)"><a xlink:href="https://www.ebi.ac.uk/interpro/entry/pfam/PF00041" xlink:title="Fibronectin type III domain"><rect fill="#C48484" x="0" y="0" width="264.346154" height="24.000000" filter="url(#ds)"/><text style="font-size:12px;font-family:OpenSans;fill:#ffffff;" text-anchor="middle" x="132.173077" y="16.000000">Fibronectin type III domain</text></a></g>
<g transform="translate(3210.576923,57.000000)"><a xlink:href="https://www.ebi.ac.uk/interpro/entry/pfam/PF00041" xlink:title="Fibronectin type III domain"><rect fill="#1F88A7" x="0" y="0" width="240.923077" height="24.000000" filter="url(#ds)"/><text style="font-size:12px;font-family:OpenSans;fill:#ffffff;" text-anchor="middle" x="120.461538" y="16.000000">Fibronectin type III domain</text></a></g>
<g transform="translate(3501.692308,57.000000)"><a xlink:href="https://www.ebi.ac.uk/interpro/entry/pfam/PF00041" xlink:title="Fibronectin type III domain"><rect fill="#CAFEB8" x="0" y="0" width="267.692308" height="24.000000" filter="url(#ds)"/><text style="font-size:12px;font-family:OpenSans;fill:#ffffff;" text-anchor="middle" x="133.846154" y="16.000000">Fibronectin type III domain</text></a></g>
<g transform="translate(3812.884615,57.000000)"><a xlink:href="https://www.ebi.ac.uk/interpro/entry/pfam/PF00147" xlink:title="Fibrinogen beta and gamma chains, C-terminal globular domain"><rect fill="#4A9586" x="0" y="0" width="696.000000" height="24.000000" filter="url(#ds)"/><text style="font-size:12px;font-family:OpenSans;fill:#ffffff;" text-anchor="middle" x="348.000000" y="16.000000">Fibrinogen beta and gamma chains, C-terminal globular domain</text></a></g>
<g class="axis">
<line x1="15.000000" x2="4559.076923" y1="91.000000" y2="91.000000" stroke="#AAAAAA" /><line x1="15.000000" x2="15.000000" y1="91.000000" y2="96.000000" stroke="#AAAAAA" /><line x1="15.000000" x2="15.000000" y1="91.000000" y2="96.000000" stroke="#AAAAAA" /><text style="font-size:10px;font-family:OpenSans;fill:#000000;" text-anchor="middle" x="15.000000" y="106.000000">0</text><line x1="61.846154" x2="61.846154" y1="91.000000" y2="96.000000" stroke="#AAAAAA" /><text style="font-size:10px;font-family:OpenSans;fill:#000000;" text-anchor="middle" x="61.846154" y="106.000000">14</text><line x1="202.384615" x2="202.384615" y1="91.000000" y2="96.000000" stroke="#AAAAAA" /><text style="font-size:10px;font-family:OpenSans;fill:#000000;" text-anchor="middle" x="202.384615" y="106.000000">56</text><line x1="255.923077" x2="255.923077" y1="91.000000" y2="96.000000" stroke="#AAAAAA" /><text style="font-size:10px;font-family:OpenSans;fill:#000000;" text-anchor="middle" x="255.923077" y="106.000000">72</text><line x1="443.307692" x2="443.307692" y1="91.000000" y2="96.000000" stroke="#AAAAAA" /><text style="font-size:10px;font-family:OpenSans;fill:#000000;" text-anchor="middle" x="443.307692" y="106.000000">128</text><line x1="634.038462" x2="634.038462" y1="91.000000" y2="96.000000" stroke="#AAAAAA" /><text style="font-size:10px;font-family:OpenSans;fill:#000000;" text-anchor="middle" x="634.038462" y="106.000000">185</text><line x1="694.269231" x2="694.269231" y1="91.000000" y2="96.000000" stroke="#AAAAAA" /><text style="font-size:10px;font-family:OpenSans;fill:#000000;" text-anchor="middle" x="694.269231" y="106.000000">203</text><line x1="787.961538" x2="787.961538" y1="91.000000" y2="96.000000" stroke="#AAAAAA" /><text style="font-size:10px;font-family:OpenSans;fill:#000000;" text-anchor="middle" x="787.961538" y="106.000000">231</text><line x1="828.115385" x2="828.115385" y1="91.000000" y2="96.000000" stroke="#AAAAAA" /><text style="font-size:10px;font-family:OpenSans;fill:#000000;" text-anchor="middle" x="828.115385" y="106.000000">243</text><line x1="888.346154" x2="888.346154" y1="91.000000" y2="96.000000" stroke="#AAAAAA" /><text style="font-size:10px;font-family:OpenSans;fill:#000000;" text-anchor="middle" x="888.346154" y="106.000000">261</text><line x1="1015.500000" x2="1015.500000" y1="91.000000" y2="96.000000" stroke="#AAAAAA" /><text style="font-size:10px;font-family:OpenSans;fill:#000000;" text-anchor="middle" x="1015.500000" y="106.000000">299</text><line x1="1052.307692" x2="1052.307692" y1="91.000000" y2="96.000000" stroke="#AAAAAA" /><text style="font-size:10px;font-family:OpenSans;fill:#000000;" text-anchor="middle" x="1052.307692" y="106.000000">310</text><line x1="1095.807692" x2="1095.807692" y1="91.000000" y2="96.000000" stroke="#AAAAAA" /><text style="font-size:10px;font-family:OpenSans;fill:#000000;" text-anchor="middle" x="1095.807692" y="106.000000">323</text><line x1="1112.538462" x2="1112.538462" y1="91.000000" y2="96.000000" stroke="#AAAAAA" /><text style="font-size:10px;font-family:OpenSans;fill:#000000;" text-anchor="middle" x="1112.538462" y="106.000000">328</text><line x1="1196.192308" x2="1196.192308" y1="91.000000" y2="96.000000" stroke="#AAAAAA" /><text style="font-size:10px;font-family:OpenSans;fill:#000000;" text-anchor="middle" x="1196.192308" y="106.000000">353</text><line x1="1236.346154" x2="1236.346154" y1="91.000000" y2="96.000000" stroke="#AAAAAA" /><text style="font-size:10px;font-family:OpenSans;fill:#000000;" text-anchor="middle" x="1236.346154" y="106.000000">365</text><line x1="1380.230769" x2="1380.230769" y1="91.000000" y2="96.000000" stroke="#AAAAAA" /><text style="font-size:10px;font-family:OpenSans;fill:#000000;" text-anchor="middle" x="1380.230769" y="106.000000">408</text><line x1="1407.000000" x2="1407.000000" y1="91.000000" y2="96.000000" stroke="#AAAAAA" /><text style="font-size:10px;font-family:OpenSans;fill:#000000;" text-anchor="middle" x="1407.000000" y="106.000000">416</text><line x1="1678.038462" x2="1678.038462" y1="91.000000" y2="96.000000" stroke="#AAAAAA" /><text style="font-size:10px;font-family:OpenSans;fill:#000000;" text-anchor="middle" x="1678.038462" y="106.000000">497</text><line x1="1711.500000" x2="1711.500000" y1="91.000000" y2="96.000000" stroke="#AAAAAA" /><text style="font-size:10px;font-family:OpenSans;fill:#000000;" text-anchor="middle" x="1711.500000" y="106.000000">507</text><line x1="1748.307692" x2="1748.307692" y1="91.000000" y2="96.000000" stroke="#AAAAAA" /><text style="font-size:10px;font-family:OpenSans;fill:#000000;" text-anchor="middle" x="1748.307692" y="106.000000">518</text><line x1="1942.384615" x2="1942.384615" y1="91.000000" y2="96.000000" stroke="#AAAAAA" /><text style="font-size:10px;font-family:OpenSans;fill:#000000;" text-anchor="middle" x="1942.384615" y="106.000000">576</text><line x1="1979.192308" x2="1979.192308" y1="91.000000" y2="96.000000" stroke="#AAAAAA" /><text style="font-size:10px;font-family:OpenSans;fill:#000000;" text-anchor="middle" x="1979.192308" y="106.000000">587</text><line x1="2005.961538" x2="2005.961538" y1="91.000000" y2="96.000000" stroke="#AAAAAA" /><text style="font-size:10px;font-family:OpenSans;fill:#000000;" text-anchor="middle" x="2005.961538" y="106.000000">595</text><line x1="2166.576923" x2="2166.576923" y1="91.000000" y2="96.000000" stroke="#AAAAAA" /><text style="font-size:10px;font-family:OpenSans;fill:#000000;" text-anchor="middle" x="2166.576923" y="106.000000">643</text><line x1="2283.692308" x2="2283.692308" y1="91.000000" y2="96.000000" stroke="#AAAAAA" /><text style="font-size:10px;font-family:OpenSans;fill:#000000;" text-anchor="middle" x="2283.692308" y="106.000000">678</text><line x1="2313.807692" x2="2313.807692" y1="91.000000" y2="96.000000" stroke="#AAAAAA" /><text style="font-size:10px;font-family:OpenSans;fill:#000000;" text-anchor="middle" x="2313.807692" y="106.000000">687</text><line x1="2350.615385" x2="2350.615385" y1="91.000000" y2="96.000000" stroke="#AAAAAA" /><text style="font-size:10px;font-family:OpenSans;fill:#000000;" text-anchor="middle" x="2350.615385" y="106.000000">698</text><line x1="2444.307692" x2="2444.307692" y1="91.000000" y2="96.000000" stroke="#AAAAAA" /><text style="font-size:10px;font-family:OpenSans;fill:#000000;" text-anchor="middle" x="2444.307692" y="106.000000">726</text><line x1="2511.230769" x2="2511.230769" y1="91.000000" y2="96.000000" stroke="#AAAAAA" /><text style="font-size:10px;font-family:OpenSans;fill:#000000;" text-anchor="middle" x="2511.230769" y="106.000000">746</text><line x1="2581.500000" x2="2581.500000" y1="91.000000" y2="96.000000" stroke="#AAAAAA" /><text style="font-size:10px;font-family:OpenSans;fill:#000000;" text-anchor="middle" x="2581.500000" y="106.000000">767</text><line x1="2611.615385" x2="2611.615385" y1="91.000000" y2="96.000000" stroke="#AAAAAA" /><text style="font-size:10px;font-family:OpenSans;fill:#000000;" text-anchor="middle" x="2611.615385" y="106.000000">776</text><line x1="2879.307692" x2="2879.307692" y1="91.000000" y2="96.000000" stroke="#AAAAAA" /><text style="font-size:10px;font-family:OpenSans;fill:#000000;" text-anchor="middle" x="2879.307692" y="106.000000">856</text><line x1="2909.423077" x2="2909.423077" y1="91.000000" y2="96.000000" stroke="#AAAAAA" /><text style="font-size:10px;font-family:OpenSans;fill:#000000;" text-anchor="middle" x="2909.423077" y="106.000000">865</text><line x1="3029.884615" x2="3029.884615" y1="91.000000" y2="96.000000" stroke="#AAAAAA" /><text style="font-size:10px;font-family:OpenSans;fill:#000000;" text-anchor="middle" x="3029.884615" y="106.000000">901</text><line x1="3173.769231" x2="3173.769231" y1="91.000000" y2="96.000000" stroke="#AAAAAA" /><text style="font-size:10px;font-family:OpenSans;fill:#000000;" text-anchor="middle" x="3173.769231" y="106.000000">944</text><line x1="3210.576923" x2="3210.576923" y1="91.000000" y2="96.000000" stroke="#AAAAAA" /><text style="font-size:10px;font-family:OpenSans;fill:#000000;" text-anchor="middle" x="3210.576923" y="106.000000">955</text><line x1="3451.500000" x2="3451.500000" y1="91.000000" y2="96.000000" stroke="#AAAAAA" /><text style="font-size:10px;font-family:OpenSans;fill:#000000;" text-anchor="middle" x="3451.500000" y="106.000000">1027</text><line x1="3501.692308" x2="3501.692308" y1="91.000000" y2="96.000000" stroke="#AAAAAA" /><text style="font-size:10px;font-family:OpenSans;fill:#000000;" text-anchor="middle" x="3501.692308" y="106.000000">1042</text><line x1="3558.576923" x2="3558.576923" y1="91.000000" y2="96.000000" stroke="#AAAAAA" /><text style="font-size:10px;font-family:OpenSans;fill:#000000;" text-anchor="middle" x="3558.576923" y="106.000000">1059</text><line x1="3625.500000" x2="3625.500000" y1="91.000000" y2="96.000000" stroke="#AAAAAA" /><text style="font-size:10px;font-family:OpenSans;fill:#000000;" text-anchor="middle" x="3625.500000" y="106.000000">1079</text><line x1="3769.384615" x2="3769.384615" y1="91.000000" y2="96.000000" stroke="#AAAAAA" /><text style="font-size:10px;font-family:OpenSans;fill:#000000;" text-anchor="middle" x="3769.384615" y="106.000000">1122</text><line x1="3812.884615" x2="3812.884615" y1="91.000000" y2="96.000000" stroke="#AAAAAA" /><text style="font-size:10px;font-family:OpenSans;fill:#000000;" text-anchor="middle" x="3812.884615" y="106.000000">1135</text><line x1="4144.153846" x2="4144.153846" y1="91.000000" y2="96.000000" stroke="#AAAAAA" /><text style="font-size:10px;font-family:OpenSans;fill:#000000;" text-anchor="middle" x="4144.153846" y="106.000000">1234</text><line x1="4508.884615" x2="4508.884615" y1="91.000000" y2="96.000000" stroke="#AAAAAA" /><text style="font-size:10px;font-family:OpenSans;fill:#000000;" text-anchor="middle" x="4508.884615" y="106.000000">1343</text><line x1="4559.076923" x2="4559.076923" y1="91.000000" y2="96.000000" stroke="#AAAAAA" /><text style="font-size:10px;font-family:OpenSans;fill:#000000;" text-anchor="middle" x="4559.076923" y="106.000000">1358</text></g>
<rect fill="#5B5BFF" x="4" y="120.000000" width="12" height="12" filter="url(#ds)"/><text style="font-size:12px;font-family:OpenSans;fill:#000000;" text-anchor="start" x="20" y="132.000000">EGF-like domain</text><rect fill="#FF5353" x="4" y="134.000000" width="12" height="12" filter="url(#ds)"/><text style="font-size:12px;font-family:OpenSans;fill:#000000;" text-anchor="start" x="20" y="146.000000">Tenascin EGF domain</text></svg>
