<?xml version='1.0'?>
<svg xmlns="http://www.w3.org/2000/svg" xmlns:xlink="http://www.w3.org/1999/xlink" width="465.000000" height="172.600000">
<defs>
  <filter id="ds" x="0" y="0">
    <feOffset in="SourceAlpha" dx="2" dy="2" />
    <feComponentTransfer><feFuncA type="linear" slope="0.2"/></feComponentTransfer>
    <feGaussianBlur result="blurOut" stdDeviation="1" />
    <feBlend in="SourceGraphic" in2="blurOut" mode="normal" />
  </filter>
  <pattern id="disordered-hatch" patternUnits="userSpaceOnUse" width="4" height="4">
    <path d="M-1,1 l2,-2 M0,4 l4,-4 M3,5 l2,-2" stroke="#000000" opacity="0.3" />
  </pattern>
</defs>
<line x1="62.368421" x2="62.368421" y1="34.000000" y2="62.000000" stroke="#BABDB6" stroke-width="2"/><a xlink:title="R60*"><circle cx="62.368421" cy="34.000000" r="4.000000" fill="#0000ff" /></a><g transform="translate(62.368421,34.000000) rotate(-30)"><text style="font-size:10px;font-family:OpenSans;fill:#555;" text-anchor="middle" x="0" y="-6.000000">R60*</text></g><line x1="69.473684" x2="69.473684" y1="34.000000" y2="62.000000" stroke="#BABDB6" stroke-width="2"/><a xlink:title="T69S"><circle cx="69.473684" cy="34.000000" r="4.000000" fill="#ff0000" /></a><g transform="translate(69.473684,34.000000) rotate(-30)"><text style="font-size:10px;font-family:OpenSans;fill:#555;" text-anchor="middle" x="0" y="-6.000000">T69S</text></g><line x1="85.263158" x2="85.263158" y1="34.000000" y2="62.000000" stroke="#BABDB6" stroke-width="2"/><a xlink:title="T89S"><circle cx="85.263158" cy="34.000000" r="4.000000" fill="#ff0000" /></a><g transform="translate(85.263158,34.000000) rotate(-30)"><text style="font-size:10px;font-family:OpenSans;fill:#555;" text-anchor="middle" x="0" y="-6.000000">T89S</text></g><line x1="99.473684" x2="99.473684" y1="34.000000" y2="62.000000" stroke="#BABDB6" stroke-width="2"/><a xlink:title="T107S"><circle cx="99.473684" cy="34.000000" r="4.000000" fill="#ff0000" /></a><g transform="translate(99.473684,34.000000) rotate(-30)"><text style="font-size:10px;font-family:OpenSans;fill:#555;" text-anchor="middle" x="0" y="-6.000000">T107S</text></g><line x1="126.315789" x2="126.315789" y1="34.000000" y2="62.000000" stroke="#BABDB6" stroke-width="2"/><a xlink:title="Y141Y"><circle cx="126.315789" cy="34.000000" r="4.000000" fill="#0000ff" /></a><g transform="translate(126.315789,34.000000) rotate(-30)"><text style="font-size:10px;font-family:OpenSans;fill:#555;" text-anchor="middle" x="0" y="-6.000000">Y141Y</text></g><line x1="141.315789" x2="141.315789" y1="34.000000" y2="62.000000" stroke="#BABDB6" stroke-width="2"/><a xlink:title="R160*"><circle cx="141.315789" cy="34.000000" r="4.000000" fill="#0000ff" /></a><g transform="translate(141.315789,34.000000) rotate(-30)"><text style="font-size:10px;font-family:OpenSans;fill:#555;" text-anchor="middle" x="0" y="-6.000000">R160*</text></g><line x1="157.105263" x2="157.105263" y1="34.000000" y2="62.000000" stroke="#BABDB6" stroke-width="2"/><a xlink:title="R180*"><circle cx="157.105263" cy="34.000000" r="4.000000" fill="#0000ff" /></a><g transform="translate(157.105263,34.000000) rotate(-30)"><text style="font-size:10px;font-family:OpenSans;fill:#555;" text-anchor="middle" x="0" y="-6.000000">R180*</text></g><line x1="171.315789" x2="171.315789" y1="34.000000" y2="62.000000" stroke="#BABDB6" stroke-width="2"/><a xlink:title="R198*"><circle cx="171.315789" cy="34.000000" r="4.000000" fill="#0000ff" /></a><g transform="translate(171.315789,34.000000) rotate(-30)"><text style="font-size:10px;font-family:OpenSans;fill:#555;" text-anchor="middle" x="0" y="-6.000000">R198*</text></g><line x1="205.263158" x2="205.263158" y1="34.000000" y2="62.000000" stroke="#BABDB6" stroke-width="2"/><a xlink:title="Y241Y"><circle cx="205.263158" cy="34.000000" r="4.000000" fill="#0000ff" /></a><g transform="translate(205.263158,34.000000) rotate(-30)"><text style="font-size:10px;font-family:OpenSans;fill:#555;" text-anchor="middle" x="0" y="-6.000000">Y241Y</text></g><line x1="221.052632" x2="221.052632" y1="34.000000" y2="62.000000" stroke="#BABDB6" stroke-width="2"/><a xlink:title="Y261Y"><circle cx="221.052632" cy="34.000000" r="4.000000" fill="#0000ff" /></a><g transform="translate(221.052632,34.000000) rotate(-30)"><text style="font-size:10px;font-family:OpenSans;fill:#555;" text-anchor="middle" x="0" y="-6.000000">Y261Y</text></g><line x1="235.263158" x2="235.263158" y1="34.000000" y2="62.000000" stroke="#BABDB6" stroke-width="2"/><a xlink:title="Y279Y"><circle cx="235.263158" cy="34.000000" r="4.000000" fill="#0000ff" /></a><g transform="translate(235.263158,34.000000) rotate(-30)"><text style="font-size:10px;font-family:OpenSans;fill:#555;" text-anchor="middle" x="0" y="-6.000000">Y279Y</text></g><line x1="341.052632" x2="341.052632" y1="34.000000" y2="62.000000" stroke="#BABDB6" stroke-width="2"/><a xlink:title="D413N"><circle cx="341.052632" cy="34.000000" r="4.000000" fill="#ff0000" /></a><g transform="translate(341.052632,34.000000) rotate(-30)"><text style="font-size:10px;font-family:OpenSans;fill:#555;" text-anchor="middle" x="0" y="-6.000000">D413N</text></g><line x1="420.000000" x2="420.000000" y1="34.000000" y2="62.000000" stroke="#BABDB6" stroke-width="2"/><a xlink:title="D513N"><circle cx="420.000000" cy="34.000000" r="4.000000" fill="#ff0000" /></a><g transform="translate(420.000000,34.000000) rotate(-30)"><text style="font-size:10px;font-family:OpenSans;fill:#555;" text-anchor="middle" x="0" y="-6.000000">D513N</text></g><line x1="435.789474" x2="435.789474" y1="34.000000" y2="62.000000" stroke="#BABDB6" stroke-width="2"/><a xlink:title="D533N"><circle cx="435.789474" cy="34.000000" r="4.000000" fill="#ff0000" /></a><g transform="translate(435.789474,34.000000) rotate(-30)"><text style="font-size:10px;font-family:OpenSans;fill:#555;" text-anchor="middle" x="0" y="-6.000000">D533N</text></g><line x1="450.000000" x2="450.000000" y1="34.000000" y2="62.000000" stroke="#BABDB6" stroke-width="2"/><a xlink:title="D551N"><circle cx="450.000000" cy="34.000000" r="4.000000" fill="#ff0000" /></a><g transform="translate(450.000000,34.000000) rotate(-30)"><text style="font-size:10px;font-family:OpenSans;fill:#555;" text-anchor="middle" x="0" y="-6.000000">D551N</text></g><a xlink:title=",  (551aa)"><rect fill="#BABDB6" x="15.000000" y="62.000000" width="435.000000" height="14.000000"/></a><g transform="translate(87.631579,57.000000)"><a xlink:href="https://www.ebi.ac.uk/interpro/entry/pfam/PF00520" xlink:title="Ion transport protein"><rect fill="#2DCF00" x="0" y="0" width="100.263158" height="24.000000" filter="url(#ds)"/><text style="font-size:12px;font-family:OpenSans;fill:#ffffff;" text-anchor="middle" x="50.131579" y="16.000000">Ion_trans</text></a></g>
<g transform="translate(250.263158,57.000000)"><a xlink:href="https://www.ebi.ac.uk/interpro/entry/pfam/PF22785" xlink:title="Polymorphic toxin system, DSP-PTPase phosphatase"><rect fill="#FF5353" x="0" y="0" width="45.000000" height="24.000000" filter="url(#ds)"/><text style="font-size:12px;font-family:OpenSans;fill:#ffffff;" text-anchor="middle" x="22.500000" y="16.000000">Tc-R-P</text></a></g>
<g transform="translate(337.894737,57.000000)"><a xlink:href="https://www.ebi.ac.uk/interpro/entry/pfam/PF10409" xlink:title="C2 domain of PTEN tumour-suppressor protein"><rect fill="#5B5BFF" x="0" y="0" width="102.631579" height="24.000000" filter="url(#ds)"/><text style="font-size:12px;font-family:OpenSans;fill:#ffffff;" text-anchor="middle" x="51.315789" y="16.000000">PTEN_C2</text></a></g>
<g class="axis">
<line x1="15.000000" x2="450.000000" y1="91.000000" y2="91.000000" stroke="#AAAAAA" /><line x1="15.000000" x2="15.000000" y1="91.000000" y2="96.000000" stroke="#AAAAAA" /><line x1="15.000000" x2="15.000000" y1="91.000000" y2="96.000000" stroke="#AAAAAA" /><text style="font-size:10px;font-family:OpenSans;fill:#000000;" text-anchor="middle" x="15.000000" y="106.000000">0</text><line x1="62.368421" x2="62.368421" y1="91.000000" y2="96.000000" stroke="#AAAAAA" /><text style="font-size:10px;font-family:OpenSans;fill:#000000;" text-anchor="middle" x="62.368421" y="106.000000">60</text><line x1="85.263158" x2="85.263158" y1="91.000000" y2="96.000000" stroke="#AAAAAA" /><text style="font-size:10px;font-family:OpenSans;fill:#000000;" text-anchor="middle" x="85.263158" y="106.000000">89</text><line x1="126.315789" x2="126.315789" y1="91.000000" y2="96.000000" stroke="#AAAAAA" /><text style="font-size:10px;font-family:OpenSans;fill:#000000;" text-anchor="middle" x="126.315789" y="106.000000">141</text><line x1="157.105263" x2="157.105263" y1="91.000000" y2="96.000000" stroke="#AAAAAA" /><text style="font-size:10px;font-family:OpenSans;fill:#000000;" text-anchor="middle" x="157.105263" y="106.000000">180</text><line x1="205.263158" x2="205.263158" y1="91.000000" y2="96.000000" stroke="#AAAAAA" /><text style="font-size:10px;font-family:OpenSans;fill:#000000;" text-anchor="middle" x="205.263158" y="106.000000">241</text><line x1="235.263158" x2="235.263158" y1="91.000000" y2="96.000000" stroke="#AAAAAA" /><text style="font-size:10px;font-family:OpenSans;fill:#000000;" text-anchor="middle" x="235.263158" y="106.000000">279</text><line x1="295.263158" x2="295.263158" y1="91.000000" y2="96.000000" stroke="#AAAAAA" /><text style="font-size:10px;font-family:OpenSans;fill:#000000;" text-anchor="middle" x="295.263158" y="106.000000">355</text><line x1="341.052632" x2="341.052632" y1="91.000000" y2="96.000000" stroke="#AAAAAA" /><text style="font-size:10px;font-family:OpenSans;fill:#000000;" text-anchor="middle" x="341.052632" y="106.000000">413</text><line x1="420.000000" x2="420.000000" y1="91.000000" y2="96.000000" stroke="#AAAAAA" /><text style="font-size:10px;font-family:OpenSans;fill:#000000;" text-anchor="middle" x="420.000000" y="106.000000">513</text><line x1="450.000000" x2="450.000000" y1="91.000000" y2="96.000000" stroke="#AAAAAA" /><text style="font-size:10px;font-family:OpenSans;fill:#000000;" text-anchor="middle" x="450.000000" y="106.000000">551</text></g>
<rect fill="#5B5BFF" x="4" y="120.000000" width="12" height="12" filter="url(#ds)"/><text style="font-size:12px;font-family:OpenSans;fill:#000000;" text-anchor="start" x="20" y="132.000000">C2 domain of PTEN tumour-suppressor protein</text><rect fill="#2DCF00" x="4" y="134.000000" width="12" height="12" filter="url(#ds)"/><text style="font-size:12px;font-family:OpenSans;fill:#000000;" text-anchor="start" x="20" y="146.000000">Ion transport protein</text><rect fill="#FF5353" x="4" y="148.000000" width="12" height="12" filter="url(#ds)"/><text style="font-size:12px;font-family:OpenSans;fill:#000000;" text-anchor="start" x="20" y="160.000000">Polymorphic toxin system, DSP-PTPase phosphatase</text></svg>
