<?xml version='1.0'?>
<svg xmlns="http://www.w3.org/2000/svg" xmlns:xlink="http://www.w3.org/1999/xlink" width="2787.272727" height="158.700000">
<defs>
  <filter id="ds" x="0" y="0">
    <feOffset in="SourceAlpha" dx="2" dy="2" />
    <feComponentTransfer><feFuncA type="linear" slope="0.2"/></feComponentTransfer>
    <feGaussianBlur result="blurOut" stdDeviation="1" />
    <feBlend in="SourceGraphic" in2="blurOut" mode="normal" />
  </filter>
  <pattern id="disordered-hatch" patternUnits="userSpaceOnUse" width="4" height="4">
    <path d="M-1,1 l2,-2 M0,4 l4,-4 M3,5 l2,-2" stroke="#000000" opacity="0.3" />
  </pattern>
</defs>
<line x1="17.727273" x2="17.727273" y1="46.500000" y2="74.500000" stroke="#BABDB6" stroke-width="2"/><a xlink:title="T2I"><circle cx="17.727273" cy="46.500000" r="4.000000" fill="#ff0000" /></a><g transform="translate(17.727273,46.500000) rotate(-30)"><text style="font-size:10px;font-family:OpenSans;fill:#555;" text-anchor="middle" x="0" y="-6.000000">T2I</text></g><line x1="62.727273" x2="62.727273" y1="46.500000" y2="74.500000" stroke="#BABDB6" stroke-width="2"/><a xlink:title="T35S"><circle cx="62.727273" cy="46.500000" r="4.000000" fill="#ff0000" /></a><g transform="translate(62.727273,46.500000) rotate(-30)"><text style="font-size:10px;font-family:OpenSans;fill:#555;" text-anchor="middle" x="0" y="-6.000000">T35S</text></g><line x1="69.545455" x2="69.545455" y1="46.500000" y2="74.500000" stroke="#BABDB6" stroke-width="2"/><a xlink:title="T40S"><circle cx="69.545455" cy="46.500000" r="4.000000" fill="#ff0000" /></a><g transform="translate(69.545455,46.500000) rotate(-30)"><text style="font-size:10px;font-family:OpenSans;fill:#555;" text-anchor="middle" x="0" y="-6.000000">T40S</text></g><line x1="441.818182" x2="441.818182" y1="46.500000" y2="74.500000" stroke="#BABDB6" stroke-width="2"/><a xlink:title="G313G"><circle cx="441.818182" cy="46.500000" r="4.000000" fill="#0000ff" /></a><g transform="translate(441.818182,46.500000) rotate(-30)"><text style="font-size:10px;font-family:OpenSans;fill:#555;" text-anchor="middle" x="0" y="-6.000000">G313G</text></g><line x1="448.636364" x2="448.636364" y1="46.500000" y2="74.500000" stroke="#BABDB6" stroke-width="2"/><a xlink:title="G318G"><circle cx="448.636364" cy="46.500000" r="4.000000" fill="#0000ff" /></a><g transform="translate(448.636364,46.500000) rotate(-30)"><text style="font-size:10px;font-family:OpenSans;fill:#555;" text-anchor="middle" x="0" y="-6.000000">G318G</text></g><line x1="849.545455" x2="849.545455" y1="46.500000" y2="74.500000" stroke="#BABDB6" stroke-width="2"/><a xlink:title="L612L"><circle cx="849.545455" cy="46.500000" r="4.000000" fill="#0000ff" /></a><g transform="translate(849.545455,46.500000) rotate(-30)"><text style="font-size:10px;font-family:OpenSans;fill:#555;" text-anchor="middle" x="0" y="-6.000000">L612L</text></g><line x1="856.363636" x2="856.363636" y1="46.500000" y2="74.500000" stroke="#BABDB6" stroke-width="2"/><a xlink:title="L617L"><circle cx="856.363636" cy="46.500000" r="4.000000" fill="#0000ff" /></a><g transform="translate(856.363636,46.500000) rotate(-30)"><text style="font-size:10px;font-family:OpenSans;fill:#555;" text-anchor="middle" x="0" y="-6.000000">L617L</text></g><line x1="973.636364" x2="973.636364" y1="46.500000" y2="74.500000" stroke="#BABDB6" stroke-width="2"/><a xlink:title="L703L"><circle cx="973.636364" cy="46.500000" r="4.000000" fill="#0000ff" /></a><g transform="translate(973.636364,46.500000) rotate(-30)"><text style="font-size:10px;font-family:OpenSans;fill:#555;" text-anchor="middle" x="0" y="-6.000000">L703L</text></g><line x1="980.454545" x2="980.454545" y1="46.500000" y2="74.500000" stroke="#BABDB6" stroke-width="2"/><a xlink:title="L708L"><circle cx="980.454545" cy="46.500000" r="4.000000" fill="#0000ff" /></a><g transform="translate(980.454545,46.500000) rotate(-30)"><text style="font-size:10px;font-family:OpenSans;fill:#555;" text-anchor="middle" x="0" y="-6.000000">L708L</text></g><line x1="1118.181818" x2="1118.181818" y1="46.500000" y2="74.500000" stroke="#BABDB6" stroke-width="2"/><a xlink:title="Q809Q"><circle cx="1118.181818" cy="46.500000" r="4.000000" fill="#0000ff" /></a><g transform="translate(1118.181818,46.500000) rotate(-30)"><text style="font-size:10px;font-family:OpenSans;fill:#555;" text-anchor="middle" x="0" y="-6.000000">Q809Q</text></g><line x1="1125.000000" x2="1125.000000" y1="46.500000" y2="74.500000" stroke="#BABDB6" stroke-width="2"/><a xlink:title="Q814Q"><circle cx="1125.000000" cy="46.500000" r="4.000000" fill="#0000ff" /></a><g transform="translate(1125.000000,46.500000) rotate(-30)"><text style="font-size:10px;font-family:OpenSans;fill:#555;" text-anchor="middle" x="0" y="-6.000000">Q814Q</text></g><line x1="1592.727273" x2="1592.727273" y1="46.500000" y2="74.500000" stroke="#BABDB6" stroke-width="2"/><a xlink:title="M1157I"><circle cx="1592.727273" cy="46.500000" r="4.000000" fill="#ff0000" /></a><g transform="translate(1592.727273,46.500000) rotate(-30)"><text style="font-size:10px;font-family:OpenSans;fill:#555;" text-anchor="middle" x="0" y="-6.000000">M1157I</text></g><line x1="1599.545455" x2="1599.545455" y1="46.500000" y2="74.500000" stroke="#BABDB6" stroke-width="2"/><a xlink:title="M1162I"><circle cx="1599.545455" cy="46.500000" r="4.000000" fill="#ff0000" /></a><g transform="translate(1599.545455,46.500000) rotate(-30)"><text style="font-size:10px;font-family:OpenSans;fill:#555;" text-anchor="middle" x="0" y="-6.000000">M1162I</text></g><line x1="1907.727273" x2="1907.727273" y1="46.500000" y2="74.500000" stroke="#BABDB6" stroke-width="2"/><a xlink:title="V1388I"><circle cx="1907.727273" cy="46.500000" r="4.000000" fill="#ff0000" /></a><g transform="translate(1907.727273,46.500000) rotate(-30)"><text style="font-size:10px;font-family:OpenSans;fill:#555;" text-anchor="middle" x="0" y="-6.000000">V1388I</text></g><line x1="1914.545455" x2="1914.545455" y1="46.500000" y2="74.500000" stroke="#BABDB6" stroke-width="2"/><a xlink:title="V1393I"><circle cx="1914.545455" cy="46.500000" r="4.000000" fill="#ff0000" /></a><g transform="translate(1914.545455,46.500000) rotate(-30)"><text style="font-size:10px;font-family:OpenSans;fill:#555;" text-anchor="middle" x="0" y="-6.000000">V1393I</text></g><line x1="1926.818182" x2="1926.818182" y1="46.500000" y2="74.500000" stroke="#BABDB6" stroke-width="2"/><a xlink:title="H1402H"><circle cx="1926.818182" cy="46.500000" r="4.000000" fill="#0000ff" /></a><g transform="translate(1926.818182,46.500000) rotate(-30)"><text style="font-size:10px;font-family:OpenSans;fill:#555;" text-anchor="middle" x="0" y="-6.000000">H1402H</text></g><line x1="1933.636364" x2="1933.636364" y1="46.500000" y2="74.500000" stroke="#BABDB6" stroke-width="2"/><a xlink:title="H1407H"><circle cx="1933.636364" cy="46.500000" r="4.000000" fill="#0000ff" /></a><g transform="translate(1933.636364,46.500000) rotate(-30)"><text style="font-size:10px;font-family:OpenSans;fill:#555;" text-anchor="middle" x="0" y="-6.000000">H1407H</text></g><line x1="2168.181818" x2="2168.181818" y1="34.000000" y2="74.500000" stroke="#BABDB6" stroke-width="2"/><a xlink:title="K1579E"><circle cx="2168.181818" cy="34.000000" r="4.000000" fill="#ff0000" /></a><g transform="translate(2168.181818,34.000000) rotate(-30)"><text style="font-size:10px;font-family:OpenSans;fill:#555;" text-anchor="middle" x="0" y="-6.000000">K1579E</text></g><line x1="2173.636364" x2="2173.636364" y1="34.000000" y2="74.500000" stroke="#BABDB6" stroke-width="2"/><a xlink:title="N1583N"><circle cx="2173.636364" cy="34.000000" r="4.000000" fill="#0000ff" /></a><g transform="translate(2173.636364,34.000000) rotate(-30)"><text style="font-size:10px;font-family:OpenSans;fill:#555;" text-anchor="middle" x="0" y="-6.000000">N1583N</text></g><line x1="2175.000000" x2="2175.000000" y1="34.000000" y2="74.500000" stroke="#BABDB6" stroke-width="2"/><a xlink:title="K1584E"><circle cx="2175.000000" cy="34.000000" r="4.000000" fill="#ff0000" /></a><g transform="translate(2175.000000,34.000000) rotate(-30)"><text style="font-size:10px;font-family:OpenSans;fill:#555;" text-anchor="middle" x="0" y="-6.000000">K1584E</text></g><line x1="2180.454545" x2="2180.454545" y1="46.500000" y2="74.500000" stroke="#BABDB6" stroke-width="2"/><a xlink:title="N1588N"><circle cx="2180.454545" cy="46.500000" r="4.000000" fill="#0000ff" /></a><g transform="translate(2180.454545,46.500000) rotate(-30)"><text style="font-size:10px;font-family:OpenSans;fill:#555;" text-anchor="middle" x="0" y="-6.000000">N1588N</text></g><a xlink:title=",  (2022aa)"><rect fill="#BABDB6" x="15.000000" y="74.500000" width="2757.272727" height="14.000000"/></a><g transform="translate(163.636364,69.500000)"><a xlink:href="https://www.ebi.ac.uk/interpro/entry/pfam/PF18139" xlink:title="SLOG in TRPM"><rect fill="#2DCF00" x="0" y="0" width="358.636364" height="24.000000" filter="url(#ds)"/><text style="font-size:12px;font-family:OpenSans;fill:#ffffff;" text-anchor="middle" x="179.318182" y="16.000000">SLOG in TRPM</text></a></g>
<g transform="translate(1167.272727,69.500000)"><a xlink:href="https://www.ebi.ac.uk/interpro/entry/pfam/PF00520" xlink:title="Ion transport protein"><rect fill="#FF5353" x="0" y="0" width="315.000000" height="24.000000" filter="url(#ds)"/><text style="font-size:12px;font-family:OpenSans;fill:#ffffff;" text-anchor="middle" x="157.500000" y="16.000000">Ion transport protein</text></a></g>
<g transform="translate(1610.454545,69.500000)"><a xlink:href="https://www.ebi.ac.uk/interpro/entry/pfam/PF16519" xlink:title="Tetramerisation domain of TRPM"><rect fill="#5B5BFF" x="0" y="0" width="75.000000" height="24.000000" filter="url(#ds)"/><text style="font-size:12px;font-family:OpenSans;fill:#ffffff;" text-anchor="middle" x="37.500000" y="16.000000">TRPM_tetra</text></a></g>
<g transform="translate(2436.818182,69.500000)"><a xlink:href="https://www.ebi.ac.uk/interpro/entry/pfam/PF02816" xlink:title="Alpha-kinase family"><rect fill="#EBD61D" x="0" y="0" width="267.272727" height="24.000000" filter="url(#ds)"/><text style="font-size:12px;font-family:OpenSans;fill:#ffffff;" text-anchor="middle" x="133.636364" y="16.000000">Alpha-kinase family</text></a></g>
<g class="axis">
<line x1="15.000000" x2="2772.272727" y1="103.500000" y2="103.500000" stroke="#AAAAAA" /><line x1="15.000000" x2="15.000000" y1="103.500000" y2="108.500000" stroke="#AAAAAA" /><line x1="17.727273" x2="17.727273" y1="103.500000" y2="108.500000" stroke="#AAAAAA" /><text style="font-size:10px;font-family:OpenSans;fill:#000000;" text-anchor="middle" x="17.727273" y="118.500000">2</text><line x1="62.727273" x2="62.727273" y1="103.500000" y2="108.500000" stroke="#AAAAAA" /><text style="font-size:10px;font-family:OpenSans;fill:#000000;" text-anchor="middle" x="62.727273" y="118.500000">35</text><line x1="163.636364" x2="163.636364" y1="103.500000" y2="108.500000" stroke="#AAAAAA" /><text style="font-size:10px;font-family:OpenSans;fill:#000000;" text-anchor="middle" x="163.636364" y="118.500000">109</text><line x1="441.818182" x2="441.818182" y1="103.500000" y2="108.500000" stroke="#AAAAAA" /><text style="font-size:10px;font-family:OpenSans;fill:#000000;" text-anchor="middle" x="441.818182" y="118.500000">313</text><line x1="522.272727" x2="522.272727" y1="103.500000" y2="108.500000" stroke="#AAAAAA" /><text style="font-size:10px;font-family:OpenSans;fill:#000000;" text-anchor="middle" x="522.272727" y="118.500000">372</text><line x1="849.545455" x2="849.545455" y1="103.500000" y2="108.500000" stroke="#AAAAAA" /><text style="font-size:10px;font-family:OpenSans;fill:#000000;" text-anchor="middle" x="849.545455" y="118.500000">612</text><line x1="973.636364" x2="973.636364" y1="103.500000" y2="108.500000" stroke="#AAAAAA" /><text style="font-size:10px;font-family:OpenSans;fill:#000000;" text-anchor="middle" x="973.636364" y="118.500000">703</text><line x1="1118.181818" x2="1118.181818" y1="103.500000" y2="108.500000" stroke="#AAAAAA" /><text style="font-size:10px;font-family:OpenSans;fill:#000000;" text-anchor="middle" x="1118.181818" y="118.500000">809</text><line x1="1167.272727" x2="1167.272727" y1="103.500000" y2="108.500000" stroke="#AAAAAA" /><text style="font-size:10px;font-family:OpenSans;fill:#000000;" text-anchor="middle" x="1167.272727" y="118.500000">845</text><line x1="1482.272727" x2="1482.272727" y1="103.500000" y2="108.500000" stroke="#AAAAAA" /><text style="font-size:10px;font-family:OpenSans;fill:#000000;" text-anchor="middle" x="1482.272727" y="118.500000">1076</text><line x1="1592.727273" x2="1592.727273" y1="103.500000" y2="108.500000" stroke="#AAAAAA" /><text style="font-size:10px;font-family:OpenSans;fill:#000000;" text-anchor="middle" x="1592.727273" y="118.500000">1157</text><line x1="1685.454545" x2="1685.454545" y1="103.500000" y2="108.500000" stroke="#AAAAAA" /><text style="font-size:10px;font-family:OpenSans;fill:#000000;" text-anchor="middle" x="1685.454545" y="118.500000">1225</text><line x1="1907.727273" x2="1907.727273" y1="103.500000" y2="108.500000" stroke="#AAAAAA" /><text style="font-size:10px;font-family:OpenSans;fill:#000000;" text-anchor="middle" x="1907.727273" y="118.500000">1388</text><line x1="1926.818182" x2="1926.818182" y1="103.500000" y2="108.500000" stroke="#AAAAAA" /><text style="font-size:10px;font-family:OpenSans;fill:#000000;" text-anchor="middle" x="1926.818182" y="118.500000">1402</text><line x1="2168.181818" x2="2168.181818" y1="103.500000" y2="108.500000" stroke="#AAAAAA" /><text style="font-size:10px;font-family:OpenSans;fill:#000000;" text-anchor="middle" x="2168.181818" y="118.500000">1579</text><line x1="2436.818182" x2="2436.818182" y1="103.500000" y2="108.500000" stroke="#AAAAAA" /><text style="font-size:10px;font-family:OpenSans;fill:#000000;" text-anchor="middle" x="2436.818182" y="118.500000">1776</text><line x1="2704.090909" x2="2704.090909" y1="103.500000" y2="108.500000" stroke="#AAAAAA" /><text style="font-size:10px;font-family:OpenSans;fill:#000000;" text-anchor="middle" x="2704.090909" y="118.500000">1972</text><line x1="2772.272727" x2="2772.272727" y1="103.500000" y2="108.500000" stroke="#AAAAAA" /><text style="font-size:10px;font-family:OpenSans;fill:#000000;" text-anchor="middle" x="2772.272727" y="118.500000">2022</text></g>
<rect fill="#5B5BFF" x="4" y="132.500000" width="12" height="12" filter="url(#ds)"/><text style="font-size:12px;font-family:OpenSans;fill:#000000;" text-anchor="start" x="20" y="144.500000">Tetramerisation domain of TRPM</text></svg>
