<?xml version='1.0'?>
<svg xmlns="http://www.w3.org/2000/svg" xmlns:xlink="http://www.w3.org/1999/xlink" width="991.103448" height="146.200000">
<defs>
  <filter id="ds" x="0" y="0">
    <feOffset in="SourceAlpha" dx="2" dy="2" />
    <feComponentTransfer><feFuncA type="linear" slope="0.2"/></feComponentTransfer>
    <feGaussianBlur result="blurOut" stdDeviation="1" />
    <feBlend in="SourceGraphic" in2="blurOut" mode="normal" />
  </filter>
  <pattern id="disordered-hatch" patternUnits="userSpaceOnUse" width="4" height="4">
    <path d="M-1,1 l2,-2 M0,4 l4,-4 M3,5 l2,-2" stroke="#000000" opacity="0.3" />
  </pattern>
</defs>
<line x1="35.965517" x2="35.965517" y1="34.000000" y2="62.000000" stroke="#BABDB6" stroke-width="2"/><a xlink:title="P19S"><circle cx="35.965517" cy="34.000000" r="4.000000" fill="#ff0000" /></a><g transform="translate(35.965517,34.000000) rotate(-30)"><text style="font-size:10px;font-family:OpenSans;fill:#555;" text-anchor="middle" x="0" y="-6.000000">P19S</text></g><line x1="92.241379" x2="92.241379" y1="34.000000" y2="62.000000" stroke="#BABDB6" stroke-width="2"/><a xlink:title="P70S"><circle cx="92.241379" cy="34.000000" r="4.000000" fill="#ff0000" /></a><g transform="translate(92.241379,34.000000) rotate(-30)"><text style="font-size:10px;font-family:OpenSans;fill:#555;" text-anchor="middle" x="0" y="-6.000000">P70S</text></g><line x1="269.896552" x2="269.896552" y1="34.000000" y2="62.000000" stroke="#BABDB6" stroke-width="2"/><a xlink:title="H231H"><circle cx="269.896552" cy="34.000000" r="4.000000" fill="#0000ff" /></a><g transform="translate(269.896552,34.000000) rotate(-30)"><text style="font-size:10px;font-family:OpenSans;fill:#555;" text-anchor="middle" x="0" y="-6.000000">H231H</text></g><line x1="307.413793" x2="307.413793" y1="34.000000" y2="62.000000" stroke="#BABDB6" stroke-width="2"/><a xlink:title="H265H"><circle cx="307.413793" cy="34.000000" r="4.000000" fill="#0000ff" /></a><g transform="translate(307.413793,34.000000) rotate(-30)"><text style="font-size:10px;font-family:OpenSans;fill:#555;" text-anchor="middle" x="0" y="-6.000000">H265H</text></g><line x1="363.689655" x2="363.689655" y1="34.000000" y2="62.000000" stroke="#BABDB6" stroke-width="2"/><a xlink:title="H316H"><circle cx="363.689655" cy="34.000000" r="4.000000" fill="#0000ff" /></a><g transform="translate(363.689655,34.000000) rotate(-30)"><text style="font-size:10px;font-family:OpenSans;fill:#555;" text-anchor="middle" x="0" y="-6.000000">H316H</text></g><a xlink:title=",  (871aa)"><rect fill="#BABDB6" x="15.000000" y="62.000000" width="961.103448" height="14.000000"/></a><g transform="translate(277.620690,57.000000)"><a xlink:href="https://www.ebi.ac.uk/interpro/entry/pfam/PF00023" xlink:title="Ankyrin repeat"><rect fill="#2DCF00" x="0" y="0" width="32.000000" height="24.000000" filter="url(#ds)"/><text style="font-size:12px;font-family:OpenSans;fill:#ffffff;" text-anchor="middle" x="16.000000" y="16.000000">Ank</text></a></g>
<g transform="translate(539.137931,57.000000)"><a xlink:href="https://www.ebi.ac.uk/interpro/entry/pfam/PF00520" xlink:title="Ion transport protein"><rect fill="#FF5353" x="0" y="0" width="280.275862" height="24.000000" filter="url(#ds)"/><text style="font-size:12px;font-family:OpenSans;fill:#ffffff;" text-anchor="middle" x="140.137931" y="16.000000">Ion transport protein</text></a></g>
<g class="axis">
<line x1="15.000000" x2="976.103448" y1="91.000000" y2="91.000000" stroke="#AAAAAA" /><line x1="15.000000" x2="15.000000" y1="91.000000" y2="96.000000" stroke="#AAAAAA" /><line x1="15.000000" x2="15.000000" y1="91.000000" y2="96.000000" stroke="#AAAAAA" /><text style="font-size:10px;font-family:OpenSans;fill:#000000;" text-anchor="middle" x="15.000000" y="106.000000">0</text><line x1="35.965517" x2="35.965517" y1="91.000000" y2="96.000000" stroke="#AAAAAA" /><text style="font-size:10px;font-family:OpenSans;fill:#000000;" text-anchor="middle" x="35.965517" y="106.000000">19</text><line x1="92.241379" x2="92.241379" y1="91.000000" y2="96.000000" stroke="#AAAAAA" /><text style="font-size:10px;font-family:OpenSans;fill:#000000;" text-anchor="middle" x="92.241379" y="106.000000">70</text><line x1="269.896552" x2="269.896552" y1="91.000000" y2="96.000000" stroke="#AAAAAA" /><text style="font-size:10px;font-family:OpenSans;fill:#000000;" text-anchor="middle" x="269.896552" y="106.000000">231</text><line x1="307.413793" x2="307.413793" y1="91.000000" y2="96.000000" stroke="#AAAAAA" /><text style="font-size:10px;font-family:OpenSans;fill:#000000;" text-anchor="middle" x="307.413793" y="106.000000">265</text><line x1="363.689655" x2="363.689655" y1="91.000000" y2="96.000000" stroke="#AAAAAA" /><text style="font-size:10px;font-family:OpenSans;fill:#000000;" text-anchor="middle" x="363.689655" y="106.000000">316</text><line x1="539.137931" x2="539.137931" y1="91.000000" y2="96.000000" stroke="#AAAAAA" /><text style="font-size:10px;font-family:OpenSans;fill:#000000;" text-anchor="middle" x="539.137931" y="106.000000">475</text><line x1="819.413793" x2="819.413793" y1="91.000000" y2="96.000000" stroke="#AAAAAA" /><text style="font-size:10px;font-family:OpenSans;fill:#000000;" text-anchor="middle" x="819.413793" y="106.000000">729</text><line x1="976.103448" x2="976.103448" y1="91.000000" y2="96.000000" stroke="#AAAAAA" /><text style="font-size:10px;font-family:OpenSans;fill:#000000;" text-anchor="middle" x="976.103448" y="106.000000">871</text></g>
<rect fill="#2DCF00" x="4" y="120.000000" width="12" height="12" filter="url(#ds)"/><text style="font-size:12px;font-family:OpenSans;fill:#000000;" text-anchor="start" x="20" y="132.000000">Ankyrin repeat</text></svg>
