<?xml version='1.0'?>
<svg xmlns="http://www.w3.org/2000/svg" xmlns:xlink="http://www.w3.org/1999/xlink" width="430.000000" height="133.000000">
<defs>
  <filter id="ds" x="0" y="0">
    <feOffset in="SourceAlpha" dx="2" dy="2" />
    <feComponentTransfer><feFuncA type="linear" slope="0.2"/></feComponentTransfer>
    <feGaussianBlur result="blurOut" stdDeviation="1" />
    <feBlend in="SourceGraphic" in2="blurOut" mode="normal" />
  </filter>
  <pattern id="disordered-hatch" patternUnits="userSpaceOnUse" width="4" height="4">
    <path d="M-1,1 l2,-2 M0,4 l4,-4 M3,5 l2,-2" stroke="#000000" opacity="0.3" />
  </pattern>
</defs>
<line x1="89.261603" x2="89.261603" y1="34.000000" y2="62.000000" stroke="#BABDB6" stroke-width="2"/><a xlink:title="G44S"><circle cx="89.261603" cy="34.000000" r="4.000000" fill="#ff0000" /></a><g transform="translate(89.261603,34.000000) rotate(-30)"><text style="font-size:10px;font-family:OpenSans;fill:#555;" text-anchor="middle" x="0" y="-6.000000">G44S</text></g><line x1="111.202532" x2="111.202532" y1="34.000000" y2="62.000000" stroke="#BABDB6" stroke-width="2"/><a xlink:title="D57D"><circle cx="111.202532" cy="34.000000" r="4.000000" fill="#0000ff" /></a><g transform="translate(111.202532,34.000000) rotate(-30)"><text style="font-size:10px;font-family:OpenSans;fill:#555;" text-anchor="middle" x="0" y="-6.000000">D57D</text></g><line x1="138.206751" x2="138.206751" y1="34.000000" y2="62.000000" stroke="#BABDB6" stroke-width="2"/><a xlink:title="G73A"><circle cx="138.206751" cy="34.000000" r="4.000000" fill="#ff0000" /></a><g transform="translate(138.206751,34.000000) rotate(-30)"><text style="font-size:10px;font-family:OpenSans;fill:#555;" text-anchor="middle" x="0" y="-6.000000">G73A</text></g><line x1="160.147679" x2="160.147679" y1="34.000000" y2="62.000000" stroke="#BABDB6" stroke-width="2"/><a xlink:title="L86L"><circle cx="160.147679" cy="34.000000" r="4.000000" fill="#0000ff" /></a><g transform="translate(160.147679,34.000000) rotate(-30)"><text style="font-size:10px;font-family:OpenSans;fill:#555;" text-anchor="middle" x="0" y="-6.000000">L86L</text></g><line x1="271.540084" x2="271.540084" y1="34.000000" y2="62.000000" stroke="#BABDB6" stroke-width="2"/><a xlink:title="C152C"><circle cx="271.540084" cy="34.000000" r="4.000000" fill="#0000ff" /></a><g transform="translate(271.540084,34.000000) rotate(-30)"><text style="font-size:10px;font-family:OpenSans;fill:#555;" text-anchor="middle" x="0" y="-6.000000">C152C</text></g><line x1="374.493671" x2="374.493671" y1="34.000000" y2="62.000000" stroke="#BABDB6" stroke-width="2"/><a xlink:title="S213A"><circle cx="374.493671" cy="34.000000" r="4.000000" fill="#ff0000" /></a><g transform="translate(374.493671,34.000000) rotate(-30)"><text style="font-size:10px;font-family:OpenSans;fill:#555;" text-anchor="middle" x="0" y="-6.000000">S213A</text></g><a xlink:title=",  (237aa)"><rect fill="#BABDB6" x="15.000000" y="62.000000" width="400.000000" height="14.000000"/></a><g transform="translate(28.502110,57.000000)"><a xlink:href="https://www.ebi.ac.uk/interpro/entry/pfam/PF00335" xlink:title="Tetraspanin family"><rect fill="#2DCF00" x="0" y="0" width="379.746835" height="24.000000" filter="url(#ds)"/><text style="font-size:12px;font-family:OpenSans;fill:#ffffff;" text-anchor="middle" x="189.873418" y="16.000000">Tetraspanin family</text></a></g>
<g class="axis">
<line x1="15.000000" x2="415.000000" y1="91.000000" y2="91.000000" stroke="#AAAAAA" /><line x1="15.000000" x2="15.000000" y1="91.000000" y2="96.000000" stroke="#AAAAAA" /><line x1="28.502110" x2="28.502110" y1="91.000000" y2="96.000000" stroke="#AAAAAA" /><text style="font-size:10px;font-family:OpenSans;fill:#000000;" text-anchor="middle" x="28.502110" y="106.000000">8</text><line x1="89.261603" x2="89.261603" y1="91.000000" y2="96.000000" stroke="#AAAAAA" /><text style="font-size:10px;font-family:OpenSans;fill:#000000;" text-anchor="middle" x="89.261603" y="106.000000">44</text><line x1="111.202532" x2="111.202532" y1="91.000000" y2="96.000000" stroke="#AAAAAA" /><text style="font-size:10px;font-family:OpenSans;fill:#000000;" text-anchor="middle" x="111.202532" y="106.000000">57</text><line x1="138.206751" x2="138.206751" y1="91.000000" y2="96.000000" stroke="#AAAAAA" /><text style="font-size:10px;font-family:OpenSans;fill:#000000;" text-anchor="middle" x="138.206751" y="106.000000">73</text><line x1="160.147679" x2="160.147679" y1="91.000000" y2="96.000000" stroke="#AAAAAA" /><text style="font-size:10px;font-family:OpenSans;fill:#000000;" text-anchor="middle" x="160.147679" y="106.000000">86</text><line x1="271.540084" x2="271.540084" y1="91.000000" y2="96.000000" stroke="#AAAAAA" /><text style="font-size:10px;font-family:OpenSans;fill:#000000;" text-anchor="middle" x="271.540084" y="106.000000">152</text><line x1="374.493671" x2="374.493671" y1="91.000000" y2="96.000000" stroke="#AAAAAA" /><text style="font-size:10px;font-family:OpenSans;fill:#000000;" text-anchor="middle" x="374.493671" y="106.000000">213</text><line x1="415.000000" x2="415.000000" y1="91.000000" y2="96.000000" stroke="#AAAAAA" /><text style="font-size:10px;font-family:OpenSans;fill:#000000;" text-anchor="middle" x="415.000000" y="106.000000">237</text></g>
</svg>
