<?xml version='1.0'?>
<svg xmlns="http://www.w3.org/2000/svg" xmlns:xlink="http://www.w3.org/1999/xlink" width="430.000000" height="145.500000">
<defs>
  <filter id="ds" x="0" y="0">
    <feOffset in="SourceAlpha" dx="2" dy="2" />
    <feComponentTransfer><feFuncA type="linear" slope="0.2"/></feComponentTransfer>
    <feGaussianBlur result="blurOut" stdDeviation="1" />
    <feBlend in="SourceGraphic" in2="blurOut" mode="normal" />
  </filter>
  <pattern id="disordered-hatch" patternUnits="userSpaceOnUse" width="4" height="4">
    <path d="M-1,1 l2,-2 M0,4 l4,-4 M3,5 l2,-2" stroke="#000000" opacity="0.3" />
  </pattern>
</defs>
<line x1="16.250000" x2="16.250000" y1="34.000000" y2="74.500000" stroke="#BABDB6" stroke-width="2"/><a xlink:title="M1t1?"><circle cx="16.250000" cy="34.000000" r="4.000000" fill="#ff0000" /></a><g transform="translate(16.250000,34.000000) rotate(-30)"><text style="font-size:10px;font-family:OpenSans;fill:#555;" text-anchor="middle" x="0" y="-6.000000">M1t1?</text></g><line x1="20.000000" x2="20.000000" y1="46.500000" y2="74.500000" stroke="#BABDB6" stroke-width="2"/><a xlink:title="T4T"><circle cx="20.000000" cy="46.500000" r="4.000000" fill="#0000ff" /></a><g transform="translate(20.000000,46.500000) rotate(-30)"><text style="font-size:10px;font-family:OpenSans;fill:#555;" text-anchor="middle" x="0" y="-6.000000">T4T</text></g><line x1="38.750000" x2="38.750000" y1="34.000000" y2="74.500000" stroke="#BABDB6" stroke-width="2"/><a xlink:title="G19G"><circle cx="38.750000" cy="34.000000" r="4.000000" fill="#0000ff" /></a><g transform="translate(38.750000,34.000000) rotate(-30)"><text style="font-size:10px;font-family:OpenSans;fill:#555;" text-anchor="middle" x="0" y="-6.000000">G19G</text></g><line x1="40.000000" x2="40.000000" y1="46.500000" y2="74.500000" stroke="#BABDB6" stroke-width="2"/><a xlink:title="L20P"><circle cx="40.000000" cy="46.500000" r="4.000000" fill="#ff0000" /></a><g transform="translate(40.000000,46.500000) rotate(-30)"><text style="font-size:10px;font-family:OpenSans;fill:#555;" text-anchor="middle" x="0" y="-6.000000">L20P</text></g><line x1="70.000000" x2="70.000000" y1="34.000000" y2="74.500000" stroke="#BABDB6" stroke-width="2"/><a xlink:title="D44E"><circle cx="70.000000" cy="34.000000" r="4.000000" fill="#ff0000" /></a><g transform="translate(70.000000,34.000000) rotate(-30)"><text style="font-size:10px;font-family:OpenSans;fill:#555;" text-anchor="middle" x="0" y="-6.000000">D44E</text></g><line x1="71.250000" x2="71.250000" y1="46.500000" y2="74.500000" stroke="#BABDB6" stroke-width="2"/><a xlink:title="S45S"><circle cx="71.250000" cy="46.500000" r="4.000000" fill="#0000ff" /></a><g transform="translate(71.250000,46.500000) rotate(-30)"><text style="font-size:10px;font-family:OpenSans;fill:#555;" text-anchor="middle" x="0" y="-6.000000">S45S</text></g><line x1="90.000000" x2="90.000000" y1="46.500000" y2="74.500000" stroke="#BABDB6" stroke-width="2"/><a xlink:title="A60T"><circle cx="90.000000" cy="46.500000" r="4.000000" fill="#ff0000" /></a><g transform="translate(90.000000,46.500000) rotate(-30)"><text style="font-size:10px;font-family:OpenSans;fill:#555;" text-anchor="middle" x="0" y="-6.000000">A60T</text></g><line x1="106.250000" x2="106.250000" y1="46.500000" y2="74.500000" stroke="#BABDB6" stroke-width="2"/><a xlink:title="C73C"><circle cx="106.250000" cy="46.500000" r="4.000000" fill="#0000ff" /></a><g transform="translate(106.250000,46.500000) rotate(-30)"><text style="font-size:10px;font-family:OpenSans;fill:#555;" text-anchor="middle" x="0" y="-6.000000">C73C</text></g><line x1="130.000000" x2="130.000000" y1="46.500000" y2="74.500000" stroke="#BABDB6" stroke-width="2"/><a xlink:title="A92T"><circle cx="130.000000" cy="46.500000" r="4.000000" fill="#ff0000" /></a><g transform="translate(130.000000,46.500000) rotate(-30)"><text style="font-size:10px;font-family:OpenSans;fill:#555;" text-anchor="middle" x="0" y="-6.000000">A92T</text></g><line x1="138.750000" x2="138.750000" y1="34.000000" y2="74.500000" stroke="#BABDB6" stroke-width="2"/><a xlink:title="Y99S"><circle cx="138.750000" cy="34.000000" r="4.000000" fill="#ff0000" /></a><g transform="translate(138.750000,34.000000) rotate(-30)"><text style="font-size:10px;font-family:OpenSans;fill:#555;" text-anchor="middle" x="0" y="-6.000000">Y99S</text></g><line x1="143.750000" x2="143.750000" y1="46.500000" y2="74.500000" stroke="#BABDB6" stroke-width="2"/><a xlink:title="C103C"><circle cx="143.750000" cy="46.500000" r="4.000000" fill="#0000ff" /></a><g transform="translate(143.750000,46.500000) rotate(-30)"><text style="font-size:10px;font-family:OpenSans;fill:#555;" text-anchor="middle" x="0" y="-6.000000">C103C</text></g><line x1="167.500000" x2="167.500000" y1="46.500000" y2="74.500000" stroke="#BABDB6" stroke-width="2"/><a xlink:title="A122T"><circle cx="167.500000" cy="46.500000" r="4.000000" fill="#ff0000" /></a><g transform="translate(167.500000,46.500000) rotate(-30)"><text style="font-size:10px;font-family:OpenSans;fill:#555;" text-anchor="middle" x="0" y="-6.000000">A122T</text></g><line x1="177.500000" x2="177.500000" y1="34.000000" y2="74.500000" stroke="#BABDB6" stroke-width="2"/><a xlink:title="W130S"><circle cx="177.500000" cy="34.000000" r="4.000000" fill="#ff0000" /></a><g transform="translate(177.500000,34.000000) rotate(-30)"><text style="font-size:10px;font-family:OpenSans;fill:#555;" text-anchor="middle" x="0" y="-6.000000">W130S</text></g><line x1="180.000000" x2="180.000000" y1="46.500000" y2="74.500000" stroke="#BABDB6" stroke-width="2"/><a xlink:title="A132T"><circle cx="180.000000" cy="46.500000" r="4.000000" fill="#ff0000" /></a><g transform="translate(180.000000,46.500000) rotate(-30)"><text style="font-size:10px;font-family:OpenSans;fill:#555;" text-anchor="middle" x="0" y="-6.000000">A132T</text></g><line x1="187.500000" x2="187.500000" y1="46.500000" y2="74.500000" stroke="#BABDB6" stroke-width="2"/><a xlink:title="C138C"><circle cx="187.500000" cy="46.500000" r="4.000000" fill="#0000ff" /></a><g transform="translate(187.500000,46.500000) rotate(-30)"><text style="font-size:10px;font-family:OpenSans;fill:#555;" text-anchor="middle" x="0" y="-6.000000">C138C</text></g><line x1="211.250000" x2="211.250000" y1="46.500000" y2="74.500000" stroke="#BABDB6" stroke-width="2"/><a xlink:title="A157T"><circle cx="211.250000" cy="46.500000" r="4.000000" fill="#ff0000" /></a><g transform="translate(211.250000,46.500000) rotate(-30)"><text style="font-size:10px;font-family:OpenSans;fill:#555;" text-anchor="middle" x="0" y="-6.000000">A157T</text></g><line x1="233.750000" x2="233.750000" y1="46.500000" y2="74.500000" stroke="#BABDB6" stroke-width="2"/><a xlink:title="A175T"><circle cx="233.750000" cy="46.500000" r="4.000000" fill="#ff0000" /></a><g transform="translate(233.750000,46.500000) rotate(-30)"><text style="font-size:10px;font-family:OpenSans;fill:#555;" text-anchor="middle" x="0" y="-6.000000">A175T</text></g><line x1="335.000000" x2="335.000000" y1="46.500000" y2="74.500000" stroke="#BABDB6" stroke-width="2"/><a xlink:title="P256P"><circle cx="335.000000" cy="46.500000" r="4.000000" fill="#0000ff" /></a><g transform="translate(335.000000,46.500000) rotate(-30)"><text style="font-size:10px;font-family:OpenSans;fill:#555;" text-anchor="middle" x="0" y="-6.000000">P256P</text></g><line x1="357.500000" x2="357.500000" y1="46.500000" y2="74.500000" stroke="#BABDB6" stroke-width="2"/><a xlink:title="W274*"><circle cx="357.500000" cy="46.500000" r="4.000000" fill="#0000ff" /></a><g transform="translate(357.500000,46.500000) rotate(-30)"><text style="font-size:10px;font-family:OpenSans;fill:#555;" text-anchor="middle" x="0" y="-6.000000">W274*</text></g><line x1="357.500000" x2="357.500000" y1="34.000000" y2="74.500000" stroke="#BABDB6" stroke-width="2"/><a xlink:title="P274P"><circle cx="357.500000" cy="34.000000" r="4.000000" fill="#0000ff" /></a><g transform="translate(357.500000,34.000000) rotate(-30)"><text style="font-size:10px;font-family:OpenSans;fill:#555;" text-anchor="middle" x="0" y="-6.000000">P274P</text></g><line x1="380.000000" x2="380.000000" y1="34.000000" y2="74.500000" stroke="#BABDB6" stroke-width="2"/><a xlink:title="W292*"><circle cx="380.000000" cy="34.000000" r="4.000000" fill="#0000ff" /></a><g transform="translate(380.000000,34.000000) rotate(-30)"><text style="font-size:10px;font-family:OpenSans;fill:#555;" text-anchor="middle" x="0" y="-6.000000">W292*</text></g><line x1="382.500000" x2="382.500000" y1="46.500000" y2="74.500000" stroke="#BABDB6" stroke-width="2"/><a xlink:title="G294E"><circle cx="382.500000" cy="46.500000" r="4.000000" fill="#ff0000" /></a><g transform="translate(382.500000,46.500000) rotate(-30)"><text style="font-size:10px;font-family:OpenSans;fill:#555;" text-anchor="middle" x="0" y="-6.000000">G294E</text></g><line x1="432.500000" x2="432.500000" y1="46.500000" y2="74.500000" stroke="#BABDB6" stroke-width="2"/><a xlink:title="G334E"><circle cx="432.500000" cy="46.500000" r="4.000000" fill="#ff0000" /></a><g transform="translate(432.500000,46.500000) rotate(-30)"><text style="font-size:10px;font-family:OpenSans;fill:#555;" text-anchor="middle" x="0" y="-6.000000">G334E</text></g><line x1="451.250000" x2="451.250000" y1="46.500000" y2="74.500000" stroke="#BABDB6" stroke-width="2"/><a xlink:title="G349E"><circle cx="451.250000" cy="46.500000" r="4.000000" fill="#ff0000" /></a><g transform="translate(451.250000,46.500000) rotate(-30)"><text style="font-size:10px;font-family:OpenSans;fill:#555;" text-anchor="middle" x="0" y="-6.000000">G349E</text></g><line x1="463.750000" x2="463.750000" y1="46.500000" y2="74.500000" stroke="#BABDB6" stroke-width="2"/><a xlink:title="G359E"><circle cx="463.750000" cy="46.500000" r="4.000000" fill="#ff0000" /></a><g transform="translate(463.750000,46.500000) rotate(-30)"><text style="font-size:10px;font-family:OpenSans;fill:#555;" text-anchor="middle" x="0" y="-6.000000">G359E</text></g><line x1="486.250000" x2="486.250000" y1="46.500000" y2="74.500000" stroke="#BABDB6" stroke-width="2"/><a xlink:title="G377E"><circle cx="486.250000" cy="46.500000" r="4.000000" fill="#ff0000" /></a><g transform="translate(486.250000,46.500000) rotate(-30)"><text style="font-size:10px;font-family:OpenSans;fill:#555;" text-anchor="middle" x="0" y="-6.000000">G377E</text></g><a xlink:title=",  (320aa)"><rect fill="#BABDB6" x="15.000000" y="74.500000" width="400.000000" height="14.000000"/></a><g transform="translate(28.750000,69.500000)"><a xlink:href="https://www.ebi.ac.uk/interpro/entry/pfam/PF00335" xlink:title="Tetraspanin family"><rect fill="#2DCF00" x="0" y="0" width="262.500000" height="24.000000" filter="url(#ds)"/><text style="font-size:12px;font-family:OpenSans;fill:#ffffff;" text-anchor="middle" x="131.250000" y="16.000000">Tetraspanin family</text></a></g>
<g class="axis">
<line x1="15.000000" x2="415.000000" y1="103.500000" y2="103.500000" stroke="#AAAAAA" /><line x1="15.000000" x2="15.000000" y1="103.500000" y2="108.500000" stroke="#AAAAAA" /><line x1="16.250000" x2="16.250000" y1="103.500000" y2="108.500000" stroke="#AAAAAA" /><text style="font-size:10px;font-family:OpenSans;fill:#000000;" text-anchor="middle" x="16.250000" y="118.500000">1</text><line x1="38.750000" x2="38.750000" y1="103.500000" y2="108.500000" stroke="#AAAAAA" /><text style="font-size:10px;font-family:OpenSans;fill:#000000;" text-anchor="middle" x="38.750000" y="118.500000">19</text><line x1="70.000000" x2="70.000000" y1="103.500000" y2="108.500000" stroke="#AAAAAA" /><text style="font-size:10px;font-family:OpenSans;fill:#000000;" text-anchor="middle" x="70.000000" y="118.500000">44</text><line x1="90.000000" x2="90.000000" y1="103.500000" y2="108.500000" stroke="#AAAAAA" /><text style="font-size:10px;font-family:OpenSans;fill:#000000;" text-anchor="middle" x="90.000000" y="118.500000">60</text><line x1="130.000000" x2="130.000000" y1="103.500000" y2="108.500000" stroke="#AAAAAA" /><text style="font-size:10px;font-family:OpenSans;fill:#000000;" text-anchor="middle" x="130.000000" y="118.500000">92</text><line x1="167.500000" x2="167.500000" y1="103.500000" y2="108.500000" stroke="#AAAAAA" /><text style="font-size:10px;font-family:OpenSans;fill:#000000;" text-anchor="middle" x="167.500000" y="118.500000">122</text><line x1="187.500000" x2="187.500000" y1="103.500000" y2="108.500000" stroke="#AAAAAA" /><text style="font-size:10px;font-family:OpenSans;fill:#000000;" text-anchor="middle" x="187.500000" y="118.500000">138</text><line x1="211.250000" x2="211.250000" y1="103.500000" y2="108.500000" stroke="#AAAAAA" /><text style="font-size:10px;font-family:OpenSans;fill:#000000;" text-anchor="middle" x="211.250000" y="118.500000">157</text><line x1="233.750000" x2="233.750000" y1="103.500000" y2="108.500000" stroke="#AAAAAA" /><text style="font-size:10px;font-family:OpenSans;fill:#000000;" text-anchor="middle" x="233.750000" y="118.500000">175</text><line x1="291.250000" x2="291.250000" y1="103.500000" y2="108.500000" stroke="#AAAAAA" /><text style="font-size:10px;font-family:OpenSans;fill:#000000;" text-anchor="middle" x="291.250000" y="118.500000">221</text><line x1="335.000000" x2="335.000000" y1="103.500000" y2="108.500000" stroke="#AAAAAA" /><text style="font-size:10px;font-family:OpenSans;fill:#000000;" text-anchor="middle" x="335.000000" y="118.500000">256</text><line x1="357.500000" x2="357.500000" y1="103.500000" y2="108.500000" stroke="#AAAAAA" /><text style="font-size:10px;font-family:OpenSans;fill:#000000;" text-anchor="middle" x="357.500000" y="118.500000">274</text><line x1="380.000000" x2="380.000000" y1="103.500000" y2="108.500000" stroke="#AAAAAA" /><text style="font-size:10px;font-family:OpenSans;fill:#000000;" text-anchor="middle" x="380.000000" y="118.500000">292</text><line x1="415.000000" x2="415.000000" y1="103.500000" y2="108.500000" stroke="#AAAAAA" /><text style="font-size:10px;font-family:OpenSans;fill:#000000;" text-anchor="middle" x="415.000000" y="118.500000">320</text><line x1="451.250000" x2="451.250000" y1="103.500000" y2="108.500000" stroke="#AAAAAA" /><text style="font-size:10px;font-family:OpenSans;fill:#000000;" text-anchor="middle" x="451.250000" y="118.500000">349</text><line x1="486.250000" x2="486.250000" y1="103.500000" y2="108.500000" stroke="#AAAAAA" /><text style="font-size:10px;font-family:OpenSans;fill:#000000;" text-anchor="middle" x="486.250000" y="118.500000">377</text></g>
</svg>
