<?xml version='1.0'?>
<svg xmlns="http://www.w3.org/2000/svg" xmlns:xlink="http://www.w3.org/1999/xlink" width="430.000000" height="158.000000">
<defs>
  <filter id="ds" x="0" y="0">
    <feOffset in="SourceAlpha" dx="2" dy="2" />
    <feComponentTransfer><feFuncA type="linear" slope="0.2"/></feComponentTransfer>
    <feGaussianBlur result="blurOut" stdDeviation="1" />
    <feBlend in="SourceGraphic" in2="blurOut" mode="normal" />
  </filter>
  <pattern id="disordered-hatch" patternUnits="userSpaceOnUse" width="4" height="4">
    <path d="M-1,1 l2,-2 M0,4 l4,-4 M3,5 l2,-2" stroke="#000000" opacity="0.3" />
  </pattern>
</defs>
<line x1="288.517787" x2="288.517787" y1="34.000000" y2="87.000000" stroke="#BABDB6" stroke-width="2"/><a xlink:title="R346R"><circle cx="288.517787" cy="34.000000" r="4.000000" fill="#0000ff" /></a><g transform="translate(288.517787,34.000000) rotate(-30)"><text style="font-size:10px;font-family:OpenSans;fill:#555;" text-anchor="middle" x="0" y="-6.000000">R346R</text></g><line x1="290.098814" x2="290.098814" y1="46.500000" y2="87.000000" stroke="#BABDB6" stroke-width="2"/><a xlink:title="R348H"><circle cx="290.098814" cy="46.500000" r="4.000000" fill="#ff0000" /></a><g transform="translate(290.098814,46.500000) rotate(-30)"><text style="font-size:10px;font-family:OpenSans;fill:#555;" text-anchor="middle" x="0" y="-6.000000">R348H</text></g><line x1="290.889328" x2="290.889328" y1="46.500000" y2="87.000000" stroke="#BABDB6" stroke-width="2"/><a xlink:title="N349S"><circle cx="290.889328" cy="46.500000" r="4.000000" fill="#ff0000" /></a><g transform="translate(290.889328,46.500000) rotate(-30)"><text style="font-size:10px;font-family:OpenSans;fill:#555;" text-anchor="middle" x="0" y="-6.000000">N349S</text></g><line x1="296.422925" x2="296.422925" y1="34.000000" y2="87.000000" stroke="#BABDB6" stroke-width="2"/><a xlink:title="R356R"><circle cx="296.422925" cy="34.000000" r="4.000000" fill="#0000ff" /></a><g transform="translate(296.422925,34.000000) rotate(-30)"><text style="font-size:10px;font-family:OpenSans;fill:#555;" text-anchor="middle" x="0" y="-6.000000">R356R</text></g><line x1="298.003953" x2="298.003953" y1="46.500000" y2="87.000000" stroke="#BABDB6" stroke-width="2"/><a xlink:title="R358H"><circle cx="298.003953" cy="46.500000" r="4.000000" fill="#ff0000" /></a><g transform="translate(298.003953,46.500000) rotate(-30)"><text style="font-size:10px;font-family:OpenSans;fill:#555;" text-anchor="middle" x="0" y="-6.000000">R358H</text></g><line x1="298.794466" x2="298.794466" y1="59.000000" y2="87.000000" stroke="#BABDB6" stroke-width="2"/><a xlink:title="N359S"><circle cx="298.794466" cy="59.000000" r="4.000000" fill="#ff0000" /></a><g transform="translate(298.794466,59.000000) rotate(-30)"><text style="font-size:10px;font-family:OpenSans;fill:#555;" text-anchor="middle" x="0" y="-6.000000">N359S</text></g><line x1="321.719368" x2="321.719368" y1="34.000000" y2="87.000000" stroke="#BABDB6" stroke-width="2"/><a xlink:title="R388R"><circle cx="321.719368" cy="34.000000" r="4.000000" fill="#0000ff" /></a><g transform="translate(321.719368,34.000000) rotate(-30)"><text style="font-size:10px;font-family:OpenSans;fill:#555;" text-anchor="middle" x="0" y="-6.000000">R388R</text></g><line x1="323.300395" x2="323.300395" y1="46.500000" y2="87.000000" stroke="#BABDB6" stroke-width="2"/><a xlink:title="R390H"><circle cx="323.300395" cy="46.500000" r="4.000000" fill="#ff0000" /></a><g transform="translate(323.300395,46.500000) rotate(-30)"><text style="font-size:10px;font-family:OpenSans;fill:#555;" text-anchor="middle" x="0" y="-6.000000">R390H</text></g><line x1="324.090909" x2="324.090909" y1="59.000000" y2="87.000000" stroke="#BABDB6" stroke-width="2"/><a xlink:title="N391S"><circle cx="324.090909" cy="59.000000" r="4.000000" fill="#ff0000" /></a><g transform="translate(324.090909,59.000000) rotate(-30)"><text style="font-size:10px;font-family:OpenSans;fill:#555;" text-anchor="middle" x="0" y="-6.000000">N391S</text></g><line x1="332.786561" x2="332.786561" y1="34.000000" y2="87.000000" stroke="#BABDB6" stroke-width="2"/><a xlink:title="R402R"><circle cx="332.786561" cy="34.000000" r="4.000000" fill="#0000ff" /></a><g transform="translate(332.786561,34.000000) rotate(-30)"><text style="font-size:10px;font-family:OpenSans;fill:#555;" text-anchor="middle" x="0" y="-6.000000">R402R</text></g><line x1="334.367589" x2="334.367589" y1="46.500000" y2="87.000000" stroke="#BABDB6" stroke-width="2"/><a xlink:title="R404H"><circle cx="334.367589" cy="46.500000" r="4.000000" fill="#ff0000" /></a><g transform="translate(334.367589,46.500000) rotate(-30)"><text style="font-size:10px;font-family:OpenSans;fill:#555;" text-anchor="middle" x="0" y="-6.000000">R404H</text></g><line x1="335.158103" x2="335.158103" y1="59.000000" y2="87.000000" stroke="#BABDB6" stroke-width="2"/><a xlink:title="N405S"><circle cx="335.158103" cy="59.000000" r="4.000000" fill="#ff0000" /></a><g transform="translate(335.158103,59.000000) rotate(-30)"><text style="font-size:10px;font-family:OpenSans;fill:#555;" text-anchor="middle" x="0" y="-6.000000">N405S</text></g><line x1="342.272727" x2="342.272727" y1="34.000000" y2="87.000000" stroke="#BABDB6" stroke-width="2"/><a xlink:title="R414R"><circle cx="342.272727" cy="34.000000" r="4.000000" fill="#0000ff" /></a><g transform="translate(342.272727,34.000000) rotate(-30)"><text style="font-size:10px;font-family:OpenSans;fill:#555;" text-anchor="middle" x="0" y="-6.000000">R414R</text></g><line x1="343.853755" x2="343.853755" y1="46.500000" y2="87.000000" stroke="#BABDB6" stroke-width="2"/><a xlink:title="R416H"><circle cx="343.853755" cy="46.500000" r="4.000000" fill="#ff0000" /></a><g transform="translate(343.853755,46.500000) rotate(-30)"><text style="font-size:10px;font-family:OpenSans;fill:#555;" text-anchor="middle" x="0" y="-6.000000">R416H</text></g><line x1="344.644269" x2="344.644269" y1="59.000000" y2="87.000000" stroke="#BABDB6" stroke-width="2"/><a xlink:title="N417S"><circle cx="344.644269" cy="59.000000" r="4.000000" fill="#ff0000" /></a><g transform="translate(344.644269,59.000000) rotate(-30)"><text style="font-size:10px;font-family:OpenSans;fill:#555;" text-anchor="middle" x="0" y="-6.000000">N417S</text></g><line x1="365.988142" x2="365.988142" y1="34.000000" y2="87.000000" stroke="#BABDB6" stroke-width="2"/><a xlink:title="R444R"><circle cx="365.988142" cy="34.000000" r="4.000000" fill="#0000ff" /></a><g transform="translate(365.988142,34.000000) rotate(-30)"><text style="font-size:10px;font-family:OpenSans;fill:#555;" text-anchor="middle" x="0" y="-6.000000">R444R</text></g><line x1="367.569170" x2="367.569170" y1="46.500000" y2="87.000000" stroke="#BABDB6" stroke-width="2"/><a xlink:title="R446H"><circle cx="367.569170" cy="46.500000" r="4.000000" fill="#ff0000" /></a><g transform="translate(367.569170,46.500000) rotate(-30)"><text style="font-size:10px;font-family:OpenSans;fill:#555;" text-anchor="middle" x="0" y="-6.000000">R446H</text></g><line x1="368.359684" x2="368.359684" y1="59.000000" y2="87.000000" stroke="#BABDB6" stroke-width="2"/><a xlink:title="N447S"><circle cx="368.359684" cy="59.000000" r="4.000000" fill="#ff0000" /></a><g transform="translate(368.359684,59.000000) rotate(-30)"><text style="font-size:10px;font-family:OpenSans;fill:#555;" text-anchor="middle" x="0" y="-6.000000">N447S</text></g><line x1="376.264822" x2="376.264822" y1="34.000000" y2="87.000000" stroke="#BABDB6" stroke-width="2"/><a xlink:title="R457R"><circle cx="376.264822" cy="34.000000" r="4.000000" fill="#0000ff" /></a><g transform="translate(376.264822,34.000000) rotate(-30)"><text style="font-size:10px;font-family:OpenSans;fill:#555;" text-anchor="middle" x="0" y="-6.000000">R457R</text></g><line x1="377.845850" x2="377.845850" y1="46.500000" y2="87.000000" stroke="#BABDB6" stroke-width="2"/><a xlink:title="R459H"><circle cx="377.845850" cy="46.500000" r="4.000000" fill="#ff0000" /></a><g transform="translate(377.845850,46.500000) rotate(-30)"><text style="font-size:10px;font-family:OpenSans;fill:#555;" text-anchor="middle" x="0" y="-6.000000">R459H</text></g><line x1="378.636364" x2="378.636364" y1="59.000000" y2="87.000000" stroke="#BABDB6" stroke-width="2"/><a xlink:title="N460S"><circle cx="378.636364" cy="59.000000" r="4.000000" fill="#ff0000" /></a><g transform="translate(378.636364,59.000000) rotate(-30)"><text style="font-size:10px;font-family:OpenSans;fill:#555;" text-anchor="middle" x="0" y="-6.000000">N460S</text></g><a xlink:title=",  (506aa)"><rect fill="#BABDB6" x="15.000000" y="87.000000" width="400.000000" height="14.000000"/></a><g transform="translate(37.924901,82.000000)"><a xlink:href="https://www.ebi.ac.uk/interpro/entry/pfam/PF16322" xlink:title="Tubby N-terminal"><rect fill="#2DCF00" x="0" y="0" width="164.426877" height="24.000000" filter="url(#ds)"/><text style="font-size:12px;font-family:OpenSans;fill:#ffffff;" text-anchor="middle" x="82.213439" y="16.000000">Tubby N-terminal</text></a></g>
<g transform="translate(218.162055,82.000000)"><a xlink:href="https://www.ebi.ac.uk/interpro/entry/pfam/PF01167" xlink:title="Tub family"><rect fill="#FF5353" x="0" y="0" width="192.885375" height="24.000000" filter="url(#ds)"/><text style="font-size:12px;font-family:OpenSans;fill:#ffffff;" text-anchor="middle" x="96.442688" y="16.000000">Tub family</text></a></g>
<g class="axis">
<line x1="15.000000" x2="415.000000" y1="116.000000" y2="116.000000" stroke="#AAAAAA" /><line x1="15.000000" x2="15.000000" y1="116.000000" y2="121.000000" stroke="#AAAAAA" /><line x1="15.000000" x2="15.000000" y1="116.000000" y2="121.000000" stroke="#AAAAAA" /><text style="font-size:10px;font-family:OpenSans;fill:#000000;" text-anchor="middle" x="15.000000" y="131.000000">0</text><line x1="37.924901" x2="37.924901" y1="116.000000" y2="121.000000" stroke="#AAAAAA" /><text style="font-size:10px;font-family:OpenSans;fill:#000000;" text-anchor="middle" x="37.924901" y="131.000000">29</text><line x1="202.351779" x2="202.351779" y1="116.000000" y2="121.000000" stroke="#AAAAAA" /><text style="font-size:10px;font-family:OpenSans;fill:#000000;" text-anchor="middle" x="202.351779" y="131.000000">237</text><line x1="288.517787" x2="288.517787" y1="116.000000" y2="121.000000" stroke="#AAAAAA" /><text style="font-size:10px;font-family:OpenSans;fill:#000000;" text-anchor="middle" x="288.517787" y="131.000000">346</text><line x1="321.719368" x2="321.719368" y1="116.000000" y2="121.000000" stroke="#AAAAAA" /><text style="font-size:10px;font-family:OpenSans;fill:#000000;" text-anchor="middle" x="321.719368" y="131.000000">388</text><line x1="342.272727" x2="342.272727" y1="116.000000" y2="121.000000" stroke="#AAAAAA" /><text style="font-size:10px;font-family:OpenSans;fill:#000000;" text-anchor="middle" x="342.272727" y="131.000000">414</text><line x1="365.988142" x2="365.988142" y1="116.000000" y2="121.000000" stroke="#AAAAAA" /><text style="font-size:10px;font-family:OpenSans;fill:#000000;" text-anchor="middle" x="365.988142" y="131.000000">444</text><line x1="415.000000" x2="415.000000" y1="116.000000" y2="121.000000" stroke="#AAAAAA" /><text style="font-size:10px;font-family:OpenSans;fill:#000000;" text-anchor="middle" x="415.000000" y="131.000000">506</text></g>
</svg>
