<?xml version='1.0'?>
<svg xmlns="http://www.w3.org/2000/svg" xmlns:xlink="http://www.w3.org/1999/xlink" width="1705.166667" height="198.300000">
<defs>
  <filter id="ds" x="0" y="0">
    <feOffset in="SourceAlpha" dx="2" dy="2" />
    <feComponentTransfer><feFuncA type="linear" slope="0.2"/></feComponentTransfer>
    <feGaussianBlur result="blurOut" stdDeviation="1" />
    <feBlend in="SourceGraphic" in2="blurOut" mode="normal" />
  </filter>
  <pattern id="disordered-hatch" patternUnits="userSpaceOnUse" width="4" height="4">
    <path d="M-1,1 l2,-2 M0,4 l4,-4 M3,5 l2,-2" stroke="#000000" opacity="0.3" />
  </pattern>
</defs>
<line x1="745.250000" x2="745.250000" y1="34.000000" y2="74.500000" stroke="#BABDB6" stroke-width="2"/><a xlink:title="D381V"><circle cx="745.250000" cy="34.000000" r="4.000000" fill="#ff0000" /></a><g transform="translate(745.250000,34.000000) rotate(-30)"><text style="font-size:10px;font-family:OpenSans;fill:#555;" text-anchor="middle" x="0" y="-6.000000">D381V</text></g><line x1="747.166667" x2="747.166667" y1="46.500000" y2="74.500000" stroke="#BABDB6" stroke-width="2"/><a xlink:title="V382V"><circle cx="747.166667" cy="46.500000" r="4.000000" fill="#0000ff" /></a><g transform="translate(747.166667,46.500000) rotate(-30)"><text style="font-size:10px;font-family:OpenSans;fill:#555;" text-anchor="middle" x="0" y="-6.000000">V382V</text></g><line x1="1419.916667" x2="1419.916667" y1="46.500000" y2="74.500000" stroke="#BABDB6" stroke-width="2"/><a xlink:title="A733T"><circle cx="1419.916667" cy="46.500000" r="4.000000" fill="#ff0000" /></a><g transform="translate(1419.916667,46.500000) rotate(-30)"><text style="font-size:10px;font-family:OpenSans;fill:#555;" text-anchor="middle" x="0" y="-6.000000">A733T</text></g><line x1="1469.750000" x2="1469.750000" y1="46.500000" y2="74.500000" stroke="#BABDB6" stroke-width="2"/><a xlink:title="S759F"><circle cx="1469.750000" cy="46.500000" r="4.000000" fill="#ff0000" /></a><g transform="translate(1469.750000,46.500000) rotate(-30)"><text style="font-size:10px;font-family:OpenSans;fill:#555;" text-anchor="middle" x="0" y="-6.000000">S759F</text></g><a xlink:title=",  (874aa)"><rect fill="#BABDB6" x="15.000000" y="74.500000" width="1675.166667" height="14.000000"/></a><g transform="translate(45.666667,69.500000)"><a xlink:href="https://www.ebi.ac.uk/interpro/entry/pfam/PF12874" xlink:title="Zinc-finger of C2H2 type"><rect fill="#2DCF00" x="0" y="0" width="46.000000" height="24.000000" filter="url(#ds)"/><text style="font-size:12px;font-family:OpenSans;fill:#ffffff;" text-anchor="middle" x="23.000000" y="16.000000">zf-met</text></a></g>
<g transform="translate(126.166667,69.500000)"><a xlink:href="https://www.ebi.ac.uk/interpro/entry/pfam/PF00076" xlink:title="RNA recognition motif"><rect fill="#FF5353" x="0" y="0" width="118.833333" height="24.000000" filter="url(#ds)"/><text style="font-size:12px;font-family:OpenSans;fill:#ffffff;" text-anchor="middle" x="59.416667" y="16.000000">RRM_1</text></a></g>
<g transform="translate(325.500000,69.500000)"><a xlink:href="https://www.ebi.ac.uk/interpro/entry/pfam/PF22600" xlink:title="Poly(A) RNA polymerase, mitochondrial-like, central palm domain"><rect fill="#5B5BFF" x="0" y="0" width="120.750000" height="24.000000" filter="url(#ds)"/><text style="font-size:12px;font-family:OpenSans;fill:#ffffff;" text-anchor="middle" x="60.375000" y="16.000000">MTPAP-like_central</text></a></g>
<g transform="translate(651.333333,69.500000)"><a xlink:href="https://www.ebi.ac.uk/interpro/entry/pfam/PF22600" xlink:title="Poly(A) RNA polymerase, mitochondrial-like, central palm domain"><rect fill="#EBD61D" x="0" y="0" width="126.500000" height="24.000000" filter="url(#ds)"/><text style="font-size:12px;font-family:OpenSans;fill:#ffffff;" text-anchor="middle" x="63.250000" y="16.000000">MTPAP-like_central</text></a></g>
<g transform="translate(956.083333,69.500000)"><a xlink:href="https://www.ebi.ac.uk/interpro/entry/pfam/PF03828" xlink:title="Cid1 family poly A polymerase"><rect fill="#BA21E0" x="0" y="0" width="111.166667" height="24.000000" filter="url(#ds)"/><text style="font-size:12px;font-family:OpenSans;fill:#ffffff;" text-anchor="middle" x="55.583333" y="16.000000">PAP_assoc</text></a></g>
<g class="axis">
<line x1="15.000000" x2="1690.166667" y1="103.500000" y2="103.500000" stroke="#AAAAAA" /><line x1="15.000000" x2="15.000000" y1="103.500000" y2="108.500000" stroke="#AAAAAA" /><line x1="15.000000" x2="15.000000" y1="103.500000" y2="108.500000" stroke="#AAAAAA" /><text style="font-size:10px;font-family:OpenSans;fill:#000000;" text-anchor="middle" x="15.000000" y="118.500000">0</text><line x1="45.666667" x2="45.666667" y1="103.500000" y2="108.500000" stroke="#AAAAAA" /><text style="font-size:10px;font-family:OpenSans;fill:#000000;" text-anchor="middle" x="45.666667" y="118.500000">16</text><line x1="91.666667" x2="91.666667" y1="103.500000" y2="108.500000" stroke="#AAAAAA" /><text style="font-size:10px;font-family:OpenSans;fill:#000000;" text-anchor="middle" x="91.666667" y="118.500000">40</text><line x1="126.166667" x2="126.166667" y1="103.500000" y2="108.500000" stroke="#AAAAAA" /><text style="font-size:10px;font-family:OpenSans;fill:#000000;" text-anchor="middle" x="126.166667" y="118.500000">58</text><line x1="245.000000" x2="245.000000" y1="103.500000" y2="108.500000" stroke="#AAAAAA" /><text style="font-size:10px;font-family:OpenSans;fill:#000000;" text-anchor="middle" x="245.000000" y="118.500000">120</text><line x1="325.500000" x2="325.500000" y1="103.500000" y2="108.500000" stroke="#AAAAAA" /><text style="font-size:10px;font-family:OpenSans;fill:#000000;" text-anchor="middle" x="325.500000" y="118.500000">162</text><line x1="446.250000" x2="446.250000" y1="103.500000" y2="108.500000" stroke="#AAAAAA" /><text style="font-size:10px;font-family:OpenSans;fill:#000000;" text-anchor="middle" x="446.250000" y="118.500000">225</text><line x1="651.333333" x2="651.333333" y1="103.500000" y2="108.500000" stroke="#AAAAAA" /><text style="font-size:10px;font-family:OpenSans;fill:#000000;" text-anchor="middle" x="651.333333" y="118.500000">332</text><line x1="745.250000" x2="745.250000" y1="103.500000" y2="108.500000" stroke="#AAAAAA" /><text style="font-size:10px;font-family:OpenSans;fill:#000000;" text-anchor="middle" x="745.250000" y="118.500000">381</text><line x1="777.833333" x2="777.833333" y1="103.500000" y2="108.500000" stroke="#AAAAAA" /><text style="font-size:10px;font-family:OpenSans;fill:#000000;" text-anchor="middle" x="777.833333" y="118.500000">398</text><line x1="956.083333" x2="956.083333" y1="103.500000" y2="108.500000" stroke="#AAAAAA" /><text style="font-size:10px;font-family:OpenSans;fill:#000000;" text-anchor="middle" x="956.083333" y="118.500000">491</text><line x1="1067.250000" x2="1067.250000" y1="103.500000" y2="108.500000" stroke="#AAAAAA" /><text style="font-size:10px;font-family:OpenSans;fill:#000000;" text-anchor="middle" x="1067.250000" y="118.500000">549</text><line x1="1419.916667" x2="1419.916667" y1="103.500000" y2="108.500000" stroke="#AAAAAA" /><text style="font-size:10px;font-family:OpenSans;fill:#000000;" text-anchor="middle" x="1419.916667" y="118.500000">733</text><line x1="1469.750000" x2="1469.750000" y1="103.500000" y2="108.500000" stroke="#AAAAAA" /><text style="font-size:10px;font-family:OpenSans;fill:#000000;" text-anchor="middle" x="1469.750000" y="118.500000">759</text><line x1="1690.166667" x2="1690.166667" y1="103.500000" y2="108.500000" stroke="#AAAAAA" /><text style="font-size:10px;font-family:OpenSans;fill:#000000;" text-anchor="middle" x="1690.166667" y="118.500000">874</text></g>
<rect fill="#FF5353" x="4" y="132.500000" width="12" height="12" filter="url(#ds)"/><text style="font-size:12px;font-family:OpenSans;fill:#000000;" text-anchor="start" x="20" y="144.500000">RNA recognition motif</text><rect fill="#EBD61D" x="4" y="146.500000" width="12" height="12" filter="url(#ds)"/><text style="font-size:12px;font-family:OpenSans;fill:#000000;" text-anchor="start" x="20" y="158.500000">Poly(A) RNA polymerase, mitochondrial-like, central palm domain</text><rect fill="#BA21E0" x="4" y="160.500000" width="12" height="12" filter="url(#ds)"/><text style="font-size:12px;font-family:OpenSans;fill:#000000;" text-anchor="start" x="20" y="172.500000">Cid1 family poly A polymerase</text><rect fill="#2DCF00" x="4" y="174.500000" width="12" height="12" filter="url(#ds)"/><text style="font-size:12px;font-family:OpenSans;fill:#000000;" text-anchor="start" x="20" y="186.500000">Zinc-finger of C2H2 type</text></svg>
