<?xml version='1.0'?>
<svg xmlns="http://www.w3.org/2000/svg" xmlns:xlink="http://www.w3.org/1999/xlink" width="1002.531646" height="133.000000">
<defs>
  <filter id="ds" x="0" y="0">
    <feOffset in="SourceAlpha" dx="2" dy="2" />
    <feComponentTransfer><feFuncA type="linear" slope="0.2"/></feComponentTransfer>
    <feGaussianBlur result="blurOut" stdDeviation="1" />
    <feBlend in="SourceGraphic" in2="blurOut" mode="normal" />
  </filter>
  <pattern id="disordered-hatch" patternUnits="userSpaceOnUse" width="4" height="4">
    <path d="M-1,1 l2,-2 M0,4 l4,-4 M3,5 l2,-2" stroke="#000000" opacity="0.3" />
  </pattern>
</defs>
<line x1="179.886076" x2="179.886076" y1="34.000000" y2="62.000000" stroke="#BABDB6" stroke-width="2"/><a xlink:title="H167H"><circle cx="179.886076" cy="34.000000" r="4.000000" fill="#0000ff" /></a><g transform="translate(179.886076,34.000000) rotate(-30)"><text style="font-size:10px;font-family:OpenSans;fill:#555;" text-anchor="middle" x="0" y="-6.000000">H167H</text></g><line x1="219.379747" x2="219.379747" y1="34.000000" y2="62.000000" stroke="#BABDB6" stroke-width="2"/><a xlink:title="H207H"><circle cx="219.379747" cy="34.000000" r="4.000000" fill="#0000ff" /></a><g transform="translate(219.379747,34.000000) rotate(-30)"><text style="font-size:10px;font-family:OpenSans;fill:#555;" text-anchor="middle" x="0" y="-6.000000">H207H</text></g><line x1="391.177215" x2="391.177215" y1="34.000000" y2="62.000000" stroke="#BABDB6" stroke-width="2"/><a xlink:title="H381H"><circle cx="391.177215" cy="34.000000" r="4.000000" fill="#0000ff" /></a><g transform="translate(391.177215,34.000000) rotate(-30)"><text style="font-size:10px;font-family:OpenSans;fill:#555;" text-anchor="middle" x="0" y="-6.000000">H381H</text></g><line x1="417.835443" x2="417.835443" y1="34.000000" y2="62.000000" stroke="#BABDB6" stroke-width="2"/><a xlink:title="H408H"><circle cx="417.835443" cy="34.000000" r="4.000000" fill="#0000ff" /></a><g transform="translate(417.835443,34.000000) rotate(-30)"><text style="font-size:10px;font-family:OpenSans;fill:#555;" text-anchor="middle" x="0" y="-6.000000">H408H</text></g><line x1="430.670886" x2="430.670886" y1="34.000000" y2="62.000000" stroke="#BABDB6" stroke-width="2"/><a xlink:title="H421H"><circle cx="430.670886" cy="34.000000" r="4.000000" fill="#0000ff" /></a><g transform="translate(430.670886,34.000000) rotate(-30)"><text style="font-size:10px;font-family:OpenSans;fill:#555;" text-anchor="middle" x="0" y="-6.000000">H421H</text></g><a xlink:title=",  (985aa)"><rect fill="#BABDB6" x="15.000000" y="62.000000" width="972.531646" height="14.000000"/></a><g transform="translate(129.531646,57.000000)"><a xlink:href="https://www.ebi.ac.uk/interpro/entry/pfam/PF00085" xlink:title="Thioredoxin"><rect fill="#2DCF00" x="0" y="0" width="92.810127" height="24.000000" filter="url(#ds)"/><text style="font-size:12px;font-family:OpenSans;fill:#ffffff;" text-anchor="middle" x="46.405063" y="16.000000">Thioredoxin</text></a></g>
<g transform="translate(699.227848,57.000000)"><a xlink:href="https://www.ebi.ac.uk/interpro/entry/pfam/PF00085" xlink:title="Thioredoxin"><rect fill="#FF5353" x="0" y="0" width="78.000000" height="24.000000" filter="url(#ds)"/><text style="font-size:12px;font-family:OpenSans;fill:#ffffff;" text-anchor="middle" x="39.000000" y="16.000000">Thioredoxin</text></a></g>
<g class="axis">
<line x1="15.000000" x2="987.531646" y1="91.000000" y2="91.000000" stroke="#AAAAAA" /><line x1="15.000000" x2="15.000000" y1="91.000000" y2="96.000000" stroke="#AAAAAA" /><line x1="15.000000" x2="15.000000" y1="91.000000" y2="96.000000" stroke="#AAAAAA" /><text style="font-size:10px;font-family:OpenSans;fill:#000000;" text-anchor="middle" x="15.000000" y="106.000000">0</text><line x1="129.531646" x2="129.531646" y1="91.000000" y2="96.000000" stroke="#AAAAAA" /><text style="font-size:10px;font-family:OpenSans;fill:#000000;" text-anchor="middle" x="129.531646" y="106.000000">116</text><line x1="179.886076" x2="179.886076" y1="91.000000" y2="96.000000" stroke="#AAAAAA" /><text style="font-size:10px;font-family:OpenSans;fill:#000000;" text-anchor="middle" x="179.886076" y="106.000000">167</text><line x1="219.379747" x2="219.379747" y1="91.000000" y2="96.000000" stroke="#AAAAAA" /><text style="font-size:10px;font-family:OpenSans;fill:#000000;" text-anchor="middle" x="219.379747" y="106.000000">207</text><line x1="391.177215" x2="391.177215" y1="91.000000" y2="96.000000" stroke="#AAAAAA" /><text style="font-size:10px;font-family:OpenSans;fill:#000000;" text-anchor="middle" x="391.177215" y="106.000000">381</text><line x1="417.835443" x2="417.835443" y1="91.000000" y2="96.000000" stroke="#AAAAAA" /><text style="font-size:10px;font-family:OpenSans;fill:#000000;" text-anchor="middle" x="417.835443" y="106.000000">408</text><line x1="699.227848" x2="699.227848" y1="91.000000" y2="96.000000" stroke="#AAAAAA" /><text style="font-size:10px;font-family:OpenSans;fill:#000000;" text-anchor="middle" x="699.227848" y="106.000000">693</text><line x1="777.227848" x2="777.227848" y1="91.000000" y2="96.000000" stroke="#AAAAAA" /><text style="font-size:10px;font-family:OpenSans;fill:#000000;" text-anchor="middle" x="777.227848" y="106.000000">772</text><line x1="987.531646" x2="987.531646" y1="91.000000" y2="96.000000" stroke="#AAAAAA" /><text style="font-size:10px;font-family:OpenSans;fill:#000000;" text-anchor="middle" x="987.531646" y="106.000000">985</text></g>
</svg>
