<?xml version='1.0'?>
<svg xmlns="http://www.w3.org/2000/svg" xmlns:xlink="http://www.w3.org/1999/xlink" width="723.250000" height="172.600000">
<defs>
  <filter id="ds" x="0" y="0">
    <feOffset in="SourceAlpha" dx="2" dy="2" />
    <feComponentTransfer><feFuncA type="linear" slope="0.2"/></feComponentTransfer>
    <feGaussianBlur result="blurOut" stdDeviation="1" />
    <feBlend in="SourceGraphic" in2="blurOut" mode="normal" />
  </filter>
  <pattern id="disordered-hatch" patternUnits="userSpaceOnUse" width="4" height="4">
    <path d="M-1,1 l2,-2 M0,4 l4,-4 M3,5 l2,-2" stroke="#000000" opacity="0.3" />
  </pattern>
</defs>
<line x1="18.204545" x2="18.204545" y1="34.000000" y2="62.000000" stroke="#BABDB6" stroke-width="2"/><a xlink:title="Q3H"><circle cx="18.204545" cy="34.000000" r="4.000000" fill="#ff0000" /></a><g transform="translate(18.204545,34.000000) rotate(-30)"><text style="font-size:10px;font-family:OpenSans;fill:#555;" text-anchor="middle" x="0" y="-6.000000">Q3H</text></g><a xlink:title=",  (649aa)"><rect fill="#BABDB6" x="15.000000" y="62.000000" width="693.250000" height="14.000000"/></a><g transform="translate(57.727273,57.000000)"><a xlink:href="https://www.ebi.ac.uk/interpro/entry/pfam/PF22562" xlink:title="UBA-like domain"><rect fill="#2DCF00" x="0" y="0" width="47.000000" height="24.000000" filter="url(#ds)"/><text style="font-size:12px;font-family:OpenSans;fill:#ffffff;" text-anchor="middle" x="23.500000" y="16.000000">UBA_7</text></a></g>
<g transform="translate(293.795455,57.000000)"><a xlink:href="https://www.ebi.ac.uk/interpro/entry/pfam/PF14604" xlink:title="Variant SH3 domain"><rect fill="#FF5353" x="0" y="0" width="57.681818" height="24.000000" filter="url(#ds)"/><text style="font-size:12px;font-family:OpenSans;fill:#ffffff;" text-anchor="middle" x="28.840909" y="16.000000">SH3_9</text></a></g>
<g transform="translate(480.727273,57.000000)"><a xlink:href="https://www.ebi.ac.uk/interpro/entry/pfam/PF00300" xlink:title="Histidine phosphatase superfamily (branch 1)"><rect fill="#5B5BFF" x="0" y="0" width="174.113636" height="24.000000" filter="url(#ds)"/><text style="font-size:12px;font-family:OpenSans;fill:#ffffff;" text-anchor="middle" x="87.056818" y="16.000000">His_Phos_1</text></a></g>
<g class="axis">
<line x1="15.000000" x2="708.250000" y1="91.000000" y2="91.000000" stroke="#AAAAAA" /><line x1="15.000000" x2="15.000000" y1="91.000000" y2="96.000000" stroke="#AAAAAA" /><line x1="18.204545" x2="18.204545" y1="91.000000" y2="96.000000" stroke="#AAAAAA" /><text style="font-size:10px;font-family:OpenSans;fill:#000000;" text-anchor="middle" x="18.204545" y="106.000000">3</text><line x1="57.727273" x2="57.727273" y1="91.000000" y2="96.000000" stroke="#AAAAAA" /><text style="font-size:10px;font-family:OpenSans;fill:#000000;" text-anchor="middle" x="57.727273" y="106.000000">40</text><line x1="104.727273" x2="104.727273" y1="91.000000" y2="96.000000" stroke="#AAAAAA" /><text style="font-size:10px;font-family:OpenSans;fill:#000000;" text-anchor="middle" x="104.727273" y="106.000000">84</text><line x1="293.795455" x2="293.795455" y1="91.000000" y2="96.000000" stroke="#AAAAAA" /><text style="font-size:10px;font-family:OpenSans;fill:#000000;" text-anchor="middle" x="293.795455" y="106.000000">261</text><line x1="351.477273" x2="351.477273" y1="91.000000" y2="96.000000" stroke="#AAAAAA" /><text style="font-size:10px;font-family:OpenSans;fill:#000000;" text-anchor="middle" x="351.477273" y="106.000000">315</text><line x1="480.727273" x2="480.727273" y1="91.000000" y2="96.000000" stroke="#AAAAAA" /><text style="font-size:10px;font-family:OpenSans;fill:#000000;" text-anchor="middle" x="480.727273" y="106.000000">436</text><line x1="654.840909" x2="654.840909" y1="91.000000" y2="96.000000" stroke="#AAAAAA" /><text style="font-size:10px;font-family:OpenSans;fill:#000000;" text-anchor="middle" x="654.840909" y="106.000000">599</text><line x1="708.250000" x2="708.250000" y1="91.000000" y2="96.000000" stroke="#AAAAAA" /><text style="font-size:10px;font-family:OpenSans;fill:#000000;" text-anchor="middle" x="708.250000" y="106.000000">649</text></g>
<rect fill="#5B5BFF" x="4" y="120.000000" width="12" height="12" filter="url(#ds)"/><text style="font-size:12px;font-family:OpenSans;fill:#000000;" text-anchor="start" x="20" y="132.000000">Histidine phosphatase superfamily (branch 1)</text><rect fill="#2DCF00" x="4" y="134.000000" width="12" height="12" filter="url(#ds)"/><text style="font-size:12px;font-family:OpenSans;fill:#000000;" text-anchor="start" x="20" y="146.000000">UBA-like domain</text><rect fill="#FF5353" x="4" y="148.000000" width="12" height="12" filter="url(#ds)"/><text style="font-size:12px;font-family:OpenSans;fill:#000000;" text-anchor="start" x="20" y="160.000000">Variant SH3 domain</text></svg>
