<?xml version='1.0'?>
<svg xmlns="http://www.w3.org/2000/svg" xmlns:xlink="http://www.w3.org/1999/xlink" width="430.000000" height="145.500000">
<defs>
  <filter id="ds" x="0" y="0">
    <feOffset in="SourceAlpha" dx="2" dy="2" />
    <feComponentTransfer><feFuncA type="linear" slope="0.2"/></feComponentTransfer>
    <feGaussianBlur result="blurOut" stdDeviation="1" />
    <feBlend in="SourceGraphic" in2="blurOut" mode="normal" />
  </filter>
  <pattern id="disordered-hatch" patternUnits="userSpaceOnUse" width="4" height="4">
    <path d="M-1,1 l2,-2 M0,4 l4,-4 M3,5 l2,-2" stroke="#000000" opacity="0.3" />
  </pattern>
</defs>
<line x1="24.911504" x2="24.911504" y1="46.500000" y2="74.500000" stroke="#BABDB6" stroke-width="2"/><a xlink:title="R14R"><circle cx="24.911504" cy="46.500000" r="4.000000" fill="#0000ff" /></a><g transform="translate(24.911504,46.500000) rotate(-30)"><text style="font-size:10px;font-family:OpenSans;fill:#555;" text-anchor="middle" x="0" y="-6.000000">R14R</text></g><line x1="50.398230" x2="50.398230" y1="34.000000" y2="74.500000" stroke="#BABDB6" stroke-width="2"/><a xlink:title="R50Q"><circle cx="50.398230" cy="34.000000" r="4.000000" fill="#ff0000" /></a><g transform="translate(50.398230,34.000000) rotate(-30)"><text style="font-size:10px;font-family:OpenSans;fill:#555;" text-anchor="middle" x="0" y="-6.000000">R50Q</text></g><line x1="53.938053" x2="53.938053" y1="46.500000" y2="74.500000" stroke="#BABDB6" stroke-width="2"/><a xlink:title="R55Q"><circle cx="53.938053" cy="46.500000" r="4.000000" fill="#ff0000" /></a><g transform="translate(53.938053,46.500000) rotate(-30)"><text style="font-size:10px;font-family:OpenSans;fill:#555;" text-anchor="middle" x="0" y="-6.000000">R55Q</text></g><line x1="70.929204" x2="70.929204" y1="34.000000" y2="74.500000" stroke="#BABDB6" stroke-width="2"/><a xlink:title="R79Q"><circle cx="70.929204" cy="34.000000" r="4.000000" fill="#ff0000" /></a><g transform="translate(70.929204,34.000000) rotate(-30)"><text style="font-size:10px;font-family:OpenSans;fill:#555;" text-anchor="middle" x="0" y="-6.000000">R79Q</text></g><line x1="74.469027" x2="74.469027" y1="46.500000" y2="74.500000" stroke="#BABDB6" stroke-width="2"/><a xlink:title="R84Q"><circle cx="74.469027" cy="46.500000" r="4.000000" fill="#ff0000" /></a><g transform="translate(74.469027,46.500000) rotate(-30)"><text style="font-size:10px;font-family:OpenSans;fill:#555;" text-anchor="middle" x="0" y="-6.000000">R84Q</text></g><line x1="113.407080" x2="113.407080" y1="46.500000" y2="74.500000" stroke="#BABDB6" stroke-width="2"/><a xlink:title="R139R"><circle cx="113.407080" cy="46.500000" r="4.000000" fill="#0000ff" /></a><g transform="translate(113.407080,46.500000) rotate(-30)"><text style="font-size:10px;font-family:OpenSans;fill:#555;" text-anchor="middle" x="0" y="-6.000000">R139R</text></g><line x1="243.672566" x2="243.672566" y1="46.500000" y2="74.500000" stroke="#BABDB6" stroke-width="2"/><a xlink:title="R323R"><circle cx="243.672566" cy="46.500000" r="4.000000" fill="#0000ff" /></a><g transform="translate(243.672566,46.500000) rotate(-30)"><text style="font-size:10px;font-family:OpenSans;fill:#555;" text-anchor="middle" x="0" y="-6.000000">R323R</text></g><line x1="264.203540" x2="264.203540" y1="46.500000" y2="74.500000" stroke="#BABDB6" stroke-width="2"/><a xlink:title="R352R"><circle cx="264.203540" cy="46.500000" r="4.000000" fill="#0000ff" /></a><g transform="translate(264.203540,46.500000) rotate(-30)"><text style="font-size:10px;font-family:OpenSans;fill:#555;" text-anchor="middle" x="0" y="-6.000000">R352R</text></g><a xlink:title=",  (565aa)"><rect fill="#BABDB6" x="15.000000" y="74.500000" width="400.000000" height="14.000000"/></a><g transform="translate(165.088496,69.500000)"><a xlink:href="https://www.ebi.ac.uk/interpro/entry/pfam/PF00443" xlink:title="Ubiquitin carboxyl-terminal hydrolase"><rect fill="#2DCF00" x="0" y="0" width="242.831858" height="24.000000" filter="url(#ds)"/><text style="font-size:12px;font-family:OpenSans;fill:#ffffff;" text-anchor="middle" x="121.415929" y="16.000000">Ubiquitin carboxyl-terminal hydrolase</text></a></g>
<g class="axis">
<line x1="15.000000" x2="415.000000" y1="103.500000" y2="103.500000" stroke="#AAAAAA" /><line x1="15.000000" x2="15.000000" y1="103.500000" y2="108.500000" stroke="#AAAAAA" /><line x1="24.911504" x2="24.911504" y1="103.500000" y2="108.500000" stroke="#AAAAAA" /><text style="font-size:10px;font-family:OpenSans;fill:#000000;" text-anchor="middle" x="24.911504" y="118.500000">14</text><line x1="50.398230" x2="50.398230" y1="103.500000" y2="108.500000" stroke="#AAAAAA" /><text style="font-size:10px;font-family:OpenSans;fill:#000000;" text-anchor="middle" x="50.398230" y="118.500000">50</text><line x1="70.929204" x2="70.929204" y1="103.500000" y2="108.500000" stroke="#AAAAAA" /><text style="font-size:10px;font-family:OpenSans;fill:#000000;" text-anchor="middle" x="70.929204" y="118.500000">79</text><line x1="113.407080" x2="113.407080" y1="103.500000" y2="108.500000" stroke="#AAAAAA" /><text style="font-size:10px;font-family:OpenSans;fill:#000000;" text-anchor="middle" x="113.407080" y="118.500000">139</text><line x1="165.088496" x2="165.088496" y1="103.500000" y2="108.500000" stroke="#AAAAAA" /><text style="font-size:10px;font-family:OpenSans;fill:#000000;" text-anchor="middle" x="165.088496" y="118.500000">212</text><line x1="243.672566" x2="243.672566" y1="103.500000" y2="108.500000" stroke="#AAAAAA" /><text style="font-size:10px;font-family:OpenSans;fill:#000000;" text-anchor="middle" x="243.672566" y="118.500000">323</text><line x1="264.203540" x2="264.203540" y1="103.500000" y2="108.500000" stroke="#AAAAAA" /><text style="font-size:10px;font-family:OpenSans;fill:#000000;" text-anchor="middle" x="264.203540" y="118.500000">352</text><line x1="415.000000" x2="415.000000" y1="103.500000" y2="108.500000" stroke="#AAAAAA" /><text style="font-size:10px;font-family:OpenSans;fill:#000000;" text-anchor="middle" x="415.000000" y="118.500000">565</text></g>
</svg>
