<?xml version='1.0'?>
<svg xmlns="http://www.w3.org/2000/svg" xmlns:xlink="http://www.w3.org/1999/xlink" width="430.000000" height="171.200000">
<defs>
  <filter id="ds" x="0" y="0">
    <feOffset in="SourceAlpha" dx="2" dy="2" />
    <feComponentTransfer><feFuncA type="linear" slope="0.2"/></feComponentTransfer>
    <feGaussianBlur result="blurOut" stdDeviation="1" />
    <feBlend in="SourceGraphic" in2="blurOut" mode="normal" />
  </filter>
  <pattern id="disordered-hatch" patternUnits="userSpaceOnUse" width="4" height="4">
    <path d="M-1,1 l2,-2 M0,4 l4,-4 M3,5 l2,-2" stroke="#000000" opacity="0.3" />
  </pattern>
</defs>
<line x1="17.807018" x2="17.807018" y1="59.000000" y2="87.000000" stroke="#BABDB6" stroke-width="2"/><a xlink:title="R2G"><circle cx="17.807018" cy="59.000000" r="4.000000" fill="#ff0000" /></a><g transform="translate(17.807018,59.000000) rotate(-30)"><text style="font-size:10px;font-family:OpenSans;fill:#555;" text-anchor="middle" x="0" y="-6.000000">R2G</text></g><line x1="37.456140" x2="37.456140" y1="59.000000" y2="87.000000" stroke="#BABDB6" stroke-width="2"/><a xlink:title="V16M"><circle cx="37.456140" cy="59.000000" r="4.000000" fill="#ff0000" /></a><g transform="translate(37.456140,59.000000) rotate(-30)"><text style="font-size:10px;font-family:OpenSans;fill:#555;" text-anchor="middle" x="0" y="-6.000000">V16M</text></g><line x1="71.140351" x2="71.140351" y1="59.000000" y2="87.000000" stroke="#BABDB6" stroke-width="2"/><a xlink:title="G40R"><circle cx="71.140351" cy="59.000000" r="4.000000" fill="#ff0000" /></a><g transform="translate(71.140351,59.000000) rotate(-30)"><text style="font-size:10px;font-family:OpenSans;fill:#555;" text-anchor="middle" x="0" y="-6.000000">G40R</text></g><line x1="269.035088" x2="269.035088" y1="34.000000" y2="87.000000" stroke="#BABDB6" stroke-width="2"/><a xlink:title="P181P"><circle cx="269.035088" cy="34.000000" r="4.000000" fill="#0000ff" /></a><g transform="translate(269.035088,34.000000) rotate(-30)"><text style="font-size:10px;font-family:OpenSans;fill:#555;" text-anchor="middle" x="0" y="-6.000000">P181P</text></g><line x1="273.245614" x2="273.245614" y1="46.500000" y2="87.000000" stroke="#BABDB6" stroke-width="2"/><a xlink:title="P184P"><circle cx="273.245614" cy="46.500000" r="4.000000" fill="#0000ff" /></a><g transform="translate(273.245614,46.500000) rotate(-30)"><text style="font-size:10px;font-family:OpenSans;fill:#555;" text-anchor="middle" x="0" y="-6.000000">P184P</text></g><line x1="274.649123" x2="274.649123" y1="59.000000" y2="87.000000" stroke="#BABDB6" stroke-width="2"/><a xlink:title="P185P"><circle cx="274.649123" cy="59.000000" r="4.000000" fill="#0000ff" /></a><g transform="translate(274.649123,59.000000) rotate(-30)"><text style="font-size:10px;font-family:OpenSans;fill:#555;" text-anchor="middle" x="0" y="-6.000000">P185P</text></g><line x1="283.070175" x2="283.070175" y1="34.000000" y2="87.000000" stroke="#BABDB6" stroke-width="2"/><a xlink:title="P191P"><circle cx="283.070175" cy="34.000000" r="4.000000" fill="#0000ff" /></a><g transform="translate(283.070175,34.000000) rotate(-30)"><text style="font-size:10px;font-family:OpenSans;fill:#555;" text-anchor="middle" x="0" y="-6.000000">P191P</text></g><line x1="287.280702" x2="287.280702" y1="46.500000" y2="87.000000" stroke="#BABDB6" stroke-width="2"/><a xlink:title="P194P"><circle cx="287.280702" cy="46.500000" r="4.000000" fill="#0000ff" /></a><g transform="translate(287.280702,46.500000) rotate(-30)"><text style="font-size:10px;font-family:OpenSans;fill:#555;" text-anchor="middle" x="0" y="-6.000000">P194P</text></g><line x1="288.684211" x2="288.684211" y1="59.000000" y2="87.000000" stroke="#BABDB6" stroke-width="2"/><a xlink:title="P195P"><circle cx="288.684211" cy="59.000000" r="4.000000" fill="#0000ff" /></a><g transform="translate(288.684211,59.000000) rotate(-30)"><text style="font-size:10px;font-family:OpenSans;fill:#555;" text-anchor="middle" x="0" y="-6.000000">P195P</text></g><line x1="308.333333" x2="308.333333" y1="34.000000" y2="87.000000" stroke="#BABDB6" stroke-width="2"/><a xlink:title="P209P"><circle cx="308.333333" cy="34.000000" r="4.000000" fill="#0000ff" /></a><g transform="translate(308.333333,34.000000) rotate(-30)"><text style="font-size:10px;font-family:OpenSans;fill:#555;" text-anchor="middle" x="0" y="-6.000000">P209P</text></g><line x1="312.543860" x2="312.543860" y1="46.500000" y2="87.000000" stroke="#BABDB6" stroke-width="2"/><a xlink:title="P212P"><circle cx="312.543860" cy="46.500000" r="4.000000" fill="#0000ff" /></a><g transform="translate(312.543860,46.500000) rotate(-30)"><text style="font-size:10px;font-family:OpenSans;fill:#555;" text-anchor="middle" x="0" y="-6.000000">P212P</text></g><line x1="313.947368" x2="313.947368" y1="59.000000" y2="87.000000" stroke="#BABDB6" stroke-width="2"/><a xlink:title="P213P"><circle cx="313.947368" cy="59.000000" r="4.000000" fill="#0000ff" /></a><g transform="translate(313.947368,59.000000) rotate(-30)"><text style="font-size:10px;font-family:OpenSans;fill:#555;" text-anchor="middle" x="0" y="-6.000000">P213P</text></g><line x1="391.140351" x2="391.140351" y1="34.000000" y2="87.000000" stroke="#BABDB6" stroke-width="2"/><a xlink:title="P268P"><circle cx="391.140351" cy="34.000000" r="4.000000" fill="#0000ff" /></a><g transform="translate(391.140351,34.000000) rotate(-30)"><text style="font-size:10px;font-family:OpenSans;fill:#555;" text-anchor="middle" x="0" y="-6.000000">P268P</text></g><line x1="395.350877" x2="395.350877" y1="46.500000" y2="87.000000" stroke="#BABDB6" stroke-width="2"/><a xlink:title="P271P"><circle cx="395.350877" cy="46.500000" r="4.000000" fill="#0000ff" /></a><g transform="translate(395.350877,46.500000) rotate(-30)"><text style="font-size:10px;font-family:OpenSans;fill:#555;" text-anchor="middle" x="0" y="-6.000000">P271P</text></g><line x1="396.754386" x2="396.754386" y1="59.000000" y2="87.000000" stroke="#BABDB6" stroke-width="2"/><a xlink:title="P272P"><circle cx="396.754386" cy="59.000000" r="4.000000" fill="#0000ff" /></a><g transform="translate(396.754386,59.000000) rotate(-30)"><text style="font-size:10px;font-family:OpenSans;fill:#555;" text-anchor="middle" x="0" y="-6.000000">P272P</text></g><a xlink:title=",  (285aa)"><rect fill="#BABDB6" x="15.000000" y="87.000000" width="400.000000" height="14.000000"/></a><g transform="translate(31.842105,82.000000)"><a xlink:href="https://www.ebi.ac.uk/interpro/entry/pfam/PF07200" xlink:title="Modifier of rudimentary (Mod(r)) protein"><rect fill="#2DCF00" x="0" y="0" width="200.701754" height="24.000000" filter="url(#ds)"/><text style="font-size:12px;font-family:OpenSans;fill:#ffffff;" text-anchor="middle" x="100.350877" y="16.000000">Mod_r</text></a></g>
<g class="axis">
<line x1="15.000000" x2="415.000000" y1="116.000000" y2="116.000000" stroke="#AAAAAA" /><line x1="15.000000" x2="15.000000" y1="116.000000" y2="121.000000" stroke="#AAAAAA" /><line x1="17.807018" x2="17.807018" y1="116.000000" y2="121.000000" stroke="#AAAAAA" /><text style="font-size:10px;font-family:OpenSans;fill:#000000;" text-anchor="middle" x="17.807018" y="131.000000">2</text><line x1="37.456140" x2="37.456140" y1="116.000000" y2="121.000000" stroke="#AAAAAA" /><text style="font-size:10px;font-family:OpenSans;fill:#000000;" text-anchor="middle" x="37.456140" y="131.000000">16</text><line x1="71.140351" x2="71.140351" y1="116.000000" y2="121.000000" stroke="#AAAAAA" /><text style="font-size:10px;font-family:OpenSans;fill:#000000;" text-anchor="middle" x="71.140351" y="131.000000">40</text><line x1="232.543860" x2="232.543860" y1="116.000000" y2="121.000000" stroke="#AAAAAA" /><text style="font-size:10px;font-family:OpenSans;fill:#000000;" text-anchor="middle" x="232.543860" y="131.000000">155</text><line x1="269.035088" x2="269.035088" y1="116.000000" y2="121.000000" stroke="#AAAAAA" /><text style="font-size:10px;font-family:OpenSans;fill:#000000;" text-anchor="middle" x="269.035088" y="131.000000">181</text><line x1="288.684211" x2="288.684211" y1="116.000000" y2="121.000000" stroke="#AAAAAA" /><text style="font-size:10px;font-family:OpenSans;fill:#000000;" text-anchor="middle" x="288.684211" y="131.000000">195</text><line x1="308.333333" x2="308.333333" y1="116.000000" y2="121.000000" stroke="#AAAAAA" /><text style="font-size:10px;font-family:OpenSans;fill:#000000;" text-anchor="middle" x="308.333333" y="131.000000">209</text><line x1="391.140351" x2="391.140351" y1="116.000000" y2="121.000000" stroke="#AAAAAA" /><text style="font-size:10px;font-family:OpenSans;fill:#000000;" text-anchor="middle" x="391.140351" y="131.000000">268</text><line x1="415.000000" x2="415.000000" y1="116.000000" y2="121.000000" stroke="#AAAAAA" /><text style="font-size:10px;font-family:OpenSans;fill:#000000;" text-anchor="middle" x="415.000000" y="131.000000">285</text></g>
<rect fill="#2DCF00" x="4" y="145.000000" width="12" height="12" filter="url(#ds)"/><text style="font-size:12px;font-family:OpenSans;fill:#000000;" text-anchor="start" x="20" y="157.000000">Modifier of rudimentary (Mod(r)) protein</text></svg>
