<?xml version='1.0'?>
<svg xmlns="http://www.w3.org/2000/svg" xmlns:xlink="http://www.w3.org/1999/xlink" width="766.000000" height="185.800000">
<defs>
  <filter id="ds" x="0" y="0">
    <feOffset in="SourceAlpha" dx="2" dy="2" />
    <feComponentTransfer><feFuncA type="linear" slope="0.2"/></feComponentTransfer>
    <feGaussianBlur result="blurOut" stdDeviation="1" />
    <feBlend in="SourceGraphic" in2="blurOut" mode="normal" />
  </filter>
  <pattern id="disordered-hatch" patternUnits="userSpaceOnUse" width="4" height="4">
    <path d="M-1,1 l2,-2 M0,4 l4,-4 M3,5 l2,-2" stroke="#000000" opacity="0.3" />
  </pattern>
</defs>
<line x1="542.157895" x2="542.157895" y1="34.000000" y2="62.000000" stroke="#BABDB6" stroke-width="2"/><a xlink:title="N313S"><circle cx="542.157895" cy="34.000000" r="4.000000" fill="#ff0000" /></a><g transform="translate(542.157895,34.000000) rotate(-30)"><text style="font-size:10px;font-family:OpenSans;fill:#555;" text-anchor="middle" x="0" y="-6.000000">N313S</text></g><a xlink:title=",  (437aa)"><rect fill="#BABDB6" x="15.000000" y="62.000000" width="736.000000" height="14.000000"/></a><g transform="translate(25.105263,57.000000)"><a xlink:href="https://www.ebi.ac.uk/interpro/entry/pfam/PF04212" xlink:title="MIT (microtubule interacting and transport) domain"><rect fill="#2DCF00" x="0" y="0" width="109.473684" height="24.000000" filter="url(#ds)"/><text style="font-size:12px;font-family:OpenSans;fill:#ffffff;" text-anchor="middle" x="54.736842" y="16.000000">MIT</text></a></g>
<g transform="translate(289.526316,57.000000)"><a xlink:href="https://www.ebi.ac.uk/interpro/entry/pfam/PF00004" xlink:title="ATPase family associated with various cellular activities (AAA)"><rect fill="#FF5353" x="0" y="0" width="218.947368" height="24.000000" filter="url(#ds)"/><text style="font-size:12px;font-family:OpenSans;fill:#ffffff;" text-anchor="middle" x="109.473684" y="16.000000">AAA</text></a></g>
<g transform="translate(547.210526,57.000000)"><a xlink:href="https://www.ebi.ac.uk/interpro/entry/pfam/PF17862" xlink:title="AAA+ lid domain"><rect fill="#5B5BFF" x="0" y="0" width="64.000000" height="24.000000" filter="url(#ds)"/><text style="font-size:12px;font-family:OpenSans;fill:#ffffff;" text-anchor="middle" x="32.000000" y="16.000000">AAA_lid_3</text></a></g>
<g transform="translate(644.894737,57.000000)"><a xlink:href="https://www.ebi.ac.uk/interpro/entry/pfam/PF09336" xlink:title="Vps4 C terminal oligomerisation domain"><rect fill="#EBD61D" x="0" y="0" width="101.052632" height="24.000000" filter="url(#ds)"/><text style="font-size:12px;font-family:OpenSans;fill:#ffffff;" text-anchor="middle" x="50.526316" y="16.000000">Vps4_C</text></a></g>
<g class="axis">
<line x1="15.000000" x2="751.000000" y1="91.000000" y2="91.000000" stroke="#AAAAAA" /><line x1="15.000000" x2="15.000000" y1="91.000000" y2="96.000000" stroke="#AAAAAA" /><line x1="25.105263" x2="25.105263" y1="91.000000" y2="96.000000" stroke="#AAAAAA" /><text style="font-size:10px;font-family:OpenSans;fill:#000000;" text-anchor="middle" x="25.105263" y="106.000000">6</text><line x1="134.578947" x2="134.578947" y1="91.000000" y2="96.000000" stroke="#AAAAAA" /><text style="font-size:10px;font-family:OpenSans;fill:#000000;" text-anchor="middle" x="134.578947" y="106.000000">71</text><line x1="289.526316" x2="289.526316" y1="91.000000" y2="96.000000" stroke="#AAAAAA" /><text style="font-size:10px;font-family:OpenSans;fill:#000000;" text-anchor="middle" x="289.526316" y="106.000000">163</text><line x1="508.473684" x2="508.473684" y1="91.000000" y2="96.000000" stroke="#AAAAAA" /><text style="font-size:10px;font-family:OpenSans;fill:#000000;" text-anchor="middle" x="508.473684" y="106.000000">293</text><line x1="542.157895" x2="542.157895" y1="91.000000" y2="96.000000" stroke="#AAAAAA" /><text style="font-size:10px;font-family:OpenSans;fill:#000000;" text-anchor="middle" x="542.157895" y="106.000000">313</text><line x1="611.210526" x2="611.210526" y1="91.000000" y2="96.000000" stroke="#AAAAAA" /><text style="font-size:10px;font-family:OpenSans;fill:#000000;" text-anchor="middle" x="611.210526" y="106.000000">354</text><line x1="644.894737" x2="644.894737" y1="91.000000" y2="96.000000" stroke="#AAAAAA" /><text style="font-size:10px;font-family:OpenSans;fill:#000000;" text-anchor="middle" x="644.894737" y="106.000000">374</text><line x1="751.000000" x2="751.000000" y1="91.000000" y2="96.000000" stroke="#AAAAAA" /><text style="font-size:10px;font-family:OpenSans;fill:#000000;" text-anchor="middle" x="751.000000" y="106.000000">437</text></g>
<rect fill="#2DCF00" x="4" y="120.000000" width="12" height="12" filter="url(#ds)"/><text style="font-size:12px;font-family:OpenSans;fill:#000000;" text-anchor="start" x="20" y="132.000000">MIT (microtubule interacting and transport) domain</text><rect fill="#FF5353" x="4" y="134.000000" width="12" height="12" filter="url(#ds)"/><text style="font-size:12px;font-family:OpenSans;fill:#000000;" text-anchor="start" x="20" y="146.000000">ATPase family associated with various cellular activities (AAA)</text><rect fill="#5B5BFF" x="4" y="148.000000" width="12" height="12" filter="url(#ds)"/><text style="font-size:12px;font-family:OpenSans;fill:#000000;" text-anchor="start" x="20" y="160.000000">AAA+ lid domain</text><rect fill="#EBD61D" x="4" y="162.000000" width="12" height="12" filter="url(#ds)"/><text style="font-size:12px;font-family:OpenSans;fill:#000000;" text-anchor="start" x="20" y="174.000000">Vps4 C terminal oligomerisation domain</text></svg>
