<?xml version='1.0'?>
<svg xmlns="http://www.w3.org/2000/svg" xmlns:xlink="http://www.w3.org/1999/xlink" width="820.777778" height="196.200000">
<defs>
  <filter id="ds" x="0" y="0">
    <feOffset in="SourceAlpha" dx="2" dy="2" />
    <feComponentTransfer><feFuncA type="linear" slope="0.2"/></feComponentTransfer>
    <feGaussianBlur result="blurOut" stdDeviation="1" />
    <feBlend in="SourceGraphic" in2="blurOut" mode="normal" />
  </filter>
  <pattern id="disordered-hatch" patternUnits="userSpaceOnUse" width="4" height="4">
    <path d="M-1,1 l2,-2 M0,4 l4,-4 M3,5 l2,-2" stroke="#000000" opacity="0.3" />
  </pattern>
</defs>
<line x1="34.555556" x2="34.555556" y1="34.000000" y2="112.000000" stroke="#BABDB6" stroke-width="2"/><a xlink:title="R16P"><circle cx="34.555556" cy="34.000000" r="4.000000" fill="#ff0000" /></a><g transform="translate(34.555556,34.000000) rotate(-30)"><text style="font-size:10px;font-family:OpenSans;fill:#555;" text-anchor="middle" x="0" y="-6.000000">R16P</text></g><line x1="35.777778" x2="35.777778" y1="46.500000" y2="112.000000" stroke="#BABDB6" stroke-width="2"/><a xlink:title="R17P"><circle cx="35.777778" cy="46.500000" r="4.000000" fill="#ff0000" /></a><g transform="translate(35.777778,46.500000) rotate(-30)"><text style="font-size:10px;font-family:OpenSans;fill:#555;" text-anchor="middle" x="0" y="-6.000000">R17P</text></g><line x1="37.000000" x2="37.000000" y1="59.000000" y2="112.000000" stroke="#BABDB6" stroke-width="2"/><a xlink:title="P18P"><circle cx="37.000000" cy="59.000000" r="4.000000" fill="#0000ff" /></a><g transform="translate(37.000000,59.000000) rotate(-30)"><text style="font-size:10px;font-family:OpenSans;fill:#555;" text-anchor="middle" x="0" y="-6.000000">P18P</text></g><line x1="38.222222" x2="38.222222" y1="71.500000" y2="112.000000" stroke="#BABDB6" stroke-width="2"/><a xlink:title="P19P"><circle cx="38.222222" cy="71.500000" r="4.000000" fill="#0000ff" /></a><g transform="translate(38.222222,71.500000) rotate(-30)"><text style="font-size:10px;font-family:OpenSans;fill:#555;" text-anchor="middle" x="0" y="-6.000000">P19P</text></g><line x1="39.444444" x2="39.444444" y1="84.000000" y2="112.000000" stroke="#BABDB6" stroke-width="2"/><a xlink:title="P20P"><circle cx="39.444444" cy="84.000000" r="4.000000" fill="#0000ff" /></a><g transform="translate(39.444444,84.000000) rotate(-30)"><text style="font-size:10px;font-family:OpenSans;fill:#555;" text-anchor="middle" x="0" y="-6.000000">P20P</text></g><a xlink:title=",  (647aa)"><rect fill="#BABDB6" x="15.000000" y="112.000000" width="790.777778" height="14.000000"/></a><g transform="translate(177.555556,107.000000)"><a xlink:href="https://www.ebi.ac.uk/interpro/entry/pfam/PF00397" xlink:title="WW domain"><rect fill="#2DCF00" x="0" y="0" width="33.000000" height="24.000000" filter="url(#ds)"/><text style="font-size:12px;font-family:OpenSans;fill:#ffffff;" text-anchor="middle" x="16.500000" y="16.000000">WW</text></a></g>
<g class="axis">
<line x1="15.000000" x2="805.777778" y1="141.000000" y2="141.000000" stroke="#AAAAAA" /><line x1="15.000000" x2="15.000000" y1="141.000000" y2="146.000000" stroke="#AAAAAA" /><line x1="34.555556" x2="34.555556" y1="141.000000" y2="146.000000" stroke="#AAAAAA" /><text style="font-size:10px;font-family:OpenSans;fill:#000000;" text-anchor="middle" x="34.555556" y="156.000000">16</text><line x1="177.555556" x2="177.555556" y1="141.000000" y2="146.000000" stroke="#AAAAAA" /><text style="font-size:10px;font-family:OpenSans;fill:#000000;" text-anchor="middle" x="177.555556" y="156.000000">133</text><line x1="210.555556" x2="210.555556" y1="141.000000" y2="146.000000" stroke="#AAAAAA" /><text style="font-size:10px;font-family:OpenSans;fill:#000000;" text-anchor="middle" x="210.555556" y="156.000000">160</text><line x1="805.777778" x2="805.777778" y1="141.000000" y2="146.000000" stroke="#AAAAAA" /><text style="font-size:10px;font-family:OpenSans;fill:#000000;" text-anchor="middle" x="805.777778" y="156.000000">647</text></g>
<rect fill="#2DCF00" x="4" y="170.000000" width="12" height="12" filter="url(#ds)"/><text style="font-size:12px;font-family:OpenSans;fill:#000000;" text-anchor="start" x="20" y="182.000000">WW domain</text></svg>
