<?xml version='1.0'?>
<svg xmlns="http://www.w3.org/2000/svg" xmlns:xlink="http://www.w3.org/1999/xlink" width="1856.000000" height="158.700000">
<defs>
  <filter id="ds" x="0" y="0">
    <feOffset in="SourceAlpha" dx="2" dy="2" />
    <feComponentTransfer><feFuncA type="linear" slope="0.2"/></feComponentTransfer>
    <feGaussianBlur result="blurOut" stdDeviation="1" />
    <feBlend in="SourceGraphic" in2="blurOut" mode="normal" />
  </filter>
  <pattern id="disordered-hatch" patternUnits="userSpaceOnUse" width="4" height="4">
    <path d="M-1,1 l2,-2 M0,4 l4,-4 M3,5 l2,-2" stroke="#000000" opacity="0.3" />
  </pattern>
</defs>
<line x1="113.000000" x2="113.000000" y1="46.500000" y2="74.500000" stroke="#BABDB6" stroke-width="2"/><a xlink:title="E49E"><circle cx="113.000000" cy="46.500000" r="4.000000" fill="#0000ff" /></a><g transform="translate(113.000000,46.500000) rotate(-30)"><text style="font-size:10px;font-family:OpenSans;fill:#555;" text-anchor="middle" x="0" y="-6.000000">E49E</text></g><line x1="373.000000" x2="373.000000" y1="46.500000" y2="74.500000" stroke="#BABDB6" stroke-width="2"/><a xlink:title="A179A"><circle cx="373.000000" cy="46.500000" r="4.000000" fill="#0000ff" /></a><g transform="translate(373.000000,46.500000) rotate(-30)"><text style="font-size:10px;font-family:OpenSans;fill:#555;" text-anchor="middle" x="0" y="-6.000000">A179A</text></g><line x1="423.000000" x2="423.000000" y1="46.500000" y2="74.500000" stroke="#BABDB6" stroke-width="2"/><a xlink:title="A204A"><circle cx="423.000000" cy="46.500000" r="4.000000" fill="#0000ff" /></a><g transform="translate(423.000000,46.500000) rotate(-30)"><text style="font-size:10px;font-family:OpenSans;fill:#555;" text-anchor="middle" x="0" y="-6.000000">A204A</text></g><line x1="543.000000" x2="543.000000" y1="46.500000" y2="74.500000" stroke="#BABDB6" stroke-width="2"/><a xlink:title="A264T"><circle cx="543.000000" cy="46.500000" r="4.000000" fill="#ff0000" /></a><g transform="translate(543.000000,46.500000) rotate(-30)"><text style="font-size:10px;font-family:OpenSans;fill:#555;" text-anchor="middle" x="0" y="-6.000000">A264T</text></g><line x1="593.000000" x2="593.000000" y1="34.000000" y2="74.500000" stroke="#BABDB6" stroke-width="2"/><a xlink:title="A289T"><circle cx="593.000000" cy="34.000000" r="4.000000" fill="#ff0000" /></a><g transform="translate(593.000000,34.000000) rotate(-30)"><text style="font-size:10px;font-family:OpenSans;fill:#555;" text-anchor="middle" x="0" y="-6.000000">A289T</text></g><line x1="599.000000" x2="599.000000" y1="46.500000" y2="74.500000" stroke="#BABDB6" stroke-width="2"/><a xlink:title="T292T"><circle cx="599.000000" cy="46.500000" r="4.000000" fill="#0000ff" /></a><g transform="translate(599.000000,46.500000) rotate(-30)"><text style="font-size:10px;font-family:OpenSans;fill:#555;" text-anchor="middle" x="0" y="-6.000000">T292T</text></g><line x1="649.000000" x2="649.000000" y1="46.500000" y2="74.500000" stroke="#BABDB6" stroke-width="2"/><a xlink:title="T317T"><circle cx="649.000000" cy="46.500000" r="4.000000" fill="#0000ff" /></a><g transform="translate(649.000000,46.500000) rotate(-30)"><text style="font-size:10px;font-family:OpenSans;fill:#555;" text-anchor="middle" x="0" y="-6.000000">T317T</text></g><line x1="1149.000000" x2="1149.000000" y1="46.500000" y2="74.500000" stroke="#BABDB6" stroke-width="2"/><a xlink:title="N567N"><circle cx="1149.000000" cy="46.500000" r="4.000000" fill="#0000ff" /></a><g transform="translate(1149.000000,46.500000) rotate(-30)"><text style="font-size:10px;font-family:OpenSans;fill:#555;" text-anchor="middle" x="0" y="-6.000000">N567N</text></g><line x1="1199.000000" x2="1199.000000" y1="46.500000" y2="74.500000" stroke="#BABDB6" stroke-width="2"/><a xlink:title="N592N"><circle cx="1199.000000" cy="46.500000" r="4.000000" fill="#0000ff" /></a><g transform="translate(1199.000000,46.500000) rotate(-30)"><text style="font-size:10px;font-family:OpenSans;fill:#555;" text-anchor="middle" x="0" y="-6.000000">N592N</text></g><a xlink:title=",  (913aa)"><rect fill="#BABDB6" x="15.000000" y="74.500000" width="1826.000000" height="14.000000"/></a><g transform="translate(1033.000000,69.500000)"><a xlink:href="https://www.ebi.ac.uk/interpro/entry/pfam/PF00400" xlink:title="WD domain, G-beta repeat"><rect fill="#2DCF00" x="0" y="0" width="58.000000" height="24.000000" filter="url(#ds)"/><text style="font-size:12px;font-family:OpenSans;fill:#ffffff;" text-anchor="middle" x="29.000000" y="16.000000">WD40</text></a></g>
<g transform="translate(1217.000000,69.500000)"><a xlink:href="https://www.ebi.ac.uk/interpro/entry/pfam/PF00400" xlink:title="WD domain, G-beta repeat"><rect fill="#FF5353" x="0" y="0" width="64.000000" height="24.000000" filter="url(#ds)"/><text style="font-size:12px;font-family:OpenSans;fill:#ffffff;" text-anchor="middle" x="32.000000" y="16.000000">WD40</text></a></g>
<g transform="translate(1293.000000,69.500000)"><a xlink:href="https://www.ebi.ac.uk/interpro/entry/pfam/PF00400" xlink:title="WD domain, G-beta repeat"><rect fill="#5B5BFF" x="0" y="0" width="74.000000" height="24.000000" filter="url(#ds)"/><text style="font-size:12px;font-family:OpenSans;fill:#ffffff;" text-anchor="middle" x="37.000000" y="16.000000">WD40</text></a></g>
<g transform="translate(1599.000000,69.500000)"><a xlink:href="https://www.ebi.ac.uk/interpro/entry/pfam/PF00400" xlink:title="WD domain, G-beta repeat"><rect fill="#EBD61D" x="0" y="0" width="44.000000" height="24.000000" filter="url(#ds)"/><text style="font-size:12px;font-family:OpenSans;fill:#ffffff;" text-anchor="middle" x="22.000000" y="16.000000">WD40</text></a></g>
<g class="axis">
<line x1="15.000000" x2="1841.000000" y1="103.500000" y2="103.500000" stroke="#AAAAAA" /><line x1="15.000000" x2="15.000000" y1="103.500000" y2="108.500000" stroke="#AAAAAA" /><line x1="15.000000" x2="15.000000" y1="103.500000" y2="108.500000" stroke="#AAAAAA" /><text style="font-size:10px;font-family:OpenSans;fill:#000000;" text-anchor="middle" x="15.000000" y="118.500000">0</text><line x1="113.000000" x2="113.000000" y1="103.500000" y2="108.500000" stroke="#AAAAAA" /><text style="font-size:10px;font-family:OpenSans;fill:#000000;" text-anchor="middle" x="113.000000" y="118.500000">49</text><line x1="373.000000" x2="373.000000" y1="103.500000" y2="108.500000" stroke="#AAAAAA" /><text style="font-size:10px;font-family:OpenSans;fill:#000000;" text-anchor="middle" x="373.000000" y="118.500000">179</text><line x1="423.000000" x2="423.000000" y1="103.500000" y2="108.500000" stroke="#AAAAAA" /><text style="font-size:10px;font-family:OpenSans;fill:#000000;" text-anchor="middle" x="423.000000" y="118.500000">204</text><line x1="543.000000" x2="543.000000" y1="103.500000" y2="108.500000" stroke="#AAAAAA" /><text style="font-size:10px;font-family:OpenSans;fill:#000000;" text-anchor="middle" x="543.000000" y="118.500000">264</text><line x1="593.000000" x2="593.000000" y1="103.500000" y2="108.500000" stroke="#AAAAAA" /><text style="font-size:10px;font-family:OpenSans;fill:#000000;" text-anchor="middle" x="593.000000" y="118.500000">289</text><line x1="649.000000" x2="649.000000" y1="103.500000" y2="108.500000" stroke="#AAAAAA" /><text style="font-size:10px;font-family:OpenSans;fill:#000000;" text-anchor="middle" x="649.000000" y="118.500000">317</text><line x1="1033.000000" x2="1033.000000" y1="103.500000" y2="108.500000" stroke="#AAAAAA" /><text style="font-size:10px;font-family:OpenSans;fill:#000000;" text-anchor="middle" x="1033.000000" y="118.500000">509</text><line x1="1091.000000" x2="1091.000000" y1="103.500000" y2="108.500000" stroke="#AAAAAA" /><text style="font-size:10px;font-family:OpenSans;fill:#000000;" text-anchor="middle" x="1091.000000" y="118.500000">538</text><line x1="1149.000000" x2="1149.000000" y1="103.500000" y2="108.500000" stroke="#AAAAAA" /><text style="font-size:10px;font-family:OpenSans;fill:#000000;" text-anchor="middle" x="1149.000000" y="118.500000">567</text><line x1="1199.000000" x2="1199.000000" y1="103.500000" y2="108.500000" stroke="#AAAAAA" /><text style="font-size:10px;font-family:OpenSans;fill:#000000;" text-anchor="middle" x="1199.000000" y="118.500000">592</text><line x1="1281.000000" x2="1281.000000" y1="103.500000" y2="108.500000" stroke="#AAAAAA" /><text style="font-size:10px;font-family:OpenSans;fill:#000000;" text-anchor="middle" x="1281.000000" y="118.500000">633</text><line x1="1367.000000" x2="1367.000000" y1="103.500000" y2="108.500000" stroke="#AAAAAA" /><text style="font-size:10px;font-family:OpenSans;fill:#000000;" text-anchor="middle" x="1367.000000" y="118.500000">676</text><line x1="1599.000000" x2="1599.000000" y1="103.500000" y2="108.500000" stroke="#AAAAAA" /><text style="font-size:10px;font-family:OpenSans;fill:#000000;" text-anchor="middle" x="1599.000000" y="118.500000">792</text><line x1="1643.000000" x2="1643.000000" y1="103.500000" y2="108.500000" stroke="#AAAAAA" /><text style="font-size:10px;font-family:OpenSans;fill:#000000;" text-anchor="middle" x="1643.000000" y="118.500000">814</text><line x1="1841.000000" x2="1841.000000" y1="103.500000" y2="108.500000" stroke="#AAAAAA" /><text style="font-size:10px;font-family:OpenSans;fill:#000000;" text-anchor="middle" x="1841.000000" y="118.500000">913</text></g>
<rect fill="#EBD61D" x="4" y="132.500000" width="12" height="12" filter="url(#ds)"/><text style="font-size:12px;font-family:OpenSans;fill:#000000;" text-anchor="start" x="20" y="144.500000">WD domain, G-beta repeat</text></svg>
