<?xml version='1.0'?>
<svg xmlns="http://www.w3.org/2000/svg" xmlns:xlink="http://www.w3.org/1999/xlink" width="3740.666667" height="159.400000">
<defs>
  <filter id="ds" x="0" y="0">
    <feOffset in="SourceAlpha" dx="2" dy="2" />
    <feComponentTransfer><feFuncA type="linear" slope="0.2"/></feComponentTransfer>
    <feGaussianBlur result="blurOut" stdDeviation="1" />
    <feBlend in="SourceGraphic" in2="blurOut" mode="normal" />
  </filter>
  <pattern id="disordered-hatch" patternUnits="userSpaceOnUse" width="4" height="4">
    <path d="M-1,1 l2,-2 M0,4 l4,-4 M3,5 l2,-2" stroke="#000000" opacity="0.3" />
  </pattern>
</defs>
<line x1="811.888889" x2="811.888889" y1="34.000000" y2="62.000000" stroke="#BABDB6" stroke-width="2"/><a xlink:title="P326P"><circle cx="811.888889" cy="34.000000" r="4.000000" fill="#0000ff" /></a><g transform="translate(811.888889,34.000000) rotate(-30)"><text style="font-size:10px;font-family:OpenSans;fill:#555;" text-anchor="middle" x="0" y="-6.000000">P326P</text></g><line x1="1369.222222" x2="1369.222222" y1="34.000000" y2="62.000000" stroke="#BABDB6" stroke-width="2"/><a xlink:title="P554P"><circle cx="1369.222222" cy="34.000000" r="4.000000" fill="#0000ff" /></a><g transform="translate(1369.222222,34.000000) rotate(-30)"><text style="font-size:10px;font-family:OpenSans;fill:#555;" text-anchor="middle" x="0" y="-6.000000">P554P</text></g><line x1="1489.000000" x2="1489.000000" y1="34.000000" y2="62.000000" stroke="#BABDB6" stroke-width="2"/><a xlink:title="P603P"><circle cx="1489.000000" cy="34.000000" r="4.000000" fill="#0000ff" /></a><g transform="translate(1489.000000,34.000000) rotate(-30)"><text style="font-size:10px;font-family:OpenSans;fill:#555;" text-anchor="middle" x="0" y="-6.000000">P603P</text></g><line x1="1735.888889" x2="1735.888889" y1="34.000000" y2="62.000000" stroke="#BABDB6" stroke-width="2"/><a xlink:title="P704P"><circle cx="1735.888889" cy="34.000000" r="4.000000" fill="#0000ff" /></a><g transform="translate(1735.888889,34.000000) rotate(-30)"><text style="font-size:10px;font-family:OpenSans;fill:#555;" text-anchor="middle" x="0" y="-6.000000">P704P</text></g><line x1="1826.333333" x2="1826.333333" y1="34.000000" y2="62.000000" stroke="#BABDB6" stroke-width="2"/><a xlink:title="P741P"><circle cx="1826.333333" cy="34.000000" r="4.000000" fill="#0000ff" /></a><g transform="translate(1826.333333,34.000000) rotate(-30)"><text style="font-size:10px;font-family:OpenSans;fill:#555;" text-anchor="middle" x="0" y="-6.000000">P741P</text></g><line x1="2158.777778" x2="2158.777778" y1="34.000000" y2="62.000000" stroke="#BABDB6" stroke-width="2"/><a xlink:title="P877P"><circle cx="2158.777778" cy="34.000000" r="4.000000" fill="#0000ff" /></a><g transform="translate(2158.777778,34.000000) rotate(-30)"><text style="font-size:10px;font-family:OpenSans;fill:#555;" text-anchor="middle" x="0" y="-6.000000">P877P</text></g><line x1="2271.222222" x2="2271.222222" y1="34.000000" y2="62.000000" stroke="#BABDB6" stroke-width="2"/><a xlink:title="P923P"><circle cx="2271.222222" cy="34.000000" r="4.000000" fill="#0000ff" /></a><g transform="translate(2271.222222,34.000000) rotate(-30)"><text style="font-size:10px;font-family:OpenSans;fill:#555;" text-anchor="middle" x="0" y="-6.000000">P923P</text></g><line x1="2361.666667" x2="2361.666667" y1="34.000000" y2="62.000000" stroke="#BABDB6" stroke-width="2"/><a xlink:title="P960P"><circle cx="2361.666667" cy="34.000000" r="4.000000" fill="#0000ff" /></a><g transform="translate(2361.666667,34.000000) rotate(-30)"><text style="font-size:10px;font-family:OpenSans;fill:#555;" text-anchor="middle" x="0" y="-6.000000">P960P</text></g><line x1="2432.555556" x2="2432.555556" y1="34.000000" y2="62.000000" stroke="#BABDB6" stroke-width="2"/><a xlink:title="P989P"><circle cx="2432.555556" cy="34.000000" r="4.000000" fill="#0000ff" /></a><g transform="translate(2432.555556,34.000000) rotate(-30)"><text style="font-size:10px;font-family:OpenSans;fill:#555;" text-anchor="middle" x="0" y="-6.000000">P989P</text></g><line x1="2444.777778" x2="2444.777778" y1="34.000000" y2="62.000000" stroke="#BABDB6" stroke-width="2"/><a xlink:title="P994P"><circle cx="2444.777778" cy="34.000000" r="4.000000" fill="#0000ff" /></a><g transform="translate(2444.777778,34.000000) rotate(-30)"><text style="font-size:10px;font-family:OpenSans;fill:#555;" text-anchor="middle" x="0" y="-6.000000">P994P</text></g><line x1="2545.000000" x2="2545.000000" y1="34.000000" y2="62.000000" stroke="#BABDB6" stroke-width="2"/><a xlink:title="P1035P"><circle cx="2545.000000" cy="34.000000" r="4.000000" fill="#0000ff" /></a><g transform="translate(2545.000000,34.000000) rotate(-30)"><text style="font-size:10px;font-family:OpenSans;fill:#555;" text-anchor="middle" x="0" y="-6.000000">P1035P</text></g><line x1="2557.222222" x2="2557.222222" y1="34.000000" y2="62.000000" stroke="#BABDB6" stroke-width="2"/><a xlink:title="P1040P"><circle cx="2557.222222" cy="34.000000" r="4.000000" fill="#0000ff" /></a><g transform="translate(2557.222222,34.000000) rotate(-30)"><text style="font-size:10px;font-family:OpenSans;fill:#555;" text-anchor="middle" x="0" y="-6.000000">P1040P</text></g><line x1="2635.444444" x2="2635.444444" y1="34.000000" y2="62.000000" stroke="#BABDB6" stroke-width="2"/><a xlink:title="P1072P"><circle cx="2635.444444" cy="34.000000" r="4.000000" fill="#0000ff" /></a><g transform="translate(2635.444444,34.000000) rotate(-30)"><text style="font-size:10px;font-family:OpenSans;fill:#555;" text-anchor="middle" x="0" y="-6.000000">P1072P</text></g><line x1="2647.666667" x2="2647.666667" y1="34.000000" y2="62.000000" stroke="#BABDB6" stroke-width="2"/><a xlink:title="P1077P"><circle cx="2647.666667" cy="34.000000" r="4.000000" fill="#0000ff" /></a><g transform="translate(2647.666667,34.000000) rotate(-30)"><text style="font-size:10px;font-family:OpenSans;fill:#555;" text-anchor="middle" x="0" y="-6.000000">P1077P</text></g><a xlink:title=",  (1518aa)"><rect fill="#BABDB6" x="15.000000" y="62.000000" width="3710.666667" height="14.000000"/></a><g transform="translate(266.777778,57.000000)"><a xlink:href="https://www.ebi.ac.uk/interpro/entry/pfam/PF00400" xlink:title="WD domain, G-beta repeat"><rect fill="#2DCF00" x="0" y="0" width="92.888889" height="24.000000" filter="url(#ds)"/><text style="font-size:12px;font-family:OpenSans;fill:#ffffff;" text-anchor="middle" x="46.444444" y="16.000000">WD40</text></a></g>
<g transform="translate(374.333333,57.000000)"><a xlink:href="https://www.ebi.ac.uk/interpro/entry/pfam/PF00400" xlink:title="WD domain, G-beta repeat"><rect fill="#FF5353" x="0" y="0" width="92.888889" height="24.000000" filter="url(#ds)"/><text style="font-size:12px;font-family:OpenSans;fill:#ffffff;" text-anchor="middle" x="46.444444" y="16.000000">WD40</text></a></g>
<g transform="translate(1049.000000,57.000000)"><a xlink:href="https://www.ebi.ac.uk/interpro/entry/pfam/PF00400" xlink:title="WD domain, G-beta repeat"><rect fill="#5B5BFF" x="0" y="0" width="44.000000" height="24.000000" filter="url(#ds)"/><text style="font-size:12px;font-family:OpenSans;fill:#ffffff;" text-anchor="middle" x="22.000000" y="16.000000">WD40</text></a></g>
<g transform="translate(1222.555556,57.000000)"><a xlink:href="https://www.ebi.ac.uk/interpro/entry/pfam/PF00400" xlink:title="WD domain, G-beta repeat"><rect fill="#EBD61D" x="0" y="0" width="58.666667" height="24.000000" filter="url(#ds)"/><text style="font-size:12px;font-family:OpenSans;fill:#ffffff;" text-anchor="middle" x="29.333333" y="16.000000">WD40</text></a></g>
<g transform="translate(1413.222222,57.000000)"><a xlink:href="https://www.ebi.ac.uk/interpro/entry/pfam/PF00400" xlink:title="WD domain, G-beta repeat"><rect fill="#BA21E0" x="0" y="0" width="83.111111" height="24.000000" filter="url(#ds)"/><text style="font-size:12px;font-family:OpenSans;fill:#ffffff;" text-anchor="middle" x="41.555556" y="16.000000">WD40</text></a></g>
<g transform="translate(1586.777778,57.000000)"><a xlink:href="https://www.ebi.ac.uk/interpro/entry/pfam/PF12894" xlink:title="Anaphase-promoting complex subunit 4 WD40 domain"><rect fill="#FF9C42" x="0" y="0" width="200.444444" height="24.000000" filter="url(#ds)"/><text style="font-size:12px;font-family:OpenSans;fill:#ffffff;" text-anchor="middle" x="100.222222" y="16.000000">ANAPC4_WD40</text></a></g>
<g class="axis">
<line x1="15.000000" x2="3725.666667" y1="91.000000" y2="91.000000" stroke="#AAAAAA" /><line x1="15.000000" x2="15.000000" y1="91.000000" y2="96.000000" stroke="#AAAAAA" /><line x1="15.000000" x2="15.000000" y1="91.000000" y2="96.000000" stroke="#AAAAAA" /><text style="font-size:10px;font-family:OpenSans;fill:#000000;" text-anchor="middle" x="15.000000" y="106.000000">0</text><line x1="266.777778" x2="266.777778" y1="91.000000" y2="96.000000" stroke="#AAAAAA" /><text style="font-size:10px;font-family:OpenSans;fill:#000000;" text-anchor="middle" x="266.777778" y="106.000000">103</text><line x1="359.666667" x2="359.666667" y1="91.000000" y2="96.000000" stroke="#AAAAAA" /><text style="font-size:10px;font-family:OpenSans;fill:#000000;" text-anchor="middle" x="359.666667" y="106.000000">141</text><line x1="467.222222" x2="467.222222" y1="91.000000" y2="96.000000" stroke="#AAAAAA" /><text style="font-size:10px;font-family:OpenSans;fill:#000000;" text-anchor="middle" x="467.222222" y="106.000000">185</text><line x1="811.888889" x2="811.888889" y1="91.000000" y2="96.000000" stroke="#AAAAAA" /><text style="font-size:10px;font-family:OpenSans;fill:#000000;" text-anchor="middle" x="811.888889" y="106.000000">326</text><line x1="1049.000000" x2="1049.000000" y1="91.000000" y2="96.000000" stroke="#AAAAAA" /><text style="font-size:10px;font-family:OpenSans;fill:#000000;" text-anchor="middle" x="1049.000000" y="106.000000">423</text><line x1="1093.000000" x2="1093.000000" y1="91.000000" y2="96.000000" stroke="#AAAAAA" /><text style="font-size:10px;font-family:OpenSans;fill:#000000;" text-anchor="middle" x="1093.000000" y="106.000000">441</text><line x1="1222.555556" x2="1222.555556" y1="91.000000" y2="96.000000" stroke="#AAAAAA" /><text style="font-size:10px;font-family:OpenSans;fill:#000000;" text-anchor="middle" x="1222.555556" y="106.000000">494</text><line x1="1281.222222" x2="1281.222222" y1="91.000000" y2="96.000000" stroke="#AAAAAA" /><text style="font-size:10px;font-family:OpenSans;fill:#000000;" text-anchor="middle" x="1281.222222" y="106.000000">518</text><line x1="1369.222222" x2="1369.222222" y1="91.000000" y2="96.000000" stroke="#AAAAAA" /><text style="font-size:10px;font-family:OpenSans;fill:#000000;" text-anchor="middle" x="1369.222222" y="106.000000">554</text><line x1="1413.222222" x2="1413.222222" y1="91.000000" y2="96.000000" stroke="#AAAAAA" /><text style="font-size:10px;font-family:OpenSans;fill:#000000;" text-anchor="middle" x="1413.222222" y="106.000000">572</text><line x1="1489.000000" x2="1489.000000" y1="91.000000" y2="96.000000" stroke="#AAAAAA" /><text style="font-size:10px;font-family:OpenSans;fill:#000000;" text-anchor="middle" x="1489.000000" y="106.000000">603</text><line x1="1586.777778" x2="1586.777778" y1="91.000000" y2="96.000000" stroke="#AAAAAA" /><text style="font-size:10px;font-family:OpenSans;fill:#000000;" text-anchor="middle" x="1586.777778" y="106.000000">643</text><line x1="1735.888889" x2="1735.888889" y1="91.000000" y2="96.000000" stroke="#AAAAAA" /><text style="font-size:10px;font-family:OpenSans;fill:#000000;" text-anchor="middle" x="1735.888889" y="106.000000">704</text><line x1="1787.222222" x2="1787.222222" y1="91.000000" y2="96.000000" stroke="#AAAAAA" /><text style="font-size:10px;font-family:OpenSans;fill:#000000;" text-anchor="middle" x="1787.222222" y="106.000000">725</text><line x1="1826.333333" x2="1826.333333" y1="91.000000" y2="96.000000" stroke="#AAAAAA" /><text style="font-size:10px;font-family:OpenSans;fill:#000000;" text-anchor="middle" x="1826.333333" y="106.000000">741</text><line x1="2158.777778" x2="2158.777778" y1="91.000000" y2="96.000000" stroke="#AAAAAA" /><text style="font-size:10px;font-family:OpenSans;fill:#000000;" text-anchor="middle" x="2158.777778" y="106.000000">877</text><line x1="2271.222222" x2="2271.222222" y1="91.000000" y2="96.000000" stroke="#AAAAAA" /><text style="font-size:10px;font-family:OpenSans;fill:#000000;" text-anchor="middle" x="2271.222222" y="106.000000">923</text><line x1="2361.666667" x2="2361.666667" y1="91.000000" y2="96.000000" stroke="#AAAAAA" /><text style="font-size:10px;font-family:OpenSans;fill:#000000;" text-anchor="middle" x="2361.666667" y="106.000000">960</text><line x1="2432.555556" x2="2432.555556" y1="91.000000" y2="96.000000" stroke="#AAAAAA" /><text style="font-size:10px;font-family:OpenSans;fill:#000000;" text-anchor="middle" x="2432.555556" y="106.000000">989</text><line x1="2545.000000" x2="2545.000000" y1="91.000000" y2="96.000000" stroke="#AAAAAA" /><text style="font-size:10px;font-family:OpenSans;fill:#000000;" text-anchor="middle" x="2545.000000" y="106.000000">1035</text><line x1="2635.444444" x2="2635.444444" y1="91.000000" y2="96.000000" stroke="#AAAAAA" /><text style="font-size:10px;font-family:OpenSans;fill:#000000;" text-anchor="middle" x="2635.444444" y="106.000000">1072</text><line x1="3725.666667" x2="3725.666667" y1="91.000000" y2="96.000000" stroke="#AAAAAA" /><text style="font-size:10px;font-family:OpenSans;fill:#000000;" text-anchor="middle" x="3725.666667" y="106.000000">1518</text></g>
<rect fill="#FF9C42" x="4" y="120.000000" width="12" height="12" filter="url(#ds)"/><text style="font-size:12px;font-family:OpenSans;fill:#000000;" text-anchor="start" x="20" y="132.000000">Anaphase-promoting complex subunit 4 WD40 domain</text><rect fill="#BA21E0" x="4" y="134.000000" width="12" height="12" filter="url(#ds)"/><text style="font-size:12px;font-family:OpenSans;fill:#000000;" text-anchor="start" x="20" y="146.000000">WD domain, G-beta repeat</text></svg>
