<?xml version='1.0'?>
<svg xmlns="http://www.w3.org/2000/svg" xmlns:xlink="http://www.w3.org/1999/xlink" width="1079.172414" height="158.700000">
<defs>
  <filter id="ds" x="0" y="0">
    <feOffset in="SourceAlpha" dx="2" dy="2" />
    <feComponentTransfer><feFuncA type="linear" slope="0.2"/></feComponentTransfer>
    <feGaussianBlur result="blurOut" stdDeviation="1" />
    <feBlend in="SourceGraphic" in2="blurOut" mode="normal" />
  </filter>
  <pattern id="disordered-hatch" patternUnits="userSpaceOnUse" width="4" height="4">
    <path d="M-1,1 l2,-2 M0,4 l4,-4 M3,5 l2,-2" stroke="#000000" opacity="0.3" />
  </pattern>
</defs>
<line x1="271.034483" x2="271.034483" y1="46.500000" y2="74.500000" stroke="#BABDB6" stroke-width="2"/><a xlink:title="T225T"><circle cx="271.034483" cy="46.500000" r="4.000000" fill="#0000ff" /></a><g transform="translate(271.034483,46.500000) rotate(-30)"><text style="font-size:10px;font-family:OpenSans;fill:#555;" text-anchor="middle" x="0" y="-6.000000">T225T</text></g><line x1="473.586207" x2="473.586207" y1="34.000000" y2="74.500000" stroke="#BABDB6" stroke-width="2"/><a xlink:title="T403T"><circle cx="473.586207" cy="34.000000" r="4.000000" fill="#0000ff" /></a><g transform="translate(473.586207,34.000000) rotate(-30)"><text style="font-size:10px;font-family:OpenSans;fill:#555;" text-anchor="middle" x="0" y="-6.000000">T403T</text></g><line x1="474.724138" x2="474.724138" y1="46.500000" y2="74.500000" stroke="#BABDB6" stroke-width="2"/><a xlink:title="T404T"><circle cx="474.724138" cy="46.500000" r="4.000000" fill="#0000ff" /></a><g transform="translate(474.724138,46.500000) rotate(-30)"><text style="font-size:10px;font-family:OpenSans;fill:#555;" text-anchor="middle" x="0" y="-6.000000">T404T</text></g><a xlink:title=",  (922aa)"><rect fill="#BABDB6" x="15.000000" y="74.500000" width="1049.172414" height="14.000000"/></a><g transform="translate(36.620690,69.500000)"><a xlink:href="https://www.ebi.ac.uk/interpro/entry/pfam/PF00168" xlink:title="C2 domain"><rect fill="#2DCF00" x="0" y="0" width="99.000000" height="24.000000" filter="url(#ds)"/><text style="font-size:12px;font-family:OpenSans;fill:#ffffff;" text-anchor="middle" x="49.500000" y="16.000000">C2 domain</text></a></g>
<g transform="translate(414.413793,69.500000)"><a xlink:href="https://www.ebi.ac.uk/interpro/entry/pfam/PF00397" xlink:title="WW domain"><rect fill="#FF5353" x="0" y="0" width="33.000000" height="24.000000" filter="url(#ds)"/><text style="font-size:12px;font-family:OpenSans;fill:#ffffff;" text-anchor="middle" x="16.500000" y="16.000000">WW</text></a></g>
<g transform="translate(450.827586,69.500000)"><a xlink:href="https://www.ebi.ac.uk/interpro/entry/pfam/PF00397" xlink:title="WW domain"><rect fill="#5B5BFF" x="0" y="0" width="33.000000" height="24.000000" filter="url(#ds)"/><text style="font-size:12px;font-family:OpenSans;fill:#ffffff;" text-anchor="middle" x="16.500000" y="16.000000">WW</text></a></g>
<g transform="translate(536.172414,69.500000)"><a xlink:href="https://www.ebi.ac.uk/interpro/entry/pfam/PF00397" xlink:title="WW domain"><rect fill="#EBD61D" x="0" y="0" width="33.000000" height="24.000000" filter="url(#ds)"/><text style="font-size:12px;font-family:OpenSans;fill:#ffffff;" text-anchor="middle" x="16.500000" y="16.000000">WW</text></a></g>
<g transform="translate(581.689655,69.500000)"><a xlink:href="https://www.ebi.ac.uk/interpro/entry/pfam/PF00397" xlink:title="WW domain"><rect fill="#BA21E0" x="0" y="0" width="33.000000" height="24.000000" filter="url(#ds)"/><text style="font-size:12px;font-family:OpenSans;fill:#ffffff;" text-anchor="middle" x="16.500000" y="16.000000">WW</text></a></g>
<g transform="translate(718.241379,69.500000)"><a xlink:href="https://www.ebi.ac.uk/interpro/entry/pfam/PF00632" xlink:title="HECT-domain (ubiquitin-transferase)"><rect fill="#FF9C42" x="0" y="0" width="343.655172" height="24.000000" filter="url(#ds)"/><text style="font-size:12px;font-family:OpenSans;fill:#ffffff;" text-anchor="middle" x="171.827586" y="16.000000">HECT-domain (ubiquitin-transferase)</text></a></g>
<g class="axis">
<line x1="15.000000" x2="1064.172414" y1="103.500000" y2="103.500000" stroke="#AAAAAA" /><line x1="15.000000" x2="15.000000" y1="103.500000" y2="108.500000" stroke="#AAAAAA" /><line x1="15.000000" x2="15.000000" y1="103.500000" y2="108.500000" stroke="#AAAAAA" /><text style="font-size:10px;font-family:OpenSans;fill:#000000;" text-anchor="middle" x="15.000000" y="118.500000">0</text><line x1="36.620690" x2="36.620690" y1="103.500000" y2="108.500000" stroke="#AAAAAA" /><text style="font-size:10px;font-family:OpenSans;fill:#000000;" text-anchor="middle" x="36.620690" y="118.500000">19</text><line x1="135.620690" x2="135.620690" y1="103.500000" y2="108.500000" stroke="#AAAAAA" /><text style="font-size:10px;font-family:OpenSans;fill:#000000;" text-anchor="middle" x="135.620690" y="118.500000">106</text><line x1="271.034483" x2="271.034483" y1="103.500000" y2="108.500000" stroke="#AAAAAA" /><text style="font-size:10px;font-family:OpenSans;fill:#000000;" text-anchor="middle" x="271.034483" y="118.500000">225</text><line x1="414.413793" x2="414.413793" y1="103.500000" y2="108.500000" stroke="#AAAAAA" /><text style="font-size:10px;font-family:OpenSans;fill:#000000;" text-anchor="middle" x="414.413793" y="118.500000">351</text><line x1="447.413793" x2="447.413793" y1="103.500000" y2="108.500000" stroke="#AAAAAA" /><text style="font-size:10px;font-family:OpenSans;fill:#000000;" text-anchor="middle" x="447.413793" y="118.500000">380</text><line x1="473.586207" x2="473.586207" y1="103.500000" y2="108.500000" stroke="#AAAAAA" /><text style="font-size:10px;font-family:OpenSans;fill:#000000;" text-anchor="middle" x="473.586207" y="118.500000">403</text><line x1="536.172414" x2="536.172414" y1="103.500000" y2="108.500000" stroke="#AAAAAA" /><text style="font-size:10px;font-family:OpenSans;fill:#000000;" text-anchor="middle" x="536.172414" y="118.500000">458</text><line x1="569.172414" x2="569.172414" y1="103.500000" y2="108.500000" stroke="#AAAAAA" /><text style="font-size:10px;font-family:OpenSans;fill:#000000;" text-anchor="middle" x="569.172414" y="118.500000">487</text><line x1="614.689655" x2="614.689655" y1="103.500000" y2="108.500000" stroke="#AAAAAA" /><text style="font-size:10px;font-family:OpenSans;fill:#000000;" text-anchor="middle" x="614.689655" y="118.500000">527</text><line x1="718.241379" x2="718.241379" y1="103.500000" y2="108.500000" stroke="#AAAAAA" /><text style="font-size:10px;font-family:OpenSans;fill:#000000;" text-anchor="middle" x="718.241379" y="118.500000">618</text><line x1="1064.172414" x2="1064.172414" y1="103.500000" y2="108.500000" stroke="#AAAAAA" /><text style="font-size:10px;font-family:OpenSans;fill:#000000;" text-anchor="middle" x="1064.172414" y="118.500000">922</text></g>
<rect fill="#BA21E0" x="4" y="132.500000" width="12" height="12" filter="url(#ds)"/><text style="font-size:12px;font-family:OpenSans;fill:#000000;" text-anchor="start" x="20" y="144.500000">WW domain</text></svg>
