<?xml version='1.0'?>
<svg xmlns="http://www.w3.org/2000/svg" xmlns:xlink="http://www.w3.org/1999/xlink" width="1064.647059" height="171.900000">
<defs>
  <filter id="ds" x="0" y="0">
    <feOffset in="SourceAlpha" dx="2" dy="2" />
    <feComponentTransfer><feFuncA type="linear" slope="0.2"/></feComponentTransfer>
    <feGaussianBlur result="blurOut" stdDeviation="1" />
    <feBlend in="SourceGraphic" in2="blurOut" mode="normal" />
  </filter>
  <pattern id="disordered-hatch" patternUnits="userSpaceOnUse" width="4" height="4">
    <path d="M-1,1 l2,-2 M0,4 l4,-4 M3,5 l2,-2" stroke="#000000" opacity="0.3" />
  </pattern>
</defs>
<line x1="145.235294" x2="145.235294" y1="46.500000" y2="74.500000" stroke="#BABDB6" stroke-width="2"/><a xlink:title="A54T"><circle cx="145.235294" cy="46.500000" r="4.000000" fill="#ff0000" /></a><g transform="translate(145.235294,46.500000) rotate(-30)"><text style="font-size:10px;font-family:OpenSans;fill:#555;" text-anchor="middle" x="0" y="-6.000000">A54T</text></g><line x1="205.529412" x2="205.529412" y1="46.500000" y2="74.500000" stroke="#BABDB6" stroke-width="2"/><a xlink:title="D79H"><circle cx="205.529412" cy="46.500000" r="4.000000" fill="#ff0000" /></a><g transform="translate(205.529412,46.500000) rotate(-30)"><text style="font-size:10px;font-family:OpenSans;fill:#555;" text-anchor="middle" x="0" y="-6.000000">D79H</text></g><line x1="326.117647" x2="326.117647" y1="46.500000" y2="74.500000" stroke="#BABDB6" stroke-width="2"/><a xlink:title="A129T"><circle cx="326.117647" cy="46.500000" r="4.000000" fill="#ff0000" /></a><g transform="translate(326.117647,46.500000) rotate(-30)"><text style="font-size:10px;font-family:OpenSans;fill:#555;" text-anchor="middle" x="0" y="-6.000000">A129T</text></g><line x1="386.411765" x2="386.411765" y1="46.500000" y2="74.500000" stroke="#BABDB6" stroke-width="2"/><a xlink:title="D154H"><circle cx="386.411765" cy="46.500000" r="4.000000" fill="#ff0000" /></a><g transform="translate(386.411765,46.500000) rotate(-30)"><text style="font-size:10px;font-family:OpenSans;fill:#555;" text-anchor="middle" x="0" y="-6.000000">D154H</text></g><line x1="410.529412" x2="410.529412" y1="34.000000" y2="74.500000" stroke="#BABDB6" stroke-width="2"/><a xlink:title="P164S"><circle cx="410.529412" cy="34.000000" r="4.000000" fill="#ff0000" /></a><g transform="translate(410.529412,34.000000) rotate(-30)"><text style="font-size:10px;font-family:OpenSans;fill:#555;" text-anchor="middle" x="0" y="-6.000000">P164S</text></g><line x1="412.941176" x2="412.941176" y1="46.500000" y2="74.500000" stroke="#BABDB6" stroke-width="2"/><a xlink:title="P165P"><circle cx="412.941176" cy="46.500000" r="4.000000" fill="#0000ff" /></a><g transform="translate(412.941176,46.500000) rotate(-30)"><text style="font-size:10px;font-family:OpenSans;fill:#555;" text-anchor="middle" x="0" y="-6.000000">P165P</text></g><line x1="470.823529" x2="470.823529" y1="46.500000" y2="74.500000" stroke="#BABDB6" stroke-width="2"/><a xlink:title="A189S"><circle cx="470.823529" cy="46.500000" r="4.000000" fill="#ff0000" /></a><g transform="translate(470.823529,46.500000) rotate(-30)"><text style="font-size:10px;font-family:OpenSans;fill:#555;" text-anchor="middle" x="0" y="-6.000000">A189S</text></g><line x1="591.411765" x2="591.411765" y1="34.000000" y2="74.500000" stroke="#BABDB6" stroke-width="2"/><a xlink:title="P239S"><circle cx="591.411765" cy="34.000000" r="4.000000" fill="#ff0000" /></a><g transform="translate(591.411765,34.000000) rotate(-30)"><text style="font-size:10px;font-family:OpenSans;fill:#555;" text-anchor="middle" x="0" y="-6.000000">P239S</text></g><line x1="593.823529" x2="593.823529" y1="46.500000" y2="74.500000" stroke="#BABDB6" stroke-width="2"/><a xlink:title="P240P"><circle cx="593.823529" cy="46.500000" r="4.000000" fill="#0000ff" /></a><g transform="translate(593.823529,46.500000) rotate(-30)"><text style="font-size:10px;font-family:OpenSans;fill:#555;" text-anchor="middle" x="0" y="-6.000000">P240P</text></g><line x1="601.058824" x2="601.058824" y1="34.000000" y2="74.500000" stroke="#BABDB6" stroke-width="2"/><a xlink:title="A243S"><circle cx="601.058824" cy="34.000000" r="4.000000" fill="#ff0000" /></a><g transform="translate(601.058824,34.000000) rotate(-30)"><text style="font-size:10px;font-family:OpenSans;fill:#555;" text-anchor="middle" x="0" y="-6.000000">A243S</text></g><line x1="603.470588" x2="603.470588" y1="46.500000" y2="74.500000" stroke="#BABDB6" stroke-width="2"/><a xlink:title="A244S"><circle cx="603.470588" cy="46.500000" r="4.000000" fill="#ff0000" /></a><g transform="translate(603.470588,46.500000) rotate(-30)"><text style="font-size:10px;font-family:OpenSans;fill:#555;" text-anchor="middle" x="0" y="-6.000000">A244S</text></g><line x1="781.941176" x2="781.941176" y1="34.000000" y2="74.500000" stroke="#BABDB6" stroke-width="2"/><a xlink:title="A318S"><circle cx="781.941176" cy="34.000000" r="4.000000" fill="#ff0000" /></a><g transform="translate(781.941176,34.000000) rotate(-30)"><text style="font-size:10px;font-family:OpenSans;fill:#555;" text-anchor="middle" x="0" y="-6.000000">A318S</text></g><line x1="784.352941" x2="784.352941" y1="46.500000" y2="74.500000" stroke="#BABDB6" stroke-width="2"/><a xlink:title="A319S"><circle cx="784.352941" cy="46.500000" r="4.000000" fill="#ff0000" /></a><g transform="translate(784.352941,46.500000) rotate(-30)"><text style="font-size:10px;font-family:OpenSans;fill:#555;" text-anchor="middle" x="0" y="-6.000000">A319S</text></g><a xlink:title=",  (429aa)"><rect fill="#BABDB6" x="15.000000" y="74.500000" width="1034.647059" height="14.000000"/></a><g transform="translate(51.176471,69.500000)"><a xlink:href="https://www.ebi.ac.uk/interpro/entry/pfam/PF02295" xlink:title="Adenosine deaminase z-alpha domain"><rect fill="#2DCF00" x="0" y="0" width="106.117647" height="24.000000" filter="url(#ds)"/><text style="font-size:12px;font-family:OpenSans;fill:#ffffff;" text-anchor="middle" x="53.058824" y="16.000000">z-alpha</text></a></g>
<g transform="translate(492.529412,69.500000)"><a xlink:href="https://www.ebi.ac.uk/interpro/entry/pfam/PF12721" xlink:title="RIP homotypic interaction motif"><rect fill="#FF5353" x="0" y="0" width="41.000000" height="24.000000" filter="url(#ds)"/><text style="font-size:12px;font-family:OpenSans;fill:#ffffff;" text-anchor="middle" x="20.500000" y="16.000000">RHIM</text></a></g>
<g class="axis">
<line x1="15.000000" x2="1049.647059" y1="103.500000" y2="103.500000" stroke="#AAAAAA" /><line x1="15.000000" x2="15.000000" y1="103.500000" y2="108.500000" stroke="#AAAAAA" /><line x1="15.000000" x2="15.000000" y1="103.500000" y2="108.500000" stroke="#AAAAAA" /><text style="font-size:10px;font-family:OpenSans;fill:#000000;" text-anchor="middle" x="15.000000" y="118.500000">0</text><line x1="51.176471" x2="51.176471" y1="103.500000" y2="108.500000" stroke="#AAAAAA" /><text style="font-size:10px;font-family:OpenSans;fill:#000000;" text-anchor="middle" x="51.176471" y="118.500000">15</text><line x1="145.235294" x2="145.235294" y1="103.500000" y2="108.500000" stroke="#AAAAAA" /><text style="font-size:10px;font-family:OpenSans;fill:#000000;" text-anchor="middle" x="145.235294" y="118.500000">54</text><line x1="205.529412" x2="205.529412" y1="103.500000" y2="108.500000" stroke="#AAAAAA" /><text style="font-size:10px;font-family:OpenSans;fill:#000000;" text-anchor="middle" x="205.529412" y="118.500000">79</text><line x1="326.117647" x2="326.117647" y1="103.500000" y2="108.500000" stroke="#AAAAAA" /><text style="font-size:10px;font-family:OpenSans;fill:#000000;" text-anchor="middle" x="326.117647" y="118.500000">129</text><line x1="386.411765" x2="386.411765" y1="103.500000" y2="108.500000" stroke="#AAAAAA" /><text style="font-size:10px;font-family:OpenSans;fill:#000000;" text-anchor="middle" x="386.411765" y="118.500000">154</text><line x1="410.529412" x2="410.529412" y1="103.500000" y2="108.500000" stroke="#AAAAAA" /><text style="font-size:10px;font-family:OpenSans;fill:#000000;" text-anchor="middle" x="410.529412" y="118.500000">164</text><line x1="470.823529" x2="470.823529" y1="103.500000" y2="108.500000" stroke="#AAAAAA" /><text style="font-size:10px;font-family:OpenSans;fill:#000000;" text-anchor="middle" x="470.823529" y="118.500000">189</text><line x1="492.529412" x2="492.529412" y1="103.500000" y2="108.500000" stroke="#AAAAAA" /><text style="font-size:10px;font-family:OpenSans;fill:#000000;" text-anchor="middle" x="492.529412" y="118.500000">198</text><line x1="533.529412" x2="533.529412" y1="103.500000" y2="108.500000" stroke="#AAAAAA" /><text style="font-size:10px;font-family:OpenSans;fill:#000000;" text-anchor="middle" x="533.529412" y="118.500000">215</text><line x1="591.411765" x2="591.411765" y1="103.500000" y2="108.500000" stroke="#AAAAAA" /><text style="font-size:10px;font-family:OpenSans;fill:#000000;" text-anchor="middle" x="591.411765" y="118.500000">239</text><line x1="781.941176" x2="781.941176" y1="103.500000" y2="108.500000" stroke="#AAAAAA" /><text style="font-size:10px;font-family:OpenSans;fill:#000000;" text-anchor="middle" x="781.941176" y="118.500000">318</text><line x1="1049.647059" x2="1049.647059" y1="103.500000" y2="108.500000" stroke="#AAAAAA" /><text style="font-size:10px;font-family:OpenSans;fill:#000000;" text-anchor="middle" x="1049.647059" y="118.500000">429</text></g>
<rect fill="#2DCF00" x="4" y="132.500000" width="12" height="12" filter="url(#ds)"/><text style="font-size:12px;font-family:OpenSans;fill:#000000;" text-anchor="start" x="20" y="144.500000">Adenosine deaminase z-alpha domain</text><rect fill="#FF5353" x="4" y="146.500000" width="12" height="12" filter="url(#ds)"/><text style="font-size:12px;font-family:OpenSans;fill:#000000;" text-anchor="start" x="20" y="158.500000">RIP homotypic interaction motif</text></svg>
