<?xml version='1.0'?>
<svg xmlns="http://www.w3.org/2000/svg" xmlns:xlink="http://www.w3.org/1999/xlink" width="1848.818182" height="146.200000">
<defs>
  <filter id="ds" x="0" y="0">
    <feOffset in="SourceAlpha" dx="2" dy="2" />
    <feComponentTransfer><feFuncA type="linear" slope="0.2"/></feComponentTransfer>
    <feGaussianBlur result="blurOut" stdDeviation="1" />
    <feBlend in="SourceGraphic" in2="blurOut" mode="normal" />
  </filter>
  <pattern id="disordered-hatch" patternUnits="userSpaceOnUse" width="4" height="4">
    <path d="M-1,1 l2,-2 M0,4 l4,-4 M3,5 l2,-2" stroke="#000000" opacity="0.3" />
  </pattern>
</defs>
<line x1="24.818182" x2="24.818182" y1="34.000000" y2="62.000000" stroke="#BABDB6" stroke-width="2"/><a xlink:title="R4Q"><circle cx="24.818182" cy="34.000000" r="4.000000" fill="#ff0000" /></a><g transform="translate(24.818182,34.000000) rotate(-30)"><text style="font-size:10px;font-family:OpenSans;fill:#555;" text-anchor="middle" x="0" y="-6.000000">R4Q</text></g><line x1="137.727273" x2="137.727273" y1="34.000000" y2="62.000000" stroke="#BABDB6" stroke-width="2"/><a xlink:title="H50H"><circle cx="137.727273" cy="34.000000" r="4.000000" fill="#0000ff" /></a><g transform="translate(137.727273,34.000000) rotate(-30)"><text style="font-size:10px;font-family:OpenSans;fill:#555;" text-anchor="middle" x="0" y="-6.000000">H50H</text></g><a xlink:title=",  (741aa)"><rect fill="#BABDB6" x="15.000000" y="62.000000" width="1818.818182" height="14.000000"/></a><g transform="translate(245.727273,57.000000)"><a xlink:href="https://www.ebi.ac.uk/interpro/entry/pfam/PF00651" xlink:title="BTB/POZ domain"><rect fill="#2DCF00" x="0" y="0" width="247.909091" height="24.000000" filter="url(#ds)"/><text style="font-size:12px;font-family:OpenSans;fill:#ffffff;" text-anchor="middle" x="123.954545" y="16.000000">BTB/POZ domain</text></a></g>
<g transform="translate(1433.727273,57.000000)"><a xlink:href="https://www.ebi.ac.uk/interpro/entry/pfam/PF00096" xlink:title="Zinc finger, C2H2 type"><rect fill="#FF5353" x="0" y="0" width="54.000000" height="24.000000" filter="url(#ds)"/><text style="font-size:12px;font-family:OpenSans;fill:#ffffff;" text-anchor="middle" x="27.000000" y="16.000000">zf-C2H2</text></a></g>
<g transform="translate(1502.454545,57.000000)"><a xlink:href="https://www.ebi.ac.uk/interpro/entry/pfam/PF00096" xlink:title="Zinc finger, C2H2 type"><rect fill="#5B5BFF" x="0" y="0" width="54.000000" height="24.000000" filter="url(#ds)"/><text style="font-size:12px;font-family:OpenSans;fill:#ffffff;" text-anchor="middle" x="27.000000" y="16.000000">zf-C2H2</text></a></g>
<g transform="translate(1571.181818,57.000000)"><a xlink:href="https://www.ebi.ac.uk/interpro/entry/pfam/PF00096" xlink:title="Zinc finger, C2H2 type"><rect fill="#EBD61D" x="0" y="0" width="54.000000" height="24.000000" filter="url(#ds)"/><text style="font-size:12px;font-family:OpenSans;fill:#ffffff;" text-anchor="middle" x="27.000000" y="16.000000">zf-C2H2</text></a></g>
<g transform="translate(1639.909091,57.000000)"><a xlink:href="https://www.ebi.ac.uk/interpro/entry/pfam/PF00096" xlink:title="Zinc finger, C2H2 type"><rect fill="#BA21E0" x="0" y="0" width="54.000000" height="24.000000" filter="url(#ds)"/><text style="font-size:12px;font-family:OpenSans;fill:#ffffff;" text-anchor="middle" x="27.000000" y="16.000000">zf-C2H2</text></a></g>
<g transform="translate(1770.000000,57.000000)"><a xlink:href="https://www.ebi.ac.uk/interpro/entry/pfam/PF00096" xlink:title="Zinc finger, C2H2 type"><rect fill="#FF9C42" x="0" y="0" width="54.000000" height="24.000000" filter="url(#ds)"/><text style="font-size:12px;font-family:OpenSans;fill:#ffffff;" text-anchor="middle" x="27.000000" y="16.000000">zf-C2H2</text></a></g>
<g class="axis">
<line x1="15.000000" x2="1833.818182" y1="91.000000" y2="91.000000" stroke="#AAAAAA" /><line x1="15.000000" x2="15.000000" y1="91.000000" y2="96.000000" stroke="#AAAAAA" /><line x1="24.818182" x2="24.818182" y1="91.000000" y2="96.000000" stroke="#AAAAAA" /><text style="font-size:10px;font-family:OpenSans;fill:#000000;" text-anchor="middle" x="24.818182" y="106.000000">4</text><line x1="137.727273" x2="137.727273" y1="91.000000" y2="96.000000" stroke="#AAAAAA" /><text style="font-size:10px;font-family:OpenSans;fill:#000000;" text-anchor="middle" x="137.727273" y="106.000000">50</text><line x1="245.727273" x2="245.727273" y1="91.000000" y2="96.000000" stroke="#AAAAAA" /><text style="font-size:10px;font-family:OpenSans;fill:#000000;" text-anchor="middle" x="245.727273" y="106.000000">94</text><line x1="493.636364" x2="493.636364" y1="91.000000" y2="96.000000" stroke="#AAAAAA" /><text style="font-size:10px;font-family:OpenSans;fill:#000000;" text-anchor="middle" x="493.636364" y="106.000000">195</text><line x1="1433.727273" x2="1433.727273" y1="91.000000" y2="96.000000" stroke="#AAAAAA" /><text style="font-size:10px;font-family:OpenSans;fill:#000000;" text-anchor="middle" x="1433.727273" y="106.000000">578</text><line x1="1487.727273" x2="1487.727273" y1="91.000000" y2="96.000000" stroke="#AAAAAA" /><text style="font-size:10px;font-family:OpenSans;fill:#000000;" text-anchor="middle" x="1487.727273" y="106.000000">600</text><line x1="1556.454545" x2="1556.454545" y1="91.000000" y2="96.000000" stroke="#AAAAAA" /><text style="font-size:10px;font-family:OpenSans;fill:#000000;" text-anchor="middle" x="1556.454545" y="106.000000">628</text><line x1="1625.181818" x2="1625.181818" y1="91.000000" y2="96.000000" stroke="#AAAAAA" /><text style="font-size:10px;font-family:OpenSans;fill:#000000;" text-anchor="middle" x="1625.181818" y="106.000000">656</text><line x1="1693.909091" x2="1693.909091" y1="91.000000" y2="96.000000" stroke="#AAAAAA" /><text style="font-size:10px;font-family:OpenSans;fill:#000000;" text-anchor="middle" x="1693.909091" y="106.000000">684</text><line x1="1770.000000" x2="1770.000000" y1="91.000000" y2="96.000000" stroke="#AAAAAA" /><text style="font-size:10px;font-family:OpenSans;fill:#000000;" text-anchor="middle" x="1770.000000" y="106.000000">715</text><line x1="1833.818182" x2="1833.818182" y1="91.000000" y2="96.000000" stroke="#AAAAAA" /><text style="font-size:10px;font-family:OpenSans;fill:#000000;" text-anchor="middle" x="1833.818182" y="106.000000">741</text></g>
<rect fill="#FF9C42" x="4" y="120.000000" width="12" height="12" filter="url(#ds)"/><text style="font-size:12px;font-family:OpenSans;fill:#000000;" text-anchor="start" x="20" y="132.000000">Zinc finger, C2H2 type</text></svg>
