<?xml version='1.0'?>
<svg xmlns="http://www.w3.org/2000/svg" xmlns:xlink="http://www.w3.org/1999/xlink" width="430.000000" height="183.700000">
<defs>
  <filter id="ds" x="0" y="0">
    <feOffset in="SourceAlpha" dx="2" dy="2" />
    <feComponentTransfer><feFuncA type="linear" slope="0.2"/></feComponentTransfer>
    <feGaussianBlur result="blurOut" stdDeviation="1" />
    <feBlend in="SourceGraphic" in2="blurOut" mode="normal" />
  </filter>
  <pattern id="disordered-hatch" patternUnits="userSpaceOnUse" width="4" height="4">
    <path d="M-1,1 l2,-2 M0,4 l4,-4 M3,5 l2,-2" stroke="#000000" opacity="0.3" />
  </pattern>
</defs>
<line x1="67.398524" x2="67.398524" y1="71.500000" y2="99.500000" stroke="#BABDB6" stroke-width="2"/><a xlink:title="N71K"><circle cx="67.398524" cy="71.500000" r="4.000000" fill="#ff0000" /></a><g transform="translate(67.398524,71.500000) rotate(-30)"><text style="font-size:10px;font-family:OpenSans;fill:#555;" text-anchor="middle" x="0" y="-6.000000">N71K</text></g><line x1="90.276753" x2="90.276753" y1="71.500000" y2="99.500000" stroke="#BABDB6" stroke-width="2"/><a xlink:title="P102P"><circle cx="90.276753" cy="71.500000" r="4.000000" fill="#0000ff" /></a><g transform="translate(90.276753,71.500000) rotate(-30)"><text style="font-size:10px;font-family:OpenSans;fill:#555;" text-anchor="middle" x="0" y="-6.000000">P102P</text></g><line x1="115.369004" x2="115.369004" y1="34.000000" y2="99.500000" stroke="#BABDB6" stroke-width="2"/><a xlink:title="S136N"><circle cx="115.369004" cy="34.000000" r="4.000000" fill="#ff0000" /></a><g transform="translate(115.369004,34.000000) rotate(-30)"><text style="font-size:10px;font-family:OpenSans;fill:#555;" text-anchor="middle" x="0" y="-6.000000">S136N</text></g><line x1="116.107011" x2="116.107011" y1="46.500000" y2="99.500000" stroke="#BABDB6" stroke-width="2"/><a xlink:title="S137Y"><circle cx="116.107011" cy="46.500000" r="4.000000" fill="#ff0000" /></a><g transform="translate(116.107011,46.500000) rotate(-30)"><text style="font-size:10px;font-family:OpenSans;fill:#555;" text-anchor="middle" x="0" y="-6.000000">S137Y</text></g><line x1="117.583026" x2="117.583026" y1="59.000000" y2="99.500000" stroke="#BABDB6" stroke-width="2"/><a xlink:title="D139D"><circle cx="117.583026" cy="59.000000" r="4.000000" fill="#0000ff" /></a><g transform="translate(117.583026,59.000000) rotate(-30)"><text style="font-size:10px;font-family:OpenSans;fill:#555;" text-anchor="middle" x="0" y="-6.000000">D139D</text></g><line x1="120.535055" x2="120.535055" y1="71.500000" y2="99.500000" stroke="#BABDB6" stroke-width="2"/><a xlink:title="P143T"><circle cx="120.535055" cy="71.500000" r="4.000000" fill="#ff0000" /></a><g transform="translate(120.535055,71.500000) rotate(-30)"><text style="font-size:10px;font-family:OpenSans;fill:#555;" text-anchor="middle" x="0" y="-6.000000">P143T</text></g><line x1="141.937269" x2="141.937269" y1="71.500000" y2="99.500000" stroke="#BABDB6" stroke-width="2"/><a xlink:title="D172D"><circle cx="141.937269" cy="71.500000" r="4.000000" fill="#0000ff" /></a><g transform="translate(141.937269,71.500000) rotate(-30)"><text style="font-size:10px;font-family:OpenSans;fill:#555;" text-anchor="middle" x="0" y="-6.000000">D172D</text></g><line x1="164.077491" x2="164.077491" y1="71.500000" y2="99.500000" stroke="#BABDB6" stroke-width="2"/><a xlink:title="S202S"><circle cx="164.077491" cy="71.500000" r="4.000000" fill="#0000ff" /></a><g transform="translate(164.077491,71.500000) rotate(-30)"><text style="font-size:10px;font-family:OpenSans;fill:#555;" text-anchor="middle" x="0" y="-6.000000">S202S</text></g><line x1="196.549815" x2="196.549815" y1="59.000000" y2="99.500000" stroke="#BABDB6" stroke-width="2"/><a xlink:title="S246N"><circle cx="196.549815" cy="59.000000" r="4.000000" fill="#ff0000" /></a><g transform="translate(196.549815,59.000000) rotate(-30)"><text style="font-size:10px;font-family:OpenSans;fill:#555;" text-anchor="middle" x="0" y="-6.000000">S246N</text></g><line x1="198.763838" x2="198.763838" y1="71.500000" y2="99.500000" stroke="#BABDB6" stroke-width="2"/><a xlink:title="A249G"><circle cx="198.763838" cy="71.500000" r="4.000000" fill="#ff0000" /></a><g transform="translate(198.763838,71.500000) rotate(-30)"><text style="font-size:10px;font-family:OpenSans;fill:#555;" text-anchor="middle" x="0" y="-6.000000">A249G</text></g><line x1="220.166052" x2="220.166052" y1="71.500000" y2="99.500000" stroke="#BABDB6" stroke-width="2"/><a xlink:title="D278N"><circle cx="220.166052" cy="71.500000" r="4.000000" fill="#ff0000" /></a><g transform="translate(220.166052,71.500000) rotate(-30)"><text style="font-size:10px;font-family:OpenSans;fill:#555;" text-anchor="middle" x="0" y="-6.000000">D278N</text></g><line x1="305.036900" x2="305.036900" y1="59.000000" y2="99.500000" stroke="#BABDB6" stroke-width="2"/><a xlink:title="P393P"><circle cx="305.036900" cy="59.000000" r="4.000000" fill="#0000ff" /></a><g transform="translate(305.036900,59.000000) rotate(-30)"><text style="font-size:10px;font-family:OpenSans;fill:#555;" text-anchor="middle" x="0" y="-6.000000">P393P</text></g><line x1="305.774908" x2="305.774908" y1="71.500000" y2="99.500000" stroke="#BABDB6" stroke-width="2"/><a xlink:title="Y394Y"><circle cx="305.774908" cy="71.500000" r="4.000000" fill="#0000ff" /></a><g transform="translate(305.774908,71.500000) rotate(-30)"><text style="font-size:10px;font-family:OpenSans;fill:#555;" text-anchor="middle" x="0" y="-6.000000">Y394Y</text></g><line x1="355.221402" x2="355.221402" y1="71.500000" y2="99.500000" stroke="#BABDB6" stroke-width="2"/><a xlink:title="L461L"><circle cx="355.221402" cy="71.500000" r="4.000000" fill="#0000ff" /></a><g transform="translate(355.221402,71.500000) rotate(-30)"><text style="font-size:10px;font-family:OpenSans;fill:#555;" text-anchor="middle" x="0" y="-6.000000">L461L</text></g><line x1="373.671587" x2="373.671587" y1="46.500000" y2="99.500000" stroke="#BABDB6" stroke-width="2"/><a xlink:title="L486F"><circle cx="373.671587" cy="46.500000" r="4.000000" fill="#ff0000" /></a><g transform="translate(373.671587,46.500000) rotate(-30)"><text style="font-size:10px;font-family:OpenSans;fill:#555;" text-anchor="middle" x="0" y="-6.000000">L486F</text></g><line x1="375.147601" x2="375.147601" y1="59.000000" y2="99.500000" stroke="#BABDB6" stroke-width="2"/><a xlink:title="S488C"><circle cx="375.147601" cy="59.000000" r="4.000000" fill="#ff0000" /></a><g transform="translate(375.147601,59.000000) rotate(-30)"><text style="font-size:10px;font-family:OpenSans;fill:#555;" text-anchor="middle" x="0" y="-6.000000">S488C</text></g><line x1="375.147601" x2="375.147601" y1="71.500000" y2="99.500000" stroke="#BABDB6" stroke-width="2"/><a xlink:title="S488R"><circle cx="375.147601" cy="71.500000" r="4.000000" fill="#ff0000" /></a><g transform="translate(375.147601,71.500000) rotate(-30)"><text style="font-size:10px;font-family:OpenSans;fill:#555;" text-anchor="middle" x="0" y="-6.000000">S488R</text></g><line x1="394.335793" x2="394.335793" y1="71.500000" y2="99.500000" stroke="#BABDB6" stroke-width="2"/><a xlink:title="D514D"><circle cx="394.335793" cy="71.500000" r="4.000000" fill="#0000ff" /></a><g transform="translate(394.335793,71.500000) rotate(-30)"><text style="font-size:10px;font-family:OpenSans;fill:#555;" text-anchor="middle" x="0" y="-6.000000">D514D</text></g><a xlink:title=",  (542aa)"><rect fill="#BABDB6" x="15.000000" y="99.500000" width="400.000000" height="14.000000"/></a><g transform="translate(49.686347,94.500000)"><a xlink:href="https://www.ebi.ac.uk/interpro/entry/pfam/PF13836" xlink:title="Domain of unknown function (DUF4195)"><rect fill="#2DCF00" x="0" y="0" width="125.461255" height="24.000000" filter="url(#ds)"/><text style="font-size:12px;font-family:OpenSans;fill:#ffffff;" text-anchor="middle" x="62.730627" y="16.000000">DUF4195</text></a></g>
<g class="axis">
<line x1="15.000000" x2="415.000000" y1="128.500000" y2="128.500000" stroke="#AAAAAA" /><line x1="15.000000" x2="15.000000" y1="128.500000" y2="133.500000" stroke="#AAAAAA" /><line x1="15.000000" x2="15.000000" y1="128.500000" y2="133.500000" stroke="#AAAAAA" /><text style="font-size:10px;font-family:OpenSans;fill:#000000;" text-anchor="middle" x="15.000000" y="143.500000">0</text><line x1="67.398524" x2="67.398524" y1="128.500000" y2="133.500000" stroke="#AAAAAA" /><text style="font-size:10px;font-family:OpenSans;fill:#000000;" text-anchor="middle" x="67.398524" y="143.500000">71</text><line x1="90.276753" x2="90.276753" y1="128.500000" y2="133.500000" stroke="#AAAAAA" /><text style="font-size:10px;font-family:OpenSans;fill:#000000;" text-anchor="middle" x="90.276753" y="143.500000">102</text><line x1="115.369004" x2="115.369004" y1="128.500000" y2="133.500000" stroke="#AAAAAA" /><text style="font-size:10px;font-family:OpenSans;fill:#000000;" text-anchor="middle" x="115.369004" y="143.500000">136</text><line x1="141.937269" x2="141.937269" y1="128.500000" y2="133.500000" stroke="#AAAAAA" /><text style="font-size:10px;font-family:OpenSans;fill:#000000;" text-anchor="middle" x="141.937269" y="143.500000">172</text><line x1="164.077491" x2="164.077491" y1="128.500000" y2="133.500000" stroke="#AAAAAA" /><text style="font-size:10px;font-family:OpenSans;fill:#000000;" text-anchor="middle" x="164.077491" y="143.500000">202</text><line x1="196.549815" x2="196.549815" y1="128.500000" y2="133.500000" stroke="#AAAAAA" /><text style="font-size:10px;font-family:OpenSans;fill:#000000;" text-anchor="middle" x="196.549815" y="143.500000">246</text><line x1="220.166052" x2="220.166052" y1="128.500000" y2="133.500000" stroke="#AAAAAA" /><text style="font-size:10px;font-family:OpenSans;fill:#000000;" text-anchor="middle" x="220.166052" y="143.500000">278</text><line x1="305.036900" x2="305.036900" y1="128.500000" y2="133.500000" stroke="#AAAAAA" /><text style="font-size:10px;font-family:OpenSans;fill:#000000;" text-anchor="middle" x="305.036900" y="143.500000">393</text><line x1="355.221402" x2="355.221402" y1="128.500000" y2="133.500000" stroke="#AAAAAA" /><text style="font-size:10px;font-family:OpenSans;fill:#000000;" text-anchor="middle" x="355.221402" y="143.500000">461</text><line x1="375.147601" x2="375.147601" y1="128.500000" y2="133.500000" stroke="#AAAAAA" /><text style="font-size:10px;font-family:OpenSans;fill:#000000;" text-anchor="middle" x="375.147601" y="143.500000">488</text><line x1="415.000000" x2="415.000000" y1="128.500000" y2="133.500000" stroke="#AAAAAA" /><text style="font-size:10px;font-family:OpenSans;fill:#000000;" text-anchor="middle" x="415.000000" y="143.500000">542</text></g>
<rect fill="#2DCF00" x="4" y="157.500000" width="12" height="12" filter="url(#ds)"/><text style="font-size:12px;font-family:OpenSans;fill:#000000;" text-anchor="start" x="20" y="169.500000">Domain of unknown function (DUF4195)</text></svg>
