<?xml version='1.0'?>
<svg xmlns="http://www.w3.org/2000/svg" xmlns:xlink="http://www.w3.org/1999/xlink" width="1968.000000" height="158.700000">
<defs>
  <filter id="ds" x="0" y="0">
    <feOffset in="SourceAlpha" dx="2" dy="2" />
    <feComponentTransfer><feFuncA type="linear" slope="0.2"/></feComponentTransfer>
    <feGaussianBlur result="blurOut" stdDeviation="1" />
    <feBlend in="SourceGraphic" in2="blurOut" mode="normal" />
  </filter>
  <pattern id="disordered-hatch" patternUnits="userSpaceOnUse" width="4" height="4">
    <path d="M-1,1 l2,-2 M0,4 l4,-4 M3,5 l2,-2" stroke="#000000" opacity="0.3" />
  </pattern>
</defs>
<line x1="324.000000" x2="324.000000" y1="46.500000" y2="74.500000" stroke="#BABDB6" stroke-width="2"/><a xlink:title="S103S"><circle cx="324.000000" cy="46.500000" r="4.000000" fill="#0000ff" /></a><g transform="translate(324.000000,46.500000) rotate(-30)"><text style="font-size:10px;font-family:OpenSans;fill:#555;" text-anchor="middle" x="0" y="-6.000000">S103S</text></g><line x1="594.000000" x2="594.000000" y1="46.500000" y2="74.500000" stroke="#BABDB6" stroke-width="2"/><a xlink:title="Y193Y"><circle cx="594.000000" cy="46.500000" r="4.000000" fill="#0000ff" /></a><g transform="translate(594.000000,46.500000) rotate(-30)"><text style="font-size:10px;font-family:OpenSans;fill:#555;" text-anchor="middle" x="0" y="-6.000000">Y193Y</text></g><line x1="858.000000" x2="858.000000" y1="46.500000" y2="74.500000" stroke="#BABDB6" stroke-width="2"/><a xlink:title="Y281Y"><circle cx="858.000000" cy="46.500000" r="4.000000" fill="#0000ff" /></a><g transform="translate(858.000000,46.500000) rotate(-30)"><text style="font-size:10px;font-family:OpenSans;fill:#555;" text-anchor="middle" x="0" y="-6.000000">Y281Y</text></g><line x1="897.000000" x2="897.000000" y1="46.500000" y2="74.500000" stroke="#BABDB6" stroke-width="2"/><a xlink:title="T294A"><circle cx="897.000000" cy="46.500000" r="4.000000" fill="#ff0000" /></a><g transform="translate(897.000000,46.500000) rotate(-30)"><text style="font-size:10px;font-family:OpenSans;fill:#555;" text-anchor="middle" x="0" y="-6.000000">T294A</text></g><line x1="978.000000" x2="978.000000" y1="34.000000" y2="74.500000" stroke="#BABDB6" stroke-width="2"/><a xlink:title="Y321Y"><circle cx="978.000000" cy="34.000000" r="4.000000" fill="#0000ff" /></a><g transform="translate(978.000000,34.000000) rotate(-30)"><text style="font-size:10px;font-family:OpenSans;fill:#555;" text-anchor="middle" x="0" y="-6.000000">Y321Y</text></g><line x1="981.000000" x2="981.000000" y1="46.500000" y2="74.500000" stroke="#BABDB6" stroke-width="2"/><a xlink:title="Y322Y"><circle cx="981.000000" cy="46.500000" r="4.000000" fill="#0000ff" /></a><g transform="translate(981.000000,46.500000) rotate(-30)"><text style="font-size:10px;font-family:OpenSans;fill:#555;" text-anchor="middle" x="0" y="-6.000000">Y322Y</text></g><line x1="1065.000000" x2="1065.000000" y1="46.500000" y2="74.500000" stroke="#BABDB6" stroke-width="2"/><a xlink:title="K350I"><circle cx="1065.000000" cy="46.500000" r="4.000000" fill="#ff0000" /></a><g transform="translate(1065.000000,46.500000) rotate(-30)"><text style="font-size:10px;font-family:OpenSans;fill:#555;" text-anchor="middle" x="0" y="-6.000000">K350I</text></g><line x1="1161.000000" x2="1161.000000" y1="46.500000" y2="74.500000" stroke="#BABDB6" stroke-width="2"/><a xlink:title="T382A"><circle cx="1161.000000" cy="46.500000" r="4.000000" fill="#ff0000" /></a><g transform="translate(1161.000000,46.500000) rotate(-30)"><text style="font-size:10px;font-family:OpenSans;fill:#555;" text-anchor="middle" x="0" y="-6.000000">T382A</text></g><line x1="1281.000000" x2="1281.000000" y1="34.000000" y2="74.500000" stroke="#BABDB6" stroke-width="2"/><a xlink:title="T422A"><circle cx="1281.000000" cy="34.000000" r="4.000000" fill="#ff0000" /></a><g transform="translate(1281.000000,34.000000) rotate(-30)"><text style="font-size:10px;font-family:OpenSans;fill:#555;" text-anchor="middle" x="0" y="-6.000000">T422A</text></g><line x1="1284.000000" x2="1284.000000" y1="46.500000" y2="74.500000" stroke="#BABDB6" stroke-width="2"/><a xlink:title="T423A"><circle cx="1284.000000" cy="46.500000" r="4.000000" fill="#ff0000" /></a><g transform="translate(1284.000000,46.500000) rotate(-30)"><text style="font-size:10px;font-family:OpenSans;fill:#555;" text-anchor="middle" x="0" y="-6.000000">T423A</text></g><line x1="1329.000000" x2="1329.000000" y1="46.500000" y2="74.500000" stroke="#BABDB6" stroke-width="2"/><a xlink:title="K438I"><circle cx="1329.000000" cy="46.500000" r="4.000000" fill="#ff0000" /></a><g transform="translate(1329.000000,46.500000) rotate(-30)"><text style="font-size:10px;font-family:OpenSans;fill:#555;" text-anchor="middle" x="0" y="-6.000000">K438I</text></g><line x1="1449.000000" x2="1449.000000" y1="34.000000" y2="74.500000" stroke="#BABDB6" stroke-width="2"/><a xlink:title="K478I"><circle cx="1449.000000" cy="34.000000" r="4.000000" fill="#ff0000" /></a><g transform="translate(1449.000000,34.000000) rotate(-30)"><text style="font-size:10px;font-family:OpenSans;fill:#555;" text-anchor="middle" x="0" y="-6.000000">K478I</text></g><line x1="1452.000000" x2="1452.000000" y1="46.500000" y2="74.500000" stroke="#BABDB6" stroke-width="2"/><a xlink:title="K479I"><circle cx="1452.000000" cy="46.500000" r="4.000000" fill="#ff0000" /></a><g transform="translate(1452.000000,46.500000) rotate(-30)"><text style="font-size:10px;font-family:OpenSans;fill:#555;" text-anchor="middle" x="0" y="-6.000000">K479I</text></g><a xlink:title=",  (646aa)"><rect fill="#BABDB6" x="15.000000" y="74.500000" width="1938.000000" height="14.000000"/></a><g transform="translate(261.000000,69.500000)"><a xlink:href="https://www.ebi.ac.uk/interpro/entry/pfam/PF00096" xlink:title="Zinc finger, C2H2 type"><rect fill="#2DCF00" x="0" y="0" width="66.000000" height="24.000000" filter="url(#ds)"/><text style="font-size:12px;font-family:OpenSans;fill:#ffffff;" text-anchor="middle" x="33.000000" y="16.000000">zf-C2H2</text></a></g>
<g transform="translate(354.000000,69.500000)"><a xlink:href="https://www.ebi.ac.uk/interpro/entry/pfam/PF00096" xlink:title="Zinc finger, C2H2 type"><rect fill="#FF5353" x="0" y="0" width="54.000000" height="24.000000" filter="url(#ds)"/><text style="font-size:12px;font-family:OpenSans;fill:#ffffff;" text-anchor="middle" x="27.000000" y="16.000000">zf-C2H2</text></a></g>
<g transform="translate(426.000000,69.500000)"><a xlink:href="https://www.ebi.ac.uk/interpro/entry/pfam/PF00096" xlink:title="Zinc finger, C2H2 type"><rect fill="#5B5BFF" x="0" y="0" width="66.000000" height="24.000000" filter="url(#ds)"/><text style="font-size:12px;font-family:OpenSans;fill:#ffffff;" text-anchor="middle" x="33.000000" y="16.000000">zf-C2H2</text></a></g>
<g transform="translate(762.000000,69.500000)"><a xlink:href="https://www.ebi.ac.uk/interpro/entry/pfam/PF00096" xlink:title="Zinc finger, C2H2 type"><rect fill="#EBD61D" x="0" y="0" width="66.000000" height="24.000000" filter="url(#ds)"/><text style="font-size:12px;font-family:OpenSans;fill:#ffffff;" text-anchor="middle" x="33.000000" y="16.000000">zf-C2H2</text></a></g>
<g transform="translate(846.000000,69.500000)"><a xlink:href="https://www.ebi.ac.uk/interpro/entry/pfam/PF00096" xlink:title="Zinc finger, C2H2 type"><rect fill="#BA21E0" x="0" y="0" width="66.000000" height="24.000000" filter="url(#ds)"/><text style="font-size:12px;font-family:OpenSans;fill:#ffffff;" text-anchor="middle" x="33.000000" y="16.000000">zf-C2H2</text></a></g>
<g transform="translate(930.000000,69.500000)"><a xlink:href="https://www.ebi.ac.uk/interpro/entry/pfam/PF00096" xlink:title="Zinc finger, C2H2 type"><rect fill="#FF9C42" x="0" y="0" width="66.000000" height="24.000000" filter="url(#ds)"/><text style="font-size:12px;font-family:OpenSans;fill:#ffffff;" text-anchor="middle" x="33.000000" y="16.000000">zf-C2H2</text></a></g>
<g transform="translate(1014.000000,69.500000)"><a xlink:href="https://www.ebi.ac.uk/interpro/entry/pfam/PF00096" xlink:title="Zinc finger, C2H2 type"><rect fill="#FF7DFF" x="0" y="0" width="66.000000" height="24.000000" filter="url(#ds)"/><text style="font-size:12px;font-family:OpenSans;fill:#ffffff;" text-anchor="middle" x="33.000000" y="16.000000">zf-C2H2</text></a></g>
<g transform="translate(1098.000000,69.500000)"><a xlink:href="https://www.ebi.ac.uk/interpro/entry/pfam/PF00096" xlink:title="Zinc finger, C2H2 type"><rect fill="#B9264F" x="0" y="0" width="66.000000" height="24.000000" filter="url(#ds)"/><text style="font-size:12px;font-family:OpenSans;fill:#ffffff;" text-anchor="middle" x="33.000000" y="16.000000">zf-C2H2</text></a></g>
<g transform="translate(1182.000000,69.500000)"><a xlink:href="https://www.ebi.ac.uk/interpro/entry/pfam/PF00096" xlink:title="Zinc finger, C2H2 type"><rect fill="#BABA21" x="0" y="0" width="66.000000" height="24.000000" filter="url(#ds)"/><text style="font-size:12px;font-family:OpenSans;fill:#ffffff;" text-anchor="middle" x="33.000000" y="16.000000">zf-C2H2</text></a></g>
<g transform="translate(1266.000000,69.500000)"><a xlink:href="https://www.ebi.ac.uk/interpro/entry/pfam/PF00096" xlink:title="Zinc finger, C2H2 type"><rect fill="#C48484" x="0" y="0" width="66.000000" height="24.000000" filter="url(#ds)"/><text style="font-size:12px;font-family:OpenSans;fill:#ffffff;" text-anchor="middle" x="33.000000" y="16.000000">zf-C2H2</text></a></g>
<g transform="translate(1350.000000,69.500000)"><a xlink:href="https://www.ebi.ac.uk/interpro/entry/pfam/PF00096" xlink:title="Zinc finger, C2H2 type"><rect fill="#1F88A7" x="0" y="0" width="66.000000" height="24.000000" filter="url(#ds)"/><text style="font-size:12px;font-family:OpenSans;fill:#ffffff;" text-anchor="middle" x="33.000000" y="16.000000">zf-C2H2</text></a></g>
<g transform="translate(1434.000000,69.500000)"><a xlink:href="https://www.ebi.ac.uk/interpro/entry/pfam/PF00096" xlink:title="Zinc finger, C2H2 type"><rect fill="#CAFEB8" x="0" y="0" width="66.000000" height="24.000000" filter="url(#ds)"/><text style="font-size:12px;font-family:OpenSans;fill:#ffffff;" text-anchor="middle" x="33.000000" y="16.000000">zf-C2H2</text></a></g>
<g transform="translate(1518.000000,69.500000)"><a xlink:href="https://www.ebi.ac.uk/interpro/entry/pfam/PF00096" xlink:title="Zinc finger, C2H2 type"><rect fill="#4A9586" x="0" y="0" width="66.000000" height="24.000000" filter="url(#ds)"/><text style="font-size:12px;font-family:OpenSans;fill:#ffffff;" text-anchor="middle" x="33.000000" y="16.000000">zf-C2H2</text></a></g>
<g transform="translate(1602.000000,69.500000)"><a xlink:href="https://www.ebi.ac.uk/interpro/entry/pfam/PF00096" xlink:title="Zinc finger, C2H2 type"><rect fill="#CEB86C" x="0" y="0" width="66.000000" height="24.000000" filter="url(#ds)"/><text style="font-size:12px;font-family:OpenSans;fill:#ffffff;" text-anchor="middle" x="33.000000" y="16.000000">zf-C2H2</text></a></g>
<g transform="translate(1686.000000,69.500000)"><a xlink:href="https://www.ebi.ac.uk/interpro/entry/pfam/PF00096" xlink:title="Zinc finger, C2H2 type"><rect fill="#2DCF00" x="0" y="0" width="66.000000" height="24.000000" filter="url(#ds)"/><text style="font-size:12px;font-family:OpenSans;fill:#ffffff;" text-anchor="middle" x="33.000000" y="16.000000">zf-C2H2</text></a></g>
<g transform="translate(1773.000000,69.500000)"><a xlink:href="https://www.ebi.ac.uk/interpro/entry/pfam/PF00096" xlink:title="Zinc finger, C2H2 type"><rect fill="#FF5353" x="0" y="0" width="63.000000" height="24.000000" filter="url(#ds)"/><text style="font-size:12px;font-family:OpenSans;fill:#ffffff;" text-anchor="middle" x="31.500000" y="16.000000">zf-C2H2</text></a></g>
<g transform="translate(1854.000000,69.500000)"><a xlink:href="https://www.ebi.ac.uk/interpro/entry/pfam/PF00096" xlink:title="Zinc finger, C2H2 type"><rect fill="#5B5BFF" x="0" y="0" width="66.000000" height="24.000000" filter="url(#ds)"/><text style="font-size:12px;font-family:OpenSans;fill:#ffffff;" text-anchor="middle" x="33.000000" y="16.000000">zf-C2H2</text></a></g>
<g class="axis">
<line x1="15.000000" x2="1953.000000" y1="103.500000" y2="103.500000" stroke="#AAAAAA" /><line x1="15.000000" x2="15.000000" y1="103.500000" y2="108.500000" stroke="#AAAAAA" /><line x1="15.000000" x2="15.000000" y1="103.500000" y2="108.500000" stroke="#AAAAAA" /><text style="font-size:10px;font-family:OpenSans;fill:#000000;" text-anchor="middle" x="15.000000" y="118.500000">0</text><line x1="261.000000" x2="261.000000" y1="103.500000" y2="108.500000" stroke="#AAAAAA" /><text style="font-size:10px;font-family:OpenSans;fill:#000000;" text-anchor="middle" x="261.000000" y="118.500000">82</text><line x1="324.000000" x2="324.000000" y1="103.500000" y2="108.500000" stroke="#AAAAAA" /><text style="font-size:10px;font-family:OpenSans;fill:#000000;" text-anchor="middle" x="324.000000" y="118.500000">103</text><line x1="354.000000" x2="354.000000" y1="103.500000" y2="108.500000" stroke="#AAAAAA" /><text style="font-size:10px;font-family:OpenSans;fill:#000000;" text-anchor="middle" x="354.000000" y="118.500000">113</text><line x1="408.000000" x2="408.000000" y1="103.500000" y2="108.500000" stroke="#AAAAAA" /><text style="font-size:10px;font-family:OpenSans;fill:#000000;" text-anchor="middle" x="408.000000" y="118.500000">131</text><line x1="426.000000" x2="426.000000" y1="103.500000" y2="108.500000" stroke="#AAAAAA" /><text style="font-size:10px;font-family:OpenSans;fill:#000000;" text-anchor="middle" x="426.000000" y="118.500000">137</text><line x1="492.000000" x2="492.000000" y1="103.500000" y2="108.500000" stroke="#AAAAAA" /><text style="font-size:10px;font-family:OpenSans;fill:#000000;" text-anchor="middle" x="492.000000" y="118.500000">159</text><line x1="594.000000" x2="594.000000" y1="103.500000" y2="108.500000" stroke="#AAAAAA" /><text style="font-size:10px;font-family:OpenSans;fill:#000000;" text-anchor="middle" x="594.000000" y="118.500000">193</text><line x1="762.000000" x2="762.000000" y1="103.500000" y2="108.500000" stroke="#AAAAAA" /><text style="font-size:10px;font-family:OpenSans;fill:#000000;" text-anchor="middle" x="762.000000" y="118.500000">249</text><line x1="828.000000" x2="828.000000" y1="103.500000" y2="108.500000" stroke="#AAAAAA" /><text style="font-size:10px;font-family:OpenSans;fill:#000000;" text-anchor="middle" x="828.000000" y="118.500000">271</text><line x1="858.000000" x2="858.000000" y1="103.500000" y2="108.500000" stroke="#AAAAAA" /><text style="font-size:10px;font-family:OpenSans;fill:#000000;" text-anchor="middle" x="858.000000" y="118.500000">281</text><line x1="897.000000" x2="897.000000" y1="103.500000" y2="108.500000" stroke="#AAAAAA" /><text style="font-size:10px;font-family:OpenSans;fill:#000000;" text-anchor="middle" x="897.000000" y="118.500000">294</text><line x1="930.000000" x2="930.000000" y1="103.500000" y2="108.500000" stroke="#AAAAAA" /><text style="font-size:10px;font-family:OpenSans;fill:#000000;" text-anchor="middle" x="930.000000" y="118.500000">305</text><line x1="978.000000" x2="978.000000" y1="103.500000" y2="108.500000" stroke="#AAAAAA" /><text style="font-size:10px;font-family:OpenSans;fill:#000000;" text-anchor="middle" x="978.000000" y="118.500000">321</text><line x1="996.000000" x2="996.000000" y1="103.500000" y2="108.500000" stroke="#AAAAAA" /><text style="font-size:10px;font-family:OpenSans;fill:#000000;" text-anchor="middle" x="996.000000" y="118.500000">327</text><line x1="1014.000000" x2="1014.000000" y1="103.500000" y2="108.500000" stroke="#AAAAAA" /><text style="font-size:10px;font-family:OpenSans;fill:#000000;" text-anchor="middle" x="1014.000000" y="118.500000">333</text><line x1="1065.000000" x2="1065.000000" y1="103.500000" y2="108.500000" stroke="#AAAAAA" /><text style="font-size:10px;font-family:OpenSans;fill:#000000;" text-anchor="middle" x="1065.000000" y="118.500000">350</text><line x1="1098.000000" x2="1098.000000" y1="103.500000" y2="108.500000" stroke="#AAAAAA" /><text style="font-size:10px;font-family:OpenSans;fill:#000000;" text-anchor="middle" x="1098.000000" y="118.500000">361</text><line x1="1161.000000" x2="1161.000000" y1="103.500000" y2="108.500000" stroke="#AAAAAA" /><text style="font-size:10px;font-family:OpenSans;fill:#000000;" text-anchor="middle" x="1161.000000" y="118.500000">382</text><line x1="1182.000000" x2="1182.000000" y1="103.500000" y2="108.500000" stroke="#AAAAAA" /><text style="font-size:10px;font-family:OpenSans;fill:#000000;" text-anchor="middle" x="1182.000000" y="118.500000">389</text><line x1="1248.000000" x2="1248.000000" y1="103.500000" y2="108.500000" stroke="#AAAAAA" /><text style="font-size:10px;font-family:OpenSans;fill:#000000;" text-anchor="middle" x="1248.000000" y="118.500000">411</text><line x1="1281.000000" x2="1281.000000" y1="103.500000" y2="108.500000" stroke="#AAAAAA" /><text style="font-size:10px;font-family:OpenSans;fill:#000000;" text-anchor="middle" x="1281.000000" y="118.500000">422</text><line x1="1329.000000" x2="1329.000000" y1="103.500000" y2="108.500000" stroke="#AAAAAA" /><text style="font-size:10px;font-family:OpenSans;fill:#000000;" text-anchor="middle" x="1329.000000" y="118.500000">438</text><line x1="1350.000000" x2="1350.000000" y1="103.500000" y2="108.500000" stroke="#AAAAAA" /><text style="font-size:10px;font-family:OpenSans;fill:#000000;" text-anchor="middle" x="1350.000000" y="118.500000">445</text><line x1="1416.000000" x2="1416.000000" y1="103.500000" y2="108.500000" stroke="#AAAAAA" /><text style="font-size:10px;font-family:OpenSans;fill:#000000;" text-anchor="middle" x="1416.000000" y="118.500000">467</text><line x1="1449.000000" x2="1449.000000" y1="103.500000" y2="108.500000" stroke="#AAAAAA" /><text style="font-size:10px;font-family:OpenSans;fill:#000000;" text-anchor="middle" x="1449.000000" y="118.500000">478</text><line x1="1500.000000" x2="1500.000000" y1="103.500000" y2="108.500000" stroke="#AAAAAA" /><text style="font-size:10px;font-family:OpenSans;fill:#000000;" text-anchor="middle" x="1500.000000" y="118.500000">495</text><line x1="1518.000000" x2="1518.000000" y1="103.500000" y2="108.500000" stroke="#AAAAAA" /><text style="font-size:10px;font-family:OpenSans;fill:#000000;" text-anchor="middle" x="1518.000000" y="118.500000">501</text><line x1="1584.000000" x2="1584.000000" y1="103.500000" y2="108.500000" stroke="#AAAAAA" /><text style="font-size:10px;font-family:OpenSans;fill:#000000;" text-anchor="middle" x="1584.000000" y="118.500000">523</text><line x1="1602.000000" x2="1602.000000" y1="103.500000" y2="108.500000" stroke="#AAAAAA" /><text style="font-size:10px;font-family:OpenSans;fill:#000000;" text-anchor="middle" x="1602.000000" y="118.500000">529</text><line x1="1668.000000" x2="1668.000000" y1="103.500000" y2="108.500000" stroke="#AAAAAA" /><text style="font-size:10px;font-family:OpenSans;fill:#000000;" text-anchor="middle" x="1668.000000" y="118.500000">551</text><line x1="1686.000000" x2="1686.000000" y1="103.500000" y2="108.500000" stroke="#AAAAAA" /><text style="font-size:10px;font-family:OpenSans;fill:#000000;" text-anchor="middle" x="1686.000000" y="118.500000">557</text><line x1="1752.000000" x2="1752.000000" y1="103.500000" y2="108.500000" stroke="#AAAAAA" /><text style="font-size:10px;font-family:OpenSans;fill:#000000;" text-anchor="middle" x="1752.000000" y="118.500000">579</text><line x1="1773.000000" x2="1773.000000" y1="103.500000" y2="108.500000" stroke="#AAAAAA" /><text style="font-size:10px;font-family:OpenSans;fill:#000000;" text-anchor="middle" x="1773.000000" y="118.500000">586</text><line x1="1836.000000" x2="1836.000000" y1="103.500000" y2="108.500000" stroke="#AAAAAA" /><text style="font-size:10px;font-family:OpenSans;fill:#000000;" text-anchor="middle" x="1836.000000" y="118.500000">607</text><line x1="1854.000000" x2="1854.000000" y1="103.500000" y2="108.500000" stroke="#AAAAAA" /><text style="font-size:10px;font-family:OpenSans;fill:#000000;" text-anchor="middle" x="1854.000000" y="118.500000">613</text><line x1="1920.000000" x2="1920.000000" y1="103.500000" y2="108.500000" stroke="#AAAAAA" /><text style="font-size:10px;font-family:OpenSans;fill:#000000;" text-anchor="middle" x="1920.000000" y="118.500000">635</text><line x1="1953.000000" x2="1953.000000" y1="103.500000" y2="108.500000" stroke="#AAAAAA" /><text style="font-size:10px;font-family:OpenSans;fill:#000000;" text-anchor="middle" x="1953.000000" y="118.500000">646</text></g>
<rect fill="#5B5BFF" x="4" y="132.500000" width="12" height="12" filter="url(#ds)"/><text style="font-size:12px;font-family:OpenSans;fill:#000000;" text-anchor="start" x="20" y="144.500000">Zinc finger, C2H2 type</text></svg>
