<?xml version='1.0'?>
<svg xmlns="http://www.w3.org/2000/svg" xmlns:xlink="http://www.w3.org/1999/xlink" width="1637.760000" height="184.400000">
<defs>
  <filter id="ds" x="0" y="0">
    <feOffset in="SourceAlpha" dx="2" dy="2" />
    <feComponentTransfer><feFuncA type="linear" slope="0.2"/></feComponentTransfer>
    <feGaussianBlur result="blurOut" stdDeviation="1" />
    <feBlend in="SourceGraphic" in2="blurOut" mode="normal" />
  </filter>
  <pattern id="disordered-hatch" patternUnits="userSpaceOnUse" width="4" height="4">
    <path d="M-1,1 l2,-2 M0,4 l4,-4 M3,5 l2,-2" stroke="#000000" opacity="0.3" />
  </pattern>
</defs>
<line x1="44.040000" x2="44.040000" y1="59.000000" y2="87.000000" stroke="#BABDB6" stroke-width="2"/><a xlink:title="P11P"><circle cx="44.040000" cy="59.000000" r="4.000000" fill="#0000ff" /></a><g transform="translate(44.040000,59.000000) rotate(-30)"><text style="font-size:10px;font-family:OpenSans;fill:#555;" text-anchor="middle" x="0" y="-6.000000">P11P</text></g><line x1="115.320000" x2="115.320000" y1="46.500000" y2="87.000000" stroke="#BABDB6" stroke-width="2"/><a xlink:title="I38V"><circle cx="115.320000" cy="46.500000" r="4.000000" fill="#ff0000" /></a><g transform="translate(115.320000,46.500000) rotate(-30)"><text style="font-size:10px;font-family:OpenSans;fill:#555;" text-anchor="middle" x="0" y="-6.000000">I38V</text></g><line x1="120.600000" x2="120.600000" y1="34.000000" y2="87.000000" stroke="#BABDB6" stroke-width="2"/><a xlink:title="P40P"><circle cx="120.600000" cy="34.000000" r="4.000000" fill="#0000ff" /></a><g transform="translate(120.600000,34.000000) rotate(-30)"><text style="font-size:10px;font-family:OpenSans;fill:#555;" text-anchor="middle" x="0" y="-6.000000">P40P</text></g><line x1="123.240000" x2="123.240000" y1="59.000000" y2="87.000000" stroke="#BABDB6" stroke-width="2"/><a xlink:title="D41N"><circle cx="123.240000" cy="59.000000" r="4.000000" fill="#ff0000" /></a><g transform="translate(123.240000,59.000000) rotate(-30)"><text style="font-size:10px;font-family:OpenSans;fill:#555;" text-anchor="middle" x="0" y="-6.000000">D41N</text></g><line x1="123.240000" x2="123.240000" y1="46.500000" y2="87.000000" stroke="#BABDB6" stroke-width="2"/><a xlink:title="I41V"><circle cx="123.240000" cy="46.500000" r="4.000000" fill="#ff0000" /></a><g transform="translate(123.240000,46.500000) rotate(-30)"><text style="font-size:10px;font-family:OpenSans;fill:#555;" text-anchor="middle" x="0" y="-6.000000">I41V</text></g><line x1="131.160000" x2="131.160000" y1="59.000000" y2="87.000000" stroke="#BABDB6" stroke-width="2"/><a xlink:title="D44N"><circle cx="131.160000" cy="59.000000" r="4.000000" fill="#ff0000" /></a><g transform="translate(131.160000,59.000000) rotate(-30)"><text style="font-size:10px;font-family:OpenSans;fill:#555;" text-anchor="middle" x="0" y="-6.000000">D44N</text></g><line x1="199.800000" x2="199.800000" y1="46.500000" y2="87.000000" stroke="#BABDB6" stroke-width="2"/><a xlink:title="I70V"><circle cx="199.800000" cy="46.500000" r="4.000000" fill="#ff0000" /></a><g transform="translate(199.800000,46.500000) rotate(-30)"><text style="font-size:10px;font-family:OpenSans;fill:#555;" text-anchor="middle" x="0" y="-6.000000">I70V</text></g><line x1="205.080000" x2="205.080000" y1="46.500000" y2="87.000000" stroke="#BABDB6" stroke-width="2"/><a xlink:title="P72P"><circle cx="205.080000" cy="46.500000" r="4.000000" fill="#0000ff" /></a><g transform="translate(205.080000,46.500000) rotate(-30)"><text style="font-size:10px;font-family:OpenSans;fill:#555;" text-anchor="middle" x="0" y="-6.000000">P72P</text></g><line x1="207.720000" x2="207.720000" y1="59.000000" y2="87.000000" stroke="#BABDB6" stroke-width="2"/><a xlink:title="D73N"><circle cx="207.720000" cy="59.000000" r="4.000000" fill="#ff0000" /></a><g transform="translate(207.720000,59.000000) rotate(-30)"><text style="font-size:10px;font-family:OpenSans;fill:#555;" text-anchor="middle" x="0" y="-6.000000">D73N</text></g><line x1="284.280000" x2="284.280000" y1="59.000000" y2="87.000000" stroke="#BABDB6" stroke-width="2"/><a xlink:title="I102V"><circle cx="284.280000" cy="59.000000" r="4.000000" fill="#ff0000" /></a><g transform="translate(284.280000,59.000000) rotate(-30)"><text style="font-size:10px;font-family:OpenSans;fill:#555;" text-anchor="middle" x="0" y="-6.000000">I102V</text></g><line x1="292.200000" x2="292.200000" y1="59.000000" y2="87.000000" stroke="#BABDB6" stroke-width="2"/><a xlink:title="D105N"><circle cx="292.200000" cy="59.000000" r="4.000000" fill="#ff0000" /></a><g transform="translate(292.200000,59.000000) rotate(-30)"><text style="font-size:10px;font-family:OpenSans;fill:#555;" text-anchor="middle" x="0" y="-6.000000">D105N</text></g><line x1="408.360000" x2="408.360000" y1="59.000000" y2="87.000000" stroke="#BABDB6" stroke-width="2"/><a xlink:title="H149R"><circle cx="408.360000" cy="59.000000" r="4.000000" fill="#ff0000" /></a><g transform="translate(408.360000,59.000000) rotate(-30)"><text style="font-size:10px;font-family:OpenSans;fill:#555;" text-anchor="middle" x="0" y="-6.000000">H149R</text></g><line x1="416.280000" x2="416.280000" y1="59.000000" y2="87.000000" stroke="#BABDB6" stroke-width="2"/><a xlink:title="H152R"><circle cx="416.280000" cy="59.000000" r="4.000000" fill="#ff0000" /></a><g transform="translate(416.280000,59.000000) rotate(-30)"><text style="font-size:10px;font-family:OpenSans;fill:#555;" text-anchor="middle" x="0" y="-6.000000">H152R</text></g><line x1="492.840000" x2="492.840000" y1="59.000000" y2="87.000000" stroke="#BABDB6" stroke-width="2"/><a xlink:title="H181R"><circle cx="492.840000" cy="59.000000" r="4.000000" fill="#ff0000" /></a><g transform="translate(492.840000,59.000000) rotate(-30)"><text style="font-size:10px;font-family:OpenSans;fill:#555;" text-anchor="middle" x="0" y="-6.000000">H181R</text></g><line x1="577.320000" x2="577.320000" y1="59.000000" y2="87.000000" stroke="#BABDB6" stroke-width="2"/><a xlink:title="H213R"><circle cx="577.320000" cy="59.000000" r="4.000000" fill="#ff0000" /></a><g transform="translate(577.320000,59.000000) rotate(-30)"><text style="font-size:10px;font-family:OpenSans;fill:#555;" text-anchor="middle" x="0" y="-6.000000">H213R</text></g><line x1="738.360000" x2="738.360000" y1="59.000000" y2="87.000000" stroke="#BABDB6" stroke-width="2"/><a xlink:title="A274A"><circle cx="738.360000" cy="59.000000" r="4.000000" fill="#0000ff" /></a><g transform="translate(738.360000,59.000000) rotate(-30)"><text style="font-size:10px;font-family:OpenSans;fill:#555;" text-anchor="middle" x="0" y="-6.000000">A274A</text></g><line x1="746.280000" x2="746.280000" y1="59.000000" y2="87.000000" stroke="#BABDB6" stroke-width="2"/><a xlink:title="A277A"><circle cx="746.280000" cy="59.000000" r="4.000000" fill="#0000ff" /></a><g transform="translate(746.280000,59.000000) rotate(-30)"><text style="font-size:10px;font-family:OpenSans;fill:#555;" text-anchor="middle" x="0" y="-6.000000">A277A</text></g><line x1="822.840000" x2="822.840000" y1="59.000000" y2="87.000000" stroke="#BABDB6" stroke-width="2"/><a xlink:title="A306A"><circle cx="822.840000" cy="59.000000" r="4.000000" fill="#0000ff" /></a><g transform="translate(822.840000,59.000000) rotate(-30)"><text style="font-size:10px;font-family:OpenSans;fill:#555;" text-anchor="middle" x="0" y="-6.000000">A306A</text></g><line x1="907.320000" x2="907.320000" y1="59.000000" y2="87.000000" stroke="#BABDB6" stroke-width="2"/><a xlink:title="A338A"><circle cx="907.320000" cy="59.000000" r="4.000000" fill="#0000ff" /></a><g transform="translate(907.320000,59.000000) rotate(-30)"><text style="font-size:10px;font-family:OpenSans;fill:#555;" text-anchor="middle" x="0" y="-6.000000">A338A</text></g><a xlink:title=",  (609aa)"><rect fill="#BABDB6" x="15.000000" y="87.000000" width="1607.760000" height="14.000000"/></a><g transform="translate(49.320000,82.000000)"><a xlink:href="https://www.ebi.ac.uk/interpro/entry/pfam/PF01352" xlink:title="KRAB box"><rect fill="#2DCF00" x="0" y="0" width="108.240000" height="24.000000" filter="url(#ds)"/><text style="font-size:12px;font-family:OpenSans;fill:#ffffff;" text-anchor="middle" x="54.120000" y="16.000000">KRAB box</text></a></g>
<g transform="translate(812.280000,82.000000)"><a xlink:href="https://www.ebi.ac.uk/interpro/entry/pfam/PF00096" xlink:title="Zinc finger, C2H2 type"><rect fill="#FF5353" x="0" y="0" width="58.080000" height="24.000000" filter="url(#ds)"/><text style="font-size:12px;font-family:OpenSans;fill:#ffffff;" text-anchor="middle" x="29.040000" y="16.000000">zf-C2H2</text></a></g>
<g transform="translate(886.200000,82.000000)"><a xlink:href="https://www.ebi.ac.uk/interpro/entry/pfam/PF00096" xlink:title="Zinc finger, C2H2 type"><rect fill="#5B5BFF" x="0" y="0" width="58.080000" height="24.000000" filter="url(#ds)"/><text style="font-size:12px;font-family:OpenSans;fill:#ffffff;" text-anchor="middle" x="29.040000" y="16.000000">zf-C2H2</text></a></g>
<g transform="translate(960.120000,82.000000)"><a xlink:href="https://www.ebi.ac.uk/interpro/entry/pfam/PF00096" xlink:title="Zinc finger, C2H2 type"><rect fill="#EBD61D" x="0" y="0" width="58.080000" height="24.000000" filter="url(#ds)"/><text style="font-size:12px;font-family:OpenSans;fill:#ffffff;" text-anchor="middle" x="29.040000" y="16.000000">zf-C2H2</text></a></g>
<g transform="translate(1071.000000,82.000000)"><a xlink:href="https://www.ebi.ac.uk/interpro/entry/pfam/PF13465" xlink:title="Zinc-finger double domain"><rect fill="#BA21E0" x="0" y="0" width="66.000000" height="24.000000" filter="url(#ds)"/><text style="font-size:12px;font-family:OpenSans;fill:#ffffff;" text-anchor="middle" x="33.000000" y="16.000000">zf-H2C2_2</text></a></g>
<g transform="translate(1181.880000,82.000000)"><a xlink:href="https://www.ebi.ac.uk/interpro/entry/pfam/PF00096" xlink:title="Zinc finger, C2H2 type"><rect fill="#FF9C42" x="0" y="0" width="58.080000" height="24.000000" filter="url(#ds)"/><text style="font-size:12px;font-family:OpenSans;fill:#ffffff;" text-anchor="middle" x="29.040000" y="16.000000">zf-C2H2</text></a></g>
<g transform="translate(1255.800000,82.000000)"><a xlink:href="https://www.ebi.ac.uk/interpro/entry/pfam/PF00096" xlink:title="Zinc finger, C2H2 type"><rect fill="#FF7DFF" x="0" y="0" width="58.080000" height="24.000000" filter="url(#ds)"/><text style="font-size:12px;font-family:OpenSans;fill:#ffffff;" text-anchor="middle" x="29.040000" y="16.000000">zf-C2H2</text></a></g>
<g transform="translate(1329.720000,82.000000)"><a xlink:href="https://www.ebi.ac.uk/interpro/entry/pfam/PF00096" xlink:title="Zinc finger, C2H2 type"><rect fill="#B9264F" x="0" y="0" width="58.080000" height="24.000000" filter="url(#ds)"/><text style="font-size:12px;font-family:OpenSans;fill:#ffffff;" text-anchor="middle" x="29.040000" y="16.000000">zf-C2H2</text></a></g>
<g transform="translate(1403.640000,82.000000)"><a xlink:href="https://www.ebi.ac.uk/interpro/entry/pfam/PF00096" xlink:title="Zinc finger, C2H2 type"><rect fill="#BABA21" x="0" y="0" width="58.080000" height="24.000000" filter="url(#ds)"/><text style="font-size:12px;font-family:OpenSans;fill:#ffffff;" text-anchor="middle" x="29.040000" y="16.000000">zf-C2H2</text></a></g>
<g transform="translate(1477.560000,82.000000)"><a xlink:href="https://www.ebi.ac.uk/interpro/entry/pfam/PF00096" xlink:title="Zinc finger, C2H2 type"><rect fill="#C48484" x="0" y="0" width="58.080000" height="24.000000" filter="url(#ds)"/><text style="font-size:12px;font-family:OpenSans;fill:#ffffff;" text-anchor="middle" x="29.040000" y="16.000000">zf-C2H2</text></a></g>
<g transform="translate(1551.480000,82.000000)"><a xlink:href="https://www.ebi.ac.uk/interpro/entry/pfam/PF00096" xlink:title="Zinc finger, C2H2 type"><rect fill="#1F88A7" x="0" y="0" width="58.080000" height="24.000000" filter="url(#ds)"/><text style="font-size:12px;font-family:OpenSans;fill:#ffffff;" text-anchor="middle" x="29.040000" y="16.000000">zf-C2H2</text></a></g>
<g class="axis">
<line x1="15.000000" x2="1622.760000" y1="116.000000" y2="116.000000" stroke="#AAAAAA" /><line x1="15.000000" x2="15.000000" y1="116.000000" y2="121.000000" stroke="#AAAAAA" /><line x1="15.000000" x2="15.000000" y1="116.000000" y2="121.000000" stroke="#AAAAAA" /><text style="font-size:10px;font-family:OpenSans;fill:#000000;" text-anchor="middle" x="15.000000" y="131.000000">0</text><line x1="44.040000" x2="44.040000" y1="116.000000" y2="121.000000" stroke="#AAAAAA" /><text style="font-size:10px;font-family:OpenSans;fill:#000000;" text-anchor="middle" x="44.040000" y="131.000000">11</text><line x1="115.320000" x2="115.320000" y1="116.000000" y2="121.000000" stroke="#AAAAAA" /><text style="font-size:10px;font-family:OpenSans;fill:#000000;" text-anchor="middle" x="115.320000" y="131.000000">38</text><line x1="157.560000" x2="157.560000" y1="116.000000" y2="121.000000" stroke="#AAAAAA" /><text style="font-size:10px;font-family:OpenSans;fill:#000000;" text-anchor="middle" x="157.560000" y="131.000000">54</text><line x1="199.800000" x2="199.800000" y1="116.000000" y2="121.000000" stroke="#AAAAAA" /><text style="font-size:10px;font-family:OpenSans;fill:#000000;" text-anchor="middle" x="199.800000" y="131.000000">70</text><line x1="284.280000" x2="284.280000" y1="116.000000" y2="121.000000" stroke="#AAAAAA" /><text style="font-size:10px;font-family:OpenSans;fill:#000000;" text-anchor="middle" x="284.280000" y="131.000000">102</text><line x1="408.360000" x2="408.360000" y1="116.000000" y2="121.000000" stroke="#AAAAAA" /><text style="font-size:10px;font-family:OpenSans;fill:#000000;" text-anchor="middle" x="408.360000" y="131.000000">149</text><line x1="492.840000" x2="492.840000" y1="116.000000" y2="121.000000" stroke="#AAAAAA" /><text style="font-size:10px;font-family:OpenSans;fill:#000000;" text-anchor="middle" x="492.840000" y="131.000000">181</text><line x1="577.320000" x2="577.320000" y1="116.000000" y2="121.000000" stroke="#AAAAAA" /><text style="font-size:10px;font-family:OpenSans;fill:#000000;" text-anchor="middle" x="577.320000" y="131.000000">213</text><line x1="738.360000" x2="738.360000" y1="116.000000" y2="121.000000" stroke="#AAAAAA" /><text style="font-size:10px;font-family:OpenSans;fill:#000000;" text-anchor="middle" x="738.360000" y="131.000000">274</text><line x1="822.840000" x2="822.840000" y1="116.000000" y2="121.000000" stroke="#AAAAAA" /><text style="font-size:10px;font-family:OpenSans;fill:#000000;" text-anchor="middle" x="822.840000" y="131.000000">306</text><line x1="870.360000" x2="870.360000" y1="116.000000" y2="121.000000" stroke="#AAAAAA" /><text style="font-size:10px;font-family:OpenSans;fill:#000000;" text-anchor="middle" x="870.360000" y="131.000000">324</text><line x1="907.320000" x2="907.320000" y1="116.000000" y2="121.000000" stroke="#AAAAAA" /><text style="font-size:10px;font-family:OpenSans;fill:#000000;" text-anchor="middle" x="907.320000" y="131.000000">338</text><line x1="944.280000" x2="944.280000" y1="116.000000" y2="121.000000" stroke="#AAAAAA" /><text style="font-size:10px;font-family:OpenSans;fill:#000000;" text-anchor="middle" x="944.280000" y="131.000000">352</text><line x1="1018.200000" x2="1018.200000" y1="116.000000" y2="121.000000" stroke="#AAAAAA" /><text style="font-size:10px;font-family:OpenSans;fill:#000000;" text-anchor="middle" x="1018.200000" y="131.000000">380</text><line x1="1071.000000" x2="1071.000000" y1="116.000000" y2="121.000000" stroke="#AAAAAA" /><text style="font-size:10px;font-family:OpenSans;fill:#000000;" text-anchor="middle" x="1071.000000" y="131.000000">400</text><line x1="1137.000000" x2="1137.000000" y1="116.000000" y2="121.000000" stroke="#AAAAAA" /><text style="font-size:10px;font-family:OpenSans;fill:#000000;" text-anchor="middle" x="1137.000000" y="131.000000">425</text><line x1="1181.880000" x2="1181.880000" y1="116.000000" y2="121.000000" stroke="#AAAAAA" /><text style="font-size:10px;font-family:OpenSans;fill:#000000;" text-anchor="middle" x="1181.880000" y="131.000000">442</text><line x1="1239.960000" x2="1239.960000" y1="116.000000" y2="121.000000" stroke="#AAAAAA" /><text style="font-size:10px;font-family:OpenSans;fill:#000000;" text-anchor="middle" x="1239.960000" y="131.000000">464</text><line x1="1313.880000" x2="1313.880000" y1="116.000000" y2="121.000000" stroke="#AAAAAA" /><text style="font-size:10px;font-family:OpenSans;fill:#000000;" text-anchor="middle" x="1313.880000" y="131.000000">492</text><line x1="1387.800000" x2="1387.800000" y1="116.000000" y2="121.000000" stroke="#AAAAAA" /><text style="font-size:10px;font-family:OpenSans;fill:#000000;" text-anchor="middle" x="1387.800000" y="131.000000">520</text><line x1="1461.720000" x2="1461.720000" y1="116.000000" y2="121.000000" stroke="#AAAAAA" /><text style="font-size:10px;font-family:OpenSans;fill:#000000;" text-anchor="middle" x="1461.720000" y="131.000000">548</text><line x1="1535.640000" x2="1535.640000" y1="116.000000" y2="121.000000" stroke="#AAAAAA" /><text style="font-size:10px;font-family:OpenSans;fill:#000000;" text-anchor="middle" x="1535.640000" y="131.000000">576</text><line x1="1622.760000" x2="1622.760000" y1="116.000000" y2="121.000000" stroke="#AAAAAA" /><text style="font-size:10px;font-family:OpenSans;fill:#000000;" text-anchor="middle" x="1622.760000" y="131.000000">609</text></g>
<rect fill="#1F88A7" x="4" y="145.000000" width="12" height="12" filter="url(#ds)"/><text style="font-size:12px;font-family:OpenSans;fill:#000000;" text-anchor="start" x="20" y="157.000000">Zinc finger, C2H2 type</text><rect fill="#BA21E0" x="4" y="159.000000" width="12" height="12" filter="url(#ds)"/><text style="font-size:12px;font-family:OpenSans;fill:#000000;" text-anchor="start" x="20" y="171.000000">Zinc-finger double domain</text></svg>
