<?xml version='1.0'?>
<svg xmlns="http://www.w3.org/2000/svg" xmlns:xlink="http://www.w3.org/1999/xlink" width="1482.600000" height="171.900000">
<defs>
  <filter id="ds" x="0" y="0">
    <feOffset in="SourceAlpha" dx="2" dy="2" />
    <feComponentTransfer><feFuncA type="linear" slope="0.2"/></feComponentTransfer>
    <feGaussianBlur result="blurOut" stdDeviation="1" />
    <feBlend in="SourceGraphic" in2="blurOut" mode="normal" />
  </filter>
  <pattern id="disordered-hatch" patternUnits="userSpaceOnUse" width="4" height="4">
    <path d="M-1,1 l2,-2 M0,4 l4,-4 M3,5 l2,-2" stroke="#000000" opacity="0.3" />
  </pattern>
</defs>
<line x1="239.100000" x2="239.100000" y1="46.500000" y2="74.500000" stroke="#BABDB6" stroke-width="2"/><a xlink:title="A83A"><circle cx="239.100000" cy="46.500000" r="4.000000" fill="#0000ff" /></a><g transform="translate(239.100000,46.500000) rotate(-30)"><text style="font-size:10px;font-family:OpenSans;fill:#555;" text-anchor="middle" x="0" y="-6.000000">A83A</text></g><line x1="374.100000" x2="374.100000" y1="34.000000" y2="74.500000" stroke="#BABDB6" stroke-width="2"/><a xlink:title="A133A"><circle cx="374.100000" cy="34.000000" r="4.000000" fill="#0000ff" /></a><g transform="translate(374.100000,34.000000) rotate(-30)"><text style="font-size:10px;font-family:OpenSans;fill:#555;" text-anchor="middle" x="0" y="-6.000000">A133A</text></g><line x1="376.800000" x2="376.800000" y1="46.500000" y2="74.500000" stroke="#BABDB6" stroke-width="2"/><a xlink:title="A134A"><circle cx="376.800000" cy="46.500000" r="4.000000" fill="#0000ff" /></a><g transform="translate(376.800000,46.500000) rotate(-30)"><text style="font-size:10px;font-family:OpenSans;fill:#555;" text-anchor="middle" x="0" y="-6.000000">A134A</text></g><a xlink:title=",  (538aa)"><rect fill="#BABDB6" x="15.000000" y="74.500000" width="1452.600000" height="14.000000"/></a><g transform="translate(133.800000,69.500000)"><a xlink:href="https://www.ebi.ac.uk/interpro/entry/pfam/PF01352" xlink:title="KRAB box"><rect fill="#2DCF00" x="0" y="0" width="108.000000" height="24.000000" filter="url(#ds)"/><text style="font-size:12px;font-family:OpenSans;fill:#ffffff;" text-anchor="middle" x="54.000000" y="16.000000">KRAB box</text></a></g>
<g transform="translate(889.800000,69.500000)"><a xlink:href="https://www.ebi.ac.uk/interpro/entry/pfam/PF00096" xlink:title="Zinc finger, C2H2 type"><rect fill="#FF5353" x="0" y="0" width="59.400000" height="24.000000" filter="url(#ds)"/><text style="font-size:12px;font-family:OpenSans;fill:#ffffff;" text-anchor="middle" x="29.700000" y="16.000000">zf-C2H2</text></a></g>
<g transform="translate(965.400000,69.500000)"><a xlink:href="https://www.ebi.ac.uk/interpro/entry/pfam/PF00096" xlink:title="Zinc finger, C2H2 type"><rect fill="#5B5BFF" x="0" y="0" width="59.400000" height="24.000000" filter="url(#ds)"/><text style="font-size:12px;font-family:OpenSans;fill:#ffffff;" text-anchor="middle" x="29.700000" y="16.000000">zf-C2H2</text></a></g>
<g transform="translate(1046.400000,69.500000)"><a xlink:href="https://www.ebi.ac.uk/interpro/entry/pfam/PF00096" xlink:title="Zinc finger, C2H2 type"><rect fill="#EBD61D" x="0" y="0" width="54.000000" height="24.000000" filter="url(#ds)"/><text style="font-size:12px;font-family:OpenSans;fill:#ffffff;" text-anchor="middle" x="27.000000" y="16.000000">zf-C2H2</text></a></g>
<g transform="translate(1116.600000,69.500000)"><a xlink:href="https://www.ebi.ac.uk/interpro/entry/pfam/PF00096" xlink:title="Zinc finger, C2H2 type"><rect fill="#BA21E0" x="0" y="0" width="59.400000" height="24.000000" filter="url(#ds)"/><text style="font-size:12px;font-family:OpenSans;fill:#ffffff;" text-anchor="middle" x="29.700000" y="16.000000">zf-C2H2</text></a></g>
<g transform="translate(1192.200000,69.500000)"><a xlink:href="https://www.ebi.ac.uk/interpro/entry/pfam/PF00096" xlink:title="Zinc finger, C2H2 type"><rect fill="#FF9C42" x="0" y="0" width="59.400000" height="24.000000" filter="url(#ds)"/><text style="font-size:12px;font-family:OpenSans;fill:#ffffff;" text-anchor="middle" x="29.700000" y="16.000000">zf-C2H2</text></a></g>
<g transform="translate(1305.600000,69.500000)"><a xlink:href="https://www.ebi.ac.uk/interpro/entry/pfam/PF13465" xlink:title="Zinc-finger double domain"><rect fill="#FF7DFF" x="0" y="0" width="67.500000" height="24.000000" filter="url(#ds)"/><text style="font-size:12px;font-family:OpenSans;fill:#ffffff;" text-anchor="middle" x="33.750000" y="16.000000">zf-H2C2_2</text></a></g>
<g class="axis">
<line x1="15.000000" x2="1467.600000" y1="103.500000" y2="103.500000" stroke="#AAAAAA" /><line x1="15.000000" x2="15.000000" y1="103.500000" y2="108.500000" stroke="#AAAAAA" /><line x1="15.000000" x2="15.000000" y1="103.500000" y2="108.500000" stroke="#AAAAAA" /><text style="font-size:10px;font-family:OpenSans;fill:#000000;" text-anchor="middle" x="15.000000" y="118.500000">0</text><line x1="133.800000" x2="133.800000" y1="103.500000" y2="108.500000" stroke="#AAAAAA" /><text style="font-size:10px;font-family:OpenSans;fill:#000000;" text-anchor="middle" x="133.800000" y="118.500000">44</text><line x1="239.100000" x2="239.100000" y1="103.500000" y2="108.500000" stroke="#AAAAAA" /><text style="font-size:10px;font-family:OpenSans;fill:#000000;" text-anchor="middle" x="239.100000" y="118.500000">83</text><line x1="374.100000" x2="374.100000" y1="103.500000" y2="108.500000" stroke="#AAAAAA" /><text style="font-size:10px;font-family:OpenSans;fill:#000000;" text-anchor="middle" x="374.100000" y="118.500000">133</text><line x1="889.800000" x2="889.800000" y1="103.500000" y2="108.500000" stroke="#AAAAAA" /><text style="font-size:10px;font-family:OpenSans;fill:#000000;" text-anchor="middle" x="889.800000" y="118.500000">324</text><line x1="949.200000" x2="949.200000" y1="103.500000" y2="108.500000" stroke="#AAAAAA" /><text style="font-size:10px;font-family:OpenSans;fill:#000000;" text-anchor="middle" x="949.200000" y="118.500000">346</text><line x1="1024.800000" x2="1024.800000" y1="103.500000" y2="108.500000" stroke="#AAAAAA" /><text style="font-size:10px;font-family:OpenSans;fill:#000000;" text-anchor="middle" x="1024.800000" y="118.500000">374</text><line x1="1046.400000" x2="1046.400000" y1="103.500000" y2="108.500000" stroke="#AAAAAA" /><text style="font-size:10px;font-family:OpenSans;fill:#000000;" text-anchor="middle" x="1046.400000" y="118.500000">382</text><line x1="1100.400000" x2="1100.400000" y1="103.500000" y2="108.500000" stroke="#AAAAAA" /><text style="font-size:10px;font-family:OpenSans;fill:#000000;" text-anchor="middle" x="1100.400000" y="118.500000">402</text><line x1="1176.000000" x2="1176.000000" y1="103.500000" y2="108.500000" stroke="#AAAAAA" /><text style="font-size:10px;font-family:OpenSans;fill:#000000;" text-anchor="middle" x="1176.000000" y="118.500000">430</text><line x1="1251.600000" x2="1251.600000" y1="103.500000" y2="108.500000" stroke="#AAAAAA" /><text style="font-size:10px;font-family:OpenSans;fill:#000000;" text-anchor="middle" x="1251.600000" y="118.500000">458</text><line x1="1305.600000" x2="1305.600000" y1="103.500000" y2="108.500000" stroke="#AAAAAA" /><text style="font-size:10px;font-family:OpenSans;fill:#000000;" text-anchor="middle" x="1305.600000" y="118.500000">478</text><line x1="1373.100000" x2="1373.100000" y1="103.500000" y2="108.500000" stroke="#AAAAAA" /><text style="font-size:10px;font-family:OpenSans;fill:#000000;" text-anchor="middle" x="1373.100000" y="118.500000">503</text><line x1="1467.600000" x2="1467.600000" y1="103.500000" y2="108.500000" stroke="#AAAAAA" /><text style="font-size:10px;font-family:OpenSans;fill:#000000;" text-anchor="middle" x="1467.600000" y="118.500000">538</text></g>
<rect fill="#FF9C42" x="4" y="132.500000" width="12" height="12" filter="url(#ds)"/><text style="font-size:12px;font-family:OpenSans;fill:#000000;" text-anchor="start" x="20" y="144.500000">Zinc finger, C2H2 type</text><rect fill="#FF7DFF" x="4" y="146.500000" width="12" height="12" filter="url(#ds)"/><text style="font-size:12px;font-family:OpenSans;fill:#000000;" text-anchor="start" x="20" y="158.500000">Zinc-finger double domain</text></svg>
