<?xml version='1.0'?>
<svg xmlns="http://www.w3.org/2000/svg" xmlns:xlink="http://www.w3.org/1999/xlink" width="1477.200000" height="146.200000">
<defs>
  <filter id="ds" x="0" y="0">
    <feOffset in="SourceAlpha" dx="2" dy="2" />
    <feComponentTransfer><feFuncA type="linear" slope="0.2"/></feComponentTransfer>
    <feGaussianBlur result="blurOut" stdDeviation="1" />
    <feBlend in="SourceGraphic" in2="blurOut" mode="normal" />
  </filter>
  <pattern id="disordered-hatch" patternUnits="userSpaceOnUse" width="4" height="4">
    <path d="M-1,1 l2,-2 M0,4 l4,-4 M3,5 l2,-2" stroke="#000000" opacity="0.3" />
  </pattern>
</defs>
<line x1="236.400000" x2="236.400000" y1="34.000000" y2="62.000000" stroke="#BABDB6" stroke-width="2"/><a xlink:title="A82P"><circle cx="236.400000" cy="34.000000" r="4.000000" fill="#ff0000" /></a><g transform="translate(236.400000,34.000000) rotate(-30)"><text style="font-size:10px;font-family:OpenSans;fill:#555;" text-anchor="middle" x="0" y="-6.000000">A82P</text></g><line x1="344.400000" x2="344.400000" y1="34.000000" y2="62.000000" stroke="#BABDB6" stroke-width="2"/><a xlink:title="A122P"><circle cx="344.400000" cy="34.000000" r="4.000000" fill="#ff0000" /></a><g transform="translate(344.400000,34.000000) rotate(-30)"><text style="font-size:10px;font-family:OpenSans;fill:#555;" text-anchor="middle" x="0" y="-6.000000">A122P</text></g><a xlink:title=",  (536aa)"><rect fill="#BABDB6" x="15.000000" y="62.000000" width="1447.200000" height="14.000000"/></a><g transform="translate(352.500000,57.000000)"><a xlink:href="https://www.ebi.ac.uk/interpro/entry/pfam/PF00096" xlink:title="Zinc finger, C2H2 type"><rect fill="#2DCF00" x="0" y="0" width="54.000000" height="24.000000" filter="url(#ds)"/><text style="font-size:12px;font-family:OpenSans;fill:#ffffff;" text-anchor="middle" x="27.000000" y="16.000000">zf-C2H2</text></a></g>
<g transform="translate(422.700000,57.000000)"><a xlink:href="https://www.ebi.ac.uk/interpro/entry/pfam/PF00096" xlink:title="Zinc finger, C2H2 type"><rect fill="#FF5353" x="0" y="0" width="59.400000" height="24.000000" filter="url(#ds)"/><text style="font-size:12px;font-family:OpenSans;fill:#ffffff;" text-anchor="middle" x="29.700000" y="16.000000">zf-C2H2</text></a></g>
<g transform="translate(498.300000,57.000000)"><a xlink:href="https://www.ebi.ac.uk/interpro/entry/pfam/PF00096" xlink:title="Zinc finger, C2H2 type"><rect fill="#5B5BFF" x="0" y="0" width="59.400000" height="24.000000" filter="url(#ds)"/><text style="font-size:12px;font-family:OpenSans;fill:#ffffff;" text-anchor="middle" x="29.700000" y="16.000000">zf-C2H2</text></a></g>
<g transform="translate(573.900000,57.000000)"><a xlink:href="https://www.ebi.ac.uk/interpro/entry/pfam/PF00096" xlink:title="Zinc finger, C2H2 type"><rect fill="#EBD61D" x="0" y="0" width="59.400000" height="24.000000" filter="url(#ds)"/><text style="font-size:12px;font-family:OpenSans;fill:#ffffff;" text-anchor="middle" x="29.700000" y="16.000000">zf-C2H2</text></a></g>
<g transform="translate(649.500000,57.000000)"><a xlink:href="https://www.ebi.ac.uk/interpro/entry/pfam/PF00096" xlink:title="Zinc finger, C2H2 type"><rect fill="#BA21E0" x="0" y="0" width="59.400000" height="24.000000" filter="url(#ds)"/><text style="font-size:12px;font-family:OpenSans;fill:#ffffff;" text-anchor="middle" x="29.700000" y="16.000000">zf-C2H2</text></a></g>
<g transform="translate(725.100000,57.000000)"><a xlink:href="https://www.ebi.ac.uk/interpro/entry/pfam/PF00096" xlink:title="Zinc finger, C2H2 type"><rect fill="#FF9C42" x="0" y="0" width="59.400000" height="24.000000" filter="url(#ds)"/><text style="font-size:12px;font-family:OpenSans;fill:#ffffff;" text-anchor="middle" x="29.700000" y="16.000000">zf-C2H2</text></a></g>
<g transform="translate(800.700000,57.000000)"><a xlink:href="https://www.ebi.ac.uk/interpro/entry/pfam/PF00096" xlink:title="Zinc finger, C2H2 type"><rect fill="#FF7DFF" x="0" y="0" width="59.400000" height="24.000000" filter="url(#ds)"/><text style="font-size:12px;font-family:OpenSans;fill:#ffffff;" text-anchor="middle" x="29.700000" y="16.000000">zf-C2H2</text></a></g>
<g transform="translate(876.300000,57.000000)"><a xlink:href="https://www.ebi.ac.uk/interpro/entry/pfam/PF00096" xlink:title="Zinc finger, C2H2 type"><rect fill="#B9264F" x="0" y="0" width="59.400000" height="24.000000" filter="url(#ds)"/><text style="font-size:12px;font-family:OpenSans;fill:#ffffff;" text-anchor="middle" x="29.700000" y="16.000000">zf-C2H2</text></a></g>
<g transform="translate(951.900000,57.000000)"><a xlink:href="https://www.ebi.ac.uk/interpro/entry/pfam/PF00096" xlink:title="Zinc finger, C2H2 type"><rect fill="#BABA21" x="0" y="0" width="59.400000" height="24.000000" filter="url(#ds)"/><text style="font-size:12px;font-family:OpenSans;fill:#ffffff;" text-anchor="middle" x="29.700000" y="16.000000">zf-C2H2</text></a></g>
<g transform="translate(1027.500000,57.000000)"><a xlink:href="https://www.ebi.ac.uk/interpro/entry/pfam/PF00096" xlink:title="Zinc finger, C2H2 type"><rect fill="#C48484" x="0" y="0" width="59.400000" height="24.000000" filter="url(#ds)"/><text style="font-size:12px;font-family:OpenSans;fill:#ffffff;" text-anchor="middle" x="29.700000" y="16.000000">zf-C2H2</text></a></g>
<g transform="translate(1103.100000,57.000000)"><a xlink:href="https://www.ebi.ac.uk/interpro/entry/pfam/PF00096" xlink:title="Zinc finger, C2H2 type"><rect fill="#1F88A7" x="0" y="0" width="59.400000" height="24.000000" filter="url(#ds)"/><text style="font-size:12px;font-family:OpenSans;fill:#ffffff;" text-anchor="middle" x="29.700000" y="16.000000">zf-C2H2</text></a></g>
<g transform="translate(1178.700000,57.000000)"><a xlink:href="https://www.ebi.ac.uk/interpro/entry/pfam/PF00096" xlink:title="Zinc finger, C2H2 type"><rect fill="#CAFEB8" x="0" y="0" width="59.400000" height="24.000000" filter="url(#ds)"/><text style="font-size:12px;font-family:OpenSans;fill:#ffffff;" text-anchor="middle" x="29.700000" y="16.000000">zf-C2H2</text></a></g>
<g transform="translate(1254.300000,57.000000)"><a xlink:href="https://www.ebi.ac.uk/interpro/entry/pfam/PF00096" xlink:title="Zinc finger, C2H2 type"><rect fill="#4A9586" x="0" y="0" width="59.400000" height="24.000000" filter="url(#ds)"/><text style="font-size:12px;font-family:OpenSans;fill:#ffffff;" text-anchor="middle" x="29.700000" y="16.000000">zf-C2H2</text></a></g>
<g class="axis">
<line x1="15.000000" x2="1462.200000" y1="91.000000" y2="91.000000" stroke="#AAAAAA" /><line x1="15.000000" x2="15.000000" y1="91.000000" y2="96.000000" stroke="#AAAAAA" /><line x1="15.000000" x2="15.000000" y1="91.000000" y2="96.000000" stroke="#AAAAAA" /><text style="font-size:10px;font-family:OpenSans;fill:#000000;" text-anchor="middle" x="15.000000" y="106.000000">0</text><line x1="236.400000" x2="236.400000" y1="91.000000" y2="96.000000" stroke="#AAAAAA" /><text style="font-size:10px;font-family:OpenSans;fill:#000000;" text-anchor="middle" x="236.400000" y="106.000000">82</text><line x1="344.400000" x2="344.400000" y1="91.000000" y2="96.000000" stroke="#AAAAAA" /><text style="font-size:10px;font-family:OpenSans;fill:#000000;" text-anchor="middle" x="344.400000" y="106.000000">122</text><line x1="406.500000" x2="406.500000" y1="91.000000" y2="96.000000" stroke="#AAAAAA" /><text style="font-size:10px;font-family:OpenSans;fill:#000000;" text-anchor="middle" x="406.500000" y="106.000000">145</text><line x1="482.100000" x2="482.100000" y1="91.000000" y2="96.000000" stroke="#AAAAAA" /><text style="font-size:10px;font-family:OpenSans;fill:#000000;" text-anchor="middle" x="482.100000" y="106.000000">173</text><line x1="557.700000" x2="557.700000" y1="91.000000" y2="96.000000" stroke="#AAAAAA" /><text style="font-size:10px;font-family:OpenSans;fill:#000000;" text-anchor="middle" x="557.700000" y="106.000000">201</text><line x1="633.300000" x2="633.300000" y1="91.000000" y2="96.000000" stroke="#AAAAAA" /><text style="font-size:10px;font-family:OpenSans;fill:#000000;" text-anchor="middle" x="633.300000" y="106.000000">229</text><line x1="708.900000" x2="708.900000" y1="91.000000" y2="96.000000" stroke="#AAAAAA" /><text style="font-size:10px;font-family:OpenSans;fill:#000000;" text-anchor="middle" x="708.900000" y="106.000000">257</text><line x1="784.500000" x2="784.500000" y1="91.000000" y2="96.000000" stroke="#AAAAAA" /><text style="font-size:10px;font-family:OpenSans;fill:#000000;" text-anchor="middle" x="784.500000" y="106.000000">285</text><line x1="860.100000" x2="860.100000" y1="91.000000" y2="96.000000" stroke="#AAAAAA" /><text style="font-size:10px;font-family:OpenSans;fill:#000000;" text-anchor="middle" x="860.100000" y="106.000000">313</text><line x1="935.700000" x2="935.700000" y1="91.000000" y2="96.000000" stroke="#AAAAAA" /><text style="font-size:10px;font-family:OpenSans;fill:#000000;" text-anchor="middle" x="935.700000" y="106.000000">341</text><line x1="1011.300000" x2="1011.300000" y1="91.000000" y2="96.000000" stroke="#AAAAAA" /><text style="font-size:10px;font-family:OpenSans;fill:#000000;" text-anchor="middle" x="1011.300000" y="106.000000">369</text><line x1="1086.900000" x2="1086.900000" y1="91.000000" y2="96.000000" stroke="#AAAAAA" /><text style="font-size:10px;font-family:OpenSans;fill:#000000;" text-anchor="middle" x="1086.900000" y="106.000000">397</text><line x1="1162.500000" x2="1162.500000" y1="91.000000" y2="96.000000" stroke="#AAAAAA" /><text style="font-size:10px;font-family:OpenSans;fill:#000000;" text-anchor="middle" x="1162.500000" y="106.000000">425</text><line x1="1238.100000" x2="1238.100000" y1="91.000000" y2="96.000000" stroke="#AAAAAA" /><text style="font-size:10px;font-family:OpenSans;fill:#000000;" text-anchor="middle" x="1238.100000" y="106.000000">453</text><line x1="1313.700000" x2="1313.700000" y1="91.000000" y2="96.000000" stroke="#AAAAAA" /><text style="font-size:10px;font-family:OpenSans;fill:#000000;" text-anchor="middle" x="1313.700000" y="106.000000">481</text><line x1="1462.200000" x2="1462.200000" y1="91.000000" y2="96.000000" stroke="#AAAAAA" /><text style="font-size:10px;font-family:OpenSans;fill:#000000;" text-anchor="middle" x="1462.200000" y="106.000000">536</text></g>
<rect fill="#4A9586" x="4" y="120.000000" width="12" height="12" filter="url(#ds)"/><text style="font-size:12px;font-family:OpenSans;fill:#000000;" text-anchor="start" x="20" y="132.000000">Zinc finger, C2H2 type</text></svg>
