<?xml version='1.0'?>
<svg xmlns="http://www.w3.org/2000/svg" xmlns:xlink="http://www.w3.org/1999/xlink" width="1463.700000" height="158.700000">
<defs>
  <filter id="ds" x="0" y="0">
    <feOffset in="SourceAlpha" dx="2" dy="2" />
    <feComponentTransfer><feFuncA type="linear" slope="0.2"/></feComponentTransfer>
    <feGaussianBlur result="blurOut" stdDeviation="1" />
    <feBlend in="SourceGraphic" in2="blurOut" mode="normal" />
  </filter>
  <pattern id="disordered-hatch" patternUnits="userSpaceOnUse" width="4" height="4">
    <path d="M-1,1 l2,-2 M0,4 l4,-4 M3,5 l2,-2" stroke="#000000" opacity="0.3" />
  </pattern>
</defs>
<line x1="1289.400000" x2="1289.400000" y1="34.000000" y2="74.500000" stroke="#BABDB6" stroke-width="2"/><a xlink:title="H472D"><circle cx="1289.400000" cy="34.000000" r="4.000000" fill="#ff0000" /></a><g transform="translate(1289.400000,34.000000) rotate(-30)"><text style="font-size:10px;font-family:OpenSans;fill:#555;" text-anchor="middle" x="0" y="-6.000000">H472D</text></g><line x1="1292.100000" x2="1292.100000" y1="46.500000" y2="74.500000" stroke="#BABDB6" stroke-width="2"/><a xlink:title="H473D"><circle cx="1292.100000" cy="46.500000" r="4.000000" fill="#ff0000" /></a><g transform="translate(1292.100000,46.500000) rotate(-30)"><text style="font-size:10px;font-family:OpenSans;fill:#555;" text-anchor="middle" x="0" y="-6.000000">H473D</text></g><line x1="1386.600000" x2="1386.600000" y1="34.000000" y2="74.500000" stroke="#BABDB6" stroke-width="2"/><a xlink:title="H508D"><circle cx="1386.600000" cy="34.000000" r="4.000000" fill="#ff0000" /></a><g transform="translate(1386.600000,34.000000) rotate(-30)"><text style="font-size:10px;font-family:OpenSans;fill:#555;" text-anchor="middle" x="0" y="-6.000000">H508D</text></g><line x1="1389.300000" x2="1389.300000" y1="46.500000" y2="74.500000" stroke="#BABDB6" stroke-width="2"/><a xlink:title="H509D"><circle cx="1389.300000" cy="46.500000" r="4.000000" fill="#ff0000" /></a><g transform="translate(1389.300000,46.500000) rotate(-30)"><text style="font-size:10px;font-family:OpenSans;fill:#555;" text-anchor="middle" x="0" y="-6.000000">H509D</text></g><a xlink:title=",  (531aa)"><rect fill="#BABDB6" x="15.000000" y="74.500000" width="1433.700000" height="14.000000"/></a><g transform="translate(23.100000,69.500000)"><a xlink:href="https://www.ebi.ac.uk/interpro/entry/pfam/PF01352" xlink:title="KRAB box"><rect fill="#2DCF00" x="0" y="0" width="110.700000" height="24.000000" filter="url(#ds)"/><text style="font-size:12px;font-family:OpenSans;fill:#ffffff;" text-anchor="middle" x="55.350000" y="16.000000">KRAB box</text></a></g>
<g transform="translate(401.100000,69.500000)"><a xlink:href="https://www.ebi.ac.uk/interpro/entry/pfam/PF00096" xlink:title="Zinc finger, C2H2 type"><rect fill="#FF5353" x="0" y="0" width="59.400000" height="24.000000" filter="url(#ds)"/><text style="font-size:12px;font-family:OpenSans;fill:#ffffff;" text-anchor="middle" x="29.700000" y="16.000000">zf-C2H2</text></a></g>
<g transform="translate(476.700000,69.500000)"><a xlink:href="https://www.ebi.ac.uk/interpro/entry/pfam/PF00096" xlink:title="Zinc finger, C2H2 type"><rect fill="#5B5BFF" x="0" y="0" width="59.400000" height="24.000000" filter="url(#ds)"/><text style="font-size:12px;font-family:OpenSans;fill:#ffffff;" text-anchor="middle" x="29.700000" y="16.000000">zf-C2H2</text></a></g>
<g transform="translate(552.300000,69.500000)"><a xlink:href="https://www.ebi.ac.uk/interpro/entry/pfam/PF00096" xlink:title="Zinc finger, C2H2 type"><rect fill="#EBD61D" x="0" y="0" width="59.400000" height="24.000000" filter="url(#ds)"/><text style="font-size:12px;font-family:OpenSans;fill:#ffffff;" text-anchor="middle" x="29.700000" y="16.000000">zf-C2H2</text></a></g>
<g transform="translate(627.900000,69.500000)"><a xlink:href="https://www.ebi.ac.uk/interpro/entry/pfam/PF00096" xlink:title="Zinc finger, C2H2 type"><rect fill="#BA21E0" x="0" y="0" width="59.400000" height="24.000000" filter="url(#ds)"/><text style="font-size:12px;font-family:OpenSans;fill:#ffffff;" text-anchor="middle" x="29.700000" y="16.000000">zf-C2H2</text></a></g>
<g transform="translate(779.100000,69.500000)"><a xlink:href="https://www.ebi.ac.uk/interpro/entry/pfam/PF00096" xlink:title="Zinc finger, C2H2 type"><rect fill="#FF9C42" x="0" y="0" width="59.400000" height="24.000000" filter="url(#ds)"/><text style="font-size:12px;font-family:OpenSans;fill:#ffffff;" text-anchor="middle" x="29.700000" y="16.000000">zf-C2H2</text></a></g>
<g transform="translate(854.700000,69.500000)"><a xlink:href="https://www.ebi.ac.uk/interpro/entry/pfam/PF00096" xlink:title="Zinc finger, C2H2 type"><rect fill="#FF7DFF" x="0" y="0" width="59.400000" height="24.000000" filter="url(#ds)"/><text style="font-size:12px;font-family:OpenSans;fill:#ffffff;" text-anchor="middle" x="29.700000" y="16.000000">zf-C2H2</text></a></g>
<g transform="translate(930.300000,69.500000)"><a xlink:href="https://www.ebi.ac.uk/interpro/entry/pfam/PF00096" xlink:title="Zinc finger, C2H2 type"><rect fill="#B9264F" x="0" y="0" width="59.400000" height="24.000000" filter="url(#ds)"/><text style="font-size:12px;font-family:OpenSans;fill:#ffffff;" text-anchor="middle" x="29.700000" y="16.000000">zf-C2H2</text></a></g>
<g transform="translate(1005.900000,69.500000)"><a xlink:href="https://www.ebi.ac.uk/interpro/entry/pfam/PF00096" xlink:title="Zinc finger, C2H2 type"><rect fill="#BABA21" x="0" y="0" width="59.400000" height="24.000000" filter="url(#ds)"/><text style="font-size:12px;font-family:OpenSans;fill:#ffffff;" text-anchor="middle" x="29.700000" y="16.000000">zf-C2H2</text></a></g>
<g transform="translate(1081.500000,69.500000)"><a xlink:href="https://www.ebi.ac.uk/interpro/entry/pfam/PF00096" xlink:title="Zinc finger, C2H2 type"><rect fill="#C48484" x="0" y="0" width="59.400000" height="24.000000" filter="url(#ds)"/><text style="font-size:12px;font-family:OpenSans;fill:#ffffff;" text-anchor="middle" x="29.700000" y="16.000000">zf-C2H2</text></a></g>
<g transform="translate(1162.500000,69.500000)"><a xlink:href="https://www.ebi.ac.uk/interpro/entry/pfam/PF00096" xlink:title="Zinc finger, C2H2 type"><rect fill="#1F88A7" x="0" y="0" width="54.000000" height="24.000000" filter="url(#ds)"/><text style="font-size:12px;font-family:OpenSans;fill:#ffffff;" text-anchor="middle" x="27.000000" y="16.000000">zf-C2H2</text></a></g>
<g transform="translate(1232.700000,69.500000)"><a xlink:href="https://www.ebi.ac.uk/interpro/entry/pfam/PF00096" xlink:title="Zinc finger, C2H2 type"><rect fill="#CAFEB8" x="0" y="0" width="59.400000" height="24.000000" filter="url(#ds)"/><text style="font-size:12px;font-family:OpenSans;fill:#ffffff;" text-anchor="middle" x="29.700000" y="16.000000">zf-C2H2</text></a></g>
<g transform="translate(1308.300000,69.500000)"><a xlink:href="https://www.ebi.ac.uk/interpro/entry/pfam/PF00096" xlink:title="Zinc finger, C2H2 type"><rect fill="#4A9586" x="0" y="0" width="59.400000" height="24.000000" filter="url(#ds)"/><text style="font-size:12px;font-family:OpenSans;fill:#ffffff;" text-anchor="middle" x="29.700000" y="16.000000">zf-C2H2</text></a></g>
<g transform="translate(1383.900000,69.500000)"><a xlink:href="https://www.ebi.ac.uk/interpro/entry/pfam/PF00096" xlink:title="Zinc finger, C2H2 type"><rect fill="#CEB86C" x="0" y="0" width="59.400000" height="24.000000" filter="url(#ds)"/><text style="font-size:12px;font-family:OpenSans;fill:#ffffff;" text-anchor="middle" x="29.700000" y="16.000000">zf-C2H2</text></a></g>
<g class="axis">
<line x1="15.000000" x2="1448.700000" y1="103.500000" y2="103.500000" stroke="#AAAAAA" /><line x1="15.000000" x2="15.000000" y1="103.500000" y2="108.500000" stroke="#AAAAAA" /><line x1="23.100000" x2="23.100000" y1="103.500000" y2="108.500000" stroke="#AAAAAA" /><text style="font-size:10px;font-family:OpenSans;fill:#000000;" text-anchor="middle" x="23.100000" y="118.500000">3</text><line x1="133.800000" x2="133.800000" y1="103.500000" y2="108.500000" stroke="#AAAAAA" /><text style="font-size:10px;font-family:OpenSans;fill:#000000;" text-anchor="middle" x="133.800000" y="118.500000">44</text><line x1="401.100000" x2="401.100000" y1="103.500000" y2="108.500000" stroke="#AAAAAA" /><text style="font-size:10px;font-family:OpenSans;fill:#000000;" text-anchor="middle" x="401.100000" y="118.500000">143</text><line x1="460.500000" x2="460.500000" y1="103.500000" y2="108.500000" stroke="#AAAAAA" /><text style="font-size:10px;font-family:OpenSans;fill:#000000;" text-anchor="middle" x="460.500000" y="118.500000">165</text><line x1="536.100000" x2="536.100000" y1="103.500000" y2="108.500000" stroke="#AAAAAA" /><text style="font-size:10px;font-family:OpenSans;fill:#000000;" text-anchor="middle" x="536.100000" y="118.500000">193</text><line x1="611.700000" x2="611.700000" y1="103.500000" y2="108.500000" stroke="#AAAAAA" /><text style="font-size:10px;font-family:OpenSans;fill:#000000;" text-anchor="middle" x="611.700000" y="118.500000">221</text><line x1="687.300000" x2="687.300000" y1="103.500000" y2="108.500000" stroke="#AAAAAA" /><text style="font-size:10px;font-family:OpenSans;fill:#000000;" text-anchor="middle" x="687.300000" y="118.500000">249</text><line x1="779.100000" x2="779.100000" y1="103.500000" y2="108.500000" stroke="#AAAAAA" /><text style="font-size:10px;font-family:OpenSans;fill:#000000;" text-anchor="middle" x="779.100000" y="118.500000">283</text><line x1="838.500000" x2="838.500000" y1="103.500000" y2="108.500000" stroke="#AAAAAA" /><text style="font-size:10px;font-family:OpenSans;fill:#000000;" text-anchor="middle" x="838.500000" y="118.500000">305</text><line x1="914.100000" x2="914.100000" y1="103.500000" y2="108.500000" stroke="#AAAAAA" /><text style="font-size:10px;font-family:OpenSans;fill:#000000;" text-anchor="middle" x="914.100000" y="118.500000">333</text><line x1="989.700000" x2="989.700000" y1="103.500000" y2="108.500000" stroke="#AAAAAA" /><text style="font-size:10px;font-family:OpenSans;fill:#000000;" text-anchor="middle" x="989.700000" y="118.500000">361</text><line x1="1065.300000" x2="1065.300000" y1="103.500000" y2="108.500000" stroke="#AAAAAA" /><text style="font-size:10px;font-family:OpenSans;fill:#000000;" text-anchor="middle" x="1065.300000" y="118.500000">389</text><line x1="1140.900000" x2="1140.900000" y1="103.500000" y2="108.500000" stroke="#AAAAAA" /><text style="font-size:10px;font-family:OpenSans;fill:#000000;" text-anchor="middle" x="1140.900000" y="118.500000">417</text><line x1="1162.500000" x2="1162.500000" y1="103.500000" y2="108.500000" stroke="#AAAAAA" /><text style="font-size:10px;font-family:OpenSans;fill:#000000;" text-anchor="middle" x="1162.500000" y="118.500000">425</text><line x1="1216.500000" x2="1216.500000" y1="103.500000" y2="108.500000" stroke="#AAAAAA" /><text style="font-size:10px;font-family:OpenSans;fill:#000000;" text-anchor="middle" x="1216.500000" y="118.500000">445</text><line x1="1289.400000" x2="1289.400000" y1="103.500000" y2="108.500000" stroke="#AAAAAA" /><text style="font-size:10px;font-family:OpenSans;fill:#000000;" text-anchor="middle" x="1289.400000" y="118.500000">472</text><line x1="1308.300000" x2="1308.300000" y1="103.500000" y2="108.500000" stroke="#AAAAAA" /><text style="font-size:10px;font-family:OpenSans;fill:#000000;" text-anchor="middle" x="1308.300000" y="118.500000">479</text><line x1="1386.600000" x2="1386.600000" y1="103.500000" y2="108.500000" stroke="#AAAAAA" /><text style="font-size:10px;font-family:OpenSans;fill:#000000;" text-anchor="middle" x="1386.600000" y="118.500000">508</text><line x1="1448.700000" x2="1448.700000" y1="103.500000" y2="108.500000" stroke="#AAAAAA" /><text style="font-size:10px;font-family:OpenSans;fill:#000000;" text-anchor="middle" x="1448.700000" y="118.500000">531</text></g>
<rect fill="#CEB86C" x="4" y="132.500000" width="12" height="12" filter="url(#ds)"/><text style="font-size:12px;font-family:OpenSans;fill:#000000;" text-anchor="start" x="20" y="144.500000">Zinc finger, C2H2 type</text></svg>
